<?xml version="1.0" ?>
<svg xmlns="http://www.w3.org/2000/svg" version="1.1" width="224" height="224">
  <defs/>
  <g>
    <path d="M 136.68251037597656 107.53341674804688 C 127.50144958496094 100.78504180908203 148.1332550048828 129.75436401367188 119.4863510131836 64.874267578125" stroke-width="3.0" fill="none" stroke="rgb(0, 0, 0)" stroke-opacity="1.0" stroke-linecap="round" stroke-linejoin="round"/>
    <path d="M 108.31348419189453 91.05908966064453 C 112.78888702392578 100.47796630859375 102.48851013183594 101.88872528076172 108.46375274658203 115.96949005126953" stroke-width="3.0" fill="none" stroke="rgb(0, 0, 0)" stroke-opacity="1.0" stroke-linecap="round" stroke-linejoin="round"/>
    <path d="M 128.62417602539062 109.58602142333984 C 145.64430236816406 98.30783081054688 159.8085479736328 132.4954833984375 196.1986846923828 58.06271743774414" stroke-width="3.0" fill="none" stroke="rgb(0, 0, 0)" stroke-opacity="1.0" stroke-linecap="round" stroke-linejoin="round"/>
    <path d="M 70.61756896972656 38.987422943115234 C 64.1944351196289 39.22663116455078 54.97713851928711 48.12637710571289 42.070159912109375 61.0287971496582" stroke-width="3.0" fill="none" stroke="rgb(0, 0, 0)" stroke-opacity="1.0" stroke-linecap="round" stroke-linejoin="round"/>
    <path d="M 141.35133361816406 81.74772644042969 C 101.20278930664062 41.31252670288086 111.65129089355469 67.88204956054688 95.78225708007812 45.572410583496094" stroke-width="3.0" fill="none" stroke="rgb(0, 0, 0)" stroke-opacity="1.0" stroke-linecap="round" stroke-linejoin="round"/>
    <path d="M 67.25176239013672 110.3713607788086 C 42.138648986816406 75.09342956542969 61.36358642578125 99.0793685913086 45.86476135253906 68.20948028564453" stroke-width="3.0" fill="none" stroke="rgb(0, 0, 0)" stroke-opacity="1.0" stroke-linecap="round" stroke-linejoin="round"/>
    <path d="M 185.2401123046875 60.490074157714844 C 172.95391845703125 31.211776733398438 193.27183532714844 48.88420486450195 188.91058349609375 80.58383178710938" stroke-width="3.0" fill="none" stroke="rgb(0, 0, 0)" stroke-opacity="1.0" stroke-linecap="round" stroke-linejoin="round"/>
    <path d="M 105.78694915771484 196.07176208496094 C 110.98863983154297 118.15280151367188 116.09425354003906 148.2046356201172 126.53053283691406 97.65845489501953" stroke-width="3.0" fill="none" stroke="rgb(0, 0, 0)" stroke-opacity="1.0" stroke-linecap="round" stroke-linejoin="round"/>
    <path d="M 48.91012954711914 99.41960906982422 C 12.438851356506348 186.14492797851562 34.30813217163086 142.64755249023438 38.00078201293945 199.72947692871094" stroke-width="3.0" fill="none" stroke="rgb(0, 0, 0)" stroke-opacity="1.0" stroke-linecap="round" stroke-linejoin="round"/>
    <path d="M 65.6279525756836 40.688804626464844 C 101.31665802001953 14.036042213439941 149.4422607421875 139.49705505371094 175.98062133789062 51.46713638305664" stroke-width="3.0" fill="none" stroke="rgb(0, 0, 0)" stroke-opacity="1.0" stroke-linecap="round" stroke-linejoin="round"/>
    <path d="M 48.912784576416016 96.82735443115234 C 84.11702728271484 126.56417846679688 76.74242401123047 114.8459701538086 105.85478210449219 118.98265838623047" stroke-width="3.0" fill="none" stroke="rgb(0, 0, 0)" stroke-opacity="1.0" stroke-linecap="round" stroke-linejoin="round"/>
    <path d="M 20.57462501525879 154.67698669433594 C 38.1351432800293 114.61813354492188 -17.123533248901367 89.48804473876953 48.80194854736328 55.845550537109375" stroke-width="3.0" fill="none" stroke="rgb(0, 0, 0)" stroke-opacity="1.0" stroke-linecap="round" stroke-linejoin="round"/>
    <path d="M 177.330078125 88.67170715332031 C 190.69412231445312 21.038236618041992 206.46791076660156 29.810686111450195 170.14378356933594 91.63854217529297" stroke-width="3.0" fill="none" stroke="rgb(0, 0, 0)" stroke-opacity="1.0" stroke-linecap="round" stroke-linejoin="round"/>
    <path d="M 106.36962127685547 119.63526153564453 C 107.7497329711914 190.81272888183594 80.89098358154297 205.85836791992188 112.29247283935547 188.9552764892578" stroke-width="3.0" fill="none" stroke="rgb(0, 0, 0)" stroke-opacity="1.0" stroke-linecap="round" stroke-linejoin="round"/>
    <path d="M 168.23080444335938 71.55091857910156 C 178.15399169921875 2.3556973934173584 212.7136688232422 75.81289672851562 208.82676696777344 48.11777877807617" stroke-width="3.0" fill="none" stroke="rgb(0, 0, 0)" stroke-opacity="1.0" stroke-linecap="round" stroke-linejoin="round"/>
    <path d="M 195.7989959716797 62.33251953125 C 159.62005615234375 41.15528106689453 261.5243225097656 52.54469299316406 198.1496124267578 60.18802261352539" stroke-width="3.0" fill="none" stroke="rgb(0, 0, 0)" stroke-opacity="1.0" stroke-linecap="round" stroke-linejoin="round"/>
  </g>
</svg>
