<?xml version="1.0" ?>
<svg xmlns="http://www.w3.org/2000/svg" version="1.1" width="224" height="224">
  <defs/>
  <g>
    <path d="M 79.50480651855469 119.44171905517578 C 86.62116241455078 128.5916748046875 75.91463470458984 127.97586059570312 77.26924896240234 119.27079772949219" stroke-width="3.0" fill="none" stroke="rgb(0, 0, 0)" stroke-opacity="1.0" stroke-linecap="round" stroke-linejoin="round"/>
    <path d="M 76.17552185058594 125.37710571289062 C 110.89295196533203 134.9281768798828 111.33946228027344 124.44998168945312 134.79660034179688 121.96011352539062" stroke-width="3.0" fill="none" stroke="rgb(0, 0, 0)" stroke-opacity="1.0" stroke-linecap="round" stroke-linejoin="round"/>
    <path d="M 150.43772888183594 90.41844177246094 C 225.33642578125 120.6506118774414 187.3079833984375 128.46864318847656 216.76910400390625 144.1603240966797" stroke-width="3.0" fill="none" stroke="rgb(0, 0, 0)" stroke-opacity="1.0" stroke-linecap="round" stroke-linejoin="round"/>
    <path d="M 55.63401794433594 72.29283905029297 C 41.69706726074219 153.68190002441406 79.7393569946289 87.77619934082031 32.05548095703125 159.72315979003906" stroke-width="3.0" fill="none" stroke="rgb(0, 0, 0)" stroke-opacity="1.0" stroke-linecap="round" stroke-linejoin="round"/>
    <path d="M 122.40411376953125 89.37174224853516 C 139.84542846679688 92.16195678710938 153.7872314453125 83.4914321899414 172.28562927246094 105.51764678955078" stroke-width="3.0" fill="none" stroke="rgb(0, 0, 0)" stroke-opacity="1.0" stroke-linecap="round" stroke-linejoin="round"/>
    <path d="M 146.0579376220703 123.07192993164062 C 144.86322021484375 124.34244537353516 126.25081634521484 122.32290649414062 135.1588134765625 120.31108093261719" stroke-width="3.0" fill="none" stroke="rgb(0, 0, 0)" stroke-opacity="1.0" stroke-linecap="round" stroke-linejoin="round"/>
    <path d="M 77.6010513305664 120.89260864257812 C 84.91123962402344 121.74578094482422 60.637229919433594 135.0658721923828 85.8797607421875 110.48841857910156" stroke-width="3.0" fill="none" stroke="rgb(0, 0, 0)" stroke-opacity="1.0" stroke-linecap="round" stroke-linejoin="round"/>
    <path d="M 137.96417236328125 127.50768280029297 C 123.80769348144531 176.825439453125 142.5110321044922 157.1778106689453 97.81927490234375 185.39794921875" stroke-width="3.0" fill="none" stroke="rgb(0, 0, 0)" stroke-opacity="1.0" stroke-linecap="round" stroke-linejoin="round"/>
    <path d="M 55.1660270690918 128.79205322265625 C -3.5327272415161133 174.79270935058594 51.69525146484375 153.15672302246094 14.827418327331543 169.79635620117188" stroke-width="3.0" fill="none" stroke="rgb(0, 0, 0)" stroke-opacity="1.0" stroke-linecap="round" stroke-linejoin="round"/>
    <path d="M 45.39897537231445 43.50197982788086 C 116.47454833984375 94.26759338378906 72.42955017089844 83.763427734375 136.8013458251953 90.2602767944336" stroke-width="3.0" fill="none" stroke="rgb(0, 0, 0)" stroke-opacity="1.0" stroke-linecap="round" stroke-linejoin="round"/>
    <path d="M 134.19300842285156 161.8885040283203 C 153.00108337402344 116.07964324951172 154.04830932617188 156.25665283203125 180.43211364746094 106.3733139038086" stroke-width="3.0" fill="none" stroke="rgb(0, 0, 0)" stroke-opacity="1.0" stroke-linecap="round" stroke-linejoin="round"/>
    <path d="M 30.109155654907227 154.13815307617188 C 74.7115707397461 121.23439025878906 58.66683578491211 146.34835815429688 73.90434265136719 117.21289825439453" stroke-width="3.0" fill="none" stroke="rgb(0, 0, 0)" stroke-opacity="1.0" stroke-linecap="round" stroke-linejoin="round"/>
    <path d="M 155.2772216796875 119.57514190673828 C 136.19850158691406 132.4205322265625 135.0285186767578 126.23896026611328 140.43548583984375 131.94395446777344" stroke-width="3.0" fill="none" stroke="rgb(0, 0, 0)" stroke-opacity="1.0" stroke-linecap="round" stroke-linejoin="round"/>
    <path d="M 170.94680786132812 109.14959716796875 C 170.62794494628906 184.91412353515625 141.83489990234375 204.24826049804688 159.59384155273438 188.98585510253906" stroke-width="3.0" fill="none" stroke="rgb(0, 0, 0)" stroke-opacity="1.0" stroke-linecap="round" stroke-linejoin="round"/>
    <path d="M 13.291471481323242 75.63329315185547 C 77.48551940917969 14.753443717956543 -19.785484313964844 67.84540557861328 69.4098129272461 48.48981857299805" stroke-width="3.0" fill="none" stroke="rgb(0, 0, 0)" stroke-opacity="1.0" stroke-linecap="round" stroke-linejoin="round"/>
    <path d="M 88.6656265258789 66.69892120361328 C 33.83906173706055 43.101402282714844 -0.45935142040252686 27.90969467163086 84.15361785888672 60.29199981689453" stroke-width="3.0" fill="none" stroke="rgb(0, 0, 0)" stroke-opacity="1.0" stroke-linecap="round" stroke-linejoin="round"/>
  </g>
</svg>
