<?xml version="1.0" ?>
<svg xmlns="http://www.w3.org/2000/svg" version="1.1" width="224" height="224">
  <defs/>
  <g>
    <path d="M 82.238037109375 109.24048614501953 C 84.27395629882812 130.27088928222656 77.61018371582031 114.71869659423828 75.28927612304688 121.55493927001953" stroke-width="3.0" fill="none" stroke="rgb(0, 0, 0)" stroke-opacity="1.0" stroke-linecap="round" stroke-linejoin="round"/>
    <path d="M 73.99378967285156 122.16895294189453 C 105.37054443359375 137.2450714111328 118.92481994628906 127.33309173583984 132.7586212158203 126.71125030517578" stroke-width="3.0" fill="none" stroke="rgb(0, 0, 0)" stroke-opacity="1.0" stroke-linecap="round" stroke-linejoin="round"/>
    <path d="M 171.4548797607422 102.54444885253906 C 219.47850036621094 115.39422607421875 192.99822998046875 135.58749389648438 219.97732543945312 143.8957061767578" stroke-width="3.0" fill="none" stroke="rgb(0, 0, 0)" stroke-opacity="1.0" stroke-linecap="round" stroke-linejoin="round"/>
    <path d="M 48.967655181884766 58.00635528564453 C 70.72566986083984 159.2680206298828 46.467952728271484 96.08753967285156 34.96154022216797 149.0537567138672" stroke-width="3.0" fill="none" stroke="rgb(0, 0, 0)" stroke-opacity="1.0" stroke-linecap="round" stroke-linejoin="round"/>
    <path d="M 106.26332092285156 86.15666198730469 C 143.2438201904297 92.10230255126953 143.46153259277344 77.78068542480469 179.25360107421875 108.97504425048828" stroke-width="3.0" fill="none" stroke="rgb(0, 0, 0)" stroke-opacity="1.0" stroke-linecap="round" stroke-linejoin="round"/>
    <path d="M 135.57118225097656 123.56071472167969 C 135.27175903320312 135.53656005859375 143.23873901367188 128.27244567871094 124.62278747558594 127.17027282714844" stroke-width="3.0" fill="none" stroke="rgb(0, 0, 0)" stroke-opacity="1.0" stroke-linecap="round" stroke-linejoin="round"/>
    <path d="M 72.28057098388672 127.27845001220703 C 92.58377075195312 106.33451843261719 61.20235061645508 131.2160186767578 79.79634094238281 118.15829467773438" stroke-width="3.0" fill="none" stroke="rgb(0, 0, 0)" stroke-opacity="1.0" stroke-linecap="round" stroke-linejoin="round"/>
    <path d="M 142.27072143554688 129.19924926757812 C 120.17314147949219 178.80056762695312 143.4772491455078 157.7298126220703 97.1667709350586 184.4326629638672" stroke-width="3.0" fill="none" stroke="rgb(0, 0, 0)" stroke-opacity="1.0" stroke-linecap="round" stroke-linejoin="round"/>
    <path d="M 46.68416976928711 131.7391815185547 C -12.838518142700195 211.3489990234375 68.83341979980469 128.37261962890625 14.871416091918945 167.27947998046875" stroke-width="3.0" fill="none" stroke="rgb(0, 0, 0)" stroke-opacity="1.0" stroke-linecap="round" stroke-linejoin="round"/>
    <path d="M 34.039710998535156 35.34464645385742 C 106.2860336303711 73.18682098388672 58.9704704284668 65.52938079833984 109.47833251953125 86.1163558959961" stroke-width="3.0" fill="none" stroke="rgb(0, 0, 0)" stroke-opacity="1.0" stroke-linecap="round" stroke-linejoin="round"/>
    <path d="M 132.36288452148438 162.68238830566406 C 155.01141357421875 118.08277893066406 150.65184020996094 161.31883239746094 182.50486755371094 108.12071228027344" stroke-width="3.0" fill="none" stroke="rgb(0, 0, 0)" stroke-opacity="1.0" stroke-linecap="round" stroke-linejoin="round"/>
    <path d="M 37.03700637817383 160.41619873046875 C 60.459903717041016 112.68783569335938 48.552146911621094 146.3157958984375 80.86203002929688 114.73580932617188" stroke-width="3.0" fill="none" stroke="rgb(0, 0, 0)" stroke-opacity="1.0" stroke-linecap="round" stroke-linejoin="round"/>
    <path d="M 159.95053100585938 118.63642883300781 C 131.9586639404297 132.1588134765625 159.95452880859375 117.32913208007812 105.0123519897461 130.3162078857422" stroke-width="3.0" fill="none" stroke="rgb(0, 0, 0)" stroke-opacity="1.0" stroke-linecap="round" stroke-linejoin="round"/>
    <path d="M 173.39759826660156 106.8402099609375 C 165.01739501953125 226.89939880371094 137.08663940429688 180.46548461914062 160.33192443847656 189.60215759277344" stroke-width="3.0" fill="none" stroke="rgb(0, 0, 0)" stroke-opacity="1.0" stroke-linecap="round" stroke-linejoin="round"/>
    <path d="M 13.497448921203613 74.72272491455078 C 71.0286865234375 10.087886810302734 -15.429929733276367 84.49726104736328 59.57666015625 38.39002227783203" stroke-width="3.0" fill="none" stroke="rgb(0, 0, 0)" stroke-opacity="1.0" stroke-linecap="round" stroke-linejoin="round"/>
    <path d="M 97.12515258789062 75.48941040039062 C 85.58952331542969 18.748355865478516 -28.3400821685791 46.59112548828125 81.89594268798828 52.171730041503906" stroke-width="3.0" fill="none" stroke="rgb(0, 0, 0)" stroke-opacity="1.0" stroke-linecap="round" stroke-linejoin="round"/>
  </g>
</svg>
