<?xml version="1.0" ?>
<svg xmlns="http://www.w3.org/2000/svg" version="1.1" width="224" height="224">
  <defs/>
  <g>
    <path d="M 79.86190032958984 112.14350128173828 C 95.18757629394531 129.40158081054688 84.21993255615234 122.46802520751953 80.17506408691406 117.89299011230469" stroke-width="3.0" fill="none" stroke="rgb(0, 0, 0)" stroke-opacity="1.0" stroke-linecap="round" stroke-linejoin="round"/>
    <path d="M 79.57354736328125 122.76788330078125 C 120.41239166259766 135.1104736328125 110.9866714477539 125.47450256347656 140.24925231933594 123.3048324584961" stroke-width="3.0" fill="none" stroke="rgb(0, 0, 0)" stroke-opacity="1.0" stroke-linecap="round" stroke-linejoin="round"/>
    <path d="M 163.96119689941406 96.291259765625 C 224.16177368164062 123.38248443603516 192.1446075439453 130.38204956054688 218.54774475097656 145.51422119140625" stroke-width="3.0" fill="none" stroke="rgb(0, 0, 0)" stroke-opacity="1.0" stroke-linecap="round" stroke-linejoin="round"/>
    <path d="M 54.40330505371094 66.27835083007812 C 36.207271575927734 157.41201782226562 75.87152099609375 82.017578125 35.366825103759766 157.1732177734375" stroke-width="3.0" fill="none" stroke="rgb(0, 0, 0)" stroke-opacity="1.0" stroke-linecap="round" stroke-linejoin="round"/>
    <path d="M 120.47320556640625 86.62234497070312 C 134.31741333007812 87.18444061279297 151.57595825195312 80.08560180664062 172.7246551513672 105.61322784423828" stroke-width="3.0" fill="none" stroke="rgb(0, 0, 0)" stroke-opacity="1.0" stroke-linecap="round" stroke-linejoin="round"/>
    <path d="M 142.59603881835938 121.33468627929688 C 125.47212982177734 133.085205078125 119.51082611083984 138.1852569580078 139.1812286376953 121.37112426757812" stroke-width="3.0" fill="none" stroke="rgb(0, 0, 0)" stroke-opacity="1.0" stroke-linecap="round" stroke-linejoin="round"/>
    <path d="M 83.5927963256836 123.11699676513672 C 93.8643569946289 107.41615295410156 65.15423583984375 126.3148422241211 84.101318359375 120.54663848876953" stroke-width="3.0" fill="none" stroke="rgb(0, 0, 0)" stroke-opacity="1.0" stroke-linecap="round" stroke-linejoin="round"/>
    <path d="M 131.22447204589844 131.32919311523438 C 123.729736328125 169.43795776367188 139.87278747558594 155.70480346679688 101.21601867675781 185.3043670654297" stroke-width="3.0" fill="none" stroke="rgb(0, 0, 0)" stroke-opacity="1.0" stroke-linecap="round" stroke-linejoin="round"/>
    <path d="M 54.75595474243164 125.89347076416016 C -4.587146759033203 176.88690185546875 56.42291259765625 153.02291870117188 19.551321029663086 169.5553741455078" stroke-width="3.0" fill="none" stroke="rgb(0, 0, 0)" stroke-opacity="1.0" stroke-linecap="round" stroke-linejoin="round"/>
    <path d="M 43.20720672607422 41.10749435424805 C 121.41120147705078 88.74119567871094 51.192806243896484 76.85704803466797 129.63160705566406 89.55963897705078" stroke-width="3.0" fill="none" stroke="rgb(0, 0, 0)" stroke-opacity="1.0" stroke-linecap="round" stroke-linejoin="round"/>
    <path d="M 132.56008911132812 160.36900329589844 C 151.87416076660156 115.10604095458984 150.11985778808594 155.5818634033203 179.56016540527344 107.41049194335938" stroke-width="3.0" fill="none" stroke="rgb(0, 0, 0)" stroke-opacity="1.0" stroke-linecap="round" stroke-linejoin="round"/>
    <path d="M 33.02834701538086 153.90211486816406 C 76.35674285888672 115.62814331054688 66.30435180664062 144.08888244628906 70.34571838378906 114.83037567138672" stroke-width="3.0" fill="none" stroke="rgb(0, 0, 0)" stroke-opacity="1.0" stroke-linecap="round" stroke-linejoin="round"/>
    <path d="M 157.99810791015625 118.89555358886719 C 139.1944580078125 128.1927947998047 135.44825744628906 113.93616485595703 134.62730407714844 126.77235412597656" stroke-width="3.0" fill="none" stroke="rgb(0, 0, 0)" stroke-opacity="1.0" stroke-linecap="round" stroke-linejoin="round"/>
    <path d="M 170.81915283203125 111.86693572998047 C 168.92835998535156 228.2683563232422 133.52037048339844 186.5386199951172 162.47906494140625 188.48976135253906" stroke-width="3.0" fill="none" stroke="rgb(0, 0, 0)" stroke-opacity="1.0" stroke-linecap="round" stroke-linejoin="round"/>
    <path d="M 10.349145889282227 76.0193099975586 C 69.8261947631836 18.68076515197754 -23.558500289916992 69.71551513671875 66.79976654052734 43.7269287109375" stroke-width="3.0" fill="none" stroke="rgb(0, 0, 0)" stroke-opacity="1.0" stroke-linecap="round" stroke-linejoin="round"/>
    <path d="M 90.7078857421875 70.19252014160156 C 45.79193878173828 35.39064407348633 -10.064244270324707 36.94635772705078 83.08634948730469 59.39945983886719" stroke-width="3.0" fill="none" stroke="rgb(0, 0, 0)" stroke-opacity="1.0" stroke-linecap="round" stroke-linejoin="round"/>
  </g>
</svg>
