<?xml version="1.0" ?>
<svg xmlns="http://www.w3.org/2000/svg" version="1.1" width="224" height="224">
  <defs/>
  <g>
    <path d="M 78.31507873535156 107.36453247070312 C 90.09812927246094 131.94114685058594 82.86651611328125 122.80699920654297 81.76014709472656 123.17488861083984" stroke-width="3.0" fill="none" stroke="rgb(0, 0, 0)" stroke-opacity="1.0" stroke-linecap="round" stroke-linejoin="round"/>
    <path d="M 73.95535278320312 123.6920394897461 C 110.73316192626953 136.39630126953125 110.98479461669922 126.68229675292969 133.0138397216797 129.2333221435547" stroke-width="3.0" fill="none" stroke="rgb(0, 0, 0)" stroke-opacity="1.0" stroke-linecap="round" stroke-linejoin="round"/>
    <path d="M 169.98828125 99.54264831542969 C 220.24085998535156 118.4856948852539 194.0616912841797 134.79502868652344 216.95809936523438 143.16029357910156" stroke-width="3.0" fill="none" stroke="rgb(0, 0, 0)" stroke-opacity="1.0" stroke-linecap="round" stroke-linejoin="round"/>
    <path d="M 48.21535110473633 59.534358978271484 C 56.40498352050781 150.50173950195312 68.92522430419922 67.29351806640625 37.510581970214844 156.82394409179688" stroke-width="3.0" fill="none" stroke="rgb(0, 0, 0)" stroke-opacity="1.0" stroke-linecap="round" stroke-linejoin="round"/>
    <path d="M 101.30170440673828 83.42418670654297 C 135.20887756347656 92.53733825683594 145.9567108154297 74.4234390258789 178.02784729003906 107.47819519042969" stroke-width="3.0" fill="none" stroke="rgb(0, 0, 0)" stroke-opacity="1.0" stroke-linecap="round" stroke-linejoin="round"/>
    <path d="M 131.3624725341797 125.40585327148438 C 140.4597930908203 130.86839294433594 137.51829528808594 123.08087921142578 123.06895446777344 126.555419921875" stroke-width="3.0" fill="none" stroke="rgb(0, 0, 0)" stroke-opacity="1.0" stroke-linecap="round" stroke-linejoin="round"/>
    <path d="M 79.79305267333984 120.95220184326172 C 94.35928344726562 105.51178741455078 60.64441680908203 131.0648193359375 83.03665924072266 121.57463073730469" stroke-width="3.0" fill="none" stroke="rgb(0, 0, 0)" stroke-opacity="1.0" stroke-linecap="round" stroke-linejoin="round"/>
    <path d="M 140.86550903320312 128.84136962890625 C 120.36914825439453 179.59580993652344 142.6689453125 154.63803100585938 98.94791412353516 184.13816833496094" stroke-width="3.0" fill="none" stroke="rgb(0, 0, 0)" stroke-opacity="1.0" stroke-linecap="round" stroke-linejoin="round"/>
    <path d="M 57.2022819519043 118.59600067138672 C -7.9552903175354 185.5242462158203 72.06255340576172 149.24969482421875 16.473814010620117 168.9535675048828" stroke-width="3.0" fill="none" stroke="rgb(0, 0, 0)" stroke-opacity="1.0" stroke-linecap="round" stroke-linejoin="round"/>
    <path d="M 36.05891418457031 36.13805389404297 C 107.70008087158203 79.50373840332031 46.799400329589844 66.36752319335938 111.72264862060547 86.39482116699219" stroke-width="3.0" fill="none" stroke="rgb(0, 0, 0)" stroke-opacity="1.0" stroke-linecap="round" stroke-linejoin="round"/>
    <path d="M 130.76197814941406 162.5404510498047 C 153.93324279785156 116.02631378173828 147.27186584472656 158.0377655029297 181.5660400390625 106.30484771728516" stroke-width="3.0" fill="none" stroke="rgb(0, 0, 0)" stroke-opacity="1.0" stroke-linecap="round" stroke-linejoin="round"/>
    <path d="M 33.74945068359375 153.46153259277344 C 64.01106262207031 114.30357360839844 59.44267272949219 138.41116333007812 72.24207305908203 115.17948913574219" stroke-width="3.0" fill="none" stroke="rgb(0, 0, 0)" stroke-opacity="1.0" stroke-linecap="round" stroke-linejoin="round"/>
    <path d="M 152.7438507080078 120.76185607910156 C 136.561767578125 129.88746643066406 158.89927673339844 119.88194274902344 115.50850677490234 129.04531860351562" stroke-width="3.0" fill="none" stroke="rgb(0, 0, 0)" stroke-opacity="1.0" stroke-linecap="round" stroke-linejoin="round"/>
    <path d="M 172.55551147460938 106.40109252929688 C 165.15548706054688 231.3670654296875 137.30130004882812 180.09271240234375 160.74810791015625 189.16427612304688" stroke-width="3.0" fill="none" stroke="rgb(0, 0, 0)" stroke-opacity="1.0" stroke-linecap="round" stroke-linejoin="round"/>
    <path d="M 14.324633598327637 74.7097396850586 C 60.35353088378906 14.13253116607666 -14.455469131469727 78.05670928955078 55.88557815551758 36.662940979003906" stroke-width="3.0" fill="none" stroke="rgb(0, 0, 0)" stroke-opacity="1.0" stroke-linecap="round" stroke-linejoin="round"/>
    <path d="M 91.68669891357422 75.83917999267578 C 76.53695678710938 23.83690071105957 -17.31783103942871 35.83348846435547 83.65213775634766 53.44799041748047" stroke-width="3.0" fill="none" stroke="rgb(0, 0, 0)" stroke-opacity="1.0" stroke-linecap="round" stroke-linejoin="round"/>
  </g>
</svg>
