<?xml version="1.0" ?>
<svg xmlns="http://www.w3.org/2000/svg" version="1.1" width="224" height="224">
  <defs/>
  <g>
    <path d="M 74.86554718017578 107.99473571777344 C 91.22000122070312 127.98627471923828 82.04135131835938 119.51866912841797 78.7347640991211 122.9105224609375" stroke-width="3.0" fill="none" stroke="rgb(0, 0, 0)" stroke-opacity="1.0" stroke-linecap="round" stroke-linejoin="round"/>
    <path d="M 73.34164428710938 122.396728515625 C 105.5933837890625 135.12603759765625 108.41423797607422 124.6495132446289 133.99911499023438 129.78567504882812" stroke-width="3.0" fill="none" stroke="rgb(0, 0, 0)" stroke-opacity="1.0" stroke-linecap="round" stroke-linejoin="round"/>
    <path d="M 167.0730438232422 97.7706069946289 C 216.557861328125 118.26849365234375 192.7473907470703 135.6700439453125 218.91102600097656 139.94862365722656" stroke-width="3.0" fill="none" stroke="rgb(0, 0, 0)" stroke-opacity="1.0" stroke-linecap="round" stroke-linejoin="round"/>
    <path d="M 48.03609848022461 58.66316223144531 C 59.491416931152344 149.94696044921875 66.7061996459961 66.17314147949219 37.16242218017578 154.40304565429688" stroke-width="3.0" fill="none" stroke="rgb(0, 0, 0)" stroke-opacity="1.0" stroke-linecap="round" stroke-linejoin="round"/>
    <path d="M 103.87323760986328 82.56327056884766 C 134.9031524658203 93.16478729248047 146.42808532714844 75.22264862060547 179.12672424316406 107.65186309814453" stroke-width="3.0" fill="none" stroke="rgb(0, 0, 0)" stroke-opacity="1.0" stroke-linecap="round" stroke-linejoin="round"/>
    <path d="M 131.15000915527344 125.50910186767578 C 138.44676208496094 130.38442993164062 140.7340545654297 123.04952239990234 123.87110137939453 126.2734375" stroke-width="3.0" fill="none" stroke="rgb(0, 0, 0)" stroke-opacity="1.0" stroke-linecap="round" stroke-linejoin="round"/>
    <path d="M 75.24742889404297 121.40354919433594 C 94.16424560546875 103.36329650878906 58.609493255615234 127.99504089355469 81.25472259521484 119.12824249267578" stroke-width="3.0" fill="none" stroke="rgb(0, 0, 0)" stroke-opacity="1.0" stroke-linecap="round" stroke-linejoin="round"/>
    <path d="M 139.51869201660156 128.732421875 C 118.19927978515625 177.4490203857422 144.15773010253906 158.3117218017578 98.49124145507812 183.37371826171875" stroke-width="3.0" fill="none" stroke="rgb(0, 0, 0)" stroke-opacity="1.0" stroke-linecap="round" stroke-linejoin="round"/>
    <path d="M 55.97869873046875 120.2978515625 C -8.033463478088379 187.0165252685547 69.36442565917969 139.53285217285156 15.371288299560547 168.07318115234375" stroke-width="3.0" fill="none" stroke="rgb(0, 0, 0)" stroke-opacity="1.0" stroke-linecap="round" stroke-linejoin="round"/>
    <path d="M 35.81241989135742 33.80364227294922 C 107.32670593261719 75.5224838256836 47.03329086303711 67.24920654296875 111.03257751464844 85.3164291381836" stroke-width="3.0" fill="none" stroke="rgb(0, 0, 0)" stroke-opacity="1.0" stroke-linecap="round" stroke-linejoin="round"/>
    <path d="M 133.06878662109375 161.93789672851562 C 158.27769470214844 117.462158203125 149.0528106689453 158.0902557373047 181.66444396972656 109.46830749511719" stroke-width="3.0" fill="none" stroke="rgb(0, 0, 0)" stroke-opacity="1.0" stroke-linecap="round" stroke-linejoin="round"/>
    <path d="M 34.176780700683594 150.76454162597656 C 62.3415412902832 115.42739868164062 58.145469665527344 141.24436950683594 75.99297332763672 117.50304412841797" stroke-width="3.0" fill="none" stroke="rgb(0, 0, 0)" stroke-opacity="1.0" stroke-linecap="round" stroke-linejoin="round"/>
    <path d="M 158.04977416992188 120.5642318725586 C 131.52236938476562 129.6757354736328 155.22164916992188 116.76986694335938 111.0230484008789 128.50576782226562" stroke-width="3.0" fill="none" stroke="rgb(0, 0, 0)" stroke-opacity="1.0" stroke-linecap="round" stroke-linejoin="round"/>
    <path d="M 175.44265747070312 111.14804077148438 C 165.36175537109375 229.6675567626953 136.86773681640625 177.7270050048828 160.8452911376953 188.9228973388672" stroke-width="3.0" fill="none" stroke="rgb(0, 0, 0)" stroke-opacity="1.0" stroke-linecap="round" stroke-linejoin="round"/>
    <path d="M 12.32361125946045 74.33271789550781 C 61.3814582824707 12.690526008605957 -13.621108055114746 82.53295135498047 53.671531677246094 36.69581985473633" stroke-width="3.0" fill="none" stroke="rgb(0, 0, 0)" stroke-opacity="1.0" stroke-linecap="round" stroke-linejoin="round"/>
    <path d="M 95.11267852783203 74.37738800048828 C 79.13880920410156 23.323604583740234 -19.34481430053711 36.297279357910156 82.33768463134766 49.88154602050781" stroke-width="3.0" fill="none" stroke="rgb(0, 0, 0)" stroke-opacity="1.0" stroke-linecap="round" stroke-linejoin="round"/>
  </g>
</svg>
