<?xml version="1.0" ?>
<svg xmlns="http://www.w3.org/2000/svg" version="1.1" width="224" height="224">
  <defs/>
  <g>
    <path d="M 81.7248306274414 107.80419158935547 C 90.9562759399414 129.67242431640625 83.01220703125 119.5801010131836 82.16462707519531 118.66698455810547" stroke-width="3.0" fill="none" stroke="rgb(0, 0, 0)" stroke-opacity="1.0" stroke-linecap="round" stroke-linejoin="round"/>
    <path d="M 77.38910675048828 122.82369232177734 C 111.63396453857422 134.5609588623047 113.91417694091797 125.18704986572266 134.09030151367188 124.99231719970703" stroke-width="3.0" fill="none" stroke="rgb(0, 0, 0)" stroke-opacity="1.0" stroke-linecap="round" stroke-linejoin="round"/>
    <path d="M 163.85247802734375 97.00567626953125 C 223.11314392089844 116.84015655517578 194.6929931640625 133.04119873046875 217.37461853027344 143.38629150390625" stroke-width="3.0" fill="none" stroke="rgb(0, 0, 0)" stroke-opacity="1.0" stroke-linecap="round" stroke-linejoin="round"/>
    <path d="M 52.56148147583008 65.4541244506836 C 43.158592224121094 157.08981323242188 75.37183380126953 79.36167907714844 33.47046661376953 153.11048889160156" stroke-width="3.0" fill="none" stroke="rgb(0, 0, 0)" stroke-opacity="1.0" stroke-linecap="round" stroke-linejoin="round"/>
    <path d="M 119.6799087524414 87.64425659179688 C 136.27992248535156 88.74339294433594 150.5034637451172 77.94207763671875 169.9482879638672 106.1556625366211" stroke-width="3.0" fill="none" stroke="rgb(0, 0, 0)" stroke-opacity="1.0" stroke-linecap="round" stroke-linejoin="round"/>
    <path d="M 139.56869506835938 124.05132293701172 C 125.34978485107422 123.10755157470703 131.87025451660156 125.4657974243164 134.37583923339844 127.57672119140625" stroke-width="3.0" fill="none" stroke="rgb(0, 0, 0)" stroke-opacity="1.0" stroke-linecap="round" stroke-linejoin="round"/>
    <path d="M 83.17139434814453 121.68511199951172 C 92.65618896484375 104.3938217163086 67.72714233398438 131.38906860351562 86.20770263671875 119.95777130126953" stroke-width="3.0" fill="none" stroke="rgb(0, 0, 0)" stroke-opacity="1.0" stroke-linecap="round" stroke-linejoin="round"/>
    <path d="M 141.74609375 127.62535095214844 C 120.7507553100586 175.594970703125 140.93411254882812 157.055419921875 98.08502197265625 182.42190551757812" stroke-width="3.0" fill="none" stroke="rgb(0, 0, 0)" stroke-opacity="1.0" stroke-linecap="round" stroke-linejoin="round"/>
    <path d="M 61.79374694824219 120.09449768066406 C -14.655913352966309 175.93563842773438 58.058380126953125 145.3788299560547 15.719486236572266 169.89723205566406" stroke-width="3.0" fill="none" stroke="rgb(0, 0, 0)" stroke-opacity="1.0" stroke-linecap="round" stroke-linejoin="round"/>
    <path d="M 37.76199722290039 39.135047912597656 C 126.39261627197266 83.47174835205078 49.46110916137695 76.07295227050781 121.7739486694336 87.8654556274414" stroke-width="3.0" fill="none" stroke="rgb(0, 0, 0)" stroke-opacity="1.0" stroke-linecap="round" stroke-linejoin="round"/>
    <path d="M 132.40652465820312 161.68553161621094 C 153.0220184326172 116.05045318603516 149.00970458984375 155.4007110595703 182.24391174316406 106.8544921875" stroke-width="3.0" fill="none" stroke="rgb(0, 0, 0)" stroke-opacity="1.0" stroke-linecap="round" stroke-linejoin="round"/>
    <path d="M 29.99582862854004 151.1571044921875 C 70.32867431640625 119.63656616210938 65.71524047851562 146.9407196044922 75.90587615966797 113.69367218017578" stroke-width="3.0" fill="none" stroke="rgb(0, 0, 0)" stroke-opacity="1.0" stroke-linecap="round" stroke-linejoin="round"/>
    <path d="M 156.43344116210938 117.00796508789062 C 141.10252380371094 130.43649291992188 136.71095275878906 120.4391860961914 131.17965698242188 126.04634857177734" stroke-width="3.0" fill="none" stroke="rgb(0, 0, 0)" stroke-opacity="1.0" stroke-linecap="round" stroke-linejoin="round"/>
    <path d="M 173.09646606445312 111.30775451660156 C 169.01345825195312 229.80438232421875 136.9971466064453 178.99478149414062 162.80209350585938 188.69105529785156" stroke-width="3.0" fill="none" stroke="rgb(0, 0, 0)" stroke-opacity="1.0" stroke-linecap="round" stroke-linejoin="round"/>
    <path d="M 11.640007972717285 74.11559295654297 C 65.79388427734375 22.64781379699707 -23.403093338012695 74.98306274414062 63.59920120239258 44.24509048461914" stroke-width="3.0" fill="none" stroke="rgb(0, 0, 0)" stroke-opacity="1.0" stroke-linecap="round" stroke-linejoin="round"/>
    <path d="M 91.84041595458984 68.94493865966797 C 48.46824645996094 31.100341796875 -17.151845932006836 39.08827209472656 83.6050033569336 54.3403205871582" stroke-width="3.0" fill="none" stroke="rgb(0, 0, 0)" stroke-opacity="1.0" stroke-linecap="round" stroke-linejoin="round"/>
  </g>
</svg>
