<?xml version="1.0" ?>
<svg xmlns="http://www.w3.org/2000/svg" version="1.1" width="224" height="224">
  <defs/>
  <g>
    <path d="M 79.03076171875 112.28817749023438 C 90.10859680175781 131.78372192382812 85.26486206054688 121.49132537841797 78.80547332763672 123.23418426513672" stroke-width="3.0" fill="none" stroke="rgb(0, 0, 0)" stroke-opacity="1.0" stroke-linecap="round" stroke-linejoin="round"/>
    <path d="M 75.38941192626953 123.42375183105469 C 114.37637329101562 139.6157684326172 112.9344482421875 127.25548553466797 132.0928497314453 128.15182495117188" stroke-width="3.0" fill="none" stroke="rgb(0, 0, 0)" stroke-opacity="1.0" stroke-linecap="round" stroke-linejoin="round"/>
    <path d="M 169.62783813476562 99.19283294677734 C 222.70901489257812 117.8025131225586 193.29769897460938 134.17532348632812 217.8940887451172 144.71424865722656" stroke-width="3.0" fill="none" stroke="rgb(0, 0, 0)" stroke-opacity="1.0" stroke-linecap="round" stroke-linejoin="round"/>
    <path d="M 52.30552673339844 64.88893127441406 C 58.05928421020508 154.98712158203125 67.22901153564453 70.66421508789062 37.62477493286133 158.51280212402344" stroke-width="3.0" fill="none" stroke="rgb(0, 0, 0)" stroke-opacity="1.0" stroke-linecap="round" stroke-linejoin="round"/>
    <path d="M 101.55768585205078 83.17459869384766 C 138.0040283203125 91.75542449951172 146.9510955810547 74.7840347290039 177.82020568847656 107.31483459472656" stroke-width="3.0" fill="none" stroke="rgb(0, 0, 0)" stroke-opacity="1.0" stroke-linecap="round" stroke-linejoin="round"/>
    <path d="M 130.09213256835938 128.9075469970703 C 140.79937744140625 126.54966735839844 141.46473693847656 124.484375 128.0167236328125 127.71385192871094" stroke-width="3.0" fill="none" stroke="rgb(0, 0, 0)" stroke-opacity="1.0" stroke-linecap="round" stroke-linejoin="round"/>
    <path d="M 78.55213165283203 120.1744613647461 C 93.509033203125 108.93694305419922 58.496864318847656 131.5037078857422 81.014404296875 119.86638641357422" stroke-width="3.0" fill="none" stroke="rgb(0, 0, 0)" stroke-opacity="1.0" stroke-linecap="round" stroke-linejoin="round"/>
    <path d="M 142.4280548095703 129.04502868652344 C 117.63326263427734 177.17137145996094 140.7794647216797 157.57704162597656 98.95844268798828 184.88145446777344" stroke-width="3.0" fill="none" stroke="rgb(0, 0, 0)" stroke-opacity="1.0" stroke-linecap="round" stroke-linejoin="round"/>
    <path d="M 57.718017578125 121.28466796875 C -5.126500129699707 185.27407836914062 73.8639144897461 149.64117431640625 18.5699520111084 168.2084503173828" stroke-width="3.0" fill="none" stroke="rgb(0, 0, 0)" stroke-opacity="1.0" stroke-linecap="round" stroke-linejoin="round"/>
    <path d="M 37.7440071105957 34.03932189941406 C 113.72919464111328 76.02693939208984 48.9299201965332 64.93753051757812 111.0023422241211 87.00128173828125" stroke-width="3.0" fill="none" stroke="rgb(0, 0, 0)" stroke-opacity="1.0" stroke-linecap="round" stroke-linejoin="round"/>
    <path d="M 131.29547119140625 160.85215759277344 C 150.66407775878906 113.18098449707031 150.37330627441406 153.03907775878906 181.7822265625 110.47901916503906" stroke-width="3.0" fill="none" stroke="rgb(0, 0, 0)" stroke-opacity="1.0" stroke-linecap="round" stroke-linejoin="round"/>
    <path d="M 35.425437927246094 152.7053680419922 C 67.4211654663086 115.7992935180664 63.97246170043945 144.33303833007812 71.13243865966797 115.75277709960938" stroke-width="3.0" fill="none" stroke="rgb(0, 0, 0)" stroke-opacity="1.0" stroke-linecap="round" stroke-linejoin="round"/>
    <path d="M 155.97161865234375 117.61026763916016 C 136.2454376220703 132.05133056640625 158.36598205566406 116.56256103515625 120.19383239746094 130.5270233154297" stroke-width="3.0" fill="none" stroke="rgb(0, 0, 0)" stroke-opacity="1.0" stroke-linecap="round" stroke-linejoin="round"/>
    <path d="M 175.56594848632812 107.11682891845703 C 168.26625061035156 228.8595733642578 135.7931671142578 180.56967163085938 162.24778747558594 188.74485778808594" stroke-width="3.0" fill="none" stroke="rgb(0, 0, 0)" stroke-opacity="1.0" stroke-linecap="round" stroke-linejoin="round"/>
    <path d="M 12.605596542358398 74.3876724243164 C 62.61725997924805 17.0915584564209 -13.601724624633789 76.613037109375 56.034461975097656 35.80152893066406" stroke-width="3.0" fill="none" stroke="rgb(0, 0, 0)" stroke-opacity="1.0" stroke-linecap="round" stroke-linejoin="round"/>
    <path d="M 93.2061767578125 75.75813293457031 C 73.8751449584961 22.997230529785156 -17.381418228149414 32.90077209472656 84.57223510742188 52.62962341308594" stroke-width="3.0" fill="none" stroke="rgb(0, 0, 0)" stroke-opacity="1.0" stroke-linecap="round" stroke-linejoin="round"/>
  </g>
</svg>
