<?xml version="1.0" ?>
<svg xmlns="http://www.w3.org/2000/svg" version="1.1" width="224" height="224">
  <defs/>
  <g>
    <path d="M 80.05645751953125 108.05867767333984 C 92.52742004394531 131.35980224609375 85.70445251464844 121.11967468261719 81.01643371582031 120.46051025390625" stroke-width="3.0" fill="none" stroke="rgb(0, 0, 0)" stroke-opacity="1.0" stroke-linecap="round" stroke-linejoin="round"/>
    <path d="M 79.21578979492188 123.51305389404297 C 120.7144775390625 133.5457000732422 118.35468292236328 127.2098388671875 147.39874267578125 116.91059875488281" stroke-width="3.0" fill="none" stroke="rgb(0, 0, 0)" stroke-opacity="1.0" stroke-linecap="round" stroke-linejoin="round"/>
    <path d="M 165.36410522460938 97.63562774658203 C 223.75070190429688 118.94462585449219 193.6865234375 132.73582458496094 215.819580078125 139.01217651367188" stroke-width="3.0" fill="none" stroke="rgb(0, 0, 0)" stroke-opacity="1.0" stroke-linecap="round" stroke-linejoin="round"/>
    <path d="M 49.77912521362305 65.44286346435547 C 40.45459747314453 158.07034301757812 72.4885482788086 83.6699447631836 33.31262969970703 159.56410217285156" stroke-width="3.0" fill="none" stroke="rgb(0, 0, 0)" stroke-opacity="1.0" stroke-linecap="round" stroke-linejoin="round"/>
    <path d="M 118.50765991210938 88.65646362304688 C 133.18850708007812 89.00272369384766 155.84996032714844 78.29026794433594 172.126708984375 104.89759826660156" stroke-width="3.0" fill="none" stroke="rgb(0, 0, 0)" stroke-opacity="1.0" stroke-linecap="round" stroke-linejoin="round"/>
    <path d="M 137.24681091308594 121.21669006347656 C 122.1856460571289 125.442626953125 128.53431701660156 133.83587646484375 136.64356994628906 122.2581558227539" stroke-width="3.0" fill="none" stroke="rgb(0, 0, 0)" stroke-opacity="1.0" stroke-linecap="round" stroke-linejoin="round"/>
    <path d="M 80.22545623779297 121.84198760986328 C 90.66114044189453 109.22663116455078 67.20028686523438 132.774658203125 84.4195785522461 121.27344512939453" stroke-width="3.0" fill="none" stroke="rgb(0, 0, 0)" stroke-opacity="1.0" stroke-linecap="round" stroke-linejoin="round"/>
    <path d="M 137.2350616455078 127.1714096069336 C 123.66685485839844 170.04641723632812 141.74220275878906 156.4121856689453 99.43595123291016 184.2214813232422" stroke-width="3.0" fill="none" stroke="rgb(0, 0, 0)" stroke-opacity="1.0" stroke-linecap="round" stroke-linejoin="round"/>
    <path d="M 59.655128479003906 119.57275390625 C -9.871160507202148 180.96788024902344 55.06240463256836 154.1146697998047 19.255218505859375 169.4590606689453" stroke-width="3.0" fill="none" stroke="rgb(0, 0, 0)" stroke-opacity="1.0" stroke-linecap="round" stroke-linejoin="round"/>
    <path d="M 42.22679138183594 38.13810729980469 C 120.61988067626953 88.94564819335938 50.292564392089844 75.68257141113281 120.46903991699219 89.51509094238281" stroke-width="3.0" fill="none" stroke="rgb(0, 0, 0)" stroke-opacity="1.0" stroke-linecap="round" stroke-linejoin="round"/>
    <path d="M 134.62640380859375 157.88185119628906 C 150.56324768066406 117.324951171875 151.0747528076172 153.45314025878906 178.28379821777344 107.61705780029297" stroke-width="3.0" fill="none" stroke="rgb(0, 0, 0)" stroke-opacity="1.0" stroke-linecap="round" stroke-linejoin="round"/>
    <path d="M 30.765941619873047 154.03294372558594 C 71.93750762939453 118.8682861328125 66.25303649902344 143.25927734375 76.13217163085938 114.99150085449219" stroke-width="3.0" fill="none" stroke="rgb(0, 0, 0)" stroke-opacity="1.0" stroke-linecap="round" stroke-linejoin="round"/>
    <path d="M 157.76028442382812 118.09920501708984 C 139.04278564453125 125.82904815673828 136.7310028076172 114.36033630371094 132.95486450195312 128.10231018066406" stroke-width="3.0" fill="none" stroke="rgb(0, 0, 0)" stroke-opacity="1.0" stroke-linecap="round" stroke-linejoin="round"/>
    <path d="M 173.998779296875 111.76243591308594 C 168.6359100341797 228.6182098388672 137.19668579101562 184.771484375 162.3572235107422 189.70303344726562" stroke-width="3.0" fill="none" stroke="rgb(0, 0, 0)" stroke-opacity="1.0" stroke-linecap="round" stroke-linejoin="round"/>
    <path d="M 9.899669647216797 73.79048156738281 C 73.26192474365234 18.666343688964844 -23.101146697998047 63.31800079345703 62.95149612426758 47.87424850463867" stroke-width="3.0" fill="none" stroke="rgb(0, 0, 0)" stroke-opacity="1.0" stroke-linecap="round" stroke-linejoin="round"/>
    <path d="M 91.30658721923828 68.42090606689453 C 46.03181838989258 35.45016098022461 -8.123438835144043 33.78265380859375 85.16680145263672 57.79039001464844" stroke-width="3.0" fill="none" stroke="rgb(0, 0, 0)" stroke-opacity="1.0" stroke-linecap="round" stroke-linejoin="round"/>
  </g>
</svg>
