<?xml version="1.0" ?>
<svg xmlns="http://www.w3.org/2000/svg" version="1.1" width="224" height="224">
  <defs/>
  <g>
    <path d="M 76.80010223388672 115.70318603515625 C 74.55803680419922 132.89564514160156 88.36323547363281 121.05333709716797 75.41204071044922 117.59000396728516" stroke-width="3.0" fill="none" stroke="rgb(0, 0, 0)" stroke-opacity="1.0" stroke-linecap="round" stroke-linejoin="round"/>
    <path d="M 70.07063293457031 122.54898071289062 C 107.67237091064453 138.6611785888672 116.14940643310547 129.9763641357422 134.53277587890625 127.42537689208984" stroke-width="3.0" fill="none" stroke="rgb(0, 0, 0)" stroke-opacity="1.0" stroke-linecap="round" stroke-linejoin="round"/>
    <path d="M 170.21986389160156 101.09505462646484 C 218.47592163085938 114.65538787841797 195.69854736328125 138.644775390625 218.12222290039062 142.29385375976562" stroke-width="3.0" fill="none" stroke="rgb(0, 0, 0)" stroke-opacity="1.0" stroke-linecap="round" stroke-linejoin="round"/>
    <path d="M 51.95423889160156 63.871665954589844 C 70.86180114746094 154.6919708251953 43.67948913574219 100.76240539550781 34.639339447021484 148.29733276367188" stroke-width="3.0" fill="none" stroke="rgb(0, 0, 0)" stroke-opacity="1.0" stroke-linecap="round" stroke-linejoin="round"/>
    <path d="M 102.44841766357422 84.81573486328125 C 146.7652587890625 89.38135528564453 147.08328247070312 76.66028594970703 181.42221069335938 106.43453979492188" stroke-width="3.0" fill="none" stroke="rgb(0, 0, 0)" stroke-opacity="1.0" stroke-linecap="round" stroke-linejoin="round"/>
    <path d="M 137.33055114746094 127.68567657470703 C 133.9430389404297 129.40628051757812 148.04183959960938 119.40422821044922 111.44251251220703 127.94989776611328" stroke-width="3.0" fill="none" stroke="rgb(0, 0, 0)" stroke-opacity="1.0" stroke-linecap="round" stroke-linejoin="round"/>
    <path d="M 74.93083190917969 125.38811492919922 C 94.47276306152344 114.26152801513672 57.79671096801758 128.2820281982422 79.18650817871094 117.51724243164062" stroke-width="3.0" fill="none" stroke="rgb(0, 0, 0)" stroke-opacity="1.0" stroke-linecap="round" stroke-linejoin="round"/>
    <path d="M 140.0594940185547 131.77236938476562 C 122.18048095703125 174.8419189453125 139.5277557373047 157.0634002685547 98.8159408569336 183.25347900390625" stroke-width="3.0" fill="none" stroke="rgb(0, 0, 0)" stroke-opacity="1.0" stroke-linecap="round" stroke-linejoin="round"/>
    <path d="M 44.851661682128906 134.116943359375 C -13.799468040466309 213.71282958984375 68.3714828491211 127.64726257324219 15.486276626586914 169.38619995117188" stroke-width="3.0" fill="none" stroke="rgb(0, 0, 0)" stroke-opacity="1.0" stroke-linecap="round" stroke-linejoin="round"/>
    <path d="M 32.68521499633789 37.90825271606445 C 104.05207061767578 70.64474487304688 57.72319412231445 62.62560272216797 107.45464324951172 85.35973358154297" stroke-width="3.0" fill="none" stroke="rgb(0, 0, 0)" stroke-opacity="1.0" stroke-linecap="round" stroke-linejoin="round"/>
    <path d="M 134.2415771484375 160.936279296875 C 153.83287048339844 118.66191864013672 152.11392211914062 154.3041534423828 180.33168029785156 113.26536560058594" stroke-width="3.0" fill="none" stroke="rgb(0, 0, 0)" stroke-opacity="1.0" stroke-linecap="round" stroke-linejoin="round"/>
    <path d="M 37.93067169189453 160.1038818359375 C 60.03112030029297 112.65084838867188 54.23829650878906 151.32106018066406 79.46759796142578 108.78519439697266" stroke-width="3.0" fill="none" stroke="rgb(0, 0, 0)" stroke-opacity="1.0" stroke-linecap="round" stroke-linejoin="round"/>
    <path d="M 160.349609375 117.23457336425781 C 135.20785522460938 129.00308227539062 164.4741668701172 117.85638427734375 96.71467590332031 130.89295959472656" stroke-width="3.0" fill="none" stroke="rgb(0, 0, 0)" stroke-opacity="1.0" stroke-linecap="round" stroke-linejoin="round"/>
    <path d="M 175.0156707763672 107.13890838623047 C 168.3081512451172 229.80226135253906 134.7852325439453 183.54513549804688 160.162841796875 190.91868591308594" stroke-width="3.0" fill="none" stroke="rgb(0, 0, 0)" stroke-opacity="1.0" stroke-linecap="round" stroke-linejoin="round"/>
    <path d="M 14.065653800964355 77.21189880371094 C 71.00737762451172 7.875229358673096 -17.2586612701416 84.94711303710938 53.66566848754883 36.09260177612305" stroke-width="3.0" fill="none" stroke="rgb(0, 0, 0)" stroke-opacity="1.0" stroke-linecap="round" stroke-linejoin="round"/>
    <path d="M 94.37423706054688 72.72048950195312 C 84.3017578125 22.577669143676758 -22.440488815307617 45.005592346191406 84.37030029296875 49.63398742675781" stroke-width="3.0" fill="none" stroke="rgb(0, 0, 0)" stroke-opacity="1.0" stroke-linecap="round" stroke-linejoin="round"/>
  </g>
</svg>
