<?xml version="1.0" ?>
<svg xmlns="http://www.w3.org/2000/svg" version="1.1" width="224" height="224">
  <defs/>
  <g>
    <path d="M 88.89958190917969 125.78682708740234 C 81.92610931396484 122.46038818359375 84.69247436523438 120.49514770507812 76.9765625 116.74378967285156" stroke-width="3.0" fill="none" stroke="rgb(0, 0, 0)" stroke-opacity="1.0" stroke-linecap="round" stroke-linejoin="round"/>
    <path d="M 75.32154083251953 118.85031127929688 C 98.80693817138672 139.57858276367188 108.90660858154297 124.93377685546875 132.93280029296875 125.32530975341797" stroke-width="3.0" fill="none" stroke="rgb(0, 0, 0)" stroke-opacity="1.0" stroke-linecap="round" stroke-linejoin="round"/>
    <path d="M 154.12371826171875 90.60765838623047 C 224.7881622314453 122.33444213867188 186.8743438720703 130.6224822998047 217.68504333496094 144.911376953125" stroke-width="3.0" fill="none" stroke="rgb(0, 0, 0)" stroke-opacity="1.0" stroke-linecap="round" stroke-linejoin="round"/>
    <path d="M 57.36931610107422 62.69723129272461 C 44.822696685791016 151.8018798828125 89.16812133789062 104.65617370605469 40.48420333862305 150.6466522216797" stroke-width="3.0" fill="none" stroke="rgb(0, 0, 0)" stroke-opacity="1.0" stroke-linecap="round" stroke-linejoin="round"/>
    <path d="M 136.56704711914062 88.82148742675781 C 146.2923583984375 91.09903717041016 164.24876403808594 85.36532592773438 177.00210571289062 108.29934692382812" stroke-width="3.0" fill="none" stroke="rgb(0, 0, 0)" stroke-opacity="1.0" stroke-linecap="round" stroke-linejoin="round"/>
    <path d="M 134.17112731933594 122.58501434326172 C 132.33033752441406 121.09870147705078 119.42208862304688 127.44515991210938 124.23928833007812 124.77912902832031" stroke-width="3.0" fill="none" stroke="rgb(0, 0, 0)" stroke-opacity="1.0" stroke-linecap="round" stroke-linejoin="round"/>
    <path d="M 78.13124084472656 121.59817504882812 C 80.34525299072266 120.79230499267578 65.40382385253906 123.4058609008789 87.17922973632812 124.51278686523438" stroke-width="3.0" fill="none" stroke="rgb(0, 0, 0)" stroke-opacity="1.0" stroke-linecap="round" stroke-linejoin="round"/>
    <path d="M 141.1390838623047 134.99554443359375 C 125.9905014038086 168.0639190673828 151.27035522460938 154.95738220214844 97.9835433959961 182.75381469726562" stroke-width="3.0" fill="none" stroke="rgb(0, 0, 0)" stroke-opacity="1.0" stroke-linecap="round" stroke-linejoin="round"/>
    <path d="M 59.24938201904297 113.21586608886719 C 6.975817680358887 177.7998504638672 65.87750244140625 146.819091796875 18.41617202758789 168.56805419921875" stroke-width="3.0" fill="none" stroke="rgb(0, 0, 0)" stroke-opacity="1.0" stroke-linecap="round" stroke-linejoin="round"/>
    <path d="M 70.52558898925781 43.92716598510742 C 90.34075164794922 98.4121322631836 101.3753890991211 81.77973937988281 142.9369659423828 89.62689971923828" stroke-width="3.0" fill="none" stroke="rgb(0, 0, 0)" stroke-opacity="1.0" stroke-linecap="round" stroke-linejoin="round"/>
    <path d="M 140.24891662597656 134.38772583007812 C 138.8629913330078 132.24407958984375 136.9407196044922 138.07176208496094 175.97213745117188 116.93355560302734" stroke-width="3.0" fill="none" stroke="rgb(0, 0, 0)" stroke-opacity="1.0" stroke-linecap="round" stroke-linejoin="round"/>
    <path d="M 56.259727478027344 140.9993896484375 C 79.95596313476562 130.23788452148438 66.9991226196289 136.75050354003906 77.80393981933594 113.02745056152344" stroke-width="3.0" fill="none" stroke="rgb(0, 0, 0)" stroke-opacity="1.0" stroke-linecap="round" stroke-linejoin="round"/>
    <path d="M 139.2064666748047 118.13845825195312 C 130.7042694091797 124.4455795288086 134.90782165527344 127.54707336425781 131.6829071044922 123.19615936279297" stroke-width="3.0" fill="none" stroke="rgb(0, 0, 0)" stroke-opacity="1.0" stroke-linecap="round" stroke-linejoin="round"/>
    <path d="M 166.11805725097656 128.0568084716797 C 188.95181274414062 170.5955810546875 138.53042602539062 209.2909393310547 159.7249298095703 194.69834899902344" stroke-width="3.0" fill="none" stroke="rgb(0, 0, 0)" stroke-opacity="1.0" stroke-linecap="round" stroke-linejoin="round"/>
    <path d="M 17.394142150878906 79.55396270751953 C 65.07709503173828 -8.689543724060059 17.08442497253418 60.06325912475586 64.29487609863281 34.55677795410156" stroke-width="3.0" fill="none" stroke="rgb(0, 0, 0)" stroke-opacity="1.0" stroke-linecap="round" stroke-linejoin="round"/>
    <path d="M 84.52600860595703 65.44747161865234 C 48.016544342041016 40.346370697021484 34.40126037597656 20.94040870666504 79.19781494140625 48.890384674072266" stroke-width="3.0" fill="none" stroke="rgb(0, 0, 0)" stroke-opacity="1.0" stroke-linecap="round" stroke-linejoin="round"/>
  </g>
</svg>
