<?xml version="1.0" ?>
<svg xmlns="http://www.w3.org/2000/svg" version="1.1" width="224" height="224">
  <defs/>
  <g>
    <path d="M 80.4718017578125 121.84503173828125 C 83.12128448486328 125.94273376464844 82.75062561035156 123.36714935302734 74.07603454589844 117.23017120361328" stroke-width="3.0" fill="none" stroke="rgb(0, 0, 0)" stroke-opacity="1.0" stroke-linecap="round" stroke-linejoin="round"/>
    <path d="M 72.06512451171875 123.8426284790039 C 103.49861907958984 137.32785034179688 122.45748138427734 121.15972137451172 133.85598754882812 125.45707702636719" stroke-width="3.0" fill="none" stroke="rgb(0, 0, 0)" stroke-opacity="1.0" stroke-linecap="round" stroke-linejoin="round"/>
    <path d="M 154.58837890625 91.51343536376953 C 223.76417541503906 120.97848510742188 187.3468780517578 130.41748046875 211.47225952148438 143.3438262939453" stroke-width="3.0" fill="none" stroke="rgb(0, 0, 0)" stroke-opacity="1.0" stroke-linecap="round" stroke-linejoin="round"/>
    <path d="M 61.95409393310547 73.88375854492188 C 30.198467254638672 140.78768920898438 78.20604705810547 91.7029800415039 34.31413269042969 156.58705139160156" stroke-width="3.0" fill="none" stroke="rgb(0, 0, 0)" stroke-opacity="1.0" stroke-linecap="round" stroke-linejoin="round"/>
    <path d="M 127.51712036132812 91.29301452636719 C 136.31959533691406 90.90338897705078 170.56942749023438 84.93368530273438 176.6680908203125 108.09974670410156" stroke-width="3.0" fill="none" stroke="rgb(0, 0, 0)" stroke-opacity="1.0" stroke-linecap="round" stroke-linejoin="round"/>
    <path d="M 134.10739135742188 123.76139831542969 C 134.77908325195312 121.2559814453125 115.58338165283203 126.3525161743164 123.42147064208984 125.41168975830078" stroke-width="3.0" fill="none" stroke="rgb(0, 0, 0)" stroke-opacity="1.0" stroke-linecap="round" stroke-linejoin="round"/>
    <path d="M 79.78014373779297 124.36921691894531 C 75.18980407714844 119.66329193115234 67.0101547241211 121.00938415527344 78.7135009765625 123.1039810180664" stroke-width="3.0" fill="none" stroke="rgb(0, 0, 0)" stroke-opacity="1.0" stroke-linecap="round" stroke-linejoin="round"/>
    <path d="M 139.2409210205078 125.69033813476562 C 124.29212188720703 165.2467041015625 146.32855224609375 152.78286743164062 97.78346252441406 184.32408142089844" stroke-width="3.0" fill="none" stroke="rgb(0, 0, 0)" stroke-opacity="1.0" stroke-linecap="round" stroke-linejoin="round"/>
    <path d="M 58.115238189697266 124.78628540039062 C -3.897254228591919 170.2815399169922 48.48345947265625 154.5250244140625 15.592185020446777 169.44454956054688" stroke-width="3.0" fill="none" stroke="rgb(0, 0, 0)" stroke-opacity="1.0" stroke-linecap="round" stroke-linejoin="round"/>
    <path d="M 56.096923828125 39.04629135131836 C 104.89270782470703 102.8720474243164 94.76763916015625 81.77568817138672 129.21817016601562 91.48692321777344" stroke-width="3.0" fill="none" stroke="rgb(0, 0, 0)" stroke-opacity="1.0" stroke-linecap="round" stroke-linejoin="round"/>
    <path d="M 137.39137268066406 150.2796173095703 C 148.76036071777344 122.92589569091797 148.2296905517578 143.35594177246094 175.41282653808594 114.01524353027344" stroke-width="3.0" fill="none" stroke="rgb(0, 0, 0)" stroke-opacity="1.0" stroke-linecap="round" stroke-linejoin="round"/>
    <path d="M 33.13236999511719 152.98464965820312 C 76.0498275756836 126.5389633178711 68.22380828857422 136.712158203125 73.53553009033203 116.00640869140625" stroke-width="3.0" fill="none" stroke="rgb(0, 0, 0)" stroke-opacity="1.0" stroke-linecap="round" stroke-linejoin="round"/>
    <path d="M 139.99603271484375 119.22562408447266 C 130.28746032714844 125.45452880859375 135.0170440673828 120.05165100097656 132.25967407226562 120.02999877929688" stroke-width="3.0" fill="none" stroke="rgb(0, 0, 0)" stroke-opacity="1.0" stroke-linecap="round" stroke-linejoin="round"/>
    <path d="M 173.1051788330078 120.9917984008789 C 187.06167602539062 147.1551513671875 146.70692443847656 199.14712524414062 166.16122436523438 193.542724609375" stroke-width="3.0" fill="none" stroke="rgb(0, 0, 0)" stroke-opacity="1.0" stroke-linecap="round" stroke-linejoin="round"/>
    <path d="M 13.388361930847168 74.90704345703125 C 81.65528106689453 11.291237831115723 -4.920273780822754 60.806976318359375 68.52074432373047 40.15817642211914" stroke-width="3.0" fill="none" stroke="rgb(0, 0, 0)" stroke-opacity="1.0" stroke-linecap="round" stroke-linejoin="round"/>
    <path d="M 85.11071014404297 64.47554779052734 C 47.688323974609375 39.06378936767578 22.338666915893555 23.475271224975586 78.86465454101562 54.36875534057617" stroke-width="3.0" fill="none" stroke="rgb(0, 0, 0)" stroke-opacity="1.0" stroke-linecap="round" stroke-linejoin="round"/>
  </g>
</svg>
