<?xml version="1.0" ?>
<svg xmlns="http://www.w3.org/2000/svg" version="1.1" width="224" height="224">
  <defs/>
  <g>
    <path d="M 99.90174865722656 121.27702331542969 C 92.48426818847656 121.75297546386719 97.86888885498047 121.33847045898438 85.3849105834961 116.23419952392578" stroke-width="3.0" fill="none" stroke="rgb(0, 0, 0)" stroke-opacity="1.0" stroke-linecap="round" stroke-linejoin="round"/>
    <path d="M 82.56584167480469 122.71418762207031 C 99.12053680419922 129.6720428466797 118.68583679199219 128.36752319335938 132.8641357421875 120.92020416259766" stroke-width="3.0" fill="none" stroke="rgb(0, 0, 0)" stroke-opacity="1.0" stroke-linecap="round" stroke-linejoin="round"/>
    <path d="M 155.5391845703125 91.19165802001953 C 224.97421264648438 119.3704833984375 189.91131591796875 135.151123046875 214.60110473632812 144.0018310546875" stroke-width="3.0" fill="none" stroke="rgb(0, 0, 0)" stroke-opacity="1.0" stroke-linecap="round" stroke-linejoin="round"/>
    <path d="M 60.22100830078125 75.2877426147461 C 49.290287017822266 132.19874572753906 80.22981262207031 108.52491760253906 42.638702392578125 144.4163818359375" stroke-width="3.0" fill="none" stroke="rgb(0, 0, 0)" stroke-opacity="1.0" stroke-linecap="round" stroke-linejoin="round"/>
    <path d="M 133.1586151123047 88.42465209960938 C 159.80201721191406 89.71092987060547 146.77621459960938 88.78934478759766 162.93368530273438 98.19123840332031" stroke-width="3.0" fill="none" stroke="rgb(0, 0, 0)" stroke-opacity="1.0" stroke-linecap="round" stroke-linejoin="round"/>
    <path d="M 139.066650390625 117.88322448730469 C 130.76889038085938 124.9508056640625 120.65113067626953 122.6474838256836 125.52535247802734 123.50642395019531" stroke-width="3.0" fill="none" stroke="rgb(0, 0, 0)" stroke-opacity="1.0" stroke-linecap="round" stroke-linejoin="round"/>
    <path d="M 87.50663757324219 111.54124450683594 C 71.76285552978516 128.32078552246094 69.85088348388672 114.4608383178711 90.9003677368164 123.23394775390625" stroke-width="3.0" fill="none" stroke="rgb(0, 0, 0)" stroke-opacity="1.0" stroke-linecap="round" stroke-linejoin="round"/>
    <path d="M 139.3055419921875 135.47874450683594 C 121.48173522949219 168.04161071777344 144.576904296875 153.52163696289062 97.32891082763672 184.31655883789062" stroke-width="3.0" fill="none" stroke="rgb(0, 0, 0)" stroke-opacity="1.0" stroke-linecap="round" stroke-linejoin="round"/>
    <path d="M 51.89471435546875 126.72200775146484 C -3.1931746006011963 178.6862030029297 42.063175201416016 158.56533813476562 18.34838104248047 170.4304962158203" stroke-width="3.0" fill="none" stroke="rgb(0, 0, 0)" stroke-opacity="1.0" stroke-linecap="round" stroke-linejoin="round"/>
    <path d="M 82.91365051269531 68.14978790283203 C 96.69396209716797 89.22599029541016 107.04681396484375 85.1371841430664 141.78631591796875 89.12236785888672" stroke-width="3.0" fill="none" stroke="rgb(0, 0, 0)" stroke-opacity="1.0" stroke-linecap="round" stroke-linejoin="round"/>
    <path d="M 139.8032989501953 126.86610412597656 C 140.24130249023438 139.22897338867188 139.19900512695312 138.73068237304688 165.94857788085938 127.80506896972656" stroke-width="3.0" fill="none" stroke="rgb(0, 0, 0)" stroke-opacity="1.0" stroke-linecap="round" stroke-linejoin="round"/>
    <path d="M 61.31978225708008 133.15988159179688 C 86.8050308227539 118.86119842529297 64.27413177490234 121.11547088623047 86.79930877685547 114.2657699584961" stroke-width="3.0" fill="none" stroke="rgb(0, 0, 0)" stroke-opacity="1.0" stroke-linecap="round" stroke-linejoin="round"/>
    <path d="M 143.0459747314453 112.99127197265625 C 137.37510681152344 116.96104431152344 140.52859497070312 125.77019500732422 135.5959930419922 119.8301773071289" stroke-width="3.0" fill="none" stroke="rgb(0, 0, 0)" stroke-opacity="1.0" stroke-linecap="round" stroke-linejoin="round"/>
    <path d="M 158.5046844482422 135.69754028320312 C 185.1581268310547 170.31759643554688 139.54791259765625 194.84727478027344 162.19122314453125 190.44717407226562" stroke-width="3.0" fill="none" stroke="rgb(0, 0, 0)" stroke-opacity="1.0" stroke-linecap="round" stroke-linejoin="round"/>
    <path d="M 13.64698314666748 77.963623046875 C 45.38072967529297 7.38636589050293 35.92766189575195 56.71540832519531 69.3951416015625 35.967613220214844" stroke-width="3.0" fill="none" stroke="rgb(0, 0, 0)" stroke-opacity="1.0" stroke-linecap="round" stroke-linejoin="round"/>
    <path d="M 86.14301300048828 66.44441986083984 C 56.88124465942383 41.98160934448242 46.48118209838867 40.141632080078125 78.54881286621094 52.0590934753418" stroke-width="3.0" fill="none" stroke="rgb(0, 0, 0)" stroke-opacity="1.0" stroke-linecap="round" stroke-linejoin="round"/>
  </g>
</svg>
