<?xml version="1.0" ?>
<svg xmlns="http://www.w3.org/2000/svg" version="1.1" width="224" height="224">
  <defs/>
  <g>
    <path d="M 104.66303253173828 106.45466613769531 C 106.14546966552734 106.455078125 113.21196746826172 106.38377380371094 100.93323516845703 102.89794921875" stroke-width="3.0" fill="none" stroke="rgb(0, 0, 0)" stroke-opacity="1.0" stroke-linecap="round" stroke-linejoin="round"/>
    <path d="M 102.3033676147461 138.5934295654297 C 118.66179656982422 124.00363159179688 101.27251434326172 136.92059326171875 132.27316284179688 122.19583129882812" stroke-width="3.0" fill="none" stroke="rgb(0, 0, 0)" stroke-opacity="1.0" stroke-linecap="round" stroke-linejoin="round"/>
    <path d="M 177.8587646484375 105.03376770019531 C 193.18141174316406 120.95201873779297 190.50656127929688 108.33447265625 206.2887725830078 135.9228973388672" stroke-width="3.0" fill="none" stroke="rgb(0, 0, 0)" stroke-opacity="1.0" stroke-linecap="round" stroke-linejoin="round"/>
    <path d="M 41.2431755065918 90.4769515991211 C 46.838233947753906 116.0946273803711 55.12989807128906 110.1846923828125 59.056907653808594 122.61184692382812" stroke-width="3.0" fill="none" stroke="rgb(0, 0, 0)" stroke-opacity="1.0" stroke-linecap="round" stroke-linejoin="round"/>
    <path d="M 146.7172088623047 93.63681030273438 C 143.65049743652344 92.30167388916016 144.10433959960938 92.1654052734375 149.0213165283203 95.29026794433594" stroke-width="3.0" fill="none" stroke="rgb(0, 0, 0)" stroke-opacity="1.0" stroke-linecap="round" stroke-linejoin="round"/>
    <path d="M 137.11134338378906 117.08119201660156 C 130.14239501953125 126.07002258300781 113.13018798828125 126.01988220214844 130.71607971191406 121.50623321533203" stroke-width="3.0" fill="none" stroke="rgb(0, 0, 0)" stroke-opacity="1.0" stroke-linecap="round" stroke-linejoin="round"/>
    <path d="M 80.07820892333984 105.20989990234375 C 86.34912109375 97.19107055664062 84.19474029541016 99.60263061523438 80.85505676269531 108.50517272949219" stroke-width="3.0" fill="none" stroke="rgb(0, 0, 0)" stroke-opacity="1.0" stroke-linecap="round" stroke-linejoin="round"/>
    <path d="M 133.03933715820312 133.71762084960938 C 139.6149444580078 148.82435607910156 135.2779083251953 140.23545837402344 123.03103637695312 170.93914794921875" stroke-width="3.0" fill="none" stroke="rgb(0, 0, 0)" stroke-opacity="1.0" stroke-linecap="round" stroke-linejoin="round"/>
    <path d="M 45.56953811645508 158.98585510253906 C 38.467716217041016 166.75901794433594 49.5557746887207 153.22633361816406 21.177326202392578 164.0923309326172" stroke-width="3.0" fill="none" stroke="rgb(0, 0, 0)" stroke-opacity="1.0" stroke-linecap="round" stroke-linejoin="round"/>
    <path d="M 102.90349578857422 82.57085418701172 C 110.69499206542969 85.52860260009766 108.51698303222656 82.58467864990234 114.10596466064453 83.21531677246094" stroke-width="3.0" fill="none" stroke="rgb(0, 0, 0)" stroke-opacity="1.0" stroke-linecap="round" stroke-linejoin="round"/>
    <path d="M 137.50009155273438 128.08750915527344 C 141.0747833251953 132.40582275390625 147.53216552734375 136.9488983154297 155.929443359375 135.2069091796875" stroke-width="3.0" fill="none" stroke="rgb(0, 0, 0)" stroke-opacity="1.0" stroke-linecap="round" stroke-linejoin="round"/>
    <path d="M 78.78337097167969 115.31143188476562 C 81.78328704833984 101.6965560913086 80.29756164550781 95.52582550048828 81.18656921386719 103.54508972167969" stroke-width="3.0" fill="none" stroke="rgb(0, 0, 0)" stroke-opacity="1.0" stroke-linecap="round" stroke-linejoin="round"/>
    <path d="M 134.7466583251953 106.94671630859375 C 134.5990753173828 107.3121566772461 132.23239135742188 103.19412231445312 136.9342498779297 110.43197631835938" stroke-width="3.0" fill="none" stroke="rgb(0, 0, 0)" stroke-opacity="1.0" stroke-linecap="round" stroke-linejoin="round"/>
    <path d="M 145.7855987548828 134.15223693847656 C 165.12437438964844 142.62808227539062 156.62403869628906 161.43699645996094 171.0012664794922 179.53457641601562" stroke-width="3.0" fill="none" stroke="rgb(0, 0, 0)" stroke-opacity="1.0" stroke-linecap="round" stroke-linejoin="round"/>
    <path d="M 38.05195999145508 38.610862731933594 C 53.88716506958008 29.182222366333008 74.9631118774414 50.97599792480469 72.97555541992188 41.72208786010742" stroke-width="3.0" fill="none" stroke="rgb(0, 0, 0)" stroke-opacity="1.0" stroke-linecap="round" stroke-linejoin="round"/>
    <path d="M 86.55620574951172 63.91839599609375 C 79.50367736816406 55.30894088745117 76.34986877441406 60.02200698852539 78.90440368652344 57.530540466308594" stroke-width="3.0" fill="none" stroke="rgb(0, 0, 0)" stroke-opacity="1.0" stroke-linecap="round" stroke-linejoin="round"/>
  </g>
</svg>
