<?xml version="1.0" ?>
<svg xmlns="http://www.w3.org/2000/svg" version="1.1" width="224" height="224">
  <defs/>
  <g>
    <path d="M 74.04378509521484 122.36552429199219 C 81.96792602539062 126.89376068115234 82.8253173828125 125.7406005859375 75.32618713378906 117.78780364990234" stroke-width="3.0" fill="none" stroke="rgb(0, 0, 0)" stroke-opacity="1.0" stroke-linecap="round" stroke-linejoin="round"/>
    <path d="M 70.7674560546875 125.80448913574219 C 112.58863067626953 137.95919799804688 113.57929229736328 126.93798065185547 133.33892822265625 126.86885070800781" stroke-width="3.0" fill="none" stroke="rgb(0, 0, 0)" stroke-opacity="1.0" stroke-linecap="round" stroke-linejoin="round"/>
    <path d="M 155.67579650878906 92.89462280273438 C 229.94349670410156 122.2267837524414 191.90016174316406 130.28562927246094 214.5308380126953 144.00506591796875" stroke-width="3.0" fill="none" stroke="rgb(0, 0, 0)" stroke-opacity="1.0" stroke-linecap="round" stroke-linejoin="round"/>
    <path d="M 46.848880767822266 67.433349609375 C 39.19671630859375 144.12078857421875 76.64002990722656 81.92422485351562 32.979957580566406 157.1292724609375" stroke-width="3.0" fill="none" stroke="rgb(0, 0, 0)" stroke-opacity="1.0" stroke-linecap="round" stroke-linejoin="round"/>
    <path d="M 131.92108154296875 90.79503631591797 C 132.43641662597656 89.9333267211914 164.17491149902344 87.08155059814453 168.74806213378906 104.23445892333984" stroke-width="3.0" fill="none" stroke="rgb(0, 0, 0)" stroke-opacity="1.0" stroke-linecap="round" stroke-linejoin="round"/>
    <path d="M 135.6068115234375 124.21910858154297 C 138.02880859375 124.79493713378906 123.2558822631836 129.5631866455078 134.92518615722656 123.61750793457031" stroke-width="3.0" fill="none" stroke="rgb(0, 0, 0)" stroke-opacity="1.0" stroke-linecap="round" stroke-linejoin="round"/>
    <path d="M 77.36646270751953 121.34217071533203 C 81.39012908935547 116.00153350830078 68.28366088867188 124.28016662597656 78.43004608154297 124.50072479248047" stroke-width="3.0" fill="none" stroke="rgb(0, 0, 0)" stroke-opacity="1.0" stroke-linecap="round" stroke-linejoin="round"/>
    <path d="M 141.8946533203125 128.06756591796875 C 117.58349609375 173.42515563964844 146.0381622314453 152.99673461914062 97.9010009765625 186.1400146484375" stroke-width="3.0" fill="none" stroke="rgb(0, 0, 0)" stroke-opacity="1.0" stroke-linecap="round" stroke-linejoin="round"/>
    <path d="M 56.82620620727539 120.54491424560547 C -2.5060791969299316 176.02911376953125 53.02797317504883 156.02186584472656 16.4742374420166 169.8070831298828" stroke-width="3.0" fill="none" stroke="rgb(0, 0, 0)" stroke-opacity="1.0" stroke-linecap="round" stroke-linejoin="round"/>
    <path d="M 53.66460037231445 41.74472427368164 C 109.16300964355469 100.12305450439453 89.74718475341797 81.65227508544922 136.28103637695312 91.70014190673828" stroke-width="3.0" fill="none" stroke="rgb(0, 0, 0)" stroke-opacity="1.0" stroke-linecap="round" stroke-linejoin="round"/>
    <path d="M 134.9310760498047 159.2871856689453 C 153.12596130371094 117.64399719238281 156.1807403564453 157.2891845703125 175.84542846679688 107.6613540649414" stroke-width="3.0" fill="none" stroke="rgb(0, 0, 0)" stroke-opacity="1.0" stroke-linecap="round" stroke-linejoin="round"/>
    <path d="M 31.56755828857422 151.8144989013672 C 74.41735076904297 121.51978302001953 55.799110412597656 145.2263946533203 78.23133850097656 112.5010986328125" stroke-width="3.0" fill="none" stroke="rgb(0, 0, 0)" stroke-opacity="1.0" stroke-linecap="round" stroke-linejoin="round"/>
    <path d="M 146.2323455810547 121.10263061523438 C 133.7644500732422 124.95845794677734 133.25674438476562 112.81765747070312 137.91770935058594 129.03762817382812" stroke-width="3.0" fill="none" stroke="rgb(0, 0, 0)" stroke-opacity="1.0" stroke-linecap="round" stroke-linejoin="round"/>
    <path d="M 166.86831665039062 123.9920425415039 C 177.600830078125 161.2223663330078 143.76463317871094 203.9957733154297 161.81199645996094 190.30821228027344" stroke-width="3.0" fill="none" stroke="rgb(0, 0, 0)" stroke-opacity="1.0" stroke-linecap="round" stroke-linejoin="round"/>
    <path d="M 14.16132640838623 72.8979263305664 C 77.48431396484375 15.215429306030273 -17.836139678955078 60.234867095947266 70.48854064941406 45.50305938720703" stroke-width="3.0" fill="none" stroke="rgb(0, 0, 0)" stroke-opacity="1.0" stroke-linecap="round" stroke-linejoin="round"/>
    <path d="M 85.90180206298828 64.70052337646484 C 39.043182373046875 39.911590576171875 6.790657997131348 25.159229278564453 80.42061614990234 57.35786819458008" stroke-width="3.0" fill="none" stroke="rgb(0, 0, 0)" stroke-opacity="1.0" stroke-linecap="round" stroke-linejoin="round"/>
  </g>
</svg>
