<?xml version="1.0" ?>
<svg xmlns="http://www.w3.org/2000/svg" version="1.1" width="224" height="224">
  <defs/>
  <g>
    <path d="M 76.02479553222656 121.19039154052734 C 82.9360122680664 125.32723999023438 83.6101303100586 123.62168884277344 76.27951049804688 118.25848388671875" stroke-width="3.0" fill="none" stroke="rgb(0, 0, 0)" stroke-opacity="1.0" stroke-linecap="round" stroke-linejoin="round"/>
    <path d="M 73.03079986572266 128.87326049804688 C 107.86241912841797 139.5548553466797 119.1483154296875 125.01471710205078 129.8588104248047 127.7475814819336" stroke-width="3.0" fill="none" stroke="rgb(0, 0, 0)" stroke-opacity="1.0" stroke-linecap="round" stroke-linejoin="round"/>
    <path d="M 155.94873046875 93.28512573242188 C 226.43019104003906 118.3857192993164 191.7299041748047 133.85507202148438 215.0435791015625 143.171630859375" stroke-width="3.0" fill="none" stroke="rgb(0, 0, 0)" stroke-opacity="1.0" stroke-linecap="round" stroke-linejoin="round"/>
    <path d="M 57.80809020996094 71.8738021850586 C 31.160709381103516 144.60398864746094 77.98577880859375 88.66702270507812 32.5882682800293 158.67469787597656" stroke-width="3.0" fill="none" stroke="rgb(0, 0, 0)" stroke-opacity="1.0" stroke-linecap="round" stroke-linejoin="round"/>
    <path d="M 128.68902587890625 89.44465637207031 C 135.37127685546875 91.21857452392578 170.59735107421875 84.88117218017578 169.56809997558594 108.8476333618164" stroke-width="3.0" fill="none" stroke="rgb(0, 0, 0)" stroke-opacity="1.0" stroke-linecap="round" stroke-linejoin="round"/>
    <path d="M 134.1591796875 124.37490844726562 C 134.93580627441406 125.02580261230469 117.05154418945312 129.10308837890625 126.30366516113281 127.8864517211914" stroke-width="3.0" fill="none" stroke="rgb(0, 0, 0)" stroke-opacity="1.0" stroke-linecap="round" stroke-linejoin="round"/>
    <path d="M 77.2746810913086 121.53311157226562 C 79.853271484375 116.48405456542969 67.91204071044922 125.63463592529297 81.26520538330078 122.74775695800781" stroke-width="3.0" fill="none" stroke="rgb(0, 0, 0)" stroke-opacity="1.0" stroke-linecap="round" stroke-linejoin="round"/>
    <path d="M 139.59246826171875 127.70650482177734 C 124.87291717529297 172.0289764404297 142.5823211669922 155.2052459716797 100.07156372070312 185.67056274414062" stroke-width="3.0" fill="none" stroke="rgb(0, 0, 0)" stroke-opacity="1.0" stroke-linecap="round" stroke-linejoin="round"/>
    <path d="M 57.440528869628906 121.79387664794922 C -4.247951030731201 174.31063842773438 49.823726654052734 156.19749450683594 14.999444961547852 168.8185577392578" stroke-width="3.0" fill="none" stroke="rgb(0, 0, 0)" stroke-opacity="1.0" stroke-linecap="round" stroke-linejoin="round"/>
    <path d="M 52.89230728149414 41.86363983154297 C 105.73192596435547 102.44550323486328 93.66093444824219 79.70635223388672 133.5082550048828 90.41867065429688" stroke-width="3.0" fill="none" stroke="rgb(0, 0, 0)" stroke-opacity="1.0" stroke-linecap="round" stroke-linejoin="round"/>
    <path d="M 136.14723205566406 158.86940002441406 C 152.04586791992188 120.16799926757812 143.8107147216797 150.31004333496094 180.5185089111328 110.60580444335938" stroke-width="3.0" fill="none" stroke="rgb(0, 0, 0)" stroke-opacity="1.0" stroke-linecap="round" stroke-linejoin="round"/>
    <path d="M 28.120521545410156 154.0177459716797 C 73.46192169189453 121.55064392089844 60.00114822387695 139.8275909423828 77.16294860839844 115.0703125" stroke-width="3.0" fill="none" stroke="rgb(0, 0, 0)" stroke-opacity="1.0" stroke-linecap="round" stroke-linejoin="round"/>
    <path d="M 148.29811096191406 118.864990234375 C 129.2227783203125 122.04347229003906 139.7147216796875 118.43107604980469 138.9131622314453 125.2095718383789" stroke-width="3.0" fill="none" stroke="rgb(0, 0, 0)" stroke-opacity="1.0" stroke-linecap="round" stroke-linejoin="round"/>
    <path d="M 171.37942504882812 121.8682632446289 C 181.45281982421875 149.14132690429688 143.6692657470703 200.70005798339844 161.58428955078125 193.00697326660156" stroke-width="3.0" fill="none" stroke="rgb(0, 0, 0)" stroke-opacity="1.0" stroke-linecap="round" stroke-linejoin="round"/>
    <path d="M 14.557600975036621 73.25178527832031 C 79.46073150634766 16.801319122314453 -15.476417541503906 64.21664428710938 70.88163757324219 45.84209060668945" stroke-width="3.0" fill="none" stroke="rgb(0, 0, 0)" stroke-opacity="1.0" stroke-linecap="round" stroke-linejoin="round"/>
    <path d="M 83.17491912841797 64.62293243408203 C 35.986576080322266 47.593048095703125 13.170825958251953 24.01180648803711 78.76596069335938 56.663692474365234" stroke-width="3.0" fill="none" stroke="rgb(0, 0, 0)" stroke-opacity="1.0" stroke-linecap="round" stroke-linejoin="round"/>
  </g>
</svg>
