<?xml version="1.0" ?>
<svg xmlns="http://www.w3.org/2000/svg" version="1.1" width="224" height="224">
  <defs/>
  <g>
    <path d="M 79.1806869506836 122.3067855834961 C 88.69954681396484 126.87190246582031 78.57768249511719 130.5422821044922 80.19135284423828 118.00686645507812" stroke-width="3.0" fill="none" stroke="rgb(0, 0, 0)" stroke-opacity="1.0" stroke-linecap="round" stroke-linejoin="round"/>
    <path d="M 76.65105438232422 124.7112808227539 C 111.23628234863281 133.51025390625 113.45024108886719 126.72402954101562 134.28399658203125 125.39668273925781" stroke-width="3.0" fill="none" stroke="rgb(0, 0, 0)" stroke-opacity="1.0" stroke-linecap="round" stroke-linejoin="round"/>
    <path d="M 150.58119201660156 90.5247802734375 C 228.6940460205078 119.65296936035156 189.5113983154297 130.1270751953125 214.31484985351562 143.96205139160156" stroke-width="3.0" fill="none" stroke="rgb(0, 0, 0)" stroke-opacity="1.0" stroke-linecap="round" stroke-linejoin="round"/>
    <path d="M 56.917869567871094 69.07673645019531 C 38.96037292480469 143.83041381835938 83.55896759033203 83.5111083984375 32.094017028808594 156.60137939453125" stroke-width="3.0" fill="none" stroke="rgb(0, 0, 0)" stroke-opacity="1.0" stroke-linecap="round" stroke-linejoin="round"/>
    <path d="M 121.0621337890625 88.42691040039062 C 137.2965545654297 89.93689727783203 154.04067993164062 84.67292785644531 172.0100860595703 104.1521987915039" stroke-width="3.0" fill="none" stroke="rgb(0, 0, 0)" stroke-opacity="1.0" stroke-linecap="round" stroke-linejoin="round"/>
    <path d="M 143.74472045898438 126.88955688476562 C 141.63987731933594 120.00541687011719 125.57192993164062 126.6668472290039 134.8953857421875 125.61151885986328" stroke-width="3.0" fill="none" stroke="rgb(0, 0, 0)" stroke-opacity="1.0" stroke-linecap="round" stroke-linejoin="round"/>
    <path d="M 79.44053649902344 122.38554382324219 C 86.09163665771484 121.40348815917969 68.78601837158203 130.7201385498047 85.40956115722656 119.84014892578125" stroke-width="3.0" fill="none" stroke="rgb(0, 0, 0)" stroke-opacity="1.0" stroke-linecap="round" stroke-linejoin="round"/>
    <path d="M 141.01611328125 127.68058013916016 C 120.50285339355469 173.87327575683594 145.05059814453125 153.8469696044922 97.38780212402344 183.74661254882812" stroke-width="3.0" fill="none" stroke="rgb(0, 0, 0)" stroke-opacity="1.0" stroke-linecap="round" stroke-linejoin="round"/>
    <path d="M 54.89421844482422 125.84334564208984 C -6.974710941314697 169.56163024902344 49.05215072631836 149.73670959472656 15.750690460205078 169.34649658203125" stroke-width="3.0" fill="none" stroke="rgb(0, 0, 0)" stroke-opacity="1.0" stroke-linecap="round" stroke-linejoin="round"/>
    <path d="M 53.12177276611328 36.479278564453125 C 110.37822723388672 100.45955657958984 78.76393127441406 76.40392303466797 135.12530517578125 91.89240264892578" stroke-width="3.0" fill="none" stroke="rgb(0, 0, 0)" stroke-opacity="1.0" stroke-linecap="round" stroke-linejoin="round"/>
    <path d="M 132.65138244628906 157.74464416503906 C 147.8856658935547 116.40044403076172 156.9817352294922 153.65771484375 178.1574249267578 107.26277923583984" stroke-width="3.0" fill="none" stroke="rgb(0, 0, 0)" stroke-opacity="1.0" stroke-linecap="round" stroke-linejoin="round"/>
    <path d="M 27.62572479248047 150.67813110351562 C 77.31941986083984 115.06504821777344 57.70160675048828 144.98851013183594 78.0467300415039 110.55583190917969" stroke-width="3.0" fill="none" stroke="rgb(0, 0, 0)" stroke-opacity="1.0" stroke-linecap="round" stroke-linejoin="round"/>
    <path d="M 155.71478271484375 122.56412506103516 C 138.82290649414062 129.06019592285156 135.9883270263672 122.38980102539062 135.4165496826172 127.43524169921875" stroke-width="3.0" fill="none" stroke="rgb(0, 0, 0)" stroke-opacity="1.0" stroke-linecap="round" stroke-linejoin="round"/>
    <path d="M 170.3047332763672 111.88325500488281 C 177.53724670410156 167.70809936523438 141.57354736328125 198.41798400878906 158.4705352783203 191.87327575683594" stroke-width="3.0" fill="none" stroke="rgb(0, 0, 0)" stroke-opacity="1.0" stroke-linecap="round" stroke-linejoin="round"/>
    <path d="M 16.118789672851562 75.58969116210938 C 78.41352844238281 11.986316680908203 -9.111648559570312 56.04151153564453 72.32170104980469 44.75398254394531" stroke-width="3.0" fill="none" stroke="rgb(0, 0, 0)" stroke-opacity="1.0" stroke-linecap="round" stroke-linejoin="round"/>
    <path d="M 86.82730102539062 65.16463470458984 C 38.39936828613281 37.83365249633789 7.0314812660217285 19.991004943847656 80.48179626464844 55.49745178222656" stroke-width="3.0" fill="none" stroke="rgb(0, 0, 0)" stroke-opacity="1.0" stroke-linecap="round" stroke-linejoin="round"/>
  </g>
</svg>
