<?xml version="1.0" ?>
<svg xmlns="http://www.w3.org/2000/svg" version="1.1" width="224" height="224">
  <defs/>
  <g>
    <path d="M 88.54375457763672 126.45803833007812 C 84.74728393554688 120.6101303100586 83.10479736328125 121.0320816040039 75.5429458618164 116.79830169677734" stroke-width="3.0" fill="none" stroke="rgb(0, 0, 0)" stroke-opacity="1.0" stroke-linecap="round" stroke-linejoin="round"/>
    <path d="M 74.1171875 120.0005111694336 C 101.7376480102539 137.93734741210938 110.80462646484375 126.0954818725586 133.2650909423828 124.18372344970703" stroke-width="3.0" fill="none" stroke="rgb(0, 0, 0)" stroke-opacity="1.0" stroke-linecap="round" stroke-linejoin="round"/>
    <path d="M 153.68798828125 91.1739273071289 C 227.21298217773438 123.05525970458984 187.90049743652344 134.47500610351562 215.04318237304688 144.58059692382812" stroke-width="3.0" fill="none" stroke="rgb(0, 0, 0)" stroke-opacity="1.0" stroke-linecap="round" stroke-linejoin="round"/>
    <path d="M 52.46894454956055 63.84344482421875 C 38.95404052734375 151.82940673828125 84.8455581665039 108.149169921875 39.316123962402344 153.0404815673828" stroke-width="3.0" fill="none" stroke="rgb(0, 0, 0)" stroke-opacity="1.0" stroke-linecap="round" stroke-linejoin="round"/>
    <path d="M 135.59356689453125 89.5781478881836 C 144.76229858398438 90.6302261352539 161.9630584716797 87.59532165527344 173.905029296875 105.20968627929688" stroke-width="3.0" fill="none" stroke="rgb(0, 0, 0)" stroke-opacity="1.0" stroke-linecap="round" stroke-linejoin="round"/>
    <path d="M 133.95103454589844 120.84925842285156 C 132.13796997070312 121.49773406982422 119.86771392822266 127.3077163696289 124.55422973632812 125.31768035888672" stroke-width="3.0" fill="none" stroke="rgb(0, 0, 0)" stroke-opacity="1.0" stroke-linecap="round" stroke-linejoin="round"/>
    <path d="M 77.5762710571289 121.55931854248047 C 80.13372802734375 120.60563659667969 66.57927703857422 120.92166137695312 88.03105926513672 125.72914123535156" stroke-width="3.0" fill="none" stroke="rgb(0, 0, 0)" stroke-opacity="1.0" stroke-linecap="round" stroke-linejoin="round"/>
    <path d="M 139.9326934814453 136.30714416503906 C 123.25701141357422 169.00991821289062 146.5635223388672 152.07444763183594 99.7425765991211 184.40347290039062" stroke-width="3.0" fill="none" stroke="rgb(0, 0, 0)" stroke-opacity="1.0" stroke-linecap="round" stroke-linejoin="round"/>
    <path d="M 58.599517822265625 115.79344177246094 C 5.151230812072754 182.93287658691406 57.53268051147461 150.0095672607422 21.69899559020996 171.51560974121094" stroke-width="3.0" fill="none" stroke="rgb(0, 0, 0)" stroke-opacity="1.0" stroke-linecap="round" stroke-linejoin="round"/>
    <path d="M 71.74453735351562 49.03943634033203 C 90.80297088623047 98.2475357055664 103.9880599975586 84.91193389892578 144.866943359375 90.31890869140625" stroke-width="3.0" fill="none" stroke="rgb(0, 0, 0)" stroke-opacity="1.0" stroke-linecap="round" stroke-linejoin="round"/>
    <path d="M 140.2392578125 132.69891357421875 C 139.41766357421875 135.78854370117188 136.9130401611328 139.37625122070312 173.73782348632812 115.86112976074219" stroke-width="3.0" fill="none" stroke="rgb(0, 0, 0)" stroke-opacity="1.0" stroke-linecap="round" stroke-linejoin="round"/>
    <path d="M 60.57072067260742 139.33242797851562 C 78.77919006347656 128.31854248046875 70.93592071533203 137.05856323242188 77.92594146728516 111.95497131347656" stroke-width="3.0" fill="none" stroke="rgb(0, 0, 0)" stroke-opacity="1.0" stroke-linecap="round" stroke-linejoin="round"/>
    <path d="M 137.0080108642578 117.68004608154297 C 130.81405639648438 124.6769027709961 134.05068969726562 126.8142318725586 132.66513061523438 121.87993621826172" stroke-width="3.0" fill="none" stroke="rgb(0, 0, 0)" stroke-opacity="1.0" stroke-linecap="round" stroke-linejoin="round"/>
    <path d="M 161.1276397705078 129.03761291503906 C 185.6901092529297 170.502197265625 139.72654724121094 206.39883422851562 159.71966552734375 192.33953857421875" stroke-width="3.0" fill="none" stroke="rgb(0, 0, 0)" stroke-opacity="1.0" stroke-linecap="round" stroke-linejoin="round"/>
    <path d="M 15.938413619995117 76.52767944335938 C 61.23446273803711 -8.89656925201416 19.312108993530273 62.78703689575195 70.70603942871094 37.47158432006836" stroke-width="3.0" fill="none" stroke="rgb(0, 0, 0)" stroke-opacity="1.0" stroke-linecap="round" stroke-linejoin="round"/>
    <path d="M 85.63908386230469 66.6091079711914 C 51.020790100097656 41.27630615234375 35.142704010009766 28.15904998779297 76.7076644897461 48.834285736083984" stroke-width="3.0" fill="none" stroke="rgb(0, 0, 0)" stroke-opacity="1.0" stroke-linecap="round" stroke-linejoin="round"/>
  </g>
</svg>
