<?xml version="1.0" ?>
<svg xmlns="http://www.w3.org/2000/svg" version="1.1" width="224" height="224">
  <defs/>
  <g>
    <path d="M 76.92617797851562 115.39537048339844 C 73.51969909667969 130.74497985839844 86.20613861083984 120.07598114013672 74.63703918457031 118.28693389892578" stroke-width="3.0" fill="none" stroke="rgb(0, 0, 0)" stroke-opacity="1.0" stroke-linecap="round" stroke-linejoin="round"/>
    <path d="M 70.31642150878906 122.37548828125 C 108.58702087402344 137.35691833496094 118.77429962158203 130.52020263671875 133.61868286132812 129.82301330566406" stroke-width="3.0" fill="none" stroke="rgb(0, 0, 0)" stroke-opacity="1.0" stroke-linecap="round" stroke-linejoin="round"/>
    <path d="M 170.22940063476562 100.82603454589844 C 216.14984130859375 115.52215576171875 196.222412109375 138.4845428466797 217.08570861816406 144.48814392089844" stroke-width="3.0" fill="none" stroke="rgb(0, 0, 0)" stroke-opacity="1.0" stroke-linecap="round" stroke-linejoin="round"/>
    <path d="M 50.01750183105469 60.7558708190918 C 69.21170806884766 157.2416534423828 42.9580078125 100.8420639038086 35.12334060668945 148.4274444580078" stroke-width="3.0" fill="none" stroke="rgb(0, 0, 0)" stroke-opacity="1.0" stroke-linecap="round" stroke-linejoin="round"/>
    <path d="M 105.7625732421875 83.3324966430664 C 147.50584411621094 89.07706451416016 145.87184143066406 77.38763427734375 176.6478729248047 107.86979675292969" stroke-width="3.0" fill="none" stroke="rgb(0, 0, 0)" stroke-opacity="1.0" stroke-linecap="round" stroke-linejoin="round"/>
    <path d="M 137.6787872314453 127.76953125 C 134.2341766357422 128.04493713378906 150.18983459472656 118.88809967041016 113.02486419677734 127.50699615478516" stroke-width="3.0" fill="none" stroke="rgb(0, 0, 0)" stroke-opacity="1.0" stroke-linecap="round" stroke-linejoin="round"/>
    <path d="M 71.12913513183594 120.92058563232422 C 94.10602569580078 113.79141235351562 58.05275344848633 129.36672973632812 77.32262420654297 116.73684692382812" stroke-width="3.0" fill="none" stroke="rgb(0, 0, 0)" stroke-opacity="1.0" stroke-linecap="round" stroke-linejoin="round"/>
    <path d="M 136.7650604248047 129.27688598632812 C 122.6323471069336 174.291748046875 139.71214294433594 159.187744140625 99.6167221069336 187.30184936523438" stroke-width="3.0" fill="none" stroke="rgb(0, 0, 0)" stroke-opacity="1.0" stroke-linecap="round" stroke-linejoin="round"/>
    <path d="M 45.0501708984375 135.15548706054688 C -14.205818176269531 213.53903198242188 68.010986328125 126.12699890136719 13.618239402770996 168.6431884765625" stroke-width="3.0" fill="none" stroke="rgb(0, 0, 0)" stroke-opacity="1.0" stroke-linecap="round" stroke-linejoin="round"/>
    <path d="M 36.24128341674805 37.67177963256836 C 105.2764663696289 68.43355560302734 57.267059326171875 62.091854095458984 108.36085510253906 85.93524932861328" stroke-width="3.0" fill="none" stroke="rgb(0, 0, 0)" stroke-opacity="1.0" stroke-linecap="round" stroke-linejoin="round"/>
    <path d="M 134.50428771972656 159.83450317382812 C 154.70370483398438 117.90182495117188 150.4811553955078 152.59332275390625 178.49267578125 113.54510498046875" stroke-width="3.0" fill="none" stroke="rgb(0, 0, 0)" stroke-opacity="1.0" stroke-linecap="round" stroke-linejoin="round"/>
    <path d="M 37.8218879699707 160.66172790527344 C 59.55176544189453 111.37882995605469 55.53169250488281 152.578369140625 79.85115051269531 108.89457702636719" stroke-width="3.0" fill="none" stroke="rgb(0, 0, 0)" stroke-opacity="1.0" stroke-linecap="round" stroke-linejoin="round"/>
    <path d="M 158.94174194335938 117.16123962402344 C 133.41537475585938 130.94720458984375 164.04200744628906 119.34183502197266 98.16024780273438 130.4641571044922" stroke-width="3.0" fill="none" stroke="rgb(0, 0, 0)" stroke-opacity="1.0" stroke-linecap="round" stroke-linejoin="round"/>
    <path d="M 173.23736572265625 107.19393920898438 C 167.62100219726562 229.7017364501953 135.5873260498047 183.75050354003906 161.44363403320312 190.8466796875" stroke-width="3.0" fill="none" stroke="rgb(0, 0, 0)" stroke-opacity="1.0" stroke-linecap="round" stroke-linejoin="round"/>
    <path d="M 14.943042755126953 78.95085144042969 C 71.14115905761719 6.586786270141602 -17.51265525817871 83.87735748291016 54.649295806884766 36.99530792236328" stroke-width="3.0" fill="none" stroke="rgb(0, 0, 0)" stroke-opacity="1.0" stroke-linecap="round" stroke-linejoin="round"/>
    <path d="M 94.36962890625 72.26141357421875 C 85.31889343261719 21.260284423828125 -22.52518653869629 43.44314956665039 83.24735260009766 49.68721389770508" stroke-width="3.0" fill="none" stroke="rgb(0, 0, 0)" stroke-opacity="1.0" stroke-linecap="round" stroke-linejoin="round"/>
  </g>
</svg>
