<?xml version="1.0" ?>
<svg xmlns="http://www.w3.org/2000/svg" version="1.1" width="224" height="224">
  <defs/>
  <g>
    <path d="M 79.69285583496094 110.06678009033203 C 93.68660736083984 130.95643615722656 84.1116943359375 121.91020965576172 80.92706298828125 120.14218139648438" stroke-width="3.0" fill="none" stroke="rgb(0, 0, 0)" stroke-opacity="1.0" stroke-linecap="round" stroke-linejoin="round"/>
    <path d="M 79.19580078125 122.64726257324219 C 119.12980651855469 134.3738555908203 117.77643585205078 127.2640151977539 140.42994689941406 116.89727020263672" stroke-width="3.0" fill="none" stroke="rgb(0, 0, 0)" stroke-opacity="1.0" stroke-linecap="round" stroke-linejoin="round"/>
    <path d="M 165.02139282226562 97.82551574707031 C 218.30438232421875 122.45008087158203 192.01284790039062 133.86598205566406 217.28570556640625 144.8451385498047" stroke-width="3.0" fill="none" stroke="rgb(0, 0, 0)" stroke-opacity="1.0" stroke-linecap="round" stroke-linejoin="round"/>
    <path d="M 50.6630973815918 67.1124038696289 C 43.247196197509766 158.55410766601562 74.40210723876953 82.8617935180664 34.863887786865234 158.9770965576172" stroke-width="3.0" fill="none" stroke="rgb(0, 0, 0)" stroke-opacity="1.0" stroke-linecap="round" stroke-linejoin="round"/>
    <path d="M 117.88652038574219 90.23128509521484 C 136.06497192382812 92.38563537597656 155.9138641357422 79.00208282470703 170.96392822265625 105.48030853271484" stroke-width="3.0" fill="none" stroke="rgb(0, 0, 0)" stroke-opacity="1.0" stroke-linecap="round" stroke-linejoin="round"/>
    <path d="M 139.57281494140625 122.2040023803711 C 122.42857360839844 124.56634521484375 126.47496032714844 129.48825073242188 135.89852905273438 121.13394927978516" stroke-width="3.0" fill="none" stroke="rgb(0, 0, 0)" stroke-opacity="1.0" stroke-linecap="round" stroke-linejoin="round"/>
    <path d="M 81.25083923339844 121.53877258300781 C 89.32498931884766 105.02650451660156 67.59510803222656 129.59796142578125 85.79666137695312 120.69189453125" stroke-width="3.0" fill="none" stroke="rgb(0, 0, 0)" stroke-opacity="1.0" stroke-linecap="round" stroke-linejoin="round"/>
    <path d="M 137.40602111816406 124.77357482910156 C 124.55440521240234 171.4964599609375 143.42910766601562 156.71971130371094 99.66446685791016 185.01560974121094" stroke-width="3.0" fill="none" stroke="rgb(0, 0, 0)" stroke-opacity="1.0" stroke-linecap="round" stroke-linejoin="round"/>
    <path d="M 60.479488372802734 119.03508758544922 C -10.348494529724121 183.44061279296875 54.32193374633789 154.20899963378906 17.965774536132812 168.845947265625" stroke-width="3.0" fill="none" stroke="rgb(0, 0, 0)" stroke-opacity="1.0" stroke-linecap="round" stroke-linejoin="round"/>
    <path d="M 42.4306640625 40.032928466796875 C 125.34274291992188 87.07209777832031 53.6553840637207 74.43303680419922 118.82510375976562 90.59591674804688" stroke-width="3.0" fill="none" stroke="rgb(0, 0, 0)" stroke-opacity="1.0" stroke-linecap="round" stroke-linejoin="round"/>
    <path d="M 133.79244995117188 160.14706420898438 C 150.3347625732422 116.03128051757812 152.0869903564453 153.35879516601562 182.3573455810547 106.81315612792969" stroke-width="3.0" fill="none" stroke="rgb(0, 0, 0)" stroke-opacity="1.0" stroke-linecap="round" stroke-linejoin="round"/>
    <path d="M 29.771072387695312 153.4208984375 C 66.02513122558594 116.85145568847656 64.0136489868164 146.68109130859375 76.02198791503906 115.41432189941406" stroke-width="3.0" fill="none" stroke="rgb(0, 0, 0)" stroke-opacity="1.0" stroke-linecap="round" stroke-linejoin="round"/>
    <path d="M 154.1766357421875 122.0217514038086 C 137.41943359375 126.9037857055664 136.69700622558594 118.17992401123047 132.5349578857422 127.5206069946289" stroke-width="3.0" fill="none" stroke="rgb(0, 0, 0)" stroke-opacity="1.0" stroke-linecap="round" stroke-linejoin="round"/>
    <path d="M 172.2327880859375 110.64092254638672 C 166.51402282714844 227.89186096191406 134.59307861328125 185.0665283203125 160.73548889160156 189.2078094482422" stroke-width="3.0" fill="none" stroke="rgb(0, 0, 0)" stroke-opacity="1.0" stroke-linecap="round" stroke-linejoin="round"/>
    <path d="M 15.794322967529297 76.64108276367188 C 72.38213348388672 24.51624870300293 -23.505653381347656 67.31166076660156 64.71139526367188 44.537166595458984" stroke-width="3.0" fill="none" stroke="rgb(0, 0, 0)" stroke-opacity="1.0" stroke-linecap="round" stroke-linejoin="round"/>
    <path d="M 91.92271423339844 69.6573257446289 C 46.292083740234375 33.76519775390625 -10.239133834838867 33.656002044677734 82.64571380615234 56.98694610595703" stroke-width="3.0" fill="none" stroke="rgb(0, 0, 0)" stroke-opacity="1.0" stroke-linecap="round" stroke-linejoin="round"/>
  </g>
</svg>
