<?xml version="1.0" ?>
<svg xmlns="http://www.w3.org/2000/svg" version="1.1" width="224" height="224">
  <defs/>
  <g>
    <path d="M 78.63381958007812 119.18638610839844 C 83.91030883789062 125.03211212158203 76.6894302368164 129.84547424316406 79.44326782226562 120.55348205566406" stroke-width="3.0" fill="none" stroke="rgb(0, 0, 0)" stroke-opacity="1.0" stroke-linecap="round" stroke-linejoin="round"/>
    <path d="M 75.42510223388672 124.48973083496094 C 112.30032348632812 135.86688232421875 112.42256164550781 127.1180419921875 133.43499755859375 125.83615112304688" stroke-width="3.0" fill="none" stroke="rgb(0, 0, 0)" stroke-opacity="1.0" stroke-linecap="round" stroke-linejoin="round"/>
    <path d="M 151.46253967285156 90.47772216796875 C 228.5871124267578 119.95196533203125 191.1228790283203 126.3297119140625 217.58416748046875 141.73500061035156" stroke-width="3.0" fill="none" stroke="rgb(0, 0, 0)" stroke-opacity="1.0" stroke-linecap="round" stroke-linejoin="round"/>
    <path d="M 54.237388610839844 69.63831329345703 C 37.138912200927734 150.86758422851562 81.54360961914062 86.41524505615234 30.051054000854492 160.2725372314453" stroke-width="3.0" fill="none" stroke="rgb(0, 0, 0)" stroke-opacity="1.0" stroke-linecap="round" stroke-linejoin="round"/>
    <path d="M 118.85052490234375 87.73339080810547 C 140.25680541992188 92.10287475585938 153.36170959472656 84.39755249023438 171.43716430664062 102.79566955566406" stroke-width="3.0" fill="none" stroke="rgb(0, 0, 0)" stroke-opacity="1.0" stroke-linecap="round" stroke-linejoin="round"/>
    <path d="M 149.83949279785156 124.27143096923828 C 143.04232788085938 124.4496841430664 122.85225677490234 126.81128692626953 134.49876403808594 127.20372009277344" stroke-width="3.0" fill="none" stroke="rgb(0, 0, 0)" stroke-opacity="1.0" stroke-linecap="round" stroke-linejoin="round"/>
    <path d="M 74.22772979736328 121.56358337402344 C 85.59297943115234 124.55087280273438 62.85502243041992 132.2429656982422 83.11469268798828 112.88492584228516" stroke-width="3.0" fill="none" stroke="rgb(0, 0, 0)" stroke-opacity="1.0" stroke-linecap="round" stroke-linejoin="round"/>
    <path d="M 139.5873565673828 127.27667999267578 C 119.60717010498047 173.066650390625 144.0443878173828 155.76707458496094 98.25083923339844 183.52847290039062" stroke-width="3.0" fill="none" stroke="rgb(0, 0, 0)" stroke-opacity="1.0" stroke-linecap="round" stroke-linejoin="round"/>
    <path d="M 56.719703674316406 128.41317749023438 C -6.564756870269775 175.96238708496094 45.42597198486328 158.27569580078125 16.371496200561523 169.7919464111328" stroke-width="3.0" fill="none" stroke="rgb(0, 0, 0)" stroke-opacity="1.0" stroke-linecap="round" stroke-linejoin="round"/>
    <path d="M 51.171871185302734 41.755374908447266 C 114.2674560546875 99.42206573486328 80.20415496826172 80.51625061035156 134.29693603515625 89.92821502685547" stroke-width="3.0" fill="none" stroke="rgb(0, 0, 0)" stroke-opacity="1.0" stroke-linecap="round" stroke-linejoin="round"/>
    <path d="M 132.34039306640625 160.99021911621094 C 148.5928955078125 118.67448425292969 157.11976623535156 153.50790405273438 178.85728454589844 108.46214294433594" stroke-width="3.0" fill="none" stroke="rgb(0, 0, 0)" stroke-opacity="1.0" stroke-linecap="round" stroke-linejoin="round"/>
    <path d="M 29.15296745300293 153.7081298828125 C 79.3196029663086 120.63848876953125 57.62655258178711 146.97705078125 74.87388610839844 112.79058074951172" stroke-width="3.0" fill="none" stroke="rgb(0, 0, 0)" stroke-opacity="1.0" stroke-linecap="round" stroke-linejoin="round"/>
    <path d="M 156.51712036132812 119.15601348876953 C 140.4454803466797 133.78128051757812 138.89329528808594 124.16539764404297 140.7675018310547 131.1175079345703" stroke-width="3.0" fill="none" stroke="rgb(0, 0, 0)" stroke-opacity="1.0" stroke-linecap="round" stroke-linejoin="round"/>
    <path d="M 173.25167846679688 109.6569595336914 C 176.20504760742188 174.81951904296875 145.09388732910156 196.63333129882812 160.3537139892578 191.1268768310547" stroke-width="3.0" fill="none" stroke="rgb(0, 0, 0)" stroke-opacity="1.0" stroke-linecap="round" stroke-linejoin="round"/>
    <path d="M 8.871428489685059 72.575439453125 C 78.00479888916016 15.116414070129395 -15.23730182647705 63.93967056274414 69.06739807128906 45.95378494262695" stroke-width="3.0" fill="none" stroke="rgb(0, 0, 0)" stroke-opacity="1.0" stroke-linecap="round" stroke-linejoin="round"/>
    <path d="M 86.84135437011719 68.92205810546875 C 39.114036560058594 37.666412353515625 2.9410836696624756 25.14290428161621 79.72376251220703 58.948238372802734" stroke-width="3.0" fill="none" stroke="rgb(0, 0, 0)" stroke-opacity="1.0" stroke-linecap="round" stroke-linejoin="round"/>
  </g>
</svg>
