<?xml version="1.0" ?>
<svg xmlns="http://www.w3.org/2000/svg" version="1.1" width="224" height="224">
  <defs/>
  <g>
    <path d="M 77.20024871826172 108.63911437988281 C 90.0456771850586 131.09429931640625 79.53083801269531 120.82157135009766 75.51597595214844 120.0753402709961" stroke-width="3.0" fill="none" stroke="rgb(0, 0, 0)" stroke-opacity="1.0" stroke-linecap="round" stroke-linejoin="round"/>
    <path d="M 71.68596649169922 123.16582489013672 C 116.01423645019531 133.35812377929688 110.09008026123047 126.51033782958984 135.69789123535156 126.28877258300781" stroke-width="3.0" fill="none" stroke="rgb(0, 0, 0)" stroke-opacity="1.0" stroke-linecap="round" stroke-linejoin="round"/>
    <path d="M 165.1654815673828 96.361572265625 C 220.09825134277344 124.49320983886719 188.97268676757812 134.48687744140625 216.42015075683594 143.93894958496094" stroke-width="3.0" fill="none" stroke="rgb(0, 0, 0)" stroke-opacity="1.0" stroke-linecap="round" stroke-linejoin="round"/>
    <path d="M 46.27936935424805 71.8407974243164 C 53.243377685546875 156.26535034179688 67.74736785888672 76.58584594726562 35.39101791381836 158.60772705078125" stroke-width="3.0" fill="none" stroke="rgb(0, 0, 0)" stroke-opacity="1.0" stroke-linecap="round" stroke-linejoin="round"/>
    <path d="M 110.65608215332031 86.73226165771484 C 138.337890625 89.41419219970703 152.16200256347656 79.91475677490234 172.58934020996094 105.74667358398438" stroke-width="3.0" fill="none" stroke="rgb(0, 0, 0)" stroke-opacity="1.0" stroke-linecap="round" stroke-linejoin="round"/>
    <path d="M 135.38815307617188 126.03536224365234 C 133.16262817382812 126.62528228759766 139.95362854003906 129.14785766601562 135.52090454101562 124.13139343261719" stroke-width="3.0" fill="none" stroke="rgb(0, 0, 0)" stroke-opacity="1.0" stroke-linecap="round" stroke-linejoin="round"/>
    <path d="M 78.3382568359375 123.65362548828125 C 91.44139862060547 106.28302001953125 60.20800018310547 128.76686096191406 81.2790298461914 118.64019775390625" stroke-width="3.0" fill="none" stroke="rgb(0, 0, 0)" stroke-opacity="1.0" stroke-linecap="round" stroke-linejoin="round"/>
    <path d="M 141.0396270751953 128.400390625 C 118.25263977050781 174.30271911621094 142.26156616210938 154.7267303466797 98.55186462402344 183.82032775878906" stroke-width="3.0" fill="none" stroke="rgb(0, 0, 0)" stroke-opacity="1.0" stroke-linecap="round" stroke-linejoin="round"/>
    <path d="M 54.49544906616211 125.83818817138672 C -10.201910018920898 181.5628204345703 63.68706130981445 148.3808135986328 16.193023681640625 167.98883056640625" stroke-width="3.0" fill="none" stroke="rgb(0, 0, 0)" stroke-opacity="1.0" stroke-linecap="round" stroke-linejoin="round"/>
    <path d="M 32.8789176940918 40.64714431762695 C 120.60930633544922 91.79249572753906 45.92681884765625 71.00627899169922 112.14344024658203 87.12516784667969" stroke-width="3.0" fill="none" stroke="rgb(0, 0, 0)" stroke-opacity="1.0" stroke-linecap="round" stroke-linejoin="round"/>
    <path d="M 130.46498107910156 162.49905395507812 C 155.08438110351562 115.98956298828125 149.69471740722656 156.91073608398438 181.85121154785156 107.24291229248047" stroke-width="3.0" fill="none" stroke="rgb(0, 0, 0)" stroke-opacity="1.0" stroke-linecap="round" stroke-linejoin="round"/>
    <path d="M 33.69668197631836 157.1980743408203 C 71.9336166381836 115.0554428100586 60.926856994628906 140.51133728027344 70.35526275634766 114.75524139404297" stroke-width="3.0" fill="none" stroke="rgb(0, 0, 0)" stroke-opacity="1.0" stroke-linecap="round" stroke-linejoin="round"/>
    <path d="M 155.0298309326172 121.1642074584961 C 144.3587188720703 126.2492904663086 146.13600158691406 118.66497802734375 128.69607543945312 126.00080108642578" stroke-width="3.0" fill="none" stroke="rgb(0, 0, 0)" stroke-opacity="1.0" stroke-linecap="round" stroke-linejoin="round"/>
    <path d="M 174.16796875 110.24165344238281 C 169.28976440429688 226.10899353027344 139.3394775390625 181.52215576171875 162.27923583984375 188.95948791503906" stroke-width="3.0" fill="none" stroke="rgb(0, 0, 0)" stroke-opacity="1.0" stroke-linecap="round" stroke-linejoin="round"/>
    <path d="M 15.066018104553223 76.46714782714844 C 61.877052307128906 12.410945892333984 -12.034625053405762 78.5304183959961 52.32340621948242 41.90468978881836" stroke-width="3.0" fill="none" stroke="rgb(0, 0, 0)" stroke-opacity="1.0" stroke-linecap="round" stroke-linejoin="round"/>
    <path d="M 86.06908416748047 72.1190414428711 C 49.3845329284668 29.614013671875 -10.460177421569824 39.01083755493164 79.68450927734375 56.682350158691406" stroke-width="3.0" fill="none" stroke="rgb(0, 0, 0)" stroke-opacity="1.0" stroke-linecap="round" stroke-linejoin="round"/>
  </g>
</svg>
