<?xml version="1.0" ?>
<svg xmlns="http://www.w3.org/2000/svg" version="1.1" width="224" height="224">
  <defs/>
  <g>
    <path d="M 81.67253112792969 113.07533264160156 C 92.8572006225586 130.2818603515625 85.25569915771484 122.4246826171875 79.27783966064453 122.53451538085938" stroke-width="3.0" fill="none" stroke="rgb(0, 0, 0)" stroke-opacity="1.0" stroke-linecap="round" stroke-linejoin="round"/>
    <path d="M 77.84696960449219 124.10692596435547 C 118.8808364868164 135.02293395996094 110.21100616455078 125.4703369140625 142.81430053710938 120.88192749023438" stroke-width="3.0" fill="none" stroke="rgb(0, 0, 0)" stroke-opacity="1.0" stroke-linecap="round" stroke-linejoin="round"/>
    <path d="M 159.68702697753906 93.52091979980469 C 225.30262756347656 123.94098663330078 192.13136291503906 131.32801818847656 215.6825408935547 144.88836669921875" stroke-width="3.0" fill="none" stroke="rgb(0, 0, 0)" stroke-opacity="1.0" stroke-linecap="round" stroke-linejoin="round"/>
    <path d="M 58.596580505371094 60.06489181518555 C 43.18781661987305 158.12197875976562 79.87821960449219 81.48731994628906 36.15359115600586 156.6030731201172" stroke-width="3.0" fill="none" stroke="rgb(0, 0, 0)" stroke-opacity="1.0" stroke-linecap="round" stroke-linejoin="round"/>
    <path d="M 123.36686706542969 88.8670654296875 C 136.5161895751953 88.79214477539062 153.85243225097656 79.8083724975586 171.2581329345703 104.95789337158203" stroke-width="3.0" fill="none" stroke="rgb(0, 0, 0)" stroke-opacity="1.0" stroke-linecap="round" stroke-linejoin="round"/>
    <path d="M 148.1659698486328 128.1993865966797 C 134.9462127685547 131.22906494140625 133.83279418945312 131.7410430908203 138.2569122314453 123.10633087158203" stroke-width="3.0" fill="none" stroke="rgb(0, 0, 0)" stroke-opacity="1.0" stroke-linecap="round" stroke-linejoin="round"/>
    <path d="M 80.2763442993164 120.0385513305664 C 91.15692138671875 109.20316314697266 63.12181091308594 130.6881866455078 83.49551391601562 120.4794921875" stroke-width="3.0" fill="none" stroke="rgb(0, 0, 0)" stroke-opacity="1.0" stroke-linecap="round" stroke-linejoin="round"/>
    <path d="M 137.3455810546875 128.73451232910156 C 122.17961883544922 176.02496337890625 141.33859252929688 156.09791564941406 98.364013671875 183.91583251953125" stroke-width="3.0" fill="none" stroke="rgb(0, 0, 0)" stroke-opacity="1.0" stroke-linecap="round" stroke-linejoin="round"/>
    <path d="M 55.2679328918457 126.26187133789062 C -3.2205758094787598 172.35113525390625 56.05984878540039 155.29969787597656 17.049589157104492 168.52293395996094" stroke-width="3.0" fill="none" stroke="rgb(0, 0, 0)" stroke-opacity="1.0" stroke-linecap="round" stroke-linejoin="round"/>
    <path d="M 46.12936782836914 40.478275299072266 C 122.10668182373047 85.56576538085938 49.916709899902344 74.87489318847656 124.11670684814453 89.65182495117188" stroke-width="3.0" fill="none" stroke="rgb(0, 0, 0)" stroke-opacity="1.0" stroke-linecap="round" stroke-linejoin="round"/>
    <path d="M 133.70260620117188 160.5494842529297 C 153.05271911621094 115.96585083007812 152.1320343017578 152.73724365234375 182.0052947998047 107.8440933227539" stroke-width="3.0" fill="none" stroke="rgb(0, 0, 0)" stroke-opacity="1.0" stroke-linecap="round" stroke-linejoin="round"/>
    <path d="M 32.2719841003418 153.26858520507812 C 76.60379028320312 116.1065673828125 59.38051986694336 140.31716918945312 74.36465454101562 116.42288970947266" stroke-width="3.0" fill="none" stroke="rgb(0, 0, 0)" stroke-opacity="1.0" stroke-linecap="round" stroke-linejoin="round"/>
    <path d="M 152.6639862060547 116.82172393798828 C 135.333984375 129.8622589111328 135.31333923339844 123.36451721191406 135.48582458496094 126.47844696044922" stroke-width="3.0" fill="none" stroke="rgb(0, 0, 0)" stroke-opacity="1.0" stroke-linecap="round" stroke-linejoin="round"/>
    <path d="M 175.8994598388672 108.77759552001953 C 170.6356964111328 223.87754821777344 129.28709411621094 182.84730529785156 162.67494201660156 184.36253356933594" stroke-width="3.0" fill="none" stroke="rgb(0, 0, 0)" stroke-opacity="1.0" stroke-linecap="round" stroke-linejoin="round"/>
    <path d="M 12.952866554260254 76.2604751586914 C 77.39271545410156 17.500986099243164 -12.73803997039795 70.96247100830078 67.61469268798828 42.92140197753906" stroke-width="3.0" fill="none" stroke="rgb(0, 0, 0)" stroke-opacity="1.0" stroke-linecap="round" stroke-linejoin="round"/>
    <path d="M 90.40201568603516 67.4866714477539 C 48.181461334228516 33.288604736328125 -6.061835765838623 36.4220085144043 84.17412567138672 56.19384002685547" stroke-width="3.0" fill="none" stroke="rgb(0, 0, 0)" stroke-opacity="1.0" stroke-linecap="round" stroke-linejoin="round"/>
  </g>
</svg>
