<?xml version="1.0" ?>
<svg xmlns="http://www.w3.org/2000/svg" version="1.1" width="224" height="224">
  <defs/>
  <g>
    <path d="M 78.79158782958984 107.24368286132812 C 88.39523315429688 132.46888732910156 79.40772247314453 117.46041107177734 78.32964324951172 122.73789978027344" stroke-width="3.0" fill="none" stroke="rgb(0, 0, 0)" stroke-opacity="1.0" stroke-linecap="round" stroke-linejoin="round"/>
    <path d="M 73.56279754638672 123.97733306884766 C 111.21581268310547 136.12890625 113.22726440429688 126.83784484863281 134.72377014160156 128.2701873779297" stroke-width="3.0" fill="none" stroke="rgb(0, 0, 0)" stroke-opacity="1.0" stroke-linecap="round" stroke-linejoin="round"/>
    <path d="M 170.16213989257812 97.71089935302734 C 218.6197509765625 115.9405517578125 193.4786376953125 136.96627807617188 215.62950134277344 142.56365966796875" stroke-width="3.0" fill="none" stroke="rgb(0, 0, 0)" stroke-opacity="1.0" stroke-linecap="round" stroke-linejoin="round"/>
    <path d="M 47.40807342529297 58.931793212890625 C 64.50557708740234 157.1555938720703 51.0457763671875 89.35799407958984 33.10015869140625 149.028564453125" stroke-width="3.0" fill="none" stroke="rgb(0, 0, 0)" stroke-opacity="1.0" stroke-linecap="round" stroke-linejoin="round"/>
    <path d="M 104.19048309326172 86.10252380371094 C 138.8506317138672 92.04377746582031 144.21002197265625 74.70281219482422 177.39523315429688 103.62162780761719" stroke-width="3.0" fill="none" stroke="rgb(0, 0, 0)" stroke-opacity="1.0" stroke-linecap="round" stroke-linejoin="round"/>
    <path d="M 136.87648010253906 126.91355895996094 C 138.25592041015625 136.0078582763672 138.5083465576172 121.69772338867188 125.77781677246094 128.32325744628906" stroke-width="3.0" fill="none" stroke="rgb(0, 0, 0)" stroke-opacity="1.0" stroke-linecap="round" stroke-linejoin="round"/>
    <path d="M 72.20193481445312 121.56421661376953 C 90.97280883789062 104.78471374511719 66.48757934570312 134.30767822265625 80.2244873046875 120.0013427734375" stroke-width="3.0" fill="none" stroke="rgb(0, 0, 0)" stroke-opacity="1.0" stroke-linecap="round" stroke-linejoin="round"/>
    <path d="M 142.17245483398438 128.35482788085938 C 116.11876678466797 174.6019744873047 142.85775756835938 157.5576171875 99.08213806152344 183.8871307373047" stroke-width="3.0" fill="none" stroke="rgb(0, 0, 0)" stroke-opacity="1.0" stroke-linecap="round" stroke-linejoin="round"/>
    <path d="M 50.083980560302734 129.12049865722656 C -13.5111665725708 209.9687042236328 67.2280502319336 129.84214782714844 12.850829124450684 166.77882385253906" stroke-width="3.0" fill="none" stroke="rgb(0, 0, 0)" stroke-opacity="1.0" stroke-linecap="round" stroke-linejoin="round"/>
    <path d="M 33.584251403808594 36.55241775512695 C 103.82001495361328 73.38550567626953 56.06044006347656 69.82170104980469 109.73562622070312 86.53056335449219" stroke-width="3.0" fill="none" stroke="rgb(0, 0, 0)" stroke-opacity="1.0" stroke-linecap="round" stroke-linejoin="round"/>
    <path d="M 130.35830688476562 163.21322631835938 C 152.9877471923828 114.22566223144531 147.3814239501953 158.5614471435547 181.24636840820312 107.39734649658203" stroke-width="3.0" fill="none" stroke="rgb(0, 0, 0)" stroke-opacity="1.0" stroke-linecap="round" stroke-linejoin="round"/>
    <path d="M 37.05983352661133 158.36734008789062 C 57.96977615356445 113.49386596679688 46.51569747924805 145.52420043945312 78.79180908203125 113.39961242675781" stroke-width="3.0" fill="none" stroke="rgb(0, 0, 0)" stroke-opacity="1.0" stroke-linecap="round" stroke-linejoin="round"/>
    <path d="M 158.45123291015625 119.11040496826172 C 136.58010864257812 131.36070251464844 159.7664794921875 118.6180648803711 104.97828674316406 131.30691528320312" stroke-width="3.0" fill="none" stroke="rgb(0, 0, 0)" stroke-opacity="1.0" stroke-linecap="round" stroke-linejoin="round"/>
    <path d="M 174.25424194335938 107.09008026123047 C 164.84889221191406 226.0282440185547 137.84451293945312 178.24200439453125 160.96905517578125 188.88755798339844" stroke-width="3.0" fill="none" stroke="rgb(0, 0, 0)" stroke-opacity="1.0" stroke-linecap="round" stroke-linejoin="round"/>
    <path d="M 17.5961856842041 77.7500991821289 C 65.810546875 10.640585899353027 -8.220510482788086 89.77274322509766 59.47517013549805 37.52287292480469" stroke-width="3.0" fill="none" stroke="rgb(0, 0, 0)" stroke-opacity="1.0" stroke-linecap="round" stroke-linejoin="round"/>
    <path d="M 92.8105697631836 78.70948791503906 C 83.47781372070312 17.11724281311035 -24.933664321899414 43.366798400878906 82.82252502441406 51.88157653808594" stroke-width="3.0" fill="none" stroke="rgb(0, 0, 0)" stroke-opacity="1.0" stroke-linecap="round" stroke-linejoin="round"/>
  </g>
</svg>
