<?xml version="1.0" ?>
<svg xmlns="http://www.w3.org/2000/svg" version="1.1" width="224" height="224">
  <defs/>
  <g>
    <path d="M 77.85050201416016 106.96063995361328 C 91.1740951538086 134.0327911376953 82.04703521728516 120.97563934326172 78.09847259521484 124.4839096069336" stroke-width="3.0" fill="none" stroke="rgb(0, 0, 0)" stroke-opacity="1.0" stroke-linecap="round" stroke-linejoin="round"/>
    <path d="M 74.64933013916016 123.27558898925781 C 109.36172485351562 134.7197723388672 113.34832763671875 126.80197143554688 133.2695770263672 128.50782775878906" stroke-width="3.0" fill="none" stroke="rgb(0, 0, 0)" stroke-opacity="1.0" stroke-linecap="round" stroke-linejoin="round"/>
    <path d="M 170.739990234375 101.89529418945312 C 224.07928466796875 113.87727355957031 194.95274353027344 135.39022827148438 216.04769897460938 143.6184539794922" stroke-width="3.0" fill="none" stroke="rgb(0, 0, 0)" stroke-opacity="1.0" stroke-linecap="round" stroke-linejoin="round"/>
    <path d="M 49.180824279785156 58.76215362548828 C 56.620628356933594 159.28004455566406 55.52261734008789 88.28907775878906 34.9573974609375 150.43492126464844" stroke-width="3.0" fill="none" stroke="rgb(0, 0, 0)" stroke-opacity="1.0" stroke-linecap="round" stroke-linejoin="round"/>
    <path d="M 103.79541778564453 88.39833068847656 C 137.93942260742188 97.1972885131836 142.7108154296875 80.47453308105469 174.89212036132812 102.74128723144531" stroke-width="3.0" fill="none" stroke="rgb(0, 0, 0)" stroke-opacity="1.0" stroke-linecap="round" stroke-linejoin="round"/>
    <path d="M 129.42440795898438 128.76303100585938 C 141.85696411132812 132.49346923828125 145.22406005859375 121.41229248046875 122.97838592529297 128.56016540527344" stroke-width="3.0" fill="none" stroke="rgb(0, 0, 0)" stroke-opacity="1.0" stroke-linecap="round" stroke-linejoin="round"/>
    <path d="M 76.5058364868164 123.6323471069336 C 90.27837371826172 103.93094635009766 67.90234375 135.02537536621094 81.89727783203125 120.45824432373047" stroke-width="3.0" fill="none" stroke="rgb(0, 0, 0)" stroke-opacity="1.0" stroke-linecap="round" stroke-linejoin="round"/>
    <path d="M 142.8089599609375 128.50405883789062 C 118.68229675292969 176.53912353515625 140.65953063964844 156.99176025390625 98.87797546386719 185.1667022705078" stroke-width="3.0" fill="none" stroke="rgb(0, 0, 0)" stroke-opacity="1.0" stroke-linecap="round" stroke-linejoin="round"/>
    <path d="M 52.7899284362793 129.07676696777344 C -14.373931884765625 207.96624755859375 67.12296295166016 132.89724731445312 15.764646530151367 166.4022979736328" stroke-width="3.0" fill="none" stroke="rgb(0, 0, 0)" stroke-opacity="1.0" stroke-linecap="round" stroke-linejoin="round"/>
    <path d="M 33.93467330932617 40.01061248779297 C 111.04118347167969 68.86132049560547 57.51993942260742 68.53683471679688 106.3552474975586 89.09127044677734" stroke-width="3.0" fill="none" stroke="rgb(0, 0, 0)" stroke-opacity="1.0" stroke-linecap="round" stroke-linejoin="round"/>
    <path d="M 130.38165283203125 163.08145141601562 C 155.14205932617188 115.05731201171875 149.55575561523438 156.973876953125 180.3957061767578 106.37273406982422" stroke-width="3.0" fill="none" stroke="rgb(0, 0, 0)" stroke-opacity="1.0" stroke-linecap="round" stroke-linejoin="round"/>
    <path d="M 39.22787094116211 158.67311096191406 C 58.765987396240234 119.14344787597656 49.193145751953125 150.0684356689453 80.35411071777344 113.81909942626953" stroke-width="3.0" fill="none" stroke="rgb(0, 0, 0)" stroke-opacity="1.0" stroke-linecap="round" stroke-linejoin="round"/>
    <path d="M 155.17312622070312 117.93844604492188 C 137.1450653076172 129.99314880371094 163.0377655029297 116.05968475341797 107.19522094726562 129.3256378173828" stroke-width="3.0" fill="none" stroke="rgb(0, 0, 0)" stroke-opacity="1.0" stroke-linecap="round" stroke-linejoin="round"/>
    <path d="M 170.43174743652344 108.00080108642578 C 164.25027465820312 229.513427734375 137.410400390625 178.67918395996094 161.9430694580078 187.27462768554688" stroke-width="3.0" fill="none" stroke="rgb(0, 0, 0)" stroke-opacity="1.0" stroke-linecap="round" stroke-linejoin="round"/>
    <path d="M 14.070147514343262 75.32022857666016 C 65.32752990722656 14.469267845153809 -9.644806861877441 88.11878204345703 52.24267578125 39.58049774169922" stroke-width="3.0" fill="none" stroke="rgb(0, 0, 0)" stroke-opacity="1.0" stroke-linecap="round" stroke-linejoin="round"/>
    <path d="M 90.78279876708984 81.63854217529297 C 78.46559143066406 21.32541847229004 -29.30451011657715 49.34281921386719 83.34058380126953 55.01442337036133" stroke-width="3.0" fill="none" stroke="rgb(0, 0, 0)" stroke-opacity="1.0" stroke-linecap="round" stroke-linejoin="round"/>
  </g>
</svg>
