<?xml version="1.0" ?>
<svg xmlns="http://www.w3.org/2000/svg" version="1.1" width="224" height="224">
  <defs/>
  <g>
    <path d="M 110.21146392822266 118.78474426269531 C 111.99784851074219 114.88739776611328 103.81379699707031 117.14517211914062 97.466796875 110.49732971191406" stroke-width="3.0" fill="none" stroke="rgb(0, 0, 0)" stroke-opacity="1.0" stroke-linecap="round" stroke-linejoin="round"/>
    <path d="M 91.03630828857422 131.49349975585938 C 104.90487670898438 125.76333618164062 104.53773498535156 136.7752227783203 134.24964904785156 113.5508041381836" stroke-width="3.0" fill="none" stroke="rgb(0, 0, 0)" stroke-opacity="1.0" stroke-linecap="round" stroke-linejoin="round"/>
    <path d="M 159.80233764648438 94.80180358886719 C 220.70870971679688 112.65167236328125 191.06503295898438 135.4199676513672 214.46409606933594 141.68423461914062" stroke-width="3.0" fill="none" stroke="rgb(0, 0, 0)" stroke-opacity="1.0" stroke-linecap="round" stroke-linejoin="round"/>
    <path d="M 44.89828872680664 93.01898193359375 C 45.321327209472656 124.26912689208984 62.74407958984375 111.56689453125 57.67580032348633 131.37570190429688" stroke-width="3.0" fill="none" stroke="rgb(0, 0, 0)" stroke-opacity="1.0" stroke-linecap="round" stroke-linejoin="round"/>
    <path d="M 142.04656982421875 90.01406860351562 C 157.71473693847656 92.1407470703125 143.88201904296875 85.87017059326172 159.1653289794922 95.48434448242188" stroke-width="3.0" fill="none" stroke="rgb(0, 0, 0)" stroke-opacity="1.0" stroke-linecap="round" stroke-linejoin="round"/>
    <path d="M 138.15145874023438 104.82415771484375 C 124.0372543334961 123.4514389038086 110.47598266601562 118.77537536621094 123.22809600830078 118.61901092529297" stroke-width="3.0" fill="none" stroke="rgb(0, 0, 0)" stroke-opacity="1.0" stroke-linecap="round" stroke-linejoin="round"/>
    <path d="M 97.50333404541016 110.80616760253906 C 82.23099517822266 113.95401000976562 81.54009246826172 112.1119155883789 81.33734893798828 118.97659301757812" stroke-width="3.0" fill="none" stroke="rgb(0, 0, 0)" stroke-opacity="1.0" stroke-linecap="round" stroke-linejoin="round"/>
    <path d="M 126.21640014648438 137.89859008789062 C 132.1549530029297 168.71607971191406 135.5716552734375 154.56980895996094 99.12750244140625 184.97882080078125" stroke-width="3.0" fill="none" stroke="rgb(0, 0, 0)" stroke-opacity="1.0" stroke-linecap="round" stroke-linejoin="round"/>
    <path d="M 45.665382385253906 149.56822204589844 C 29.369089126586914 169.66761779785156 60.4792594909668 140.64198303222656 11.460466384887695 166.88662719726562" stroke-width="3.0" fill="none" stroke="rgb(0, 0, 0)" stroke-opacity="1.0" stroke-linecap="round" stroke-linejoin="round"/>
    <path d="M 88.01387023925781 64.4038314819336 C 104.18392181396484 85.64981079101562 110.02757263183594 85.44527435302734 122.05895233154297 91.90262603759766" stroke-width="3.0" fill="none" stroke="rgb(0, 0, 0)" stroke-opacity="1.0" stroke-linecap="round" stroke-linejoin="round"/>
    <path d="M 129.55615234375 134.44403076171875 C 127.10641479492188 135.47869873046875 148.6420135498047 135.59556579589844 168.61666870117188 127.724609375" stroke-width="3.0" fill="none" stroke="rgb(0, 0, 0)" stroke-opacity="1.0" stroke-linecap="round" stroke-linejoin="round"/>
    <path d="M 67.75822448730469 133.20384216308594 C 85.64356231689453 111.14918518066406 74.69872283935547 115.45330047607422 95.3369369506836 110.65985870361328" stroke-width="3.0" fill="none" stroke="rgb(0, 0, 0)" stroke-opacity="1.0" stroke-linecap="round" stroke-linejoin="round"/>
    <path d="M 142.45919799804688 96.97467041015625 C 136.7181396484375 109.92655181884766 134.04269409179688 105.59532928466797 133.05503845214844 115.82592010498047" stroke-width="3.0" fill="none" stroke="rgb(0, 0, 0)" stroke-opacity="1.0" stroke-linecap="round" stroke-linejoin="round"/>
    <path d="M 155.25726318359375 136.38653564453125 C 184.46665954589844 161.9567413330078 142.1356201171875 197.2042694091797 164.55519104003906 191.8092803955078" stroke-width="3.0" fill="none" stroke="rgb(0, 0, 0)" stroke-opacity="1.0" stroke-linecap="round" stroke-linejoin="round"/>
    <path d="M 23.10291290283203 50.94889831542969 C 62.85560607910156 27.298751831054688 49.64463424682617 62.56509017944336 73.00843048095703 37.39115905761719" stroke-width="3.0" fill="none" stroke="rgb(0, 0, 0)" stroke-opacity="1.0" stroke-linecap="round" stroke-linejoin="round"/>
    <path d="M 96.3572769165039 65.52819061279297 C 70.96469116210938 48.03229522705078 47.91392135620117 61.54506301879883 73.75870513916016 46.7061767578125" stroke-width="3.0" fill="none" stroke="rgb(0, 0, 0)" stroke-opacity="1.0" stroke-linecap="round" stroke-linejoin="round"/>
  </g>
</svg>
