<?xml version="1.0" ?>
<svg xmlns="http://www.w3.org/2000/svg" version="1.1" width="224" height="224">
  <defs/>
  <g>
    <path d="M 102.9989013671875 107.67911529541016 C 107.49639129638672 103.29708862304688 114.61419677734375 107.96182250976562 96.60408782958984 103.09284973144531" stroke-width="3.0" fill="none" stroke="rgb(0, 0, 0)" stroke-opacity="1.0" stroke-linecap="round" stroke-linejoin="round"/>
    <path d="M 96.7873764038086 134.68023681640625 C 113.51131439208984 115.00994873046875 95.1395492553711 133.87730407714844 130.86741638183594 124.57617950439453" stroke-width="3.0" fill="none" stroke="rgb(0, 0, 0)" stroke-opacity="1.0" stroke-linecap="round" stroke-linejoin="round"/>
    <path d="M 174.38133239746094 105.5190658569336 C 192.7501678466797 117.0352554321289 183.720458984375 109.42073822021484 212.99546813964844 144.94326782226562" stroke-width="3.0" fill="none" stroke="rgb(0, 0, 0)" stroke-opacity="1.0" stroke-linecap="round" stroke-linejoin="round"/>
    <path d="M 42.480247497558594 94.44092559814453 C 53.021419525146484 113.30935668945312 57.24443054199219 104.83427429199219 62.30560302734375 119.92748260498047" stroke-width="3.0" fill="none" stroke="rgb(0, 0, 0)" stroke-opacity="1.0" stroke-linecap="round" stroke-linejoin="round"/>
    <path d="M 142.1278076171875 89.52645874023438 C 147.9480438232422 90.31970977783203 142.52667236328125 91.71199035644531 151.20152282714844 94.6878662109375" stroke-width="3.0" fill="none" stroke="rgb(0, 0, 0)" stroke-opacity="1.0" stroke-linecap="round" stroke-linejoin="round"/>
    <path d="M 135.50311279296875 112.76144409179688 C 127.95775604248047 123.48992919921875 118.69063568115234 126.78826904296875 131.4276580810547 119.17045593261719" stroke-width="3.0" fill="none" stroke="rgb(0, 0, 0)" stroke-opacity="1.0" stroke-linecap="round" stroke-linejoin="round"/>
    <path d="M 86.4407730102539 105.8886489868164 C 89.10592651367188 96.64048767089844 90.68896484375 100.32362365722656 82.16841888427734 111.4386978149414" stroke-width="3.0" fill="none" stroke="rgb(0, 0, 0)" stroke-opacity="1.0" stroke-linecap="round" stroke-linejoin="round"/>
    <path d="M 125.97002410888672 133.3706512451172 C 133.77496337890625 165.73133850097656 135.768310546875 149.32638549804688 105.02527618408203 182.28836059570312" stroke-width="3.0" fill="none" stroke="rgb(0, 0, 0)" stroke-opacity="1.0" stroke-linecap="round" stroke-linejoin="round"/>
    <path d="M 45.27596664428711 156.0042724609375 C 31.282352447509766 166.72601318359375 51.09297180175781 146.6786346435547 14.30087661743164 170.8622283935547" stroke-width="3.0" fill="none" stroke="rgb(0, 0, 0)" stroke-opacity="1.0" stroke-linecap="round" stroke-linejoin="round"/>
    <path d="M 100.22515869140625 83.43502044677734 C 108.67064666748047 85.8095703125 107.91045379638672 86.1292953491211 113.0711669921875 85.84467315673828" stroke-width="3.0" fill="none" stroke="rgb(0, 0, 0)" stroke-opacity="1.0" stroke-linecap="round" stroke-linejoin="round"/>
    <path d="M 132.5045623779297 132.6507110595703 C 132.24525451660156 134.80218505859375 147.96661376953125 143.0182342529297 162.60836791992188 131.9539337158203" stroke-width="3.0" fill="none" stroke="rgb(0, 0, 0)" stroke-opacity="1.0" stroke-linecap="round" stroke-linejoin="round"/>
    <path d="M 73.60126495361328 117.26870727539062 C 91.20470428466797 107.80382537841797 90.7703857421875 97.426025390625 91.62642669677734 106.49867248535156" stroke-width="3.0" fill="none" stroke="rgb(0, 0, 0)" stroke-opacity="1.0" stroke-linecap="round" stroke-linejoin="round"/>
    <path d="M 134.73468017578125 100.541015625 C 133.98489379882812 106.25199127197266 134.1580047607422 103.343505859375 134.94766235351562 112.7391357421875" stroke-width="3.0" fill="none" stroke="rgb(0, 0, 0)" stroke-opacity="1.0" stroke-linecap="round" stroke-linejoin="round"/>
    <path d="M 149.8435821533203 136.250732421875 C 175.70274353027344 139.97459411621094 156.38943481445312 167.48936462402344 168.07626342773438 184.2989959716797" stroke-width="3.0" fill="none" stroke="rgb(0, 0, 0)" stroke-opacity="1.0" stroke-linecap="round" stroke-linejoin="round"/>
    <path d="M 21.653358459472656 41.74762725830078 C 45.29848861694336 37.37301254272461 69.42168426513672 52.875457763671875 72.78510284423828 40.19662857055664" stroke-width="3.0" fill="none" stroke="rgb(0, 0, 0)" stroke-opacity="1.0" stroke-linecap="round" stroke-linejoin="round"/>
    <path d="M 88.38495635986328 63.24818420410156 C 79.16859436035156 53.41817855834961 80.76165771484375 60.63916015625 72.88253784179688 53.31958770751953" stroke-width="3.0" fill="none" stroke="rgb(0, 0, 0)" stroke-opacity="1.0" stroke-linecap="round" stroke-linejoin="round"/>
  </g>
</svg>
