<?xml version="1.0" ?>
<svg xmlns="http://www.w3.org/2000/svg" version="1.1" width="224" height="224">
  <defs/>
  <g>
    <path d="M 81.94926452636719 118.25586700439453 C 90.59601593017578 129.66415405273438 80.86295318603516 123.6229476928711 79.03046417236328 119.42799377441406" stroke-width="3.0" fill="none" stroke="rgb(0, 0, 0)" stroke-opacity="1.0" stroke-linecap="round" stroke-linejoin="round"/>
    <path d="M 76.05885314941406 122.32889556884766 C 114.35652923583984 132.75428771972656 111.4112777709961 125.23392486572266 142.42176818847656 121.35649871826172" stroke-width="3.0" fill="none" stroke="rgb(0, 0, 0)" stroke-opacity="1.0" stroke-linecap="round" stroke-linejoin="round"/>
    <path d="M 154.87298583984375 91.708984375 C 224.46469116210938 123.44230651855469 187.36900329589844 132.72286987304688 212.88800048828125 143.15232849121094" stroke-width="3.0" fill="none" stroke="rgb(0, 0, 0)" stroke-opacity="1.0" stroke-linecap="round" stroke-linejoin="round"/>
    <path d="M 54.66157150268555 61.484493255615234 C 38.75336456298828 161.19691467285156 74.35913848876953 81.92002868652344 34.444252014160156 156.11595153808594" stroke-width="3.0" fill="none" stroke="rgb(0, 0, 0)" stroke-opacity="1.0" stroke-linecap="round" stroke-linejoin="round"/>
    <path d="M 122.0818862915039 89.62855529785156 C 135.744384765625 90.40293884277344 155.2528076171875 81.98313903808594 172.36778259277344 105.18157958984375" stroke-width="3.0" fill="none" stroke="rgb(0, 0, 0)" stroke-opacity="1.0" stroke-linecap="round" stroke-linejoin="round"/>
    <path d="M 155.4007568359375 126.77852630615234 C 145.15733337402344 129.136474609375 129.9090576171875 123.70767211914062 137.17311096191406 123.79988861083984" stroke-width="3.0" fill="none" stroke="rgb(0, 0, 0)" stroke-opacity="1.0" stroke-linecap="round" stroke-linejoin="round"/>
    <path d="M 77.17355346679688 119.89112091064453 C 93.27700805664062 115.69542694091797 67.63677978515625 133.92803955078125 81.14418029785156 112.7075424194336" stroke-width="3.0" fill="none" stroke="rgb(0, 0, 0)" stroke-opacity="1.0" stroke-linecap="round" stroke-linejoin="round"/>
    <path d="M 137.9674530029297 125.6798324584961 C 126.12910461425781 177.75408935546875 139.1578826904297 156.3766326904297 97.92646789550781 184.634521484375" stroke-width="3.0" fill="none" stroke="rgb(0, 0, 0)" stroke-opacity="1.0" stroke-linecap="round" stroke-linejoin="round"/>
    <path d="M 54.43092346191406 127.79724884033203 C -1.6141726970672607 172.3816375732422 54.65925598144531 150.88333129882812 15.533260345458984 169.8533477783203" stroke-width="3.0" fill="none" stroke="rgb(0, 0, 0)" stroke-opacity="1.0" stroke-linecap="round" stroke-linejoin="round"/>
    <path d="M 42.77971267700195 43.0411376953125 C 116.14954376220703 87.18975067138672 56.94280242919922 76.26934814453125 124.26319885253906 88.91649627685547" stroke-width="3.0" fill="none" stroke="rgb(0, 0, 0)" stroke-opacity="1.0" stroke-linecap="round" stroke-linejoin="round"/>
    <path d="M 134.37306213378906 158.19461059570312 C 150.25228881835938 117.035400390625 149.77914428710938 154.9019012451172 181.77255249023438 109.20529174804688" stroke-width="3.0" fill="none" stroke="rgb(0, 0, 0)" stroke-opacity="1.0" stroke-linecap="round" stroke-linejoin="round"/>
    <path d="M 32.955230712890625 151.18678283691406 C 70.64588165283203 115.03130340576172 62.736061096191406 147.3258819580078 72.93232727050781 115.15768432617188" stroke-width="3.0" fill="none" stroke="rgb(0, 0, 0)" stroke-opacity="1.0" stroke-linecap="round" stroke-linejoin="round"/>
    <path d="M 149.49534606933594 117.00395202636719 C 132.99658203125 127.85478210449219 135.71551513671875 129.317626953125 135.10943603515625 134.94699096679688" stroke-width="3.0" fill="none" stroke="rgb(0, 0, 0)" stroke-opacity="1.0" stroke-linecap="round" stroke-linejoin="round"/>
    <path d="M 175.85105895996094 108.97798919677734 C 172.17056274414062 197.50613403320312 132.74859619140625 206.7683868408203 159.8425750732422 189.3823699951172" stroke-width="3.0" fill="none" stroke="rgb(0, 0, 0)" stroke-opacity="1.0" stroke-linecap="round" stroke-linejoin="round"/>
    <path d="M 10.076099395751953 74.34891510009766 C 79.27066802978516 20.047407150268555 -22.938949584960938 80.00141143798828 70.12680053710938 49.24787521362305" stroke-width="3.0" fill="none" stroke="rgb(0, 0, 0)" stroke-opacity="1.0" stroke-linecap="round" stroke-linejoin="round"/>
    <path d="M 90.8069839477539 70.10848236083984 C 38.61201095581055 41.324371337890625 -3.5562098026275635 34.04047393798828 81.92247009277344 57.06214141845703" stroke-width="3.0" fill="none" stroke="rgb(0, 0, 0)" stroke-opacity="1.0" stroke-linecap="round" stroke-linejoin="round"/>
  </g>
</svg>
