<?xml version="1.0" ?>
<svg xmlns="http://www.w3.org/2000/svg" version="1.1" width="224" height="224">
  <defs/>
  <g>
    <path d="M 78.78070831298828 111.89899444580078 C 88.5963134765625 133.6937255859375 83.58136749267578 123.13307189941406 78.89225006103516 123.8200454711914" stroke-width="3.0" fill="none" stroke="rgb(0, 0, 0)" stroke-opacity="1.0" stroke-linecap="round" stroke-linejoin="round"/>
    <path d="M 74.37153625488281 123.53833770751953 C 113.35128021240234 137.08609008789062 113.04720306396484 126.73329162597656 132.5347137451172 129.37168884277344" stroke-width="3.0" fill="none" stroke="rgb(0, 0, 0)" stroke-opacity="1.0" stroke-linecap="round" stroke-linejoin="round"/>
    <path d="M 169.39459228515625 100.04253387451172 C 222.65814208984375 118.5427474975586 194.8903045654297 132.763427734375 217.4442138671875 141.11802673339844" stroke-width="3.0" fill="none" stroke="rgb(0, 0, 0)" stroke-opacity="1.0" stroke-linecap="round" stroke-linejoin="round"/>
    <path d="M 49.90507125854492 65.25364685058594 C 58.19406509399414 155.70143127441406 70.83877563476562 72.702392578125 39.38208770751953 157.27674865722656" stroke-width="3.0" fill="none" stroke="rgb(0, 0, 0)" stroke-opacity="1.0" stroke-linecap="round" stroke-linejoin="round"/>
    <path d="M 101.81005859375 83.15777587890625 C 136.19593811035156 92.881591796875 144.24505615234375 76.6805191040039 178.12583923339844 108.34771728515625" stroke-width="3.0" fill="none" stroke="rgb(0, 0, 0)" stroke-opacity="1.0" stroke-linecap="round" stroke-linejoin="round"/>
    <path d="M 129.8504638671875 128.80442810058594 C 140.96286010742188 127.74169921875 140.14364624023438 122.76653289794922 125.58671569824219 128.4803009033203" stroke-width="3.0" fill="none" stroke="rgb(0, 0, 0)" stroke-opacity="1.0" stroke-linecap="round" stroke-linejoin="round"/>
    <path d="M 78.73023986816406 119.96044921875 C 93.49102020263672 107.69405364990234 59.36748504638672 131.14439392089844 82.04737091064453 120.74470520019531" stroke-width="3.0" fill="none" stroke="rgb(0, 0, 0)" stroke-opacity="1.0" stroke-linecap="round" stroke-linejoin="round"/>
    <path d="M 142.70602416992188 128.28602600097656 C 117.37381744384766 177.02798461914062 140.42498779296875 156.26351928710938 98.29369354248047 184.30453491210938" stroke-width="3.0" fill="none" stroke="rgb(0, 0, 0)" stroke-opacity="1.0" stroke-linecap="round" stroke-linejoin="round"/>
    <path d="M 56.825439453125 120.74388885498047 C -6.849205017089844 187.03445434570312 72.0147476196289 150.72064208984375 17.211933135986328 169.15704345703125" stroke-width="3.0" fill="none" stroke="rgb(0, 0, 0)" stroke-opacity="1.0" stroke-linecap="round" stroke-linejoin="round"/>
    <path d="M 36.73332214355469 34.61853790283203 C 113.04743957519531 75.94145202636719 48.98481750488281 65.3083267211914 109.49288940429688 86.95448303222656" stroke-width="3.0" fill="none" stroke="rgb(0, 0, 0)" stroke-opacity="1.0" stroke-linecap="round" stroke-linejoin="round"/>
    <path d="M 130.37013244628906 162.5203094482422 C 154.7967071533203 116.81329345703125 151.28614807128906 154.8521728515625 181.28440856933594 107.51509857177734" stroke-width="3.0" fill="none" stroke="rgb(0, 0, 0)" stroke-opacity="1.0" stroke-linecap="round" stroke-linejoin="round"/>
    <path d="M 36.367027282714844 154.57151794433594 C 65.6773681640625 115.53971862792969 63.372093200683594 142.7904815673828 71.74076080322266 114.84010314941406" stroke-width="3.0" fill="none" stroke="rgb(0, 0, 0)" stroke-opacity="1.0" stroke-linecap="round" stroke-linejoin="round"/>
    <path d="M 152.5986328125 118.70964813232422 C 135.0800018310547 129.9394989013672 158.2216339111328 115.65501403808594 118.31352233886719 128.69403076171875" stroke-width="3.0" fill="none" stroke="rgb(0, 0, 0)" stroke-opacity="1.0" stroke-linecap="round" stroke-linejoin="round"/>
    <path d="M 176.00848388671875 107.13662719726562 C 166.6240997314453 228.78836059570312 136.36412048339844 179.35549926757812 163.2149658203125 188.0503692626953" stroke-width="3.0" fill="none" stroke="rgb(0, 0, 0)" stroke-opacity="1.0" stroke-linecap="round" stroke-linejoin="round"/>
    <path d="M 13.28173828125 74.75347900390625 C 63.866573333740234 17.305564880371094 -13.919682502746582 76.56570434570312 56.00213623046875 36.20318603515625" stroke-width="3.0" fill="none" stroke="rgb(0, 0, 0)" stroke-opacity="1.0" stroke-linecap="round" stroke-linejoin="round"/>
    <path d="M 93.89781951904297 75.18878936767578 C 74.03665161132812 24.79352378845215 -16.680988311767578 33.958465576171875 82.84941101074219 51.89737319946289" stroke-width="3.0" fill="none" stroke="rgb(0, 0, 0)" stroke-opacity="1.0" stroke-linecap="round" stroke-linejoin="round"/>
  </g>
</svg>
