<?xml version="1.0" ?>
<svg xmlns="http://www.w3.org/2000/svg" version="1.1" width="224" height="224">
  <defs/>
  <g>
    <path d="M 81.74321746826172 117.64991760253906 C 91.8728256225586 127.22477722167969 81.68297576904297 123.05370330810547 82.37059020996094 119.58932495117188" stroke-width="3.0" fill="none" stroke="rgb(0, 0, 0)" stroke-opacity="1.0" stroke-linecap="round" stroke-linejoin="round"/>
    <path d="M 75.61775970458984 122.76738739013672 C 109.95405578613281 133.96632385253906 111.84075164794922 124.85908508300781 137.87684631347656 124.47127532958984" stroke-width="3.0" fill="none" stroke="rgb(0, 0, 0)" stroke-opacity="1.0" stroke-linecap="round" stroke-linejoin="round"/>
    <path d="M 153.74977111816406 92.14828491210938 C 227.5994873046875 123.27935791015625 191.6981658935547 130.2698974609375 215.79525756835938 142.16331481933594" stroke-width="3.0" fill="none" stroke="rgb(0, 0, 0)" stroke-opacity="1.0" stroke-linecap="round" stroke-linejoin="round"/>
    <path d="M 55.6470947265625 69.73733520507812 C 42.80289840698242 153.76686096191406 75.1435546875 82.8386459350586 36.396995544433594 157.74790954589844" stroke-width="3.0" fill="none" stroke="rgb(0, 0, 0)" stroke-opacity="1.0" stroke-linecap="round" stroke-linejoin="round"/>
    <path d="M 123.16932678222656 89.47978210449219 C 139.07940673828125 90.2895736694336 152.20716857910156 81.93519592285156 171.99588012695312 105.87163543701172" stroke-width="3.0" fill="none" stroke="rgb(0, 0, 0)" stroke-opacity="1.0" stroke-linecap="round" stroke-linejoin="round"/>
    <path d="M 154.92733764648438 121.93376922607422 C 148.2653350830078 123.82313537597656 128.85972595214844 123.55570220947266 134.06529235839844 125.36518859863281" stroke-width="3.0" fill="none" stroke="rgb(0, 0, 0)" stroke-opacity="1.0" stroke-linecap="round" stroke-linejoin="round"/>
    <path d="M 79.2380599975586 121.54254913330078 C 92.9808349609375 115.6859130859375 66.2149887084961 131.02764892578125 83.58578491210938 115.92808532714844" stroke-width="3.0" fill="none" stroke="rgb(0, 0, 0)" stroke-opacity="1.0" stroke-linecap="round" stroke-linejoin="round"/>
    <path d="M 135.92803955078125 125.98542022705078 C 124.12635040283203 174.8942413330078 139.296875 155.9281768798828 98.0540771484375 184.8464813232422" stroke-width="3.0" fill="none" stroke="rgb(0, 0, 0)" stroke-opacity="1.0" stroke-linecap="round" stroke-linejoin="round"/>
    <path d="M 55.156822204589844 128.6439208984375 C -3.050814151763916 171.11680603027344 53.20829391479492 152.77798461914062 16.63083267211914 168.27960205078125" stroke-width="3.0" fill="none" stroke="rgb(0, 0, 0)" stroke-opacity="1.0" stroke-linecap="round" stroke-linejoin="round"/>
    <path d="M 41.25605773925781 40.38764190673828 C 113.30978393554688 91.26741027832031 61.754825592041016 77.9829330444336 128.8006591796875 89.8649673461914" stroke-width="3.0" fill="none" stroke="rgb(0, 0, 0)" stroke-opacity="1.0" stroke-linecap="round" stroke-linejoin="round"/>
    <path d="M 133.85006713867188 157.6312713623047 C 152.02603149414062 118.07494354248047 149.52842712402344 152.09567260742188 182.7213592529297 110.95616149902344" stroke-width="3.0" fill="none" stroke="rgb(0, 0, 0)" stroke-opacity="1.0" stroke-linecap="round" stroke-linejoin="round"/>
    <path d="M 33.166893005371094 154.0835723876953 C 73.54576110839844 120.10610961914062 63.329402923583984 145.93161010742188 73.33798217773438 115.22823333740234" stroke-width="3.0" fill="none" stroke="rgb(0, 0, 0)" stroke-opacity="1.0" stroke-linecap="round" stroke-linejoin="round"/>
    <path d="M 150.05984497070312 116.4447021484375 C 133.2325439453125 130.1688690185547 131.87620544433594 123.76461791992188 134.29403686523438 133.4754638671875" stroke-width="3.0" fill="none" stroke="rgb(0, 0, 0)" stroke-opacity="1.0" stroke-linecap="round" stroke-linejoin="round"/>
    <path d="M 174.2083282470703 113.61370849609375 C 171.59307861328125 189.74208068847656 134.44552612304688 208.10435485839844 158.07940673828125 191.78488159179688" stroke-width="3.0" fill="none" stroke="rgb(0, 0, 0)" stroke-opacity="1.0" stroke-linecap="round" stroke-linejoin="round"/>
    <path d="M 12.564809799194336 73.47798919677734 C 77.13652038574219 14.42113208770752 -22.26471519470215 67.59722900390625 69.00914764404297 48.90772247314453" stroke-width="3.0" fill="none" stroke="rgb(0, 0, 0)" stroke-opacity="1.0" stroke-linecap="round" stroke-linejoin="round"/>
    <path d="M 88.29756164550781 70.08112335205078 C 37.774269104003906 40.05021286010742 -0.13004538416862488 30.01190185546875 83.27153778076172 60.097511291503906" stroke-width="3.0" fill="none" stroke="rgb(0, 0, 0)" stroke-opacity="1.0" stroke-linecap="round" stroke-linejoin="round"/>
  </g>
</svg>
