<?xml version="1.0" ?>
<svg xmlns="http://www.w3.org/2000/svg" version="1.1" width="224" height="224">
  <defs/>
  <g>
    <path d="M 78.25275421142578 123.67103576660156 C 89.78936004638672 128.93093872070312 85.24139404296875 129.42315673828125 81.71664428710938 116.99141693115234" stroke-width="3.0" fill="none" stroke="rgb(0, 0, 0)" stroke-opacity="1.0" stroke-linecap="round" stroke-linejoin="round"/>
    <path d="M 72.50005340576172 125.38326263427734 C 109.94692993164062 138.48947143554688 112.86881256103516 128.93789672851562 134.308349609375 124.97769165039062" stroke-width="3.0" fill="none" stroke="rgb(0, 0, 0)" stroke-opacity="1.0" stroke-linecap="round" stroke-linejoin="round"/>
    <path d="M 152.94248962402344 91.31839752197266 C 228.04653930664062 118.76641082763672 189.2176055908203 128.8295135498047 213.94847106933594 142.8026885986328" stroke-width="3.0" fill="none" stroke="rgb(0, 0, 0)" stroke-opacity="1.0" stroke-linecap="round" stroke-linejoin="round"/>
    <path d="M 67.0517807006836 75.2363510131836 C 43.87554931640625 152.1994171142578 82.14774322509766 82.48516845703125 33.788570404052734 155.71359252929688" stroke-width="3.0" fill="none" stroke="rgb(0, 0, 0)" stroke-opacity="1.0" stroke-linecap="round" stroke-linejoin="round"/>
    <path d="M 126.08039093017578 89.59878540039062 C 134.5186309814453 89.47514343261719 157.1569061279297 84.25407409667969 173.24468994140625 106.3978042602539" stroke-width="3.0" fill="none" stroke="rgb(0, 0, 0)" stroke-opacity="1.0" stroke-linecap="round" stroke-linejoin="round"/>
    <path d="M 139.3695068359375 123.44610595703125 C 139.02081298828125 125.62560272216797 123.03561401367188 124.18363952636719 133.5396728515625 125.18482208251953" stroke-width="3.0" fill="none" stroke="rgb(0, 0, 0)" stroke-opacity="1.0" stroke-linecap="round" stroke-linejoin="round"/>
    <path d="M 76.8944320678711 125.62213897705078 C 85.06585693359375 120.28998565673828 68.2580337524414 129.1683349609375 79.22942352294922 121.64693450927734" stroke-width="3.0" fill="none" stroke="rgb(0, 0, 0)" stroke-opacity="1.0" stroke-linecap="round" stroke-linejoin="round"/>
    <path d="M 141.3999481201172 130.31983947753906 C 121.576416015625 173.23898315429688 144.16244506835938 156.44744873046875 98.74207305908203 185.13677978515625" stroke-width="3.0" fill="none" stroke="rgb(0, 0, 0)" stroke-opacity="1.0" stroke-linecap="round" stroke-linejoin="round"/>
    <path d="M 57.233402252197266 123.35755157470703 C -5.686245441436768 173.17697143554688 50.8675651550293 151.6876983642578 14.049549102783203 167.64793395996094" stroke-width="3.0" fill="none" stroke="rgb(0, 0, 0)" stroke-opacity="1.0" stroke-linecap="round" stroke-linejoin="round"/>
    <path d="M 52.793758392333984 39.878360748291016 C 108.38468170166016 100.11669158935547 81.44641876220703 80.86174011230469 136.36790466308594 92.671630859375" stroke-width="3.0" fill="none" stroke="rgb(0, 0, 0)" stroke-opacity="1.0" stroke-linecap="round" stroke-linejoin="round"/>
    <path d="M 133.56521606445312 158.81480407714844 C 148.28797912597656 113.05907440185547 158.13397216796875 152.00575256347656 182.7788543701172 109.81961822509766" stroke-width="3.0" fill="none" stroke="rgb(0, 0, 0)" stroke-opacity="1.0" stroke-linecap="round" stroke-linejoin="round"/>
    <path d="M 26.742517471313477 151.27430725097656 C 73.12866973876953 116.26890563964844 54.55543518066406 144.74693298339844 77.36150360107422 111.09276580810547" stroke-width="3.0" fill="none" stroke="rgb(0, 0, 0)" stroke-opacity="1.0" stroke-linecap="round" stroke-linejoin="round"/>
    <path d="M 149.43817138671875 120.80680084228516 C 136.06996154785156 129.56103515625 134.14056396484375 118.3563232421875 135.40322875976562 128.64134216308594" stroke-width="3.0" fill="none" stroke="rgb(0, 0, 0)" stroke-opacity="1.0" stroke-linecap="round" stroke-linejoin="round"/>
    <path d="M 174.13002014160156 118.01331329345703 C 178.26646423339844 163.0933074951172 141.58677673339844 204.27679443359375 157.03038024902344 191.87152099609375" stroke-width="3.0" fill="none" stroke="rgb(0, 0, 0)" stroke-opacity="1.0" stroke-linecap="round" stroke-linejoin="round"/>
    <path d="M 11.3137845993042 74.75601196289062 C 74.28539276123047 13.574980735778809 -18.552717208862305 56.73647689819336 69.93321990966797 45.85076904296875" stroke-width="3.0" fill="none" stroke="rgb(0, 0, 0)" stroke-opacity="1.0" stroke-linecap="round" stroke-linejoin="round"/>
    <path d="M 85.25328826904297 68.9271469116211 C 39.389278411865234 36.75699996948242 3.5681521892547607 24.772842407226562 79.78534698486328 56.354881286621094" stroke-width="3.0" fill="none" stroke="rgb(0, 0, 0)" stroke-opacity="1.0" stroke-linecap="round" stroke-linejoin="round"/>
  </g>
</svg>
