<?xml version="1.0" ?>
<svg xmlns="http://www.w3.org/2000/svg" version="1.1" width="224" height="224">
  <defs/>
  <g>
    <path d="M 73.15778350830078 123.18366241455078 C 82.52059173583984 129.1282196044922 81.77381134033203 127.47462463378906 78.5550308227539 119.11688232421875" stroke-width="3.0" fill="none" stroke="rgb(0, 0, 0)" stroke-opacity="1.0" stroke-linecap="round" stroke-linejoin="round"/>
    <path d="M 71.67949676513672 125.9283447265625 C 111.25405883789062 137.09149169921875 113.1651840209961 127.33893585205078 134.04473876953125 125.73380279541016" stroke-width="3.0" fill="none" stroke="rgb(0, 0, 0)" stroke-opacity="1.0" stroke-linecap="round" stroke-linejoin="round"/>
    <path d="M 154.6910400390625 93.02000427246094 C 226.62356567382812 120.3250503540039 185.49453735351562 132.7464141845703 214.8546905517578 146.068603515625" stroke-width="3.0" fill="none" stroke="rgb(0, 0, 0)" stroke-opacity="1.0" stroke-linecap="round" stroke-linejoin="round"/>
    <path d="M 49.82889938354492 67.1606216430664 C 38.69256591796875 147.7201385498047 75.266357421875 81.92940521240234 34.59050369262695 159.79405212402344" stroke-width="3.0" fill="none" stroke="rgb(0, 0, 0)" stroke-opacity="1.0" stroke-linecap="round" stroke-linejoin="round"/>
    <path d="M 129.97576904296875 91.58171844482422 C 133.4198760986328 92.03553009033203 162.1850128173828 85.95854949951172 169.48048400878906 103.52144622802734" stroke-width="3.0" fill="none" stroke="rgb(0, 0, 0)" stroke-opacity="1.0" stroke-linecap="round" stroke-linejoin="round"/>
    <path d="M 136.73593139648438 124.42800903320312 C 138.74932861328125 125.63768005371094 122.79063415527344 129.96385192871094 133.31005859375 126.84736633300781" stroke-width="3.0" fill="none" stroke="rgb(0, 0, 0)" stroke-opacity="1.0" stroke-linecap="round" stroke-linejoin="round"/>
    <path d="M 76.12393188476562 123.49028015136719 C 80.97203826904297 116.54399871826172 67.07640838623047 125.18986511230469 77.79308319091797 123.56665802001953" stroke-width="3.0" fill="none" stroke="rgb(0, 0, 0)" stroke-opacity="1.0" stroke-linecap="round" stroke-linejoin="round"/>
    <path d="M 140.41812133789062 128.7405242919922 C 121.91909790039062 178.01918029785156 147.8789520263672 156.7268829345703 97.56096649169922 184.23379516601562" stroke-width="3.0" fill="none" stroke="rgb(0, 0, 0)" stroke-opacity="1.0" stroke-linecap="round" stroke-linejoin="round"/>
    <path d="M 56.19373321533203 122.87149810791016 C -2.5730600357055664 175.0348663330078 54.7433967590332 156.73805236816406 14.224581718444824 170.6057586669922" stroke-width="3.0" fill="none" stroke="rgb(0, 0, 0)" stroke-opacity="1.0" stroke-linecap="round" stroke-linejoin="round"/>
    <path d="M 57.199501037597656 35.97742462158203 C 108.86210632324219 99.1327133178711 84.32605743408203 80.09757232666016 136.0994415283203 93.16413116455078" stroke-width="3.0" fill="none" stroke="rgb(0, 0, 0)" stroke-opacity="1.0" stroke-linecap="round" stroke-linejoin="round"/>
    <path d="M 134.65625 159.4642791748047 C 150.06935119628906 116.94429016113281 156.9402313232422 155.03721618652344 179.3952178955078 108.59012603759766" stroke-width="3.0" fill="none" stroke="rgb(0, 0, 0)" stroke-opacity="1.0" stroke-linecap="round" stroke-linejoin="round"/>
    <path d="M 31.514450073242188 151.39158630371094 C 72.55902862548828 118.22297668457031 56.964195251464844 145.48287963867188 77.3066177368164 109.46298217773438" stroke-width="3.0" fill="none" stroke="rgb(0, 0, 0)" stroke-opacity="1.0" stroke-linecap="round" stroke-linejoin="round"/>
    <path d="M 147.1590118408203 119.39141845703125 C 133.6276397705078 131.53797912597656 131.95144653320312 120.32061767578125 134.75784301757812 128.7897186279297" stroke-width="3.0" fill="none" stroke="rgb(0, 0, 0)" stroke-opacity="1.0" stroke-linecap="round" stroke-linejoin="round"/>
    <path d="M 168.7325897216797 122.97653198242188 C 181.45167541503906 165.8612518310547 144.14224243164062 203.6582489013672 163.2859649658203 189.63937377929688" stroke-width="3.0" fill="none" stroke="rgb(0, 0, 0)" stroke-opacity="1.0" stroke-linecap="round" stroke-linejoin="round"/>
    <path d="M 13.011740684509277 73.37171936035156 C 76.23699951171875 15.63510513305664 -16.478160858154297 59.522708892822266 68.77342987060547 43.55487823486328" stroke-width="3.0" fill="none" stroke="rgb(0, 0, 0)" stroke-opacity="1.0" stroke-linecap="round" stroke-linejoin="round"/>
    <path d="M 86.05240631103516 63.368736267089844 C 38.81746292114258 38.740882873535156 4.290572643280029 25.824357986450195 78.83465576171875 55.16122817993164" stroke-width="3.0" fill="none" stroke="rgb(0, 0, 0)" stroke-opacity="1.0" stroke-linecap="round" stroke-linejoin="round"/>
  </g>
</svg>
