<?xml version="1.0" ?>
<svg xmlns="http://www.w3.org/2000/svg" version="1.1" width="224" height="224">
  <defs/>
  <g>
    <path d="M 80.84796905517578 124.51195526123047 C 83.59384155273438 122.90574645996094 80.3401107788086 122.52178192138672 76.77745056152344 118.20252227783203" stroke-width="3.0" fill="none" stroke="rgb(0, 0, 0)" stroke-opacity="1.0" stroke-linecap="round" stroke-linejoin="round"/>
    <path d="M 73.66441345214844 124.60243225097656 C 100.41700744628906 134.62606811523438 120.93531036376953 123.14868927001953 136.02394104003906 125.10464477539062" stroke-width="3.0" fill="none" stroke="rgb(0, 0, 0)" stroke-opacity="1.0" stroke-linecap="round" stroke-linejoin="round"/>
    <path d="M 155.08975219726562 92.36675262451172 C 227.3098907470703 123.02876281738281 187.49684143066406 131.9295196533203 215.3364715576172 142.6654052734375" stroke-width="3.0" fill="none" stroke="rgb(0, 0, 0)" stroke-opacity="1.0" stroke-linecap="round" stroke-linejoin="round"/>
    <path d="M 59.58849334716797 72.06792449951172 C 45.078880310058594 140.5435791015625 90.11446380615234 100.32291412353516 36.548397064208984 157.21746826171875" stroke-width="3.0" fill="none" stroke="rgb(0, 0, 0)" stroke-opacity="1.0" stroke-linecap="round" stroke-linejoin="round"/>
    <path d="M 128.33558654785156 90.23770904541016 C 138.6642303466797 91.99495697021484 164.79550170898438 84.52037048339844 174.85899353027344 106.92411804199219" stroke-width="3.0" fill="none" stroke="rgb(0, 0, 0)" stroke-opacity="1.0" stroke-linecap="round" stroke-linejoin="round"/>
    <path d="M 136.08949279785156 122.80553436279297 C 134.16053771972656 120.6424331665039 118.13394165039062 127.8409652709961 123.96709442138672 125.2105484008789" stroke-width="3.0" fill="none" stroke="rgb(0, 0, 0)" stroke-opacity="1.0" stroke-linecap="round" stroke-linejoin="round"/>
    <path d="M 79.4686508178711 124.35350036621094 C 76.34101867675781 119.53672790527344 68.99927520751953 119.73959350585938 78.56990814208984 126.10739135742188" stroke-width="3.0" fill="none" stroke="rgb(0, 0, 0)" stroke-opacity="1.0" stroke-linecap="round" stroke-linejoin="round"/>
    <path d="M 141.95645141601562 131.21200561523438 C 130.44854736328125 165.1420135498047 146.79249572753906 149.32211303710938 99.22225189208984 185.35733032226562" stroke-width="3.0" fill="none" stroke="rgb(0, 0, 0)" stroke-opacity="1.0" stroke-linecap="round" stroke-linejoin="round"/>
    <path d="M 59.285133361816406 116.68782806396484 C 1.87027907371521 170.5204315185547 50.733551025390625 155.68328857421875 13.61923885345459 169.5303192138672" stroke-width="3.0" fill="none" stroke="rgb(0, 0, 0)" stroke-opacity="1.0" stroke-linecap="round" stroke-linejoin="round"/>
    <path d="M 58.51944351196289 42.79963302612305 C 101.73648071289062 102.03594970703125 96.98433685302734 79.91656494140625 133.7519073486328 90.04341125488281" stroke-width="3.0" fill="none" stroke="rgb(0, 0, 0)" stroke-opacity="1.0" stroke-linecap="round" stroke-linejoin="round"/>
    <path d="M 140.698486328125 142.29237365722656 C 148.68589782714844 127.11434936523438 143.474853515625 142.3789520263672 171.9268798828125 113.4765625" stroke-width="3.0" fill="none" stroke="rgb(0, 0, 0)" stroke-opacity="1.0" stroke-linecap="round" stroke-linejoin="round"/>
    <path d="M 38.69984436035156 147.21583557128906 C 79.50395202636719 128.1556396484375 71.81428527832031 144.13034057617188 73.73779296875 115.2565689086914" stroke-width="3.0" fill="none" stroke="rgb(0, 0, 0)" stroke-opacity="1.0" stroke-linecap="round" stroke-linejoin="round"/>
    <path d="M 140.71156311035156 117.77318572998047 C 130.52874755859375 126.51305389404297 135.5452423095703 122.77496337890625 132.254638671875 122.11158752441406" stroke-width="3.0" fill="none" stroke="rgb(0, 0, 0)" stroke-opacity="1.0" stroke-linecap="round" stroke-linejoin="round"/>
    <path d="M 170.63653564453125 123.09846496582031 C 184.20501708984375 145.9104766845703 141.5154266357422 199.19003295898438 163.3260955810547 191.6814727783203" stroke-width="3.0" fill="none" stroke="rgb(0, 0, 0)" stroke-opacity="1.0" stroke-linecap="round" stroke-linejoin="round"/>
    <path d="M 13.213586807250977 77.44010162353516 C 77.32671356201172 9.297684669494629 -5.682048797607422 66.6838150024414 68.99765014648438 42.75560760498047" stroke-width="3.0" fill="none" stroke="rgb(0, 0, 0)" stroke-opacity="1.0" stroke-linecap="round" stroke-linejoin="round"/>
    <path d="M 83.43537139892578 65.26465606689453 C 45.19852828979492 43.91451644897461 18.697505950927734 31.23220443725586 80.16102600097656 58.06845474243164" stroke-width="3.0" fill="none" stroke="rgb(0, 0, 0)" stroke-opacity="1.0" stroke-linecap="round" stroke-linejoin="round"/>
  </g>
</svg>
