<?xml version="1.0" ?>
<svg xmlns="http://www.w3.org/2000/svg" version="1.1" width="224" height="224">
  <defs/>
  <g>
    <path d="M 79.03459930419922 114.14138793945312 C 71.72190856933594 130.77696228027344 84.94613647460938 119.814453125 74.35443115234375 121.61487579345703" stroke-width="3.0" fill="none" stroke="rgb(0, 0, 0)" stroke-opacity="1.0" stroke-linecap="round" stroke-linejoin="round"/>
    <path d="M 69.0009994506836 125.49562072753906 C 109.1966323852539 135.21420288085938 119.12642669677734 128.24908447265625 136.69161987304688 130.15943908691406" stroke-width="3.0" fill="none" stroke="rgb(0, 0, 0)" stroke-opacity="1.0" stroke-linecap="round" stroke-linejoin="round"/>
    <path d="M 171.12994384765625 100.2234115600586 C 216.00592041015625 113.50929260253906 196.08132934570312 139.1363983154297 218.0511474609375 144.12266540527344" stroke-width="3.0" fill="none" stroke="rgb(0, 0, 0)" stroke-opacity="1.0" stroke-linecap="round" stroke-linejoin="round"/>
    <path d="M 49.73006820678711 60.00114822387695 C 73.64724731445312 154.614501953125 43.8649787902832 100.16458129882812 35.493282318115234 149.34336853027344" stroke-width="3.0" fill="none" stroke="rgb(0, 0, 0)" stroke-opacity="1.0" stroke-linecap="round" stroke-linejoin="round"/>
    <path d="M 108.65235900878906 84.753662109375 C 154.3443145751953 89.9648666381836 141.98936462402344 78.26934051513672 178.158447265625 106.03651428222656" stroke-width="3.0" fill="none" stroke="rgb(0, 0, 0)" stroke-opacity="1.0" stroke-linecap="round" stroke-linejoin="round"/>
    <path d="M 137.78453063964844 127.47282409667969 C 134.0655517578125 128.60800170898438 151.10743713378906 126.14435577392578 114.46976470947266 129.6156005859375" stroke-width="3.0" fill="none" stroke="rgb(0, 0, 0)" stroke-opacity="1.0" stroke-linecap="round" stroke-linejoin="round"/>
    <path d="M 68.37213897705078 125.53726196289062 C 89.40022277832031 106.05599212646484 58.047584533691406 129.52020263671875 76.90787506103516 117.38880157470703" stroke-width="3.0" fill="none" stroke="rgb(0, 0, 0)" stroke-opacity="1.0" stroke-linecap="round" stroke-linejoin="round"/>
    <path d="M 137.28858947753906 127.49913787841797 C 123.67176055908203 173.9678192138672 140.18081665039062 157.52069091796875 98.51070404052734 183.43743896484375" stroke-width="3.0" fill="none" stroke="rgb(0, 0, 0)" stroke-opacity="1.0" stroke-linecap="round" stroke-linejoin="round"/>
    <path d="M 45.78822708129883 136.0191650390625 C -13.782086372375488 211.17208862304688 68.98356628417969 128.79478454589844 14.029723167419434 167.41786193847656" stroke-width="3.0" fill="none" stroke="rgb(0, 0, 0)" stroke-opacity="1.0" stroke-linecap="round" stroke-linejoin="round"/>
    <path d="M 34.245140075683594 35.87714767456055 C 102.1678237915039 70.86518096923828 55.95233917236328 62.17183303833008 109.27523040771484 86.07471466064453" stroke-width="3.0" fill="none" stroke="rgb(0, 0, 0)" stroke-opacity="1.0" stroke-linecap="round" stroke-linejoin="round"/>
    <path d="M 133.66082763671875 161.95628356933594 C 150.9381103515625 113.92769622802734 148.80551147460938 154.6859130859375 178.0754852294922 110.31975555419922" stroke-width="3.0" fill="none" stroke="rgb(0, 0, 0)" stroke-opacity="1.0" stroke-linecap="round" stroke-linejoin="round"/>
    <path d="M 38.07703399658203 160.48422241210938 C 58.96165084838867 110.6360855102539 51.246612548828125 150.21958923339844 81.5411376953125 110.59830474853516" stroke-width="3.0" fill="none" stroke="rgb(0, 0, 0)" stroke-opacity="1.0" stroke-linecap="round" stroke-linejoin="round"/>
    <path d="M 156.94744873046875 118.88452911376953 C 134.81419372558594 132.5142059326172 163.81106567382812 115.83299255371094 98.67835235595703 131.4112548828125" stroke-width="3.0" fill="none" stroke="rgb(0, 0, 0)" stroke-opacity="1.0" stroke-linecap="round" stroke-linejoin="round"/>
    <path d="M 173.21658325195312 108.50470733642578 C 165.7060546875 232.3753662109375 135.89678955078125 181.63613891601562 159.80126953125 190.27780151367188" stroke-width="3.0" fill="none" stroke="rgb(0, 0, 0)" stroke-opacity="1.0" stroke-linecap="round" stroke-linejoin="round"/>
    <path d="M 17.20596694946289 77.02054595947266 C 68.52043151855469 7.562901020050049 -13.795299530029297 87.06832885742188 57.05054473876953 38.10474395751953" stroke-width="3.0" fill="none" stroke="rgb(0, 0, 0)" stroke-opacity="1.0" stroke-linecap="round" stroke-linejoin="round"/>
    <path d="M 95.0281982421875 75.10320281982422 C 82.14989471435547 22.761653900146484 -26.000028610229492 40.64522171020508 84.45423126220703 50.283512115478516" stroke-width="3.0" fill="none" stroke="rgb(0, 0, 0)" stroke-opacity="1.0" stroke-linecap="round" stroke-linejoin="round"/>
  </g>
</svg>
