<?xml version="1.0" ?>
<svg xmlns="http://www.w3.org/2000/svg" version="1.1" width="224" height="224">
  <defs/>
  <g>
    <path d="M 79.64930725097656 110.92910766601562 C 77.96150970458984 131.55059814453125 78.32344818115234 118.29777526855469 75.48431396484375 122.37722778320312" stroke-width="3.0" fill="none" stroke="rgb(0, 0, 0)" stroke-opacity="1.0" stroke-linecap="round" stroke-linejoin="round"/>
    <path d="M 72.28964233398438 123.47802734375 C 105.90972900390625 137.45416259765625 122.35352325439453 127.67041778564453 134.88949584960938 128.94351196289062" stroke-width="3.0" fill="none" stroke="rgb(0, 0, 0)" stroke-opacity="1.0" stroke-linecap="round" stroke-linejoin="round"/>
    <path d="M 170.94056701660156 103.42340850830078 C 217.6172637939453 113.75544738769531 195.39198303222656 133.58204650878906 220.62864685058594 142.87098693847656" stroke-width="3.0" fill="none" stroke="rgb(0, 0, 0)" stroke-opacity="1.0" stroke-linecap="round" stroke-linejoin="round"/>
    <path d="M 44.1052131652832 64.89470672607422 C 71.15111541748047 154.3488006591797 42.76218032836914 96.83493041992188 35.586448669433594 147.801513671875" stroke-width="3.0" fill="none" stroke="rgb(0, 0, 0)" stroke-opacity="1.0" stroke-linecap="round" stroke-linejoin="round"/>
    <path d="M 107.63152313232422 85.71759796142578 C 148.43215942382812 89.4356918334961 145.33934020996094 78.39749908447266 181.21705627441406 110.32515716552734" stroke-width="3.0" fill="none" stroke="rgb(0, 0, 0)" stroke-opacity="1.0" stroke-linecap="round" stroke-linejoin="round"/>
    <path d="M 137.1374053955078 126.95976257324219 C 133.91421508789062 125.31140899658203 151.7561798095703 120.95635223388672 120.19646453857422 128.56871032714844" stroke-width="3.0" fill="none" stroke="rgb(0, 0, 0)" stroke-opacity="1.0" stroke-linecap="round" stroke-linejoin="round"/>
    <path d="M 67.97444915771484 124.43830108642578 C 89.86766052246094 103.83271026611328 61.93144989013672 132.34182739257812 77.5291519165039 115.94258117675781" stroke-width="3.0" fill="none" stroke="rgb(0, 0, 0)" stroke-opacity="1.0" stroke-linecap="round" stroke-linejoin="round"/>
    <path d="M 139.20814514160156 132.91734313964844 C 121.72001647949219 175.78297424316406 143.4266357421875 158.2136993408203 98.9061508178711 183.9910888671875" stroke-width="3.0" fill="none" stroke="rgb(0, 0, 0)" stroke-opacity="1.0" stroke-linecap="round" stroke-linejoin="round"/>
    <path d="M 46.44868850708008 131.96237182617188 C -13.851247787475586 214.6156768798828 69.5105972290039 128.77597045898438 15.405220985412598 168.38267517089844" stroke-width="3.0" fill="none" stroke="rgb(0, 0, 0)" stroke-opacity="1.0" stroke-linecap="round" stroke-linejoin="round"/>
    <path d="M 32.78596115112305 35.974609375 C 104.7310562133789 71.85345458984375 53.0000114440918 61.90579605102539 106.6565170288086 86.6995849609375" stroke-width="3.0" fill="none" stroke="rgb(0, 0, 0)" stroke-opacity="1.0" stroke-linecap="round" stroke-linejoin="round"/>
    <path d="M 130.9027862548828 164.16360473632812 C 155.759765625 115.67021179199219 151.1309051513672 158.1632843017578 178.453857421875 108.72441101074219" stroke-width="3.0" fill="none" stroke="rgb(0, 0, 0)" stroke-opacity="1.0" stroke-linecap="round" stroke-linejoin="round"/>
    <path d="M 38.68077087402344 159.80848693847656 C 60.06973648071289 114.10653686523438 44.78827667236328 148.86961364746094 81.13802337646484 114.09989166259766" stroke-width="3.0" fill="none" stroke="rgb(0, 0, 0)" stroke-opacity="1.0" stroke-linecap="round" stroke-linejoin="round"/>
    <path d="M 159.56150817871094 117.93802642822266 C 136.70703125 129.74261474609375 164.10171508789062 117.23238372802734 103.28606414794922 131.15701293945312" stroke-width="3.0" fill="none" stroke="rgb(0, 0, 0)" stroke-opacity="1.0" stroke-linecap="round" stroke-linejoin="round"/>
    <path d="M 174.54537963867188 109.94257354736328 C 166.82237243652344 232.5709991455078 135.80177307128906 182.44866943359375 161.06045532226562 191.21400451660156" stroke-width="3.0" fill="none" stroke="rgb(0, 0, 0)" stroke-opacity="1.0" stroke-linecap="round" stroke-linejoin="round"/>
    <path d="M 14.686243057250977 76.6660385131836 C 69.3359603881836 6.318631172180176 -17.169160842895508 84.80089569091797 53.50226974487305 37.51233673095703" stroke-width="3.0" fill="none" stroke="rgb(0, 0, 0)" stroke-opacity="1.0" stroke-linecap="round" stroke-linejoin="round"/>
    <path d="M 96.45774841308594 74.91781616210938 C 78.65629577636719 20.524555206298828 -34.37221908569336 42.18726348876953 81.1381607055664 49.02834701538086" stroke-width="3.0" fill="none" stroke="rgb(0, 0, 0)" stroke-opacity="1.0" stroke-linecap="round" stroke-linejoin="round"/>
  </g>
</svg>
