<?xml version="1.0" ?>
<svg xmlns="http://www.w3.org/2000/svg" version="1.1" width="224" height="224">
  <defs/>
  <g>
    <path d="M 89.81597900390625 126.10431671142578 C 85.7043228149414 119.54122924804688 81.11583709716797 122.5371322631836 79.90829467773438 116.46238708496094" stroke-width="3.0" fill="none" stroke="rgb(0, 0, 0)" stroke-opacity="1.0" stroke-linecap="round" stroke-linejoin="round"/>
    <path d="M 74.92291259765625 119.5259780883789 C 104.4592056274414 134.7464141845703 112.13507843017578 126.06300354003906 134.64260864257812 122.73584747314453" stroke-width="3.0" fill="none" stroke="rgb(0, 0, 0)" stroke-opacity="1.0" stroke-linecap="round" stroke-linejoin="round"/>
    <path d="M 153.42648315429688 91.2259292602539 C 229.43875122070312 119.27299499511719 190.19000244140625 132.37449645996094 215.1695556640625 143.22547912597656" stroke-width="3.0" fill="none" stroke="rgb(0, 0, 0)" stroke-opacity="1.0" stroke-linecap="round" stroke-linejoin="round"/>
    <path d="M 56.553367614746094 64.036865234375 C 42.95352554321289 146.00827026367188 83.08169555664062 108.73179626464844 38.39777374267578 152.59507751464844" stroke-width="3.0" fill="none" stroke="rgb(0, 0, 0)" stroke-opacity="1.0" stroke-linecap="round" stroke-linejoin="round"/>
    <path d="M 134.1494903564453 88.61466217041016 C 147.25390625 90.23262786865234 159.55328369140625 86.76912689208984 168.08926391601562 104.09996032714844" stroke-width="3.0" fill="none" stroke="rgb(0, 0, 0)" stroke-opacity="1.0" stroke-linecap="round" stroke-linejoin="round"/>
    <path d="M 135.07679748535156 122.84197235107422 C 131.17881774902344 121.93156433105469 120.16691589355469 127.28081512451172 125.25247955322266 124.57026672363281" stroke-width="3.0" fill="none" stroke="rgb(0, 0, 0)" stroke-opacity="1.0" stroke-linecap="round" stroke-linejoin="round"/>
    <path d="M 74.88893127441406 117.89332580566406 C 78.01429748535156 120.9068603515625 64.46568298339844 123.01589965820312 87.78612518310547 124.97270965576172" stroke-width="3.0" fill="none" stroke="rgb(0, 0, 0)" stroke-opacity="1.0" stroke-linecap="round" stroke-linejoin="round"/>
    <path d="M 138.78402709960938 135.969482421875 C 126.27096557617188 168.58407592773438 146.08096313476562 154.1165771484375 98.95545196533203 183.56654357910156" stroke-width="3.0" fill="none" stroke="rgb(0, 0, 0)" stroke-opacity="1.0" stroke-linecap="round" stroke-linejoin="round"/>
    <path d="M 56.633544921875 115.66744995117188 C 1.5888867378234863 183.5474853515625 53.00440979003906 153.1627655029297 22.89674186706543 171.48033142089844" stroke-width="3.0" fill="none" stroke="rgb(0, 0, 0)" stroke-opacity="1.0" stroke-linecap="round" stroke-linejoin="round"/>
    <path d="M 69.95716857910156 53.8251838684082 C 87.38275909423828 100.05890655517578 103.27852630615234 85.53668212890625 143.351806640625 89.25719451904297" stroke-width="3.0" fill="none" stroke="rgb(0, 0, 0)" stroke-opacity="1.0" stroke-linecap="round" stroke-linejoin="round"/>
    <path d="M 137.58116149902344 134.12667846679688 C 138.9279327392578 135.4123077392578 135.8429412841797 138.61651611328125 167.43374633789062 115.9011459350586" stroke-width="3.0" fill="none" stroke="rgb(0, 0, 0)" stroke-opacity="1.0" stroke-linecap="round" stroke-linejoin="round"/>
    <path d="M 59.639347076416016 137.18270874023438 C 78.08244323730469 126.09974670410156 64.88131713867188 134.77137756347656 71.69688415527344 110.70896911621094" stroke-width="3.0" fill="none" stroke="rgb(0, 0, 0)" stroke-opacity="1.0" stroke-linecap="round" stroke-linejoin="round"/>
    <path d="M 139.412841796875 118.55731964111328 C 132.1170654296875 124.97759246826172 134.6984405517578 125.27033233642578 135.16900634765625 121.72676849365234" stroke-width="3.0" fill="none" stroke="rgb(0, 0, 0)" stroke-opacity="1.0" stroke-linecap="round" stroke-linejoin="round"/>
    <path d="M 155.9479522705078 129.58840942382812 C 184.6179962158203 166.91629028320312 140.257080078125 197.18719482421875 158.64430236816406 188.58868408203125" stroke-width="3.0" fill="none" stroke="rgb(0, 0, 0)" stroke-opacity="1.0" stroke-linecap="round" stroke-linejoin="round"/>
    <path d="M 15.312983512878418 75.93104553222656 C 60.0965576171875 -8.883830070495605 20.93557357788086 67.35011291503906 70.56562805175781 42.6882209777832" stroke-width="3.0" fill="none" stroke="rgb(0, 0, 0)" stroke-opacity="1.0" stroke-linecap="round" stroke-linejoin="round"/>
    <path d="M 84.71876525878906 66.33383178710938 C 55.72541427612305 39.892662048339844 35.572044372558594 35.496646881103516 79.74179077148438 51.816558837890625" stroke-width="3.0" fill="none" stroke="rgb(0, 0, 0)" stroke-opacity="1.0" stroke-linecap="round" stroke-linejoin="round"/>
  </g>
</svg>
