<?xml version="1.0" ?>
<svg xmlns="http://www.w3.org/2000/svg" version="1.1" width="224" height="224">
  <defs/>
  <g>
    <path d="M 100.93893432617188 109.0342025756836 C 105.8888168334961 110.22251892089844 111.13311004638672 114.73448181152344 101.41539001464844 107.43744659423828" stroke-width="3.0" fill="none" stroke="rgb(0, 0, 0)" stroke-opacity="1.0" stroke-linecap="round" stroke-linejoin="round"/>
    <path d="M 98.75723266601562 133.3759765625 C 118.70237731933594 118.15264892578125 101.84378051757812 137.90061950683594 127.25578308105469 120.34427642822266" stroke-width="3.0" fill="none" stroke="rgb(0, 0, 0)" stroke-opacity="1.0" stroke-linecap="round" stroke-linejoin="round"/>
    <path d="M 171.1978759765625 103.0772476196289 C 206.10218811035156 108.91332244873047 180.79135131835938 114.54217529296875 213.44314575195312 145.01246643066406" stroke-width="3.0" fill="none" stroke="rgb(0, 0, 0)" stroke-opacity="1.0" stroke-linecap="round" stroke-linejoin="round"/>
    <path d="M 49.01272964477539 98.03799438476562 C 51.895572662353516 117.88661193847656 53.59932327270508 107.29336547851562 62.70021438598633 120.65426635742188" stroke-width="3.0" fill="none" stroke="rgb(0, 0, 0)" stroke-opacity="1.0" stroke-linecap="round" stroke-linejoin="round"/>
    <path d="M 144.4928436279297 90.3265609741211 C 153.9115447998047 92.511474609375 144.93045043945312 89.68159484863281 153.34864807128906 95.0196533203125" stroke-width="3.0" fill="none" stroke="rgb(0, 0, 0)" stroke-opacity="1.0" stroke-linecap="round" stroke-linejoin="round"/>
    <path d="M 134.65383911132812 109.67626953125 C 128.85841369628906 125.24240112304688 118.52086639404297 128.72935485839844 131.09698486328125 117.45687866210938" stroke-width="3.0" fill="none" stroke="rgb(0, 0, 0)" stroke-opacity="1.0" stroke-linecap="round" stroke-linejoin="round"/>
    <path d="M 90.16239166259766 107.26637268066406 C 92.41741180419922 96.96896362304688 92.9886474609375 99.80864715576172 87.20367431640625 114.01254272460938" stroke-width="3.0" fill="none" stroke="rgb(0, 0, 0)" stroke-opacity="1.0" stroke-linecap="round" stroke-linejoin="round"/>
    <path d="M 121.1410140991211 134.5872039794922 C 137.21592712402344 165.15609741210938 136.79513549804688 154.54969787597656 99.40692901611328 185.6300048828125" stroke-width="3.0" fill="none" stroke="rgb(0, 0, 0)" stroke-opacity="1.0" stroke-linecap="round" stroke-linejoin="round"/>
    <path d="M 46.831321716308594 157.53958129882812 C 36.43331527709961 164.98248291015625 56.972354888916016 139.51425170898438 16.34967041015625 168.4241180419922" stroke-width="3.0" fill="none" stroke="rgb(0, 0, 0)" stroke-opacity="1.0" stroke-linecap="round" stroke-linejoin="round"/>
    <path d="M 98.82870483398438 79.78453063964844 C 106.52750396728516 87.81169128417969 105.55213165283203 88.76393127441406 118.24887084960938 90.55215454101562" stroke-width="3.0" fill="none" stroke="rgb(0, 0, 0)" stroke-opacity="1.0" stroke-linecap="round" stroke-linejoin="round"/>
    <path d="M 126.33243560791016 138.59486389160156 C 124.5918960571289 137.30055236816406 146.18313598632812 140.80404663085938 163.06658935546875 127.06262969970703" stroke-width="3.0" fill="none" stroke="rgb(0, 0, 0)" stroke-opacity="1.0" stroke-linecap="round" stroke-linejoin="round"/>
    <path d="M 71.39857482910156 116.9096908569336 C 94.06230163574219 113.08406829833984 91.01371765136719 93.56045532226562 95.49759674072266 107.5945816040039" stroke-width="3.0" fill="none" stroke="rgb(0, 0, 0)" stroke-opacity="1.0" stroke-linecap="round" stroke-linejoin="round"/>
    <path d="M 139.6517791748047 99.85983276367188 C 138.02003479003906 110.10935974121094 137.11944580078125 103.85636901855469 132.78912353515625 113.76686096191406" stroke-width="3.0" fill="none" stroke="rgb(0, 0, 0)" stroke-opacity="1.0" stroke-linecap="round" stroke-linejoin="round"/>
    <path d="M 154.09019470214844 138.9091033935547 C 182.11062622070312 146.5546875 156.346923828125 184.97885131835938 164.91563415527344 181.90151977539062" stroke-width="3.0" fill="none" stroke="rgb(0, 0, 0)" stroke-opacity="1.0" stroke-linecap="round" stroke-linejoin="round"/>
    <path d="M 25.819528579711914 43.134498596191406 C 49.53049850463867 37.0568962097168 66.75713348388672 55.11543273925781 68.73162078857422 42.37520217895508" stroke-width="3.0" fill="none" stroke="rgb(0, 0, 0)" stroke-opacity="1.0" stroke-linecap="round" stroke-linejoin="round"/>
    <path d="M 94.0316390991211 64.6878662109375 C 82.80567932128906 48.31390380859375 81.36695098876953 59.738365173339844 73.55269622802734 46.16492462158203" stroke-width="3.0" fill="none" stroke="rgb(0, 0, 0)" stroke-opacity="1.0" stroke-linecap="round" stroke-linejoin="round"/>
  </g>
</svg>
