<?xml version="1.0" ?>
<svg xmlns="http://www.w3.org/2000/svg" version="1.1" width="224" height="224">
  <defs/>
  <g>
    <path d="M 81.68537139892578 109.85549926757812 C 82.02050018310547 129.6540985107422 78.03433990478516 114.71321868896484 75.7744140625 122.15252685546875" stroke-width="3.0" fill="none" stroke="rgb(0, 0, 0)" stroke-opacity="1.0" stroke-linecap="round" stroke-linejoin="round"/>
    <path d="M 73.81791687011719 122.53878021240234 C 100.89871215820312 138.3206329345703 121.87210083007812 128.45428466796875 138.59317016601562 127.1792221069336" stroke-width="3.0" fill="none" stroke="rgb(0, 0, 0)" stroke-opacity="1.0" stroke-linecap="round" stroke-linejoin="round"/>
    <path d="M 172.3223419189453 102.21028900146484 C 217.16033935546875 115.0301513671875 193.3267059326172 134.3663787841797 213.97105407714844 143.8770751953125" stroke-width="3.0" fill="none" stroke="rgb(0, 0, 0)" stroke-opacity="1.0" stroke-linecap="round" stroke-linejoin="round"/>
    <path d="M 46.02830505371094 58.25950622558594 C 73.10214233398438 153.6887664794922 44.0915412902832 93.77696228027344 36.1787223815918 148.99844360351562" stroke-width="3.0" fill="none" stroke="rgb(0, 0, 0)" stroke-opacity="1.0" stroke-linecap="round" stroke-linejoin="round"/>
    <path d="M 107.6761245727539 87.50692749023438 C 144.2964324951172 91.12303924560547 144.01129150390625 78.35419464111328 182.07818603515625 107.61235809326172" stroke-width="3.0" fill="none" stroke="rgb(0, 0, 0)" stroke-opacity="1.0" stroke-linecap="round" stroke-linejoin="round"/>
    <path d="M 136.9912872314453 124.83448028564453 C 140.0142364501953 132.02032470703125 150.9569854736328 122.86502075195312 124.94376373291016 125.36422729492188" stroke-width="3.0" fill="none" stroke="rgb(0, 0, 0)" stroke-opacity="1.0" stroke-linecap="round" stroke-linejoin="round"/>
    <path d="M 69.7771987915039 125.33837890625 C 92.45423126220703 106.28141021728516 61.83266067504883 131.92495727539062 79.7801284790039 117.11251831054688" stroke-width="3.0" fill="none" stroke="rgb(0, 0, 0)" stroke-opacity="1.0" stroke-linecap="round" stroke-linejoin="round"/>
    <path d="M 141.739990234375 131.98544311523438 C 120.46312713623047 177.96861267089844 142.4816436767578 156.46734619140625 97.6740493774414 184.80955505371094" stroke-width="3.0" fill="none" stroke="rgb(0, 0, 0)" stroke-opacity="1.0" stroke-linecap="round" stroke-linejoin="round"/>
    <path d="M 47.17152404785156 130.4949493408203 C -12.552114486694336 214.4588165283203 68.21886444091797 129.15621948242188 14.887194633483887 168.3929443359375" stroke-width="3.0" fill="none" stroke="rgb(0, 0, 0)" stroke-opacity="1.0" stroke-linecap="round" stroke-linejoin="round"/>
    <path d="M 32.55812072753906 36.47595977783203 C 106.3992919921875 74.80604553222656 57.39392852783203 65.69044494628906 106.99101257324219 85.80393981933594" stroke-width="3.0" fill="none" stroke="rgb(0, 0, 0)" stroke-opacity="1.0" stroke-linecap="round" stroke-linejoin="round"/>
    <path d="M 132.19839477539062 162.46417236328125 C 156.5783233642578 116.99901580810547 150.58428955078125 159.9543914794922 178.55697631835938 106.989013671875" stroke-width="3.0" fill="none" stroke="rgb(0, 0, 0)" stroke-opacity="1.0" stroke-linecap="round" stroke-linejoin="round"/>
    <path d="M 37.438167572021484 160.70077514648438 C 61.71670150756836 114.40447235107422 47.153350830078125 149.948974609375 80.39987182617188 114.17398834228516" stroke-width="3.0" fill="none" stroke="rgb(0, 0, 0)" stroke-opacity="1.0" stroke-linecap="round" stroke-linejoin="round"/>
    <path d="M 158.8997344970703 120.7518081665039 C 135.6349639892578 133.80064392089844 162.1833038330078 117.53535461425781 104.68116760253906 129.63858032226562" stroke-width="3.0" fill="none" stroke="rgb(0, 0, 0)" stroke-opacity="1.0" stroke-linecap="round" stroke-linejoin="round"/>
    <path d="M 174.37405395507812 108.79358673095703 C 164.93362426757812 229.4458770751953 138.69764709472656 181.80027770996094 160.6305389404297 190.1622314453125" stroke-width="3.0" fill="none" stroke="rgb(0, 0, 0)" stroke-opacity="1.0" stroke-linecap="round" stroke-linejoin="round"/>
    <path d="M 11.559479713439941 74.53502655029297 C 68.46388244628906 4.651688098907471 -21.722135543823242 80.79655456542969 57.61255645751953 35.40324783325195" stroke-width="3.0" fill="none" stroke="rgb(0, 0, 0)" stroke-opacity="1.0" stroke-linecap="round" stroke-linejoin="round"/>
    <path d="M 94.30309295654297 74.83897399902344 C 78.08828735351562 19.267488479614258 -36.349998474121094 43.8020133972168 82.25933837890625 50.436241149902344" stroke-width="3.0" fill="none" stroke="rgb(0, 0, 0)" stroke-opacity="1.0" stroke-linecap="round" stroke-linejoin="round"/>
  </g>
</svg>
