<?xml version="1.0" ?>
<svg xmlns="http://www.w3.org/2000/svg" version="1.1" width="224" height="224">
  <defs/>
  <g>
    <path d="M 80.7220687866211 119.45177459716797 C 78.66559600830078 132.0770721435547 87.1457290649414 123.42279815673828 75.0403823852539 112.71464538574219" stroke-width="3.0" fill="none" stroke="rgb(0, 0, 0)" stroke-opacity="1.0" stroke-linecap="round" stroke-linejoin="round"/>
    <path d="M 72.75100708007812 120.78182983398438 C 109.15406799316406 136.1912078857422 112.83871459960938 125.91018676757812 135.85638427734375 127.32952117919922" stroke-width="3.0" fill="none" stroke="rgb(0, 0, 0)" stroke-opacity="1.0" stroke-linecap="round" stroke-linejoin="round"/>
    <path d="M 173.47520446777344 103.77418518066406 C 217.53662109375 114.89199829101562 195.69534301757812 137.3841552734375 217.02870178222656 142.2239990234375" stroke-width="3.0" fill="none" stroke="rgb(0, 0, 0)" stroke-opacity="1.0" stroke-linecap="round" stroke-linejoin="round"/>
    <path d="M 45.59650421142578 67.37033081054688 C 70.65670776367188 147.56040954589844 43.09050750732422 96.60893249511719 35.82976531982422 145.65625" stroke-width="3.0" fill="none" stroke="rgb(0, 0, 0)" stroke-opacity="1.0" stroke-linecap="round" stroke-linejoin="round"/>
    <path d="M 103.31456756591797 85.00218963623047 C 147.3854522705078 91.35746765136719 142.5331268310547 77.9148941040039 183.47134399414062 107.32621002197266" stroke-width="3.0" fill="none" stroke="rgb(0, 0, 0)" stroke-opacity="1.0" stroke-linecap="round" stroke-linejoin="round"/>
    <path d="M 143.0153350830078 130.18173217773438 C 156.82579040527344 127.63677215576172 161.50283813476562 113.45056915283203 111.10346984863281 130.94288635253906" stroke-width="3.0" fill="none" stroke="rgb(0, 0, 0)" stroke-opacity="1.0" stroke-linecap="round" stroke-linejoin="round"/>
    <path d="M 80.80030059814453 123.48764038085938 C 92.52851867675781 114.22088623046875 57.18113327026367 125.80552673339844 78.76444244384766 121.72636413574219" stroke-width="3.0" fill="none" stroke="rgb(0, 0, 0)" stroke-opacity="1.0" stroke-linecap="round" stroke-linejoin="round"/>
    <path d="M 139.53587341308594 131.99961853027344 C 121.41133880615234 176.34996032714844 140.15298461914062 157.6342010498047 99.30543518066406 185.09999084472656" stroke-width="3.0" fill="none" stroke="rgb(0, 0, 0)" stroke-opacity="1.0" stroke-linecap="round" stroke-linejoin="round"/>
    <path d="M 44.99492263793945 131.2577667236328 C -11.042991638183594 215.1644744873047 69.80376434326172 131.0326385498047 16.063655853271484 169.0925750732422" stroke-width="3.0" fill="none" stroke="rgb(0, 0, 0)" stroke-opacity="1.0" stroke-linecap="round" stroke-linejoin="round"/>
    <path d="M 34.9642333984375 37.400726318359375 C 103.02384948730469 70.98983001708984 57.35578536987305 62.32928466796875 104.97959899902344 85.13511657714844" stroke-width="3.0" fill="none" stroke="rgb(0, 0, 0)" stroke-opacity="1.0" stroke-linecap="round" stroke-linejoin="round"/>
    <path d="M 131.6431121826172 161.690673828125 C 153.4370574951172 117.42491912841797 149.60928344726562 153.83602905273438 180.3468475341797 110.35018157958984" stroke-width="3.0" fill="none" stroke="rgb(0, 0, 0)" stroke-opacity="1.0" stroke-linecap="round" stroke-linejoin="round"/>
    <path d="M 38.22449493408203 161.16603088378906 C 58.37504577636719 112.87303161621094 51.09012222290039 146.586181640625 80.8022232055664 113.39591217041016" stroke-width="3.0" fill="none" stroke="rgb(0, 0, 0)" stroke-opacity="1.0" stroke-linecap="round" stroke-linejoin="round"/>
    <path d="M 157.91961669921875 118.80712127685547 C 139.60025024414062 127.3642578125 168.33505249023438 118.80799102783203 96.95004272460938 128.3126220703125" stroke-width="3.0" fill="none" stroke="rgb(0, 0, 0)" stroke-opacity="1.0" stroke-linecap="round" stroke-linejoin="round"/>
    <path d="M 174.392822265625 109.79954528808594 C 166.4766082763672 227.4869842529297 136.22535705566406 178.67474365234375 161.1029815673828 188.1792449951172" stroke-width="3.0" fill="none" stroke="rgb(0, 0, 0)" stroke-opacity="1.0" stroke-linecap="round" stroke-linejoin="round"/>
    <path d="M 13.207348823547363 74.03410339355469 C 72.54499816894531 6.275475978851318 -14.81618595123291 86.72022247314453 63.32246780395508 37.341896057128906" stroke-width="3.0" fill="none" stroke="rgb(0, 0, 0)" stroke-opacity="1.0" stroke-linecap="round" stroke-linejoin="round"/>
    <path d="M 95.0035400390625 74.52483367919922 C 82.63909149169922 21.58304214477539 -25.000102996826172 42.237640380859375 83.88581848144531 49.8797721862793" stroke-width="3.0" fill="none" stroke="rgb(0, 0, 0)" stroke-opacity="1.0" stroke-linecap="round" stroke-linejoin="round"/>
  </g>
</svg>
