<?xml version="1.0" ?>
<svg xmlns="http://www.w3.org/2000/svg" version="1.1" width="224" height="224">
  <defs/>
  <g>
    <path d="M 85.4751968383789 125.7002182006836 C 81.17195129394531 122.3642349243164 78.10560607910156 124.42674255371094 74.26522064208984 117.12848663330078" stroke-width="3.0" fill="none" stroke="rgb(0, 0, 0)" stroke-opacity="1.0" stroke-linecap="round" stroke-linejoin="round"/>
    <path d="M 74.42780303955078 119.92987823486328 C 95.48310852050781 137.57272338867188 114.75999450683594 125.09715270996094 133.11715698242188 123.49726867675781" stroke-width="3.0" fill="none" stroke="rgb(0, 0, 0)" stroke-opacity="1.0" stroke-linecap="round" stroke-linejoin="round"/>
    <path d="M 155.45408630371094 90.93464660644531 C 225.64761352539062 122.24813079833984 187.39016723632812 128.8126678466797 214.90640258789062 144.09425354003906" stroke-width="3.0" fill="none" stroke="rgb(0, 0, 0)" stroke-opacity="1.0" stroke-linecap="round" stroke-linejoin="round"/>
    <path d="M 59.9468879699707 73.4964599609375 C 46.987640380859375 151.53695678710938 94.22022247314453 106.23970031738281 33.757041931152344 153.6034393310547" stroke-width="3.0" fill="none" stroke="rgb(0, 0, 0)" stroke-opacity="1.0" stroke-linecap="round" stroke-linejoin="round"/>
    <path d="M 133.4412841796875 90.2240982055664 C 141.5432586669922 90.04307556152344 165.1136016845703 85.992919921875 177.19290161132812 108.48117065429688" stroke-width="3.0" fill="none" stroke="rgb(0, 0, 0)" stroke-opacity="1.0" stroke-linecap="round" stroke-linejoin="round"/>
    <path d="M 133.8085479736328 121.37590789794922 C 132.89170837402344 120.42481231689453 116.38726043701172 125.88223266601562 123.65974426269531 124.04454040527344" stroke-width="3.0" fill="none" stroke="rgb(0, 0, 0)" stroke-opacity="1.0" stroke-linecap="round" stroke-linejoin="round"/>
    <path d="M 77.9619140625 123.4862289428711 C 78.92940521240234 119.14965057373047 65.62141418457031 126.63031768798828 85.85032653808594 127.32379913330078" stroke-width="3.0" fill="none" stroke="rgb(0, 0, 0)" stroke-opacity="1.0" stroke-linecap="round" stroke-linejoin="round"/>
    <path d="M 144.02291870117188 133.2762908935547 C 123.02470397949219 165.78659057617188 153.3744659423828 149.46861267089844 98.881591796875 184.0309295654297" stroke-width="3.0" fill="none" stroke="rgb(0, 0, 0)" stroke-opacity="1.0" stroke-linecap="round" stroke-linejoin="round"/>
    <path d="M 60.09217071533203 118.69982147216797 C -1.7184163331985474 171.24899291992188 48.87679672241211 144.57574462890625 13.599586486816406 170.45065307617188" stroke-width="3.0" fill="none" stroke="rgb(0, 0, 0)" stroke-opacity="1.0" stroke-linecap="round" stroke-linejoin="round"/>
    <path d="M 72.4972915649414 44.619178771972656 C 94.43357849121094 101.83596801757812 99.73109436035156 82.2215347290039 141.93960571289062 92.56856536865234" stroke-width="3.0" fill="none" stroke="rgb(0, 0, 0)" stroke-opacity="1.0" stroke-linecap="round" stroke-linejoin="round"/>
    <path d="M 138.54612731933594 137.5675506591797 C 141.11856079101562 128.55545043945312 139.95428466796875 140.50030517578125 180.36997985839844 116.47496795654297" stroke-width="3.0" fill="none" stroke="rgb(0, 0, 0)" stroke-opacity="1.0" stroke-linecap="round" stroke-linejoin="round"/>
    <path d="M 47.5957145690918 135.93267822265625 C 78.84833526611328 129.74681091308594 76.22582244873047 137.31991577148438 72.7425308227539 113.98278045654297" stroke-width="3.0" fill="none" stroke="rgb(0, 0, 0)" stroke-opacity="1.0" stroke-linecap="round" stroke-linejoin="round"/>
    <path d="M 135.95887756347656 118.42161560058594 C 129.5367431640625 124.68340301513672 135.6102752685547 124.93904876708984 132.41387939453125 122.62554168701172" stroke-width="3.0" fill="none" stroke="rgb(0, 0, 0)" stroke-opacity="1.0" stroke-linecap="round" stroke-linejoin="round"/>
    <path d="M 165.67440795898438 128.56463623046875 C 189.55996704101562 159.89356994628906 133.71099853515625 210.36898803710938 159.8460693359375 196.11288452148438" stroke-width="3.0" fill="none" stroke="rgb(0, 0, 0)" stroke-opacity="1.0" stroke-linecap="round" stroke-linejoin="round"/>
    <path d="M 16.849380493164062 76.07752990722656 C 76.01762390136719 1.8106900453567505 -3.864793300628662 62.92378616333008 68.7486343383789 41.29443359375" stroke-width="3.0" fill="none" stroke="rgb(0, 0, 0)" stroke-opacity="1.0" stroke-linecap="round" stroke-linejoin="round"/>
    <path d="M 86.69139862060547 67.76130676269531 C 51.50840759277344 34.60808181762695 26.676794052124023 22.26917266845703 81.22515869140625 54.68461227416992" stroke-width="3.0" fill="none" stroke="rgb(0, 0, 0)" stroke-opacity="1.0" stroke-linecap="round" stroke-linejoin="round"/>
  </g>
</svg>
