<?xml version="1.0" ?>
<svg xmlns="http://www.w3.org/2000/svg" version="1.1" width="224" height="224">
  <defs/>
  <g>
    <path d="M 79.54647064208984 111.08314514160156 C 76.45825958251953 130.65411376953125 77.65863800048828 117.55073547363281 78.39983367919922 122.85614776611328" stroke-width="3.0" fill="none" stroke="rgb(0, 0, 0)" stroke-opacity="1.0" stroke-linecap="round" stroke-linejoin="round"/>
    <path d="M 74.08683013916016 121.66337585449219 C 105.60842895507812 137.24485778808594 123.40352630615234 129.35618591308594 137.3392791748047 129.4883575439453" stroke-width="3.0" fill="none" stroke="rgb(0, 0, 0)" stroke-opacity="1.0" stroke-linecap="round" stroke-linejoin="round"/>
    <path d="M 171.99330139160156 102.87258911132812 C 215.95745849609375 115.5124740600586 193.60986328125 134.5635223388672 218.16441345214844 144.20472717285156" stroke-width="3.0" fill="none" stroke="rgb(0, 0, 0)" stroke-opacity="1.0" stroke-linecap="round" stroke-linejoin="round"/>
    <path d="M 45.93790817260742 61.50973892211914 C 74.4494400024414 154.06658935546875 44.71183395385742 96.644287109375 35.99641036987305 148.498291015625" stroke-width="3.0" fill="none" stroke="rgb(0, 0, 0)" stroke-opacity="1.0" stroke-linecap="round" stroke-linejoin="round"/>
    <path d="M 106.20472717285156 86.76937866210938 C 146.0416259765625 90.33073425292969 142.0471649169922 80.14099884033203 181.25440979003906 108.93572235107422" stroke-width="3.0" fill="none" stroke="rgb(0, 0, 0)" stroke-opacity="1.0" stroke-linecap="round" stroke-linejoin="round"/>
    <path d="M 137.92596435546875 125.68470764160156 C 134.226318359375 125.58135986328125 149.96400451660156 118.2575454711914 122.130615234375 126.76695251464844" stroke-width="3.0" fill="none" stroke="rgb(0, 0, 0)" stroke-opacity="1.0" stroke-linecap="round" stroke-linejoin="round"/>
    <path d="M 69.08240509033203 123.2771224975586 C 91.06795501708984 105.12366485595703 62.02047348022461 132.3355712890625 79.85707092285156 116.9410629272461" stroke-width="3.0" fill="none" stroke="rgb(0, 0, 0)" stroke-opacity="1.0" stroke-linecap="round" stroke-linejoin="round"/>
    <path d="M 140.05047607421875 132.93356323242188 C 121.13204193115234 176.52401733398438 142.672119140625 156.54714965820312 99.73281860351562 184.84010314941406" stroke-width="3.0" fill="none" stroke="rgb(0, 0, 0)" stroke-opacity="1.0" stroke-linecap="round" stroke-linejoin="round"/>
    <path d="M 47.23997116088867 130.69850158691406 C -12.895442008972168 214.5065460205078 68.54359436035156 128.08445739746094 16.55038070678711 167.5347442626953" stroke-width="3.0" fill="none" stroke="rgb(0, 0, 0)" stroke-opacity="1.0" stroke-linecap="round" stroke-linejoin="round"/>
    <path d="M 32.679588317871094 37.605751037597656 C 105.9094009399414 72.11779022216797 53.01221466064453 63.80726623535156 106.46138000488281 86.55396270751953" stroke-width="3.0" fill="none" stroke="rgb(0, 0, 0)" stroke-opacity="1.0" stroke-linecap="round" stroke-linejoin="round"/>
    <path d="M 132.9722442626953 163.16477966308594 C 155.5724639892578 114.5455093383789 152.93307495117188 158.67140197753906 181.7081756591797 110.11762237548828" stroke-width="3.0" fill="none" stroke="rgb(0, 0, 0)" stroke-opacity="1.0" stroke-linecap="round" stroke-linejoin="round"/>
    <path d="M 38.184112548828125 160.00230407714844 C 61.49531555175781 114.8203125 44.832740783691406 149.39657592773438 80.60453796386719 114.33917236328125" stroke-width="3.0" fill="none" stroke="rgb(0, 0, 0)" stroke-opacity="1.0" stroke-linecap="round" stroke-linejoin="round"/>
    <path d="M 159.74981689453125 120.2342529296875 C 136.32130432128906 129.84141540527344 162.3707275390625 116.56788635253906 103.70748138427734 130.75653076171875" stroke-width="3.0" fill="none" stroke="rgb(0, 0, 0)" stroke-opacity="1.0" stroke-linecap="round" stroke-linejoin="round"/>
    <path d="M 173.22508239746094 109.58940887451172 C 166.99209594726562 231.82162475585938 138.0408172607422 182.75369262695312 161.55296325683594 190.77943420410156" stroke-width="3.0" fill="none" stroke="rgb(0, 0, 0)" stroke-opacity="1.0" stroke-linecap="round" stroke-linejoin="round"/>
    <path d="M 11.824240684509277 74.28899383544922 C 69.8815689086914 4.19902229309082 -19.7387752532959 82.06359100341797 51.4111328125 35.28877639770508" stroke-width="3.0" fill="none" stroke="rgb(0, 0, 0)" stroke-opacity="1.0" stroke-linecap="round" stroke-linejoin="round"/>
    <path d="M 95.94490814208984 74.67587280273438 C 75.9291763305664 20.908769607543945 -36.97883987426758 41.8001823425293 82.06133270263672 49.014095306396484" stroke-width="3.0" fill="none" stroke="rgb(0, 0, 0)" stroke-opacity="1.0" stroke-linecap="round" stroke-linejoin="round"/>
  </g>
</svg>
