<?xml version="1.0" ?>
<svg xmlns="http://www.w3.org/2000/svg" version="1.1" width="224" height="224">
  <defs/>
  <g>
    <path d="M 80.10700988769531 120.95429229736328 C 89.93756866455078 124.8255844116211 79.71632385253906 129.50340270996094 81.01416015625 119.84473419189453" stroke-width="3.0" fill="none" stroke="rgb(0, 0, 0)" stroke-opacity="1.0" stroke-linecap="round" stroke-linejoin="round"/>
    <path d="M 73.38396453857422 126.26898193359375 C 110.6898193359375 134.78146362304688 113.16399383544922 127.0466079711914 134.5699462890625 126.58316802978516" stroke-width="3.0" fill="none" stroke="rgb(0, 0, 0)" stroke-opacity="1.0" stroke-linecap="round" stroke-linejoin="round"/>
    <path d="M 151.04588317871094 89.4873046875 C 228.24546813964844 120.28256225585938 190.67730712890625 129.41128540039062 213.37359619140625 145.20091247558594" stroke-width="3.0" fill="none" stroke="rgb(0, 0, 0)" stroke-opacity="1.0" stroke-linecap="round" stroke-linejoin="round"/>
    <path d="M 56.08145523071289 69.61957550048828 C 40.43465805053711 144.98739624023438 84.14168548583984 84.19939422607422 31.378129959106445 156.76219177246094" stroke-width="3.0" fill="none" stroke="rgb(0, 0, 0)" stroke-opacity="1.0" stroke-linecap="round" stroke-linejoin="round"/>
    <path d="M 120.03338623046875 87.92095947265625 C 140.5663299560547 90.28189849853516 156.47987365722656 82.62860870361328 171.21218872070312 104.04637908935547" stroke-width="3.0" fill="none" stroke="rgb(0, 0, 0)" stroke-opacity="1.0" stroke-linecap="round" stroke-linejoin="round"/>
    <path d="M 147.96939086914062 127.46514892578125 C 142.9597625732422 124.01093292236328 124.70449829101562 128.67149353027344 134.63665771484375 124.83953094482422" stroke-width="3.0" fill="none" stroke="rgb(0, 0, 0)" stroke-opacity="1.0" stroke-linecap="round" stroke-linejoin="round"/>
    <path d="M 79.9290542602539 122.32674407958984 C 86.05826568603516 121.93702697753906 66.77029418945312 129.76535034179688 80.21867370605469 117.1131591796875" stroke-width="3.0" fill="none" stroke="rgb(0, 0, 0)" stroke-opacity="1.0" stroke-linecap="round" stroke-linejoin="round"/>
    <path d="M 140.3124542236328 127.15689086914062 C 121.88809204101562 175.10536193847656 146.5932159423828 155.62144470214844 97.50077819824219 184.1783447265625" stroke-width="3.0" fill="none" stroke="rgb(0, 0, 0)" stroke-opacity="1.0" stroke-linecap="round" stroke-linejoin="round"/>
    <path d="M 56.1569709777832 126.35796356201172 C -6.671570777893066 171.8425750732422 47.90220642089844 153.1100311279297 14.523113250732422 169.6785125732422" stroke-width="3.0" fill="none" stroke="rgb(0, 0, 0)" stroke-opacity="1.0" stroke-linecap="round" stroke-linejoin="round"/>
    <path d="M 52.641544342041016 37.54412078857422 C 112.04646301269531 101.16831970214844 76.75829315185547 78.92760467529297 133.60536193847656 90.80403900146484" stroke-width="3.0" fill="none" stroke="rgb(0, 0, 0)" stroke-opacity="1.0" stroke-linecap="round" stroke-linejoin="round"/>
    <path d="M 133.43838500976562 159.36907958984375 C 146.58407592773438 116.70913696289062 156.45364379882812 153.80213928222656 178.6951904296875 107.08185577392578" stroke-width="3.0" fill="none" stroke="rgb(0, 0, 0)" stroke-opacity="1.0" stroke-linecap="round" stroke-linejoin="round"/>
    <path d="M 29.264925003051758 152.93035888671875 C 79.20401000976562 117.63365936279297 58.087364196777344 148.56028747558594 77.45449829101562 110.7500991821289" stroke-width="3.0" fill="none" stroke="rgb(0, 0, 0)" stroke-opacity="1.0" stroke-linecap="round" stroke-linejoin="round"/>
    <path d="M 157.8936309814453 121.45033264160156 C 140.14512634277344 132.08224487304688 137.25340270996094 123.21186828613281 139.47073364257812 128.79881286621094" stroke-width="3.0" fill="none" stroke="rgb(0, 0, 0)" stroke-opacity="1.0" stroke-linecap="round" stroke-linejoin="round"/>
    <path d="M 171.95103454589844 110.47946166992188 C 175.8507843017578 170.0204315185547 142.9640655517578 198.79100036621094 158.0255126953125 191.73817443847656" stroke-width="3.0" fill="none" stroke="rgb(0, 0, 0)" stroke-opacity="1.0" stroke-linecap="round" stroke-linejoin="round"/>
    <path d="M 12.97927474975586 75.8282470703125 C 76.49878692626953 13.566627502441406 -13.461856842041016 58.71122741699219 68.31912994384766 46.159576416015625" stroke-width="3.0" fill="none" stroke="rgb(0, 0, 0)" stroke-opacity="1.0" stroke-linecap="round" stroke-linejoin="round"/>
    <path d="M 86.6899642944336 66.42440795898438 C 38.71609878540039 37.864803314208984 4.611699104309082 23.070449829101562 80.69951629638672 55.58298110961914" stroke-width="3.0" fill="none" stroke="rgb(0, 0, 0)" stroke-opacity="1.0" stroke-linecap="round" stroke-linejoin="round"/>
  </g>
</svg>
