<?xml version="1.0" ?>
<svg xmlns="http://www.w3.org/2000/svg" version="1.1" width="224" height="224">
  <defs/>
  <g>
    <path d="M 80.69219207763672 124.35122680664062 C 82.38406372070312 121.99503326416016 78.68199157714844 123.64033508300781 73.63707733154297 118.19161987304688" stroke-width="3.0" fill="none" stroke="rgb(0, 0, 0)" stroke-opacity="1.0" stroke-linecap="round" stroke-linejoin="round"/>
    <path d="M 74.71161651611328 125.51995849609375 C 99.56071472167969 136.86187744140625 120.0909423828125 123.78723907470703 136.6377410888672 124.7913589477539" stroke-width="3.0" fill="none" stroke="rgb(0, 0, 0)" stroke-opacity="1.0" stroke-linecap="round" stroke-linejoin="round"/>
    <path d="M 155.2818145751953 92.0552978515625 C 228.75991821289062 124.98817443847656 189.23753356933594 132.7781982421875 214.15809631347656 142.70375061035156" stroke-width="3.0" fill="none" stroke="rgb(0, 0, 0)" stroke-opacity="1.0" stroke-linecap="round" stroke-linejoin="round"/>
    <path d="M 59.258872985839844 74.1514663696289 C 44.77618408203125 143.15057373046875 92.43817901611328 101.24967193603516 37.16313171386719 156.94638061523438" stroke-width="3.0" fill="none" stroke="rgb(0, 0, 0)" stroke-opacity="1.0" stroke-linecap="round" stroke-linejoin="round"/>
    <path d="M 130.0231170654297 89.85591125488281 C 137.59207153320312 90.1277847290039 162.75482177734375 85.3995590209961 175.50088500976562 108.08606719970703" stroke-width="3.0" fill="none" stroke="rgb(0, 0, 0)" stroke-opacity="1.0" stroke-linecap="round" stroke-linejoin="round"/>
    <path d="M 136.68507385253906 123.53678131103516 C 134.28359985351562 121.2122802734375 118.00553131103516 127.41154479980469 124.11258697509766 125.23141479492188" stroke-width="3.0" fill="none" stroke="rgb(0, 0, 0)" stroke-opacity="1.0" stroke-linecap="round" stroke-linejoin="round"/>
    <path d="M 79.63309478759766 124.15625 C 76.52188110351562 119.79856872558594 69.5680160522461 119.3035888671875 81.13695526123047 125.2147216796875" stroke-width="3.0" fill="none" stroke="rgb(0, 0, 0)" stroke-opacity="1.0" stroke-linecap="round" stroke-linejoin="round"/>
    <path d="M 142.08859252929688 134.23776245117188 C 128.3202362060547 166.52845764160156 146.19390869140625 149.75234985351562 98.8591079711914 184.9788360595703" stroke-width="3.0" fill="none" stroke="rgb(0, 0, 0)" stroke-opacity="1.0" stroke-linecap="round" stroke-linejoin="round"/>
    <path d="M 61.171470642089844 117.00700378417969 C 2.1937808990478516 172.20933532714844 49.219547271728516 154.15484619140625 14.63924503326416 170.6656951904297" stroke-width="3.0" fill="none" stroke="rgb(0, 0, 0)" stroke-opacity="1.0" stroke-linecap="round" stroke-linejoin="round"/>
    <path d="M 61.722381591796875 43.448665618896484 C 101.02730560302734 104.25798034667969 94.08915710449219 81.76161193847656 134.63963317871094 92.31695556640625" stroke-width="3.0" fill="none" stroke="rgb(0, 0, 0)" stroke-opacity="1.0" stroke-linecap="round" stroke-linejoin="round"/>
    <path d="M 139.43138122558594 141.1663055419922 C 147.15670776367188 126.9717788696289 142.5137176513672 142.17259216308594 172.5110321044922 113.3620834350586" stroke-width="3.0" fill="none" stroke="rgb(0, 0, 0)" stroke-opacity="1.0" stroke-linecap="round" stroke-linejoin="round"/>
    <path d="M 42.26755905151367 146.49728393554688 C 78.56381225585938 129.49928283691406 71.37178802490234 143.8241729736328 75.05906677246094 115.10198974609375" stroke-width="3.0" fill="none" stroke="rgb(0, 0, 0)" stroke-opacity="1.0" stroke-linecap="round" stroke-linejoin="round"/>
    <path d="M 140.6056671142578 118.97022247314453 C 130.3384552001953 126.61495971679688 135.64202880859375 125.52579498291016 131.65599060058594 125.64154052734375" stroke-width="3.0" fill="none" stroke="rgb(0, 0, 0)" stroke-opacity="1.0" stroke-linecap="round" stroke-linejoin="round"/>
    <path d="M 169.25587463378906 121.76240539550781 C 182.75668334960938 143.84500122070312 140.14503479003906 197.65411376953125 161.92840576171875 190.46775817871094" stroke-width="3.0" fill="none" stroke="rgb(0, 0, 0)" stroke-opacity="1.0" stroke-linecap="round" stroke-linejoin="round"/>
    <path d="M 14.159549713134766 76.486572265625 C 78.82523345947266 8.027090072631836 -7.823500633239746 67.70661926269531 69.45722198486328 42.83073043823242" stroke-width="3.0" fill="none" stroke="rgb(0, 0, 0)" stroke-opacity="1.0" stroke-linecap="round" stroke-linejoin="round"/>
    <path d="M 83.24996185302734 67.02011108398438 C 46.00996780395508 42.44647979736328 18.667160034179688 30.81009292602539 80.0224609375 57.369346618652344" stroke-width="3.0" fill="none" stroke="rgb(0, 0, 0)" stroke-opacity="1.0" stroke-linecap="round" stroke-linejoin="round"/>
  </g>
</svg>
