<?xml version="1.0" ?>
<svg xmlns="http://www.w3.org/2000/svg" version="1.1" width="224" height="224">
  <defs/>
  <g>
    <path d="M 76.90979766845703 122.9478988647461 C 82.34725189208984 126.77603912353516 84.88948822021484 122.18077850341797 74.10780334472656 117.44322204589844" stroke-width="3.0" fill="none" stroke="rgb(0, 0, 0)" stroke-opacity="1.0" stroke-linecap="round" stroke-linejoin="round"/>
    <path d="M 73.5853271484375 124.19611358642578 C 106.35822296142578 135.72610473632812 123.92437744140625 124.16976165771484 133.1518096923828 125.49076843261719" stroke-width="3.0" fill="none" stroke="rgb(0, 0, 0)" stroke-opacity="1.0" stroke-linecap="round" stroke-linejoin="round"/>
    <path d="M 155.26817321777344 91.57890319824219 C 223.95887756347656 119.59918975830078 187.6268310546875 134.63392639160156 213.92881774902344 142.64022827148438" stroke-width="3.0" fill="none" stroke="rgb(0, 0, 0)" stroke-opacity="1.0" stroke-linecap="round" stroke-linejoin="round"/>
    <path d="M 59.967411041259766 70.2945556640625 C 32.99244689941406 141.12704467773438 80.77067565917969 91.13838195800781 32.879215240478516 159.161376953125" stroke-width="3.0" fill="none" stroke="rgb(0, 0, 0)" stroke-opacity="1.0" stroke-linecap="round" stroke-linejoin="round"/>
    <path d="M 126.74967193603516 90.47718048095703 C 132.8520050048828 87.72045135498047 168.5965576171875 86.65194702148438 177.23068237304688 107.77500915527344" stroke-width="3.0" fill="none" stroke="rgb(0, 0, 0)" stroke-opacity="1.0" stroke-linecap="round" stroke-linejoin="round"/>
    <path d="M 132.47825622558594 125.92630004882812 C 134.9497528076172 122.89237976074219 117.500244140625 129.03172302246094 124.1504898071289 127.17753601074219" stroke-width="3.0" fill="none" stroke="rgb(0, 0, 0)" stroke-opacity="1.0" stroke-linecap="round" stroke-linejoin="round"/>
    <path d="M 78.56482696533203 122.02830505371094 C 76.6357650756836 115.44644927978516 67.13970947265625 119.90397644042969 78.60594940185547 123.18077087402344" stroke-width="3.0" fill="none" stroke="rgb(0, 0, 0)" stroke-opacity="1.0" stroke-linecap="round" stroke-linejoin="round"/>
    <path d="M 139.02597045898438 126.7165298461914 C 120.10059356689453 162.52804565429688 142.16677856445312 149.92730712890625 99.43601989746094 187.86016845703125" stroke-width="3.0" fill="none" stroke="rgb(0, 0, 0)" stroke-opacity="1.0" stroke-linecap="round" stroke-linejoin="round"/>
    <path d="M 57.65747833251953 123.4356689453125 C -1.932318925857544 172.89761352539062 50.124961853027344 155.38290405273438 17.529338836669922 168.74217224121094" stroke-width="3.0" fill="none" stroke="rgb(0, 0, 0)" stroke-opacity="1.0" stroke-linecap="round" stroke-linejoin="round"/>
    <path d="M 56.327632904052734 38.56984329223633 C 108.48990631103516 100.86177825927734 90.34490203857422 81.08618927001953 132.55166625976562 91.75489044189453" stroke-width="3.0" fill="none" stroke="rgb(0, 0, 0)" stroke-opacity="1.0" stroke-linecap="round" stroke-linejoin="round"/>
    <path d="M 133.21327209472656 156.8568115234375 C 148.87229919433594 122.18641662597656 146.0167236328125 145.40560913085938 175.1253662109375 113.02676391601562" stroke-width="3.0" fill="none" stroke="rgb(0, 0, 0)" stroke-opacity="1.0" stroke-linecap="round" stroke-linejoin="round"/>
    <path d="M 33.58070755004883 154.11337280273438 C 73.46183013916016 124.44649505615234 64.15838623046875 136.367919921875 74.95706939697266 115.79159545898438" stroke-width="3.0" fill="none" stroke="rgb(0, 0, 0)" stroke-opacity="1.0" stroke-linecap="round" stroke-linejoin="round"/>
    <path d="M 139.1874237060547 123.06371307373047 C 129.7198028564453 119.9561767578125 135.503662109375 121.42654418945312 134.578369140625 118.74478912353516" stroke-width="3.0" fill="none" stroke="rgb(0, 0, 0)" stroke-opacity="1.0" stroke-linecap="round" stroke-linejoin="round"/>
    <path d="M 172.9661102294922 121.91261291503906 C 182.10467529296875 146.4120330810547 143.00453186035156 199.8346405029297 158.60745239257812 193.4678497314453" stroke-width="3.0" fill="none" stroke="rgb(0, 0, 0)" stroke-opacity="1.0" stroke-linecap="round" stroke-linejoin="round"/>
    <path d="M 14.225018501281738 73.33023834228516 C 85.40616607666016 12.462376594543457 -3.631971597671509 61.83959197998047 69.69058990478516 43.84010314941406" stroke-width="3.0" fill="none" stroke="rgb(0, 0, 0)" stroke-opacity="1.0" stroke-linecap="round" stroke-linejoin="round"/>
    <path d="M 84.13551330566406 63.99623489379883 C 45.55051803588867 40.97126770019531 20.633316040039062 24.003448486328125 80.73831176757812 56.01959991455078" stroke-width="3.0" fill="none" stroke="rgb(0, 0, 0)" stroke-opacity="1.0" stroke-linecap="round" stroke-linejoin="round"/>
  </g>
</svg>
