<?xml version="1.0" ?>
<svg xmlns="http://www.w3.org/2000/svg" version="1.1" width="224" height="224">
  <defs/>
  <g>
    <path d="M 106.01887512207031 104.39481353759766 C 106.7894287109375 105.62110900878906 115.21737670898438 104.97562408447266 97.72953033447266 103.87889862060547" stroke-width="3.0" fill="none" stroke="rgb(0, 0, 0)" stroke-opacity="1.0" stroke-linecap="round" stroke-linejoin="round"/>
    <path d="M 96.8602066040039 135.27047729492188 C 114.07929229736328 119.10816192626953 100.14920806884766 137.7317657470703 129.67431640625 120.92549896240234" stroke-width="3.0" fill="none" stroke="rgb(0, 0, 0)" stroke-opacity="1.0" stroke-linecap="round" stroke-linejoin="round"/>
    <path d="M 178.576171875 102.7191390991211 C 194.81460571289062 118.7505111694336 191.1444549560547 105.84339141845703 205.38430786132812 143.7799530029297" stroke-width="3.0" fill="none" stroke="rgb(0, 0, 0)" stroke-opacity="1.0" stroke-linecap="round" stroke-linejoin="round"/>
    <path d="M 40.55238342285156 90.89038848876953 C 48.78981399536133 115.67829895019531 57.715030670166016 107.55743408203125 59.53378677368164 121.06678771972656" stroke-width="3.0" fill="none" stroke="rgb(0, 0, 0)" stroke-opacity="1.0" stroke-linecap="round" stroke-linejoin="round"/>
    <path d="M 145.40765380859375 91.40518951416016 C 144.42938232421875 91.5473861694336 143.75387573242188 92.66648864746094 148.7769775390625 94.23943328857422" stroke-width="3.0" fill="none" stroke="rgb(0, 0, 0)" stroke-opacity="1.0" stroke-linecap="round" stroke-linejoin="round"/>
    <path d="M 136.90567016601562 116.9645004272461 C 129.34950256347656 125.00719451904297 112.84275817871094 124.47785186767578 130.32041931152344 120.42858123779297" stroke-width="3.0" fill="none" stroke="rgb(0, 0, 0)" stroke-opacity="1.0" stroke-linecap="round" stroke-linejoin="round"/>
    <path d="M 80.84619903564453 105.29266357421875 C 83.83219909667969 96.15223693847656 80.06758117675781 97.71241760253906 78.9598388671875 109.96497344970703" stroke-width="3.0" fill="none" stroke="rgb(0, 0, 0)" stroke-opacity="1.0" stroke-linecap="round" stroke-linejoin="round"/>
    <path d="M 130.68460083007812 134.93739318847656 C 137.96144104003906 152.5587158203125 134.88192749023438 142.73416137695312 118.15911102294922 174.4887237548828" stroke-width="3.0" fill="none" stroke="rgb(0, 0, 0)" stroke-opacity="1.0" stroke-linecap="round" stroke-linejoin="round"/>
    <path d="M 46.07354736328125 155.92884826660156 C 36.23649597167969 166.59657287597656 50.63351058959961 152.1100616455078 15.359437942504883 165.89639282226562" stroke-width="3.0" fill="none" stroke="rgb(0, 0, 0)" stroke-opacity="1.0" stroke-linecap="round" stroke-linejoin="round"/>
    <path d="M 102.4227066040039 85.70368194580078 C 110.57669067382812 84.70161437988281 107.22176361083984 85.26887512207031 113.78764343261719 82.43645477294922" stroke-width="3.0" fill="none" stroke="rgb(0, 0, 0)" stroke-opacity="1.0" stroke-linecap="round" stroke-linejoin="round"/>
    <path d="M 139.33120727539062 128.4443359375 C 140.4493408203125 132.8323516845703 146.7957000732422 138.6512451171875 157.72283935546875 136.92747497558594" stroke-width="3.0" fill="none" stroke="rgb(0, 0, 0)" stroke-opacity="1.0" stroke-linecap="round" stroke-linejoin="round"/>
    <path d="M 77.75072479248047 115.70679473876953 C 84.54743194580078 102.57829284667969 81.9711685180664 94.94137573242188 83.00560760498047 104.05667877197266" stroke-width="3.0" fill="none" stroke="rgb(0, 0, 0)" stroke-opacity="1.0" stroke-linecap="round" stroke-linejoin="round"/>
    <path d="M 135.59271240234375 105.79808044433594 C 136.38223266601562 107.06071472167969 133.57350158691406 102.4027328491211 139.661865234375 110.63783264160156" stroke-width="3.0" fill="none" stroke="rgb(0, 0, 0)" stroke-opacity="1.0" stroke-linecap="round" stroke-linejoin="round"/>
    <path d="M 145.8419647216797 136.52593994140625 C 169.36746215820312 138.34327697753906 161.5144500732422 160.8739013671875 169.67013549804688 185.45468139648438" stroke-width="3.0" fill="none" stroke="rgb(0, 0, 0)" stroke-opacity="1.0" stroke-linecap="round" stroke-linejoin="round"/>
    <path d="M 33.809383392333984 38.19214630126953 C 50.17926788330078 29.54104232788086 73.82560729980469 51.71750259399414 73.74522399902344 41.29176712036133" stroke-width="3.0" fill="none" stroke="rgb(0, 0, 0)" stroke-opacity="1.0" stroke-linecap="round" stroke-linejoin="round"/>
    <path d="M 88.62873077392578 63.487117767333984 C 78.37541961669922 54.88574981689453 74.21623992919922 58.35675048828125 76.68132019042969 55.69108200073242" stroke-width="3.0" fill="none" stroke="rgb(0, 0, 0)" stroke-opacity="1.0" stroke-linecap="round" stroke-linejoin="round"/>
  </g>
</svg>
