<?xml version="1.0" ?>
<svg xmlns="http://www.w3.org/2000/svg" version="1.1" width="224" height="224">
  <defs/>
  <g>
    <path d="M 87.01216888427734 125.20796966552734 C 81.7559814453125 121.77272033691406 79.52574920654297 122.34180450439453 74.89959716796875 117.06365203857422" stroke-width="3.0" fill="none" stroke="rgb(0, 0, 0)" stroke-opacity="1.0" stroke-linecap="round" stroke-linejoin="round"/>
    <path d="M 74.73051452636719 118.55674743652344 C 97.64469909667969 136.88723754882812 112.60262298583984 124.92528533935547 133.37722778320312 123.88516235351562" stroke-width="3.0" fill="none" stroke="rgb(0, 0, 0)" stroke-opacity="1.0" stroke-linecap="round" stroke-linejoin="round"/>
    <path d="M 155.7378387451172 91.63536071777344 C 225.2308807373047 120.96346282958984 185.4950714111328 130.07228088378906 216.69639587402344 144.4180908203125" stroke-width="3.0" fill="none" stroke="rgb(0, 0, 0)" stroke-opacity="1.0" stroke-linecap="round" stroke-linejoin="round"/>
    <path d="M 59.86400604248047 66.3492660522461 C 44.36576461791992 152.15829467773438 85.70520782470703 100.25371551513672 42.755828857421875 149.75396728515625" stroke-width="3.0" fill="none" stroke="rgb(0, 0, 0)" stroke-opacity="1.0" stroke-linecap="round" stroke-linejoin="round"/>
    <path d="M 135.46031188964844 89.96946716308594 C 144.1057891845703 92.38529205322266 164.4369354248047 86.27461242675781 177.70191955566406 107.61197662353516" stroke-width="3.0" fill="none" stroke="rgb(0, 0, 0)" stroke-opacity="1.0" stroke-linecap="round" stroke-linejoin="round"/>
    <path d="M 133.2713623046875 121.46240997314453 C 132.2113494873047 120.17517852783203 118.98748016357422 127.01892852783203 124.57617950439453 124.74009704589844" stroke-width="3.0" fill="none" stroke="rgb(0, 0, 0)" stroke-opacity="1.0" stroke-linecap="round" stroke-linejoin="round"/>
    <path d="M 78.0166244506836 121.99335479736328 C 79.13150024414062 118.35966491699219 64.97209167480469 123.78324127197266 85.98414611816406 126.01110076904297" stroke-width="3.0" fill="none" stroke="rgb(0, 0, 0)" stroke-opacity="1.0" stroke-linecap="round" stroke-linejoin="round"/>
    <path d="M 141.98768615722656 134.09156799316406 C 123.74369049072266 163.83558654785156 149.7124481201172 149.36984252929688 98.11375427246094 185.0496368408203" stroke-width="3.0" fill="none" stroke="rgb(0, 0, 0)" stroke-opacity="1.0" stroke-linecap="round" stroke-linejoin="round"/>
    <path d="M 61.865333557128906 114.70623016357422 C 1.9821723699569702 171.93089294433594 65.52556610107422 142.02699279785156 15.212580680847168 169.5046844482422" stroke-width="3.0" fill="none" stroke="rgb(0, 0, 0)" stroke-opacity="1.0" stroke-linecap="round" stroke-linejoin="round"/>
    <path d="M 70.8985824584961 42.32406234741211 C 90.3507308959961 98.88485717773438 101.01087188720703 78.73231506347656 141.0271759033203 90.46293640136719" stroke-width="3.0" fill="none" stroke="rgb(0, 0, 0)" stroke-opacity="1.0" stroke-linecap="round" stroke-linejoin="round"/>
    <path d="M 139.87400817871094 135.56414794921875 C 139.15245056152344 130.56716918945312 139.96507263183594 139.82737731933594 176.76669311523438 115.9830322265625" stroke-width="3.0" fill="none" stroke="rgb(0, 0, 0)" stroke-opacity="1.0" stroke-linecap="round" stroke-linejoin="round"/>
    <path d="M 52.2485466003418 141.9233856201172 C 79.72234344482422 127.07609558105469 72.40424346923828 136.9127655029297 74.77584838867188 113.6444091796875" stroke-width="3.0" fill="none" stroke="rgb(0, 0, 0)" stroke-opacity="1.0" stroke-linecap="round" stroke-linejoin="round"/>
    <path d="M 138.03529357910156 117.59791564941406 C 130.28558349609375 124.58671569824219 136.15835571289062 126.3368911743164 132.51087951660156 122.99730682373047" stroke-width="3.0" fill="none" stroke="rgb(0, 0, 0)" stroke-opacity="1.0" stroke-linecap="round" stroke-linejoin="round"/>
    <path d="M 163.96688842773438 127.58734130859375 C 191.11395263671875 165.73033142089844 134.59249877929688 210.0100555419922 160.27796936035156 195.4770965576172" stroke-width="3.0" fill="none" stroke="rgb(0, 0, 0)" stroke-opacity="1.0" stroke-linecap="round" stroke-linejoin="round"/>
    <path d="M 11.770395278930664 76.09178161621094 C 68.23748779296875 -4.33478307723999 7.478952407836914 62.91508102416992 64.86197662353516 34.06121063232422" stroke-width="3.0" fill="none" stroke="rgb(0, 0, 0)" stroke-opacity="1.0" stroke-linecap="round" stroke-linejoin="round"/>
    <path d="M 86.15415954589844 63.628639221191406 C 49.41379928588867 36.02598571777344 31.681699752807617 18.1318359375 81.3626708984375 54.132320404052734" stroke-width="3.0" fill="none" stroke="rgb(0, 0, 0)" stroke-opacity="1.0" stroke-linecap="round" stroke-linejoin="round"/>
  </g>
</svg>
