<?xml version="1.0" ?>
<svg xmlns="http://www.w3.org/2000/svg" version="1.1" width="224" height="224">
  <defs/>
  <g>
    <path d="M 81.05770111083984 118.68254852294922 C 90.70081329345703 129.80502319335938 81.22003173828125 122.96830749511719 78.08209991455078 122.42503356933594" stroke-width="3.0" fill="none" stroke="rgb(0, 0, 0)" stroke-opacity="1.0" stroke-linecap="round" stroke-linejoin="round"/>
    <path d="M 73.6399154663086 121.46647644042969 C 114.50870513916016 133.12466430664062 108.53416442871094 123.83016204833984 141.29843139648438 120.0464859008789" stroke-width="3.0" fill="none" stroke="rgb(0, 0, 0)" stroke-opacity="1.0" stroke-linecap="round" stroke-linejoin="round"/>
    <path d="M 157.01797485351562 91.51592254638672 C 224.69252014160156 122.84309387207031 188.17816162109375 130.32968139648438 214.48614501953125 146.2930145263672" stroke-width="3.0" fill="none" stroke="rgb(0, 0, 0)" stroke-opacity="1.0" stroke-linecap="round" stroke-linejoin="round"/>
    <path d="M 58.86937713623047 57.27250671386719 C 41.14519119262695 156.47120666503906 81.37142944335938 79.51509857177734 37.05929183959961 156.74636840820312" stroke-width="3.0" fill="none" stroke="rgb(0, 0, 0)" stroke-opacity="1.0" stroke-linecap="round" stroke-linejoin="round"/>
    <path d="M 124.00362396240234 88.2303466796875 C 135.4249267578125 89.273193359375 153.95526123046875 81.54733276367188 171.6649932861328 103.62293243408203" stroke-width="3.0" fill="none" stroke="rgb(0, 0, 0)" stroke-opacity="1.0" stroke-linecap="round" stroke-linejoin="round"/>
    <path d="M 155.674072265625 122.72175598144531 C 142.91329956054688 131.84896850585938 132.695068359375 126.886474609375 136.6715087890625 121.97676849365234" stroke-width="3.0" fill="none" stroke="rgb(0, 0, 0)" stroke-opacity="1.0" stroke-linecap="round" stroke-linejoin="round"/>
    <path d="M 76.61630249023438 118.83694458007812 C 95.60897827148438 113.69435119628906 69.7773666381836 132.689697265625 82.12665557861328 113.72830200195312" stroke-width="3.0" fill="none" stroke="rgb(0, 0, 0)" stroke-opacity="1.0" stroke-linecap="round" stroke-linejoin="round"/>
    <path d="M 138.87705993652344 129.20993041992188 C 125.57247924804688 175.17420959472656 138.80960083007812 154.05337524414062 97.8777084350586 183.55882263183594" stroke-width="3.0" fill="none" stroke="rgb(0, 0, 0)" stroke-opacity="1.0" stroke-linecap="round" stroke-linejoin="round"/>
    <path d="M 54.77541732788086 126.32416534423828 C -1.8115262985229492 171.82594299316406 56.676048278808594 153.48179626464844 16.148910522460938 168.77783203125" stroke-width="3.0" fill="none" stroke="rgb(0, 0, 0)" stroke-opacity="1.0" stroke-linecap="round" stroke-linejoin="round"/>
    <path d="M 45.762428283691406 41.31936264038086 C 119.73133087158203 84.33379364013672 54.39839553833008 77.33531188964844 123.01814270019531 89.05452728271484" stroke-width="3.0" fill="none" stroke="rgb(0, 0, 0)" stroke-opacity="1.0" stroke-linecap="round" stroke-linejoin="round"/>
    <path d="M 133.1580810546875 158.1859893798828 C 151.6040802001953 116.9456787109375 151.00279235839844 152.99342346191406 180.10696411132812 109.41271209716797" stroke-width="3.0" fill="none" stroke="rgb(0, 0, 0)" stroke-opacity="1.0" stroke-linecap="round" stroke-linejoin="round"/>
    <path d="M 35.17375946044922 150.56607055664062 C 72.52274322509766 119.0319595336914 61.34361267089844 146.58877563476562 71.89494323730469 111.92701721191406" stroke-width="3.0" fill="none" stroke="rgb(0, 0, 0)" stroke-opacity="1.0" stroke-linecap="round" stroke-linejoin="round"/>
    <path d="M 147.7895050048828 115.25823211669922 C 131.65957641601562 122.97457122802734 140.4717559814453 124.02912139892578 139.90098571777344 130.87808227539062" stroke-width="3.0" fill="none" stroke="rgb(0, 0, 0)" stroke-opacity="1.0" stroke-linecap="round" stroke-linejoin="round"/>
    <path d="M 172.18870544433594 107.49716186523438 C 170.43975830078125 208.6316375732422 134.87771606445312 208.12698364257812 162.98211669921875 188.27664184570312" stroke-width="3.0" fill="none" stroke="rgb(0, 0, 0)" stroke-opacity="1.0" stroke-linecap="round" stroke-linejoin="round"/>
    <path d="M 11.580037117004395 71.56018829345703 C 79.24037170410156 15.389272689819336 -21.862712860107422 73.77912902832031 65.74514770507812 44.02608108520508" stroke-width="3.0" fill="none" stroke="rgb(0, 0, 0)" stroke-opacity="1.0" stroke-linecap="round" stroke-linejoin="round"/>
    <path d="M 91.04686737060547 67.41106414794922 C 43.589019775390625 36.86844253540039 -1.887166142463684 32.510009765625 82.51117706298828 54.531803131103516" stroke-width="3.0" fill="none" stroke="rgb(0, 0, 0)" stroke-opacity="1.0" stroke-linecap="round" stroke-linejoin="round"/>
  </g>
</svg>
