<?xml version="1.0" ?>
<svg xmlns="http://www.w3.org/2000/svg" version="1.1" width="224" height="224">
  <defs/>
  <g>
    <path d="M 81.84107971191406 118.25852966308594 C 93.66287231445312 127.05947875976562 80.73727416992188 123.63180541992188 79.49044799804688 118.17925262451172" stroke-width="3.0" fill="none" stroke="rgb(0, 0, 0)" stroke-opacity="1.0" stroke-linecap="round" stroke-linejoin="round"/>
    <path d="M 75.29878997802734 122.8165054321289 C 114.43930053710938 132.6824951171875 113.65030670166016 126.58956909179688 142.60140991210938 122.1847152709961" stroke-width="3.0" fill="none" stroke="rgb(0, 0, 0)" stroke-opacity="1.0" stroke-linecap="round" stroke-linejoin="round"/>
    <path d="M 154.8404998779297 91.32073211669922 C 224.50457763671875 124.83676147460938 187.96934509277344 132.11180114746094 215.5930938720703 141.92462158203125" stroke-width="3.0" fill="none" stroke="rgb(0, 0, 0)" stroke-opacity="1.0" stroke-linecap="round" stroke-linejoin="round"/>
    <path d="M 53.96564865112305 61.781036376953125 C 39.810142517089844 156.08311462402344 74.35900115966797 80.64179229736328 35.87215805053711 157.0659637451172" stroke-width="3.0" fill="none" stroke="rgb(0, 0, 0)" stroke-opacity="1.0" stroke-linecap="round" stroke-linejoin="round"/>
    <path d="M 123.14889526367188 89.19003295898438 C 137.61532592773438 91.7947769165039 156.9672393798828 81.86388397216797 172.13096618652344 105.36779022216797" stroke-width="3.0" fill="none" stroke="rgb(0, 0, 0)" stroke-opacity="1.0" stroke-linecap="round" stroke-linejoin="round"/>
    <path d="M 155.36526489257812 125.69341278076172 C 146.6992950439453 127.73738098144531 130.1064453125 122.1571044921875 136.55615234375 123.38003540039062" stroke-width="3.0" fill="none" stroke="rgb(0, 0, 0)" stroke-opacity="1.0" stroke-linecap="round" stroke-linejoin="round"/>
    <path d="M 79.56845092773438 121.20106506347656 C 92.93083953857422 115.3091049194336 65.94507598876953 132.45777893066406 83.61812591552734 113.24078369140625" stroke-width="3.0" fill="none" stroke="rgb(0, 0, 0)" stroke-opacity="1.0" stroke-linecap="round" stroke-linejoin="round"/>
    <path d="M 136.82745361328125 125.28028106689453 C 126.17546081542969 176.5678253173828 140.29306030273438 156.91966247558594 97.0551986694336 186.45486450195312" stroke-width="3.0" fill="none" stroke="rgb(0, 0, 0)" stroke-opacity="1.0" stroke-linecap="round" stroke-linejoin="round"/>
    <path d="M 52.62621307373047 128.02513122558594 C -1.4628303050994873 171.5573272705078 54.768959045410156 150.9734344482422 15.260478019714355 166.53790283203125" stroke-width="3.0" fill="none" stroke="rgb(0, 0, 0)" stroke-opacity="1.0" stroke-linecap="round" stroke-linejoin="round"/>
    <path d="M 43.999996185302734 43.72401428222656 C 116.86035919189453 85.6089859008789 58.45569610595703 77.1809310913086 124.22681427001953 89.92647552490234" stroke-width="3.0" fill="none" stroke="rgb(0, 0, 0)" stroke-opacity="1.0" stroke-linecap="round" stroke-linejoin="round"/>
    <path d="M 134.1027374267578 158.7376251220703 C 147.92327880859375 116.46158599853516 149.38616943359375 154.7870330810547 182.11569213867188 109.35436248779297" stroke-width="3.0" fill="none" stroke="rgb(0, 0, 0)" stroke-opacity="1.0" stroke-linecap="round" stroke-linejoin="round"/>
    <path d="M 32.62855911254883 151.27989196777344 C 71.63408660888672 115.22416687011719 62.94722366333008 145.51779174804688 73.84195709228516 114.56705474853516" stroke-width="3.0" fill="none" stroke="rgb(0, 0, 0)" stroke-opacity="1.0" stroke-linecap="round" stroke-linejoin="round"/>
    <path d="M 148.5157012939453 118.75677490234375 C 131.2847137451172 127.22845458984375 133.15289306640625 129.24661254882812 136.78590393066406 135.79373168945312" stroke-width="3.0" fill="none" stroke="rgb(0, 0, 0)" stroke-opacity="1.0" stroke-linecap="round" stroke-linejoin="round"/>
    <path d="M 174.73609924316406 109.82093811035156 C 172.42576599121094 196.22215270996094 133.84375 209.08340454101562 159.72691345214844 191.2342529296875" stroke-width="3.0" fill="none" stroke="rgb(0, 0, 0)" stroke-opacity="1.0" stroke-linecap="round" stroke-linejoin="round"/>
    <path d="M 11.258158683776855 74.35184478759766 C 77.89702606201172 19.73084831237793 -26.414443969726562 81.09873962402344 71.74431610107422 50.61050796508789" stroke-width="3.0" fill="none" stroke="rgb(0, 0, 0)" stroke-opacity="1.0" stroke-linecap="round" stroke-linejoin="round"/>
    <path d="M 90.07380676269531 69.40557098388672 C 39.63633728027344 39.08380126953125 -1.3608149290084839 31.322179794311523 82.29605102539062 59.754024505615234" stroke-width="3.0" fill="none" stroke="rgb(0, 0, 0)" stroke-opacity="1.0" stroke-linecap="round" stroke-linejoin="round"/>
  </g>
</svg>
