<?xml version="1.0" ?>
<svg xmlns="http://www.w3.org/2000/svg" version="1.1" width="224" height="224">
  <defs/>
  <g>
    <path d="M 89.75670623779297 122.3320541381836 C 82.7391586303711 121.88121032714844 84.85194396972656 122.12431335449219 77.80296325683594 116.98117065429688" stroke-width="3.0" fill="none" stroke="rgb(0, 0, 0)" stroke-opacity="1.0" stroke-linecap="round" stroke-linejoin="round"/>
    <path d="M 73.61421203613281 119.81343841552734 C 102.19364166259766 134.51278686523438 113.17491149902344 127.2994155883789 136.04058837890625 120.68614959716797" stroke-width="3.0" fill="none" stroke="rgb(0, 0, 0)" stroke-opacity="1.0" stroke-linecap="round" stroke-linejoin="round"/>
    <path d="M 150.41534423828125 91.80709838867188 C 228.26321411132812 118.7498550415039 189.74986267089844 132.05142211914062 213.99490356445312 144.44009399414062" stroke-width="3.0" fill="none" stroke="rgb(0, 0, 0)" stroke-opacity="1.0" stroke-linecap="round" stroke-linejoin="round"/>
    <path d="M 50.96546173095703 63.953460693359375 C 44.72544479370117 139.45697021484375 83.1766128540039 110.88273620605469 40.21455764770508 154.33641052246094" stroke-width="3.0" fill="none" stroke="rgb(0, 0, 0)" stroke-opacity="1.0" stroke-linecap="round" stroke-linejoin="round"/>
    <path d="M 135.2857666015625 89.69784545898438 C 146.53636169433594 87.98954010009766 152.8978271484375 88.28071594238281 164.7381591796875 102.89065551757812" stroke-width="3.0" fill="none" stroke="rgb(0, 0, 0)" stroke-opacity="1.0" stroke-linecap="round" stroke-linejoin="round"/>
    <path d="M 134.1221160888672 119.44586181640625 C 129.5640869140625 119.78797149658203 119.1895751953125 124.6456298828125 125.40291595458984 122.7796859741211" stroke-width="3.0" fill="none" stroke="rgb(0, 0, 0)" stroke-opacity="1.0" stroke-linecap="round" stroke-linejoin="round"/>
    <path d="M 76.22847747802734 118.1949462890625 C 74.19837188720703 121.78483581542969 61.13591003417969 122.6656494140625 86.5160140991211 125.50782012939453" stroke-width="3.0" fill="none" stroke="rgb(0, 0, 0)" stroke-opacity="1.0" stroke-linecap="round" stroke-linejoin="round"/>
    <path d="M 134.74566650390625 136.01576232910156 C 125.20958709716797 166.4008331298828 144.38156127929688 155.91502380371094 98.6661376953125 183.55882263183594" stroke-width="3.0" fill="none" stroke="rgb(0, 0, 0)" stroke-opacity="1.0" stroke-linecap="round" stroke-linejoin="round"/>
    <path d="M 56.90536880493164 116.7531967163086 C 0.6736114621162415 182.69766235351562 48.840816497802734 153.37808227539062 20.41425895690918 170.368896484375" stroke-width="3.0" fill="none" stroke="rgb(0, 0, 0)" stroke-opacity="1.0" stroke-linecap="round" stroke-linejoin="round"/>
    <path d="M 74.91033935546875 55.0211296081543 C 89.33489227294922 94.78406524658203 106.58319854736328 80.76089477539062 142.00314331054688 92.34598541259766" stroke-width="3.0" fill="none" stroke="rgb(0, 0, 0)" stroke-opacity="1.0" stroke-linecap="round" stroke-linejoin="round"/>
    <path d="M 135.5364532470703 128.83029174804688 C 129.32164001464844 138.88572692871094 129.5193634033203 139.10574340820312 163.6286163330078 119.27367401123047" stroke-width="3.0" fill="none" stroke="rgb(0, 0, 0)" stroke-opacity="1.0" stroke-linecap="round" stroke-linejoin="round"/>
    <path d="M 61.77339172363281 140.25784301757812 C 82.7538833618164 130.12985229492188 61.983585357666016 133.51243591308594 77.90458679199219 110.40625" stroke-width="3.0" fill="none" stroke="rgb(0, 0, 0)" stroke-opacity="1.0" stroke-linecap="round" stroke-linejoin="round"/>
    <path d="M 141.1429901123047 115.85047149658203 C 130.49366760253906 120.4491195678711 134.05435180664062 123.53254699707031 133.1131134033203 121.05338287353516" stroke-width="3.0" fill="none" stroke="rgb(0, 0, 0)" stroke-opacity="1.0" stroke-linecap="round" stroke-linejoin="round"/>
    <path d="M 156.15802001953125 129.8552703857422 C 185.41737365722656 168.1954803466797 141.5603790283203 187.62393188476562 163.02273559570312 187.6555633544922" stroke-width="3.0" fill="none" stroke="rgb(0, 0, 0)" stroke-opacity="1.0" stroke-linecap="round" stroke-linejoin="round"/>
    <path d="M 17.41533660888672 79.78948211669922 C 57.723690032958984 -6.6965484619140625 28.16347312927246 61.31829833984375 67.55902862548828 38.63603210449219" stroke-width="3.0" fill="none" stroke="rgb(0, 0, 0)" stroke-opacity="1.0" stroke-linecap="round" stroke-linejoin="round"/>
    <path d="M 84.99615478515625 66.2118911743164 C 56.704933166503906 41.281986236572266 41.12685012817383 34.464439392089844 78.99342346191406 49.03028106689453" stroke-width="3.0" fill="none" stroke="rgb(0, 0, 0)" stroke-opacity="1.0" stroke-linecap="round" stroke-linejoin="round"/>
  </g>
</svg>
