<?xml version="1.0" ?>
<svg xmlns="http://www.w3.org/2000/svg" version="1.1" width="224" height="224">
  <defs/>
  <g>
    <path d="M 77.9643325805664 122.47514343261719 C 81.84114074707031 126.38262176513672 83.82363891601562 122.57780456542969 74.2808609008789 116.75057983398438" stroke-width="3.0" fill="none" stroke="rgb(0, 0, 0)" stroke-opacity="1.0" stroke-linecap="round" stroke-linejoin="round"/>
    <path d="M 73.45288848876953 123.0715103149414 C 105.4198989868164 135.38726806640625 124.57728576660156 124.04512023925781 132.5477294921875 125.85696411132812" stroke-width="3.0" fill="none" stroke="rgb(0, 0, 0)" stroke-opacity="1.0" stroke-linecap="round" stroke-linejoin="round"/>
    <path d="M 155.12290954589844 91.98982238769531 C 224.2122344970703 120.70621490478516 187.98260498046875 132.459716796875 214.4425506591797 143.4866943359375" stroke-width="3.0" fill="none" stroke="rgb(0, 0, 0)" stroke-opacity="1.0" stroke-linecap="round" stroke-linejoin="round"/>
    <path d="M 60.369659423828125 70.87045288085938 C 31.435497283935547 141.826904296875 79.43130493164062 92.65377044677734 36.959781646728516 161.42843627929688" stroke-width="3.0" fill="none" stroke="rgb(0, 0, 0)" stroke-opacity="1.0" stroke-linecap="round" stroke-linejoin="round"/>
    <path d="M 126.698486328125 90.77945709228516 C 132.77728271484375 90.7739028930664 168.45147705078125 88.1728286743164 176.24420166015625 107.9599838256836" stroke-width="3.0" fill="none" stroke="rgb(0, 0, 0)" stroke-opacity="1.0" stroke-linecap="round" stroke-linejoin="round"/>
    <path d="M 133.41200256347656 124.3895492553711 C 134.9514617919922 121.12601470947266 116.75326538085938 127.6962661743164 123.52079010009766 126.0631103515625" stroke-width="3.0" fill="none" stroke="rgb(0, 0, 0)" stroke-opacity="1.0" stroke-linecap="round" stroke-linejoin="round"/>
    <path d="M 78.84500122070312 123.0374984741211 C 75.60400390625 117.90758514404297 66.5771713256836 120.70671081542969 78.60454559326172 123.071044921875" stroke-width="3.0" fill="none" stroke="rgb(0, 0, 0)" stroke-opacity="1.0" stroke-linecap="round" stroke-linejoin="round"/>
    <path d="M 138.57443237304688 126.24854278564453 C 121.4417495727539 163.4007568359375 143.65057373046875 150.9131622314453 99.31394958496094 184.8702850341797" stroke-width="3.0" fill="none" stroke="rgb(0, 0, 0)" stroke-opacity="1.0" stroke-linecap="round" stroke-linejoin="round"/>
    <path d="M 58.38369369506836 124.7487564086914 C -2.178095817565918 172.3946990966797 49.41048812866211 155.88189697265625 16.147058486938477 168.7530975341797" stroke-width="3.0" fill="none" stroke="rgb(0, 0, 0)" stroke-opacity="1.0" stroke-linecap="round" stroke-linejoin="round"/>
    <path d="M 55.132530212402344 36.62471008300781 C 105.13380432128906 101.77960205078125 93.26896667480469 81.13243865966797 130.2311248779297 91.53192901611328" stroke-width="3.0" fill="none" stroke="rgb(0, 0, 0)" stroke-opacity="1.0" stroke-linecap="round" stroke-linejoin="round"/>
    <path d="M 135.0281982421875 153.25384521484375 C 146.9198455810547 122.40572357177734 147.61642456054688 144.79612731933594 174.9207305908203 113.40509033203125" stroke-width="3.0" fill="none" stroke="rgb(0, 0, 0)" stroke-opacity="1.0" stroke-linecap="round" stroke-linejoin="round"/>
    <path d="M 32.691368103027344 153.028076171875 C 75.62055969238281 127.47026824951172 65.24848937988281 136.58978271484375 73.14085388183594 115.96517944335938" stroke-width="3.0" fill="none" stroke="rgb(0, 0, 0)" stroke-opacity="1.0" stroke-linecap="round" stroke-linejoin="round"/>
    <path d="M 139.32591247558594 119.13948059082031 C 130.0931396484375 122.65274810791016 136.2353515625 119.13121032714844 131.8006591796875 118.8552017211914" stroke-width="3.0" fill="none" stroke="rgb(0, 0, 0)" stroke-opacity="1.0" stroke-linecap="round" stroke-linejoin="round"/>
    <path d="M 173.54241943359375 122.07032775878906 C 182.42623901367188 144.36085510253906 143.34500122070312 196.7915496826172 162.27635192871094 193.5403289794922" stroke-width="3.0" fill="none" stroke="rgb(0, 0, 0)" stroke-opacity="1.0" stroke-linecap="round" stroke-linejoin="round"/>
    <path d="M 12.451194763183594 71.73628234863281 C 81.76773071289062 9.803525924682617 -5.091275215148926 62.068546295166016 69.21932220458984 43.56256103515625" stroke-width="3.0" fill="none" stroke="rgb(0, 0, 0)" stroke-opacity="1.0" stroke-linecap="round" stroke-linejoin="round"/>
    <path d="M 84.2762222290039 64.1889419555664 C 48.30388259887695 38.13301086425781 22.427886962890625 22.783828735351562 81.63436889648438 55.16896057128906" stroke-width="3.0" fill="none" stroke="rgb(0, 0, 0)" stroke-opacity="1.0" stroke-linecap="round" stroke-linejoin="round"/>
  </g>
</svg>
