<?xml version="1.0" ?>
<svg xmlns="http://www.w3.org/2000/svg" version="1.1" width="224" height="224">
  <defs/>
  <g>
    <path d="M 79.3455810546875 112.9499740600586 C 72.6042709350586 131.89889526367188 80.33927917480469 119.02042388916016 72.62645721435547 121.46395111083984" stroke-width="3.0" fill="none" stroke="rgb(0, 0, 0)" stroke-opacity="1.0" stroke-linecap="round" stroke-linejoin="round"/>
    <path d="M 71.2719955444336 123.50367736816406 C 109.64578247070312 138.4044952392578 119.02843475341797 128.52444458007812 136.65362548828125 128.03587341308594" stroke-width="3.0" fill="none" stroke="rgb(0, 0, 0)" stroke-opacity="1.0" stroke-linecap="round" stroke-linejoin="round"/>
    <path d="M 171.83453369140625 102.49150085449219 C 217.29251098632812 113.3312759399414 197.06663513183594 135.54281616210938 214.88815307617188 139.74072265625" stroke-width="3.0" fill="none" stroke="rgb(0, 0, 0)" stroke-opacity="1.0" stroke-linecap="round" stroke-linejoin="round"/>
    <path d="M 49.60483169555664 62.14421463012695 C 73.06184387207031 153.2918243408203 43.17247009277344 101.12185668945312 36.350494384765625 149.1826934814453" stroke-width="3.0" fill="none" stroke="rgb(0, 0, 0)" stroke-opacity="1.0" stroke-linecap="round" stroke-linejoin="round"/>
    <path d="M 103.92442321777344 86.22763061523438 C 148.54611206054688 89.2294692993164 141.14767456054688 79.96826171875 180.703369140625 107.31082153320312" stroke-width="3.0" fill="none" stroke="rgb(0, 0, 0)" stroke-opacity="1.0" stroke-linecap="round" stroke-linejoin="round"/>
    <path d="M 136.5043487548828 130.76980590820312 C 135.29649353027344 127.14429473876953 151.6226348876953 120.59934997558594 114.69970703125 126.95362854003906" stroke-width="3.0" fill="none" stroke="rgb(0, 0, 0)" stroke-opacity="1.0" stroke-linecap="round" stroke-linejoin="round"/>
    <path d="M 67.93853759765625 125.69514465332031 C 89.4331283569336 105.82038116455078 60.926300048828125 132.26014709472656 77.00125885009766 116.52942657470703" stroke-width="3.0" fill="none" stroke="rgb(0, 0, 0)" stroke-opacity="1.0" stroke-linecap="round" stroke-linejoin="round"/>
    <path d="M 139.45474243164062 134.049072265625 C 123.88817596435547 176.14865112304688 141.40005493164062 159.4899139404297 99.9183120727539 184.54669189453125" stroke-width="3.0" fill="none" stroke="rgb(0, 0, 0)" stroke-opacity="1.0" stroke-linecap="round" stroke-linejoin="round"/>
    <path d="M 45.79032897949219 135.8725128173828 C -12.520273208618164 212.27561950683594 69.05523681640625 128.90676879882812 14.499579429626465 167.2428436279297" stroke-width="3.0" fill="none" stroke="rgb(0, 0, 0)" stroke-opacity="1.0" stroke-linecap="round" stroke-linejoin="round"/>
    <path d="M 32.43853759765625 39.620296478271484 C 102.89495086669922 70.03671264648438 53.52132034301758 63.02317810058594 108.34439849853516 85.71324920654297" stroke-width="3.0" fill="none" stroke="rgb(0, 0, 0)" stroke-opacity="1.0" stroke-linecap="round" stroke-linejoin="round"/>
    <path d="M 132.51480102539062 164.73251342773438 C 155.11900329589844 116.00221252441406 150.66473388671875 159.836181640625 175.9905548095703 110.18944549560547" stroke-width="3.0" fill="none" stroke="rgb(0, 0, 0)" stroke-opacity="1.0" stroke-linecap="round" stroke-linejoin="round"/>
    <path d="M 38.012718200683594 161.6480712890625 C 60.5557975769043 112.84296417236328 51.45852279663086 149.6817169189453 80.9910888671875 110.58930969238281" stroke-width="3.0" fill="none" stroke="rgb(0, 0, 0)" stroke-opacity="1.0" stroke-linecap="round" stroke-linejoin="round"/>
    <path d="M 157.43873596191406 119.90379333496094 C 135.85105895996094 130.3104705810547 164.31985473632812 114.85707092285156 99.4794921875 129.818359375" stroke-width="3.0" fill="none" stroke="rgb(0, 0, 0)" stroke-opacity="1.0" stroke-linecap="round" stroke-linejoin="round"/>
    <path d="M 172.14517211914062 107.89436340332031 C 162.4735565185547 233.0178680419922 136.58450317382812 182.19140625 162.06790161132812 187.25067138671875" stroke-width="3.0" fill="none" stroke="rgb(0, 0, 0)" stroke-opacity="1.0" stroke-linecap="round" stroke-linejoin="round"/>
    <path d="M 13.91462516784668 76.89472961425781 C 64.8523941040039 10.4334135055542 -15.293739318847656 88.6375961303711 56.70377731323242 38.91456985473633" stroke-width="3.0" fill="none" stroke="rgb(0, 0, 0)" stroke-opacity="1.0" stroke-linecap="round" stroke-linejoin="round"/>
    <path d="M 94.11444091796875 74.90986633300781 C 79.36724853515625 25.1359920501709 -28.994747161865234 43.87834167480469 82.83948516845703 51.92894744873047" stroke-width="3.0" fill="none" stroke="rgb(0, 0, 0)" stroke-opacity="1.0" stroke-linecap="round" stroke-linejoin="round"/>
  </g>
</svg>
