<?xml version="1.0" ?>
<svg xmlns="http://www.w3.org/2000/svg" version="1.1" width="224" height="224">
  <defs/>
  <g>
    <path d="M 105.5990982055664 118.31964111328125 C 103.53561401367188 121.03468322753906 99.36975860595703 119.36629486083984 91.59781646728516 117.40921783447266" stroke-width="3.0" fill="none" stroke="rgb(0, 0, 0)" stroke-opacity="1.0" stroke-linecap="round" stroke-linejoin="round"/>
    <path d="M 90.95339965820312 120.77246856689453 C 110.5359115600586 125.00670623779297 124.29527282714844 137.29222106933594 132.41162109375 117.87882995605469" stroke-width="3.0" fill="none" stroke="rgb(0, 0, 0)" stroke-opacity="1.0" stroke-linecap="round" stroke-linejoin="round"/>
    <path d="M 154.61825561523438 92.19454956054688 C 226.23550415039062 114.30811309814453 190.77850341796875 136.92648315429688 215.0958251953125 143.15858459472656" stroke-width="3.0" fill="none" stroke="rgb(0, 0, 0)" stroke-opacity="1.0" stroke-linecap="round" stroke-linejoin="round"/>
    <path d="M 54.089698791503906 91.11843872070312 C 48.11195755004883 128.941162109375 67.3060531616211 103.07608795166016 40.71154022216797 133.40643310546875" stroke-width="3.0" fill="none" stroke="rgb(0, 0, 0)" stroke-opacity="1.0" stroke-linecap="round" stroke-linejoin="round"/>
    <path d="M 130.5162811279297 89.0062255859375 C 159.54632568359375 90.75668334960938 144.4669952392578 88.70470428466797 163.11265563964844 94.93866729736328" stroke-width="3.0" fill="none" stroke="rgb(0, 0, 0)" stroke-opacity="1.0" stroke-linecap="round" stroke-linejoin="round"/>
    <path d="M 139.66220092773438 109.2164077758789 C 129.1171875 123.87101745605469 118.2525863647461 119.27279663085938 121.65979766845703 120.36585235595703" stroke-width="3.0" fill="none" stroke="rgb(0, 0, 0)" stroke-opacity="1.0" stroke-linecap="round" stroke-linejoin="round"/>
    <path d="M 87.87853240966797 107.9786376953125 C 76.87639617919922 121.17888641357422 78.85236358642578 117.17703247070312 94.49019622802734 119.72508239746094" stroke-width="3.0" fill="none" stroke="rgb(0, 0, 0)" stroke-opacity="1.0" stroke-linecap="round" stroke-linejoin="round"/>
    <path d="M 131.8339385986328 133.4447021484375 C 136.5573272705078 163.95687866210938 143.18617248535156 150.50823974609375 99.9442367553711 183.7377166748047" stroke-width="3.0" fill="none" stroke="rgb(0, 0, 0)" stroke-opacity="1.0" stroke-linecap="round" stroke-linejoin="round"/>
    <path d="M 48.737030029296875 129.78733825683594 C 19.503414154052734 166.4749755859375 59.342220306396484 141.2974090576172 17.449106216430664 169.24874877929688" stroke-width="3.0" fill="none" stroke="rgb(0, 0, 0)" stroke-opacity="1.0" stroke-linecap="round" stroke-linejoin="round"/>
    <path d="M 80.68831634521484 66.60394287109375 C 101.11759948730469 88.28077697753906 105.91210174560547 88.56980895996094 140.05470275878906 88.78466796875" stroke-width="3.0" fill="none" stroke="rgb(0, 0, 0)" stroke-opacity="1.0" stroke-linecap="round" stroke-linejoin="round"/>
    <path d="M 122.7997055053711 131.76153564453125 C 128.7156524658203 136.15870666503906 143.1562042236328 133.47613525390625 164.4678955078125 125.40440368652344" stroke-width="3.0" fill="none" stroke="rgb(0, 0, 0)" stroke-opacity="1.0" stroke-linecap="round" stroke-linejoin="round"/>
    <path d="M 64.52861785888672 132.60195922851562 C 89.6243896484375 117.93888092041016 62.2154541015625 114.81891632080078 86.73462677001953 115.28018951416016" stroke-width="3.0" fill="none" stroke="rgb(0, 0, 0)" stroke-opacity="1.0" stroke-linecap="round" stroke-linejoin="round"/>
    <path d="M 147.47166442871094 111.92244720458984 C 136.56399536132812 113.71905517578125 137.9927520751953 113.62557220458984 133.1251983642578 119.51499938964844" stroke-width="3.0" fill="none" stroke="rgb(0, 0, 0)" stroke-opacity="1.0" stroke-linecap="round" stroke-linejoin="round"/>
    <path d="M 153.4283905029297 135.0438232421875 C 186.0492401123047 167.23524475097656 139.19314575195312 197.03567504882812 159.70858764648438 190.8539276123047" stroke-width="3.0" fill="none" stroke="rgb(0, 0, 0)" stroke-opacity="1.0" stroke-linecap="round" stroke-linejoin="round"/>
    <path d="M 22.339746475219727 58.3593635559082 C 50.53080368041992 10.668856620788574 47.6257438659668 58.0452766418457 74.23861694335938 37.81214141845703" stroke-width="3.0" fill="none" stroke="rgb(0, 0, 0)" stroke-opacity="1.0" stroke-linecap="round" stroke-linejoin="round"/>
    <path d="M 89.40409851074219 65.12635040283203 C 65.69270324707031 39.24995803833008 54.515960693359375 47.420616149902344 75.11305236816406 43.06554412841797" stroke-width="3.0" fill="none" stroke="rgb(0, 0, 0)" stroke-opacity="1.0" stroke-linecap="round" stroke-linejoin="round"/>
  </g>
</svg>
