<?xml version="1.0" ?>
<svg xmlns="http://www.w3.org/2000/svg" version="1.1" width="224" height="224">
  <defs/>
  <g>
    <path d="M 78.14112091064453 120.8604507446289 C 85.98094940185547 124.99508666992188 78.39459228515625 129.4087677001953 80.3035888671875 119.98294067382812" stroke-width="3.0" fill="none" stroke="rgb(0, 0, 0)" stroke-opacity="1.0" stroke-linecap="round" stroke-linejoin="round"/>
    <path d="M 75.29808807373047 125.39096069335938 C 111.20932006835938 136.75271606445312 114.20526123046875 129.00254821777344 134.92588806152344 127.11537170410156" stroke-width="3.0" fill="none" stroke="rgb(0, 0, 0)" stroke-opacity="1.0" stroke-linecap="round" stroke-linejoin="round"/>
    <path d="M 151.18612670898438 89.49041748046875 C 227.50701904296875 120.12043762207031 189.15740966796875 129.1260223388672 212.63377380371094 144.87713623046875" stroke-width="3.0" fill="none" stroke="rgb(0, 0, 0)" stroke-opacity="1.0" stroke-linecap="round" stroke-linejoin="round"/>
    <path d="M 55.35316467285156 69.66400909423828 C 40.12561798095703 146.68495178222656 82.2986068725586 84.8152847290039 31.825891494750977 160.24273681640625" stroke-width="3.0" fill="none" stroke="rgb(0, 0, 0)" stroke-opacity="1.0" stroke-linecap="round" stroke-linejoin="round"/>
    <path d="M 119.74191284179688 88.26668548583984 C 143.25128173828125 92.35690307617188 157.47021484375 81.60301971435547 172.35072326660156 102.84465789794922" stroke-width="3.0" fill="none" stroke="rgb(0, 0, 0)" stroke-opacity="1.0" stroke-linecap="round" stroke-linejoin="round"/>
    <path d="M 149.62098693847656 124.95611572265625 C 143.33070373535156 126.35012817382812 123.31893157958984 128.38223266601562 135.16038513183594 126.53668212890625" stroke-width="3.0" fill="none" stroke="rgb(0, 0, 0)" stroke-opacity="1.0" stroke-linecap="round" stroke-linejoin="round"/>
    <path d="M 75.82611083984375 121.67817687988281 C 84.8878402709961 122.73008728027344 62.72627258300781 129.79336547851562 80.53105163574219 116.00334930419922" stroke-width="3.0" fill="none" stroke="rgb(0, 0, 0)" stroke-opacity="1.0" stroke-linecap="round" stroke-linejoin="round"/>
    <path d="M 138.82568359375 126.7232437133789 C 121.63890075683594 175.42120361328125 147.00640869140625 157.00942993164062 97.50077819824219 183.43858337402344" stroke-width="3.0" fill="none" stroke="rgb(0, 0, 0)" stroke-opacity="1.0" stroke-linecap="round" stroke-linejoin="round"/>
    <path d="M 57.32538604736328 127.04676818847656 C -6.698731899261475 172.56381225585938 47.28721618652344 155.2972869873047 15.468563079833984 169.2948760986328" stroke-width="3.0" fill="none" stroke="rgb(0, 0, 0)" stroke-opacity="1.0" stroke-linecap="round" stroke-linejoin="round"/>
    <path d="M 51.504302978515625 39.770938873291016 C 113.2302474975586 101.60137939453125 77.32181549072266 81.41655731201172 132.9589385986328 90.72613525390625" stroke-width="3.0" fill="none" stroke="rgb(0, 0, 0)" stroke-opacity="1.0" stroke-linecap="round" stroke-linejoin="round"/>
    <path d="M 133.58340454101562 161.37411499023438 C 148.36618041992188 118.40160369873047 157.22557067871094 153.78546142578125 178.30120849609375 106.31363677978516" stroke-width="3.0" fill="none" stroke="rgb(0, 0, 0)" stroke-opacity="1.0" stroke-linecap="round" stroke-linejoin="round"/>
    <path d="M 29.95631980895996 153.22409057617188 C 80.28976440429688 120.18644714355469 58.48883056640625 149.45472717285156 77.18439483642578 112.72587585449219" stroke-width="3.0" fill="none" stroke="rgb(0, 0, 0)" stroke-opacity="1.0" stroke-linecap="round" stroke-linejoin="round"/>
    <path d="M 156.70944213867188 119.2984390258789 C 140.34713745117188 132.67959594726562 138.48971557617188 123.12770080566406 140.86070251464844 129.87127685546875" stroke-width="3.0" fill="none" stroke="rgb(0, 0, 0)" stroke-opacity="1.0" stroke-linecap="round" stroke-linejoin="round"/>
    <path d="M 170.8959503173828 110.8646469116211 C 173.2659912109375 170.7831268310547 141.9640655517578 196.69091796875 159.2053985595703 190.58473205566406" stroke-width="3.0" fill="none" stroke="rgb(0, 0, 0)" stroke-opacity="1.0" stroke-linecap="round" stroke-linejoin="round"/>
    <path d="M 10.435162544250488 73.94747161865234 C 74.78860473632812 14.289745330810547 -17.17252540588379 61.596134185791016 69.84725189208984 47.41128158569336" stroke-width="3.0" fill="none" stroke="rgb(0, 0, 0)" stroke-opacity="1.0" stroke-linecap="round" stroke-linejoin="round"/>
    <path d="M 86.5479507446289 67.99251556396484 C 37.9012565612793 39.062400817871094 1.7589210271835327 26.37872314453125 81.0753402709961 57.72444152832031" stroke-width="3.0" fill="none" stroke="rgb(0, 0, 0)" stroke-opacity="1.0" stroke-linecap="round" stroke-linejoin="round"/>
  </g>
</svg>
