<?xml version="1.0" ?>
<svg xmlns="http://www.w3.org/2000/svg" version="1.1" width="224" height="224">
  <defs/>
  <g>
    <path d="M 79.99694061279297 117.76539611816406 C 90.8852310180664 128.8971405029297 81.33316802978516 122.27657318115234 78.84387969970703 122.9947509765625" stroke-width="3.0" fill="none" stroke="rgb(0, 0, 0)" stroke-opacity="1.0" stroke-linecap="round" stroke-linejoin="round"/>
    <path d="M 74.31694793701172 122.81216430664062 C 115.015869140625 134.17384338378906 107.2804183959961 123.44339752197266 141.3270263671875 119.578369140625" stroke-width="3.0" fill="none" stroke="rgb(0, 0, 0)" stroke-opacity="1.0" stroke-linecap="round" stroke-linejoin="round"/>
    <path d="M 157.3920135498047 92.16404724121094 C 224.83206176757812 122.55535125732422 188.8466796875 130.10191345214844 216.74453735351562 144.20416259765625" stroke-width="3.0" fill="none" stroke="rgb(0, 0, 0)" stroke-opacity="1.0" stroke-linecap="round" stroke-linejoin="round"/>
    <path d="M 57.71037292480469 58.24374008178711 C 40.87435531616211 155.68264770507812 81.69989013671875 78.82513427734375 36.281494140625 156.7210235595703" stroke-width="3.0" fill="none" stroke="rgb(0, 0, 0)" stroke-opacity="1.0" stroke-linecap="round" stroke-linejoin="round"/>
    <path d="M 123.04136657714844 88.93572235107422 C 137.53900146484375 89.607177734375 154.50912475585938 80.78583526611328 171.89236450195312 104.66800689697266" stroke-width="3.0" fill="none" stroke="rgb(0, 0, 0)" stroke-opacity="1.0" stroke-linecap="round" stroke-linejoin="round"/>
    <path d="M 156.28121948242188 120.06692504882812 C 138.50408935546875 129.9077606201172 135.81716918945312 127.64457702636719 140.17105102539062 121.50391387939453" stroke-width="3.0" fill="none" stroke="rgb(0, 0, 0)" stroke-opacity="1.0" stroke-linecap="round" stroke-linejoin="round"/>
    <path d="M 75.73339080810547 122.49602508544922 C 95.0524673461914 113.42052459716797 66.53965759277344 131.03929138183594 82.9775161743164 112.85501861572266" stroke-width="3.0" fill="none" stroke="rgb(0, 0, 0)" stroke-opacity="1.0" stroke-linecap="round" stroke-linejoin="round"/>
    <path d="M 139.0077667236328 130.16253662109375 C 124.73599243164062 176.00582885742188 140.54354858398438 156.6433563232422 98.84405517578125 184.22256469726562" stroke-width="3.0" fill="none" stroke="rgb(0, 0, 0)" stroke-opacity="1.0" stroke-linecap="round" stroke-linejoin="round"/>
    <path d="M 55.747318267822266 126.82947540283203 C -3.92181658744812 169.7933349609375 55.60356903076172 151.68341064453125 16.71371078491211 168.49110412597656" stroke-width="3.0" fill="none" stroke="rgb(0, 0, 0)" stroke-opacity="1.0" stroke-linecap="round" stroke-linejoin="round"/>
    <path d="M 46.378204345703125 41.09531021118164 C 121.92853546142578 84.21430206298828 56.105716705322266 76.99215698242188 123.80099487304688 89.6153564453125" stroke-width="3.0" fill="none" stroke="rgb(0, 0, 0)" stroke-opacity="1.0" stroke-linecap="round" stroke-linejoin="round"/>
    <path d="M 134.85238647460938 161.2734832763672 C 151.6143035888672 117.83267211914062 152.89390563964844 153.50657653808594 179.52305603027344 110.50180053710938" stroke-width="3.0" fill="none" stroke="rgb(0, 0, 0)" stroke-opacity="1.0" stroke-linecap="round" stroke-linejoin="round"/>
    <path d="M 33.8538703918457 151.6995086669922 C 76.41947937011719 120.77835845947266 63.7579345703125 147.24630737304688 72.30513763427734 111.67819213867188" stroke-width="3.0" fill="none" stroke="rgb(0, 0, 0)" stroke-opacity="1.0" stroke-linecap="round" stroke-linejoin="round"/>
    <path d="M 149.86428833007812 113.50274658203125 C 134.09437561035156 126.35263061523438 140.134765625 126.02568817138672 139.72984313964844 130.70237731933594" stroke-width="3.0" fill="none" stroke="rgb(0, 0, 0)" stroke-opacity="1.0" stroke-linecap="round" stroke-linejoin="round"/>
    <path d="M 172.63934326171875 106.31843566894531 C 169.2410125732422 211.74745178222656 132.40847778320312 203.54905700683594 161.8930206298828 187.73703002929688" stroke-width="3.0" fill="none" stroke="rgb(0, 0, 0)" stroke-opacity="1.0" stroke-linecap="round" stroke-linejoin="round"/>
    <path d="M 9.690864562988281 69.96720886230469 C 78.4190444946289 12.351227760314941 -16.550575256347656 72.6396484375 68.0786361694336 43.402130126953125" stroke-width="3.0" fill="none" stroke="rgb(0, 0, 0)" stroke-opacity="1.0" stroke-linecap="round" stroke-linejoin="round"/>
    <path d="M 92.45562744140625 68.549560546875 C 45.47593307495117 35.52355194091797 -1.6461924314498901 32.23129653930664 83.66109466552734 54.25581741333008" stroke-width="3.0" fill="none" stroke="rgb(0, 0, 0)" stroke-opacity="1.0" stroke-linecap="round" stroke-linejoin="round"/>
  </g>
</svg>
