<?xml version="1.0" ?>
<svg xmlns="http://www.w3.org/2000/svg" version="1.1" width="224" height="224">
  <defs/>
  <g>
    <path d="M 78.8861083984375 112.22994995117188 C 94.12471771240234 130.28392028808594 85.40151977539062 122.31307983398438 81.09202575683594 119.38114929199219" stroke-width="3.0" fill="none" stroke="rgb(0, 0, 0)" stroke-opacity="1.0" stroke-linecap="round" stroke-linejoin="round"/>
    <path d="M 80.14913177490234 123.68782043457031 C 121.60437774658203 135.8760223388672 109.96582794189453 126.44074249267578 140.86676025390625 123.40311431884766" stroke-width="3.0" fill="none" stroke="rgb(0, 0, 0)" stroke-opacity="1.0" stroke-linecap="round" stroke-linejoin="round"/>
    <path d="M 161.379638671875 95.25286865234375 C 228.26731872558594 122.11933135986328 192.82672119140625 129.74578857421875 214.40280151367188 142.58786010742188" stroke-width="3.0" fill="none" stroke="rgb(0, 0, 0)" stroke-opacity="1.0" stroke-linecap="round" stroke-linejoin="round"/>
    <path d="M 58.5465087890625 60.99143600463867 C 39.567752838134766 157.42715454101562 74.50992584228516 77.86117553710938 36.03567886352539 156.60879516601562" stroke-width="3.0" fill="none" stroke="rgb(0, 0, 0)" stroke-opacity="1.0" stroke-linecap="round" stroke-linejoin="round"/>
    <path d="M 120.3880844116211 89.22948455810547 C 138.09933471679688 91.0464859008789 154.86476135253906 80.59748077392578 171.80020141601562 106.07410430908203" stroke-width="3.0" fill="none" stroke="rgb(0, 0, 0)" stroke-opacity="1.0" stroke-linecap="round" stroke-linejoin="round"/>
    <path d="M 148.25521850585938 131.18165588378906 C 126.9983139038086 135.56260681152344 121.63347625732422 137.14295959472656 139.3944091796875 122.3177490234375" stroke-width="3.0" fill="none" stroke="rgb(0, 0, 0)" stroke-opacity="1.0" stroke-linecap="round" stroke-linejoin="round"/>
    <path d="M 81.40052032470703 122.80160522460938 C 96.42756652832031 110.95142364501953 66.0431137084961 128.48431396484375 83.70307922363281 119.62330627441406" stroke-width="3.0" fill="none" stroke="rgb(0, 0, 0)" stroke-opacity="1.0" stroke-linecap="round" stroke-linejoin="round"/>
    <path d="M 134.2593231201172 132.41212463378906 C 121.46895599365234 171.2141876220703 141.9453582763672 158.77072143554688 98.24635314941406 186.5426483154297" stroke-width="3.0" fill="none" stroke="rgb(0, 0, 0)" stroke-opacity="1.0" stroke-linecap="round" stroke-linejoin="round"/>
    <path d="M 55.81739807128906 128.07049560546875 C -5.603707313537598 172.6043243408203 54.77530288696289 151.30606079101562 16.68273162841797 167.0436248779297" stroke-width="3.0" fill="none" stroke="rgb(0, 0, 0)" stroke-opacity="1.0" stroke-linecap="round" stroke-linejoin="round"/>
    <path d="M 45.392066955566406 39.94404602050781 C 122.1680679321289 87.53485107421875 50.239315032958984 78.13310241699219 127.50534057617188 90.01014709472656" stroke-width="3.0" fill="none" stroke="rgb(0, 0, 0)" stroke-opacity="1.0" stroke-linecap="round" stroke-linejoin="round"/>
    <path d="M 133.05117797851562 161.87188720703125 C 156.24273681640625 118.5539779663086 151.34182739257812 155.1005096435547 182.10821533203125 109.09872436523438" stroke-width="3.0" fill="none" stroke="rgb(0, 0, 0)" stroke-opacity="1.0" stroke-linecap="round" stroke-linejoin="round"/>
    <path d="M 31.16386604309082 151.18185424804688 C 74.87814331054688 112.34133911132812 64.84671783447266 144.2012481689453 73.3988037109375 116.16666412353516" stroke-width="3.0" fill="none" stroke="rgb(0, 0, 0)" stroke-opacity="1.0" stroke-linecap="round" stroke-linejoin="round"/>
    <path d="M 156.48239135742188 119.15392303466797 C 135.41183471679688 128.4288330078125 135.0220947265625 120.37625122070312 135.1462860107422 125.43557739257812" stroke-width="3.0" fill="none" stroke="rgb(0, 0, 0)" stroke-opacity="1.0" stroke-linecap="round" stroke-linejoin="round"/>
    <path d="M 175.57278442382812 109.90065002441406 C 168.08570861816406 225.82247924804688 130.67300415039062 186.8824005126953 162.69422912597656 187.13470458984375" stroke-width="3.0" fill="none" stroke="rgb(0, 0, 0)" stroke-opacity="1.0" stroke-linecap="round" stroke-linejoin="round"/>
    <path d="M 13.738469123840332 74.33305358886719 C 75.31327056884766 13.908062934875488 -16.04700469970703 69.04509735107422 67.28104400634766 44.9306755065918" stroke-width="3.0" fill="none" stroke="rgb(0, 0, 0)" stroke-opacity="1.0" stroke-linecap="round" stroke-linejoin="round"/>
    <path d="M 90.83004760742188 67.26234436035156 C 47.471534729003906 33.5562858581543 -6.410175323486328 33.855594635009766 82.6336441040039 56.198394775390625" stroke-width="3.0" fill="none" stroke="rgb(0, 0, 0)" stroke-opacity="1.0" stroke-linecap="round" stroke-linejoin="round"/>
  </g>
</svg>
