<?xml version="1.0" ?>
<svg xmlns="http://www.w3.org/2000/svg" version="1.1" width="224" height="224">
  <defs/>
  <g>
    <path d="M 78.3603286743164 119.2435531616211 C 88.73053741455078 124.91946411132812 77.25218200683594 128.4652099609375 79.27823638916016 120.14282989501953" stroke-width="3.0" fill="none" stroke="rgb(0, 0, 0)" stroke-opacity="1.0" stroke-linecap="round" stroke-linejoin="round"/>
    <path d="M 73.54740142822266 124.24833679199219 C 114.2899398803711 134.14137268066406 112.02677154541016 126.62354278564453 132.9672393798828 124.68537139892578" stroke-width="3.0" fill="none" stroke="rgb(0, 0, 0)" stroke-opacity="1.0" stroke-linecap="round" stroke-linejoin="round"/>
    <path d="M 151.92391967773438 90.21245574951172 C 226.5008087158203 121.1208724975586 186.36654663085938 132.24069213867188 213.16763305664062 144.7184600830078" stroke-width="3.0" fill="none" stroke="rgb(0, 0, 0)" stroke-opacity="1.0" stroke-linecap="round" stroke-linejoin="round"/>
    <path d="M 54.140464782714844 69.30439758300781 C 40.71379089355469 152.04615783691406 84.88715362548828 84.85066223144531 31.31731414794922 158.5086212158203" stroke-width="3.0" fill="none" stroke="rgb(0, 0, 0)" stroke-opacity="1.0" stroke-linecap="round" stroke-linejoin="round"/>
    <path d="M 118.39513397216797 89.33688354492188 C 140.76258850097656 90.55211639404297 153.0145263671875 82.39982604980469 170.70513916015625 103.40203857421875" stroke-width="3.0" fill="none" stroke="rgb(0, 0, 0)" stroke-opacity="1.0" stroke-linecap="round" stroke-linejoin="round"/>
    <path d="M 148.9178466796875 121.27108764648438 C 142.11865234375 125.51274871826172 123.37586212158203 124.97758483886719 134.9202880859375 127.65933990478516" stroke-width="3.0" fill="none" stroke="rgb(0, 0, 0)" stroke-opacity="1.0" stroke-linecap="round" stroke-linejoin="round"/>
    <path d="M 78.32306671142578 123.24202728271484 C 84.67574310302734 122.10295867919922 65.52313995361328 134.65280151367188 82.63031768798828 108.15280151367188" stroke-width="3.0" fill="none" stroke="rgb(0, 0, 0)" stroke-opacity="1.0" stroke-linecap="round" stroke-linejoin="round"/>
    <path d="M 139.94725036621094 127.35870361328125 C 120.7240982055664 176.67832946777344 141.61964416503906 156.07078552246094 99.0309066772461 184.77378845214844" stroke-width="3.0" fill="none" stroke="rgb(0, 0, 0)" stroke-opacity="1.0" stroke-linecap="round" stroke-linejoin="round"/>
    <path d="M 53.77323532104492 125.85872650146484 C -3.468494415283203 173.8022918701172 51.533447265625 158.1226348876953 16.579612731933594 169.3976287841797" stroke-width="3.0" fill="none" stroke="rgb(0, 0, 0)" stroke-opacity="1.0" stroke-linecap="round" stroke-linejoin="round"/>
    <path d="M 47.63306427001953 40.33481979370117 C 111.52568817138672 100.06792449951172 78.23729705810547 78.64647674560547 135.2168426513672 90.2892837524414" stroke-width="3.0" fill="none" stroke="rgb(0, 0, 0)" stroke-opacity="1.0" stroke-linecap="round" stroke-linejoin="round"/>
    <path d="M 133.47743225097656 160.49139404296875 C 149.10047912597656 119.3675765991211 152.16929626464844 153.8438262939453 179.82199096679688 106.39032745361328" stroke-width="3.0" fill="none" stroke="rgb(0, 0, 0)" stroke-opacity="1.0" stroke-linecap="round" stroke-linejoin="round"/>
    <path d="M 29.701025009155273 152.7644500732422 C 76.56981658935547 116.7216567993164 60.095977783203125 145.0024871826172 71.17359161376953 113.71607971191406" stroke-width="3.0" fill="none" stroke="rgb(0, 0, 0)" stroke-opacity="1.0" stroke-linecap="round" stroke-linejoin="round"/>
    <path d="M 154.89208984375 120.70886993408203 C 138.50831604003906 131.922119140625 136.43316650390625 123.02666473388672 141.89999389648438 131.7683563232422" stroke-width="3.0" fill="none" stroke="rgb(0, 0, 0)" stroke-opacity="1.0" stroke-linecap="round" stroke-linejoin="round"/>
    <path d="M 172.9391326904297 110.74261474609375 C 174.65084838867188 173.5017852783203 143.2460174560547 190.21600341796875 163.8778076171875 189.97010803222656" stroke-width="3.0" fill="none" stroke="rgb(0, 0, 0)" stroke-opacity="1.0" stroke-linecap="round" stroke-linejoin="round"/>
    <path d="M 12.558490753173828 73.8101806640625 C 82.43120574951172 14.800344467163086 -17.15850257873535 62.1290397644043 66.29367065429688 46.812904357910156" stroke-width="3.0" fill="none" stroke="rgb(0, 0, 0)" stroke-opacity="1.0" stroke-linecap="round" stroke-linejoin="round"/>
    <path d="M 86.07268524169922 68.14610290527344 C 34.905338287353516 42.80167770385742 5.416552543640137 22.40008544921875 79.15390014648438 60.378963470458984" stroke-width="3.0" fill="none" stroke="rgb(0, 0, 0)" stroke-opacity="1.0" stroke-linecap="round" stroke-linejoin="round"/>
  </g>
</svg>
