<?xml version="1.0" ?>
<svg xmlns="http://www.w3.org/2000/svg" version="1.1" width="224" height="224">
  <defs/>
  <g>
    <path d="M 77.67448425292969 111.82667541503906 C 73.57835388183594 131.0769805908203 77.20508575439453 118.3763427734375 73.10739135742188 121.69287872314453" stroke-width="3.0" fill="none" stroke="rgb(0, 0, 0)" stroke-opacity="1.0" stroke-linecap="round" stroke-linejoin="round"/>
    <path d="M 71.69889831542969 123.93573760986328 C 107.63993835449219 137.9580078125 122.49858856201172 127.27571868896484 136.40892028808594 129.48117065429688" stroke-width="3.0" fill="none" stroke="rgb(0, 0, 0)" stroke-opacity="1.0" stroke-linecap="round" stroke-linejoin="round"/>
    <path d="M 173.69744873046875 101.91256713867188 C 219.0788116455078 113.56928253173828 196.3655242919922 134.78073120117188 219.73788452148438 142.6868896484375" stroke-width="3.0" fill="none" stroke="rgb(0, 0, 0)" stroke-opacity="1.0" stroke-linecap="round" stroke-linejoin="round"/>
    <path d="M 44.06393814086914 67.97618865966797 C 69.73751068115234 152.3744659423828 41.42860794067383 96.13191986083984 36.39341354370117 147.73150634765625" stroke-width="3.0" fill="none" stroke="rgb(0, 0, 0)" stroke-opacity="1.0" stroke-linecap="round" stroke-linejoin="round"/>
    <path d="M 108.68286895751953 86.3443603515625 C 148.3176727294922 91.9359130859375 146.61807250976562 79.25328826904297 181.97537231445312 109.41377258300781" stroke-width="3.0" fill="none" stroke="rgb(0, 0, 0)" stroke-opacity="1.0" stroke-linecap="round" stroke-linejoin="round"/>
    <path d="M 135.17068481445312 127.44775390625 C 135.32284545898438 125.54052734375 152.92018127441406 120.98663330078125 118.70111846923828 128.6236114501953" stroke-width="3.0" fill="none" stroke="rgb(0, 0, 0)" stroke-opacity="1.0" stroke-linecap="round" stroke-linejoin="round"/>
    <path d="M 67.94924926757812 125.90384674072266 C 89.472900390625 103.6215591430664 62.709083557128906 133.07745361328125 77.8228759765625 113.78564453125" stroke-width="3.0" fill="none" stroke="rgb(0, 0, 0)" stroke-opacity="1.0" stroke-linecap="round" stroke-linejoin="round"/>
    <path d="M 137.98973083496094 132.01687622070312 C 122.01734924316406 174.7870330810547 141.53118896484375 157.53787231445312 97.71036529541016 183.9364471435547" stroke-width="3.0" fill="none" stroke="rgb(0, 0, 0)" stroke-opacity="1.0" stroke-linecap="round" stroke-linejoin="round"/>
    <path d="M 46.417015075683594 132.4600372314453 C -13.837767601013184 213.15737915039062 68.54332733154297 126.90609741210938 13.523589134216309 168.39163208007812" stroke-width="3.0" fill="none" stroke="rgb(0, 0, 0)" stroke-opacity="1.0" stroke-linecap="round" stroke-linejoin="round"/>
    <path d="M 31.166183471679688 36.012203216552734 C 104.59793853759766 71.47695922851562 53.42361831665039 61.13777160644531 106.67953491210938 86.10980987548828" stroke-width="3.0" fill="none" stroke="rgb(0, 0, 0)" stroke-opacity="1.0" stroke-linecap="round" stroke-linejoin="round"/>
    <path d="M 129.8799591064453 163.3660125732422 C 152.05343627929688 114.1576156616211 149.953125 156.91114807128906 181.3883514404297 110.46746826171875" stroke-width="3.0" fill="none" stroke="rgb(0, 0, 0)" stroke-opacity="1.0" stroke-linecap="round" stroke-linejoin="round"/>
    <path d="M 38.05535125732422 159.23081970214844 C 60.18326950073242 113.83489990234375 45.261905670166016 147.47547912597656 82.3292007446289 113.21988677978516" stroke-width="3.0" fill="none" stroke="rgb(0, 0, 0)" stroke-opacity="1.0" stroke-linecap="round" stroke-linejoin="round"/>
    <path d="M 159.12066650390625 116.89669799804688 C 136.5663299560547 132.27085876464844 164.83277893066406 118.78860473632812 103.59307861328125 132.3784942626953" stroke-width="3.0" fill="none" stroke="rgb(0, 0, 0)" stroke-opacity="1.0" stroke-linecap="round" stroke-linejoin="round"/>
    <path d="M 172.3203887939453 107.31437683105469 C 165.309814453125 232.4323272705078 136.69566345214844 182.21046447753906 160.6876983642578 190.0673370361328" stroke-width="3.0" fill="none" stroke="rgb(0, 0, 0)" stroke-opacity="1.0" stroke-linecap="round" stroke-linejoin="round"/>
    <path d="M 13.216687202453613 76.37163543701172 C 68.8310775756836 7.006794452667236 -17.0384578704834 83.49091339111328 54.66458511352539 36.24567794799805" stroke-width="3.0" fill="none" stroke="rgb(0, 0, 0)" stroke-opacity="1.0" stroke-linecap="round" stroke-linejoin="round"/>
    <path d="M 95.88249206542969 74.3399429321289 C 82.34837341308594 20.15989875793457 -29.67595100402832 42.092063903808594 81.84071350097656 47.619781494140625" stroke-width="3.0" fill="none" stroke="rgb(0, 0, 0)" stroke-opacity="1.0" stroke-linecap="round" stroke-linejoin="round"/>
  </g>
</svg>
