<?xml version="1.0" ?>
<svg xmlns="http://www.w3.org/2000/svg" version="1.1" width="224" height="224">
  <defs/>
  <g>
    <path d="M 78.06375885009766 117.16520690917969 C 85.63531494140625 127.78145599365234 77.13973236083984 127.94247436523438 77.4845199584961 119.32496643066406" stroke-width="3.0" fill="none" stroke="rgb(0, 0, 0)" stroke-opacity="1.0" stroke-linecap="round" stroke-linejoin="round"/>
    <path d="M 72.00146484375 125.4848861694336 C 115.3558578491211 133.27442932128906 113.30862426757812 126.08505249023438 133.2914581298828 123.41056060791016" stroke-width="3.0" fill="none" stroke="rgb(0, 0, 0)" stroke-opacity="1.0" stroke-linecap="round" stroke-linejoin="round"/>
    <path d="M 152.48377990722656 89.61275482177734 C 228.90933227539062 121.76776885986328 192.70201110839844 128.29315185546875 214.82447814941406 143.43508911132812" stroke-width="3.0" fill="none" stroke="rgb(0, 0, 0)" stroke-opacity="1.0" stroke-linecap="round" stroke-linejoin="round"/>
    <path d="M 54.20178985595703 69.80593872070312 C 40.33335876464844 148.21527099609375 82.4790267944336 85.18109893798828 33.464473724365234 158.64105224609375" stroke-width="3.0" fill="none" stroke="rgb(0, 0, 0)" stroke-opacity="1.0" stroke-linecap="round" stroke-linejoin="round"/>
    <path d="M 121.92544555664062 88.92705535888672 C 141.0939178466797 91.63273620605469 154.40663146972656 82.42510986328125 173.3025360107422 102.63909912109375" stroke-width="3.0" fill="none" stroke="rgb(0, 0, 0)" stroke-opacity="1.0" stroke-linecap="round" stroke-linejoin="round"/>
    <path d="M 145.45777893066406 120.96324920654297 C 143.7430877685547 124.32219696044922 124.54497528076172 118.99981689453125 134.5900421142578 122.93612670898438" stroke-width="3.0" fill="none" stroke="rgb(0, 0, 0)" stroke-opacity="1.0" stroke-linecap="round" stroke-linejoin="round"/>
    <path d="M 75.31595611572266 120.84817504882812 C 81.392333984375 120.34968566894531 64.2657699584961 135.9883575439453 84.07862854003906 108.53145599365234" stroke-width="3.0" fill="none" stroke="rgb(0, 0, 0)" stroke-opacity="1.0" stroke-linecap="round" stroke-linejoin="round"/>
    <path d="M 141.2083740234375 128.137451171875 C 122.45166015625 174.9328155517578 141.11947631835938 155.139892578125 98.84294891357422 186.6690216064453" stroke-width="3.0" fill="none" stroke="rgb(0, 0, 0)" stroke-opacity="1.0" stroke-linecap="round" stroke-linejoin="round"/>
    <path d="M 55.64155197143555 130.25575256347656 C -3.1435563564300537 176.3346710205078 51.02560043334961 158.29708862304688 16.591388702392578 168.8472137451172" stroke-width="3.0" fill="none" stroke="rgb(0, 0, 0)" stroke-opacity="1.0" stroke-linecap="round" stroke-linejoin="round"/>
    <path d="M 47.10401153564453 38.984336853027344 C 115.1995849609375 95.76249694824219 78.74481201171875 80.80013275146484 136.78195190429688 90.17311096191406" stroke-width="3.0" fill="none" stroke="rgb(0, 0, 0)" stroke-opacity="1.0" stroke-linecap="round" stroke-linejoin="round"/>
    <path d="M 134.0013885498047 160.5904998779297 C 150.2539825439453 117.76213073730469 150.490966796875 152.6492462158203 182.43568420410156 108.02059936523438" stroke-width="3.0" fill="none" stroke="rgb(0, 0, 0)" stroke-opacity="1.0" stroke-linecap="round" stroke-linejoin="round"/>
    <path d="M 30.425321578979492 153.35679626464844 C 74.67396545410156 117.04084777832031 61.630882263183594 145.22369384765625 71.7593002319336 115.08222961425781" stroke-width="3.0" fill="none" stroke="rgb(0, 0, 0)" stroke-opacity="1.0" stroke-linecap="round" stroke-linejoin="round"/>
    <path d="M 157.09983825683594 122.5887680053711 C 137.53054809570312 132.89637756347656 135.83558654785156 126.29470825195312 141.74803161621094 128.9792022705078" stroke-width="3.0" fill="none" stroke="rgb(0, 0, 0)" stroke-opacity="1.0" stroke-linecap="round" stroke-linejoin="round"/>
    <path d="M 174.87747192382812 110.297607421875 C 174.31192016601562 178.51792907714844 142.59381103515625 195.37265014648438 158.32667541503906 190.96119689941406" stroke-width="3.0" fill="none" stroke="rgb(0, 0, 0)" stroke-opacity="1.0" stroke-linecap="round" stroke-linejoin="round"/>
    <path d="M 13.906298637390137 75.605224609375 C 79.15774536132812 14.200297355651855 -24.846364974975586 58.347110748291016 68.73053741455078 46.78904342651367" stroke-width="3.0" fill="none" stroke="rgb(0, 0, 0)" stroke-opacity="1.0" stroke-linecap="round" stroke-linejoin="round"/>
    <path d="M 85.89336395263672 66.66048431396484 C 33.899654388427734 43.170658111572266 0.15898579359054565 27.14093780517578 81.17562103271484 58.31488800048828" stroke-width="3.0" fill="none" stroke="rgb(0, 0, 0)" stroke-opacity="1.0" stroke-linecap="round" stroke-linejoin="round"/>
  </g>
</svg>
