<?xml version="1.0" ?>
<svg xmlns="http://www.w3.org/2000/svg" version="1.1" width="224" height="224">
  <defs/>
  <g>
    <path d="M 100.96929931640625 110.8145523071289 C 105.13806915283203 111.69808959960938 109.17935180664062 116.71086120605469 100.6700210571289 108.51798248291016" stroke-width="3.0" fill="none" stroke="rgb(0, 0, 0)" stroke-opacity="1.0" stroke-linecap="round" stroke-linejoin="round"/>
    <path d="M 93.46795654296875 128.93138122558594 C 114.49365234375 127.01396942138672 98.22566986083984 137.49497985839844 129.20059204101562 117.68265533447266" stroke-width="3.0" fill="none" stroke="rgb(0, 0, 0)" stroke-opacity="1.0" stroke-linecap="round" stroke-linejoin="round"/>
    <path d="M 168.9832000732422 96.47319030761719 C 210.9497833251953 114.44551086425781 182.46897888183594 126.0289077758789 213.82986450195312 145.44705200195312" stroke-width="3.0" fill="none" stroke="rgb(0, 0, 0)" stroke-opacity="1.0" stroke-linecap="round" stroke-linejoin="round"/>
    <path d="M 50.17549133300781 97.88957977294922 C 50.68341827392578 119.56861877441406 54.17377471923828 104.95764923095703 61.36323165893555 125.68409729003906" stroke-width="3.0" fill="none" stroke="rgb(0, 0, 0)" stroke-opacity="1.0" stroke-linecap="round" stroke-linejoin="round"/>
    <path d="M 147.60342407226562 89.8306884765625 C 154.38262939453125 95.77883911132812 143.12571716308594 88.31261444091797 155.51268005371094 94.3280029296875" stroke-width="3.0" fill="none" stroke="rgb(0, 0, 0)" stroke-opacity="1.0" stroke-linecap="round" stroke-linejoin="round"/>
    <path d="M 137.46295166015625 110.91731262207031 C 122.74944305419922 120.13648986816406 110.81822204589844 124.21635437011719 126.01687622070312 116.97357940673828" stroke-width="3.0" fill="none" stroke="rgb(0, 0, 0)" stroke-opacity="1.0" stroke-linecap="round" stroke-linejoin="round"/>
    <path d="M 96.12480163574219 111.30497741699219 C 87.51283264160156 100.75289916992188 88.10423278808594 100.44139099121094 83.50338745117188 116.6767807006836" stroke-width="3.0" fill="none" stroke="rgb(0, 0, 0)" stroke-opacity="1.0" stroke-linecap="round" stroke-linejoin="round"/>
    <path d="M 128.35081481933594 137.9594268798828 C 143.3751983642578 167.6633758544922 138.1498260498047 153.5472412109375 96.9197998046875 183.34658813476562" stroke-width="3.0" fill="none" stroke="rgb(0, 0, 0)" stroke-opacity="1.0" stroke-linecap="round" stroke-linejoin="round"/>
    <path d="M 46.8446159362793 155.81394958496094 C 37.2155647277832 164.26966857910156 66.2292251586914 134.37393188476562 15.93490982055664 168.04591369628906" stroke-width="3.0" fill="none" stroke="rgb(0, 0, 0)" stroke-opacity="1.0" stroke-linecap="round" stroke-linejoin="round"/>
    <path d="M 93.31476593017578 78.29106140136719 C 106.92493438720703 86.44935607910156 105.4202880859375 88.2382583618164 121.016845703125 92.75908660888672" stroke-width="3.0" fill="none" stroke="rgb(0, 0, 0)" stroke-opacity="1.0" stroke-linecap="round" stroke-linejoin="round"/>
    <path d="M 128.23818969726562 137.22491455078125 C 121.89466094970703 135.06576538085938 152.10011291503906 140.42022705078125 170.4329071044922 127.58714294433594" stroke-width="3.0" fill="none" stroke="rgb(0, 0, 0)" stroke-opacity="1.0" stroke-linecap="round" stroke-linejoin="round"/>
    <path d="M 69.91181182861328 122.39744567871094 C 94.55116271972656 117.2955322265625 84.7689208984375 96.64398956298828 94.7289810180664 107.20664978027344" stroke-width="3.0" fill="none" stroke="rgb(0, 0, 0)" stroke-opacity="1.0" stroke-linecap="round" stroke-linejoin="round"/>
    <path d="M 144.3279571533203 101.8306884765625 C 139.07579040527344 109.99575805664062 139.4415740966797 105.79572296142578 133.40179443359375 114.29849243164062" stroke-width="3.0" fill="none" stroke="rgb(0, 0, 0)" stroke-opacity="1.0" stroke-linecap="round" stroke-linejoin="round"/>
    <path d="M 159.6768341064453 137.1886444091797 C 184.90049743652344 156.22311401367188 147.415283203125 195.81527709960938 169.7057342529297 191.1559600830078" stroke-width="3.0" fill="none" stroke="rgb(0, 0, 0)" stroke-opacity="1.0" stroke-linecap="round" stroke-linejoin="round"/>
    <path d="M 27.230993270874023 48.83256912231445 C 56.83634567260742 34.5555419921875 60.47419738769531 54.986228942871094 68.76699829101562 40.34237289428711" stroke-width="3.0" fill="none" stroke="rgb(0, 0, 0)" stroke-opacity="1.0" stroke-linecap="round" stroke-linejoin="round"/>
    <path d="M 95.86909484863281 66.57357025146484 C 83.28961944580078 46.79416275024414 80.59308624267578 56.1104850769043 75.16796112060547 44.75325012207031" stroke-width="3.0" fill="none" stroke="rgb(0, 0, 0)" stroke-opacity="1.0" stroke-linecap="round" stroke-linejoin="round"/>
  </g>
</svg>
