<?xml version="1.0" ?>
<svg xmlns="http://www.w3.org/2000/svg" version="1.1" width="224" height="224">
  <defs/>
  <g>
    <path d="M 77.67851257324219 108.04045104980469 C 88.1180648803711 133.92022705078125 81.4791030883789 119.60559844970703 78.48847961425781 124.0223388671875" stroke-width="3.0" fill="none" stroke="rgb(0, 0, 0)" stroke-opacity="1.0" stroke-linecap="round" stroke-linejoin="round"/>
    <path d="M 76.21340942382812 123.71749877929688 C 107.30768585205078 137.2115936279297 112.3708267211914 128.0408477783203 132.9030303955078 128.9394073486328" stroke-width="3.0" fill="none" stroke="rgb(0, 0, 0)" stroke-opacity="1.0" stroke-linecap="round" stroke-linejoin="round"/>
    <path d="M 170.56309509277344 102.20850372314453 C 220.65872192382812 118.65348815917969 195.3701629638672 134.3405303955078 217.11154174804688 142.70281982421875" stroke-width="3.0" fill="none" stroke="rgb(0, 0, 0)" stroke-opacity="1.0" stroke-linecap="round" stroke-linejoin="round"/>
    <path d="M 56.69694137573242 57.70736312866211 C 67.00704193115234 161.24441528320312 62.871559143066406 82.08302307128906 35.425010681152344 148.3326873779297" stroke-width="3.0" fill="none" stroke="rgb(0, 0, 0)" stroke-opacity="1.0" stroke-linecap="round" stroke-linejoin="round"/>
    <path d="M 104.31141662597656 83.67632293701172 C 138.60812377929688 92.47193145751953 144.1209716796875 77.61067962646484 174.9718780517578 103.5844955444336" stroke-width="3.0" fill="none" stroke="rgb(0, 0, 0)" stroke-opacity="1.0" stroke-linecap="round" stroke-linejoin="round"/>
    <path d="M 128.8834686279297 126.51175689697266 C 142.1248779296875 128.23141479492188 146.0859832763672 120.31792449951172 125.50686645507812 127.60652923583984" stroke-width="3.0" fill="none" stroke="rgb(0, 0, 0)" stroke-opacity="1.0" stroke-linecap="round" stroke-linejoin="round"/>
    <path d="M 75.65817260742188 124.6755142211914 C 94.91596221923828 104.12561798095703 71.54306030273438 136.46453857421875 82.5611343383789 120.66133117675781" stroke-width="3.0" fill="none" stroke="rgb(0, 0, 0)" stroke-opacity="1.0" stroke-linecap="round" stroke-linejoin="round"/>
    <path d="M 140.89010620117188 129.67506408691406 C 117.90373992919922 177.6131591796875 139.9176483154297 159.25933837890625 97.53802490234375 184.0143280029297" stroke-width="3.0" fill="none" stroke="rgb(0, 0, 0)" stroke-opacity="1.0" stroke-linecap="round" stroke-linejoin="round"/>
    <path d="M 53.56747817993164 128.08326721191406 C -14.26093864440918 203.52130126953125 70.1203384399414 136.3819122314453 15.006667137145996 168.22268676757812" stroke-width="3.0" fill="none" stroke="rgb(0, 0, 0)" stroke-opacity="1.0" stroke-linecap="round" stroke-linejoin="round"/>
    <path d="M 35.519901275634766 37.232723236083984 C 109.69595336914062 72.97201538085938 57.28441619873047 67.55541229248047 111.41388702392578 85.11135864257812" stroke-width="3.0" fill="none" stroke="rgb(0, 0, 0)" stroke-opacity="1.0" stroke-linecap="round" stroke-linejoin="round"/>
    <path d="M 130.2969207763672 164.11212158203125 C 157.07945251464844 116.02303314208984 151.8357391357422 158.65940856933594 178.81922912597656 106.08280181884766" stroke-width="3.0" fill="none" stroke="rgb(0, 0, 0)" stroke-opacity="1.0" stroke-linecap="round" stroke-linejoin="round"/>
    <path d="M 42.60647201538086 157.50704956054688 C 60.76408004760742 115.97531127929688 50.53590393066406 150.7109375 81.56010437011719 115.03509521484375" stroke-width="3.0" fill="none" stroke="rgb(0, 0, 0)" stroke-opacity="1.0" stroke-linecap="round" stroke-linejoin="round"/>
    <path d="M 156.55148315429688 117.09365844726562 C 135.607177734375 131.38099670410156 162.7838592529297 115.04859161376953 107.39173889160156 130.6038360595703" stroke-width="3.0" fill="none" stroke="rgb(0, 0, 0)" stroke-opacity="1.0" stroke-linecap="round" stroke-linejoin="round"/>
    <path d="M 172.6925811767578 108.17009735107422 C 164.91636657714844 229.55165100097656 137.53286743164062 179.06088256835938 160.08627319335938 187.99563598632812" stroke-width="3.0" fill="none" stroke="rgb(0, 0, 0)" stroke-opacity="1.0" stroke-linecap="round" stroke-linejoin="round"/>
    <path d="M 9.526339530944824 76.05033874511719 C 62.40871810913086 15.030407905578613 -11.609695434570312 88.51261901855469 54.57988739013672 37.726707458496094" stroke-width="3.0" fill="none" stroke="rgb(0, 0, 0)" stroke-opacity="1.0" stroke-linecap="round" stroke-linejoin="round"/>
    <path d="M 96.21915435791016 79.53752899169922 C 82.19058990478516 21.93315315246582 -26.623952865600586 46.841339111328125 82.22096252441406 51.97283935546875" stroke-width="3.0" fill="none" stroke="rgb(0, 0, 0)" stroke-opacity="1.0" stroke-linecap="round" stroke-linejoin="round"/>
  </g>
</svg>
