<?xml version="1.0" ?>
<svg xmlns="http://www.w3.org/2000/svg" version="1.1" width="224" height="224">
  <defs/>
  <g>
    <path d="M 79.22766876220703 109.59117126464844 C 88.04442596435547 132.8867950439453 80.47108459472656 121.43128204345703 79.16545867919922 120.74664306640625" stroke-width="3.0" fill="none" stroke="rgb(0, 0, 0)" stroke-opacity="1.0" stroke-linecap="round" stroke-linejoin="round"/>
    <path d="M 74.09882354736328 123.54480743408203 C 115.48965454101562 133.68017578125 112.13796997070312 126.25857543945312 134.11924743652344 123.13469696044922" stroke-width="3.0" fill="none" stroke="rgb(0, 0, 0)" stroke-opacity="1.0" stroke-linecap="round" stroke-linejoin="round"/>
    <path d="M 164.44863891601562 97.59732055664062 C 221.17677307128906 119.69276428222656 192.78611755371094 131.7245635986328 215.66403198242188 142.50132751464844" stroke-width="3.0" fill="none" stroke="rgb(0, 0, 0)" stroke-opacity="1.0" stroke-linecap="round" stroke-linejoin="round"/>
    <path d="M 53.07689666748047 68.6848373413086 C 47.97105407714844 153.54052734375 74.34332275390625 76.65679931640625 35.24228286743164 154.78114318847656" stroke-width="3.0" fill="none" stroke="rgb(0, 0, 0)" stroke-opacity="1.0" stroke-linecap="round" stroke-linejoin="round"/>
    <path d="M 116.19677734375 88.31009674072266 C 136.50759887695312 89.78031158447266 153.28651428222656 79.27845001220703 171.07789611816406 104.71575164794922" stroke-width="3.0" fill="none" stroke="rgb(0, 0, 0)" stroke-opacity="1.0" stroke-linecap="round" stroke-linejoin="round"/>
    <path d="M 134.20193481445312 123.21117401123047 C 129.57069396972656 126.51686096191406 138.74354553222656 126.3119125366211 134.19610595703125 122.72460174560547" stroke-width="3.0" fill="none" stroke="rgb(0, 0, 0)" stroke-opacity="1.0" stroke-linecap="round" stroke-linejoin="round"/>
    <path d="M 81.06587982177734 123.8372573852539 C 89.79463958740234 105.543212890625 62.60620880126953 130.68594360351562 81.92230987548828 119.43441772460938" stroke-width="3.0" fill="none" stroke="rgb(0, 0, 0)" stroke-opacity="1.0" stroke-linecap="round" stroke-linejoin="round"/>
    <path d="M 140.49700927734375 126.45784759521484 C 120.4184799194336 176.62831115722656 141.24359130859375 154.46803283691406 99.56119537353516 185.2809600830078" stroke-width="3.0" fill="none" stroke="rgb(0, 0, 0)" stroke-opacity="1.0" stroke-linecap="round" stroke-linejoin="round"/>
    <path d="M 55.78042221069336 123.07097625732422 C -10.657549858093262 177.70419311523438 62.509342193603516 150.22543334960938 15.575215339660645 169.09136962890625" stroke-width="3.0" fill="none" stroke="rgb(0, 0, 0)" stroke-opacity="1.0" stroke-linecap="round" stroke-linejoin="round"/>
    <path d="M 37.936744689941406 35.64335632324219 C 126.79186248779297 87.26277160644531 54.44059753417969 75.01744842529297 117.02386474609375 88.28028869628906" stroke-width="3.0" fill="none" stroke="rgb(0, 0, 0)" stroke-opacity="1.0" stroke-linecap="round" stroke-linejoin="round"/>
    <path d="M 132.29779052734375 161.8993682861328 C 152.216796875 114.57182312011719 147.0708770751953 155.97413635253906 180.31491088867188 109.41527557373047" stroke-width="3.0" fill="none" stroke="rgb(0, 0, 0)" stroke-opacity="1.0" stroke-linecap="round" stroke-linejoin="round"/>
    <path d="M 32.68906784057617 149.5950927734375 C 73.61133575439453 116.63383483886719 60.97785949707031 140.6608428955078 73.8972396850586 115.72039031982422" stroke-width="3.0" fill="none" stroke="rgb(0, 0, 0)" stroke-opacity="1.0" stroke-linecap="round" stroke-linejoin="round"/>
    <path d="M 148.76486206054688 116.84132385253906 C 139.28347778320312 126.95375061035156 140.24765014648438 119.38275146484375 130.02059936523438 124.72212219238281" stroke-width="3.0" fill="none" stroke="rgb(0, 0, 0)" stroke-opacity="1.0" stroke-linecap="round" stroke-linejoin="round"/>
    <path d="M 173.97384643554688 111.05488586425781 C 166.43804931640625 229.21324157714844 137.6264190673828 182.16510009765625 162.04635620117188 189.4934539794922" stroke-width="3.0" fill="none" stroke="rgb(0, 0, 0)" stroke-opacity="1.0" stroke-linecap="round" stroke-linejoin="round"/>
    <path d="M 14.54014778137207 76.47422790527344 C 67.00199890136719 19.567047119140625 -16.28304100036621 75.38169860839844 53.585426330566406 40.6541633605957" stroke-width="3.0" fill="none" stroke="rgb(0, 0, 0)" stroke-opacity="1.0" stroke-linecap="round" stroke-linejoin="round"/>
    <path d="M 92.3332290649414 70.21728515625 C 54.31431579589844 28.784976959228516 -5.496401786804199 35.960880279541016 79.79107666015625 52.52485275268555" stroke-width="3.0" fill="none" stroke="rgb(0, 0, 0)" stroke-opacity="1.0" stroke-linecap="round" stroke-linejoin="round"/>
  </g>
</svg>
