<?xml version="1.0" ?>
<svg xmlns="http://www.w3.org/2000/svg" version="1.1" width="224" height="224">
  <defs/>
  <g>
    <path d="M 85.52452850341797 125.67034149169922 C 82.05068969726562 121.47501373291016 78.99958038330078 123.10688781738281 75.5647201538086 116.42243957519531" stroke-width="3.0" fill="none" stroke="rgb(0, 0, 0)" stroke-opacity="1.0" stroke-linecap="round" stroke-linejoin="round"/>
    <path d="M 74.32261657714844 119.26070404052734 C 95.78365325927734 136.9586639404297 112.8074951171875 124.46748352050781 133.19911193847656 123.58959197998047" stroke-width="3.0" fill="none" stroke="rgb(0, 0, 0)" stroke-opacity="1.0" stroke-linecap="round" stroke-linejoin="round"/>
    <path d="M 156.29495239257812 91.88252258300781 C 226.6121826171875 120.49015045166016 186.15484619140625 131.37449645996094 214.4821014404297 145.28271484375" stroke-width="3.0" fill="none" stroke="rgb(0, 0, 0)" stroke-opacity="1.0" stroke-linecap="round" stroke-linejoin="round"/>
    <path d="M 60.908164978027344 68.97380828857422 C 46.67544174194336 150.2182159423828 88.20909881591797 101.58845520019531 41.57870864868164 151.7657928466797" stroke-width="3.0" fill="none" stroke="rgb(0, 0, 0)" stroke-opacity="1.0" stroke-linecap="round" stroke-linejoin="round"/>
    <path d="M 135.37249755859375 88.2545394897461 C 142.69149780273438 89.2530517578125 164.43955993652344 86.44547271728516 179.49859619140625 107.37925720214844" stroke-width="3.0" fill="none" stroke="rgb(0, 0, 0)" stroke-opacity="1.0" stroke-linecap="round" stroke-linejoin="round"/>
    <path d="M 133.4924774169922 121.61673736572266 C 133.02279663085938 121.33051300048828 117.22828674316406 125.9383316040039 123.96935272216797 124.03287506103516" stroke-width="3.0" fill="none" stroke="rgb(0, 0, 0)" stroke-opacity="1.0" stroke-linecap="round" stroke-linejoin="round"/>
    <path d="M 78.16169738769531 122.3567886352539 C 79.09955596923828 118.01155090332031 65.16105651855469 123.86909484863281 86.68347930908203 125.77827453613281" stroke-width="3.0" fill="none" stroke="rgb(0, 0, 0)" stroke-opacity="1.0" stroke-linecap="round" stroke-linejoin="round"/>
    <path d="M 142.18482971191406 133.42823791503906 C 124.40399932861328 166.551025390625 151.4644317626953 148.78192138671875 99.1668930053711 183.9969024658203" stroke-width="3.0" fill="none" stroke="rgb(0, 0, 0)" stroke-opacity="1.0" stroke-linecap="round" stroke-linejoin="round"/>
    <path d="M 60.71967315673828 116.79502868652344 C 0.6201902627944946 170.4384765625 60.97705078125 139.8668670654297 15.62057113647461 169.81881713867188" stroke-width="3.0" fill="none" stroke="rgb(0, 0, 0)" stroke-opacity="1.0" stroke-linecap="round" stroke-linejoin="round"/>
    <path d="M 71.87714385986328 41.673484802246094 C 89.47463989257812 100.23375701904297 100.15852355957031 78.79257202148438 141.0159149169922 90.17813110351562" stroke-width="3.0" fill="none" stroke="rgb(0, 0, 0)" stroke-opacity="1.0" stroke-linecap="round" stroke-linejoin="round"/>
    <path d="M 138.55548095703125 136.14669799804688 C 138.58587646484375 130.19671630859375 138.46604919433594 139.09767150878906 177.1470947265625 117.2787857055664" stroke-width="3.0" fill="none" stroke="rgb(0, 0, 0)" stroke-opacity="1.0" stroke-linecap="round" stroke-linejoin="round"/>
    <path d="M 48.83287048339844 136.2179718017578 C 78.61719512939453 125.48446655273438 74.7396240234375 136.81703186035156 73.79798126220703 115.0650863647461" stroke-width="3.0" fill="none" stroke="rgb(0, 0, 0)" stroke-opacity="1.0" stroke-linecap="round" stroke-linejoin="round"/>
    <path d="M 138.0242919921875 118.05279541015625 C 129.494384765625 124.60871887207031 135.74887084960938 125.15746307373047 132.6513671875 122.6056900024414" stroke-width="3.0" fill="none" stroke="rgb(0, 0, 0)" stroke-opacity="1.0" stroke-linecap="round" stroke-linejoin="round"/>
    <path d="M 163.15586853027344 129.975830078125 C 190.64749145507812 163.73388671875 133.98944091796875 210.5092010498047 159.33493041992188 194.64697265625" stroke-width="3.0" fill="none" stroke="rgb(0, 0, 0)" stroke-opacity="1.0" stroke-linecap="round" stroke-linejoin="round"/>
    <path d="M 13.486987113952637 76.73281860351562 C 71.53772735595703 -2.488804817199707 4.715138912200928 61.16142654418945 65.29924774169922 32.45660400390625" stroke-width="3.0" fill="none" stroke="rgb(0, 0, 0)" stroke-opacity="1.0" stroke-linecap="round" stroke-linejoin="round"/>
    <path d="M 87.5611801147461 65.81231689453125 C 51.703460693359375 34.21036911010742 27.457386016845703 21.848514556884766 82.62327575683594 56.266605377197266" stroke-width="3.0" fill="none" stroke="rgb(0, 0, 0)" stroke-opacity="1.0" stroke-linecap="round" stroke-linejoin="round"/>
  </g>
</svg>
