<?xml version="1.0" ?>
<svg xmlns="http://www.w3.org/2000/svg" version="1.1" width="224" height="224">
  <defs/>
  <g>
    <path d="M 78.70235443115234 117.6388168334961 C 87.2707748413086 125.66771697998047 77.20116424560547 127.76061248779297 78.83119201660156 119.57495880126953" stroke-width="3.0" fill="none" stroke="rgb(0, 0, 0)" stroke-opacity="1.0" stroke-linecap="round" stroke-linejoin="round"/>
    <path d="M 72.05256652832031 124.77701568603516 C 114.95764923095703 133.15785217285156 111.83548736572266 125.55569458007812 132.8909149169922 124.40955352783203" stroke-width="3.0" fill="none" stroke="rgb(0, 0, 0)" stroke-opacity="1.0" stroke-linecap="round" stroke-linejoin="round"/>
    <path d="M 152.10580444335938 90.03070068359375 C 227.22329711914062 120.65548706054688 189.18289184570312 129.92401123046875 214.29263305664062 144.10568237304688" stroke-width="3.0" fill="none" stroke="rgb(0, 0, 0)" stroke-opacity="1.0" stroke-linecap="round" stroke-linejoin="round"/>
    <path d="M 54.46095657348633 69.8892822265625 C 40.53643798828125 150.16317749023438 83.42477416992188 85.08735656738281 33.16706466674805 157.94290161132812" stroke-width="3.0" fill="none" stroke="rgb(0, 0, 0)" stroke-opacity="1.0" stroke-linecap="round" stroke-linejoin="round"/>
    <path d="M 121.0072021484375 87.16353607177734 C 142.01181030273438 91.73690795898438 153.9599151611328 82.3952407836914 170.77333068847656 102.46138000488281" stroke-width="3.0" fill="none" stroke="rgb(0, 0, 0)" stroke-opacity="1.0" stroke-linecap="round" stroke-linejoin="round"/>
    <path d="M 144.8046875 118.2983627319336 C 142.51220703125 125.96297454833984 124.18523406982422 122.75868225097656 134.7711639404297 124.66152954101562" stroke-width="3.0" fill="none" stroke="rgb(0, 0, 0)" stroke-opacity="1.0" stroke-linecap="round" stroke-linejoin="round"/>
    <path d="M 78.35212707519531 122.75820922851562 C 83.91133880615234 121.17192840576172 65.90300750732422 135.40826416015625 82.13990783691406 107.99836730957031" stroke-width="3.0" fill="none" stroke="rgb(0, 0, 0)" stroke-opacity="1.0" stroke-linecap="round" stroke-linejoin="round"/>
    <path d="M 140.90765380859375 128.45652770996094 C 123.05493927001953 176.68003845214844 140.77166748046875 153.55091857910156 97.74089813232422 184.5638885498047" stroke-width="3.0" fill="none" stroke="rgb(0, 0, 0)" stroke-opacity="1.0" stroke-linecap="round" stroke-linejoin="round"/>
    <path d="M 52.437252044677734 126.19760131835938 C -4.594013214111328 173.2974090576172 50.835693359375 157.6532745361328 15.439251899719238 168.8992462158203" stroke-width="3.0" fill="none" stroke="rgb(0, 0, 0)" stroke-opacity="1.0" stroke-linecap="round" stroke-linejoin="round"/>
    <path d="M 48.13780212402344 41.33999252319336 C 113.01948547363281 98.76194763183594 76.88448333740234 82.0470199584961 135.2810821533203 89.57701110839844" stroke-width="3.0" fill="none" stroke="rgb(0, 0, 0)" stroke-opacity="1.0" stroke-linecap="round" stroke-linejoin="round"/>
    <path d="M 133.1953887939453 159.06802368164062 C 151.67071533203125 120.82980346679688 152.9107666015625 155.34642028808594 180.2936553955078 108.25550842285156" stroke-width="3.0" fill="none" stroke="rgb(0, 0, 0)" stroke-opacity="1.0" stroke-linecap="round" stroke-linejoin="round"/>
    <path d="M 30.784469604492188 152.9253387451172 C 76.41221618652344 116.42610168457031 62.63490676879883 145.0178985595703 70.0313491821289 114.24269104003906" stroke-width="3.0" fill="none" stroke="rgb(0, 0, 0)" stroke-opacity="1.0" stroke-linecap="round" stroke-linejoin="round"/>
    <path d="M 157.81727600097656 122.25032043457031 C 139.54931640625 135.3343048095703 136.19554138183594 126.07109832763672 141.704345703125 129.9798583984375" stroke-width="3.0" fill="none" stroke="rgb(0, 0, 0)" stroke-opacity="1.0" stroke-linecap="round" stroke-linejoin="round"/>
    <path d="M 174.1020050048828 111.41163635253906 C 174.45594787597656 176.0873260498047 142.6153564453125 193.02462768554688 161.32147216796875 192.00274658203125" stroke-width="3.0" fill="none" stroke="rgb(0, 0, 0)" stroke-opacity="1.0" stroke-linecap="round" stroke-linejoin="round"/>
    <path d="M 13.005319595336914 75.31392669677734 C 82.2069320678711 15.283981323242188 -18.42778968811035 60.849815368652344 69.81449890136719 48.21072769165039" stroke-width="3.0" fill="none" stroke="rgb(0, 0, 0)" stroke-opacity="1.0" stroke-linecap="round" stroke-linejoin="round"/>
    <path d="M 87.08610534667969 65.97933959960938 C 33.53639602661133 43.90351486206055 1.6915894746780396 25.805025100708008 79.5739974975586 58.787628173828125" stroke-width="3.0" fill="none" stroke="rgb(0, 0, 0)" stroke-opacity="1.0" stroke-linecap="round" stroke-linejoin="round"/>
  </g>
</svg>
