<?xml version="1.0" ?>
<svg xmlns="http://www.w3.org/2000/svg" version="1.1" width="224" height="224">
  <defs/>
  <g>
    <path d="M 75.46768951416016 120.9902114868164 C 80.57865905761719 126.41654968261719 82.2979965209961 124.92194366455078 77.3507080078125 116.8362045288086" stroke-width="3.0" fill="none" stroke="rgb(0, 0, 0)" stroke-opacity="1.0" stroke-linecap="round" stroke-linejoin="round"/>
    <path d="M 71.22577667236328 126.49421691894531 C 110.56936645507812 137.49319458007812 115.54395294189453 126.86207580566406 131.107666015625 125.48062133789062" stroke-width="3.0" fill="none" stroke="rgb(0, 0, 0)" stroke-opacity="1.0" stroke-linecap="round" stroke-linejoin="round"/>
    <path d="M 157.8403778076172 91.85294342041016 C 227.9616241455078 119.34077453613281 191.39942932128906 131.29527282714844 214.8350830078125 146.05813598632812" stroke-width="3.0" fill="none" stroke="rgb(0, 0, 0)" stroke-opacity="1.0" stroke-linecap="round" stroke-linejoin="round"/>
    <path d="M 51.05025100708008 68.97459411621094 C 36.16007995605469 145.00341796875 78.33983612060547 88.2927017211914 33.44799041748047 158.1710662841797" stroke-width="3.0" fill="none" stroke="rgb(0, 0, 0)" stroke-opacity="1.0" stroke-linecap="round" stroke-linejoin="round"/>
    <path d="M 129.49493408203125 90.76132202148438 C 133.00628662109375 88.73624420166016 168.31732177734375 85.46394348144531 172.0800323486328 104.2971420288086" stroke-width="3.0" fill="none" stroke="rgb(0, 0, 0)" stroke-opacity="1.0" stroke-linecap="round" stroke-linejoin="round"/>
    <path d="M 135.2670135498047 123.82508850097656 C 136.80148315429688 125.90979766845703 118.38554382324219 125.3026123046875 132.34217834472656 123.89969635009766" stroke-width="3.0" fill="none" stroke="rgb(0, 0, 0)" stroke-opacity="1.0" stroke-linecap="round" stroke-linejoin="round"/>
    <path d="M 77.09600067138672 121.72808074951172 C 81.11378479003906 117.66719055175781 67.17578125 123.99938201904297 78.71334075927734 123.82301330566406" stroke-width="3.0" fill="none" stroke="rgb(0, 0, 0)" stroke-opacity="1.0" stroke-linecap="round" stroke-linejoin="round"/>
    <path d="M 139.6746063232422 126.68975830078125 C 118.18406677246094 172.54318237304688 148.0550079345703 155.26956176757812 97.61695861816406 183.86671447753906" stroke-width="3.0" fill="none" stroke="rgb(0, 0, 0)" stroke-opacity="1.0" stroke-linecap="round" stroke-linejoin="round"/>
    <path d="M 60.351043701171875 120.6942367553711 C -3.8441426753997803 175.14781188964844 52.35954666137695 156.24154663085938 16.267807006835938 170.00685119628906" stroke-width="3.0" fill="none" stroke="rgb(0, 0, 0)" stroke-opacity="1.0" stroke-linecap="round" stroke-linejoin="round"/>
    <path d="M 54.089786529541016 41.01413345336914 C 107.66558074951172 102.98497772216797 90.39955139160156 81.7424087524414 135.14144897460938 91.13572692871094" stroke-width="3.0" fill="none" stroke="rgb(0, 0, 0)" stroke-opacity="1.0" stroke-linecap="round" stroke-linejoin="round"/>
    <path d="M 134.89549255371094 160.89886474609375 C 152.0609588623047 117.340576171875 151.9022674560547 157.6025390625 176.6444549560547 107.15118408203125" stroke-width="3.0" fill="none" stroke="rgb(0, 0, 0)" stroke-opacity="1.0" stroke-linecap="round" stroke-linejoin="round"/>
    <path d="M 32.201881408691406 152.25106811523438 C 73.78461456298828 120.1970443725586 58.392738342285156 144.80262756347656 78.29267120361328 112.9131851196289" stroke-width="3.0" fill="none" stroke="rgb(0, 0, 0)" stroke-opacity="1.0" stroke-linecap="round" stroke-linejoin="round"/>
    <path d="M 147.87786865234375 116.59323120117188 C 133.24124145507812 124.28836822509766 138.7513427734375 109.32250213623047 134.53997802734375 128.12017822265625" stroke-width="3.0" fill="none" stroke="rgb(0, 0, 0)" stroke-opacity="1.0" stroke-linecap="round" stroke-linejoin="round"/>
    <path d="M 168.37075805664062 122.07461547851562 C 176.42323303222656 154.79344177246094 143.43658447265625 201.2810821533203 159.40565490722656 190.0745849609375" stroke-width="3.0" fill="none" stroke="rgb(0, 0, 0)" stroke-opacity="1.0" stroke-linecap="round" stroke-linejoin="round"/>
    <path d="M 14.292571067810059 74.94056701660156 C 81.4936752319336 16.193523406982422 -14.603991508483887 62.07491683959961 73.84095001220703 48.6821403503418" stroke-width="3.0" fill="none" stroke="rgb(0, 0, 0)" stroke-opacity="1.0" stroke-linecap="round" stroke-linejoin="round"/>
    <path d="M 83.32029724121094 65.7244873046875 C 40.192623138427734 39.834205627441406 7.476921081542969 26.758331298828125 79.02337646484375 58.57553482055664" stroke-width="3.0" fill="none" stroke="rgb(0, 0, 0)" stroke-opacity="1.0" stroke-linecap="round" stroke-linejoin="round"/>
  </g>
</svg>
