<?xml version="1.0" ?>
<svg xmlns="http://www.w3.org/2000/svg" version="1.1" width="224" height="224">
  <defs/>
  <g>
    <path d="M 98.99567413330078 118.31253814697266 C 96.70761108398438 121.08133697509766 100.10691833496094 119.37872314453125 85.72210693359375 117.39814758300781" stroke-width="3.0" fill="none" stroke="rgb(0, 0, 0)" stroke-opacity="1.0" stroke-linecap="round" stroke-linejoin="round"/>
    <path d="M 84.67819213867188 120.45067596435547 C 99.61760711669922 127.99378204345703 118.55970764160156 127.1352767944336 132.4053497314453 119.1272201538086" stroke-width="3.0" fill="none" stroke="rgb(0, 0, 0)" stroke-opacity="1.0" stroke-linecap="round" stroke-linejoin="round"/>
    <path d="M 154.9032745361328 92.6052017211914 C 225.7955780029297 115.9364013671875 192.4415283203125 131.78781127929688 216.08241271972656 144.5943145751953" stroke-width="3.0" fill="none" stroke="rgb(0, 0, 0)" stroke-opacity="1.0" stroke-linecap="round" stroke-linejoin="round"/>
    <path d="M 53.864315032958984 75.82412719726562 C 52.43887710571289 133.2791290283203 82.11184692382812 105.17919921875 41.56018829345703 139.5052032470703" stroke-width="3.0" fill="none" stroke="rgb(0, 0, 0)" stroke-opacity="1.0" stroke-linecap="round" stroke-linejoin="round"/>
    <path d="M 132.783935546875 87.40804290771484 C 160.4301300048828 91.17220306396484 146.5060577392578 88.61942291259766 161.85096740722656 98.3671875" stroke-width="3.0" fill="none" stroke="rgb(0, 0, 0)" stroke-opacity="1.0" stroke-linecap="round" stroke-linejoin="round"/>
    <path d="M 140.06069946289062 117.82797241210938 C 130.24465942382812 124.63455200195312 120.66598510742188 123.34518432617188 125.31359100341797 122.71454620361328" stroke-width="3.0" fill="none" stroke="rgb(0, 0, 0)" stroke-opacity="1.0" stroke-linecap="round" stroke-linejoin="round"/>
    <path d="M 88.93914031982422 112.53888702392578 C 72.028076171875 129.0204315185547 71.20040893554688 114.62287139892578 91.18990325927734 123.07654571533203" stroke-width="3.0" fill="none" stroke="rgb(0, 0, 0)" stroke-opacity="1.0" stroke-linecap="round" stroke-linejoin="round"/>
    <path d="M 137.25534057617188 135.49095153808594 C 124.83007049560547 167.2282257080078 146.7017822265625 152.79185485839844 98.51335906982422 184.9785614013672" stroke-width="3.0" fill="none" stroke="rgb(0, 0, 0)" stroke-opacity="1.0" stroke-linecap="round" stroke-linejoin="round"/>
    <path d="M 53.955596923828125 128.0152587890625 C -2.5348191261291504 180.24734497070312 40.631065368652344 158.60411071777344 18.319278717041016 170.60243225097656" stroke-width="3.0" fill="none" stroke="rgb(0, 0, 0)" stroke-opacity="1.0" stroke-linecap="round" stroke-linejoin="round"/>
    <path d="M 80.90766906738281 66.69742584228516 C 95.75948333740234 89.44794464111328 107.04743957519531 84.82147216796875 141.8379364013672 88.23314666748047" stroke-width="3.0" fill="none" stroke="rgb(0, 0, 0)" stroke-opacity="1.0" stroke-linecap="round" stroke-linejoin="round"/>
    <path d="M 137.1514129638672 126.31304168701172 C 141.05282592773438 139.94317626953125 136.91358947753906 138.06312561035156 166.3222198486328 126.59194946289062" stroke-width="3.0" fill="none" stroke="rgb(0, 0, 0)" stroke-opacity="1.0" stroke-linecap="round" stroke-linejoin="round"/>
    <path d="M 63.60745620727539 133.91859436035156 C 88.51112365722656 118.83413696289062 62.41305160522461 115.98651885986328 86.80874633789062 115.43778991699219" stroke-width="3.0" fill="none" stroke="rgb(0, 0, 0)" stroke-opacity="1.0" stroke-linecap="round" stroke-linejoin="round"/>
    <path d="M 145.01113891601562 111.47077178955078 C 137.86639404296875 115.96806335449219 140.09584045410156 124.86763000488281 134.7713623046875 120.02307891845703" stroke-width="3.0" fill="none" stroke="rgb(0, 0, 0)" stroke-opacity="1.0" stroke-linecap="round" stroke-linejoin="round"/>
    <path d="M 155.60159301757812 136.25416564941406 C 185.55271911621094 169.7375946044922 140.84088134765625 195.99154663085938 158.9069366455078 190.3802490234375" stroke-width="3.0" fill="none" stroke="rgb(0, 0, 0)" stroke-opacity="1.0" stroke-linecap="round" stroke-linejoin="round"/>
    <path d="M 14.308919906616211 76.91268157958984 C 46.84702682495117 8.657669067382812 40.32572555541992 59.82157897949219 70.38743591308594 37.2894401550293" stroke-width="3.0" fill="none" stroke="rgb(0, 0, 0)" stroke-opacity="1.0" stroke-linecap="round" stroke-linejoin="round"/>
    <path d="M 86.4883804321289 66.6133041381836 C 56.424720764160156 42.31637191772461 47.15235137939453 39.93602752685547 79.94796752929688 47.658424377441406" stroke-width="3.0" fill="none" stroke="rgb(0, 0, 0)" stroke-opacity="1.0" stroke-linecap="round" stroke-linejoin="round"/>
  </g>
</svg>
