<?xml version="1.0" ?>
<svg xmlns="http://www.w3.org/2000/svg" version="1.1" width="224" height="224">
  <defs/>
  <g>
    <path d="M 78.80255889892578 112.71675872802734 C 91.4773178100586 129.5203399658203 83.558349609375 117.91835021972656 76.38105010986328 120.5791015625" stroke-width="3.0" fill="none" stroke="rgb(0, 0, 0)" stroke-opacity="1.0" stroke-linecap="round" stroke-linejoin="round"/>
    <path d="M 74.57217407226562 123.83804321289062 C 106.69159698486328 137.05421447753906 111.94696807861328 127.68567657470703 135.94285583496094 129.58602905273438" stroke-width="3.0" fill="none" stroke="rgb(0, 0, 0)" stroke-opacity="1.0" stroke-linecap="round" stroke-linejoin="round"/>
    <path d="M 169.1371307373047 100.99673461914062 C 216.79962158203125 118.28290557861328 194.1956329345703 132.71746826171875 215.4908905029297 144.28518676757812" stroke-width="3.0" fill="none" stroke="rgb(0, 0, 0)" stroke-opacity="1.0" stroke-linecap="round" stroke-linejoin="round"/>
    <path d="M 48.76624298095703 66.33219909667969 C 66.03770446777344 152.55540466308594 64.23953247070312 68.30733489990234 40.61170959472656 150.24256896972656" stroke-width="3.0" fill="none" stroke="rgb(0, 0, 0)" stroke-opacity="1.0" stroke-linecap="round" stroke-linejoin="round"/>
    <path d="M 102.21138763427734 85.8717041015625 C 137.7152557373047 94.03514862060547 146.6148223876953 72.33243560791016 175.12588500976562 108.34741973876953" stroke-width="3.0" fill="none" stroke="rgb(0, 0, 0)" stroke-opacity="1.0" stroke-linecap="round" stroke-linejoin="round"/>
    <path d="M 129.85548400878906 126.71021270751953 C 140.2984619140625 127.26235961914062 145.64173889160156 122.26934051513672 124.77942657470703 126.56375122070312" stroke-width="3.0" fill="none" stroke="rgb(0, 0, 0)" stroke-opacity="1.0" stroke-linecap="round" stroke-linejoin="round"/>
    <path d="M 75.25980377197266 124.22805786132812 C 95.3141860961914 106.19330596923828 65.34923553466797 135.55650329589844 83.1676025390625 123.033447265625" stroke-width="3.0" fill="none" stroke="rgb(0, 0, 0)" stroke-opacity="1.0" stroke-linecap="round" stroke-linejoin="round"/>
    <path d="M 139.01719665527344 131.54786682128906 C 117.82698059082031 176.17568969726562 142.67420959472656 158.99569702148438 98.31463623046875 182.91397094726562" stroke-width="3.0" fill="none" stroke="rgb(0, 0, 0)" stroke-opacity="1.0" stroke-linecap="round" stroke-linejoin="round"/>
    <path d="M 53.11972427368164 119.3062515258789 C -2.8019888401031494 191.17376708984375 77.4176254272461 140.0914764404297 15.728222846984863 168.8822479248047" stroke-width="3.0" fill="none" stroke="rgb(0, 0, 0)" stroke-opacity="1.0" stroke-linecap="round" stroke-linejoin="round"/>
    <path d="M 32.40457534790039 35.48324203491211 C 110.03045654296875 71.6390609741211 50.82683181762695 67.46156311035156 110.90841674804688 90.0332260131836" stroke-width="3.0" fill="none" stroke="rgb(0, 0, 0)" stroke-opacity="1.0" stroke-linecap="round" stroke-linejoin="round"/>
    <path d="M 132.88162231445312 163.04478454589844 C 157.49110412597656 116.10618591308594 148.34710693359375 158.20053100585938 182.05459594726562 106.40851593017578" stroke-width="3.0" fill="none" stroke="rgb(0, 0, 0)" stroke-opacity="1.0" stroke-linecap="round" stroke-linejoin="round"/>
    <path d="M 38.8692512512207 154.88766479492188 C 62.636077880859375 109.76818084716797 46.575565338134766 140.7859649658203 80.58573150634766 115.11563110351562" stroke-width="3.0" fill="none" stroke="rgb(0, 0, 0)" stroke-opacity="1.0" stroke-linecap="round" stroke-linejoin="round"/>
    <path d="M 158.39825439453125 116.51827239990234 C 134.97225952148438 132.24362182617188 160.76077270507812 116.37520599365234 108.60140228271484 130.88453674316406" stroke-width="3.0" fill="none" stroke="rgb(0, 0, 0)" stroke-opacity="1.0" stroke-linecap="round" stroke-linejoin="round"/>
    <path d="M 171.49575805664062 111.05516052246094 C 166.77479553222656 229.81430053710938 135.90478515625 181.0618438720703 160.6228485107422 190.03123474121094" stroke-width="3.0" fill="none" stroke="rgb(0, 0, 0)" stroke-opacity="1.0" stroke-linecap="round" stroke-linejoin="round"/>
    <path d="M 14.925203323364258 76.1231689453125 C 59.70998001098633 12.789535522460938 -13.120094299316406 86.21639251708984 54.883358001708984 35.9118766784668" stroke-width="3.0" fill="none" stroke="rgb(0, 0, 0)" stroke-opacity="1.0" stroke-linecap="round" stroke-linejoin="round"/>
    <path d="M 92.8855972290039 77.94976043701172 C 76.5922622680664 18.899105072021484 -24.606037139892578 38.38363265991211 83.14703369140625 52.69974136352539" stroke-width="3.0" fill="none" stroke="rgb(0, 0, 0)" stroke-opacity="1.0" stroke-linecap="round" stroke-linejoin="round"/>
  </g>
</svg>
