<?xml version="1.0" ?>
<svg xmlns="http://www.w3.org/2000/svg" version="1.1" width="224" height="224">
  <defs/>
  <g>
    <path d="M 79.78056335449219 112.78262329101562 C 87.5090103149414 132.72103881835938 86.44857025146484 120.1413345336914 74.5223617553711 123.92308807373047" stroke-width="3.0" fill="none" stroke="rgb(0, 0, 0)" stroke-opacity="1.0" stroke-linecap="round" stroke-linejoin="round"/>
    <path d="M 74.376220703125 125.2482681274414 C 114.4744873046875 141.41543579101562 113.62390899658203 123.54016876220703 135.77862548828125 127.57514190673828" stroke-width="3.0" fill="none" stroke="rgb(0, 0, 0)" stroke-opacity="1.0" stroke-linecap="round" stroke-linejoin="round"/>
    <path d="M 166.77362060546875 99.00676727294922 C 220.25877380371094 119.4520263671875 192.18421936035156 130.8711700439453 213.17974853515625 138.1037139892578" stroke-width="3.0" fill="none" stroke="rgb(0, 0, 0)" stroke-opacity="1.0" stroke-linecap="round" stroke-linejoin="round"/>
    <path d="M 47.44977569580078 62.929115295410156 C 58.97435760498047 151.77615356445312 71.80451202392578 73.01547241210938 38.217586517333984 156.1390838623047" stroke-width="3.0" fill="none" stroke="rgb(0, 0, 0)" stroke-opacity="1.0" stroke-linecap="round" stroke-linejoin="round"/>
    <path d="M 103.73133087158203 83.66849517822266 C 134.29237365722656 88.80644989013672 146.66812133789062 77.43972778320312 175.4327392578125 107.42329406738281" stroke-width="3.0" fill="none" stroke="rgb(0, 0, 0)" stroke-opacity="1.0" stroke-linecap="round" stroke-linejoin="round"/>
    <path d="M 133.3284912109375 124.87596130371094 C 135.79212951660156 125.5192642211914 138.1525115966797 128.16221618652344 127.7407455444336 126.2985610961914" stroke-width="3.0" fill="none" stroke="rgb(0, 0, 0)" stroke-opacity="1.0" stroke-linecap="round" stroke-linejoin="round"/>
    <path d="M 76.44154357910156 124.7135009765625 C 92.52478790283203 110.99867248535156 58.862937927246094 132.6568603515625 80.84613800048828 120.70777130126953" stroke-width="3.0" fill="none" stroke="rgb(0, 0, 0)" stroke-opacity="1.0" stroke-linecap="round" stroke-linejoin="round"/>
    <path d="M 140.65670776367188 126.20460510253906 C 121.34819793701172 176.9805450439453 140.62081909179688 157.54055786132812 98.79505920410156 184.03785705566406" stroke-width="3.0" fill="none" stroke="rgb(0, 0, 0)" stroke-opacity="1.0" stroke-linecap="round" stroke-linejoin="round"/>
    <path d="M 58.88042068481445 120.39244079589844 C -8.749815940856934 179.14683532714844 73.453857421875 148.05621337890625 18.316131591796875 170.84512329101562" stroke-width="3.0" fill="none" stroke="rgb(0, 0, 0)" stroke-opacity="1.0" stroke-linecap="round" stroke-linejoin="round"/>
    <path d="M 39.36811065673828 34.80159378051758 C 110.493896484375 83.67500305175781 44.22199630737305 67.96806335449219 114.05309295654297 86.370361328125" stroke-width="3.0" fill="none" stroke="rgb(0, 0, 0)" stroke-opacity="1.0" stroke-linecap="round" stroke-linejoin="round"/>
    <path d="M 133.2433624267578 161.3045654296875 C 151.9099578857422 116.86053466796875 152.94985961914062 154.66355895996094 178.41836547851562 109.0077896118164" stroke-width="3.0" fill="none" stroke="rgb(0, 0, 0)" stroke-opacity="1.0" stroke-linecap="round" stroke-linejoin="round"/>
    <path d="M 34.32707977294922 153.72422790527344 C 65.5539779663086 117.1100845336914 59.065860748291016 140.009033203125 73.99434661865234 116.79776000976562" stroke-width="3.0" fill="none" stroke="rgb(0, 0, 0)" stroke-opacity="1.0" stroke-linecap="round" stroke-linejoin="round"/>
    <path d="M 157.0672607421875 120.15215301513672 C 135.32289123535156 127.9587631225586 152.8557891845703 115.84086608886719 120.65865325927734 128.9209747314453" stroke-width="3.0" fill="none" stroke="rgb(0, 0, 0)" stroke-opacity="1.0" stroke-linecap="round" stroke-linejoin="round"/>
    <path d="M 174.3238067626953 106.70130157470703 C 167.57281494140625 230.24623107910156 134.94570922851562 179.54531860351562 161.78219604492188 186.76109313964844" stroke-width="3.0" fill="none" stroke="rgb(0, 0, 0)" stroke-opacity="1.0" stroke-linecap="round" stroke-linejoin="round"/>
    <path d="M 14.786428451538086 76.69658660888672 C 59.71866989135742 16.736572265625 -12.575840950012207 79.6316909790039 55.73595428466797 37.59259033203125" stroke-width="3.0" fill="none" stroke="rgb(0, 0, 0)" stroke-opacity="1.0" stroke-linecap="round" stroke-linejoin="round"/>
    <path d="M 94.2147445678711 76.32148742675781 C 72.01268005371094 24.322467803955078 -12.334979057312012 35.97685623168945 84.71558380126953 53.08742141723633" stroke-width="3.0" fill="none" stroke="rgb(0, 0, 0)" stroke-opacity="1.0" stroke-linecap="round" stroke-linejoin="round"/>
  </g>
</svg>
