<?xml version="1.0" ?>
<svg xmlns="http://www.w3.org/2000/svg" version="1.1" width="224" height="224">
  <defs/>
  <g>
    <path d="M 80.87848663330078 116.51531219482422 C 88.18111419677734 128.02593994140625 82.15633392333984 122.2486801147461 82.40232849121094 119.62096405029297" stroke-width="3.0" fill="none" stroke="rgb(0, 0, 0)" stroke-opacity="1.0" stroke-linecap="round" stroke-linejoin="round"/>
    <path d="M 76.8919448852539 122.141845703125 C 111.74974060058594 133.48057556152344 111.57491302490234 124.2490005493164 135.92201232910156 124.44662475585938" stroke-width="3.0" fill="none" stroke="rgb(0, 0, 0)" stroke-opacity="1.0" stroke-linecap="round" stroke-linejoin="round"/>
    <path d="M 154.8153839111328 89.96182250976562 C 225.100830078125 121.79166412353516 187.5221710205078 131.6966552734375 213.755859375 144.40029907226562" stroke-width="3.0" fill="none" stroke="rgb(0, 0, 0)" stroke-opacity="1.0" stroke-linecap="round" stroke-linejoin="round"/>
    <path d="M 51.5854377746582 71.66466522216797 C 43.683902740478516 154.37802124023438 78.98674011230469 84.82147979736328 33.98493194580078 160.38308715820312" stroke-width="3.0" fill="none" stroke="rgb(0, 0, 0)" stroke-opacity="1.0" stroke-linecap="round" stroke-linejoin="round"/>
    <path d="M 124.66091918945312 87.57756805419922 C 138.59945678710938 87.6407699584961 154.20513916015625 80.62444305419922 173.43551635742188 104.1880874633789" stroke-width="3.0" fill="none" stroke="rgb(0, 0, 0)" stroke-opacity="1.0" stroke-linecap="round" stroke-linejoin="round"/>
    <path d="M 150.26535034179688 122.00122833251953 C 148.44232177734375 126.3879165649414 131.3233642578125 120.42088317871094 136.41127014160156 123.64295196533203" stroke-width="3.0" fill="none" stroke="rgb(0, 0, 0)" stroke-opacity="1.0" stroke-linecap="round" stroke-linejoin="round"/>
    <path d="M 77.20068359375 118.81593322753906 C 90.09429168701172 116.8115005493164 63.38925552368164 131.04783630371094 85.05744171142578 113.21345520019531" stroke-width="3.0" fill="none" stroke="rgb(0, 0, 0)" stroke-opacity="1.0" stroke-linecap="round" stroke-linejoin="round"/>
    <path d="M 137.65428161621094 129.23214721679688 C 124.7542495727539 177.1129150390625 141.2056884765625 157.7545623779297 97.36788940429688 185.89427185058594" stroke-width="3.0" fill="none" stroke="rgb(0, 0, 0)" stroke-opacity="1.0" stroke-linecap="round" stroke-linejoin="round"/>
    <path d="M 54.601470947265625 127.02604675292969 C -1.5250226259231567 174.68515014648438 52.74964904785156 152.8671875 15.379720687866211 169.37315368652344" stroke-width="3.0" fill="none" stroke="rgb(0, 0, 0)" stroke-opacity="1.0" stroke-linecap="round" stroke-linejoin="round"/>
    <path d="M 43.9464225769043 40.01693344116211 C 114.77597045898438 92.23230743408203 64.5482177734375 79.07957458496094 132.63766479492188 88.71482849121094" stroke-width="3.0" fill="none" stroke="rgb(0, 0, 0)" stroke-opacity="1.0" stroke-linecap="round" stroke-linejoin="round"/>
    <path d="M 136.22137451171875 159.1787872314453 C 152.04965209960938 113.56522369384766 153.27389526367188 152.5253448486328 179.36972045898438 108.66928100585938" stroke-width="3.0" fill="none" stroke="rgb(0, 0, 0)" stroke-opacity="1.0" stroke-linecap="round" stroke-linejoin="round"/>
    <path d="M 32.964656829833984 154.40420532226562 C 73.64816284179688 119.44335174560547 62.66566467285156 146.300537109375 71.6226577758789 116.88542938232422" stroke-width="3.0" fill="none" stroke="rgb(0, 0, 0)" stroke-opacity="1.0" stroke-linecap="round" stroke-linejoin="round"/>
    <path d="M 150.3800811767578 117.64213562011719 C 136.09132385253906 133.6139373779297 135.18482971191406 127.2069320678711 138.60166931152344 133.11056518554688" stroke-width="3.0" fill="none" stroke="rgb(0, 0, 0)" stroke-opacity="1.0" stroke-linecap="round" stroke-linejoin="round"/>
    <path d="M 171.55154418945312 111.23870086669922 C 171.04461669921875 186.9370880126953 134.75494384765625 207.03225708007812 155.0212860107422 195.64276123046875" stroke-width="3.0" fill="none" stroke="rgb(0, 0, 0)" stroke-opacity="1.0" stroke-linecap="round" stroke-linejoin="round"/>
    <path d="M 14.701467514038086 76.29500579833984 C 77.06694030761719 15.477062225341797 -18.40758514404297 65.00141143798828 71.10729217529297 46.370880126953125" stroke-width="3.0" fill="none" stroke="rgb(0, 0, 0)" stroke-opacity="1.0" stroke-linecap="round" stroke-linejoin="round"/>
    <path d="M 86.92259979248047 71.09386444091797 C 34.93572235107422 41.41706085205078 0.8845788836479187 25.542356491088867 82.6872787475586 58.05329132080078" stroke-width="3.0" fill="none" stroke="rgb(0, 0, 0)" stroke-opacity="1.0" stroke-linecap="round" stroke-linejoin="round"/>
  </g>
</svg>
