<?xml version="1.0" ?>
<svg xmlns="http://www.w3.org/2000/svg" version="1.1" width="224" height="224">
  <defs/>
  <g>
    <path d="M 79.01441955566406 112.8909912109375 C 90.6365737915039 132.50924682617188 79.89881134033203 122.17456817626953 79.09860229492188 121.25669860839844" stroke-width="3.0" fill="none" stroke="rgb(0, 0, 0)" stroke-opacity="1.0" stroke-linecap="round" stroke-linejoin="round"/>
    <path d="M 74.23721313476562 124.60437774658203 C 112.62470245361328 135.62115478515625 109.59571838378906 125.83476257324219 134.22557067871094 123.53607940673828" stroke-width="3.0" fill="none" stroke="rgb(0, 0, 0)" stroke-opacity="1.0" stroke-linecap="round" stroke-linejoin="round"/>
    <path d="M 164.85076904296875 97.28775024414062 C 221.50511169433594 122.12190246582031 193.57643127441406 131.2877655029297 217.5628662109375 143.5385284423828" stroke-width="3.0" fill="none" stroke="rgb(0, 0, 0)" stroke-opacity="1.0" stroke-linecap="round" stroke-linejoin="round"/>
    <path d="M 52.77254867553711 68.73068237304688 C 48.994407653808594 153.03671264648438 74.24510955810547 76.27793884277344 33.46018981933594 156.90704345703125" stroke-width="3.0" fill="none" stroke="rgb(0, 0, 0)" stroke-opacity="1.0" stroke-linecap="round" stroke-linejoin="round"/>
    <path d="M 115.38329315185547 87.4927749633789 C 135.96075439453125 88.7677230834961 152.3921356201172 79.93340301513672 169.44627380371094 105.50464630126953" stroke-width="3.0" fill="none" stroke="rgb(0, 0, 0)" stroke-opacity="1.0" stroke-linecap="round" stroke-linejoin="round"/>
    <path d="M 134.18252563476562 123.20540618896484 C 130.816650390625 126.33512115478516 139.92532348632812 127.05670166015625 134.89500427246094 123.60514068603516" stroke-width="3.0" fill="none" stroke="rgb(0, 0, 0)" stroke-opacity="1.0" stroke-linecap="round" stroke-linejoin="round"/>
    <path d="M 80.84222412109375 124.11609649658203 C 90.13835144042969 106.23477935791016 63.53752899169922 131.76068115234375 81.4195556640625 120.05885314941406" stroke-width="3.0" fill="none" stroke="rgb(0, 0, 0)" stroke-opacity="1.0" stroke-linecap="round" stroke-linejoin="round"/>
    <path d="M 140.2843780517578 127.41830444335938 C 120.13834381103516 176.54373168945312 140.69876098632812 154.64682006835938 99.1396255493164 184.80897521972656" stroke-width="3.0" fill="none" stroke="rgb(0, 0, 0)" stroke-opacity="1.0" stroke-linecap="round" stroke-linejoin="round"/>
    <path d="M 55.36563491821289 124.22797393798828 C -11.75158977508545 178.54696655273438 60.54751968383789 148.18017578125 15.649714469909668 167.13282775878906" stroke-width="3.0" fill="none" stroke="rgb(0, 0, 0)" stroke-opacity="1.0" stroke-linecap="round" stroke-linejoin="round"/>
    <path d="M 36.938087463378906 37.71177673339844 C 125.78785705566406 89.20025634765625 53.558074951171875 75.6427230834961 116.30278778076172 87.53822326660156" stroke-width="3.0" fill="none" stroke="rgb(0, 0, 0)" stroke-opacity="1.0" stroke-linecap="round" stroke-linejoin="round"/>
    <path d="M 131.316162109375 162.62770080566406 C 151.71995544433594 112.62162017822266 145.84527587890625 154.362060546875 179.18081665039062 108.69971466064453" stroke-width="3.0" fill="none" stroke="rgb(0, 0, 0)" stroke-opacity="1.0" stroke-linecap="round" stroke-linejoin="round"/>
    <path d="M 32.37754440307617 152.05853271484375 C 74.51435852050781 118.97142028808594 60.84149169921875 141.13404846191406 72.35398864746094 115.97116088867188" stroke-width="3.0" fill="none" stroke="rgb(0, 0, 0)" stroke-opacity="1.0" stroke-linecap="round" stroke-linejoin="round"/>
    <path d="M 147.42166137695312 117.11682891845703 C 138.410888671875 126.88866424560547 140.64649963378906 118.9579086303711 129.4612274169922 124.26289367675781" stroke-width="3.0" fill="none" stroke="rgb(0, 0, 0)" stroke-opacity="1.0" stroke-linecap="round" stroke-linejoin="round"/>
    <path d="M 174.08160400390625 107.37281799316406 C 165.67686462402344 229.53260803222656 135.95138549804688 184.48646545410156 161.3858184814453 190.0791778564453" stroke-width="3.0" fill="none" stroke="rgb(0, 0, 0)" stroke-opacity="1.0" stroke-linecap="round" stroke-linejoin="round"/>
    <path d="M 14.532622337341309 76.759033203125 C 67.19384765625 19.59425926208496 -14.307969093322754 78.10269165039062 54.62203598022461 40.71122741699219" stroke-width="3.0" fill="none" stroke="rgb(0, 0, 0)" stroke-opacity="1.0" stroke-linecap="round" stroke-linejoin="round"/>
    <path d="M 92.17848205566406 69.94682312011719 C 53.841209411621094 29.867324829101562 -7.656899929046631 39.098045349121094 79.71350860595703 53.44783401489258" stroke-width="3.0" fill="none" stroke="rgb(0, 0, 0)" stroke-opacity="1.0" stroke-linecap="round" stroke-linejoin="round"/>
  </g>
</svg>
