<?xml version="1.0" ?>
<svg xmlns="http://www.w3.org/2000/svg" version="1.1" width="224" height="224">
  <defs/>
  <g>
    <path d="M 99.54019927978516 107.93070220947266 C 106.6512680053711 107.30876159667969 112.25165557861328 112.16519927978516 99.35696411132812 105.3614501953125" stroke-width="3.0" fill="none" stroke="rgb(0, 0, 0)" stroke-opacity="1.0" stroke-linecap="round" stroke-linejoin="round"/>
    <path d="M 97.12793731689453 133.8216552734375 C 117.04342651367188 117.14349365234375 96.63783264160156 136.4612274169922 128.6190643310547 122.25300598144531" stroke-width="3.0" fill="none" stroke="rgb(0, 0, 0)" stroke-opacity="1.0" stroke-linecap="round" stroke-linejoin="round"/>
    <path d="M 172.01388549804688 103.39264678955078 C 199.48074340820312 112.41912841796875 181.9574432373047 110.7114028930664 214.55865478515625 145.4166717529297" stroke-width="3.0" fill="none" stroke="rgb(0, 0, 0)" stroke-opacity="1.0" stroke-linecap="round" stroke-linejoin="round"/>
    <path d="M 45.59196853637695 96.63191223144531 C 50.71221160888672 118.32472229003906 54.78319549560547 106.76805114746094 63.17195510864258 122.24996185302734" stroke-width="3.0" fill="none" stroke="rgb(0, 0, 0)" stroke-opacity="1.0" stroke-linecap="round" stroke-linejoin="round"/>
    <path d="M 142.94834899902344 89.03636932373047 C 149.94802856445312 90.02860260009766 143.7601318359375 90.33745574951172 151.77476501464844 95.5224838256836" stroke-width="3.0" fill="none" stroke="rgb(0, 0, 0)" stroke-opacity="1.0" stroke-linecap="round" stroke-linejoin="round"/>
    <path d="M 132.63243103027344 110.90365600585938 C 129.7102508544922 125.35225677490234 123.0562515258789 129.64512634277344 130.3044891357422 117.20875549316406" stroke-width="3.0" fill="none" stroke="rgb(0, 0, 0)" stroke-opacity="1.0" stroke-linecap="round" stroke-linejoin="round"/>
    <path d="M 88.38489532470703 106.44091033935547 C 93.16236877441406 97.39595031738281 92.75265502929688 100.32415008544922 84.48914337158203 112.31310272216797" stroke-width="3.0" fill="none" stroke="rgb(0, 0, 0)" stroke-opacity="1.0" stroke-linecap="round" stroke-linejoin="round"/>
    <path d="M 120.55703735351562 134.55873107910156 C 132.87583923339844 164.36328125 133.7533416748047 150.62503051757812 101.04122161865234 186.996826171875" stroke-width="3.0" fill="none" stroke="rgb(0, 0, 0)" stroke-opacity="1.0" stroke-linecap="round" stroke-linejoin="round"/>
    <path d="M 45.31060791015625 155.9859619140625 C 33.12291717529297 167.5415496826172 52.20259475708008 143.02394104003906 15.53225040435791 168.794677734375" stroke-width="3.0" fill="none" stroke="rgb(0, 0, 0)" stroke-opacity="1.0" stroke-linecap="round" stroke-linejoin="round"/>
    <path d="M 99.63484191894531 82.80159759521484 C 106.26778411865234 88.66273498535156 106.54119873046875 86.52265167236328 117.74337005615234 89.97174072265625" stroke-width="3.0" fill="none" stroke="rgb(0, 0, 0)" stroke-opacity="1.0" stroke-linecap="round" stroke-linejoin="round"/>
    <path d="M 129.19485473632812 134.97589111328125 C 128.3690948486328 135.99417114257812 146.1627960205078 141.871826171875 163.15965270996094 129.66441345214844" stroke-width="3.0" fill="none" stroke="rgb(0, 0, 0)" stroke-opacity="1.0" stroke-linecap="round" stroke-linejoin="round"/>
    <path d="M 73.10948181152344 116.53081512451172 C 92.73177337646484 110.6383056640625 90.49403381347656 94.96275329589844 94.70226287841797 106.6212387084961" stroke-width="3.0" fill="none" stroke="rgb(0, 0, 0)" stroke-opacity="1.0" stroke-linecap="round" stroke-linejoin="round"/>
    <path d="M 138.52235412597656 98.4273910522461 C 134.0598907470703 105.8128890991211 136.27610778808594 102.85336303710938 133.24746704101562 113.17334747314453" stroke-width="3.0" fill="none" stroke="rgb(0, 0, 0)" stroke-opacity="1.0" stroke-linecap="round" stroke-linejoin="round"/>
    <path d="M 151.9156036376953 137.98211669921875 C 176.78811645507812 142.43194580078125 153.34323120117188 174.0684356689453 164.65164184570312 182.08123779296875" stroke-width="3.0" fill="none" stroke="rgb(0, 0, 0)" stroke-opacity="1.0" stroke-linecap="round" stroke-linejoin="round"/>
    <path d="M 23.189693450927734 41.823570251464844 C 46.34633255004883 36.83723068237305 67.83550262451172 53.002750396728516 71.31212615966797 40.6024284362793" stroke-width="3.0" fill="none" stroke="rgb(0, 0, 0)" stroke-opacity="1.0" stroke-linecap="round" stroke-linejoin="round"/>
    <path d="M 88.64690399169922 63.940433502197266 C 82.26631927490234 49.723243713378906 84.50354766845703 59.646507263183594 74.71900177001953 47.687320709228516" stroke-width="3.0" fill="none" stroke="rgb(0, 0, 0)" stroke-opacity="1.0" stroke-linecap="round" stroke-linejoin="round"/>
  </g>
</svg>
