<?xml version="1.0" ?>
<svg xmlns="http://www.w3.org/2000/svg" version="1.1" width="224" height="224">
  <defs/>
  <g>
    <path d="M 101.91191101074219 121.82904815673828 C 86.59365844726562 124.54148864746094 94.94367980957031 124.3535385131836 84.22600555419922 117.66157531738281" stroke-width="3.0" fill="none" stroke="rgb(0, 0, 0)" stroke-opacity="1.0" stroke-linecap="round" stroke-linejoin="round"/>
    <path d="M 83.56404113769531 121.43034362792969 C 99.20684051513672 129.39866638183594 116.74627685546875 126.68580627441406 133.20761108398438 118.80946350097656" stroke-width="3.0" fill="none" stroke="rgb(0, 0, 0)" stroke-opacity="1.0" stroke-linecap="round" stroke-linejoin="round"/>
    <path d="M 155.4911346435547 91.03260803222656 C 226.72064208984375 118.20121765136719 188.94482421875 133.55032348632812 214.21804809570312 142.85171508789062" stroke-width="3.0" fill="none" stroke="rgb(0, 0, 0)" stroke-opacity="1.0" stroke-linecap="round" stroke-linejoin="round"/>
    <path d="M 62.393150329589844 72.95935821533203 C 41.880210876464844 131.6589813232422 82.80422973632812 110.97029113769531 41.51664352416992 145.15928649902344" stroke-width="3.0" fill="none" stroke="rgb(0, 0, 0)" stroke-opacity="1.0" stroke-linecap="round" stroke-linejoin="round"/>
    <path d="M 133.67391967773438 88.37208557128906 C 158.17799377441406 88.69406127929688 147.65992736816406 89.26494598388672 162.72947692871094 99.59481048583984" stroke-width="3.0" fill="none" stroke="rgb(0, 0, 0)" stroke-opacity="1.0" stroke-linecap="round" stroke-linejoin="round"/>
    <path d="M 138.0308380126953 118.75109100341797 C 130.95240783691406 124.10123443603516 119.91546630859375 121.78002166748047 124.94429016113281 122.11707305908203" stroke-width="3.0" fill="none" stroke="rgb(0, 0, 0)" stroke-opacity="1.0" stroke-linecap="round" stroke-linejoin="round"/>
    <path d="M 85.0443115234375 111.99099731445312 C 72.52808380126953 127.69189453125 70.11248779296875 111.58995819091797 89.04468536376953 122.81034851074219" stroke-width="3.0" fill="none" stroke="rgb(0, 0, 0)" stroke-opacity="1.0" stroke-linecap="round" stroke-linejoin="round"/>
    <path d="M 141.4529266357422 135.82345581054688 C 123.41413879394531 172.2999267578125 144.65805053710938 153.88430786132812 99.23619079589844 183.7333984375" stroke-width="3.0" fill="none" stroke="rgb(0, 0, 0)" stroke-opacity="1.0" stroke-linecap="round" stroke-linejoin="round"/>
    <path d="M 56.1447639465332 129.7619171142578 C 1.9604809284210205 181.04095458984375 45.566410064697266 157.7768096923828 20.0270938873291 171.70838928222656" stroke-width="3.0" fill="none" stroke="rgb(0, 0, 0)" stroke-opacity="1.0" stroke-linecap="round" stroke-linejoin="round"/>
    <path d="M 82.67066955566406 67.81405639648438 C 96.85458374023438 90.6487045288086 106.31049346923828 84.39771270751953 141.6959991455078 90.11720275878906" stroke-width="3.0" fill="none" stroke="rgb(0, 0, 0)" stroke-opacity="1.0" stroke-linecap="round" stroke-linejoin="round"/>
    <path d="M 140.72723388671875 126.94294738769531 C 136.86834716796875 139.75753784179688 137.64341735839844 139.41224670410156 166.6668243408203 127.11751556396484" stroke-width="3.0" fill="none" stroke="rgb(0, 0, 0)" stroke-opacity="1.0" stroke-linecap="round" stroke-linejoin="round"/>
    <path d="M 63.003334045410156 136.55870056152344 C 88.32137298583984 121.2363052368164 67.04777526855469 124.68334197998047 87.28309631347656 114.60588073730469" stroke-width="3.0" fill="none" stroke="rgb(0, 0, 0)" stroke-opacity="1.0" stroke-linecap="round" stroke-linejoin="round"/>
    <path d="M 139.82489013671875 112.79180908203125 C 134.54209899902344 117.07665252685547 139.4141387939453 125.3640365600586 135.02256774902344 119.9630355834961" stroke-width="3.0" fill="none" stroke="rgb(0, 0, 0)" stroke-opacity="1.0" stroke-linecap="round" stroke-linejoin="round"/>
    <path d="M 158.96771240234375 135.9925994873047 C 183.73614501953125 170.6068115234375 138.7775115966797 195.27084350585938 161.8386688232422 193.3662872314453" stroke-width="3.0" fill="none" stroke="rgb(0, 0, 0)" stroke-opacity="1.0" stroke-linecap="round" stroke-linejoin="round"/>
    <path d="M 13.558344841003418 78.7858657836914 C 49.336673736572266 4.32219123840332 36.219783782958984 55.53983688354492 70.09159851074219 38.156070709228516" stroke-width="3.0" fill="none" stroke="rgb(0, 0, 0)" stroke-opacity="1.0" stroke-linecap="round" stroke-linejoin="round"/>
    <path d="M 85.86637115478516 67.93006134033203 C 55.932674407958984 41.86886978149414 46.52404022216797 37.042240142822266 79.6358642578125 49.32215881347656" stroke-width="3.0" fill="none" stroke="rgb(0, 0, 0)" stroke-opacity="1.0" stroke-linecap="round" stroke-linejoin="round"/>
  </g>
</svg>
