<?xml version="1.0" ?>
<svg xmlns="http://www.w3.org/2000/svg" version="1.1" width="224" height="224">
  <defs/>
  <g>
    <path d="M 95.67605590820312 121.22724914550781 C 81.60086059570312 121.71361541748047 91.30097198486328 120.86929321289062 77.79423522949219 117.7648696899414" stroke-width="3.0" fill="none" stroke="rgb(0, 0, 0)" stroke-opacity="1.0" stroke-linecap="round" stroke-linejoin="round"/>
    <path d="M 73.56283569335938 119.52823638916016 C 101.50859832763672 136.08203125 110.8409194946289 127.7569351196289 136.03160095214844 119.3289566040039" stroke-width="3.0" fill="none" stroke="rgb(0, 0, 0)" stroke-opacity="1.0" stroke-linecap="round" stroke-linejoin="round"/>
    <path d="M 151.0037384033203 93.46268463134766 C 227.65696716308594 119.19140625 187.74879455566406 132.7625274658203 214.97377014160156 142.46153259277344" stroke-width="3.0" fill="none" stroke="rgb(0, 0, 0)" stroke-opacity="1.0" stroke-linecap="round" stroke-linejoin="round"/>
    <path d="M 47.91448211669922 64.5335922241211 C 35.90852737426758 132.21646118164062 88.23174285888672 111.73224639892578 39.75413131713867 153.47625732421875" stroke-width="3.0" fill="none" stroke="rgb(0, 0, 0)" stroke-opacity="1.0" stroke-linecap="round" stroke-linejoin="round"/>
    <path d="M 134.82862854003906 91.03324127197266 C 150.63864135742188 91.13496398925781 151.82847595214844 89.57103729248047 162.44406127929688 101.24800109863281" stroke-width="3.0" fill="none" stroke="rgb(0, 0, 0)" stroke-opacity="1.0" stroke-linecap="round" stroke-linejoin="round"/>
    <path d="M 134.87840270996094 120.70845031738281 C 130.12159729003906 121.97837829589844 119.26885223388672 125.16703033447266 125.60367584228516 123.52970123291016" stroke-width="3.0" fill="none" stroke="rgb(0, 0, 0)" stroke-opacity="1.0" stroke-linecap="round" stroke-linejoin="round"/>
    <path d="M 78.1292724609375 119.4227066040039 C 73.10643768310547 123.74877166748047 65.37638854980469 113.8016128540039 87.22599029541016 126.4607925415039" stroke-width="3.0" fill="none" stroke="rgb(0, 0, 0)" stroke-opacity="1.0" stroke-linecap="round" stroke-linejoin="round"/>
    <path d="M 140.0459747314453 135.8528289794922 C 123.40974426269531 171.12278747558594 143.0440216064453 151.29820251464844 99.51618957519531 185.18663024902344" stroke-width="3.0" fill="none" stroke="rgb(0, 0, 0)" stroke-opacity="1.0" stroke-linecap="round" stroke-linejoin="round"/>
    <path d="M 57.59816360473633 122.94915008544922 C 1.8818540573120117 180.496826171875 49.534339904785156 156.6923370361328 22.280303955078125 173.64862060546875" stroke-width="3.0" fill="none" stroke="rgb(0, 0, 0)" stroke-opacity="1.0" stroke-linecap="round" stroke-linejoin="round"/>
    <path d="M 74.79901123046875 61.3679084777832 C 89.59459686279297 92.60091400146484 107.23233032226562 82.18657684326172 139.09031677246094 91.76653289794922" stroke-width="3.0" fill="none" stroke="rgb(0, 0, 0)" stroke-opacity="1.0" stroke-linecap="round" stroke-linejoin="round"/>
    <path d="M 141.21202087402344 125.59703826904297 C 135.0687255859375 135.2929229736328 138.81336975097656 138.42539978027344 164.92611694335938 124.50358581542969" stroke-width="3.0" fill="none" stroke="rgb(0, 0, 0)" stroke-opacity="1.0" stroke-linecap="round" stroke-linejoin="round"/>
    <path d="M 60.6042366027832 137.6848907470703 C 86.46060943603516 123.9062728881836 65.91295623779297 126.13742065429688 80.25772857666016 116.08997344970703" stroke-width="3.0" fill="none" stroke="rgb(0, 0, 0)" stroke-opacity="1.0" stroke-linecap="round" stroke-linejoin="round"/>
    <path d="M 140.69676208496094 115.37236785888672 C 132.91331481933594 118.25291442871094 137.5787811279297 123.6899642944336 133.85205078125 120.15520477294922" stroke-width="3.0" fill="none" stroke="rgb(0, 0, 0)" stroke-opacity="1.0" stroke-linecap="round" stroke-linejoin="round"/>
    <path d="M 156.8788299560547 135.77584838867188 C 184.3046875 173.8529052734375 139.4871063232422 193.79779052734375 163.63787841796875 191.40478515625" stroke-width="3.0" fill="none" stroke="rgb(0, 0, 0)" stroke-opacity="1.0" stroke-linecap="round" stroke-linejoin="round"/>
    <path d="M 17.688684463500977 74.16995239257812 C 52.57578659057617 -1.2343928813934326 32.439552307128906 61.29061508178711 66.55345153808594 36.18115234375" stroke-width="3.0" fill="none" stroke="rgb(0, 0, 0)" stroke-opacity="1.0" stroke-linecap="round" stroke-linejoin="round"/>
    <path d="M 82.31756591796875 65.55998992919922 C 58.9821891784668 41.19413757324219 43.856266021728516 39.29447937011719 79.20838928222656 48.14594650268555" stroke-width="3.0" fill="none" stroke="rgb(0, 0, 0)" stroke-opacity="1.0" stroke-linecap="round" stroke-linejoin="round"/>
  </g>
</svg>
