<?xml version="1.0" ?>
<svg xmlns="http://www.w3.org/2000/svg" version="1.1" width="224" height="224">
  <defs/>
  <g>
    <path d="M 79.34138488769531 111.86163330078125 C 89.43394470214844 130.743896484375 81.98640441894531 119.40128326416016 76.57135009765625 121.04590606689453" stroke-width="3.0" fill="none" stroke="rgb(0, 0, 0)" stroke-opacity="1.0" stroke-linecap="round" stroke-linejoin="round"/>
    <path d="M 74.61287689208984 123.5947494506836 C 106.84632110595703 137.61094665527344 111.23680114746094 128.003173828125 137.64959716796875 128.05999755859375" stroke-width="3.0" fill="none" stroke="rgb(0, 0, 0)" stroke-opacity="1.0" stroke-linecap="round" stroke-linejoin="round"/>
    <path d="M 169.72610473632812 99.9003677368164 C 216.30767822265625 118.7060317993164 192.51918029785156 134.50686645507812 214.6841278076172 143.8876953125" stroke-width="3.0" fill="none" stroke="rgb(0, 0, 0)" stroke-opacity="1.0" stroke-linecap="round" stroke-linejoin="round"/>
    <path d="M 47.97210693359375 64.09396362304688 C 61.81535720825195 149.23605346679688 63.38786697387695 63.99904251098633 41.11157989501953 149.80819702148438" stroke-width="3.0" fill="none" stroke="rgb(0, 0, 0)" stroke-opacity="1.0" stroke-linecap="round" stroke-linejoin="round"/>
    <path d="M 102.18316650390625 86.84850311279297 C 135.9758758544922 97.07083892822266 146.04739379882812 76.01375579833984 176.5711212158203 107.52578735351562" stroke-width="3.0" fill="none" stroke="rgb(0, 0, 0)" stroke-opacity="1.0" stroke-linecap="round" stroke-linejoin="round"/>
    <path d="M 129.63230895996094 126.45480346679688 C 139.70372009277344 126.91304779052734 145.1276092529297 122.3653793334961 124.21300506591797 126.05004119873047" stroke-width="3.0" fill="none" stroke="rgb(0, 0, 0)" stroke-opacity="1.0" stroke-linecap="round" stroke-linejoin="round"/>
    <path d="M 74.15454864501953 122.46588897705078 C 96.0136947631836 106.45520782470703 64.54557800292969 134.90220642089844 83.03791809082031 122.74211883544922" stroke-width="3.0" fill="none" stroke="rgb(0, 0, 0)" stroke-opacity="1.0" stroke-linecap="round" stroke-linejoin="round"/>
    <path d="M 138.3070831298828 131.11276245117188 C 118.71331024169922 174.3144073486328 143.02459716796875 157.69110107421875 99.43389129638672 185.2917938232422" stroke-width="3.0" fill="none" stroke="rgb(0, 0, 0)" stroke-opacity="1.0" stroke-linecap="round" stroke-linejoin="round"/>
    <path d="M 55.474891662597656 119.88216400146484 C -2.888523817062378 189.32049560546875 77.01624298095703 139.2434539794922 18.51911735534668 170.31109619140625" stroke-width="3.0" fill="none" stroke="rgb(0, 0, 0)" stroke-opacity="1.0" stroke-linecap="round" stroke-linejoin="round"/>
    <path d="M 33.58885955810547 35.075775146484375 C 109.98563385009766 71.58229064941406 50.078365325927734 67.53556823730469 109.1092758178711 90.75543212890625" stroke-width="3.0" fill="none" stroke="rgb(0, 0, 0)" stroke-opacity="1.0" stroke-linecap="round" stroke-linejoin="round"/>
    <path d="M 132.32931518554688 163.21981811523438 C 157.9797821044922 116.8984146118164 147.1485137939453 157.39474487304688 181.5512237548828 106.19709777832031" stroke-width="3.0" fill="none" stroke="rgb(0, 0, 0)" stroke-opacity="1.0" stroke-linecap="round" stroke-linejoin="round"/>
    <path d="M 37.497718811035156 153.4695281982422 C 61.83026123046875 111.8545913696289 51.05100631713867 141.2738037109375 81.53746795654297 116.70427703857422" stroke-width="3.0" fill="none" stroke="rgb(0, 0, 0)" stroke-opacity="1.0" stroke-linecap="round" stroke-linejoin="round"/>
    <path d="M 158.0287628173828 116.67799377441406 C 134.79946899414062 131.89537048339844 160.01458740234375 113.87638092041016 110.07485961914062 129.7443084716797" stroke-width="3.0" fill="none" stroke="rgb(0, 0, 0)" stroke-opacity="1.0" stroke-linecap="round" stroke-linejoin="round"/>
    <path d="M 173.6333770751953 109.8315200805664 C 165.18270874023438 230.5084991455078 134.18980407714844 180.94534301757812 160.58087158203125 189.0593719482422" stroke-width="3.0" fill="none" stroke="rgb(0, 0, 0)" stroke-opacity="1.0" stroke-linecap="round" stroke-linejoin="round"/>
    <path d="M 12.089963912963867 77.5365219116211 C 60.89521026611328 12.99071979522705 -12.37020206451416 85.90819549560547 51.98604965209961 36.27655792236328" stroke-width="3.0" fill="none" stroke="rgb(0, 0, 0)" stroke-opacity="1.0" stroke-linecap="round" stroke-linejoin="round"/>
    <path d="M 93.04527282714844 78.05862426757812 C 75.12554168701172 20.060882568359375 -24.903594970703125 37.10224151611328 81.74235534667969 49.94399642944336" stroke-width="3.0" fill="none" stroke="rgb(0, 0, 0)" stroke-opacity="1.0" stroke-linecap="round" stroke-linejoin="round"/>
  </g>
</svg>
