<?xml version="1.0" ?>
<svg xmlns="http://www.w3.org/2000/svg" version="1.1" width="224" height="224">
  <defs/>
  <g>
    <path d="M 76.9942626953125 106.60701751708984 C 88.21073913574219 130.1619110107422 80.50004577636719 119.94300079345703 77.50159454345703 121.77674865722656" stroke-width="3.0" fill="none" stroke="rgb(0, 0, 0)" stroke-opacity="1.0" stroke-linecap="round" stroke-linejoin="round"/>
    <path d="M 73.48554992675781 122.244140625 C 109.8052978515625 134.98590087890625 110.77265167236328 127.6226806640625 136.07620239257812 128.50416564941406" stroke-width="3.0" fill="none" stroke="rgb(0, 0, 0)" stroke-opacity="1.0" stroke-linecap="round" stroke-linejoin="round"/>
    <path d="M 166.05499267578125 98.94538116455078 C 218.63723754882812 116.38287353515625 195.23069763183594 131.7947540283203 219.79446411132812 140.16110229492188" stroke-width="3.0" fill="none" stroke="rgb(0, 0, 0)" stroke-opacity="1.0" stroke-linecap="round" stroke-linejoin="round"/>
    <path d="M 46.61445999145508 57.82893371582031 C 59.541534423828125 149.35476684570312 67.01264953613281 65.74642181396484 38.944087982177734 149.97084045410156" stroke-width="3.0" fill="none" stroke="rgb(0, 0, 0)" stroke-opacity="1.0" stroke-linecap="round" stroke-linejoin="round"/>
    <path d="M 103.49906158447266 84.0919189453125 C 136.1916961669922 93.42366027832031 146.25396728515625 74.23371887207031 177.2006072998047 107.17131805419922" stroke-width="3.0" fill="none" stroke="rgb(0, 0, 0)" stroke-opacity="1.0" stroke-linecap="round" stroke-linejoin="round"/>
    <path d="M 130.1295928955078 126.08944702148438 C 139.31695556640625 128.9857177734375 143.45892333984375 124.150390625 124.35362243652344 128.30499267578125" stroke-width="3.0" fill="none" stroke="rgb(0, 0, 0)" stroke-opacity="1.0" stroke-linecap="round" stroke-linejoin="round"/>
    <path d="M 75.07063293457031 121.94041442871094 C 96.03894805908203 105.95398712158203 60.98090362548828 131.2667694091797 82.28274536132812 120.55721282958984" stroke-width="3.0" fill="none" stroke="rgb(0, 0, 0)" stroke-opacity="1.0" stroke-linecap="round" stroke-linejoin="round"/>
    <path d="M 138.30343627929688 131.12904357910156 C 119.53389739990234 177.69952392578125 145.1950225830078 159.2340850830078 96.23155975341797 183.86026000976562" stroke-width="3.0" fill="none" stroke="rgb(0, 0, 0)" stroke-opacity="1.0" stroke-linecap="round" stroke-linejoin="round"/>
    <path d="M 54.6237678527832 119.83246612548828 C -7.581979274749756 184.80828857421875 68.67523193359375 133.46632385253906 15.07351016998291 169.2727813720703" stroke-width="3.0" fill="none" stroke="rgb(0, 0, 0)" stroke-opacity="1.0" stroke-linecap="round" stroke-linejoin="round"/>
    <path d="M 35.54064178466797 33.913909912109375 C 109.26426696777344 72.73316192626953 49.82435607910156 66.1370849609375 112.33573150634766 86.09226989746094" stroke-width="3.0" fill="none" stroke="rgb(0, 0, 0)" stroke-opacity="1.0" stroke-linecap="round" stroke-linejoin="round"/>
    <path d="M 134.02513122558594 162.41941833496094 C 156.36460876464844 115.68150329589844 146.83734130859375 156.60223388671875 182.1120147705078 109.26166534423828" stroke-width="3.0" fill="none" stroke="rgb(0, 0, 0)" stroke-opacity="1.0" stroke-linecap="round" stroke-linejoin="round"/>
    <path d="M 33.55197525024414 151.6715545654297 C 63.77781295776367 116.38886260986328 56.11720275878906 139.18504333496094 77.60833740234375 117.51513671875" stroke-width="3.0" fill="none" stroke="rgb(0, 0, 0)" stroke-opacity="1.0" stroke-linecap="round" stroke-linejoin="round"/>
    <path d="M 158.1702117919922 120.07355499267578 C 130.64170837402344 130.25038146972656 156.36651611328125 119.75056457519531 110.856201171875 129.682861328125" stroke-width="3.0" fill="none" stroke="rgb(0, 0, 0)" stroke-opacity="1.0" stroke-linecap="round" stroke-linejoin="round"/>
    <path d="M 172.11904907226562 108.97895050048828 C 166.30459594726562 229.444580078125 137.96775817871094 176.82022094726562 161.55426025390625 187.4684600830078" stroke-width="3.0" fill="none" stroke="rgb(0, 0, 0)" stroke-opacity="1.0" stroke-linecap="round" stroke-linejoin="round"/>
    <path d="M 13.931857109069824 75.70240020751953 C 64.09711456298828 14.3214111328125 -11.712698936462402 84.68052673339844 54.09922790527344 35.604209899902344" stroke-width="3.0" fill="none" stroke="rgb(0, 0, 0)" stroke-opacity="1.0" stroke-linecap="round" stroke-linejoin="round"/>
    <path d="M 94.16332244873047 75.82756805419922 C 77.5717544555664 23.05192756652832 -21.758747100830078 37.67299270629883 82.30633544921875 49.91497039794922" stroke-width="3.0" fill="none" stroke="rgb(0, 0, 0)" stroke-opacity="1.0" stroke-linecap="round" stroke-linejoin="round"/>
  </g>
</svg>
