<?xml version="1.0" ?>
<svg xmlns="http://www.w3.org/2000/svg" version="1.1" width="224" height="224">
  <defs/>
  <g>
    <path d="M 86.07882690429688 125.90685272216797 C 81.94872283935547 121.64007568359375 78.96163940429688 124.02546691894531 74.22206115722656 117.44979095458984" stroke-width="3.0" fill="none" stroke="rgb(0, 0, 0)" stroke-opacity="1.0" stroke-linecap="round" stroke-linejoin="round"/>
    <path d="M 73.74134063720703 121.90576934814453 C 93.04974365234375 140.1110076904297 114.39743041992188 124.91107940673828 133.4667205810547 123.74981689453125" stroke-width="3.0" fill="none" stroke="rgb(0, 0, 0)" stroke-opacity="1.0" stroke-linecap="round" stroke-linejoin="round"/>
    <path d="M 155.70578002929688 91.3438491821289 C 228.98301696777344 118.34503936767578 188.70278930664062 127.85350036621094 214.4286651611328 145.18373107910156" stroke-width="3.0" fill="none" stroke="rgb(0, 0, 0)" stroke-opacity="1.0" stroke-linecap="round" stroke-linejoin="round"/>
    <path d="M 60.21694564819336 79.35220336914062 C 48.32418441772461 149.8640899658203 97.03400421142578 103.9995346069336 34.44538116455078 153.80982971191406" stroke-width="3.0" fill="none" stroke="rgb(0, 0, 0)" stroke-opacity="1.0" stroke-linecap="round" stroke-linejoin="round"/>
    <path d="M 130.59771728515625 88.2207260131836 C 141.16015625 90.1166763305664 164.2045440673828 85.3339614868164 175.4838409423828 106.63401794433594" stroke-width="3.0" fill="none" stroke="rgb(0, 0, 0)" stroke-opacity="1.0" stroke-linecap="round" stroke-linejoin="round"/>
    <path d="M 133.76364135742188 122.04660034179688 C 132.93505859375 120.18948364257812 117.900634765625 127.20767974853516 124.7314453125 125.59559631347656" stroke-width="3.0" fill="none" stroke="rgb(0, 0, 0)" stroke-opacity="1.0" stroke-linecap="round" stroke-linejoin="round"/>
    <path d="M 77.44482421875 123.57644653320312 C 78.32283782958984 118.60951232910156 66.10835266113281 124.97329711914062 84.88368225097656 126.23959350585938" stroke-width="3.0" fill="none" stroke="rgb(0, 0, 0)" stroke-opacity="1.0" stroke-linecap="round" stroke-linejoin="round"/>
    <path d="M 140.95758056640625 132.37216186523438 C 121.52644348144531 165.4243927001953 150.58116149902344 148.19537353515625 98.39302825927734 184.1251220703125" stroke-width="3.0" fill="none" stroke="rgb(0, 0, 0)" stroke-opacity="1.0" stroke-linecap="round" stroke-linejoin="round"/>
    <path d="M 59.74851989746094 117.29373168945312 C 1.4169254302978516 174.2200164794922 48.27770233154297 150.1714324951172 17.927406311035156 171.49774169921875" stroke-width="3.0" fill="none" stroke="rgb(0, 0, 0)" stroke-opacity="1.0" stroke-linecap="round" stroke-linejoin="round"/>
    <path d="M 68.28564453125 45.863033294677734 C 96.83020782470703 100.30052185058594 102.71361541748047 79.22965240478516 143.47225952148438 90.44942474365234" stroke-width="3.0" fill="none" stroke="rgb(0, 0, 0)" stroke-opacity="1.0" stroke-linecap="round" stroke-linejoin="round"/>
    <path d="M 140.5506134033203 137.4731903076172 C 144.29078674316406 128.3404083251953 141.0192413330078 142.21011352539062 177.61509704589844 115.23137664794922" stroke-width="3.0" fill="none" stroke="rgb(0, 0, 0)" stroke-opacity="1.0" stroke-linecap="round" stroke-linejoin="round"/>
    <path d="M 47.02450942993164 136.55860900878906 C 77.69351959228516 130.02720642089844 72.78392791748047 137.9634552001953 73.34600067138672 113.69628143310547" stroke-width="3.0" fill="none" stroke="rgb(0, 0, 0)" stroke-opacity="1.0" stroke-linecap="round" stroke-linejoin="round"/>
    <path d="M 138.75860595703125 117.24510955810547 C 128.32322692871094 123.66227722167969 134.9847412109375 125.02110290527344 132.25320434570312 122.78158569335938" stroke-width="3.0" fill="none" stroke="rgb(0, 0, 0)" stroke-opacity="1.0" stroke-linecap="round" stroke-linejoin="round"/>
    <path d="M 168.38973999023438 126.70945739746094 C 188.89830017089844 155.8330535888672 135.9058837890625 209.8355255126953 160.76678466796875 195.00645446777344" stroke-width="3.0" fill="none" stroke="rgb(0, 0, 0)" stroke-opacity="1.0" stroke-linecap="round" stroke-linejoin="round"/>
    <path d="M 15.106775283813477 77.24463653564453 C 81.82615661621094 9.30639934539795 0.8838170766830444 67.14017486572266 68.78996276855469 40.61473083496094" stroke-width="3.0" fill="none" stroke="rgb(0, 0, 0)" stroke-opacity="1.0" stroke-linecap="round" stroke-linejoin="round"/>
    <path d="M 86.73639678955078 67.50668334960938 C 47.42919158935547 40.292606353759766 22.571491241455078 27.028345108032227 79.85686492919922 52.37958908081055" stroke-width="3.0" fill="none" stroke="rgb(0, 0, 0)" stroke-opacity="1.0" stroke-linecap="round" stroke-linejoin="round"/>
  </g>
</svg>
