<?xml version="1.0" ?>
<svg xmlns="http://www.w3.org/2000/svg" version="1.1" width="224" height="224">
  <defs/>
  <g>
    <path d="M 81.03120422363281 112.68148803710938 C 93.59939575195312 130.83009338378906 85.22706604003906 122.02285766601562 80.59820556640625 121.33621215820312" stroke-width="3.0" fill="none" stroke="rgb(0, 0, 0)" stroke-opacity="1.0" stroke-linecap="round" stroke-linejoin="round"/>
    <path d="M 80.62503814697266 122.6545639038086 C 126.56815338134766 134.21829223632812 119.39586639404297 129.7166748046875 141.82522583007812 119.71756744384766" stroke-width="3.0" fill="none" stroke="rgb(0, 0, 0)" stroke-opacity="1.0" stroke-linecap="round" stroke-linejoin="round"/>
    <path d="M 166.14227294921875 98.58797454833984 C 223.0640106201172 121.70246887207031 192.75091552734375 131.34335327148438 216.551025390625 140.266845703125" stroke-width="3.0" fill="none" stroke="rgb(0, 0, 0)" stroke-opacity="1.0" stroke-linecap="round" stroke-linejoin="round"/>
    <path d="M 49.41783142089844 59.40690612792969 C 40.52177429199219 154.19085693359375 74.4581527709961 84.08193969726562 33.11403274536133 158.379150390625" stroke-width="3.0" fill="none" stroke="rgb(0, 0, 0)" stroke-opacity="1.0" stroke-linecap="round" stroke-linejoin="round"/>
    <path d="M 117.25130462646484 87.11260223388672 C 136.82354736328125 91.24646759033203 154.2787628173828 79.28780364990234 171.43994140625 106.4388198852539" stroke-width="3.0" fill="none" stroke="rgb(0, 0, 0)" stroke-opacity="1.0" stroke-linecap="round" stroke-linejoin="round"/>
    <path d="M 139.9442596435547 122.73236846923828 C 125.64608764648438 129.4495849609375 126.2079849243164 136.9423065185547 138.28236389160156 122.2869644165039" stroke-width="3.0" fill="none" stroke="rgb(0, 0, 0)" stroke-opacity="1.0" stroke-linecap="round" stroke-linejoin="round"/>
    <path d="M 81.82643127441406 122.26927185058594 C 91.29389190673828 106.95946502685547 67.77964782714844 128.4921417236328 84.89083099365234 120.80095672607422" stroke-width="3.0" fill="none" stroke="rgb(0, 0, 0)" stroke-opacity="1.0" stroke-linecap="round" stroke-linejoin="round"/>
    <path d="M 138.94964599609375 125.96231842041016 C 128.93992614746094 171.9732208251953 144.1259307861328 155.654052734375 97.0761489868164 185.34146118164062" stroke-width="3.0" fill="none" stroke="rgb(0, 0, 0)" stroke-opacity="1.0" stroke-linecap="round" stroke-linejoin="round"/>
    <path d="M 58.598304748535156 120.67811584472656 C -10.614812850952148 178.25384521484375 53.29624557495117 151.60589599609375 15.124946594238281 168.53604125976562" stroke-width="3.0" fill="none" stroke="rgb(0, 0, 0)" stroke-opacity="1.0" stroke-linecap="round" stroke-linejoin="round"/>
    <path d="M 41.44161605834961 42.0692138671875 C 122.61238098144531 86.3917236328125 53.56096649169922 73.0522232055664 121.47452545166016 88.52704620361328" stroke-width="3.0" fill="none" stroke="rgb(0, 0, 0)" stroke-opacity="1.0" stroke-linecap="round" stroke-linejoin="round"/>
    <path d="M 134.7996063232422 160.177490234375 C 151.61131286621094 118.68956756591797 150.99386596679688 155.48890686035156 177.2028350830078 108.12075805664062" stroke-width="3.0" fill="none" stroke="rgb(0, 0, 0)" stroke-opacity="1.0" stroke-linecap="round" stroke-linejoin="round"/>
    <path d="M 29.596410751342773 154.44287109375 C 72.38434600830078 119.69434356689453 63.53986358642578 143.6582794189453 75.97550201416016 115.03336334228516" stroke-width="3.0" fill="none" stroke="rgb(0, 0, 0)" stroke-opacity="1.0" stroke-linecap="round" stroke-linejoin="round"/>
    <path d="M 159.77284240722656 119.19054412841797 C 139.23851013183594 125.36898040771484 136.94822692871094 117.33196258544922 133.17080688476562 130.9748992919922" stroke-width="3.0" fill="none" stroke="rgb(0, 0, 0)" stroke-opacity="1.0" stroke-linecap="round" stroke-linejoin="round"/>
    <path d="M 169.44752502441406 111.55584716796875 C 168.0061492919922 228.4263458251953 135.4785919189453 184.72230529785156 161.21485900878906 190.9598846435547" stroke-width="3.0" fill="none" stroke="rgb(0, 0, 0)" stroke-opacity="1.0" stroke-linecap="round" stroke-linejoin="round"/>
    <path d="M 13.765583992004395 72.61827850341797 C 78.56134033203125 21.039363861083984 -13.421173095703125 66.46026611328125 67.72911834716797 47.087284088134766" stroke-width="3.0" fill="none" stroke="rgb(0, 0, 0)" stroke-opacity="1.0" stroke-linecap="round" stroke-linejoin="round"/>
    <path d="M 90.60382080078125 70.70548248291016 C 46.758567810058594 34.555789947509766 -10.976760864257812 38.83548355102539 85.26263427734375 58.29927444458008" stroke-width="3.0" fill="none" stroke="rgb(0, 0, 0)" stroke-opacity="1.0" stroke-linecap="round" stroke-linejoin="round"/>
  </g>
</svg>
