<?xml version="1.0" ?>
<svg xmlns="http://www.w3.org/2000/svg" version="1.1" width="224" height="224">
  <defs/>
  <g>
    <path d="M 78.07816314697266 111.43122100830078 C 86.23747253417969 133.81605529785156 86.03530883789062 120.79035186767578 76.08209228515625 125.86418151855469" stroke-width="3.0" fill="none" stroke="rgb(0, 0, 0)" stroke-opacity="1.0" stroke-linecap="round" stroke-linejoin="round"/>
    <path d="M 72.25421142578125 125.07148742675781 C 115.4131088256836 138.70314025878906 114.04241180419922 123.18718719482422 135.10104370117188 128.388671875" stroke-width="3.0" fill="none" stroke="rgb(0, 0, 0)" stroke-opacity="1.0" stroke-linecap="round" stroke-linejoin="round"/>
    <path d="M 166.4522705078125 97.50160217285156 C 219.7176055908203 122.51829528808594 192.33465576171875 132.84698486328125 216.19029235839844 139.63807678222656" stroke-width="3.0" fill="none" stroke="rgb(0, 0, 0)" stroke-opacity="1.0" stroke-linecap="round" stroke-linejoin="round"/>
    <path d="M 49.4222526550293 62.710391998291016 C 58.87245178222656 149.96536254882812 72.98292541503906 72.90608978271484 36.76718521118164 155.12924194335938" stroke-width="3.0" fill="none" stroke="rgb(0, 0, 0)" stroke-opacity="1.0" stroke-linecap="round" stroke-linejoin="round"/>
    <path d="M 105.33306121826172 85.2723388671875 C 134.18609619140625 90.57605743408203 148.75662231445312 77.5082778930664 176.2664794921875 105.61236572265625" stroke-width="3.0" fill="none" stroke="rgb(0, 0, 0)" stroke-opacity="1.0" stroke-linecap="round" stroke-linejoin="round"/>
    <path d="M 133.4697723388672 124.79171752929688 C 135.8440704345703 125.15243530273438 137.9412078857422 127.75730895996094 129.1346435546875 125.05034637451172" stroke-width="3.0" fill="none" stroke="rgb(0, 0, 0)" stroke-opacity="1.0" stroke-linecap="round" stroke-linejoin="round"/>
    <path d="M 77.03157043457031 121.58629608154297 C 91.86729431152344 110.3727798461914 60.41423797607422 134.2669677734375 82.14127349853516 121.76470947265625" stroke-width="3.0" fill="none" stroke="rgb(0, 0, 0)" stroke-opacity="1.0" stroke-linecap="round" stroke-linejoin="round"/>
    <path d="M 139.68099975585938 128.74717712402344 C 121.27342224121094 175.08255004882812 141.1004638671875 157.75933837890625 99.96858978271484 186.17193603515625" stroke-width="3.0" fill="none" stroke="rgb(0, 0, 0)" stroke-opacity="1.0" stroke-linecap="round" stroke-linejoin="round"/>
    <path d="M 57.96306228637695 121.29155731201172 C -7.6702399253845215 182.5745391845703 72.6117935180664 150.0357666015625 15.630867004394531 167.8022918701172" stroke-width="3.0" fill="none" stroke="rgb(0, 0, 0)" stroke-opacity="1.0" stroke-linecap="round" stroke-linejoin="round"/>
    <path d="M 40.13973617553711 35.024452209472656 C 110.54438018798828 85.1178207397461 46.04041290283203 67.6165542602539 115.22447967529297 86.64462280273438" stroke-width="3.0" fill="none" stroke="rgb(0, 0, 0)" stroke-opacity="1.0" stroke-linecap="round" stroke-linejoin="round"/>
    <path d="M 131.95068359375 160.05917358398438 C 153.33213806152344 117.84158325195312 151.52203369140625 154.10504150390625 178.0323028564453 109.3522720336914" stroke-width="3.0" fill="none" stroke="rgb(0, 0, 0)" stroke-opacity="1.0" stroke-linecap="round" stroke-linejoin="round"/>
    <path d="M 32.368385314941406 153.3125762939453 C 69.34439849853516 119.44064331054688 62.87367248535156 145.72825622558594 73.90315246582031 115.56575775146484" stroke-width="3.0" fill="none" stroke="rgb(0, 0, 0)" stroke-opacity="1.0" stroke-linecap="round" stroke-linejoin="round"/>
    <path d="M 157.0533447265625 116.55442810058594 C 135.58636474609375 128.8776092529297 152.2688446044922 116.7008056640625 121.26663970947266 126.73235321044922" stroke-width="3.0" fill="none" stroke="rgb(0, 0, 0)" stroke-opacity="1.0" stroke-linecap="round" stroke-linejoin="round"/>
    <path d="M 172.92039489746094 108.2810287475586 C 166.97523498535156 229.04678344726562 135.52609252929688 181.64120483398438 160.49688720703125 188.86708068847656" stroke-width="3.0" fill="none" stroke="rgb(0, 0, 0)" stroke-opacity="1.0" stroke-linecap="round" stroke-linejoin="round"/>
    <path d="M 14.587667465209961 77.1275634765625 C 59.243553161621094 16.52057456970215 -12.538932800292969 79.87594604492188 52.162132263183594 37.18389892578125" stroke-width="3.0" fill="none" stroke="rgb(0, 0, 0)" stroke-opacity="1.0" stroke-linecap="round" stroke-linejoin="round"/>
    <path d="M 92.17900848388672 75.99832153320312 C 69.25726318359375 23.332975387573242 -13.766888618469238 36.539878845214844 83.22295379638672 53.9050178527832" stroke-width="3.0" fill="none" stroke="rgb(0, 0, 0)" stroke-opacity="1.0" stroke-linecap="round" stroke-linejoin="round"/>
  </g>
</svg>
