<?xml version="1.0" ?>
<svg xmlns="http://www.w3.org/2000/svg" version="1.1" width="224" height="224">
  <defs/>
  <g>
    <path d="M 80.93112182617188 124.17964935302734 C 82.487060546875 121.20758056640625 80.33147430419922 122.78065490722656 75.69095611572266 117.0229721069336" stroke-width="3.0" fill="none" stroke="rgb(0, 0, 0)" stroke-opacity="1.0" stroke-linecap="round" stroke-linejoin="round"/>
    <path d="M 76.4955062866211 125.33390808105469 C 97.70146179199219 138.21861267089844 119.62590789794922 124.96131896972656 135.8802947998047 125.5714340209961" stroke-width="3.0" fill="none" stroke="rgb(0, 0, 0)" stroke-opacity="1.0" stroke-linecap="round" stroke-linejoin="round"/>
    <path d="M 155.39547729492188 91.56466674804688 C 228.6629638671875 124.37791442871094 189.15696716308594 133.2240447998047 213.9732208251953 144.43043518066406" stroke-width="3.0" fill="none" stroke="rgb(0, 0, 0)" stroke-opacity="1.0" stroke-linecap="round" stroke-linejoin="round"/>
    <path d="M 58.931156158447266 78.3039779663086 C 44.45206069946289 145.56024169921875 92.35701751708984 98.53279113769531 34.14555740356445 153.96018981933594" stroke-width="3.0" fill="none" stroke="rgb(0, 0, 0)" stroke-opacity="1.0" stroke-linecap="round" stroke-linejoin="round"/>
    <path d="M 129.92555236816406 90.03340148925781 C 139.61669921875 90.3410873413086 164.6846160888672 84.08160400390625 176.93017578125 107.64002227783203" stroke-width="3.0" fill="none" stroke="rgb(0, 0, 0)" stroke-opacity="1.0" stroke-linecap="round" stroke-linejoin="round"/>
    <path d="M 136.13766479492188 122.70191955566406 C 135.0674285888672 122.02560424804688 119.97994232177734 129.37460327148438 125.5518569946289 126.91228485107422" stroke-width="3.0" fill="none" stroke="rgb(0, 0, 0)" stroke-opacity="1.0" stroke-linecap="round" stroke-linejoin="round"/>
    <path d="M 80.15142059326172 123.34261322021484 C 76.81877899169922 119.88607788085938 68.43081665039062 120.32422637939453 80.99439239501953 124.4702377319336" stroke-width="3.0" fill="none" stroke="rgb(0, 0, 0)" stroke-opacity="1.0" stroke-linecap="round" stroke-linejoin="round"/>
    <path d="M 140.89071655273438 134.0911865234375 C 127.2270736694336 167.78492736816406 146.98904418945312 151.2478790283203 99.92497253417969 184.93165588378906" stroke-width="3.0" fill="none" stroke="rgb(0, 0, 0)" stroke-opacity="1.0" stroke-linecap="round" stroke-linejoin="round"/>
    <path d="M 61.47551345825195 114.68783569335938 C 2.338879346847534 172.97006225585938 48.52486801147461 151.9729766845703 15.401201248168945 169.64804077148438" stroke-width="3.0" fill="none" stroke="rgb(0, 0, 0)" stroke-opacity="1.0" stroke-linecap="round" stroke-linejoin="round"/>
    <path d="M 63.89265823364258 41.914676666259766 C 103.77079010009766 103.6369400024414 95.1259536743164 82.39165496826172 137.5283203125 90.40481567382812" stroke-width="3.0" fill="none" stroke="rgb(0, 0, 0)" stroke-opacity="1.0" stroke-linecap="round" stroke-linejoin="round"/>
    <path d="M 140.0107879638672 141.04290771484375 C 147.96902465820312 128.6906280517578 142.11863708496094 142.287353515625 172.96502685546875 113.50112915039062" stroke-width="3.0" fill="none" stroke="rgb(0, 0, 0)" stroke-opacity="1.0" stroke-linecap="round" stroke-linejoin="round"/>
    <path d="M 41.957881927490234 142.2499237060547 C 79.45836639404297 129.62644958496094 73.89118194580078 145.1366729736328 74.84058380126953 113.50074005126953" stroke-width="3.0" fill="none" stroke="rgb(0, 0, 0)" stroke-opacity="1.0" stroke-linecap="round" stroke-linejoin="round"/>
    <path d="M 140.06846618652344 120.08224487304688 C 131.04449462890625 127.76471710205078 135.5511474609375 126.16218566894531 131.77012634277344 122.97073364257812" stroke-width="3.0" fill="none" stroke="rgb(0, 0, 0)" stroke-opacity="1.0" stroke-linecap="round" stroke-linejoin="round"/>
    <path d="M 170.70663452148438 121.28206634521484 C 186.23585510253906 146.99246215820312 142.92950439453125 201.04922485351562 159.16078186035156 189.96591186523438" stroke-width="3.0" fill="none" stroke="rgb(0, 0, 0)" stroke-opacity="1.0" stroke-linecap="round" stroke-linejoin="round"/>
    <path d="M 13.798745155334473 75.93657684326172 C 78.4156494140625 5.363657474517822 -6.276034832000732 65.46436309814453 71.83956146240234 42.19872283935547" stroke-width="3.0" fill="none" stroke="rgb(0, 0, 0)" stroke-opacity="1.0" stroke-linecap="round" stroke-linejoin="round"/>
    <path d="M 84.60914611816406 66.46708679199219 C 48.66160202026367 39.0887336730957 22.123775482177734 27.344520568847656 79.86974334716797 55.275901794433594" stroke-width="3.0" fill="none" stroke="rgb(0, 0, 0)" stroke-opacity="1.0" stroke-linecap="round" stroke-linejoin="round"/>
  </g>
</svg>
