<?xml version="1.0" ?>
<svg xmlns="http://www.w3.org/2000/svg" version="1.1" width="224" height="224">
  <defs/>
  <g>
    <path d="M 75.70675659179688 120.7756576538086 C 81.196044921875 124.97798919677734 81.54806518554688 124.32818603515625 76.36676025390625 118.27830505371094" stroke-width="3.0" fill="none" stroke="rgb(0, 0, 0)" stroke-opacity="1.0" stroke-linecap="round" stroke-linejoin="round"/>
    <path d="M 73.20536041259766 129.6227569580078 C 106.33749389648438 138.4153289794922 117.79454803466797 125.01205444335938 130.3214874267578 127.26109313964844" stroke-width="3.0" fill="none" stroke="rgb(0, 0, 0)" stroke-opacity="1.0" stroke-linecap="round" stroke-linejoin="round"/>
    <path d="M 156.33375549316406 93.28190612792969 C 225.6609344482422 119.81417083740234 192.05487060546875 132.43714904785156 216.13674926757812 143.684326171875" stroke-width="3.0" fill="none" stroke="rgb(0, 0, 0)" stroke-opacity="1.0" stroke-linecap="round" stroke-linejoin="round"/>
    <path d="M 56.113033294677734 70.83733367919922 C 31.57440757751465 144.85142517089844 78.47319030761719 89.49185180664062 33.059898376464844 158.40403747558594" stroke-width="3.0" fill="none" stroke="rgb(0, 0, 0)" stroke-opacity="1.0" stroke-linecap="round" stroke-linejoin="round"/>
    <path d="M 129.4058380126953 89.77490234375 C 132.01441955566406 88.07719421386719 167.89369201660156 86.4923095703125 170.4945068359375 107.8501205444336" stroke-width="3.0" fill="none" stroke="rgb(0, 0, 0)" stroke-opacity="1.0" stroke-linecap="round" stroke-linejoin="round"/>
    <path d="M 133.77406311035156 121.81306457519531 C 133.62396240234375 123.31802368164062 115.88966369628906 128.08273315429688 126.90106964111328 127.15493774414062" stroke-width="3.0" fill="none" stroke="rgb(0, 0, 0)" stroke-opacity="1.0" stroke-linecap="round" stroke-linejoin="round"/>
    <path d="M 77.14986419677734 121.57624816894531 C 80.94154357910156 117.18241882324219 68.7233657836914 126.76485443115234 78.83708953857422 123.60010528564453" stroke-width="3.0" fill="none" stroke="rgb(0, 0, 0)" stroke-opacity="1.0" stroke-linecap="round" stroke-linejoin="round"/>
    <path d="M 139.664794921875 128.78135681152344 C 122.310302734375 171.8226318359375 142.39837646484375 153.91978454589844 99.68238830566406 185.06387329101562" stroke-width="3.0" fill="none" stroke="rgb(0, 0, 0)" stroke-opacity="1.0" stroke-linecap="round" stroke-linejoin="round"/>
    <path d="M 57.814945220947266 122.13865661621094 C -5.003928184509277 173.9363250732422 49.88896179199219 156.0426025390625 15.258545875549316 170.7399444580078" stroke-width="3.0" fill="none" stroke="rgb(0, 0, 0)" stroke-opacity="1.0" stroke-linecap="round" stroke-linejoin="round"/>
    <path d="M 52.203182220458984 38.722755432128906 C 105.48435974121094 102.02062225341797 94.27715301513672 78.60364532470703 134.67779541015625 89.10769653320312" stroke-width="3.0" fill="none" stroke="rgb(0, 0, 0)" stroke-opacity="1.0" stroke-linecap="round" stroke-linejoin="round"/>
    <path d="M 134.41268920898438 157.67137145996094 C 153.7760467529297 119.47630310058594 149.4480438232422 153.80929565429688 178.82296752929688 108.43201446533203" stroke-width="3.0" fill="none" stroke="rgb(0, 0, 0)" stroke-opacity="1.0" stroke-linecap="round" stroke-linejoin="round"/>
    <path d="M 27.754575729370117 152.00816345214844 C 73.09932708740234 120.11795806884766 60.776119232177734 142.99671936035156 77.90523529052734 115.7630615234375" stroke-width="3.0" fill="none" stroke="rgb(0, 0, 0)" stroke-opacity="1.0" stroke-linecap="round" stroke-linejoin="round"/>
    <path d="M 150.21286010742188 118.68636322021484 C 129.5091094970703 121.95307159423828 139.7505340576172 115.85465240478516 137.91012573242188 122.7752685546875" stroke-width="3.0" fill="none" stroke="rgb(0, 0, 0)" stroke-opacity="1.0" stroke-linecap="round" stroke-linejoin="round"/>
    <path d="M 169.69773864746094 121.5785140991211 C 180.85128784179688 149.5424041748047 143.6964111328125 199.95724487304688 162.56790161132812 191.89686584472656" stroke-width="3.0" fill="none" stroke="rgb(0, 0, 0)" stroke-opacity="1.0" stroke-linecap="round" stroke-linejoin="round"/>
    <path d="M 14.362936973571777 71.63792419433594 C 81.65636444091797 15.52389907836914 -15.42613697052002 62.46573257446289 70.77381896972656 45.73078155517578" stroke-width="3.0" fill="none" stroke="rgb(0, 0, 0)" stroke-opacity="1.0" stroke-linecap="round" stroke-linejoin="round"/>
    <path d="M 83.11487579345703 65.11053466796875 C 37.490543365478516 45.37095642089844 12.737112045288086 24.19562339782715 78.54045867919922 57.19191360473633" stroke-width="3.0" fill="none" stroke="rgb(0, 0, 0)" stroke-opacity="1.0" stroke-linecap="round" stroke-linejoin="round"/>
  </g>
</svg>
