<?xml version="1.0" ?>
<svg xmlns="http://www.w3.org/2000/svg" version="1.1" width="224" height="224">
  <defs/>
  <g>
    <path d="M 106.869384765625 104.17936706542969 C 106.22055053710938 109.56793975830078 107.97811126708984 106.53963470458984 100.9883804321289 102.94315338134766" stroke-width="3.0" fill="none" stroke="rgb(0, 0, 0)" stroke-opacity="1.0" stroke-linecap="round" stroke-linejoin="round"/>
    <path d="M 108.90660095214844 133.39146423339844 C 120.00982666015625 120.92227935791016 107.6705093383789 126.60708618164062 133.78628540039062 123.1229019165039" stroke-width="3.0" fill="none" stroke="rgb(0, 0, 0)" stroke-opacity="1.0" stroke-linecap="round" stroke-linejoin="round"/>
    <path d="M 183.3767547607422 109.35113525390625 C 190.6878662109375 122.30717468261719 190.28115844726562 108.70868682861328 204.33445739746094 125.07350158691406" stroke-width="3.0" fill="none" stroke="rgb(0, 0, 0)" stroke-opacity="1.0" stroke-linecap="round" stroke-linejoin="round"/>
    <path d="M 43.731109619140625 94.26663970947266 C 46.841758728027344 115.03215789794922 54.01124572753906 108.5294418334961 56.928768157958984 122.07706451416016" stroke-width="3.0" fill="none" stroke="rgb(0, 0, 0)" stroke-opacity="1.0" stroke-linecap="round" stroke-linejoin="round"/>
    <path d="M 147.68128967285156 93.09288787841797 C 142.42767333984375 89.42090606689453 144.69871520996094 88.99440002441406 149.26327514648438 99.53943634033203" stroke-width="3.0" fill="none" stroke="rgb(0, 0, 0)" stroke-opacity="1.0" stroke-linecap="round" stroke-linejoin="round"/>
    <path d="M 137.79762268066406 116.22169494628906 C 128.42318725585938 124.6436538696289 118.03485870361328 129.20277404785156 131.91357421875 123.2082748413086" stroke-width="3.0" fill="none" stroke="rgb(0, 0, 0)" stroke-opacity="1.0" stroke-linecap="round" stroke-linejoin="round"/>
    <path d="M 80.10075378417969 104.98311614990234 C 85.76005554199219 98.60816192626953 90.24102020263672 100.69883728027344 81.92298889160156 101.24242401123047" stroke-width="3.0" fill="none" stroke="rgb(0, 0, 0)" stroke-opacity="1.0" stroke-linecap="round" stroke-linejoin="round"/>
    <path d="M 136.02098083496094 132.18209838867188 C 148.80191040039062 143.4024200439453 139.23989868164062 136.30810546875 132.5510711669922 163.83009338378906" stroke-width="3.0" fill="none" stroke="rgb(0, 0, 0)" stroke-opacity="1.0" stroke-linecap="round" stroke-linejoin="round"/>
    <path d="M 49.13003158569336 158.28244018554688 C 41.85561752319336 166.30397033691406 46.20657730102539 154.3457794189453 28.69024658203125 161.72215270996094" stroke-width="3.0" fill="none" stroke="rgb(0, 0, 0)" stroke-opacity="1.0" stroke-linecap="round" stroke-linejoin="round"/>
    <path d="M 104.11412048339844 88.2660903930664 C 111.97622680664062 93.62855529785156 114.07520294189453 83.42713165283203 114.37508392333984 90.52328491210938" stroke-width="3.0" fill="none" stroke="rgb(0, 0, 0)" stroke-opacity="1.0" stroke-linecap="round" stroke-linejoin="round"/>
    <path d="M 134.9345245361328 127.91153717041016 C 137.63609313964844 132.28909301757812 149.2278594970703 133.91542053222656 153.13743591308594 134.4480438232422" stroke-width="3.0" fill="none" stroke="rgb(0, 0, 0)" stroke-opacity="1.0" stroke-linecap="round" stroke-linejoin="round"/>
    <path d="M 76.50008392333984 111.30121612548828 C 82.04012298583984 103.12897491455078 81.90528106689453 100.26374816894531 80.07335662841797 101.5953369140625" stroke-width="3.0" fill="none" stroke="rgb(0, 0, 0)" stroke-opacity="1.0" stroke-linecap="round" stroke-linejoin="round"/>
    <path d="M 136.69247436523438 107.68266296386719 C 132.02859497070312 106.51016235351562 132.42100524902344 104.85663604736328 136.77528381347656 110.09349060058594" stroke-width="3.0" fill="none" stroke="rgb(0, 0, 0)" stroke-opacity="1.0" stroke-linecap="round" stroke-linejoin="round"/>
    <path d="M 146.5240020751953 133.12074279785156 C 162.01576232910156 147.37513732910156 158.70819091796875 157.38441467285156 173.08155822753906 169.67877197265625" stroke-width="3.0" fill="none" stroke="rgb(0, 0, 0)" stroke-opacity="1.0" stroke-linecap="round" stroke-linejoin="round"/>
    <path d="M 46.17497253417969 42.63134002685547 C 59.5518913269043 32.06135940551758 72.42200469970703 47.956600189208984 73.66107940673828 42.63959884643555" stroke-width="3.0" fill="none" stroke="rgb(0, 0, 0)" stroke-opacity="1.0" stroke-linecap="round" stroke-linejoin="round"/>
    <path d="M 82.98851776123047 63.3505973815918 C 75.00972747802734 57.03654098510742 77.12335968017578 57.34437942504883 77.23512268066406 58.2319221496582" stroke-width="3.0" fill="none" stroke="rgb(0, 0, 0)" stroke-opacity="1.0" stroke-linecap="round" stroke-linejoin="round"/>
  </g>
</svg>
