<?xml version="1.0" ?>
<svg xmlns="http://www.w3.org/2000/svg" version="1.1" width="224" height="224">
  <defs/>
  <g>
    <path d="M 79.58805084228516 109.5925064086914 C 96.53801727294922 129.7300262451172 83.96417999267578 122.11046600341797 81.10420227050781 119.17011260986328" stroke-width="3.0" fill="none" stroke="rgb(0, 0, 0)" stroke-opacity="1.0" stroke-linecap="round" stroke-linejoin="round"/>
    <path d="M 78.72437286376953 123.05643463134766 C 117.29845428466797 134.23245239257812 116.4532470703125 126.6260757446289 137.20541381835938 121.78643798828125" stroke-width="3.0" fill="none" stroke="rgb(0, 0, 0)" stroke-opacity="1.0" stroke-linecap="round" stroke-linejoin="round"/>
    <path d="M 165.3630828857422 96.31208801269531 C 219.92376708984375 119.87532043457031 191.32826232910156 134.97410583496094 215.9951934814453 143.23434448242188" stroke-width="3.0" fill="none" stroke="rgb(0, 0, 0)" stroke-opacity="1.0" stroke-linecap="round" stroke-linejoin="round"/>
    <path d="M 52.398284912109375 66.79350280761719 C 43.520782470703125 156.72967529296875 75.78691101074219 80.39280700683594 33.512210845947266 160.1534423828125" stroke-width="3.0" fill="none" stroke="rgb(0, 0, 0)" stroke-opacity="1.0" stroke-linecap="round" stroke-linejoin="round"/>
    <path d="M 120.82238006591797 88.26032257080078 C 135.0666046142578 90.11027526855469 153.6759490966797 76.86705017089844 170.65155029296875 104.0336685180664" stroke-width="3.0" fill="none" stroke="rgb(0, 0, 0)" stroke-opacity="1.0" stroke-linecap="round" stroke-linejoin="round"/>
    <path d="M 141.1226806640625 124.17940521240234 C 122.8009033203125 122.50780487060547 128.04006958007812 127.65753936767578 132.1656494140625 124.12885284423828" stroke-width="3.0" fill="none" stroke="rgb(0, 0, 0)" stroke-opacity="1.0" stroke-linecap="round" stroke-linejoin="round"/>
    <path d="M 81.85021209716797 121.81798553466797 C 91.13744354248047 106.24939727783203 67.33081817626953 130.33485412597656 84.2975082397461 120.02654266357422" stroke-width="3.0" fill="none" stroke="rgb(0, 0, 0)" stroke-opacity="1.0" stroke-linecap="round" stroke-linejoin="round"/>
    <path d="M 140.18798828125 126.22135162353516 C 123.02552032470703 172.2053985595703 141.7256622314453 154.6636962890625 98.17913055419922 183.8321075439453" stroke-width="3.0" fill="none" stroke="rgb(0, 0, 0)" stroke-opacity="1.0" stroke-linecap="round" stroke-linejoin="round"/>
    <path d="M 62.04636764526367 119.31909942626953 C -12.167747497558594 180.94430541992188 55.612754821777344 152.5792236328125 13.398017883300781 169.86163330078125" stroke-width="3.0" fill="none" stroke="rgb(0, 0, 0)" stroke-opacity="1.0" stroke-linecap="round" stroke-linejoin="round"/>
    <path d="M 39.90950012207031 42.23886489868164 C 125.6004867553711 86.79316711425781 54.034576416015625 72.38494873046875 121.38150787353516 87.933349609375" stroke-width="3.0" fill="none" stroke="rgb(0, 0, 0)" stroke-opacity="1.0" stroke-linecap="round" stroke-linejoin="round"/>
    <path d="M 131.7093505859375 159.94503784179688 C 148.93418884277344 116.87403106689453 152.5010986328125 156.7643585205078 180.2472686767578 105.39373779296875" stroke-width="3.0" fill="none" stroke="rgb(0, 0, 0)" stroke-opacity="1.0" stroke-linecap="round" stroke-linejoin="round"/>
    <path d="M 29.744142532348633 154.8008575439453 C 70.52838134765625 119.15421295166016 64.8118667602539 144.8282012939453 73.68002319335938 114.43730163574219" stroke-width="3.0" fill="none" stroke="rgb(0, 0, 0)" stroke-opacity="1.0" stroke-linecap="round" stroke-linejoin="round"/>
    <path d="M 152.29566955566406 118.7735824584961 C 137.44859313964844 128.5736541748047 135.5590362548828 120.42916870117188 133.8658905029297 126.16020965576172" stroke-width="3.0" fill="none" stroke="rgb(0, 0, 0)" stroke-opacity="1.0" stroke-linecap="round" stroke-linejoin="round"/>
    <path d="M 172.22781372070312 110.63232421875 C 166.27223205566406 229.8397674560547 135.69573974609375 183.37222290039062 162.96849060058594 188.4149932861328" stroke-width="3.0" fill="none" stroke="rgb(0, 0, 0)" stroke-opacity="1.0" stroke-linecap="round" stroke-linejoin="round"/>
    <path d="M 17.471200942993164 77.5822525024414 C 71.02731323242188 22.364946365356445 -18.609617233276367 68.320068359375 68.85697174072266 48.03314971923828" stroke-width="3.0" fill="none" stroke="rgb(0, 0, 0)" stroke-opacity="1.0" stroke-linecap="round" stroke-linejoin="round"/>
    <path d="M 91.25001525878906 69.63388061523438 C 46.1821403503418 35.90717697143555 -12.88729190826416 37.771060943603516 84.08021545410156 58.51728820800781" stroke-width="3.0" fill="none" stroke="rgb(0, 0, 0)" stroke-opacity="1.0" stroke-linecap="round" stroke-linejoin="round"/>
  </g>
</svg>
