<?xml version="1.0" ?>
<svg xmlns="http://www.w3.org/2000/svg" version="1.1" width="224" height="224">
  <defs/>
  <g>
    <path d="M 79.99812316894531 116.17619323730469 C 76.03767395019531 135.1584014892578 90.0536117553711 121.90898895263672 75.5045394897461 117.93628692626953" stroke-width="3.0" fill="none" stroke="rgb(0, 0, 0)" stroke-opacity="1.0" stroke-linecap="round" stroke-linejoin="round"/>
    <path d="M 71.34078979492188 122.17921447753906 C 107.38558959960938 138.60260009765625 112.33848571777344 127.95581817626953 134.95535278320312 126.99337768554688" stroke-width="3.0" fill="none" stroke="rgb(0, 0, 0)" stroke-opacity="1.0" stroke-linecap="round" stroke-linejoin="round"/>
    <path d="M 169.0773468017578 103.0378189086914 C 217.86863708496094 114.5262451171875 195.71533203125 136.9783172607422 218.06170654296875 142.6871337890625" stroke-width="3.0" fill="none" stroke="rgb(0, 0, 0)" stroke-opacity="1.0" stroke-linecap="round" stroke-linejoin="round"/>
    <path d="M 49.1502685546875 67.05878448486328 C 69.55923461914062 149.23391723632812 41.97584533691406 96.52033996582031 34.63998794555664 147.02818298339844" stroke-width="3.0" fill="none" stroke="rgb(0, 0, 0)" stroke-opacity="1.0" stroke-linecap="round" stroke-linejoin="round"/>
    <path d="M 103.30436706542969 84.59124755859375 C 145.7198028564453 91.08026885986328 144.98080444335938 78.55744934082031 183.35658264160156 107.1877670288086" stroke-width="3.0" fill="none" stroke="rgb(0, 0, 0)" stroke-opacity="1.0" stroke-linecap="round" stroke-linejoin="round"/>
    <path d="M 138.39712524414062 128.64625549316406 C 136.64414978027344 130.9409942626953 148.40489196777344 120.11151885986328 110.02411651611328 128.03237915039062" stroke-width="3.0" fill="none" stroke="rgb(0, 0, 0)" stroke-opacity="1.0" stroke-linecap="round" stroke-linejoin="round"/>
    <path d="M 79.95301818847656 124.86107635498047 C 94.33024597167969 115.4334716796875 57.58155059814453 127.9415512084961 76.5048599243164 118.93217468261719" stroke-width="3.0" fill="none" stroke="rgb(0, 0, 0)" stroke-opacity="1.0" stroke-linecap="round" stroke-linejoin="round"/>
    <path d="M 140.34683227539062 131.88365173339844 C 121.43177032470703 174.3559112548828 139.85354614257812 156.9272003173828 98.93386840820312 184.3284454345703" stroke-width="3.0" fill="none" stroke="rgb(0, 0, 0)" stroke-opacity="1.0" stroke-linecap="round" stroke-linejoin="round"/>
    <path d="M 45.376182556152344 133.72056579589844 C -13.905091285705566 213.3474884033203 67.17958068847656 127.89065551757812 15.166207313537598 168.5546417236328" stroke-width="3.0" fill="none" stroke="rgb(0, 0, 0)" stroke-opacity="1.0" stroke-linecap="round" stroke-linejoin="round"/>
    <path d="M 33.23970413208008 37.65815353393555 C 105.45807647705078 69.08697509765625 60.06581497192383 61.262760162353516 105.6917953491211 85.86998748779297" stroke-width="3.0" fill="none" stroke="rgb(0, 0, 0)" stroke-opacity="1.0" stroke-linecap="round" stroke-linejoin="round"/>
    <path d="M 132.58419799804688 160.54495239257812 C 154.7881622314453 118.45001983642578 153.56163024902344 154.94705200195312 181.7025604248047 110.98297882080078" stroke-width="3.0" fill="none" stroke="rgb(0, 0, 0)" stroke-opacity="1.0" stroke-linecap="round" stroke-linejoin="round"/>
    <path d="M 38.998924255371094 159.4842071533203 C 58.76578903198242 112.24019622802734 52.73052215576172 148.98736572265625 78.7985610961914 110.38123321533203" stroke-width="3.0" fill="none" stroke="rgb(0, 0, 0)" stroke-opacity="1.0" stroke-linecap="round" stroke-linejoin="round"/>
    <path d="M 158.5784149169922 118.67357635498047 C 137.5706024169922 131.4925994873047 166.5302734375 118.59632873535156 95.80467224121094 131.46766662597656" stroke-width="3.0" fill="none" stroke="rgb(0, 0, 0)" stroke-opacity="1.0" stroke-linecap="round" stroke-linejoin="round"/>
    <path d="M 177.3099365234375 108.7643814086914 C 167.15390014648438 229.3677215576172 134.19496154785156 182.54495239257812 162.77537536621094 188.8042755126953" stroke-width="3.0" fill="none" stroke="rgb(0, 0, 0)" stroke-opacity="1.0" stroke-linecap="round" stroke-linejoin="round"/>
    <path d="M 13.942492485046387 74.47783660888672 C 70.07062530517578 7.04334020614624 -16.67989730834961 86.39325714111328 56.13247299194336 38.92564392089844" stroke-width="3.0" fill="none" stroke="rgb(0, 0, 0)" stroke-opacity="1.0" stroke-linecap="round" stroke-linejoin="round"/>
    <path d="M 94.10919189453125 72.99545288085938 C 83.22492980957031 22.23468589782715 -23.306259155273438 44.74809646606445 84.33533477783203 49.88242721557617" stroke-width="3.0" fill="none" stroke="rgb(0, 0, 0)" stroke-opacity="1.0" stroke-linecap="round" stroke-linejoin="round"/>
  </g>
</svg>
