<?xml version="1.0" ?>
<svg xmlns="http://www.w3.org/2000/svg" version="1.1" width="224" height="224">
  <defs/>
  <g>
    <path d="M 78.91008758544922 112.68824768066406 C 88.46736907958984 131.1691436767578 87.0748519897461 119.63980102539062 75.7204360961914 124.90892791748047" stroke-width="3.0" fill="none" stroke="rgb(0, 0, 0)" stroke-opacity="1.0" stroke-linecap="round" stroke-linejoin="round"/>
    <path d="M 75.3399887084961 124.57272338867188 C 113.48480987548828 139.04461669921875 112.98545837402344 123.5621109008789 132.88485717773438 129.35919189453125" stroke-width="3.0" fill="none" stroke="rgb(0, 0, 0)" stroke-opacity="1.0" stroke-linecap="round" stroke-linejoin="round"/>
    <path d="M 166.9683837890625 99.16917419433594 C 219.03860473632812 118.98804473876953 192.00914001464844 131.17959594726562 213.6143035888672 140.39544677734375" stroke-width="3.0" fill="none" stroke="rgb(0, 0, 0)" stroke-opacity="1.0" stroke-linecap="round" stroke-linejoin="round"/>
    <path d="M 48.1220703125 64.53498077392578 C 58.56930160522461 153.74160766601562 69.20606994628906 72.33232116699219 37.345638275146484 155.39273071289062" stroke-width="3.0" fill="none" stroke="rgb(0, 0, 0)" stroke-opacity="1.0" stroke-linecap="round" stroke-linejoin="round"/>
    <path d="M 102.74967956542969 83.7134780883789 C 136.3939666748047 89.85260772705078 147.02047729492188 76.50712585449219 175.4429168701172 108.14646911621094" stroke-width="3.0" fill="none" stroke="rgb(0, 0, 0)" stroke-opacity="1.0" stroke-linecap="round" stroke-linejoin="round"/>
    <path d="M 132.19778442382812 124.75076293945312 C 138.68609619140625 124.83313751220703 140.4523162841797 126.24205017089844 127.98143768310547 124.74859619140625" stroke-width="3.0" fill="none" stroke="rgb(0, 0, 0)" stroke-opacity="1.0" stroke-linecap="round" stroke-linejoin="round"/>
    <path d="M 76.67134857177734 122.49201965332031 C 93.46412658691406 110.58567810058594 59.29204177856445 132.32766723632812 80.76815795898438 120.54013061523438" stroke-width="3.0" fill="none" stroke="rgb(0, 0, 0)" stroke-opacity="1.0" stroke-linecap="round" stroke-linejoin="round"/>
    <path d="M 142.02503967285156 127.6837158203125 C 120.7939224243164 176.43502807617188 139.4239959716797 155.76422119140625 98.95976257324219 184.3968963623047" stroke-width="3.0" fill="none" stroke="rgb(0, 0, 0)" stroke-opacity="1.0" stroke-linecap="round" stroke-linejoin="round"/>
    <path d="M 58.68142318725586 120.44412231445312 C -8.980052947998047 181.38851928710938 71.51084899902344 147.811279296875 18.193639755249023 168.34780883789062" stroke-width="3.0" fill="none" stroke="rgb(0, 0, 0)" stroke-opacity="1.0" stroke-linecap="round" stroke-linejoin="round"/>
    <path d="M 39.143619537353516 36.246543884277344 C 111.47981262207031 81.75179290771484 44.264183044433594 67.9874267578125 113.16454315185547 85.76094818115234" stroke-width="3.0" fill="none" stroke="rgb(0, 0, 0)" stroke-opacity="1.0" stroke-linecap="round" stroke-linejoin="round"/>
    <path d="M 131.7585906982422 161.31338500976562 C 150.74774169921875 116.26935577392578 153.07467651367188 155.0756072998047 181.7523651123047 109.3621826171875" stroke-width="3.0" fill="none" stroke="rgb(0, 0, 0)" stroke-opacity="1.0" stroke-linecap="round" stroke-linejoin="round"/>
    <path d="M 36.27375793457031 151.94851684570312 C 66.77090454101562 117.77236938476562 58.50149917602539 141.25181579589844 73.01337432861328 116.64041900634766" stroke-width="3.0" fill="none" stroke="rgb(0, 0, 0)" stroke-opacity="1.0" stroke-linecap="round" stroke-linejoin="round"/>
    <path d="M 154.8325958251953 119.47328186035156 C 134.48802185058594 127.89193725585938 153.2999725341797 113.11695861816406 119.64409637451172 128.14785766601562" stroke-width="3.0" fill="none" stroke="rgb(0, 0, 0)" stroke-opacity="1.0" stroke-linecap="round" stroke-linejoin="round"/>
    <path d="M 174.00299072265625 106.11634063720703 C 167.2337646484375 228.9237823486328 133.44351196289062 179.91500854492188 161.81065368652344 187.1875457763672" stroke-width="3.0" fill="none" stroke="rgb(0, 0, 0)" stroke-opacity="1.0" stroke-linecap="round" stroke-linejoin="round"/>
    <path d="M 13.851971626281738 76.50442504882812 C 60.68818664550781 16.786128997802734 -13.048001289367676 78.30928039550781 55.963619232177734 35.53434371948242" stroke-width="3.0" fill="none" stroke="rgb(0, 0, 0)" stroke-opacity="1.0" stroke-linecap="round" stroke-linejoin="round"/>
    <path d="M 95.26988220214844 75.90157318115234 C 73.41950225830078 25.012008666992188 -12.792848587036133 35.21291732788086 84.7767562866211 53.272701263427734" stroke-width="3.0" fill="none" stroke="rgb(0, 0, 0)" stroke-opacity="1.0" stroke-linecap="round" stroke-linejoin="round"/>
  </g>
</svg>
