<?xml version="1.0" ?>
<svg xmlns="http://www.w3.org/2000/svg" version="1.1" width="224" height="224">
  <defs/>
  <g>
    <path d="M 71.90098571777344 124.29170227050781 C 79.38751220703125 128.4188690185547 81.7629165649414 125.86088562011719 77.0613021850586 118.01541137695312" stroke-width="3.0" fill="none" stroke="rgb(0, 0, 0)" stroke-opacity="1.0" stroke-linecap="round" stroke-linejoin="round"/>
    <path d="M 71.0390853881836 126.03227996826172 C 111.61011505126953 137.41726684570312 112.92061614990234 126.76729583740234 133.9181365966797 126.2762451171875" stroke-width="3.0" fill="none" stroke="rgb(0, 0, 0)" stroke-opacity="1.0" stroke-linecap="round" stroke-linejoin="round"/>
    <path d="M 155.96090698242188 92.83531188964844 C 230.9004669189453 120.04401397705078 189.57064819335938 131.6573486328125 214.20877075195312 144.58282470703125" stroke-width="3.0" fill="none" stroke="rgb(0, 0, 0)" stroke-opacity="1.0" stroke-linecap="round" stroke-linejoin="round"/>
    <path d="M 46.912349700927734 67.09542083740234 C 38.21918869018555 146.08670043945312 77.10601806640625 82.66536712646484 35.879783630371094 159.36619567871094" stroke-width="3.0" fill="none" stroke="rgb(0, 0, 0)" stroke-opacity="1.0" stroke-linecap="round" stroke-linejoin="round"/>
    <path d="M 132.13311767578125 90.70571899414062 C 133.63845825195312 92.4981689453125 164.3973846435547 86.95458221435547 169.6243133544922 103.64810180664062" stroke-width="3.0" fill="none" stroke="rgb(0, 0, 0)" stroke-opacity="1.0" stroke-linecap="round" stroke-linejoin="round"/>
    <path d="M 135.53172302246094 124.44058227539062 C 138.2903289794922 124.93022918701172 123.68904113769531 130.06890869140625 134.35885620117188 124.16975402832031" stroke-width="3.0" fill="none" stroke="rgb(0, 0, 0)" stroke-opacity="1.0" stroke-linecap="round" stroke-linejoin="round"/>
    <path d="M 76.69915008544922 122.6415023803711 C 81.34297943115234 116.0584487915039 68.33454132080078 124.177490234375 78.3240737915039 123.40984344482422" stroke-width="3.0" fill="none" stroke="rgb(0, 0, 0)" stroke-opacity="1.0" stroke-linecap="round" stroke-linejoin="round"/>
    <path d="M 141.78189086914062 128.26309204101562 C 119.53926849365234 176.121826171875 147.16566467285156 154.64805603027344 99.55519104003906 183.98338317871094" stroke-width="3.0" fill="none" stroke="rgb(0, 0, 0)" stroke-opacity="1.0" stroke-linecap="round" stroke-linejoin="round"/>
    <path d="M 56.09735107421875 122.18698120117188 C -2.0644218921661377 176.14036560058594 53.52170944213867 156.23487854003906 14.397977828979492 170.09054565429688" stroke-width="3.0" fill="none" stroke="rgb(0, 0, 0)" stroke-opacity="1.0" stroke-linecap="round" stroke-linejoin="round"/>
    <path d="M 53.73417282104492 41.49002456665039 C 108.15719604492188 100.13804626464844 86.38922882080078 80.79203796386719 137.01995849609375 92.19872283935547" stroke-width="3.0" fill="none" stroke="rgb(0, 0, 0)" stroke-opacity="1.0" stroke-linecap="round" stroke-linejoin="round"/>
    <path d="M 134.1953582763672 158.70240783691406 C 151.99090576171875 116.69908905029297 154.91859436035156 155.22799682617188 175.231201171875 106.67794799804688" stroke-width="3.0" fill="none" stroke="rgb(0, 0, 0)" stroke-opacity="1.0" stroke-linecap="round" stroke-linejoin="round"/>
    <path d="M 33.327762603759766 153.0045623779297 C 73.67056274414062 120.7059555053711 55.9496955871582 144.53416442871094 79.73267364501953 111.70081329345703" stroke-width="3.0" fill="none" stroke="rgb(0, 0, 0)" stroke-opacity="1.0" stroke-linecap="round" stroke-linejoin="round"/>
    <path d="M 146.09088134765625 120.92507934570312 C 133.11256408691406 128.126953125 131.74505615234375 118.35523986816406 135.17892456054688 126.96721649169922" stroke-width="3.0" fill="none" stroke="rgb(0, 0, 0)" stroke-opacity="1.0" stroke-linecap="round" stroke-linejoin="round"/>
    <path d="M 168.7777099609375 123.25263977050781 C 179.84144592285156 163.57765197753906 142.90042114257812 203.4584503173828 160.7327423095703 189.7283477783203" stroke-width="3.0" fill="none" stroke="rgb(0, 0, 0)" stroke-opacity="1.0" stroke-linecap="round" stroke-linejoin="round"/>
    <path d="M 14.401583671569824 72.14262390136719 C 78.56448364257812 17.586036682128906 -14.742440223693848 59.45888137817383 69.54810333251953 42.538780212402344" stroke-width="3.0" fill="none" stroke="rgb(0, 0, 0)" stroke-opacity="1.0" stroke-linecap="round" stroke-linejoin="round"/>
    <path d="M 86.07174682617188 64.05409240722656 C 36.72966766357422 42.0952033996582 4.085672855377197 26.6126651763916 78.98042297363281 57.173362731933594" stroke-width="3.0" fill="none" stroke="rgb(0, 0, 0)" stroke-opacity="1.0" stroke-linecap="round" stroke-linejoin="round"/>
  </g>
</svg>
