<?xml version="1.0" ?>
<svg xmlns="http://www.w3.org/2000/svg" version="1.1" width="224" height="224">
  <defs/>
  <g>
    <path d="M 108.35081481933594 105.57952880859375 C 110.10633087158203 106.3982162475586 109.77711486816406 103.76708221435547 102.04720306396484 103.2484359741211" stroke-width="3.0" fill="none" stroke="rgb(0, 0, 0)" stroke-opacity="1.0" stroke-linecap="round" stroke-linejoin="round"/>
    <path d="M 113.7680892944336 134.29220581054688 C 121.5955810546875 118.89585876464844 112.76512908935547 124.232666015625 135.31527709960938 124.22354888916016" stroke-width="3.0" fill="none" stroke="rgb(0, 0, 0)" stroke-opacity="1.0" stroke-linecap="round" stroke-linejoin="round"/>
    <path d="M 184.62432861328125 110.01590728759766 C 190.12261962890625 119.88597869873047 189.9834747314453 110.30513000488281 204.66650390625 121.58393096923828" stroke-width="3.0" fill="none" stroke="rgb(0, 0, 0)" stroke-opacity="1.0" stroke-linecap="round" stroke-linejoin="round"/>
    <path d="M 47.94530487060547 100.50347137451172 C 48.00205993652344 115.67341613769531 52.76376724243164 109.01126861572266 57.1422233581543 122.43856811523438" stroke-width="3.0" fill="none" stroke="rgb(0, 0, 0)" stroke-opacity="1.0" stroke-linecap="round" stroke-linejoin="round"/>
    <path d="M 146.37017822265625 94.83076477050781 C 139.5600128173828 89.12910461425781 144.5471649169922 88.65925598144531 149.80422973632812 97.6493148803711" stroke-width="3.0" fill="none" stroke="rgb(0, 0, 0)" stroke-opacity="1.0" stroke-linecap="round" stroke-linejoin="round"/>
    <path d="M 136.67897033691406 119.7945785522461 C 127.75511169433594 123.10399627685547 118.78227233886719 127.57022857666016 130.75682067871094 122.43424987792969" stroke-width="3.0" fill="none" stroke="rgb(0, 0, 0)" stroke-opacity="1.0" stroke-linecap="round" stroke-linejoin="round"/>
    <path d="M 78.54317474365234 103.13143157958984 C 86.81924438476562 100.00012969970703 92.81867218017578 100.896728515625 86.3519058227539 97.94879150390625" stroke-width="3.0" fill="none" stroke="rgb(0, 0, 0)" stroke-opacity="1.0" stroke-linecap="round" stroke-linejoin="round"/>
    <path d="M 138.2640838623047 131.53274536132812 C 149.60507202148438 141.69430541992188 139.47067260742188 133.09915161132812 133.83399963378906 156.9270477294922" stroke-width="3.0" fill="none" stroke="rgb(0, 0, 0)" stroke-opacity="1.0" stroke-linecap="round" stroke-linejoin="round"/>
    <path d="M 49.72124099731445 158.63571166992188 C 41.09819793701172 167.77352905273438 40.98769760131836 154.98313903808594 32.44113540649414 162.54820251464844" stroke-width="3.0" fill="none" stroke="rgb(0, 0, 0)" stroke-opacity="1.0" stroke-linecap="round" stroke-linejoin="round"/>
    <path d="M 106.7140884399414 88.72759246826172 C 112.00045776367188 99.7978286743164 114.8198013305664 92.16600036621094 112.50385284423828 95.6148681640625" stroke-width="3.0" fill="none" stroke="rgb(0, 0, 0)" stroke-opacity="1.0" stroke-linecap="round" stroke-linejoin="round"/>
    <path d="M 131.4669647216797 129.262451171875 C 135.5315399169922 132.54396057128906 147.87742614746094 133.45663452148438 148.89732360839844 131.815673828125" stroke-width="3.0" fill="none" stroke="rgb(0, 0, 0)" stroke-opacity="1.0" stroke-linecap="round" stroke-linejoin="round"/>
    <path d="M 75.84502410888672 109.55207824707031 C 81.77723693847656 104.09758758544922 80.27896881103516 101.38053894042969 78.57523345947266 99.79907989501953" stroke-width="3.0" fill="none" stroke="rgb(0, 0, 0)" stroke-opacity="1.0" stroke-linecap="round" stroke-linejoin="round"/>
    <path d="M 137.53746032714844 108.23674011230469 C 131.79612731933594 108.32600402832031 133.4278106689453 105.76573181152344 141.9624481201172 107.21329498291016" stroke-width="3.0" fill="none" stroke="rgb(0, 0, 0)" stroke-opacity="1.0" stroke-linecap="round" stroke-linejoin="round"/>
    <path d="M 150.36895751953125 135.2652130126953 C 159.83226013183594 148.95855712890625 158.39108276367188 157.74009704589844 170.5892333984375 167.14105224609375" stroke-width="3.0" fill="none" stroke="rgb(0, 0, 0)" stroke-opacity="1.0" stroke-linecap="round" stroke-linejoin="round"/>
    <path d="M 50.94722366333008 43.18159484863281 C 63.017234802246094 32.96216583251953 70.54068756103516 48.04092788696289 75.58960723876953 43.39201354980469" stroke-width="3.0" fill="none" stroke="rgb(0, 0, 0)" stroke-opacity="1.0" stroke-linecap="round" stroke-linejoin="round"/>
    <path d="M 79.3592529296875 59.387535095214844 C 75.20336151123047 56.52681350708008 76.8218002319336 55.957279205322266 77.01636505126953 57.83378982543945" stroke-width="3.0" fill="none" stroke="rgb(0, 0, 0)" stroke-opacity="1.0" stroke-linecap="round" stroke-linejoin="round"/>
  </g>
</svg>
