<?xml version="1.0" ?>
<svg xmlns="http://www.w3.org/2000/svg" version="1.1" width="224" height="224">
  <defs/>
  <g>
    <path d="M 77.14029693603516 120.92154693603516 C 87.45145416259766 122.89640045166016 86.3596420288086 122.92143249511719 75.76486206054688 116.92311096191406" stroke-width="3.0" fill="none" stroke="rgb(0, 0, 0)" stroke-opacity="1.0" stroke-linecap="round" stroke-linejoin="round"/>
    <path d="M 74.10383605957031 125.74842834472656 C 109.92023468017578 135.77529907226562 124.30970764160156 126.20812225341797 133.0735626220703 126.48577880859375" stroke-width="3.0" fill="none" stroke="rgb(0, 0, 0)" stroke-opacity="1.0" stroke-linecap="round" stroke-linejoin="round"/>
    <path d="M 156.8274383544922 92.17105102539062 C 223.09312438964844 117.19629669189453 192.02642822265625 132.97735595703125 214.829345703125 146.94297790527344" stroke-width="3.0" fill="none" stroke="rgb(0, 0, 0)" stroke-opacity="1.0" stroke-linecap="round" stroke-linejoin="round"/>
    <path d="M 58.289493560791016 73.43272399902344 C 33.23614501953125 146.69935607910156 78.95465087890625 89.50205993652344 33.031341552734375 158.56951904296875" stroke-width="3.0" fill="none" stroke="rgb(0, 0, 0)" stroke-opacity="1.0" stroke-linecap="round" stroke-linejoin="round"/>
    <path d="M 128.30288696289062 91.42236328125 C 133.89918518066406 91.23310852050781 169.60354614257812 85.65087127685547 173.54739379882812 108.82206726074219" stroke-width="3.0" fill="none" stroke="rgb(0, 0, 0)" stroke-opacity="1.0" stroke-linecap="round" stroke-linejoin="round"/>
    <path d="M 131.23646545410156 125.13465118408203 C 134.8800811767578 125.39773559570312 116.41534423828125 127.74711608886719 125.05928039550781 126.77377319335938" stroke-width="3.0" fill="none" stroke="rgb(0, 0, 0)" stroke-opacity="1.0" stroke-linecap="round" stroke-linejoin="round"/>
    <path d="M 76.9715576171875 122.59320068359375 C 76.58755493164062 117.54720306396484 66.86768341064453 122.98628997802734 80.38797760009766 123.47842407226562" stroke-width="3.0" fill="none" stroke="rgb(0, 0, 0)" stroke-opacity="1.0" stroke-linecap="round" stroke-linejoin="round"/>
    <path d="M 137.4797821044922 127.36249542236328 C 124.81094360351562 169.97537231445312 141.70541381835938 153.4486083984375 98.60707092285156 185.08673095703125" stroke-width="3.0" fill="none" stroke="rgb(0, 0, 0)" stroke-opacity="1.0" stroke-linecap="round" stroke-linejoin="round"/>
    <path d="M 60.31383514404297 121.90837097167969 C -3.869410991668701 175.67135620117188 49.84912109375 159.52110290527344 16.916595458984375 170.4589080810547" stroke-width="3.0" fill="none" stroke="rgb(0, 0, 0)" stroke-opacity="1.0" stroke-linecap="round" stroke-linejoin="round"/>
    <path d="M 52.94753646850586 38.15882110595703 C 105.15047454833984 104.03579711914062 89.25570678710938 81.64644622802734 133.1082305908203 93.17733764648438" stroke-width="3.0" fill="none" stroke="rgb(0, 0, 0)" stroke-opacity="1.0" stroke-linecap="round" stroke-linejoin="round"/>
    <path d="M 132.55209350585938 156.5204620361328 C 149.165771484375 120.9037094116211 143.79037475585938 150.6688690185547 177.57662963867188 114.99427032470703" stroke-width="3.0" fill="none" stroke="rgb(0, 0, 0)" stroke-opacity="1.0" stroke-linecap="round" stroke-linejoin="round"/>
    <path d="M 27.164567947387695 154.01214599609375 C 73.63129425048828 120.59276580810547 64.79850006103516 139.6912078857422 74.70577239990234 115.83800506591797" stroke-width="3.0" fill="none" stroke="rgb(0, 0, 0)" stroke-opacity="1.0" stroke-linecap="round" stroke-linejoin="round"/>
    <path d="M 145.22528076171875 122.21955108642578 C 128.9139862060547 121.19175720214844 138.55276489257812 122.64867401123047 136.1181640625 125.46663665771484" stroke-width="3.0" fill="none" stroke="rgb(0, 0, 0)" stroke-opacity="1.0" stroke-linecap="round" stroke-linejoin="round"/>
    <path d="M 172.85787963867188 123.26507568359375 C 182.08706665039062 148.18849182128906 142.7021484375 201.609375 161.14352416992188 195.02166748046875" stroke-width="3.0" fill="none" stroke="rgb(0, 0, 0)" stroke-opacity="1.0" stroke-linecap="round" stroke-linejoin="round"/>
    <path d="M 12.778903007507324 76.62256622314453 C 75.71453094482422 18.00397491455078 -17.5925350189209 62.91110610961914 71.73204803466797 48.30923080444336" stroke-width="3.0" fill="none" stroke="rgb(0, 0, 0)" stroke-opacity="1.0" stroke-linecap="round" stroke-linejoin="round"/>
    <path d="M 84.63809967041016 67.2266616821289 C 40.07426071166992 43.191959381103516 13.125107765197754 24.552200317382812 75.21795654296875 57.53435516357422" stroke-width="3.0" fill="none" stroke="rgb(0, 0, 0)" stroke-opacity="1.0" stroke-linecap="round" stroke-linejoin="round"/>
  </g>
</svg>
