<?xml version="1.0" ?>
<svg xmlns="http://www.w3.org/2000/svg" version="1.1" width="224" height="224">
  <defs/>
  <g>
    <path d="M 82.48831939697266 108.49309539794922 C 88.14010620117188 129.31448364257812 82.87002563476562 118.33271026611328 81.99238586425781 118.5884780883789" stroke-width="3.0" fill="none" stroke="rgb(0, 0, 0)" stroke-opacity="1.0" stroke-linecap="round" stroke-linejoin="round"/>
    <path d="M 76.97785186767578 123.36890411376953 C 112.76807403564453 133.3092041015625 115.30025482177734 125.9630126953125 134.3262176513672 125.12572479248047" stroke-width="3.0" fill="none" stroke="rgb(0, 0, 0)" stroke-opacity="1.0" stroke-linecap="round" stroke-linejoin="round"/>
    <path d="M 164.1638946533203 96.77776336669922 C 220.90829467773438 119.5660400390625 193.7301483154297 134.17193603515625 215.96141052246094 143.1772003173828" stroke-width="3.0" fill="none" stroke="rgb(0, 0, 0)" stroke-opacity="1.0" stroke-linecap="round" stroke-linejoin="round"/>
    <path d="M 53.58454513549805 66.29288482666016 C 44.78132247924805 154.93771362304688 76.22415161132812 78.19580078125 32.714881896972656 153.71437072753906" stroke-width="3.0" fill="none" stroke="rgb(0, 0, 0)" stroke-opacity="1.0" stroke-linecap="round" stroke-linejoin="round"/>
    <path d="M 119.3927993774414 87.54553985595703 C 137.19436645507812 90.527099609375 151.0293731689453 79.35730743408203 171.50897216796875 103.64379119873047" stroke-width="3.0" fill="none" stroke="rgb(0, 0, 0)" stroke-opacity="1.0" stroke-linecap="round" stroke-linejoin="round"/>
    <path d="M 138.61509704589844 123.25193786621094 C 126.11495208740234 124.46941375732422 134.85879516601562 124.15337371826172 135.5442657470703 125.40930938720703" stroke-width="3.0" fill="none" stroke="rgb(0, 0, 0)" stroke-opacity="1.0" stroke-linecap="round" stroke-linejoin="round"/>
    <path d="M 83.37163543701172 122.33358764648438 C 92.23744201660156 105.41289520263672 66.24574279785156 131.0915985107422 84.48466491699219 118.80717468261719" stroke-width="3.0" fill="none" stroke="rgb(0, 0, 0)" stroke-opacity="1.0" stroke-linecap="round" stroke-linejoin="round"/>
    <path d="M 141.9910888671875 129.54779052734375 C 121.51325225830078 176.37721252441406 141.8782958984375 157.68592834472656 96.53557586669922 182.67691040039062" stroke-width="3.0" fill="none" stroke="rgb(0, 0, 0)" stroke-opacity="1.0" stroke-linecap="round" stroke-linejoin="round"/>
    <path d="M 62.18158721923828 118.32250213623047 C -12.154791831970215 173.9292755126953 61.77196502685547 143.7117919921875 14.516942977905273 166.82345581054688" stroke-width="3.0" fill="none" stroke="rgb(0, 0, 0)" stroke-opacity="1.0" stroke-linecap="round" stroke-linejoin="round"/>
    <path d="M 37.934478759765625 36.94135284423828 C 126.55976104736328 83.21917724609375 49.89393615722656 77.06234741210938 121.20079040527344 87.5737075805664" stroke-width="3.0" fill="none" stroke="rgb(0, 0, 0)" stroke-opacity="1.0" stroke-linecap="round" stroke-linejoin="round"/>
    <path d="M 132.5103302001953 161.63623046875 C 153.83409118652344 116.95658874511719 147.2865447998047 155.1220245361328 181.31051635742188 106.63349914550781" stroke-width="3.0" fill="none" stroke="rgb(0, 0, 0)" stroke-opacity="1.0" stroke-linecap="round" stroke-linejoin="round"/>
    <path d="M 31.416580200195312 150.48583984375 C 72.15413665771484 120.8362045288086 63.966552734375 144.1974334716797 75.2292709350586 112.86433410644531" stroke-width="3.0" fill="none" stroke="rgb(0, 0, 0)" stroke-opacity="1.0" stroke-linecap="round" stroke-linejoin="round"/>
    <path d="M 156.11410522460938 119.54798126220703 C 140.9439697265625 128.6294708251953 136.5613555908203 118.63320922851562 130.04486083984375 125.39106750488281" stroke-width="3.0" fill="none" stroke="rgb(0, 0, 0)" stroke-opacity="1.0" stroke-linecap="round" stroke-linejoin="round"/>
    <path d="M 173.34658813476562 110.4054946899414 C 167.0471649169922 226.098876953125 136.84898376464844 176.85072326660156 162.31211853027344 188.7550811767578" stroke-width="3.0" fill="none" stroke="rgb(0, 0, 0)" stroke-opacity="1.0" stroke-linecap="round" stroke-linejoin="round"/>
    <path d="M 13.970988273620605 75.5617446899414 C 67.28116607666016 22.47391700744629 -23.202747344970703 70.43742370605469 60.13493728637695 39.46305465698242" stroke-width="3.0" fill="none" stroke="rgb(0, 0, 0)" stroke-opacity="1.0" stroke-linecap="round" stroke-linejoin="round"/>
    <path d="M 91.55073547363281 69.25479888916016 C 48.95332717895508 30.513118743896484 -15.709066390991211 36.416099548339844 83.46714782714844 54.149085998535156" stroke-width="3.0" fill="none" stroke="rgb(0, 0, 0)" stroke-opacity="1.0" stroke-linecap="round" stroke-linejoin="round"/>
  </g>
</svg>
