<?xml version="1.0" ?>
<svg xmlns="http://www.w3.org/2000/svg" version="1.1" width="224" height="224">
  <defs/>
  <g>
    <path d="M 80.61522674560547 113.04169464111328 C 93.98509216308594 129.94302368164062 85.83924865722656 120.64398193359375 80.74153900146484 120.38317108154297" stroke-width="3.0" fill="none" stroke="rgb(0, 0, 0)" stroke-opacity="1.0" stroke-linecap="round" stroke-linejoin="round"/>
    <path d="M 80.01333618164062 123.84349060058594 C 125.86102294921875 131.43893432617188 118.44284057617188 127.5472640991211 141.267578125 121.11038970947266" stroke-width="3.0" fill="none" stroke="rgb(0, 0, 0)" stroke-opacity="1.0" stroke-linecap="round" stroke-linejoin="round"/>
    <path d="M 166.5265350341797 99.11388397216797 C 222.09524536132812 123.8191146850586 191.6212158203125 131.35067749023438 217.76168823242188 143.4917755126953" stroke-width="3.0" fill="none" stroke="rgb(0, 0, 0)" stroke-opacity="1.0" stroke-linecap="round" stroke-linejoin="round"/>
    <path d="M 48.001129150390625 59.97322463989258 C 37.55255889892578 154.381591796875 73.80729675292969 85.12194061279297 32.605796813964844 157.9141082763672" stroke-width="3.0" fill="none" stroke="rgb(0, 0, 0)" stroke-opacity="1.0" stroke-linecap="round" stroke-linejoin="round"/>
    <path d="M 116.70819091796875 86.80171966552734 C 139.0865020751953 90.67859649658203 153.15194702148438 78.76902770996094 170.97108459472656 106.64258575439453" stroke-width="3.0" fill="none" stroke="rgb(0, 0, 0)" stroke-opacity="1.0" stroke-linecap="round" stroke-linejoin="round"/>
    <path d="M 139.84197998046875 120.6656265258789 C 126.15349578857422 130.09075927734375 123.85531616210938 136.1532745361328 138.42459106445312 122.391845703125" stroke-width="3.0" fill="none" stroke="rgb(0, 0, 0)" stroke-opacity="1.0" stroke-linecap="round" stroke-linejoin="round"/>
    <path d="M 81.4627456665039 122.56734466552734 C 92.02277374267578 107.80085754394531 68.07396697998047 127.9534912109375 85.31965637207031 121.17115020751953" stroke-width="3.0" fill="none" stroke="rgb(0, 0, 0)" stroke-opacity="1.0" stroke-linecap="round" stroke-linejoin="round"/>
    <path d="M 136.5313720703125 126.21076965332031 C 127.01206970214844 172.4384765625 143.77615356445312 158.02423095703125 97.83959197998047 183.58738708496094" stroke-width="3.0" fill="none" stroke="rgb(0, 0, 0)" stroke-opacity="1.0" stroke-linecap="round" stroke-linejoin="round"/>
    <path d="M 57.57939910888672 121.22063446044922 C -9.898219108581543 177.91078186035156 53.2125244140625 150.4990997314453 15.766923904418945 169.2604217529297" stroke-width="3.0" fill="none" stroke="rgb(0, 0, 0)" stroke-opacity="1.0" stroke-linecap="round" stroke-linejoin="round"/>
    <path d="M 42.72252655029297 39.13865280151367 C 122.4330825805664 85.5810317993164 51.16495132446289 74.66480255126953 121.64325714111328 87.83446502685547" stroke-width="3.0" fill="none" stroke="rgb(0, 0, 0)" stroke-opacity="1.0" stroke-linecap="round" stroke-linejoin="round"/>
    <path d="M 135.959716796875 159.96142578125 C 151.3157196044922 117.61911010742188 150.7594451904297 154.30287170410156 179.7964630126953 110.423095703125" stroke-width="3.0" fill="none" stroke="rgb(0, 0, 0)" stroke-opacity="1.0" stroke-linecap="round" stroke-linejoin="round"/>
    <path d="M 29.421672821044922 153.91555786132812 C 72.7247085571289 118.51502227783203 64.0644760131836 142.2874298095703 75.93812561035156 117.5715560913086" stroke-width="3.0" fill="none" stroke="rgb(0, 0, 0)" stroke-opacity="1.0" stroke-linecap="round" stroke-linejoin="round"/>
    <path d="M 158.58477783203125 119.73067474365234 C 138.40963745117188 124.49471282958984 136.07815551757812 118.40556335449219 134.28514099121094 131.98536682128906" stroke-width="3.0" fill="none" stroke="rgb(0, 0, 0)" stroke-opacity="1.0" stroke-linecap="round" stroke-linejoin="round"/>
    <path d="M 170.94114685058594 114.01190185546875 C 168.8236846923828 227.61761474609375 136.10873413085938 183.71383666992188 162.40525817871094 189.38706970214844" stroke-width="3.0" fill="none" stroke="rgb(0, 0, 0)" stroke-opacity="1.0" stroke-linecap="round" stroke-linejoin="round"/>
    <path d="M 13.553890228271484 72.92387390136719 C 77.14520263671875 20.1212158203125 -14.503450393676758 67.11115264892578 69.10273742675781 46.78040313720703" stroke-width="3.0" fill="none" stroke="rgb(0, 0, 0)" stroke-opacity="1.0" stroke-linecap="round" stroke-linejoin="round"/>
    <path d="M 91.63396453857422 69.18729400634766 C 49.29161071777344 29.9244327545166 -9.365363121032715 36.49386215209961 85.40729522705078 56.424537658691406" stroke-width="3.0" fill="none" stroke="rgb(0, 0, 0)" stroke-opacity="1.0" stroke-linecap="round" stroke-linejoin="round"/>
  </g>
</svg>
