<?xml version="1.0" ?>
<svg xmlns="http://www.w3.org/2000/svg" version="1.1" width="224" height="224">
  <defs/>
  <g>
    <path d="M 80.99919891357422 112.4248275756836 C 90.39259338378906 131.36553955078125 85.33794403076172 121.98665618896484 80.30054473876953 119.7530288696289" stroke-width="3.0" fill="none" stroke="rgb(0, 0, 0)" stroke-opacity="1.0" stroke-linecap="round" stroke-linejoin="round"/>
    <path d="M 79.54508209228516 122.92050170898438 C 120.57197570800781 134.97923278808594 111.46736907958984 126.69951629638672 142.19725036621094 123.20539093017578" stroke-width="3.0" fill="none" stroke="rgb(0, 0, 0)" stroke-opacity="1.0" stroke-linecap="round" stroke-linejoin="round"/>
    <path d="M 159.7634735107422 95.1093978881836 C 225.93846130371094 124.5875015258789 191.35792541503906 131.0191650390625 214.8384246826172 143.3197479248047" stroke-width="3.0" fill="none" stroke="rgb(0, 0, 0)" stroke-opacity="1.0" stroke-linecap="round" stroke-linejoin="round"/>
    <path d="M 59.955101013183594 61.231536865234375 C 43.34712219238281 158.68258666992188 76.21051788330078 79.04058074951172 35.19321060180664 157.17205810546875" stroke-width="3.0" fill="none" stroke="rgb(0, 0, 0)" stroke-opacity="1.0" stroke-linecap="round" stroke-linejoin="round"/>
    <path d="M 122.02275085449219 88.8006591796875 C 137.71939086914062 92.49390411376953 153.9701690673828 81.95894622802734 171.05426025390625 105.72978210449219" stroke-width="3.0" fill="none" stroke="rgb(0, 0, 0)" stroke-opacity="1.0" stroke-linecap="round" stroke-linejoin="round"/>
    <path d="M 147.87770080566406 132.98355102539062 C 133.25997924804688 130.47740173339844 128.67010498046875 130.8173828125 137.5964813232422 122.86442565917969" stroke-width="3.0" fill="none" stroke="rgb(0, 0, 0)" stroke-opacity="1.0" stroke-linecap="round" stroke-linejoin="round"/>
    <path d="M 80.92237091064453 121.86282348632812 C 95.90064239501953 111.55152130126953 66.42041015625 130.9687042236328 83.86502838134766 120.3314208984375" stroke-width="3.0" fill="none" stroke="rgb(0, 0, 0)" stroke-opacity="1.0" stroke-linecap="round" stroke-linejoin="round"/>
    <path d="M 135.04417419433594 131.9015655517578 C 122.0627212524414 175.66976928710938 143.50833129882812 158.4222869873047 98.08769226074219 183.78857421875" stroke-width="3.0" fill="none" stroke="rgb(0, 0, 0)" stroke-opacity="1.0" stroke-linecap="round" stroke-linejoin="round"/>
    <path d="M 55.28963088989258 126.6856918334961 C -4.757767677307129 170.92994689941406 56.62687683105469 154.095703125 17.60037612915039 169.81753540039062" stroke-width="3.0" fill="none" stroke="rgb(0, 0, 0)" stroke-opacity="1.0" stroke-linecap="round" stroke-linejoin="round"/>
    <path d="M 45.24519348144531 40.98100662231445 C 121.33226776123047 87.12471008300781 49.26824951171875 76.84416198730469 125.94293975830078 89.92713165283203" stroke-width="3.0" fill="none" stroke="rgb(0, 0, 0)" stroke-opacity="1.0" stroke-linecap="round" stroke-linejoin="round"/>
    <path d="M 134.03623962402344 162.84298706054688 C 156.32730102539062 118.17354583740234 150.2666473388672 152.2298126220703 181.345947265625 107.42469024658203" stroke-width="3.0" fill="none" stroke="rgb(0, 0, 0)" stroke-opacity="1.0" stroke-linecap="round" stroke-linejoin="round"/>
    <path d="M 31.005107879638672 152.75860595703125 C 76.74982452392578 115.56399536132812 61.99818420410156 143.80445861816406 71.88066101074219 114.85317993164062" stroke-width="3.0" fill="none" stroke="rgb(0, 0, 0)" stroke-opacity="1.0" stroke-linecap="round" stroke-linejoin="round"/>
    <path d="M 153.7147216796875 117.14715576171875 C 134.40298461914062 127.80118560791016 134.86306762695312 121.86708068847656 135.0442352294922 125.48967742919922" stroke-width="3.0" fill="none" stroke="rgb(0, 0, 0)" stroke-opacity="1.0" stroke-linecap="round" stroke-linejoin="round"/>
    <path d="M 175.5486602783203 110.11836242675781 C 168.980712890625 223.58905029296875 130.2706756591797 185.54364013671875 162.39096069335938 185.341796875" stroke-width="3.0" fill="none" stroke="rgb(0, 0, 0)" stroke-opacity="1.0" stroke-linecap="round" stroke-linejoin="round"/>
    <path d="M 15.028741836547852 75.13088989257812 C 78.03936004638672 15.234705924987793 -11.343330383300781 70.00306701660156 69.07111358642578 44.43158721923828" stroke-width="3.0" fill="none" stroke="rgb(0, 0, 0)" stroke-opacity="1.0" stroke-linecap="round" stroke-linejoin="round"/>
    <path d="M 90.36536407470703 67.88658142089844 C 47.207733154296875 34.01188659667969 -8.033589363098145 37.218379974365234 84.25369262695312 56.59929275512695" stroke-width="3.0" fill="none" stroke="rgb(0, 0, 0)" stroke-opacity="1.0" stroke-linecap="round" stroke-linejoin="round"/>
  </g>
</svg>
