<?xml version="1.0" ?>
<svg xmlns="http://www.w3.org/2000/svg" version="1.1" width="224" height="224">
  <defs/>
  <g>
    <path d="M 75.54283905029297 120.72481536865234 C 80.18916320800781 125.21058654785156 81.40386199951172 124.31792449951172 77.30268096923828 117.26319122314453" stroke-width="3.0" fill="none" stroke="rgb(0, 0, 0)" stroke-opacity="1.0" stroke-linecap="round" stroke-linejoin="round"/>
    <path d="M 73.69725799560547 127.26790618896484 C 107.10237884521484 135.9175567626953 118.04721069335938 125.4548568725586 132.16632080078125 125.86465454101562" stroke-width="3.0" fill="none" stroke="rgb(0, 0, 0)" stroke-opacity="1.0" stroke-linecap="round" stroke-linejoin="round"/>
    <path d="M 156.7880096435547 94.13670349121094 C 228.4143829345703 118.18476104736328 193.77662658691406 130.24771118164062 215.02383422851562 142.79466247558594" stroke-width="3.0" fill="none" stroke="rgb(0, 0, 0)" stroke-opacity="1.0" stroke-linecap="round" stroke-linejoin="round"/>
    <path d="M 55.702545166015625 69.13154602050781 C 32.09126663208008 145.1280517578125 77.9085693359375 90.39264678955078 33.07215881347656 158.02027893066406" stroke-width="3.0" fill="none" stroke="rgb(0, 0, 0)" stroke-opacity="1.0" stroke-linecap="round" stroke-linejoin="round"/>
    <path d="M 130.45802307128906 88.73055267333984 C 131.35289001464844 89.1597671508789 170.07089233398438 87.21930694580078 173.1883087158203 105.59931945800781" stroke-width="3.0" fill="none" stroke="rgb(0, 0, 0)" stroke-opacity="1.0" stroke-linecap="round" stroke-linejoin="round"/>
    <path d="M 133.18272399902344 121.11456298828125 C 134.61575317382812 125.01538848876953 117.48545837402344 129.1792449951172 127.04592895507812 125.00154113769531" stroke-width="3.0" fill="none" stroke="rgb(0, 0, 0)" stroke-opacity="1.0" stroke-linecap="round" stroke-linejoin="round"/>
    <path d="M 77.07144165039062 121.59813690185547 C 81.04833221435547 117.35478210449219 68.3224105834961 126.28797149658203 77.75909423828125 123.66829681396484" stroke-width="3.0" fill="none" stroke="rgb(0, 0, 0)" stroke-opacity="1.0" stroke-linecap="round" stroke-linejoin="round"/>
    <path d="M 139.1859130859375 126.171875 C 120.6602554321289 172.98849487304688 144.89340209960938 155.8502197265625 98.36466217041016 185.03041076660156" stroke-width="3.0" fill="none" stroke="rgb(0, 0, 0)" stroke-opacity="1.0" stroke-linecap="round" stroke-linejoin="round"/>
    <path d="M 57.97152328491211 121.16163635253906 C -2.659393072128296 176.21722412109375 51.710567474365234 157.069091796875 14.44728946685791 170.41015625" stroke-width="3.0" fill="none" stroke="rgb(0, 0, 0)" stroke-opacity="1.0" stroke-linecap="round" stroke-linejoin="round"/>
    <path d="M 53.21675109863281 39.12953186035156 C 107.50019836425781 100.36911010742188 95.04747009277344 79.30597686767578 135.09164428710938 90.96656036376953" stroke-width="3.0" fill="none" stroke="rgb(0, 0, 0)" stroke-opacity="1.0" stroke-linecap="round" stroke-linejoin="round"/>
    <path d="M 135.17611694335938 159.6894073486328 C 152.99752807617188 118.71088409423828 152.55056762695312 156.45211791992188 177.4100799560547 108.33177947998047" stroke-width="3.0" fill="none" stroke="rgb(0, 0, 0)" stroke-opacity="1.0" stroke-linecap="round" stroke-linejoin="round"/>
    <path d="M 29.91883659362793 153.85232543945312 C 71.7960433959961 118.42655944824219 59.188720703125 142.40240478515625 78.19525146484375 115.91709899902344" stroke-width="3.0" fill="none" stroke="rgb(0, 0, 0)" stroke-opacity="1.0" stroke-linecap="round" stroke-linejoin="round"/>
    <path d="M 148.8233642578125 118.81800842285156 C 130.44248962402344 125.75540161132812 141.3003387451172 115.23224639892578 139.13616943359375 124.373779296875" stroke-width="3.0" fill="none" stroke="rgb(0, 0, 0)" stroke-opacity="1.0" stroke-linecap="round" stroke-linejoin="round"/>
    <path d="M 168.03807067871094 121.11137390136719 C 179.15830993652344 150.29827880859375 143.28497314453125 199.83499145507812 162.90521240234375 191.6945037841797" stroke-width="3.0" fill="none" stroke="rgb(0, 0, 0)" stroke-opacity="1.0" stroke-linecap="round" stroke-linejoin="round"/>
    <path d="M 13.552653312683105 73.19358825683594 C 80.73269653320312 14.926189422607422 -17.497453689575195 61.54301071166992 70.950927734375 49.30770492553711" stroke-width="3.0" fill="none" stroke="rgb(0, 0, 0)" stroke-opacity="1.0" stroke-linecap="round" stroke-linejoin="round"/>
    <path d="M 85.21680450439453 64.51787567138672 C 40.884578704833984 41.2679557800293 11.556649208068848 26.058408737182617 78.45343017578125 58.05582046508789" stroke-width="3.0" fill="none" stroke="rgb(0, 0, 0)" stroke-opacity="1.0" stroke-linecap="round" stroke-linejoin="round"/>
  </g>
</svg>
