<?xml version="1.0" ?>
<svg xmlns="http://www.w3.org/2000/svg" version="1.1" width="224" height="224">
  <defs/>
  <g>
    <path d="M 78.48515319824219 114.37751007080078 C 90.71821594238281 131.9916534423828 83.22721862792969 121.4028549194336 77.1795425415039 125.79569244384766" stroke-width="3.0" fill="none" stroke="rgb(0, 0, 0)" stroke-opacity="1.0" stroke-linecap="round" stroke-linejoin="round"/>
    <path d="M 71.45897674560547 124.4002456665039 C 112.87187194824219 137.53964233398438 111.53555297851562 123.4865493774414 133.47865295410156 127.46956634521484" stroke-width="3.0" fill="none" stroke="rgb(0, 0, 0)" stroke-opacity="1.0" stroke-linecap="round" stroke-linejoin="round"/>
    <path d="M 164.4913330078125 97.81278991699219 C 221.49078369140625 119.8875961303711 194.56907653808594 132.5627899169922 215.7390899658203 143.1600799560547" stroke-width="3.0" fill="none" stroke="rgb(0, 0, 0)" stroke-opacity="1.0" stroke-linecap="round" stroke-linejoin="round"/>
    <path d="M 49.91597366333008 66.40513610839844 C 57.24692153930664 156.8694610595703 70.61292266845703 78.402587890625 37.485103607177734 155.7096405029297" stroke-width="3.0" fill="none" stroke="rgb(0, 0, 0)" stroke-opacity="1.0" stroke-linecap="round" stroke-linejoin="round"/>
    <path d="M 105.86773681640625 84.89635467529297 C 133.1012420654297 91.2754898071289 149.5988311767578 77.93795776367188 172.4617462158203 106.10897064208984" stroke-width="3.0" fill="none" stroke="rgb(0, 0, 0)" stroke-opacity="1.0" stroke-linecap="round" stroke-linejoin="round"/>
    <path d="M 134.1516571044922 124.98180389404297 C 136.76795959472656 125.25192260742188 138.84194946289062 126.81103515625 130.64773559570312 126.16049194335938" stroke-width="3.0" fill="none" stroke="rgb(0, 0, 0)" stroke-opacity="1.0" stroke-linecap="round" stroke-linejoin="round"/>
    <path d="M 78.71305847167969 122.00996398925781 C 88.59620666503906 109.22747802734375 62.211875915527344 136.47694396972656 82.66864013671875 120.12532043457031" stroke-width="3.0" fill="none" stroke="rgb(0, 0, 0)" stroke-opacity="1.0" stroke-linecap="round" stroke-linejoin="round"/>
    <path d="M 140.62120056152344 125.15738677978516 C 119.95136260986328 180.37789916992188 139.09994506835938 155.1553497314453 101.30182647705078 184.21568298339844" stroke-width="3.0" fill="none" stroke="rgb(0, 0, 0)" stroke-opacity="1.0" stroke-linecap="round" stroke-linejoin="round"/>
    <path d="M 54.816436767578125 124.49734497070312 C -11.7200345993042 181.6907958984375 61.898582458496094 144.13870239257812 19.472593307495117 169.2896270751953" stroke-width="3.0" fill="none" stroke="rgb(0, 0, 0)" stroke-opacity="1.0" stroke-linecap="round" stroke-linejoin="round"/>
    <path d="M 38.573394775390625 35.8057861328125 C 109.8203353881836 86.30477142333984 42.47552490234375 67.62675476074219 118.7825927734375 87.28336334228516" stroke-width="3.0" fill="none" stroke="rgb(0, 0, 0)" stroke-opacity="1.0" stroke-linecap="round" stroke-linejoin="round"/>
    <path d="M 133.0885009765625 160.0695037841797 C 154.2279510498047 118.88258361816406 150.84849548339844 157.2974853515625 181.74505615234375 109.0760726928711" stroke-width="3.0" fill="none" stroke="rgb(0, 0, 0)" stroke-opacity="1.0" stroke-linecap="round" stroke-linejoin="round"/>
    <path d="M 32.47551727294922 155.5147247314453 C 70.0545883178711 115.51468658447266 59.18870162963867 140.3594970703125 69.87166595458984 115.04896545410156" stroke-width="3.0" fill="none" stroke="rgb(0, 0, 0)" stroke-opacity="1.0" stroke-linecap="round" stroke-linejoin="round"/>
    <path d="M 159.99607849121094 118.65217590332031 C 136.91734313964844 128.88633728027344 150.02272033691406 116.82964324951172 123.8243179321289 126.86394500732422" stroke-width="3.0" fill="none" stroke="rgb(0, 0, 0)" stroke-opacity="1.0" stroke-linecap="round" stroke-linejoin="round"/>
    <path d="M 170.79620361328125 111.94522857666016 C 167.4601287841797 228.75979614257812 135.76075744628906 184.4436492919922 160.858642578125 189.44688415527344" stroke-width="3.0" fill="none" stroke="rgb(0, 0, 0)" stroke-opacity="1.0" stroke-linecap="round" stroke-linejoin="round"/>
    <path d="M 15.713578224182129 76.7092056274414 C 62.10539627075195 15.29086685180664 -11.686477661132812 77.69806671142578 56.31376266479492 36.217166900634766" stroke-width="3.0" fill="none" stroke="rgb(0, 0, 0)" stroke-opacity="1.0" stroke-linecap="round" stroke-linejoin="round"/>
    <path d="M 88.3357162475586 76.15479278564453 C 66.60526275634766 21.019641876220703 -7.928581714630127 36.940093994140625 83.877197265625 57.004127502441406" stroke-width="3.0" fill="none" stroke="rgb(0, 0, 0)" stroke-opacity="1.0" stroke-linecap="round" stroke-linejoin="round"/>
  </g>
</svg>
