<?xml version="1.0" ?>
<svg xmlns="http://www.w3.org/2000/svg" version="1.1" width="224" height="224">
  <defs/>
  <g>
    <path d="M 78.13041687011719 107.3862533569336 C 88.15383911132812 132.4652557373047 79.3538589477539 117.75190734863281 78.22608184814453 122.94499969482422" stroke-width="3.0" fill="none" stroke="rgb(0, 0, 0)" stroke-opacity="1.0" stroke-linecap="round" stroke-linejoin="round"/>
    <path d="M 72.48456573486328 123.88809204101562 C 111.74319458007812 136.47747802734375 114.38816833496094 129.60601806640625 134.84425354003906 129.58035278320312" stroke-width="3.0" fill="none" stroke="rgb(0, 0, 0)" stroke-opacity="1.0" stroke-linecap="round" stroke-linejoin="round"/>
    <path d="M 170.8727569580078 100.21626281738281 C 221.79855346679688 114.84351348876953 195.35525512695312 136.54481506347656 217.36978149414062 145.1862335205078" stroke-width="3.0" fill="none" stroke="rgb(0, 0, 0)" stroke-opacity="1.0" stroke-linecap="round" stroke-linejoin="round"/>
    <path d="M 45.769718170166016 56.25196075439453 C 59.166683197021484 158.57969665527344 53.15986251831055 90.9862289428711 34.76419448852539 151.28079223632812" stroke-width="3.0" fill="none" stroke="rgb(0, 0, 0)" stroke-opacity="1.0" stroke-linecap="round" stroke-linejoin="round"/>
    <path d="M 104.21736145019531 87.0854721069336 C 139.3672637939453 93.85234069824219 144.16812133789062 76.07416534423828 175.1384735107422 103.85614013671875" stroke-width="3.0" fill="none" stroke="rgb(0, 0, 0)" stroke-opacity="1.0" stroke-linecap="round" stroke-linejoin="round"/>
    <path d="M 133.50611877441406 126.57731628417969 C 136.6202392578125 137.26406860351562 138.188720703125 125.18948364257812 124.93220520019531 130.07781982421875" stroke-width="3.0" fill="none" stroke="rgb(0, 0, 0)" stroke-opacity="1.0" stroke-linecap="round" stroke-linejoin="round"/>
    <path d="M 74.41755676269531 124.62792205810547 C 91.56082916259766 105.09766387939453 68.1159439086914 135.2066192626953 82.4806900024414 121.05268096923828" stroke-width="3.0" fill="none" stroke="rgb(0, 0, 0)" stroke-opacity="1.0" stroke-linecap="round" stroke-linejoin="round"/>
    <path d="M 142.87088012695312 128.55972290039062 C 117.7911605834961 175.72901916503906 142.35333251953125 155.59393310546875 99.7881851196289 182.84524536132812" stroke-width="3.0" fill="none" stroke="rgb(0, 0, 0)" stroke-opacity="1.0" stroke-linecap="round" stroke-linejoin="round"/>
    <path d="M 50.35833740234375 126.76718139648438 C -13.674070358276367 209.20098876953125 67.73410034179688 130.9723663330078 16.493154525756836 166.50930786132812" stroke-width="3.0" fill="none" stroke="rgb(0, 0, 0)" stroke-opacity="1.0" stroke-linecap="round" stroke-linejoin="round"/>
    <path d="M 34.236690521240234 37.119049072265625 C 104.57611083984375 73.07597351074219 55.20549392700195 70.40021514892578 107.90644073486328 88.703857421875" stroke-width="3.0" fill="none" stroke="rgb(0, 0, 0)" stroke-opacity="1.0" stroke-linecap="round" stroke-linejoin="round"/>
    <path d="M 130.3152313232422 162.8481903076172 C 152.87110900878906 114.56771087646484 147.43931579589844 159.25393676757812 179.8649444580078 107.23239135742188" stroke-width="3.0" fill="none" stroke="rgb(0, 0, 0)" stroke-opacity="1.0" stroke-linecap="round" stroke-linejoin="round"/>
    <path d="M 38.548892974853516 159.5225830078125 C 58.65032958984375 115.82121276855469 47.582275390625 148.47080993652344 80.50361633300781 115.71407318115234" stroke-width="3.0" fill="none" stroke="rgb(0, 0, 0)" stroke-opacity="1.0" stroke-linecap="round" stroke-linejoin="round"/>
    <path d="M 156.22720336914062 117.80547332763672 C 138.82711791992188 131.34124755859375 161.37496948242188 113.83480072021484 106.3169174194336 129.2867431640625" stroke-width="3.0" fill="none" stroke="rgb(0, 0, 0)" stroke-opacity="1.0" stroke-linecap="round" stroke-linejoin="round"/>
    <path d="M 174.1394805908203 109.19452667236328 C 166.75921630859375 226.0507354736328 139.625244140625 176.043701171875 162.0326385498047 189.02294921875" stroke-width="3.0" fill="none" stroke="rgb(0, 0, 0)" stroke-opacity="1.0" stroke-linecap="round" stroke-linejoin="round"/>
    <path d="M 16.26630210876465 76.3432846069336 C 61.85303497314453 9.484551429748535 -10.214329719543457 89.16194152832031 56.1585807800293 37.46150207519531" stroke-width="3.0" fill="none" stroke="rgb(0, 0, 0)" stroke-opacity="1.0" stroke-linecap="round" stroke-linejoin="round"/>
    <path d="M 90.56402587890625 79.66275787353516 C 81.9464340209961 17.2104434967041 -25.812618255615234 44.96674346923828 82.01072692871094 51.595027923583984" stroke-width="3.0" fill="none" stroke="rgb(0, 0, 0)" stroke-opacity="1.0" stroke-linecap="round" stroke-linejoin="round"/>
  </g>
</svg>
