<?xml version="1.0" ?>
<svg xmlns="http://www.w3.org/2000/svg" version="1.1" width="224" height="224">
  <defs/>
  <g>
    <path d="M 79.4373779296875 111.95972442626953 C 88.27006530761719 132.60568237304688 81.66520690917969 118.53449249267578 78.09264373779297 122.06932830810547" stroke-width="3.0" fill="none" stroke="rgb(0, 0, 0)" stroke-opacity="1.0" stroke-linecap="round" stroke-linejoin="round"/>
    <path d="M 70.58548736572266 124.28691101074219 C 106.9532699584961 137.3189239501953 113.31731414794922 128.53004455566406 136.14976501464844 129.82864379882812" stroke-width="3.0" fill="none" stroke="rgb(0, 0, 0)" stroke-opacity="1.0" stroke-linecap="round" stroke-linejoin="round"/>
    <path d="M 170.5082244873047 99.8237533569336 C 219.5744171142578 117.99693298339844 195.126953125 133.99533081054688 217.5255126953125 143.52992248535156" stroke-width="3.0" fill="none" stroke="rgb(0, 0, 0)" stroke-opacity="1.0" stroke-linecap="round" stroke-linejoin="round"/>
    <path d="M 48.92856979370117 66.10470581054688 C 67.00115966796875 160.24057006835938 61.37311935424805 74.29403686523438 37.20206832885742 149.0976104736328" stroke-width="3.0" fill="none" stroke="rgb(0, 0, 0)" stroke-opacity="1.0" stroke-linecap="round" stroke-linejoin="round"/>
    <path d="M 101.78736877441406 83.8472900390625 C 139.0458984375 91.16846466064453 145.5148468017578 74.53180694580078 174.825927734375 106.1348648071289" stroke-width="3.0" fill="none" stroke="rgb(0, 0, 0)" stroke-opacity="1.0" stroke-linecap="round" stroke-linejoin="round"/>
    <path d="M 129.2869110107422 127.35847473144531 C 142.50965881347656 130.62155151367188 146.07907104492188 124.32502746582031 126.8399887084961 128.18606567382812" stroke-width="3.0" fill="none" stroke="rgb(0, 0, 0)" stroke-opacity="1.0" stroke-linecap="round" stroke-linejoin="round"/>
    <path d="M 75.49929809570312 125.01742553710938 C 94.81292724609375 103.96521759033203 69.33204650878906 135.24819946289062 82.0538558959961 120.2388687133789" stroke-width="3.0" fill="none" stroke="rgb(0, 0, 0)" stroke-opacity="1.0" stroke-linecap="round" stroke-linejoin="round"/>
    <path d="M 138.55091857910156 129.55862426757812 C 115.99398040771484 177.21652221679688 139.65489196777344 158.86465454101562 99.5624008178711 185.66653442382812" stroke-width="3.0" fill="none" stroke="rgb(0, 0, 0)" stroke-opacity="1.0" stroke-linecap="round" stroke-linejoin="round"/>
    <path d="M 52.06608963012695 121.75211334228516 C -11.764480590820312 195.78785705566406 72.12027740478516 139.11387634277344 15.522807121276855 167.0933074951172" stroke-width="3.0" fill="none" stroke="rgb(0, 0, 0)" stroke-opacity="1.0" stroke-linecap="round" stroke-linejoin="round"/>
    <path d="M 34.2335090637207 35.9788818359375 C 106.38994598388672 76.178466796875 49.40680694580078 69.28277587890625 112.18647003173828 87.71306610107422" stroke-width="3.0" fill="none" stroke="rgb(0, 0, 0)" stroke-opacity="1.0" stroke-linecap="round" stroke-linejoin="round"/>
    <path d="M 131.4698944091797 160.99864196777344 C 153.34542846679688 113.4013900756836 149.56680297851562 158.30264282226562 182.2792510986328 107.14299774169922" stroke-width="3.0" fill="none" stroke="rgb(0, 0, 0)" stroke-opacity="1.0" stroke-linecap="round" stroke-linejoin="round"/>
    <path d="M 38.092079162597656 154.01861572265625 C 66.85238647460938 111.83357238769531 48.40458679199219 145.62489318847656 80.92156219482422 116.41094207763672" stroke-width="3.0" fill="none" stroke="rgb(0, 0, 0)" stroke-opacity="1.0" stroke-linecap="round" stroke-linejoin="round"/>
    <path d="M 157.949462890625 116.71421813964844 C 135.31446838378906 132.68699645996094 160.9538116455078 116.01829528808594 107.31692504882812 131.261474609375" stroke-width="3.0" fill="none" stroke="rgb(0, 0, 0)" stroke-opacity="1.0" stroke-linecap="round" stroke-linejoin="round"/>
    <path d="M 172.8047332763672 112.14693450927734 C 166.2034912109375 228.43392944335938 135.8031005859375 177.20101928710938 162.36521911621094 187.61546325683594" stroke-width="3.0" fill="none" stroke="rgb(0, 0, 0)" stroke-opacity="1.0" stroke-linecap="round" stroke-linejoin="round"/>
    <path d="M 10.711477279663086 73.68660736083984 C 59.58873748779297 13.840929985046387 -12.64089298248291 87.53410339355469 51.986488342285156 35.10911560058594" stroke-width="3.0" fill="none" stroke="rgb(0, 0, 0)" stroke-opacity="1.0" stroke-linecap="round" stroke-linejoin="round"/>
    <path d="M 95.11854553222656 78.84135437011719 C 80.7579116821289 18.068225860595703 -25.80988121032715 40.27244567871094 83.41614532470703 50.76369094848633" stroke-width="3.0" fill="none" stroke="rgb(0, 0, 0)" stroke-opacity="1.0" stroke-linecap="round" stroke-linejoin="round"/>
  </g>
</svg>
