<?xml version="1.0" ?>
<svg xmlns="http://www.w3.org/2000/svg" version="1.1" width="224" height="224">
  <defs/>
  <g>
    <path d="M 78.73345947265625 110.2530288696289 C 89.18070220947266 131.9666290283203 81.70858764648438 121.43795776367188 77.50942993164062 125.39950561523438" stroke-width="3.0" fill="none" stroke="rgb(0, 0, 0)" stroke-opacity="1.0" stroke-linecap="round" stroke-linejoin="round"/>
    <path d="M 71.22296142578125 124.3248062133789 C 114.04605865478516 136.5792999267578 111.45647430419922 125.08738708496094 134.04080200195312 127.60105895996094" stroke-width="3.0" fill="none" stroke="rgb(0, 0, 0)" stroke-opacity="1.0" stroke-linecap="round" stroke-linejoin="round"/>
    <path d="M 164.17054748535156 98.17898559570312 C 220.806884765625 122.9444580078125 194.07568359375 134.93228149414062 216.0437469482422 141.38046264648438" stroke-width="3.0" fill="none" stroke="rgb(0, 0, 0)" stroke-opacity="1.0" stroke-linecap="round" stroke-linejoin="round"/>
    <path d="M 46.376705169677734 69.98123168945312 C 57.61943435668945 157.1886444091797 68.89273071289062 78.05525207519531 34.70344161987305 156.05101013183594" stroke-width="3.0" fill="none" stroke="rgb(0, 0, 0)" stroke-opacity="1.0" stroke-linecap="round" stroke-linejoin="round"/>
    <path d="M 105.07559967041016 86.50502014160156 C 134.27635192871094 90.03841400146484 148.12730407714844 77.75079345703125 171.84420776367188 107.91561126708984" stroke-width="3.0" fill="none" stroke="rgb(0, 0, 0)" stroke-opacity="1.0" stroke-linecap="round" stroke-linejoin="round"/>
    <path d="M 134.26004028320312 125.10576629638672 C 135.59629821777344 125.59700012207031 137.64646911621094 127.54698181152344 130.978515625 126.77682495117188" stroke-width="3.0" fill="none" stroke="rgb(0, 0, 0)" stroke-opacity="1.0" stroke-linecap="round" stroke-linejoin="round"/>
    <path d="M 80.42460632324219 121.52909088134766 C 87.8044662475586 108.84398651123047 62.40915298461914 136.06008911132812 84.16505432128906 120.94004821777344" stroke-width="3.0" fill="none" stroke="rgb(0, 0, 0)" stroke-opacity="1.0" stroke-linecap="round" stroke-linejoin="round"/>
    <path d="M 141.4349822998047 125.24500274658203 C 119.32991790771484 179.63169860839844 139.6182403564453 155.5294952392578 101.1475830078125 184.88014221191406" stroke-width="3.0" fill="none" stroke="rgb(0, 0, 0)" stroke-opacity="1.0" stroke-linecap="round" stroke-linejoin="round"/>
    <path d="M 55.373619079589844 123.64627838134766 C -11.203081130981445 181.82852172851562 61.69269943237305 146.12525939941406 16.919889450073242 166.63543701171875" stroke-width="3.0" fill="none" stroke="rgb(0, 0, 0)" stroke-opacity="1.0" stroke-linecap="round" stroke-linejoin="round"/>
    <path d="M 36.051944732666016 35.550315856933594 C 110.16141510009766 87.90338134765625 40.28412628173828 69.60372924804688 117.28333282470703 88.283447265625" stroke-width="3.0" fill="none" stroke="rgb(0, 0, 0)" stroke-opacity="1.0" stroke-linecap="round" stroke-linejoin="round"/>
    <path d="M 131.61001586914062 159.31602478027344 C 150.52365112304688 116.07682800292969 147.1400604248047 155.05551147460938 180.7310028076172 105.90901947021484" stroke-width="3.0" fill="none" stroke="rgb(0, 0, 0)" stroke-opacity="1.0" stroke-linecap="round" stroke-linejoin="round"/>
    <path d="M 31.662456512451172 154.24542236328125 C 66.97682189941406 113.16038513183594 59.10464096069336 140.02760314941406 71.18372344970703 115.46397399902344" stroke-width="3.0" fill="none" stroke="rgb(0, 0, 0)" stroke-opacity="1.0" stroke-linecap="round" stroke-linejoin="round"/>
    <path d="M 159.36904907226562 117.9489517211914 C 138.55770874023438 130.19444274902344 151.44935607910156 120.20091247558594 124.01185607910156 126.61190032958984" stroke-width="3.0" fill="none" stroke="rgb(0, 0, 0)" stroke-opacity="1.0" stroke-linecap="round" stroke-linejoin="round"/>
    <path d="M 171.94808959960938 112.13877868652344 C 165.9040985107422 229.41026306152344 136.1223907470703 188.25770568847656 160.5736083984375 190.49005126953125" stroke-width="3.0" fill="none" stroke="rgb(0, 0, 0)" stroke-opacity="1.0" stroke-linecap="round" stroke-linejoin="round"/>
    <path d="M 15.300145149230957 76.74829864501953 C 64.13583374023438 15.878263473510742 -11.346125602722168 76.220947265625 55.524017333984375 36.376129150390625" stroke-width="3.0" fill="none" stroke="rgb(0, 0, 0)" stroke-opacity="1.0" stroke-linecap="round" stroke-linejoin="round"/>
    <path d="M 87.15704345703125 77.40782165527344 C 64.83576965332031 21.187427520751953 -6.151841163635254 37.39147186279297 82.5611572265625 58.578121185302734" stroke-width="3.0" fill="none" stroke="rgb(0, 0, 0)" stroke-opacity="1.0" stroke-linecap="round" stroke-linejoin="round"/>
  </g>
</svg>
