<?xml version="1.0" ?>
<svg xmlns="http://www.w3.org/2000/svg" version="1.1" width="224" height="224">
  <defs/>
  <g>
    <path d="M 80.80562591552734 104.91463470458984 C 85.18665313720703 130.69078063964844 78.67255401611328 114.80645751953125 75.82845306396484 121.53404235839844" stroke-width="3.0" fill="none" stroke="rgb(0, 0, 0)" stroke-opacity="1.0" stroke-linecap="round" stroke-linejoin="round"/>
    <path d="M 74.20823669433594 122.35064697265625 C 109.14571380615234 137.1011505126953 114.57489776611328 127.16509246826172 135.7882537841797 127.56538391113281" stroke-width="3.0" fill="none" stroke="rgb(0, 0, 0)" stroke-opacity="1.0" stroke-linecap="round" stroke-linejoin="round"/>
    <path d="M 169.21847534179688 100.03718566894531 C 218.80401611328125 118.52442932128906 196.291748046875 133.30088806152344 214.98313903808594 142.89515686035156" stroke-width="3.0" fill="none" stroke="rgb(0, 0, 0)" stroke-opacity="1.0" stroke-linecap="round" stroke-linejoin="round"/>
    <path d="M 49.001346588134766 59.95316696166992 C 68.98857116699219 155.07675170898438 49.22336196899414 91.34297180175781 35.2049560546875 149.28895568847656" stroke-width="3.0" fill="none" stroke="rgb(0, 0, 0)" stroke-opacity="1.0" stroke-linecap="round" stroke-linejoin="round"/>
    <path d="M 101.56515502929688 85.32442474365234 C 139.5286865234375 92.16935729980469 141.88580322265625 77.28657531738281 177.86671447753906 108.54257202148438" stroke-width="3.0" fill="none" stroke="rgb(0, 0, 0)" stroke-opacity="1.0" stroke-linecap="round" stroke-linejoin="round"/>
    <path d="M 137.25221252441406 124.97001647949219 C 135.87294006347656 135.4495086669922 141.16673278808594 122.17056274414062 124.86924743652344 126.56806945800781" stroke-width="3.0" fill="none" stroke="rgb(0, 0, 0)" stroke-opacity="1.0" stroke-linecap="round" stroke-linejoin="round"/>
    <path d="M 71.9210205078125 128.05763244628906 C 91.33685302734375 105.19390869140625 61.05718231201172 130.4945831298828 81.38140106201172 118.90837097167969" stroke-width="3.0" fill="none" stroke="rgb(0, 0, 0)" stroke-opacity="1.0" stroke-linecap="round" stroke-linejoin="round"/>
    <path d="M 141.15621948242188 128.3140411376953 C 117.42024230957031 175.70193481445312 142.41294860839844 157.4939422607422 99.07329559326172 184.98216247558594" stroke-width="3.0" fill="none" stroke="rgb(0, 0, 0)" stroke-opacity="1.0" stroke-linecap="round" stroke-linejoin="round"/>
    <path d="M 48.00135040283203 131.42372131347656 C -13.436450004577637 211.7815704345703 67.76830291748047 130.70108032226562 14.554485321044922 168.43849182128906" stroke-width="3.0" fill="none" stroke="rgb(0, 0, 0)" stroke-opacity="1.0" stroke-linecap="round" stroke-linejoin="round"/>
    <path d="M 33.2566032409668 38.69158172607422 C 104.8604736328125 72.9155502319336 57.35820007324219 68.1364517211914 110.30387878417969 85.13108825683594" stroke-width="3.0" fill="none" stroke="rgb(0, 0, 0)" stroke-opacity="1.0" stroke-linecap="round" stroke-linejoin="round"/>
    <path d="M 131.11062622070312 162.8933563232422 C 152.53651428222656 114.04205322265625 148.2533721923828 158.6500244140625 181.88047790527344 106.70872497558594" stroke-width="3.0" fill="none" stroke="rgb(0, 0, 0)" stroke-opacity="1.0" stroke-linecap="round" stroke-linejoin="round"/>
    <path d="M 38.51449203491211 159.79737854003906 C 61.35072326660156 114.13700103759766 50.334083557128906 145.48196411132812 80.6631851196289 115.36543273925781" stroke-width="3.0" fill="none" stroke="rgb(0, 0, 0)" stroke-opacity="1.0" stroke-linecap="round" stroke-linejoin="round"/>
    <path d="M 158.98069763183594 118.49880981445312 C 133.64041137695312 131.5703125 158.95864868164062 116.01821899414062 104.01655578613281 129.73777770996094" stroke-width="3.0" fill="none" stroke="rgb(0, 0, 0)" stroke-opacity="1.0" stroke-linecap="round" stroke-linejoin="round"/>
    <path d="M 172.96835327148438 106.25245666503906 C 163.87501525878906 228.1650848388672 137.0465087890625 180.6063995361328 161.97840881347656 185.950439453125" stroke-width="3.0" fill="none" stroke="rgb(0, 0, 0)" stroke-opacity="1.0" stroke-linecap="round" stroke-linejoin="round"/>
    <path d="M 14.798230171203613 75.23312377929688 C 70.29989624023438 9.799254417419434 -13.48296070098877 84.78590393066406 60.40156173706055 36.7438850402832" stroke-width="3.0" fill="none" stroke="rgb(0, 0, 0)" stroke-opacity="1.0" stroke-linecap="round" stroke-linejoin="round"/>
    <path d="M 101.00332641601562 76.8641357421875 C 84.9066390991211 20.911272048950195 -28.27195167541504 46.621307373046875 81.44388580322266 51.57725524902344" stroke-width="3.0" fill="none" stroke="rgb(0, 0, 0)" stroke-opacity="1.0" stroke-linecap="round" stroke-linejoin="round"/>
  </g>
</svg>
