<?xml version="1.0" ?>
<svg xmlns="http://www.w3.org/2000/svg" version="1.1" width="224" height="224">
  <defs/>
  <g>
    <path d="M 88.9475326538086 126.1876449584961 C 82.7441177368164 121.89144134521484 80.47405242919922 122.73356628417969 76.68579864501953 117.21444702148438" stroke-width="3.0" fill="none" stroke="rgb(0, 0, 0)" stroke-opacity="1.0" stroke-linecap="round" stroke-linejoin="round"/>
    <path d="M 75.8836898803711 119.58894348144531 C 103.98436737060547 136.67848205566406 111.3253402709961 126.45806121826172 133.4207763671875 122.43318176269531" stroke-width="3.0" fill="none" stroke="rgb(0, 0, 0)" stroke-opacity="1.0" stroke-linecap="round" stroke-linejoin="round"/>
    <path d="M 154.74884033203125 90.39317321777344 C 229.80426025390625 120.2374267578125 190.150146484375 132.41192626953125 215.58319091796875 143.94918823242188" stroke-width="3.0" fill="none" stroke="rgb(0, 0, 0)" stroke-opacity="1.0" stroke-linecap="round" stroke-linejoin="round"/>
    <path d="M 55.61618423461914 62.81340408325195 C 40.718605041503906 148.04933166503906 83.36946868896484 107.43152618408203 38.63007354736328 152.4923553466797" stroke-width="3.0" fill="none" stroke="rgb(0, 0, 0)" stroke-opacity="1.0" stroke-linecap="round" stroke-linejoin="round"/>
    <path d="M 134.85601806640625 90.04542541503906 C 146.61712646484375 88.21834564208984 160.9297332763672 85.69529724121094 171.28082275390625 104.1510238647461" stroke-width="3.0" fill="none" stroke="rgb(0, 0, 0)" stroke-opacity="1.0" stroke-linecap="round" stroke-linejoin="round"/>
    <path d="M 134.71046447753906 121.87215423583984 C 131.27468872070312 121.40707397460938 118.80912017822266 126.09097290039062 124.76748657226562 124.8978500366211" stroke-width="3.0" fill="none" stroke="rgb(0, 0, 0)" stroke-opacity="1.0" stroke-linecap="round" stroke-linejoin="round"/>
    <path d="M 76.2138671875 120.29175567626953 C 79.3309097290039 120.22105407714844 66.57392120361328 120.22368621826172 88.00523376464844 126.3853759765625" stroke-width="3.0" fill="none" stroke="rgb(0, 0, 0)" stroke-opacity="1.0" stroke-linecap="round" stroke-linejoin="round"/>
    <path d="M 140.01104736328125 136.4304656982422 C 124.68891906738281 168.87135314941406 146.22830200195312 152.18983459472656 98.19046783447266 183.6078338623047" stroke-width="3.0" fill="none" stroke="rgb(0, 0, 0)" stroke-opacity="1.0" stroke-linecap="round" stroke-linejoin="round"/>
    <path d="M 57.135765075683594 115.2814712524414 C 2.355595588684082 183.6710968017578 54.66423416137695 152.66722106933594 21.728679656982422 171.98963928222656" stroke-width="3.0" fill="none" stroke="rgb(0, 0, 0)" stroke-opacity="1.0" stroke-linecap="round" stroke-linejoin="round"/>
    <path d="M 70.65926361083984 50.69972229003906 C 92.97209167480469 96.24009704589844 106.49857330322266 84.53040313720703 144.51817321777344 90.43775177001953" stroke-width="3.0" fill="none" stroke="rgb(0, 0, 0)" stroke-opacity="1.0" stroke-linecap="round" stroke-linejoin="round"/>
    <path d="M 138.99826049804688 134.5050811767578 C 139.2772216796875 136.5068359375 135.64524841308594 138.82046508789062 171.6707763671875 115.58085632324219" stroke-width="3.0" fill="none" stroke="rgb(0, 0, 0)" stroke-opacity="1.0" stroke-linecap="round" stroke-linejoin="round"/>
    <path d="M 59.94449996948242 136.98318481445312 C 77.85604095458984 126.07264709472656 68.68270111083984 136.45138549804688 73.53414154052734 111.20560455322266" stroke-width="3.0" fill="none" stroke="rgb(0, 0, 0)" stroke-opacity="1.0" stroke-linecap="round" stroke-linejoin="round"/>
    <path d="M 137.115478515625 118.06354522705078 C 130.8271026611328 124.3758316040039 134.2313690185547 125.71378326416016 134.822265625 121.8478775024414" stroke-width="3.0" fill="none" stroke="rgb(0, 0, 0)" stroke-opacity="1.0" stroke-linecap="round" stroke-linejoin="round"/>
    <path d="M 157.87594604492188 130.30612182617188 C 184.74473571777344 169.02822875976562 139.4544219970703 201.61341857910156 159.88101196289062 191.787109375" stroke-width="3.0" fill="none" stroke="rgb(0, 0, 0)" stroke-opacity="1.0" stroke-linecap="round" stroke-linejoin="round"/>
    <path d="M 17.147138595581055 76.9915542602539 C 61.41459655761719 -9.20235538482666 20.431474685668945 63.68230056762695 72.84153747558594 40.949134826660156" stroke-width="3.0" fill="none" stroke="rgb(0, 0, 0)" stroke-opacity="1.0" stroke-linecap="round" stroke-linejoin="round"/>
    <path d="M 84.18927001953125 67.8663558959961 C 50.93282699584961 43.3545036315918 33.66852951049805 34.20867919921875 75.7368392944336 50.92808532714844" stroke-width="3.0" fill="none" stroke="rgb(0, 0, 0)" stroke-opacity="1.0" stroke-linecap="round" stroke-linejoin="round"/>
  </g>
</svg>
