<?xml version="1.0" ?>
<svg xmlns="http://www.w3.org/2000/svg" version="1.1" width="224" height="224">
  <defs/>
  <g>
    <path d="M 82.04334259033203 108.90794372558594 C 82.62090301513672 130.27659606933594 77.92476654052734 114.88690948486328 75.4891357421875 121.90553283691406" stroke-width="3.0" fill="none" stroke="rgb(0, 0, 0)" stroke-opacity="1.0" stroke-linecap="round" stroke-linejoin="round"/>
    <path d="M 74.05091094970703 121.89152526855469 C 103.22106170654297 136.58653259277344 121.45304107666016 127.89886474609375 135.662109375 127.35399627685547" stroke-width="3.0" fill="none" stroke="rgb(0, 0, 0)" stroke-opacity="1.0" stroke-linecap="round" stroke-linejoin="round"/>
    <path d="M 172.96078491210938 102.95439910888672 C 219.17861938476562 113.41810607910156 193.37184143066406 134.25296020507812 217.69793701171875 144.4226531982422" stroke-width="3.0" fill="none" stroke="rgb(0, 0, 0)" stroke-opacity="1.0" stroke-linecap="round" stroke-linejoin="round"/>
    <path d="M 46.39872360229492 58.396392822265625 C 71.7926254272461 155.7997283935547 44.47252655029297 94.43905639648438 35.07521438598633 148.50088500976562" stroke-width="3.0" fill="none" stroke="rgb(0, 0, 0)" stroke-opacity="1.0" stroke-linecap="round" stroke-linejoin="round"/>
    <path d="M 107.50289916992188 85.76458740234375 C 143.33456420898438 90.18915557861328 144.78927612304688 77.20198822021484 182.0767364501953 107.20764923095703" stroke-width="3.0" fill="none" stroke="rgb(0, 0, 0)" stroke-opacity="1.0" stroke-linecap="round" stroke-linejoin="round"/>
    <path d="M 136.6517791748047 122.30353546142578 C 140.96078491210938 133.55149841308594 147.96958923339844 128.67013549804688 124.21112060546875 128.0333709716797" stroke-width="3.0" fill="none" stroke="rgb(0, 0, 0)" stroke-opacity="1.0" stroke-linecap="round" stroke-linejoin="round"/>
    <path d="M 69.62979125976562 128.01171875 C 92.9560317993164 106.74729919433594 61.68467330932617 131.76220703125 79.60371398925781 117.64936065673828" stroke-width="3.0" fill="none" stroke="rgb(0, 0, 0)" stroke-opacity="1.0" stroke-linecap="round" stroke-linejoin="round"/>
    <path d="M 144.4658203125 133.3407745361328 C 118.90858459472656 176.8181610107422 141.94537353515625 157.45828247070312 98.92831420898438 185.06564331054688" stroke-width="3.0" fill="none" stroke="rgb(0, 0, 0)" stroke-opacity="1.0" stroke-linecap="round" stroke-linejoin="round"/>
    <path d="M 46.71468734741211 131.9971466064453 C -13.22177791595459 212.9512176513672 67.67556762695312 129.09988403320312 15.691287994384766 168.75794982910156" stroke-width="3.0" fill="none" stroke="rgb(0, 0, 0)" stroke-opacity="1.0" stroke-linecap="round" stroke-linejoin="round"/>
    <path d="M 32.8082275390625 37.08805847167969 C 105.17595672607422 76.1734848022461 58.72249984741211 65.98799133300781 108.63326263427734 86.03862762451172" stroke-width="3.0" fill="none" stroke="rgb(0, 0, 0)" stroke-opacity="1.0" stroke-linecap="round" stroke-linejoin="round"/>
    <path d="M 133.67950439453125 162.62232971191406 C 155.87535095214844 118.20404815673828 151.745361328125 161.84214782714844 182.42945861816406 108.66083526611328" stroke-width="3.0" fill="none" stroke="rgb(0, 0, 0)" stroke-opacity="1.0" stroke-linecap="round" stroke-linejoin="round"/>
    <path d="M 37.49409484863281 160.8350067138672 C 61.158836364746094 113.24169158935547 47.247413635253906 146.75189208984375 80.21866607666016 113.98492431640625" stroke-width="3.0" fill="none" stroke="rgb(0, 0, 0)" stroke-opacity="1.0" stroke-linecap="round" stroke-linejoin="round"/>
    <path d="M 159.1352996826172 118.28028106689453 C 132.1742401123047 131.2938690185547 160.52337646484375 116.8324966430664 104.90258026123047 130.07923889160156" stroke-width="3.0" fill="none" stroke="rgb(0, 0, 0)" stroke-opacity="1.0" stroke-linecap="round" stroke-linejoin="round"/>
    <path d="M 172.8455352783203 108.04276275634766 C 165.3678436279297 228.232421875 138.01055908203125 181.0944061279297 160.22100830078125 189.78797912597656" stroke-width="3.0" fill="none" stroke="rgb(0, 0, 0)" stroke-opacity="1.0" stroke-linecap="round" stroke-linejoin="round"/>
    <path d="M 11.728812217712402 73.99844360351562 C 70.6180191040039 8.250887870788574 -16.832582473754883 83.45091247558594 58.346500396728516 37.50704574584961" stroke-width="3.0" fill="none" stroke="rgb(0, 0, 0)" stroke-opacity="1.0" stroke-linecap="round" stroke-linejoin="round"/>
    <path d="M 93.51019287109375 75.83514404296875 C 81.69429016113281 19.655467987060547 -32.91966247558594 45.46595764160156 82.84026336669922 50.11366653442383" stroke-width="3.0" fill="none" stroke="rgb(0, 0, 0)" stroke-opacity="1.0" stroke-linecap="round" stroke-linejoin="round"/>
  </g>
</svg>
