<?xml version="1.0" ?>
<svg xmlns="http://www.w3.org/2000/svg" version="1.1" width="224" height="224">
  <defs/>
  <g>
    <path d="M 77.16876983642578 111.1786880493164 C 87.80572509765625 131.10118103027344 80.00167083740234 119.91067504882812 76.12188720703125 121.05406188964844" stroke-width="3.0" fill="none" stroke="rgb(0, 0, 0)" stroke-opacity="1.0" stroke-linecap="round" stroke-linejoin="round"/>
    <path d="M 74.53976440429688 122.77500915527344 C 115.75869750976562 136.65719604492188 108.33635711669922 123.94921875 134.6251983642578 127.17450714111328" stroke-width="3.0" fill="none" stroke="rgb(0, 0, 0)" stroke-opacity="1.0" stroke-linecap="round" stroke-linejoin="round"/>
    <path d="M 164.9314727783203 98.55535125732422 C 220.77777099609375 120.35799407958984 191.37997436523438 131.36380004882812 215.95529174804688 142.04747009277344" stroke-width="3.0" fill="none" stroke="rgb(0, 0, 0)" stroke-opacity="1.0" stroke-linecap="round" stroke-linejoin="round"/>
    <path d="M 45.79384994506836 73.25060272216797 C 59.67299270629883 152.01258850097656 67.30038452148438 73.60112762451172 37.13457107543945 157.83328247070312" stroke-width="3.0" fill="none" stroke="rgb(0, 0, 0)" stroke-opacity="1.0" stroke-linecap="round" stroke-linejoin="round"/>
    <path d="M 109.55186462402344 86.90826416015625 C 137.47801208496094 87.36148834228516 148.99063110351562 76.77369689941406 172.758544921875 107.63275146484375" stroke-width="3.0" fill="none" stroke="rgb(0, 0, 0)" stroke-opacity="1.0" stroke-linecap="round" stroke-linejoin="round"/>
    <path d="M 136.17811584472656 126.79256439208984 C 133.48501586914062 127.27235412597656 137.64093017578125 130.00457763671875 137.14927673339844 126.04601287841797" stroke-width="3.0" fill="none" stroke="rgb(0, 0, 0)" stroke-opacity="1.0" stroke-linecap="round" stroke-linejoin="round"/>
    <path d="M 81.41523742675781 124.02090454101562 C 93.62044525146484 109.44195556640625 58.78480911254883 131.23741149902344 80.07400512695312 117.29918670654297" stroke-width="3.0" fill="none" stroke="rgb(0, 0, 0)" stroke-opacity="1.0" stroke-linecap="round" stroke-linejoin="round"/>
    <path d="M 140.82313537597656 128.11390686035156 C 118.40809631347656 176.58168029785156 141.4700927734375 156.59165954589844 98.93083953857422 185.92318725585938" stroke-width="3.0" fill="none" stroke="rgb(0, 0, 0)" stroke-opacity="1.0" stroke-linecap="round" stroke-linejoin="round"/>
    <path d="M 54.7659797668457 124.80720520019531 C -6.2713623046875 180.8922119140625 69.00743865966797 153.08396911621094 18.41474151611328 171.6531219482422" stroke-width="3.0" fill="none" stroke="rgb(0, 0, 0)" stroke-opacity="1.0" stroke-linecap="round" stroke-linejoin="round"/>
    <path d="M 33.94504928588867 38.224544525146484 C 111.3005142211914 91.79539489746094 34.02228546142578 67.72592163085938 112.46249389648438 87.57066345214844" stroke-width="3.0" fill="none" stroke="rgb(0, 0, 0)" stroke-opacity="1.0" stroke-linecap="round" stroke-linejoin="round"/>
    <path d="M 131.13418579101562 162.12896728515625 C 151.74095153808594 116.78663635253906 145.77090454101562 156.8173370361328 183.19068908691406 108.61620330810547" stroke-width="3.0" fill="none" stroke="rgb(0, 0, 0)" stroke-opacity="1.0" stroke-linecap="round" stroke-linejoin="round"/>
    <path d="M 34.87575149536133 155.3071746826172 C 71.13897705078125 116.87930297851562 59.16685104370117 141.63739013671875 71.23783874511719 114.77169036865234" stroke-width="3.0" fill="none" stroke="rgb(0, 0, 0)" stroke-opacity="1.0" stroke-linecap="round" stroke-linejoin="round"/>
    <path d="M 158.1390838623047 118.8265380859375 C 141.21914672851562 127.60027313232422 148.74818420410156 119.68595123291016 126.22457122802734 125.35858154296875" stroke-width="3.0" fill="none" stroke="rgb(0, 0, 0)" stroke-opacity="1.0" stroke-linecap="round" stroke-linejoin="round"/>
    <path d="M 171.6183319091797 112.7037353515625 C 166.58633422851562 225.3482666015625 136.53073120117188 182.22850036621094 159.85528564453125 189.987060546875" stroke-width="3.0" fill="none" stroke="rgb(0, 0, 0)" stroke-opacity="1.0" stroke-linecap="round" stroke-linejoin="round"/>
    <path d="M 12.843792915344238 75.41287994384766 C 63.62055969238281 14.207658767700195 -12.72554874420166 75.525390625 50.543190002441406 39.54875946044922" stroke-width="3.0" fill="none" stroke="rgb(0, 0, 0)" stroke-opacity="1.0" stroke-linecap="round" stroke-linejoin="round"/>
    <path d="M 86.00357055664062 77.54667663574219 C 55.147865295410156 24.67398452758789 -6.6320061683654785 36.771461486816406 77.14698028564453 56.051692962646484" stroke-width="3.0" fill="none" stroke="rgb(0, 0, 0)" stroke-opacity="1.0" stroke-linecap="round" stroke-linejoin="round"/>
  </g>
</svg>
