<?xml version="1.0" ?>
<svg xmlns="http://www.w3.org/2000/svg" version="1.1" width="224" height="224">
  <defs/>
  <g>
    <path d="M 75.55615997314453 122.88308715820312 C 86.0691909790039 129.2350311279297 82.18006896972656 128.80494689941406 79.20842742919922 119.93028259277344" stroke-width="3.0" fill="none" stroke="rgb(0, 0, 0)" stroke-opacity="1.0" stroke-linecap="round" stroke-linejoin="round"/>
    <path d="M 72.24468231201172 124.88478088378906 C 112.04427337646484 138.47793579101562 113.80804443359375 129.09576416015625 134.132080078125 125.70153045654297" stroke-width="3.0" fill="none" stroke="rgb(0, 0, 0)" stroke-opacity="1.0" stroke-linecap="round" stroke-linejoin="round"/>
    <path d="M 154.44650268554688 92.79371643066406 C 227.34085083007812 118.95716857910156 186.56271362304688 129.7313995361328 216.18722534179688 143.50213623046875" stroke-width="3.0" fill="none" stroke="rgb(0, 0, 0)" stroke-opacity="1.0" stroke-linecap="round" stroke-linejoin="round"/>
    <path d="M 56.1639404296875 66.86803436279297 C 41.037906646728516 150.89588928222656 74.51385498046875 80.88736724853516 31.194988250732422 155.66847229003906" stroke-width="3.0" fill="none" stroke="rgb(0, 0, 0)" stroke-opacity="1.0" stroke-linecap="round" stroke-linejoin="round"/>
    <path d="M 128.3505096435547 90.62127685546875 C 133.39010620117188 91.73291015625 159.0653533935547 86.04458618164062 172.45948791503906 106.10089874267578" stroke-width="3.0" fill="none" stroke="rgb(0, 0, 0)" stroke-opacity="1.0" stroke-linecap="round" stroke-linejoin="round"/>
    <path d="M 137.15713500976562 123.84078979492188 C 139.37210083007812 126.61263275146484 122.91754913330078 129.12342834472656 133.32534790039062 128.57290649414062" stroke-width="3.0" fill="none" stroke="rgb(0, 0, 0)" stroke-opacity="1.0" stroke-linecap="round" stroke-linejoin="round"/>
    <path d="M 76.40713500976562 124.06986999511719 C 82.47486877441406 118.17845153808594 67.2694320678711 127.02839660644531 78.25782012939453 123.19963073730469" stroke-width="3.0" fill="none" stroke="rgb(0, 0, 0)" stroke-opacity="1.0" stroke-linecap="round" stroke-linejoin="round"/>
    <path d="M 139.27822875976562 128.75730895996094 C 120.8653793334961 173.3341522216797 145.08486938476562 153.681396484375 97.5816650390625 184.8129119873047" stroke-width="3.0" fill="none" stroke="rgb(0, 0, 0)" stroke-opacity="1.0" stroke-linecap="round" stroke-linejoin="round"/>
    <path d="M 55.365440368652344 121.60694122314453 C -5.471842288970947 172.8532257080078 52.42845153808594 155.3382568359375 16.251909255981445 168.40333557128906" stroke-width="3.0" fill="none" stroke="rgb(0, 0, 0)" stroke-opacity="1.0" stroke-linecap="round" stroke-linejoin="round"/>
    <path d="M 55.7411994934082 38.583126068115234 C 108.53347778320312 99.69974517822266 82.79060363769531 79.92619323730469 135.81259155273438 91.66194915771484" stroke-width="3.0" fill="none" stroke="rgb(0, 0, 0)" stroke-opacity="1.0" stroke-linecap="round" stroke-linejoin="round"/>
    <path d="M 132.80032348632812 160.3778076171875 C 148.0521240234375 116.43470764160156 155.29043579101562 152.51681518554688 177.8545379638672 109.57574462890625" stroke-width="3.0" fill="none" stroke="rgb(0, 0, 0)" stroke-opacity="1.0" stroke-linecap="round" stroke-linejoin="round"/>
    <path d="M 30.402177810668945 150.6588134765625 C 72.17362976074219 116.59586334228516 57.112213134765625 146.39346313476562 76.92840576171875 109.43446350097656" stroke-width="3.0" fill="none" stroke="rgb(0, 0, 0)" stroke-opacity="1.0" stroke-linecap="round" stroke-linejoin="round"/>
    <path d="M 147.2387237548828 119.60326385498047 C 135.3651885986328 131.97560119628906 132.74649047851562 117.44390106201172 134.43856811523438 129.00985717773438" stroke-width="3.0" fill="none" stroke="rgb(0, 0, 0)" stroke-opacity="1.0" stroke-linecap="round" stroke-linejoin="round"/>
    <path d="M 171.606201171875 121.96804809570312 C 180.3143768310547 165.17262268066406 143.20306396484375 202.89059448242188 162.9170684814453 188.1814422607422" stroke-width="3.0" fill="none" stroke="rgb(0, 0, 0)" stroke-opacity="1.0" stroke-linecap="round" stroke-linejoin="round"/>
    <path d="M 11.738645553588867 73.91960144042969 C 77.00300598144531 13.07039737701416 -15.80137825012207 57.80461120605469 70.59818267822266 44.207786560058594" stroke-width="3.0" fill="none" stroke="rgb(0, 0, 0)" stroke-opacity="1.0" stroke-linecap="round" stroke-linejoin="round"/>
    <path d="M 85.00679779052734 65.19624328613281 C 38.87752914428711 38.26626205444336 5.45461368560791 23.790340423583984 81.44808959960938 52.1934814453125" stroke-width="3.0" fill="none" stroke="rgb(0, 0, 0)" stroke-opacity="1.0" stroke-linecap="round" stroke-linejoin="round"/>
  </g>
</svg>
