<?xml version="1.0" ?>
<svg xmlns="http://www.w3.org/2000/svg" version="1.1" width="224" height="224">
  <defs/>
  <g>
    <path d="M 82.05204010009766 111.91813659667969 C 89.53141784667969 128.98577880859375 83.2259521484375 118.05731201171875 81.80628204345703 118.71812438964844" stroke-width="3.0" fill="none" stroke="rgb(0, 0, 0)" stroke-opacity="1.0" stroke-linecap="round" stroke-linejoin="round"/>
    <path d="M 74.30314636230469 121.9527587890625 C 114.3427505493164 133.85018920898438 114.35801696777344 125.97174072265625 133.964599609375 123.98788452148438" stroke-width="3.0" fill="none" stroke="rgb(0, 0, 0)" stroke-opacity="1.0" stroke-linecap="round" stroke-linejoin="round"/>
    <path d="M 164.03138732910156 97.166015625 C 219.27435302734375 121.67120361328125 192.0727996826172 136.50180053710938 216.0922088623047 143.5441131591797" stroke-width="3.0" fill="none" stroke="rgb(0, 0, 0)" stroke-opacity="1.0" stroke-linecap="round" stroke-linejoin="round"/>
    <path d="M 53.565120697021484 68.24700164794922 C 46.8058967590332 150.57623291015625 77.75227355957031 75.7703857421875 34.367820739746094 154.01763916015625" stroke-width="3.0" fill="none" stroke="rgb(0, 0, 0)" stroke-opacity="1.0" stroke-linecap="round" stroke-linejoin="round"/>
    <path d="M 118.53215026855469 88.44513702392578 C 135.9713134765625 92.3887710571289 151.40196228027344 80.91519165039062 171.36508178710938 103.15184020996094" stroke-width="3.0" fill="none" stroke="rgb(0, 0, 0)" stroke-opacity="1.0" stroke-linecap="round" stroke-linejoin="round"/>
    <path d="M 137.2991180419922 122.72992706298828 C 126.57408905029297 125.21878051757812 136.03065490722656 124.11023712158203 137.38087463378906 124.27497863769531" stroke-width="3.0" fill="none" stroke="rgb(0, 0, 0)" stroke-opacity="1.0" stroke-linecap="round" stroke-linejoin="round"/>
    <path d="M 81.54598236083984 123.81541442871094 C 90.22396850585938 104.68609619140625 65.19945526123047 131.0120849609375 84.03471374511719 118.9344482421875" stroke-width="3.0" fill="none" stroke="rgb(0, 0, 0)" stroke-opacity="1.0" stroke-linecap="round" stroke-linejoin="round"/>
    <path d="M 139.5003662109375 126.81005859375 C 119.8028564453125 175.91282653808594 142.03573608398438 158.88284301757812 99.46610260009766 187.63104248046875" stroke-width="3.0" fill="none" stroke="rgb(0, 0, 0)" stroke-opacity="1.0" stroke-linecap="round" stroke-linejoin="round"/>
    <path d="M 61.547271728515625 119.90478515625 C -12.192163467407227 175.48533630371094 61.42162322998047 145.7037353515625 14.800272941589355 168.18988037109375" stroke-width="3.0" fill="none" stroke="rgb(0, 0, 0)" stroke-opacity="1.0" stroke-linecap="round" stroke-linejoin="round"/>
    <path d="M 38.42265701293945 37.68297576904297 C 127.5426254272461 82.73017883300781 53.512638092041016 76.03580474853516 122.77086639404297 88.36357879638672" stroke-width="3.0" fill="none" stroke="rgb(0, 0, 0)" stroke-opacity="1.0" stroke-linecap="round" stroke-linejoin="round"/>
    <path d="M 132.74777221679688 162.7211456298828 C 152.69627380371094 117.06954956054688 146.1001739501953 155.3854522705078 181.1713409423828 106.81089782714844" stroke-width="3.0" fill="none" stroke="rgb(0, 0, 0)" stroke-opacity="1.0" stroke-linecap="round" stroke-linejoin="round"/>
    <path d="M 31.340763092041016 149.0833740234375 C 73.43743896484375 119.29708862304688 62.758697509765625 141.67684936523438 73.92354583740234 114.09640502929688" stroke-width="3.0" fill="none" stroke="rgb(0, 0, 0)" stroke-opacity="1.0" stroke-linecap="round" stroke-linejoin="round"/>
    <path d="M 156.0068817138672 121.31281280517578 C 140.74716186523438 129.07395935058594 136.82827758789062 120.44534301757812 129.4535675048828 125.35216522216797" stroke-width="3.0" fill="none" stroke="rgb(0, 0, 0)" stroke-opacity="1.0" stroke-linecap="round" stroke-linejoin="round"/>
    <path d="M 173.59841918945312 109.87440490722656 C 166.83151245117188 227.28150939941406 138.310791015625 179.6768798828125 160.4813995361328 187.5673065185547" stroke-width="3.0" fill="none" stroke="rgb(0, 0, 0)" stroke-opacity="1.0" stroke-linecap="round" stroke-linejoin="round"/>
    <path d="M 13.757383346557617 74.64856719970703 C 65.54704284667969 19.95079231262207 -22.97279930114746 68.60072326660156 57.7247200012207 37.90583419799805" stroke-width="3.0" fill="none" stroke="rgb(0, 0, 0)" stroke-opacity="1.0" stroke-linecap="round" stroke-linejoin="round"/>
    <path d="M 90.16966247558594 69.87997436523438 C 50.82481384277344 27.0502872467041 -13.654236793518066 34.88732147216797 81.9900894165039 55.61001205444336" stroke-width="3.0" fill="none" stroke="rgb(0, 0, 0)" stroke-opacity="1.0" stroke-linecap="round" stroke-linejoin="round"/>
  </g>
</svg>
