<?xml version="1.0" ?>
<svg xmlns="http://www.w3.org/2000/svg" version="1.1" width="224" height="224">
  <defs/>
  <g>
    <path d="M 107.02670288085938 105.47042083740234 C 107.07881164550781 102.61151885986328 115.39547729492188 105.92405700683594 94.82328796386719 102.82725524902344" stroke-width="3.0" fill="none" stroke="rgb(0, 0, 0)" stroke-opacity="1.0" stroke-linecap="round" stroke-linejoin="round"/>
    <path d="M 95.9188461303711 133.7598114013672 C 111.4384536743164 115.79475402832031 97.31368255615234 134.45791625976562 129.095703125 120.33528900146484" stroke-width="3.0" fill="none" stroke="rgb(0, 0, 0)" stroke-opacity="1.0" stroke-linecap="round" stroke-linejoin="round"/>
    <path d="M 176.7695770263672 105.19863891601562 C 194.84310913085938 116.05442810058594 186.42005920410156 106.34449005126953 206.08216857910156 148.10711669921875" stroke-width="3.0" fill="none" stroke="rgb(0, 0, 0)" stroke-opacity="1.0" stroke-linecap="round" stroke-linejoin="round"/>
    <path d="M 39.95740509033203 92.25128173828125 C 52.18854522705078 112.8956527709961 59.669803619384766 104.33689880371094 61.6635627746582 119.98236846923828" stroke-width="3.0" fill="none" stroke="rgb(0, 0, 0)" stroke-opacity="1.0" stroke-linecap="round" stroke-linejoin="round"/>
    <path d="M 142.34507751464844 91.95012664794922 C 144.80935668945312 91.85671997070312 142.3111114501953 92.8663101196289 149.77395629882812 94.60328674316406" stroke-width="3.0" fill="none" stroke="rgb(0, 0, 0)" stroke-opacity="1.0" stroke-linecap="round" stroke-linejoin="round"/>
    <path d="M 135.6760711669922 115.1484375 C 127.289794921875 123.19486236572266 115.44627380371094 125.16571807861328 130.80821228027344 120.1777572631836" stroke-width="3.0" fill="none" stroke="rgb(0, 0, 0)" stroke-opacity="1.0" stroke-linecap="round" stroke-linejoin="round"/>
    <path d="M 83.24034118652344 105.59303283691406 C 86.0798568725586 96.23677825927734 85.47024536132812 98.6163330078125 80.72931671142578 111.47714233398438" stroke-width="3.0" fill="none" stroke="rgb(0, 0, 0)" stroke-opacity="1.0" stroke-linecap="round" stroke-linejoin="round"/>
    <path d="M 132.00062561035156 134.3418731689453 C 135.87306213378906 160.54849243164062 136.9076690673828 149.89125061035156 113.31886291503906 179.7062530517578" stroke-width="3.0" fill="none" stroke="rgb(0, 0, 0)" stroke-opacity="1.0" stroke-linecap="round" stroke-linejoin="round"/>
    <path d="M 45.99571990966797 155.80804443359375 C 33.718379974365234 165.65771484375 49.51167297363281 148.01083374023438 12.600050926208496 167.44534301757812" stroke-width="3.0" fill="none" stroke="rgb(0, 0, 0)" stroke-opacity="1.0" stroke-linecap="round" stroke-linejoin="round"/>
    <path d="M 100.73247528076172 86.23075866699219 C 109.64227294921875 84.32384490966797 106.12252044677734 85.55464172363281 111.98200988769531 81.87101745605469" stroke-width="3.0" fill="none" stroke="rgb(0, 0, 0)" stroke-opacity="1.0" stroke-linecap="round" stroke-linejoin="round"/>
    <path d="M 136.23585510253906 132.58335876464844 C 134.44015502929688 133.9853515625 147.55563354492188 140.79234313964844 160.26223754882812 135.3314666748047" stroke-width="3.0" fill="none" stroke="rgb(0, 0, 0)" stroke-opacity="1.0" stroke-linecap="round" stroke-linejoin="round"/>
    <path d="M 76.97291564941406 115.86235046386719 C 87.73587036132812 103.4377212524414 86.3717041015625 95.92598724365234 86.60969543457031 106.16313934326172" stroke-width="3.0" fill="none" stroke="rgb(0, 0, 0)" stroke-opacity="1.0" stroke-linecap="round" stroke-linejoin="round"/>
    <path d="M 134.9762725830078 102.95848846435547 C 136.43124389648438 107.04932403564453 132.3128204345703 103.59707641601562 139.8631591796875 112.71913146972656" stroke-width="3.0" fill="none" stroke="rgb(0, 0, 0)" stroke-opacity="1.0" stroke-linecap="round" stroke-linejoin="round"/>
    <path d="M 148.50559997558594 136.5713348388672 C 174.99783325195312 137.49539184570312 162.26840209960938 162.22344970703125 170.1288604736328 184.71302795410156" stroke-width="3.0" fill="none" stroke="rgb(0, 0, 0)" stroke-opacity="1.0" stroke-linecap="round" stroke-linejoin="round"/>
    <path d="M 27.306509017944336 41.95173645019531 C 47.688743591308594 33.74433135986328 72.01375579833984 51.40139389038086 72.82410430908203 41.471553802490234" stroke-width="3.0" fill="none" stroke="rgb(0, 0, 0)" stroke-opacity="1.0" stroke-linecap="round" stroke-linejoin="round"/>
    <path d="M 88.44699096679688 63.64899826049805 C 78.18378448486328 55.96970748901367 74.61793518066406 62.928993225097656 74.06658172607422 55.89790344238281" stroke-width="3.0" fill="none" stroke="rgb(0, 0, 0)" stroke-opacity="1.0" stroke-linecap="round" stroke-linejoin="round"/>
  </g>
</svg>
