<?xml version="1.0" ?>
<svg xmlns="http://www.w3.org/2000/svg" version="1.1" width="224" height="224">
  <defs/>
  <g>
    <path d="M 101.80427551269531 117.70548248291016 C 96.0257568359375 120.34746551513672 98.85538482666016 121.2264633178711 88.32362365722656 118.181396484375" stroke-width="3.0" fill="none" stroke="rgb(0, 0, 0)" stroke-opacity="1.0" stroke-linecap="round" stroke-linejoin="round"/>
    <path d="M 85.73213958740234 120.6357421875 C 101.70294189453125 125.17558288574219 119.70613861083984 127.09396362304688 132.7237091064453 118.88797760009766" stroke-width="3.0" fill="none" stroke="rgb(0, 0, 0)" stroke-opacity="1.0" stroke-linecap="round" stroke-linejoin="round"/>
    <path d="M 154.7139434814453 91.45063781738281 C 224.13194274902344 115.61213684082031 191.67530822753906 134.556396484375 215.84413146972656 141.0879669189453" stroke-width="3.0" fill="none" stroke="rgb(0, 0, 0)" stroke-opacity="1.0" stroke-linecap="round" stroke-linejoin="round"/>
    <path d="M 52.75910186767578 84.07755279541016 C 48.69694900512695 129.88157653808594 71.95645141601562 98.47412872314453 39.5802001953125 136.6923370361328" stroke-width="3.0" fill="none" stroke="rgb(0, 0, 0)" stroke-opacity="1.0" stroke-linecap="round" stroke-linejoin="round"/>
    <path d="M 131.58506774902344 88.60945892333984 C 160.7579345703125 90.42632293701172 146.31381225585938 87.35496520996094 162.25949096679688 97.85604858398438" stroke-width="3.0" fill="none" stroke="rgb(0, 0, 0)" stroke-opacity="1.0" stroke-linecap="round" stroke-linejoin="round"/>
    <path d="M 139.20639038085938 113.96086883544922 C 129.23135375976562 123.43914031982422 120.1159896850586 122.44689178466797 124.25271606445312 122.04539489746094" stroke-width="3.0" fill="none" stroke="rgb(0, 0, 0)" stroke-opacity="1.0" stroke-linecap="round" stroke-linejoin="round"/>
    <path d="M 88.13931274414062 113.6662826538086 C 69.91620635986328 123.85981750488281 71.67576599121094 110.68002319335938 93.53994750976562 117.45486450195312" stroke-width="3.0" fill="none" stroke="rgb(0, 0, 0)" stroke-opacity="1.0" stroke-linecap="round" stroke-linejoin="round"/>
    <path d="M 133.78689575195312 132.79689025878906 C 132.60372924804688 165.77354431152344 148.76719665527344 154.1033935546875 96.69886016845703 182.62069702148438" stroke-width="3.0" fill="none" stroke="rgb(0, 0, 0)" stroke-opacity="1.0" stroke-linecap="round" stroke-linejoin="round"/>
    <path d="M 53.613800048828125 127.83648681640625 C 1.5045815706253052 170.9725799560547 51.839744567871094 150.37525939941406 19.44309425354004 170.42144775390625" stroke-width="3.0" fill="none" stroke="rgb(0, 0, 0)" stroke-opacity="1.0" stroke-linecap="round" stroke-linejoin="round"/>
    <path d="M 82.06497192382812 67.77399444580078 C 99.31282043457031 87.04991149902344 107.12096405029297 84.07410430908203 141.54270935058594 89.39257049560547" stroke-width="3.0" fill="none" stroke="rgb(0, 0, 0)" stroke-opacity="1.0" stroke-linecap="round" stroke-linejoin="round"/>
    <path d="M 131.9364013671875 124.33894348144531 C 137.23194885253906 139.01809692382812 140.80191040039062 138.64891052246094 169.52601623535156 128.14627075195312" stroke-width="3.0" fill="none" stroke="rgb(0, 0, 0)" stroke-opacity="1.0" stroke-linecap="round" stroke-linejoin="round"/>
    <path d="M 63.81990051269531 129.60874938964844 C 90.45919036865234 119.8502426147461 63.42906188964844 114.52372741699219 87.04996490478516 115.43616485595703" stroke-width="3.0" fill="none" stroke="rgb(0, 0, 0)" stroke-opacity="1.0" stroke-linecap="round" stroke-linejoin="round"/>
    <path d="M 145.74838256835938 112.11360931396484 C 137.05868530273438 113.56971740722656 138.3936004638672 115.9184799194336 130.8754119873047 115.41622161865234" stroke-width="3.0" fill="none" stroke="rgb(0, 0, 0)" stroke-opacity="1.0" stroke-linecap="round" stroke-linejoin="round"/>
    <path d="M 155.7928924560547 134.39060974121094 C 185.82135009765625 163.96566772460938 138.97731018066406 195.6762237548828 162.08245849609375 192.325927734375" stroke-width="3.0" fill="none" stroke="rgb(0, 0, 0)" stroke-opacity="1.0" stroke-linecap="round" stroke-linejoin="round"/>
    <path d="M 17.781997680664062 70.17568969726562 C 52.468414306640625 7.922898769378662 49.09513473510742 59.6107292175293 70.87863159179688 36.836673736572266" stroke-width="3.0" fill="none" stroke="rgb(0, 0, 0)" stroke-opacity="1.0" stroke-linecap="round" stroke-linejoin="round"/>
    <path d="M 85.17327880859375 65.09994506835938 C 62.09223556518555 39.13736343383789 52.5914306640625 40.512916564941406 80.24138641357422 49.67452621459961" stroke-width="3.0" fill="none" stroke="rgb(0, 0, 0)" stroke-opacity="1.0" stroke-linecap="round" stroke-linejoin="round"/>
  </g>
</svg>
