<?xml version="1.0" ?>
<svg xmlns="http://www.w3.org/2000/svg" version="1.1" width="224" height="224">
  <defs/>
  <g>
    <path d="M 78.9354019165039 122.94144439697266 C 88.84049987792969 127.90025329589844 79.36211395263672 130.7526092529297 81.31895446777344 117.24052429199219" stroke-width="3.0" fill="none" stroke="rgb(0, 0, 0)" stroke-opacity="1.0" stroke-linecap="round" stroke-linejoin="round"/>
    <path d="M 77.1171646118164 125.58816528320312 C 110.757568359375 132.96910095214844 113.31259155273438 126.92308807373047 133.98011779785156 125.99942016601562" stroke-width="3.0" fill="none" stroke="rgb(0, 0, 0)" stroke-opacity="1.0" stroke-linecap="round" stroke-linejoin="round"/>
    <path d="M 149.7644500732422 91.98506164550781 C 229.7193603515625 119.59738159179688 189.2494354248047 131.69415283203125 214.1737823486328 143.96365356445312" stroke-width="3.0" fill="none" stroke="rgb(0, 0, 0)" stroke-opacity="1.0" stroke-linecap="round" stroke-linejoin="round"/>
    <path d="M 57.836116790771484 70.62838745117188 C 37.27020263671875 140.78897094726562 82.55694580078125 80.26814270019531 31.55197525024414 156.20257568359375" stroke-width="3.0" fill="none" stroke="rgb(0, 0, 0)" stroke-opacity="1.0" stroke-linecap="round" stroke-linejoin="round"/>
    <path d="M 122.87415313720703 88.91738891601562 C 137.5384521484375 90.95701599121094 155.499755859375 83.99093627929688 171.77957153320312 105.22715759277344" stroke-width="3.0" fill="none" stroke="rgb(0, 0, 0)" stroke-opacity="1.0" stroke-linecap="round" stroke-linejoin="round"/>
    <path d="M 139.2661895751953 125.46698760986328 C 139.6958770751953 121.48050689697266 124.98297882080078 126.44053649902344 134.0980987548828 125.64175415039062" stroke-width="3.0" fill="none" stroke="rgb(0, 0, 0)" stroke-opacity="1.0" stroke-linecap="round" stroke-linejoin="round"/>
    <path d="M 78.52613067626953 122.4254379272461 C 85.70731353759766 120.9232406616211 67.28131866455078 129.17750549316406 82.45630645751953 119.4286117553711" stroke-width="3.0" fill="none" stroke="rgb(0, 0, 0)" stroke-opacity="1.0" stroke-linecap="round" stroke-linejoin="round"/>
    <path d="M 142.24436950683594 128.8492889404297 C 119.91796875 171.16949462890625 143.21505737304688 153.01535034179688 98.11187744140625 185.2256622314453" stroke-width="3.0" fill="none" stroke="rgb(0, 0, 0)" stroke-opacity="1.0" stroke-linecap="round" stroke-linejoin="round"/>
    <path d="M 55.97476577758789 126.41961669921875 C -6.478006362915039 170.29232788085938 50.668601989746094 149.14292907714844 15.209220886230469 169.00271606445312" stroke-width="3.0" fill="none" stroke="rgb(0, 0, 0)" stroke-opacity="1.0" stroke-linecap="round" stroke-linejoin="round"/>
    <path d="M 51.301048278808594 39.901092529296875 C 108.85838317871094 100.810302734375 79.71536254882812 76.60722351074219 134.76889038085938 93.66262817382812" stroke-width="3.0" fill="none" stroke="rgb(0, 0, 0)" stroke-opacity="1.0" stroke-linecap="round" stroke-linejoin="round"/>
    <path d="M 134.42344665527344 158.86195373535156 C 150.7499542236328 116.14317321777344 161.45205688476562 153.12098693847656 180.51625061035156 108.43636322021484" stroke-width="3.0" fill="none" stroke="rgb(0, 0, 0)" stroke-opacity="1.0" stroke-linecap="round" stroke-linejoin="round"/>
    <path d="M 30.9216251373291 152.2447509765625 C 77.49332427978516 117.26141357421875 59.18022155761719 147.00218200683594 77.60957336425781 111.40965270996094" stroke-width="3.0" fill="none" stroke="rgb(0, 0, 0)" stroke-opacity="1.0" stroke-linecap="round" stroke-linejoin="round"/>
    <path d="M 153.38772583007812 120.87602996826172 C 138.38916015625 126.6790771484375 135.80662536621094 116.75762939453125 133.6631622314453 126.13548278808594" stroke-width="3.0" fill="none" stroke="rgb(0, 0, 0)" stroke-opacity="1.0" stroke-linecap="round" stroke-linejoin="round"/>
    <path d="M 170.583984375 113.2597885131836 C 176.80177307128906 165.06109619140625 139.70675659179688 198.45849609375 160.5531005859375 191.2091522216797" stroke-width="3.0" fill="none" stroke="rgb(0, 0, 0)" stroke-opacity="1.0" stroke-linecap="round" stroke-linejoin="round"/>
    <path d="M 16.381746292114258 74.71331024169922 C 74.47760772705078 12.189449310302734 -10.45836353302002 53.73976516723633 72.96472930908203 46.359073638916016" stroke-width="3.0" fill="none" stroke="rgb(0, 0, 0)" stroke-opacity="1.0" stroke-linecap="round" stroke-linejoin="round"/>
    <path d="M 87.06546020507812 63.9088249206543 C 35.395233154296875 41.20972442626953 7.395541667938232 19.521120071411133 80.36659240722656 57.32918930053711" stroke-width="3.0" fill="none" stroke="rgb(0, 0, 0)" stroke-opacity="1.0" stroke-linecap="round" stroke-linejoin="round"/>
  </g>
</svg>
