<?xml version="1.0" ?>
<svg xmlns="http://www.w3.org/2000/svg" version="1.1" width="224" height="224">
  <defs/>
  <g>
    <path d="M 105.00379180908203 113.72000885009766 C 109.04927825927734 114.70963287353516 104.18992614746094 119.44227600097656 98.67254638671875 109.66082763671875" stroke-width="3.0" fill="none" stroke="rgb(0, 0, 0)" stroke-opacity="1.0" stroke-linecap="round" stroke-linejoin="round"/>
    <path d="M 89.68639373779297 133.75311279296875 C 105.7906723022461 131.78294372558594 98.49090576171875 135.8309326171875 130.74737548828125 113.34540557861328" stroke-width="3.0" fill="none" stroke="rgb(0, 0, 0)" stroke-opacity="1.0" stroke-linecap="round" stroke-linejoin="round"/>
    <path d="M 166.01145935058594 97.51212310791016 C 215.38485717773438 117.7981948852539 186.5865936279297 136.30059814453125 215.753662109375 143.42929077148438" stroke-width="3.0" fill="none" stroke="rgb(0, 0, 0)" stroke-opacity="1.0" stroke-linecap="round" stroke-linejoin="round"/>
    <path d="M 48.094139099121094 91.3072280883789 C 44.2514762878418 124.96725463867188 53.3794059753418 108.61764526367188 57.18621826171875 129.45326232910156" stroke-width="3.0" fill="none" stroke="rgb(0, 0, 0)" stroke-opacity="1.0" stroke-linecap="round" stroke-linejoin="round"/>
    <path d="M 148.10586547851562 90.59337615966797 C 155.97381591796875 93.65911102294922 141.39035034179688 88.08941650390625 154.7477569580078 95.10272216796875" stroke-width="3.0" fill="none" stroke="rgb(0, 0, 0)" stroke-opacity="1.0" stroke-linecap="round" stroke-linejoin="round"/>
    <path d="M 138.8212127685547 106.7276840209961 C 123.09161376953125 122.13477325439453 110.13330078125 120.89368438720703 124.733154296875 118.13158416748047" stroke-width="3.0" fill="none" stroke="rgb(0, 0, 0)" stroke-opacity="1.0" stroke-linecap="round" stroke-linejoin="round"/>
    <path d="M 95.81809997558594 110.71639251708984 C 82.17219543457031 110.79095458984375 79.50465393066406 107.26628112792969 77.58747863769531 114.95368957519531" stroke-width="3.0" fill="none" stroke="rgb(0, 0, 0)" stroke-opacity="1.0" stroke-linecap="round" stroke-linejoin="round"/>
    <path d="M 129.49290466308594 135.95941162109375 C 137.15731811523438 164.42799377441406 135.07943725585938 155.96957397460938 97.74409484863281 183.8657989501953" stroke-width="3.0" fill="none" stroke="rgb(0, 0, 0)" stroke-opacity="1.0" stroke-linecap="round" stroke-linejoin="round"/>
    <path d="M 49.08229064941406 151.6170654296875 C 31.297754287719727 169.2589111328125 63.64897155761719 141.0221405029297 13.123538970947266 166.73483276367188" stroke-width="3.0" fill="none" stroke="rgb(0, 0, 0)" stroke-opacity="1.0" stroke-linecap="round" stroke-linejoin="round"/>
    <path d="M 90.91138458251953 68.60954284667969 C 107.63597106933594 86.168701171875 106.3592300415039 86.91132354736328 120.91559600830078 94.73268127441406" stroke-width="3.0" fill="none" stroke="rgb(0, 0, 0)" stroke-opacity="1.0" stroke-linecap="round" stroke-linejoin="round"/>
    <path d="M 126.59033203125 132.8555145263672 C 125.77157592773438 137.90478515625 149.3712615966797 139.4376983642578 170.44847106933594 127.4330825805664" stroke-width="3.0" fill="none" stroke="rgb(0, 0, 0)" stroke-opacity="1.0" stroke-linecap="round" stroke-linejoin="round"/>
    <path d="M 67.92218780517578 125.95170593261719 C 88.68762969970703 110.37191772460938 78.27796173095703 105.874755859375 95.23453521728516 111.2787094116211" stroke-width="3.0" fill="none" stroke="rgb(0, 0, 0)" stroke-opacity="1.0" stroke-linecap="round" stroke-linejoin="round"/>
    <path d="M 142.40512084960938 99.2064437866211 C 137.95899963378906 108.0287857055664 140.44427490234375 107.53939819335938 133.4988250732422 115.74333953857422" stroke-width="3.0" fill="none" stroke="rgb(0, 0, 0)" stroke-opacity="1.0" stroke-linecap="round" stroke-linejoin="round"/>
    <path d="M 160.99636840820312 136.34963989257812 C 184.60032653808594 163.46939086914062 139.00570678710938 195.35977172851562 159.68975830078125 190.6933135986328" stroke-width="3.0" fill="none" stroke="rgb(0, 0, 0)" stroke-opacity="1.0" stroke-linecap="round" stroke-linejoin="round"/>
    <path d="M 22.146085739135742 50.21401596069336 C 63.68119430541992 31.974151611328125 55.04550552368164 60.28266143798828 71.6536865234375 38.358463287353516" stroke-width="3.0" fill="none" stroke="rgb(0, 0, 0)" stroke-opacity="1.0" stroke-linecap="round" stroke-linejoin="round"/>
    <path d="M 98.33717346191406 66.24413299560547 C 79.03330993652344 48.995849609375 58.928462982177734 62.45011901855469 75.23400115966797 47.184539794921875" stroke-width="3.0" fill="none" stroke="rgb(0, 0, 0)" stroke-opacity="1.0" stroke-linecap="round" stroke-linejoin="round"/>
  </g>
</svg>
