<?xml version="1.0" ?>
<svg xmlns="http://www.w3.org/2000/svg" version="1.1" width="224" height="224">
  <defs/>
  <g>
    <path d="M 76.81404113769531 115.39331817626953 C 72.6854019165039 131.9342041015625 85.76779174804688 120.97193908691406 74.41596984863281 118.71263122558594" stroke-width="3.0" fill="none" stroke="rgb(0, 0, 0)" stroke-opacity="1.0" stroke-linecap="round" stroke-linejoin="round"/>
    <path d="M 70.76512145996094 122.68180847167969 C 109.19297790527344 137.04457092285156 119.36447143554688 131.67645263671875 134.94015502929688 132.6942901611328" stroke-width="3.0" fill="none" stroke="rgb(0, 0, 0)" stroke-opacity="1.0" stroke-linecap="round" stroke-linejoin="round"/>
    <path d="M 168.13925170898438 102.04684448242188 C 213.63441467285156 116.81046295166016 196.41848754882812 137.44097900390625 217.9360809326172 143.36907958984375" stroke-width="3.0" fill="none" stroke="rgb(0, 0, 0)" stroke-opacity="1.0" stroke-linecap="round" stroke-linejoin="round"/>
    <path d="M 49.914459228515625 59.565643310546875 C 71.94857025146484 158.49205017089844 43.27354431152344 100.79280090332031 35.70368194580078 148.82415771484375" stroke-width="3.0" fill="none" stroke="rgb(0, 0, 0)" stroke-opacity="1.0" stroke-linecap="round" stroke-linejoin="round"/>
    <path d="M 107.651123046875 87.90547180175781 C 146.62791442871094 91.89466094970703 146.1673583984375 79.6277084350586 178.51751708984375 106.99234008789062" stroke-width="3.0" fill="none" stroke="rgb(0, 0, 0)" stroke-opacity="1.0" stroke-linecap="round" stroke-linejoin="round"/>
    <path d="M 137.45472717285156 128.02732849121094 C 133.74298095703125 129.43052673339844 149.96815490722656 122.99652099609375 114.18193054199219 127.1976318359375" stroke-width="3.0" fill="none" stroke="rgb(0, 0, 0)" stroke-opacity="1.0" stroke-linecap="round" stroke-linejoin="round"/>
    <path d="M 71.3065185546875 121.69095611572266 C 93.4755630493164 113.06645202636719 56.83451843261719 128.814208984375 77.74102020263672 116.42044830322266" stroke-width="3.0" fill="none" stroke="rgb(0, 0, 0)" stroke-opacity="1.0" stroke-linecap="round" stroke-linejoin="round"/>
    <path d="M 136.51327514648438 128.71337890625 C 123.12466430664062 174.1098175048828 139.369873046875 159.08396911621094 99.10797119140625 185.49624633789062" stroke-width="3.0" fill="none" stroke="rgb(0, 0, 0)" stroke-opacity="1.0" stroke-linecap="round" stroke-linejoin="round"/>
    <path d="M 44.791873931884766 134.970458984375 C -14.197778701782227 214.01052856445312 69.0295639038086 126.23428344726562 14.34168815612793 168.52381896972656" stroke-width="3.0" fill="none" stroke="rgb(0, 0, 0)" stroke-opacity="1.0" stroke-linecap="round" stroke-linejoin="round"/>
    <path d="M 34.455238342285156 36.75809097290039 C 104.08228302001953 69.98188018798828 54.09992218017578 64.33467102050781 104.9478530883789 86.58946990966797" stroke-width="3.0" fill="none" stroke="rgb(0, 0, 0)" stroke-opacity="1.0" stroke-linecap="round" stroke-linejoin="round"/>
    <path d="M 134.5919952392578 158.79290771484375 C 155.808837890625 118.25991821289062 149.4494171142578 151.79527282714844 176.64718627929688 113.91948699951172" stroke-width="3.0" fill="none" stroke="rgb(0, 0, 0)" stroke-opacity="1.0" stroke-linecap="round" stroke-linejoin="round"/>
    <path d="M 37.23841857910156 161.6012420654297 C 58.523223876953125 110.1518325805664 55.82703399658203 154.09658813476562 79.81932067871094 109.01549530029297" stroke-width="3.0" fill="none" stroke="rgb(0, 0, 0)" stroke-opacity="1.0" stroke-linecap="round" stroke-linejoin="round"/>
    <path d="M 158.06732177734375 116.95159912109375 C 132.9345245361328 130.74314880371094 163.3479461669922 118.46247100830078 99.3482894897461 129.76963806152344" stroke-width="3.0" fill="none" stroke="rgb(0, 0, 0)" stroke-opacity="1.0" stroke-linecap="round" stroke-linejoin="round"/>
    <path d="M 173.501953125 108.42764282226562 C 167.9046173095703 228.71682739257812 138.51190185546875 179.0871124267578 161.79299926757812 187.2812042236328" stroke-width="3.0" fill="none" stroke="rgb(0, 0, 0)" stroke-opacity="1.0" stroke-linecap="round" stroke-linejoin="round"/>
    <path d="M 16.50925064086914 78.50379943847656 C 71.2490463256836 6.170389652252197 -17.10816764831543 83.56768798828125 58.19679641723633 36.91285705566406" stroke-width="3.0" fill="none" stroke="rgb(0, 0, 0)" stroke-opacity="1.0" stroke-linecap="round" stroke-linejoin="round"/>
    <path d="M 94.27873992919922 73.8164291381836 C 82.88829040527344 23.871870040893555 -22.531896591186523 43.00491714477539 82.56229400634766 48.405372619628906" stroke-width="3.0" fill="none" stroke="rgb(0, 0, 0)" stroke-opacity="1.0" stroke-linecap="round" stroke-linejoin="round"/>
  </g>
</svg>
