<?xml version="1.0" ?>
<svg xmlns="http://www.w3.org/2000/svg" version="1.1" width="224" height="224">
  <defs/>
  <g>
    <path d="M 86.60999298095703 125.61276245117188 C 80.92788696289062 123.10379791259766 80.30128479003906 124.09526824951172 75.55457305908203 116.12052154541016" stroke-width="3.0" fill="none" stroke="rgb(0, 0, 0)" stroke-opacity="1.0" stroke-linecap="round" stroke-linejoin="round"/>
    <path d="M 75.77771759033203 122.71305847167969 C 93.4062728881836 140.52235412597656 115.03060150146484 124.57689666748047 133.8639678955078 123.83738708496094" stroke-width="3.0" fill="none" stroke="rgb(0, 0, 0)" stroke-opacity="1.0" stroke-linecap="round" stroke-linejoin="round"/>
    <path d="M 155.4369354248047 91.80205535888672 C 230.56309509277344 119.03672790527344 189.57620239257812 129.02786254882812 214.8144989013672 144.8898162841797" stroke-width="3.0" fill="none" stroke="rgb(0, 0, 0)" stroke-opacity="1.0" stroke-linecap="round" stroke-linejoin="round"/>
    <path d="M 62.098445892333984 77.9753646850586 C 48.384212493896484 148.96224975585938 96.14817810058594 103.17404174804688 34.960227966308594 154.98573303222656" stroke-width="3.0" fill="none" stroke="rgb(0, 0, 0)" stroke-opacity="1.0" stroke-linecap="round" stroke-linejoin="round"/>
    <path d="M 130.18304443359375 87.94584655761719 C 140.66934204101562 89.28435516357422 164.0812530517578 84.94600677490234 177.72999572753906 106.21514892578125" stroke-width="3.0" fill="none" stroke="rgb(0, 0, 0)" stroke-opacity="1.0" stroke-linecap="round" stroke-linejoin="round"/>
    <path d="M 133.91229248046875 121.26397705078125 C 132.97909545898438 119.87000274658203 118.48838806152344 127.67195129394531 124.21549224853516 124.29439544677734" stroke-width="3.0" fill="none" stroke="rgb(0, 0, 0)" stroke-opacity="1.0" stroke-linecap="round" stroke-linejoin="round"/>
    <path d="M 78.86624908447266 123.70967864990234 C 78.47148895263672 118.30449676513672 66.70179748535156 122.97171783447266 84.32011413574219 124.14750671386719" stroke-width="3.0" fill="none" stroke="rgb(0, 0, 0)" stroke-opacity="1.0" stroke-linecap="round" stroke-linejoin="round"/>
    <path d="M 140.3140411376953 134.8651580810547 C 125.79381561279297 169.9613037109375 151.05563354492188 149.87490844726562 99.33320617675781 184.44073486328125" stroke-width="3.0" fill="none" stroke="rgb(0, 0, 0)" stroke-opacity="1.0" stroke-linecap="round" stroke-linejoin="round"/>
    <path d="M 59.54096603393555 115.96378326416016 C 0.9834676384925842 174.21490478515625 48.81494140625 151.3975067138672 15.049565315246582 169.59573364257812" stroke-width="3.0" fill="none" stroke="rgb(0, 0, 0)" stroke-opacity="1.0" stroke-linecap="round" stroke-linejoin="round"/>
    <path d="M 66.33114624023438 43.620506286621094 C 98.41036987304688 100.46923065185547 102.26554107666016 79.31916809082031 142.66397094726562 90.1849594116211" stroke-width="3.0" fill="none" stroke="rgb(0, 0, 0)" stroke-opacity="1.0" stroke-linecap="round" stroke-linejoin="round"/>
    <path d="M 140.97760009765625 137.99310302734375 C 148.08712768554688 131.06910705566406 140.5664825439453 141.70156860351562 176.3982696533203 115.66495513916016" stroke-width="3.0" fill="none" stroke="rgb(0, 0, 0)" stroke-opacity="1.0" stroke-linecap="round" stroke-linejoin="round"/>
    <path d="M 47.36484146118164 137.68540954589844 C 78.29022979736328 126.95366668701172 73.52254486083984 137.76522827148438 73.90369415283203 112.7693099975586" stroke-width="3.0" fill="none" stroke="rgb(0, 0, 0)" stroke-opacity="1.0" stroke-linecap="round" stroke-linejoin="round"/>
    <path d="M 139.22579956054688 115.6394271850586 C 127.85997772216797 124.5137939453125 134.23426818847656 125.1238021850586 132.13832092285156 122.80044555664062" stroke-width="3.0" fill="none" stroke="rgb(0, 0, 0)" stroke-opacity="1.0" stroke-linecap="round" stroke-linejoin="round"/>
    <path d="M 167.854736328125 126.96741485595703 C 187.3870849609375 152.17135620117188 137.34059143066406 208.76536560058594 160.9884796142578 194.60064697265625" stroke-width="3.0" fill="none" stroke="rgb(0, 0, 0)" stroke-opacity="1.0" stroke-linecap="round" stroke-linejoin="round"/>
    <path d="M 14.314462661743164 74.627197265625 C 78.30765533447266 6.024608135223389 -4.42158317565918 64.73511505126953 68.2555923461914 40.56973648071289" stroke-width="3.0" fill="none" stroke="rgb(0, 0, 0)" stroke-opacity="1.0" stroke-linecap="round" stroke-linejoin="round"/>
    <path d="M 87.37174224853516 66.91566467285156 C 49.62640380859375 38.84827423095703 23.42239761352539 27.853605270385742 78.29389190673828 53.30260467529297" stroke-width="3.0" fill="none" stroke="rgb(0, 0, 0)" stroke-opacity="1.0" stroke-linecap="round" stroke-linejoin="round"/>
  </g>
</svg>
