<?xml version="1.0" ?>
<svg xmlns="http://www.w3.org/2000/svg" version="1.1" width="224" height="224">
  <defs/>
  <g>
    <path d="M 105.9999771118164 105.0001449584961 C 109.85686492919922 107.88939666748047 106.96812438964844 107.18010711669922 107.09422302246094 104.12427520751953" stroke-width="3.0" fill="none" stroke="rgb(0, 0, 0)" stroke-opacity="1.0" stroke-linecap="round" stroke-linejoin="round"/>
    <path d="M 121.99980163574219 125.99996948242188 C 123.17964172363281 123.79639434814453 122.91709899902344 124.73086547851562 127.48787689208984 122.78358459472656" stroke-width="3.0" fill="none" stroke="rgb(0, 0, 0)" stroke-opacity="1.0" stroke-linecap="round" stroke-linejoin="round"/>
    <path d="M 187.99996948242188 112.00125885009766 C 185.55636596679688 116.86439514160156 186.88211059570312 112.07095336914062 191.47134399414062 119.47782897949219" stroke-width="3.0" fill="none" stroke="rgb(0, 0, 0)" stroke-opacity="1.0" stroke-linecap="round" stroke-linejoin="round"/>
    <path d="M 52.999324798583984 105.01216125488281 C 54.47446060180664 111.50418853759766 52.34811019897461 114.07832336425781 58.81496810913086 116.13895416259766" stroke-width="3.0" fill="none" stroke="rgb(0, 0, 0)" stroke-opacity="1.0" stroke-linecap="round" stroke-linejoin="round"/>
    <path d="M 145.9999542236328 94.00005340576172 C 143.6881103515625 91.52761840820312 142.95077514648438 92.76970672607422 147.5765380859375 97.99573516845703" stroke-width="3.0" fill="none" stroke="rgb(0, 0, 0)" stroke-opacity="1.0" stroke-linecap="round" stroke-linejoin="round"/>
    <path d="M 132.9990997314453 119.99996185302734 C 130.74267578125 122.11516571044922 130.0584259033203 127.50729370117188 130.6054229736328 120.06513977050781" stroke-width="3.0" fill="none" stroke="rgb(0, 0, 0)" stroke-opacity="1.0" stroke-linecap="round" stroke-linejoin="round"/>
    <path d="M 79.00006103515625 96.00021362304688 C 83.46015167236328 96.86674499511719 87.09858703613281 98.7499771118164 79.51329040527344 98.67810821533203" stroke-width="3.0" fill="none" stroke="rgb(0, 0, 0)" stroke-opacity="1.0" stroke-linecap="round" stroke-linejoin="round"/>
    <path d="M 145.00006103515625 139.0000457763672 C 149.11778259277344 138.1282196044922 147.15997314453125 140.2818603515625 143.69944763183594 143.02626037597656" stroke-width="3.0" fill="none" stroke="rgb(0, 0, 0)" stroke-opacity="1.0" stroke-linecap="round" stroke-linejoin="round"/>
    <path d="M 39.00001907348633 160.00001525878906 C 36.0726203918457 165.2366485595703 39.46858596801758 164.65423583984375 36.76907730102539 164.6383056640625" stroke-width="3.0" fill="none" stroke="rgb(0, 0, 0)" stroke-opacity="1.0" stroke-linecap="round" stroke-linejoin="round"/>
    <path d="M 109.00045776367188 90.00049591064453 C 111.0887222290039 96.84712219238281 106.7086410522461 95.42217254638672 109.02383422851562 95.95338439941406" stroke-width="3.0" fill="none" stroke="rgb(0, 0, 0)" stroke-opacity="1.0" stroke-linecap="round" stroke-linejoin="round"/>
    <path d="M 131.00015258789062 129.9999237060547 C 134.52235412597656 130.45111083984375 141.71607971191406 129.60716247558594 142.6982421875 130.99063110351562" stroke-width="3.0" fill="none" stroke="rgb(0, 0, 0)" stroke-opacity="1.0" stroke-linecap="round" stroke-linejoin="round"/>
    <path d="M 73.00003051757812 104.99992370605469 C 76.07837677001953 101.71105194091797 76.9256820678711 99.36265563964844 73.44686889648438 97.85389709472656" stroke-width="3.0" fill="none" stroke="rgb(0, 0, 0)" stroke-opacity="1.0" stroke-linecap="round" stroke-linejoin="round"/>
    <path d="M 135.99993896484375 107.0003433227539 C 137.26071166992188 110.75401306152344 136.99990844726562 104.16207122802734 139.88534545898438 108.3804702758789" stroke-width="3.0" fill="none" stroke="rgb(0, 0, 0)" stroke-opacity="1.0" stroke-linecap="round" stroke-linejoin="round"/>
    <path d="M 152.99996948242188 145.00001525878906 C 155.74195861816406 150.83547973632812 160.2014617919922 155.5740203857422 162.65611267089844 154.3563995361328" stroke-width="3.0" fill="none" stroke="rgb(0, 0, 0)" stroke-opacity="1.0" stroke-linecap="round" stroke-linejoin="round"/>
    <path d="M 65.00004577636719 49.99994659423828 C 69.29855346679688 45.48725509643555 72.78878021240234 49.401554107666016 77.21375274658203 50.407161712646484" stroke-width="3.0" fill="none" stroke="rgb(0, 0, 0)" stroke-opacity="1.0" stroke-linecap="round" stroke-linejoin="round"/>
    <path d="M 68.99994659423828 51.99938201904297 C 74.03731536865234 50.89261245727539 73.48353576660156 52.68743133544922 77.04178619384766 59.35690689086914" stroke-width="3.0" fill="none" stroke="rgb(0, 0, 0)" stroke-opacity="1.0" stroke-linecap="round" stroke-linejoin="round"/>
  </g>
</svg>
