<?xml version="1.0" ?>
<svg xmlns="http://www.w3.org/2000/svg" version="1.1" width="224" height="224">
  <defs/>
  <g>
    <path d="M 78.38067626953125 108.48905944824219 C 90.6867904663086 133.12063598632812 82.44343566894531 119.5562744140625 78.30380249023438 124.12393188476562" stroke-width="3.0" fill="none" stroke="rgb(0, 0, 0)" stroke-opacity="1.0" stroke-linecap="round" stroke-linejoin="round"/>
    <path d="M 76.71041870117188 123.3605728149414 C 108.80909729003906 137.17929077148438 113.19214630126953 129.00555419921875 132.55499267578125 128.78805541992188" stroke-width="3.0" fill="none" stroke="rgb(0, 0, 0)" stroke-opacity="1.0" stroke-linecap="round" stroke-linejoin="round"/>
    <path d="M 170.67813110351562 102.24546813964844 C 222.22747802734375 117.08385467529297 195.66720581054688 134.376220703125 217.59486389160156 142.3406524658203" stroke-width="3.0" fill="none" stroke="rgb(0, 0, 0)" stroke-opacity="1.0" stroke-linecap="round" stroke-linejoin="round"/>
    <path d="M 54.94729232788086 58.2110710144043 C 60.92461395263672 161.20521545410156 59.15435028076172 88.2424087524414 35.34601593017578 150.42425537109375" stroke-width="3.0" fill="none" stroke="rgb(0, 0, 0)" stroke-opacity="1.0" stroke-linecap="round" stroke-linejoin="round"/>
    <path d="M 104.86980438232422 86.0484848022461 C 137.88827514648438 95.83419799804688 143.0688018798828 80.1342544555664 174.0765380859375 103.87017822265625" stroke-width="3.0" fill="none" stroke="rgb(0, 0, 0)" stroke-opacity="1.0" stroke-linecap="round" stroke-linejoin="round"/>
    <path d="M 129.22743225097656 127.99790954589844 C 143.23997497558594 130.6664276123047 146.43516540527344 120.83922576904297 124.26570129394531 127.6969223022461" stroke-width="3.0" fill="none" stroke="rgb(0, 0, 0)" stroke-opacity="1.0" stroke-linecap="round" stroke-linejoin="round"/>
    <path d="M 74.06854248046875 122.2171859741211 C 91.38330841064453 103.41352844238281 69.47154998779297 135.76815795898438 82.34893798828125 120.64060974121094" stroke-width="3.0" fill="none" stroke="rgb(0, 0, 0)" stroke-opacity="1.0" stroke-linecap="round" stroke-linejoin="round"/>
    <path d="M 143.2327423095703 129.69970703125 C 117.87024688720703 176.0568389892578 139.35426330566406 158.24710083007812 98.46744537353516 184.65896606445312" stroke-width="3.0" fill="none" stroke="rgb(0, 0, 0)" stroke-opacity="1.0" stroke-linecap="round" stroke-linejoin="round"/>
    <path d="M 52.497154235839844 128.18104553222656 C -14.434510231018066 207.25772094726562 68.26980590820312 134.79287719726562 14.145332336425781 166.391845703125" stroke-width="3.0" fill="none" stroke="rgb(0, 0, 0)" stroke-opacity="1.0" stroke-linecap="round" stroke-linejoin="round"/>
    <path d="M 34.866737365722656 37.45008087158203 C 110.8171615600586 70.14068603515625 56.35589599609375 68.89643096923828 107.48939514160156 87.75788879394531" stroke-width="3.0" fill="none" stroke="rgb(0, 0, 0)" stroke-opacity="1.0" stroke-linecap="round" stroke-linejoin="round"/>
    <path d="M 130.55990600585938 161.66981506347656 C 152.9987335205078 113.09698486328125 150.6926727294922 158.26930236816406 180.15000915527344 106.76718139648438" stroke-width="3.0" fill="none" stroke="rgb(0, 0, 0)" stroke-opacity="1.0" stroke-linecap="round" stroke-linejoin="round"/>
    <path d="M 40.86225891113281 158.2931671142578 C 59.201637268066406 118.6988525390625 51.318756103515625 152.3404541015625 81.78459930419922 114.70081329345703" stroke-width="3.0" fill="none" stroke="rgb(0, 0, 0)" stroke-opacity="1.0" stroke-linecap="round" stroke-linejoin="round"/>
    <path d="M 156.4132537841797 119.07857513427734 C 138.28213500976562 132.0006561279297 163.72451782226562 113.41107940673828 108.44418334960938 131.61146545410156" stroke-width="3.0" fill="none" stroke="rgb(0, 0, 0)" stroke-opacity="1.0" stroke-linecap="round" stroke-linejoin="round"/>
    <path d="M 172.8131561279297 108.01466369628906 C 164.81956481933594 230.29591369628906 137.9559326171875 179.795654296875 162.16468811035156 189.04676818847656" stroke-width="3.0" fill="none" stroke="rgb(0, 0, 0)" stroke-opacity="1.0" stroke-linecap="round" stroke-linejoin="round"/>
    <path d="M 12.14090347290039 75.8878173828125 C 65.46195220947266 16.466609954833984 -9.80693244934082 88.89827728271484 53.330833435058594 39.257720947265625" stroke-width="3.0" fill="none" stroke="rgb(0, 0, 0)" stroke-opacity="1.0" stroke-linecap="round" stroke-linejoin="round"/>
    <path d="M 94.0237045288086 80.92767333984375 C 79.44902801513672 23.252408981323242 -29.979555130004883 49.78453063964844 81.1832046508789 54.5391845703125" stroke-width="3.0" fill="none" stroke="rgb(0, 0, 0)" stroke-opacity="1.0" stroke-linecap="round" stroke-linejoin="round"/>
  </g>
</svg>
