<?xml version="1.0" ?>
<svg xmlns="http://www.w3.org/2000/svg" version="1.1" width="224" height="224">
  <defs/>
  <g>
    <path d="M 79.71438598632812 119.58771514892578 C 89.28424072265625 127.73468017578125 76.1010513305664 127.28235626220703 78.81795501708984 120.4651107788086" stroke-width="3.0" fill="none" stroke="rgb(0, 0, 0)" stroke-opacity="1.0" stroke-linecap="round" stroke-linejoin="round"/>
    <path d="M 76.57167053222656 124.16496276855469 C 110.10061645507812 133.64328002929688 112.73502349853516 125.31816864013672 135.9090118408203 122.78559875488281" stroke-width="3.0" fill="none" stroke="rgb(0, 0, 0)" stroke-opacity="1.0" stroke-linecap="round" stroke-linejoin="round"/>
    <path d="M 151.4834442138672 90.02677154541016 C 225.8582000732422 119.15306854248047 189.1907958984375 125.83202362060547 216.77984619140625 141.44232177734375" stroke-width="3.0" fill="none" stroke="rgb(0, 0, 0)" stroke-opacity="1.0" stroke-linecap="round" stroke-linejoin="round"/>
    <path d="M 52.27596664428711 70.21146392822266 C 41.724761962890625 152.40478515625 79.43085479736328 86.2042465209961 34.68553924560547 159.5688934326172" stroke-width="3.0" fill="none" stroke="rgb(0, 0, 0)" stroke-opacity="1.0" stroke-linecap="round" stroke-linejoin="round"/>
    <path d="M 122.99828338623047 88.36970520019531 C 138.5442657470703 90.10433197021484 153.553955078125 82.5959243774414 171.72340393066406 104.44122314453125" stroke-width="3.0" fill="none" stroke="rgb(0, 0, 0)" stroke-opacity="1.0" stroke-linecap="round" stroke-linejoin="round"/>
    <path d="M 146.2747802734375 120.53890228271484 C 145.8922576904297 123.8701171875 129.7141876220703 121.9189682006836 139.15037536621094 121.54066467285156" stroke-width="3.0" fill="none" stroke="rgb(0, 0, 0)" stroke-opacity="1.0" stroke-linecap="round" stroke-linejoin="round"/>
    <path d="M 77.07698822021484 120.0593032836914 C 84.07887268066406 120.0616226196289 62.4730110168457 135.3597869873047 85.67864990234375 110.36093139648438" stroke-width="3.0" fill="none" stroke="rgb(0, 0, 0)" stroke-opacity="1.0" stroke-linecap="round" stroke-linejoin="round"/>
    <path d="M 140.00881958007812 127.48477935791016 C 126.43067169189453 175.32009887695312 141.54852294921875 154.83810424804688 97.38169860839844 185.72344970703125" stroke-width="3.0" fill="none" stroke="rgb(0, 0, 0)" stroke-opacity="1.0" stroke-linecap="round" stroke-linejoin="round"/>
    <path d="M 54.91624450683594 128.1402130126953 C -3.559475898742676 174.1321258544922 51.03042984008789 151.88316345214844 15.060394287109375 169.42611694335938" stroke-width="3.0" fill="none" stroke="rgb(0, 0, 0)" stroke-opacity="1.0" stroke-linecap="round" stroke-linejoin="round"/>
    <path d="M 47.139095306396484 41.22268295288086 C 117.1019058227539 92.90433502197266 67.8121566772461 84.53446960449219 136.4264678955078 89.01921844482422" stroke-width="3.0" fill="none" stroke="rgb(0, 0, 0)" stroke-opacity="1.0" stroke-linecap="round" stroke-linejoin="round"/>
    <path d="M 135.18345642089844 160.60398864746094 C 154.3962860107422 116.29234313964844 154.84375 156.88189697265625 179.5803985595703 106.111328125" stroke-width="3.0" fill="none" stroke="rgb(0, 0, 0)" stroke-opacity="1.0" stroke-linecap="round" stroke-linejoin="round"/>
    <path d="M 31.575542449951172 154.49659729003906 C 75.00550842285156 121.57459259033203 60.40705871582031 145.98611450195312 73.09127044677734 117.04431915283203" stroke-width="3.0" fill="none" stroke="rgb(0, 0, 0)" stroke-opacity="1.0" stroke-linecap="round" stroke-linejoin="round"/>
    <path d="M 155.4113006591797 120.49839782714844 C 137.67605590820312 134.2472686767578 134.68890380859375 125.75643157958984 141.1875762939453 131.19671630859375" stroke-width="3.0" fill="none" stroke="rgb(0, 0, 0)" stroke-opacity="1.0" stroke-linecap="round" stroke-linejoin="round"/>
    <path d="M 170.87120056152344 111.6429214477539 C 174.379638671875 189.26565551757812 142.6106414794922 207.0992889404297 162.1639404296875 192.82186889648438" stroke-width="3.0" fill="none" stroke="rgb(0, 0, 0)" stroke-opacity="1.0" stroke-linecap="round" stroke-linejoin="round"/>
    <path d="M 13.23531436920166 76.22129821777344 C 74.46832275390625 15.336774826049805 -22.537498474121094 69.72769165039062 67.1135025024414 49.73135757446289" stroke-width="3.0" fill="none" stroke="rgb(0, 0, 0)" stroke-opacity="1.0" stroke-linecap="round" stroke-linejoin="round"/>
    <path d="M 90.48888397216797 67.46308135986328 C 32.307861328125 45.927696228027344 -1.0684106349945068 29.568744659423828 83.79755401611328 59.63092041015625" stroke-width="3.0" fill="none" stroke="rgb(0, 0, 0)" stroke-opacity="1.0" stroke-linecap="round" stroke-linejoin="round"/>
  </g>
</svg>
