<?xml version="1.0" ?>
<svg xmlns="http://www.w3.org/2000/svg" version="1.1" width="224" height="224">
  <defs/>
  <g>
    <path d="M 100.33626556396484 109.99028015136719 C 103.9195327758789 112.42369842529297 110.01498413085938 115.98841857910156 100.12732696533203 109.5289535522461" stroke-width="3.0" fill="none" stroke="rgb(0, 0, 0)" stroke-opacity="1.0" stroke-linecap="round" stroke-linejoin="round"/>
    <path d="M 97.5501480102539 131.2568359375 C 117.55523681640625 120.52793884277344 101.1987075805664 137.5266571044922 126.79637145996094 118.01504516601562" stroke-width="3.0" fill="none" stroke="rgb(0, 0, 0)" stroke-opacity="1.0" stroke-linecap="round" stroke-linejoin="round"/>
    <path d="M 171.26116943359375 101.38182830810547 C 211.1605224609375 110.36598205566406 183.00335693359375 119.89322662353516 212.60923767089844 146.5709991455078" stroke-width="3.0" fill="none" stroke="rgb(0, 0, 0)" stroke-opacity="1.0" stroke-linecap="round" stroke-linejoin="round"/>
    <path d="M 49.868499755859375 98.45509338378906 C 50.92646408081055 119.13333892822266 53.1913948059082 104.57359313964844 60.47850036621094 122.85904693603516" stroke-width="3.0" fill="none" stroke="rgb(0, 0, 0)" stroke-opacity="1.0" stroke-linecap="round" stroke-linejoin="round"/>
    <path d="M 148.43019104003906 91.43876647949219 C 155.1708221435547 94.36773681640625 142.46363830566406 91.8169937133789 155.18544006347656 95.55155181884766" stroke-width="3.0" fill="none" stroke="rgb(0, 0, 0)" stroke-opacity="1.0" stroke-linecap="round" stroke-linejoin="round"/>
    <path d="M 136.04730224609375 110.09008026123047 C 128.0050811767578 125.4449691772461 116.18756103515625 128.51707458496094 128.65040588378906 115.62184143066406" stroke-width="3.0" fill="none" stroke="rgb(0, 0, 0)" stroke-opacity="1.0" stroke-linecap="round" stroke-linejoin="round"/>
    <path d="M 93.55595397949219 108.21109008789062 C 92.2001724243164 96.95289611816406 90.04177856445312 98.10099792480469 83.6784896850586 115.71947479248047" stroke-width="3.0" fill="none" stroke="rgb(0, 0, 0)" stroke-opacity="1.0" stroke-linecap="round" stroke-linejoin="round"/>
    <path d="M 125.51142120361328 137.68125915527344 C 141.16998291015625 166.8547821044922 138.6295928955078 152.8229522705078 98.74893188476562 183.95591735839844" stroke-width="3.0" fill="none" stroke="rgb(0, 0, 0)" stroke-opacity="1.0" stroke-linecap="round" stroke-linejoin="round"/>
    <path d="M 47.20948791503906 158.31654357910156 C 34.86920928955078 163.5241241455078 58.5931282043457 135.47100830078125 14.40828800201416 168.01625061035156" stroke-width="3.0" fill="none" stroke="rgb(0, 0, 0)" stroke-opacity="1.0" stroke-linecap="round" stroke-linejoin="round"/>
    <path d="M 94.462890625 79.58522033691406 C 105.18157196044922 87.64933776855469 105.54753875732422 88.64202880859375 118.53681182861328 92.09835052490234" stroke-width="3.0" fill="none" stroke="rgb(0, 0, 0)" stroke-opacity="1.0" stroke-linecap="round" stroke-linejoin="round"/>
    <path d="M 125.79849243164062 139.24285888671875 C 122.7404556274414 135.7598114013672 151.54090881347656 141.29946899414062 168.8934326171875 128.1799774169922" stroke-width="3.0" fill="none" stroke="rgb(0, 0, 0)" stroke-opacity="1.0" stroke-linecap="round" stroke-linejoin="round"/>
    <path d="M 72.13021850585938 119.06842803955078 C 95.44776153564453 116.74669647216797 88.40819549560547 97.01504516601562 94.00995635986328 107.0527572631836" stroke-width="3.0" fill="none" stroke="rgb(0, 0, 0)" stroke-opacity="1.0" stroke-linecap="round" stroke-linejoin="round"/>
    <path d="M 143.53607177734375 102.01593780517578 C 138.64622497558594 111.03973388671875 139.56951904296875 106.46514892578125 133.62928771972656 114.34607696533203" stroke-width="3.0" fill="none" stroke="rgb(0, 0, 0)" stroke-opacity="1.0" stroke-linecap="round" stroke-linejoin="round"/>
    <path d="M 157.88824462890625 136.47235107421875 C 184.91712951660156 150.25674438476562 151.91110229492188 189.88772583007812 169.5915985107422 185.65811157226562" stroke-width="3.0" fill="none" stroke="rgb(0, 0, 0)" stroke-opacity="1.0" stroke-linecap="round" stroke-linejoin="round"/>
    <path d="M 25.585952758789062 46.218841552734375 C 53.33329772949219 35.29130935668945 63.9506950378418 55.05088424682617 68.76483154296875 43.38274002075195" stroke-width="3.0" fill="none" stroke="rgb(0, 0, 0)" stroke-opacity="1.0" stroke-linecap="round" stroke-linejoin="round"/>
    <path d="M 96.08138275146484 65.45260620117188 C 82.68841552734375 48.313228607177734 81.18036651611328 58.20933151245117 73.9721908569336 46.02770233154297" stroke-width="3.0" fill="none" stroke="rgb(0, 0, 0)" stroke-opacity="1.0" stroke-linecap="round" stroke-linejoin="round"/>
  </g>
</svg>
