<?xml version="1.0" ?>
<svg xmlns="http://www.w3.org/2000/svg" version="1.1" width="224" height="224">
  <defs/>
  <g>
    <path d="M 78.74868774414062 109.71812438964844 C 88.51287841796875 131.04258728027344 82.55378723144531 119.17355346679688 79.10395050048828 119.50927734375" stroke-width="3.0" fill="none" stroke="rgb(0, 0, 0)" stroke-opacity="1.0" stroke-linecap="round" stroke-linejoin="round"/>
    <path d="M 74.62612915039062 123.948486328125 C 115.03243255615234 133.40017700195312 111.91996765136719 125.26119232177734 133.9758758544922 123.499267578125" stroke-width="3.0" fill="none" stroke="rgb(0, 0, 0)" stroke-opacity="1.0" stroke-linecap="round" stroke-linejoin="round"/>
    <path d="M 164.94561767578125 97.4991683959961 C 222.31201171875 118.98343658447266 194.87771606445312 131.80474853515625 215.2017822265625 141.87307739257812" stroke-width="3.0" fill="none" stroke="rgb(0, 0, 0)" stroke-opacity="1.0" stroke-linecap="round" stroke-linejoin="round"/>
    <path d="M 52.8365364074707 68.93035125732422 C 48.88119888305664 151.0084991455078 76.44142150878906 75.26207733154297 36.8104362487793 156.2220458984375" stroke-width="3.0" fill="none" stroke="rgb(0, 0, 0)" stroke-opacity="1.0" stroke-linecap="round" stroke-linejoin="round"/>
    <path d="M 117.31736755371094 88.5849380493164 C 136.04824829101562 89.8082046508789 152.39926147460938 79.07914733886719 171.2111358642578 105.36602020263672" stroke-width="3.0" fill="none" stroke="rgb(0, 0, 0)" stroke-opacity="1.0" stroke-linecap="round" stroke-linejoin="round"/>
    <path d="M 134.62887573242188 122.92268371582031 C 128.9195556640625 126.9159927368164 138.457275390625 126.17332458496094 135.0298309326172 122.67411804199219" stroke-width="3.0" fill="none" stroke="rgb(0, 0, 0)" stroke-opacity="1.0" stroke-linecap="round" stroke-linejoin="round"/>
    <path d="M 79.5979995727539 122.91214752197266 C 90.85267639160156 106.05213165283203 63.8208122253418 131.19667053222656 83.99479675292969 118.44338989257812" stroke-width="3.0" fill="none" stroke="rgb(0, 0, 0)" stroke-opacity="1.0" stroke-linecap="round" stroke-linejoin="round"/>
    <path d="M 141.24342346191406 128.88919067382812 C 120.63558959960938 177.21290588378906 141.5059356689453 155.1580810546875 98.4975357055664 184.2239227294922" stroke-width="3.0" fill="none" stroke="rgb(0, 0, 0)" stroke-opacity="1.0" stroke-linecap="round" stroke-linejoin="round"/>
    <path d="M 57.72682571411133 122.32275390625 C -9.612425804138184 176.50497436523438 63.686370849609375 149.062255859375 15.505352020263672 169.5062255859375" stroke-width="3.0" fill="none" stroke="rgb(0, 0, 0)" stroke-opacity="1.0" stroke-linecap="round" stroke-linejoin="round"/>
    <path d="M 37.61502456665039 36.24126052856445 C 126.00366973876953 86.45941162109375 53.245975494384766 75.4157943725586 118.95083618164062 88.89209747314453" stroke-width="3.0" fill="none" stroke="rgb(0, 0, 0)" stroke-opacity="1.0" stroke-linecap="round" stroke-linejoin="round"/>
    <path d="M 132.383544921875 160.9540252685547 C 152.24749755859375 115.3116455078125 148.0392303466797 156.90902709960938 182.42286682128906 108.22500610351562" stroke-width="3.0" fill="none" stroke="rgb(0, 0, 0)" stroke-opacity="1.0" stroke-linecap="round" stroke-linejoin="round"/>
    <path d="M 33.1435661315918 150.20449829101562 C 75.13851928710938 117.91167449951172 61.25759506225586 140.36801147460938 74.94127655029297 116.39077758789062" stroke-width="3.0" fill="none" stroke="rgb(0, 0, 0)" stroke-opacity="1.0" stroke-linecap="round" stroke-linejoin="round"/>
    <path d="M 151.60707092285156 116.82893371582031 C 139.6437225341797 125.3862533569336 139.00762939453125 119.01753234863281 129.06520080566406 124.70762634277344" stroke-width="3.0" fill="none" stroke="rgb(0, 0, 0)" stroke-opacity="1.0" stroke-linecap="round" stroke-linejoin="round"/>
    <path d="M 172.8273162841797 112.82789611816406 C 164.27577209472656 228.40109252929688 136.36598205566406 179.66746520996094 161.61981201171875 187.5642547607422" stroke-width="3.0" fill="none" stroke="rgb(0, 0, 0)" stroke-opacity="1.0" stroke-linecap="round" stroke-linejoin="round"/>
    <path d="M 12.83140754699707 76.01140594482422 C 66.07328796386719 18.052013397216797 -18.42768096923828 71.75092315673828 56.48859786987305 40.593570709228516" stroke-width="3.0" fill="none" stroke="rgb(0, 0, 0)" stroke-opacity="1.0" stroke-linecap="round" stroke-linejoin="round"/>
    <path d="M 91.67650604248047 69.78545379638672 C 54.57697677612305 27.57050895690918 -7.451242446899414 36.38762283325195 81.06048583984375 53.58647155761719" stroke-width="3.0" fill="none" stroke="rgb(0, 0, 0)" stroke-opacity="1.0" stroke-linecap="round" stroke-linejoin="round"/>
  </g>
</svg>
