<?xml version="1.0" ?>
<svg xmlns="http://www.w3.org/2000/svg" version="1.1" width="224" height="224">
  <defs/>
  <g>
    <path d="M 81.30622100830078 111.27627563476562 C 79.71915435791016 130.42852783203125 78.28559112548828 116.50091552734375 77.49948120117188 123.52180480957031" stroke-width="3.0" fill="none" stroke="rgb(0, 0, 0)" stroke-opacity="1.0" stroke-linecap="round" stroke-linejoin="round"/>
    <path d="M 74.43209838867188 121.7869644165039 C 102.12445831298828 137.9885711669922 122.65718078613281 128.93309020996094 139.8223114013672 127.552490234375" stroke-width="3.0" fill="none" stroke="rgb(0, 0, 0)" stroke-opacity="1.0" stroke-linecap="round" stroke-linejoin="round"/>
    <path d="M 172.9021759033203 102.51457977294922 C 216.3680877685547 116.07260131835938 194.1336212158203 133.85711669921875 215.3031768798828 145.2707061767578" stroke-width="3.0" fill="none" stroke="rgb(0, 0, 0)" stroke-opacity="1.0" stroke-linecap="round" stroke-linejoin="round"/>
    <path d="M 46.19435501098633 59.19110107421875 C 73.75823974609375 154.31394958496094 44.12987518310547 95.18917083740234 35.405601501464844 148.64051818847656" stroke-width="3.0" fill="none" stroke="rgb(0, 0, 0)" stroke-opacity="1.0" stroke-linecap="round" stroke-linejoin="round"/>
    <path d="M 107.73886108398438 86.3665542602539 C 146.007568359375 89.3282699584961 142.29403686523438 78.4706039428711 181.44662475585938 107.16160583496094" stroke-width="3.0" fill="none" stroke="rgb(0, 0, 0)" stroke-opacity="1.0" stroke-linecap="round" stroke-linejoin="round"/>
    <path d="M 137.6376190185547 125.72148895263672 C 137.0595245361328 128.6751708984375 150.51864624023438 119.71424865722656 124.08610534667969 126.72599792480469" stroke-width="3.0" fill="none" stroke="rgb(0, 0, 0)" stroke-opacity="1.0" stroke-linecap="round" stroke-linejoin="round"/>
    <path d="M 69.502197265625 123.7484130859375 C 91.57310485839844 105.45303344726562 61.83481216430664 131.95431518554688 79.82992553710938 116.92884063720703" stroke-width="3.0" fill="none" stroke="rgb(0, 0, 0)" stroke-opacity="1.0" stroke-linecap="round" stroke-linejoin="round"/>
    <path d="M 139.65277099609375 131.1099853515625 C 121.26859283447266 178.4011688232422 143.0237579345703 156.7023468017578 97.7594223022461 184.39476013183594" stroke-width="3.0" fill="none" stroke="rgb(0, 0, 0)" stroke-opacity="1.0" stroke-linecap="round" stroke-linejoin="round"/>
    <path d="M 47.89872741699219 130.26284790039062 C -12.323143005371094 214.88308715820312 68.3126220703125 128.80752563476562 15.6399507522583 168.5106964111328" stroke-width="3.0" fill="none" stroke="rgb(0, 0, 0)" stroke-opacity="1.0" stroke-linecap="round" stroke-linejoin="round"/>
    <path d="M 34.71295928955078 35.31271743774414 C 107.41370391845703 71.45327758789062 55.09652328491211 64.0541763305664 107.85543060302734 85.2359390258789" stroke-width="3.0" fill="none" stroke="rgb(0, 0, 0)" stroke-opacity="1.0" stroke-linecap="round" stroke-linejoin="round"/>
    <path d="M 132.47210693359375 161.79339599609375 C 156.31097412109375 115.16259002685547 152.19552612304688 158.29542541503906 182.18115234375 109.06105041503906" stroke-width="3.0" fill="none" stroke="rgb(0, 0, 0)" stroke-opacity="1.0" stroke-linecap="round" stroke-linejoin="round"/>
    <path d="M 38.716094970703125 161.0585174560547 C 62.07672882080078 114.76480102539062 45.55534362792969 149.4495086669922 80.56784057617188 114.08767700195312" stroke-width="3.0" fill="none" stroke="rgb(0, 0, 0)" stroke-opacity="1.0" stroke-linecap="round" stroke-linejoin="round"/>
    <path d="M 159.75465393066406 119.39915466308594 C 135.7672576904297 130.50430297851562 161.8212127685547 117.07583618164062 104.03414154052734 130.17849731445312" stroke-width="3.0" fill="none" stroke="rgb(0, 0, 0)" stroke-opacity="1.0" stroke-linecap="round" stroke-linejoin="round"/>
    <path d="M 172.95077514648438 106.85945129394531 C 165.16156005859375 230.68170166015625 138.3612518310547 182.95912170410156 159.87452697753906 190.68280029296875" stroke-width="3.0" fill="none" stroke="rgb(0, 0, 0)" stroke-opacity="1.0" stroke-linecap="round" stroke-linejoin="round"/>
    <path d="M 10.458669662475586 74.26487731933594 C 69.09298706054688 4.456180095672607 -21.284420013427734 81.63272094726562 54.718997955322266 35.55788803100586" stroke-width="3.0" fill="none" stroke="rgb(0, 0, 0)" stroke-opacity="1.0" stroke-linecap="round" stroke-linejoin="round"/>
    <path d="M 95.09285736083984 75.02042388916016 C 76.35382080078125 21.026554107666016 -37.59246063232422 43.73605728149414 82.27483367919922 50.91623306274414" stroke-width="3.0" fill="none" stroke="rgb(0, 0, 0)" stroke-opacity="1.0" stroke-linecap="round" stroke-linejoin="round"/>
  </g>
</svg>
