<?xml version="1.0" ?>
<svg xmlns="http://www.w3.org/2000/svg" version="1.1" width="224" height="224">
  <defs/>
  <g>
    <path d="M 79.63768768310547 113.42382049560547 C 72.03977966308594 130.85897827148438 83.16690826416016 118.95062255859375 73.35987854003906 122.12427520751953" stroke-width="3.0" fill="none" stroke="rgb(0, 0, 0)" stroke-opacity="1.0" stroke-linecap="round" stroke-linejoin="round"/>
    <path d="M 69.4722900390625 125.65265655517578 C 109.23392486572266 137.6878662109375 119.58128356933594 129.15599060058594 136.4450225830078 128.19976806640625" stroke-width="3.0" fill="none" stroke="rgb(0, 0, 0)" stroke-opacity="1.0" stroke-linecap="round" stroke-linejoin="round"/>
    <path d="M 168.51101684570312 103.3846206665039 C 214.8988494873047 115.18794250488281 196.20901489257812 137.5431671142578 215.40020751953125 142.6763458251953" stroke-width="3.0" fill="none" stroke="rgb(0, 0, 0)" stroke-opacity="1.0" stroke-linecap="round" stroke-linejoin="round"/>
    <path d="M 47.493289947509766 60.82250213623047 C 72.3851318359375 153.46986389160156 43.79315948486328 100.24767303466797 36.46897506713867 149.03848266601562" stroke-width="3.0" fill="none" stroke="rgb(0, 0, 0)" stroke-opacity="1.0" stroke-linecap="round" stroke-linejoin="round"/>
    <path d="M 104.19406127929688 87.63697814941406 C 151.52688598632812 90.25809478759766 141.77349853515625 78.92034912109375 179.4980926513672 105.63424682617188" stroke-width="3.0" fill="none" stroke="rgb(0, 0, 0)" stroke-opacity="1.0" stroke-linecap="round" stroke-linejoin="round"/>
    <path d="M 137.02552795410156 128.94374084472656 C 134.8185272216797 128.0727081298828 151.73939514160156 125.02326965332031 114.53569793701172 129.17825317382812" stroke-width="3.0" fill="none" stroke="rgb(0, 0, 0)" stroke-opacity="1.0" stroke-linecap="round" stroke-linejoin="round"/>
    <path d="M 68.62593841552734 126.01520538330078 C 90.06596374511719 106.44861602783203 60.654117584228516 132.01486206054688 77.09159851074219 116.83987426757812" stroke-width="3.0" fill="none" stroke="rgb(0, 0, 0)" stroke-opacity="1.0" stroke-linecap="round" stroke-linejoin="round"/>
    <path d="M 138.12399291992188 129.76837158203125 C 123.17453002929688 173.59295654296875 140.18667602539062 156.44482421875 99.92772674560547 183.1720428466797" stroke-width="3.0" fill="none" stroke="rgb(0, 0, 0)" stroke-opacity="1.0" stroke-linecap="round" stroke-linejoin="round"/>
    <path d="M 46.044944763183594 135.96914672851562 C -13.483101844787598 211.562744140625 68.61250305175781 129.98455810546875 15.206100463867188 168.99546813964844" stroke-width="3.0" fill="none" stroke="rgb(0, 0, 0)" stroke-opacity="1.0" stroke-linecap="round" stroke-linejoin="round"/>
    <path d="M 34.434173583984375 37.04419708251953 C 100.79055786132812 72.45860290527344 52.69721984863281 65.0456314086914 108.46537017822266 86.2280044555664" stroke-width="3.0" fill="none" stroke="rgb(0, 0, 0)" stroke-opacity="1.0" stroke-linecap="round" stroke-linejoin="round"/>
    <path d="M 131.80548095703125 163.67005920410156 C 153.0741729736328 114.70880889892578 149.8889923095703 158.45570373535156 177.58016967773438 111.66063690185547" stroke-width="3.0" fill="none" stroke="rgb(0, 0, 0)" stroke-opacity="1.0" stroke-linecap="round" stroke-linejoin="round"/>
    <path d="M 38.41099548339844 160.47848510742188 C 61.7592658996582 112.27770233154297 51.07412338256836 148.31910705566406 82.31742858886719 110.58905029296875" stroke-width="3.0" fill="none" stroke="rgb(0, 0, 0)" stroke-opacity="1.0" stroke-linecap="round" stroke-linejoin="round"/>
    <path d="M 156.91445922851562 119.49517822265625 C 134.53453063964844 130.68682861328125 164.80970764160156 117.10267639160156 98.93656158447266 131.19554138183594" stroke-width="3.0" fill="none" stroke="rgb(0, 0, 0)" stroke-opacity="1.0" stroke-linecap="round" stroke-linejoin="round"/>
    <path d="M 171.69869995117188 106.5994873046875 C 165.39947509765625 232.83583068847656 139.41635131835938 183.75436401367188 162.84825134277344 189.21893310546875" stroke-width="3.0" fill="none" stroke="rgb(0, 0, 0)" stroke-opacity="1.0" stroke-linecap="round" stroke-linejoin="round"/>
    <path d="M 14.873225212097168 75.73564910888672 C 67.23922729492188 8.919761657714844 -13.764811515808105 87.86117553710938 56.12754821777344 38.889183044433594" stroke-width="3.0" fill="none" stroke="rgb(0, 0, 0)" stroke-opacity="1.0" stroke-linecap="round" stroke-linejoin="round"/>
    <path d="M 94.92528533935547 73.7634048461914 C 80.24991607666016 24.115009307861328 -27.762104034423828 41.42532730102539 84.37039947509766 50.7390251159668" stroke-width="3.0" fill="none" stroke="rgb(0, 0, 0)" stroke-opacity="1.0" stroke-linecap="round" stroke-linejoin="round"/>
  </g>
</svg>
