<?xml version="1.0" ?>
<svg xmlns="http://www.w3.org/2000/svg" version="1.1" width="224" height="224">
  <defs/>
  <g>
    <path d="M 76.96257019042969 114.84361267089844 C 71.82982635498047 133.1765594482422 83.365966796875 122.3336181640625 73.38311767578125 119.48493957519531" stroke-width="3.0" fill="none" stroke="rgb(0, 0, 0)" stroke-opacity="1.0" stroke-linecap="round" stroke-linejoin="round"/>
    <path d="M 70.76174926757812 123.20420837402344 C 109.45101165771484 137.4791717529297 119.50746154785156 132.14016723632812 136.30026245117188 133.1251678466797" stroke-width="3.0" fill="none" stroke="rgb(0, 0, 0)" stroke-opacity="1.0" stroke-linecap="round" stroke-linejoin="round"/>
    <path d="M 170.16702270507812 100.86983489990234 C 215.56881713867188 114.0666275024414 196.7471160888672 136.61041259765625 218.0348358154297 139.6554412841797" stroke-width="3.0" fill="none" stroke="rgb(0, 0, 0)" stroke-opacity="1.0" stroke-linecap="round" stroke-linejoin="round"/>
    <path d="M 48.0605583190918 59.833011627197266 C 71.98008728027344 157.42982482910156 41.809696197509766 99.82416534423828 33.60423278808594 147.78125" stroke-width="3.0" fill="none" stroke="rgb(0, 0, 0)" stroke-opacity="1.0" stroke-linecap="round" stroke-linejoin="round"/>
    <path d="M 106.32879638671875 88.31980895996094 C 148.06593322753906 90.95082092285156 144.8287811279297 79.76765441894531 179.06204223632812 109.04637145996094" stroke-width="3.0" fill="none" stroke="rgb(0, 0, 0)" stroke-opacity="1.0" stroke-linecap="round" stroke-linejoin="round"/>
    <path d="M 137.7626953125 127.70682525634766 C 133.9956817626953 130.39852905273438 150.18568420410156 125.63412475585938 114.5950927734375 128.12551879882812" stroke-width="3.0" fill="none" stroke="rgb(0, 0, 0)" stroke-opacity="1.0" stroke-linecap="round" stroke-linejoin="round"/>
    <path d="M 71.26530456542969 124.16370391845703 C 92.8574447631836 111.23579406738281 57.48162841796875 129.20730590820312 78.03498077392578 116.7184066772461" stroke-width="3.0" fill="none" stroke="rgb(0, 0, 0)" stroke-opacity="1.0" stroke-linecap="round" stroke-linejoin="round"/>
    <path d="M 138.1435089111328 129.0881805419922 C 122.71118927001953 173.08102416992188 137.8402099609375 157.1635284423828 97.83987426757812 184.00881958007812" stroke-width="3.0" fill="none" stroke="rgb(0, 0, 0)" stroke-opacity="1.0" stroke-linecap="round" stroke-linejoin="round"/>
    <path d="M 43.26704406738281 133.96070861816406 C -14.877633094787598 213.8460235595703 68.37353515625 128.06906127929688 14.558693885803223 169.2857666015625" stroke-width="3.0" fill="none" stroke="rgb(0, 0, 0)" stroke-opacity="1.0" stroke-linecap="round" stroke-linejoin="round"/>
    <path d="M 33.58515548706055 37.18825912475586 C 101.5910415649414 72.81917572021484 52.241722106933594 65.25154113769531 105.3446044921875 86.40742492675781" stroke-width="3.0" fill="none" stroke="rgb(0, 0, 0)" stroke-opacity="1.0" stroke-linecap="round" stroke-linejoin="round"/>
    <path d="M 134.63311767578125 159.49021911621094 C 152.59951782226562 117.00336456298828 149.03041076660156 152.8568115234375 178.8385467529297 112.72209167480469" stroke-width="3.0" fill="none" stroke="rgb(0, 0, 0)" stroke-opacity="1.0" stroke-linecap="round" stroke-linejoin="round"/>
    <path d="M 37.178794860839844 162.9300994873047 C 56.68921661376953 109.76563262939453 52.28532791137695 152.6074676513672 80.31830596923828 106.76066589355469" stroke-width="3.0" fill="none" stroke="rgb(0, 0, 0)" stroke-opacity="1.0" stroke-linecap="round" stroke-linejoin="round"/>
    <path d="M 157.5662841796875 117.011962890625 C 133.6641845703125 131.80926513671875 163.73666381835938 118.15978240966797 100.65814971923828 131.3752899169922" stroke-width="3.0" fill="none" stroke="rgb(0, 0, 0)" stroke-opacity="1.0" stroke-linecap="round" stroke-linejoin="round"/>
    <path d="M 172.5595245361328 108.70506286621094 C 164.81971740722656 228.0582733154297 135.61399841308594 176.9632568359375 161.9298858642578 186.91404724121094" stroke-width="3.0" fill="none" stroke="rgb(0, 0, 0)" stroke-opacity="1.0" stroke-linecap="round" stroke-linejoin="round"/>
    <path d="M 16.479713439941406 76.62639617919922 C 71.91600799560547 5.980103969573975 -12.489089012145996 84.10039520263672 60.291656494140625 37.1646842956543" stroke-width="3.0" fill="none" stroke="rgb(0, 0, 0)" stroke-opacity="1.0" stroke-linecap="round" stroke-linejoin="round"/>
    <path d="M 94.29754638671875 74.03579711914062 C 81.02993774414062 22.534578323364258 -25.598102569580078 41.7899055480957 80.22591400146484 50.658504486083984" stroke-width="3.0" fill="none" stroke="rgb(0, 0, 0)" stroke-opacity="1.0" stroke-linecap="round" stroke-linejoin="round"/>
  </g>
</svg>
