<?xml version="1.0" ?>
<svg xmlns="http://www.w3.org/2000/svg" version="1.1" width="224" height="224">
  <defs/>
  <g>
    <path d="M 82.4866943359375 119.28153228759766 C 94.77217864990234 126.62325286865234 79.94017791748047 125.11422729492188 79.61337280273438 118.42201232910156" stroke-width="3.0" fill="none" stroke="rgb(0, 0, 0)" stroke-opacity="1.0" stroke-linecap="round" stroke-linejoin="round"/>
    <path d="M 75.4454574584961 123.67302703857422 C 112.92083740234375 133.082763671875 113.04438781738281 126.00720977783203 139.16409301757812 122.738525390625" stroke-width="3.0" fill="none" stroke="rgb(0, 0, 0)" stroke-opacity="1.0" stroke-linecap="round" stroke-linejoin="round"/>
    <path d="M 154.1398162841797 91.86299896240234 C 225.68438720703125 126.08561706542969 189.71131896972656 132.88645935058594 214.86053466796875 145.0709228515625" stroke-width="3.0" fill="none" stroke="rgb(0, 0, 0)" stroke-opacity="1.0" stroke-linecap="round" stroke-linejoin="round"/>
    <path d="M 54.952003479003906 66.1349868774414 C 38.14737319946289 154.8234100341797 73.10004425048828 81.72330474853516 36.67570114135742 156.93026733398438" stroke-width="3.0" fill="none" stroke="rgb(0, 0, 0)" stroke-opacity="1.0" stroke-linecap="round" stroke-linejoin="round"/>
    <path d="M 123.53069305419922 88.92778778076172 C 136.9765167236328 91.1114730834961 153.91893005371094 82.3318862915039 171.6012420654297 106.04362487792969" stroke-width="3.0" fill="none" stroke="rgb(0, 0, 0)" stroke-opacity="1.0" stroke-linecap="round" stroke-linejoin="round"/>
    <path d="M 154.02455139160156 121.68595123291016 C 147.59107971191406 126.24201965332031 128.25733947753906 123.10218811035156 135.27049255371094 123.32734680175781" stroke-width="3.0" fill="none" stroke="rgb(0, 0, 0)" stroke-opacity="1.0" stroke-linecap="round" stroke-linejoin="round"/>
    <path d="M 79.2383041381836 120.9183120727539 C 92.25053405761719 114.98707580566406 64.70365142822266 131.18994140625 85.51918029785156 112.77825164794922" stroke-width="3.0" fill="none" stroke="rgb(0, 0, 0)" stroke-opacity="1.0" stroke-linecap="round" stroke-linejoin="round"/>
    <path d="M 137.99530029296875 125.78575134277344 C 126.73493957519531 177.0736541748047 140.54281616210938 156.84182739257812 98.10092163085938 183.32786560058594" stroke-width="3.0" fill="none" stroke="rgb(0, 0, 0)" stroke-opacity="1.0" stroke-linecap="round" stroke-linejoin="round"/>
    <path d="M 53.079811096191406 130.0516815185547 C -1.2342054843902588 170.95828247070312 55.02234649658203 151.94485473632812 17.121170043945312 167.96275329589844" stroke-width="3.0" fill="none" stroke="rgb(0, 0, 0)" stroke-opacity="1.0" stroke-linecap="round" stroke-linejoin="round"/>
    <path d="M 43.270660400390625 43.62223815917969 C 113.06538391113281 89.23713684082031 60.633209228515625 76.46893310546875 125.71913146972656 89.66873168945312" stroke-width="3.0" fill="none" stroke="rgb(0, 0, 0)" stroke-opacity="1.0" stroke-linecap="round" stroke-linejoin="round"/>
    <path d="M 134.65011596679688 159.44662475585938 C 151.32127380371094 118.8580322265625 150.1781463623047 153.95997619628906 183.4713592529297 110.04118347167969" stroke-width="3.0" fill="none" stroke="rgb(0, 0, 0)" stroke-opacity="1.0" stroke-linecap="round" stroke-linejoin="round"/>
    <path d="M 33.02452850341797 152.59420776367188 C 70.8704605102539 114.23738861083984 62.118370056152344 143.07806396484375 73.84478759765625 115.00704193115234" stroke-width="3.0" fill="none" stroke="rgb(0, 0, 0)" stroke-opacity="1.0" stroke-linecap="round" stroke-linejoin="round"/>
    <path d="M 149.3523406982422 117.0205078125 C 132.0923309326172 128.78073120117188 132.3409881591797 129.90771484375 137.35589599609375 136.4539031982422" stroke-width="3.0" fill="none" stroke="rgb(0, 0, 0)" stroke-opacity="1.0" stroke-linecap="round" stroke-linejoin="round"/>
    <path d="M 173.0974884033203 110.7880859375 C 172.00196838378906 193.7058868408203 134.35252380371094 209.6225128173828 159.876953125 191.5623779296875" stroke-width="3.0" fill="none" stroke="rgb(0, 0, 0)" stroke-opacity="1.0" stroke-linecap="round" stroke-linejoin="round"/>
    <path d="M 10.517308235168457 73.13909912109375 C 76.46073150634766 17.681110382080078 -25.96544647216797 78.96405792236328 72.60594177246094 51.590919494628906" stroke-width="3.0" fill="none" stroke="rgb(0, 0, 0)" stroke-opacity="1.0" stroke-linecap="round" stroke-linejoin="round"/>
    <path d="M 89.03387451171875 69.22987365722656 C 38.13500213623047 40.53788757324219 -1.468450903892517 31.047636032104492 83.56652069091797 59.452659606933594" stroke-width="3.0" fill="none" stroke="rgb(0, 0, 0)" stroke-opacity="1.0" stroke-linecap="round" stroke-linejoin="round"/>
  </g>
</svg>
