<?xml version="1.0" ?>
<svg xmlns="http://www.w3.org/2000/svg" version="1.1" width="224" height="224">
  <defs/>
  <g>
    <path d="M 89.59493255615234 124.62224578857422 C 81.11688995361328 122.54136657714844 81.05892181396484 121.74920654296875 76.4979476928711 116.31861877441406" stroke-width="3.0" fill="none" stroke="rgb(0, 0, 0)" stroke-opacity="1.0" stroke-linecap="round" stroke-linejoin="round"/>
    <path d="M 75.17826080322266 118.22834777832031 C 98.7073745727539 137.28408813476562 111.79552459716797 125.06343078613281 133.9703826904297 124.29651641845703" stroke-width="3.0" fill="none" stroke="rgb(0, 0, 0)" stroke-opacity="1.0" stroke-linecap="round" stroke-linejoin="round"/>
    <path d="M 154.38218688964844 91.77429962158203 C 225.32244873046875 120.91891479492188 186.5908203125 129.50680541992188 218.24423217773438 146.05490112304688" stroke-width="3.0" fill="none" stroke="rgb(0, 0, 0)" stroke-opacity="1.0" stroke-linecap="round" stroke-linejoin="round"/>
    <path d="M 58.01555252075195 64.51609802246094 C 43.36176300048828 152.67630004882812 85.83423614501953 101.329345703125 39.71406555175781 148.11614990234375" stroke-width="3.0" fill="none" stroke="rgb(0, 0, 0)" stroke-opacity="1.0" stroke-linecap="round" stroke-linejoin="round"/>
    <path d="M 136.90928649902344 88.66596221923828 C 144.68264770507812 93.30571746826172 163.6423797607422 86.77574157714844 178.3392333984375 108.65765380859375" stroke-width="3.0" fill="none" stroke="rgb(0, 0, 0)" stroke-opacity="1.0" stroke-linecap="round" stroke-linejoin="round"/>
    <path d="M 133.8114776611328 122.4129638671875 C 132.02572631835938 120.54853057861328 118.61529541015625 126.48609161376953 124.4162368774414 124.33370208740234" stroke-width="3.0" fill="none" stroke="rgb(0, 0, 0)" stroke-opacity="1.0" stroke-linecap="round" stroke-linejoin="round"/>
    <path d="M 78.13521575927734 121.36023712158203 C 80.4192123413086 120.27749633789062 65.50804901123047 124.35809326171875 86.5477066040039 125.54174041748047" stroke-width="3.0" fill="none" stroke="rgb(0, 0, 0)" stroke-opacity="1.0" stroke-linecap="round" stroke-linejoin="round"/>
    <path d="M 142.0316162109375 134.99227905273438 C 125.59651947021484 165.1453094482422 150.40447998046875 152.5269012451172 97.7130355834961 185.3605194091797" stroke-width="3.0" fill="none" stroke="rgb(0, 0, 0)" stroke-opacity="1.0" stroke-linecap="round" stroke-linejoin="round"/>
    <path d="M 61.38922882080078 113.60521697998047 C 5.230310916900635 174.4134063720703 67.67890167236328 144.54751586914062 15.781346321105957 168.33599853515625" stroke-width="3.0" fill="none" stroke="rgb(0, 0, 0)" stroke-opacity="1.0" stroke-linecap="round" stroke-linejoin="round"/>
    <path d="M 71.44678497314453 42.43106460571289 C 91.83416748046875 97.98853302001953 100.97737121582031 78.82388305664062 141.6761932373047 89.6495132446289" stroke-width="3.0" fill="none" stroke="rgb(0, 0, 0)" stroke-opacity="1.0" stroke-linecap="round" stroke-linejoin="round"/>
    <path d="M 139.68695068359375 135.35342407226562 C 139.16590881347656 131.89837646484375 140.61270141601562 140.4449005126953 176.25030517578125 116.29666137695312" stroke-width="3.0" fill="none" stroke="rgb(0, 0, 0)" stroke-opacity="1.0" stroke-linecap="round" stroke-linejoin="round"/>
    <path d="M 55.54122543334961 143.79725646972656 C 80.6711196899414 131.36148071289062 67.0048828125 137.03143310546875 75.35912322998047 113.02820587158203" stroke-width="3.0" fill="none" stroke="rgb(0, 0, 0)" stroke-opacity="1.0" stroke-linecap="round" stroke-linejoin="round"/>
    <path d="M 138.47372436523438 116.42362976074219 C 130.40390014648438 124.52352905273438 135.19003295898438 127.51266479492188 131.769287109375 123.46842193603516" stroke-width="3.0" fill="none" stroke="rgb(0, 0, 0)" stroke-opacity="1.0" stroke-linecap="round" stroke-linejoin="round"/>
    <path d="M 165.88494873046875 126.94625091552734 C 191.25250244140625 168.21539306640625 136.35726928710938 208.9100341796875 160.2655792236328 194.31036376953125" stroke-width="3.0" fill="none" stroke="rgb(0, 0, 0)" stroke-opacity="1.0" stroke-linecap="round" stroke-linejoin="round"/>
    <path d="M 14.726723670959473 78.3151626586914 C 65.72296905517578 -6.144047737121582 10.942129135131836 63.12599563598633 63.4024772644043 36.4398078918457" stroke-width="3.0" fill="none" stroke="rgb(0, 0, 0)" stroke-opacity="1.0" stroke-linecap="round" stroke-linejoin="round"/>
    <path d="M 85.37669372558594 63.70336151123047 C 45.77272033691406 39.53147888183594 32.87894821166992 17.514375686645508 78.9046630859375 51.988773345947266" stroke-width="3.0" fill="none" stroke="rgb(0, 0, 0)" stroke-opacity="1.0" stroke-linecap="round" stroke-linejoin="round"/>
  </g>
</svg>
