<?xml version="1.0" ?>
<svg xmlns="http://www.w3.org/2000/svg" version="1.1" width="224" height="224">
  <defs/>
  <g>
    <path d="M 89.86249542236328 126.03623962402344 C 85.41370391845703 119.34971618652344 82.005126953125 122.01344299316406 79.64605712890625 116.84403228759766" stroke-width="3.0" fill="none" stroke="rgb(0, 0, 0)" stroke-opacity="1.0" stroke-linecap="round" stroke-linejoin="round"/>
    <path d="M 73.44058990478516 119.96923065185547 C 103.85672760009766 134.39639282226562 112.37728881835938 126.16899871826172 135.92919921875 122.51164245605469" stroke-width="3.0" fill="none" stroke="rgb(0, 0, 0)" stroke-opacity="1.0" stroke-linecap="round" stroke-linejoin="round"/>
    <path d="M 151.43833923339844 92.5053482055664 C 229.4122314453125 117.782958984375 189.4461669921875 132.4833526611328 216.61241149902344 142.33709716796875" stroke-width="3.0" fill="none" stroke="rgb(0, 0, 0)" stroke-opacity="1.0" stroke-linecap="round" stroke-linejoin="round"/>
    <path d="M 53.48991394042969 64.34721374511719 C 43.0582275390625 145.09756469726562 81.38509368896484 109.51459503173828 38.41716766357422 152.0790252685547" stroke-width="3.0" fill="none" stroke="rgb(0, 0, 0)" stroke-opacity="1.0" stroke-linecap="round" stroke-linejoin="round"/>
    <path d="M 134.0792694091797 87.62049865722656 C 147.97666931152344 90.08521270751953 157.5866241455078 86.75347137451172 165.5510711669922 104.61304473876953" stroke-width="3.0" fill="none" stroke="rgb(0, 0, 0)" stroke-opacity="1.0" stroke-linecap="round" stroke-linejoin="round"/>
    <path d="M 134.74594116210938 122.92475891113281 C 130.19410705566406 120.7606201171875 121.15917205810547 127.14054870605469 125.84020233154297 123.9007568359375" stroke-width="3.0" fill="none" stroke="rgb(0, 0, 0)" stroke-opacity="1.0" stroke-linecap="round" stroke-linejoin="round"/>
    <path d="M 74.77945709228516 118.42399597167969 C 77.0285415649414 120.28849792480469 63.84242248535156 121.09725952148438 87.85200500488281 123.45892333984375" stroke-width="3.0" fill="none" stroke="rgb(0, 0, 0)" stroke-opacity="1.0" stroke-linecap="round" stroke-linejoin="round"/>
    <path d="M 137.32992553710938 134.67298889160156 C 127.4103012084961 166.5442352294922 145.76876831054688 155.78350830078125 97.98014068603516 184.53709411621094" stroke-width="3.0" fill="none" stroke="rgb(0, 0, 0)" stroke-opacity="1.0" stroke-linecap="round" stroke-linejoin="round"/>
    <path d="M 57.337303161621094 116.050537109375 C 0.68868088722229 183.85211181640625 51.08293533325195 153.51364135742188 19.90212631225586 170.22567749023438" stroke-width="3.0" fill="none" stroke="rgb(0, 0, 0)" stroke-opacity="1.0" stroke-linecap="round" stroke-linejoin="round"/>
    <path d="M 75.03827667236328 51.712669372558594 C 89.07730102539062 97.3608169555664 104.94281005859375 81.17816925048828 143.82241821289062 88.87004089355469" stroke-width="3.0" fill="none" stroke="rgb(0, 0, 0)" stroke-opacity="1.0" stroke-linecap="round" stroke-linejoin="round"/>
    <path d="M 137.48873901367188 134.2882537841797 C 138.06089782714844 135.87013244628906 136.6650848388672 139.46302795410156 166.1341552734375 116.3118896484375" stroke-width="3.0" fill="none" stroke="rgb(0, 0, 0)" stroke-opacity="1.0" stroke-linecap="round" stroke-linejoin="round"/>
    <path d="M 59.81327438354492 136.6177215576172 C 79.34815979003906 127.56651306152344 62.418514251708984 135.49697875976562 74.68516540527344 110.74602508544922" stroke-width="3.0" fill="none" stroke="rgb(0, 0, 0)" stroke-opacity="1.0" stroke-linecap="round" stroke-linejoin="round"/>
    <path d="M 139.64202880859375 118.04869842529297 C 133.0249481201172 125.23867797851562 135.2252655029297 125.59095001220703 134.3706817626953 121.66448211669922" stroke-width="3.0" fill="none" stroke="rgb(0, 0, 0)" stroke-opacity="1.0" stroke-linecap="round" stroke-linejoin="round"/>
    <path d="M 155.60916137695312 130.48529052734375 C 184.88722229003906 167.10337829589844 141.03591918945312 194.9320068359375 162.8009033203125 188.69219970703125" stroke-width="3.0" fill="none" stroke="rgb(0, 0, 0)" stroke-opacity="1.0" stroke-linecap="round" stroke-linejoin="round"/>
    <path d="M 13.242557525634766 77.56336212158203 C 57.859317779541016 -8.460810661315918 22.96742820739746 66.03507995605469 69.17874908447266 42.66587448120117" stroke-width="3.0" fill="none" stroke="rgb(0, 0, 0)" stroke-opacity="1.0" stroke-linecap="round" stroke-linejoin="round"/>
    <path d="M 84.15865325927734 66.63217163085938 C 56.19780731201172 40.013763427734375 35.742347717285156 36.63431930541992 82.3919906616211 52.46511459350586" stroke-width="3.0" fill="none" stroke="rgb(0, 0, 0)" stroke-opacity="1.0" stroke-linecap="round" stroke-linejoin="round"/>
  </g>
</svg>
