<?xml version="1.0" ?>
<svg xmlns="http://www.w3.org/2000/svg" version="1.1" width="224" height="224">
  <defs/>
  <g>
    <path d="M 78.04022979736328 124.37657165527344 C 89.51258850097656 129.4849395751953 83.69649505615234 130.07057189941406 82.33789825439453 114.6259765625" stroke-width="3.0" fill="none" stroke="rgb(0, 0, 0)" stroke-opacity="1.0" stroke-linecap="round" stroke-linejoin="round"/>
    <path d="M 75.30109405517578 124.43892669677734 C 109.39568328857422 136.7610321044922 111.70862579345703 127.59143829345703 134.5411834716797 125.51323699951172" stroke-width="3.0" fill="none" stroke="rgb(0, 0, 0)" stroke-opacity="1.0" stroke-linecap="round" stroke-linejoin="round"/>
    <path d="M 150.6844482421875 92.72437286376953 C 229.5113067626953 119.25858306884766 190.77288818359375 130.82357788085938 215.95045471191406 145.31825256347656" stroke-width="3.0" fill="none" stroke="rgb(0, 0, 0)" stroke-opacity="1.0" stroke-linecap="round" stroke-linejoin="round"/>
    <path d="M 63.735687255859375 74.9052734375 C 39.43421936035156 147.83531188964844 82.42159271240234 81.12760925292969 33.58332061767578 155.29554748535156" stroke-width="3.0" fill="none" stroke="rgb(0, 0, 0)" stroke-opacity="1.0" stroke-linecap="round" stroke-linejoin="round"/>
    <path d="M 124.3328857421875 90.0865707397461 C 136.940673828125 90.69378662109375 157.95957946777344 83.09972381591797 172.9999237060547 106.6810531616211" stroke-width="3.0" fill="none" stroke="rgb(0, 0, 0)" stroke-opacity="1.0" stroke-linecap="round" stroke-linejoin="round"/>
    <path d="M 139.39535522460938 124.66886901855469 C 138.41964721679688 123.82600402832031 122.67687225341797 123.84120178222656 133.57008361816406 124.7016372680664" stroke-width="3.0" fill="none" stroke="rgb(0, 0, 0)" stroke-opacity="1.0" stroke-linecap="round" stroke-linejoin="round"/>
    <path d="M 76.99785614013672 125.510498046875 C 85.09480285644531 120.41832733154297 66.91549682617188 128.5910186767578 79.83553314208984 121.63026428222656" stroke-width="3.0" fill="none" stroke="rgb(0, 0, 0)" stroke-opacity="1.0" stroke-linecap="round" stroke-linejoin="round"/>
    <path d="M 139.61807250976562 128.63226318359375 C 122.05497741699219 173.84518432617188 144.09254455566406 154.50209045410156 97.4999771118164 183.7950439453125" stroke-width="3.0" fill="none" stroke="rgb(0, 0, 0)" stroke-opacity="1.0" stroke-linecap="round" stroke-linejoin="round"/>
    <path d="M 58.56554412841797 126.25330352783203 C -4.067636489868164 171.79046630859375 54.02524948120117 149.34661865234375 15.756263732910156 167.58082580566406" stroke-width="3.0" fill="none" stroke="rgb(0, 0, 0)" stroke-opacity="1.0" stroke-linecap="round" stroke-linejoin="round"/>
    <path d="M 51.417335510253906 39.658477783203125 C 107.06611633300781 100.4761962890625 82.37564849853516 77.8956069946289 136.0908203125 93.28359985351562" stroke-width="3.0" fill="none" stroke="rgb(0, 0, 0)" stroke-opacity="1.0" stroke-linecap="round" stroke-linejoin="round"/>
    <path d="M 134.12562561035156 157.0767364501953 C 151.85714721679688 115.33621978759766 161.55357360839844 152.5231170654297 182.99085998535156 109.39852905273438" stroke-width="3.0" fill="none" stroke="rgb(0, 0, 0)" stroke-opacity="1.0" stroke-linecap="round" stroke-linejoin="round"/>
    <path d="M 29.85835838317871 154.03395080566406 C 75.05106353759766 117.24744415283203 58.28643798828125 148.19573974609375 77.29112243652344 110.76449584960938" stroke-width="3.0" fill="none" stroke="rgb(0, 0, 0)" stroke-opacity="1.0" stroke-linecap="round" stroke-linejoin="round"/>
    <path d="M 151.1861114501953 119.86151123046875 C 138.0276641845703 130.98719787597656 135.8695831298828 116.22816467285156 135.9682159423828 128.57504272460938" stroke-width="3.0" fill="none" stroke="rgb(0, 0, 0)" stroke-opacity="1.0" stroke-linecap="round" stroke-linejoin="round"/>
    <path d="M 175.03981018066406 116.8931655883789 C 179.52828979492188 164.76109313964844 142.35191345214844 203.2731170654297 160.2008514404297 190.78916931152344" stroke-width="3.0" fill="none" stroke="rgb(0, 0, 0)" stroke-opacity="1.0" stroke-linecap="round" stroke-linejoin="round"/>
    <path d="M 13.227027893066406 75.70946502685547 C 74.18801879882812 17.616168975830078 -16.708438873291016 57.57182312011719 69.65151977539062 46.44363784790039" stroke-width="3.0" fill="none" stroke="rgb(0, 0, 0)" stroke-opacity="1.0" stroke-linecap="round" stroke-linejoin="round"/>
    <path d="M 87.53568267822266 65.34532165527344 C 38.30306625366211 37.52549743652344 3.6624248027801514 23.7896671295166 82.15312957763672 56.76716232299805" stroke-width="3.0" fill="none" stroke="rgb(0, 0, 0)" stroke-opacity="1.0" stroke-linecap="round" stroke-linejoin="round"/>
  </g>
</svg>
