<?xml version="1.0" ?>
<svg xmlns="http://www.w3.org/2000/svg" version="1.1" width="224" height="224">
  <defs/>
  <g>
    <path d="M 76.95480346679688 112.2546157836914 C 89.01483917236328 133.55088806152344 79.02764129638672 122.701904296875 79.02682495117188 121.45709991455078" stroke-width="3.0" fill="none" stroke="rgb(0, 0, 0)" stroke-opacity="1.0" stroke-linecap="round" stroke-linejoin="round"/>
    <path d="M 72.82868194580078 122.68941497802734 C 112.8019027709961 133.38522338867188 109.70171356201172 125.20945739746094 134.7705078125 124.43064880371094" stroke-width="3.0" fill="none" stroke="rgb(0, 0, 0)" stroke-opacity="1.0" stroke-linecap="round" stroke-linejoin="round"/>
    <path d="M 164.0182342529297 97.00505828857422 C 222.80203247070312 121.77542114257812 193.53553771972656 131.39556884765625 217.3014373779297 143.30201721191406" stroke-width="3.0" fill="none" stroke="rgb(0, 0, 0)" stroke-opacity="1.0" stroke-linecap="round" stroke-linejoin="round"/>
    <path d="M 49.818355560302734 68.99988555908203 C 48.985626220703125 150.8710174560547 73.91902923583984 74.73995208740234 34.103965759277344 156.1844940185547" stroke-width="3.0" fill="none" stroke="rgb(0, 0, 0)" stroke-opacity="1.0" stroke-linecap="round" stroke-linejoin="round"/>
    <path d="M 115.31442260742188 87.48643493652344 C 136.3459930419922 89.9421615600586 153.03067016601562 81.06392669677734 168.4290008544922 105.3895263671875" stroke-width="3.0" fill="none" stroke="rgb(0, 0, 0)" stroke-opacity="1.0" stroke-linecap="round" stroke-linejoin="round"/>
    <path d="M 134.3678741455078 123.05525970458984 C 132.42710876464844 126.02609252929688 141.21975708007812 127.70795440673828 135.17129516601562 124.19169616699219" stroke-width="3.0" fill="none" stroke="rgb(0, 0, 0)" stroke-opacity="1.0" stroke-linecap="round" stroke-linejoin="round"/>
    <path d="M 78.65815734863281 123.65814208984375 C 89.17374420166016 105.8062515258789 62.757503509521484 132.31956481933594 81.65960693359375 121.50023651123047" stroke-width="3.0" fill="none" stroke="rgb(0, 0, 0)" stroke-opacity="1.0" stroke-linecap="round" stroke-linejoin="round"/>
    <path d="M 141.4857940673828 127.39259338378906 C 120.82254791259766 177.9877166748047 141.9126434326172 156.74427795410156 98.84991455078125 184.98097229003906" stroke-width="3.0" fill="none" stroke="rgb(0, 0, 0)" stroke-opacity="1.0" stroke-linecap="round" stroke-linejoin="round"/>
    <path d="M 55.87504577636719 125.02717590332031 C -11.697427749633789 180.50205993652344 58.918582916259766 146.5759735107422 15.736318588256836 168.7981719970703" stroke-width="3.0" fill="none" stroke="rgb(0, 0, 0)" stroke-opacity="1.0" stroke-linecap="round" stroke-linejoin="round"/>
    <path d="M 38.250267028808594 37.4944953918457 C 127.49607849121094 87.68301391601562 53.45466613769531 75.26313018798828 114.82727813720703 88.04857635498047" stroke-width="3.0" fill="none" stroke="rgb(0, 0, 0)" stroke-opacity="1.0" stroke-linecap="round" stroke-linejoin="round"/>
    <path d="M 132.1026611328125 163.83139038085938 C 153.63699340820312 111.98733520507812 145.11395263671875 152.39817810058594 178.3837890625 108.85306549072266" stroke-width="3.0" fill="none" stroke="rgb(0, 0, 0)" stroke-opacity="1.0" stroke-linecap="round" stroke-linejoin="round"/>
    <path d="M 31.884965896606445 153.0657501220703 C 72.673583984375 117.52336883544922 61.01203155517578 139.92430114746094 71.37265014648438 115.80089569091797" stroke-width="3.0" fill="none" stroke="rgb(0, 0, 0)" stroke-opacity="1.0" stroke-linecap="round" stroke-linejoin="round"/>
    <path d="M 148.3669891357422 116.96942901611328 C 139.83746337890625 127.77729034423828 141.09567260742188 118.97230529785156 128.93170166015625 125.43728637695312" stroke-width="3.0" fill="none" stroke="rgb(0, 0, 0)" stroke-opacity="1.0" stroke-linecap="round" stroke-linejoin="round"/>
    <path d="M 173.92117309570312 106.6111068725586 C 165.36280822753906 230.60955810546875 134.8789825439453 184.49331665039062 160.09750366210938 189.7725067138672" stroke-width="3.0" fill="none" stroke="rgb(0, 0, 0)" stroke-opacity="1.0" stroke-linecap="round" stroke-linejoin="round"/>
    <path d="M 15.69908332824707 76.2928466796875 C 65.82887268066406 18.991851806640625 -13.807806015014648 80.20779418945312 54.37590789794922 42.044960021972656" stroke-width="3.0" fill="none" stroke="rgb(0, 0, 0)" stroke-opacity="1.0" stroke-linecap="round" stroke-linejoin="round"/>
    <path d="M 90.46749877929688 68.82990264892578 C 53.74480438232422 29.740324020385742 -7.817315578460693 39.306297302246094 78.69962310791016 53.528541564941406" stroke-width="3.0" fill="none" stroke="rgb(0, 0, 0)" stroke-opacity="1.0" stroke-linecap="round" stroke-linejoin="round"/>
  </g>
</svg>
