<?xml version="1.0" ?>
<svg xmlns="http://www.w3.org/2000/svg" version="1.1" width="224" height="224">
  <defs/>
  <g>
    <path d="M 78.39896392822266 112.57069396972656 C 72.77497100830078 132.02613830566406 79.66783905029297 119.02246856689453 72.5553970336914 121.97675323486328" stroke-width="3.0" fill="none" stroke="rgb(0, 0, 0)" stroke-opacity="1.0" stroke-linecap="round" stroke-linejoin="round"/>
    <path d="M 72.45069885253906 122.06631469726562 C 113.09708404541016 138.95492553710938 121.72220611572266 129.8917236328125 138.40032958984375 126.98330688476562" stroke-width="3.0" fill="none" stroke="rgb(0, 0, 0)" stroke-opacity="1.0" stroke-linecap="round" stroke-linejoin="round"/>
    <path d="M 170.95394897460938 103.65373229980469 C 217.1585693359375 115.4873275756836 195.67324829101562 137.87716674804688 216.16371154785156 139.361328125" stroke-width="3.0" fill="none" stroke="rgb(0, 0, 0)" stroke-opacity="1.0" stroke-linecap="round" stroke-linejoin="round"/>
    <path d="M 50.903053283691406 63.76613998413086 C 73.07011413574219 153.1564178466797 42.04975128173828 101.38180541992188 34.71724319458008 148.5430908203125" stroke-width="3.0" fill="none" stroke="rgb(0, 0, 0)" stroke-opacity="1.0" stroke-linecap="round" stroke-linejoin="round"/>
    <path d="M 104.55908966064453 85.5025405883789 C 147.9580841064453 89.62139129638672 143.98995971679688 79.29511260986328 182.42811584472656 107.05709075927734" stroke-width="3.0" fill="none" stroke="rgb(0, 0, 0)" stroke-opacity="1.0" stroke-linecap="round" stroke-linejoin="round"/>
    <path d="M 137.22947692871094 129.5423583984375 C 135.01101684570312 126.33547973632812 150.54934692382812 117.31571960449219 115.33489227294922 127.89292907714844" stroke-width="3.0" fill="none" stroke="rgb(0, 0, 0)" stroke-opacity="1.0" stroke-linecap="round" stroke-linejoin="round"/>
    <path d="M 68.43757629394531 126.26249694824219 C 88.7734375 105.10218811035156 61.09980392456055 132.4525909423828 77.32785034179688 116.42613220214844" stroke-width="3.0" fill="none" stroke="rgb(0, 0, 0)" stroke-opacity="1.0" stroke-linecap="round" stroke-linejoin="round"/>
    <path d="M 137.049072265625 134.67076110839844 C 121.93640899658203 175.90231323242188 140.66358947753906 160.6365966796875 99.4050064086914 184.7462615966797" stroke-width="3.0" fill="none" stroke="rgb(0, 0, 0)" stroke-opacity="1.0" stroke-linecap="round" stroke-linejoin="round"/>
    <path d="M 45.0573844909668 133.9560089111328 C -13.452977180480957 211.24073791503906 69.34234619140625 129.00146484375 15.266185760498047 169.08554077148438" stroke-width="3.0" fill="none" stroke="rgb(0, 0, 0)" stroke-opacity="1.0" stroke-linecap="round" stroke-linejoin="round"/>
    <path d="M 33.27098846435547 38.85867691040039 C 104.02025604248047 69.80921173095703 54.493438720703125 61.11126708984375 106.7592544555664 86.23695373535156" stroke-width="3.0" fill="none" stroke="rgb(0, 0, 0)" stroke-opacity="1.0" stroke-linecap="round" stroke-linejoin="round"/>
    <path d="M 130.6472625732422 164.41317749023438 C 152.80384826660156 115.3638687133789 149.8285675048828 158.54600524902344 178.22267150878906 108.4170913696289" stroke-width="3.0" fill="none" stroke="rgb(0, 0, 0)" stroke-opacity="1.0" stroke-linecap="round" stroke-linejoin="round"/>
    <path d="M 37.52849197387695 161.54522705078125 C 59.8895378112793 113.619384765625 51.474586486816406 151.24827575683594 80.80460357666016 110.71839141845703" stroke-width="3.0" fill="none" stroke="rgb(0, 0, 0)" stroke-opacity="1.0" stroke-linecap="round" stroke-linejoin="round"/>
    <path d="M 156.6153564453125 121.04190063476562 C 135.95370483398438 130.5518035888672 163.5841522216797 115.35189819335938 100.3943099975586 131.49147033691406" stroke-width="3.0" fill="none" stroke="rgb(0, 0, 0)" stroke-opacity="1.0" stroke-linecap="round" stroke-linejoin="round"/>
    <path d="M 170.86219787597656 109.88980102539062 C 163.10325622558594 232.41322326660156 135.72592163085938 179.9906005859375 159.49842834472656 187.74270629882812" stroke-width="3.0" fill="none" stroke="rgb(0, 0, 0)" stroke-opacity="1.0" stroke-linecap="round" stroke-linejoin="round"/>
    <path d="M 15.075165748596191 77.20935821533203 C 66.8230972290039 11.573698997497559 -15.820185661315918 87.96066284179688 55.478389739990234 37.906185150146484" stroke-width="3.0" fill="none" stroke="rgb(0, 0, 0)" stroke-opacity="1.0" stroke-linecap="round" stroke-linejoin="round"/>
    <path d="M 95.2866439819336 75.1607666015625 C 79.86924743652344 24.714914321899414 -30.06243133544922 44.90544128417969 83.20307159423828 51.12337875366211" stroke-width="3.0" fill="none" stroke="rgb(0, 0, 0)" stroke-opacity="1.0" stroke-linecap="round" stroke-linejoin="round"/>
  </g>
</svg>
