<?xml version="1.0" ?>
<svg xmlns="http://www.w3.org/2000/svg" version="1.1" width="224" height="224">
  <defs/>
  <g>
    <path d="M 78.58312225341797 108.89942169189453 C 87.68429565429688 133.97323608398438 80.9630355834961 119.65966796875 78.97877502441406 123.63016510009766" stroke-width="3.0" fill="none" stroke="rgb(0, 0, 0)" stroke-opacity="1.0" stroke-linecap="round" stroke-linejoin="round"/>
    <path d="M 74.39156341552734 124.37104797363281 C 107.03404998779297 136.5030517578125 113.06896209716797 128.36337280273438 136.49774169921875 129.81735229492188" stroke-width="3.0" fill="none" stroke="rgb(0, 0, 0)" stroke-opacity="1.0" stroke-linecap="round" stroke-linejoin="round"/>
    <path d="M 171.0960235595703 100.09136199951172 C 220.8275909423828 117.82913970947266 195.57130432128906 134.47238159179688 217.1317596435547 143.01219177246094" stroke-width="3.0" fill="none" stroke="rgb(0, 0, 0)" stroke-opacity="1.0" stroke-linecap="round" stroke-linejoin="round"/>
    <path d="M 51.32978439331055 61.95476531982422 C 67.67279052734375 160.35458374023438 63.021881103515625 76.31278991699219 36.29948806762695 147.703125" stroke-width="3.0" fill="none" stroke="rgb(0, 0, 0)" stroke-opacity="1.0" stroke-linecap="round" stroke-linejoin="round"/>
    <path d="M 102.80738067626953 82.81504821777344 C 138.42648315429688 90.6516342163086 145.7919921875 75.7252426147461 176.7421112060547 103.54765319824219" stroke-width="3.0" fill="none" stroke="rgb(0, 0, 0)" stroke-opacity="1.0" stroke-linecap="round" stroke-linejoin="round"/>
    <path d="M 129.0267791748047 126.8204116821289 C 142.4872589111328 129.32667541503906 146.29283142089844 122.09700775146484 127.28865814208984 127.81552124023438" stroke-width="3.0" fill="none" stroke="rgb(0, 0, 0)" stroke-opacity="1.0" stroke-linecap="round" stroke-linejoin="round"/>
    <path d="M 74.03590393066406 124.4988784790039 C 94.34061431884766 104.01521301269531 70.59711456298828 136.008544921875 82.41529846191406 120.40362548828125" stroke-width="3.0" fill="none" stroke="rgb(0, 0, 0)" stroke-opacity="1.0" stroke-linecap="round" stroke-linejoin="round"/>
    <path d="M 139.17214965820312 130.0122528076172 C 118.02593994140625 179.93296813964844 140.54104614257812 159.23411560058594 97.50899505615234 182.9586944580078" stroke-width="3.0" fill="none" stroke="rgb(0, 0, 0)" stroke-opacity="1.0" stroke-linecap="round" stroke-linejoin="round"/>
    <path d="M 54.08135223388672 126.8106689453125 C -12.635900497436523 201.5256805419922 72.6732406616211 139.92974853515625 15.983410835266113 166.7412109375" stroke-width="3.0" fill="none" stroke="rgb(0, 0, 0)" stroke-opacity="1.0" stroke-linecap="round" stroke-linejoin="round"/>
    <path d="M 34.0474739074707 35.82527542114258 C 108.0123062133789 75.19473266601562 55.25830841064453 67.46183776855469 112.3296127319336 85.69155883789062" stroke-width="3.0" fill="none" stroke="rgb(0, 0, 0)" stroke-opacity="1.0" stroke-linecap="round" stroke-linejoin="round"/>
    <path d="M 130.17990112304688 163.02474975585938 C 153.58912658691406 113.95280456542969 149.25637817382812 156.45188903808594 181.8344268798828 107.18927001953125" stroke-width="3.0" fill="none" stroke="rgb(0, 0, 0)" stroke-opacity="1.0" stroke-linecap="round" stroke-linejoin="round"/>
    <path d="M 40.2111701965332 155.3484649658203 C 63.48497772216797 112.76143646240234 47.83844757080078 146.1688232421875 81.5778579711914 115.49168395996094" stroke-width="3.0" fill="none" stroke="rgb(0, 0, 0)" stroke-opacity="1.0" stroke-linecap="round" stroke-linejoin="round"/>
    <path d="M 158.2163848876953 116.61699676513672 C 133.21815490722656 131.53530883789062 161.0297088623047 116.95930480957031 107.01842498779297 131.69390869140625" stroke-width="3.0" fill="none" stroke="rgb(0, 0, 0)" stroke-opacity="1.0" stroke-linecap="round" stroke-linejoin="round"/>
    <path d="M 172.65988159179688 109.83061981201172 C 166.1737823486328 228.6165313720703 136.84947204589844 177.54208374023438 161.2911376953125 187.2052001953125" stroke-width="3.0" fill="none" stroke="rgb(0, 0, 0)" stroke-opacity="1.0" stroke-linecap="round" stroke-linejoin="round"/>
    <path d="M 10.530326843261719 75.44075775146484 C 61.765281677246094 14.938260078430176 -10.353604316711426 89.13467407226562 54.44636154174805 37.0169792175293" stroke-width="3.0" fill="none" stroke="rgb(0, 0, 0)" stroke-opacity="1.0" stroke-linecap="round" stroke-linejoin="round"/>
    <path d="M 96.6546859741211 79.30706024169922 C 81.76396942138672 20.001981735229492 -25.160831451416016 41.78422546386719 82.1534194946289 50.66109085083008" stroke-width="3.0" fill="none" stroke="rgb(0, 0, 0)" stroke-opacity="1.0" stroke-linecap="round" stroke-linejoin="round"/>
  </g>
</svg>
