<?xml version="1.0" ?>
<svg xmlns="http://www.w3.org/2000/svg" version="1.1" width="224" height="224">
  <defs/>
  <g>
    <path d="M 79.10462951660156 118.53034210205078 C 77.48150634765625 134.86700439453125 93.4639892578125 120.8803482055664 76.66473388671875 116.14769744873047" stroke-width="3.0" fill="none" stroke="rgb(0, 0, 0)" stroke-opacity="1.0" stroke-linecap="round" stroke-linejoin="round"/>
    <path d="M 72.07575988769531 121.81725311279297 C 107.48358917236328 137.44947814941406 111.29877471923828 126.56078338623047 134.86756896972656 127.6117172241211" stroke-width="3.0" fill="none" stroke="rgb(0, 0, 0)" stroke-opacity="1.0" stroke-linecap="round" stroke-linejoin="round"/>
    <path d="M 170.72372436523438 104.9395523071289 C 219.64356994628906 112.06989288330078 197.15443420410156 134.9293212890625 218.66378784179688 142.95559692382812" stroke-width="3.0" fill="none" stroke="rgb(0, 0, 0)" stroke-opacity="1.0" stroke-linecap="round" stroke-linejoin="round"/>
    <path d="M 46.81705856323242 67.70022583007812 C 71.08063507080078 146.32461547851562 43.885005950927734 96.69313049316406 36.78066635131836 147.0149688720703" stroke-width="3.0" fill="none" stroke="rgb(0, 0, 0)" stroke-opacity="1.0" stroke-linecap="round" stroke-linejoin="round"/>
    <path d="M 104.21524047851562 85.12352752685547 C 147.29603576660156 90.8803482055664 144.6702117919922 77.36602783203125 182.42965698242188 108.46311950683594" stroke-width="3.0" fill="none" stroke="rgb(0, 0, 0)" stroke-opacity="1.0" stroke-linecap="round" stroke-linejoin="round"/>
    <path d="M 141.34347534179688 129.70982360839844 C 144.15126037597656 128.1953887939453 153.8496856689453 114.5086898803711 110.76017761230469 129.3419647216797" stroke-width="3.0" fill="none" stroke="rgb(0, 0, 0)" stroke-opacity="1.0" stroke-linecap="round" stroke-linejoin="round"/>
    <path d="M 81.49287414550781 124.73291015625 C 93.78937530517578 116.66200256347656 57.45391082763672 128.5254364013672 75.59103393554688 119.19468688964844" stroke-width="3.0" fill="none" stroke="rgb(0, 0, 0)" stroke-opacity="1.0" stroke-linecap="round" stroke-linejoin="round"/>
    <path d="M 140.3565216064453 131.88624572753906 C 120.54981994628906 174.2853546142578 139.9591064453125 156.86048889160156 98.57903289794922 184.66424560546875" stroke-width="3.0" fill="none" stroke="rgb(0, 0, 0)" stroke-opacity="1.0" stroke-linecap="round" stroke-linejoin="round"/>
    <path d="M 46.2127799987793 133.06692504882812 C -12.881816864013672 213.8340301513672 68.2916488647461 129.1819305419922 15.382391929626465 169.57449340820312" stroke-width="3.0" fill="none" stroke="rgb(0, 0, 0)" stroke-opacity="1.0" stroke-linecap="round" stroke-linejoin="round"/>
    <path d="M 34.334449768066406 37.51802062988281 C 104.54765319824219 69.31089782714844 59.5371208190918 61.18281555175781 106.84481811523438 84.84233093261719" stroke-width="3.0" fill="none" stroke="rgb(0, 0, 0)" stroke-opacity="1.0" stroke-linecap="round" stroke-linejoin="round"/>
    <path d="M 132.3022003173828 161.1446075439453 C 154.52593994140625 117.88534545898438 153.35501098632812 155.42486572265625 182.53890991210938 111.34576416015625" stroke-width="3.0" fill="none" stroke="rgb(0, 0, 0)" stroke-opacity="1.0" stroke-linecap="round" stroke-linejoin="round"/>
    <path d="M 38.27784729003906 159.41688537597656 C 57.89296340942383 111.49937438964844 51.2806282043457 146.0594024658203 78.59149932861328 112.22903442382812" stroke-width="3.0" fill="none" stroke="rgb(0, 0, 0)" stroke-opacity="1.0" stroke-linecap="round" stroke-linejoin="round"/>
    <path d="M 157.61317443847656 118.79120635986328 C 138.8246307373047 131.0294189453125 168.24656677246094 119.0904769897461 95.87201690673828 131.02581787109375" stroke-width="3.0" fill="none" stroke="rgb(0, 0, 0)" stroke-opacity="1.0" stroke-linecap="round" stroke-linejoin="round"/>
    <path d="M 175.00442504882812 111.516845703125 C 164.67726135253906 228.17913818359375 133.32330322265625 179.98829650878906 163.0142059326172 185.89451599121094" stroke-width="3.0" fill="none" stroke="rgb(0, 0, 0)" stroke-opacity="1.0" stroke-linecap="round" stroke-linejoin="round"/>
    <path d="M 15.470609664916992 75.34687805175781 C 72.22806549072266 8.045748710632324 -14.829367637634277 87.93167877197266 60.079166412353516 37.77885437011719" stroke-width="3.0" fill="none" stroke="rgb(0, 0, 0)" stroke-opacity="1.0" stroke-linecap="round" stroke-linejoin="round"/>
    <path d="M 95.5125503540039 73.81443786621094 C 84.04024505615234 21.956544876098633 -22.414628982543945 43.36300277709961 84.41278076171875 49.881622314453125" stroke-width="3.0" fill="none" stroke="rgb(0, 0, 0)" stroke-opacity="1.0" stroke-linecap="round" stroke-linejoin="round"/>
  </g>
</svg>
