<?xml version="1.0" ?>
<svg xmlns="http://www.w3.org/2000/svg" version="1.1" width="224" height="224">
  <defs/>
  <g>
    <path d="M 100.46470642089844 121.33843994140625 C 86.0958480834961 122.3709716796875 97.2525863647461 121.67311096191406 84.06287384033203 117.7156753540039" stroke-width="3.0" fill="none" stroke="rgb(0, 0, 0)" stroke-opacity="1.0" stroke-linecap="round" stroke-linejoin="round"/>
    <path d="M 81.89077758789062 121.20355987548828 C 98.65281677246094 130.99557495117188 114.27556610107422 125.5324935913086 135.6444549560547 117.64119720458984" stroke-width="3.0" fill="none" stroke="rgb(0, 0, 0)" stroke-opacity="1.0" stroke-linecap="round" stroke-linejoin="round"/>
    <path d="M 153.12196350097656 93.35645294189453 C 224.9502410888672 118.9294204711914 186.62660217285156 131.33865356445312 213.7850341796875 143.2734832763672" stroke-width="3.0" fill="none" stroke="rgb(0, 0, 0)" stroke-opacity="1.0" stroke-linecap="round" stroke-linejoin="round"/>
    <path d="M 61.237945556640625 72.899658203125 C 36.763370513916016 131.8775177001953 85.54940795898438 110.9456558227539 41.51877212524414 147.3348846435547" stroke-width="3.0" fill="none" stroke="rgb(0, 0, 0)" stroke-opacity="1.0" stroke-linecap="round" stroke-linejoin="round"/>
    <path d="M 133.79830932617188 88.61436462402344 C 156.62545776367188 89.54512786865234 148.85589599609375 90.64270782470703 163.12672424316406 101.052734375" stroke-width="3.0" fill="none" stroke="rgb(0, 0, 0)" stroke-opacity="1.0" stroke-linecap="round" stroke-linejoin="round"/>
    <path d="M 135.3759307861328 119.30464172363281 C 130.84498596191406 123.09639739990234 119.22064971923828 122.5887451171875 124.3064193725586 122.22081756591797" stroke-width="3.0" fill="none" stroke="rgb(0, 0, 0)" stroke-opacity="1.0" stroke-linecap="round" stroke-linejoin="round"/>
    <path d="M 80.8141098022461 112.16741180419922 C 70.36676788330078 124.66935729980469 70.0122299194336 109.72795867919922 88.35771942138672 122.76277160644531" stroke-width="3.0" fill="none" stroke="rgb(0, 0, 0)" stroke-opacity="1.0" stroke-linecap="round" stroke-linejoin="round"/>
    <path d="M 142.18922424316406 133.92648315429688 C 126.08760070800781 175.52151489257812 145.1412353515625 153.78219604492188 96.9902114868164 182.35247802734375" stroke-width="3.0" fill="none" stroke="rgb(0, 0, 0)" stroke-opacity="1.0" stroke-linecap="round" stroke-linejoin="round"/>
    <path d="M 55.22758102416992 125.94630432128906 C -3.5377981662750244 178.16978454589844 42.73588180541992 157.69297790527344 20.691606521606445 172.24392700195312" stroke-width="3.0" fill="none" stroke="rgb(0, 0, 0)" stroke-opacity="1.0" stroke-linecap="round" stroke-linejoin="round"/>
    <path d="M 81.50276947021484 66.39229583740234 C 95.28591918945312 94.48206329345703 104.75005340576172 83.79155731201172 141.1152801513672 90.63400268554688" stroke-width="3.0" fill="none" stroke="rgb(0, 0, 0)" stroke-opacity="1.0" stroke-linecap="round" stroke-linejoin="round"/>
    <path d="M 139.57933044433594 127.0270767211914 C 135.3324432373047 138.65782165527344 138.82778930664062 139.67759704589844 166.74644470214844 128.14584350585938" stroke-width="3.0" fill="none" stroke="rgb(0, 0, 0)" stroke-opacity="1.0" stroke-linecap="round" stroke-linejoin="round"/>
    <path d="M 64.22633361816406 138.37232971191406 C 89.92073059082031 123.83907318115234 64.29527282714844 125.10274505615234 84.48329162597656 116.76769256591797" stroke-width="3.0" fill="none" stroke="rgb(0, 0, 0)" stroke-opacity="1.0" stroke-linecap="round" stroke-linejoin="round"/>
    <path d="M 140.30615234375 112.48127746582031 C 133.27255249023438 117.61786651611328 138.68374633789062 125.18331909179688 133.9234619140625 120.42900085449219" stroke-width="3.0" fill="none" stroke="rgb(0, 0, 0)" stroke-opacity="1.0" stroke-linecap="round" stroke-linejoin="round"/>
    <path d="M 158.50274658203125 136.8826446533203 C 184.8068084716797 171.44467163085938 141.1514434814453 197.0287322998047 161.80673217773438 196.33404541015625" stroke-width="3.0" fill="none" stroke="rgb(0, 0, 0)" stroke-opacity="1.0" stroke-linecap="round" stroke-linejoin="round"/>
    <path d="M 14.541607856750488 77.69010925292969 C 49.0 2.1483330726623535 36.35206985473633 56.81960678100586 65.8079605102539 36.67540740966797" stroke-width="3.0" fill="none" stroke="rgb(0, 0, 0)" stroke-opacity="1.0" stroke-linecap="round" stroke-linejoin="round"/>
    <path d="M 86.14350891113281 67.69048309326172 C 58.837608337402344 41.12925338745117 45.74522018432617 40.610538482666016 78.57512664794922 50.291587829589844" stroke-width="3.0" fill="none" stroke="rgb(0, 0, 0)" stroke-opacity="1.0" stroke-linecap="round" stroke-linejoin="round"/>
  </g>
</svg>
