<?xml version="1.0" ?>
<svg xmlns="http://www.w3.org/2000/svg" version="1.1" width="224" height="224">
  <defs/>
  <g>
    <path d="M 102.4571533203125 109.78436279296875 C 106.767822265625 110.29249572753906 107.47074890136719 117.29265594482422 100.54489135742188 107.22122955322266" stroke-width="3.0" fill="none" stroke="rgb(0, 0, 0)" stroke-opacity="1.0" stroke-linecap="round" stroke-linejoin="round"/>
    <path d="M 91.56609344482422 131.04786682128906 C 109.93802642822266 129.4724884033203 96.93415832519531 135.29762268066406 128.9707489013672 115.92428588867188" stroke-width="3.0" fill="none" stroke="rgb(0, 0, 0)" stroke-opacity="1.0" stroke-linecap="round" stroke-linejoin="round"/>
    <path d="M 166.5576629638672 95.1718521118164 C 212.01275634765625 117.44916534423828 184.09857177734375 130.79998779296875 214.5856170654297 145.17214965820312" stroke-width="3.0" fill="none" stroke="rgb(0, 0, 0)" stroke-opacity="1.0" stroke-linecap="round" stroke-linejoin="round"/>
    <path d="M 50.51411437988281 95.5551528930664 C 48.482662200927734 122.77782440185547 52.54876708984375 108.95375061035156 60.5831298828125 126.64678192138672" stroke-width="3.0" fill="none" stroke="rgb(0, 0, 0)" stroke-opacity="1.0" stroke-linecap="round" stroke-linejoin="round"/>
    <path d="M 148.29922485351562 89.57247924804688 C 155.92849731445312 94.37003326416016 143.14230346679688 86.56031799316406 156.05386352539062 94.7152328491211" stroke-width="3.0" fill="none" stroke="rgb(0, 0, 0)" stroke-opacity="1.0" stroke-linecap="round" stroke-linejoin="round"/>
    <path d="M 138.12750244140625 110.73258972167969 C 121.33100891113281 119.1562271118164 107.37926483154297 120.24530792236328 125.6574935913086 118.0566177368164" stroke-width="3.0" fill="none" stroke="rgb(0, 0, 0)" stroke-opacity="1.0" stroke-linecap="round" stroke-linejoin="round"/>
    <path d="M 92.72970581054688 112.3674545288086 C 84.60858917236328 104.66522216796875 86.2796630859375 103.31482696533203 82.4224624633789 115.46012115478516" stroke-width="3.0" fill="none" stroke="rgb(0, 0, 0)" stroke-opacity="1.0" stroke-linecap="round" stroke-linejoin="round"/>
    <path d="M 130.9651641845703 136.4786376953125 C 143.48342895507812 166.26821899414062 136.2317352294922 152.7163848876953 94.7345962524414 182.83326721191406" stroke-width="3.0" fill="none" stroke="rgb(0, 0, 0)" stroke-opacity="1.0" stroke-linecap="round" stroke-linejoin="round"/>
    <path d="M 45.63221740722656 153.60940551757812 C 35.90195846557617 166.93618774414062 67.88346099853516 137.69139099121094 14.053890228271484 167.53265380859375" stroke-width="3.0" fill="none" stroke="rgb(0, 0, 0)" stroke-opacity="1.0" stroke-linecap="round" stroke-linejoin="round"/>
    <path d="M 94.2719955444336 75.43299102783203 C 107.1769790649414 86.33118438720703 105.12238311767578 87.4515380859375 121.27452850341797 93.14154815673828" stroke-width="3.0" fill="none" stroke="rgb(0, 0, 0)" stroke-opacity="1.0" stroke-linecap="round" stroke-linejoin="round"/>
    <path d="M 130.3802947998047 135.43157958984375 C 121.70004272460938 136.66510009765625 151.20494079589844 140.3037872314453 171.68032836914062 128.06153869628906" stroke-width="3.0" fill="none" stroke="rgb(0, 0, 0)" stroke-opacity="1.0" stroke-linecap="round" stroke-linejoin="round"/>
    <path d="M 67.57621002197266 124.63262939453125 C 93.59672546386719 115.56171417236328 84.51106262207031 99.33446502685547 96.339111328125 109.34542846679688" stroke-width="3.0" fill="none" stroke="rgb(0, 0, 0)" stroke-opacity="1.0" stroke-linecap="round" stroke-linejoin="round"/>
    <path d="M 144.4253387451172 102.28376770019531 C 139.90798950195312 108.70829010009766 139.064208984375 104.68266296386719 131.94366455078125 112.41349792480469" stroke-width="3.0" fill="none" stroke="rgb(0, 0, 0)" stroke-opacity="1.0" stroke-linecap="round" stroke-linejoin="round"/>
    <path d="M 157.68104553222656 136.35401916503906 C 185.0228271484375 160.89706420898438 143.97088623046875 196.515380859375 164.77684020996094 192.6283721923828" stroke-width="3.0" fill="none" stroke="rgb(0, 0, 0)" stroke-opacity="1.0" stroke-linecap="round" stroke-linejoin="round"/>
    <path d="M 24.910533905029297 48.45893478393555 C 59.47834396362305 34.23570251464844 57.459659576416016 56.84325408935547 69.59286499023438 39.0916862487793" stroke-width="3.0" fill="none" stroke="rgb(0, 0, 0)" stroke-opacity="1.0" stroke-linecap="round" stroke-linejoin="round"/>
    <path d="M 96.0278549194336 68.90718841552734 C 83.21287536621094 44.81184005737305 71.93882751464844 57.61548614501953 71.64075469970703 44.019386291503906" stroke-width="3.0" fill="none" stroke="rgb(0, 0, 0)" stroke-opacity="1.0" stroke-linecap="round" stroke-linejoin="round"/>
  </g>
</svg>
