<?xml version="1.0" ?>
<svg xmlns="http://www.w3.org/2000/svg" version="1.1" width="224" height="224">
  <defs/>
  <g>
    <path d="M 94.78669738769531 122.48766326904297 C 80.65374755859375 123.80792236328125 94.4790267944336 121.089111328125 82.12688446044922 117.69424438476562" stroke-width="3.0" fill="none" stroke="rgb(0, 0, 0)" stroke-opacity="1.0" stroke-linecap="round" stroke-linejoin="round"/>
    <path d="M 75.8656997680664 120.5912094116211 C 101.02413940429688 133.4189453125 112.68778228759766 126.96666717529297 135.8153839111328 118.41993713378906" stroke-width="3.0" fill="none" stroke="rgb(0, 0, 0)" stroke-opacity="1.0" stroke-linecap="round" stroke-linejoin="round"/>
    <path d="M 152.3715362548828 93.2917251586914 C 227.3990478515625 118.2412338256836 185.7938690185547 133.37649536132812 214.4897918701172 144.80349731445312" stroke-width="3.0" fill="none" stroke="rgb(0, 0, 0)" stroke-opacity="1.0" stroke-linecap="round" stroke-linejoin="round"/>
    <path d="M 51.68767166137695 68.6820068359375 C 28.899749755859375 135.0323486328125 85.04412841796875 116.57154846191406 37.314937591552734 151.9484100341797" stroke-width="3.0" fill="none" stroke="rgb(0, 0, 0)" stroke-opacity="1.0" stroke-linecap="round" stroke-linejoin="round"/>
    <path d="M 133.4743194580078 90.41564178466797 C 153.5642547607422 90.49138641357422 150.83494567871094 90.43429565429688 162.86221313476562 101.37047576904297" stroke-width="3.0" fill="none" stroke="rgb(0, 0, 0)" stroke-opacity="1.0" stroke-linecap="round" stroke-linejoin="round"/>
    <path d="M 133.9703826904297 119.35296630859375 C 130.55410766601562 122.69969177246094 118.93035888671875 123.75032043457031 124.22345733642578 122.21786499023438" stroke-width="3.0" fill="none" stroke="rgb(0, 0, 0)" stroke-opacity="1.0" stroke-linecap="round" stroke-linejoin="round"/>
    <path d="M 76.91095733642578 113.76457977294922 C 71.09351348876953 122.56798553466797 69.17159271240234 109.49977111816406 89.952392578125 122.99807739257812" stroke-width="3.0" fill="none" stroke="rgb(0, 0, 0)" stroke-opacity="1.0" stroke-linecap="round" stroke-linejoin="round"/>
    <path d="M 142.0802764892578 132.10357666015625 C 127.2381591796875 172.6780242919922 144.49066162109375 152.9012908935547 98.13219451904297 185.46237182617188" stroke-width="3.0" fill="none" stroke="rgb(0, 0, 0)" stroke-opacity="1.0" stroke-linecap="round" stroke-linejoin="round"/>
    <path d="M 57.49995040893555 121.15177917480469 C -0.559520959854126 176.4651336669922 46.679351806640625 155.90184020996094 21.13827133178711 169.43939208984375" stroke-width="3.0" fill="none" stroke="rgb(0, 0, 0)" stroke-opacity="1.0" stroke-linecap="round" stroke-linejoin="round"/>
    <path d="M 75.63662719726562 63.27267074584961 C 93.44660186767578 93.54007720947266 106.47264099121094 82.03687286376953 139.71400451660156 92.37348175048828" stroke-width="3.0" fill="none" stroke="rgb(0, 0, 0)" stroke-opacity="1.0" stroke-linecap="round" stroke-linejoin="round"/>
    <path d="M 138.5237274169922 129.66517639160156 C 141.19053649902344 138.3324737548828 139.43582153320312 137.7818145751953 165.93080139160156 125.84855651855469" stroke-width="3.0" fill="none" stroke="rgb(0, 0, 0)" stroke-opacity="1.0" stroke-linecap="round" stroke-linejoin="round"/>
    <path d="M 63.21369171142578 135.74380493164062 C 90.0140609741211 123.68890380859375 62.661537170410156 120.625732421875 79.48783111572266 112.71542358398438" stroke-width="3.0" fill="none" stroke="rgb(0, 0, 0)" stroke-opacity="1.0" stroke-linecap="round" stroke-linejoin="round"/>
    <path d="M 140.7013702392578 114.89381408691406 C 131.82763671875 117.14716339111328 137.96875 123.84452819824219 133.87322998046875 119.5726318359375" stroke-width="3.0" fill="none" stroke="rgb(0, 0, 0)" stroke-opacity="1.0" stroke-linecap="round" stroke-linejoin="round"/>
    <path d="M 157.60903930664062 136.9283905029297 C 183.9146728515625 171.44544982910156 140.7553253173828 195.74191284179688 160.52210998535156 193.19573974609375" stroke-width="3.0" fill="none" stroke="rgb(0, 0, 0)" stroke-opacity="1.0" stroke-linecap="round" stroke-linejoin="round"/>
    <path d="M 15.754246711730957 75.22407531738281 C 48.64115524291992 -0.6835262179374695 37.93498992919922 61.067955017089844 68.3833999633789 39.91526794433594" stroke-width="3.0" fill="none" stroke="rgb(0, 0, 0)" stroke-opacity="1.0" stroke-linecap="round" stroke-linejoin="round"/>
    <path d="M 82.818359375 67.61335754394531 C 57.34792709350586 42.341922760009766 44.86692428588867 39.480072021484375 77.3991928100586 51.086708068847656" stroke-width="3.0" fill="none" stroke="rgb(0, 0, 0)" stroke-opacity="1.0" stroke-linecap="round" stroke-linejoin="round"/>
  </g>
</svg>
