<?xml version="1.0" ?>
<svg xmlns="http://www.w3.org/2000/svg" version="1.1" width="224" height="224">
  <defs/>
  <g>
    <path d="M 77.089599609375 108.60364532470703 C 90.79390716552734 131.91871643066406 80.83824920654297 120.67387390136719 76.37393188476562 119.7798080444336" stroke-width="3.0" fill="none" stroke="rgb(0, 0, 0)" stroke-opacity="1.0" stroke-linecap="round" stroke-linejoin="round"/>
    <path d="M 73.00047302246094 123.1217269897461 C 115.7919921875 134.837890625 110.8574447631836 127.4511489868164 135.13755798339844 124.79109191894531" stroke-width="3.0" fill="none" stroke="rgb(0, 0, 0)" stroke-opacity="1.0" stroke-linecap="round" stroke-linejoin="round"/>
    <path d="M 164.06239318847656 96.17803955078125 C 222.56886291503906 123.24408721923828 192.13058471679688 133.40748596191406 215.7573699951172 143.65200805664062" stroke-width="3.0" fill="none" stroke="rgb(0, 0, 0)" stroke-opacity="1.0" stroke-linecap="round" stroke-linejoin="round"/>
    <path d="M 46.13291931152344 70.18914794921875 C 50.49028396606445 154.87725830078125 70.01620483398438 76.4576416015625 35.545921325683594 159.3531494140625" stroke-width="3.0" fill="none" stroke="rgb(0, 0, 0)" stroke-opacity="1.0" stroke-linecap="round" stroke-linejoin="round"/>
    <path d="M 113.2093276977539 86.8881607055664 C 138.21200561523438 89.4722671508789 154.10166931152344 80.06459045410156 172.09400939941406 103.20189666748047" stroke-width="3.0" fill="none" stroke="rgb(0, 0, 0)" stroke-opacity="1.0" stroke-linecap="round" stroke-linejoin="round"/>
    <path d="M 134.32386779785156 124.45308685302734 C 132.86805725097656 126.7414321899414 140.24412536621094 129.70079040527344 134.76121520996094 124.87409210205078" stroke-width="3.0" fill="none" stroke="rgb(0, 0, 0)" stroke-opacity="1.0" stroke-linecap="round" stroke-linejoin="round"/>
    <path d="M 77.04045104980469 122.6807632446289 C 90.5020523071289 105.5594711303711 60.75115966796875 129.54501342773438 81.39408111572266 119.55859375" stroke-width="3.0" fill="none" stroke="rgb(0, 0, 0)" stroke-opacity="1.0" stroke-linecap="round" stroke-linejoin="round"/>
    <path d="M 140.82049560546875 128.49630737304688 C 119.37321472167969 176.0264892578125 141.5800323486328 153.51931762695312 97.77246856689453 183.7727508544922" stroke-width="3.0" fill="none" stroke="rgb(0, 0, 0)" stroke-opacity="1.0" stroke-linecap="round" stroke-linejoin="round"/>
    <path d="M 54.51691818237305 126.23759460449219 C -10.060596466064453 184.06886291503906 62.34986877441406 150.02740478515625 15.436758995056152 169.93557739257812" stroke-width="3.0" fill="none" stroke="rgb(0, 0, 0)" stroke-opacity="1.0" stroke-linecap="round" stroke-linejoin="round"/>
    <path d="M 33.500450134277344 38.39130401611328 C 123.50804138183594 90.46785736083984 50.02315902709961 71.73751831054688 113.36830139160156 86.85834503173828" stroke-width="3.0" fill="none" stroke="rgb(0, 0, 0)" stroke-opacity="1.0" stroke-linecap="round" stroke-linejoin="round"/>
    <path d="M 131.32083129882812 162.49822998046875 C 156.87225341796875 115.25975799560547 150.26943969726562 156.611083984375 181.90982055664062 108.44512176513672" stroke-width="3.0" fill="none" stroke="rgb(0, 0, 0)" stroke-opacity="1.0" stroke-linecap="round" stroke-linejoin="round"/>
    <path d="M 32.164546966552734 154.82965087890625 C 70.66209411621094 114.00493621826172 62.717803955078125 140.1568603515625 71.45830535888672 115.15271759033203" stroke-width="3.0" fill="none" stroke="rgb(0, 0, 0)" stroke-opacity="1.0" stroke-linecap="round" stroke-linejoin="round"/>
    <path d="M 153.18772888183594 122.0290298461914 C 143.37094116210938 128.18475341796875 144.40147399902344 119.6126708984375 128.63870239257812 125.64198303222656" stroke-width="3.0" fill="none" stroke="rgb(0, 0, 0)" stroke-opacity="1.0" stroke-linecap="round" stroke-linejoin="round"/>
    <path d="M 174.75498962402344 110.0324935913086 C 170.00271606445312 229.16024780273438 138.0484161376953 182.2360076904297 164.343017578125 190.2192840576172" stroke-width="3.0" fill="none" stroke="rgb(0, 0, 0)" stroke-opacity="1.0" stroke-linecap="round" stroke-linejoin="round"/>
    <path d="M 13.823980331420898 76.26727294921875 C 62.60126495361328 14.617639541625977 -12.024503707885742 79.00450134277344 54.093780517578125 40.09325408935547" stroke-width="3.0" fill="none" stroke="rgb(0, 0, 0)" stroke-opacity="1.0" stroke-linecap="round" stroke-linejoin="round"/>
    <path d="M 86.40653228759766 71.60137176513672 C 50.671783447265625 32.727081298828125 -10.577635765075684 43.66950988769531 80.37207794189453 59.18153381347656" stroke-width="3.0" fill="none" stroke="rgb(0, 0, 0)" stroke-opacity="1.0" stroke-linecap="round" stroke-linejoin="round"/>
  </g>
</svg>
