<?xml version="1.0" ?>
<svg xmlns="http://www.w3.org/2000/svg" version="1.1" width="224" height="224">
  <defs/>
  <g>
    <path d="M 79.90689086914062 118.1561508178711 C 81.81049346923828 129.3663330078125 75.57929229736328 128.488525390625 76.9190444946289 119.3314437866211" stroke-width="3.0" fill="none" stroke="rgb(0, 0, 0)" stroke-opacity="1.0" stroke-linecap="round" stroke-linejoin="round"/>
    <path d="M 75.94679260253906 123.87478637695312 C 112.74707794189453 131.79469299316406 110.34941864013672 122.83104705810547 133.61434936523438 121.40007781982422" stroke-width="3.0" fill="none" stroke="rgb(0, 0, 0)" stroke-opacity="1.0" stroke-linecap="round" stroke-linejoin="round"/>
    <path d="M 151.08847045898438 90.2686767578125 C 226.0516357421875 121.11068725585938 186.05650329589844 132.1894989013672 213.78680419921875 145.3168487548828" stroke-width="3.0" fill="none" stroke="rgb(0, 0, 0)" stroke-opacity="1.0" stroke-linecap="round" stroke-linejoin="round"/>
    <path d="M 56.1863899230957 71.93873596191406 C 41.823707580566406 151.1885986328125 79.71751403808594 85.16788482666016 32.70309829711914 159.47445678710938" stroke-width="3.0" fill="none" stroke="rgb(0, 0, 0)" stroke-opacity="1.0" stroke-linecap="round" stroke-linejoin="round"/>
    <path d="M 121.92552947998047 88.05977630615234 C 140.37490844726562 90.9793472290039 155.40457153320312 82.39864349365234 171.5939178466797 105.4620361328125" stroke-width="3.0" fill="none" stroke="rgb(0, 0, 0)" stroke-opacity="1.0" stroke-linecap="round" stroke-linejoin="round"/>
    <path d="M 146.72438049316406 123.41670227050781 C 145.189697265625 124.88690948486328 126.57012176513672 119.34317016601562 134.62448120117188 119.92852020263672" stroke-width="3.0" fill="none" stroke="rgb(0, 0, 0)" stroke-opacity="1.0" stroke-linecap="round" stroke-linejoin="round"/>
    <path d="M 77.16498565673828 121.60392761230469 C 85.30989837646484 122.6941146850586 62.02284240722656 135.64939880371094 84.84513854980469 107.86007690429688" stroke-width="3.0" fill="none" stroke="rgb(0, 0, 0)" stroke-opacity="1.0" stroke-linecap="round" stroke-linejoin="round"/>
    <path d="M 139.7757568359375 128.62164306640625 C 121.64158630371094 175.19143676757812 141.0451202392578 155.12692260742188 97.37703704833984 183.59844970703125" stroke-width="3.0" fill="none" stroke="rgb(0, 0, 0)" stroke-opacity="1.0" stroke-linecap="round" stroke-linejoin="round"/>
    <path d="M 55.03891372680664 129.18702697753906 C -4.101685047149658 175.29150390625 50.89625930786133 154.45327758789062 14.518706321716309 170.0447235107422" stroke-width="3.0" fill="none" stroke="rgb(0, 0, 0)" stroke-opacity="1.0" stroke-linecap="round" stroke-linejoin="round"/>
    <path d="M 45.879737854003906 41.36807632446289 C 116.70375061035156 94.09510040283203 76.69556427001953 81.14458465576172 136.38449096679688 90.32389068603516" stroke-width="3.0" fill="none" stroke="rgb(0, 0, 0)" stroke-opacity="1.0" stroke-linecap="round" stroke-linejoin="round"/>
    <path d="M 132.41656494140625 161.52882385253906 C 151.67486572265625 115.95487213134766 151.97006225585938 154.2641143798828 179.50286865234375 105.64495849609375" stroke-width="3.0" fill="none" stroke="rgb(0, 0, 0)" stroke-opacity="1.0" stroke-linecap="round" stroke-linejoin="round"/>
    <path d="M 29.8143367767334 154.5550079345703 C 76.0247573852539 122.79351043701172 58.411094665527344 147.81849670410156 71.8740463256836 115.95864868164062" stroke-width="3.0" fill="none" stroke="rgb(0, 0, 0)" stroke-opacity="1.0" stroke-linecap="round" stroke-linejoin="round"/>
    <path d="M 154.96453857421875 119.71694946289062 C 135.8874969482422 131.64102172851562 135.82968139648438 127.0071792602539 140.67575073242188 130.7864532470703" stroke-width="3.0" fill="none" stroke="rgb(0, 0, 0)" stroke-opacity="1.0" stroke-linecap="round" stroke-linejoin="round"/>
    <path d="M 173.48928833007812 110.41213989257812 C 170.94020080566406 181.06092834472656 140.8608856201172 199.684814453125 159.02540588378906 188.48281860351562" stroke-width="3.0" fill="none" stroke="rgb(0, 0, 0)" stroke-opacity="1.0" stroke-linecap="round" stroke-linejoin="round"/>
    <path d="M 14.844079971313477 75.38250732421875 C 81.46187591552734 17.681936264038086 -18.854965209960938 66.79280090332031 69.916259765625 47.277469635009766" stroke-width="3.0" fill="none" stroke="rgb(0, 0, 0)" stroke-opacity="1.0" stroke-linecap="round" stroke-linejoin="round"/>
    <path d="M 86.56930541992188 67.90898132324219 C 33.30021286010742 42.67232131958008 0.23284858465194702 25.001985549926758 80.4394302368164 58.662879943847656" stroke-width="3.0" fill="none" stroke="rgb(0, 0, 0)" stroke-opacity="1.0" stroke-linecap="round" stroke-linejoin="round"/>
  </g>
</svg>
