<?xml version="1.0" ?>
<svg xmlns="http://www.w3.org/2000/svg" version="1.1" width="224" height="224">
  <defs/>
  <g>
    <path d="M 78.34659576416016 111.1856689453125 C 89.1597671508789 129.91571044921875 80.04727935791016 119.2098388671875 76.29222106933594 120.61378479003906" stroke-width="3.0" fill="none" stroke="rgb(0, 0, 0)" stroke-opacity="1.0" stroke-linecap="round" stroke-linejoin="round"/>
    <path d="M 74.46165466308594 122.73278045654297 C 115.75357055664062 134.90634155273438 110.72053527832031 123.36746215820312 135.6161346435547 126.08615112304688" stroke-width="3.0" fill="none" stroke="rgb(0, 0, 0)" stroke-opacity="1.0" stroke-linecap="round" stroke-linejoin="round"/>
    <path d="M 165.84768676757812 97.10407257080078 C 223.37945556640625 118.28277587890625 193.8878936767578 131.65838623046875 216.0823516845703 141.20498657226562" stroke-width="3.0" fill="none" stroke="rgb(0, 0, 0)" stroke-opacity="1.0" stroke-linecap="round" stroke-linejoin="round"/>
    <path d="M 45.93183898925781 71.25501251220703 C 61.623992919921875 149.655029296875 67.66575622558594 73.23149871826172 38.33116912841797 158.34559631347656" stroke-width="3.0" fill="none" stroke="rgb(0, 0, 0)" stroke-opacity="1.0" stroke-linecap="round" stroke-linejoin="round"/>
    <path d="M 107.90828704833984 87.57318878173828 C 136.511474609375 89.47897338867188 150.42938232421875 77.49781799316406 175.1646270751953 107.26441955566406" stroke-width="3.0" fill="none" stroke="rgb(0, 0, 0)" stroke-opacity="1.0" stroke-linecap="round" stroke-linejoin="round"/>
    <path d="M 135.54205322265625 126.0367202758789 C 133.85623168945312 126.62909698486328 135.57608032226562 129.43251037597656 133.77333068847656 125.21129608154297" stroke-width="3.0" fill="none" stroke="rgb(0, 0, 0)" stroke-opacity="1.0" stroke-linecap="round" stroke-linejoin="round"/>
    <path d="M 82.80992126464844 123.10298156738281 C 91.26483917236328 111.40948486328125 57.948883056640625 132.57862854003906 80.35903930664062 117.62244415283203" stroke-width="3.0" fill="none" stroke="rgb(0, 0, 0)" stroke-opacity="1.0" stroke-linecap="round" stroke-linejoin="round"/>
    <path d="M 143.03257751464844 126.45159149169922 C 120.25837707519531 177.10427856445312 138.86683654785156 152.56639099121094 100.6163330078125 184.92640686035156" stroke-width="3.0" fill="none" stroke="rgb(0, 0, 0)" stroke-opacity="1.0" stroke-linecap="round" stroke-linejoin="round"/>
    <path d="M 57.7469596862793 125.98006439208984 C -7.273970603942871 181.77174377441406 66.94767761230469 151.3227081298828 18.811365127563477 171.30368041992188" stroke-width="3.0" fill="none" stroke="rgb(0, 0, 0)" stroke-opacity="1.0" stroke-linecap="round" stroke-linejoin="round"/>
    <path d="M 34.93632888793945 35.254371643066406 C 111.44149017333984 89.48190307617188 35.50514221191406 68.86363983154297 112.52678680419922 88.00755310058594" stroke-width="3.0" fill="none" stroke="rgb(0, 0, 0)" stroke-opacity="1.0" stroke-linecap="round" stroke-linejoin="round"/>
    <path d="M 131.14056396484375 161.99639892578125 C 152.35726928710938 118.45234680175781 147.21051025390625 157.52426147460938 182.36549377441406 108.88555908203125" stroke-width="3.0" fill="none" stroke="rgb(0, 0, 0)" stroke-opacity="1.0" stroke-linecap="round" stroke-linejoin="round"/>
    <path d="M 33.43337631225586 154.54820251464844 C 68.6472396850586 114.94709777832031 62.05413818359375 143.6385498046875 71.04301452636719 115.17005920410156" stroke-width="3.0" fill="none" stroke="rgb(0, 0, 0)" stroke-opacity="1.0" stroke-linecap="round" stroke-linejoin="round"/>
    <path d="M 157.66651916503906 118.82811737060547 C 141.00970458984375 128.80235290527344 150.2361297607422 120.70342254638672 124.04956817626953 125.77989959716797" stroke-width="3.0" fill="none" stroke="rgb(0, 0, 0)" stroke-opacity="1.0" stroke-linecap="round" stroke-linejoin="round"/>
    <path d="M 173.58270263671875 113.6383056640625 C 167.91946411132812 228.79815673828125 136.6988983154297 184.7434539794922 161.64727783203125 190.78277587890625" stroke-width="3.0" fill="none" stroke="rgb(0, 0, 0)" stroke-opacity="1.0" stroke-linecap="round" stroke-linejoin="round"/>
    <path d="M 11.10955810546875 74.39303588867188 C 62.74673080444336 13.897576332092285 -12.114571571350098 76.83948516845703 53.588199615478516 39.39413070678711" stroke-width="3.0" fill="none" stroke="rgb(0, 0, 0)" stroke-opacity="1.0" stroke-linecap="round" stroke-linejoin="round"/>
    <path d="M 86.68043518066406 77.67281341552734 C 57.01873016357422 25.122325897216797 -6.165002346038818 37.66216278076172 77.07221221923828 58.25238800048828" stroke-width="3.0" fill="none" stroke="rgb(0, 0, 0)" stroke-opacity="1.0" stroke-linecap="round" stroke-linejoin="round"/>
  </g>
</svg>
