<?xml version="1.0" ?>
<svg xmlns="http://www.w3.org/2000/svg" version="1.1" width="224" height="224">
  <defs/>
  <g>
    <path d="M 76.7432632446289 122.47628784179688 C 83.78956604003906 125.92884063720703 84.86055755615234 122.82035064697266 74.6124496459961 117.3676528930664" stroke-width="3.0" fill="none" stroke="rgb(0, 0, 0)" stroke-opacity="1.0" stroke-linecap="round" stroke-linejoin="round"/>
    <path d="M 73.91377258300781 122.76934051513672 C 107.95819854736328 134.19818115234375 123.7573013305664 123.79718780517578 133.51480102539062 125.73682403564453" stroke-width="3.0" fill="none" stroke="rgb(0, 0, 0)" stroke-opacity="1.0" stroke-linecap="round" stroke-linejoin="round"/>
    <path d="M 154.49508666992188 91.56536102294922 C 221.66006469726562 120.48123931884766 187.1324005126953 134.9036407470703 215.41307067871094 140.44955444335938" stroke-width="3.0" fill="none" stroke="rgb(0, 0, 0)" stroke-opacity="1.0" stroke-linecap="round" stroke-linejoin="round"/>
    <path d="M 62.820404052734375 72.0455322265625 C 36.07830810546875 140.5141143798828 79.97907257080078 87.17303466796875 33.11178970336914 157.44252014160156" stroke-width="3.0" fill="none" stroke="rgb(0, 0, 0)" stroke-opacity="1.0" stroke-linecap="round" stroke-linejoin="round"/>
    <path d="M 127.17922973632812 90.83440399169922 C 133.44749450683594 90.1799087524414 169.24996948242188 87.26375579833984 176.52125549316406 108.03971099853516" stroke-width="3.0" fill="none" stroke="rgb(0, 0, 0)" stroke-opacity="1.0" stroke-linecap="round" stroke-linejoin="round"/>
    <path d="M 131.59164428710938 125.44055938720703 C 134.82693481445312 124.6239013671875 116.97689819335938 128.57994079589844 123.34561157226562 126.26520538330078" stroke-width="3.0" fill="none" stroke="rgb(0, 0, 0)" stroke-opacity="1.0" stroke-linecap="round" stroke-linejoin="round"/>
    <path d="M 77.92890930175781 122.29969024658203 C 77.30265808105469 116.52933502197266 68.22391510009766 120.7829818725586 79.15545654296875 123.24201202392578" stroke-width="3.0" fill="none" stroke="rgb(0, 0, 0)" stroke-opacity="1.0" stroke-linecap="round" stroke-linejoin="round"/>
    <path d="M 139.36788940429688 130.01292419433594 C 122.28374481201172 165.58770751953125 143.70394897460938 151.06675720214844 98.7752685546875 186.7371826171875" stroke-width="3.0" fill="none" stroke="rgb(0, 0, 0)" stroke-opacity="1.0" stroke-linecap="round" stroke-linejoin="round"/>
    <path d="M 57.50761795043945 122.6509017944336 C -4.012054920196533 174.58932495117188 48.52946472167969 156.29737854003906 16.630029678344727 168.40579223632812" stroke-width="3.0" fill="none" stroke="rgb(0, 0, 0)" stroke-opacity="1.0" stroke-linecap="round" stroke-linejoin="round"/>
    <path d="M 55.50123977661133 38.93327713012695 C 109.3770523071289 99.74839782714844 91.41805267333984 78.72677612304688 134.92483520507812 88.35624694824219" stroke-width="3.0" fill="none" stroke="rgb(0, 0, 0)" stroke-opacity="1.0" stroke-linecap="round" stroke-linejoin="round"/>
    <path d="M 132.35147094726562 157.96478271484375 C 148.31129455566406 120.7072982788086 145.75570678710938 147.42697143554688 176.15048217773438 114.77352142333984" stroke-width="3.0" fill="none" stroke="rgb(0, 0, 0)" stroke-opacity="1.0" stroke-linecap="round" stroke-linejoin="round"/>
    <path d="M 27.860124588012695 151.5394744873047 C 73.11969757080078 123.2843246459961 63.959014892578125 137.7072296142578 74.41290283203125 116.02565002441406" stroke-width="3.0" fill="none" stroke="rgb(0, 0, 0)" stroke-opacity="1.0" stroke-linecap="round" stroke-linejoin="round"/>
    <path d="M 139.13697814941406 125.87810516357422 C 131.1975860595703 116.2432632446289 136.156982421875 122.13191223144531 135.22671508789062 121.9957275390625" stroke-width="3.0" fill="none" stroke="rgb(0, 0, 0)" stroke-opacity="1.0" stroke-linecap="round" stroke-linejoin="round"/>
    <path d="M 173.57647705078125 122.32539367675781 C 182.87142944335938 148.0616912841797 142.86753845214844 200.90472412109375 161.6448974609375 192.75347900390625" stroke-width="3.0" fill="none" stroke="rgb(0, 0, 0)" stroke-opacity="1.0" stroke-linecap="round" stroke-linejoin="round"/>
    <path d="M 15.517187118530273 78.9506607055664 C 85.3670425415039 14.842970848083496 -5.6801958084106445 59.55438232421875 71.62506866455078 44.80372619628906" stroke-width="3.0" fill="none" stroke="rgb(0, 0, 0)" stroke-opacity="1.0" stroke-linecap="round" stroke-linejoin="round"/>
    <path d="M 84.19569396972656 61.222171783447266 C 43.48630142211914 42.32689666748047 19.74645233154297 23.274978637695312 80.80693817138672 55.1273193359375" stroke-width="3.0" fill="none" stroke="rgb(0, 0, 0)" stroke-opacity="1.0" stroke-linecap="round" stroke-linejoin="round"/>
  </g>
</svg>
