<?xml version="1.0" ?>
<svg xmlns="http://www.w3.org/2000/svg" version="1.1" width="224" height="224">
  <defs/>
  <g>
    <path d="M 80.32194519042969 117.81301879882812 C 91.62869262695312 127.1495590209961 82.94570922851562 121.9125747680664 82.4155044555664 119.6148452758789" stroke-width="3.0" fill="none" stroke="rgb(0, 0, 0)" stroke-opacity="1.0" stroke-linecap="round" stroke-linejoin="round"/>
    <path d="M 76.63337707519531 122.27301025390625 C 111.06681823730469 132.9849395751953 111.48373413085938 123.79875946044922 136.47808837890625 124.25514221191406" stroke-width="3.0" fill="none" stroke="rgb(0, 0, 0)" stroke-opacity="1.0" stroke-linecap="round" stroke-linejoin="round"/>
    <path d="M 155.9569854736328 89.7269287109375 C 227.26303100585938 121.61205291748047 190.2978973388672 128.75831604003906 216.77818298339844 142.30987548828125" stroke-width="3.0" fill="none" stroke="rgb(0, 0, 0)" stroke-opacity="1.0" stroke-linecap="round" stroke-linejoin="round"/>
    <path d="M 54.56162643432617 70.43489074707031 C 43.79536056518555 154.16122436523438 77.44920349121094 83.38465881347656 36.014976501464844 159.47549438476562" stroke-width="3.0" fill="none" stroke="rgb(0, 0, 0)" stroke-opacity="1.0" stroke-linecap="round" stroke-linejoin="round"/>
    <path d="M 124.64178466796875 88.19786834716797 C 138.85694885253906 87.94509887695312 153.23471069335938 80.85780334472656 173.844482421875 103.8343734741211" stroke-width="3.0" fill="none" stroke="rgb(0, 0, 0)" stroke-opacity="1.0" stroke-linecap="round" stroke-linejoin="round"/>
    <path d="M 154.19815063476562 121.6196060180664 C 148.50601196289062 125.11104583740234 129.85430908203125 122.69960021972656 135.398681640625 125.14053344726562" stroke-width="3.0" fill="none" stroke="rgb(0, 0, 0)" stroke-opacity="1.0" stroke-linecap="round" stroke-linejoin="round"/>
    <path d="M 78.75755310058594 121.3500747680664 C 91.81178283691406 116.3108139038086 63.96617889404297 130.4265594482422 82.333251953125 114.9459457397461" stroke-width="3.0" fill="none" stroke="rgb(0, 0, 0)" stroke-opacity="1.0" stroke-linecap="round" stroke-linejoin="round"/>
    <path d="M 136.7860565185547 127.56660461425781 C 125.64775848388672 176.8355255126953 140.7319793701172 156.6905517578125 97.75399780273438 185.07081604003906" stroke-width="3.0" fill="none" stroke="rgb(0, 0, 0)" stroke-opacity="1.0" stroke-linecap="round" stroke-linejoin="round"/>
    <path d="M 56.059288024902344 128.40785217285156 C -2.1665115356445312 173.43028259277344 52.490238189697266 152.9816436767578 17.618623733520508 168.66844177246094" stroke-width="3.0" fill="none" stroke="rgb(0, 0, 0)" stroke-opacity="1.0" stroke-linecap="round" stroke-linejoin="round"/>
    <path d="M 42.637428283691406 39.37081527709961 C 114.1042251586914 91.6921615600586 63.03956604003906 78.7061996459961 129.90890502929688 90.13765716552734" stroke-width="3.0" fill="none" stroke="rgb(0, 0, 0)" stroke-opacity="1.0" stroke-linecap="round" stroke-linejoin="round"/>
    <path d="M 134.50782775878906 158.30670166015625 C 152.7704315185547 115.31354522705078 149.7974395751953 151.16110229492188 179.09983825683594 107.24349212646484" stroke-width="3.0" fill="none" stroke="rgb(0, 0, 0)" stroke-opacity="1.0" stroke-linecap="round" stroke-linejoin="round"/>
    <path d="M 33.22243118286133 153.30419921875 C 73.44641876220703 120.47885131835938 62.46770477294922 146.59901428222656 73.28343200683594 114.84040832519531" stroke-width="3.0" fill="none" stroke="rgb(0, 0, 0)" stroke-opacity="1.0" stroke-linecap="round" stroke-linejoin="round"/>
    <path d="M 149.8524627685547 119.38455963134766 C 135.58319091796875 133.14137268066406 131.8964080810547 125.21002960205078 135.27890014648438 133.36647033691406" stroke-width="3.0" fill="none" stroke="rgb(0, 0, 0)" stroke-opacity="1.0" stroke-linecap="round" stroke-linejoin="round"/>
    <path d="M 173.98765563964844 113.76277923583984 C 172.4365692138672 189.5111083984375 135.75917053222656 208.696533203125 157.15859985351562 195.2885284423828" stroke-width="3.0" fill="none" stroke="rgb(0, 0, 0)" stroke-opacity="1.0" stroke-linecap="round" stroke-linejoin="round"/>
    <path d="M 14.873748779296875 74.74453735351562 C 78.67737579345703 14.27115249633789 -15.50478744506836 63.91797637939453 72.76011657714844 47.04146194458008" stroke-width="3.0" fill="none" stroke="rgb(0, 0, 0)" stroke-opacity="1.0" stroke-linecap="round" stroke-linejoin="round"/>
    <path d="M 87.38490295410156 70.4543228149414 C 35.43992614746094 42.086936950683594 -1.5624122619628906 30.405242919921875 83.18923950195312 61.26857376098633" stroke-width="3.0" fill="none" stroke="rgb(0, 0, 0)" stroke-opacity="1.0" stroke-linecap="round" stroke-linejoin="round"/>
  </g>
</svg>
