<?xml version="1.0" ?>
<svg xmlns="http://www.w3.org/2000/svg" version="1.1" width="224" height="224">
  <defs/>
  <g>
    <path d="M 80.4865493774414 105.63870239257812 C 83.89324188232422 130.5862579345703 77.88873291015625 114.5602798461914 75.28480529785156 121.33211517333984" stroke-width="3.0" fill="none" stroke="rgb(0, 0, 0)" stroke-opacity="1.0" stroke-linecap="round" stroke-linejoin="round"/>
    <path d="M 73.37081146240234 123.08562469482422 C 106.0450210571289 136.746337890625 115.49280548095703 125.49781799316406 134.94625854492188 126.60193634033203" stroke-width="3.0" fill="none" stroke="rgb(0, 0, 0)" stroke-opacity="1.0" stroke-linecap="round" stroke-linejoin="round"/>
    <path d="M 168.21603393554688 102.39675903320312 C 217.8914794921875 118.6176986694336 192.76722717285156 135.56192016601562 218.5131378173828 141.1572723388672" stroke-width="3.0" fill="none" stroke="rgb(0, 0, 0)" stroke-opacity="1.0" stroke-linecap="round" stroke-linejoin="round"/>
    <path d="M 49.88743209838867 59.2741813659668 C 70.03553771972656 158.4228973388672 47.82255554199219 94.4206771850586 34.49427795410156 148.95213317871094" stroke-width="3.0" fill="none" stroke="rgb(0, 0, 0)" stroke-opacity="1.0" stroke-linecap="round" stroke-linejoin="round"/>
    <path d="M 104.81246185302734 84.58770751953125 C 143.30685424804688 90.8118896484375 145.4441375732422 74.9828109741211 179.58282470703125 106.88252258300781" stroke-width="3.0" fill="none" stroke="rgb(0, 0, 0)" stroke-opacity="1.0" stroke-linecap="round" stroke-linejoin="round"/>
    <path d="M 134.84893798828125 124.36333465576172 C 132.90225219726562 135.50355529785156 141.3666534423828 123.83241271972656 125.55009460449219 128.3678436279297" stroke-width="3.0" fill="none" stroke="rgb(0, 0, 0)" stroke-opacity="1.0" stroke-linecap="round" stroke-linejoin="round"/>
    <path d="M 72.50704193115234 129.0889434814453 C 92.39278411865234 106.01061248779297 60.75780487060547 130.53466796875 80.8834228515625 118.60490417480469" stroke-width="3.0" fill="none" stroke="rgb(0, 0, 0)" stroke-opacity="1.0" stroke-linecap="round" stroke-linejoin="round"/>
    <path d="M 141.9427032470703 129.19883728027344 C 119.28413391113281 178.36550903320312 143.322509765625 157.3636932373047 98.92285919189453 183.47787475585938" stroke-width="3.0" fill="none" stroke="rgb(0, 0, 0)" stroke-opacity="1.0" stroke-linecap="round" stroke-linejoin="round"/>
    <path d="M 47.75396728515625 131.25323486328125 C -12.393189430236816 211.84886169433594 69.30475616455078 129.52459716796875 14.886754989624023 168.0957489013672" stroke-width="3.0" fill="none" stroke="rgb(0, 0, 0)" stroke-opacity="1.0" stroke-linecap="round" stroke-linejoin="round"/>
    <path d="M 34.63570785522461 36.6274528503418 C 106.75664520263672 71.20999908447266 57.65449523925781 66.88103485107422 108.57307434082031 86.60460662841797" stroke-width="3.0" fill="none" stroke="rgb(0, 0, 0)" stroke-opacity="1.0" stroke-linecap="round" stroke-linejoin="round"/>
    <path d="M 131.34519958496094 163.4684600830078 C 154.5789794921875 117.71617126464844 150.38697814941406 161.31173706054688 182.9469757080078 107.78512573242188" stroke-width="3.0" fill="none" stroke="rgb(0, 0, 0)" stroke-opacity="1.0" stroke-linecap="round" stroke-linejoin="round"/>
    <path d="M 38.97612380981445 160.41534423828125 C 60.50584030151367 112.6549072265625 49.415435791015625 144.94630432128906 81.58878326416016 114.8661880493164" stroke-width="3.0" fill="none" stroke="rgb(0, 0, 0)" stroke-opacity="1.0" stroke-linecap="round" stroke-linejoin="round"/>
    <path d="M 160.0577392578125 118.22891998291016 C 132.86892700195312 131.01568603515625 159.66033935546875 115.1112060546875 104.43766784667969 129.67782592773438" stroke-width="3.0" fill="none" stroke="rgb(0, 0, 0)" stroke-opacity="1.0" stroke-linecap="round" stroke-linejoin="round"/>
    <path d="M 173.8095245361328 106.49987030029297 C 165.2261505126953 227.2950439453125 137.8717498779297 180.31298828125 162.70346069335938 187.52883911132812" stroke-width="3.0" fill="none" stroke="rgb(0, 0, 0)" stroke-opacity="1.0" stroke-linecap="round" stroke-linejoin="round"/>
    <path d="M 14.084503173828125 76.72013854980469 C 70.72823333740234 9.114442825317383 -16.660564422607422 82.627685546875 59.449825286865234 36.876319885253906" stroke-width="3.0" fill="none" stroke="rgb(0, 0, 0)" stroke-opacity="1.0" stroke-linecap="round" stroke-linejoin="round"/>
    <path d="M 100.5085220336914 75.54424285888672 C 85.6113052368164 19.186342239379883 -28.342988967895508 46.9577751159668 81.43265533447266 52.063087463378906" stroke-width="3.0" fill="none" stroke="rgb(0, 0, 0)" stroke-opacity="1.0" stroke-linecap="round" stroke-linejoin="round"/>
  </g>
</svg>
