<?xml version="1.0" ?>
<svg xmlns="http://www.w3.org/2000/svg" version="1.1" width="224" height="224">
  <defs/>
  <g>
    <path d="M 105.23834991455078 120.15924072265625 C 108.19305419921875 120.8030014038086 100.49879455566406 121.90797424316406 95.12743377685547 113.59150695800781" stroke-width="3.0" fill="none" stroke="rgb(0, 0, 0)" stroke-opacity="1.0" stroke-linecap="round" stroke-linejoin="round"/>
    <path d="M 90.87378692626953 123.31732177734375 C 108.00872039794922 126.435302734375 114.61808013916016 141.6396484375 130.93603515625 117.70988464355469" stroke-width="3.0" fill="none" stroke="rgb(0, 0, 0)" stroke-opacity="1.0" stroke-linecap="round" stroke-linejoin="round"/>
    <path d="M 155.46694946289062 93.37550354003906 C 220.79705810546875 113.91188049316406 190.5583953857422 136.09487915039062 215.16087341308594 143.84898376464844" stroke-width="3.0" fill="none" stroke="rgb(0, 0, 0)" stroke-opacity="1.0" stroke-linecap="round" stroke-linejoin="round"/>
    <path d="M 46.910804748535156 94.80390167236328 C 52.05927658081055 123.00127410888672 68.32911682128906 108.77445983886719 57.124717712402344 132.70555114746094" stroke-width="3.0" fill="none" stroke="rgb(0, 0, 0)" stroke-opacity="1.0" stroke-linecap="round" stroke-linejoin="round"/>
    <path d="M 134.32901000976562 89.72978210449219 C 159.0303497314453 89.5444564819336 143.97764587402344 86.88397216796875 162.32049560546875 95.76248168945312" stroke-width="3.0" fill="none" stroke="rgb(0, 0, 0)" stroke-opacity="1.0" stroke-linecap="round" stroke-linejoin="round"/>
    <path d="M 138.75253295898438 106.19647216796875 C 127.62454223632812 124.62218475341797 114.791259765625 116.76526641845703 124.97280883789062 118.87484741210938" stroke-width="3.0" fill="none" stroke="rgb(0, 0, 0)" stroke-opacity="1.0" stroke-linecap="round" stroke-linejoin="round"/>
    <path d="M 95.60504913330078 111.2448959350586 C 84.20113372802734 118.59251403808594 84.82075500488281 116.560546875 87.14685821533203 121.27685546875" stroke-width="3.0" fill="none" stroke="rgb(0, 0, 0)" stroke-opacity="1.0" stroke-linecap="round" stroke-linejoin="round"/>
    <path d="M 131.8765869140625 134.81382751464844 C 135.84164428710938 168.99725341796875 140.1689910888672 155.2238006591797 98.61318969726562 186.41693115234375" stroke-width="3.0" fill="none" stroke="rgb(0, 0, 0)" stroke-opacity="1.0" stroke-linecap="round" stroke-linejoin="round"/>
    <path d="M 45.999839782714844 149.05752563476562 C 27.87081527709961 170.74728393554688 57.19145202636719 139.9498291015625 14.41391658782959 168.28062438964844" stroke-width="3.0" fill="none" stroke="rgb(0, 0, 0)" stroke-opacity="1.0" stroke-linecap="round" stroke-linejoin="round"/>
    <path d="M 86.53514862060547 65.12255096435547 C 104.39720916748047 85.05461120605469 108.87907409667969 87.30461883544922 133.09934997558594 88.4215087890625" stroke-width="3.0" fill="none" stroke="rgb(0, 0, 0)" stroke-opacity="1.0" stroke-linecap="round" stroke-linejoin="round"/>
    <path d="M 129.74468994140625 134.94761657714844 C 128.28814697265625 135.6395263671875 149.02565002441406 136.5003204345703 165.84178161621094 125.56504821777344" stroke-width="3.0" fill="none" stroke="rgb(0, 0, 0)" stroke-opacity="1.0" stroke-linecap="round" stroke-linejoin="round"/>
    <path d="M 71.7426986694336 136.7957763671875 C 87.7151870727539 112.4610366821289 70.65797424316406 123.40657043457031 95.63320922851562 114.81739807128906" stroke-width="3.0" fill="none" stroke="rgb(0, 0, 0)" stroke-opacity="1.0" stroke-linecap="round" stroke-linejoin="round"/>
    <path d="M 144.84786987304688 102.46014404296875 C 136.13449096679688 110.35126495361328 136.55902099609375 107.03117370605469 132.52963256835938 117.01567840576172" stroke-width="3.0" fill="none" stroke="rgb(0, 0, 0)" stroke-opacity="1.0" stroke-linecap="round" stroke-linejoin="round"/>
    <path d="M 153.9110565185547 135.39273071289062 C 182.22341918945312 162.71066284179688 140.87623596191406 195.55184936523438 161.32948303222656 190.34188842773438" stroke-width="3.0" fill="none" stroke="rgb(0, 0, 0)" stroke-opacity="1.0" stroke-linecap="round" stroke-linejoin="round"/>
    <path d="M 21.999479293823242 50.54367446899414 C 55.972171783447266 19.321758270263672 40.794921875 58.8924674987793 71.04757690429688 37.25896453857422" stroke-width="3.0" fill="none" stroke="rgb(0, 0, 0)" stroke-opacity="1.0" stroke-linecap="round" stroke-linejoin="round"/>
    <path d="M 92.42559814453125 64.42010498046875 C 68.46644592285156 45.691890716552734 51.93370056152344 58.41257095336914 69.20494079589844 46.76865768432617" stroke-width="3.0" fill="none" stroke="rgb(0, 0, 0)" stroke-opacity="1.0" stroke-linecap="round" stroke-linejoin="round"/>
  </g>
</svg>
