<?xml version="1.0" ?>
<svg xmlns="http://www.w3.org/2000/svg" version="1.1" width="224" height="224">
  <defs/>
  <g>
    <path d="M 77.49842071533203 123.55792236328125 C 88.81887817382812 128.93719482421875 84.40746307373047 128.9176025390625 79.9463119506836 118.70820617675781" stroke-width="3.0" fill="none" stroke="rgb(0, 0, 0)" stroke-opacity="1.0" stroke-linecap="round" stroke-linejoin="round"/>
    <path d="M 74.12332916259766 124.47590637207031 C 112.42137908935547 136.7592315673828 113.89672088623047 128.573974609375 134.0856170654297 124.88968658447266" stroke-width="3.0" fill="none" stroke="rgb(0, 0, 0)" stroke-opacity="1.0" stroke-linecap="round" stroke-linejoin="round"/>
    <path d="M 153.47569274902344 92.87210083007812 C 227.1808624267578 119.75724792480469 188.2341766357422 128.68731689453125 215.32186889648438 141.35789489746094" stroke-width="3.0" fill="none" stroke="rgb(0, 0, 0)" stroke-opacity="1.0" stroke-linecap="round" stroke-linejoin="round"/>
    <path d="M 65.59844207763672 71.02044677734375 C 46.82561111450195 153.486572265625 79.13851165771484 81.77671813964844 30.184816360473633 155.16543579101562" stroke-width="3.0" fill="none" stroke="rgb(0, 0, 0)" stroke-opacity="1.0" stroke-linecap="round" stroke-linejoin="round"/>
    <path d="M 128.09765625 90.25177001953125 C 134.51992797851562 90.28985595703125 157.90634155273438 84.57600402832031 173.42652893066406 106.3052978515625" stroke-width="3.0" fill="none" stroke="rgb(0, 0, 0)" stroke-opacity="1.0" stroke-linecap="round" stroke-linejoin="round"/>
    <path d="M 138.21926879882812 124.10321807861328 C 139.5883331298828 127.19868469238281 123.30525970458984 126.50814819335938 133.50146484375 126.33476257324219" stroke-width="3.0" fill="none" stroke="rgb(0, 0, 0)" stroke-opacity="1.0" stroke-linecap="round" stroke-linejoin="round"/>
    <path d="M 76.64938354492188 124.815185546875 C 83.53903198242188 118.84526824951172 67.53608703613281 128.01702880859375 78.98263549804688 122.94239044189453" stroke-width="3.0" fill="none" stroke="rgb(0, 0, 0)" stroke-opacity="1.0" stroke-linecap="round" stroke-linejoin="round"/>
    <path d="M 138.7189178466797 129.39942932128906 C 120.18277740478516 172.07875061035156 144.05474853515625 154.6150665283203 97.73358917236328 184.2936248779297" stroke-width="3.0" fill="none" stroke="rgb(0, 0, 0)" stroke-opacity="1.0" stroke-linecap="round" stroke-linejoin="round"/>
    <path d="M 55.39786148071289 121.22677612304688 C -5.036838531494141 172.24649047851562 52.419288635253906 152.6492462158203 13.815821647644043 168.13491821289062" stroke-width="3.0" fill="none" stroke="rgb(0, 0, 0)" stroke-opacity="1.0" stroke-linecap="round" stroke-linejoin="round"/>
    <path d="M 53.51416778564453 40.527713775634766 C 107.85287475585938 101.16700744628906 80.44013214111328 81.90848541259766 136.59950256347656 92.0079116821289" stroke-width="3.0" fill="none" stroke="rgb(0, 0, 0)" stroke-opacity="1.0" stroke-linecap="round" stroke-linejoin="round"/>
    <path d="M 132.297119140625 161.12937927246094 C 149.56097412109375 116.38121795654297 156.2226104736328 152.0486602783203 178.90135192871094 108.22025299072266" stroke-width="3.0" fill="none" stroke="rgb(0, 0, 0)" stroke-opacity="1.0" stroke-linecap="round" stroke-linejoin="round"/>
    <path d="M 27.846813201904297 150.85470581054688 C 72.95795440673828 116.26437377929688 55.69953536987305 146.64295959472656 76.87128448486328 110.69754028320312" stroke-width="3.0" fill="none" stroke="rgb(0, 0, 0)" stroke-opacity="1.0" stroke-linecap="round" stroke-linejoin="round"/>
    <path d="M 148.1822052001953 121.67292022705078 C 135.53302001953125 130.5052490234375 133.462158203125 117.48875427246094 134.62623596191406 128.82330322265625" stroke-width="3.0" fill="none" stroke="rgb(0, 0, 0)" stroke-opacity="1.0" stroke-linecap="round" stroke-linejoin="round"/>
    <path d="M 173.81143188476562 119.7388916015625 C 177.396240234375 161.7647705078125 139.65939331054688 201.88555908203125 160.0549774169922 190.35482788085938" stroke-width="3.0" fill="none" stroke="rgb(0, 0, 0)" stroke-opacity="1.0" stroke-linecap="round" stroke-linejoin="round"/>
    <path d="M 11.544820785522461 74.93697357177734 C 77.2647933959961 12.770879745483398 -17.07390785217285 57.70529556274414 71.63803100585938 44.88164138793945" stroke-width="3.0" fill="none" stroke="rgb(0, 0, 0)" stroke-opacity="1.0" stroke-linecap="round" stroke-linejoin="round"/>
    <path d="M 85.71256256103516 66.8745346069336 C 39.61599349975586 37.008243560791016 3.9298932552337646 24.94219207763672 77.62919616699219 55.04132080078125" stroke-width="3.0" fill="none" stroke="rgb(0, 0, 0)" stroke-opacity="1.0" stroke-linecap="round" stroke-linejoin="round"/>
  </g>
</svg>
