<?xml version="1.0" ?>
<svg xmlns="http://www.w3.org/2000/svg" version="1.1" width="224" height="224">
  <defs/>
  <g>
    <path d="M 76.60428619384766 121.30570220947266 C 84.88211059570312 124.5400161743164 85.84420013427734 122.71379852294922 76.31951141357422 118.13187408447266" stroke-width="3.0" fill="none" stroke="rgb(0, 0, 0)" stroke-opacity="1.0" stroke-linecap="round" stroke-linejoin="round"/>
    <path d="M 75.14816284179688 124.67904663085938 C 109.53519439697266 136.1190948486328 121.90512084960938 124.86626434326172 131.6728515625 127.90033721923828" stroke-width="3.0" fill="none" stroke="rgb(0, 0, 0)" stroke-opacity="1.0" stroke-linecap="round" stroke-linejoin="round"/>
    <path d="M 156.43557739257812 92.486572265625 C 224.42538452148438 117.23738861083984 191.26748657226562 133.99237060546875 213.7914276123047 146.39830017089844" stroke-width="3.0" fill="none" stroke="rgb(0, 0, 0)" stroke-opacity="1.0" stroke-linecap="round" stroke-linejoin="round"/>
    <path d="M 58.864158630371094 72.73590850830078 C 33.75664138793945 146.57107543945312 79.70204162597656 89.53559875488281 31.647708892822266 157.76426696777344" stroke-width="3.0" fill="none" stroke="rgb(0, 0, 0)" stroke-opacity="1.0" stroke-linecap="round" stroke-linejoin="round"/>
    <path d="M 128.27540588378906 89.93708038330078 C 135.2645721435547 92.03838348388672 169.74667358398438 84.58726501464844 172.37059020996094 110.6629867553711" stroke-width="3.0" fill="none" stroke="rgb(0, 0, 0)" stroke-opacity="1.0" stroke-linecap="round" stroke-linejoin="round"/>
    <path d="M 133.00450134277344 124.82551574707031 C 135.09515380859375 125.42277526855469 117.33627319335938 129.4792938232422 125.58601379394531 127.91231536865234" stroke-width="3.0" fill="none" stroke="rgb(0, 0, 0)" stroke-opacity="1.0" stroke-linecap="round" stroke-linejoin="round"/>
    <path d="M 77.09925079345703 121.65809631347656 C 76.97218322753906 115.87178802490234 65.88142395019531 124.59255981445312 81.03564453125 123.21597290039062" stroke-width="3.0" fill="none" stroke="rgb(0, 0, 0)" stroke-opacity="1.0" stroke-linecap="round" stroke-linejoin="round"/>
    <path d="M 140.04661560058594 128.6792449951172 C 124.41270446777344 170.31582641601562 141.44711303710938 154.33547973632812 97.90328979492188 185.33290100097656" stroke-width="3.0" fill="none" stroke="rgb(0, 0, 0)" stroke-opacity="1.0" stroke-linecap="round" stroke-linejoin="round"/>
    <path d="M 59.003623962402344 121.98807525634766 C -2.8441789150238037 175.37625122070312 50.67439270019531 157.17652893066406 14.987327575683594 168.29298400878906" stroke-width="3.0" fill="none" stroke="rgb(0, 0, 0)" stroke-opacity="1.0" stroke-linecap="round" stroke-linejoin="round"/>
    <path d="M 52.48795700073242 42.665184020996094 C 107.22250366210938 101.63768768310547 93.32523345947266 80.2505111694336 133.7737274169922 90.92422485351562" stroke-width="3.0" fill="none" stroke="rgb(0, 0, 0)" stroke-opacity="1.0" stroke-linecap="round" stroke-linejoin="round"/>
    <path d="M 134.11146545410156 157.15374755859375 C 147.73934936523438 118.72527313232422 141.2666778564453 149.51976013183594 177.14617919921875 112.41062927246094" stroke-width="3.0" fill="none" stroke="rgb(0, 0, 0)" stroke-opacity="1.0" stroke-linecap="round" stroke-linejoin="round"/>
    <path d="M 26.612253189086914 153.71682739257812 C 72.45405578613281 118.71165466308594 62.891239166259766 139.10150146484375 75.84756469726562 115.66165924072266" stroke-width="3.0" fill="none" stroke="rgb(0, 0, 0)" stroke-opacity="1.0" stroke-linecap="round" stroke-linejoin="round"/>
    <path d="M 146.9775848388672 120.2823715209961 C 128.4335479736328 122.99076843261719 138.25418090820312 121.79374694824219 138.32615661621094 125.40532684326172" stroke-width="3.0" fill="none" stroke="rgb(0, 0, 0)" stroke-opacity="1.0" stroke-linecap="round" stroke-linejoin="round"/>
    <path d="M 172.85305786132812 122.77157592773438 C 180.99874877929688 147.415771484375 143.18368530273438 199.92742919921875 162.4097137451172 193.319580078125" stroke-width="3.0" fill="none" stroke="rgb(0, 0, 0)" stroke-opacity="1.0" stroke-linecap="round" stroke-linejoin="round"/>
    <path d="M 13.601288795471191 76.25239562988281 C 75.75196075439453 22.010744094848633 -15.440909385681152 64.14949035644531 73.0047607421875 45.95926284790039" stroke-width="3.0" fill="none" stroke="rgb(0, 0, 0)" stroke-opacity="1.0" stroke-linecap="round" stroke-linejoin="round"/>
    <path d="M 84.11988067626953 67.05155181884766 C 38.798431396484375 44.56491470336914 13.809083938598633 23.662456512451172 75.148681640625 58.642181396484375" stroke-width="3.0" fill="none" stroke="rgb(0, 0, 0)" stroke-opacity="1.0" stroke-linecap="round" stroke-linejoin="round"/>
  </g>
</svg>
