<?xml version="1.0" ?>
<svg xmlns="http://www.w3.org/2000/svg" version="1.1" width="224" height="224">
  <defs/>
  <g>
    <path d="M 76.5762710571289 106.95182800292969 C 89.40399169921875 132.9960174560547 80.5325698852539 119.05335998535156 78.13610076904297 123.67295837402344" stroke-width="3.0" fill="none" stroke="rgb(0, 0, 0)" stroke-opacity="1.0" stroke-linecap="round" stroke-linejoin="round"/>
    <path d="M 71.5747299194336 125.11051940917969 C 110.21150207519531 137.41571044921875 114.64778900146484 130.60311889648438 134.62942504882812 129.85105895996094" stroke-width="3.0" fill="none" stroke="rgb(0, 0, 0)" stroke-opacity="1.0" stroke-linecap="round" stroke-linejoin="round"/>
    <path d="M 169.2891387939453 103.56100463867188 C 223.9097900390625 115.20021057128906 196.90115356445312 135.44407653808594 216.6139678955078 145.10250854492188" stroke-width="3.0" fill="none" stroke="rgb(0, 0, 0)" stroke-opacity="1.0" stroke-linecap="round" stroke-linejoin="round"/>
    <path d="M 47.753440856933594 57.223976135253906 C 58.219364166259766 158.69161987304688 54.834022521972656 89.119873046875 35.01901626586914 150.64859008789062" stroke-width="3.0" fill="none" stroke="rgb(0, 0, 0)" stroke-opacity="1.0" stroke-linecap="round" stroke-linejoin="round"/>
    <path d="M 103.58446502685547 88.68394470214844 C 137.95016479492188 95.46147155761719 142.5436248779297 78.31817626953125 174.75775146484375 104.01937866210938" stroke-width="3.0" fill="none" stroke="rgb(0, 0, 0)" stroke-opacity="1.0" stroke-linecap="round" stroke-linejoin="round"/>
    <path d="M 131.5989532470703 127.73575592041016 C 138.35903930664062 136.240966796875 140.46823120117188 124.72394561767578 122.34901428222656 127.96122741699219" stroke-width="3.0" fill="none" stroke="rgb(0, 0, 0)" stroke-opacity="1.0" stroke-linecap="round" stroke-linejoin="round"/>
    <path d="M 76.57071685791016 123.5888900756836 C 90.20555114746094 104.25425720214844 67.90961456298828 135.0783233642578 83.44182586669922 121.27629852294922" stroke-width="3.0" fill="none" stroke="rgb(0, 0, 0)" stroke-opacity="1.0" stroke-linecap="round" stroke-linejoin="round"/>
    <path d="M 143.28414916992188 129.28868103027344 C 119.55160522460938 176.87013244628906 142.14724731445312 155.00872802734375 100.47482299804688 184.7684326171875" stroke-width="3.0" fill="none" stroke="rgb(0, 0, 0)" stroke-opacity="1.0" stroke-linecap="round" stroke-linejoin="round"/>
    <path d="M 52.51251983642578 128.15362548828125 C -13.331436157226562 210.04393005371094 70.51362609863281 134.0320587158203 15.778153419494629 165.8670654296875" stroke-width="3.0" fill="none" stroke="rgb(0, 0, 0)" stroke-opacity="1.0" stroke-linecap="round" stroke-linejoin="round"/>
    <path d="M 34.29142379760742 40.35572814941406 C 107.39373016357422 71.14974975585938 54.016639709472656 70.58609771728516 105.62571716308594 89.2628173828125" stroke-width="3.0" fill="none" stroke="rgb(0, 0, 0)" stroke-opacity="1.0" stroke-linecap="round" stroke-linejoin="round"/>
    <path d="M 130.4654083251953 164.58596801757812 C 156.46189880371094 118.02490997314453 148.5240478515625 159.4219207763672 179.2599639892578 106.17937469482422" stroke-width="3.0" fill="none" stroke="rgb(0, 0, 0)" stroke-opacity="1.0" stroke-linecap="round" stroke-linejoin="round"/>
    <path d="M 40.57698059082031 160.3997344970703 C 59.60175704956055 118.43286895751953 48.11872863769531 149.04734802246094 80.71168518066406 115.2922592163086" stroke-width="3.0" fill="none" stroke="rgb(0, 0, 0)" stroke-opacity="1.0" stroke-linecap="round" stroke-linejoin="round"/>
    <path d="M 155.67825317382812 117.31446838378906 C 137.25257873535156 130.01121520996094 162.78814697265625 117.32257843017578 107.3740234375 132.0143585205078" stroke-width="3.0" fill="none" stroke="rgb(0, 0, 0)" stroke-opacity="1.0" stroke-linecap="round" stroke-linejoin="round"/>
    <path d="M 173.46566772460938 108.5373306274414 C 166.5037078857422 228.3607635498047 138.8666229248047 177.21270751953125 161.46673583984375 188.83714294433594" stroke-width="3.0" fill="none" stroke="rgb(0, 0, 0)" stroke-opacity="1.0" stroke-linecap="round" stroke-linejoin="round"/>
    <path d="M 18.621774673461914 76.36048126220703 C 63.600929260253906 11.685218811035156 -11.82998275756836 86.5718002319336 51.432796478271484 36.69762420654297" stroke-width="3.0" fill="none" stroke="rgb(0, 0, 0)" stroke-opacity="1.0" stroke-linecap="round" stroke-linejoin="round"/>
    <path d="M 91.23823547363281 80.34371185302734 C 81.63190460205078 18.835474014282227 -25.695528030395508 46.85205078125 82.02680969238281 53.25404357910156" stroke-width="3.0" fill="none" stroke="rgb(0, 0, 0)" stroke-opacity="1.0" stroke-linecap="round" stroke-linejoin="round"/>
  </g>
</svg>
