<?xml version="1.0" ?>
<svg xmlns="http://www.w3.org/2000/svg" version="1.1" width="224" height="224">
  <defs/>
  <g>
    <path d="M 95.04007720947266 121.6829833984375 C 82.08222961425781 122.73919677734375 87.35216522216797 122.47657012939453 77.34818267822266 117.91638946533203" stroke-width="3.0" fill="none" stroke="rgb(0, 0, 0)" stroke-opacity="1.0" stroke-linecap="round" stroke-linejoin="round"/>
    <path d="M 74.80980682373047 118.66414642333984 C 101.7546157836914 136.2171173095703 109.89459228515625 126.73795318603516 134.91017150878906 117.85877227783203" stroke-width="3.0" fill="none" stroke="rgb(0, 0, 0)" stroke-opacity="1.0" stroke-linecap="round" stroke-linejoin="round"/>
    <path d="M 151.23973083496094 92.04878997802734 C 229.41563415527344 119.18670654296875 189.61077880859375 131.829345703125 214.71510314941406 143.82940673828125" stroke-width="3.0" fill="none" stroke="rgb(0, 0, 0)" stroke-opacity="1.0" stroke-linecap="round" stroke-linejoin="round"/>
    <path d="M 46.87912368774414 62.666404724121094 C 36.64448547363281 137.94027709960938 80.3910140991211 111.48875427246094 38.099876403808594 154.0809783935547" stroke-width="3.0" fill="none" stroke="rgb(0, 0, 0)" stroke-opacity="1.0" stroke-linecap="round" stroke-linejoin="round"/>
    <path d="M 134.8547821044922 90.7077865600586 C 148.5346221923828 92.92872619628906 154.38771057128906 88.79639434814453 162.85903930664062 100.16459655761719" stroke-width="3.0" fill="none" stroke="rgb(0, 0, 0)" stroke-opacity="1.0" stroke-linecap="round" stroke-linejoin="round"/>
    <path d="M 134.21405029296875 122.08938598632812 C 129.7303924560547 121.50593566894531 119.0113296508789 124.75587463378906 125.37043762207031 122.92302703857422" stroke-width="3.0" fill="none" stroke="rgb(0, 0, 0)" stroke-opacity="1.0" stroke-linecap="round" stroke-linejoin="round"/>
    <path d="M 77.58837890625 120.43681335449219 C 73.58921813964844 123.99436950683594 62.7238655090332 118.78693389892578 87.42761993408203 126.27001190185547" stroke-width="3.0" fill="none" stroke="rgb(0, 0, 0)" stroke-opacity="1.0" stroke-linecap="round" stroke-linejoin="round"/>
    <path d="M 134.94908142089844 136.09375 C 122.86107635498047 167.81808471679688 142.3870849609375 151.72317504882812 100.02091217041016 184.73568725585938" stroke-width="3.0" fill="none" stroke="rgb(0, 0, 0)" stroke-opacity="1.0" stroke-linecap="round" stroke-linejoin="round"/>
    <path d="M 55.17018508911133 118.06270599365234 C -0.2543192207813263 180.65313720703125 46.99886703491211 152.85409545898438 17.153764724731445 168.96902465820312" stroke-width="3.0" fill="none" stroke="rgb(0, 0, 0)" stroke-opacity="1.0" stroke-linecap="round" stroke-linejoin="round"/>
    <path d="M 76.11866760253906 56.9654426574707 C 88.849853515625 92.69121551513672 106.54350280761719 82.28722381591797 140.1656951904297 92.36442565917969" stroke-width="3.0" fill="none" stroke="rgb(0, 0, 0)" stroke-opacity="1.0" stroke-linecap="round" stroke-linejoin="round"/>
    <path d="M 133.79759216308594 127.90057373046875 C 124.97966766357422 139.40769958496094 126.8154067993164 138.3554229736328 167.2061767578125 124.5517349243164" stroke-width="3.0" fill="none" stroke="rgb(0, 0, 0)" stroke-opacity="1.0" stroke-linecap="round" stroke-linejoin="round"/>
    <path d="M 60.98648452758789 135.56964111328125 C 84.91858673095703 126.09791564941406 64.08589172363281 129.0907745361328 75.26358795166016 114.0238037109375" stroke-width="3.0" fill="none" stroke="rgb(0, 0, 0)" stroke-opacity="1.0" stroke-linecap="round" stroke-linejoin="round"/>
    <path d="M 139.96234130859375 111.63783264160156 C 133.26797485351562 118.48762512207031 136.94314575195312 124.35443115234375 133.4561309814453 121.72417449951172" stroke-width="3.0" fill="none" stroke="rgb(0, 0, 0)" stroke-opacity="1.0" stroke-linecap="round" stroke-linejoin="round"/>
    <path d="M 154.75474548339844 134.8875732421875 C 185.98324584960938 176.22653198242188 139.5778045654297 193.47975158691406 161.3099822998047 193.2816619873047" stroke-width="3.0" fill="none" stroke="rgb(0, 0, 0)" stroke-opacity="1.0" stroke-linecap="round" stroke-linejoin="round"/>
    <path d="M 15.335494995117188 78.38687133789062 C 55.800010681152344 -4.258251667022705 34.4215202331543 60.78124237060547 67.88922882080078 37.677276611328125" stroke-width="3.0" fill="none" stroke="rgb(0, 0, 0)" stroke-opacity="1.0" stroke-linecap="round" stroke-linejoin="round"/>
    <path d="M 85.0112075805664 63.984825134277344 C 60.55508804321289 39.04957962036133 41.84773635864258 37.816566467285156 79.16083526611328 49.54641342163086" stroke-width="3.0" fill="none" stroke="rgb(0, 0, 0)" stroke-opacity="1.0" stroke-linecap="round" stroke-linejoin="round"/>
  </g>
</svg>
