<?xml version="1.0" ?>
<svg xmlns="http://www.w3.org/2000/svg" version="1.1" width="224" height="224">
  <defs/>
  <g>
    <path d="M 80.91302490234375 109.91339874267578 C 94.26209259033203 130.83572387695312 84.13745880126953 121.25457000732422 81.95252227783203 118.6840591430664" stroke-width="3.0" fill="none" stroke="rgb(0, 0, 0)" stroke-opacity="1.0" stroke-linecap="round" stroke-linejoin="round"/>
    <path d="M 78.27925109863281 122.97361755371094 C 112.79756927490234 133.8348388671875 114.54486083984375 125.07512664794922 135.8706817626953 124.72447967529297" stroke-width="3.0" fill="none" stroke="rgb(0, 0, 0)" stroke-opacity="1.0" stroke-linecap="round" stroke-linejoin="round"/>
    <path d="M 163.35635375976562 97.11133575439453 C 220.09695434570312 119.97602081298828 194.1655731201172 135.52099609375 218.4497833251953 143.7043914794922" stroke-width="3.0" fill="none" stroke="rgb(0, 0, 0)" stroke-opacity="1.0" stroke-linecap="round" stroke-linejoin="round"/>
    <path d="M 48.555728912353516 65.03228759765625 C 39.619384765625 158.3789520263672 76.15524291992188 81.15618133544922 33.60613250732422 159.6850128173828" stroke-width="3.0" fill="none" stroke="rgb(0, 0, 0)" stroke-opacity="1.0" stroke-linecap="round" stroke-linejoin="round"/>
    <path d="M 119.43263244628906 88.13949584960938 C 133.37420654296875 89.07128143310547 150.84890747070312 79.15390014648438 169.59967041015625 104.81068420410156" stroke-width="3.0" fill="none" stroke="rgb(0, 0, 0)" stroke-opacity="1.0" stroke-linecap="round" stroke-linejoin="round"/>
    <path d="M 143.1881103515625 125.1279525756836 C 124.85749816894531 122.9679946899414 130.35263061523438 127.05567932128906 133.6746063232422 127.50055694580078" stroke-width="3.0" fill="none" stroke="rgb(0, 0, 0)" stroke-opacity="1.0" stroke-linecap="round" stroke-linejoin="round"/>
    <path d="M 80.69954681396484 120.79000091552734 C 93.31303405761719 105.19232940673828 69.80596923828125 130.45053100585938 85.01994323730469 118.89749145507812" stroke-width="3.0" fill="none" stroke="rgb(0, 0, 0)" stroke-opacity="1.0" stroke-linecap="round" stroke-linejoin="round"/>
    <path d="M 138.9192657470703 125.89834594726562 C 121.21498107910156 173.39569091796875 142.53431701660156 155.241943359375 99.6844253540039 183.83447265625" stroke-width="3.0" fill="none" stroke="rgb(0, 0, 0)" stroke-opacity="1.0" stroke-linecap="round" stroke-linejoin="round"/>
    <path d="M 60.01645278930664 120.72671508789062 C -12.536964416503906 181.03382873535156 57.00059127807617 151.29885864257812 15.378198623657227 167.48304748535156" stroke-width="3.0" fill="none" stroke="rgb(0, 0, 0)" stroke-opacity="1.0" stroke-linecap="round" stroke-linejoin="round"/>
    <path d="M 38.38848876953125 41.353187561035156 C 127.0312271118164 85.2953109741211 50.601280212402344 76.34683227539062 122.22998046875 88.51097869873047" stroke-width="3.0" fill="none" stroke="rgb(0, 0, 0)" stroke-opacity="1.0" stroke-linecap="round" stroke-linejoin="round"/>
    <path d="M 132.53675842285156 160.9261932373047 C 152.50401306152344 115.54656219482422 150.9344024658203 154.76747131347656 181.27073669433594 105.9095687866211" stroke-width="3.0" fill="none" stroke="rgb(0, 0, 0)" stroke-opacity="1.0" stroke-linecap="round" stroke-linejoin="round"/>
    <path d="M 29.40957260131836 155.2694091796875 C 71.67961883544922 117.35659790039062 68.84107971191406 147.49681091308594 75.47505950927734 115.04928588867188" stroke-width="3.0" fill="none" stroke="rgb(0, 0, 0)" stroke-opacity="1.0" stroke-linecap="round" stroke-linejoin="round"/>
    <path d="M 155.03868103027344 118.78279876708984 C 139.38253784179688 130.3204803466797 135.7891845703125 119.55023956298828 132.8184356689453 126.78703308105469" stroke-width="3.0" fill="none" stroke="rgb(0, 0, 0)" stroke-opacity="1.0" stroke-linecap="round" stroke-linejoin="round"/>
    <path d="M 169.96435546875 111.78515625 C 164.20654296875 229.37869262695312 135.02090454101562 183.78668212890625 160.26817321777344 190.24122619628906" stroke-width="3.0" fill="none" stroke="rgb(0, 0, 0)" stroke-opacity="1.0" stroke-linecap="round" stroke-linejoin="round"/>
    <path d="M 12.102170944213867 72.46087646484375 C 66.59805297851562 18.992862701416016 -18.674283981323242 70.32249450683594 65.87767028808594 48.93638229370117" stroke-width="3.0" fill="none" stroke="rgb(0, 0, 0)" stroke-opacity="1.0" stroke-linecap="round" stroke-linejoin="round"/>
    <path d="M 93.25127410888672 69.40027618408203 C 46.16485595703125 34.478633880615234 -17.446670532226562 40.99598693847656 83.39257049560547 56.654502868652344" stroke-width="3.0" fill="none" stroke="rgb(0, 0, 0)" stroke-opacity="1.0" stroke-linecap="round" stroke-linejoin="round"/>
  </g>
</svg>
