<?xml version="1.0" ?>
<svg xmlns="http://www.w3.org/2000/svg" version="1.1" width="224" height="224">
  <defs/>
  <g>
    <path d="M 91.2170181274414 123.82136535644531 C 83.66332244873047 121.02047729492188 83.36670684814453 122.51063537597656 78.67965698242188 115.85343170166016" stroke-width="3.0" fill="none" stroke="rgb(0, 0, 0)" stroke-opacity="1.0" stroke-linecap="round" stroke-linejoin="round"/>
    <path d="M 73.74777221679688 119.71360778808594 C 102.50789642333984 134.72012329101562 112.13199615478516 126.21512603759766 135.9588623046875 121.21022033691406" stroke-width="3.0" fill="none" stroke="rgb(0, 0, 0)" stroke-opacity="1.0" stroke-linecap="round" stroke-linejoin="round"/>
    <path d="M 150.44378662109375 92.58512878417969 C 229.89898681640625 116.8272476196289 189.32691955566406 131.38418579101562 214.50360107421875 142.86228942871094" stroke-width="3.0" fill="none" stroke="rgb(0, 0, 0)" stroke-opacity="1.0" stroke-linecap="round" stroke-linejoin="round"/>
    <path d="M 51.21040344238281 64.11990356445312 C 43.505828857421875 142.6926727294922 81.25621795654297 109.07401275634766 38.414005279541016 152.451171875" stroke-width="3.0" fill="none" stroke="rgb(0, 0, 0)" stroke-opacity="1.0" stroke-linecap="round" stroke-linejoin="round"/>
    <path d="M 134.5180206298828 89.52642059326172 C 147.23336791992188 89.5771255493164 154.9155731201172 87.75579833984375 164.94712829589844 104.5625228881836" stroke-width="3.0" fill="none" stroke="rgb(0, 0, 0)" stroke-opacity="1.0" stroke-linecap="round" stroke-linejoin="round"/>
    <path d="M 134.4357452392578 121.3939437866211 C 129.49603271484375 119.5034408569336 120.26737976074219 125.64019775390625 125.82597351074219 123.5133056640625" stroke-width="3.0" fill="none" stroke="rgb(0, 0, 0)" stroke-opacity="1.0" stroke-linecap="round" stroke-linejoin="round"/>
    <path d="M 76.2660903930664 118.86274719238281 C 75.87358093261719 121.19701385498047 62.62602615356445 121.53804779052734 87.21949768066406 124.29361724853516" stroke-width="3.0" fill="none" stroke="rgb(0, 0, 0)" stroke-opacity="1.0" stroke-linecap="round" stroke-linejoin="round"/>
    <path d="M 138.1229705810547 135.9685516357422 C 127.03694915771484 165.78224182128906 144.50929260253906 155.9900665283203 97.70092010498047 184.77890014648438" stroke-width="3.0" fill="none" stroke="rgb(0, 0, 0)" stroke-opacity="1.0" stroke-linecap="round" stroke-linejoin="round"/>
    <path d="M 56.946617126464844 116.55963134765625 C 0.9206196665763855 183.59791564941406 50.04961395263672 153.40048217773438 20.35111427307129 170.15570068359375" stroke-width="3.0" fill="none" stroke="rgb(0, 0, 0)" stroke-opacity="1.0" stroke-linecap="round" stroke-linejoin="round"/>
    <path d="M 75.72236633300781 52.646331787109375 C 88.50677490234375 96.20771026611328 105.54795837402344 80.01233673095703 143.3773651123047 91.17330169677734" stroke-width="3.0" fill="none" stroke="rgb(0, 0, 0)" stroke-opacity="1.0" stroke-linecap="round" stroke-linejoin="round"/>
    <path d="M 135.84719848632812 131.0408477783203 C 132.2615966796875 137.4917449951172 132.85609436035156 139.6081085205078 164.89825439453125 117.20433807373047" stroke-width="3.0" fill="none" stroke="rgb(0, 0, 0)" stroke-opacity="1.0" stroke-linecap="round" stroke-linejoin="round"/>
    <path d="M 60.933555603027344 137.9856719970703 C 80.18220520019531 128.9117889404297 61.50543975830078 135.34066772460938 76.9703369140625 110.42733001708984" stroke-width="3.0" fill="none" stroke="rgb(0, 0, 0)" stroke-opacity="1.0" stroke-linecap="round" stroke-linejoin="round"/>
    <path d="M 140.25135803222656 116.95980072021484 C 131.92823791503906 123.41739654541016 134.4770050048828 124.57357788085938 133.18060302734375 120.93360900878906" stroke-width="3.0" fill="none" stroke="rgb(0, 0, 0)" stroke-opacity="1.0" stroke-linecap="round" stroke-linejoin="round"/>
    <path d="M 156.39820861816406 129.86766052246094 C 184.4725341796875 167.74354553222656 141.0513458251953 193.13998413085938 162.95188903808594 187.87384033203125" stroke-width="3.0" fill="none" stroke="rgb(0, 0, 0)" stroke-opacity="1.0" stroke-linecap="round" stroke-linejoin="round"/>
    <path d="M 17.676198959350586 78.76297760009766 C 56.8868408203125 -8.370081901550293 24.823078155517578 61.8692741394043 67.94524383544922 40.60807418823242" stroke-width="3.0" fill="none" stroke="rgb(0, 0, 0)" stroke-opacity="1.0" stroke-linecap="round" stroke-linejoin="round"/>
    <path d="M 85.75785827636719 65.82865142822266 C 55.78701400756836 41.73806381225586 36.47650146484375 38.16303253173828 80.31269836425781 51.46114730834961" stroke-width="3.0" fill="none" stroke="rgb(0, 0, 0)" stroke-opacity="1.0" stroke-linecap="round" stroke-linejoin="round"/>
  </g>
</svg>
