<?xml version="1.0" ?>
<svg xmlns="http://www.w3.org/2000/svg" version="1.1" width="224" height="224">
  <defs/>
  <g>
    <path d="M 74.95671844482422 108.08568572998047 C 90.20997619628906 128.74334716796875 81.86778259277344 119.73365020751953 79.07974243164062 122.97320556640625" stroke-width="3.0" fill="none" stroke="rgb(0, 0, 0)" stroke-opacity="1.0" stroke-linecap="round" stroke-linejoin="round"/>
    <path d="M 73.98859405517578 120.95751953125 C 105.91350555419922 134.31178283691406 108.9234619140625 123.6180648803711 136.13497924804688 127.67485046386719" stroke-width="3.0" fill="none" stroke="rgb(0, 0, 0)" stroke-opacity="1.0" stroke-linecap="round" stroke-linejoin="round"/>
    <path d="M 168.5282745361328 98.51403045654297 C 219.09495544433594 116.4803466796875 194.2622528076172 134.11720275878906 217.92825317382812 141.142578125" stroke-width="3.0" fill="none" stroke="rgb(0, 0, 0)" stroke-opacity="1.0" stroke-linecap="round" stroke-linejoin="round"/>
    <path d="M 47.42237091064453 58.71687698364258 C 60.69560241699219 150.63816833496094 67.45297241210938 67.45045471191406 38.385562896728516 155.7142333984375" stroke-width="3.0" fill="none" stroke="rgb(0, 0, 0)" stroke-opacity="1.0" stroke-linecap="round" stroke-linejoin="round"/>
    <path d="M 101.99303436279297 82.7953109741211 C 135.3436737060547 90.97653198242188 147.7969970703125 73.0730209350586 177.9505157470703 108.64344024658203" stroke-width="3.0" fill="none" stroke="rgb(0, 0, 0)" stroke-opacity="1.0" stroke-linecap="round" stroke-linejoin="round"/>
    <path d="M 131.40028381347656 126.46470642089844 C 138.75885009765625 130.48020935058594 139.8440704345703 121.09259796142578 124.32765197753906 126.79104614257812" stroke-width="3.0" fill="none" stroke="rgb(0, 0, 0)" stroke-opacity="1.0" stroke-linecap="round" stroke-linejoin="round"/>
    <path d="M 76.168701171875 121.93103790283203 C 94.36751556396484 103.39507293701172 59.608001708984375 128.82176208496094 81.73163604736328 120.333251953125" stroke-width="3.0" fill="none" stroke="rgb(0, 0, 0)" stroke-opacity="1.0" stroke-linecap="round" stroke-linejoin="round"/>
    <path d="M 140.1804962158203 129.09202575683594 C 117.18307495117188 175.82766723632812 141.41763305664062 156.41714477539062 99.61750030517578 184.5011444091797" stroke-width="3.0" fill="none" stroke="rgb(0, 0, 0)" stroke-opacity="1.0" stroke-linecap="round" stroke-linejoin="round"/>
    <path d="M 56.09077835083008 118.6902847290039 C -6.363324165344238 187.02589416503906 71.93879699707031 143.5350799560547 15.4968843460083 166.6527557373047" stroke-width="3.0" fill="none" stroke="rgb(0, 0, 0)" stroke-opacity="1.0" stroke-linecap="round" stroke-linejoin="round"/>
    <path d="M 37.311561584472656 36.92245864868164 C 109.05641174316406 75.89524841308594 48.786190032958984 66.25331115722656 110.57341766357422 85.25640106201172" stroke-width="3.0" fill="none" stroke="rgb(0, 0, 0)" stroke-opacity="1.0" stroke-linecap="round" stroke-linejoin="round"/>
    <path d="M 132.52757263183594 163.23910522460938 C 157.9933319091797 117.91979217529297 154.27890014648438 161.26182556152344 182.8629913330078 110.41806030273438" stroke-width="3.0" fill="none" stroke="rgb(0, 0, 0)" stroke-opacity="1.0" stroke-linecap="round" stroke-linejoin="round"/>
    <path d="M 34.02967834472656 152.4244384765625 C 63.293216705322266 114.5752182006836 60.093605041503906 143.8969268798828 72.50189971923828 116.39781951904297" stroke-width="3.0" fill="none" stroke="rgb(0, 0, 0)" stroke-opacity="1.0" stroke-linecap="round" stroke-linejoin="round"/>
    <path d="M 156.95457458496094 120.46676635742188 C 133.13320922851562 130.68760681152344 156.01951599121094 115.66917419433594 112.65960693359375 126.94473266601562" stroke-width="3.0" fill="none" stroke="rgb(0, 0, 0)" stroke-opacity="1.0" stroke-linecap="round" stroke-linejoin="round"/>
    <path d="M 174.14031982421875 110.14193725585938 C 164.5413055419922 231.58169555664062 135.2256317138672 178.69830322265625 161.6221160888672 189.62869262695312" stroke-width="3.0" fill="none" stroke="rgb(0, 0, 0)" stroke-opacity="1.0" stroke-linecap="round" stroke-linejoin="round"/>
    <path d="M 14.028936386108398 75.67495727539062 C 61.48319625854492 13.126917839050293 -14.038809776306152 81.7016372680664 52.374481201171875 35.47168731689453" stroke-width="3.0" fill="none" stroke="rgb(0, 0, 0)" stroke-opacity="1.0" stroke-linecap="round" stroke-linejoin="round"/>
    <path d="M 94.3471908569336 75.00492095947266 C 78.31111907958984 24.21708106994629 -18.94631004333496 35.77334213256836 82.61925506591797 49.88181686401367" stroke-width="3.0" fill="none" stroke="rgb(0, 0, 0)" stroke-opacity="1.0" stroke-linecap="round" stroke-linejoin="round"/>
  </g>
</svg>
