<?xml version="1.0" ?>
<svg xmlns="http://www.w3.org/2000/svg" version="1.1" width="224" height="224">
  <defs/>
  <g>
    <path d="M 76.48626708984375 117.5376205444336 C 82.79457092285156 129.39581298828125 76.57620239257812 128.45484924316406 77.01887512207031 119.30842590332031" stroke-width="3.0" fill="none" stroke="rgb(0, 0, 0)" stroke-opacity="1.0" stroke-linecap="round" stroke-linejoin="round"/>
    <path d="M 75.12232208251953 122.50408935546875 C 114.42754364013672 129.10006713867188 111.00324249267578 122.37834930419922 132.9832305908203 122.0807876586914" stroke-width="3.0" fill="none" stroke="rgb(0, 0, 0)" stroke-opacity="1.0" stroke-linecap="round" stroke-linejoin="round"/>
    <path d="M 151.92263793945312 90.16168975830078 C 227.50025939941406 122.86593627929688 188.71754455566406 132.421875 213.2410430908203 144.84393310546875" stroke-width="3.0" fill="none" stroke="rgb(0, 0, 0)" stroke-opacity="1.0" stroke-linecap="round" stroke-linejoin="round"/>
    <path d="M 54.10795211791992 71.74464416503906 C 41.355472564697266 148.83758544921875 81.42620849609375 84.02883911132812 33.460914611816406 159.0615692138672" stroke-width="3.0" fill="none" stroke="rgb(0, 0, 0)" stroke-opacity="1.0" stroke-linecap="round" stroke-linejoin="round"/>
    <path d="M 121.89697265625 87.87113952636719 C 140.1438446044922 91.39234924316406 155.58383178710938 83.07514190673828 172.51210021972656 104.94709014892578" stroke-width="3.0" fill="none" stroke="rgb(0, 0, 0)" stroke-opacity="1.0" stroke-linecap="round" stroke-linejoin="round"/>
    <path d="M 146.23977661132812 122.51195526123047 C 144.33609008789062 126.06917572021484 124.6831283569336 119.88472747802734 133.4732666015625 120.78840637207031" stroke-width="3.0" fill="none" stroke="rgb(0, 0, 0)" stroke-opacity="1.0" stroke-linecap="round" stroke-linejoin="round"/>
    <path d="M 76.50688934326172 121.34249114990234 C 83.95997619628906 121.78214263916016 63.91733169555664 136.11354064941406 82.7191390991211 108.16690063476562" stroke-width="3.0" fill="none" stroke="rgb(0, 0, 0)" stroke-opacity="1.0" stroke-linecap="round" stroke-linejoin="round"/>
    <path d="M 140.09878540039062 127.0897445678711 C 121.88339233398438 174.06858825683594 141.22799682617188 154.57632446289062 98.72513580322266 185.25059509277344" stroke-width="3.0" fill="none" stroke="rgb(0, 0, 0)" stroke-opacity="1.0" stroke-linecap="round" stroke-linejoin="round"/>
    <path d="M 55.10383605957031 129.99484252929688 C -4.872081279754639 175.38204956054688 49.88848114013672 156.343017578125 15.611002922058105 169.73460388183594" stroke-width="3.0" fill="none" stroke="rgb(0, 0, 0)" stroke-opacity="1.0" stroke-linecap="round" stroke-linejoin="round"/>
    <path d="M 45.20244598388672 39.92216873168945 C 114.48143005371094 95.5832748413086 78.17650604248047 79.76628875732422 136.2261962890625 90.30033111572266" stroke-width="3.0" fill="none" stroke="rgb(0, 0, 0)" stroke-opacity="1.0" stroke-linecap="round" stroke-linejoin="round"/>
    <path d="M 131.20924377441406 160.3107452392578 C 152.2752227783203 117.5382308959961 151.63540649414062 152.52322387695312 182.16346740722656 106.90552520751953" stroke-width="3.0" fill="none" stroke="rgb(0, 0, 0)" stroke-opacity="1.0" stroke-linecap="round" stroke-linejoin="round"/>
    <path d="M 31.900537490844727 155.91650390625 C 76.40839385986328 121.4404296875 59.85918426513672 147.86602783203125 71.95062255859375 114.72578430175781" stroke-width="3.0" fill="none" stroke="rgb(0, 0, 0)" stroke-opacity="1.0" stroke-linecap="round" stroke-linejoin="round"/>
    <path d="M 155.8629608154297 119.7694320678711 C 136.69686889648438 132.12957763671875 136.2135772705078 127.32526397705078 141.4219512939453 129.56227111816406" stroke-width="3.0" fill="none" stroke="rgb(0, 0, 0)" stroke-opacity="1.0" stroke-linecap="round" stroke-linejoin="round"/>
    <path d="M 172.9752655029297 109.59017181396484 C 172.41732788085938 179.20240783691406 141.50509643554688 196.38406372070312 159.29896545410156 189.02877807617188" stroke-width="3.0" fill="none" stroke="rgb(0, 0, 0)" stroke-opacity="1.0" stroke-linecap="round" stroke-linejoin="round"/>
    <path d="M 14.944540023803711 77.145751953125 C 80.77728271484375 17.284988403320312 -23.132740020751953 63.62436294555664 68.14054870605469 48.396419525146484" stroke-width="3.0" fill="none" stroke="rgb(0, 0, 0)" stroke-opacity="1.0" stroke-linecap="round" stroke-linejoin="round"/>
    <path d="M 86.1800765991211 65.88449096679688 C 34.98294448852539 40.29996871948242 1.2349965572357178 23.454456329345703 81.409912109375 57.021759033203125" stroke-width="3.0" fill="none" stroke="rgb(0, 0, 0)" stroke-opacity="1.0" stroke-linecap="round" stroke-linejoin="round"/>
  </g>
</svg>
