<?xml version="1.0" ?>
<svg xmlns="http://www.w3.org/2000/svg" version="1.1" width="224" height="224">
  <defs/>
  <g>
    <path d="M 82.92435455322266 115.64624786376953 C 83.89604949951172 130.43789672851562 80.62925720214844 121.71306610107422 79.50762176513672 122.60113525390625" stroke-width="3.0" fill="none" stroke="rgb(0, 0, 0)" stroke-opacity="1.0" stroke-linecap="round" stroke-linejoin="round"/>
    <path d="M 74.81871795654297 125.24285125732422 C 118.60478973388672 135.92681884765625 110.9100112915039 126.4028549194336 142.06483459472656 116.8639144897461" stroke-width="3.0" fill="none" stroke="rgb(0, 0, 0)" stroke-opacity="1.0" stroke-linecap="round" stroke-linejoin="round"/>
    <path d="M 158.74172973632812 92.13387298583984 C 224.42782592773438 124.71056365966797 191.45883178710938 130.5609588623047 216.24049377441406 140.7598114013672" stroke-width="3.0" fill="none" stroke="rgb(0, 0, 0)" stroke-opacity="1.0" stroke-linecap="round" stroke-linejoin="round"/>
    <path d="M 57.21451187133789 61.34136199951172 C 39.407493591308594 157.25289916992188 80.43590545654297 80.71435546875 33.961769104003906 156.94668579101562" stroke-width="3.0" fill="none" stroke="rgb(0, 0, 0)" stroke-opacity="1.0" stroke-linecap="round" stroke-linejoin="round"/>
    <path d="M 124.82698059082031 87.77833557128906 C 137.74632263183594 89.24195098876953 152.0957489013672 80.60714721679688 171.6906280517578 104.56755828857422" stroke-width="3.0" fill="none" stroke="rgb(0, 0, 0)" stroke-opacity="1.0" stroke-linecap="round" stroke-linejoin="round"/>
    <path d="M 152.88369750976562 122.40520477294922 C 135.11712646484375 127.48445892333984 136.23992919921875 127.46273803710938 138.5842742919922 119.85855865478516" stroke-width="3.0" fill="none" stroke="rgb(0, 0, 0)" stroke-opacity="1.0" stroke-linecap="round" stroke-linejoin="round"/>
    <path d="M 77.79556274414062 121.12211608886719 C 94.9289779663086 113.1854476928711 63.93383026123047 130.6084442138672 82.8609619140625 113.84290313720703" stroke-width="3.0" fill="none" stroke="rgb(0, 0, 0)" stroke-opacity="1.0" stroke-linecap="round" stroke-linejoin="round"/>
    <path d="M 136.36659240722656 127.7876205444336 C 121.2899398803711 173.23387145996094 140.0396270751953 155.84938049316406 98.72789001464844 187.15150451660156" stroke-width="3.0" fill="none" stroke="rgb(0, 0, 0)" stroke-opacity="1.0" stroke-linecap="round" stroke-linejoin="round"/>
    <path d="M 55.84931182861328 125.9374771118164 C -3.9463813304901123 171.29153442382812 53.21025085449219 151.71255493164062 15.532811164855957 168.8021240234375" stroke-width="3.0" fill="none" stroke="rgb(0, 0, 0)" stroke-opacity="1.0" stroke-linecap="round" stroke-linejoin="round"/>
    <path d="M 46.13911437988281 40.39945983886719 C 121.21293640136719 86.47441864013672 50.16383361816406 76.66753387451172 123.1474838256836 87.18716430664062" stroke-width="3.0" fill="none" stroke="rgb(0, 0, 0)" stroke-opacity="1.0" stroke-linecap="round" stroke-linejoin="round"/>
    <path d="M 133.05226135253906 159.6243438720703 C 148.93923950195312 114.98712921142578 153.79458618164062 153.75531005859375 179.4503936767578 108.00098419189453" stroke-width="3.0" fill="none" stroke="rgb(0, 0, 0)" stroke-opacity="1.0" stroke-linecap="round" stroke-linejoin="round"/>
    <path d="M 31.412038803100586 152.17306518554688 C 76.06200408935547 115.67920684814453 62.51371765136719 142.279052734375 74.76490783691406 115.42485046386719" stroke-width="3.0" fill="none" stroke="rgb(0, 0, 0)" stroke-opacity="1.0" stroke-linecap="round" stroke-linejoin="round"/>
    <path d="M 148.4016876220703 113.59630584716797 C 132.23770141601562 127.43931579589844 135.00738525390625 124.82083129882812 138.7537078857422 133.07162475585938" stroke-width="3.0" fill="none" stroke="rgb(0, 0, 0)" stroke-opacity="1.0" stroke-linecap="round" stroke-linejoin="round"/>
    <path d="M 175.8976287841797 108.3426513671875 C 171.62863159179688 222.06179809570312 129.4869842529297 192.53501892089844 162.01499938964844 186.6018829345703" stroke-width="3.0" fill="none" stroke="rgb(0, 0, 0)" stroke-opacity="1.0" stroke-linecap="round" stroke-linejoin="round"/>
    <path d="M 10.871163368225098 74.2236099243164 C 78.58851623535156 15.973434448242188 -18.61977195739746 72.20748138427734 64.53495025634766 44.0992431640625" stroke-width="3.0" fill="none" stroke="rgb(0, 0, 0)" stroke-opacity="1.0" stroke-linecap="round" stroke-linejoin="round"/>
    <path d="M 89.8136215209961 68.08633422851562 C 48.56245803833008 34.04144287109375 -2.897261619567871 35.28416061401367 84.07647705078125 54.25847625732422" stroke-width="3.0" fill="none" stroke="rgb(0, 0, 0)" stroke-opacity="1.0" stroke-linecap="round" stroke-linejoin="round"/>
  </g>
</svg>
