<?xml version="1.0" ?>
<svg xmlns="http://www.w3.org/2000/svg" version="1.1" width="224" height="224">
  <defs/>
  <g>
    <path d="M 80.12831115722656 111.98312377929688 C 96.94454956054688 128.965576171875 84.29768371582031 123.40582275390625 79.4627685546875 118.83522033691406" stroke-width="3.0" fill="none" stroke="rgb(0, 0, 0)" stroke-opacity="1.0" stroke-linecap="round" stroke-linejoin="round"/>
    <path d="M 80.55241394042969 122.78981018066406 C 121.56226348876953 135.97561645507812 109.67411041259766 125.93568420410156 140.27947998046875 124.58012390136719" stroke-width="3.0" fill="none" stroke="rgb(0, 0, 0)" stroke-opacity="1.0" stroke-linecap="round" stroke-linejoin="round"/>
    <path d="M 162.11012268066406 96.01136779785156 C 226.05726623535156 122.87125396728516 192.59193420410156 130.782470703125 217.44630432128906 144.09645080566406" stroke-width="3.0" fill="none" stroke="rgb(0, 0, 0)" stroke-opacity="1.0" stroke-linecap="round" stroke-linejoin="round"/>
    <path d="M 56.942527770996094 66.12999725341797 C 38.267578125 155.37039184570312 76.75069427490234 78.19939422607422 36.53941345214844 156.2675018310547" stroke-width="3.0" fill="none" stroke="rgb(0, 0, 0)" stroke-opacity="1.0" stroke-linecap="round" stroke-linejoin="round"/>
    <path d="M 120.87874603271484 87.65979766845703 C 135.0720672607422 90.09766387939453 152.57203674316406 81.64289093017578 173.5812530517578 103.97737121582031" stroke-width="3.0" fill="none" stroke="rgb(0, 0, 0)" stroke-opacity="1.0" stroke-linecap="round" stroke-linejoin="round"/>
    <path d="M 143.44607543945312 121.66415405273438 C 122.46159362792969 132.83773803710938 120.43535614013672 139.23367309570312 142.10252380371094 122.83003234863281" stroke-width="3.0" fill="none" stroke="rgb(0, 0, 0)" stroke-opacity="1.0" stroke-linecap="round" stroke-linejoin="round"/>
    <path d="M 82.45903015136719 123.39191436767578 C 95.85570526123047 109.79761505126953 65.7875747680664 127.4423828125 83.83529663085938 119.81243896484375" stroke-width="3.0" fill="none" stroke="rgb(0, 0, 0)" stroke-opacity="1.0" stroke-linecap="round" stroke-linejoin="round"/>
    <path d="M 133.19187927246094 132.67803955078125 C 121.83116149902344 169.10711669921875 139.97877502441406 157.07208251953125 99.73124694824219 186.1400909423828" stroke-width="3.0" fill="none" stroke="rgb(0, 0, 0)" stroke-opacity="1.0" stroke-linecap="round" stroke-linejoin="round"/>
    <path d="M 55.55211639404297 126.25446319580078 C -3.497004508972168 174.82676696777344 56.83769226074219 150.96652221679688 19.23685646057129 168.88583374023438" stroke-width="3.0" fill="none" stroke="rgb(0, 0, 0)" stroke-opacity="1.0" stroke-linecap="round" stroke-linejoin="round"/>
    <path d="M 44.98395538330078 40.4921989440918 C 122.2100601196289 87.15089416503906 50.59181213378906 76.41281127929688 129.36749267578125 88.5402603149414" stroke-width="3.0" fill="none" stroke="rgb(0, 0, 0)" stroke-opacity="1.0" stroke-linecap="round" stroke-linejoin="round"/>
    <path d="M 132.85707092285156 159.36428833007812 C 151.20181274414062 115.43744659423828 149.66751098632812 155.58642578125 180.52622985839844 108.1609115600586" stroke-width="3.0" fill="none" stroke="rgb(0, 0, 0)" stroke-opacity="1.0" stroke-linecap="round" stroke-linejoin="round"/>
    <path d="M 32.688961029052734 152.82095336914062 C 75.65132141113281 115.30998229980469 65.9027328491211 145.84259033203125 70.88048553466797 114.7533950805664" stroke-width="3.0" fill="none" stroke="rgb(0, 0, 0)" stroke-opacity="1.0" stroke-linecap="round" stroke-linejoin="round"/>
    <path d="M 158.3218536376953 119.47280883789062 C 137.51124572753906 130.10562133789062 135.4095458984375 116.1414566040039 135.4136962890625 125.90174865722656" stroke-width="3.0" fill="none" stroke="rgb(0, 0, 0)" stroke-opacity="1.0" stroke-linecap="round" stroke-linejoin="round"/>
    <path d="M 172.99032592773438 112.21502685546875 C 167.54888916015625 228.82598876953125 131.456298828125 187.83770751953125 161.72943115234375 188.49310302734375" stroke-width="3.0" fill="none" stroke="rgb(0, 0, 0)" stroke-opacity="1.0" stroke-linecap="round" stroke-linejoin="round"/>
    <path d="M 11.261631965637207 74.6076431274414 C 71.85639190673828 15.702780723571777 -23.158700942993164 70.74763488769531 65.22533416748047 46.07469940185547" stroke-width="3.0" fill="none" stroke="rgb(0, 0, 0)" stroke-opacity="1.0" stroke-linecap="round" stroke-linejoin="round"/>
    <path d="M 89.77581787109375 69.88874816894531 C 46.260047912597656 34.093467712402344 -7.009371757507324 33.193748474121094 82.59740447998047 55.93400955200195" stroke-width="3.0" fill="none" stroke="rgb(0, 0, 0)" stroke-opacity="1.0" stroke-linecap="round" stroke-linejoin="round"/>
  </g>
</svg>
