<?xml version="1.0" ?>
<svg xmlns="http://www.w3.org/2000/svg" version="1.1" width="224" height="224">
  <defs/>
  <g>
    <path d="M 79.78021240234375 118.54894256591797 C 89.4473876953125 127.6112060546875 79.1607666015625 124.69021606445312 80.33097076416016 120.34058380126953" stroke-width="3.0" fill="none" stroke="rgb(0, 0, 0)" stroke-opacity="1.0" stroke-linecap="round" stroke-linejoin="round"/>
    <path d="M 76.9110107421875 123.13439178466797 C 110.19974517822266 134.76727294921875 114.05038452148438 127.15614318847656 136.1526641845703 123.66498565673828" stroke-width="3.0" fill="none" stroke="rgb(0, 0, 0)" stroke-opacity="1.0" stroke-linecap="round" stroke-linejoin="round"/>
    <path d="M 152.52545166015625 89.8755874633789 C 226.0614776611328 119.67655181884766 189.7720947265625 127.22074127197266 214.98434448242188 142.5080108642578" stroke-width="3.0" fill="none" stroke="rgb(0, 0, 0)" stroke-opacity="1.0" stroke-linecap="round" stroke-linejoin="round"/>
    <path d="M 51.575374603271484 68.82748413085938 C 43.71993637084961 151.7086944580078 78.06417083740234 83.30753326416016 33.25965881347656 157.87649536132812" stroke-width="3.0" fill="none" stroke="rgb(0, 0, 0)" stroke-opacity="1.0" stroke-linecap="round" stroke-linejoin="round"/>
    <path d="M 123.76679992675781 87.51145935058594 C 139.51161193847656 89.44808197021484 154.47813415527344 80.81915283203125 170.1771697998047 103.09883117675781" stroke-width="3.0" fill="none" stroke="rgb(0, 0, 0)" stroke-opacity="1.0" stroke-linecap="round" stroke-linejoin="round"/>
    <path d="M 147.0791778564453 120.1541748046875 C 146.15928649902344 125.45214080810547 131.7333984375 120.7842025756836 138.4047088623047 122.55475616455078" stroke-width="3.0" fill="none" stroke="rgb(0, 0, 0)" stroke-opacity="1.0" stroke-linecap="round" stroke-linejoin="round"/>
    <path d="M 76.80799865722656 119.78441619873047 C 84.94597625732422 119.3458480834961 63.449398040771484 135.13014221191406 85.74557495117188 111.63468170166016" stroke-width="3.0" fill="none" stroke="rgb(0, 0, 0)" stroke-opacity="1.0" stroke-linecap="round" stroke-linejoin="round"/>
    <path d="M 140.6884765625 126.28030395507812 C 126.8183364868164 174.23193359375 139.81161499023438 153.10321044921875 98.7669677734375 185.40574645996094" stroke-width="3.0" fill="none" stroke="rgb(0, 0, 0)" stroke-opacity="1.0" stroke-linecap="round" stroke-linejoin="round"/>
    <path d="M 55.982078552246094 128.43441772460938 C -3.6479005813598633 174.67471313476562 50.73985290527344 153.0061798095703 15.362510681152344 169.8097686767578" stroke-width="3.0" fill="none" stroke="rgb(0, 0, 0)" stroke-opacity="1.0" stroke-linecap="round" stroke-linejoin="round"/>
    <path d="M 47.28586959838867 41.67478561401367 C 117.95250701904297 90.92401123046875 68.4825439453125 81.21073150634766 135.03219604492188 89.03206634521484" stroke-width="3.0" fill="none" stroke="rgb(0, 0, 0)" stroke-opacity="1.0" stroke-linecap="round" stroke-linejoin="round"/>
    <path d="M 134.81393432617188 158.5003662109375 C 154.32333374023438 114.8402099609375 154.80897521972656 155.17510986328125 178.86659240722656 106.90087890625" stroke-width="3.0" fill="none" stroke="rgb(0, 0, 0)" stroke-opacity="1.0" stroke-linecap="round" stroke-linejoin="round"/>
    <path d="M 31.60874366760254 154.52342224121094 C 75.32105255126953 122.26215362548828 62.428070068359375 146.27587890625 70.80979919433594 116.79541778564453" stroke-width="3.0" fill="none" stroke="rgb(0, 0, 0)" stroke-opacity="1.0" stroke-linecap="round" stroke-linejoin="round"/>
    <path d="M 155.1880340576172 120.24063110351562 C 137.4584197998047 134.54747009277344 134.8740234375 126.26661682128906 141.6546630859375 131.19805908203125" stroke-width="3.0" fill="none" stroke="rgb(0, 0, 0)" stroke-opacity="1.0" stroke-linecap="round" stroke-linejoin="round"/>
    <path d="M 170.18667602539062 111.88873291015625 C 172.6563720703125 188.42381286621094 139.19969177246094 207.34925842285156 159.28038024902344 196.46226501464844" stroke-width="3.0" fill="none" stroke="rgb(0, 0, 0)" stroke-opacity="1.0" stroke-linecap="round" stroke-linejoin="round"/>
    <path d="M 12.158403396606445 74.74669647216797 C 72.92633819580078 15.284380912780762 -22.97728157043457 69.83057403564453 67.72805786132812 49.24254608154297" stroke-width="3.0" fill="none" stroke="rgb(0, 0, 0)" stroke-opacity="1.0" stroke-linecap="round" stroke-linejoin="round"/>
    <path d="M 89.99339294433594 67.1199951171875 C 32.92562484741211 43.828590393066406 -0.5886056423187256 27.068262100219727 84.42974090576172 59.921932220458984" stroke-width="3.0" fill="none" stroke="rgb(0, 0, 0)" stroke-opacity="1.0" stroke-linecap="round" stroke-linejoin="round"/>
  </g>
</svg>
