<?xml version="1.0" ?>
<svg xmlns="http://www.w3.org/2000/svg" version="1.1" width="224" height="224">
  <defs/>
  <g>
    <path d="M 84.60485076904297 126.89836883544922 C 79.87528228759766 123.29103088378906 77.89632415771484 124.72232818603516 74.10623931884766 117.43507385253906" stroke-width="3.0" fill="none" stroke="rgb(0, 0, 0)" stroke-opacity="1.0" stroke-linecap="round" stroke-linejoin="round"/>
    <path d="M 74.44953155517578 120.63389587402344 C 94.92381286621094 138.8501434326172 114.23702239990234 124.65743255615234 132.71456909179688 123.51783752441406" stroke-width="3.0" fill="none" stroke="rgb(0, 0, 0)" stroke-opacity="1.0" stroke-linecap="round" stroke-linejoin="round"/>
    <path d="M 154.8865203857422 91.58873748779297 C 225.8667755126953 121.46778869628906 187.90443420410156 128.1400909423828 214.4816436767578 144.8963165283203" stroke-width="3.0" fill="none" stroke="rgb(0, 0, 0)" stroke-opacity="1.0" stroke-linecap="round" stroke-linejoin="round"/>
    <path d="M 59.43874740600586 77.25418853759766 C 48.412025451660156 152.6911163330078 97.23609161376953 106.55740356445312 32.512664794921875 150.4686279296875" stroke-width="3.0" fill="none" stroke="rgb(0, 0, 0)" stroke-opacity="1.0" stroke-linecap="round" stroke-linejoin="round"/>
    <path d="M 131.2300262451172 89.59361267089844 C 141.09579467773438 91.79985809326172 164.64353942871094 86.42607116699219 175.4308319091797 108.7025146484375" stroke-width="3.0" fill="none" stroke="rgb(0, 0, 0)" stroke-opacity="1.0" stroke-linecap="round" stroke-linejoin="round"/>
    <path d="M 133.75181579589844 121.43506622314453 C 133.25286865234375 120.7146224975586 118.55736541748047 128.08555603027344 124.08919525146484 124.64131927490234" stroke-width="3.0" fill="none" stroke="rgb(0, 0, 0)" stroke-opacity="1.0" stroke-linecap="round" stroke-linejoin="round"/>
    <path d="M 77.6270751953125 123.50193786621094 C 78.64544677734375 118.61763000488281 66.1021957397461 125.50460815429688 85.59651184082031 127.3504638671875" stroke-width="3.0" fill="none" stroke="rgb(0, 0, 0)" stroke-opacity="1.0" stroke-linecap="round" stroke-linejoin="round"/>
    <path d="M 143.97433471679688 132.4847412109375 C 120.9052963256836 163.4785919189453 151.7398681640625 148.7271270751953 98.71577453613281 183.5992431640625" stroke-width="3.0" fill="none" stroke="rgb(0, 0, 0)" stroke-opacity="1.0" stroke-linecap="round" stroke-linejoin="round"/>
    <path d="M 58.837162017822266 117.09440612792969 C -0.016456633806228638 173.13397216796875 46.33736038208008 147.49278259277344 16.211322784423828 170.55862426757812" stroke-width="3.0" fill="none" stroke="rgb(0, 0, 0)" stroke-opacity="1.0" stroke-linecap="round" stroke-linejoin="round"/>
    <path d="M 69.8565444946289 45.505889892578125 C 93.30033874511719 102.53705596923828 100.37019348144531 81.2511215209961 142.97511291503906 91.06861877441406" stroke-width="3.0" fill="none" stroke="rgb(0, 0, 0)" stroke-opacity="1.0" stroke-linecap="round" stroke-linejoin="round"/>
    <path d="M 140.93055725097656 138.05810546875 C 142.61685180664062 127.56558227539062 140.96322631835938 141.81690979003906 178.8449249267578 115.293701171875" stroke-width="3.0" fill="none" stroke="rgb(0, 0, 0)" stroke-opacity="1.0" stroke-linecap="round" stroke-linejoin="round"/>
    <path d="M 46.98762893676758 135.86363220214844 C 77.69312286376953 128.64503479003906 72.47441864013672 137.38711547851562 72.87744140625 114.05863189697266" stroke-width="3.0" fill="none" stroke="rgb(0, 0, 0)" stroke-opacity="1.0" stroke-linecap="round" stroke-linejoin="round"/>
    <path d="M 137.58792114257812 117.95600128173828 C 129.54908752441406 124.27798461914062 135.84767150878906 125.13673400878906 132.39370727539062 122.73344421386719" stroke-width="3.0" fill="none" stroke="rgb(0, 0, 0)" stroke-opacity="1.0" stroke-linecap="round" stroke-linejoin="round"/>
    <path d="M 166.46141052246094 127.51615905761719 C 189.89952087402344 159.22702026367188 135.51002502441406 210.2268829345703 158.8108673095703 194.80368041992188" stroke-width="3.0" fill="none" stroke="rgb(0, 0, 0)" stroke-opacity="1.0" stroke-linecap="round" stroke-linejoin="round"/>
    <path d="M 15.400084495544434 78.48884582519531 C 79.69978332519531 6.575707912445068 -1.432003140449524 64.77119445800781 69.07962036132812 40.67628479003906" stroke-width="3.0" fill="none" stroke="rgb(0, 0, 0)" stroke-opacity="1.0" stroke-linecap="round" stroke-linejoin="round"/>
    <path d="M 86.684814453125 67.38053894042969 C 47.575382232666016 39.189056396484375 22.41313934326172 25.805233001708984 82.20353698730469 53.1788444519043" stroke-width="3.0" fill="none" stroke="rgb(0, 0, 0)" stroke-opacity="1.0" stroke-linecap="round" stroke-linejoin="round"/>
  </g>
</svg>
