<?xml version="1.0" ?>
<svg xmlns="http://www.w3.org/2000/svg" version="1.1" width="224" height="224">
  <defs/>
  <g>
    <path d="M 80.46856689453125 119.27200317382812 C 90.17172241210938 130.69911193847656 81.2957763671875 123.43816375732422 78.4004898071289 120.13125610351562" stroke-width="3.0" fill="none" stroke="rgb(0, 0, 0)" stroke-opacity="1.0" stroke-linecap="round" stroke-linejoin="round"/>
    <path d="M 72.72823333740234 123.38577270507812 C 113.63851165771484 132.55160522460938 109.31659698486328 123.4988021850586 141.28338623046875 119.62068939208984" stroke-width="3.0" fill="none" stroke="rgb(0, 0, 0)" stroke-opacity="1.0" stroke-linecap="round" stroke-linejoin="round"/>
    <path d="M 156.1625518798828 91.49885559082031 C 225.8603057861328 122.15596771240234 188.36642456054688 130.09849548339844 212.61642456054688 145.17156982421875" stroke-width="3.0" fill="none" stroke="rgb(0, 0, 0)" stroke-opacity="1.0" stroke-linecap="round" stroke-linejoin="round"/>
    <path d="M 60.18174362182617 59.56113052368164 C 41.33030319213867 161.2160186767578 77.39945983886719 81.95500946044922 35.340999603271484 156.38294982910156" stroke-width="3.0" fill="none" stroke="rgb(0, 0, 0)" stroke-opacity="1.0" stroke-linecap="round" stroke-linejoin="round"/>
    <path d="M 122.87935638427734 89.05916595458984 C 134.1094970703125 88.5059585571289 153.93173217773438 81.85012817382812 173.16343688964844 104.3375244140625" stroke-width="3.0" fill="none" stroke="rgb(0, 0, 0)" stroke-opacity="1.0" stroke-linecap="round" stroke-linejoin="round"/>
    <path d="M 157.3475799560547 126.4611587524414 C 144.4875946044922 129.09375 131.2228546142578 124.10328674316406 136.98590087890625 123.28754425048828" stroke-width="3.0" fill="none" stroke="rgb(0, 0, 0)" stroke-opacity="1.0" stroke-linecap="round" stroke-linejoin="round"/>
    <path d="M 76.19132995605469 118.83572387695312 C 93.61642456054688 116.54402160644531 70.14080047607422 134.1730499267578 85.42918395996094 115.2740478515625" stroke-width="3.0" fill="none" stroke="rgb(0, 0, 0)" stroke-opacity="1.0" stroke-linecap="round" stroke-linejoin="round"/>
    <path d="M 138.498291015625 127.44155883789062 C 125.9482421875 177.0318603515625 138.32652282714844 154.68807983398438 98.51871490478516 183.26385498046875" stroke-width="3.0" fill="none" stroke="rgb(0, 0, 0)" stroke-opacity="1.0" stroke-linecap="round" stroke-linejoin="round"/>
    <path d="M 53.89690399169922 126.14960479736328 C -0.6657419800758362 173.12664794921875 55.49422073364258 152.28294372558594 15.752427101135254 169.385986328125" stroke-width="3.0" fill="none" stroke="rgb(0, 0, 0)" stroke-opacity="1.0" stroke-linecap="round" stroke-linejoin="round"/>
    <path d="M 45.4887580871582 40.578277587890625 C 118.14752197265625 85.83224487304688 56.83778762817383 76.0708236694336 124.0716323852539 89.11692810058594" stroke-width="3.0" fill="none" stroke="rgb(0, 0, 0)" stroke-opacity="1.0" stroke-linecap="round" stroke-linejoin="round"/>
    <path d="M 135.13368225097656 158.75299072265625 C 152.38575744628906 116.91361999511719 149.85206604003906 152.87049865722656 179.8461456298828 108.01414489746094" stroke-width="3.0" fill="none" stroke="rgb(0, 0, 0)" stroke-opacity="1.0" stroke-linecap="round" stroke-linejoin="round"/>
    <path d="M 33.97861862182617 150.8847198486328 C 69.81514739990234 116.2020492553711 61.377079010009766 147.0234375 71.98983001708984 112.77581787109375" stroke-width="3.0" fill="none" stroke="rgb(0, 0, 0)" stroke-opacity="1.0" stroke-linecap="round" stroke-linejoin="round"/>
    <path d="M 149.1135711669922 114.12555694580078 C 132.5231475830078 126.4153060913086 136.63607788085938 127.03108978271484 139.06112670898438 132.60003662109375" stroke-width="3.0" fill="none" stroke="rgb(0, 0, 0)" stroke-opacity="1.0" stroke-linecap="round" stroke-linejoin="round"/>
    <path d="M 175.84947204589844 107.90682983398438 C 170.79531860351562 201.42056274414062 133.3104248046875 206.77651977539062 161.36361694335938 188.1985626220703" stroke-width="3.0" fill="none" stroke="rgb(0, 0, 0)" stroke-opacity="1.0" stroke-linecap="round" stroke-linejoin="round"/>
    <path d="M 8.655080795288086 70.69044494628906 C 78.2190170288086 17.46160888671875 -24.18608856201172 76.48277282714844 67.2040023803711 46.16935348510742" stroke-width="3.0" fill="none" stroke="rgb(0, 0, 0)" stroke-opacity="1.0" stroke-linecap="round" stroke-linejoin="round"/>
    <path d="M 91.0231704711914 68.78045654296875 C 41.49121856689453 38.313873291015625 -1.6617226600646973 31.989883422851562 82.31837463378906 55.266693115234375" stroke-width="3.0" fill="none" stroke="rgb(0, 0, 0)" stroke-opacity="1.0" stroke-linecap="round" stroke-linejoin="round"/>
  </g>
</svg>
