<?xml version="1.0" ?>
<svg xmlns="http://www.w3.org/2000/svg" version="1.1" width="224" height="224">
  <defs/>
  <g>
    <path d="M 83.20791625976562 124.13922882080078 C 83.17469787597656 121.28379821777344 80.8532943725586 122.80045318603516 75.51270294189453 116.8918228149414" stroke-width="3.0" fill="none" stroke="rgb(0, 0, 0)" stroke-opacity="1.0" stroke-linecap="round" stroke-linejoin="round"/>
    <path d="M 75.68203735351562 125.66188049316406 C 94.37176513671875 139.82418823242188 117.98249053955078 124.86768341064453 135.46206665039062 125.22152709960938" stroke-width="3.0" fill="none" stroke="rgb(0, 0, 0)" stroke-opacity="1.0" stroke-linecap="round" stroke-linejoin="round"/>
    <path d="M 156.0013885498047 89.71749114990234 C 229.20147705078125 121.02672576904297 187.46409606933594 131.75668334960938 215.4186248779297 143.4601287841797" stroke-width="3.0" fill="none" stroke="rgb(0, 0, 0)" stroke-opacity="1.0" stroke-linecap="round" stroke-linejoin="round"/>
    <path d="M 59.20079803466797 79.54045104980469 C 45.857566833496094 147.7760772705078 93.9770278930664 98.42542266845703 35.170475006103516 154.4693603515625" stroke-width="3.0" fill="none" stroke="rgb(0, 0, 0)" stroke-opacity="1.0" stroke-linecap="round" stroke-linejoin="round"/>
    <path d="M 129.63514709472656 89.59815979003906 C 140.3078155517578 89.89781188964844 165.58042907714844 83.69776153564453 177.05252075195312 107.10240173339844" stroke-width="3.0" fill="none" stroke="rgb(0, 0, 0)" stroke-opacity="1.0" stroke-linecap="round" stroke-linejoin="round"/>
    <path d="M 135.2554931640625 121.97540283203125 C 134.187255859375 120.77604675292969 119.31038665771484 128.41799926757812 124.55988311767578 125.18504333496094" stroke-width="3.0" fill="none" stroke="rgb(0, 0, 0)" stroke-opacity="1.0" stroke-linecap="round" stroke-linejoin="round"/>
    <path d="M 80.89886474609375 121.93553924560547 C 79.03656768798828 117.40784454345703 68.17346954345703 120.23890686035156 83.28691864013672 124.04739379882812" stroke-width="3.0" fill="none" stroke="rgb(0, 0, 0)" stroke-opacity="1.0" stroke-linecap="round" stroke-linejoin="round"/>
    <path d="M 141.2705841064453 133.66099548339844 C 126.7279281616211 168.50965881347656 146.0487823486328 148.82907104492188 98.425537109375 185.66807556152344" stroke-width="3.0" fill="none" stroke="rgb(0, 0, 0)" stroke-opacity="1.0" stroke-linecap="round" stroke-linejoin="round"/>
    <path d="M 60.47785186767578 114.27410888671875 C 1.544414758682251 173.35743713378906 48.93768310546875 152.49880981445312 16.412601470947266 171.27760314941406" stroke-width="3.0" fill="none" stroke="rgb(0, 0, 0)" stroke-opacity="1.0" stroke-linecap="round" stroke-linejoin="round"/>
    <path d="M 63.22701644897461 43.3165397644043 C 103.28466033935547 102.8728256225586 98.75386047363281 82.86843872070312 139.67822265625 90.16703796386719" stroke-width="3.0" fill="none" stroke="rgb(0, 0, 0)" stroke-opacity="1.0" stroke-linecap="round" stroke-linejoin="round"/>
    <path d="M 139.10800170898438 139.6593017578125 C 146.92514038085938 128.38963317871094 140.33473205566406 141.18397521972656 173.4744110107422 113.39263916015625" stroke-width="3.0" fill="none" stroke="rgb(0, 0, 0)" stroke-opacity="1.0" stroke-linecap="round" stroke-linejoin="round"/>
    <path d="M 43.836002349853516 140.4051055908203 C 80.38724517822266 127.434814453125 75.65811157226562 144.9748077392578 74.44563293457031 113.72649383544922" stroke-width="3.0" fill="none" stroke="rgb(0, 0, 0)" stroke-opacity="1.0" stroke-linecap="round" stroke-linejoin="round"/>
    <path d="M 139.87533569335938 116.8655014038086 C 130.162109375 127.2646255493164 134.97366333007812 125.90155792236328 131.8683624267578 122.84339141845703" stroke-width="3.0" fill="none" stroke="rgb(0, 0, 0)" stroke-opacity="1.0" stroke-linecap="round" stroke-linejoin="round"/>
    <path d="M 169.0674591064453 123.11982727050781 C 185.8590545654297 147.2708282470703 139.9687957763672 201.35552978515625 159.7514190673828 192.22850036621094" stroke-width="3.0" fill="none" stroke="rgb(0, 0, 0)" stroke-opacity="1.0" stroke-linecap="round" stroke-linejoin="round"/>
    <path d="M 12.533536911010742 74.56754302978516 C 78.5189437866211 5.381369590759277 -5.428834438323975 63.155799865722656 71.63074493408203 38.32265090942383" stroke-width="3.0" fill="none" stroke="rgb(0, 0, 0)" stroke-opacity="1.0" stroke-linecap="round" stroke-linejoin="round"/>
    <path d="M 87.19599151611328 65.86087799072266 C 46.76491928100586 41.27324676513672 22.307674407958984 26.70538330078125 82.61160278320312 51.116554260253906" stroke-width="3.0" fill="none" stroke="rgb(0, 0, 0)" stroke-opacity="1.0" stroke-linecap="round" stroke-linejoin="round"/>
  </g>
</svg>
