<?xml version="1.0" ?>
<svg xmlns="http://www.w3.org/2000/svg" version="1.1" width="224" height="224">
  <defs/>
  <g>
    <path d="M 79.68360900878906 110.73435974121094 C 92.84550476074219 131.57398986816406 83.47815704345703 121.8907699584961 81.35792541503906 118.70103454589844" stroke-width="3.0" fill="none" stroke="rgb(0, 0, 0)" stroke-opacity="1.0" stroke-linecap="round" stroke-linejoin="round"/>
    <path d="M 79.04536437988281 122.30000305175781 C 114.89046478271484 133.63819885253906 115.98857116699219 126.44994354248047 136.9788055419922 124.36519622802734" stroke-width="3.0" fill="none" stroke="rgb(0, 0, 0)" stroke-opacity="1.0" stroke-linecap="round" stroke-linejoin="round"/>
    <path d="M 163.67750549316406 96.3885498046875 C 219.54502868652344 120.81805419921875 194.1730194091797 135.07382202148438 217.41265869140625 143.67257690429688" stroke-width="3.0" fill="none" stroke="rgb(0, 0, 0)" stroke-opacity="1.0" stroke-linecap="round" stroke-linejoin="round"/>
    <path d="M 50.81917190551758 66.74471282958984 C 40.233341217041016 159.3546905517578 77.13919830322266 82.34241485595703 33.22654724121094 159.84104919433594" stroke-width="3.0" fill="none" stroke="rgb(0, 0, 0)" stroke-opacity="1.0" stroke-linecap="round" stroke-linejoin="round"/>
    <path d="M 120.3956527709961 87.94105529785156 C 131.9230194091797 89.1683349609375 150.52108764648438 78.8184814453125 170.8518524169922 103.62716674804688" stroke-width="3.0" fill="none" stroke="rgb(0, 0, 0)" stroke-opacity="1.0" stroke-linecap="round" stroke-linejoin="round"/>
    <path d="M 142.40576171875 125.00146484375 C 123.39328002929688 123.08094787597656 128.90249633789062 127.8438949584961 133.0638885498047 126.07345581054688" stroke-width="3.0" fill="none" stroke="rgb(0, 0, 0)" stroke-opacity="1.0" stroke-linecap="round" stroke-linejoin="round"/>
    <path d="M 80.91061401367188 120.89584350585938 C 91.45677185058594 104.97034454345703 68.40861511230469 130.29522705078125 85.27621459960938 119.82157135009766" stroke-width="3.0" fill="none" stroke="rgb(0, 0, 0)" stroke-opacity="1.0" stroke-linecap="round" stroke-linejoin="round"/>
    <path d="M 140.0474395751953 126.25437927246094 C 123.23273468017578 173.44268798828125 142.70248413085938 154.4767303466797 98.38865661621094 184.74070739746094" stroke-width="3.0" fill="none" stroke="rgb(0, 0, 0)" stroke-opacity="1.0" stroke-linecap="round" stroke-linejoin="round"/>
    <path d="M 61.51235580444336 121.58441162109375 C -11.781375885009766 182.32711791992188 56.67992401123047 153.92654418945312 14.992533683776855 168.95558166503906" stroke-width="3.0" fill="none" stroke="rgb(0, 0, 0)" stroke-opacity="1.0" stroke-linecap="round" stroke-linejoin="round"/>
    <path d="M 38.08637619018555 41.89008712768555 C 125.94356536865234 85.75808715820312 49.85635757446289 74.54387664794922 121.22119903564453 87.8335189819336" stroke-width="3.0" fill="none" stroke="rgb(0, 0, 0)" stroke-opacity="1.0" stroke-linecap="round" stroke-linejoin="round"/>
    <path d="M 132.5162811279297 160.55819702148438 C 151.3966064453125 115.49993896484375 150.91363525390625 153.7753143310547 181.24583435058594 105.34172821044922" stroke-width="3.0" fill="none" stroke="rgb(0, 0, 0)" stroke-opacity="1.0" stroke-linecap="round" stroke-linejoin="round"/>
    <path d="M 30.85270118713379 155.0533447265625 C 70.96458435058594 117.15225982666016 66.27337646484375 143.16311645507812 75.72651672363281 114.2567138671875" stroke-width="3.0" fill="none" stroke="rgb(0, 0, 0)" stroke-opacity="1.0" stroke-linecap="round" stroke-linejoin="round"/>
    <path d="M 154.5304718017578 119.39669036865234 C 138.64736938476562 129.76861572265625 135.8213653564453 120.01105499267578 135.9098663330078 126.2611083984375" stroke-width="3.0" fill="none" stroke="rgb(0, 0, 0)" stroke-opacity="1.0" stroke-linecap="round" stroke-linejoin="round"/>
    <path d="M 170.9708709716797 111.62469482421875 C 164.34951782226562 229.71974182128906 136.05482482910156 184.591064453125 161.8638916015625 189.0834197998047" stroke-width="3.0" fill="none" stroke="rgb(0, 0, 0)" stroke-opacity="1.0" stroke-linecap="round" stroke-linejoin="round"/>
    <path d="M 15.136631965637207 76.13172149658203 C 69.21451568603516 20.18834686279297 -16.894197463989258 67.44583129882812 67.07353973388672 48.49732208251953" stroke-width="3.0" fill="none" stroke="rgb(0, 0, 0)" stroke-opacity="1.0" stroke-linecap="round" stroke-linejoin="round"/>
    <path d="M 92.6709976196289 68.4703598022461 C 46.1727294921875 36.3140983581543 -14.881149291992188 39.75971221923828 83.1546859741211 56.994991302490234" stroke-width="3.0" fill="none" stroke="rgb(0, 0, 0)" stroke-opacity="1.0" stroke-linecap="round" stroke-linejoin="round"/>
  </g>
</svg>
