<?xml version="1.0" ?>
<svg xmlns="http://www.w3.org/2000/svg" version="1.1" width="224" height="224">
  <defs/>
  <g>
    <path d="M 76.77437591552734 122.12184143066406 C 84.64505004882812 125.58226776123047 83.54928588867188 124.3971176147461 74.97777557373047 116.5459213256836" stroke-width="3.0" fill="none" stroke="rgb(0, 0, 0)" stroke-opacity="1.0" stroke-linecap="round" stroke-linejoin="round"/>
    <path d="M 75.07796478271484 122.89039611816406 C 109.01992797851562 133.9022979736328 124.11658477783203 124.35214233398438 133.210205078125 125.54273986816406" stroke-width="3.0" fill="none" stroke="rgb(0, 0, 0)" stroke-opacity="1.0" stroke-linecap="round" stroke-linejoin="round"/>
    <path d="M 156.71408081054688 90.95744323730469 C 223.0858917236328 117.49977111816406 187.20223999023438 134.21368408203125 215.2813262939453 141.54946899414062" stroke-width="3.0" fill="none" stroke="rgb(0, 0, 0)" stroke-opacity="1.0" stroke-linecap="round" stroke-linejoin="round"/>
    <path d="M 62.192012786865234 72.2865982055664 C 36.910770416259766 140.9963836669922 78.6534652709961 86.15626525878906 32.71398162841797 156.592041015625" stroke-width="3.0" fill="none" stroke="rgb(0, 0, 0)" stroke-opacity="1.0" stroke-linecap="round" stroke-linejoin="round"/>
    <path d="M 128.53311157226562 88.32482147216797 C 133.09481811523438 87.70703125 169.11007690429688 86.53611755371094 177.06503295898438 108.20509338378906" stroke-width="3.0" fill="none" stroke="rgb(0, 0, 0)" stroke-opacity="1.0" stroke-linecap="round" stroke-linejoin="round"/>
    <path d="M 131.18228149414062 126.4024429321289 C 135.0443878173828 126.14949035644531 116.25239562988281 126.98751831054688 123.34822845458984 127.15679168701172" stroke-width="3.0" fill="none" stroke="rgb(0, 0, 0)" stroke-opacity="1.0" stroke-linecap="round" stroke-linejoin="round"/>
    <path d="M 77.56285858154297 122.453857421875 C 77.26864624023438 117.12704467773438 68.08053588867188 121.45441436767578 79.21936798095703 123.44273376464844" stroke-width="3.0" fill="none" stroke="rgb(0, 0, 0)" stroke-opacity="1.0" stroke-linecap="round" stroke-linejoin="round"/>
    <path d="M 138.57763671875 130.1287384033203 C 124.3752670288086 169.81173706054688 145.7616424560547 154.29844665527344 99.822265625 186.2196044921875" stroke-width="3.0" fill="none" stroke="rgb(0, 0, 0)" stroke-opacity="1.0" stroke-linecap="round" stroke-linejoin="round"/>
    <path d="M 58.219078063964844 122.89559173583984 C -2.6372077465057373 175.62171936035156 49.90510559082031 156.28555297851562 18.00057601928711 168.89979553222656" stroke-width="3.0" fill="none" stroke="rgb(0, 0, 0)" stroke-opacity="1.0" stroke-linecap="round" stroke-linejoin="round"/>
    <path d="M 52.60967254638672 38.14214324951172 C 108.93844604492188 98.70501708984375 92.97301483154297 76.62432861328125 134.45712280273438 90.34671783447266" stroke-width="3.0" fill="none" stroke="rgb(0, 0, 0)" stroke-opacity="1.0" stroke-linecap="round" stroke-linejoin="round"/>
    <path d="M 132.8789520263672 159.73606872558594 C 145.97218322753906 119.52982330322266 143.55657958984375 148.13861083984375 175.6153106689453 114.20028686523438" stroke-width="3.0" fill="none" stroke="rgb(0, 0, 0)" stroke-opacity="1.0" stroke-linecap="round" stroke-linejoin="round"/>
    <path d="M 27.38022232055664 153.34548950195312 C 73.96067810058594 124.1652603149414 63.93539047241211 138.44769287109375 74.97566223144531 115.84403228759766" stroke-width="3.0" fill="none" stroke="rgb(0, 0, 0)" stroke-opacity="1.0" stroke-linecap="round" stroke-linejoin="round"/>
    <path d="M 141.9696807861328 127.54763793945312 C 130.2867431640625 116.60063171386719 137.019287109375 122.15101623535156 137.05044555664062 123.03671264648438" stroke-width="3.0" fill="none" stroke="rgb(0, 0, 0)" stroke-opacity="1.0" stroke-linecap="round" stroke-linejoin="round"/>
    <path d="M 173.1218719482422 123.13561248779297 C 183.5052490234375 148.84300231933594 142.82864379882812 201.27378845214844 162.44786071777344 192.122802734375" stroke-width="3.0" fill="none" stroke="rgb(0, 0, 0)" stroke-opacity="1.0" stroke-linecap="round" stroke-linejoin="round"/>
    <path d="M 14.076457977294922 75.93302917480469 C 82.50511932373047 11.38173770904541 -6.670061111450195 57.845787048339844 73.73431396484375 44.82078552246094" stroke-width="3.0" fill="none" stroke="rgb(0, 0, 0)" stroke-opacity="1.0" stroke-linecap="round" stroke-linejoin="round"/>
    <path d="M 82.93291473388672 63.34981155395508 C 41.09519577026367 44.56774139404297 15.871122360229492 26.13018798828125 78.9075927734375 55.599876403808594" stroke-width="3.0" fill="none" stroke="rgb(0, 0, 0)" stroke-opacity="1.0" stroke-linecap="round" stroke-linejoin="round"/>
  </g>
</svg>
