<?xml version="1.0" ?>
<svg xmlns="http://www.w3.org/2000/svg" version="1.1" width="224" height="224">
  <defs/>
  <g>
    <path d="M 100.51277923583984 118.72782135009766 C 98.35453796386719 120.72864532470703 100.6772232055664 118.5090103149414 86.43826293945312 117.31331634521484" stroke-width="3.0" fill="none" stroke="rgb(0, 0, 0)" stroke-opacity="1.0" stroke-linecap="round" stroke-linejoin="round"/>
    <path d="M 85.93915557861328 119.87947082519531 C 101.49313354492188 125.21196746826172 120.24024200439453 127.34954071044922 132.6478729248047 119.37527465820312" stroke-width="3.0" fill="none" stroke="rgb(0, 0, 0)" stroke-opacity="1.0" stroke-linecap="round" stroke-linejoin="round"/>
    <path d="M 154.14950561523438 92.45899200439453 C 222.1216583251953 116.3804931640625 190.34259033203125 134.47039794921875 214.94845581054688 145.82498168945312" stroke-width="3.0" fill="none" stroke="rgb(0, 0, 0)" stroke-opacity="1.0" stroke-linecap="round" stroke-linejoin="round"/>
    <path d="M 50.9693717956543 79.82868957519531 C 49.55637741088867 134.2213134765625 77.59602355957031 102.09835815429688 39.4246940612793 136.27737426757812" stroke-width="3.0" fill="none" stroke="rgb(0, 0, 0)" stroke-opacity="1.0" stroke-linecap="round" stroke-linejoin="round"/>
    <path d="M 132.28700256347656 87.91188049316406 C 160.91278076171875 93.2767562866211 147.91932678222656 87.77639770507812 162.06924438476562 98.0564193725586" stroke-width="3.0" fill="none" stroke="rgb(0, 0, 0)" stroke-opacity="1.0" stroke-linecap="round" stroke-linejoin="round"/>
    <path d="M 139.3798065185547 115.43685150146484 C 129.28965759277344 123.99274444580078 120.46340942382812 123.69447326660156 124.94664001464844 122.10636901855469" stroke-width="3.0" fill="none" stroke="rgb(0, 0, 0)" stroke-opacity="1.0" stroke-linecap="round" stroke-linejoin="round"/>
    <path d="M 90.2344970703125 113.30423736572266 C 71.18904113769531 126.30978393554688 71.71724700927734 111.66226196289062 91.65280151367188 121.09154510498047" stroke-width="3.0" fill="none" stroke="rgb(0, 0, 0)" stroke-opacity="1.0" stroke-linecap="round" stroke-linejoin="round"/>
    <path d="M 136.92835998535156 134.03892517089844 C 129.30831909179688 166.64085388183594 147.287841796875 151.28131103515625 97.45306396484375 181.90951538085938" stroke-width="3.0" fill="none" stroke="rgb(0, 0, 0)" stroke-opacity="1.0" stroke-linecap="round" stroke-linejoin="round"/>
    <path d="M 52.37421798706055 127.71774291992188 C -3.8969454765319824 174.570068359375 43.531707763671875 154.65077209472656 20.008840560913086 170.4186553955078" stroke-width="3.0" fill="none" stroke="rgb(0, 0, 0)" stroke-opacity="1.0" stroke-linecap="round" stroke-linejoin="round"/>
    <path d="M 83.94111633300781 66.8878402709961 C 98.735595703125 87.10340881347656 107.88614654541016 83.63327026367188 141.56544494628906 88.85364532470703" stroke-width="3.0" fill="none" stroke="rgb(0, 0, 0)" stroke-opacity="1.0" stroke-linecap="round" stroke-linejoin="round"/>
    <path d="M 132.84481811523438 125.6264419555664 C 136.08914184570312 140.19371032714844 136.13128662109375 138.14222717285156 166.41709899902344 127.36454010009766" stroke-width="3.0" fill="none" stroke="rgb(0, 0, 0)" stroke-opacity="1.0" stroke-linecap="round" stroke-linejoin="round"/>
    <path d="M 63.563350677490234 132.99710083007812 C 89.72342681884766 118.7884521484375 62.9873046875 114.82759857177734 86.73390197753906 116.61553192138672" stroke-width="3.0" fill="none" stroke="rgb(0, 0, 0)" stroke-opacity="1.0" stroke-linecap="round" stroke-linejoin="round"/>
    <path d="M 145.217529296875 111.96576690673828 C 136.7170867919922 113.85772705078125 138.56271362304688 119.87784576416016 133.17710876464844 117.7177505493164" stroke-width="3.0" fill="none" stroke="rgb(0, 0, 0)" stroke-opacity="1.0" stroke-linecap="round" stroke-linejoin="round"/>
    <path d="M 156.29931640625 136.27711486816406 C 187.31356811523438 167.3380889892578 140.29586791992188 196.4711151123047 160.12342834472656 192.5406494140625" stroke-width="3.0" fill="none" stroke="rgb(0, 0, 0)" stroke-opacity="1.0" stroke-linecap="round" stroke-linejoin="round"/>
    <path d="M 13.127033233642578 72.17150115966797 C 48.219417572021484 6.313142776489258 45.35997009277344 57.61747741699219 69.73780059814453 35.888851165771484" stroke-width="3.0" fill="none" stroke="rgb(0, 0, 0)" stroke-opacity="1.0" stroke-linecap="round" stroke-linejoin="round"/>
    <path d="M 86.96138763427734 65.90824127197266 C 59.13085174560547 40.52792739868164 50.708683013916016 38.03971862792969 80.06975555419922 49.512577056884766" stroke-width="3.0" fill="none" stroke="rgb(0, 0, 0)" stroke-opacity="1.0" stroke-linecap="round" stroke-linejoin="round"/>
  </g>
</svg>
