<?xml version="1.0" ?>
<svg xmlns="http://www.w3.org/2000/svg" version="1.1" width="224" height="224">
  <defs/>
  <g>
    <path d="M 103.52860260009766 118.08805847167969 C 105.726318359375 119.24762725830078 98.6775894165039 120.47697448730469 92.5035171508789 116.4124755859375" stroke-width="3.0" fill="none" stroke="rgb(0, 0, 0)" stroke-opacity="1.0" stroke-linecap="round" stroke-linejoin="round"/>
    <path d="M 90.93260192871094 119.01551055908203 C 112.25261688232422 125.82813262939453 122.44844818115234 141.7437744140625 129.95584106445312 118.67601013183594" stroke-width="3.0" fill="none" stroke="rgb(0, 0, 0)" stroke-opacity="1.0" stroke-linecap="round" stroke-linejoin="round"/>
    <path d="M 154.54945373535156 92.55394744873047 C 226.58299255371094 113.27117156982422 193.83094787597656 134.09312438964844 215.5767364501953 141.86563110351562" stroke-width="3.0" fill="none" stroke="rgb(0, 0, 0)" stroke-opacity="1.0" stroke-linecap="round" stroke-linejoin="round"/>
    <path d="M 51.537193298339844 91.59603881835938 C 53.948646545410156 129.06076049804688 67.71753692626953 105.55569458007812 46.890296936035156 134.4232177734375" stroke-width="3.0" fill="none" stroke="rgb(0, 0, 0)" stroke-opacity="1.0" stroke-linecap="round" stroke-linejoin="round"/>
    <path d="M 129.8995819091797 88.96161651611328 C 159.55569458007812 92.20661163330078 144.94345092773438 89.20622253417969 163.19686889648438 95.16620635986328" stroke-width="3.0" fill="none" stroke="rgb(0, 0, 0)" stroke-opacity="1.0" stroke-linecap="round" stroke-linejoin="round"/>
    <path d="M 139.59312438964844 108.05531311035156 C 129.3896484375 124.58993530273438 118.48587799072266 117.99627685546875 122.30952453613281 119.3792953491211" stroke-width="3.0" fill="none" stroke="rgb(0, 0, 0)" stroke-opacity="1.0" stroke-linecap="round" stroke-linejoin="round"/>
    <path d="M 86.615966796875 109.05924987792969 C 80.5285873413086 120.3479995727539 81.32793426513672 116.2943344116211 93.95044708251953 119.73871612548828" stroke-width="3.0" fill="none" stroke="rgb(0, 0, 0)" stroke-opacity="1.0" stroke-linecap="round" stroke-linejoin="round"/>
    <path d="M 134.86973571777344 134.38800048828125 C 138.47752380371094 167.35882568359375 142.833984375 151.93569946289062 99.53397369384766 181.35614013671875" stroke-width="3.0" fill="none" stroke="rgb(0, 0, 0)" stroke-opacity="1.0" stroke-linecap="round" stroke-linejoin="round"/>
    <path d="M 48.44701385498047 136.02734375 C 21.893203735351562 166.8331756591797 57.35406494140625 139.9069366455078 16.438343048095703 167.48556518554688" stroke-width="3.0" fill="none" stroke="rgb(0, 0, 0)" stroke-opacity="1.0" stroke-linecap="round" stroke-linejoin="round"/>
    <path d="M 88.82049560546875 63.1502685546875 C 102.77310943603516 86.66732788085938 107.49309539794922 87.64035034179688 138.948974609375 90.03450012207031" stroke-width="3.0" fill="none" stroke="rgb(0, 0, 0)" stroke-opacity="1.0" stroke-linecap="round" stroke-linejoin="round"/>
    <path d="M 128.08619689941406 132.69580078125 C 126.95736694335938 135.56912231445312 142.6013641357422 132.43362426757812 164.6727752685547 126.05396270751953" stroke-width="3.0" fill="none" stroke="rgb(0, 0, 0)" stroke-opacity="1.0" stroke-linecap="round" stroke-linejoin="round"/>
    <path d="M 66.1279525756836 132.11436462402344 C 89.1086654663086 114.11222839355469 64.64859771728516 116.93604278564453 89.3961181640625 110.99612426757812" stroke-width="3.0" fill="none" stroke="rgb(0, 0, 0)" stroke-opacity="1.0" stroke-linecap="round" stroke-linejoin="round"/>
    <path d="M 147.71484375 110.92639923095703 C 136.8091278076172 114.28469848632812 136.4523468017578 109.97870635986328 130.78549194335938 116.15290832519531" stroke-width="3.0" fill="none" stroke="rgb(0, 0, 0)" stroke-opacity="1.0" stroke-linecap="round" stroke-linejoin="round"/>
    <path d="M 152.5408172607422 134.50265502929688 C 183.43267822265625 167.12644958496094 138.6117706298828 199.052734375 158.3822784423828 194.24435424804688" stroke-width="3.0" fill="none" stroke="rgb(0, 0, 0)" stroke-opacity="1.0" stroke-linecap="round" stroke-linejoin="round"/>
    <path d="M 24.73291015625 56.48270034790039 C 54.23843765258789 12.4432954788208 46.73066329956055 57.670047760009766 71.61653137207031 37.12577819824219" stroke-width="3.0" fill="none" stroke="rgb(0, 0, 0)" stroke-opacity="1.0" stroke-linecap="round" stroke-linejoin="round"/>
    <path d="M 92.32145690917969 63.01472473144531 C 67.54702758789062 38.56923294067383 57.18894958496094 47.79815673828125 71.92046356201172 42.9057502746582" stroke-width="3.0" fill="none" stroke="rgb(0, 0, 0)" stroke-opacity="1.0" stroke-linecap="round" stroke-linejoin="round"/>
  </g>
</svg>
