<?xml version="1.0" ?>
<svg xmlns="http://www.w3.org/2000/svg" version="1.1" width="224" height="224">
  <defs/>
  <g>
    <path d="M 81.5777816772461 116.14490509033203 C 89.05355834960938 127.60457611083984 81.35301971435547 123.00652313232422 82.00070190429688 119.9940414428711" stroke-width="3.0" fill="none" stroke="rgb(0, 0, 0)" stroke-opacity="1.0" stroke-linecap="round" stroke-linejoin="round"/>
    <path d="M 77.17032623291016 122.14402770996094 C 111.77699279785156 134.57981872558594 113.46952819824219 126.80658721923828 135.8885955810547 124.02961730957031" stroke-width="3.0" fill="none" stroke="rgb(0, 0, 0)" stroke-opacity="1.0" stroke-linecap="round" stroke-linejoin="round"/>
    <path d="M 153.34625244140625 90.07809448242188 C 224.49722290039062 122.10517883300781 187.96759033203125 131.3832244873047 212.8614959716797 144.3336944580078" stroke-width="3.0" fill="none" stroke="rgb(0, 0, 0)" stroke-opacity="1.0" stroke-linecap="round" stroke-linejoin="round"/>
    <path d="M 51.768043518066406 70.18605041503906 C 43.63200759887695 154.07620239257812 77.25871276855469 84.84850311279297 35.255558013916016 161.00453186035156" stroke-width="3.0" fill="none" stroke="rgb(0, 0, 0)" stroke-opacity="1.0" stroke-linecap="round" stroke-linejoin="round"/>
    <path d="M 124.51850128173828 86.73738861083984 C 139.3662872314453 88.75064849853516 154.7942352294922 80.50664520263672 170.89149475097656 103.78156280517578" stroke-width="3.0" fill="none" stroke="rgb(0, 0, 0)" stroke-opacity="1.0" stroke-linecap="round" stroke-linejoin="round"/>
    <path d="M 146.29324340820312 119.27487182617188 C 146.1417236328125 127.52142333984375 131.42254638671875 122.23200988769531 136.90687561035156 124.4403076171875" stroke-width="3.0" fill="none" stroke="rgb(0, 0, 0)" stroke-opacity="1.0" stroke-linecap="round" stroke-linejoin="round"/>
    <path d="M 76.93797302246094 119.2605972290039 C 86.5560302734375 118.25102996826172 62.588138580322266 133.00601196289062 85.6744155883789 111.94085693359375" stroke-width="3.0" fill="none" stroke="rgb(0, 0, 0)" stroke-opacity="1.0" stroke-linecap="round" stroke-linejoin="round"/>
    <path d="M 140.3486785888672 128.84263610839844 C 125.91951751708984 175.5840606689453 139.86935424804688 155.48553466796875 99.30599212646484 184.429931640625" stroke-width="3.0" fill="none" stroke="rgb(0, 0, 0)" stroke-opacity="1.0" stroke-linecap="round" stroke-linejoin="round"/>
    <path d="M 55.55687713623047 128.20252990722656 C -3.2414450645446777 174.2658233642578 51.54124450683594 152.92422485351562 15.259305000305176 169.4705352783203" stroke-width="3.0" fill="none" stroke="rgb(0, 0, 0)" stroke-opacity="1.0" stroke-linecap="round" stroke-linejoin="round"/>
    <path d="M 45.564212799072266 41.081504821777344 C 115.88865661621094 92.39347839355469 65.71610260009766 80.5858154296875 133.351806640625 88.48421478271484" stroke-width="3.0" fill="none" stroke="rgb(0, 0, 0)" stroke-opacity="1.0" stroke-linecap="round" stroke-linejoin="round"/>
    <path d="M 133.7373046875 157.4932403564453 C 154.542236328125 115.4002456665039 157.18402099609375 155.4248809814453 179.3994598388672 107.47721862792969" stroke-width="3.0" fill="none" stroke="rgb(0, 0, 0)" stroke-opacity="1.0" stroke-linecap="round" stroke-linejoin="round"/>
    <path d="M 30.903724670410156 154.18524169921875 C 73.76859283447266 119.94904327392578 62.915306091308594 145.6320037841797 70.89276123046875 116.72789001464844" stroke-width="3.0" fill="none" stroke="rgb(0, 0, 0)" stroke-opacity="1.0" stroke-linecap="round" stroke-linejoin="round"/>
    <path d="M 154.10057067871094 119.6559829711914 C 136.43569946289062 133.65419006347656 135.04737854003906 126.07930755615234 141.18006896972656 132.41439819335938" stroke-width="3.0" fill="none" stroke="rgb(0, 0, 0)" stroke-opacity="1.0" stroke-linecap="round" stroke-linejoin="round"/>
    <path d="M 172.5873260498047 111.01571655273438 C 171.26145935058594 186.7851104736328 135.6830596923828 206.82183837890625 155.00767517089844 195.9800567626953" stroke-width="3.0" fill="none" stroke="rgb(0, 0, 0)" stroke-opacity="1.0" stroke-linecap="round" stroke-linejoin="round"/>
    <path d="M 12.992305755615234 74.6980209350586 C 75.63064575195312 14.692151069641113 -18.248252868652344 67.11547088623047 69.76100158691406 45.530670166015625" stroke-width="3.0" fill="none" stroke="rgb(0, 0, 0)" stroke-opacity="1.0" stroke-linecap="round" stroke-linejoin="round"/>
    <path d="M 89.54288482666016 68.81077575683594 C 31.599767684936523 44.62214279174805 -2.361342668533325 27.54120635986328 82.55366516113281 59.56352233886719" stroke-width="3.0" fill="none" stroke="rgb(0, 0, 0)" stroke-opacity="1.0" stroke-linecap="round" stroke-linejoin="round"/>
  </g>
</svg>
