<?xml version="1.0" ?>
<svg xmlns="http://www.w3.org/2000/svg" version="1.1" width="224" height="224">
  <defs/>
  <g>
    <path d="M 80.23041534423828 112.19511413574219 C 93.77450561523438 129.74134826660156 85.27223205566406 120.79163360595703 80.51251983642578 117.56646728515625" stroke-width="3.0" fill="none" stroke="rgb(0, 0, 0)" stroke-opacity="1.0" stroke-linecap="round" stroke-linejoin="round"/>
    <path d="M 80.54475402832031 123.53655242919922 C 123.26216888427734 134.80123901367188 117.15947723388672 128.8679962158203 140.3422088623047 121.17237091064453" stroke-width="3.0" fill="none" stroke="rgb(0, 0, 0)" stroke-opacity="1.0" stroke-linecap="round" stroke-linejoin="round"/>
    <path d="M 166.08840942382812 97.59212493896484 C 224.35977172851562 123.00352478027344 190.65037536621094 132.1304168701172 219.5562744140625 144.17140197753906" stroke-width="3.0" fill="none" stroke="rgb(0, 0, 0)" stroke-opacity="1.0" stroke-linecap="round" stroke-linejoin="round"/>
    <path d="M 49.806190490722656 61.223514556884766 C 33.98044204711914 155.2052459716797 73.02098083496094 83.73870849609375 33.329559326171875 157.5880889892578" stroke-width="3.0" fill="none" stroke="rgb(0, 0, 0)" stroke-opacity="1.0" stroke-linecap="round" stroke-linejoin="round"/>
    <path d="M 117.14823913574219 86.4267349243164 C 139.08314514160156 89.84296417236328 153.91091918945312 78.80561065673828 174.66758728027344 106.9005126953125" stroke-width="3.0" fill="none" stroke="rgb(0, 0, 0)" stroke-opacity="1.0" stroke-linecap="round" stroke-linejoin="round"/>
    <path d="M 141.28350830078125 121.00716400146484 C 127.82582092285156 131.76036071777344 121.28535461425781 135.7583770751953 140.4653778076172 123.43570709228516" stroke-width="3.0" fill="none" stroke="rgb(0, 0, 0)" stroke-opacity="1.0" stroke-linecap="round" stroke-linejoin="round"/>
    <path d="M 80.3871841430664 122.5114974975586 C 90.33326721191406 109.85523986816406 65.41707611083984 128.86785888671875 84.74693298339844 121.9951171875" stroke-width="3.0" fill="none" stroke="rgb(0, 0, 0)" stroke-opacity="1.0" stroke-linecap="round" stroke-linejoin="round"/>
    <path d="M 135.22695922851562 129.81687927246094 C 126.01178741455078 172.1831817626953 142.68797302246094 157.2676544189453 99.31197357177734 182.885498046875" stroke-width="3.0" fill="none" stroke="rgb(0, 0, 0)" stroke-opacity="1.0" stroke-linecap="round" stroke-linejoin="round"/>
    <path d="M 54.67966079711914 125.82902526855469 C -7.725763320922852 177.98760986328125 53.096866607666016 148.44215393066406 15.539477348327637 168.79872131347656" stroke-width="3.0" fill="none" stroke="rgb(0, 0, 0)" stroke-opacity="1.0" stroke-linecap="round" stroke-linejoin="round"/>
    <path d="M 41.886409759521484 39.430789947509766 C 125.29033660888672 85.76582336425781 53.705814361572266 77.65209197998047 123.39447784423828 89.02642822265625" stroke-width="3.0" fill="none" stroke="rgb(0, 0, 0)" stroke-opacity="1.0" stroke-linecap="round" stroke-linejoin="round"/>
    <path d="M 134.15328979492188 158.06922912597656 C 153.06793212890625 116.26643371582031 150.39962768554688 153.80709838867188 178.7070770263672 108.90389251708984" stroke-width="3.0" fill="none" stroke="rgb(0, 0, 0)" stroke-opacity="1.0" stroke-linecap="round" stroke-linejoin="round"/>
    <path d="M 31.02360725402832 153.59152221679688 C 74.62345886230469 116.48779296875 66.23777770996094 143.4727783203125 74.67008972167969 114.90677642822266" stroke-width="3.0" fill="none" stroke="rgb(0, 0, 0)" stroke-opacity="1.0" stroke-linecap="round" stroke-linejoin="round"/>
    <path d="M 157.07815551757812 118.06006622314453 C 138.32664489746094 124.80918884277344 135.48486328125 120.14022827148438 133.33782958984375 129.58876037597656" stroke-width="3.0" fill="none" stroke="rgb(0, 0, 0)" stroke-opacity="1.0" stroke-linecap="round" stroke-linejoin="round"/>
    <path d="M 171.65530395507812 113.10655212402344 C 169.06971740722656 225.90524291992188 133.4020538330078 185.465087890625 159.97042846679688 189.545166015625" stroke-width="3.0" fill="none" stroke="rgb(0, 0, 0)" stroke-opacity="1.0" stroke-linecap="round" stroke-linejoin="round"/>
    <path d="M 10.954330444335938 75.76355743408203 C 69.61184692382812 17.2137393951416 -17.288393020629883 67.92552947998047 71.61540985107422 45.72451400756836" stroke-width="3.0" fill="none" stroke="rgb(0, 0, 0)" stroke-opacity="1.0" stroke-linecap="round" stroke-linejoin="round"/>
    <path d="M 91.23783111572266 70.0604019165039 C 48.013858795166016 32.70524978637695 -9.243940353393555 36.225128173828125 86.98047637939453 56.39927291870117" stroke-width="3.0" fill="none" stroke="rgb(0, 0, 0)" stroke-opacity="1.0" stroke-linecap="round" stroke-linejoin="round"/>
  </g>
</svg>
