<?xml version="1.0" ?>
<svg xmlns="http://www.w3.org/2000/svg" version="1.1" width="224" height="224">
  <defs/>
  <g>
    <path d="M 79.30422973632812 108.32149505615234 C 89.83821868896484 131.1860809326172 82.08169555664062 122.02583312988281 81.82169342041016 122.85670471191406" stroke-width="3.0" fill="none" stroke="rgb(0, 0, 0)" stroke-opacity="1.0" stroke-linecap="round" stroke-linejoin="round"/>
    <path d="M 72.95118713378906 122.16654968261719 C 109.94750213623047 136.4751434326172 110.64871978759766 126.32197570800781 135.05540466308594 127.35968017578125" stroke-width="3.0" fill="none" stroke="rgb(0, 0, 0)" stroke-opacity="1.0" stroke-linecap="round" stroke-linejoin="round"/>
    <path d="M 169.67918395996094 100.277587890625 C 218.52598571777344 118.34639739990234 192.3968963623047 134.6719970703125 216.90191650390625 141.38180541992188" stroke-width="3.0" fill="none" stroke="rgb(0, 0, 0)" stroke-opacity="1.0" stroke-linecap="round" stroke-linejoin="round"/>
    <path d="M 47.253414154052734 58.45303726196289 C 57.90819549560547 149.86557006835938 68.75871276855469 66.91615295410156 37.732975006103516 158.5115966796875" stroke-width="3.0" fill="none" stroke="rgb(0, 0, 0)" stroke-opacity="1.0" stroke-linecap="round" stroke-linejoin="round"/>
    <path d="M 101.94607543945312 83.32284545898438 C 133.2482147216797 94.15686798095703 144.6192169189453 76.2139892578125 178.8043670654297 108.93831634521484" stroke-width="3.0" fill="none" stroke="rgb(0, 0, 0)" stroke-opacity="1.0" stroke-linecap="round" stroke-linejoin="round"/>
    <path d="M 132.38885498046875 125.8957290649414 C 140.60928344726562 131.62594604492188 137.2665557861328 121.18382263183594 122.43265533447266 125.79280853271484" stroke-width="3.0" fill="none" stroke="rgb(0, 0, 0)" stroke-opacity="1.0" stroke-linecap="round" stroke-linejoin="round"/>
    <path d="M 77.59708404541016 121.93386840820312 C 94.21493530273438 104.8080062866211 60.35380554199219 130.67686462402344 81.89933776855469 120.61605834960938" stroke-width="3.0" fill="none" stroke="rgb(0, 0, 0)" stroke-opacity="1.0" stroke-linecap="round" stroke-linejoin="round"/>
    <path d="M 139.7841339111328 129.0053253173828 C 119.9490737915039 180.0655975341797 143.9156951904297 156.6566162109375 97.92731475830078 185.51751708984375" stroke-width="3.0" fill="none" stroke="rgb(0, 0, 0)" stroke-opacity="1.0" stroke-linecap="round" stroke-linejoin="round"/>
    <path d="M 57.38679122924805 117.64395904541016 C -6.669395923614502 186.89602661132812 72.57881164550781 149.07371520996094 17.004243850708008 168.6455535888672" stroke-width="3.0" fill="none" stroke="rgb(0, 0, 0)" stroke-opacity="1.0" stroke-linecap="round" stroke-linejoin="round"/>
    <path d="M 35.9689826965332 35.664520263671875 C 107.93912506103516 79.44632720947266 49.08174133300781 66.16349029541016 111.59075164794922 85.84654235839844" stroke-width="3.0" fill="none" stroke="rgb(0, 0, 0)" stroke-opacity="1.0" stroke-linecap="round" stroke-linejoin="round"/>
    <path d="M 131.8343963623047 163.4832305908203 C 153.20684814453125 115.17631530761719 150.4591064453125 160.91220092773438 181.33953857421875 106.8497543334961" stroke-width="3.0" fill="none" stroke="rgb(0, 0, 0)" stroke-opacity="1.0" stroke-linecap="round" stroke-linejoin="round"/>
    <path d="M 34.99192810058594 153.5599822998047 C 65.6403579711914 115.89411163330078 59.8421516418457 141.86753845214844 73.21534729003906 114.24104309082031" stroke-width="3.0" fill="none" stroke="rgb(0, 0, 0)" stroke-opacity="1.0" stroke-linecap="round" stroke-linejoin="round"/>
    <path d="M 155.1937255859375 120.04838562011719 C 134.8404541015625 128.5380401611328 158.3570098876953 118.66789245605469 114.43822479248047 128.44876098632812" stroke-width="3.0" fill="none" stroke="rgb(0, 0, 0)" stroke-opacity="1.0" stroke-linecap="round" stroke-linejoin="round"/>
    <path d="M 173.38119506835938 109.46939086914062 C 166.29981994628906 229.96600341796875 136.00991821289062 177.19815063476562 161.00074768066406 190.89808654785156" stroke-width="3.0" fill="none" stroke="rgb(0, 0, 0)" stroke-opacity="1.0" stroke-linecap="round" stroke-linejoin="round"/>
    <path d="M 12.491812705993652 74.89297485351562 C 59.593204498291016 14.07618236541748 -14.00631046295166 80.18460845947266 53.34417724609375 36.91098403930664" stroke-width="3.0" fill="none" stroke="rgb(0, 0, 0)" stroke-opacity="1.0" stroke-linecap="round" stroke-linejoin="round"/>
    <path d="M 91.3070297241211 74.58514404296875 C 76.77893829345703 23.433683395385742 -19.42445945739746 37.275657653808594 84.03900146484375 54.28367233276367" stroke-width="3.0" fill="none" stroke="rgb(0, 0, 0)" stroke-opacity="1.0" stroke-linecap="round" stroke-linejoin="round"/>
  </g>
</svg>
