<?xml version="1.0" ?>
<svg xmlns="http://www.w3.org/2000/svg" version="1.1" width="224" height="224">
  <defs/>
  <g>
    <path d="M 80.68895721435547 121.88111114501953 C 84.91281127929688 125.1821060180664 81.20181274414062 124.24557495117188 74.75313568115234 119.38034057617188" stroke-width="3.0" fill="none" stroke="rgb(0, 0, 0)" stroke-opacity="1.0" stroke-linecap="round" stroke-linejoin="round"/>
    <path d="M 73.5165786743164 124.05789184570312 C 102.8915786743164 137.7299346923828 120.50840759277344 119.29450225830078 134.9744415283203 124.7788314819336" stroke-width="3.0" fill="none" stroke="rgb(0, 0, 0)" stroke-opacity="1.0" stroke-linecap="round" stroke-linejoin="round"/>
    <path d="M 154.42152404785156 91.40362548828125 C 224.73252868652344 119.87220764160156 188.09060668945312 127.50080871582031 213.11985778808594 141.78863525390625" stroke-width="3.0" fill="none" stroke="rgb(0, 0, 0)" stroke-opacity="1.0" stroke-linecap="round" stroke-linejoin="round"/>
    <path d="M 61.91368103027344 74.26213073730469 C 29.405254364013672 143.1919403076172 78.10517883300781 97.12091064453125 33.71970748901367 156.22845458984375" stroke-width="3.0" fill="none" stroke="rgb(0, 0, 0)" stroke-opacity="1.0" stroke-linecap="round" stroke-linejoin="round"/>
    <path d="M 128.55921936035156 91.37130737304688 C 136.38604736328125 89.20960998535156 167.97129821777344 84.3699951171875 177.1201171875 109.93817138671875" stroke-width="3.0" fill="none" stroke="rgb(0, 0, 0)" stroke-opacity="1.0" stroke-linecap="round" stroke-linejoin="round"/>
    <path d="M 135.9099884033203 122.92496490478516 C 134.61862182617188 121.44408416748047 115.62476348876953 125.87197875976562 123.34239959716797 124.40190887451172" stroke-width="3.0" fill="none" stroke="rgb(0, 0, 0)" stroke-opacity="1.0" stroke-linecap="round" stroke-linejoin="round"/>
    <path d="M 79.85881042480469 124.48487854003906 C 76.07682800292969 118.7196273803711 69.12339782714844 119.4950942993164 78.86570739746094 123.79156494140625" stroke-width="3.0" fill="none" stroke="rgb(0, 0, 0)" stroke-opacity="1.0" stroke-linecap="round" stroke-linejoin="round"/>
    <path d="M 141.02810668945312 128.02459716796875 C 127.5496597290039 166.34165954589844 147.16448974609375 152.4672088623047 96.1519775390625 183.24041748046875" stroke-width="3.0" fill="none" stroke="rgb(0, 0, 0)" stroke-opacity="1.0" stroke-linecap="round" stroke-linejoin="round"/>
    <path d="M 59.96526336669922 124.02629852294922 C -2.0430781841278076 168.87603759765625 48.19552230834961 151.5122528076172 16.36723518371582 168.9225311279297" stroke-width="3.0" fill="none" stroke="rgb(0, 0, 0)" stroke-opacity="1.0" stroke-linecap="round" stroke-linejoin="round"/>
    <path d="M 57.55558776855469 38.03529357910156 C 103.02975463867188 105.09613037109375 93.3111572265625 82.00814056396484 131.42747497558594 91.40682220458984" stroke-width="3.0" fill="none" stroke="rgb(0, 0, 0)" stroke-opacity="1.0" stroke-linecap="round" stroke-linejoin="round"/>
    <path d="M 139.82469177246094 147.46420288085938 C 151.90036010742188 124.8950424194336 146.52415466308594 141.4824981689453 175.12686157226562 114.26486206054688" stroke-width="3.0" fill="none" stroke="rgb(0, 0, 0)" stroke-opacity="1.0" stroke-linecap="round" stroke-linejoin="round"/>
    <path d="M 32.97821044921875 150.82147216796875 C 77.31875610351562 125.79207611083984 68.5648193359375 139.3221435546875 72.41788482666016 115.94371795654297" stroke-width="3.0" fill="none" stroke="rgb(0, 0, 0)" stroke-opacity="1.0" stroke-linecap="round" stroke-linejoin="round"/>
    <path d="M 140.8094482421875 117.52741241455078 C 130.89178466796875 126.37986755371094 135.4101104736328 120.93679809570312 133.3186798095703 122.33018493652344" stroke-width="3.0" fill="none" stroke="rgb(0, 0, 0)" stroke-opacity="1.0" stroke-linecap="round" stroke-linejoin="round"/>
    <path d="M 172.94981384277344 121.88356018066406 C 187.70401000976562 148.44357299804688 145.68215942382812 201.3029327392578 165.15606689453125 193.65518188476562" stroke-width="3.0" fill="none" stroke="rgb(0, 0, 0)" stroke-opacity="1.0" stroke-linecap="round" stroke-linejoin="round"/>
    <path d="M 13.667601585388184 73.68949127197266 C 78.8458480834961 11.223718643188477 -3.824753761291504 63.38240051269531 68.52064514160156 41.57216262817383" stroke-width="3.0" fill="none" stroke="rgb(0, 0, 0)" stroke-opacity="1.0" stroke-linecap="round" stroke-linejoin="round"/>
    <path d="M 83.09990692138672 66.54396057128906 C 45.392555236816406 42.09229278564453 23.922603607177734 22.968294143676758 77.7647705078125 53.08266067504883" stroke-width="3.0" fill="none" stroke="rgb(0, 0, 0)" stroke-opacity="1.0" stroke-linecap="round" stroke-linejoin="round"/>
  </g>
</svg>
