<?xml version="1.0" ?>
<svg xmlns="http://www.w3.org/2000/svg" version="1.1" width="224" height="224">
  <defs/>
  <g>
    <path d="M 104.15660858154297 119.83744812011719 C 100.00003051757812 121.34388732910156 97.92340850830078 120.54270935058594 91.9964370727539 115.24581909179688" stroke-width="3.0" fill="none" stroke="rgb(0, 0, 0)" stroke-opacity="1.0" stroke-linecap="round" stroke-linejoin="round"/>
    <path d="M 90.52850341796875 121.2839584350586 C 106.19145965576172 126.55404663085938 121.47765350341797 133.0418701171875 132.2564239501953 116.47560119628906" stroke-width="3.0" fill="none" stroke="rgb(0, 0, 0)" stroke-opacity="1.0" stroke-linecap="round" stroke-linejoin="round"/>
    <path d="M 154.18283081054688 93.13519287109375 C 225.72740173339844 116.34835052490234 191.6420135498047 137.00750732421875 217.47825622558594 142.7083740234375" stroke-width="3.0" fill="none" stroke="rgb(0, 0, 0)" stroke-opacity="1.0" stroke-linecap="round" stroke-linejoin="round"/>
    <path d="M 53.40727615356445 90.47219848632812 C 46.30989456176758 125.2854232788086 66.81784057617188 98.523193359375 39.51251220703125 135.44700622558594" stroke-width="3.0" fill="none" stroke="rgb(0, 0, 0)" stroke-opacity="1.0" stroke-linecap="round" stroke-linejoin="round"/>
    <path d="M 130.54342651367188 89.39092254638672 C 159.282958984375 89.08233642578125 143.9201202392578 88.9447250366211 162.6125946044922 96.06897735595703" stroke-width="3.0" fill="none" stroke="rgb(0, 0, 0)" stroke-opacity="1.0" stroke-linecap="round" stroke-linejoin="round"/>
    <path d="M 140.2140655517578 111.98763275146484 C 130.09027099609375 123.60606384277344 120.9405288696289 116.77473449707031 120.68065643310547 118.94398498535156" stroke-width="3.0" fill="none" stroke="rgb(0, 0, 0)" stroke-opacity="1.0" stroke-linecap="round" stroke-linejoin="round"/>
    <path d="M 87.54779052734375 108.03303527832031 C 72.35562896728516 122.64460754394531 75.4168472290039 120.69285583496094 94.24028015136719 122.31986999511719" stroke-width="3.0" fill="none" stroke="rgb(0, 0, 0)" stroke-opacity="1.0" stroke-linecap="round" stroke-linejoin="round"/>
    <path d="M 130.9388427734375 135.0091094970703 C 136.39517211914062 165.86187744140625 146.70774841308594 152.6873779296875 99.3855972290039 183.08383178710938" stroke-width="3.0" fill="none" stroke="rgb(0, 0, 0)" stroke-opacity="1.0" stroke-linecap="round" stroke-linejoin="round"/>
    <path d="M 50.806114196777344 128.2677459716797 C 12.644582748413086 167.92112731933594 56.329654693603516 143.9265899658203 17.24235725402832 168.83560180664062" stroke-width="3.0" fill="none" stroke="rgb(0, 0, 0)" stroke-opacity="1.0" stroke-linecap="round" stroke-linejoin="round"/>
    <path d="M 80.55482482910156 66.2242660522461 C 98.9782943725586 90.6478042602539 103.38446044921875 90.10638427734375 140.8562774658203 89.19105529785156" stroke-width="3.0" fill="none" stroke="rgb(0, 0, 0)" stroke-opacity="1.0" stroke-linecap="round" stroke-linejoin="round"/>
    <path d="M 122.29156494140625 128.56259155273438 C 131.3881378173828 135.0463409423828 143.44454956054688 134.12619018554688 168.47378540039062 128.51446533203125" stroke-width="3.0" fill="none" stroke="rgb(0, 0, 0)" stroke-opacity="1.0" stroke-linecap="round" stroke-linejoin="round"/>
    <path d="M 64.03491973876953 132.8860626220703 C 89.7671890258789 119.46573638916016 63.09214782714844 113.41558837890625 85.86722564697266 115.5419921875" stroke-width="3.0" fill="none" stroke="rgb(0, 0, 0)" stroke-opacity="1.0" stroke-linecap="round" stroke-linejoin="round"/>
    <path d="M 146.3515167236328 111.1862564086914 C 137.4680938720703 114.29292297363281 139.38323974609375 116.75789642333984 131.6908416748047 118.15409088134766" stroke-width="3.0" fill="none" stroke="rgb(0, 0, 0)" stroke-opacity="1.0" stroke-linecap="round" stroke-linejoin="round"/>
    <path d="M 154.55429077148438 135.92990112304688 C 189.05615234375 165.26083374023438 141.28944396972656 196.63223266601562 164.33998107910156 190.5845489501953" stroke-width="3.0" fill="none" stroke="rgb(0, 0, 0)" stroke-opacity="1.0" stroke-linecap="round" stroke-linejoin="round"/>
    <path d="M 20.209819793701172 63.15309143066406 C 51.70021438598633 11.643465995788574 48.775203704833984 58.891170501708984 70.44213104248047 35.06155014038086" stroke-width="3.0" fill="none" stroke="rgb(0, 0, 0)" stroke-opacity="1.0" stroke-linecap="round" stroke-linejoin="round"/>
    <path d="M 86.47146606445312 66.4740982055664 C 68.11572265625 38.42703628540039 52.58770751953125 48.788150787353516 77.5726318359375 47.0085334777832" stroke-width="3.0" fill="none" stroke="rgb(0, 0, 0)" stroke-opacity="1.0" stroke-linecap="round" stroke-linejoin="round"/>
  </g>
</svg>
