<?xml version="1.0" ?>
<svg xmlns="http://www.w3.org/2000/svg" version="1.1" width="224" height="224">
  <defs/>
  <g>
    <path d="M 78.94393920898438 109.69558715820312 C 87.5523681640625 131.3137969970703 80.51898193359375 120.01978302001953 76.9538803100586 121.19967651367188" stroke-width="3.0" fill="none" stroke="rgb(0, 0, 0)" stroke-opacity="1.0" stroke-linecap="round" stroke-linejoin="round"/>
    <path d="M 73.84860229492188 123.76287841796875 C 107.88603210449219 137.18931579589844 110.66195678710938 128.30389404296875 137.97381591796875 127.61701202392578" stroke-width="3.0" fill="none" stroke="rgb(0, 0, 0)" stroke-opacity="1.0" stroke-linecap="round" stroke-linejoin="round"/>
    <path d="M 168.31153869628906 99.91654968261719 C 216.9974822998047 118.27545928955078 193.05889892578125 134.23121643066406 217.14767456054688 142.7394256591797" stroke-width="3.0" fill="none" stroke="rgb(0, 0, 0)" stroke-opacity="1.0" stroke-linecap="round" stroke-linejoin="round"/>
    <path d="M 47.145389556884766 60.312095642089844 C 59.639320373535156 148.05453491210938 65.35604095458984 63.764869689941406 41.12953567504883 148.94586181640625" stroke-width="3.0" fill="none" stroke="rgb(0, 0, 0)" stroke-opacity="1.0" stroke-linecap="round" stroke-linejoin="round"/>
    <path d="M 102.997802734375 86.28196716308594 C 135.0042266845703 97.50653076171875 145.37008666992188 77.16104888916016 177.2334747314453 107.19429016113281" stroke-width="3.0" fill="none" stroke="rgb(0, 0, 0)" stroke-opacity="1.0" stroke-linecap="round" stroke-linejoin="round"/>
    <path d="M 129.77317810058594 126.39781951904297 C 139.6616973876953 127.7429428100586 144.6734161376953 123.30177307128906 124.183837890625 126.70565032958984" stroke-width="3.0" fill="none" stroke="rgb(0, 0, 0)" stroke-opacity="1.0" stroke-linecap="round" stroke-linejoin="round"/>
    <path d="M 74.2350082397461 121.07273864746094 C 96.49505615234375 106.33497619628906 62.95845413208008 133.32749938964844 82.4802017211914 121.68702697753906" stroke-width="3.0" fill="none" stroke="rgb(0, 0, 0)" stroke-opacity="1.0" stroke-linecap="round" stroke-linejoin="round"/>
    <path d="M 138.08041381835938 131.25662231445312 C 118.68012237548828 174.1791534423828 142.80087280273438 157.45443725585938 98.0748291015625 184.7245635986328" stroke-width="3.0" fill="none" stroke="rgb(0, 0, 0)" stroke-opacity="1.0" stroke-linecap="round" stroke-linejoin="round"/>
    <path d="M 53.2310905456543 120.47565460205078 C -6.320410251617432 187.69139099121094 71.74177551269531 136.2320556640625 16.11334991455078 171.27052307128906" stroke-width="3.0" fill="none" stroke="rgb(0, 0, 0)" stroke-opacity="1.0" stroke-linecap="round" stroke-linejoin="round"/>
    <path d="M 35.53841018676758 35.685935974121094 C 109.70244598388672 71.8029556274414 50.37588882446289 66.68199157714844 110.91035461425781 88.54915618896484" stroke-width="3.0" fill="none" stroke="rgb(0, 0, 0)" stroke-opacity="1.0" stroke-linecap="round" stroke-linejoin="round"/>
    <path d="M 132.5582733154297 163.20587158203125 C 155.62100219726562 115.83116912841797 145.9810791015625 157.09877014160156 181.93719482421875 107.2813491821289" stroke-width="3.0" fill="none" stroke="rgb(0, 0, 0)" stroke-opacity="1.0" stroke-linecap="round" stroke-linejoin="round"/>
    <path d="M 34.32952117919922 152.6987762451172 C 62.06053924560547 114.17247772216797 53.56591033935547 139.92474365234375 79.38285827636719 115.97348022460938" stroke-width="3.0" fill="none" stroke="rgb(0, 0, 0)" stroke-opacity="1.0" stroke-linecap="round" stroke-linejoin="round"/>
    <path d="M 158.5142059326172 117.30712890625 C 131.97393798828125 130.71298217773438 157.0370330810547 115.3393325805664 111.01842498779297 129.48455810546875" stroke-width="3.0" fill="none" stroke="rgb(0, 0, 0)" stroke-opacity="1.0" stroke-linecap="round" stroke-linejoin="round"/>
    <path d="M 173.58926391601562 109.30883026123047 C 165.05995178222656 230.84716796875 135.15219116210938 181.0231170654297 162.39830017089844 188.35548400878906" stroke-width="3.0" fill="none" stroke="rgb(0, 0, 0)" stroke-opacity="1.0" stroke-linecap="round" stroke-linejoin="round"/>
    <path d="M 13.008138656616211 77.07997131347656 C 63.067481994628906 13.712092399597168 -12.722981452941895 84.70040893554688 50.303794860839844 33.58917999267578" stroke-width="3.0" fill="none" stroke="rgb(0, 0, 0)" stroke-opacity="1.0" stroke-linecap="round" stroke-linejoin="round"/>
    <path d="M 93.96483612060547 76.15150451660156 C 76.64018249511719 20.954662322998047 -24.11285972595215 38.002525329589844 82.43610382080078 51.025856018066406" stroke-width="3.0" fill="none" stroke="rgb(0, 0, 0)" stroke-opacity="1.0" stroke-linecap="round" stroke-linejoin="round"/>
  </g>
</svg>
