<?xml version="1.0" ?>
<svg xmlns="http://www.w3.org/2000/svg" version="1.1" width="224" height="224">
  <defs/>
  <g>
    <path d="M 78.17408752441406 110.99708557128906 C 70.62068176269531 130.509765625 76.64664459228516 118.19403076171875 71.97241973876953 121.83425903320312" stroke-width="3.0" fill="none" stroke="rgb(0, 0, 0)" stroke-opacity="1.0" stroke-linecap="round" stroke-linejoin="round"/>
    <path d="M 72.2669906616211 123.8270263671875 C 108.6322021484375 140.32290649414062 123.84140014648438 130.33128356933594 137.0596160888672 128.5900115966797" stroke-width="3.0" fill="none" stroke="rgb(0, 0, 0)" stroke-opacity="1.0" stroke-linecap="round" stroke-linejoin="round"/>
    <path d="M 171.96044921875 103.59615325927734 C 214.88067626953125 118.2858657836914 194.08755493164062 138.18716430664062 217.67138671875 141.95494079589844" stroke-width="3.0" fill="none" stroke="rgb(0, 0, 0)" stroke-opacity="1.0" stroke-linecap="round" stroke-linejoin="round"/>
    <path d="M 46.96428298950195 67.34557342529297 C 71.0688247680664 151.6110076904297 41.73482894897461 97.32539367675781 36.25498962402344 147.68309020996094" stroke-width="3.0" fill="none" stroke="rgb(0, 0, 0)" stroke-opacity="1.0" stroke-linecap="round" stroke-linejoin="round"/>
    <path d="M 109.93672180175781 86.31549072265625 C 145.9388885498047 92.42131805419922 144.98146057128906 81.14404296875 182.31338500976562 110.91121673583984" stroke-width="3.0" fill="none" stroke="rgb(0, 0, 0)" stroke-opacity="1.0" stroke-linecap="round" stroke-linejoin="round"/>
    <path d="M 136.81900024414062 129.1803741455078 C 137.1973876953125 126.6687240600586 152.99192810058594 120.27249908447266 117.49897003173828 127.18528747558594" stroke-width="3.0" fill="none" stroke="rgb(0, 0, 0)" stroke-opacity="1.0" stroke-linecap="round" stroke-linejoin="round"/>
    <path d="M 67.46739196777344 125.29983520507812 C 89.68379211425781 103.95509338378906 62.8206672668457 133.39205932617188 77.08229064941406 113.74576568603516" stroke-width="3.0" fill="none" stroke="rgb(0, 0, 0)" stroke-opacity="1.0" stroke-linecap="round" stroke-linejoin="round"/>
    <path d="M 138.93267822265625 131.8905029296875 C 122.25987243652344 174.00526428222656 139.82009887695312 157.26736450195312 98.72119903564453 183.99716186523438" stroke-width="3.0" fill="none" stroke="rgb(0, 0, 0)" stroke-opacity="1.0" stroke-linecap="round" stroke-linejoin="round"/>
    <path d="M 45.27354431152344 133.2100830078125 C -12.751859664916992 214.7881622314453 68.68331146240234 127.85553741455078 16.23876190185547 169.40618896484375" stroke-width="3.0" fill="none" stroke="rgb(0, 0, 0)" stroke-opacity="1.0" stroke-linecap="round" stroke-linejoin="round"/>
    <path d="M 33.38754653930664 36.17613220214844 C 104.70024108886719 70.87239074707031 54.69508743286133 59.79426574707031 106.84873962402344 85.50405883789062" stroke-width="3.0" fill="none" stroke="rgb(0, 0, 0)" stroke-opacity="1.0" stroke-linecap="round" stroke-linejoin="round"/>
    <path d="M 130.81695556640625 163.73951721191406 C 151.88388061523438 115.99958801269531 148.44195556640625 157.48826599121094 178.94210815429688 108.56607055664062" stroke-width="3.0" fill="none" stroke="rgb(0, 0, 0)" stroke-opacity="1.0" stroke-linecap="round" stroke-linejoin="round"/>
    <path d="M 39.04155731201172 160.14089965820312 C 61.58961868286133 113.78305053710938 46.890586853027344 147.3717498779297 80.8357925415039 110.75067901611328" stroke-width="3.0" fill="none" stroke="rgb(0, 0, 0)" stroke-opacity="1.0" stroke-linecap="round" stroke-linejoin="round"/>
    <path d="M 158.81153869628906 117.9726333618164 C 138.20669555664062 130.24322509765625 164.7576904296875 116.83021545410156 103.73193359375 131.45980834960938" stroke-width="3.0" fill="none" stroke="rgb(0, 0, 0)" stroke-opacity="1.0" stroke-linecap="round" stroke-linejoin="round"/>
    <path d="M 174.7023162841797 109.64056396484375 C 164.61248779296875 230.00909423828125 137.65472412109375 180.54786682128906 160.16697692871094 190.42672729492188" stroke-width="3.0" fill="none" stroke="rgb(0, 0, 0)" stroke-opacity="1.0" stroke-linecap="round" stroke-linejoin="round"/>
    <path d="M 12.857444763183594 76.17383575439453 C 69.71172332763672 6.970538139343262 -16.304731369018555 82.677490234375 54.81637191772461 35.22085189819336" stroke-width="3.0" fill="none" stroke="rgb(0, 0, 0)" stroke-opacity="1.0" stroke-linecap="round" stroke-linejoin="round"/>
    <path d="M 95.38866424560547 74.1670150756836 C 83.2440185546875 18.708528518676758 -28.96015167236328 42.19731903076172 82.45124053955078 47.87632369995117" stroke-width="3.0" fill="none" stroke="rgb(0, 0, 0)" stroke-opacity="1.0" stroke-linecap="round" stroke-linejoin="round"/>
  </g>
</svg>
