<?xml version="1.0" ?>
<svg xmlns="http://www.w3.org/2000/svg" version="1.1" width="224" height="224">
  <defs/>
  <g>
    <path d="M 107.9458236694336 117.01944732666016 C 111.7770004272461 119.65336608886719 102.65940856933594 119.87446594238281 94.57659149169922 111.15779876708984" stroke-width="3.0" fill="none" stroke="rgb(0, 0, 0)" stroke-opacity="1.0" stroke-linecap="round" stroke-linejoin="round"/>
    <path d="M 91.32833099365234 128.23782348632812 C 106.03694915771484 124.60206604003906 110.4975357055664 138.81655883789062 134.03195190429688 116.79610443115234" stroke-width="3.0" fill="none" stroke="rgb(0, 0, 0)" stroke-opacity="1.0" stroke-linecap="round" stroke-linejoin="round"/>
    <path d="M 156.6647491455078 94.01333618164062 C 220.68441772460938 112.13345336914062 191.27410888671875 134.96888732910156 213.80844116210938 141.8680419921875" stroke-width="3.0" fill="none" stroke="rgb(0, 0, 0)" stroke-opacity="1.0" stroke-linecap="round" stroke-linejoin="round"/>
    <path d="M 46.50893020629883 93.97850036621094 C 49.64793014526367 123.76426696777344 68.24497985839844 112.159423828125 59.06083297729492 132.3444061279297" stroke-width="3.0" fill="none" stroke="rgb(0, 0, 0)" stroke-opacity="1.0" stroke-linecap="round" stroke-linejoin="round"/>
    <path d="M 139.9288330078125 88.22907257080078 C 158.368896484375 92.66098022460938 144.2003173828125 86.53360748291016 161.5967559814453 94.5229721069336" stroke-width="3.0" fill="none" stroke="rgb(0, 0, 0)" stroke-opacity="1.0" stroke-linecap="round" stroke-linejoin="round"/>
    <path d="M 139.0601043701172 105.4753189086914 C 124.54061889648438 123.88859558105469 111.20410919189453 118.76994323730469 123.33871459960938 117.99339294433594" stroke-width="3.0" fill="none" stroke="rgb(0, 0, 0)" stroke-opacity="1.0" stroke-linecap="round" stroke-linejoin="round"/>
    <path d="M 98.06322479248047 110.64276885986328 C 85.51361083984375 118.58784484863281 85.12318420410156 117.60601806640625 84.48871612548828 121.45320892333984" stroke-width="3.0" fill="none" stroke="rgb(0, 0, 0)" stroke-opacity="1.0" stroke-linecap="round" stroke-linejoin="round"/>
    <path d="M 127.2878189086914 135.37127685546875 C 132.8059539794922 168.37789916992188 136.72201538085938 154.47935485839844 98.73661804199219 185.53797912597656" stroke-width="3.0" fill="none" stroke="rgb(0, 0, 0)" stroke-opacity="1.0" stroke-linecap="round" stroke-linejoin="round"/>
    <path d="M 45.32392883300781 150.92283630371094 C 26.804399490356445 169.54701232910156 58.6779670715332 140.97225952148438 14.299247741699219 168.48106384277344" stroke-width="3.0" fill="none" stroke="rgb(0, 0, 0)" stroke-opacity="1.0" stroke-linecap="round" stroke-linejoin="round"/>
    <path d="M 87.13136291503906 63.66993713378906 C 107.5193862915039 83.1923828125 110.59977722167969 85.6665267944336 127.7663803100586 90.01502227783203" stroke-width="3.0" fill="none" stroke="rgb(0, 0, 0)" stroke-opacity="1.0" stroke-linecap="round" stroke-linejoin="round"/>
    <path d="M 130.00868225097656 135.7516632080078 C 128.0608367919922 136.79257202148438 148.81336975097656 136.67042541503906 166.0953826904297 127.30020141601562" stroke-width="3.0" fill="none" stroke="rgb(0, 0, 0)" stroke-opacity="1.0" stroke-linecap="round" stroke-linejoin="round"/>
    <path d="M 68.57317352294922 134.3966064453125 C 84.26268768310547 110.14484405517578 71.74345397949219 117.23387908935547 95.53213500976562 111.9756088256836" stroke-width="3.0" fill="none" stroke="rgb(0, 0, 0)" stroke-opacity="1.0" stroke-linecap="round" stroke-linejoin="round"/>
    <path d="M 141.2035369873047 98.01788330078125 C 137.38961791992188 110.7225112915039 135.76124572753906 106.4628677368164 133.25057983398438 116.49614715576172" stroke-width="3.0" fill="none" stroke="rgb(0, 0, 0)" stroke-opacity="1.0" stroke-linecap="round" stroke-linejoin="round"/>
    <path d="M 153.5441131591797 136.16143798828125 C 183.7633819580078 161.3277587890625 142.9877166748047 194.1846160888672 163.59866333007812 191.64622497558594" stroke-width="3.0" fill="none" stroke="rgb(0, 0, 0)" stroke-opacity="1.0" stroke-linecap="round" stroke-linejoin="round"/>
    <path d="M 22.76591682434082 49.73149490356445 C 58.97947311401367 22.65447425842285 46.62849426269531 60.67922592163086 73.64833068847656 38.30940628051758" stroke-width="3.0" fill="none" stroke="rgb(0, 0, 0)" stroke-opacity="1.0" stroke-linecap="round" stroke-linejoin="round"/>
    <path d="M 93.9522476196289 64.9034423828125 C 68.9299545288086 47.68803405761719 47.40754318237305 61.086002349853516 72.10110473632812 47.70938491821289" stroke-width="3.0" fill="none" stroke="rgb(0, 0, 0)" stroke-opacity="1.0" stroke-linecap="round" stroke-linejoin="round"/>
  </g>
</svg>
