<?xml version="1.0" ?>
<svg xmlns="http://www.w3.org/2000/svg" version="1.1" width="224" height="224">
  <defs/>
  <g>
    <path d="M 78.41625213623047 110.0283432006836 C 91.6114273071289 132.6503448486328 80.01038360595703 122.31417846679688 77.29102325439453 120.76387023925781" stroke-width="3.0" fill="none" stroke="rgb(0, 0, 0)" stroke-opacity="1.0" stroke-linecap="round" stroke-linejoin="round"/>
    <path d="M 73.58011627197266 122.74588012695312 C 114.86727905273438 132.43765258789062 111.10147857666016 126.18980407714844 135.0811767578125 125.32942199707031" stroke-width="3.0" fill="none" stroke="rgb(0, 0, 0)" stroke-opacity="1.0" stroke-linecap="round" stroke-linejoin="round"/>
    <path d="M 164.10060119628906 96.11571502685547 C 223.41470336914062 121.8973159790039 191.90850830078125 133.53370666503906 216.39756774902344 144.4966583251953" stroke-width="3.0" fill="none" stroke="rgb(0, 0, 0)" stroke-opacity="1.0" stroke-linecap="round" stroke-linejoin="round"/>
    <path d="M 47.21251678466797 70.15753936767578 C 48.50053024291992 151.88986206054688 72.72091674804688 74.89956665039062 35.27651596069336 157.8013153076172" stroke-width="3.0" fill="none" stroke="rgb(0, 0, 0)" stroke-opacity="1.0" stroke-linecap="round" stroke-linejoin="round"/>
    <path d="M 115.8858871459961 87.02268981933594 C 137.0205841064453 89.9417724609375 153.6371307373047 80.9814453125 169.91357421875 103.92071533203125" stroke-width="3.0" fill="none" stroke="rgb(0, 0, 0)" stroke-opacity="1.0" stroke-linecap="round" stroke-linejoin="round"/>
    <path d="M 134.59912109375 123.01011657714844 C 132.94635009765625 126.02483367919922 141.7255096435547 128.19448852539062 135.3177032470703 124.44437408447266" stroke-width="3.0" fill="none" stroke="rgb(0, 0, 0)" stroke-opacity="1.0" stroke-linecap="round" stroke-linejoin="round"/>
    <path d="M 77.18177795410156 122.64234161376953 C 89.8343505859375 105.15255737304688 62.11626052856445 130.91566467285156 81.52803039550781 121.0416030883789" stroke-width="3.0" fill="none" stroke="rgb(0, 0, 0)" stroke-opacity="1.0" stroke-linecap="round" stroke-linejoin="round"/>
    <path d="M 141.30999755859375 127.79377746582031 C 120.8344497680664 177.71803283691406 142.24830627441406 155.657470703125 98.920166015625 185.21572875976562" stroke-width="3.0" fill="none" stroke="rgb(0, 0, 0)" stroke-opacity="1.0" stroke-linecap="round" stroke-linejoin="round"/>
    <path d="M 56.66737747192383 126.06779479980469 C -11.083706855773926 182.8219757080078 59.7175407409668 147.0604705810547 15.596444129943848 169.0674285888672" stroke-width="3.0" fill="none" stroke="rgb(0, 0, 0)" stroke-opacity="1.0" stroke-linecap="round" stroke-linejoin="round"/>
    <path d="M 34.58242416381836 38.27983093261719 C 126.9001235961914 88.26388549804688 53.678741455078125 72.92288970947266 113.852294921875 87.1418685913086" stroke-width="3.0" fill="none" stroke="rgb(0, 0, 0)" stroke-opacity="1.0" stroke-linecap="round" stroke-linejoin="round"/>
    <path d="M 131.82046508789062 162.43890380859375 C 155.3097381591797 112.42115020751953 146.31443786621094 153.17584228515625 178.86769104003906 108.12806701660156" stroke-width="3.0" fill="none" stroke="rgb(0, 0, 0)" stroke-opacity="1.0" stroke-linecap="round" stroke-linejoin="round"/>
    <path d="M 31.441267013549805 153.67759704589844 C 69.59944152832031 113.9597396850586 61.924949645996094 139.67559814453125 71.47109985351562 114.4039535522461" stroke-width="3.0" fill="none" stroke="rgb(0, 0, 0)" stroke-opacity="1.0" stroke-linecap="round" stroke-linejoin="round"/>
    <path d="M 150.2069549560547 119.39148712158203 C 140.98802185058594 128.32606506347656 142.2069854736328 121.94296264648438 129.07485961914062 124.48585510253906" stroke-width="3.0" fill="none" stroke="rgb(0, 0, 0)" stroke-opacity="1.0" stroke-linecap="round" stroke-linejoin="round"/>
    <path d="M 174.05628967285156 108.658935546875 C 167.55897521972656 230.91299438476562 135.71739196777344 182.73193359375 161.17044067382812 190.5300750732422" stroke-width="3.0" fill="none" stroke="rgb(0, 0, 0)" stroke-opacity="1.0" stroke-linecap="round" stroke-linejoin="round"/>
    <path d="M 14.064563751220703 75.60398864746094 C 63.29366683959961 17.286779403686523 -13.184630393981934 80.67147827148438 55.22999954223633 41.66212463378906" stroke-width="3.0" fill="none" stroke="rgb(0, 0, 0)" stroke-opacity="1.0" stroke-linecap="round" stroke-linejoin="round"/>
    <path d="M 87.72260284423828 70.25198364257812 C 52.729454040527344 30.427122116088867 -7.9823150634765625 40.2365837097168 80.22836303710938 56.23991012573242" stroke-width="3.0" fill="none" stroke="rgb(0, 0, 0)" stroke-opacity="1.0" stroke-linecap="round" stroke-linejoin="round"/>
  </g>
</svg>
