<?xml version="1.0" ?>
<svg xmlns="http://www.w3.org/2000/svg" version="1.1" width="224" height="224">
  <defs/>
  <g>
    <path d="M 96.42179870605469 121.16002655029297 C 80.61791229248047 121.2229232788086 91.82233428955078 122.33716583251953 79.21686553955078 118.52657318115234" stroke-width="3.0" fill="none" stroke="rgb(0, 0, 0)" stroke-opacity="1.0" stroke-linecap="round" stroke-linejoin="round"/>
    <path d="M 75.37872314453125 118.73062896728516 C 101.58718872070312 133.9661407470703 110.64690399169922 126.152099609375 136.1449432373047 118.44523620605469" stroke-width="3.0" fill="none" stroke="rgb(0, 0, 0)" stroke-opacity="1.0" stroke-linecap="round" stroke-linejoin="round"/>
    <path d="M 152.1527557373047 92.5031509399414 C 227.19078063964844 118.93798828125 186.40367126464844 133.98008728027344 214.9252471923828 145.78701782226562" stroke-width="3.0" fill="none" stroke="rgb(0, 0, 0)" stroke-opacity="1.0" stroke-linecap="round" stroke-linejoin="round"/>
    <path d="M 47.5960807800293 66.07144927978516 C 30.66888999938965 133.45262145996094 85.29788970947266 114.50192260742188 36.67375564575195 153.1361083984375" stroke-width="3.0" fill="none" stroke="rgb(0, 0, 0)" stroke-opacity="1.0" stroke-linecap="round" stroke-linejoin="round"/>
    <path d="M 134.71263122558594 90.15776824951172 C 152.26400756835938 90.5173568725586 151.31732177734375 89.96187591552734 162.87774658203125 101.2916030883789" stroke-width="3.0" fill="none" stroke="rgb(0, 0, 0)" stroke-opacity="1.0" stroke-linecap="round" stroke-linejoin="round"/>
    <path d="M 134.0218963623047 119.2475357055664 C 129.83567810058594 121.45393371582031 118.61299896240234 123.94009399414062 124.82183074951172 122.24930572509766" stroke-width="3.0" fill="none" stroke="rgb(0, 0, 0)" stroke-opacity="1.0" stroke-linecap="round" stroke-linejoin="round"/>
    <path d="M 79.32579040527344 117.08374786376953 C 72.54275512695312 123.59393310546875 66.43257904052734 112.7533950805664 88.34310913085938 124.73005676269531" stroke-width="3.0" fill="none" stroke="rgb(0, 0, 0)" stroke-opacity="1.0" stroke-linecap="round" stroke-linejoin="round"/>
    <path d="M 141.6175537109375 134.2199249267578 C 124.67507934570312 171.3662109375 142.94273376464844 151.54798889160156 98.92318725585938 185.4107208251953" stroke-width="3.0" fill="none" stroke="rgb(0, 0, 0)" stroke-opacity="1.0" stroke-linecap="round" stroke-linejoin="round"/>
    <path d="M 58.64913558959961 122.23560333251953 C 1.8328840732574463 178.9276123046875 48.74288558959961 155.96107482910156 21.806114196777344 169.5998992919922" stroke-width="3.0" fill="none" stroke="rgb(0, 0, 0)" stroke-opacity="1.0" stroke-linecap="round" stroke-linejoin="round"/>
    <path d="M 74.69512939453125 62.9145393371582 C 90.85159301757812 92.46216583251953 107.26910400390625 81.05439758300781 139.067138671875 92.6556396484375" stroke-width="3.0" fill="none" stroke="rgb(0, 0, 0)" stroke-opacity="1.0" stroke-linecap="round" stroke-linejoin="round"/>
    <path d="M 142.57843017578125 127.72065734863281 C 138.10198974609375 136.61328125 137.96852111816406 137.23751831054688 165.6316375732422 125.73250579833984" stroke-width="3.0" fill="none" stroke="rgb(0, 0, 0)" stroke-opacity="1.0" stroke-linecap="round" stroke-linejoin="round"/>
    <path d="M 60.66352462768555 136.62179565429688 C 86.63180541992188 122.40402221679688 65.29522705078125 122.09058380126953 79.35445404052734 114.60285949707031" stroke-width="3.0" fill="none" stroke="rgb(0, 0, 0)" stroke-opacity="1.0" stroke-linecap="round" stroke-linejoin="round"/>
    <path d="M 141.09121704101562 114.79816436767578 C 133.6475830078125 118.19922637939453 138.6488037109375 124.1788558959961 133.94534301757812 119.42498016357422" stroke-width="3.0" fill="none" stroke="rgb(0, 0, 0)" stroke-opacity="1.0" stroke-linecap="round" stroke-linejoin="round"/>
    <path d="M 155.8463592529297 133.8955841064453 C 184.4058837890625 173.2236785888672 141.6018829345703 195.08035278320312 159.50979614257812 189.7484893798828" stroke-width="3.0" fill="none" stroke="rgb(0, 0, 0)" stroke-opacity="1.0" stroke-linecap="round" stroke-linejoin="round"/>
    <path d="M 17.50715446472168 73.9122085571289 C 50.31197738647461 -0.6822585463523865 35.46533203125 62.02492904663086 67.57849884033203 39.10584259033203" stroke-width="3.0" fill="none" stroke="rgb(0, 0, 0)" stroke-opacity="1.0" stroke-linecap="round" stroke-linejoin="round"/>
    <path d="M 83.0555191040039 66.35945129394531 C 59.21531295776367 41.392704010009766 43.74306869506836 41.32907485961914 76.66179656982422 50.5361328125" stroke-width="3.0" fill="none" stroke="rgb(0, 0, 0)" stroke-opacity="1.0" stroke-linecap="round" stroke-linejoin="round"/>
  </g>
</svg>
