<?xml version="1.0" ?>
<svg xmlns="http://www.w3.org/2000/svg" version="1.1" width="224" height="224">
  <defs/>
  <g>
    <path d="M 106.842041015625 117.94945526123047 C 108.9639892578125 113.9355697631836 102.6867446899414 118.94527435302734 100.89643859863281 109.20488739013672" stroke-width="3.0" fill="none" stroke="rgb(0, 0, 0)" stroke-opacity="1.0" stroke-linecap="round" stroke-linejoin="round"/>
    <path d="M 89.68206787109375 132.86485290527344 C 104.7987060546875 128.87164306640625 101.33030700683594 136.28018188476562 133.8102569580078 113.82349395751953" stroke-width="3.0" fill="none" stroke="rgb(0, 0, 0)" stroke-opacity="1.0" stroke-linecap="round" stroke-linejoin="round"/>
    <path d="M 161.72491455078125 99.23160552978516 C 216.6997833251953 117.15206146240234 188.54495239257812 136.8632354736328 214.17149353027344 142.5237274169922" stroke-width="3.0" fill="none" stroke="rgb(0, 0, 0)" stroke-opacity="1.0" stroke-linecap="round" stroke-linejoin="round"/>
    <path d="M 46.833740234375 93.42193603515625 C 43.58977127075195 123.83145141601562 57.015872955322266 109.1876449584961 54.342926025390625 132.01345825195312" stroke-width="3.0" fill="none" stroke="rgb(0, 0, 0)" stroke-opacity="1.0" stroke-linecap="round" stroke-linejoin="round"/>
    <path d="M 144.5294952392578 90.99530792236328 C 155.64691162109375 95.16687774658203 142.10850524902344 88.21914672851562 155.7424774169922 94.90681457519531" stroke-width="3.0" fill="none" stroke="rgb(0, 0, 0)" stroke-opacity="1.0" stroke-linecap="round" stroke-linejoin="round"/>
    <path d="M 138.5943603515625 105.53064727783203 C 122.55767822265625 120.92638397216797 108.80870056152344 117.61628723144531 124.18580627441406 118.39324188232422" stroke-width="3.0" fill="none" stroke="rgb(0, 0, 0)" stroke-opacity="1.0" stroke-linecap="round" stroke-linejoin="round"/>
    <path d="M 97.83724975585938 110.49341583251953 C 81.33292388916016 112.26244354248047 79.09410858154297 108.70220184326172 77.17938232421875 115.20184326171875" stroke-width="3.0" fill="none" stroke="rgb(0, 0, 0)" stroke-opacity="1.0" stroke-linecap="round" stroke-linejoin="round"/>
    <path d="M 127.77091217041016 136.69334411621094 C 134.30728149414062 167.6206817626953 136.416259765625 157.21380615234375 100.1365966796875 185.9939727783203" stroke-width="3.0" fill="none" stroke="rgb(0, 0, 0)" stroke-opacity="1.0" stroke-linecap="round" stroke-linejoin="round"/>
    <path d="M 47.22825241088867 151.05718994140625 C 29.855663299560547 168.78269958496094 62.949928283691406 141.60858154296875 12.686697959899902 167.71302795410156" stroke-width="3.0" fill="none" stroke="rgb(0, 0, 0)" stroke-opacity="1.0" stroke-linecap="round" stroke-linejoin="round"/>
    <path d="M 91.27249145507812 65.53205108642578 C 104.26404571533203 86.93376922607422 108.06871795654297 85.92868041992188 120.85343933105469 91.99817657470703" stroke-width="3.0" fill="none" stroke="rgb(0, 0, 0)" stroke-opacity="1.0" stroke-linecap="round" stroke-linejoin="round"/>
    <path d="M 127.9535903930664 132.14651489257812 C 126.75574493408203 135.81671142578125 149.9185333251953 137.21835327148438 170.760986328125 127.95854187011719" stroke-width="3.0" fill="none" stroke="rgb(0, 0, 0)" stroke-opacity="1.0" stroke-linecap="round" stroke-linejoin="round"/>
    <path d="M 67.59735870361328 128.72244262695312 C 87.93108367919922 111.18343353271484 76.36026763916016 110.92924499511719 94.77812194824219 112.63529205322266" stroke-width="3.0" fill="none" stroke="rgb(0, 0, 0)" stroke-opacity="1.0" stroke-linecap="round" stroke-linejoin="round"/>
    <path d="M 143.21096801757812 96.64493560791016 C 135.83306884765625 108.20530700683594 136.67457580566406 106.58858489990234 133.40492248535156 116.13323974609375" stroke-width="3.0" fill="none" stroke="rgb(0, 0, 0)" stroke-opacity="1.0" stroke-linecap="round" stroke-linejoin="round"/>
    <path d="M 159.45571899414062 134.69822692871094 C 183.713623046875 162.95404052734375 139.2644500732422 198.05245971679688 162.23365783691406 191.2274627685547" stroke-width="3.0" fill="none" stroke="rgb(0, 0, 0)" stroke-opacity="1.0" stroke-linecap="round" stroke-linejoin="round"/>
    <path d="M 22.552207946777344 49.64641189575195 C 63.7532958984375 29.760623931884766 50.96793746948242 62.24625778198242 71.88057708740234 37.69906234741211" stroke-width="3.0" fill="none" stroke="rgb(0, 0, 0)" stroke-opacity="1.0" stroke-linecap="round" stroke-linejoin="round"/>
    <path d="M 96.2861328125 67.60364532470703 C 74.85537719726562 49.77886962890625 51.06790542602539 62.380332946777344 74.50736999511719 43.931602478027344" stroke-width="3.0" fill="none" stroke="rgb(0, 0, 0)" stroke-opacity="1.0" stroke-linecap="round" stroke-linejoin="round"/>
  </g>
</svg>
