<?xml version="1.0" ?>
<svg xmlns="http://www.w3.org/2000/svg" version="1.1" width="224" height="224">
  <defs/>
  <g>
    <path d="M 79.9029769897461 105.83218383789062 C 88.25328826904297 131.36244201660156 79.73424530029297 116.30863952636719 77.31523132324219 122.32251739501953" stroke-width="3.0" fill="none" stroke="rgb(0, 0, 0)" stroke-opacity="1.0" stroke-linecap="round" stroke-linejoin="round"/>
    <path d="M 74.89546966552734 122.28760528564453 C 111.00092315673828 137.4167938232422 112.72750091552734 126.85389709472656 134.7194061279297 128.23062133789062" stroke-width="3.0" fill="none" stroke="rgb(0, 0, 0)" stroke-opacity="1.0" stroke-linecap="round" stroke-linejoin="round"/>
    <path d="M 167.5428924560547 99.1384048461914 C 217.42828369140625 118.22834014892578 195.8942413330078 134.43284606933594 213.253173828125 141.86041259765625" stroke-width="3.0" fill="none" stroke="rgb(0, 0, 0)" stroke-opacity="1.0" stroke-linecap="round" stroke-linejoin="round"/>
    <path d="M 50.04151153564453 59.80587387084961 C 68.12073516845703 154.158203125 49.99668884277344 88.63758087158203 34.87049865722656 149.66024780273438" stroke-width="3.0" fill="none" stroke="rgb(0, 0, 0)" stroke-opacity="1.0" stroke-linecap="round" stroke-linejoin="round"/>
    <path d="M 104.31539154052734 84.36869812011719 C 137.50392150878906 92.61648559570312 142.71046447753906 76.17855834960938 179.0072479248047 105.4543228149414" stroke-width="3.0" fill="none" stroke="rgb(0, 0, 0)" stroke-opacity="1.0" stroke-linecap="round" stroke-linejoin="round"/>
    <path d="M 136.83103942871094 126.14263153076172 C 136.23167419433594 135.7373046875 138.75401306152344 121.30026245117188 125.35318756103516 127.50281524658203" stroke-width="3.0" fill="none" stroke="rgb(0, 0, 0)" stroke-opacity="1.0" stroke-linecap="round" stroke-linejoin="round"/>
    <path d="M 74.37603759765625 126.31616973876953 C 91.1434097290039 105.36595916748047 62.6779670715332 131.79986572265625 80.26161193847656 118.7204818725586" stroke-width="3.0" fill="none" stroke="rgb(0, 0, 0)" stroke-opacity="1.0" stroke-linecap="round" stroke-linejoin="round"/>
    <path d="M 143.1058349609375 129.87258911132812 C 117.55299377441406 174.89340209960938 142.58843994140625 156.7064666748047 97.55766296386719 184.51773071289062" stroke-width="3.0" fill="none" stroke="rgb(0, 0, 0)" stroke-opacity="1.0" stroke-linecap="round" stroke-linejoin="round"/>
    <path d="M 48.036865234375 130.11090087890625 C -13.948371887207031 211.15318298339844 68.56924438476562 131.2991485595703 14.142605781555176 167.23236083984375" stroke-width="3.0" fill="none" stroke="rgb(0, 0, 0)" stroke-opacity="1.0" stroke-linecap="round" stroke-linejoin="round"/>
    <path d="M 33.46092224121094 38.69011688232422 C 104.42506408691406 72.7822265625 55.685062408447266 70.25320434570312 107.65397644042969 87.73831176757812" stroke-width="3.0" fill="none" stroke="rgb(0, 0, 0)" stroke-opacity="1.0" stroke-linecap="round" stroke-linejoin="round"/>
    <path d="M 129.581298828125 162.67457580566406 C 154.97265625 116.34069061279297 149.6748809814453 159.66140747070312 181.13587951660156 106.53386688232422" stroke-width="3.0" fill="none" stroke="rgb(0, 0, 0)" stroke-opacity="1.0" stroke-linecap="round" stroke-linejoin="round"/>
    <path d="M 37.939422607421875 159.2314910888672 C 59.06233596801758 113.49300384521484 48.527584075927734 145.59034729003906 79.13631439208984 115.2340316772461" stroke-width="3.0" fill="none" stroke="rgb(0, 0, 0)" stroke-opacity="1.0" stroke-linecap="round" stroke-linejoin="round"/>
    <path d="M 158.73558044433594 118.80514526367188 C 134.70233154296875 129.1900177001953 158.97129821777344 116.54298400878906 104.51419830322266 130.22422790527344" stroke-width="3.0" fill="none" stroke="rgb(0, 0, 0)" stroke-opacity="1.0" stroke-linecap="round" stroke-linejoin="round"/>
    <path d="M 174.628662109375 107.72612762451172 C 165.11776733398438 228.89913940429688 137.0487823486328 182.0733642578125 161.02749633789062 188.04714965820312" stroke-width="3.0" fill="none" stroke="rgb(0, 0, 0)" stroke-opacity="1.0" stroke-linecap="round" stroke-linejoin="round"/>
    <path d="M 16.086830139160156 76.4370346069336 C 69.24491882324219 10.438467025756836 -8.217172622680664 88.82923126220703 63.19495391845703 39.24471664428711" stroke-width="3.0" fill="none" stroke="rgb(0, 0, 0)" stroke-opacity="1.0" stroke-linecap="round" stroke-linejoin="round"/>
    <path d="M 95.6761474609375 78.7870864868164 C 83.03803253173828 19.948366165161133 -26.473237991333008 44.112159729003906 82.32674407958984 51.04606246948242" stroke-width="3.0" fill="none" stroke="rgb(0, 0, 0)" stroke-opacity="1.0" stroke-linecap="round" stroke-linejoin="round"/>
  </g>
</svg>
