<?xml version="1.0" ?>
<svg xmlns="http://www.w3.org/2000/svg" version="1.1" width="224" height="224">
  <defs/>
  <g>
    <path d="M 80.63570404052734 115.64965057373047 C 89.4862060546875 129.00018310546875 81.64630126953125 120.8606948852539 79.20002746582031 122.20382690429688" stroke-width="3.0" fill="none" stroke="rgb(0, 0, 0)" stroke-opacity="1.0" stroke-linecap="round" stroke-linejoin="round"/>
    <path d="M 74.28739929199219 125.35124969482422 C 117.67759704589844 135.94122314453125 111.56712341308594 126.79930114746094 143.45140075683594 119.10142517089844" stroke-width="3.0" fill="none" stroke="rgb(0, 0, 0)" stroke-opacity="1.0" stroke-linecap="round" stroke-linejoin="round"/>
    <path d="M 158.43138122558594 91.38004302978516 C 223.9162139892578 124.80171203613281 190.0415802001953 130.44720458984375 216.55630493164062 140.37274169921875" stroke-width="3.0" fill="none" stroke="rgb(0, 0, 0)" stroke-opacity="1.0" stroke-linecap="round" stroke-linejoin="round"/>
    <path d="M 58.55527877807617 59.691619873046875 C 39.93806838989258 156.2506561279297 79.88301086425781 78.71156311035156 35.01844787597656 156.32791137695312" stroke-width="3.0" fill="none" stroke="rgb(0, 0, 0)" stroke-opacity="1.0" stroke-linecap="round" stroke-linejoin="round"/>
    <path d="M 123.36772155761719 89.84026336669922 C 139.26788330078125 89.70941925048828 154.1971893310547 79.88883972167969 173.70375061035156 102.88606262207031" stroke-width="3.0" fill="none" stroke="rgb(0, 0, 0)" stroke-opacity="1.0" stroke-linecap="round" stroke-linejoin="round"/>
    <path d="M 155.41954040527344 120.46257019042969 C 134.56829833984375 127.16242980957031 133.32720947265625 126.80043029785156 139.00498962402344 120.41201782226562" stroke-width="3.0" fill="none" stroke="rgb(0, 0, 0)" stroke-opacity="1.0" stroke-linecap="round" stroke-linejoin="round"/>
    <path d="M 74.66242218017578 121.44733428955078 C 95.56008911132812 114.81735229492188 66.02125549316406 132.19854736328125 82.68101501464844 113.47289276123047" stroke-width="3.0" fill="none" stroke="rgb(0, 0, 0)" stroke-opacity="1.0" stroke-linecap="round" stroke-linejoin="round"/>
    <path d="M 139.7797088623047 130.95787048339844 C 123.9066390991211 175.04632568359375 140.91111755371094 156.53590393066406 98.09477996826172 184.9538116455078" stroke-width="3.0" fill="none" stroke="rgb(0, 0, 0)" stroke-opacity="1.0" stroke-linecap="round" stroke-linejoin="round"/>
    <path d="M 57.31231689453125 128.19610595703125 C -5.006378650665283 169.74925231933594 53.630558013916016 150.7206573486328 16.365755081176758 168.48263549804688" stroke-width="3.0" fill="none" stroke="rgb(0, 0, 0)" stroke-opacity="1.0" stroke-linecap="round" stroke-linejoin="round"/>
    <path d="M 46.49840545654297 39.898624420166016 C 122.71102905273438 85.7305908203125 54.45936965942383 77.86396026611328 122.99349212646484 89.42432403564453" stroke-width="3.0" fill="none" stroke="rgb(0, 0, 0)" stroke-opacity="1.0" stroke-linecap="round" stroke-linejoin="round"/>
    <path d="M 134.35777282714844 160.51731872558594 C 149.61766052246094 116.1705551147461 152.1583709716797 152.80258178710938 179.26882934570312 108.86727142333984" stroke-width="3.0" fill="none" stroke="rgb(0, 0, 0)" stroke-opacity="1.0" stroke-linecap="round" stroke-linejoin="round"/>
    <path d="M 32.07145309448242 152.52578735351562 C 77.69135284423828 119.84945678710938 63.969566345214844 145.2800750732422 71.55850219726562 113.02651977539062" stroke-width="3.0" fill="none" stroke="rgb(0, 0, 0)" stroke-opacity="1.0" stroke-linecap="round" stroke-linejoin="round"/>
    <path d="M 149.38674926757812 113.05987548828125 C 133.0424041748047 127.05876922607422 137.96934509277344 125.61414337158203 136.8719482421875 131.49122619628906" stroke-width="3.0" fill="none" stroke="rgb(0, 0, 0)" stroke-opacity="1.0" stroke-linecap="round" stroke-linejoin="round"/>
    <path d="M 172.7316131591797 107.07697296142578 C 169.01953125 215.7686309814453 130.2484130859375 198.1490020751953 161.2297821044922 187.78713989257812" stroke-width="3.0" fill="none" stroke="rgb(0, 0, 0)" stroke-opacity="1.0" stroke-linecap="round" stroke-linejoin="round"/>
    <path d="M 9.757294654846191 71.65626525878906 C 78.02681732177734 12.875846862792969 -17.248329162597656 72.12267303466797 66.31466674804688 43.92151641845703" stroke-width="3.0" fill="none" stroke="rgb(0, 0, 0)" stroke-opacity="1.0" stroke-linecap="round" stroke-linejoin="round"/>
    <path d="M 91.49112701416016 67.51522827148438 C 47.57560729980469 34.23561096191406 -2.204364538192749 33.504539489746094 83.8037109375 54.84613037109375" stroke-width="3.0" fill="none" stroke="rgb(0, 0, 0)" stroke-opacity="1.0" stroke-linecap="round" stroke-linejoin="round"/>
  </g>
</svg>
