<?xml version="1.0" ?>
<svg xmlns="http://www.w3.org/2000/svg" version="1.1" width="224" height="224">
  <defs/>
  <g>
    <path d="M 98.32721710205078 121.48535919189453 C 82.65914154052734 123.19844818115234 95.99855041503906 120.8807144165039 83.89464569091797 118.02952575683594" stroke-width="3.0" fill="none" stroke="rgb(0, 0, 0)" stroke-opacity="1.0" stroke-linecap="round" stroke-linejoin="round"/>
    <path d="M 78.1275863647461 119.79924774169922 C 100.93203735351562 130.22547912597656 114.24696350097656 125.90505981445312 136.57485961914062 118.61407470703125" stroke-width="3.0" fill="none" stroke="rgb(0, 0, 0)" stroke-opacity="1.0" stroke-linecap="round" stroke-linejoin="round"/>
    <path d="M 152.52151489257812 92.97842407226562 C 224.8964080810547 119.5604019165039 184.76702880859375 132.8948516845703 214.94821166992188 144.56103515625" stroke-width="3.0" fill="none" stroke="rgb(0, 0, 0)" stroke-opacity="1.0" stroke-linecap="round" stroke-linejoin="round"/>
    <path d="M 57.09946060180664 72.64508819580078 C 31.132949829101562 133.0557403564453 83.99404907226562 112.1343002319336 38.97428894042969 149.14964294433594" stroke-width="3.0" fill="none" stroke="rgb(0, 0, 0)" stroke-opacity="1.0" stroke-linecap="round" stroke-linejoin="round"/>
    <path d="M 133.25648498535156 90.1160659790039 C 155.3594512939453 90.75945281982422 150.3914337158203 90.58573150634766 163.22872924804688 101.0265121459961" stroke-width="3.0" fill="none" stroke="rgb(0, 0, 0)" stroke-opacity="1.0" stroke-linecap="round" stroke-linejoin="round"/>
    <path d="M 134.454833984375 119.60503387451172 C 130.87225341796875 122.83538055419922 118.96122741699219 122.50955200195312 124.05815887451172 122.30601501464844" stroke-width="3.0" fill="none" stroke="rgb(0, 0, 0)" stroke-opacity="1.0" stroke-linecap="round" stroke-linejoin="round"/>
    <path d="M 76.94881439208984 111.72449493408203 C 68.5653076171875 122.0609359741211 69.406982421875 109.42247772216797 89.45806121826172 122.8922119140625" stroke-width="3.0" fill="none" stroke="rgb(0, 0, 0)" stroke-opacity="1.0" stroke-linecap="round" stroke-linejoin="round"/>
    <path d="M 141.11070251464844 130.72207641601562 C 126.8871078491211 173.4887237548828 144.6204376220703 153.19500732421875 98.04937744140625 184.90435791015625" stroke-width="3.0" fill="none" stroke="rgb(0, 0, 0)" stroke-opacity="1.0" stroke-linecap="round" stroke-linejoin="round"/>
    <path d="M 56.917903900146484 123.91250610351562 C -1.719368577003479 178.7174835205078 43.390296936035156 157.9801483154297 19.86775779724121 168.77880859375" stroke-width="3.0" fill="none" stroke="rgb(0, 0, 0)" stroke-opacity="1.0" stroke-linecap="round" stroke-linejoin="round"/>
    <path d="M 78.048583984375 65.03666687011719 C 93.86185455322266 95.97857666015625 104.703857421875 83.5780258178711 140.49154663085938 91.42583465576172" stroke-width="3.0" fill="none" stroke="rgb(0, 0, 0)" stroke-opacity="1.0" stroke-linecap="round" stroke-linejoin="round"/>
    <path d="M 138.9464111328125 128.81031799316406 C 143.60794067382812 138.42849731445312 141.89559936523438 139.37571716308594 167.0125274658203 128.11328125" stroke-width="3.0" fill="none" stroke="rgb(0, 0, 0)" stroke-opacity="1.0" stroke-linecap="round" stroke-linejoin="round"/>
    <path d="M 63.77653884887695 138.49774169921875 C 90.5657958984375 125.09452819824219 61.73503494262695 123.45149230957031 80.59375762939453 114.84723663330078" stroke-width="3.0" fill="none" stroke="rgb(0, 0, 0)" stroke-opacity="1.0" stroke-linecap="round" stroke-linejoin="round"/>
    <path d="M 140.06459045410156 115.37565612792969 C 132.79666137695312 118.03754425048828 138.55538940429688 124.37962341308594 133.8740234375 119.959228515625" stroke-width="3.0" fill="none" stroke="rgb(0, 0, 0)" stroke-opacity="1.0" stroke-linecap="round" stroke-linejoin="round"/>
    <path d="M 157.58958435058594 137.77809143066406 C 182.96607971191406 170.28860473632812 139.41770935058594 195.98956298828125 160.82676696777344 195.6070556640625" stroke-width="3.0" fill="none" stroke="rgb(0, 0, 0)" stroke-opacity="1.0" stroke-linecap="round" stroke-linejoin="round"/>
    <path d="M 14.561652183532715 75.98197174072266 C 49.05878448486328 0.8619375228881836 38.808006286621094 61.47146224975586 67.52465057373047 39.259944915771484" stroke-width="3.0" fill="none" stroke="rgb(0, 0, 0)" stroke-opacity="1.0" stroke-linecap="round" stroke-linejoin="round"/>
    <path d="M 83.65963745117188 68.06886291503906 C 58.24773025512695 41.490753173828125 45.050201416015625 39.8016357421875 76.76055908203125 49.87910079956055" stroke-width="3.0" fill="none" stroke="rgb(0, 0, 0)" stroke-opacity="1.0" stroke-linecap="round" stroke-linejoin="round"/>
  </g>
</svg>
