<?xml version="1.0" ?>
<svg xmlns="http://www.w3.org/2000/svg" version="1.1" width="224" height="224">
  <defs/>
  <g>
    <path d="M 80.07398986816406 113.32740783691406 C 90.76168823242188 130.01190185546875 80.2252426147461 120.24817657470703 75.99115753173828 121.01277160644531" stroke-width="3.0" fill="none" stroke="rgb(0, 0, 0)" stroke-opacity="1.0" stroke-linecap="round" stroke-linejoin="round"/>
    <path d="M 73.08048248291016 121.75904083251953 C 116.52300262451172 135.68650817871094 108.06607055664062 124.70577239990234 134.86520385742188 127.29986572265625" stroke-width="3.0" fill="none" stroke="rgb(0, 0, 0)" stroke-opacity="1.0" stroke-linecap="round" stroke-linejoin="round"/>
    <path d="M 165.3398895263672 98.11766052246094 C 220.33682250976562 122.60475158691406 190.87945556640625 131.0629119873047 218.5166473388672 144.11431884765625" stroke-width="3.0" fill="none" stroke="rgb(0, 0, 0)" stroke-opacity="1.0" stroke-linecap="round" stroke-linejoin="round"/>
    <path d="M 45.80796813964844 70.20528411865234 C 57.88426208496094 153.0880889892578 67.40387725830078 73.82543182373047 36.2922248840332 158.1172637939453" stroke-width="3.0" fill="none" stroke="rgb(0, 0, 0)" stroke-opacity="1.0" stroke-linecap="round" stroke-linejoin="round"/>
    <path d="M 109.78831481933594 87.2723617553711 C 138.83822631835938 91.09867858886719 149.09512329101562 79.40664672851562 173.47366333007812 107.92991638183594" stroke-width="3.0" fill="none" stroke="rgb(0, 0, 0)" stroke-opacity="1.0" stroke-linecap="round" stroke-linejoin="round"/>
    <path d="M 136.02015686035156 126.77676391601562 C 133.55165100097656 127.23532104492188 139.2022247314453 129.90487670898438 135.66171264648438 125.74222564697266" stroke-width="3.0" fill="none" stroke="rgb(0, 0, 0)" stroke-opacity="1.0" stroke-linecap="round" stroke-linejoin="round"/>
    <path d="M 77.01024627685547 121.76823425292969 C 91.67234802246094 105.07653045654297 59.90421676635742 129.7771759033203 81.52317810058594 119.72015380859375" stroke-width="3.0" fill="none" stroke="rgb(0, 0, 0)" stroke-opacity="1.0" stroke-linecap="round" stroke-linejoin="round"/>
    <path d="M 140.32989501953125 129.5890655517578 C 117.80522918701172 174.4437713623047 143.4771270751953 157.47940063476562 96.62689208984375 184.52720642089844" stroke-width="3.0" fill="none" stroke="rgb(0, 0, 0)" stroke-opacity="1.0" stroke-linecap="round" stroke-linejoin="round"/>
    <path d="M 53.865482330322266 126.18561553955078 C -6.742821216583252 182.60980224609375 67.55323791503906 152.69088745117188 15.608558654785156 168.4897003173828" stroke-width="3.0" fill="none" stroke="rgb(0, 0, 0)" stroke-opacity="1.0" stroke-linecap="round" stroke-linejoin="round"/>
    <path d="M 33.67687225341797 36.26787185668945 C 115.4758071899414 91.17157745361328 37.966270446777344 69.28314971923828 112.47097778320312 87.76458740234375" stroke-width="3.0" fill="none" stroke="rgb(0, 0, 0)" stroke-opacity="1.0" stroke-linecap="round" stroke-linejoin="round"/>
    <path d="M 129.84857177734375 162.44786071777344 C 154.02232360839844 118.11988067626953 144.53904724121094 155.80419921875 181.80308532714844 106.91364288330078" stroke-width="3.0" fill="none" stroke="rgb(0, 0, 0)" stroke-opacity="1.0" stroke-linecap="round" stroke-linejoin="round"/>
    <path d="M 33.7353401184082 153.35952758789062 C 69.80299377441406 115.19718933105469 59.70162582397461 142.45936584472656 70.73282623291016 115.38534545898438" stroke-width="3.0" fill="none" stroke="rgb(0, 0, 0)" stroke-opacity="1.0" stroke-linecap="round" stroke-linejoin="round"/>
    <path d="M 157.98947143554688 117.78802490234375 C 142.81033325195312 128.63629150390625 148.1626434326172 120.64160919189453 127.9111099243164 125.82959747314453" stroke-width="3.0" fill="none" stroke="rgb(0, 0, 0)" stroke-opacity="1.0" stroke-linecap="round" stroke-linejoin="round"/>
    <path d="M 171.67337036132812 113.90852355957031 C 166.6121368408203 223.8690948486328 138.22006225585938 180.4925537109375 160.91468811035156 187.77618408203125" stroke-width="3.0" fill="none" stroke="rgb(0, 0, 0)" stroke-opacity="1.0" stroke-linecap="round" stroke-linejoin="round"/>
    <path d="M 13.913511276245117 75.4080581665039 C 66.4966812133789 14.155008316040039 -10.406451225280762 75.23445892333984 49.314292907714844 39.29582977294922" stroke-width="3.0" fill="none" stroke="rgb(0, 0, 0)" stroke-opacity="1.0" stroke-linecap="round" stroke-linejoin="round"/>
    <path d="M 85.73499298095703 74.95291137695312 C 52.23553466796875 25.74858856201172 -10.683253288269043 39.26045608520508 77.01058197021484 57.10356903076172" stroke-width="3.0" fill="none" stroke="rgb(0, 0, 0)" stroke-opacity="1.0" stroke-linecap="round" stroke-linejoin="round"/>
  </g>
</svg>
