<?xml version="1.0" ?>
<svg xmlns="http://www.w3.org/2000/svg" version="1.1" width="224" height="224">
  <defs/>
  <g>
    <path d="M 79.79425811767578 111.33483123779297 C 89.22238159179688 132.514892578125 84.4129409790039 120.23741912841797 77.2464370727539 125.91378021240234" stroke-width="3.0" fill="none" stroke="rgb(0, 0, 0)" stroke-opacity="1.0" stroke-linecap="round" stroke-linejoin="round"/>
    <path d="M 72.45001983642578 125.15301513671875 C 113.02169036865234 137.0052947998047 112.93561553955078 123.69303894042969 135.33180236816406 128.5846710205078" stroke-width="3.0" fill="none" stroke="rgb(0, 0, 0)" stroke-opacity="1.0" stroke-linecap="round" stroke-linejoin="round"/>
    <path d="M 165.18980407714844 98.18465423583984 C 222.50062561035156 119.0145034790039 193.28001403808594 132.8501434326172 219.3009033203125 145.13453674316406" stroke-width="3.0" fill="none" stroke="rgb(0, 0, 0)" stroke-opacity="1.0" stroke-linecap="round" stroke-linejoin="round"/>
    <path d="M 51.82864761352539 63.74333572387695 C 55.837066650390625 155.22532653808594 69.05148315429688 75.9968032836914 37.37626266479492 155.82125854492188" stroke-width="3.0" fill="none" stroke="rgb(0, 0, 0)" stroke-opacity="1.0" stroke-linecap="round" stroke-linejoin="round"/>
    <path d="M 104.56454467773438 85.61107635498047 C 133.7834014892578 91.37820434570312 152.10043334960938 76.52371978759766 172.8983612060547 105.21401977539062" stroke-width="3.0" fill="none" stroke="rgb(0, 0, 0)" stroke-opacity="1.0" stroke-linecap="round" stroke-linejoin="round"/>
    <path d="M 134.06170654296875 124.85382843017578 C 136.8192901611328 124.95851135253906 138.68328857421875 127.22007751464844 130.353515625 126.03817749023438" stroke-width="3.0" fill="none" stroke="rgb(0, 0, 0)" stroke-opacity="1.0" stroke-linecap="round" stroke-linejoin="round"/>
    <path d="M 78.75230407714844 122.90399169921875 C 89.44767761230469 110.15949249267578 60.54554748535156 135.58302307128906 81.3506851196289 122.35497283935547" stroke-width="3.0" fill="none" stroke="rgb(0, 0, 0)" stroke-opacity="1.0" stroke-linecap="round" stroke-linejoin="round"/>
    <path d="M 139.9046173095703 126.24797821044922 C 122.44114685058594 180.82589721679688 139.88189697265625 154.38970947265625 97.2816162109375 182.68112182617188" stroke-width="3.0" fill="none" stroke="rgb(0, 0, 0)" stroke-opacity="1.0" stroke-linecap="round" stroke-linejoin="round"/>
    <path d="M 55.27094650268555 124.72294616699219 C -11.324482917785645 183.17616271972656 64.44617462158203 145.0547332763672 16.352113723754883 166.16075134277344" stroke-width="3.0" fill="none" stroke="rgb(0, 0, 0)" stroke-opacity="1.0" stroke-linecap="round" stroke-linejoin="round"/>
    <path d="M 39.92839050292969 35.96561050415039 C 113.15596771240234 84.17731475830078 46.829620361328125 67.73147583007812 117.0894546508789 87.41641235351562" stroke-width="3.0" fill="none" stroke="rgb(0, 0, 0)" stroke-opacity="1.0" stroke-linecap="round" stroke-linejoin="round"/>
    <path d="M 134.693359375 159.2596435546875 C 153.07156372070312 115.9931411743164 149.04598999023438 154.02999877929688 178.33908081054688 107.60151672363281" stroke-width="3.0" fill="none" stroke="rgb(0, 0, 0)" stroke-opacity="1.0" stroke-linecap="round" stroke-linejoin="round"/>
    <path d="M 32.79881286621094 155.43136596679688 C 69.04409790039062 114.39568328857422 62.78992462158203 144.2711639404297 70.67828369140625 117.2288818359375" stroke-width="3.0" fill="none" stroke="rgb(0, 0, 0)" stroke-opacity="1.0" stroke-linecap="round" stroke-linejoin="round"/>
    <path d="M 159.60382080078125 118.82231140136719 C 137.01138305664062 131.07730102539062 150.62118530273438 118.67962646484375 123.6579360961914 126.20216369628906" stroke-width="3.0" fill="none" stroke="rgb(0, 0, 0)" stroke-opacity="1.0" stroke-linecap="round" stroke-linejoin="round"/>
    <path d="M 174.2587432861328 111.4172134399414 C 168.92678833007812 224.75572204589844 135.8121795654297 177.88450622558594 161.76815795898438 189.120361328125" stroke-width="3.0" fill="none" stroke="rgb(0, 0, 0)" stroke-opacity="1.0" stroke-linecap="round" stroke-linejoin="round"/>
    <path d="M 13.530255317687988 76.31204223632812 C 60.47099685668945 16.46329689025879 -13.161087989807129 78.12541961669922 53.19340515136719 35.12077331542969" stroke-width="3.0" fill="none" stroke="rgb(0, 0, 0)" stroke-opacity="1.0" stroke-linecap="round" stroke-linejoin="round"/>
    <path d="M 89.99871063232422 73.9486312866211 C 67.95084381103516 21.329753875732422 -9.577214241027832 36.298885345458984 84.31571960449219 57.04294204711914" stroke-width="3.0" fill="none" stroke="rgb(0, 0, 0)" stroke-opacity="1.0" stroke-linecap="round" stroke-linejoin="round"/>
  </g>
</svg>
