<?xml version="1.0" ?>
<svg xmlns="http://www.w3.org/2000/svg" version="1.1" width="224" height="224">
  <defs/>
  <g>
    <path d="M 77.1190185546875 109.48141479492188 C 90.20894622802734 132.4705810546875 83.42377471923828 123.37059020996094 80.21839904785156 124.45323181152344" stroke-width="3.0" fill="none" stroke="rgb(0, 0, 0)" stroke-opacity="1.0" stroke-linecap="round" stroke-linejoin="round"/>
    <path d="M 74.05449676513672 123.66150665283203 C 111.00040435791016 135.34593200683594 111.52579498291016 124.96197509765625 132.7128448486328 128.00546264648438" stroke-width="3.0" fill="none" stroke="rgb(0, 0, 0)" stroke-opacity="1.0" stroke-linecap="round" stroke-linejoin="round"/>
    <path d="M 168.66856384277344 100.56529998779297 C 219.9335174560547 118.93883514404297 192.44126892089844 135.83258056640625 216.41387939453125 142.78182983398438" stroke-width="3.0" fill="none" stroke="rgb(0, 0, 0)" stroke-opacity="1.0" stroke-linecap="round" stroke-linejoin="round"/>
    <path d="M 49.07433319091797 62.317222595214844 C 56.53234100341797 152.84161376953125 69.08753967285156 69.2514419555664 38.6431884765625 155.7617645263672" stroke-width="3.0" fill="none" stroke="rgb(0, 0, 0)" stroke-opacity="1.0" stroke-linecap="round" stroke-linejoin="round"/>
    <path d="M 100.723388671875 84.86946868896484 C 134.68946838378906 93.50379180908203 144.963623046875 75.4238052368164 177.0089569091797 108.18368530273438" stroke-width="3.0" fill="none" stroke="rgb(0, 0, 0)" stroke-opacity="1.0" stroke-linecap="round" stroke-linejoin="round"/>
    <path d="M 130.52963256835938 128.37547302246094 C 141.62393188476562 129.82269287109375 138.7340850830078 122.64436340332031 123.97003936767578 127.63975524902344" stroke-width="3.0" fill="none" stroke="rgb(0, 0, 0)" stroke-opacity="1.0" stroke-linecap="round" stroke-linejoin="round"/>
    <path d="M 78.45333862304688 120.09086608886719 C 92.6193618774414 105.95498657226562 58.69993591308594 130.07447814941406 82.7871322631836 120.43136596679688" stroke-width="3.0" fill="none" stroke="rgb(0, 0, 0)" stroke-opacity="1.0" stroke-linecap="round" stroke-linejoin="round"/>
    <path d="M 141.4428253173828 127.59197235107422 C 118.5544204711914 178.79092407226562 141.29010009765625 155.28770446777344 99.51071166992188 183.63905334472656" stroke-width="3.0" fill="none" stroke="rgb(0, 0, 0)" stroke-opacity="1.0" stroke-linecap="round" stroke-linejoin="round"/>
    <path d="M 56.30073928833008 119.04244995117188 C -7.0188493728637695 185.83229064941406 72.44933319091797 149.77769470214844 15.840486526489258 169.2063446044922" stroke-width="3.0" fill="none" stroke="rgb(0, 0, 0)" stroke-opacity="1.0" stroke-linecap="round" stroke-linejoin="round"/>
    <path d="M 36.237178802490234 35.47431564331055 C 110.98731994628906 76.89678192138672 47.95845413208008 65.67300415039062 110.25895690917969 87.0887451171875" stroke-width="3.0" fill="none" stroke="rgb(0, 0, 0)" stroke-opacity="1.0" stroke-linecap="round" stroke-linejoin="round"/>
    <path d="M 130.87054443359375 162.06813049316406 C 152.4194793701172 114.39623260498047 146.9334259033203 154.02540588378906 183.95802307128906 106.94354248046875" stroke-width="3.0" fill="none" stroke="rgb(0, 0, 0)" stroke-opacity="1.0" stroke-linecap="round" stroke-linejoin="round"/>
    <path d="M 34.496212005615234 153.4499053955078 C 65.11444854736328 115.00891876220703 62.371376037597656 141.04052734375 73.10983276367188 115.67353820800781" stroke-width="3.0" fill="none" stroke="rgb(0, 0, 0)" stroke-opacity="1.0" stroke-linecap="round" stroke-linejoin="round"/>
    <path d="M 153.38851928710938 120.58314514160156 C 136.15280151367188 129.58413696289062 158.2911376953125 116.95146942138672 116.37398529052734 128.50701904296875" stroke-width="3.0" fill="none" stroke="rgb(0, 0, 0)" stroke-opacity="1.0" stroke-linecap="round" stroke-linejoin="round"/>
    <path d="M 173.5310516357422 106.29376220703125 C 165.1012420654297 230.17103576660156 137.61163330078125 179.9305419921875 160.8160858154297 188.11993408203125" stroke-width="3.0" fill="none" stroke="rgb(0, 0, 0)" stroke-opacity="1.0" stroke-linecap="round" stroke-linejoin="round"/>
    <path d="M 13.157343864440918 75.04203033447266 C 61.03205871582031 15.086560249328613 -14.934218406677246 76.69304656982422 56.11248779296875 35.516414642333984" stroke-width="3.0" fill="none" stroke="rgb(0, 0, 0)" stroke-opacity="1.0" stroke-linecap="round" stroke-linejoin="round"/>
    <path d="M 93.64205932617188 74.87495422363281 C 75.12942504882812 25.967710494995117 -17.158632278442383 36.01997375488281 82.34968566894531 53.03276443481445" stroke-width="3.0" fill="none" stroke="rgb(0, 0, 0)" stroke-opacity="1.0" stroke-linecap="round" stroke-linejoin="round"/>
  </g>
</svg>
