<?xml version="1.0" ?>
<svg xmlns="http://www.w3.org/2000/svg" version="1.1" width="224" height="224">
  <defs/>
  <g>
    <path d="M 81.00611877441406 122.70447540283203 C 86.9664535522461 122.6119155883789 81.18101501464844 122.4467544555664 75.8118896484375 118.97944641113281" stroke-width="3.0" fill="none" stroke="rgb(0, 0, 0)" stroke-opacity="1.0" stroke-linecap="round" stroke-linejoin="round"/>
    <path d="M 73.38297271728516 124.36756896972656 C 102.90219116210938 136.99789428710938 120.87371063232422 121.15130615234375 135.9124755859375 124.0850601196289" stroke-width="3.0" fill="none" stroke="rgb(0, 0, 0)" stroke-opacity="1.0" stroke-linecap="round" stroke-linejoin="round"/>
    <path d="M 155.35272216796875 90.9432373046875 C 224.7838592529297 119.95932006835938 185.9297637939453 128.95205688476562 216.2160186767578 142.25271606445312" stroke-width="3.0" fill="none" stroke="rgb(0, 0, 0)" stroke-opacity="1.0" stroke-linecap="round" stroke-linejoin="round"/>
    <path d="M 61.29041290283203 70.3148422241211 C 35.160072326660156 145.61544799804688 82.53868865966797 102.48042297363281 35.14421844482422 157.412841796875" stroke-width="3.0" fill="none" stroke="rgb(0, 0, 0)" stroke-opacity="1.0" stroke-linecap="round" stroke-linejoin="round"/>
    <path d="M 129.1566925048828 89.32965850830078 C 136.13238525390625 91.18136596679688 167.14254760742188 85.43728637695312 176.59307861328125 108.86412048339844" stroke-width="3.0" fill="none" stroke="rgb(0, 0, 0)" stroke-opacity="1.0" stroke-linecap="round" stroke-linejoin="round"/>
    <path d="M 135.9584197998047 120.40834045410156 C 134.11099243164062 119.92596435546875 117.25262451171875 127.03328704833984 123.82415008544922 124.83858489990234" stroke-width="3.0" fill="none" stroke="rgb(0, 0, 0)" stroke-opacity="1.0" stroke-linecap="round" stroke-linejoin="round"/>
    <path d="M 79.17890167236328 124.50276947021484 C 76.78826904296875 118.31712341308594 70.91281127929688 118.85013580322266 78.10819244384766 126.57203674316406" stroke-width="3.0" fill="none" stroke="rgb(0, 0, 0)" stroke-opacity="1.0" stroke-linecap="round" stroke-linejoin="round"/>
    <path d="M 140.19866943359375 131.2349090576172 C 128.24295043945312 165.27207946777344 147.71429443359375 151.21588134765625 97.52739715576172 183.07972717285156" stroke-width="3.0" fill="none" stroke="rgb(0, 0, 0)" stroke-opacity="1.0" stroke-linecap="round" stroke-linejoin="round"/>
    <path d="M 62.36677169799805 121.92305755615234 C 0.43533092737197876 170.16848754882812 46.1260986328125 151.55308532714844 15.703842163085938 168.7611541748047" stroke-width="3.0" fill="none" stroke="rgb(0, 0, 0)" stroke-opacity="1.0" stroke-linecap="round" stroke-linejoin="round"/>
    <path d="M 55.61637496948242 39.7816162109375 C 102.37386322021484 102.64302825927734 96.56475830078125 80.18331909179688 133.7300262451172 90.88539123535156" stroke-width="3.0" fill="none" stroke="rgb(0, 0, 0)" stroke-opacity="1.0" stroke-linecap="round" stroke-linejoin="round"/>
    <path d="M 141.0888671875 144.5457000732422 C 150.8310546875 124.60499572753906 144.87222290039062 140.37599182128906 176.6643829345703 116.91959381103516" stroke-width="3.0" fill="none" stroke="rgb(0, 0, 0)" stroke-opacity="1.0" stroke-linecap="round" stroke-linejoin="round"/>
    <path d="M 35.35969924926758 148.7165069580078 C 77.24507904052734 122.88592529296875 67.92611694335938 140.18026733398438 72.77445220947266 116.45932006835938" stroke-width="3.0" fill="none" stroke="rgb(0, 0, 0)" stroke-opacity="1.0" stroke-linecap="round" stroke-linejoin="round"/>
    <path d="M 140.78562927246094 117.44615936279297 C 131.0521697998047 126.7639389038086 135.5097198486328 121.25202941894531 133.3995819091797 124.02071380615234" stroke-width="3.0" fill="none" stroke="rgb(0, 0, 0)" stroke-opacity="1.0" stroke-linecap="round" stroke-linejoin="round"/>
    <path d="M 170.06915283203125 123.20758819580078 C 186.66893005371094 148.1735382080078 144.1106414794922 201.31729125976562 161.50782775878906 192.24278259277344" stroke-width="3.0" fill="none" stroke="rgb(0, 0, 0)" stroke-opacity="1.0" stroke-linecap="round" stroke-linejoin="round"/>
    <path d="M 12.109580993652344 73.75027465820312 C 77.08992767333984 10.348499298095703 -3.936197519302368 64.63313293457031 68.05352783203125 42.500038146972656" stroke-width="3.0" fill="none" stroke="rgb(0, 0, 0)" stroke-opacity="1.0" stroke-linecap="round" stroke-linejoin="round"/>
    <path d="M 82.06684875488281 65.54225158691406 C 46.26510238647461 41.843177795410156 26.213319778442383 21.873872756958008 78.79954528808594 55.08888244628906" stroke-width="3.0" fill="none" stroke="rgb(0, 0, 0)" stroke-opacity="1.0" stroke-linecap="round" stroke-linejoin="round"/>
  </g>
</svg>
