<?xml version="1.0" ?>
<svg xmlns="http://www.w3.org/2000/svg" version="1.1" width="224" height="224">
  <defs/>
  <g>
    <path d="M 77.01044464111328 113.82752227783203 C 71.65497589111328 132.1905059814453 83.2654800415039 121.66431427001953 73.36791229248047 120.10660552978516" stroke-width="3.0" fill="none" stroke="rgb(0, 0, 0)" stroke-opacity="1.0" stroke-linecap="round" stroke-linejoin="round"/>
    <path d="M 68.70393371582031 126.64506530761719 C 107.42782592773438 139.0707244873047 119.0134048461914 131.858642578125 136.451904296875 132.13873291015625" stroke-width="3.0" fill="none" stroke="rgb(0, 0, 0)" stroke-opacity="1.0" stroke-linecap="round" stroke-linejoin="round"/>
    <path d="M 171.14108276367188 100.19786834716797 C 215.62542724609375 113.61409759521484 194.8549041748047 139.31434631347656 218.3006134033203 143.03871154785156" stroke-width="3.0" fill="none" stroke="rgb(0, 0, 0)" stroke-opacity="1.0" stroke-linecap="round" stroke-linejoin="round"/>
    <path d="M 48.78431701660156 59.860321044921875 C 72.35759735107422 155.12107849121094 42.36653518676758 99.69719696044922 34.53197479248047 148.69749450683594" stroke-width="3.0" fill="none" stroke="rgb(0, 0, 0)" stroke-opacity="1.0" stroke-linecap="round" stroke-linejoin="round"/>
    <path d="M 107.47391510009766 85.62445831298828 C 152.72061157226562 89.34019470214844 144.85501098632812 77.76508331298828 179.035400390625 107.26557159423828" stroke-width="3.0" fill="none" stroke="rgb(0, 0, 0)" stroke-opacity="1.0" stroke-linecap="round" stroke-linejoin="round"/>
    <path d="M 137.82888793945312 127.58506774902344 C 133.9877166748047 129.65443420410156 150.430419921875 125.0303955078125 114.29987335205078 128.42445373535156" stroke-width="3.0" fill="none" stroke="rgb(0, 0, 0)" stroke-opacity="1.0" stroke-linecap="round" stroke-linejoin="round"/>
    <path d="M 71.62418365478516 126.39546966552734 C 92.60337829589844 109.27924346923828 58.43297576904297 130.09530639648438 77.12078094482422 118.16873168945312" stroke-width="3.0" fill="none" stroke="rgb(0, 0, 0)" stroke-opacity="1.0" stroke-linecap="round" stroke-linejoin="round"/>
    <path d="M 138.28709411621094 127.7219467163086 C 124.3828353881836 174.93458557128906 140.7921600341797 160.08523559570312 97.79228210449219 185.67254638671875" stroke-width="3.0" fill="none" stroke="rgb(0, 0, 0)" stroke-opacity="1.0" stroke-linecap="round" stroke-linejoin="round"/>
    <path d="M 44.197505950927734 135.0758056640625 C -13.900531768798828 212.04896545410156 70.1346664428711 128.77745056152344 16.151439666748047 169.25559997558594" stroke-width="3.0" fill="none" stroke="rgb(0, 0, 0)" stroke-opacity="1.0" stroke-linecap="round" stroke-linejoin="round"/>
    <path d="M 33.70979309082031 36.10209655761719 C 102.95622253417969 70.94959259033203 54.89335250854492 63.44988250732422 108.02275848388672 86.4290771484375" stroke-width="3.0" fill="none" stroke="rgb(0, 0, 0)" stroke-opacity="1.0" stroke-linecap="round" stroke-linejoin="round"/>
    <path d="M 134.1710968017578 161.08404541015625 C 150.50711059570312 116.19320678710938 149.398681640625 154.3226776123047 179.87295532226562 111.5715103149414" stroke-width="3.0" fill="none" stroke="rgb(0, 0, 0)" stroke-opacity="1.0" stroke-linecap="round" stroke-linejoin="round"/>
    <path d="M 36.116886138916016 160.92559814453125 C 58.87027359008789 110.70707702636719 51.216670989990234 152.04884338378906 81.47430419921875 108.47062683105469" stroke-width="3.0" fill="none" stroke="rgb(0, 0, 0)" stroke-opacity="1.0" stroke-linecap="round" stroke-linejoin="round"/>
    <path d="M 157.12301635742188 117.24040985107422 C 133.77920532226562 130.37322998046875 163.69577026367188 115.90694427490234 100.95281982421875 131.30165100097656" stroke-width="3.0" fill="none" stroke="rgb(0, 0, 0)" stroke-opacity="1.0" stroke-linecap="round" stroke-linejoin="round"/>
    <path d="M 173.47097778320312 110.20093536376953 C 165.62661743164062 230.29049682617188 134.7664031982422 179.42506408691406 161.26939392089844 189.75831604003906" stroke-width="3.0" fill="none" stroke="rgb(0, 0, 0)" stroke-opacity="1.0" stroke-linecap="round" stroke-linejoin="round"/>
    <path d="M 16.43355941772461 76.97760772705078 C 69.95500946044922 6.430017948150635 -10.669214248657227 86.67074584960938 59.14287567138672 36.99639892578125" stroke-width="3.0" fill="none" stroke="rgb(0, 0, 0)" stroke-opacity="1.0" stroke-linecap="round" stroke-linejoin="round"/>
    <path d="M 94.79520416259766 74.88777923583984 C 80.53263854980469 21.754945755004883 -26.295751571655273 39.226348876953125 82.23136901855469 49.18442153930664" stroke-width="3.0" fill="none" stroke="rgb(0, 0, 0)" stroke-opacity="1.0" stroke-linecap="round" stroke-linejoin="round"/>
  </g>
</svg>
