<?xml version="1.0" ?>
<svg xmlns="http://www.w3.org/2000/svg" version="1.1" width="224" height="224">
  <defs/>
  <g>
    <path d="M 93.86189270019531 121.69950866699219 C 82.37046813964844 122.22185516357422 86.14637756347656 122.17403411865234 77.61935424804688 117.48001098632812" stroke-width="3.0" fill="none" stroke="rgb(0, 0, 0)" stroke-opacity="1.0" stroke-linecap="round" stroke-linejoin="round"/>
    <path d="M 74.16722106933594 119.12983703613281 C 101.6229476928711 134.2518768310547 110.64704132080078 125.39004516601562 135.25881958007812 118.30936431884766" stroke-width="3.0" fill="none" stroke="rgb(0, 0, 0)" stroke-opacity="1.0" stroke-linecap="round" stroke-linejoin="round"/>
    <path d="M 150.463623046875 92.44470977783203 C 227.7677459716797 119.37149047851562 188.41307067871094 132.6852569580078 215.94390869140625 143.6747589111328" stroke-width="3.0" fill="none" stroke="rgb(0, 0, 0)" stroke-opacity="1.0" stroke-linecap="round" stroke-linejoin="round"/>
    <path d="M 48.129276275634766 64.16654968261719 C 41.72505187988281 138.66310119628906 82.03375244140625 111.50968933105469 40.19059753417969 154.876220703125" stroke-width="3.0" fill="none" stroke="rgb(0, 0, 0)" stroke-opacity="1.0" stroke-linecap="round" stroke-linejoin="round"/>
    <path d="M 135.27362060546875 89.71581268310547 C 147.1728973388672 91.21829223632812 153.94100952148438 88.63367462158203 163.5321044921875 100.91294860839844" stroke-width="3.0" fill="none" stroke="rgb(0, 0, 0)" stroke-opacity="1.0" stroke-linecap="round" stroke-linejoin="round"/>
    <path d="M 134.15902709960938 121.56536865234375 C 129.77655029296875 121.50897216796875 118.87161254882812 124.4722900390625 125.1729507446289 122.38520812988281" stroke-width="3.0" fill="none" stroke="rgb(0, 0, 0)" stroke-opacity="1.0" stroke-linecap="round" stroke-linejoin="round"/>
    <path d="M 77.0106201171875 119.28355407714844 C 73.43402099609375 122.48310089111328 61.04899978637695 121.81784057617188 86.79103088378906 124.77189636230469" stroke-width="3.0" fill="none" stroke="rgb(0, 0, 0)" stroke-opacity="1.0" stroke-linecap="round" stroke-linejoin="round"/>
    <path d="M 133.06459045410156 135.80491638183594 C 122.44857788085938 166.5381622314453 143.5496826171875 154.6509552001953 100.19547271728516 182.72265625" stroke-width="3.0" fill="none" stroke="rgb(0, 0, 0)" stroke-opacity="1.0" stroke-linecap="round" stroke-linejoin="round"/>
    <path d="M 57.103275299072266 118.15461730957031 C 0.4896525740623474 183.40286254882812 46.7287712097168 153.83998107910156 17.84701919555664 170.0703125" stroke-width="3.0" fill="none" stroke="rgb(0, 0, 0)" stroke-opacity="1.0" stroke-linecap="round" stroke-linejoin="round"/>
    <path d="M 74.85432434082031 56.31822204589844 C 88.63765716552734 93.85205841064453 106.6390380859375 81.18079376220703 141.21890258789062 92.03275299072266" stroke-width="3.0" fill="none" stroke="rgb(0, 0, 0)" stroke-opacity="1.0" stroke-linecap="round" stroke-linejoin="round"/>
    <path d="M 137.49929809570312 129.14317321777344 C 128.04270935058594 140.21078491210938 126.28002166748047 137.78915405273438 166.10289001464844 123.15361022949219" stroke-width="3.0" fill="none" stroke="rgb(0, 0, 0)" stroke-opacity="1.0" stroke-linecap="round" stroke-linejoin="round"/>
    <path d="M 60.844329833984375 138.0813751220703 C 84.34561157226562 129.39805603027344 63.19859313964844 131.667236328125 76.78057861328125 112.31195068359375" stroke-width="3.0" fill="none" stroke="rgb(0, 0, 0)" stroke-opacity="1.0" stroke-linecap="round" stroke-linejoin="round"/>
    <path d="M 141.04100036621094 113.99195098876953 C 131.9801025390625 119.49317932128906 135.18850708007812 123.7141342163086 133.17645263671875 121.61017608642578" stroke-width="3.0" fill="none" stroke="rgb(0, 0, 0)" stroke-opacity="1.0" stroke-linecap="round" stroke-linejoin="round"/>
    <path d="M 155.04051208496094 132.5884552001953 C 187.4221649169922 173.02015686035156 142.734375 187.6292724609375 162.27993774414062 187.9419708251953" stroke-width="3.0" fill="none" stroke="rgb(0, 0, 0)" stroke-opacity="1.0" stroke-linecap="round" stroke-linejoin="round"/>
    <path d="M 13.674656867980957 78.2200927734375 C 55.08993911743164 -5.674097061157227 32.12950897216797 60.384368896484375 67.43821716308594 37.59081268310547" stroke-width="3.0" fill="none" stroke="rgb(0, 0, 0)" stroke-opacity="1.0" stroke-linecap="round" stroke-linejoin="round"/>
    <path d="M 84.4259262084961 65.68661499023438 C 59.831764221191406 39.271141052246094 41.30369567871094 37.093624114990234 79.28575897216797 51.15428161621094" stroke-width="3.0" fill="none" stroke="rgb(0, 0, 0)" stroke-opacity="1.0" stroke-linecap="round" stroke-linejoin="round"/>
  </g>
</svg>
