<?xml version="1.0" ?>
<svg xmlns="http://www.w3.org/2000/svg" version="1.1" width="224" height="224">
  <defs/>
  <g>
    <path d="M 79.90555572509766 112.27186584472656 C 94.51299285888672 129.80271911621094 84.84893798828125 121.61481475830078 80.60711669921875 117.11820983886719" stroke-width="3.0" fill="none" stroke="rgb(0, 0, 0)" stroke-opacity="1.0" stroke-linecap="round" stroke-linejoin="round"/>
    <path d="M 79.5691146850586 123.25109100341797 C 119.66531372070312 135.41798400878906 114.0597915649414 127.11795043945312 140.5945281982422 122.14216613769531" stroke-width="3.0" fill="none" stroke="rgb(0, 0, 0)" stroke-opacity="1.0" stroke-linecap="round" stroke-linejoin="round"/>
    <path d="M 164.48878479003906 97.63324737548828 C 225.0255889892578 122.67315673828125 191.2167205810547 131.1050567626953 219.59405517578125 144.72305297851562" stroke-width="3.0" fill="none" stroke="rgb(0, 0, 0)" stroke-opacity="1.0" stroke-linecap="round" stroke-linejoin="round"/>
    <path d="M 52.168582916259766 64.52095031738281 C 34.77291488647461 155.7925567626953 73.4809341430664 82.49956512451172 33.84206771850586 158.7805938720703" stroke-width="3.0" fill="none" stroke="rgb(0, 0, 0)" stroke-opacity="1.0" stroke-linecap="round" stroke-linejoin="round"/>
    <path d="M 117.32264709472656 87.81987762451172 C 136.16526794433594 88.43450927734375 152.5095672607422 79.80523681640625 173.4551544189453 106.58157348632812" stroke-width="3.0" fill="none" stroke="rgb(0, 0, 0)" stroke-opacity="1.0" stroke-linecap="round" stroke-linejoin="round"/>
    <path d="M 141.79898071289062 121.09324645996094 C 126.68576049804688 132.3649444580078 119.29891967773438 136.411865234375 137.5059814453125 121.13887023925781" stroke-width="3.0" fill="none" stroke="rgb(0, 0, 0)" stroke-opacity="1.0" stroke-linecap="round" stroke-linejoin="round"/>
    <path d="M 83.11424255371094 123.82625579833984 C 91.60083770751953 110.25682830810547 64.44844818115234 127.62922668457031 83.95073699951172 120.40126037597656" stroke-width="3.0" fill="none" stroke="rgb(0, 0, 0)" stroke-opacity="1.0" stroke-linecap="round" stroke-linejoin="round"/>
    <path d="M 131.6092071533203 131.87559509277344 C 125.01422119140625 171.1302490234375 141.6282196044922 156.02499389648438 100.76065826416016 184.09873962402344" stroke-width="3.0" fill="none" stroke="rgb(0, 0, 0)" stroke-opacity="1.0" stroke-linecap="round" stroke-linejoin="round"/>
    <path d="M 55.11904525756836 127.12560272216797 C -6.391824722290039 179.1689910888672 53.773712158203125 151.59825134277344 16.857683181762695 168.6178436279297" stroke-width="3.0" fill="none" stroke="rgb(0, 0, 0)" stroke-opacity="1.0" stroke-linecap="round" stroke-linejoin="round"/>
    <path d="M 41.4019775390625 39.92401885986328 C 123.31127166748047 87.66847229003906 54.21147918701172 76.28858947753906 127.267578125 88.2879867553711" stroke-width="3.0" fill="none" stroke="rgb(0, 0, 0)" stroke-opacity="1.0" stroke-linecap="round" stroke-linejoin="round"/>
    <path d="M 133.25706481933594 159.24771118164062 C 153.37777709960938 115.62410736083984 151.48240661621094 154.44461059570312 180.1944580078125 109.57776641845703" stroke-width="3.0" fill="none" stroke="rgb(0, 0, 0)" stroke-opacity="1.0" stroke-linecap="round" stroke-linejoin="round"/>
    <path d="M 30.504140853881836 153.78778076171875 C 74.86534881591797 114.85476684570312 65.93048095703125 142.89085388183594 71.68602752685547 114.62964630126953" stroke-width="3.0" fill="none" stroke="rgb(0, 0, 0)" stroke-opacity="1.0" stroke-linecap="round" stroke-linejoin="round"/>
    <path d="M 157.6243896484375 118.37509155273438 C 138.6283416748047 125.57550811767578 135.28158569335938 117.83211517333984 134.1775665283203 127.31755065917969" stroke-width="3.0" fill="none" stroke="rgb(0, 0, 0)" stroke-opacity="1.0" stroke-linecap="round" stroke-linejoin="round"/>
    <path d="M 171.806640625 110.5627212524414 C 170.0487518310547 225.64276123046875 134.2798309326172 186.83853149414062 163.80531311035156 190.39871215820312" stroke-width="3.0" fill="none" stroke="rgb(0, 0, 0)" stroke-opacity="1.0" stroke-linecap="round" stroke-linejoin="round"/>
    <path d="M 11.632624626159668 76.15386199951172 C 69.51551055908203 17.841388702392578 -20.813772201538086 68.74144744873047 68.11476135253906 43.569000244140625" stroke-width="3.0" fill="none" stroke="rgb(0, 0, 0)" stroke-opacity="1.0" stroke-linecap="round" stroke-linejoin="round"/>
    <path d="M 91.0810546875 70.89647674560547 C 46.93036651611328 33.472843170166016 -9.851353645324707 36.37666702270508 85.98133087158203 57.55245590209961" stroke-width="3.0" fill="none" stroke="rgb(0, 0, 0)" stroke-opacity="1.0" stroke-linecap="round" stroke-linejoin="round"/>
  </g>
</svg>
