<?xml version="1.0" ?>
<svg xmlns="http://www.w3.org/2000/svg" version="1.1" width="224" height="224">
  <defs/>
  <g>
    <path d="M 105.91234588623047 107.59774017333984 C 104.03211212158203 108.79000091552734 109.35352325439453 107.41609191894531 101.53072357177734 100.98262786865234" stroke-width="3.0" fill="none" stroke="rgb(0, 0, 0)" stroke-opacity="1.0" stroke-linecap="round" stroke-linejoin="round"/>
    <path d="M 105.81018829345703 136.3042449951172 C 119.17472839355469 123.64994049072266 102.674072265625 132.3654022216797 133.0586395263672 122.05801391601562" stroke-width="3.0" fill="none" stroke="rgb(0, 0, 0)" stroke-opacity="1.0" stroke-linecap="round" stroke-linejoin="round"/>
    <path d="M 180.16580200195312 107.92802429199219 C 192.26258850097656 122.42848205566406 190.89068603515625 108.27442932128906 206.14195251464844 128.6061248779297" stroke-width="3.0" fill="none" stroke="rgb(0, 0, 0)" stroke-opacity="1.0" stroke-linecap="round" stroke-linejoin="round"/>
    <path d="M 42.136959075927734 91.78013610839844 C 46.3311653137207 115.22565460205078 54.675167083740234 109.33832550048828 57.145912170410156 121.7203140258789" stroke-width="3.0" fill="none" stroke="rgb(0, 0, 0)" stroke-opacity="1.0" stroke-linecap="round" stroke-linejoin="round"/>
    <path d="M 147.2435302734375 93.42540740966797 C 143.38807678222656 91.34812927246094 145.31307983398438 89.82023620605469 148.95654296875 97.40165710449219" stroke-width="3.0" fill="none" stroke="rgb(0, 0, 0)" stroke-opacity="1.0" stroke-linecap="round" stroke-linejoin="round"/>
    <path d="M 136.80418395996094 115.3292465209961 C 128.18002319335938 125.04026794433594 114.77345275878906 127.5520248413086 132.0436248779297 123.42912292480469" stroke-width="3.0" fill="none" stroke="rgb(0, 0, 0)" stroke-opacity="1.0" stroke-linecap="round" stroke-linejoin="round"/>
    <path d="M 80.15310668945312 105.71672058105469 C 87.98721313476562 98.84752655029297 89.76654052734375 102.02473449707031 80.74434661865234 105.50017547607422" stroke-width="3.0" fill="none" stroke="rgb(0, 0, 0)" stroke-opacity="1.0" stroke-linecap="round" stroke-linejoin="round"/>
    <path d="M 134.9718780517578 132.90087890625 C 143.61917114257812 146.30148315429688 137.4606475830078 139.34844970703125 128.56980895996094 168.60736083984375" stroke-width="3.0" fill="none" stroke="rgb(0, 0, 0)" stroke-opacity="1.0" stroke-linecap="round" stroke-linejoin="round"/>
    <path d="M 46.45590591430664 157.96473693847656 C 40.9809455871582 167.12539672851562 49.758087158203125 156.51292419433594 25.120561599731445 162.3511505126953" stroke-width="3.0" fill="none" stroke="rgb(0, 0, 0)" stroke-opacity="1.0" stroke-linecap="round" stroke-linejoin="round"/>
    <path d="M 103.01133728027344 84.5794448852539 C 111.29246520996094 87.9379653930664 111.9677505493164 79.4572525024414 115.310302734375 84.73479461669922" stroke-width="3.0" fill="none" stroke="rgb(0, 0, 0)" stroke-opacity="1.0" stroke-linecap="round" stroke-linejoin="round"/>
    <path d="M 140.26768493652344 127.73677062988281 C 140.10052490234375 132.4141387939453 147.7724151611328 135.75494384765625 153.8161163330078 135.07797241210938" stroke-width="3.0" fill="none" stroke="rgb(0, 0, 0)" stroke-opacity="1.0" stroke-linecap="round" stroke-linejoin="round"/>
    <path d="M 77.62445831298828 112.85861206054688 C 80.56182861328125 101.73965454101562 80.14863586425781 97.48738098144531 80.5451431274414 103.20765686035156" stroke-width="3.0" fill="none" stroke="rgb(0, 0, 0)" stroke-opacity="1.0" stroke-linecap="round" stroke-linejoin="round"/>
    <path d="M 134.54759216308594 107.90442657470703 C 134.24139404296875 106.61649322509766 133.76876831054688 103.355224609375 136.02581787109375 110.0990982055664" stroke-width="3.0" fill="none" stroke="rgb(0, 0, 0)" stroke-opacity="1.0" stroke-linecap="round" stroke-linejoin="round"/>
    <path d="M 145.8062744140625 133.60427856445312 C 164.43069458007812 145.3845672607422 157.18276977539062 159.04263305664062 173.9099578857422 173.85678100585938" stroke-width="3.0" fill="none" stroke="rgb(0, 0, 0)" stroke-opacity="1.0" stroke-linecap="round" stroke-linejoin="round"/>
    <path d="M 41.574275970458984 40.9505500793457 C 55.67593002319336 31.05635643005371 74.04560852050781 49.110862731933594 74.52393341064453 41.97452163696289" stroke-width="3.0" fill="none" stroke="rgb(0, 0, 0)" stroke-opacity="1.0" stroke-linecap="round" stroke-linejoin="round"/>
    <path d="M 83.55512237548828 64.7784652709961 C 78.39000701904297 55.48921203613281 78.05534362792969 57.673431396484375 78.48345184326172 57.733280181884766" stroke-width="3.0" fill="none" stroke="rgb(0, 0, 0)" stroke-opacity="1.0" stroke-linecap="round" stroke-linejoin="round"/>
  </g>
</svg>
