<?xml version="1.0" ?>
<svg xmlns="http://www.w3.org/2000/svg" version="1.1" width="224" height="224">
  <defs/>
  <g>
    <path d="M 79.60440826416016 108.10343170166016 C 91.44782257080078 131.48776245117188 84.3882064819336 121.3331069946289 80.9521255493164 120.1839828491211" stroke-width="3.0" fill="none" stroke="rgb(0, 0, 0)" stroke-opacity="1.0" stroke-linecap="round" stroke-linejoin="round"/>
    <path d="M 78.85029602050781 123.2882308959961 C 120.12567138671875 133.1884307861328 120.13075256347656 127.6078109741211 145.36595153808594 114.59050750732422" stroke-width="3.0" fill="none" stroke="rgb(0, 0, 0)" stroke-opacity="1.0" stroke-linecap="round" stroke-linejoin="round"/>
    <path d="M 164.97268676757812 97.31646728515625 C 220.3904571533203 121.36459350585938 192.07257080078125 134.62884521484375 217.1827850341797 141.4635467529297" stroke-width="3.0" fill="none" stroke="rgb(0, 0, 0)" stroke-opacity="1.0" stroke-linecap="round" stroke-linejoin="round"/>
    <path d="M 49.964393615722656 67.12881469726562 C 41.04343795776367 159.910400390625 73.36953735351562 84.6258316040039 34.619441986083984 158.35366821289062" stroke-width="3.0" fill="none" stroke="rgb(0, 0, 0)" stroke-opacity="1.0" stroke-linecap="round" stroke-linejoin="round"/>
    <path d="M 118.53047180175781 88.91997528076172 C 135.42942810058594 91.813720703125 155.756103515625 79.23336791992188 172.48794555664062 105.43465423583984" stroke-width="3.0" fill="none" stroke="rgb(0, 0, 0)" stroke-opacity="1.0" stroke-linecap="round" stroke-linejoin="round"/>
    <path d="M 137.651611328125 122.4725341796875 C 122.6055679321289 124.76246643066406 127.15120697021484 130.4911651611328 136.30661010742188 121.41597747802734" stroke-width="3.0" fill="none" stroke="rgb(0, 0, 0)" stroke-opacity="1.0" stroke-linecap="round" stroke-linejoin="round"/>
    <path d="M 80.83833312988281 122.00077819824219 C 89.63912963867188 107.70488739013672 66.7314224243164 131.71852111816406 85.77802276611328 120.63436889648438" stroke-width="3.0" fill="none" stroke="rgb(0, 0, 0)" stroke-opacity="1.0" stroke-linecap="round" stroke-linejoin="round"/>
    <path d="M 138.4854278564453 126.35719299316406 C 124.00061798095703 171.66539001464844 142.73318481445312 156.92764282226562 97.97694396972656 183.83023071289062" stroke-width="3.0" fill="none" stroke="rgb(0, 0, 0)" stroke-opacity="1.0" stroke-linecap="round" stroke-linejoin="round"/>
    <path d="M 61.392269134521484 121.9996337890625 C -10.219194412231445 183.23898315429688 53.247779846191406 152.9253387451172 17.959238052368164 167.56031799316406" stroke-width="3.0" fill="none" stroke="rgb(0, 0, 0)" stroke-opacity="1.0" stroke-linecap="round" stroke-linejoin="round"/>
    <path d="M 41.96871566772461 39.10551834106445 C 124.44532012939453 87.19662475585938 54.463783264160156 73.96505737304688 121.14068603515625 88.44649505615234" stroke-width="3.0" fill="none" stroke="rgb(0, 0, 0)" stroke-opacity="1.0" stroke-linecap="round" stroke-linejoin="round"/>
    <path d="M 134.197021484375 159.48667907714844 C 153.06240844726562 118.2539291381836 153.4432373046875 153.3657989501953 181.4502716064453 107.9725341796875" stroke-width="3.0" fill="none" stroke="rgb(0, 0, 0)" stroke-opacity="1.0" stroke-linecap="round" stroke-linejoin="round"/>
    <path d="M 31.292802810668945 154.01161193847656 C 68.44841003417969 116.55266571044922 66.32527923583984 143.5794219970703 76.70266723632812 116.2705307006836" stroke-width="3.0" fill="none" stroke="rgb(0, 0, 0)" stroke-opacity="1.0" stroke-linecap="round" stroke-linejoin="round"/>
    <path d="M 157.04910278320312 119.10511779785156 C 137.6245574951172 122.58721923828125 135.71141052246094 113.6100082397461 130.83663940429688 128.33363342285156" stroke-width="3.0" fill="none" stroke="rgb(0, 0, 0)" stroke-opacity="1.0" stroke-linecap="round" stroke-linejoin="round"/>
    <path d="M 171.05795288085938 111.03875732421875 C 167.15994262695312 228.22097778320312 136.1774444580078 186.29296875 161.4068603515625 190.20046997070312" stroke-width="3.0" fill="none" stroke="rgb(0, 0, 0)" stroke-opacity="1.0" stroke-linecap="round" stroke-linejoin="round"/>
    <path d="M 8.534823417663574 73.62076568603516 C 70.14024353027344 21.78087043762207 -25.25052261352539 64.39031982421875 63.350467681884766 43.9114875793457" stroke-width="3.0" fill="none" stroke="rgb(0, 0, 0)" stroke-opacity="1.0" stroke-linecap="round" stroke-linejoin="round"/>
    <path d="M 91.07551574707031 68.80642700195312 C 45.99018859863281 34.66842269897461 -8.424769401550293 32.602027893066406 83.97562408447266 57.226219177246094" stroke-width="3.0" fill="none" stroke="rgb(0, 0, 0)" stroke-opacity="1.0" stroke-linecap="round" stroke-linejoin="round"/>
  </g>
</svg>
