<?xml version="1.0" ?>
<svg xmlns="http://www.w3.org/2000/svg" version="1.1" width="224" height="224">
  <defs/>
  <g>
    <path d="M 109.83822631835938 107.57291412353516 C 109.75748443603516 106.73161315917969 107.13611602783203 105.90934753417969 103.64058685302734 103.3426513671875" stroke-width="3.0" fill="none" stroke="rgb(0, 0, 0)" stroke-opacity="1.0" stroke-linecap="round" stroke-linejoin="round"/>
    <path d="M 118.24884033203125 132.7532501220703 C 120.6560287475586 118.28958892822266 116.90582275390625 121.7596435546875 131.7857666015625 124.95914459228516" stroke-width="3.0" fill="none" stroke="rgb(0, 0, 0)" stroke-opacity="1.0" stroke-linecap="round" stroke-linejoin="round"/>
    <path d="M 186.0587158203125 112.14324951171875 C 191.46217346191406 117.45254516601562 192.19949340820312 108.30429077148438 199.85450744628906 122.37866973876953" stroke-width="3.0" fill="none" stroke="rgb(0, 0, 0)" stroke-opacity="1.0" stroke-linecap="round" stroke-linejoin="round"/>
    <path d="M 50.35543441772461 105.16036987304688 C 49.06965637207031 114.29180145263672 51.73527908325195 110.4830551147461 59.385963439941406 121.26852416992188" stroke-width="3.0" fill="none" stroke="rgb(0, 0, 0)" stroke-opacity="1.0" stroke-linecap="round" stroke-linejoin="round"/>
    <path d="M 148.0723114013672 93.4980697631836 C 138.98226928710938 90.7764892578125 141.32713317871094 92.31172180175781 149.81927490234375 99.37278747558594" stroke-width="3.0" fill="none" stroke="rgb(0, 0, 0)" stroke-opacity="1.0" stroke-linecap="round" stroke-linejoin="round"/>
    <path d="M 134.75631713867188 121.43602752685547 C 129.8460693359375 124.49234008789062 123.311279296875 129.03851318359375 130.53257751464844 121.73763275146484" stroke-width="3.0" fill="none" stroke="rgb(0, 0, 0)" stroke-opacity="1.0" stroke-linecap="round" stroke-linejoin="round"/>
    <path d="M 77.58309173583984 101.31055450439453 C 85.18267822265625 98.36624908447266 90.67733764648438 97.9380874633789 84.66143798828125 99.83140563964844" stroke-width="3.0" fill="none" stroke="rgb(0, 0, 0)" stroke-opacity="1.0" stroke-linecap="round" stroke-linejoin="round"/>
    <path d="M 139.96890258789062 135.13137817382812 C 146.80874633789062 140.6859588623047 141.76602172851562 134.65464782714844 139.5453643798828 150.35581970214844" stroke-width="3.0" fill="none" stroke="rgb(0, 0, 0)" stroke-opacity="1.0" stroke-linecap="round" stroke-linejoin="round"/>
    <path d="M 44.35445785522461 157.8188934326172 C 37.57467269897461 166.56594848632812 35.49640655517578 158.788330078125 34.911476135253906 163.7168426513672" stroke-width="3.0" fill="none" stroke="rgb(0, 0, 0)" stroke-opacity="1.0" stroke-linecap="round" stroke-linejoin="round"/>
    <path d="M 109.3773422241211 88.42384338378906 C 111.2319564819336 99.5660400390625 109.68644714355469 94.6353988647461 111.12133026123047 94.86096954345703" stroke-width="3.0" fill="none" stroke="rgb(0, 0, 0)" stroke-opacity="1.0" stroke-linecap="round" stroke-linejoin="round"/>
    <path d="M 129.88487243652344 129.84500122070312 C 135.34744262695312 131.46438598632812 147.43133544921875 130.76026916503906 146.5299072265625 128.91448974609375" stroke-width="3.0" fill="none" stroke="rgb(0, 0, 0)" stroke-opacity="1.0" stroke-linecap="round" stroke-linejoin="round"/>
    <path d="M 73.36769104003906 109.33577728271484 C 78.89875030517578 101.5717544555664 79.20718383789062 99.91072082519531 79.43783569335938 97.31976318359375" stroke-width="3.0" fill="none" stroke="rgb(0, 0, 0)" stroke-opacity="1.0" stroke-linecap="round" stroke-linejoin="round"/>
    <path d="M 137.71810913085938 107.9239730834961 C 134.04026794433594 110.474365234375 135.21075439453125 107.41780853271484 142.17648315429688 106.78902435302734" stroke-width="3.0" fill="none" stroke="rgb(0, 0, 0)" stroke-opacity="1.0" stroke-linecap="round" stroke-linejoin="round"/>
    <path d="M 154.19837951660156 139.6591796875 C 158.3214874267578 149.3269805908203 160.1699981689453 156.15585327148438 167.7732391357422 160.89651489257812" stroke-width="3.0" fill="none" stroke="rgb(0, 0, 0)" stroke-opacity="1.0" stroke-linecap="round" stroke-linejoin="round"/>
    <path d="M 56.8713493347168 45.31996154785156 C 64.911376953125 36.30485916137695 71.92788696289062 46.41376495361328 80.59469604492188 44.15943908691406" stroke-width="3.0" fill="none" stroke="rgb(0, 0, 0)" stroke-opacity="1.0" stroke-linecap="round" stroke-linejoin="round"/>
    <path d="M 76.5713119506836 56.35694885253906 C 74.5826416015625 55.03867721557617 75.95571899414062 56.11418914794922 76.20185089111328 57.05167007446289" stroke-width="3.0" fill="none" stroke="rgb(0, 0, 0)" stroke-opacity="1.0" stroke-linecap="round" stroke-linejoin="round"/>
  </g>
</svg>
