<?xml version="1.0" ?>
<svg xmlns="http://www.w3.org/2000/svg" version="1.1" width="224" height="224">
  <defs/>
  <g>
    <path d="M 104.05744171142578 121.53716278076172 C 106.05318450927734 118.45233917236328 97.80040740966797 122.85148620605469 94.94540405273438 114.98149108886719" stroke-width="3.0" fill="none" stroke="rgb(0, 0, 0)" stroke-opacity="1.0" stroke-linecap="round" stroke-linejoin="round"/>
    <path d="M 88.50957489013672 121.33943939208984 C 110.96896362304688 127.16859436035156 119.65653228759766 143.23423767089844 130.95912170410156 118.8638916015625" stroke-width="3.0" fill="none" stroke="rgb(0, 0, 0)" stroke-opacity="1.0" stroke-linecap="round" stroke-linejoin="round"/>
    <path d="M 155.07325744628906 92.25788116455078 C 223.35421752929688 113.40943908691406 191.70909118652344 134.91470336914062 215.04934692382812 143.31973266601562" stroke-width="3.0" fill="none" stroke="rgb(0, 0, 0)" stroke-opacity="1.0" stroke-linecap="round" stroke-linejoin="round"/>
    <path d="M 47.57741928100586 93.42115020751953 C 53.936004638671875 126.7516098022461 68.35442352294922 106.71277618408203 56.336483001708984 134.16644287109375" stroke-width="3.0" fill="none" stroke="rgb(0, 0, 0)" stroke-opacity="1.0" stroke-linecap="round" stroke-linejoin="round"/>
    <path d="M 130.5382843017578 89.61670684814453 C 159.30117797851562 90.54887390136719 144.8859405517578 87.46869659423828 163.48316955566406 94.88998413085938" stroke-width="3.0" fill="none" stroke="rgb(0, 0, 0)" stroke-opacity="1.0" stroke-linecap="round" stroke-linejoin="round"/>
    <path d="M 139.37655639648438 106.7032241821289 C 127.3580093383789 123.82270812988281 116.02851104736328 117.85803985595703 123.4835205078125 119.18197631835938" stroke-width="3.0" fill="none" stroke="rgb(0, 0, 0)" stroke-opacity="1.0" stroke-linecap="round" stroke-linejoin="round"/>
    <path d="M 89.29067993164062 108.95872497558594 C 85.35716247558594 120.01191711425781 84.39078521728516 115.6152572631836 91.65991973876953 120.99911499023438" stroke-width="3.0" fill="none" stroke="rgb(0, 0, 0)" stroke-opacity="1.0" stroke-linecap="round" stroke-linejoin="round"/>
    <path d="M 134.38014221191406 137.2755889892578 C 139.45628356933594 170.34063720703125 144.2057342529297 156.94056701660156 99.38455200195312 185.22975158691406" stroke-width="3.0" fill="none" stroke="rgb(0, 0, 0)" stroke-opacity="1.0" stroke-linecap="round" stroke-linejoin="round"/>
    <path d="M 47.469085693359375 142.36978149414062 C 26.83890724182129 169.51583862304688 57.62887191772461 139.8134765625 15.688746452331543 167.6101837158203" stroke-width="3.0" fill="none" stroke="rgb(0, 0, 0)" stroke-opacity="1.0" stroke-linecap="round" stroke-linejoin="round"/>
    <path d="M 87.72541809082031 64.66053771972656 C 102.62010955810547 86.00821685791016 108.43485260009766 86.65094757080078 137.28076171875 90.04396057128906" stroke-width="3.0" fill="none" stroke="rgb(0, 0, 0)" stroke-opacity="1.0" stroke-linecap="round" stroke-linejoin="round"/>
    <path d="M 129.1611785888672 131.9931182861328 C 128.20098876953125 134.12709045410156 147.94964599609375 135.40689086914062 164.32310485839844 125.61786651611328" stroke-width="3.0" fill="none" stroke="rgb(0, 0, 0)" stroke-opacity="1.0" stroke-linecap="round" stroke-linejoin="round"/>
    <path d="M 68.61204528808594 134.52220153808594 C 87.1036605834961 112.22769165039062 68.28704833984375 123.54885864257812 94.08021545410156 114.02549743652344" stroke-width="3.0" fill="none" stroke="rgb(0, 0, 0)" stroke-opacity="1.0" stroke-linecap="round" stroke-linejoin="round"/>
    <path d="M 146.37510681152344 107.25880432128906 C 136.42959594726562 111.31932830810547 136.72955322265625 107.98243713378906 130.99037170410156 116.06352996826172" stroke-width="3.0" fill="none" stroke="rgb(0, 0, 0)" stroke-opacity="1.0" stroke-linecap="round" stroke-linejoin="round"/>
    <path d="M 153.24876403808594 135.9203643798828 C 183.33929443359375 166.3504180908203 139.3331298828125 197.91925048828125 158.37753295898438 192.18772888183594" stroke-width="3.0" fill="none" stroke="rgb(0, 0, 0)" stroke-opacity="1.0" stroke-linecap="round" stroke-linejoin="round"/>
    <path d="M 25.956636428833008 53.632598876953125 C 56.034664154052734 16.206071853637695 41.02998352050781 59.771156311035156 68.775146484375 37.46836853027344" stroke-width="3.0" fill="none" stroke="rgb(0, 0, 0)" stroke-opacity="1.0" stroke-linecap="round" stroke-linejoin="round"/>
    <path d="M 91.31396484375 63.57389831542969 C 67.2625503540039 42.82081985473633 55.79899215698242 53.4657096862793 67.83384704589844 42.67091369628906" stroke-width="3.0" fill="none" stroke="rgb(0, 0, 0)" stroke-opacity="1.0" stroke-linecap="round" stroke-linejoin="round"/>
  </g>
</svg>
