<?xml version="1.0" ?>
<svg xmlns="http://www.w3.org/2000/svg" version="1.1" width="224" height="224">
  <defs/>
  <g>
    <path d="M 81.36420440673828 111.1063461303711 C 93.84415435791016 129.90614318847656 85.73191833496094 120.56653594970703 80.4004898071289 119.1524887084961" stroke-width="3.0" fill="none" stroke="rgb(0, 0, 0)" stroke-opacity="1.0" stroke-linecap="round" stroke-linejoin="round"/>
    <path d="M 80.06182098388672 123.49140930175781 C 126.48040771484375 131.99020385742188 120.46991729736328 129.28451538085938 141.38327026367188 121.46147918701172" stroke-width="3.0" fill="none" stroke="rgb(0, 0, 0)" stroke-opacity="1.0" stroke-linecap="round" stroke-linejoin="round"/>
    <path d="M 165.91053771972656 98.94298553466797 C 222.9451904296875 124.26258087158203 191.50331115722656 131.8517608642578 219.47581481933594 144.43251037597656" stroke-width="3.0" fill="none" stroke="rgb(0, 0, 0)" stroke-opacity="1.0" stroke-linecap="round" stroke-linejoin="round"/>
    <path d="M 48.5400505065918 60.29887390136719 C 35.59295654296875 154.86572265625 75.02835845947266 86.05929565429688 32.64778137207031 157.35147094726562" stroke-width="3.0" fill="none" stroke="rgb(0, 0, 0)" stroke-opacity="1.0" stroke-linecap="round" stroke-linejoin="round"/>
    <path d="M 116.16118621826172 87.52556610107422 C 140.60366821289062 89.19943237304688 153.81634521484375 77.54903411865234 172.30686950683594 107.32735443115234" stroke-width="3.0" fill="none" stroke="rgb(0, 0, 0)" stroke-opacity="1.0" stroke-linecap="round" stroke-linejoin="round"/>
    <path d="M 140.99441528320312 121.32393646240234 C 125.41065216064453 129.84153747558594 120.41084289550781 134.21336364746094 138.95040893554688 122.6202392578125" stroke-width="3.0" fill="none" stroke="rgb(0, 0, 0)" stroke-opacity="1.0" stroke-linecap="round" stroke-linejoin="round"/>
    <path d="M 81.22341918945312 123.08250427246094 C 91.4074935913086 109.32785034179688 66.56041717529297 128.00347900390625 85.11052703857422 121.53002166748047" stroke-width="3.0" fill="none" stroke="rgb(0, 0, 0)" stroke-opacity="1.0" stroke-linecap="round" stroke-linejoin="round"/>
    <path d="M 133.81399536132812 126.84481811523438 C 125.01599884033203 172.9729461669922 143.02256774902344 159.09390258789062 99.24866485595703 184.24961853027344" stroke-width="3.0" fill="none" stroke="rgb(0, 0, 0)" stroke-opacity="1.0" stroke-linecap="round" stroke-linejoin="round"/>
    <path d="M 55.299110412597656 122.98798370361328 C -8.742330551147461 179.6907501220703 52.85434341430664 150.76344299316406 15.795376777648926 169.08999633789062" stroke-width="3.0" fill="none" stroke="rgb(0, 0, 0)" stroke-opacity="1.0" stroke-linecap="round" stroke-linejoin="round"/>
    <path d="M 42.05385208129883 39.00999450683594 C 124.21182250976562 85.01068115234375 51.31269073486328 76.7325668334961 121.44696807861328 88.04060363769531" stroke-width="3.0" fill="none" stroke="rgb(0, 0, 0)" stroke-opacity="1.0" stroke-linecap="round" stroke-linejoin="round"/>
    <path d="M 136.46353149414062 159.51805114746094 C 153.41629028320312 118.03604125976562 150.82054138183594 153.65147399902344 179.7158660888672 110.37864685058594" stroke-width="3.0" fill="none" stroke="rgb(0, 0, 0)" stroke-opacity="1.0" stroke-linecap="round" stroke-linejoin="round"/>
    <path d="M 29.639232635498047 152.84033203125 C 74.32830810546875 119.19536590576172 65.42914581298828 144.32745361328125 74.61738586425781 116.52552032470703" stroke-width="3.0" fill="none" stroke="rgb(0, 0, 0)" stroke-opacity="1.0" stroke-linecap="round" stroke-linejoin="round"/>
    <path d="M 158.49537658691406 119.46082305908203 C 138.0498809814453 123.41348266601562 135.8705596923828 119.57423400878906 133.4773712158203 130.9727020263672" stroke-width="3.0" fill="none" stroke="rgb(0, 0, 0)" stroke-opacity="1.0" stroke-linecap="round" stroke-linejoin="round"/>
    <path d="M 171.64450073242188 112.24607849121094 C 167.6637725830078 228.816162109375 132.72308349609375 185.417724609375 160.26028442382812 189.6242218017578" stroke-width="3.0" fill="none" stroke="rgb(0, 0, 0)" stroke-opacity="1.0" stroke-linecap="round" stroke-linejoin="round"/>
    <path d="M 11.228681564331055 74.1478042602539 C 72.29206085205078 17.211986541748047 -15.87913990020752 66.41590118408203 71.29076385498047 47.12991714477539" stroke-width="3.0" fill="none" stroke="rgb(0, 0, 0)" stroke-opacity="1.0" stroke-linecap="round" stroke-linejoin="round"/>
    <path d="M 91.40711212158203 69.13870239257812 C 48.990234375 30.70346450805664 -8.95115852355957 35.57049560546875 86.64212799072266 55.659996032714844" stroke-width="3.0" fill="none" stroke="rgb(0, 0, 0)" stroke-opacity="1.0" stroke-linecap="round" stroke-linejoin="round"/>
  </g>
</svg>
