<?xml version="1.0" ?>
<svg xmlns="http://www.w3.org/2000/svg" version="1.1" width="224" height="224">
  <defs/>
  <g>
    <path d="M 85.4542465209961 125.63379669189453 C 80.98120880126953 122.55643463134766 77.94630432128906 124.29821014404297 74.32652282714844 117.13561248779297" stroke-width="3.0" fill="none" stroke="rgb(0, 0, 0)" stroke-opacity="1.0" stroke-linecap="round" stroke-linejoin="round"/>
    <path d="M 74.5467758178711 119.29449462890625 C 95.39671325683594 136.2538604736328 114.0368881225586 124.46719360351562 133.269287109375 123.80018615722656" stroke-width="3.0" fill="none" stroke="rgb(0, 0, 0)" stroke-opacity="1.0" stroke-linecap="round" stroke-linejoin="round"/>
    <path d="M 156.10415649414062 91.23917388916016 C 226.30943298339844 121.59416198730469 187.18777465820312 130.8721160888672 214.5197296142578 145.08901977539062" stroke-width="3.0" fill="none" stroke="rgb(0, 0, 0)" stroke-opacity="1.0" stroke-linecap="round" stroke-linejoin="round"/>
    <path d="M 60.20986557006836 70.99101257324219 C 45.83002853393555 151.12786865234375 90.49510955810547 104.16461181640625 38.10216522216797 154.31097412109375" stroke-width="3.0" fill="none" stroke="rgb(0, 0, 0)" stroke-opacity="1.0" stroke-linecap="round" stroke-linejoin="round"/>
    <path d="M 134.42640686035156 88.41300964355469 C 141.42105102539062 88.39524841308594 163.7213897705078 86.77607727050781 178.43714904785156 108.27924346923828" stroke-width="3.0" fill="none" stroke="rgb(0, 0, 0)" stroke-opacity="1.0" stroke-linecap="round" stroke-linejoin="round"/>
    <path d="M 133.65745544433594 121.5746078491211 C 133.2022705078125 121.25138854980469 116.53596496582031 125.71818542480469 123.71350860595703 123.95321655273438" stroke-width="3.0" fill="none" stroke="rgb(0, 0, 0)" stroke-opacity="1.0" stroke-linecap="round" stroke-linejoin="round"/>
    <path d="M 78.1631088256836 122.84161376953125 C 78.90843963623047 118.25886535644531 65.3270034790039 124.71940612792969 86.40715789794922 125.77234649658203" stroke-width="3.0" fill="none" stroke="rgb(0, 0, 0)" stroke-opacity="1.0" stroke-linecap="round" stroke-linejoin="round"/>
    <path d="M 143.21022033691406 134.3756866455078 C 123.89208984375 166.55252075195312 152.00741577148438 148.2917938232422 97.94019317626953 184.01284790039062" stroke-width="3.0" fill="none" stroke="rgb(0, 0, 0)" stroke-opacity="1.0" stroke-linecap="round" stroke-linejoin="round"/>
    <path d="M 60.14310836791992 118.06013488769531 C -1.0439515113830566 170.3990020751953 55.365875244140625 141.57408142089844 13.83283519744873 169.82925415039062" stroke-width="3.0" fill="none" stroke="rgb(0, 0, 0)" stroke-opacity="1.0" stroke-linecap="round" stroke-linejoin="round"/>
    <path d="M 71.00717163085938 45.97035598754883 C 89.7608642578125 101.89644622802734 98.33338165283203 79.75550079345703 140.89620971679688 90.97440338134766" stroke-width="3.0" fill="none" stroke="rgb(0, 0, 0)" stroke-opacity="1.0" stroke-linecap="round" stroke-linejoin="round"/>
    <path d="M 138.67958068847656 136.82888793945312 C 139.13165283203125 129.42620849609375 138.72967529296875 139.37074279785156 179.296142578125 117.21410369873047" stroke-width="3.0" fill="none" stroke="rgb(0, 0, 0)" stroke-opacity="1.0" stroke-linecap="round" stroke-linejoin="round"/>
    <path d="M 48.4952392578125 135.6765594482422 C 78.78550720214844 127.85296630859375 76.92375946044922 136.8858184814453 73.55522155761719 114.40478515625" stroke-width="3.0" fill="none" stroke="rgb(0, 0, 0)" stroke-opacity="1.0" stroke-linecap="round" stroke-linejoin="round"/>
    <path d="M 137.1265869140625 117.98255920410156 C 129.53749084472656 124.8899917602539 135.3176727294922 124.76959228515625 132.3998565673828 122.54733276367188" stroke-width="3.0" fill="none" stroke="rgb(0, 0, 0)" stroke-opacity="1.0" stroke-linecap="round" stroke-linejoin="round"/>
    <path d="M 166.0840301513672 128.75390625 C 192.57366943359375 164.23153686523438 136.5259246826172 213.04539489746094 160.105712890625 193.8986358642578" stroke-width="3.0" fill="none" stroke="rgb(0, 0, 0)" stroke-opacity="1.0" stroke-linecap="round" stroke-linejoin="round"/>
    <path d="M 16.67535400390625 76.4332275390625 C 74.69515228271484 -0.09342645108699799 2.043595314025879 62.65448760986328 67.41151428222656 38.78797149658203" stroke-width="3.0" fill="none" stroke="rgb(0, 0, 0)" stroke-opacity="1.0" stroke-linecap="round" stroke-linejoin="round"/>
    <path d="M 88.16106414794922 67.1180191040039 C 53.69759750366211 32.40214538574219 29.094358444213867 20.41355323791504 83.3927993774414 54.251285552978516" stroke-width="3.0" fill="none" stroke="rgb(0, 0, 0)" stroke-opacity="1.0" stroke-linecap="round" stroke-linejoin="round"/>
  </g>
</svg>
