<?xml version="1.0" ?>
<svg xmlns="http://www.w3.org/2000/svg" version="1.1" width="224" height="224">
  <defs/>
  <g>
    <path d="M 78.126220703125 111.64521789550781 C 89.70320129394531 130.00106811523438 80.51748657226562 119.92414093017578 77.97811889648438 123.53978729248047" stroke-width="3.0" fill="none" stroke="rgb(0, 0, 0)" stroke-opacity="1.0" stroke-linecap="round" stroke-linejoin="round"/>
    <path d="M 73.59112548828125 124.27672576904297 C 114.87210083007812 134.58570861816406 111.57866668701172 124.24788665771484 137.74229431152344 126.61802673339844" stroke-width="3.0" fill="none" stroke="rgb(0, 0, 0)" stroke-opacity="1.0" stroke-linecap="round" stroke-linejoin="round"/>
    <path d="M 165.95492553710938 96.07283782958984 C 222.11968994140625 121.11695098876953 195.02725219726562 133.38143920898438 216.28492736816406 140.9805908203125" stroke-width="3.0" fill="none" stroke="rgb(0, 0, 0)" stroke-opacity="1.0" stroke-linecap="round" stroke-linejoin="round"/>
    <path d="M 45.434654235839844 70.83818054199219 C 59.716270446777344 151.706298828125 66.3473892211914 73.35897064208984 34.67148208618164 156.94338989257812" stroke-width="3.0" fill="none" stroke="rgb(0, 0, 0)" stroke-opacity="1.0" stroke-linecap="round" stroke-linejoin="round"/>
    <path d="M 105.97526550292969 87.53348541259766 C 135.6921844482422 89.92711639404297 150.1895751953125 77.30489349365234 174.78639221191406 106.23042297363281" stroke-width="3.0" fill="none" stroke="rgb(0, 0, 0)" stroke-opacity="1.0" stroke-linecap="round" stroke-linejoin="round"/>
    <path d="M 134.51797485351562 125.3680648803711 C 134.66612243652344 126.00357818603516 136.39476013183594 128.5913848876953 131.0490264892578 125.1433334350586" stroke-width="3.0" fill="none" stroke="rgb(0, 0, 0)" stroke-opacity="1.0" stroke-linecap="round" stroke-linejoin="round"/>
    <path d="M 81.46923065185547 122.6067123413086 C 87.27735137939453 109.4737777709961 58.5612678527832 132.2103271484375 81.96612548828125 118.62606048583984" stroke-width="3.0" fill="none" stroke="rgb(0, 0, 0)" stroke-opacity="1.0" stroke-linecap="round" stroke-linejoin="round"/>
    <path d="M 142.12518310546875 125.68377685546875 C 120.53135681152344 178.80361938476562 139.3017120361328 153.1922607421875 100.41934204101562 183.75537109375" stroke-width="3.0" fill="none" stroke="rgb(0, 0, 0)" stroke-opacity="1.0" stroke-linecap="round" stroke-linejoin="round"/>
    <path d="M 54.69931411743164 122.57843780517578 C -10.619967460632324 182.21310424804688 62.55074691772461 147.9725341796875 16.580162048339844 168.2102813720703" stroke-width="3.0" fill="none" stroke="rgb(0, 0, 0)" stroke-opacity="1.0" stroke-linecap="round" stroke-linejoin="round"/>
    <path d="M 34.99213409423828 36.5632438659668 C 111.18831634521484 88.77246856689453 36.31649398803711 72.6479721069336 112.3270263671875 90.20448303222656" stroke-width="3.0" fill="none" stroke="rgb(0, 0, 0)" stroke-opacity="1.0" stroke-linecap="round" stroke-linejoin="round"/>
    <path d="M 131.359619140625 161.4290008544922 C 153.23818969726562 118.11611938476562 148.81492614746094 156.5203399658203 182.66734313964844 110.07393646240234" stroke-width="3.0" fill="none" stroke="rgb(0, 0, 0)" stroke-opacity="1.0" stroke-linecap="round" stroke-linejoin="round"/>
    <path d="M 31.740510940551758 153.2467803955078 C 68.10385131835938 114.95719909667969 61.20932388305664 144.14675903320312 70.79158782958984 114.22493743896484" stroke-width="3.0" fill="none" stroke="rgb(0, 0, 0)" stroke-opacity="1.0" stroke-linecap="round" stroke-linejoin="round"/>
    <path d="M 159.36895751953125 119.55085754394531 C 139.95257568359375 131.1895751953125 151.29830932617188 122.00724792480469 123.9145736694336 126.4520034790039" stroke-width="3.0" fill="none" stroke="rgb(0, 0, 0)" stroke-opacity="1.0" stroke-linecap="round" stroke-linejoin="round"/>
    <path d="M 172.6273956298828 113.65916442871094 C 166.43942260742188 229.46575927734375 135.79612731933594 187.6136932373047 161.93223571777344 190.9785614013672" stroke-width="3.0" fill="none" stroke="rgb(0, 0, 0)" stroke-opacity="1.0" stroke-linecap="round" stroke-linejoin="round"/>
    <path d="M 13.246611595153809 76.43779754638672 C 64.7155990600586 16.928028106689453 -10.265034675598145 77.29745483398438 54.571781158447266 38.25672912597656" stroke-width="3.0" fill="none" stroke="rgb(0, 0, 0)" stroke-opacity="1.0" stroke-linecap="round" stroke-linejoin="round"/>
    <path d="M 86.37332153320312 77.06314086914062 C 60.6860466003418 23.115549087524414 -3.8864946365356445 35.909202575683594 80.79483032226562 57.453041076660156" stroke-width="3.0" fill="none" stroke="rgb(0, 0, 0)" stroke-opacity="1.0" stroke-linecap="round" stroke-linejoin="round"/>
  </g>
</svg>
