<?xml version="1.0" ?>
<svg xmlns="http://www.w3.org/2000/svg" version="1.1" width="224" height="224">
  <defs/>
  <g>
    <path d="M 88.66133880615234 126.48177337646484 C 80.86038208007812 122.71659851074219 82.65109252929688 121.48313903808594 76.312744140625 116.88985443115234" stroke-width="3.0" fill="none" stroke="rgb(0, 0, 0)" stroke-opacity="1.0" stroke-linecap="round" stroke-linejoin="round"/>
    <path d="M 75.96756744384766 118.04191589355469 C 102.37188720703125 138.6060333251953 110.82159423828125 126.01641845703125 132.77337646484375 124.15196990966797" stroke-width="3.0" fill="none" stroke="rgb(0, 0, 0)" stroke-opacity="1.0" stroke-linecap="round" stroke-linejoin="round"/>
    <path d="M 154.21755981445312 89.48443603515625 C 225.7986297607422 122.65988159179688 186.60096740722656 132.81100463867188 216.48751831054688 144.78001403808594" stroke-width="3.0" fill="none" stroke="rgb(0, 0, 0)" stroke-opacity="1.0" stroke-linecap="round" stroke-linejoin="round"/>
    <path d="M 53.42731475830078 62.803924560546875 C 42.593406677246094 152.08718872070312 89.72611999511719 107.03545379638672 40.96183395385742 152.03073120117188" stroke-width="3.0" fill="none" stroke="rgb(0, 0, 0)" stroke-opacity="1.0" stroke-linecap="round" stroke-linejoin="round"/>
    <path d="M 136.22740173339844 90.01185607910156 C 145.66940307617188 88.65870666503906 163.8040771484375 85.18387603759766 175.43589782714844 107.71758270263672" stroke-width="3.0" fill="none" stroke="rgb(0, 0, 0)" stroke-opacity="1.0" stroke-linecap="round" stroke-linejoin="round"/>
    <path d="M 134.25685119628906 122.40970611572266 C 132.20755004882812 121.31551361083984 118.59590148925781 126.3810043334961 124.2319564819336 124.99166870117188" stroke-width="3.0" fill="none" stroke="rgb(0, 0, 0)" stroke-opacity="1.0" stroke-linecap="round" stroke-linejoin="round"/>
    <path d="M 78.08843994140625 121.92127990722656 C 80.48594665527344 120.70244598388672 66.21263122558594 122.18563079833984 87.03137969970703 126.95390319824219" stroke-width="3.0" fill="none" stroke="rgb(0, 0, 0)" stroke-opacity="1.0" stroke-linecap="round" stroke-linejoin="round"/>
    <path d="M 140.3695526123047 136.178955078125 C 124.41179656982422 170.6756134033203 148.30136108398438 153.20022583007812 98.38243865966797 182.31236267089844" stroke-width="3.0" fill="none" stroke="rgb(0, 0, 0)" stroke-opacity="1.0" stroke-linecap="round" stroke-linejoin="round"/>
    <path d="M 56.859344482421875 113.66841125488281 C 5.738524913787842 178.91873168945312 61.84567642211914 147.0834503173828 19.584535598754883 169.4290008544922" stroke-width="3.0" fill="none" stroke="rgb(0, 0, 0)" stroke-opacity="1.0" stroke-linecap="round" stroke-linejoin="round"/>
    <path d="M 69.77130889892578 47.4986457824707 C 89.1399917602539 99.42013549804688 102.01934051513672 84.60011291503906 143.54278564453125 90.15823364257812" stroke-width="3.0" fill="none" stroke="rgb(0, 0, 0)" stroke-opacity="1.0" stroke-linecap="round" stroke-linejoin="round"/>
    <path d="M 139.8679656982422 132.5714874267578 C 138.72378540039062 133.51315307617188 136.66824340820312 138.49951171875 175.53732299804688 116.191650390625" stroke-width="3.0" fill="none" stroke="rgb(0, 0, 0)" stroke-opacity="1.0" stroke-linecap="round" stroke-linejoin="round"/>
    <path d="M 58.46432113647461 141.25225830078125 C 78.82662200927734 129.12234497070312 68.62850952148438 136.2847137451172 77.96508026123047 112.49175262451172" stroke-width="3.0" fill="none" stroke="rgb(0, 0, 0)" stroke-opacity="1.0" stroke-linecap="round" stroke-linejoin="round"/>
    <path d="M 137.80239868164062 118.28015899658203 C 130.95565795898438 124.63016510009766 134.51515197753906 127.49455261230469 131.78256225585938 122.49411010742188" stroke-width="3.0" fill="none" stroke="rgb(0, 0, 0)" stroke-opacity="1.0" stroke-linecap="round" stroke-linejoin="round"/>
    <path d="M 164.68154907226562 127.24137878417969 C 186.5347137451172 169.47975158691406 137.41079711914062 206.79701232910156 160.07177734375 194.52371215820312" stroke-width="3.0" fill="none" stroke="rgb(0, 0, 0)" stroke-opacity="1.0" stroke-linecap="round" stroke-linejoin="round"/>
    <path d="M 16.458892822265625 76.94820404052734 C 60.581878662109375 -9.919060707092285 17.062314987182617 59.96642303466797 68.6617431640625 33.72294235229492" stroke-width="3.0" fill="none" stroke="rgb(0, 0, 0)" stroke-opacity="1.0" stroke-linecap="round" stroke-linejoin="round"/>
    <path d="M 84.43592071533203 67.59526062011719 C 50.171390533447266 40.31293869018555 35.06840896606445 24.12017059326172 79.12625122070312 48.008079528808594" stroke-width="3.0" fill="none" stroke="rgb(0, 0, 0)" stroke-opacity="1.0" stroke-linecap="round" stroke-linejoin="round"/>
  </g>
</svg>
