<?xml version="1.0" ?>
<svg xmlns="http://www.w3.org/2000/svg" version="1.1" width="224" height="224">
  <defs/>
  <g>
    <path d="M 79.39595031738281 111.95027923583984 C 88.71749877929688 131.0047149658203 86.82923126220703 118.61372375488281 78.04759979248047 124.1362533569336" stroke-width="3.0" fill="none" stroke="rgb(0, 0, 0)" stroke-opacity="1.0" stroke-linecap="round" stroke-linejoin="round"/>
    <path d="M 76.14085388183594 123.52120208740234 C 114.16072082519531 140.00433349609375 113.7474365234375 126.24578094482422 132.00634765625 127.80272674560547" stroke-width="3.0" fill="none" stroke="rgb(0, 0, 0)" stroke-opacity="1.0" stroke-linecap="round" stroke-linejoin="round"/>
    <path d="M 168.67825317382812 99.41104888916016 C 220.71578979492188 119.05377197265625 193.55714416503906 132.67904663085938 215.10543823242188 144.67153930664062" stroke-width="3.0" fill="none" stroke="rgb(0, 0, 0)" stroke-opacity="1.0" stroke-linecap="round" stroke-linejoin="round"/>
    <path d="M 52.7739143371582 64.9090576171875 C 59.155025482177734 152.60678100585938 66.7384262084961 69.4910888671875 37.66462707519531 155.88973999023438" stroke-width="3.0" fill="none" stroke="rgb(0, 0, 0)" stroke-opacity="1.0" stroke-linecap="round" stroke-linejoin="round"/>
    <path d="M 101.18949127197266 84.31971740722656 C 136.36680603027344 92.28878021240234 146.27587890625 76.88677215576172 176.92111206054688 108.73379516601562" stroke-width="3.0" fill="none" stroke="rgb(0, 0, 0)" stroke-opacity="1.0" stroke-linecap="round" stroke-linejoin="round"/>
    <path d="M 130.5249481201172 127.06385040283203 C 140.69259643554688 125.54339599609375 141.92724609375 125.80376434326172 129.0406951904297 125.06269073486328" stroke-width="3.0" fill="none" stroke="rgb(0, 0, 0)" stroke-opacity="1.0" stroke-linecap="round" stroke-linejoin="round"/>
    <path d="M 76.81147003173828 120.52009582519531 C 94.05985260009766 110.07908630371094 59.16597366333008 132.0943603515625 81.00244903564453 119.97212219238281" stroke-width="3.0" fill="none" stroke="rgb(0, 0, 0)" stroke-opacity="1.0" stroke-linecap="round" stroke-linejoin="round"/>
    <path d="M 141.83612060546875 127.04470825195312 C 118.96649932861328 176.66610717773438 140.0556182861328 157.04933166503906 98.95072937011719 184.05113220214844" stroke-width="3.0" fill="none" stroke="rgb(0, 0, 0)" stroke-opacity="1.0" stroke-linecap="round" stroke-linejoin="round"/>
    <path d="M 56.720314025878906 119.79712677001953 C -7.366464138031006 184.81619262695312 72.13140869140625 150.46658325195312 18.576143264770508 168.52565002441406" stroke-width="3.0" fill="none" stroke="rgb(0, 0, 0)" stroke-opacity="1.0" stroke-linecap="round" stroke-linejoin="round"/>
    <path d="M 38.35020446777344 35.1096076965332 C 113.52582550048828 77.5222396850586 45.6556396484375 66.26416015625 111.46598052978516 85.76508331298828" stroke-width="3.0" fill="none" stroke="rgb(0, 0, 0)" stroke-opacity="1.0" stroke-linecap="round" stroke-linejoin="round"/>
    <path d="M 130.8385772705078 159.98211669921875 C 149.75791931152344 114.63871765136719 151.18077087402344 153.85623168945312 181.5828094482422 110.08241271972656" stroke-width="3.0" fill="none" stroke="rgb(0, 0, 0)" stroke-opacity="1.0" stroke-linecap="round" stroke-linejoin="round"/>
    <path d="M 34.65557098388672 152.06883239746094 C 68.92179870605469 118.04549407958984 59.90186309814453 143.46885681152344 71.5069808959961 116.29841613769531" stroke-width="3.0" fill="none" stroke="rgb(0, 0, 0)" stroke-opacity="1.0" stroke-linecap="round" stroke-linejoin="round"/>
    <path d="M 155.28475952148438 118.34769439697266 C 134.0540771484375 129.7804412841797 155.8236846923828 115.95276641845703 118.74261474609375 127.00447082519531" stroke-width="3.0" fill="none" stroke="rgb(0, 0, 0)" stroke-opacity="1.0" stroke-linecap="round" stroke-linejoin="round"/>
    <path d="M 173.5668487548828 105.9796371459961 C 166.3948516845703 226.46694946289062 133.0013427734375 179.00132751464844 160.0430145263672 187.64820861816406" stroke-width="3.0" fill="none" stroke="rgb(0, 0, 0)" stroke-opacity="1.0" stroke-linecap="round" stroke-linejoin="round"/>
    <path d="M 12.150510787963867 75.96302032470703 C 60.5119514465332 16.62238311767578 -12.99756908416748 77.97444152832031 55.87175369262695 35.501380920410156" stroke-width="3.0" fill="none" stroke="rgb(0, 0, 0)" stroke-opacity="1.0" stroke-linecap="round" stroke-linejoin="round"/>
    <path d="M 94.85579681396484 75.92976379394531 C 73.86124420166016 24.753660202026367 -15.72939682006836 35.329750061035156 84.94981384277344 53.7298698425293" stroke-width="3.0" fill="none" stroke="rgb(0, 0, 0)" stroke-opacity="1.0" stroke-linecap="round" stroke-linejoin="round"/>
  </g>
</svg>
