<?xml version="1.0" ?>
<svg xmlns="http://www.w3.org/2000/svg" version="1.1" width="224" height="224">
  <defs/>
  <g>
    <path d="M 77.8646011352539 110.91038513183594 C 87.48973846435547 130.77540588378906 80.58721160888672 120.81031036376953 80.70030212402344 122.19181060791016" stroke-width="3.0" fill="none" stroke="rgb(0, 0, 0)" stroke-opacity="1.0" stroke-linecap="round" stroke-linejoin="round"/>
    <path d="M 74.08012390136719 123.1351547241211 C 106.6543960571289 136.39163208007812 109.45085144042969 125.07298278808594 136.23788452148438 126.62939453125" stroke-width="3.0" fill="none" stroke="rgb(0, 0, 0)" stroke-opacity="1.0" stroke-linecap="round" stroke-linejoin="round"/>
    <path d="M 170.48268127441406 99.28150177001953 C 220.06069946289062 115.45960235595703 195.329833984375 131.68519592285156 217.5418243408203 141.51702880859375" stroke-width="3.0" fill="none" stroke="rgb(0, 0, 0)" stroke-opacity="1.0" stroke-linecap="round" stroke-linejoin="round"/>
    <path d="M 47.025386810302734 58.93932342529297 C 60.01784133911133 149.11859130859375 66.76947784423828 66.12271118164062 38.88575744628906 157.51168823242188" stroke-width="3.0" fill="none" stroke="rgb(0, 0, 0)" stroke-opacity="1.0" stroke-linecap="round" stroke-linejoin="round"/>
    <path d="M 101.78555297851562 82.92662048339844 C 134.9618682861328 92.10781860351562 146.7538604736328 73.43087005615234 178.9263916015625 108.7601089477539" stroke-width="3.0" fill="none" stroke="rgb(0, 0, 0)" stroke-opacity="1.0" stroke-linecap="round" stroke-linejoin="round"/>
    <path d="M 132.58518981933594 126.70206451416016 C 140.70542907714844 131.06155395507812 139.01271057128906 118.85071563720703 124.15116882324219 127.40973663330078" stroke-width="3.0" fill="none" stroke="rgb(0, 0, 0)" stroke-opacity="1.0" stroke-linecap="round" stroke-linejoin="round"/>
    <path d="M 76.89030456542969 122.35724639892578 C 92.93836975097656 103.24333190917969 59.113765716552734 128.99354553222656 82.03364562988281 120.61090087890625" stroke-width="3.0" fill="none" stroke="rgb(0, 0, 0)" stroke-opacity="1.0" stroke-linecap="round" stroke-linejoin="round"/>
    <path d="M 140.1611328125 129.2761993408203 C 118.19405364990234 177.67613220214844 142.69580078125 157.26480102539062 98.9770736694336 185.06793212890625" stroke-width="3.0" fill="none" stroke="rgb(0, 0, 0)" stroke-opacity="1.0" stroke-linecap="round" stroke-linejoin="round"/>
    <path d="M 57.817230224609375 118.4684066772461 C -6.687446117401123 187.9403839111328 72.20376586914062 148.56150817871094 15.779261589050293 167.8475799560547" stroke-width="3.0" fill="none" stroke="rgb(0, 0, 0)" stroke-opacity="1.0" stroke-linecap="round" stroke-linejoin="round"/>
    <path d="M 37.17134094238281 34.78809356689453 C 109.41912841796875 77.20613861083984 49.77635955810547 66.63488006591797 109.9513168334961 86.62541961669922" stroke-width="3.0" fill="none" stroke="rgb(0, 0, 0)" stroke-opacity="1.0" stroke-linecap="round" stroke-linejoin="round"/>
    <path d="M 132.62147521972656 162.88372802734375 C 153.46920776367188 114.27268981933594 152.70693969726562 160.16770935058594 183.7464599609375 108.5723876953125" stroke-width="3.0" fill="none" stroke="rgb(0, 0, 0)" stroke-opacity="1.0" stroke-linecap="round" stroke-linejoin="round"/>
    <path d="M 35.674720764160156 152.55625915527344 C 64.5459213256836 116.3121566772461 59.68230056762695 144.7542724609375 72.53621673583984 114.33296966552734" stroke-width="3.0" fill="none" stroke="rgb(0, 0, 0)" stroke-opacity="1.0" stroke-linecap="round" stroke-linejoin="round"/>
    <path d="M 156.0084228515625 119.12298583984375 C 133.34963989257812 128.98243713378906 157.21995544433594 117.11551666259766 113.93399810791016 128.89602661132812" stroke-width="3.0" fill="none" stroke="rgb(0, 0, 0)" stroke-opacity="1.0" stroke-linecap="round" stroke-linejoin="round"/>
    <path d="M 173.64151000976562 110.71022033691406 C 167.06527709960938 231.2965850830078 137.2745361328125 178.05860900878906 159.5289306640625 191.02865600585938" stroke-width="3.0" fill="none" stroke="rgb(0, 0, 0)" stroke-opacity="1.0" stroke-linecap="round" stroke-linejoin="round"/>
    <path d="M 13.006062507629395 75.76009368896484 C 60.94417190551758 13.625632286071777 -13.534615516662598 81.38152313232422 52.018524169921875 35.745826721191406" stroke-width="3.0" fill="none" stroke="rgb(0, 0, 0)" stroke-opacity="1.0" stroke-linecap="round" stroke-linejoin="round"/>
    <path d="M 91.92910766601562 75.05374908447266 C 77.78807067871094 24.697355270385742 -18.71161460876465 37.515682220458984 83.72749328613281 50.94931411743164" stroke-width="3.0" fill="none" stroke="rgb(0, 0, 0)" stroke-opacity="1.0" stroke-linecap="round" stroke-linejoin="round"/>
  </g>
</svg>
