<?xml version="1.0" ?>
<svg xmlns="http://www.w3.org/2000/svg" version="1.1" width="224" height="224">
  <defs/>
  <g>
    <path d="M 81.18183898925781 124.16957092285156 C 85.5878677368164 123.56070709228516 78.91413116455078 124.00167846679688 74.89981079101562 119.13613891601562" stroke-width="3.0" fill="none" stroke="rgb(0, 0, 0)" stroke-opacity="1.0" stroke-linecap="round" stroke-linejoin="round"/>
    <path d="M 73.6400146484375 124.04264068603516 C 101.91768646240234 135.7309112548828 121.14742279052734 122.77422332763672 135.6405029296875 124.02228546142578" stroke-width="3.0" fill="none" stroke="rgb(0, 0, 0)" stroke-opacity="1.0" stroke-linecap="round" stroke-linejoin="round"/>
    <path d="M 155.4933319091797 90.9715576171875 C 226.23387145996094 119.83898162841797 186.26266479492188 129.83743286132812 215.70706176757812 144.588623046875" stroke-width="3.0" fill="none" stroke="rgb(0, 0, 0)" stroke-opacity="1.0" stroke-linecap="round" stroke-linejoin="round"/>
    <path d="M 59.833065032958984 69.51790618896484 C 42.250640869140625 141.931884765625 86.3807144165039 100.73399353027344 34.698883056640625 155.7378387451172" stroke-width="3.0" fill="none" stroke="rgb(0, 0, 0)" stroke-opacity="1.0" stroke-linecap="round" stroke-linejoin="round"/>
    <path d="M 128.67466735839844 88.6295394897461 C 137.46009826660156 90.85004425048828 166.274169921875 84.79695892333984 173.7808837890625 108.61537170410156" stroke-width="3.0" fill="none" stroke="rgb(0, 0, 0)" stroke-opacity="1.0" stroke-linecap="round" stroke-linejoin="round"/>
    <path d="M 136.76622009277344 121.70156860351562 C 133.9166259765625 119.20096588134766 118.84010314941406 128.1028289794922 123.87496185302734 124.93988037109375" stroke-width="3.0" fill="none" stroke="rgb(0, 0, 0)" stroke-opacity="1.0" stroke-linecap="round" stroke-linejoin="round"/>
    <path d="M 79.32319641113281 124.36597442626953 C 76.77703857421875 118.53097534179688 70.22164154052734 119.16460418701172 77.50434112548828 126.46215057373047" stroke-width="3.0" fill="none" stroke="rgb(0, 0, 0)" stroke-opacity="1.0" stroke-linecap="round" stroke-linejoin="round"/>
    <path d="M 142.02406311035156 133.2859649658203 C 130.10791015625 164.75521850585938 149.0183868408203 151.38742065429688 100.88652038574219 185.9561767578125" stroke-width="3.0" fill="none" stroke="rgb(0, 0, 0)" stroke-opacity="1.0" stroke-linecap="round" stroke-linejoin="round"/>
    <path d="M 60.3322639465332 118.36134338378906 C 1.6392741203308105 170.02110290527344 48.50743865966797 153.97561645507812 14.216231346130371 170.93386840820312" stroke-width="3.0" fill="none" stroke="rgb(0, 0, 0)" stroke-opacity="1.0" stroke-linecap="round" stroke-linejoin="round"/>
    <path d="M 56.8223762512207 41.32638168334961 C 101.78977966308594 101.844970703125 97.54951477050781 80.57223510742188 133.81002807617188 90.13308715820312" stroke-width="3.0" fill="none" stroke="rgb(0, 0, 0)" stroke-opacity="1.0" stroke-linecap="round" stroke-linejoin="round"/>
    <path d="M 139.9368896484375 142.00608825683594 C 148.13677978515625 124.31230163574219 145.35935974121094 142.1823272705078 175.30816650390625 115.50232696533203" stroke-width="3.0" fill="none" stroke="rgb(0, 0, 0)" stroke-opacity="1.0" stroke-linecap="round" stroke-linejoin="round"/>
    <path d="M 37.11204147338867 148.45428466796875 C 78.64619445800781 123.43734741210938 70.03317260742188 142.1192169189453 74.62471008300781 117.0334701538086" stroke-width="3.0" fill="none" stroke="rgb(0, 0, 0)" stroke-opacity="1.0" stroke-linecap="round" stroke-linejoin="round"/>
    <path d="M 140.7095489501953 118.0556640625 C 130.4657440185547 126.19599151611328 135.44381713867188 121.54188537597656 133.29217529296875 123.382080078125" stroke-width="3.0" fill="none" stroke="rgb(0, 0, 0)" stroke-opacity="1.0" stroke-linecap="round" stroke-linejoin="round"/>
    <path d="M 169.9777374267578 123.27161407470703 C 186.65957641601562 148.41836547851562 143.9806365966797 201.14035034179688 161.74659729003906 192.8522491455078" stroke-width="3.0" fill="none" stroke="rgb(0, 0, 0)" stroke-opacity="1.0" stroke-linecap="round" stroke-linejoin="round"/>
    <path d="M 13.882664680480957 77.87681579589844 C 77.63689422607422 11.098434448242188 -5.1284871101379395 65.78395080566406 68.1016845703125 42.383052825927734" stroke-width="3.0" fill="none" stroke="rgb(0, 0, 0)" stroke-opacity="1.0" stroke-linecap="round" stroke-linejoin="round"/>
    <path d="M 82.1751480102539 64.75634765625 C 45.67216873168945 43.14341354370117 22.30214500427246 26.63164710998535 79.04803466796875 58.40953063964844" stroke-width="3.0" fill="none" stroke="rgb(0, 0, 0)" stroke-opacity="1.0" stroke-linecap="round" stroke-linejoin="round"/>
  </g>
</svg>
