<?xml version="1.0" ?>
<svg xmlns="http://www.w3.org/2000/svg" version="1.1" width="224" height="224">
  <defs/>
  <g>
    <path d="M 80.98347473144531 111.19908905029297 C 92.78569030761719 131.88092041015625 85.1632080078125 122.4970474243164 80.65287017822266 121.26579284667969" stroke-width="3.0" fill="none" stroke="rgb(0, 0, 0)" stroke-opacity="1.0" stroke-linecap="round" stroke-linejoin="round"/>
    <path d="M 80.01563262939453 124.06236267089844 C 123.02767944335938 135.06784057617188 117.77711486816406 128.51589965820312 144.2624969482422 118.93810272216797" stroke-width="3.0" fill="none" stroke="rgb(0, 0, 0)" stroke-opacity="1.0" stroke-linecap="round" stroke-linejoin="round"/>
    <path d="M 165.53091430664062 98.19529724121094 C 222.4615478515625 121.1557846069336 191.68531799316406 134.1126708984375 214.86253356933594 138.4927978515625" stroke-width="3.0" fill="none" stroke="rgb(0, 0, 0)" stroke-opacity="1.0" stroke-linecap="round" stroke-linejoin="round"/>
    <path d="M 49.76890182495117 61.00520706176758 C 41.77912139892578 154.09271240234375 74.19425964355469 82.31878662109375 32.289329528808594 158.3543243408203" stroke-width="3.0" fill="none" stroke="rgb(0, 0, 0)" stroke-opacity="1.0" stroke-linecap="round" stroke-linejoin="round"/>
    <path d="M 117.6287612915039 88.35419464111328 C 133.64830017089844 90.37713623046875 154.07383728027344 80.06611633300781 170.4675750732422 106.22236633300781" stroke-width="3.0" fill="none" stroke="rgb(0, 0, 0)" stroke-opacity="1.0" stroke-linecap="round" stroke-linejoin="round"/>
    <path d="M 138.246337890625 121.36160278320312 C 125.03471374511719 127.77088165283203 128.39218139648438 136.1787872314453 136.68243408203125 121.32247161865234" stroke-width="3.0" fill="none" stroke="rgb(0, 0, 0)" stroke-opacity="1.0" stroke-linecap="round" stroke-linejoin="round"/>
    <path d="M 81.05410766601562 122.0579833984375 C 90.8047866821289 108.1141586303711 66.55728149414062 129.83551025390625 83.86994171142578 119.90071868896484" stroke-width="3.0" fill="none" stroke="rgb(0, 0, 0)" stroke-opacity="1.0" stroke-linecap="round" stroke-linejoin="round"/>
    <path d="M 139.32553100585938 126.78262329101562 C 127.70845794677734 171.52508544921875 142.96612548828125 155.08139038085938 96.4911880493164 184.43923950195312" stroke-width="3.0" fill="none" stroke="rgb(0, 0, 0)" stroke-opacity="1.0" stroke-linecap="round" stroke-linejoin="round"/>
    <path d="M 59.3554573059082 120.41259765625 C -9.60981273651123 180.29281616210938 55.15177917480469 154.34230041503906 17.067705154418945 169.40907287597656" stroke-width="3.0" fill="none" stroke="rgb(0, 0, 0)" stroke-opacity="1.0" stroke-linecap="round" stroke-linejoin="round"/>
    <path d="M 41.26298904418945 42.41510772705078 C 119.95018768310547 88.82112884521484 49.95267868041992 75.59446716308594 121.14422607421875 89.15055847167969" stroke-width="3.0" fill="none" stroke="rgb(0, 0, 0)" stroke-opacity="1.0" stroke-linecap="round" stroke-linejoin="round"/>
    <path d="M 135.6714630126953 159.91798400878906 C 150.36544799804688 117.1181411743164 153.01907348632812 154.97586059570312 179.55465698242188 108.7074966430664" stroke-width="3.0" fill="none" stroke="rgb(0, 0, 0)" stroke-opacity="1.0" stroke-linecap="round" stroke-linejoin="round"/>
    <path d="M 29.301321029663086 153.97149658203125 C 71.80696105957031 119.01384735107422 64.93087768554688 143.9398193359375 75.1850814819336 115.62045288085938" stroke-width="3.0" fill="none" stroke="rgb(0, 0, 0)" stroke-opacity="1.0" stroke-linecap="round" stroke-linejoin="round"/>
    <path d="M 158.9156494140625 119.00232696533203 C 139.9798583984375 127.73734283447266 137.64573669433594 117.8603744506836 133.59231567382812 130.48214721679688" stroke-width="3.0" fill="none" stroke="rgb(0, 0, 0)" stroke-opacity="1.0" stroke-linecap="round" stroke-linejoin="round"/>
    <path d="M 169.16891479492188 110.5202865600586 C 168.66290283203125 230.06654357910156 136.96812438964844 185.03765869140625 161.38417053222656 190.30801391601562" stroke-width="3.0" fill="none" stroke="rgb(0, 0, 0)" stroke-opacity="1.0" stroke-linecap="round" stroke-linejoin="round"/>
    <path d="M 13.006476402282715 73.223388671875 C 77.84762573242188 18.69882583618164 -15.85851001739502 63.99858474731445 66.90115356445312 47.99311447143555" stroke-width="3.0" fill="none" stroke="rgb(0, 0, 0)" stroke-opacity="1.0" stroke-linecap="round" stroke-linejoin="round"/>
    <path d="M 91.37140655517578 69.40274047851562 C 45.34910202026367 37.000789642333984 -10.506387710571289 37.91154861450195 84.59390258789062 58.644710540771484" stroke-width="3.0" fill="none" stroke="rgb(0, 0, 0)" stroke-opacity="1.0" stroke-linecap="round" stroke-linejoin="round"/>
  </g>
</svg>
