<?xml version="1.0" ?>
<svg xmlns="http://www.w3.org/2000/svg" version="1.1" width="224" height="224">
  <defs/>
  <g>
    <path d="M 81.31295776367188 120.27909851074219 C 91.6418685913086 128.31954956054688 79.8941879272461 125.03153228759766 81.09859466552734 119.6229019165039" stroke-width="3.0" fill="none" stroke="rgb(0, 0, 0)" stroke-opacity="1.0" stroke-linecap="round" stroke-linejoin="round"/>
    <path d="M 75.75292205810547 123.20999145507812 C 110.8692855834961 133.68490600585938 111.97859191894531 124.84970092773438 138.41014099121094 122.44049072265625" stroke-width="3.0" fill="none" stroke="rgb(0, 0, 0)" stroke-opacity="1.0" stroke-linecap="round" stroke-linejoin="round"/>
    <path d="M 152.63121032714844 93.1996841430664 C 226.28050231933594 126.29234313964844 191.44895935058594 132.0363311767578 213.70156860351562 146.54489135742188" stroke-width="3.0" fill="none" stroke="rgb(0, 0, 0)" stroke-opacity="1.0" stroke-linecap="round" stroke-linejoin="round"/>
    <path d="M 54.80525207519531 69.77155303955078 C 38.98211669921875 154.78713989257812 73.21659851074219 83.2586669921875 35.43510055541992 158.02316284179688" stroke-width="3.0" fill="none" stroke="rgb(0, 0, 0)" stroke-opacity="1.0" stroke-linecap="round" stroke-linejoin="round"/>
    <path d="M 124.0132064819336 89.24261474609375 C 138.8855438232422 91.66273498535156 152.05831909179688 81.99683380126953 170.35780334472656 108.01434326171875" stroke-width="3.0" fill="none" stroke="rgb(0, 0, 0)" stroke-opacity="1.0" stroke-linecap="round" stroke-linejoin="round"/>
    <path d="M 154.15158081054688 120.6151351928711 C 147.4771270751953 121.8230209350586 128.12159729003906 121.7959213256836 133.9982147216797 124.50215148925781" stroke-width="3.0" fill="none" stroke="rgb(0, 0, 0)" stroke-opacity="1.0" stroke-linecap="round" stroke-linejoin="round"/>
    <path d="M 79.34005737304688 121.47197723388672 C 92.9010238647461 115.60890197753906 65.15663146972656 130.73545837402344 83.41456604003906 112.98150634765625" stroke-width="3.0" fill="none" stroke="rgb(0, 0, 0)" stroke-opacity="1.0" stroke-linecap="round" stroke-linejoin="round"/>
    <path d="M 134.83160400390625 125.23579406738281 C 123.79560852050781 175.5950469970703 139.99063110351562 156.9704132080078 98.29061126708984 184.58224487304688" stroke-width="3.0" fill="none" stroke="rgb(0, 0, 0)" stroke-opacity="1.0" stroke-linecap="round" stroke-linejoin="round"/>
    <path d="M 53.817596435546875 129.0249786376953 C -0.59779953956604 171.05638122558594 55.51438903808594 152.05087280273438 16.765039443969727 168.45172119140625" stroke-width="3.0" fill="none" stroke="rgb(0, 0, 0)" stroke-opacity="1.0" stroke-linecap="round" stroke-linejoin="round"/>
    <path d="M 43.489253997802734 39.852691650390625 C 113.74906921386719 89.78463745117188 60.89662170410156 78.30152130126953 126.55147552490234 90.0750961303711" stroke-width="3.0" fill="none" stroke="rgb(0, 0, 0)" stroke-opacity="1.0" stroke-linecap="round" stroke-linejoin="round"/>
    <path d="M 133.9789581298828 158.30528259277344 C 150.83665466308594 118.5923843383789 148.5375213623047 152.66966247558594 181.62152099609375 109.27511596679688" stroke-width="3.0" fill="none" stroke="rgb(0, 0, 0)" stroke-opacity="1.0" stroke-linecap="round" stroke-linejoin="round"/>
    <path d="M 32.68986892700195 153.09552001953125 C 70.80113220214844 114.5779037475586 62.5782585144043 142.76785278320312 74.0466537475586 115.83116149902344" stroke-width="3.0" fill="none" stroke="rgb(0, 0, 0)" stroke-opacity="1.0" stroke-linecap="round" stroke-linejoin="round"/>
    <path d="M 150.2342987060547 117.07732391357422 C 133.14773559570312 130.70111083984375 131.27037048339844 127.92559051513672 138.7969970703125 134.7602081298828" stroke-width="3.0" fill="none" stroke="rgb(0, 0, 0)" stroke-opacity="1.0" stroke-linecap="round" stroke-linejoin="round"/>
    <path d="M 176.3375244140625 113.39195251464844 C 172.10960388183594 191.0888671875 133.85374450683594 208.49903869628906 158.93348693847656 189.6790771484375" stroke-width="3.0" fill="none" stroke="rgb(0, 0, 0)" stroke-opacity="1.0" stroke-linecap="round" stroke-linejoin="round"/>
    <path d="M 11.547311782836914 74.31758117675781 C 77.17176818847656 16.10578727722168 -25.492830276489258 72.07243347167969 69.94208526611328 52.227378845214844" stroke-width="3.0" fill="none" stroke="rgb(0, 0, 0)" stroke-opacity="1.0" stroke-linecap="round" stroke-linejoin="round"/>
    <path d="M 86.90668487548828 70.49758911132812 C 36.72698211669922 41.879852294921875 -2.5119028091430664 32.616310119628906 82.67288208007812 60.25528335571289" stroke-width="3.0" fill="none" stroke="rgb(0, 0, 0)" stroke-opacity="1.0" stroke-linecap="round" stroke-linejoin="round"/>
  </g>
</svg>
