<?xml version="1.0" ?>
<svg xmlns="http://www.w3.org/2000/svg" version="1.1" width="224" height="224">
  <defs/>
  <g>
    <path d="M 81.24156951904297 114.55281066894531 C 87.1467056274414 130.6707305908203 83.2737045288086 121.74885559082031 79.08943939208984 124.4078140258789" stroke-width="3.0" fill="none" stroke="rgb(0, 0, 0)" stroke-opacity="1.0" stroke-linecap="round" stroke-linejoin="round"/>
    <path d="M 75.97090911865234 123.9842758178711 C 118.6292495727539 135.68006896972656 110.10253143310547 125.91507720947266 142.07305908203125 120.49044036865234" stroke-width="3.0" fill="none" stroke="rgb(0, 0, 0)" stroke-opacity="1.0" stroke-linecap="round" stroke-linejoin="round"/>
    <path d="M 158.7803192138672 93.12399291992188 C 225.19810485839844 123.94270324707031 192.4647674560547 131.51132202148438 216.34225463867188 144.85765075683594" stroke-width="3.0" fill="none" stroke="rgb(0, 0, 0)" stroke-opacity="1.0" stroke-linecap="round" stroke-linejoin="round"/>
    <path d="M 57.871681213378906 60.81322479248047 C 41.11867141723633 158.5063934326172 81.30718231201172 82.60770416259766 34.656105041503906 157.231201171875" stroke-width="3.0" fill="none" stroke="rgb(0, 0, 0)" stroke-opacity="1.0" stroke-linecap="round" stroke-linejoin="round"/>
    <path d="M 124.36727905273438 87.7610855102539 C 134.98464965820312 88.97028350830078 151.99647521972656 81.49275970458984 171.2211151123047 105.09028625488281" stroke-width="3.0" fill="none" stroke="rgb(0, 0, 0)" stroke-opacity="1.0" stroke-linecap="round" stroke-linejoin="round"/>
    <path d="M 149.25070190429688 123.32312774658203 C 135.33680725097656 129.84922790527344 134.1227569580078 129.71426391601562 137.8621368408203 120.2932357788086" stroke-width="3.0" fill="none" stroke="rgb(0, 0, 0)" stroke-opacity="1.0" stroke-linecap="round" stroke-linejoin="round"/>
    <path d="M 79.23597717285156 119.867431640625 C 93.30950164794922 111.5471420288086 64.01315307617188 131.9463348388672 85.94135284423828 118.39633178710938" stroke-width="3.0" fill="none" stroke="rgb(0, 0, 0)" stroke-opacity="1.0" stroke-linecap="round" stroke-linejoin="round"/>
    <path d="M 138.31211853027344 128.4735870361328 C 121.17596435546875 174.34259033203125 138.87014770507812 154.3385772705078 99.4295883178711 184.8438720703125" stroke-width="3.0" fill="none" stroke="rgb(0, 0, 0)" stroke-opacity="1.0" stroke-linecap="round" stroke-linejoin="round"/>
    <path d="M 55.43937683105469 125.45136260986328 C -1.9780941009521484 173.08384704589844 54.959163665771484 154.21170043945312 14.99865436553955 167.99484252929688" stroke-width="3.0" fill="none" stroke="rgb(0, 0, 0)" stroke-opacity="1.0" stroke-linecap="round" stroke-linejoin="round"/>
    <path d="M 45.92123794555664 40.5329475402832 C 122.56375885009766 84.9215087890625 50.90195846557617 74.29530334472656 123.30599975585938 88.53854370117188" stroke-width="3.0" fill="none" stroke="rgb(0, 0, 0)" stroke-opacity="1.0" stroke-linecap="round" stroke-linejoin="round"/>
    <path d="M 131.12664794921875 158.35140991210938 C 149.5696258544922 114.63111877441406 153.13819885253906 153.71188354492188 182.4771270751953 108.8938980102539" stroke-width="3.0" fill="none" stroke="rgb(0, 0, 0)" stroke-opacity="1.0" stroke-linecap="round" stroke-linejoin="round"/>
    <path d="M 31.875587463378906 152.57069396972656 C 75.30413055419922 114.53607940673828 59.025203704833984 138.24803161621094 75.58035278320312 115.49417114257812" stroke-width="3.0" fill="none" stroke="rgb(0, 0, 0)" stroke-opacity="1.0" stroke-linecap="round" stroke-linejoin="round"/>
    <path d="M 151.9649200439453 115.37700653076172 C 133.39089965820312 128.018310546875 134.70013427734375 122.60305786132812 137.5442657470703 128.1060333251953" stroke-width="3.0" fill="none" stroke="rgb(0, 0, 0)" stroke-opacity="1.0" stroke-linecap="round" stroke-linejoin="round"/>
    <path d="M 174.2415313720703 107.65711975097656 C 171.02130126953125 226.97662353515625 128.20680236816406 187.0244140625 163.78372192382812 185.71595764160156" stroke-width="3.0" fill="none" stroke="rgb(0, 0, 0)" stroke-opacity="1.0" stroke-linecap="round" stroke-linejoin="round"/>
    <path d="M 11.346352577209473 76.03256225585938 C 75.27510070800781 15.418701171875 -18.015607833862305 71.1932144165039 65.41276550292969 45.06056594848633" stroke-width="3.0" fill="none" stroke="rgb(0, 0, 0)" stroke-opacity="1.0" stroke-linecap="round" stroke-linejoin="round"/>
    <path d="M 91.02725219726562 67.506103515625 C 48.90718460083008 33.38584518432617 -4.410606384277344 36.25807189941406 84.3320083618164 55.637447357177734" stroke-width="3.0" fill="none" stroke="rgb(0, 0, 0)" stroke-opacity="1.0" stroke-linecap="round" stroke-linejoin="round"/>
  </g>
</svg>
