<?xml version="1.0" ?>
<svg xmlns="http://www.w3.org/2000/svg" version="1.1" width="224" height="224">
  <defs/>
  <g>
    <path d="M 79.37596130371094 118.4505844116211 C 85.86944580078125 124.83008575439453 76.16287231445312 129.63600158691406 78.8636703491211 121.19979095458984" stroke-width="3.0" fill="none" stroke="rgb(0, 0, 0)" stroke-opacity="1.0" stroke-linecap="round" stroke-linejoin="round"/>
    <path d="M 74.81502532958984 124.15772247314453 C 112.685791015625 134.32725524902344 111.096435546875 125.9061508178711 133.13558959960938 126.66185760498047" stroke-width="3.0" fill="none" stroke="rgb(0, 0, 0)" stroke-opacity="1.0" stroke-linecap="round" stroke-linejoin="round"/>
    <path d="M 151.26556396484375 91.09599304199219 C 227.58987426757812 122.21824645996094 189.75772094726562 128.751708984375 217.8013458251953 142.44094848632812" stroke-width="3.0" fill="none" stroke="rgb(0, 0, 0)" stroke-opacity="1.0" stroke-linecap="round" stroke-linejoin="round"/>
    <path d="M 53.37376403808594 70.13235473632812 C 38.66389846801758 151.37721252441406 83.64225769042969 85.34344482421875 30.066287994384766 160.24818420410156" stroke-width="3.0" fill="none" stroke="rgb(0, 0, 0)" stroke-opacity="1.0" stroke-linecap="round" stroke-linejoin="round"/>
    <path d="M 118.99197387695312 87.4415054321289 C 139.02291870117188 90.98319244384766 151.5891876220703 85.05213165283203 172.10972595214844 103.37300872802734" stroke-width="3.0" fill="none" stroke="rgb(0, 0, 0)" stroke-opacity="1.0" stroke-linecap="round" stroke-linejoin="round"/>
    <path d="M 149.7117156982422 124.94564056396484 C 142.21026611328125 123.86997985839844 122.25833129882812 124.84734344482422 134.8260955810547 127.1562728881836" stroke-width="3.0" fill="none" stroke="rgb(0, 0, 0)" stroke-opacity="1.0" stroke-linecap="round" stroke-linejoin="round"/>
    <path d="M 77.20075988769531 122.97970581054688 C 86.64202880859375 122.95956420898438 67.40474700927734 133.720703125 83.82902526855469 109.46861267089844" stroke-width="3.0" fill="none" stroke="rgb(0, 0, 0)" stroke-opacity="1.0" stroke-linecap="round" stroke-linejoin="round"/>
    <path d="M 139.60411071777344 127.57953643798828 C 119.38762664794922 175.2685089111328 142.19432067871094 156.5904998779297 97.58122253417969 182.99020385742188" stroke-width="3.0" fill="none" stroke="rgb(0, 0, 0)" stroke-opacity="1.0" stroke-linecap="round" stroke-linejoin="round"/>
    <path d="M 55.856842041015625 127.41976165771484 C -4.583533763885498 176.56398010253906 47.542545318603516 157.89846801757812 17.245450973510742 167.80877685546875" stroke-width="3.0" fill="none" stroke="rgb(0, 0, 0)" stroke-opacity="1.0" stroke-linecap="round" stroke-linejoin="round"/>
    <path d="M 50.010746002197266 40.796653747558594 C 111.41425323486328 100.52085876464844 78.6773452758789 78.92622375488281 134.90670776367188 91.46910858154297" stroke-width="3.0" fill="none" stroke="rgb(0, 0, 0)" stroke-opacity="1.0" stroke-linecap="round" stroke-linejoin="round"/>
    <path d="M 131.22720336914062 160.3029327392578 C 148.6678924560547 117.75320434570312 153.16273498535156 151.114013671875 180.5614776611328 107.34671783447266" stroke-width="3.0" fill="none" stroke="rgb(0, 0, 0)" stroke-opacity="1.0" stroke-linecap="round" stroke-linejoin="round"/>
    <path d="M 30.050804138183594 154.23239135742188 C 79.31414031982422 119.94585418701172 61.00623321533203 148.09591674804688 74.70208740234375 114.10072326660156" stroke-width="3.0" fill="none" stroke="rgb(0, 0, 0)" stroke-opacity="1.0" stroke-linecap="round" stroke-linejoin="round"/>
    <path d="M 153.7318572998047 118.9731674194336 C 138.52288818359375 132.00697326660156 137.60736083984375 123.65808868408203 140.14048767089844 131.22518920898438" stroke-width="3.0" fill="none" stroke="rgb(0, 0, 0)" stroke-opacity="1.0" stroke-linecap="round" stroke-linejoin="round"/>
    <path d="M 173.3839569091797 110.09758758544922 C 177.39260864257812 175.41375732421875 145.0469207763672 193.94305419921875 162.9411163330078 190.7269744873047" stroke-width="3.0" fill="none" stroke="rgb(0, 0, 0)" stroke-opacity="1.0" stroke-linecap="round" stroke-linejoin="round"/>
    <path d="M 10.064359664916992 72.89772033691406 C 80.6584243774414 15.555922508239746 -17.407320022583008 63.803565979003906 66.39163970947266 46.394386291503906" stroke-width="3.0" fill="none" stroke="rgb(0, 0, 0)" stroke-opacity="1.0" stroke-linecap="round" stroke-linejoin="round"/>
    <path d="M 86.75370788574219 67.9806900024414 C 36.79450988769531 40.51741409301758 4.09827184677124 23.854251861572266 81.04110717773438 58.89925765991211" stroke-width="3.0" fill="none" stroke="rgb(0, 0, 0)" stroke-opacity="1.0" stroke-linecap="round" stroke-linejoin="round"/>
  </g>
</svg>
