<?xml version="1.0" ?>
<svg xmlns="http://www.w3.org/2000/svg" version="1.1" width="224" height="224">
  <defs/>
  <g>
    <path d="M 75.55524444580078 121.1655044555664 C 82.01530456542969 126.62667846679688 83.00135803222656 125.2757339477539 77.22998046875 116.67572021484375" stroke-width="3.0" fill="none" stroke="rgb(0, 0, 0)" stroke-opacity="1.0" stroke-linecap="round" stroke-linejoin="round"/>
    <path d="M 70.33971405029297 125.18070983886719 C 112.00597381591797 138.1194610595703 113.68536376953125 126.94615173339844 131.91497802734375 125.66075897216797" stroke-width="3.0" fill="none" stroke="rgb(0, 0, 0)" stroke-opacity="1.0" stroke-linecap="round" stroke-linejoin="round"/>
    <path d="M 156.46287536621094 92.30586242675781 C 227.84591674804688 122.01160430908203 192.28823852539062 129.4244842529297 216.146240234375 145.1112060546875" stroke-width="3.0" fill="none" stroke="rgb(0, 0, 0)" stroke-opacity="1.0" stroke-linecap="round" stroke-linejoin="round"/>
    <path d="M 50.022499084472656 67.87274932861328 C 39.14921188354492 144.01861572265625 79.05121612548828 85.06840515136719 33.46837615966797 158.98281860351562" stroke-width="3.0" fill="none" stroke="rgb(0, 0, 0)" stroke-opacity="1.0" stroke-linecap="round" stroke-linejoin="round"/>
    <path d="M 129.58602905273438 91.76139831542969 C 133.06544494628906 90.24971008300781 166.37625122070312 86.44178771972656 170.47764587402344 103.16889190673828" stroke-width="3.0" fill="none" stroke="rgb(0, 0, 0)" stroke-opacity="1.0" stroke-linecap="round" stroke-linejoin="round"/>
    <path d="M 135.6194305419922 123.65255737304688 C 137.25750732421875 124.7260513305664 121.08448791503906 127.81964111328125 135.19984436035156 123.52786254882812" stroke-width="3.0" fill="none" stroke="rgb(0, 0, 0)" stroke-opacity="1.0" stroke-linecap="round" stroke-linejoin="round"/>
    <path d="M 77.07353210449219 121.56107330322266 C 81.04493713378906 117.7674331665039 66.38653564453125 125.12030029296875 78.23260498046875 125.69483947753906" stroke-width="3.0" fill="none" stroke="rgb(0, 0, 0)" stroke-opacity="1.0" stroke-linecap="round" stroke-linejoin="round"/>
    <path d="M 142.3616943359375 125.86865234375 C 117.51232147216797 172.03257751464844 147.51451110839844 152.9082794189453 97.67052459716797 185.33840942382812" stroke-width="3.0" fill="none" stroke="rgb(0, 0, 0)" stroke-opacity="1.0" stroke-linecap="round" stroke-linejoin="round"/>
    <path d="M 58.337894439697266 120.24999237060547 C -4.544546604156494 174.30789184570312 51.87181854248047 155.04393005371094 16.363889694213867 169.9019012451172" stroke-width="3.0" fill="none" stroke="rgb(0, 0, 0)" stroke-opacity="1.0" stroke-linecap="round" stroke-linejoin="round"/>
    <path d="M 54.258182525634766 42.159542083740234 C 107.5542221069336 103.06092071533203 89.26407623291016 82.14163970947266 135.39906311035156 90.42156982421875" stroke-width="3.0" fill="none" stroke="rgb(0, 0, 0)" stroke-opacity="1.0" stroke-linecap="round" stroke-linejoin="round"/>
    <path d="M 133.07025146484375 159.0855255126953 C 152.1470947265625 117.47402954101562 152.68092346191406 157.8882293701172 176.1409912109375 106.5013427734375" stroke-width="3.0" fill="none" stroke="rgb(0, 0, 0)" stroke-opacity="1.0" stroke-linecap="round" stroke-linejoin="round"/>
    <path d="M 32.8382453918457 151.28343200683594 C 73.95882415771484 119.46691131591797 57.49519729614258 145.13783264160156 77.79314422607422 112.89949798583984" stroke-width="3.0" fill="none" stroke="rgb(0, 0, 0)" stroke-opacity="1.0" stroke-linecap="round" stroke-linejoin="round"/>
    <path d="M 146.51084899902344 119.79179382324219 C 134.48086547851562 124.66614532470703 135.82493591308594 108.99677276611328 134.82225036621094 128.94822692871094" stroke-width="3.0" fill="none" stroke="rgb(0, 0, 0)" stroke-opacity="1.0" stroke-linecap="round" stroke-linejoin="round"/>
    <path d="M 167.4893798828125 123.03472137451172 C 177.64434814453125 158.96292114257812 145.68923950195312 204.2780303955078 161.08145141601562 190.35462951660156" stroke-width="3.0" fill="none" stroke="rgb(0, 0, 0)" stroke-opacity="1.0" stroke-linecap="round" stroke-linejoin="round"/>
    <path d="M 14.412909507751465 72.47244262695312 C 78.91557312011719 13.629111289978027 -15.826061248779297 60.697086334228516 73.4397964477539 48.540374755859375" stroke-width="3.0" fill="none" stroke="rgb(0, 0, 0)" stroke-opacity="1.0" stroke-linecap="round" stroke-linejoin="round"/>
    <path d="M 84.13418579101562 67.34490966796875 C 39.95316696166992 39.499454498291016 7.718968391418457 25.45123863220215 80.30745697021484 56.9632682800293" stroke-width="3.0" fill="none" stroke="rgb(0, 0, 0)" stroke-opacity="1.0" stroke-linecap="round" stroke-linejoin="round"/>
  </g>
</svg>
