<?xml version="1.0" ?>
<svg xmlns="http://www.w3.org/2000/svg" version="1.1" width="224" height="224">
  <defs/>
  <g>
    <path d="M 78.28488159179688 111.0140380859375 C 85.53948974609375 133.91761779785156 85.69515228271484 120.14411926269531 77.52530670166016 126.73158264160156" stroke-width="3.0" fill="none" stroke="rgb(0, 0, 0)" stroke-opacity="1.0" stroke-linecap="round" stroke-linejoin="round"/>
    <path d="M 71.61651611328125 126.27146911621094 C 113.02046203613281 136.49192810058594 112.44992065429688 121.49581146240234 134.9331817626953 128.27911376953125" stroke-width="3.0" fill="none" stroke="rgb(0, 0, 0)" stroke-opacity="1.0" stroke-linecap="round" stroke-linejoin="round"/>
    <path d="M 166.43551635742188 96.11898803710938 C 220.9259796142578 121.49027252197266 192.82614135742188 132.85365295410156 220.3869171142578 142.0552520751953" stroke-width="3.0" fill="none" stroke="rgb(0, 0, 0)" stroke-opacity="1.0" stroke-linecap="round" stroke-linejoin="round"/>
    <path d="M 49.93508529663086 63.588623046875 C 55.95772171020508 152.6171417236328 71.4544448852539 74.34370422363281 37.70201110839844 157.5522918701172" stroke-width="3.0" fill="none" stroke="rgb(0, 0, 0)" stroke-opacity="1.0" stroke-linecap="round" stroke-linejoin="round"/>
    <path d="M 105.75081634521484 84.82002258300781 C 134.38278198242188 91.40116119384766 150.7827606201172 76.2220230102539 174.39727783203125 105.82624816894531" stroke-width="3.0" fill="none" stroke="rgb(0, 0, 0)" stroke-opacity="1.0" stroke-linecap="round" stroke-linejoin="round"/>
    <path d="M 133.78916931152344 124.77308654785156 C 136.1457977294922 124.80756378173828 137.95115661621094 127.28736114501953 130.08428955078125 125.45664978027344" stroke-width="3.0" fill="none" stroke="rgb(0, 0, 0)" stroke-opacity="1.0" stroke-linecap="round" stroke-linejoin="round"/>
    <path d="M 79.29843139648438 123.3148193359375 C 89.7249526977539 109.76876831054688 58.981082916259766 133.84283447265625 81.51605224609375 121.70431518554688" stroke-width="3.0" fill="none" stroke="rgb(0, 0, 0)" stroke-opacity="1.0" stroke-linecap="round" stroke-linejoin="round"/>
    <path d="M 139.5564727783203 127.02623748779297 C 120.75341033935547 175.23251342773438 139.00050354003906 154.8888397216797 98.24894714355469 183.14129638671875" stroke-width="3.0" fill="none" stroke="rgb(0, 0, 0)" stroke-opacity="1.0" stroke-linecap="round" stroke-linejoin="round"/>
    <path d="M 57.74449920654297 123.00739288330078 C -6.277097225189209 183.63343811035156 72.2833023071289 149.6193084716797 16.5701847076416 168.4520721435547" stroke-width="3.0" fill="none" stroke="rgb(0, 0, 0)" stroke-opacity="1.0" stroke-linecap="round" stroke-linejoin="round"/>
    <path d="M 39.25466537475586 37.18632125854492 C 113.31999969482422 84.01649475097656 47.89480209350586 68.62444305419922 115.68939971923828 87.7821044921875" stroke-width="3.0" fill="none" stroke="rgb(0, 0, 0)" stroke-opacity="1.0" stroke-linecap="round" stroke-linejoin="round"/>
    <path d="M 132.55458068847656 159.9151153564453 C 153.90899658203125 117.85159301757812 151.54025268554688 154.6641082763672 179.18020629882812 110.24990844726562" stroke-width="3.0" fill="none" stroke="rgb(0, 0, 0)" stroke-opacity="1.0" stroke-linecap="round" stroke-linejoin="round"/>
    <path d="M 31.478483200073242 153.39125061035156 C 68.67813110351562 116.3852310180664 63.24964904785156 145.7948455810547 70.92940521240234 113.7190933227539" stroke-width="3.0" fill="none" stroke="rgb(0, 0, 0)" stroke-opacity="1.0" stroke-linecap="round" stroke-linejoin="round"/>
    <path d="M 158.08267211914062 116.93006134033203 C 135.5447235107422 128.1790008544922 151.0915069580078 116.25646209716797 123.02318572998047 126.59637451171875" stroke-width="3.0" fill="none" stroke="rgb(0, 0, 0)" stroke-opacity="1.0" stroke-linecap="round" stroke-linejoin="round"/>
    <path d="M 172.4683074951172 109.79043579101562 C 168.0999755859375 227.41033935546875 136.48818969726562 181.32408142089844 161.40977478027344 189.61219787597656" stroke-width="3.0" fill="none" stroke="rgb(0, 0, 0)" stroke-opacity="1.0" stroke-linecap="round" stroke-linejoin="round"/>
    <path d="M 13.171363830566406 76.7471923828125 C 59.687129974365234 17.416288375854492 -12.943618774414062 79.54751586914062 51.48307800292969 35.28715896606445" stroke-width="3.0" fill="none" stroke="rgb(0, 0, 0)" stroke-opacity="1.0" stroke-linecap="round" stroke-linejoin="round"/>
    <path d="M 91.2056884765625 74.96475982666016 C 67.17840576171875 23.667739868164062 -11.553755760192871 36.23279571533203 84.12522888183594 55.03134536743164" stroke-width="3.0" fill="none" stroke="rgb(0, 0, 0)" stroke-opacity="1.0" stroke-linecap="round" stroke-linejoin="round"/>
  </g>
</svg>
