<?xml version="1.0" ?>
<svg xmlns="http://www.w3.org/2000/svg" version="1.1" width="224" height="224">
  <defs/>
  <g>
    <path d="M 85.80976867675781 124.34400939941406 C 81.58831024169922 122.45160675048828 80.49408721923828 123.56548309326172 75.63639068603516 116.0907211303711" stroke-width="3.0" fill="none" stroke="rgb(0, 0, 0)" stroke-opacity="1.0" stroke-linecap="round" stroke-linejoin="round"/>
    <path d="M 75.99835968017578 124.55233001708984 C 93.18004608154297 140.38729858398438 115.81072235107422 124.04537200927734 133.8841552734375 124.68824005126953" stroke-width="3.0" fill="none" stroke="rgb(0, 0, 0)" stroke-opacity="1.0" stroke-linecap="round" stroke-linejoin="round"/>
    <path d="M 155.2652130126953 91.2413101196289 C 229.7420654296875 120.00387573242188 188.74514770507812 130.4829864501953 214.72357177734375 146.0043487548828" stroke-width="3.0" fill="none" stroke="rgb(0, 0, 0)" stroke-opacity="1.0" stroke-linecap="round" stroke-linejoin="round"/>
    <path d="M 61.761417388916016 77.44404602050781 C 49.17817306518555 149.01458740234375 96.61314392089844 101.34626007080078 34.790374755859375 153.6703643798828" stroke-width="3.0" fill="none" stroke="rgb(0, 0, 0)" stroke-opacity="1.0" stroke-linecap="round" stroke-linejoin="round"/>
    <path d="M 129.69174194335938 88.58960723876953 C 139.39556884765625 90.74409484863281 164.55722045898438 85.82646942138672 177.49703979492188 107.7332992553711" stroke-width="3.0" fill="none" stroke="rgb(0, 0, 0)" stroke-opacity="1.0" stroke-linecap="round" stroke-linejoin="round"/>
    <path d="M 134.1912384033203 120.97090148925781 C 132.54420471191406 118.88639831542969 118.79295349121094 127.9279556274414 124.4985580444336 124.76274108886719" stroke-width="3.0" fill="none" stroke="rgb(0, 0, 0)" stroke-opacity="1.0" stroke-linecap="round" stroke-linejoin="round"/>
    <path d="M 79.44404602050781 123.52285766601562 C 78.5245590209961 117.496337890625 67.11568450927734 121.25411224365234 84.04034423828125 123.82857513427734" stroke-width="3.0" fill="none" stroke="rgb(0, 0, 0)" stroke-opacity="1.0" stroke-linecap="round" stroke-linejoin="round"/>
    <path d="M 139.5926513671875 134.725830078125 C 128.21290588378906 171.30349731445312 149.62713623046875 150.2439727783203 97.77244567871094 185.6923828125" stroke-width="3.0" fill="none" stroke="rgb(0, 0, 0)" stroke-opacity="1.0" stroke-linecap="round" stroke-linejoin="round"/>
    <path d="M 60.944393157958984 115.45930480957031 C 1.925264835357666 174.75027465820312 48.15718078613281 151.73313903808594 14.564240455627441 168.75985717773438" stroke-width="3.0" fill="none" stroke="rgb(0, 0, 0)" stroke-opacity="1.0" stroke-linecap="round" stroke-linejoin="round"/>
    <path d="M 62.126583099365234 44.57271194458008 C 98.38336181640625 102.76996612548828 100.1277847290039 81.40849304199219 141.65940856933594 90.42893981933594" stroke-width="3.0" fill="none" stroke="rgb(0, 0, 0)" stroke-opacity="1.0" stroke-linecap="round" stroke-linejoin="round"/>
    <path d="M 140.23561096191406 138.7127685546875 C 148.83535766601562 131.01600646972656 140.75051879882812 141.83209228515625 175.71266174316406 113.23115539550781" stroke-width="3.0" fill="none" stroke="rgb(0, 0, 0)" stroke-opacity="1.0" stroke-linecap="round" stroke-linejoin="round"/>
    <path d="M 46.130741119384766 138.81532287597656 C 79.19336700439453 123.49211120605469 75.38402557373047 138.72943115234375 75.40554809570312 113.29943084716797" stroke-width="3.0" fill="none" stroke="rgb(0, 0, 0)" stroke-opacity="1.0" stroke-linecap="round" stroke-linejoin="round"/>
    <path d="M 139.30990600585938 115.10848236083984 C 129.825439453125 126.77922821044922 134.68019104003906 125.6785888671875 132.12994384765625 122.78681182861328" stroke-width="3.0" fill="none" stroke="rgb(0, 0, 0)" stroke-opacity="1.0" stroke-linecap="round" stroke-linejoin="round"/>
    <path d="M 168.70993041992188 125.49130249023438 C 187.69879150390625 150.37838745117188 139.63990783691406 206.004638671875 159.9242401123047 194.78773498535156" stroke-width="3.0" fill="none" stroke="rgb(0, 0, 0)" stroke-opacity="1.0" stroke-linecap="round" stroke-linejoin="round"/>
    <path d="M 13.962300300598145 73.97724914550781 C 78.5050048828125 5.709034442901611 -7.487555027008057 63.146392822265625 69.50865936279297 39.52672576904297" stroke-width="3.0" fill="none" stroke="rgb(0, 0, 0)" stroke-opacity="1.0" stroke-linecap="round" stroke-linejoin="round"/>
    <path d="M 85.9548110961914 67.83964538574219 C 46.81819152832031 41.87603759765625 22.82190704345703 27.466955184936523 83.45170593261719 48.74810028076172" stroke-width="3.0" fill="none" stroke="rgb(0, 0, 0)" stroke-opacity="1.0" stroke-linecap="round" stroke-linejoin="round"/>
  </g>
</svg>
