<?xml version="1.0" ?>
<svg xmlns="http://www.w3.org/2000/svg" version="1.1" width="224" height="224">
  <defs/>
  <g>
    <path d="M 75.49789428710938 120.8988265991211 C 81.03194427490234 125.83738708496094 83.42894744873047 124.28861236572266 77.09183502197266 117.3355941772461" stroke-width="3.0" fill="none" stroke="rgb(0, 0, 0)" stroke-opacity="1.0" stroke-linecap="round" stroke-linejoin="round"/>
    <path d="M 73.84496307373047 126.22587585449219 C 109.06685638427734 137.23239135742188 117.74812316894531 126.96206665039062 131.67347717285156 124.86088562011719" stroke-width="3.0" fill="none" stroke="rgb(0, 0, 0)" stroke-opacity="1.0" stroke-linecap="round" stroke-linejoin="round"/>
    <path d="M 157.78265380859375 92.79369354248047 C 228.37380981445312 118.28365325927734 192.64324951171875 131.25872802734375 213.13475036621094 144.4402313232422" stroke-width="3.0" fill="none" stroke="rgb(0, 0, 0)" stroke-opacity="1.0" stroke-linecap="round" stroke-linejoin="round"/>
    <path d="M 53.678409576416016 69.15509796142578 C 33.237327575683594 145.80543518066406 76.70345306396484 90.186767578125 33.41777038574219 159.44107055664062" stroke-width="3.0" fill="none" stroke="rgb(0, 0, 0)" stroke-opacity="1.0" stroke-linecap="round" stroke-linejoin="round"/>
    <path d="M 130.77101135253906 90.02503204345703 C 130.80905151367188 89.61920166015625 169.65306091308594 87.59750366210938 174.4704132080078 105.02246856689453" stroke-width="3.0" fill="none" stroke="rgb(0, 0, 0)" stroke-opacity="1.0" stroke-linecap="round" stroke-linejoin="round"/>
    <path d="M 133.81887817382812 122.1187744140625 C 135.2814483642578 125.58425903320312 118.73471069335938 128.44354248046875 130.55621337890625 125.99119567871094" stroke-width="3.0" fill="none" stroke="rgb(0, 0, 0)" stroke-opacity="1.0" stroke-linecap="round" stroke-linejoin="round"/>
    <path d="M 77.04080200195312 121.60871124267578 C 80.92640686035156 117.1728286743164 67.72616577148438 124.40019989013672 78.2067642211914 123.55062103271484" stroke-width="3.0" fill="none" stroke="rgb(0, 0, 0)" stroke-opacity="1.0" stroke-linecap="round" stroke-linejoin="round"/>
    <path d="M 140.81678771972656 126.82730102539062 C 119.85713195800781 173.3387908935547 146.9907989501953 155.1874237060547 96.494384765625 184.27980041503906" stroke-width="3.0" fill="none" stroke="rgb(0, 0, 0)" stroke-opacity="1.0" stroke-linecap="round" stroke-linejoin="round"/>
    <path d="M 59.529197692871094 120.22051239013672 C -2.291952610015869 175.482177734375 53.7420768737793 157.87632751464844 16.025920867919922 170.4769287109375" stroke-width="3.0" fill="none" stroke="rgb(0, 0, 0)" stroke-opacity="1.0" stroke-linecap="round" stroke-linejoin="round"/>
    <path d="M 53.62081527709961 42.46080017089844 C 108.51346588134766 101.25643920898438 93.47096252441406 80.67017364501953 134.09962463378906 91.44467163085938" stroke-width="3.0" fill="none" stroke="rgb(0, 0, 0)" stroke-opacity="1.0" stroke-linecap="round" stroke-linejoin="round"/>
    <path d="M 135.1240997314453 159.96142578125 C 151.4384307861328 117.566650390625 151.51266479492188 157.1458282470703 178.61126708984375 108.86289978027344" stroke-width="3.0" fill="none" stroke="rgb(0, 0, 0)" stroke-opacity="1.0" stroke-linecap="round" stroke-linejoin="round"/>
    <path d="M 30.56637954711914 152.97853088378906 C 71.86649322509766 118.72306823730469 58.1767463684082 143.44485473632812 77.34742736816406 113.85194396972656" stroke-width="3.0" fill="none" stroke="rgb(0, 0, 0)" stroke-opacity="1.0" stroke-linecap="round" stroke-linejoin="round"/>
    <path d="M 148.19322204589844 116.62349700927734 C 131.6356201171875 128.66172790527344 140.2452850341797 114.63866424560547 135.46063232421875 125.72868347167969" stroke-width="3.0" fill="none" stroke="rgb(0, 0, 0)" stroke-opacity="1.0" stroke-linecap="round" stroke-linejoin="round"/>
    <path d="M 170.43031311035156 121.73025512695312 C 177.68804931640625 152.0128936767578 143.38446044921875 198.88095092773438 162.35467529296875 189.64918518066406" stroke-width="3.0" fill="none" stroke="rgb(0, 0, 0)" stroke-opacity="1.0" stroke-linecap="round" stroke-linejoin="round"/>
    <path d="M 14.423781394958496 77.77373504638672 C 82.73908996582031 16.6809139251709 -15.929939270019531 60.07118225097656 73.71815490722656 46.27851486206055" stroke-width="3.0" fill="none" stroke="rgb(0, 0, 0)" stroke-opacity="1.0" stroke-linecap="round" stroke-linejoin="round"/>
    <path d="M 85.24073028564453 67.37842559814453 C 39.01528549194336 42.66210174560547 9.080530166625977 27.06660270690918 80.05768585205078 55.85009765625" stroke-width="3.0" fill="none" stroke="rgb(0, 0, 0)" stroke-opacity="1.0" stroke-linecap="round" stroke-linejoin="round"/>
  </g>
</svg>
