<?xml version="1.0" ?>
<svg xmlns="http://www.w3.org/2000/svg" version="1.1" width="224" height="224">
  <defs/>
  <g>
    <path d="M 78.53534698486328 111.85233306884766 C 89.59635925292969 129.96446228027344 79.9928207397461 119.28240203857422 75.89883422851562 120.20137023925781" stroke-width="3.0" fill="none" stroke="rgb(0, 0, 0)" stroke-opacity="1.0" stroke-linecap="round" stroke-linejoin="round"/>
    <path d="M 73.48040771484375 121.83929443359375 C 116.37825012207031 134.83860778808594 108.82404327392578 125.95512390136719 135.3743133544922 126.5596694946289" stroke-width="3.0" fill="none" stroke="rgb(0, 0, 0)" stroke-opacity="1.0" stroke-linecap="round" stroke-linejoin="round"/>
    <path d="M 166.7118682861328 96.50362396240234 C 220.01199340820312 123.06912231445312 188.30294799804688 133.01983642578125 218.11012268066406 143.47467041015625" stroke-width="3.0" fill="none" stroke="rgb(0, 0, 0)" stroke-opacity="1.0" stroke-linecap="round" stroke-linejoin="round"/>
    <path d="M 46.16292953491211 69.42620849609375 C 54.90968322753906 154.280517578125 66.1835708618164 73.97144317626953 36.51665496826172 157.99783325195312" stroke-width="3.0" fill="none" stroke="rgb(0, 0, 0)" stroke-opacity="1.0" stroke-linecap="round" stroke-linejoin="round"/>
    <path d="M 110.44111633300781 86.38875579833984 C 140.2395477294922 91.12419891357422 151.2515411376953 79.17588806152344 173.5828094482422 105.90657043457031" stroke-width="3.0" fill="none" stroke="rgb(0, 0, 0)" stroke-opacity="1.0" stroke-linecap="round" stroke-linejoin="round"/>
    <path d="M 135.75860595703125 126.69450378417969 C 132.87294006347656 127.30011749267578 138.99386596679688 129.6476287841797 135.85911560058594 123.131591796875" stroke-width="3.0" fill="none" stroke="rgb(0, 0, 0)" stroke-opacity="1.0" stroke-linecap="round" stroke-linejoin="round"/>
    <path d="M 77.1265869140625 122.09779357910156 C 91.65370178222656 105.65869140625 59.80597686767578 129.2826385498047 81.53472137451172 119.48908996582031" stroke-width="3.0" fill="none" stroke="rgb(0, 0, 0)" stroke-opacity="1.0" stroke-linecap="round" stroke-linejoin="round"/>
    <path d="M 141.7511444091797 127.89146423339844 C 119.39115142822266 175.11949157714844 143.91064453125 156.1922607421875 98.1566162109375 183.79347229003906" stroke-width="3.0" fill="none" stroke="rgb(0, 0, 0)" stroke-opacity="1.0" stroke-linecap="round" stroke-linejoin="round"/>
    <path d="M 54.819766998291016 126.07682800292969 C -8.237092018127441 182.48260498046875 66.26748657226562 152.21546936035156 16.6787166595459 169.31834411621094" stroke-width="3.0" fill="none" stroke="rgb(0, 0, 0)" stroke-opacity="1.0" stroke-linecap="round" stroke-linejoin="round"/>
    <path d="M 31.409677505493164 37.691078186035156 C 120.95384216308594 88.71438598632812 44.931640625 68.95631408691406 112.97209167480469 87.29671478271484" stroke-width="3.0" fill="none" stroke="rgb(0, 0, 0)" stroke-opacity="1.0" stroke-linecap="round" stroke-linejoin="round"/>
    <path d="M 130.2879180908203 164.16717529296875 C 153.12109375 116.83893585205078 146.26344299316406 155.44607543945312 182.30194091796875 106.92916107177734" stroke-width="3.0" fill="none" stroke="rgb(0, 0, 0)" stroke-opacity="1.0" stroke-linecap="round" stroke-linejoin="round"/>
    <path d="M 32.41108703613281 154.06451416015625 C 70.02394104003906 114.28316497802734 61.130977630615234 143.24295043945312 70.22395324707031 114.85977935791016" stroke-width="3.0" fill="none" stroke="rgb(0, 0, 0)" stroke-opacity="1.0" stroke-linecap="round" stroke-linejoin="round"/>
    <path d="M 156.02084350585938 118.91227722167969 C 143.70474243164062 128.67662048339844 147.1923065185547 122.69351196289062 127.76779174804688 125.36442565917969" stroke-width="3.0" fill="none" stroke="rgb(0, 0, 0)" stroke-opacity="1.0" stroke-linecap="round" stroke-linejoin="round"/>
    <path d="M 172.17225646972656 111.04855346679688 C 167.25938415527344 223.3098907470703 139.39019775390625 179.50230407714844 162.79901123046875 188.34706115722656" stroke-width="3.0" fill="none" stroke="rgb(0, 0, 0)" stroke-opacity="1.0" stroke-linecap="round" stroke-linejoin="round"/>
    <path d="M 14.204408645629883 75.695556640625 C 66.05182647705078 14.104714393615723 -8.420735359191895 77.93463134765625 50.854061126708984 41.00947189331055" stroke-width="3.0" fill="none" stroke="rgb(0, 0, 0)" stroke-opacity="1.0" stroke-linecap="round" stroke-linejoin="round"/>
    <path d="M 84.66182708740234 74.10910034179688 C 51.525550842285156 26.838539123535156 -8.560205459594727 38.198490142822266 78.37779235839844 56.876747131347656" stroke-width="3.0" fill="none" stroke="rgb(0, 0, 0)" stroke-opacity="1.0" stroke-linecap="round" stroke-linejoin="round"/>
  </g>
</svg>
