<?xml version="1.0" ?>
<svg xmlns="http://www.w3.org/2000/svg" version="1.1" width="224" height="224">
  <defs/>
  <g>
    <path d="M 76.8472671508789 121.9881820678711 C 86.0082778930664 125.14488983154297 85.18087005615234 123.90155792236328 75.16758728027344 116.09061431884766" stroke-width="3.0" fill="none" stroke="rgb(0, 0, 0)" stroke-opacity="1.0" stroke-linecap="round" stroke-linejoin="round"/>
    <path d="M 74.7309799194336 124.68916320800781 C 108.98802185058594 133.8025360107422 123.96701049804688 124.45430755615234 133.05621337890625 125.68270111083984" stroke-width="3.0" fill="none" stroke="rgb(0, 0, 0)" stroke-opacity="1.0" stroke-linecap="round" stroke-linejoin="round"/>
    <path d="M 155.9060516357422 93.19742584228516 C 223.59011840820312 117.20063781738281 190.4684600830078 132.38189697265625 216.1107940673828 143.10922241210938" stroke-width="3.0" fill="none" stroke="rgb(0, 0, 0)" stroke-opacity="1.0" stroke-linecap="round" stroke-linejoin="round"/>
    <path d="M 58.743804931640625 70.62284851074219 C 34.216129302978516 143.08950805664062 77.99455261230469 87.76866912841797 32.78323745727539 158.63201904296875" stroke-width="3.0" fill="none" stroke="rgb(0, 0, 0)" stroke-opacity="1.0" stroke-linecap="round" stroke-linejoin="round"/>
    <path d="M 129.076904296875 88.80415344238281 C 133.15274047851562 90.63214111328125 169.4066162109375 86.7457275390625 176.16256713867188 107.4933853149414" stroke-width="3.0" fill="none" stroke="rgb(0, 0, 0)" stroke-opacity="1.0" stroke-linecap="round" stroke-linejoin="round"/>
    <path d="M 131.1155242919922 126.31947326660156 C 135.1581268310547 127.04889678955078 116.51070404052734 128.267578125 124.55621337890625 126.67562103271484" stroke-width="3.0" fill="none" stroke="rgb(0, 0, 0)" stroke-opacity="1.0" stroke-linecap="round" stroke-linejoin="round"/>
    <path d="M 77.42901611328125 122.53150177001953 C 77.13015747070312 117.49298095703125 67.72107696533203 121.94216918945312 79.13941192626953 123.609375" stroke-width="3.0" fill="none" stroke="rgb(0, 0, 0)" stroke-opacity="1.0" stroke-linecap="round" stroke-linejoin="round"/>
    <path d="M 136.9427947998047 127.41184997558594 C 125.77976989746094 171.59249877929688 144.9654541015625 154.43919372558594 98.93403625488281 185.64830017089844" stroke-width="3.0" fill="none" stroke="rgb(0, 0, 0)" stroke-opacity="1.0" stroke-linecap="round" stroke-linejoin="round"/>
    <path d="M 58.906246185302734 122.78079223632812 C -2.168004274368286 175.0211181640625 51.63960266113281 157.15843200683594 16.348922729492188 169.62835693359375" stroke-width="3.0" fill="none" stroke="rgb(0, 0, 0)" stroke-opacity="1.0" stroke-linecap="round" stroke-linejoin="round"/>
    <path d="M 51.89796447753906 38.241329193115234 C 105.7165298461914 101.79661560058594 90.72025299072266 78.38960266113281 133.83688354492188 90.5811996459961" stroke-width="3.0" fill="none" stroke="rgb(0, 0, 0)" stroke-opacity="1.0" stroke-linecap="round" stroke-linejoin="round"/>
    <path d="M 135.879150390625 160.43936157226562 C 149.6461639404297 121.56633758544922 142.97564697265625 149.1992950439453 176.3612060546875 113.47277069091797" stroke-width="3.0" fill="none" stroke="rgb(0, 0, 0)" stroke-opacity="1.0" stroke-linecap="round" stroke-linejoin="round"/>
    <path d="M 27.752567291259766 153.4727020263672 C 74.78601837158203 123.34506225585938 64.80829620361328 140.5098876953125 74.36695098876953 115.6688232421875" stroke-width="3.0" fill="none" stroke="rgb(0, 0, 0)" stroke-opacity="1.0" stroke-linecap="round" stroke-linejoin="round"/>
    <path d="M 142.71994018554688 126.86451721191406 C 128.55018615722656 119.14202880859375 137.06329345703125 122.83325958251953 136.7720489501953 124.08817291259766" stroke-width="3.0" fill="none" stroke="rgb(0, 0, 0)" stroke-opacity="1.0" stroke-linecap="round" stroke-linejoin="round"/>
    <path d="M 172.59228515625 123.3309555053711 C 182.526611328125 148.10731506347656 141.6470184326172 202.03494262695312 161.89183044433594 193.78961181640625" stroke-width="3.0" fill="none" stroke="rgb(0, 0, 0)" stroke-opacity="1.0" stroke-linecap="round" stroke-linejoin="round"/>
    <path d="M 14.137491226196289 76.01678466796875 C 79.4335708618164 11.277079582214355 -13.864700317382812 58.47166061401367 71.3876953125 47.49470138549805" stroke-width="3.0" fill="none" stroke="rgb(0, 0, 0)" stroke-opacity="1.0" stroke-linecap="round" stroke-linejoin="round"/>
    <path d="M 85.16674041748047 63.92471694946289 C 41.77445983886719 42.267269134521484 15.35598373413086 24.364168167114258 79.1646499633789 55.04222106933594" stroke-width="3.0" fill="none" stroke="rgb(0, 0, 0)" stroke-opacity="1.0" stroke-linecap="round" stroke-linejoin="round"/>
  </g>
</svg>
