<?xml version="1.0" ?>
<svg xmlns="http://www.w3.org/2000/svg" version="1.1" width="224" height="224">
  <defs/>
  <g>
    <path d="M 78.50489807128906 111.07538604736328 C 95.81437683105469 130.07510375976562 84.2584228515625 121.84060668945312 81.21294403076172 119.34683990478516" stroke-width="3.0" fill="none" stroke="rgb(0, 0, 0)" stroke-opacity="1.0" stroke-linecap="round" stroke-linejoin="round"/>
    <path d="M 79.0925521850586 122.79344940185547 C 119.74302673339844 135.2617645263672 118.27778625488281 127.83942413330078 135.76568603515625 120.7343978881836" stroke-width="3.0" fill="none" stroke="rgb(0, 0, 0)" stroke-opacity="1.0" stroke-linecap="round" stroke-linejoin="round"/>
    <path d="M 167.0204315185547 96.41409301757812 C 220.10992431640625 120.06282806396484 192.9002685546875 132.25416564941406 215.60797119140625 143.56199645996094" stroke-width="3.0" fill="none" stroke="rgb(0, 0, 0)" stroke-opacity="1.0" stroke-linecap="round" stroke-linejoin="round"/>
    <path d="M 51.28022384643555 66.51849365234375 C 42.878936767578125 154.3771514892578 72.32624816894531 77.45951080322266 31.170513153076172 158.18630981445312" stroke-width="3.0" fill="none" stroke="rgb(0, 0, 0)" stroke-opacity="1.0" stroke-linecap="round" stroke-linejoin="round"/>
    <path d="M 119.24465942382812 89.97954559326172 C 137.4915771484375 91.16146087646484 156.7401580810547 76.77337646484375 170.33584594726562 104.96125793457031" stroke-width="3.0" fill="none" stroke="rgb(0, 0, 0)" stroke-opacity="1.0" stroke-linecap="round" stroke-linejoin="round"/>
    <path d="M 140.03805541992188 124.07876586914062 C 122.65670013427734 123.44466400146484 127.53195190429688 128.47496032714844 132.971923828125 121.62079620361328" stroke-width="3.0" fill="none" stroke="rgb(0, 0, 0)" stroke-opacity="1.0" stroke-linecap="round" stroke-linejoin="round"/>
    <path d="M 82.08352661132812 121.7027587890625 C 90.9858627319336 105.39168548583984 68.08058166503906 130.0832061767578 84.94691467285156 120.43986511230469" stroke-width="3.0" fill="none" stroke="rgb(0, 0, 0)" stroke-opacity="1.0" stroke-linecap="round" stroke-linejoin="round"/>
    <path d="M 138.88107299804688 125.60057067871094 C 122.91487884521484 171.4926300048828 142.34815979003906 156.28485107421875 100.08028411865234 186.3264617919922" stroke-width="3.0" fill="none" stroke="rgb(0, 0, 0)" stroke-opacity="1.0" stroke-linecap="round" stroke-linejoin="round"/>
    <path d="M 61.24415969848633 117.56906127929688 C -11.75235652923584 180.7223358154297 55.024906158447266 151.6026153564453 14.950159072875977 170.00213623046875" stroke-width="3.0" fill="none" stroke="rgb(0, 0, 0)" stroke-opacity="1.0" stroke-linecap="round" stroke-linejoin="round"/>
    <path d="M 40.899356842041016 41.1972541809082 C 123.34856414794922 89.5396499633789 52.75860595703125 74.44462585449219 119.52268981933594 90.1784439086914" stroke-width="3.0" fill="none" stroke="rgb(0, 0, 0)" stroke-opacity="1.0" stroke-linecap="round" stroke-linejoin="round"/>
    <path d="M 133.4410858154297 159.19381713867188 C 146.7147979736328 114.48004150390625 151.42013549804688 155.4530792236328 180.47706604003906 105.600341796875" stroke-width="3.0" fill="none" stroke="rgb(0, 0, 0)" stroke-opacity="1.0" stroke-linecap="round" stroke-linejoin="round"/>
    <path d="M 30.082740783691406 154.2725067138672 C 68.06427001953125 118.7424087524414 63.305301666259766 146.38914489746094 74.79618835449219 113.8821029663086" stroke-width="3.0" fill="none" stroke="rgb(0, 0, 0)" stroke-opacity="1.0" stroke-linecap="round" stroke-linejoin="round"/>
    <path d="M 152.08407592773438 121.9885025024414 C 137.48434448242188 128.7631378173828 136.3651123046875 120.07994079589844 132.90341186523438 125.171142578125" stroke-width="3.0" fill="none" stroke="rgb(0, 0, 0)" stroke-opacity="1.0" stroke-linecap="round" stroke-linejoin="round"/>
    <path d="M 172.02577209472656 111.10922241210938 C 165.1907196044922 228.73886108398438 133.34153747558594 183.4869384765625 160.88388061523438 187.9433135986328" stroke-width="3.0" fill="none" stroke="rgb(0, 0, 0)" stroke-opacity="1.0" stroke-linecap="round" stroke-linejoin="round"/>
    <path d="M 17.98887062072754 76.77571105957031 C 70.66131591796875 22.78643798828125 -22.062780380249023 69.10442352294922 67.25276184082031 48.260658264160156" stroke-width="3.0" fill="none" stroke="rgb(0, 0, 0)" stroke-opacity="1.0" stroke-linecap="round" stroke-linejoin="round"/>
    <path d="M 92.23039245605469 70.39029693603516 C 47.186485290527344 33.3652458190918 -11.969287872314453 36.288272857666016 83.04383087158203 57.67345428466797" stroke-width="3.0" fill="none" stroke="rgb(0, 0, 0)" stroke-opacity="1.0" stroke-linecap="round" stroke-linejoin="round"/>
  </g>
</svg>
