<?xml version="1.0" ?>
<svg xmlns="http://www.w3.org/2000/svg" version="1.1" width="224" height="224">
  <defs/>
  <g>
    <path d="M 78.37771606445312 123.96817016601562 C 90.52960968017578 128.68031311035156 83.98013305664062 129.89735412597656 82.33915710449219 115.21361541748047" stroke-width="3.0" fill="none" stroke="rgb(0, 0, 0)" stroke-opacity="1.0" stroke-linecap="round" stroke-linejoin="round"/>
    <path d="M 76.86119842529297 125.06501007080078 C 109.0215072631836 133.85629272460938 111.33229064941406 125.70782470703125 134.7259979248047 125.36262512207031" stroke-width="3.0" fill="none" stroke="rgb(0, 0, 0)" stroke-opacity="1.0" stroke-linecap="round" stroke-linejoin="round"/>
    <path d="M 150.76016235351562 91.70845794677734 C 230.65985107421875 118.71461486816406 190.29856872558594 131.61065673828125 215.81092834472656 145.19760131835938" stroke-width="3.0" fill="none" stroke="rgb(0, 0, 0)" stroke-opacity="1.0" stroke-linecap="round" stroke-linejoin="round"/>
    <path d="M 60.23309326171875 72.51199340820312 C 37.36876678466797 143.8621063232422 82.81388092041016 80.7096939086914 34.70124435424805 158.47845458984375" stroke-width="3.0" fill="none" stroke="rgb(0, 0, 0)" stroke-opacity="1.0" stroke-linecap="round" stroke-linejoin="round"/>
    <path d="M 123.95942687988281 88.86538696289062 C 136.8406524658203 91.3835678100586 156.91651916503906 84.07550811767578 173.5461883544922 107.01451110839844" stroke-width="3.0" fill="none" stroke="rgb(0, 0, 0)" stroke-opacity="1.0" stroke-linecap="round" stroke-linejoin="round"/>
    <path d="M 138.6627197265625 124.5318374633789 C 138.4073944091797 121.80044555664062 123.13381958007812 124.05470275878906 133.69227600097656 124.9299545288086" stroke-width="3.0" fill="none" stroke="rgb(0, 0, 0)" stroke-opacity="1.0" stroke-linecap="round" stroke-linejoin="round"/>
    <path d="M 78.06159210205078 123.30558013916016 C 85.33524322509766 120.94210052490234 66.4317626953125 128.81312561035156 79.86083984375 121.04907989501953" stroke-width="3.0" fill="none" stroke="rgb(0, 0, 0)" stroke-opacity="1.0" stroke-linecap="round" stroke-linejoin="round"/>
    <path d="M 141.17588806152344 128.46482849121094 C 120.87434387207031 172.8181915283203 143.9585723876953 154.526123046875 97.74911499023438 185.43601989746094" stroke-width="3.0" fill="none" stroke="rgb(0, 0, 0)" stroke-opacity="1.0" stroke-linecap="round" stroke-linejoin="round"/>
    <path d="M 56.604736328125 126.49237060546875 C -6.233573913574219 171.75743103027344 52.43851089477539 151.61239624023438 15.895753860473633 169.64480590820312" stroke-width="3.0" fill="none" stroke="rgb(0, 0, 0)" stroke-opacity="1.0" stroke-linecap="round" stroke-linejoin="round"/>
    <path d="M 52.97440719604492 37.77666473388672 C 109.56584930419922 99.46348571777344 81.3240737915039 77.04021453857422 135.9600830078125 92.751953125" stroke-width="3.0" fill="none" stroke="rgb(0, 0, 0)" stroke-opacity="1.0" stroke-linecap="round" stroke-linejoin="round"/>
    <path d="M 133.010009765625 156.48106384277344 C 151.24378967285156 115.6876220703125 162.78424072265625 152.29342651367188 183.0615234375 109.69065856933594" stroke-width="3.0" fill="none" stroke="rgb(0, 0, 0)" stroke-opacity="1.0" stroke-linecap="round" stroke-linejoin="round"/>
    <path d="M 29.780088424682617 151.68606567382812 C 77.37000274658203 118.71215057373047 61.0734748840332 150.44076538085938 76.6210708618164 109.84717559814453" stroke-width="3.0" fill="none" stroke="rgb(0, 0, 0)" stroke-opacity="1.0" stroke-linecap="round" stroke-linejoin="round"/>
    <path d="M 150.94842529296875 120.7965316772461 C 138.77052307128906 129.8615264892578 136.8972930908203 117.8288803100586 133.83560180664062 127.4910659790039" stroke-width="3.0" fill="none" stroke="rgb(0, 0, 0)" stroke-opacity="1.0" stroke-linecap="round" stroke-linejoin="round"/>
    <path d="M 173.83200073242188 114.69206237792969 C 178.48190307617188 165.03790283203125 140.4937286376953 200.38827514648438 161.11376953125 189.52374267578125" stroke-width="3.0" fill="none" stroke="rgb(0, 0, 0)" stroke-opacity="1.0" stroke-linecap="round" stroke-linejoin="round"/>
    <path d="M 15.687163352966309 76.1155776977539 C 75.04143524169922 16.289342880249023 -13.418030738830566 55.50770950317383 70.74703216552734 47.474815368652344" stroke-width="3.0" fill="none" stroke="rgb(0, 0, 0)" stroke-opacity="1.0" stroke-linecap="round" stroke-linejoin="round"/>
    <path d="M 88.03472137451172 64.32138061523438 C 36.817440032958984 39.697391510009766 6.296641826629639 21.33732032775879 81.3589096069336 56.366512298583984" stroke-width="3.0" fill="none" stroke="rgb(0, 0, 0)" stroke-opacity="1.0" stroke-linecap="round" stroke-linejoin="round"/>
  </g>
</svg>
