<?xml version="1.0" ?>
<svg xmlns="http://www.w3.org/2000/svg" version="1.1" width="224" height="224">
  <defs/>
  <g>
    <path d="M 80.05551147460938 112.08824157714844 C 88.84508514404297 131.34884643554688 81.9926986694336 117.93975830078125 75.55027770996094 119.55728149414062" stroke-width="3.0" fill="none" stroke="rgb(0, 0, 0)" stroke-opacity="1.0" stroke-linecap="round" stroke-linejoin="round"/>
    <path d="M 70.99256134033203 124.56195831298828 C 105.86505126953125 137.89761352539062 112.37662506103516 127.92825317382812 135.7133331298828 129.8468017578125" stroke-width="3.0" fill="none" stroke="rgb(0, 0, 0)" stroke-opacity="1.0" stroke-linecap="round" stroke-linejoin="round"/>
    <path d="M 168.3942108154297 101.67395782470703 C 218.87147521972656 117.75820922851562 195.4429473876953 132.29678344726562 216.7190399169922 142.68531799316406" stroke-width="3.0" fill="none" stroke="rgb(0, 0, 0)" stroke-opacity="1.0" stroke-linecap="round" stroke-linejoin="round"/>
    <path d="M 48.856842041015625 66.06476593017578 C 66.30621337890625 156.62615966796875 62.02103805541992 70.86479949951172 37.10373306274414 148.1794891357422" stroke-width="3.0" fill="none" stroke="rgb(0, 0, 0)" stroke-opacity="1.0" stroke-linecap="round" stroke-linejoin="round"/>
    <path d="M 101.4912338256836 86.14055633544922 C 137.99180603027344 93.86675262451172 145.58963012695312 73.6692886352539 174.01547241210938 107.16451263427734" stroke-width="3.0" fill="none" stroke="rgb(0, 0, 0)" stroke-opacity="1.0" stroke-linecap="round" stroke-linejoin="round"/>
    <path d="M 129.93215942382812 128.36888122558594 C 142.3088836669922 130.392822265625 146.42164611816406 122.89596557617188 125.37643432617188 126.43413543701172" stroke-width="3.0" fill="none" stroke="rgb(0, 0, 0)" stroke-opacity="1.0" stroke-linecap="round" stroke-linejoin="round"/>
    <path d="M 74.85102081298828 123.34321594238281 C 94.59761810302734 103.94978332519531 67.5081787109375 135.11325073242188 82.31839752197266 121.45951843261719" stroke-width="3.0" fill="none" stroke="rgb(0, 0, 0)" stroke-opacity="1.0" stroke-linecap="round" stroke-linejoin="round"/>
    <path d="M 137.7513885498047 129.70118713378906 C 117.79059600830078 176.32907104492188 142.27850341796875 159.3530731201172 99.40816497802734 185.17529296875" stroke-width="3.0" fill="none" stroke="rgb(0, 0, 0)" stroke-opacity="1.0" stroke-linecap="round" stroke-linejoin="round"/>
    <path d="M 53.775150299072266 120.95356750488281 C -6.591650009155273 194.77188110351562 74.43194580078125 140.38055419921875 13.243937492370605 166.3192596435547" stroke-width="3.0" fill="none" stroke="rgb(0, 0, 0)" stroke-opacity="1.0" stroke-linecap="round" stroke-linejoin="round"/>
    <path d="M 34.02471160888672 35.792179107666016 C 107.44060516357422 74.10100555419922 47.18524169921875 70.25020599365234 109.73800659179688 88.93677520751953" stroke-width="3.0" fill="none" stroke="rgb(0, 0, 0)" stroke-opacity="1.0" stroke-linecap="round" stroke-linejoin="round"/>
    <path d="M 131.6905975341797 161.12892150878906 C 155.9706268310547 114.89639282226562 149.52891540527344 159.06295776367188 182.04832458496094 106.41617584228516" stroke-width="3.0" fill="none" stroke="rgb(0, 0, 0)" stroke-opacity="1.0" stroke-linecap="round" stroke-linejoin="round"/>
    <path d="M 38.296016693115234 155.23605346679688 C 64.71590423583984 109.51912689208984 46.86391067504883 144.04425048828125 80.96395874023438 116.92745971679688" stroke-width="3.0" fill="none" stroke="rgb(0, 0, 0)" stroke-opacity="1.0" stroke-linecap="round" stroke-linejoin="round"/>
    <path d="M 158.09486389160156 116.94329833984375 C 134.7131805419922 130.9696044921875 160.85745239257812 116.7023696899414 107.71221160888672 131.28456115722656" stroke-width="3.0" fill="none" stroke="rgb(0, 0, 0)" stroke-opacity="1.0" stroke-linecap="round" stroke-linejoin="round"/>
    <path d="M 171.66525268554688 112.40101623535156 C 167.906982421875 227.9136962890625 136.79696655273438 177.38876342773438 161.99391174316406 188.21142578125" stroke-width="3.0" fill="none" stroke="rgb(0, 0, 0)" stroke-opacity="1.0" stroke-linecap="round" stroke-linejoin="round"/>
    <path d="M 15.816474914550781 76.0447769165039 C 60.92308044433594 14.794702529907227 -12.925106048583984 86.95216369628906 53.906776428222656 34.99488067626953" stroke-width="3.0" fill="none" stroke="rgb(0, 0, 0)" stroke-opacity="1.0" stroke-linecap="round" stroke-linejoin="round"/>
    <path d="M 93.16366577148438 77.3466796875 C 78.62602996826172 18.144010543823242 -26.066272735595703 40.124671936035156 83.86412048339844 52.3370246887207" stroke-width="3.0" fill="none" stroke="rgb(0, 0, 0)" stroke-opacity="1.0" stroke-linecap="round" stroke-linejoin="round"/>
  </g>
</svg>
