<?xml version="1.0" ?>
<svg xmlns="http://www.w3.org/2000/svg" version="1.1" width="224" height="224">
  <defs/>
  <g>
    <path d="M 78.80164337158203 111.92147827148438 C 87.703369140625 130.5735626220703 82.71285247802734 118.64452362060547 79.99156951904297 118.86058044433594" stroke-width="3.0" fill="none" stroke="rgb(0, 0, 0)" stroke-opacity="1.0" stroke-linecap="round" stroke-linejoin="round"/>
    <path d="M 75.44204711914062 122.28270721435547 C 114.69966888427734 133.88992309570312 112.17327880859375 125.0582046508789 133.77122497558594 123.86707305908203" stroke-width="3.0" fill="none" stroke="rgb(0, 0, 0)" stroke-opacity="1.0" stroke-linecap="round" stroke-linejoin="round"/>
    <path d="M 165.43260192871094 96.81424713134766 C 220.80381774902344 120.07815551757812 193.47506713867188 134.5546875 216.43959045410156 143.8118438720703" stroke-width="3.0" fill="none" stroke="rgb(0, 0, 0)" stroke-opacity="1.0" stroke-linecap="round" stroke-linejoin="round"/>
    <path d="M 52.988399505615234 69.18170928955078 C 47.34430694580078 149.77671813964844 77.55725860595703 74.85330200195312 33.58821487426758 154.10719299316406" stroke-width="3.0" fill="none" stroke="rgb(0, 0, 0)" stroke-opacity="1.0" stroke-linecap="round" stroke-linejoin="round"/>
    <path d="M 118.37655639648438 89.55445861816406 C 136.9611053466797 91.87543487548828 153.19944763183594 79.39617919921875 171.3482208251953 104.33014678955078" stroke-width="3.0" fill="none" stroke="rgb(0, 0, 0)" stroke-opacity="1.0" stroke-linecap="round" stroke-linejoin="round"/>
    <path d="M 135.87696838378906 121.8847427368164 C 127.7626724243164 126.77893829345703 136.97238159179688 125.46300506591797 135.8450927734375 122.72676086425781" stroke-width="3.0" fill="none" stroke="rgb(0, 0, 0)" stroke-opacity="1.0" stroke-linecap="round" stroke-linejoin="round"/>
    <path d="M 80.5672836303711 124.27413177490234 C 89.59345245361328 105.46330261230469 62.76630401611328 130.0895538330078 83.14707946777344 117.95484924316406" stroke-width="3.0" fill="none" stroke="rgb(0, 0, 0)" stroke-opacity="1.0" stroke-linecap="round" stroke-linejoin="round"/>
    <path d="M 139.0477294921875 128.11065673828125 C 119.41254425048828 176.1227264404297 141.64236450195312 156.7418975830078 98.36865234375 184.06370544433594" stroke-width="3.0" fill="none" stroke="rgb(0, 0, 0)" stroke-opacity="1.0" stroke-linecap="round" stroke-linejoin="round"/>
    <path d="M 57.77726364135742 118.995361328125 C -11.104816436767578 174.5760040283203 63.223636627197266 146.8066864013672 16.518936157226562 169.66236877441406" stroke-width="3.0" fill="none" stroke="rgb(0, 0, 0)" stroke-opacity="1.0" stroke-linecap="round" stroke-linejoin="round"/>
    <path d="M 37.89249038696289 36.52581787109375 C 124.3807601928711 86.1574478149414 50.29201889038086 77.0846939086914 119.82077026367188 89.2658920288086" stroke-width="3.0" fill="none" stroke="rgb(0, 0, 0)" stroke-opacity="1.0" stroke-linecap="round" stroke-linejoin="round"/>
    <path d="M 130.93992614746094 160.5614776611328 C 153.2111358642578 117.23133087158203 147.59669494628906 157.0440216064453 181.8701629638672 107.69808959960938" stroke-width="3.0" fill="none" stroke="rgb(0, 0, 0)" stroke-opacity="1.0" stroke-linecap="round" stroke-linejoin="round"/>
    <path d="M 33.172386169433594 149.1468048095703 C 74.20466613769531 118.44002532958984 60.661739349365234 139.78395080566406 74.27472686767578 114.63249206542969" stroke-width="3.0" fill="none" stroke="rgb(0, 0, 0)" stroke-opacity="1.0" stroke-linecap="round" stroke-linejoin="round"/>
    <path d="M 153.00479125976562 117.76113891601562 C 140.2597198486328 126.73421478271484 137.96481323242188 119.71282196044922 129.58071899414062 124.68621063232422" stroke-width="3.0" fill="none" stroke="rgb(0, 0, 0)" stroke-opacity="1.0" stroke-linecap="round" stroke-linejoin="round"/>
    <path d="M 173.09573364257812 111.49364471435547 C 165.2015838623047 228.58384704589844 136.87425231933594 180.806396484375 161.2555389404297 187.92413330078125" stroke-width="3.0" fill="none" stroke="rgb(0, 0, 0)" stroke-opacity="1.0" stroke-linecap="round" stroke-linejoin="round"/>
    <path d="M 12.862979888916016 75.52534484863281 C 65.3504409790039 18.106319427490234 -20.812915802001953 69.27046966552734 58.52931213378906 39.570281982421875" stroke-width="3.0" fill="none" stroke="rgb(0, 0, 0)" stroke-opacity="1.0" stroke-linecap="round" stroke-linejoin="round"/>
    <path d="M 90.82354736328125 69.00970458984375 C 52.91158676147461 28.660015106201172 -11.231595993041992 37.67783737182617 83.4258804321289 54.942466735839844" stroke-width="3.0" fill="none" stroke="rgb(0, 0, 0)" stroke-opacity="1.0" stroke-linecap="round" stroke-linejoin="round"/>
  </g>
</svg>
