<?xml version="1.0" ?>
<svg xmlns="http://www.w3.org/2000/svg" version="1.1" width="224" height="224">
  <defs/>
  <g>
    <path d="M 100.88652038574219 119.45272827148438 C 95.4132308959961 120.5124740600586 97.43677520751953 121.8331527709961 91.48950958251953 115.11094665527344" stroke-width="3.0" fill="none" stroke="rgb(0, 0, 0)" stroke-opacity="1.0" stroke-linecap="round" stroke-linejoin="round"/>
    <path d="M 88.3827133178711 121.42959594726562 C 102.95216369628906 125.08905792236328 118.9782943725586 127.77645874023438 132.05239868164062 116.96710968017578" stroke-width="3.0" fill="none" stroke="rgb(0, 0, 0)" stroke-opacity="1.0" stroke-linecap="round" stroke-linejoin="round"/>
    <path d="M 153.32522583007812 93.22418212890625 C 225.4270782470703 117.26750183105469 193.4633331298828 135.43365478515625 216.9059295654297 140.5338134765625" stroke-width="3.0" fill="none" stroke="rgb(0, 0, 0)" stroke-opacity="1.0" stroke-linecap="round" stroke-linejoin="round"/>
    <path d="M 52.57283401489258 87.27762603759766 C 47.398406982421875 127.27230072021484 71.00537872314453 99.35189056396484 41.02667236328125 137.66209411621094" stroke-width="3.0" fill="none" stroke="rgb(0, 0, 0)" stroke-opacity="1.0" stroke-linecap="round" stroke-linejoin="round"/>
    <path d="M 130.79904174804688 89.1751480102539 C 159.57972717285156 89.65847778320312 144.85049438476562 88.30574798583984 163.00904846191406 95.46562957763672" stroke-width="3.0" fill="none" stroke="rgb(0, 0, 0)" stroke-opacity="1.0" stroke-linecap="round" stroke-linejoin="round"/>
    <path d="M 139.75131225585938 113.35601806640625 C 129.5841827392578 123.27742004394531 120.68718719482422 119.89783477783203 123.47795867919922 119.98699951171875" stroke-width="3.0" fill="none" stroke="rgb(0, 0, 0)" stroke-opacity="1.0" stroke-linecap="round" stroke-linejoin="round"/>
    <path d="M 87.80296325683594 110.45161437988281 C 69.14179992675781 122.28453826904297 72.62908172607422 114.51336669921875 94.22937774658203 119.7596664428711" stroke-width="3.0" fill="none" stroke="rgb(0, 0, 0)" stroke-opacity="1.0" stroke-linecap="round" stroke-linejoin="round"/>
    <path d="M 132.55291748046875 132.69320678710938 C 136.20700073242188 164.92031860351562 148.0505828857422 152.8778839111328 96.76081085205078 182.0853729248047" stroke-width="3.0" fill="none" stroke="rgb(0, 0, 0)" stroke-opacity="1.0" stroke-linecap="round" stroke-linejoin="round"/>
    <path d="M 53.64347457885742 127.66273498535156 C 5.635891914367676 171.1902313232422 51.6896858215332 147.46194458007812 18.036767959594727 169.57000732421875" stroke-width="3.0" fill="none" stroke="rgb(0, 0, 0)" stroke-opacity="1.0" stroke-linecap="round" stroke-linejoin="round"/>
    <path d="M 80.66603088378906 66.92357635498047 C 98.54217529296875 89.4036865234375 104.69662475585938 86.93656921386719 141.4892578125 89.55158996582031" stroke-width="3.0" fill="none" stroke="rgb(0, 0, 0)" stroke-opacity="1.0" stroke-linecap="round" stroke-linejoin="round"/>
    <path d="M 127.78131103515625 126.06954956054688 C 135.69235229492188 135.9936981201172 142.26466369628906 135.55307006835938 170.63037109375 126.8931884765625" stroke-width="3.0" fill="none" stroke="rgb(0, 0, 0)" stroke-opacity="1.0" stroke-linecap="round" stroke-linejoin="round"/>
    <path d="M 63.70024490356445 131.5297393798828 C 90.71336364746094 120.43386840820312 63.907325744628906 113.73764038085938 86.49432373046875 115.31488037109375" stroke-width="3.0" fill="none" stroke="rgb(0, 0, 0)" stroke-opacity="1.0" stroke-linecap="round" stroke-linejoin="round"/>
    <path d="M 145.6190643310547 111.0556869506836 C 137.3167266845703 114.06776428222656 138.5043487548828 115.15632629394531 130.34439086914062 116.36885070800781" stroke-width="3.0" fill="none" stroke="rgb(0, 0, 0)" stroke-opacity="1.0" stroke-linecap="round" stroke-linejoin="round"/>
    <path d="M 154.6761474609375 134.20834350585938 C 187.31356811523438 162.30828857421875 140.0814971923828 195.48069763183594 164.23500061035156 191.27639770507812" stroke-width="3.0" fill="none" stroke="rgb(0, 0, 0)" stroke-opacity="1.0" stroke-linecap="round" stroke-linejoin="round"/>
    <path d="M 18.287147521972656 67.99197387695312 C 53.146297454833984 11.075179100036621 50.59498596191406 60.59799575805664 68.18466186523438 35.52662658691406" stroke-width="3.0" fill="none" stroke="rgb(0, 0, 0)" stroke-opacity="1.0" stroke-linecap="round" stroke-linejoin="round"/>
    <path d="M 85.4038314819336 66.21228790283203 C 66.36437225341797 38.23312759399414 53.142757415771484 44.48622512817383 79.47046661376953 50.73617172241211" stroke-width="3.0" fill="none" stroke="rgb(0, 0, 0)" stroke-opacity="1.0" stroke-linecap="round" stroke-linejoin="round"/>
  </g>
</svg>
