<?xml version="1.0" ?>
<svg xmlns="http://www.w3.org/2000/svg" version="1.1" width="224" height="224">
  <defs/>
  <g>
    <path d="M 102.56558990478516 113.260498046875 C 109.85139465332031 110.64603424072266 108.78250122070312 115.7853012084961 98.9838638305664 107.9898452758789" stroke-width="3.0" fill="none" stroke="rgb(0, 0, 0)" stroke-opacity="1.0" stroke-linecap="round" stroke-linejoin="round"/>
    <path d="M 90.30831909179688 134.44436645507812 C 107.19768524169922 131.83145141601562 99.11517333984375 136.4152069091797 132.11085510253906 115.81016540527344" stroke-width="3.0" fill="none" stroke="rgb(0, 0, 0)" stroke-opacity="1.0" stroke-linecap="round" stroke-linejoin="round"/>
    <path d="M 166.6374969482422 95.39004516601562 C 214.73033142089844 116.9378662109375 185.15794372558594 134.25469970703125 216.22364807128906 142.97853088378906" stroke-width="3.0" fill="none" stroke="rgb(0, 0, 0)" stroke-opacity="1.0" stroke-linecap="round" stroke-linejoin="round"/>
    <path d="M 49.14186477661133 92.7979507446289 C 44.895843505859375 124.96321868896484 51.38368606567383 109.63924407958984 60.371891021728516 128.56320190429688" stroke-width="3.0" fill="none" stroke="rgb(0, 0, 0)" stroke-opacity="1.0" stroke-linecap="round" stroke-linejoin="round"/>
    <path d="M 149.00051879882812 89.8496322631836 C 156.06375122070312 94.2085189819336 141.85528564453125 87.48040771484375 156.2527618408203 94.21834564208984" stroke-width="3.0" fill="none" stroke="rgb(0, 0, 0)" stroke-opacity="1.0" stroke-linecap="round" stroke-linejoin="round"/>
    <path d="M 139.188232421875 108.93417358398438 C 121.98847198486328 120.95735168457031 107.6949462890625 119.73602294921875 124.66515350341797 116.38595581054688" stroke-width="3.0" fill="none" stroke="rgb(0, 0, 0)" stroke-opacity="1.0" stroke-linecap="round" stroke-linejoin="round"/>
    <path d="M 93.51496887207031 113.11235809326172 C 83.41717529296875 106.63641357421875 80.6948471069336 103.57080841064453 80.36100769042969 115.09272766113281" stroke-width="3.0" fill="none" stroke="rgb(0, 0, 0)" stroke-opacity="1.0" stroke-linecap="round" stroke-linejoin="round"/>
    <path d="M 129.51060485839844 136.84645080566406 C 140.99627685546875 165.9803924560547 135.2037353515625 152.892822265625 95.49305725097656 181.12550354003906" stroke-width="3.0" fill="none" stroke="rgb(0, 0, 0)" stroke-opacity="1.0" stroke-linecap="round" stroke-linejoin="round"/>
    <path d="M 47.105857849121094 153.59397888183594 C 33.295040130615234 168.2768096923828 65.15628051757812 139.1555633544922 12.259134292602539 166.97511291503906" stroke-width="3.0" fill="none" stroke="rgb(0, 0, 0)" stroke-opacity="1.0" stroke-linecap="round" stroke-linejoin="round"/>
    <path d="M 94.576904296875 70.51699829101562 C 107.48886108398438 86.68172454833984 103.46442413330078 88.76581573486328 121.33208465576172 93.67843627929688" stroke-width="3.0" fill="none" stroke="rgb(0, 0, 0)" stroke-opacity="1.0" stroke-linecap="round" stroke-linejoin="round"/>
    <path d="M 129.42091369628906 133.7467041015625 C 123.39955139160156 137.8448486328125 149.57066345214844 139.86595153808594 170.2034912109375 127.64183044433594" stroke-width="3.0" fill="none" stroke="rgb(0, 0, 0)" stroke-opacity="1.0" stroke-linecap="round" stroke-linejoin="round"/>
    <path d="M 66.05220031738281 124.60480499267578 C 91.23561096191406 111.74261474609375 81.35675048828125 101.61920166015625 95.66943359375 110.45833587646484" stroke-width="3.0" fill="none" stroke="rgb(0, 0, 0)" stroke-opacity="1.0" stroke-linecap="round" stroke-linejoin="round"/>
    <path d="M 142.22308349609375 98.80205535888672 C 140.42083740234375 107.42776489257812 140.73057556152344 105.53099822998047 132.5777130126953 113.47209167480469" stroke-width="3.0" fill="none" stroke="rgb(0, 0, 0)" stroke-opacity="1.0" stroke-linecap="round" stroke-linejoin="round"/>
    <path d="M 158.9158477783203 136.3642578125 C 184.29693603515625 162.4237823486328 139.5588836669922 194.62513732910156 159.40447998046875 190.50515747070312" stroke-width="3.0" fill="none" stroke="rgb(0, 0, 0)" stroke-opacity="1.0" stroke-linecap="round" stroke-linejoin="round"/>
    <path d="M 22.438995361328125 49.44581604003906 C 61.83573913574219 35.52168655395508 56.85947799682617 60.13121795654297 71.11441040039062 36.254249572753906" stroke-width="3.0" fill="none" stroke="rgb(0, 0, 0)" stroke-opacity="1.0" stroke-linecap="round" stroke-linejoin="round"/>
    <path d="M 96.41354370117188 67.85289764404297 C 82.73295593261719 44.698917388916016 63.0029411315918 59.339599609375 72.43932342529297 48.288597106933594" stroke-width="3.0" fill="none" stroke="rgb(0, 0, 0)" stroke-opacity="1.0" stroke-linecap="round" stroke-linejoin="round"/>
  </g>
</svg>
