<?xml version="1.0" ?>
<svg xmlns="http://www.w3.org/2000/svg" version="1.1" width="224" height="224">
  <defs/>
  <g>
    <path d="M 80.26155090332031 112.7209243774414 C 71.84151458740234 131.4901885986328 78.3378677368164 118.65498352050781 72.42678833007812 122.9708480834961" stroke-width="3.0" fill="none" stroke="rgb(0, 0, 0)" stroke-opacity="1.0" stroke-linecap="round" stroke-linejoin="round"/>
    <path d="M 71.86641693115234 123.00405883789062 C 110.05570220947266 139.06689453125 119.56787872314453 127.8532485961914 137.74081420898438 125.58943939208984" stroke-width="3.0" fill="none" stroke="rgb(0, 0, 0)" stroke-opacity="1.0" stroke-linecap="round" stroke-linejoin="round"/>
    <path d="M 170.7985076904297 103.9152603149414 C 219.1958770751953 114.28907012939453 198.13124084472656 134.5946502685547 219.46807861328125 139.2859649658203" stroke-width="3.0" fill="none" stroke="rgb(0, 0, 0)" stroke-opacity="1.0" stroke-linecap="round" stroke-linejoin="round"/>
    <path d="M 49.124759674072266 64.79288482666016 C 73.30166625976562 153.04258728027344 42.946693420410156 102.25215911865234 35.249515533447266 148.88217163085938" stroke-width="3.0" fill="none" stroke="rgb(0, 0, 0)" stroke-opacity="1.0" stroke-linecap="round" stroke-linejoin="round"/>
    <path d="M 104.89647674560547 84.12060546875 C 149.64573669433594 90.37185668945312 148.08424377441406 78.58635711669922 183.20619201660156 109.82089233398438" stroke-width="3.0" fill="none" stroke="rgb(0, 0, 0)" stroke-opacity="1.0" stroke-linecap="round" stroke-linejoin="round"/>
    <path d="M 135.8689422607422 130.16111755371094 C 137.4998016357422 126.94696807861328 151.04237365722656 116.90806579589844 116.13179779052734 128.90687561035156" stroke-width="3.0" fill="none" stroke="rgb(0, 0, 0)" stroke-opacity="1.0" stroke-linecap="round" stroke-linejoin="round"/>
    <path d="M 68.24136352539062 125.86832427978516 C 87.9508285522461 104.15559387207031 62.048980712890625 133.2963409423828 77.36067199707031 114.46784210205078" stroke-width="3.0" fill="none" stroke="rgb(0, 0, 0)" stroke-opacity="1.0" stroke-linecap="round" stroke-linejoin="round"/>
    <path d="M 138.30239868164062 132.59432983398438 C 120.73310852050781 173.54945373535156 139.50576782226562 160.06797790527344 98.70606231689453 183.8777618408203" stroke-width="3.0" fill="none" stroke="rgb(0, 0, 0)" stroke-opacity="1.0" stroke-linecap="round" stroke-linejoin="round"/>
    <path d="M 44.341670989990234 133.0472412109375 C -11.946646690368652 212.95013427734375 69.36891174316406 128.39321899414062 16.02578353881836 168.34571838378906" stroke-width="3.0" fill="none" stroke="rgb(0, 0, 0)" stroke-opacity="1.0" stroke-linecap="round" stroke-linejoin="round"/>
    <path d="M 32.563514709472656 38.756839752197266 C 103.90607452392578 70.88208770751953 55.12515640258789 59.9422721862793 107.84048461914062 86.01803588867188" stroke-width="3.0" fill="none" stroke="rgb(0, 0, 0)" stroke-opacity="1.0" stroke-linecap="round" stroke-linejoin="round"/>
    <path d="M 130.83714294433594 163.71295166015625 C 154.287841796875 116.64056396484375 148.7332763671875 157.51043701171875 179.46530151367188 108.76795196533203" stroke-width="3.0" fill="none" stroke="rgb(0, 0, 0)" stroke-opacity="1.0" stroke-linecap="round" stroke-linejoin="round"/>
    <path d="M 38.304901123046875 161.10028076171875 C 59.37830352783203 113.43169403076172 50.28792953491211 151.1154327392578 81.16349029541016 110.76285552978516" stroke-width="3.0" fill="none" stroke="rgb(0, 0, 0)" stroke-opacity="1.0" stroke-linecap="round" stroke-linejoin="round"/>
    <path d="M 156.84567260742188 119.452392578125 C 136.5092010498047 129.87586975097656 163.68699645996094 115.39238739013672 100.93354797363281 131.10552978515625" stroke-width="3.0" fill="none" stroke="rgb(0, 0, 0)" stroke-opacity="1.0" stroke-linecap="round" stroke-linejoin="round"/>
    <path d="M 171.6623992919922 110.98636627197266 C 165.8089599609375 230.6990966796875 138.80905151367188 179.4145965576172 159.4417724609375 190.3468475341797" stroke-width="3.0" fill="none" stroke="rgb(0, 0, 0)" stroke-opacity="1.0" stroke-linecap="round" stroke-linejoin="round"/>
    <path d="M 14.446453094482422 76.69734954833984 C 67.18452453613281 7.90210485458374 -18.19329261779785 84.66919708251953 55.32167434692383 37.27175521850586" stroke-width="3.0" fill="none" stroke="rgb(0, 0, 0)" stroke-opacity="1.0" stroke-linecap="round" stroke-linejoin="round"/>
    <path d="M 95.84437561035156 74.05948638916016 C 81.43733978271484 22.47272300720215 -29.524932861328125 44.30486297607422 83.14401245117188 50.13758850097656" stroke-width="3.0" fill="none" stroke="rgb(0, 0, 0)" stroke-opacity="1.0" stroke-linecap="round" stroke-linejoin="round"/>
  </g>
</svg>
