<?xml version="1.0" ?>
<svg xmlns="http://www.w3.org/2000/svg" version="1.1" width="224" height="224">
  <defs/>
  <g>
    <path d="M 95.16004180908203 121.19003295898438 C 81.28099822998047 121.90142059326172 88.73851013183594 122.14247131347656 76.8692855834961 118.3974838256836" stroke-width="3.0" fill="none" stroke="rgb(0, 0, 0)" stroke-opacity="1.0" stroke-linecap="round" stroke-linejoin="round"/>
    <path d="M 74.86437225341797 118.5061264038086 C 101.90184783935547 137.4898681640625 110.4105453491211 128.37034606933594 135.07821655273438 118.68634033203125" stroke-width="3.0" fill="none" stroke="rgb(0, 0, 0)" stroke-opacity="1.0" stroke-linecap="round" stroke-linejoin="round"/>
    <path d="M 151.32406616210938 92.31320190429688 C 229.55845642089844 117.87919616699219 189.59933471679688 131.1450958251953 215.23126220703125 144.09532165527344" stroke-width="3.0" fill="none" stroke="rgb(0, 0, 0)" stroke-opacity="1.0" stroke-linecap="round" stroke-linejoin="round"/>
    <path d="M 47.40562057495117 64.9706039428711 C 35.83686065673828 134.19993591308594 85.2036361694336 111.01276397705078 39.336944580078125 154.6400604248047" stroke-width="3.0" fill="none" stroke="rgb(0, 0, 0)" stroke-opacity="1.0" stroke-linecap="round" stroke-linejoin="round"/>
    <path d="M 134.9429931640625 90.44522857666016 C 150.0111541748047 91.9688491821289 154.10568237304688 88.58317565917969 164.2079315185547 100.45401763916016" stroke-width="3.0" fill="none" stroke="rgb(0, 0, 0)" stroke-opacity="1.0" stroke-linecap="round" stroke-linejoin="round"/>
    <path d="M 134.70391845703125 120.84361267089844 C 129.6772003173828 120.97775268554688 119.06368255615234 124.9340591430664 125.5461654663086 123.56224822998047" stroke-width="3.0" fill="none" stroke="rgb(0, 0, 0)" stroke-opacity="1.0" stroke-linecap="round" stroke-linejoin="round"/>
    <path d="M 77.62667083740234 120.35618591308594 C 73.55596923828125 124.32038116455078 64.4583969116211 115.8755874633789 87.03611755371094 126.82222747802734" stroke-width="3.0" fill="none" stroke="rgb(0, 0, 0)" stroke-opacity="1.0" stroke-linecap="round" stroke-linejoin="round"/>
    <path d="M 136.52447509765625 134.4744873046875 C 123.29071807861328 170.386962890625 143.4066619873047 151.10572814941406 99.64227294921875 184.78146362304688" stroke-width="3.0" fill="none" stroke="rgb(0, 0, 0)" stroke-opacity="1.0" stroke-linecap="round" stroke-linejoin="round"/>
    <path d="M 56.790340423583984 120.96186828613281 C 1.2864177227020264 180.5423583984375 49.17170333862305 154.86593627929688 20.728418350219727 171.44956970214844" stroke-width="3.0" fill="none" stroke="rgb(0, 0, 0)" stroke-opacity="1.0" stroke-linecap="round" stroke-linejoin="round"/>
    <path d="M 76.18617248535156 57.94189453125 C 90.88339233398438 91.18627166748047 107.19924926757812 82.25702667236328 139.4586181640625 91.80648803710938" stroke-width="3.0" fill="none" stroke="rgb(0, 0, 0)" stroke-opacity="1.0" stroke-linecap="round" stroke-linejoin="round"/>
    <path d="M 136.8162078857422 126.71409606933594 C 129.25619506835938 136.7804718017578 134.18809509277344 139.29588317871094 166.17132568359375 124.93206787109375" stroke-width="3.0" fill="none" stroke="rgb(0, 0, 0)" stroke-opacity="1.0" stroke-linecap="round" stroke-linejoin="round"/>
    <path d="M 62.22533416748047 136.77037048339844 C 85.5203857421875 123.70655059814453 64.40288543701172 126.98542022705078 77.47856903076172 113.96786499023438" stroke-width="3.0" fill="none" stroke="rgb(0, 0, 0)" stroke-opacity="1.0" stroke-linecap="round" stroke-linejoin="round"/>
    <path d="M 140.14596557617188 114.1881332397461 C 131.03260803222656 116.24861907958984 136.71229553222656 123.63121795654297 133.76805114746094 121.27763366699219" stroke-width="3.0" fill="none" stroke="rgb(0, 0, 0)" stroke-opacity="1.0" stroke-linecap="round" stroke-linejoin="round"/>
    <path d="M 154.61734008789062 135.10675048828125 C 183.94696044921875 173.51712036132812 138.52789306640625 191.92706298828125 163.78451538085938 191.80972290039062" stroke-width="3.0" fill="none" stroke="rgb(0, 0, 0)" stroke-opacity="1.0" stroke-linecap="round" stroke-linejoin="round"/>
    <path d="M 17.390480041503906 76.59300231933594 C 52.754669189453125 -3.416517496109009 31.492910385131836 59.32948684692383 67.77095031738281 35.72964096069336" stroke-width="3.0" fill="none" stroke="rgb(0, 0, 0)" stroke-opacity="1.0" stroke-linecap="round" stroke-linejoin="round"/>
    <path d="M 82.93316650390625 64.80322265625 C 61.902191162109375 38.28114700317383 44.145294189453125 37.61684036254883 78.2983169555664 50.077125549316406" stroke-width="3.0" fill="none" stroke="rgb(0, 0, 0)" stroke-opacity="1.0" stroke-linecap="round" stroke-linejoin="round"/>
  </g>
</svg>
