<?xml version="1.0" ?>
<svg xmlns="http://www.w3.org/2000/svg" version="1.1" width="224" height="224">
  <defs/>
  <g>
    <path d="M 81.44317626953125 107.64527893066406 C 92.96234130859375 131.96600341796875 82.29574584960938 122.80778503417969 81.48773193359375 119.5923080444336" stroke-width="3.0" fill="none" stroke="rgb(0, 0, 0)" stroke-opacity="1.0" stroke-linecap="round" stroke-linejoin="round"/>
    <path d="M 77.53451538085938 122.18307495117188 C 111.90315246582031 134.52078247070312 114.16814422607422 125.88896942138672 135.00350952148438 125.90650939941406" stroke-width="3.0" fill="none" stroke="rgb(0, 0, 0)" stroke-opacity="1.0" stroke-linecap="round" stroke-linejoin="round"/>
    <path d="M 163.53623962402344 97.57758331298828 C 220.64227294921875 118.83454132080078 192.84361267089844 134.97018432617188 219.03736877441406 143.54588317871094" stroke-width="3.0" fill="none" stroke="rgb(0, 0, 0)" stroke-opacity="1.0" stroke-linecap="round" stroke-linejoin="round"/>
    <path d="M 51.022911071777344 64.61710357666016 C 41.24159622192383 160.0010528564453 76.08723449707031 81.92868041992188 34.6039924621582 156.22674560546875" stroke-width="3.0" fill="none" stroke="rgb(0, 0, 0)" stroke-opacity="1.0" stroke-linecap="round" stroke-linejoin="round"/>
    <path d="M 119.17794799804688 87.26309967041016 C 135.1811981201172 88.7906265258789 151.63401794433594 78.70556640625 168.9683074951172 106.737060546875" stroke-width="3.0" fill="none" stroke="rgb(0, 0, 0)" stroke-opacity="1.0" stroke-linecap="round" stroke-linejoin="round"/>
    <path d="M 141.64744567871094 125.59110260009766 C 124.6016616821289 122.78553771972656 130.69715881347656 125.81082916259766 134.85348510742188 127.51432800292969" stroke-width="3.0" fill="none" stroke="rgb(0, 0, 0)" stroke-opacity="1.0" stroke-linecap="round" stroke-linejoin="round"/>
    <path d="M 81.11250305175781 121.12242126464844 C 90.8791275024414 103.69727325439453 67.92545318603516 130.12838745117188 85.87533569335938 119.26067352294922" stroke-width="3.0" fill="none" stroke="rgb(0, 0, 0)" stroke-opacity="1.0" stroke-linecap="round" stroke-linejoin="round"/>
    <path d="M 139.87452697753906 126.38232421875 C 120.59365844726562 174.25205993652344 141.50677490234375 156.33680725097656 98.52470397949219 183.66722106933594" stroke-width="3.0" fill="none" stroke="rgb(0, 0, 0)" stroke-opacity="1.0" stroke-linecap="round" stroke-linejoin="round"/>
    <path d="M 60.81742477416992 120.2747802734375 C -13.042715072631836 179.29103088378906 56.49876022338867 146.0843048095703 14.8401460647583 167.6315155029297" stroke-width="3.0" fill="none" stroke="rgb(0, 0, 0)" stroke-opacity="1.0" stroke-linecap="round" stroke-linejoin="round"/>
    <path d="M 38.6032829284668 40.8239631652832 C 126.1184310913086 84.82784271240234 49.412410736083984 75.62393188476562 122.64613342285156 88.01030731201172" stroke-width="3.0" fill="none" stroke="rgb(0, 0, 0)" stroke-opacity="1.0" stroke-linecap="round" stroke-linejoin="round"/>
    <path d="M 132.8423309326172 161.48526000976562 C 152.56085205078125 115.41297912597656 150.45582580566406 155.44142150878906 181.3499755859375 106.35313415527344" stroke-width="3.0" fill="none" stroke="rgb(0, 0, 0)" stroke-opacity="1.0" stroke-linecap="round" stroke-linejoin="round"/>
    <path d="M 29.921104431152344 154.06942749023438 C 70.16751098632812 116.24505615234375 67.89290618896484 146.00120544433594 75.70954132080078 114.89878845214844" stroke-width="3.0" fill="none" stroke="rgb(0, 0, 0)" stroke-opacity="1.0" stroke-linecap="round" stroke-linejoin="round"/>
    <path d="M 155.4689483642578 116.63751220703125 C 140.18553161621094 130.83547973632812 136.31442260742188 119.05070495605469 131.4801025390625 126.00743103027344" stroke-width="3.0" fill="none" stroke="rgb(0, 0, 0)" stroke-opacity="1.0" stroke-linecap="round" stroke-linejoin="round"/>
    <path d="M 173.45339965820312 111.51771545410156 C 168.36123657226562 228.0121612548828 136.56919860839844 179.08087158203125 161.8342742919922 189.52659606933594" stroke-width="3.0" fill="none" stroke="rgb(0, 0, 0)" stroke-opacity="1.0" stroke-linecap="round" stroke-linejoin="round"/>
    <path d="M 9.63217830657959 71.6167984008789 C 65.0548324584961 20.725353240966797 -22.688465118408203 73.36671447753906 62.97953414916992 46.031944274902344" stroke-width="3.0" fill="none" stroke="rgb(0, 0, 0)" stroke-opacity="1.0" stroke-linecap="round" stroke-linejoin="round"/>
    <path d="M 92.49246978759766 70.08257293701172 C 46.75737762451172 32.03974151611328 -17.339290618896484 39.104820251464844 82.8111572265625 55.007041931152344" stroke-width="3.0" fill="none" stroke="rgb(0, 0, 0)" stroke-opacity="1.0" stroke-linecap="round" stroke-linejoin="round"/>
  </g>
</svg>
