<?xml version="1.0" ?>
<svg xmlns="http://www.w3.org/2000/svg" version="1.1" width="224" height="224">
  <defs/>
  <g>
    <path d="M 79.2874755859375 111.60514068603516 C 70.9980697631836 130.9473876953125 77.42399597167969 118.39788818359375 72.03622436523438 122.76089477539062" stroke-width="3.0" fill="none" stroke="rgb(0, 0, 0)" stroke-opacity="1.0" stroke-linecap="round" stroke-linejoin="round"/>
    <path d="M 72.89038848876953 122.27936553955078 C 108.89256286621094 139.26380920410156 120.19390869140625 127.69339752197266 137.26223754882812 126.2278060913086" stroke-width="3.0" fill="none" stroke="rgb(0, 0, 0)" stroke-opacity="1.0" stroke-linecap="round" stroke-linejoin="round"/>
    <path d="M 171.14585876464844 103.9804916381836 C 217.34129333496094 116.15575408935547 196.9645538330078 136.19021606445312 219.37396240234375 140.9429931640625" stroke-width="3.0" fill="none" stroke="rgb(0, 0, 0)" stroke-opacity="1.0" stroke-linecap="round" stroke-linejoin="round"/>
    <path d="M 46.99922561645508 66.38533020019531 C 71.02116394042969 152.91555786132812 41.874427795410156 99.6215591430664 34.68883514404297 147.63624572753906" stroke-width="3.0" fill="none" stroke="rgb(0, 0, 0)" stroke-opacity="1.0" stroke-linecap="round" stroke-linejoin="round"/>
    <path d="M 105.9119873046875 86.38685607910156 C 148.9612274169922 93.12043762207031 148.51083374023438 79.52049255371094 183.11279296875 109.8831558227539" stroke-width="3.0" fill="none" stroke="rgb(0, 0, 0)" stroke-opacity="1.0" stroke-linecap="round" stroke-linejoin="round"/>
    <path d="M 136.41018676757812 130.04054260253906 C 136.99453735351562 126.82810974121094 151.51971435546875 118.26962280273438 117.87358093261719 128.49232482910156" stroke-width="3.0" fill="none" stroke="rgb(0, 0, 0)" stroke-opacity="1.0" stroke-linecap="round" stroke-linejoin="round"/>
    <path d="M 66.4271469116211 124.55681610107422 C 88.17252349853516 103.4263687133789 62.16402053833008 133.0586395263672 78.60794830322266 114.65834045410156" stroke-width="3.0" fill="none" stroke="rgb(0, 0, 0)" stroke-opacity="1.0" stroke-linecap="round" stroke-linejoin="round"/>
    <path d="M 139.8982696533203 132.2593536376953 C 121.57743072509766 173.3302001953125 139.47955322265625 159.07765197753906 98.39796447753906 183.9929962158203" stroke-width="3.0" fill="none" stroke="rgb(0, 0, 0)" stroke-opacity="1.0" stroke-linecap="round" stroke-linejoin="round"/>
    <path d="M 45.35660171508789 133.26361083984375 C -12.037124633789062 214.6155548095703 68.13824462890625 128.7581024169922 15.866656303405762 169.09043884277344" stroke-width="3.0" fill="none" stroke="rgb(0, 0, 0)" stroke-opacity="1.0" stroke-linecap="round" stroke-linejoin="round"/>
    <path d="M 33.557090759277344 36.601837158203125 C 105.4089126586914 70.04142761230469 56.505252838134766 59.04405212402344 106.76925659179688 86.95394134521484" stroke-width="3.0" fill="none" stroke="rgb(0, 0, 0)" stroke-opacity="1.0" stroke-linecap="round" stroke-linejoin="round"/>
    <path d="M 130.9363555908203 163.9842529296875 C 154.1231689453125 116.83372497558594 150.09852600097656 157.81568908691406 181.1967010498047 110.10836029052734" stroke-width="3.0" fill="none" stroke="rgb(0, 0, 0)" stroke-opacity="1.0" stroke-linecap="round" stroke-linejoin="round"/>
    <path d="M 38.560707092285156 160.531982421875 C 57.65860366821289 112.43157196044922 48.25801467895508 150.2644500732422 80.91773986816406 110.67306518554688" stroke-width="3.0" fill="none" stroke="rgb(0, 0, 0)" stroke-opacity="1.0" stroke-linecap="round" stroke-linejoin="round"/>
    <path d="M 156.8057403564453 120.09810638427734 C 138.09490966796875 130.24969482421875 164.56597900390625 115.87506103515625 102.37107849121094 130.92225646972656" stroke-width="3.0" fill="none" stroke="rgb(0, 0, 0)" stroke-opacity="1.0" stroke-linecap="round" stroke-linejoin="round"/>
    <path d="M 170.91529846191406 109.70511627197266 C 165.61325073242188 229.48435974121094 138.83900451660156 178.53076171875 161.57286071777344 189.9342041015625" stroke-width="3.0" fill="none" stroke="rgb(0, 0, 0)" stroke-opacity="1.0" stroke-linecap="round" stroke-linejoin="round"/>
    <path d="M 12.817355155944824 74.88375091552734 C 69.23886108398438 7.703027725219727 -16.23734474182129 83.62395477294922 54.20403289794922 35.32452392578125" stroke-width="3.0" fill="none" stroke="rgb(0, 0, 0)" stroke-opacity="1.0" stroke-linecap="round" stroke-linejoin="round"/>
    <path d="M 94.96693420410156 74.00716400146484 C 81.23306274414062 21.037704467773438 -29.737295150756836 43.408485412597656 81.93539428710938 47.7547721862793" stroke-width="3.0" fill="none" stroke="rgb(0, 0, 0)" stroke-opacity="1.0" stroke-linecap="round" stroke-linejoin="round"/>
  </g>
</svg>
