<?xml version="1.0" ?>
<svg xmlns="http://www.w3.org/2000/svg" version="1.1" width="224" height="224">
  <defs/>
  <g>
    <path d="M 152.08668518066406 101.86499786376953 C 117.73880767822266 80.67888641357422 177.7084503173828 132.78060913085938 121.3070297241211 72.04033660888672" stroke-width="3.0" fill="none" stroke="rgb(0, 0, 0)" stroke-opacity="1.0" stroke-linecap="round" stroke-linejoin="round"/>
    <path d="M 109.2240219116211 93.28765869140625 C 110.5403060913086 106.87651062011719 101.54924011230469 107.2437515258789 107.74163818359375 114.03197479248047" stroke-width="3.0" fill="none" stroke="rgb(0, 0, 0)" stroke-opacity="1.0" stroke-linecap="round" stroke-linejoin="round"/>
    <path d="M 138.4138946533203 106.062744140625 C 139.1385955810547 66.43338012695312 130.6157684326172 137.15826416015625 182.23394775390625 81.8145523071289" stroke-width="3.0" fill="none" stroke="rgb(0, 0, 0)" stroke-opacity="1.0" stroke-linecap="round" stroke-linejoin="round"/>
    <path d="M 63.74882507324219 43.04125213623047 C 64.51966857910156 42.124996185302734 57.603397369384766 46.41130828857422 64.40385437011719 41.9620361328125" stroke-width="3.0" fill="none" stroke="rgb(0, 0, 0)" stroke-opacity="1.0" stroke-linecap="round" stroke-linejoin="round"/>
    <path d="M 130.3256072998047 83.84439086914062 C 109.64879608154297 39.69143295288086 111.74385070800781 66.5666275024414 95.63822174072266 42.89716720581055" stroke-width="3.0" fill="none" stroke="rgb(0, 0, 0)" stroke-opacity="1.0" stroke-linecap="round" stroke-linejoin="round"/>
    <path d="M 67.79124450683594 110.93265533447266 C 45.4698486328125 71.59063720703125 63.755313873291016 88.39021301269531 47.83633041381836 64.76705932617188" stroke-width="3.0" fill="none" stroke="rgb(0, 0, 0)" stroke-opacity="1.0" stroke-linecap="round" stroke-linejoin="round"/>
    <path d="M 185.5587921142578 44.70167541503906 C 188.38885498046875 42.307010650634766 193.18801879882812 47.63275909423828 186.89524841308594 78.83524322509766" stroke-width="3.0" fill="none" stroke="rgb(0, 0, 0)" stroke-opacity="1.0" stroke-linecap="round" stroke-linejoin="round"/>
    <path d="M 103.20274353027344 194.29446411132812 C 122.75263214111328 81.58841705322266 123.45162963867188 121.99958038330078 132.85568237304688 102.28852081298828" stroke-width="3.0" fill="none" stroke="rgb(0, 0, 0)" stroke-opacity="1.0" stroke-linecap="round" stroke-linejoin="round"/>
    <path d="M 46.203651428222656 96.17150115966797 C 20.99555015563965 181.62429809570312 13.896486282348633 123.26225280761719 40.494632720947266 197.6318817138672" stroke-width="3.0" fill="none" stroke="rgb(0, 0, 0)" stroke-opacity="1.0" stroke-linecap="round" stroke-linejoin="round"/>
    <path d="M 63.84560012817383 43.17491149902344 C 97.27954864501953 15.176506996154785 145.96673583984375 109.36157989501953 168.16293334960938 81.31237030029297" stroke-width="3.0" fill="none" stroke="rgb(0, 0, 0)" stroke-opacity="1.0" stroke-linecap="round" stroke-linejoin="round"/>
    <path d="M 51.83942794799805 95.65631866455078 C 75.4705581665039 122.48428344726562 85.14997863769531 115.890869140625 106.10043334960938 117.56393432617188" stroke-width="3.0" fill="none" stroke="rgb(0, 0, 0)" stroke-opacity="1.0" stroke-linecap="round" stroke-linejoin="round"/>
    <path d="M 19.934904098510742 132.35472106933594 C 6.939108371734619 66.51710510253906 17.58785629272461 80.94176483154297 59.52661895751953 44.405338287353516" stroke-width="3.0" fill="none" stroke="rgb(0, 0, 0)" stroke-opacity="1.0" stroke-linecap="round" stroke-linejoin="round"/>
    <path d="M 167.14524841308594 81.01026916503906 C 198.3957977294922 37.89358139038086 197.03367614746094 47.289268493652344 174.64540100097656 91.89218139648438" stroke-width="3.0" fill="none" stroke="rgb(0, 0, 0)" stroke-opacity="1.0" stroke-linecap="round" stroke-linejoin="round"/>
    <path d="M 105.5876235961914 119.45140075683594 C 109.44730377197266 180.94198608398438 74.2013931274414 198.8045196533203 112.31395721435547 189.64625549316406" stroke-width="3.0" fill="none" stroke="rgb(0, 0, 0)" stroke-opacity="1.0" stroke-linecap="round" stroke-linejoin="round"/>
    <path d="M 171.7605743408203 79.2427978515625 C 176.32540893554688 -1.2409653663635254 215.70486450195312 74.03313446044922 207.381591796875 49.07028579711914" stroke-width="3.0" fill="none" stroke="rgb(0, 0, 0)" stroke-opacity="1.0" stroke-linecap="round" stroke-linejoin="round"/>
    <path d="M 195.8170928955078 61.83491897583008 C 146.62649536132812 38.55149841308594 255.75906372070312 46.39156723022461 198.63470458984375 56.168853759765625" stroke-width="3.0" fill="none" stroke="rgb(0, 0, 0)" stroke-opacity="1.0" stroke-linecap="round" stroke-linejoin="round"/>
  </g>
</svg>
