<?xml version="1.0" ?>
<svg xmlns="http://www.w3.org/2000/svg" version="1.1" width="224" height="224">
  <defs/>
  <g>
    <path d="M 139.1894989013672 106.76805114746094 C 119.87520599365234 93.59970092773438 153.4048309326172 134.88082885742188 117.32174682617188 66.51761627197266" stroke-width="3.0" fill="none" stroke="rgb(0, 0, 0)" stroke-opacity="1.0" stroke-linecap="round" stroke-linejoin="round"/>
    <path d="M 112.03448486328125 93.450927734375 C 112.14545440673828 101.21472930908203 104.60515594482422 102.10652160644531 109.82060241699219 112.63575744628906" stroke-width="3.0" fill="none" stroke="rgb(0, 0, 0)" stroke-opacity="1.0" stroke-linecap="round" stroke-linejoin="round"/>
    <path d="M 131.80691528320312 107.81243896484375 C 131.36044311523438 82.73164367675781 143.38758850097656 136.33901977539062 185.3538055419922 74.360107421875" stroke-width="3.0" fill="none" stroke="rgb(0, 0, 0)" stroke-opacity="1.0" stroke-linecap="round" stroke-linejoin="round"/>
    <path d="M 67.3075942993164 39.05624771118164 C 64.40486907958984 38.769630432128906 53.3798713684082 47.02909469604492 46.58421325683594 53.74266815185547" stroke-width="3.0" fill="none" stroke="rgb(0, 0, 0)" stroke-opacity="1.0" stroke-linecap="round" stroke-linejoin="round"/>
    <path d="M 133.8175506591797 81.67880249023438 C 105.7425537109375 39.14964294433594 110.89000701904297 65.2250747680664 98.18851470947266 45.101890563964844" stroke-width="3.0" fill="none" stroke="rgb(0, 0, 0)" stroke-opacity="1.0" stroke-linecap="round" stroke-linejoin="round"/>
    <path d="M 68.72377014160156 113.27938079833984 C 38.64391326904297 84.18138885498047 62.30633544921875 100.5550537109375 44.61053466796875 71.33924865722656" stroke-width="3.0" fill="none" stroke="rgb(0, 0, 0)" stroke-opacity="1.0" stroke-linecap="round" stroke-linejoin="round"/>
    <path d="M 183.11814880371094 59.771514892578125 C 174.71792602539062 39.062164306640625 197.50088500976562 49.8770866394043 189.83425903320312 81.80554962158203" stroke-width="3.0" fill="none" stroke="rgb(0, 0, 0)" stroke-opacity="1.0" stroke-linecap="round" stroke-linejoin="round"/>
    <path d="M 102.90818786621094 188.8638153076172 C 120.4417724609375 85.86962127685547 121.30587768554688 130.4823760986328 127.98512268066406 106.55319213867188" stroke-width="3.0" fill="none" stroke="rgb(0, 0, 0)" stroke-opacity="1.0" stroke-linecap="round" stroke-linejoin="round"/>
    <path d="M 46.9527702331543 100.40457153320312 C 27.890668869018555 172.0110626220703 13.8984956741333 125.36602783203125 40.99169158935547 199.0103302001953" stroke-width="3.0" fill="none" stroke="rgb(0, 0, 0)" stroke-opacity="1.0" stroke-linecap="round" stroke-linejoin="round"/>
    <path d="M 67.90721893310547 38.675445556640625 C 101.09858703613281 16.04724884033203 158.03402709960938 137.3077850341797 173.3265838623047 57.4034538269043" stroke-width="3.0" fill="none" stroke="rgb(0, 0, 0)" stroke-opacity="1.0" stroke-linecap="round" stroke-linejoin="round"/>
    <path d="M 48.51879119873047 104.17758178710938 C 87.75055694580078 121.7911376953125 79.90367126464844 113.60107421875 104.13780212402344 119.05229187011719" stroke-width="3.0" fill="none" stroke="rgb(0, 0, 0)" stroke-opacity="1.0" stroke-linecap="round" stroke-linejoin="round"/>
    <path d="M 23.378034591674805 136.33575439453125 C 13.7127103805542 77.8448257446289 5.723056316375732 87.81834411621094 53.49287796020508 48.074180603027344" stroke-width="3.0" fill="none" stroke="rgb(0, 0, 0)" stroke-opacity="1.0" stroke-linecap="round" stroke-linejoin="round"/>
    <path d="M 177.7100830078125 84.48078918457031 C 192.87753295898438 18.864402770996094 203.78195190429688 28.54375648498535 170.5192413330078 95.17334747314453" stroke-width="3.0" fill="none" stroke="rgb(0, 0, 0)" stroke-opacity="1.0" stroke-linecap="round" stroke-linejoin="round"/>
    <path d="M 106.5973892211914 116.2927474975586 C 108.12312316894531 185.99554443359375 81.11520385742188 193.7743682861328 111.06787872314453 193.0800323486328" stroke-width="3.0" fill="none" stroke="rgb(0, 0, 0)" stroke-opacity="1.0" stroke-linecap="round" stroke-linejoin="round"/>
    <path d="M 172.01963806152344 65.8847427368164 C 182.30963134765625 8.714098930358887 218.45347595214844 76.69345092773438 208.5670623779297 49.97716522216797" stroke-width="3.0" fill="none" stroke="rgb(0, 0, 0)" stroke-opacity="1.0" stroke-linecap="round" stroke-linejoin="round"/>
    <path d="M 196.8247528076172 62.27833557128906 C 152.16014099121094 41.197669982910156 260.46820068359375 45.086360931396484 198.4768524169922 58.087486267089844" stroke-width="3.0" fill="none" stroke="rgb(0, 0, 0)" stroke-opacity="1.0" stroke-linecap="round" stroke-linejoin="round"/>
  </g>
</svg>
