<?xml version="1.0" ?>
<svg xmlns="http://www.w3.org/2000/svg" version="1.1" width="224" height="224">
  <defs/>
  <g>
    <path d="M 150.8506317138672 100.94891357421875 C 131.25408935546875 99.49490356445312 152.7874298095703 94.62555694580078 139.4632568359375 98.11686706542969" stroke-width="3.0" fill="none" stroke="rgb(0, 0, 0)" stroke-opacity="1.0" stroke-linecap="round" stroke-linejoin="round"/>
    <path d="M 107.690185546875 88.57262420654297 C 104.65899658203125 96.17618560791016 103.89973449707031 99.19843292236328 110.03406524658203 105.82122039794922" stroke-width="3.0" fill="none" stroke="rgb(0, 0, 0)" stroke-opacity="1.0" stroke-linecap="round" stroke-linejoin="round"/>
    <path d="M 134.13323974609375 106.79114532470703 C 154.73460388183594 96.8107681274414 118.19906616210938 103.9535140991211 158.98321533203125 102.76094818115234" stroke-width="3.0" fill="none" stroke="rgb(0, 0, 0)" stroke-opacity="1.0" stroke-linecap="round" stroke-linejoin="round"/>
    <path d="M 59.114200592041016 43.59621047973633 C 50.811946868896484 48.21272277832031 33.002803802490234 68.26862335205078 45.93020248413086 53.91514587402344" stroke-width="3.0" fill="none" stroke="rgb(0, 0, 0)" stroke-opacity="1.0" stroke-linecap="round" stroke-linejoin="round"/>
    <path d="M 100.52539825439453 50.35980987548828 C 118.07061004638672 59.83220672607422 103.20858001708984 54.016387939453125 96.92036437988281 43.28630828857422" stroke-width="3.0" fill="none" stroke="rgb(0, 0, 0)" stroke-opacity="1.0" stroke-linecap="round" stroke-linejoin="round"/>
    <path d="M 77.37060546875 111.8109359741211 C 50.86711883544922 93.36266326904297 61.278953552246094 87.49891662597656 45.168128967285156 75.05245971679688" stroke-width="3.0" fill="none" stroke="rgb(0, 0, 0)" stroke-opacity="1.0" stroke-linecap="round" stroke-linejoin="round"/>
    <path d="M 185.71707153320312 43.20211410522461 C 180.7955322265625 69.2702865600586 208.03211975097656 73.5118179321289 173.7659912109375 86.3192138671875" stroke-width="3.0" fill="none" stroke="rgb(0, 0, 0)" stroke-opacity="1.0" stroke-linecap="round" stroke-linejoin="round"/>
    <path d="M 109.77191925048828 160.91171264648438 C 126.56812286376953 91.95619201660156 115.67477416992188 122.33414459228516 129.41757202148438 103.78231811523438" stroke-width="3.0" fill="none" stroke="rgb(0, 0, 0)" stroke-opacity="1.0" stroke-linecap="round" stroke-linejoin="round"/>
    <path d="M 47.0280647277832 92.69165802001953 C 25.03915786743164 183.70663452148438 16.780519485473633 121.06072998046875 42.38019561767578 196.68960571289062" stroke-width="3.0" fill="none" stroke="rgb(0, 0, 0)" stroke-opacity="1.0" stroke-linecap="round" stroke-linejoin="round"/>
    <path d="M 60.406585693359375 43.66597366333008 C 90.04125213623047 9.926093101501465 130.25669860839844 88.4390869140625 159.52273559570312 84.31262969970703" stroke-width="3.0" fill="none" stroke="rgb(0, 0, 0)" stroke-opacity="1.0" stroke-linecap="round" stroke-linejoin="round"/>
    <path d="M 46.13666534423828 101.41320037841797 C 95.0416030883789 126.23133087158203 94.77647399902344 108.70061492919922 107.26622772216797 113.55635833740234" stroke-width="3.0" fill="none" stroke="rgb(0, 0, 0)" stroke-opacity="1.0" stroke-linecap="round" stroke-linejoin="round"/>
    <path d="M 38.64939498901367 88.87333679199219 C 38.80038070678711 67.3715591430664 27.96344566345215 63.97872543334961 33.99281311035156 62.989952087402344" stroke-width="3.0" fill="none" stroke="rgb(0, 0, 0)" stroke-opacity="1.0" stroke-linecap="round" stroke-linejoin="round"/>
    <path d="M 159.27381896972656 83.29077911376953 C 221.17962646484375 76.78209686279297 169.17782592773438 77.9254379272461 171.30191040039062 97.11343383789062" stroke-width="3.0" fill="none" stroke="rgb(0, 0, 0)" stroke-opacity="1.0" stroke-linecap="round" stroke-linejoin="round"/>
    <path d="M 109.17102813720703 110.82913208007812 C 111.25086975097656 171.12704467773438 83.03286743164062 193.2994384765625 111.1997299194336 191.88218688964844" stroke-width="3.0" fill="none" stroke="rgb(0, 0, 0)" stroke-opacity="1.0" stroke-linecap="round" stroke-linejoin="round"/>
    <path d="M 173.12123107910156 78.67393493652344 C 182.3794708251953 0.09313753247261047 181.80426025390625 68.54452514648438 206.43162536621094 44.8392219543457" stroke-width="3.0" fill="none" stroke="rgb(0, 0, 0)" stroke-opacity="1.0" stroke-linecap="round" stroke-linejoin="round"/>
    <path d="M 198.4441680908203 61.45246505737305 C 149.70408630371094 37.991268157958984 212.7567901611328 41.15434265136719 204.43270874023438 56.62986755371094" stroke-width="3.0" fill="none" stroke="rgb(0, 0, 0)" stroke-opacity="1.0" stroke-linecap="round" stroke-linejoin="round"/>
  </g>
</svg>
