<?xml version="1.0" ?>
<svg xmlns="http://www.w3.org/2000/svg" version="1.1" width="224" height="224">
  <defs/>
  <g>
    <path d="M 140.32945251464844 91.81388854980469 C 124.30379486083984 72.71189880371094 123.81387329101562 70.11444091796875 132.97410583496094 85.33546447753906" stroke-width="3.0" fill="none" stroke="rgb(0, 0, 0)" stroke-opacity="1.0" stroke-linecap="round" stroke-linejoin="round"/>
    <path d="M 92.89091491699219 94.1273193359375 C 93.18494415283203 94.84159851074219 99.34224700927734 108.16107177734375 106.9983901977539 110.54818725585938" stroke-width="3.0" fill="none" stroke="rgb(0, 0, 0)" stroke-opacity="1.0" stroke-linecap="round" stroke-linejoin="round"/>
    <path d="M 138.94125366210938 107.73986053466797 C 148.10398864746094 95.73124694824219 130.0323486328125 86.91790008544922 152.19375610351562 99.96158599853516" stroke-width="3.0" fill="none" stroke="rgb(0, 0, 0)" stroke-opacity="1.0" stroke-linecap="round" stroke-linejoin="round"/>
    <path d="M 51.15967559814453 48.8802490234375 C 56.69529724121094 65.0719223022461 40.84101867675781 101.51888275146484 48.46596908569336 86.58004760742188" stroke-width="3.0" fill="none" stroke="rgb(0, 0, 0)" stroke-opacity="1.0" stroke-linecap="round" stroke-linejoin="round"/>
    <path d="M 114.72554779052734 53.91299819946289 C 121.15882110595703 55.72248458862305 119.5556411743164 55.84498977661133 111.46805572509766 54.35334014892578" stroke-width="3.0" fill="none" stroke="rgb(0, 0, 0)" stroke-opacity="1.0" stroke-linecap="round" stroke-linejoin="round"/>
    <path d="M 57.67780303955078 103.37936401367188 C 57.96391296386719 94.25872802734375 45.70937728881836 84.40423583984375 49.718597412109375 75.30975341796875" stroke-width="3.0" fill="none" stroke="rgb(0, 0, 0)" stroke-opacity="1.0" stroke-linecap="round" stroke-linejoin="round"/>
    <path d="M 182.8576202392578 42.35143280029297 C 175.90135192871094 77.50212860107422 175.50521850585938 73.02198791503906 161.897216796875 79.11721801757812" stroke-width="3.0" fill="none" stroke="rgb(0, 0, 0)" stroke-opacity="1.0" stroke-linecap="round" stroke-linejoin="round"/>
    <path d="M 117.43147277832031 138.2284698486328 C 126.60028839111328 103.05073547363281 108.07825469970703 135.06764221191406 126.22892761230469 111.57615661621094" stroke-width="3.0" fill="none" stroke="rgb(0, 0, 0)" stroke-opacity="1.0" stroke-linecap="round" stroke-linejoin="round"/>
    <path d="M 35.306034088134766 105.48686981201172 C 22.84572410583496 182.3355255126953 24.140634536743164 143.2593994140625 43.23921585083008 196.99627685546875" stroke-width="3.0" fill="none" stroke="rgb(0, 0, 0)" stroke-opacity="1.0" stroke-linecap="round" stroke-linejoin="round"/>
    <path d="M 64.62802124023438 39.49003982543945 C 111.10037231445312 34.05960464477539 123.49131774902344 67.57567596435547 144.16448974609375 78.24067687988281" stroke-width="3.0" fill="none" stroke="rgb(0, 0, 0)" stroke-opacity="1.0" stroke-linecap="round" stroke-linejoin="round"/>
    <path d="M 50.36250686645508 97.02387237548828 C 82.1275863647461 129.00863647460938 73.86017608642578 115.52379608154297 105.82231140136719 122.1643295288086" stroke-width="3.0" fill="none" stroke="rgb(0, 0, 0)" stroke-opacity="1.0" stroke-linecap="round" stroke-linejoin="round"/>
    <path d="M 32.566650390625 85.30965423583984 C 30.403860092163086 77.76311492919922 22.487346649169922 75.02507019042969 23.587343215942383 74.83786010742188" stroke-width="3.0" fill="none" stroke="rgb(0, 0, 0)" stroke-opacity="1.0" stroke-linecap="round" stroke-linejoin="round"/>
    <path d="M 145.02919006347656 79.03670501708984 C 202.5812225341797 73.91650390625 158.6656494140625 76.7061538696289 166.1337127685547 98.92786407470703" stroke-width="3.0" fill="none" stroke="rgb(0, 0, 0)" stroke-opacity="1.0" stroke-linecap="round" stroke-linejoin="round"/>
    <path d="M 108.91058349609375 110.50701904296875 C 119.83070373535156 150.49560546875 82.02252197265625 197.74107360839844 112.51024627685547 191.64796447753906" stroke-width="3.0" fill="none" stroke="rgb(0, 0, 0)" stroke-opacity="1.0" stroke-linecap="round" stroke-linejoin="round"/>
    <path d="M 175.80523681640625 63.337066650390625 C 197.61180114746094 6.38565731048584 182.0692901611328 64.02191162109375 209.43601989746094 46.99833679199219" stroke-width="3.0" fill="none" stroke="rgb(0, 0, 0)" stroke-opacity="1.0" stroke-linecap="round" stroke-linejoin="round"/>
    <path d="M 200.46499633789062 62.099082946777344 C 158.3419647216797 39.86216354370117 213.8794708251953 35.638607025146484 204.5778045654297 59.82270812988281" stroke-width="3.0" fill="none" stroke="rgb(0, 0, 0)" stroke-opacity="1.0" stroke-linecap="round" stroke-linejoin="round"/>
  </g>
</svg>
