<?xml version="1.0" ?>
<svg xmlns="http://www.w3.org/2000/svg" version="1.1" width="224" height="224">
  <defs/>
  <g>
    <path d="M 137.443603515625 109.6488265991211 C 122.62043762207031 96.5975570678711 149.73306274414062 142.23255920410156 118.79847717285156 69.80464935302734" stroke-width="3.0" fill="none" stroke="rgb(0, 0, 0)" stroke-opacity="1.0" stroke-linecap="round" stroke-linejoin="round"/>
    <path d="M 108.90287017822266 92.75582885742188 C 112.33602905273438 100.62944030761719 103.422607421875 101.8765869140625 109.86209106445312 113.75834655761719" stroke-width="3.0" fill="none" stroke="rgb(0, 0, 0)" stroke-opacity="1.0" stroke-linecap="round" stroke-linejoin="round"/>
    <path d="M 130.9574737548828 113.36920928955078 C 130.48756408691406 82.9239730834961 150.45716857910156 138.03305053710938 184.6840362548828 70.82379150390625" stroke-width="3.0" fill="none" stroke="rgb(0, 0, 0)" stroke-opacity="1.0" stroke-linecap="round" stroke-linejoin="round"/>
    <path d="M 65.5484619140625 42.07206726074219 C 63.415977478027344 38.20896530151367 56.395782470703125 48.507869720458984 43.06409454345703 61.483943939208984" stroke-width="3.0" fill="none" stroke="rgb(0, 0, 0)" stroke-opacity="1.0" stroke-linecap="round" stroke-linejoin="round"/>
    <path d="M 132.0245819091797 84.41938018798828 C 107.2983169555664 39.955833435058594 115.43527221679688 65.59557342529297 94.5041732788086 45.16999435424805" stroke-width="3.0" fill="none" stroke="rgb(0, 0, 0)" stroke-opacity="1.0" stroke-linecap="round" stroke-linejoin="round"/>
    <path d="M 68.2855224609375 113.36031341552734 C 36.20076370239258 80.63106536865234 61.114158630371094 100.01209259033203 40.70828628540039 76.18460083007812" stroke-width="3.0" fill="none" stroke="rgb(0, 0, 0)" stroke-opacity="1.0" stroke-linecap="round" stroke-linejoin="round"/>
    <path d="M 185.31137084960938 57.24394607543945 C 170.29457092285156 36.14385986328125 192.9664764404297 52.45969009399414 186.6226806640625 76.33898162841797" stroke-width="3.0" fill="none" stroke="rgb(0, 0, 0)" stroke-opacity="1.0" stroke-linecap="round" stroke-linejoin="round"/>
    <path d="M 102.7551498413086 192.74937438964844 C 118.5998306274414 85.99102783203125 124.78682708740234 128.33859252929688 122.52578735351562 105.04949188232422" stroke-width="3.0" fill="none" stroke="rgb(0, 0, 0)" stroke-opacity="1.0" stroke-linecap="round" stroke-linejoin="round"/>
    <path d="M 48.8320198059082 104.02241516113281 C 26.12088394165039 175.1405487060547 12.926412582397461 123.88864135742188 41.64833068847656 200.1557159423828" stroke-width="3.0" fill="none" stroke="rgb(0, 0, 0)" stroke-opacity="1.0" stroke-linecap="round" stroke-linejoin="round"/>
    <path d="M 66.69209289550781 41.73615264892578 C 97.82177734375 18.86709213256836 157.55995178222656 136.53628540039062 172.27780151367188 58.13725280761719" stroke-width="3.0" fill="none" stroke="rgb(0, 0, 0)" stroke-opacity="1.0" stroke-linecap="round" stroke-linejoin="round"/>
    <path d="M 48.46168899536133 102.98428344726562 C 83.78070068359375 121.2793197631836 81.46192932128906 114.84503173828125 105.97412872314453 119.20939636230469" stroke-width="3.0" fill="none" stroke="rgb(0, 0, 0)" stroke-opacity="1.0" stroke-linecap="round" stroke-linejoin="round"/>
    <path d="M 22.760982513427734 138.98008728027344 C 17.704198837280273 85.1518783569336 1.6572277545928955 84.6407699584961 56.82110595703125 52.067378997802734" stroke-width="3.0" fill="none" stroke="rgb(0, 0, 0)" stroke-opacity="1.0" stroke-linecap="round" stroke-linejoin="round"/>
    <path d="M 171.60667419433594 86.758056640625 C 190.69671630859375 18.706436157226562 203.62156677246094 28.184349060058594 167.5120086669922 92.62763977050781" stroke-width="3.0" fill="none" stroke="rgb(0, 0, 0)" stroke-opacity="1.0" stroke-linecap="round" stroke-linejoin="round"/>
    <path d="M 104.7881088256836 116.7892837524414 C 109.67549133300781 186.36859130859375 76.59324645996094 196.7381591796875 110.3626937866211 190.3101806640625" stroke-width="3.0" fill="none" stroke="rgb(0, 0, 0)" stroke-opacity="1.0" stroke-linecap="round" stroke-linejoin="round"/>
    <path d="M 172.26254272460938 65.53242492675781 C 181.4825897216797 7.865174770355225 213.62661743164062 78.88688659667969 203.32077026367188 47.807796478271484" stroke-width="3.0" fill="none" stroke="rgb(0, 0, 0)" stroke-opacity="1.0" stroke-linecap="round" stroke-linejoin="round"/>
    <path d="M 191.8074188232422 63.106895446777344 C 147.99732971191406 41.30368423461914 256.09356689453125 47.509429931640625 194.53575134277344 59.82572555541992" stroke-width="3.0" fill="none" stroke="rgb(0, 0, 0)" stroke-opacity="1.0" stroke-linecap="round" stroke-linejoin="round"/>
  </g>
</svg>
