<?xml version="1.0" ?>
<svg xmlns="http://www.w3.org/2000/svg" version="1.1" width="224" height="224">
  <defs/>
  <g>
    <path d="M 153.14495849609375 100.01644897460938 C 120.4306869506836 80.81487274169922 178.2173614501953 128.94578552246094 123.38697814941406 74.1534194946289" stroke-width="3.0" fill="none" stroke="rgb(0, 0, 0)" stroke-opacity="1.0" stroke-linecap="round" stroke-linejoin="round"/>
    <path d="M 104.00745391845703 96.75728607177734 C 102.7952880859375 107.01749420166016 99.88158416748047 99.2201156616211 106.7557373046875 114.24308013916016" stroke-width="3.0" fill="none" stroke="rgb(0, 0, 0)" stroke-opacity="1.0" stroke-linecap="round" stroke-linejoin="round"/>
    <path d="M 141.19078063964844 103.57362365722656 C 143.26272583007812 65.75048828125 123.74038696289062 127.40689086914062 175.228271484375 88.43909454345703" stroke-width="3.0" fill="none" stroke="rgb(0, 0, 0)" stroke-opacity="1.0" stroke-linecap="round" stroke-linejoin="round"/>
    <path d="M 60.89542007446289 42.16880798339844 C 62.845481872558594 41.51477813720703 55.28418731689453 45.63103485107422 62.13255310058594 41.754032135009766" stroke-width="3.0" fill="none" stroke="rgb(0, 0, 0)" stroke-opacity="1.0" stroke-linecap="round" stroke-linejoin="round"/>
    <path d="M 126.42225646972656 84.47454071044922 C 114.0711441040039 46.250328063964844 111.12181091308594 65.9990463256836 99.58511352539062 46.12052917480469" stroke-width="3.0" fill="none" stroke="rgb(0, 0, 0)" stroke-opacity="1.0" stroke-linecap="round" stroke-linejoin="round"/>
    <path d="M 70.84224700927734 112.84898376464844 C 43.472782135009766 79.22554779052734 59.40292739868164 86.61735534667969 49.279937744140625 62.262325286865234" stroke-width="3.0" fill="none" stroke="rgb(0, 0, 0)" stroke-opacity="1.0" stroke-linecap="round" stroke-linejoin="round"/>
    <path d="M 180.84542846679688 38.335662841796875 C 183.21998596191406 44.017250061035156 193.79550170898438 49.06535720825195 173.363037109375 76.60448455810547" stroke-width="3.0" fill="none" stroke="rgb(0, 0, 0)" stroke-opacity="1.0" stroke-linecap="round" stroke-linejoin="round"/>
    <path d="M 104.87165069580078 194.43162536621094 C 122.65430450439453 79.52923583984375 120.78413391113281 122.0843505859375 132.56854248046875 102.16992950439453" stroke-width="3.0" fill="none" stroke="rgb(0, 0, 0)" stroke-opacity="1.0" stroke-linecap="round" stroke-linejoin="round"/>
    <path d="M 48.53379440307617 89.79078674316406 C 27.37786865234375 188.20547485351562 13.517550468444824 123.29862213134766 40.365631103515625 201.31593322753906" stroke-width="3.0" fill="none" stroke="rgb(0, 0, 0)" stroke-opacity="1.0" stroke-linecap="round" stroke-linejoin="round"/>
    <path d="M 62.60860824584961 41.329689025878906 C 91.82058715820312 14.232712745666504 139.9455108642578 104.6401138305664 163.8109130859375 82.77950286865234" stroke-width="3.0" fill="none" stroke="rgb(0, 0, 0)" stroke-opacity="1.0" stroke-linecap="round" stroke-linejoin="round"/>
    <path d="M 50.98514175415039 92.47198486328125 C 72.37702941894531 123.2817153930664 83.56562805175781 113.19609832763672 105.67838287353516 118.30286407470703" stroke-width="3.0" fill="none" stroke="rgb(0, 0, 0)" stroke-opacity="1.0" stroke-linecap="round" stroke-linejoin="round"/>
    <path d="M 22.307880401611328 128.5692901611328 C 4.326117515563965 67.63774871826172 26.080121994018555 77.61846923828125 58.466285705566406 43.33049011230469" stroke-width="3.0" fill="none" stroke="rgb(0, 0, 0)" stroke-opacity="1.0" stroke-linecap="round" stroke-linejoin="round"/>
    <path d="M 165.18124389648438 83.89903259277344 C 196.43690490722656 41.18775177001953 202.2685546875 57.928680419921875 178.1531219482422 86.640625" stroke-width="3.0" fill="none" stroke="rgb(0, 0, 0)" stroke-opacity="1.0" stroke-linecap="round" stroke-linejoin="round"/>
    <path d="M 105.13389587402344 121.1004638671875 C 109.66935729980469 181.82408142089844 79.8252182006836 203.52333068847656 110.6163558959961 189.5169677734375" stroke-width="3.0" fill="none" stroke="rgb(0, 0, 0)" stroke-opacity="1.0" stroke-linecap="round" stroke-linejoin="round"/>
    <path d="M 174.40089416503906 83.71928405761719 C 172.50657653808594 -5.509978294372559 207.17417907714844 75.00926971435547 199.2256622314453 45.1073112487793" stroke-width="3.0" fill="none" stroke="rgb(0, 0, 0)" stroke-opacity="1.0" stroke-linecap="round" stroke-linejoin="round"/>
    <path d="M 199.6136016845703 61.643829345703125 C 145.31195068359375 39.482391357421875 236.99000549316406 42.60035705566406 191.63851928710938 52.510337829589844" stroke-width="3.0" fill="none" stroke="rgb(0, 0, 0)" stroke-opacity="1.0" stroke-linecap="round" stroke-linejoin="round"/>
  </g>
</svg>
