<?xml version="1.0" ?>
<svg xmlns="http://www.w3.org/2000/svg" version="1.1" width="224" height="224">
  <defs/>
  <g>
    <path d="M 153.3488006591797 100.62709045410156 C 123.5058364868164 96.98967742919922 159.22923278808594 111.5646743774414 131.5031280517578 88.96661376953125" stroke-width="3.0" fill="none" stroke="rgb(0, 0, 0)" stroke-opacity="1.0" stroke-linecap="round" stroke-linejoin="round"/>
    <path d="M 108.04979705810547 90.95087432861328 C 108.34593200683594 94.88201904296875 100.64837646484375 97.68050384521484 107.44509887695312 109.20343017578125" stroke-width="3.0" fill="none" stroke="rgb(0, 0, 0)" stroke-opacity="1.0" stroke-linecap="round" stroke-linejoin="round"/>
    <path d="M 137.49166870117188 102.43424987792969 C 149.62826538085938 76.0770492553711 114.13683319091797 119.37699127197266 171.200439453125 94.9330825805664" stroke-width="3.0" fill="none" stroke="rgb(0, 0, 0)" stroke-opacity="1.0" stroke-linecap="round" stroke-linejoin="round"/>
    <path d="M 63.12744903564453 43.20418167114258 C 56.044654846191406 46.38856887817383 44.832008361816406 61.09550857543945 54.663490295410156 51.088958740234375" stroke-width="3.0" fill="none" stroke="rgb(0, 0, 0)" stroke-opacity="1.0" stroke-linecap="round" stroke-linejoin="round"/>
    <path d="M 109.60005187988281 52.01454162597656 C 120.179931640625 52.912330627441406 105.68854522705078 49.35231399536133 97.0151596069336 47.367286682128906" stroke-width="3.0" fill="none" stroke="rgb(0, 0, 0)" stroke-opacity="1.0" stroke-linecap="round" stroke-linejoin="round"/>
    <path d="M 75.91090393066406 112.975341796875 C 42.81787872314453 86.9442138671875 61.872188568115234 98.46454620361328 47.03972625732422 80.27320861816406" stroke-width="3.0" fill="none" stroke="rgb(0, 0, 0)" stroke-opacity="1.0" stroke-linecap="round" stroke-linejoin="round"/>
    <path d="M 185.79507446289062 45.81699752807617 C 178.30596923828125 69.16799926757812 207.4571075439453 69.6283187866211 176.6124725341797 85.19409942626953" stroke-width="3.0" fill="none" stroke="rgb(0, 0, 0)" stroke-opacity="1.0" stroke-linecap="round" stroke-linejoin="round"/>
    <path d="M 103.64997100830078 186.4880828857422 C 127.1710433959961 79.96630859375 118.24728393554688 134.6410369873047 129.16421508789062 99.47520446777344" stroke-width="3.0" fill="none" stroke="rgb(0, 0, 0)" stroke-opacity="1.0" stroke-linecap="round" stroke-linejoin="round"/>
    <path d="M 47.835453033447266 95.30573272705078 C 19.218721389770508 184.6874542236328 21.470869064331055 118.2580795288086 40.55637741088867 199.11492919921875" stroke-width="3.0" fill="none" stroke="rgb(0, 0, 0)" stroke-opacity="1.0" stroke-linecap="round" stroke-linejoin="round"/>
    <path d="M 61.7747688293457 43.74932861328125 C 89.11152648925781 12.613729476928711 134.4149169921875 91.3488998413086 165.43258666992188 88.05207824707031" stroke-width="3.0" fill="none" stroke="rgb(0, 0, 0)" stroke-opacity="1.0" stroke-linecap="round" stroke-linejoin="round"/>
    <path d="M 45.17792892456055 104.23472595214844 C 100.16963958740234 122.3064956665039 85.5003890991211 110.79537963867188 106.53289031982422 114.56273651123047" stroke-width="3.0" fill="none" stroke="rgb(0, 0, 0)" stroke-opacity="1.0" stroke-linecap="round" stroke-linejoin="round"/>
    <path d="M 39.76224899291992 76.20760345458984 C 38.10036087036133 69.00679779052734 29.42829132080078 66.78597259521484 31.811399459838867 67.19087982177734" stroke-width="3.0" fill="none" stroke="rgb(0, 0, 0)" stroke-opacity="1.0" stroke-linecap="round" stroke-linejoin="round"/>
    <path d="M 164.0331268310547 88.61972045898438 C 218.81309509277344 73.54739379882812 180.57005310058594 78.40826416015625 173.95970153808594 93.59080505371094" stroke-width="3.0" fill="none" stroke="rgb(0, 0, 0)" stroke-opacity="1.0" stroke-linecap="round" stroke-linejoin="round"/>
    <path d="M 104.34974670410156 114.68446350097656 C 109.69340515136719 179.54898071289062 81.79866027832031 190.88919067382812 110.25526428222656 193.9740753173828" stroke-width="3.0" fill="none" stroke="rgb(0, 0, 0)" stroke-opacity="1.0" stroke-linecap="round" stroke-linejoin="round"/>
    <path d="M 176.384521484375 83.23624420166016 C 171.82546997070312 -10.311532974243164 188.07191467285156 70.47745513916016 202.64166259765625 46.16230392456055" stroke-width="3.0" fill="none" stroke="rgb(0, 0, 0)" stroke-opacity="1.0" stroke-linecap="round" stroke-linejoin="round"/>
    <path d="M 196.1707000732422 61.00931930541992 C 150.83334350585938 37.684749603271484 220.25442504882812 44.973480224609375 203.82223510742188 57.3819694519043" stroke-width="3.0" fill="none" stroke="rgb(0, 0, 0)" stroke-opacity="1.0" stroke-linecap="round" stroke-linejoin="round"/>
  </g>
</svg>
