<?xml version="1.0" ?>
<svg xmlns="http://www.w3.org/2000/svg" version="1.1" width="224" height="224">
  <defs/>
  <g>
    <path d="M 154.1161346435547 102.08328247070312 C 123.72953796386719 95.52312469482422 163.7687225341797 111.2135238647461 130.4337158203125 88.40510559082031" stroke-width="3.0" fill="none" stroke="rgb(0, 0, 0)" stroke-opacity="1.0" stroke-linecap="round" stroke-linejoin="round"/>
    <path d="M 109.95384216308594 93.31358337402344 C 109.66112518310547 97.2374267578125 102.50983428955078 101.4881362915039 107.89460754394531 111.36127471923828" stroke-width="3.0" fill="none" stroke="rgb(0, 0, 0)" stroke-opacity="1.0" stroke-linecap="round" stroke-linejoin="round"/>
    <path d="M 136.818115234375 104.27357482910156 C 149.1151123046875 79.79039001464844 112.52623748779297 120.02053833007812 171.8697967529297 96.30989074707031" stroke-width="3.0" fill="none" stroke="rgb(0, 0, 0)" stroke-opacity="1.0" stroke-linecap="round" stroke-linejoin="round"/>
    <path d="M 62.52536392211914 41.215606689453125 C 57.788238525390625 44.55559158325195 49.27834701538086 56.868770599365234 57.57695007324219 46.50783157348633" stroke-width="3.0" fill="none" stroke="rgb(0, 0, 0)" stroke-opacity="1.0" stroke-linecap="round" stroke-linejoin="round"/>
    <path d="M 110.22206115722656 52.17777633666992 C 117.11600494384766 50.021644592285156 103.80892181396484 49.91337203979492 98.58357238769531 43.71487045288086" stroke-width="3.0" fill="none" stroke="rgb(0, 0, 0)" stroke-opacity="1.0" stroke-linecap="round" stroke-linejoin="round"/>
    <path d="M 79.24874877929688 111.70466613769531 C 48.62196350097656 83.32990264892578 69.11685180664062 94.71520233154297 50.7692756652832 79.99301147460938" stroke-width="3.0" fill="none" stroke="rgb(0, 0, 0)" stroke-opacity="1.0" stroke-linecap="round" stroke-linejoin="round"/>
    <path d="M 188.6534423828125 46.04871368408203 C 177.72833251953125 67.88508605957031 207.4330291748047 63.43347930908203 177.98304748535156 84.61334991455078" stroke-width="3.0" fill="none" stroke="rgb(0, 0, 0)" stroke-opacity="1.0" stroke-linecap="round" stroke-linejoin="round"/>
    <path d="M 102.62191772460938 191.3629913330078 C 125.26927947998047 80.90144348144531 117.91374206542969 134.7484588623047 128.07101440429688 100.34131622314453" stroke-width="3.0" fill="none" stroke="rgb(0, 0, 0)" stroke-opacity="1.0" stroke-linecap="round" stroke-linejoin="round"/>
    <path d="M 46.87684631347656 94.18758392333984 C 19.875564575195312 188.54322814941406 18.91306495666504 119.19297790527344 38.04342269897461 197.97084045410156" stroke-width="3.0" fill="none" stroke="rgb(0, 0, 0)" stroke-opacity="1.0" stroke-linecap="round" stroke-linejoin="round"/>
    <path d="M 63.61968994140625 41.364009857177734 C 90.36798095703125 11.3219633102417 134.21031188964844 94.1316146850586 165.58294677734375 86.5525894165039" stroke-width="3.0" fill="none" stroke="rgb(0, 0, 0)" stroke-opacity="1.0" stroke-linecap="round" stroke-linejoin="round"/>
    <path d="M 48.065799713134766 101.23239135742188 C 102.77469635009766 121.7555160522461 88.31068420410156 112.5699462890625 103.91126251220703 113.03877258300781" stroke-width="3.0" fill="none" stroke="rgb(0, 0, 0)" stroke-opacity="1.0" stroke-linecap="round" stroke-linejoin="round"/>
    <path d="M 46.83274841308594 75.86917114257812 C 44.15675354003906 66.83699035644531 36.25334930419922 63.65243911743164 37.97946548461914 64.37352752685547" stroke-width="3.0" fill="none" stroke="rgb(0, 0, 0)" stroke-opacity="1.0" stroke-linecap="round" stroke-linejoin="round"/>
    <path d="M 165.2475128173828 86.97811126708984 C 214.72279357910156 68.22018432617188 182.93333435058594 72.55982208251953 172.71604919433594 94.27796936035156" stroke-width="3.0" fill="none" stroke="rgb(0, 0, 0)" stroke-opacity="1.0" stroke-linecap="round" stroke-linejoin="round"/>
    <path d="M 106.63822937011719 114.99514770507812 C 109.474365234375 186.9335479736328 80.39930725097656 189.4571075439453 110.10260772705078 193.0409698486328" stroke-width="3.0" fill="none" stroke="rgb(0, 0, 0)" stroke-opacity="1.0" stroke-linecap="round" stroke-linejoin="round"/>
    <path d="M 174.57330322265625 83.00546264648438 C 171.8660125732422 -8.804052352905273 190.91990661621094 74.55622100830078 197.48184204101562 47.77737808227539" stroke-width="3.0" fill="none" stroke="rgb(0, 0, 0)" stroke-opacity="1.0" stroke-linecap="round" stroke-linejoin="round"/>
    <path d="M 194.56924438476562 62.68391418457031 C 148.06338500976562 36.72624588012695 230.84156799316406 47.3467903137207 204.9675750732422 54.53461456298828" stroke-width="3.0" fill="none" stroke="rgb(0, 0, 0)" stroke-opacity="1.0" stroke-linecap="round" stroke-linejoin="round"/>
  </g>
</svg>
