<?xml version="1.0" ?>
<svg xmlns="http://www.w3.org/2000/svg" version="1.1" width="224" height="224">
  <defs/>
  <g>
    <path d="M 144.56527709960938 105.3474349975586 C 119.03401947021484 84.53134155273438 164.83409118652344 138.87913513183594 123.21349334716797 68.28582763671875" stroke-width="3.0" fill="none" stroke="rgb(0, 0, 0)" stroke-opacity="1.0" stroke-linecap="round" stroke-linejoin="round"/>
    <path d="M 106.21109008789062 92.9630355834961 C 108.60566711425781 102.52039337158203 101.5015640258789 101.7339096069336 107.16051483154297 113.10470581054688" stroke-width="3.0" fill="none" stroke="rgb(0, 0, 0)" stroke-opacity="1.0" stroke-linecap="round" stroke-linejoin="round"/>
    <path d="M 134.9596405029297 107.62944030761719 C 137.6373748779297 66.72209167480469 135.84716796875 133.7017059326172 181.89321899414062 86.93885040283203" stroke-width="3.0" fill="none" stroke="rgb(0, 0, 0)" stroke-opacity="1.0" stroke-linecap="round" stroke-linejoin="round"/>
    <path d="M 65.75989532470703 40.36404800415039 C 63.81100845336914 41.23193359375 56.696720123291016 45.360862731933594 61.04944610595703 43.26781463623047" stroke-width="3.0" fill="none" stroke="rgb(0, 0, 0)" stroke-opacity="1.0" stroke-linecap="round" stroke-linejoin="round"/>
    <path d="M 132.5511932373047 83.78485107421875 C 108.78607177734375 38.04345703125 112.28553009033203 65.31161499023438 95.94654846191406 43.807586669921875" stroke-width="3.0" fill="none" stroke="rgb(0, 0, 0)" stroke-opacity="1.0" stroke-linecap="round" stroke-linejoin="round"/>
    <path d="M 65.5424575805664 109.68656158447266 C 33.852718353271484 78.39743041992188 58.259765625 96.76428985595703 39.68049621582031 74.3465347290039" stroke-width="3.0" fill="none" stroke="rgb(0, 0, 0)" stroke-opacity="1.0" stroke-linecap="round" stroke-linejoin="round"/>
    <path d="M 181.03726196289062 47.14958190917969 C 185.5699005126953 26.54835319519043 195.1171112060547 45.444034576416016 189.10537719726562 84.42986297607422" stroke-width="3.0" fill="none" stroke="rgb(0, 0, 0)" stroke-opacity="1.0" stroke-linecap="round" stroke-linejoin="round"/>
    <path d="M 105.67919158935547 195.5707550048828 C 119.76737976074219 78.49291229248047 126.15528869628906 132.21173095703125 130.1426239013672 97.90804290771484" stroke-width="3.0" fill="none" stroke="rgb(0, 0, 0)" stroke-opacity="1.0" stroke-linecap="round" stroke-linejoin="round"/>
    <path d="M 48.08181381225586 102.00031280517578 C 26.90334129333496 175.7918243408203 14.770708084106445 126.57412719726562 40.14048767089844 201.34539794921875" stroke-width="3.0" fill="none" stroke="rgb(0, 0, 0)" stroke-opacity="1.0" stroke-linecap="round" stroke-linejoin="round"/>
    <path d="M 63.89798355102539 42.358497619628906 C 98.04667663574219 15.419624328613281 147.7584686279297 110.33027648925781 169.3109893798828 75.52701568603516" stroke-width="3.0" fill="none" stroke="rgb(0, 0, 0)" stroke-opacity="1.0" stroke-linecap="round" stroke-linejoin="round"/>
    <path d="M 45.36421203613281 98.3731689453125 C 79.80268096923828 123.54914855957031 78.3393325805664 112.36247253417969 106.93923950195312 116.35723876953125" stroke-width="3.0" fill="none" stroke="rgb(0, 0, 0)" stroke-opacity="1.0" stroke-linecap="round" stroke-linejoin="round"/>
    <path d="M 20.167648315429688 132.246826171875 C 9.676273345947266 69.54252624511719 13.957462310791016 83.99776458740234 58.51510238647461 44.671390533447266" stroke-width="3.0" fill="none" stroke="rgb(0, 0, 0)" stroke-opacity="1.0" stroke-linecap="round" stroke-linejoin="round"/>
    <path d="M 177.13430786132812 87.02533721923828 C 199.53948974609375 29.31487274169922 209.00294494628906 40.73525619506836 173.54998779296875 90.8996810913086" stroke-width="3.0" fill="none" stroke="rgb(0, 0, 0)" stroke-opacity="1.0" stroke-linecap="round" stroke-linejoin="round"/>
    <path d="M 105.45134735107422 118.58171844482422 C 107.94161987304688 179.92169189453125 77.97940826416016 206.04774475097656 109.65070343017578 189.93479919433594" stroke-width="3.0" fill="none" stroke="rgb(0, 0, 0)" stroke-opacity="1.0" stroke-linecap="round" stroke-linejoin="round"/>
    <path d="M 167.3800048828125 73.32168579101562 C 175.93426513671875 4.573799133300781 216.26145935058594 71.5647964477539 209.4835968017578 48.208404541015625" stroke-width="3.0" fill="none" stroke="rgb(0, 0, 0)" stroke-opacity="1.0" stroke-linecap="round" stroke-linejoin="round"/>
    <path d="M 197.51669311523438 57.49011993408203 C 159.05490112304688 43.773555755615234 255.21498107910156 49.9427375793457 201.7032470703125 56.46718215942383" stroke-width="3.0" fill="none" stroke="rgb(0, 0, 0)" stroke-opacity="1.0" stroke-linecap="round" stroke-linejoin="round"/>
  </g>
</svg>
