<?xml version="1.0" ?>
<svg xmlns="http://www.w3.org/2000/svg" version="1.1" width="224" height="224">
  <defs/>
  <g>
    <path d="M 128.5122528076172 77.82711029052734 C 127.23104858398438 87.20545196533203 129.00050354003906 79.54254913330078 127.11660766601562 82.17686462402344" stroke-width="3.0" fill="none" stroke="rgb(0, 0, 0)" stroke-opacity="1.0" stroke-linecap="round" stroke-linejoin="round"/>
    <path d="M 87.48302459716797 98.31105041503906 C 87.60311889648438 98.20677947998047 85.65983581542969 101.52383422851562 92.41940307617188 98.3487777709961" stroke-width="3.0" fill="none" stroke="rgb(0, 0, 0)" stroke-opacity="1.0" stroke-linecap="round" stroke-linejoin="round"/>
    <path d="M 150.8343048095703 95.7979736328125 C 157.51719665527344 88.61842346191406 157.48558044433594 82.33248901367188 152.39569091796875 90.21516418457031" stroke-width="3.0" fill="none" stroke="rgb(0, 0, 0)" stroke-opacity="1.0" stroke-linecap="round" stroke-linejoin="round"/>
    <path d="M 55.455509185791016 72.99251556396484 C 56.80413818359375 90.91570281982422 52.08946228027344 95.38162994384766 54.563785552978516 95.0862045288086" stroke-width="3.0" fill="none" stroke="rgb(0, 0, 0)" stroke-opacity="1.0" stroke-linecap="round" stroke-linejoin="round"/>
    <path d="M 106.54064178466797 74.55648803710938 C 103.82500457763672 62.31142044067383 105.45639038085938 65.13179779052734 101.52368927001953 74.51222229003906" stroke-width="3.0" fill="none" stroke="rgb(0, 0, 0)" stroke-opacity="1.0" stroke-linecap="round" stroke-linejoin="round"/>
    <path d="M 54.6307373046875 94.37100982666016 C 57.92110061645508 103.12154388427734 58.338382720947266 101.11283111572266 54.42733383178711 95.3038101196289" stroke-width="3.0" fill="none" stroke="rgb(0, 0, 0)" stroke-opacity="1.0" stroke-linecap="round" stroke-linejoin="round"/>
    <path d="M 166.51287841796875 66.999267578125 C 167.458251953125 72.13212585449219 166.2406005859375 76.31076049804688 167.431396484375 78.08219146728516" stroke-width="3.0" fill="none" stroke="rgb(0, 0, 0)" stroke-opacity="1.0" stroke-linecap="round" stroke-linejoin="round"/>
    <path d="M 105.16730499267578 121.9195327758789 C 105.99153900146484 114.71456909179688 108.15669250488281 120.74633026123047 103.2764663696289 126.35379791259766" stroke-width="3.0" fill="none" stroke="rgb(0, 0, 0)" stroke-opacity="1.0" stroke-linecap="round" stroke-linejoin="round"/>
    <path d="M 36.39072036743164 164.6661834716797 C 31.39944839477539 170.81076049804688 34.019500732421875 166.55743408203125 29.724205017089844 172.36463928222656" stroke-width="3.0" fill="none" stroke="rgb(0, 0, 0)" stroke-opacity="1.0" stroke-linecap="round" stroke-linejoin="round"/>
    <path d="M 114.95503234863281 61.50288772583008 C 114.10787963867188 67.57917022705078 120.19392395019531 72.27576446533203 119.93748474121094 77.55660247802734" stroke-width="3.0" fill="none" stroke="rgb(0, 0, 0)" stroke-opacity="1.0" stroke-linecap="round" stroke-linejoin="round"/>
    <path d="M 69.36922454833984 106.63694763183594 C 80.10845184326172 106.00409698486328 83.22926330566406 109.78010559082031 84.01740264892578 110.04499816894531" stroke-width="3.0" fill="none" stroke="rgb(0, 0, 0)" stroke-opacity="1.0" stroke-linecap="round" stroke-linejoin="round"/>
    <path d="M 22.189922332763672 84.42542266845703 C 15.120390892028809 78.71188354492188 13.189851760864258 79.5936279296875 16.730817794799805 78.72834014892578" stroke-width="3.0" fill="none" stroke="rgb(0, 0, 0)" stroke-opacity="1.0" stroke-linecap="round" stroke-linejoin="round"/>
    <path d="M 165.22959899902344 81.5635986328125 C 168.59475708007812 78.39323425292969 165.4186248779297 77.44448852539062 172.02633666992188 93.26871490478516" stroke-width="3.0" fill="none" stroke="rgb(0, 0, 0)" stroke-opacity="1.0" stroke-linecap="round" stroke-linejoin="round"/>
    <path d="M 108.95851135253906 129.28346252441406 C 112.37944030761719 135.24989318847656 113.8838882446289 147.03677368164062 112.77911376953125 150.28439331054688" stroke-width="3.0" fill="none" stroke="rgb(0, 0, 0)" stroke-opacity="1.0" stroke-linecap="round" stroke-linejoin="round"/>
    <path d="M 184.98023986816406 47.30551528930664 C 188.95420837402344 38.378700256347656 188.2745361328125 53.80976486206055 194.4776153564453 55.35371398925781" stroke-width="3.0" fill="none" stroke="rgb(0, 0, 0)" stroke-opacity="1.0" stroke-linecap="round" stroke-linejoin="round"/>
    <path d="M 203.072265625 54.74761199951172 C 193.50479125976562 53.64365768432617 200.74664306640625 53.00126647949219 214.00819396972656 53.78595733642578" stroke-width="3.0" fill="none" stroke="rgb(0, 0, 0)" stroke-opacity="1.0" stroke-linecap="round" stroke-linejoin="round"/>
  </g>
</svg>
