<?xml version="1.0" ?>
<svg xmlns="http://www.w3.org/2000/svg" version="1.1" width="224" height="224">
  <defs/>
  <g>
    <path d="M 145.01597595214844 104.65579223632812 C 115.81360626220703 79.97142028808594 169.82833862304688 137.46827697753906 123.07989501953125 74.38002014160156" stroke-width="3.0" fill="none" stroke="rgb(0, 0, 0)" stroke-opacity="1.0" stroke-linecap="round" stroke-linejoin="round"/>
    <path d="M 104.3941421508789 95.85935974121094 C 108.13581085205078 110.52332305908203 100.09162139892578 107.06291961669922 106.23298645019531 115.45204162597656" stroke-width="3.0" fill="none" stroke="rgb(0, 0, 0)" stroke-opacity="1.0" stroke-linecap="round" stroke-linejoin="round"/>
    <path d="M 136.75750732421875 105.21694946289062 C 133.0133056640625 65.80620574951172 138.25222778320312 139.5561065673828 182.4743194580078 83.35204315185547" stroke-width="3.0" fill="none" stroke="rgb(0, 0, 0)" stroke-opacity="1.0" stroke-linecap="round" stroke-linejoin="round"/>
    <path d="M 63.191246032714844 40.58259963989258 C 64.2387924194336 40.501407623291016 57.39987564086914 46.2127571105957 60.769100189208984 41.4411506652832" stroke-width="3.0" fill="none" stroke="rgb(0, 0, 0)" stroke-opacity="1.0" stroke-linecap="round" stroke-linejoin="round"/>
    <path d="M 127.5472183227539 84.5478515625 C 107.81111145019531 35.12213134765625 110.85679626464844 66.66079711914062 97.55947875976562 45.09959030151367" stroke-width="3.0" fill="none" stroke="rgb(0, 0, 0)" stroke-opacity="1.0" stroke-linecap="round" stroke-linejoin="round"/>
    <path d="M 67.50270080566406 112.90827941894531 C 33.84664535522461 75.68180084228516 56.114776611328125 93.6359634399414 38.89514923095703 69.54352569580078" stroke-width="3.0" fill="none" stroke="rgb(0, 0, 0)" stroke-opacity="1.0" stroke-linecap="round" stroke-linejoin="round"/>
    <path d="M 182.28762817382812 46.8294677734375 C 187.63064575195312 39.21429443359375 188.58294677734375 47.176597595214844 188.23846435546875 81.22511291503906" stroke-width="3.0" fill="none" stroke="rgb(0, 0, 0)" stroke-opacity="1.0" stroke-linecap="round" stroke-linejoin="round"/>
    <path d="M 102.36641693115234 194.0859375 C 124.77483367919922 78.75188446044922 120.10120391845703 125.94872283935547 129.79588317871094 101.69056701660156" stroke-width="3.0" fill="none" stroke="rgb(0, 0, 0)" stroke-opacity="1.0" stroke-linecap="round" stroke-linejoin="round"/>
    <path d="M 46.481895446777344 100.5718002319336 C 26.143354415893555 182.889404296875 16.564716339111328 129.61639404296875 39.07065963745117 198.79949951171875" stroke-width="3.0" fill="none" stroke="rgb(0, 0, 0)" stroke-opacity="1.0" stroke-linecap="round" stroke-linejoin="round"/>
    <path d="M 62.750640869140625 41.76789093017578 C 97.93547058105469 15.359037399291992 142.3049774169922 111.765869140625 169.47012329101562 78.34058380126953" stroke-width="3.0" fill="none" stroke="rgb(0, 0, 0)" stroke-opacity="1.0" stroke-linecap="round" stroke-linejoin="round"/>
    <path d="M 48.743492126464844 102.38362121582031 C 77.22943878173828 122.1412124633789 83.2007064819336 114.03032684326172 105.78307342529297 118.81399536132812" stroke-width="3.0" fill="none" stroke="rgb(0, 0, 0)" stroke-opacity="1.0" stroke-linecap="round" stroke-linejoin="round"/>
    <path d="M 21.472803115844727 128.35232543945312 C 7.755830764770508 68.45426940917969 16.37004280090332 82.03082275390625 59.586181640625 43.001220703125" stroke-width="3.0" fill="none" stroke="rgb(0, 0, 0)" stroke-opacity="1.0" stroke-linecap="round" stroke-linejoin="round"/>
    <path d="M 165.7212371826172 81.61685180664062 C 195.5192108154297 32.82838439941406 202.57827758789062 47.69925308227539 174.19390869140625 92.31935119628906" stroke-width="3.0" fill="none" stroke="rgb(0, 0, 0)" stroke-opacity="1.0" stroke-linecap="round" stroke-linejoin="round"/>
    <path d="M 104.90936279296875 120.62869262695312 C 109.20462036132812 183.99362182617188 77.69092559814453 200.12335205078125 112.57720947265625 187.9359130859375" stroke-width="3.0" fill="none" stroke="rgb(0, 0, 0)" stroke-opacity="1.0" stroke-linecap="round" stroke-linejoin="round"/>
    <path d="M 170.85299682617188 79.32968139648438 C 174.44520568847656 1.0542612075805664 213.23509216308594 72.49688720703125 210.93133544921875 46.327110290527344" stroke-width="3.0" fill="none" stroke="rgb(0, 0, 0)" stroke-opacity="1.0" stroke-linecap="round" stroke-linejoin="round"/>
    <path d="M 198.1349334716797 59.101417541503906 C 153.22511291503906 38.60137939453125 256.70892333984375 47.276981353759766 202.1897430419922 57.590057373046875" stroke-width="3.0" fill="none" stroke="rgb(0, 0, 0)" stroke-opacity="1.0" stroke-linecap="round" stroke-linejoin="round"/>
  </g>
</svg>
