<?xml version="1.0" ?>
<svg xmlns="http://www.w3.org/2000/svg" version="1.1" width="224" height="224">
  <defs/>
  <g>
    <path d="M 143.0407257080078 95.34423065185547 C 119.75633239746094 79.6929702758789 124.39979553222656 71.72360229492188 129.2791748046875 89.73976135253906" stroke-width="3.0" fill="none" stroke="rgb(0, 0, 0)" stroke-opacity="1.0" stroke-linecap="round" stroke-linejoin="round"/>
    <path d="M 93.51954650878906 92.20735168457031 C 93.35054779052734 94.649658203125 99.14558410644531 108.46182250976562 107.56494140625 111.84877014160156" stroke-width="3.0" fill="none" stroke="rgb(0, 0, 0)" stroke-opacity="1.0" stroke-linecap="round" stroke-linejoin="round"/>
    <path d="M 135.07229614257812 106.56051635742188 C 150.27938842773438 99.0559310913086 128.99559020996094 90.72408294677734 152.0741424560547 100.7448959350586" stroke-width="3.0" fill="none" stroke="rgb(0, 0, 0)" stroke-opacity="1.0" stroke-linecap="round" stroke-linejoin="round"/>
    <path d="M 57.0659294128418 47.27947998046875 C 54.73575973510742 61.14999771118164 36.30784606933594 93.5196304321289 43.177085876464844 78.48760223388672" stroke-width="3.0" fill="none" stroke="rgb(0, 0, 0)" stroke-opacity="1.0" stroke-linecap="round" stroke-linejoin="round"/>
    <path d="M 112.94707489013672 57.22538375854492 C 120.021728515625 62.506038665771484 119.33104705810547 58.882442474365234 108.67289733886719 54.09345626831055" stroke-width="3.0" fill="none" stroke="rgb(0, 0, 0)" stroke-opacity="1.0" stroke-linecap="round" stroke-linejoin="round"/>
    <path d="M 59.13712692260742 103.17156219482422 C 58.69911193847656 94.30472564697266 47.53076934814453 83.08329010009766 48.75788879394531 73.36790466308594" stroke-width="3.0" fill="none" stroke="rgb(0, 0, 0)" stroke-opacity="1.0" stroke-linecap="round" stroke-linejoin="round"/>
    <path d="M 180.01564025878906 42.53205871582031 C 176.3117218017578 78.68569946289062 180.79150390625 73.86258697509766 166.66561889648438 83.5032958984375" stroke-width="3.0" fill="none" stroke="rgb(0, 0, 0)" stroke-opacity="1.0" stroke-linecap="round" stroke-linejoin="round"/>
    <path d="M 114.82779693603516 136.9170379638672 C 126.78543090820312 97.97523498535156 107.88570404052734 129.48118591308594 127.30503845214844 110.19168853759766" stroke-width="3.0" fill="none" stroke="rgb(0, 0, 0)" stroke-opacity="1.0" stroke-linecap="round" stroke-linejoin="round"/>
    <path d="M 41.38405227661133 102.9962158203125 C 22.985132217407227 187.1304473876953 18.02517318725586 132.90792846679688 41.56476593017578 198.23825073242188" stroke-width="3.0" fill="none" stroke="rgb(0, 0, 0)" stroke-opacity="1.0" stroke-linecap="round" stroke-linejoin="round"/>
    <path d="M 63.1251335144043 45.041873931884766 C 105.8508071899414 33.13761901855469 123.0145034790039 70.56765747070312 146.42880249023438 82.9872817993164" stroke-width="3.0" fill="none" stroke="rgb(0, 0, 0)" stroke-opacity="1.0" stroke-linecap="round" stroke-linejoin="round"/>
    <path d="M 46.85673904418945 94.56175994873047 C 82.5819091796875 127.91583251953125 73.2447280883789 113.89640045166016 105.30516815185547 117.42098236083984" stroke-width="3.0" fill="none" stroke="rgb(0, 0, 0)" stroke-opacity="1.0" stroke-linecap="round" stroke-linejoin="round"/>
    <path d="M 36.80289077758789 85.3636703491211 C 32.14100646972656 76.81619262695312 22.433753967285156 76.86479187011719 24.51134490966797 74.56383514404297" stroke-width="3.0" fill="none" stroke="rgb(0, 0, 0)" stroke-opacity="1.0" stroke-linecap="round" stroke-linejoin="round"/>
    <path d="M 145.087890625 82.71149444580078 C 205.4960479736328 79.76161193847656 161.78421020507812 77.9229507446289 172.12945556640625 96.55353546142578" stroke-width="3.0" fill="none" stroke="rgb(0, 0, 0)" stroke-opacity="1.0" stroke-linecap="round" stroke-linejoin="round"/>
    <path d="M 108.10531616210938 110.6781997680664 C 116.22219848632812 150.97991943359375 79.72888946533203 201.70062255859375 110.829833984375 191.16041564941406" stroke-width="3.0" fill="none" stroke="rgb(0, 0, 0)" stroke-opacity="1.0" stroke-linecap="round" stroke-linejoin="round"/>
    <path d="M 174.81214904785156 60.21672821044922 C 199.8339080810547 6.4768805503845215 183.66348266601562 65.52944946289062 204.9532012939453 44.80141067504883" stroke-width="3.0" fill="none" stroke="rgb(0, 0, 0)" stroke-opacity="1.0" stroke-linecap="round" stroke-linejoin="round"/>
    <path d="M 199.05613708496094 58.207313537597656 C 160.88104248046875 39.502498626708984 208.2118682861328 35.65137481689453 204.66030883789062 58.92116165161133" stroke-width="3.0" fill="none" stroke="rgb(0, 0, 0)" stroke-opacity="1.0" stroke-linecap="round" stroke-linejoin="round"/>
  </g>
</svg>
