<?xml version="1.0" ?>
<svg xmlns="http://www.w3.org/2000/svg" version="1.1" width="224" height="224">
  <defs/>
  <g>
    <path d="M 150.99285888671875 98.00042724609375 C 118.72848510742188 85.4339599609375 171.09664916992188 115.45217895507812 131.86346435546875 79.76366424560547" stroke-width="3.0" fill="none" stroke="rgb(0, 0, 0)" stroke-opacity="1.0" stroke-linecap="round" stroke-linejoin="round"/>
    <path d="M 108.66100311279297 95.06147003173828 C 111.6136703491211 105.82881927490234 104.22112274169922 102.22464752197266 109.40921783447266 114.9940414428711" stroke-width="3.0" fill="none" stroke="rgb(0, 0, 0)" stroke-opacity="1.0" stroke-linecap="round" stroke-linejoin="round"/>
    <path d="M 139.58224487304688 98.38124084472656 C 148.9512481689453 63.331424713134766 116.40662384033203 121.95034790039062 179.34190368652344 90.38292694091797" stroke-width="3.0" fill="none" stroke="rgb(0, 0, 0)" stroke-opacity="1.0" stroke-linecap="round" stroke-linejoin="round"/>
    <path d="M 62.47927474975586 43.80093765258789 C 61.78860855102539 44.134254455566406 53.61019515991211 48.469032287597656 65.38292694091797 41.895347595214844" stroke-width="3.0" fill="none" stroke="rgb(0, 0, 0)" stroke-opacity="1.0" stroke-linecap="round" stroke-linejoin="round"/>
    <path d="M 121.68302917480469 66.21128845214844 C 110.59635162353516 52.70337677001953 103.30745697021484 59.461944580078125 94.0273208618164 45.33861541748047" stroke-width="3.0" fill="none" stroke="rgb(0, 0, 0)" stroke-opacity="1.0" stroke-linecap="round" stroke-linejoin="round"/>
    <path d="M 71.61924743652344 116.04808807373047 C 45.54838562011719 92.71012115478516 67.66740417480469 104.72430419921875 47.51795196533203 70.61993408203125" stroke-width="3.0" fill="none" stroke="rgb(0, 0, 0)" stroke-opacity="1.0" stroke-linecap="round" stroke-linejoin="round"/>
    <path d="M 188.0387725830078 38.83443069458008 C 174.77366638183594 52.933563232421875 192.5071258544922 61.22271728515625 177.9123077392578 83.22636413574219" stroke-width="3.0" fill="none" stroke="rgb(0, 0, 0)" stroke-opacity="1.0" stroke-linecap="round" stroke-linejoin="round"/>
    <path d="M 101.60416412353516 194.10997009277344 C 123.19373321533203 83.73442840576172 124.32225799560547 131.34727478027344 129.48330688476562 99.87389373779297" stroke-width="3.0" fill="none" stroke="rgb(0, 0, 0)" stroke-opacity="1.0" stroke-linecap="round" stroke-linejoin="round"/>
    <path d="M 34.035648345947266 85.31415557861328 C 31.6983585357666 193.762451171875 17.306385040283203 120.96935272216797 40.25916290283203 198.51019287109375" stroke-width="3.0" fill="none" stroke="rgb(0, 0, 0)" stroke-opacity="1.0" stroke-linecap="round" stroke-linejoin="round"/>
    <path d="M 60.8670539855957 45.5414924621582 C 91.86104583740234 14.471518516540527 137.71170043945312 101.62493896484375 166.6594696044922 84.88301849365234" stroke-width="3.0" fill="none" stroke="rgb(0, 0, 0)" stroke-opacity="1.0" stroke-linecap="round" stroke-linejoin="round"/>
    <path d="M 40.3577880859375 93.19793701171875 C 88.71929931640625 130.22183227539062 78.97786712646484 118.35271453857422 106.08196258544922 119.65326690673828" stroke-width="3.0" fill="none" stroke="rgb(0, 0, 0)" stroke-opacity="1.0" stroke-linecap="round" stroke-linejoin="round"/>
    <path d="M 33.23373031616211 90.46395111083984 C 32.96001434326172 67.1491928100586 32.174625396728516 78.72371673583984 47.30079650878906 57.85346984863281" stroke-width="3.0" fill="none" stroke="rgb(0, 0, 0)" stroke-opacity="1.0" stroke-linecap="round" stroke-linejoin="round"/>
    <path d="M 168.10621643066406 84.98019409179688 C 196.30531311035156 46.06853103637695 190.92718505859375 58.946327209472656 181.9681396484375 86.72964477539062" stroke-width="3.0" fill="none" stroke="rgb(0, 0, 0)" stroke-opacity="1.0" stroke-linecap="round" stroke-linejoin="round"/>
    <path d="M 107.29866790771484 119.6078872680664 C 108.17787170410156 180.62371826171875 78.5560302734375 196.21592712402344 110.69457244873047 190.62258911132812" stroke-width="3.0" fill="none" stroke="rgb(0, 0, 0)" stroke-opacity="1.0" stroke-linecap="round" stroke-linejoin="round"/>
    <path d="M 173.33383178710938 80.85245513916016 C 175.64988708496094 -9.122773170471191 195.54591369628906 74.04861450195312 198.96371459960938 55.28361129760742" stroke-width="3.0" fill="none" stroke="rgb(0, 0, 0)" stroke-opacity="1.0" stroke-linecap="round" stroke-linejoin="round"/>
    <path d="M 193.4532012939453 63.459815979003906 C 153.15391540527344 37.98966979980469 229.95156860351562 48.42429733276367 199.9962921142578 51.53889846801758" stroke-width="3.0" fill="none" stroke="rgb(0, 0, 0)" stroke-opacity="1.0" stroke-linecap="round" stroke-linejoin="round"/>
  </g>
</svg>
