<?xml version="1.0" ?>
<svg xmlns="http://www.w3.org/2000/svg" version="1.1" width="224" height="224">
  <defs/>
  <g>
    <path d="M 144.10659790039062 106.68756866455078 C 114.57813262939453 83.88922119140625 166.15159606933594 139.70932006835938 121.50713348388672 75.03604125976562" stroke-width="3.0" fill="none" stroke="rgb(0, 0, 0)" stroke-opacity="1.0" stroke-linecap="round" stroke-linejoin="round"/>
    <path d="M 107.3547592163086 94.96179962158203 C 110.4197998046875 109.263916015625 100.62278747558594 106.4759521484375 106.88607788085938 115.6678695678711" stroke-width="3.0" fill="none" stroke="rgb(0, 0, 0)" stroke-opacity="1.0" stroke-linecap="round" stroke-linejoin="round"/>
    <path d="M 135.35411071777344 107.96326446533203 C 130.38088989257812 68.23265075683594 130.35678100585938 136.3467254638672 181.90634155273438 87.09138488769531" stroke-width="3.0" fill="none" stroke="rgb(0, 0, 0)" stroke-opacity="1.0" stroke-linecap="round" stroke-linejoin="round"/>
    <path d="M 63.82503890991211 40.80534362792969 C 63.51985549926758 39.84221649169922 56.430938720703125 44.90289306640625 59.74658203125 43.13262176513672" stroke-width="3.0" fill="none" stroke="rgb(0, 0, 0)" stroke-opacity="1.0" stroke-linecap="round" stroke-linejoin="round"/>
    <path d="M 129.22048950195312 81.60675811767578 C 110.58936309814453 36.9009895324707 113.04428100585938 63.94800567626953 96.22150421142578 44.274593353271484" stroke-width="3.0" fill="none" stroke="rgb(0, 0, 0)" stroke-opacity="1.0" stroke-linecap="round" stroke-linejoin="round"/>
    <path d="M 67.08642578125 112.80249786376953 C 35.147438049316406 80.22775268554688 57.982177734375 97.5206298828125 39.474403381347656 70.72587585449219" stroke-width="3.0" fill="none" stroke="rgb(0, 0, 0)" stroke-opacity="1.0" stroke-linecap="round" stroke-linejoin="round"/>
    <path d="M 180.54721069335938 46.88063049316406 C 190.54522705078125 30.474863052368164 189.97369384765625 44.429893493652344 188.7495574951172 79.81684875488281" stroke-width="3.0" fill="none" stroke="rgb(0, 0, 0)" stroke-opacity="1.0" stroke-linecap="round" stroke-linejoin="round"/>
    <path d="M 103.09454345703125 195.69166564941406 C 123.44084930419922 77.91389465332031 121.76154327392578 124.95082092285156 129.24609375 103.29722595214844" stroke-width="3.0" fill="none" stroke="rgb(0, 0, 0)" stroke-opacity="1.0" stroke-linecap="round" stroke-linejoin="round"/>
    <path d="M 46.554405212402344 103.93266296386719 C 24.747337341308594 180.55189514160156 15.307639122009277 132.41197204589844 41.61472702026367 199.50633239746094" stroke-width="3.0" fill="none" stroke="rgb(0, 0, 0)" stroke-opacity="1.0" stroke-linecap="round" stroke-linejoin="round"/>
    <path d="M 61.87504196166992 41.65787887573242 C 96.77894592285156 15.161375999450684 145.03639221191406 110.39452362060547 169.76171875 76.60270690917969" stroke-width="3.0" fill="none" stroke="rgb(0, 0, 0)" stroke-opacity="1.0" stroke-linecap="round" stroke-linejoin="round"/>
    <path d="M 47.41010665893555 104.77091217041016 C 79.85005187988281 120.58321380615234 82.0589370727539 115.29242706298828 106.28217315673828 118.16201782226562" stroke-width="3.0" fill="none" stroke="rgb(0, 0, 0)" stroke-opacity="1.0" stroke-linecap="round" stroke-linejoin="round"/>
    <path d="M 17.690441131591797 127.21249389648438 C 9.05508804321289 71.12651824951172 16.395153045654297 80.72416687011719 59.4033088684082 42.886680603027344" stroke-width="3.0" fill="none" stroke="rgb(0, 0, 0)" stroke-opacity="1.0" stroke-linecap="round" stroke-linejoin="round"/>
    <path d="M 166.86148071289062 82.20526123046875 C 199.9670867919922 28.7457218170166 208.8358612060547 42.7116813659668 174.6176300048828 90.35369110107422" stroke-width="3.0" fill="none" stroke="rgb(0, 0, 0)" stroke-opacity="1.0" stroke-linecap="round" stroke-linejoin="round"/>
    <path d="M 105.71690368652344 120.43930053710938 C 109.17713165283203 187.2416229248047 77.33232116699219 205.38519287109375 108.29795837402344 190.1295928955078" stroke-width="3.0" fill="none" stroke="rgb(0, 0, 0)" stroke-opacity="1.0" stroke-linecap="round" stroke-linejoin="round"/>
    <path d="M 169.2488555908203 76.14302062988281 C 173.8389129638672 1.5226894617080688 212.71885681152344 74.44514465332031 208.3833465576172 45.72819519042969" stroke-width="3.0" fill="none" stroke="rgb(0, 0, 0)" stroke-opacity="1.0" stroke-linecap="round" stroke-linejoin="round"/>
    <path d="M 195.16168212890625 61.46025848388672 C 152.33802795410156 37.852020263671875 256.5522155761719 48.61293411254883 199.29151916503906 57.59569549560547" stroke-width="3.0" fill="none" stroke="rgb(0, 0, 0)" stroke-opacity="1.0" stroke-linecap="round" stroke-linejoin="round"/>
  </g>
</svg>
