<?xml version="1.0" ?>
<svg xmlns="http://www.w3.org/2000/svg" version="1.1" width="224" height="224">
  <defs/>
  <g>
    <path d="M 137.92359924316406 105.90923309326172 C 120.18852233886719 92.6838607788086 154.41378784179688 133.39073181152344 116.32953643798828 67.10179901123047" stroke-width="3.0" fill="none" stroke="rgb(0, 0, 0)" stroke-opacity="1.0" stroke-linecap="round" stroke-linejoin="round"/>
    <path d="M 111.67768096923828 93.97257995605469 C 113.03336334228516 103.87600708007812 104.74097442626953 102.52101135253906 111.82025146484375 113.50318145751953" stroke-width="3.0" fill="none" stroke="rgb(0, 0, 0)" stroke-opacity="1.0" stroke-linecap="round" stroke-linejoin="round"/>
    <path d="M 132.3209991455078 107.70962524414062 C 131.93714904785156 81.82470703125 145.81700134277344 136.35537719726562 188.46322631835938 75.22465515136719" stroke-width="3.0" fill="none" stroke="rgb(0, 0, 0)" stroke-opacity="1.0" stroke-linecap="round" stroke-linejoin="round"/>
    <path d="M 67.61294555664062 38.518367767333984 C 64.18148040771484 38.70173263549805 52.0487174987793 45.73649978637695 46.58341979980469 55.376705169677734" stroke-width="3.0" fill="none" stroke="rgb(0, 0, 0)" stroke-opacity="1.0" stroke-linecap="round" stroke-linejoin="round"/>
    <path d="M 132.7372283935547 82.43598937988281 C 108.0433120727539 37.6942138671875 112.54886627197266 65.4864501953125 97.09756469726562 45.14280700683594" stroke-width="3.0" fill="none" stroke="rgb(0, 0, 0)" stroke-opacity="1.0" stroke-linecap="round" stroke-linejoin="round"/>
    <path d="M 70.12462615966797 113.49403381347656 C 39.928466796875 83.15972137451172 61.7017936706543 99.81056213378906 44.18164825439453 70.8546142578125" stroke-width="3.0" fill="none" stroke="rgb(0, 0, 0)" stroke-opacity="1.0" stroke-linecap="round" stroke-linejoin="round"/>
    <path d="M 181.55384826660156 60.2542839050293 C 172.70619201660156 41.65907669067383 199.8515625 53.11238479614258 190.23095703125 82.4317626953125" stroke-width="3.0" fill="none" stroke="rgb(0, 0, 0)" stroke-opacity="1.0" stroke-linecap="round" stroke-linejoin="round"/>
    <path d="M 102.67652130126953 191.2301788330078 C 119.64957427978516 86.99781036376953 121.1004867553711 132.06259155273438 122.23991394042969 106.59587097167969" stroke-width="3.0" fill="none" stroke="rgb(0, 0, 0)" stroke-opacity="1.0" stroke-linecap="round" stroke-linejoin="round"/>
    <path d="M 45.83637237548828 103.34661102294922 C 26.88624382019043 173.1407470703125 14.790541648864746 125.90371704101562 40.46237564086914 198.64370727539062" stroke-width="3.0" fill="none" stroke="rgb(0, 0, 0)" stroke-opacity="1.0" stroke-linecap="round" stroke-linejoin="round"/>
    <path d="M 67.78514099121094 38.54818344116211 C 99.38162231445312 17.32134246826172 158.46054077148438 139.0645294189453 173.4817657470703 57.366485595703125" stroke-width="3.0" fill="none" stroke="rgb(0, 0, 0)" stroke-opacity="1.0" stroke-linecap="round" stroke-linejoin="round"/>
    <path d="M 49.70234680175781 103.02259063720703 C 87.11475372314453 121.85845184326172 80.4321517944336 111.64071655273438 106.60089874267578 117.3868637084961" stroke-width="3.0" fill="none" stroke="rgb(0, 0, 0)" stroke-opacity="1.0" stroke-linecap="round" stroke-linejoin="round"/>
    <path d="M 22.16448974609375 138.27032470703125 C 14.816651344299316 77.47787475585938 4.569503307342529 84.85839080810547 52.1837043762207 48.34659194946289" stroke-width="3.0" fill="none" stroke="rgb(0, 0, 0)" stroke-opacity="1.0" stroke-linecap="round" stroke-linejoin="round"/>
    <path d="M 171.78912353515625 84.23228454589844 C 189.41213989257812 16.329225540161133 204.1746063232422 28.00387954711914 170.08981323242188 93.8780288696289" stroke-width="3.0" fill="none" stroke="rgb(0, 0, 0)" stroke-opacity="1.0" stroke-linecap="round" stroke-linejoin="round"/>
    <path d="M 105.3355941772461 114.99742126464844 C 108.64420318603516 190.29046630859375 78.56488800048828 199.51654052734375 110.21109008789062 193.90113830566406" stroke-width="3.0" fill="none" stroke="rgb(0, 0, 0)" stroke-opacity="1.0" stroke-linecap="round" stroke-linejoin="round"/>
    <path d="M 172.74818420410156 64.57745361328125 C 183.5225372314453 7.2504777908325195 217.72866821289062 76.48414611816406 207.0607452392578 49.56523132324219" stroke-width="3.0" fill="none" stroke="rgb(0, 0, 0)" stroke-opacity="1.0" stroke-linecap="round" stroke-linejoin="round"/>
    <path d="M 195.6977081298828 62.77253723144531 C 148.03846740722656 40.43388366699219 254.42623901367188 43.77092361450195 197.37255859375 57.891780853271484" stroke-width="3.0" fill="none" stroke="rgb(0, 0, 0)" stroke-opacity="1.0" stroke-linecap="round" stroke-linejoin="round"/>
  </g>
</svg>
