<?xml version="1.0" ?>
<svg xmlns="http://www.w3.org/2000/svg" version="1.1" width="224" height="224">
  <defs/>
  <g>
    <path d="M 143.5645294189453 107.23555755615234 C 116.34796142578125 82.2005615234375 161.5362548828125 140.61534118652344 120.73625946044922 73.61578369140625" stroke-width="3.0" fill="none" stroke="rgb(0, 0, 0)" stroke-opacity="1.0" stroke-linecap="round" stroke-linejoin="round"/>
    <path d="M 105.57023620605469 95.7336196899414 C 109.1408920288086 107.05162811279297 101.79615783691406 104.31312561035156 105.7467041015625 115.2400131225586" stroke-width="3.0" fill="none" stroke="rgb(0, 0, 0)" stroke-opacity="1.0" stroke-linecap="round" stroke-linejoin="round"/>
    <path d="M 134.1157684326172 107.23861694335938 C 132.93431091308594 69.18814849853516 131.03370666503906 137.92941284179688 178.98052978515625 86.25003814697266" stroke-width="3.0" fill="none" stroke="rgb(0, 0, 0)" stroke-opacity="1.0" stroke-linecap="round" stroke-linejoin="round"/>
    <path d="M 64.0999755859375 41.40971374511719 C 63.7645149230957 40.671234130859375 56.60214614868164 45.27592468261719 59.67995071411133 43.567848205566406" stroke-width="3.0" fill="none" stroke="rgb(0, 0, 0)" stroke-opacity="1.0" stroke-linecap="round" stroke-linejoin="round"/>
    <path d="M 131.9916534423828 82.13916778564453 C 107.17922973632812 40.515174865722656 111.00291442871094 65.28715515136719 95.79657745361328 44.35764694213867" stroke-width="3.0" fill="none" stroke="rgb(0, 0, 0)" stroke-opacity="1.0" stroke-linecap="round" stroke-linejoin="round"/>
    <path d="M 66.54802703857422 112.93408203125 C 34.74313735961914 81.02259826660156 58.26683807373047 98.46480560302734 39.598533630371094 70.04948425292969" stroke-width="3.0" fill="none" stroke="rgb(0, 0, 0)" stroke-opacity="1.0" stroke-linecap="round" stroke-linejoin="round"/>
    <path d="M 179.62733459472656 47.09785079956055 C 188.8542022705078 28.325748443603516 188.95225524902344 44.25676345825195 185.39425659179688 80.22492218017578" stroke-width="3.0" fill="none" stroke="rgb(0, 0, 0)" stroke-opacity="1.0" stroke-linecap="round" stroke-linejoin="round"/>
    <path d="M 104.39075469970703 195.84677124023438 C 122.89912414550781 79.31709289550781 122.33904266357422 125.67485809326172 128.4169158935547 102.90946197509766" stroke-width="3.0" fill="none" stroke="rgb(0, 0, 0)" stroke-opacity="1.0" stroke-linecap="round" stroke-linejoin="round"/>
    <path d="M 46.62968444824219 103.59027099609375 C 25.311546325683594 181.026611328125 16.73198699951172 131.67892456054688 40.18266677856445 199.91702270507812" stroke-width="3.0" fill="none" stroke="rgb(0, 0, 0)" stroke-opacity="1.0" stroke-linecap="round" stroke-linejoin="round"/>
    <path d="M 62.67705535888672 42.048397064208984 C 96.89774322509766 15.115565299987793 143.56402587890625 111.0152359008789 168.19793701171875 76.00495147705078" stroke-width="3.0" fill="none" stroke="rgb(0, 0, 0)" stroke-opacity="1.0" stroke-linecap="round" stroke-linejoin="round"/>
    <path d="M 47.29689025878906 104.86360931396484 C 79.84757995605469 120.1473159790039 81.93943786621094 114.0623779296875 104.87957000732422 118.99140930175781" stroke-width="3.0" fill="none" stroke="rgb(0, 0, 0)" stroke-opacity="1.0" stroke-linecap="round" stroke-linejoin="round"/>
    <path d="M 14.888816833496094 129.65420532226562 C 8.230072975158691 70.59925079345703 14.729818344116211 78.92557525634766 59.41614532470703 43.52362823486328" stroke-width="3.0" fill="none" stroke="rgb(0, 0, 0)" stroke-opacity="1.0" stroke-linecap="round" stroke-linejoin="round"/>
    <path d="M 171.36349487304688 84.19906616210938 C 205.31549072265625 28.591733932495117 211.55882263183594 39.82911682128906 173.3070831298828 91.31165313720703" stroke-width="3.0" fill="none" stroke="rgb(0, 0, 0)" stroke-opacity="1.0" stroke-linecap="round" stroke-linejoin="round"/>
    <path d="M 104.42547607421875 119.84073638916016 C 108.88680267333984 184.80282592773438 77.07333374023438 204.9552459716797 110.3200454711914 189.55943298339844" stroke-width="3.0" fill="none" stroke="rgb(0, 0, 0)" stroke-opacity="1.0" stroke-linecap="round" stroke-linejoin="round"/>
    <path d="M 169.7375030517578 75.82332611083984 C 173.52444458007812 2.2785496711730957 212.34408569335938 74.04243469238281 205.58206176757812 48.63196563720703" stroke-width="3.0" fill="none" stroke="rgb(0, 0, 0)" stroke-opacity="1.0" stroke-linecap="round" stroke-linejoin="round"/>
    <path d="M 196.04306030273438 62.53661346435547 C 155.31715393066406 39.01464080810547 257.4875793457031 49.63111114501953 200.40145874023438 59.88298416137695" stroke-width="3.0" fill="none" stroke="rgb(0, 0, 0)" stroke-opacity="1.0" stroke-linecap="round" stroke-linejoin="round"/>
  </g>
</svg>
