<?xml version="1.0" ?>
<svg xmlns="http://www.w3.org/2000/svg" version="1.1" width="224" height="224">
  <defs/>
  <g>
    <path d="M 153.4506072998047 100.44571685791016 C 127.2275619506836 94.46774291992188 158.7537841796875 111.76071166992188 133.06134033203125 92.11536407470703" stroke-width="3.0" fill="none" stroke="rgb(0, 0, 0)" stroke-opacity="1.0" stroke-linecap="round" stroke-linejoin="round"/>
    <path d="M 113.39591979980469 90.3548583984375 C 112.91722106933594 101.4858627319336 106.79678344726562 96.79473114013672 108.80146789550781 107.53450775146484" stroke-width="3.0" fill="none" stroke="rgb(0, 0, 0)" stroke-opacity="1.0" stroke-linecap="round" stroke-linejoin="round"/>
    <path d="M 136.5099639892578 103.9495620727539 C 150.83212280273438 83.31036376953125 114.41959381103516 119.2652816772461 169.89646911621094 94.46549224853516" stroke-width="3.0" fill="none" stroke="rgb(0, 0, 0)" stroke-opacity="1.0" stroke-linecap="round" stroke-linejoin="round"/>
    <path d="M 59.76697540283203 44.708072662353516 C 54.17259216308594 47.10788345336914 42.49882507324219 62.8239631652832 53.00208282470703 50.82742691040039" stroke-width="3.0" fill="none" stroke="rgb(0, 0, 0)" stroke-opacity="1.0" stroke-linecap="round" stroke-linejoin="round"/>
    <path d="M 105.73017883300781 51.65397262573242 C 117.74533081054688 50.20748519897461 102.84365844726562 52.262596130371094 101.39131927490234 46.99638748168945" stroke-width="3.0" fill="none" stroke="rgb(0, 0, 0)" stroke-opacity="1.0" stroke-linecap="round" stroke-linejoin="round"/>
    <path d="M 75.75340270996094 114.05803680419922 C 40.64836502075195 84.31266784667969 62.285179138183594 92.81580352783203 44.172420501708984 75.42112731933594" stroke-width="3.0" fill="none" stroke="rgb(0, 0, 0)" stroke-opacity="1.0" stroke-linecap="round" stroke-linejoin="round"/>
    <path d="M 184.48243713378906 43.260414123535156 C 180.8158416748047 67.46076965332031 211.3135986328125 72.16551208496094 178.0774383544922 86.55728912353516" stroke-width="3.0" fill="none" stroke="rgb(0, 0, 0)" stroke-opacity="1.0" stroke-linecap="round" stroke-linejoin="round"/>
    <path d="M 106.7867660522461 173.77288818359375 C 125.92333221435547 85.2652587890625 115.23736572265625 127.7449951171875 131.05624389648438 101.21955108642578" stroke-width="3.0" fill="none" stroke="rgb(0, 0, 0)" stroke-opacity="1.0" stroke-linecap="round" stroke-linejoin="round"/>
    <path d="M 46.90653991699219 100.17365264892578 C 17.343381881713867 184.7758026123047 19.591405868530273 122.49394989013672 39.02310562133789 198.19140625" stroke-width="3.0" fill="none" stroke="rgb(0, 0, 0)" stroke-opacity="1.0" stroke-linecap="round" stroke-linejoin="round"/>
    <path d="M 61.78755187988281 43.00912094116211 C 87.34136962890625 15.940520286560059 133.9887237548828 90.8548583984375 164.58753967285156 88.14280700683594" stroke-width="3.0" fill="none" stroke="rgb(0, 0, 0)" stroke-opacity="1.0" stroke-linecap="round" stroke-linejoin="round"/>
    <path d="M 47.178138732910156 106.36653900146484 C 97.54924774169922 122.03278350830078 86.82994079589844 109.8287353515625 105.78067016601562 116.95658874511719" stroke-width="3.0" fill="none" stroke="rgb(0, 0, 0)" stroke-opacity="1.0" stroke-linecap="round" stroke-linejoin="round"/>
    <path d="M 35.7344856262207 80.79229736328125 C 33.9106559753418 77.37517547607422 23.86208724975586 74.74047088623047 24.89158058166504 74.97312927246094" stroke-width="3.0" fill="none" stroke="rgb(0, 0, 0)" stroke-opacity="1.0" stroke-linecap="round" stroke-linejoin="round"/>
    <path d="M 163.95457458496094 86.25543975830078 C 219.850341796875 75.16963958740234 176.8960723876953 79.05936431884766 171.7432098388672 93.0081558227539" stroke-width="3.0" fill="none" stroke="rgb(0, 0, 0)" stroke-opacity="1.0" stroke-linecap="round" stroke-linejoin="round"/>
    <path d="M 106.94835662841797 113.16608428955078 C 108.40725708007812 179.3782958984375 80.19992065429688 192.80062866210938 112.09304809570312 192.79884338378906" stroke-width="3.0" fill="none" stroke="rgb(0, 0, 0)" stroke-opacity="1.0" stroke-linecap="round" stroke-linejoin="round"/>
    <path d="M 178.7720184326172 84.1563949584961 C 170.7900390625 -5.720788955688477 189.44346618652344 69.98528289794922 205.76919555664062 47.223487854003906" stroke-width="3.0" fill="none" stroke="rgb(0, 0, 0)" stroke-opacity="1.0" stroke-linecap="round" stroke-linejoin="round"/>
    <path d="M 194.58505249023438 61.98955154418945 C 154.34130859375 38.936767578125 220.01983642578125 42.84773254394531 203.37940979003906 57.41988754272461" stroke-width="3.0" fill="none" stroke="rgb(0, 0, 0)" stroke-opacity="1.0" stroke-linecap="round" stroke-linejoin="round"/>
  </g>
</svg>
