<?xml version="1.0" ?>
<svg xmlns="http://www.w3.org/2000/svg" version="1.1" width="224" height="224">
  <defs/>
  <g>
    <path d="M 125.9999771118164 82.00001525878906 C 129.85711669921875 84.88939666748047 128.96762084960938 82.19036865234375 127.0942611694336 83.12418365478516" stroke-width="3.0" fill="none" stroke="rgb(0, 0, 0)" stroke-opacity="1.0" stroke-linecap="round" stroke-linejoin="round"/>
    <path d="M 87.00004577636719 100.99971008300781 C 92.17687225341797 98.79679107666016 91.9087142944336 97.73484802246094 94.48737335205078 99.78338623046875" stroke-width="3.0" fill="none" stroke="rgb(0, 0, 0)" stroke-opacity="1.0" stroke-linecap="round" stroke-linejoin="round"/>
    <path d="M 151.00006103515625 87.99935150146484 C 150.556396484375 88.86507415771484 151.88226318359375 86.07071685791016 154.4715576171875 91.4780502319336" stroke-width="3.0" fill="none" stroke="rgb(0, 0, 0)" stroke-opacity="1.0" stroke-linecap="round" stroke-linejoin="round"/>
    <path d="M 51.000022888183594 82.00003814697266 C 56.474143981933594 86.506103515625 52.348140716552734 91.07830810546875 56.815128326416016 93.138916015625" stroke-width="3.0" fill="none" stroke="rgb(0, 0, 0)" stroke-opacity="1.0" stroke-linecap="round" stroke-linejoin="round"/>
    <path d="M 103.99996185302734 73.00006866455078 C 103.68560791015625 68.5281982421875 102.95063781738281 69.76988983154297 105.57646942138672 76.9955062866211" stroke-width="3.0" fill="none" stroke="rgb(0, 0, 0)" stroke-opacity="1.0" stroke-linecap="round" stroke-linejoin="round"/>
    <path d="M 58.00001525878906 91.00008392333984 C 59.7424201965332 97.09123992919922 57.059871673583984 100.50698852539062 57.60541534423828 93.06550598144531" stroke-width="3.0" fill="none" stroke="rgb(0, 0, 0)" stroke-opacity="1.0" stroke-linecap="round" stroke-linejoin="round"/>
    <path d="M 163.0001678466797 74.0001220703125 C 165.4612579345703 74.86654663085938 169.09947204589844 76.74918365478516 165.50868225097656 76.66967010498047" stroke-width="3.0" fill="none" stroke="rgb(0, 0, 0)" stroke-opacity="1.0" stroke-linecap="round" stroke-linejoin="round"/>
    <path d="M 106.99994659423828 120.99996185302734 C 109.11778259277344 116.13256072998047 107.15959167480469 120.28120422363281 103.69941711425781 123.03713989257812" stroke-width="3.0" fill="none" stroke="rgb(0, 0, 0)" stroke-opacity="1.0" stroke-linecap="round" stroke-linejoin="round"/>
    <path d="M 28.999977111816406 165.99996948242188 C 26.072368621826172 169.23670959472656 29.468019485473633 168.65377807617188 24.769092559814453 168.6383056640625" stroke-width="3.0" fill="none" stroke="rgb(0, 0, 0)" stroke-opacity="1.0" stroke-linecap="round" stroke-linejoin="round"/>
    <path d="M 119.00004577636719 69.00003814697266 C 119.08895874023438 73.84783935546875 114.71073150634766 76.42156219482422 119.02369689941406 76.9532241821289" stroke-width="3.0" fill="none" stroke="rgb(0, 0, 0)" stroke-opacity="1.0" stroke-linecap="round" stroke-linejoin="round"/>
    <path d="M 75.00004577636719 105.00003814697266 C 78.52339935302734 107.45098876953125 83.71931457519531 108.606689453125 86.69827270507812 105.99085235595703" stroke-width="3.0" fill="none" stroke="rgb(0, 0, 0)" stroke-opacity="1.0" stroke-linecap="round" stroke-linejoin="round"/>
    <path d="M 17.999980926513672 82.99992370605469 C 17.078489303588867 79.71109771728516 17.925865173339844 77.36943054199219 14.446955680847168 75.85394287109375" stroke-width="3.0" fill="none" stroke="rgb(0, 0, 0)" stroke-opacity="1.0" stroke-linecap="round" stroke-linejoin="round"/>
    <path d="M 162.999755859375 83.00013732910156 C 162.265380859375 84.75498962402344 162.00062561035156 82.15827178955078 164.88572692871094 86.38040161132812" stroke-width="3.0" fill="none" stroke="rgb(0, 0, 0)" stroke-opacity="1.0" stroke-linecap="round" stroke-linejoin="round"/>
    <path d="M 105.99873352050781 133.00006103515625 C 108.74215698242188 138.8352813720703 113.203369140625 143.57359313964844 115.6560287475586 142.3565216064453" stroke-width="3.0" fill="none" stroke="rgb(0, 0, 0)" stroke-opacity="1.0" stroke-linecap="round" stroke-linejoin="round"/>
    <path d="M 187.99984741210938 47.999961853027344 C 190.29879760742188 43.48727798461914 191.7896270751953 49.40122985839844 196.2139892578125 50.40708541870117" stroke-width="3.0" fill="none" stroke="rgb(0, 0, 0)" stroke-opacity="1.0" stroke-linecap="round" stroke-linejoin="round"/>
    <path d="M 197.99986267089844 48.999977111816406 C 201.03854370117188 49.89235305786133 202.4832763671875 49.68779754638672 206.04212951660156 54.35710144042969" stroke-width="3.0" fill="none" stroke="rgb(0, 0, 0)" stroke-opacity="1.0" stroke-linecap="round" stroke-linejoin="round"/>
  </g>
</svg>
