<?xml version="1.0" ?>
<svg xmlns="http://www.w3.org/2000/svg" version="1.1" width="224" height="224">
  <defs/>
  <g>
    <path d="M 147.44261169433594 103.09320831298828 C 126.44123077392578 86.0433349609375 133.5806427001953 80.88567352294922 132.39613342285156 89.901611328125" stroke-width="3.0" fill="none" stroke="rgb(0, 0, 0)" stroke-opacity="1.0" stroke-linecap="round" stroke-linejoin="round"/>
    <path d="M 101.9891586303711 94.93374633789062 C 103.24041748046875 98.61283111572266 100.8035659790039 100.8357162475586 108.87471771240234 110.37881469726562" stroke-width="3.0" fill="none" stroke="rgb(0, 0, 0)" stroke-opacity="1.0" stroke-linecap="round" stroke-linejoin="round"/>
    <path d="M 129.77157592773438 113.19482421875 C 151.26092529296875 94.3869400024414 118.0927505493164 97.97028350830078 157.90573120117188 101.39323425292969" stroke-width="3.0" fill="none" stroke="rgb(0, 0, 0)" stroke-opacity="1.0" stroke-linecap="round" stroke-linejoin="round"/>
    <path d="M 58.88085174560547 45.784847259521484 C 49.875789642333984 48.30910110473633 29.329116821289062 71.58793640136719 45.319942474365234 56.92290496826172" stroke-width="3.0" fill="none" stroke="rgb(0, 0, 0)" stroke-opacity="1.0" stroke-linecap="round" stroke-linejoin="round"/>
    <path d="M 104.54540252685547 53.17481231689453 C 119.64069366455078 56.219478607177734 106.28186798095703 57.26107406616211 100.86028289794922 47.293304443359375" stroke-width="3.0" fill="none" stroke="rgb(0, 0, 0)" stroke-opacity="1.0" stroke-linecap="round" stroke-linejoin="round"/>
    <path d="M 72.66361999511719 112.09840393066406 C 53.11051940917969 93.51246643066406 55.0228271484375 85.4228286743164 49.97611999511719 79.77748107910156" stroke-width="3.0" fill="none" stroke="rgb(0, 0, 0)" stroke-opacity="1.0" stroke-linecap="round" stroke-linejoin="round"/>
    <path d="M 183.44772338867188 48.600040435791016 C 172.52137756347656 65.02688598632812 192.63270568847656 62.26982879638672 165.92144775390625 80.85871887207031" stroke-width="3.0" fill="none" stroke="rgb(0, 0, 0)" stroke-opacity="1.0" stroke-linecap="round" stroke-linejoin="round"/>
    <path d="M 115.09654235839844 153.27713012695312 C 127.5335693359375 91.0545883178711 120.26200103759766 128.43968200683594 128.0017852783203 102.8023910522461" stroke-width="3.0" fill="none" stroke="rgb(0, 0, 0)" stroke-opacity="1.0" stroke-linecap="round" stroke-linejoin="round"/>
    <path d="M 46.97187042236328 93.34150695800781 C 23.636722564697266 179.97348022460938 19.525598526000977 118.71907043457031 40.64909744262695 196.9615936279297" stroke-width="3.0" fill="none" stroke="rgb(0, 0, 0)" stroke-opacity="1.0" stroke-linecap="round" stroke-linejoin="round"/>
    <path d="M 58.61679458618164 45.40496826171875 C 90.52400207519531 12.417032241821289 131.96051025390625 84.35332489013672 151.88067626953125 84.60231018066406" stroke-width="3.0" fill="none" stroke="rgb(0, 0, 0)" stroke-opacity="1.0" stroke-linecap="round" stroke-linejoin="round"/>
    <path d="M 47.11883544921875 102.20854949951172 C 94.75704956054688 125.78458404541016 81.83911895751953 110.29412078857422 101.76848602294922 116.00906372070312" stroke-width="3.0" fill="none" stroke="rgb(0, 0, 0)" stroke-opacity="1.0" stroke-linecap="round" stroke-linejoin="round"/>
    <path d="M 43.78017044067383 85.98445129394531 C 40.040767669677734 63.94078063964844 29.295616149902344 62.07395935058594 32.25041580200195 61.836387634277344" stroke-width="3.0" fill="none" stroke="rgb(0, 0, 0)" stroke-opacity="1.0" stroke-linecap="round" stroke-linejoin="round"/>
    <path d="M 153.8599090576172 84.79462432861328 C 213.55923461914062 66.94828033447266 163.0469970703125 72.54501342773438 171.87545776367188 96.1037368774414" stroke-width="3.0" fill="none" stroke="rgb(0, 0, 0)" stroke-opacity="1.0" stroke-linecap="round" stroke-linejoin="round"/>
    <path d="M 106.21144104003906 115.35600280761719 C 111.6212387084961 163.6640625 82.59835815429688 197.5702667236328 111.14875030517578 191.4766082763672" stroke-width="3.0" fill="none" stroke="rgb(0, 0, 0)" stroke-opacity="1.0" stroke-linecap="round" stroke-linejoin="round"/>
    <path d="M 174.35952758789062 68.72091674804688 C 189.33006286621094 5.5484843254089355 181.22824096679688 62.60787582397461 209.77296447753906 48.26582336425781" stroke-width="3.0" fill="none" stroke="rgb(0, 0, 0)" stroke-opacity="1.0" stroke-linecap="round" stroke-linejoin="round"/>
    <path d="M 202.46542358398438 63.328426361083984 C 163.9361572265625 36.61691665649414 212.34877014160156 41.84024429321289 205.5345916748047 57.225486755371094" stroke-width="3.0" fill="none" stroke="rgb(0, 0, 0)" stroke-opacity="1.0" stroke-linecap="round" stroke-linejoin="round"/>
  </g>
</svg>
