<?xml version="1.0" ?>
<svg xmlns="http://www.w3.org/2000/svg" version="1.1" width="224" height="224">
  <defs/>
  <g>
    <path d="M 152.81504821777344 100.63965606689453 C 125.92442321777344 93.94603729248047 159.2371063232422 109.97406768798828 135.1416473388672 90.36830139160156" stroke-width="3.0" fill="none" stroke="rgb(0, 0, 0)" stroke-opacity="1.0" stroke-linecap="round" stroke-linejoin="round"/>
    <path d="M 113.80542755126953 90.83740234375 C 112.94882202148438 100.48420715332031 107.36876678466797 97.62364959716797 106.4098129272461 109.29776763916016" stroke-width="3.0" fill="none" stroke="rgb(0, 0, 0)" stroke-opacity="1.0" stroke-linecap="round" stroke-linejoin="round"/>
    <path d="M 137.00503540039062 105.06582641601562 C 150.42013549804688 80.06686401367188 114.52208709716797 118.77782440185547 170.64964294433594 93.66561889648438" stroke-width="3.0" fill="none" stroke="rgb(0, 0, 0)" stroke-opacity="1.0" stroke-linecap="round" stroke-linejoin="round"/>
    <path d="M 61.241912841796875 44.45884323120117 C 56.103782653808594 48.520225524902344 45.12257766723633 64.6771469116211 55.24846649169922 52.31414794921875" stroke-width="3.0" fill="none" stroke="rgb(0, 0, 0)" stroke-opacity="1.0" stroke-linecap="round" stroke-linejoin="round"/>
    <path d="M 107.43351745605469 52.340396881103516 C 118.89539337158203 51.06350326538086 104.89625549316406 48.381561279296875 100.1415786743164 49.64076614379883" stroke-width="3.0" fill="none" stroke="rgb(0, 0, 0)" stroke-opacity="1.0" stroke-linecap="round" stroke-linejoin="round"/>
    <path d="M 75.64836883544922 113.32025146484375 C 41.05381393432617 85.89632415771484 63.43961715698242 94.09258270263672 43.34946823120117 74.98873138427734" stroke-width="3.0" fill="none" stroke="rgb(0, 0, 0)" stroke-opacity="1.0" stroke-linecap="round" stroke-linejoin="round"/>
    <path d="M 185.93739318847656 44.39737319946289 C 180.1364288330078 68.9318618774414 209.59495544433594 73.4865951538086 178.18743896484375 87.23818969726562" stroke-width="3.0" fill="none" stroke="rgb(0, 0, 0)" stroke-opacity="1.0" stroke-linecap="round" stroke-linejoin="round"/>
    <path d="M 106.58428192138672 178.06019592285156 C 126.00473022460938 84.05060577392578 115.23197174072266 129.18565368652344 131.25137329101562 99.83838653564453" stroke-width="3.0" fill="none" stroke="rgb(0, 0, 0)" stroke-opacity="1.0" stroke-linecap="round" stroke-linejoin="round"/>
    <path d="M 47.7924690246582 100.41534423828125 C 21.03875160217285 187.73532104492188 19.876440048217773 122.53692626953125 39.16701126098633 197.81265258789062" stroke-width="3.0" fill="none" stroke="rgb(0, 0, 0)" stroke-opacity="1.0" stroke-linecap="round" stroke-linejoin="round"/>
    <path d="M 62.45819854736328 43.74116516113281 C 88.91748809814453 14.4188232421875 133.27682495117188 90.96643829345703 164.6511688232422 87.32583618164062" stroke-width="3.0" fill="none" stroke="rgb(0, 0, 0)" stroke-opacity="1.0" stroke-linecap="round" stroke-linejoin="round"/>
    <path d="M 47.73135757446289 106.73802185058594 C 98.88470458984375 122.61611938476562 86.87772369384766 110.0049819946289 105.80799865722656 116.54446411132812" stroke-width="3.0" fill="none" stroke="rgb(0, 0, 0)" stroke-opacity="1.0" stroke-linecap="round" stroke-linejoin="round"/>
    <path d="M 35.14516830444336 80.12745666503906 C 34.04947280883789 76.29061889648438 24.714885711669922 73.10531616210938 25.13990592956543 73.84385681152344" stroke-width="3.0" fill="none" stroke="rgb(0, 0, 0)" stroke-opacity="1.0" stroke-linecap="round" stroke-linejoin="round"/>
    <path d="M 164.81947326660156 88.82211303710938 C 220.1350555419922 75.66163635253906 179.41769409179688 80.89737701416016 172.20762634277344 91.45354461669922" stroke-width="3.0" fill="none" stroke="rgb(0, 0, 0)" stroke-opacity="1.0" stroke-linecap="round" stroke-linejoin="round"/>
    <path d="M 104.36196899414062 114.51409912109375 C 108.87345123291016 180.9917755126953 80.42019653320312 195.9006805419922 112.4382553100586 195.03330993652344" stroke-width="3.0" fill="none" stroke="rgb(0, 0, 0)" stroke-opacity="1.0" stroke-linecap="round" stroke-linejoin="round"/>
    <path d="M 176.568603515625 84.1126937866211 C 167.99778747558594 -5.791350364685059 187.93809509277344 72.25053405761719 202.86695861816406 47.33580780029297" stroke-width="3.0" fill="none" stroke="rgb(0, 0, 0)" stroke-opacity="1.0" stroke-linecap="round" stroke-linejoin="round"/>
    <path d="M 194.66322326660156 62.65080642700195 C 154.03909301757812 40.52817916870117 218.50994873046875 44.543312072753906 201.49900817871094 59.4256706237793" stroke-width="3.0" fill="none" stroke="rgb(0, 0, 0)" stroke-opacity="1.0" stroke-linecap="round" stroke-linejoin="round"/>
  </g>
</svg>
