<?xml version="1.0" ?>
<svg xmlns="http://www.w3.org/2000/svg" version="1.1" width="224" height="224">
  <defs/>
  <g>
    <path d="M 152.16470336914062 101.23016357421875 C 131.55630493164062 99.93651580810547 156.9361114501953 103.04512786865234 136.0007781982422 93.74217224121094" stroke-width="3.0" fill="none" stroke="rgb(0, 0, 0)" stroke-opacity="1.0" stroke-linecap="round" stroke-linejoin="round"/>
    <path d="M 108.31768798828125 88.83235931396484 C 106.38368225097656 94.13019561767578 107.65193939208984 97.51555633544922 111.84464263916016 104.89541625976562" stroke-width="3.0" fill="none" stroke="rgb(0, 0, 0)" stroke-opacity="1.0" stroke-linecap="round" stroke-linejoin="round"/>
    <path d="M 133.70538330078125 105.51690673828125 C 153.82376098632812 93.78030395507812 117.474365234375 112.9942398071289 161.4775390625 102.98563385009766" stroke-width="3.0" fill="none" stroke="rgb(0, 0, 0)" stroke-opacity="1.0" stroke-linecap="round" stroke-linejoin="round"/>
    <path d="M 59.5529899597168 43.16783142089844 C 54.169437408447266 53.17195129394531 35.605255126953125 68.48645782470703 48.72555160522461 56.64175033569336" stroke-width="3.0" fill="none" stroke="rgb(0, 0, 0)" stroke-opacity="1.0" stroke-linecap="round" stroke-linejoin="round"/>
    <path d="M 101.18382263183594 49.26144790649414 C 119.46615600585938 57.19767761230469 103.78397369384766 51.998077392578125 96.55169677734375 42.65475082397461" stroke-width="3.0" fill="none" stroke="rgb(0, 0, 0)" stroke-opacity="1.0" stroke-linecap="round" stroke-linejoin="round"/>
    <path d="M 76.34357452392578 113.41187286376953 C 48.25613021850586 92.79283142089844 59.98979949951172 88.88308715820312 45.45053482055664 74.70247650146484" stroke-width="3.0" fill="none" stroke="rgb(0, 0, 0)" stroke-opacity="1.0" stroke-linecap="round" stroke-linejoin="round"/>
    <path d="M 188.0119171142578 43.13319778442383 C 183.2235107421875 68.97210693359375 211.7744140625 75.10958099365234 173.93966674804688 88.32305908203125" stroke-width="3.0" fill="none" stroke="rgb(0, 0, 0)" stroke-opacity="1.0" stroke-linecap="round" stroke-linejoin="round"/>
    <path d="M 109.97295379638672 161.72508239746094 C 124.87874603271484 90.17095184326172 113.74388122558594 127.07627868652344 129.48599243164062 102.29325866699219" stroke-width="3.0" fill="none" stroke="rgb(0, 0, 0)" stroke-opacity="1.0" stroke-linecap="round" stroke-linejoin="round"/>
    <path d="M 47.888702392578125 95.89232635498047 C 25.673011779785156 181.09913635253906 20.1267147064209 118.630859375 37.05759048461914 199.60874938964844" stroke-width="3.0" fill="none" stroke="rgb(0, 0, 0)" stroke-opacity="1.0" stroke-linecap="round" stroke-linejoin="round"/>
    <path d="M 60.36292266845703 43.471343994140625 C 90.41122436523438 11.17980670928955 130.1620635986328 89.53780364990234 159.75848388671875 86.33982849121094" stroke-width="3.0" fill="none" stroke="rgb(0, 0, 0)" stroke-opacity="1.0" stroke-linecap="round" stroke-linejoin="round"/>
    <path d="M 45.791961669921875 102.01345825195312 C 99.07584381103516 126.20085906982422 97.25062561035156 107.94380187988281 103.80892944335938 116.6143569946289" stroke-width="3.0" fill="none" stroke="rgb(0, 0, 0)" stroke-opacity="1.0" stroke-linecap="round" stroke-linejoin="round"/>
    <path d="M 37.13256072998047 88.1036376953125 C 38.913143157958984 67.31018829345703 31.692480087280273 64.7549819946289 31.850250244140625 62.969600677490234" stroke-width="3.0" fill="none" stroke="rgb(0, 0, 0)" stroke-opacity="1.0" stroke-linecap="round" stroke-linejoin="round"/>
    <path d="M 160.5019989013672 85.45816802978516 C 221.77859497070312 79.58574676513672 169.97781372070312 77.98457336425781 170.30873107910156 96.1829833984375" stroke-width="3.0" fill="none" stroke="rgb(0, 0, 0)" stroke-opacity="1.0" stroke-linecap="round" stroke-linejoin="round"/>
    <path d="M 106.03435516357422 108.93870544433594 C 109.66441345214844 175.13340759277344 79.19588470458984 196.7361602783203 109.52579498291016 192.05691528320312" stroke-width="3.0" fill="none" stroke="rgb(0, 0, 0)" stroke-opacity="1.0" stroke-linecap="round" stroke-linejoin="round"/>
    <path d="M 173.00616455078125 80.2341537475586 C 180.84866333007812 -2.2281134128570557 187.2443084716797 67.72196197509766 208.09600830078125 46.1618537902832" stroke-width="3.0" fill="none" stroke="rgb(0, 0, 0)" stroke-opacity="1.0" stroke-linecap="round" stroke-linejoin="round"/>
    <path d="M 198.80520629882812 62.99323654174805 C 153.386962890625 39.56758117675781 222.04568481445312 39.94261169433594 206.82968139648438 59.641380310058594" stroke-width="3.0" fill="none" stroke="rgb(0, 0, 0)" stroke-opacity="1.0" stroke-linecap="round" stroke-linejoin="round"/>
  </g>
</svg>
