<?xml version="1.0" ?>
<svg xmlns="http://www.w3.org/2000/svg" version="1.1" width="224" height="224">
  <defs/>
  <g>
    <path d="M 129.31971740722656 109.91566467285156 C 131.23358154296875 93.64812469482422 145.48367309570312 135.24221801757812 123.10546112060547 72.0957260131836" stroke-width="3.0" fill="none" stroke="rgb(0, 0, 0)" stroke-opacity="1.0" stroke-linecap="round" stroke-linejoin="round"/>
    <path d="M 109.7945556640625 92.95932006835938 C 114.50568389892578 97.65985107421875 101.60289001464844 104.83246612548828 109.02129364013672 114.12381744384766" stroke-width="3.0" fill="none" stroke="rgb(0, 0, 0)" stroke-opacity="1.0" stroke-linecap="round" stroke-linejoin="round"/>
    <path d="M 127.82007598876953 111.91006469726562 C 137.8735809326172 92.63601684570312 159.1295928955078 132.59893798828125 194.58123779296875 60.68934631347656" stroke-width="3.0" fill="none" stroke="rgb(0, 0, 0)" stroke-opacity="1.0" stroke-linecap="round" stroke-linejoin="round"/>
    <path d="M 64.31449890136719 39.59814453125 C 63.953792572021484 38.66375732421875 52.9099235534668 47.163177490234375 42.238338470458984 57.55805206298828" stroke-width="3.0" fill="none" stroke="rgb(0, 0, 0)" stroke-opacity="1.0" stroke-linecap="round" stroke-linejoin="round"/>
    <path d="M 140.94581604003906 77.75772094726562 C 103.62060546875 40.6772575378418 113.03556060791016 67.77046966552734 96.06023406982422 43.15944290161133" stroke-width="3.0" fill="none" stroke="rgb(0, 0, 0)" stroke-opacity="1.0" stroke-linecap="round" stroke-linejoin="round"/>
    <path d="M 67.17658233642578 107.457275390625 C 39.610801696777344 80.6263198852539 57.65188980102539 97.71247100830078 42.56917953491211 76.66597747802734" stroke-width="3.0" fill="none" stroke="rgb(0, 0, 0)" stroke-opacity="1.0" stroke-linecap="round" stroke-linejoin="round"/>
    <path d="M 186.0710906982422 61.93716049194336 C 171.61473083496094 31.079418182373047 192.90992736816406 47.140113830566406 187.87860107421875 79.06141662597656" stroke-width="3.0" fill="none" stroke="rgb(0, 0, 0)" stroke-opacity="1.0" stroke-linecap="round" stroke-linejoin="round"/>
    <path d="M 104.21146392822266 193.951904296875 C 113.66026306152344 107.20381164550781 120.16883850097656 141.02499389648438 127.04505920410156 98.0815658569336" stroke-width="3.0" fill="none" stroke="rgb(0, 0, 0)" stroke-opacity="1.0" stroke-linecap="round" stroke-linejoin="round"/>
    <path d="M 48.75614547729492 96.60340118408203 C 16.61257553100586 181.366943359375 27.554779052734375 128.25819396972656 34.642024993896484 200.14450073242188" stroke-width="3.0" fill="none" stroke="rgb(0, 0, 0)" stroke-opacity="1.0" stroke-linecap="round" stroke-linejoin="round"/>
    <path d="M 65.17185974121094 39.87699508666992 C 101.9727783203125 13.795413970947266 155.549560546875 138.36317443847656 178.46026611328125 53.36940383911133" stroke-width="3.0" fill="none" stroke="rgb(0, 0, 0)" stroke-opacity="1.0" stroke-linecap="round" stroke-linejoin="round"/>
    <path d="M 53.877784729003906 101.18814086914062 C 81.60594940185547 122.568603515625 78.25128936767578 109.96609497070312 106.4517593383789 118.33943176269531" stroke-width="3.0" fill="none" stroke="rgb(0, 0, 0)" stroke-opacity="1.0" stroke-linecap="round" stroke-linejoin="round"/>
    <path d="M 30.333847045898438 144.47088623046875 C 27.766605377197266 104.53327178955078 -11.848480224609375 87.72673797607422 53.04153823852539 52.06344985961914" stroke-width="3.0" fill="none" stroke="rgb(0, 0, 0)" stroke-opacity="1.0" stroke-linecap="round" stroke-linejoin="round"/>
    <path d="M 175.74757385253906 90.18329620361328 C 190.6071014404297 17.241226196289062 207.04412841796875 25.847246170043945 170.94639587402344 95.2007827758789" stroke-width="3.0" fill="none" stroke="rgb(0, 0, 0)" stroke-opacity="1.0" stroke-linecap="round" stroke-linejoin="round"/>
    <path d="M 107.17805480957031 119.17352294921875 C 107.01970672607422 180.7251739501953 77.1452407836914 199.40025329589844 110.25411224365234 190.74073791503906" stroke-width="3.0" fill="none" stroke="rgb(0, 0, 0)" stroke-opacity="1.0" stroke-linecap="round" stroke-linejoin="round"/>
    <path d="M 171.47901916503906 72.20115661621094 C 176.8310089111328 0.46810781955718994 210.46702575683594 76.41680908203125 206.56536865234375 46.68523025512695" stroke-width="3.0" fill="none" stroke="rgb(0, 0, 0)" stroke-opacity="1.0" stroke-linecap="round" stroke-linejoin="round"/>
    <path d="M 189.29623413085938 64.54530334472656 C 154.6068878173828 41.16005325317383 254.72006225585938 43.77943801879883 194.00196838378906 58.90778732299805" stroke-width="3.0" fill="none" stroke="rgb(0, 0, 0)" stroke-opacity="1.0" stroke-linecap="round" stroke-linejoin="round"/>
  </g>
</svg>
