<?xml version="1.0" ?>
<svg xmlns="http://www.w3.org/2000/svg" version="1.1" width="224" height="224">
  <defs/>
  <g>
    <path d="M 140.2999267578125 108.04045867919922 C 120.91101837158203 91.91423797607422 156.0726318359375 139.11203002929688 118.35968017578125 66.47180938720703" stroke-width="3.0" fill="none" stroke="rgb(0, 0, 0)" stroke-opacity="1.0" stroke-linecap="round" stroke-linejoin="round"/>
    <path d="M 107.22006225585938 93.6435775756836 C 108.34697723388672 101.50802612304688 101.00605773925781 102.97145080566406 108.52179718017578 111.56414794921875" stroke-width="3.0" fill="none" stroke="rgb(0, 0, 0)" stroke-opacity="1.0" stroke-linecap="round" stroke-linejoin="round"/>
    <path d="M 133.988525390625 110.32622528076172 C 134.38722229003906 79.74047088623047 145.76773071289062 133.90847778320312 186.75778198242188 79.48306274414062" stroke-width="3.0" fill="none" stroke="rgb(0, 0, 0)" stroke-opacity="1.0" stroke-linecap="round" stroke-linejoin="round"/>
    <path d="M 70.67327880859375 40.01066589355469 C 65.41825103759766 39.88972091674805 55.866065979003906 45.176597595214844 55.92875289916992 46.2183952331543" stroke-width="3.0" fill="none" stroke="rgb(0, 0, 0)" stroke-opacity="1.0" stroke-linecap="round" stroke-linejoin="round"/>
    <path d="M 135.667236328125 82.56523132324219 C 111.29071807861328 36.4157829284668 112.12611389160156 67.77924346923828 92.38716888427734 43.520416259765625" stroke-width="3.0" fill="none" stroke="rgb(0, 0, 0)" stroke-opacity="1.0" stroke-linecap="round" stroke-linejoin="round"/>
    <path d="M 66.77030181884766 111.48033905029297 C 37.62201690673828 76.42250061035156 60.092960357666016 94.9671859741211 39.04554748535156 70.21238708496094" stroke-width="3.0" fill="none" stroke="rgb(0, 0, 0)" stroke-opacity="1.0" stroke-linecap="round" stroke-linejoin="round"/>
    <path d="M 181.5121307373047 64.83000946044922 C 171.13128662109375 34.67707824707031 189.91845703125 53.27886199951172 187.0006561279297 81.03585815429688" stroke-width="3.0" fill="none" stroke="rgb(0, 0, 0)" stroke-opacity="1.0" stroke-linecap="round" stroke-linejoin="round"/>
    <path d="M 103.17086791992188 195.56265258789062 C 119.55927276611328 82.2633285522461 124.10206604003906 128.87863159179688 128.0992431640625 103.23772430419922" stroke-width="3.0" fill="none" stroke="rgb(0, 0, 0)" stroke-opacity="1.0" stroke-linecap="round" stroke-linejoin="round"/>
    <path d="M 46.58740234375 101.90556335449219 C 23.46070098876953 172.69110107421875 17.30364418029785 126.7684097290039 38.593017578125 197.89111328125" stroke-width="3.0" fill="none" stroke="rgb(0, 0, 0)" stroke-opacity="1.0" stroke-linecap="round" stroke-linejoin="round"/>
    <path d="M 64.70059204101562 41.22317123413086 C 100.13253784179688 14.773711204528809 155.26797485351562 127.83624267578125 171.824462890625 67.81660461425781" stroke-width="3.0" fill="none" stroke="rgb(0, 0, 0)" stroke-opacity="1.0" stroke-linecap="round" stroke-linejoin="round"/>
    <path d="M 45.509639739990234 100.91593933105469 C 81.28707885742188 121.61353302001953 80.16476440429688 110.8144302368164 102.99602508544922 117.70928955078125" stroke-width="3.0" fill="none" stroke="rgb(0, 0, 0)" stroke-opacity="1.0" stroke-linecap="round" stroke-linejoin="round"/>
    <path d="M 22.02564239501953 135.95492553710938 C 13.78592300415039 66.8071060180664 10.276613235473633 83.15746307373047 56.836185455322266 45.382389068603516" stroke-width="3.0" fill="none" stroke="rgb(0, 0, 0)" stroke-opacity="1.0" stroke-linecap="round" stroke-linejoin="round"/>
    <path d="M 179.2136688232422 87.38230895996094 C 201.87542724609375 26.08306121826172 198.69534301757812 24.413286209106445 169.2692108154297 92.22439575195312" stroke-width="3.0" fill="none" stroke="rgb(0, 0, 0)" stroke-opacity="1.0" stroke-linecap="round" stroke-linejoin="round"/>
    <path d="M 104.97522735595703 114.259765625 C 106.92211151123047 185.62037658691406 75.8949203491211 207.1503143310547 109.53390502929688 188.99960327148438" stroke-width="3.0" fill="none" stroke="rgb(0, 0, 0)" stroke-opacity="1.0" stroke-linecap="round" stroke-linejoin="round"/>
    <path d="M 170.68150329589844 69.09674835205078 C 177.81561279296875 3.8322677612304688 218.30149841308594 77.33885192871094 204.2708282470703 48.15287399291992" stroke-width="3.0" fill="none" stroke="rgb(0, 0, 0)" stroke-opacity="1.0" stroke-linecap="round" stroke-linejoin="round"/>
    <path d="M 189.76072692871094 62.87324523925781 C 151.50526428222656 44.471717834472656 255.45204162597656 46.71963882446289 193.42431640625 59.624961853027344" stroke-width="3.0" fill="none" stroke="rgb(0, 0, 0)" stroke-opacity="1.0" stroke-linecap="round" stroke-linejoin="round"/>
  </g>
</svg>
