<?xml version="1.0" ?>
<svg xmlns="http://www.w3.org/2000/svg" version="1.1" width="224" height="224">
  <defs/>
  <g>
    <path d="M 137.71322631835938 89.16677856445312 C 126.2098617553711 69.58000946044922 123.94599151611328 68.7858657836914 131.556884765625 83.05117797851562" stroke-width="3.0" fill="none" stroke="rgb(0, 0, 0)" stroke-opacity="1.0" stroke-linecap="round" stroke-linejoin="round"/>
    <path d="M 94.810546875 91.76197052001953 C 92.87433624267578 96.15316772460938 99.53182220458984 107.2424545288086 107.296875 110.23173522949219" stroke-width="3.0" fill="none" stroke="rgb(0, 0, 0)" stroke-opacity="1.0" stroke-linecap="round" stroke-linejoin="round"/>
    <path d="M 142.4442901611328 108.6894302368164 C 147.66085815429688 97.48065948486328 130.08978271484375 82.85530853271484 151.27491760253906 100.24832916259766" stroke-width="3.0" fill="none" stroke="rgb(0, 0, 0)" stroke-opacity="1.0" stroke-linecap="round" stroke-linejoin="round"/>
    <path d="M 52.15745544433594 50.189674377441406 C 58.53122329711914 67.57977294921875 41.56161117553711 102.05138397216797 48.90089416503906 88.34223937988281" stroke-width="3.0" fill="none" stroke="rgb(0, 0, 0)" stroke-opacity="1.0" stroke-linecap="round" stroke-linejoin="round"/>
    <path d="M 115.88752746582031 53.396392822265625 C 119.42264556884766 58.955299377441406 118.4129638671875 57.96977233886719 112.51622772216797 51.40778350830078" stroke-width="3.0" fill="none" stroke="rgb(0, 0, 0)" stroke-opacity="1.0" stroke-linecap="round" stroke-linejoin="round"/>
    <path d="M 60.015987396240234 101.28343963623047 C 57.76933288574219 94.32801055908203 49.34142303466797 82.60655212402344 51.83161544799805 76.1824722290039" stroke-width="3.0" fill="none" stroke="rgb(0, 0, 0)" stroke-opacity="1.0" stroke-linecap="round" stroke-linejoin="round"/>
    <path d="M 180.040283203125 42.472015380859375 C 175.39767456054688 79.68844604492188 176.53805541992188 74.51390075683594 162.19842529296875 78.93282318115234" stroke-width="3.0" fill="none" stroke="rgb(0, 0, 0)" stroke-opacity="1.0" stroke-linecap="round" stroke-linejoin="round"/>
    <path d="M 117.39404296875 140.03179931640625 C 125.75763702392578 105.16146850585938 110.06857299804688 138.93707275390625 125.78720092773438 115.5880355834961" stroke-width="3.0" fill="none" stroke="rgb(0, 0, 0)" stroke-opacity="1.0" stroke-linecap="round" stroke-linejoin="round"/>
    <path d="M 32.158260345458984 109.71707153320312 C 20.668134689331055 176.0990447998047 24.050487518310547 146.5430450439453 43.31638717651367 197.31369018554688" stroke-width="3.0" fill="none" stroke="rgb(0, 0, 0)" stroke-opacity="1.0" stroke-linecap="round" stroke-linejoin="round"/>
    <path d="M 64.55571746826172 38.551727294921875 C 113.09935760498047 36.86443328857422 122.9660873413086 67.7106704711914 144.4976806640625 79.40631866455078" stroke-width="3.0" fill="none" stroke="rgb(0, 0, 0)" stroke-opacity="1.0" stroke-linecap="round" stroke-linejoin="round"/>
    <path d="M 54.06129837036133 94.6702651977539 C 82.61787414550781 129.0751495361328 74.30876922607422 117.77719116210938 106.760498046875 121.71121978759766" stroke-width="3.0" fill="none" stroke="rgb(0, 0, 0)" stroke-opacity="1.0" stroke-linecap="round" stroke-linejoin="round"/>
    <path d="M 29.428083419799805 88.69377136230469 C 28.5509033203125 78.69403076171875 21.745899200439453 75.1678695678711 21.613487243652344 76.03699493408203" stroke-width="3.0" fill="none" stroke="rgb(0, 0, 0)" stroke-opacity="1.0" stroke-linecap="round" stroke-linejoin="round"/>
    <path d="M 142.89743041992188 79.4850845336914 C 201.52207946777344 76.8678970336914 158.61085510253906 77.61300659179688 167.49169921875 104.729736328125" stroke-width="3.0" fill="none" stroke="rgb(0, 0, 0)" stroke-opacity="1.0" stroke-linecap="round" stroke-linejoin="round"/>
    <path d="M 111.06909942626953 110.78598022460938 C 124.1236343383789 154.16476440429688 85.08912658691406 199.12281799316406 111.50924682617188 191.3558807373047" stroke-width="3.0" fill="none" stroke="rgb(0, 0, 0)" stroke-opacity="1.0" stroke-linecap="round" stroke-linejoin="round"/>
    <path d="M 175.10804748535156 61.47103500366211 C 195.5516357421875 4.358976364135742 183.21046447753906 61.04666519165039 208.5693817138672 46.741031646728516" stroke-width="3.0" fill="none" stroke="rgb(0, 0, 0)" stroke-opacity="1.0" stroke-linecap="round" stroke-linejoin="round"/>
    <path d="M 196.83795166015625 63.90010070800781 C 160.37103271484375 39.182579040527344 215.55555725097656 33.57306671142578 207.20108032226562 58.149681091308594" stroke-width="3.0" fill="none" stroke="rgb(0, 0, 0)" stroke-opacity="1.0" stroke-linecap="round" stroke-linejoin="round"/>
  </g>
</svg>
