<?xml version="1.0" ?>
<svg xmlns="http://www.w3.org/2000/svg" version="1.1" width="224" height="224">
  <defs/>
  <g>
    <path d="M 136.7574920654297 107.27129364013672 C 124.12545013427734 91.33863067626953 152.8053741455078 140.4291229248047 117.97051239013672 67.86556243896484" stroke-width="3.0" fill="none" stroke="rgb(0, 0, 0)" stroke-opacity="1.0" stroke-linecap="round" stroke-linejoin="round"/>
    <path d="M 110.19866943359375 93.35446166992188 C 112.10195922851562 102.88663482666016 101.77891540527344 106.38794708251953 107.2492904663086 113.54292297363281" stroke-width="3.0" fill="none" stroke="rgb(0, 0, 0)" stroke-opacity="1.0" stroke-linecap="round" stroke-linejoin="round"/>
    <path d="M 130.79183959960938 108.8737564086914 C 134.20603942871094 82.51324462890625 141.9730224609375 136.0519561767578 189.3248291015625 75.19622039794922" stroke-width="3.0" fill="none" stroke="rgb(0, 0, 0)" stroke-opacity="1.0" stroke-linecap="round" stroke-linejoin="round"/>
    <path d="M 72.94226837158203 36.70011520385742 C 65.13776397705078 40.22611999511719 54.35129165649414 46.10285949707031 53.163848876953125 49.05467987060547" stroke-width="3.0" fill="none" stroke="rgb(0, 0, 0)" stroke-opacity="1.0" stroke-linecap="round" stroke-linejoin="round"/>
    <path d="M 130.61318969726562 83.56126403808594 C 110.26433563232422 38.591312408447266 110.59000396728516 67.37037658691406 95.44355773925781 43.07402801513672" stroke-width="3.0" fill="none" stroke="rgb(0, 0, 0)" stroke-opacity="1.0" stroke-linecap="round" stroke-linejoin="round"/>
    <path d="M 72.67799377441406 110.22124481201172 C 36.946014404296875 82.39566040039062 64.04319763183594 98.31217956542969 41.28329849243164 78.49475860595703" stroke-width="3.0" fill="none" stroke="rgb(0, 0, 0)" stroke-opacity="1.0" stroke-linecap="round" stroke-linejoin="round"/>
    <path d="M 183.67083740234375 59.248046875 C 176.42160034179688 32.69352340698242 193.12783813476562 45.029136657714844 188.45025634765625 73.78773498535156" stroke-width="3.0" fill="none" stroke="rgb(0, 0, 0)" stroke-opacity="1.0" stroke-linecap="round" stroke-linejoin="round"/>
    <path d="M 104.13111877441406 193.64169311523438 C 119.61418914794922 79.64189147949219 124.80899810791016 130.1190948486328 127.23928833007812 99.82485961914062" stroke-width="3.0" fill="none" stroke="rgb(0, 0, 0)" stroke-opacity="1.0" stroke-linecap="round" stroke-linejoin="round"/>
    <path d="M 47.193973541259766 104.9317398071289 C 26.676210403442383 173.0056915283203 19.730846405029297 122.62460327148438 38.94599151611328 197.5035400390625" stroke-width="3.0" fill="none" stroke="rgb(0, 0, 0)" stroke-opacity="1.0" stroke-linecap="round" stroke-linejoin="round"/>
    <path d="M 68.5299072265625 39.70223617553711 C 98.47286224365234 16.020259857177734 155.5723114013672 131.79388427734375 172.593505859375 65.34295654296875" stroke-width="3.0" fill="none" stroke="rgb(0, 0, 0)" stroke-opacity="1.0" stroke-linecap="round" stroke-linejoin="round"/>
    <path d="M 49.286834716796875 99.92028045654297 C 85.75096893310547 120.8185043334961 80.42646026611328 112.20718383789062 106.02217864990234 117.82821655273438" stroke-width="3.0" fill="none" stroke="rgb(0, 0, 0)" stroke-opacity="1.0" stroke-linecap="round" stroke-linejoin="round"/>
    <path d="M 21.486162185668945 135.17849731445312 C 8.765851020812988 73.06124114990234 10.283096313476562 87.9922866821289 55.99162292480469 46.29484558105469" stroke-width="3.0" fill="none" stroke="rgb(0, 0, 0)" stroke-opacity="1.0" stroke-linecap="round" stroke-linejoin="round"/>
    <path d="M 177.16941833496094 88.37084197998047 C 202.85585021972656 25.13932228088379 196.4432373046875 22.349979400634766 171.6427459716797 86.77423858642578" stroke-width="3.0" fill="none" stroke="rgb(0, 0, 0)" stroke-opacity="1.0" stroke-linecap="round" stroke-linejoin="round"/>
    <path d="M 105.10050964355469 120.3145980834961 C 110.30807495117188 181.6787872314453 72.81177520751953 206.82090759277344 107.68286895751953 197.04751586914062" stroke-width="3.0" fill="none" stroke="rgb(0, 0, 0)" stroke-opacity="1.0" stroke-linecap="round" stroke-linejoin="round"/>
    <path d="M 171.575927734375 65.65766143798828 C 180.8594970703125 4.317077159881592 218.1545867919922 77.42134857177734 206.90676879882812 46.48272705078125" stroke-width="3.0" fill="none" stroke="rgb(0, 0, 0)" stroke-opacity="1.0" stroke-linecap="round" stroke-linejoin="round"/>
    <path d="M 192.745849609375 62.39143371582031 C 156.6434326171875 41.106781005859375 257.48992919921875 45.3038215637207 193.32037353515625 58.18632125854492" stroke-width="3.0" fill="none" stroke="rgb(0, 0, 0)" stroke-opacity="1.0" stroke-linecap="round" stroke-linejoin="round"/>
  </g>
</svg>
