<?xml version="1.0" ?>
<svg xmlns="http://www.w3.org/2000/svg" version="1.1" width="224" height="224">
  <defs/>
  <g>
    <path d="M 131.27777099609375 108.493896484375 C 125.52671813964844 90.47254180908203 149.051513671875 138.55772399902344 117.93930053710938 68.45211791992188" stroke-width="3.0" fill="none" stroke="rgb(0, 0, 0)" stroke-opacity="1.0" stroke-linecap="round" stroke-linejoin="round"/>
    <path d="M 111.8086929321289 88.83125305175781 C 115.72398376464844 99.92979431152344 103.35406494140625 104.35504150390625 109.91419219970703 112.57035064697266" stroke-width="3.0" fill="none" stroke="rgb(0, 0, 0)" stroke-opacity="1.0" stroke-linecap="round" stroke-linejoin="round"/>
    <path d="M 128.0262908935547 109.84923553466797 C 130.70260620117188 92.78265380859375 156.65692138671875 132.11932373046875 190.38523864746094 66.8073959350586" stroke-width="3.0" fill="none" stroke="rgb(0, 0, 0)" stroke-opacity="1.0" stroke-linecap="round" stroke-linejoin="round"/>
    <path d="M 65.19863891601562 42.09371566772461 C 64.78006744384766 39.644493103027344 54.49872589111328 48.833763122558594 40.573387145996094 59.43915557861328" stroke-width="3.0" fill="none" stroke="rgb(0, 0, 0)" stroke-opacity="1.0" stroke-linecap="round" stroke-linejoin="round"/>
    <path d="M 139.40769958496094 78.54784393310547 C 104.51303100585938 40.98358154296875 111.50189208984375 68.2561264038086 95.36320495605469 44.548362731933594" stroke-width="3.0" fill="none" stroke="rgb(0, 0, 0)" stroke-opacity="1.0" stroke-linecap="round" stroke-linejoin="round"/>
    <path d="M 66.88664245605469 108.18732452392578 C 38.88707733154297 75.44137573242188 61.76102066040039 92.4451675415039 41.98208236694336 70.82461547851562" stroke-width="3.0" fill="none" stroke="rgb(0, 0, 0)" stroke-opacity="1.0" stroke-linecap="round" stroke-linejoin="round"/>
    <path d="M 185.7338409423828 61.63951873779297 C 169.9966583251953 36.86597442626953 196.1533203125 52.211551666259766 187.55567932128906 80.51583862304688" stroke-width="3.0" fill="none" stroke="rgb(0, 0, 0)" stroke-opacity="1.0" stroke-linecap="round" stroke-linejoin="round"/>
    <path d="M 106.85545349121094 192.95962524414062 C 115.47512817382812 103.3870849609375 124.11857604980469 135.39012145996094 124.16345977783203 97.03475189208984" stroke-width="3.0" fill="none" stroke="rgb(0, 0, 0)" stroke-opacity="1.0" stroke-linecap="round" stroke-linejoin="round"/>
    <path d="M 45.858489990234375 100.11927795410156 C 24.694873809814453 180.29339599609375 19.823776245117188 129.125244140625 41.48760223388672 198.97882080078125" stroke-width="3.0" fill="none" stroke="rgb(0, 0, 0)" stroke-opacity="1.0" stroke-linecap="round" stroke-linejoin="round"/>
    <path d="M 63.57445526123047 42.73921585083008 C 100.40455627441406 14.418473243713379 154.88827514648438 135.48727416992188 176.1796112060547 53.11555099487305" stroke-width="3.0" fill="none" stroke="rgb(0, 0, 0)" stroke-opacity="1.0" stroke-linecap="round" stroke-linejoin="round"/>
    <path d="M 50.113990783691406 96.55696105957031 C 81.47142028808594 124.83314514160156 80.7364730834961 112.39781188964844 104.17743682861328 118.10734558105469" stroke-width="3.0" fill="none" stroke="rgb(0, 0, 0)" stroke-opacity="1.0" stroke-linecap="round" stroke-linejoin="round"/>
    <path d="M 22.031198501586914 144.09451293945312 C 27.302730560302734 95.79325866699219 -6.049705505371094 83.82051086425781 55.05659484863281 49.881614685058594" stroke-width="3.0" fill="none" stroke="rgb(0, 0, 0)" stroke-opacity="1.0" stroke-linecap="round" stroke-linejoin="round"/>
    <path d="M 173.4751739501953 85.84663391113281 C 192.85621643066406 20.201257705688477 207.27000427246094 27.795339584350586 166.26535034179688 97.5212173461914" stroke-width="3.0" fill="none" stroke="rgb(0, 0, 0)" stroke-opacity="1.0" stroke-linecap="round" stroke-linejoin="round"/>
    <path d="M 104.912841796875 116.8582534790039 C 108.78917694091797 185.07420349121094 81.68804168701172 199.34228515625 111.00094604492188 189.3553466796875" stroke-width="3.0" fill="none" stroke="rgb(0, 0, 0)" stroke-opacity="1.0" stroke-linecap="round" stroke-linejoin="round"/>
    <path d="M 168.6934356689453 73.99544525146484 C 178.5991973876953 2.5219266414642334 215.83157348632812 76.34960174560547 208.62530517578125 49.22319030761719" stroke-width="3.0" fill="none" stroke="rgb(0, 0, 0)" stroke-opacity="1.0" stroke-linecap="round" stroke-linejoin="round"/>
    <path d="M 194.75648498535156 65.66465759277344 C 153.83108520507812 47.19129943847656 256.3346862792969 47.076629638671875 197.70767211914062 61.997379302978516" stroke-width="3.0" fill="none" stroke="rgb(0, 0, 0)" stroke-opacity="1.0" stroke-linecap="round" stroke-linejoin="round"/>
  </g>
</svg>
