<?xml version="1.0" ?>
<svg xmlns="http://www.w3.org/2000/svg" version="1.1" width="224" height="224">
  <defs/>
  <g>
    <path d="M 155.1476287841797 101.26228332519531 C 122.20960235595703 97.38435363769531 164.51016235351562 112.85952758789062 132.41793823242188 88.30735778808594" stroke-width="3.0" fill="none" stroke="rgb(0, 0, 0)" stroke-opacity="1.0" stroke-linecap="round" stroke-linejoin="round"/>
    <path d="M 110.36695098876953 91.00348663330078 C 107.91173553466797 95.83039855957031 101.53582763671875 99.17941284179688 107.32283782958984 110.40625762939453" stroke-width="3.0" fill="none" stroke="rgb(0, 0, 0)" stroke-opacity="1.0" stroke-linecap="round" stroke-linejoin="round"/>
    <path d="M 136.35401916503906 105.49597930908203 C 150.83517456054688 80.71028137207031 112.4209213256836 120.38677978515625 169.6664276123047 96.16885375976562" stroke-width="3.0" fill="none" stroke="rgb(0, 0, 0)" stroke-opacity="1.0" stroke-linecap="round" stroke-linejoin="round"/>
    <path d="M 62.67147445678711 43.12952423095703 C 59.36777114868164 44.63759994506836 50.64748764038086 54.61369705200195 59.56540298461914 45.282867431640625" stroke-width="3.0" fill="none" stroke="rgb(0, 0, 0)" stroke-opacity="1.0" stroke-linecap="round" stroke-linejoin="round"/>
    <path d="M 112.73704528808594 51.78081130981445 C 115.07998657226562 47.09904861450195 103.17597961425781 51.04081344604492 96.09233856201172 44.310970306396484" stroke-width="3.0" fill="none" stroke="rgb(0, 0, 0)" stroke-opacity="1.0" stroke-linecap="round" stroke-linejoin="round"/>
    <path d="M 76.35071563720703 111.6128921508789 C 43.75949478149414 91.0735092163086 66.89127349853516 101.7548599243164 45.986541748046875 83.23088836669922" stroke-width="3.0" fill="none" stroke="rgb(0, 0, 0)" stroke-opacity="1.0" stroke-linecap="round" stroke-linejoin="round"/>
    <path d="M 187.14454650878906 42.86372375488281 C 176.2339324951172 63.083316802978516 205.96250915527344 58.33940887451172 177.6795196533203 82.7882080078125" stroke-width="3.0" fill="none" stroke="rgb(0, 0, 0)" stroke-opacity="1.0" stroke-linecap="round" stroke-linejoin="round"/>
    <path d="M 102.6567611694336 193.55587768554688 C 123.16263580322266 79.86679077148438 117.4622573852539 133.69430541992188 129.92626953125 101.67201232910156" stroke-width="3.0" fill="none" stroke="rgb(0, 0, 0)" stroke-opacity="1.0" stroke-linecap="round" stroke-linejoin="round"/>
    <path d="M 41.856163024902344 93.5024185180664 C 19.645458221435547 187.46127319335938 17.018394470214844 121.99752044677734 39.4750862121582 195.69668579101562" stroke-width="3.0" fill="none" stroke="rgb(0, 0, 0)" stroke-opacity="1.0" stroke-linecap="round" stroke-linejoin="round"/>
    <path d="M 62.363914489746094 41.447628021240234 C 91.53319549560547 11.975089073181152 137.18614196777344 94.35530853271484 166.20550537109375 87.31736755371094" stroke-width="3.0" fill="none" stroke="rgb(0, 0, 0)" stroke-opacity="1.0" stroke-linecap="round" stroke-linejoin="round"/>
    <path d="M 39.452049255371094 101.86585235595703 C 94.97745513916016 125.97354888916016 83.22797393798828 112.46424102783203 104.6407241821289 115.65711975097656" stroke-width="3.0" fill="none" stroke="rgb(0, 0, 0)" stroke-opacity="1.0" stroke-linecap="round" stroke-linejoin="round"/>
    <path d="M 44.85683059692383 78.38581085205078 C 43.97206497192383 67.0416030883789 37.330345153808594 63.8211555480957 37.12321090698242 63.022945404052734" stroke-width="3.0" fill="none" stroke="rgb(0, 0, 0)" stroke-opacity="1.0" stroke-linecap="round" stroke-linejoin="round"/>
    <path d="M 166.63641357421875 87.79132080078125 C 213.0272216796875 64.54846954345703 183.7727508544922 69.55220031738281 173.64527893066406 93.39727020263672" stroke-width="3.0" fill="none" stroke="rgb(0, 0, 0)" stroke-opacity="1.0" stroke-linecap="round" stroke-linejoin="round"/>
    <path d="M 104.72582244873047 114.30523681640625 C 105.51976776123047 186.74481201171875 77.21292114257812 188.822021484375 110.67818450927734 192.60797119140625" stroke-width="3.0" fill="none" stroke="rgb(0, 0, 0)" stroke-opacity="1.0" stroke-linecap="round" stroke-linejoin="round"/>
    <path d="M 175.8770751953125 81.814697265625 C 174.9412078857422 -12.17766284942627 191.85568237304688 73.90020751953125 195.1146240234375 47.494998931884766" stroke-width="3.0" fill="none" stroke="rgb(0, 0, 0)" stroke-opacity="1.0" stroke-linecap="round" stroke-linejoin="round"/>
    <path d="M 195.5264892578125 58.35964584350586 C 150.28189086914062 37.872718811035156 236.2117156982422 48.55094909667969 205.31478881835938 54.91489028930664" stroke-width="3.0" fill="none" stroke="rgb(0, 0, 0)" stroke-opacity="1.0" stroke-linecap="round" stroke-linejoin="round"/>
  </g>
</svg>
