<?xml version="1.0" ?>
<svg xmlns="http://www.w3.org/2000/svg" version="1.1" width="224" height="224">
  <defs/>
  <g>
    <path d="M 145.50209045410156 102.94930267333984 C 124.88532257080078 78.78951263427734 123.4378662109375 83.13884735107422 131.3900604248047 87.70785522460938" stroke-width="3.0" fill="none" stroke="rgb(0, 0, 0)" stroke-opacity="1.0" stroke-linecap="round" stroke-linejoin="round"/>
    <path d="M 96.85395812988281 93.85698699951172 C 96.43777465820312 95.881591796875 98.92727661132812 103.13420104980469 106.73371887207031 106.64545440673828" stroke-width="3.0" fill="none" stroke="rgb(0, 0, 0)" stroke-opacity="1.0" stroke-linecap="round" stroke-linejoin="round"/>
    <path d="M 127.40440368652344 108.87965393066406 C 149.05654907226562 96.6817855834961 121.59754943847656 92.11465454101562 156.57827758789062 103.6597671508789" stroke-width="3.0" fill="none" stroke="rgb(0, 0, 0)" stroke-opacity="1.0" stroke-linecap="round" stroke-linejoin="round"/>
    <path d="M 60.789485931396484 44.25056457519531 C 51.9975471496582 53.87422561645508 24.612369537353516 68.7396469116211 40.207401275634766 59.762935638427734" stroke-width="3.0" fill="none" stroke="rgb(0, 0, 0)" stroke-opacity="1.0" stroke-linecap="round" stroke-linejoin="round"/>
    <path d="M 108.70864868164062 56.17873001098633 C 119.9219741821289 59.90606689453125 113.08760070800781 61.04991149902344 105.01738739013672 49.98020553588867" stroke-width="3.0" fill="none" stroke="rgb(0, 0, 0)" stroke-opacity="1.0" stroke-linecap="round" stroke-linejoin="round"/>
    <path d="M 69.92542266845703 109.54119110107422 C 55.41927719116211 91.2070541381836 50.036251068115234 89.23213195800781 50.373836517333984 75.88679504394531" stroke-width="3.0" fill="none" stroke="rgb(0, 0, 0)" stroke-opacity="1.0" stroke-linecap="round" stroke-linejoin="round"/>
    <path d="M 181.54644775390625 46.24211502075195 C 172.541015625 69.16853332519531 187.93045043945312 68.9476089477539 168.77394104003906 79.96415710449219" stroke-width="3.0" fill="none" stroke="rgb(0, 0, 0)" stroke-opacity="1.0" stroke-linecap="round" stroke-linejoin="round"/>
    <path d="M 111.72822570800781 146.35511779785156 C 126.44719696044922 96.82949829101562 119.04907989501953 125.5986328125 129.6313018798828 101.91381072998047" stroke-width="3.0" fill="none" stroke="rgb(0, 0, 0)" stroke-opacity="1.0" stroke-linecap="round" stroke-linejoin="round"/>
    <path d="M 47.51161575317383 93.8508071899414 C 18.38048553466797 174.89694213867188 15.513154029846191 114.77836608886719 40.611732482910156 195.99095153808594" stroke-width="3.0" fill="none" stroke="rgb(0, 0, 0)" stroke-opacity="1.0" stroke-linecap="round" stroke-linejoin="round"/>
    <path d="M 61.57215118408203 43.38821792602539 C 90.66046905517578 18.129003524780273 126.18319702148438 79.01660919189453 149.16001892089844 82.1066665649414" stroke-width="3.0" fill="none" stroke="rgb(0, 0, 0)" stroke-opacity="1.0" stroke-linecap="round" stroke-linejoin="round"/>
    <path d="M 48.845672607421875 99.26679229736328 C 94.12239837646484 123.76677703857422 79.25789642333984 115.58979797363281 104.47807312011719 116.17898559570312" stroke-width="3.0" fill="none" stroke="rgb(0, 0, 0)" stroke-opacity="1.0" stroke-linecap="round" stroke-linejoin="round"/>
    <path d="M 41.146427154541016 82.44210815429688 C 33.656578063964844 67.95854187011719 27.097349166870117 68.54375457763672 28.728946685791016 68.38662719726562" stroke-width="3.0" fill="none" stroke="rgb(0, 0, 0)" stroke-opacity="1.0" stroke-linecap="round" stroke-linejoin="round"/>
    <path d="M 151.40853881835938 82.37838745117188 C 212.92617797851562 73.26293182373047 164.99697875976562 76.36428833007812 176.160888671875 94.0892333984375" stroke-width="3.0" fill="none" stroke="rgb(0, 0, 0)" stroke-opacity="1.0" stroke-linecap="round" stroke-linejoin="round"/>
    <path d="M 107.44441986083984 111.60296630859375 C 112.53274536132812 157.65907287597656 80.27875518798828 198.62118530273438 110.96635437011719 190.23707580566406" stroke-width="3.0" fill="none" stroke="rgb(0, 0, 0)" stroke-opacity="1.0" stroke-linecap="round" stroke-linejoin="round"/>
    <path d="M 177.94097900390625 60.797943115234375 C 195.13018798828125 13.198296546936035 181.7312469482422 64.43522644042969 210.69322204589844 48.76889419555664" stroke-width="3.0" fill="none" stroke="rgb(0, 0, 0)" stroke-opacity="1.0" stroke-linecap="round" stroke-linejoin="round"/>
    <path d="M 197.982177734375 64.03630828857422 C 166.47003173828125 37.39858627319336 210.6067352294922 38.1284065246582 198.5216522216797 57.03380584716797" stroke-width="3.0" fill="none" stroke="rgb(0, 0, 0)" stroke-opacity="1.0" stroke-linecap="round" stroke-linejoin="round"/>
  </g>
</svg>
