<?xml version="1.0" ?>
<svg xmlns="http://www.w3.org/2000/svg" version="1.1" width="224" height="224">
  <defs/>
  <g>
    <path d="M 128.36192321777344 109.1317138671875 C 131.5947723388672 87.60205078125 147.50148010253906 133.28237915039062 121.0444564819336 70.8508529663086" stroke-width="3.0" fill="none" stroke="rgb(0, 0, 0)" stroke-opacity="1.0" stroke-linecap="round" stroke-linejoin="round"/>
    <path d="M 113.84309387207031 91.91256713867188 C 117.17941284179688 97.75688934326172 99.25486755371094 103.43193054199219 109.68657684326172 116.67904663085938" stroke-width="3.0" fill="none" stroke="rgb(0, 0, 0)" stroke-opacity="1.0" stroke-linecap="round" stroke-linejoin="round"/>
    <path d="M 127.22618865966797 111.64065551757812 C 134.92909240722656 92.6512222290039 156.5810089111328 133.87640380859375 191.6089630126953 63.73455047607422" stroke-width="3.0" fill="none" stroke="rgb(0, 0, 0)" stroke-opacity="1.0" stroke-linecap="round" stroke-linejoin="round"/>
    <path d="M 65.339599609375 41.36758804321289 C 65.29846954345703 41.043304443359375 53.03618621826172 47.54814910888672 43.18447494506836 60.007896423339844" stroke-width="3.0" fill="none" stroke="rgb(0, 0, 0)" stroke-opacity="1.0" stroke-linecap="round" stroke-linejoin="round"/>
    <path d="M 139.3892059326172 79.58357238769531 C 103.92788696289062 39.429039001464844 112.39906311035156 66.44921112060547 95.05155181884766 44.110076904296875" stroke-width="3.0" fill="none" stroke="rgb(0, 0, 0)" stroke-opacity="1.0" stroke-linecap="round" stroke-linejoin="round"/>
    <path d="M 63.77936935424805 110.37100219726562 C 37.511863708496094 76.7350082397461 56.5834846496582 92.77092742919922 42.29319763183594 75.11052703857422" stroke-width="3.0" fill="none" stroke="rgb(0, 0, 0)" stroke-opacity="1.0" stroke-linecap="round" stroke-linejoin="round"/>
    <path d="M 185.70460510253906 63.28422546386719 C 173.89793395996094 30.155195236206055 192.0635528564453 48.533451080322266 185.34771728515625 81.47660827636719" stroke-width="3.0" fill="none" stroke="rgb(0, 0, 0)" stroke-opacity="1.0" stroke-linecap="round" stroke-linejoin="round"/>
    <path d="M 102.51683044433594 193.40357971191406 C 114.34500122070312 105.00538635253906 122.26060485839844 139.4462127685547 126.25601196289062 97.08766174316406" stroke-width="3.0" fill="none" stroke="rgb(0, 0, 0)" stroke-opacity="1.0" stroke-linecap="round" stroke-linejoin="round"/>
    <path d="M 48.07518768310547 99.60791015625 C 18.102256774902344 180.3181915283203 26.21996307373047 125.80579376220703 39.247825622558594 198.97235107421875" stroke-width="3.0" fill="none" stroke="rgb(0, 0, 0)" stroke-opacity="1.0" stroke-linecap="round" stroke-linejoin="round"/>
    <path d="M 66.0013656616211 41.36970138549805 C 99.66081237792969 13.963348388671875 153.7227325439453 138.2977752685547 177.46725463867188 53.72248458862305" stroke-width="3.0" fill="none" stroke="rgb(0, 0, 0)" stroke-opacity="1.0" stroke-linecap="round" stroke-linejoin="round"/>
    <path d="M 52.60249328613281 101.97962188720703 C 80.75865173339844 124.90345001220703 76.54910278320312 113.72959899902344 103.7083969116211 121.30359649658203" stroke-width="3.0" fill="none" stroke="rgb(0, 0, 0)" stroke-opacity="1.0" stroke-linecap="round" stroke-linejoin="round"/>
    <path d="M 29.851940155029297 142.72409057617188 C 25.805429458618164 103.37965393066406 -12.057526588439941 88.0066146850586 53.043067932128906 52.64646911621094" stroke-width="3.0" fill="none" stroke="rgb(0, 0, 0)" stroke-opacity="1.0" stroke-linecap="round" stroke-linejoin="round"/>
    <path d="M 175.9381103515625 88.72573852539062 C 189.57064819335938 16.831003189086914 204.3168182373047 24.235633850097656 166.27883911132812 95.6077651977539" stroke-width="3.0" fill="none" stroke="rgb(0, 0, 0)" stroke-opacity="1.0" stroke-linecap="round" stroke-linejoin="round"/>
    <path d="M 104.04422760009766 119.53157806396484 C 106.9642333984375 184.832763671875 76.62380981445312 198.99127197265625 108.71351623535156 188.19996643066406" stroke-width="3.0" fill="none" stroke="rgb(0, 0, 0)" stroke-opacity="1.0" stroke-linecap="round" stroke-linejoin="round"/>
    <path d="M 169.7570343017578 74.20877075195312 C 181.3280487060547 2.573249101638794 214.1453094482422 76.13512420654297 205.42257690429688 47.175594329833984" stroke-width="3.0" fill="none" stroke="rgb(0, 0, 0)" stroke-opacity="1.0" stroke-linecap="round" stroke-linejoin="round"/>
    <path d="M 195.2575225830078 60.36139678955078 C 153.80722045898438 43.26015090942383 256.0580749511719 46.534385681152344 198.34176635742188 57.83601760864258" stroke-width="3.0" fill="none" stroke="rgb(0, 0, 0)" stroke-opacity="1.0" stroke-linecap="round" stroke-linejoin="round"/>
  </g>
</svg>
