<?xml version="1.0" ?>
<svg xmlns="http://www.w3.org/2000/svg" version="1.1" width="224" height="224">
  <defs/>
  <g>
    <path d="M 149.91571044921875 104.13592529296875 C 117.29720306396484 79.5447006225586 174.1058349609375 138.58242797851562 122.1561279296875 74.46895599365234" stroke-width="3.0" fill="none" stroke="rgb(0, 0, 0)" stroke-opacity="1.0" stroke-linecap="round" stroke-linejoin="round"/>
    <path d="M 106.0739517211914 93.96867370605469 C 110.02758026123047 106.14572143554688 100.2544174194336 105.77264404296875 107.18663787841797 116.31398010253906" stroke-width="3.0" fill="none" stroke="rgb(0, 0, 0)" stroke-opacity="1.0" stroke-linecap="round" stroke-linejoin="round"/>
    <path d="M 140.81846618652344 105.05614471435547 C 138.1471405029297 64.39997863769531 132.7803955078125 136.31927490234375 183.63543701171875 81.03646087646484" stroke-width="3.0" fill="none" stroke="rgb(0, 0, 0)" stroke-opacity="1.0" stroke-linecap="round" stroke-linejoin="round"/>
    <path d="M 62.4254035949707 40.14275360107422 C 63.66257858276367 39.249267578125 56.60490798950195 44.283172607421875 61.80861282348633 40.716915130615234" stroke-width="3.0" fill="none" stroke="rgb(0, 0, 0)" stroke-opacity="1.0" stroke-linecap="round" stroke-linejoin="round"/>
    <path d="M 132.3520050048828 79.9886703491211 C 106.17005920410156 39.374271392822266 113.90611267089844 64.84103393554688 97.8241195678711 43.771141052246094" stroke-width="3.0" fill="none" stroke="rgb(0, 0, 0)" stroke-opacity="1.0" stroke-linecap="round" stroke-linejoin="round"/>
    <path d="M 68.61248016357422 110.34603118896484 C 34.51698684692383 73.17886352539062 55.65797805786133 90.54246520996094 39.94995880126953 70.67841339111328" stroke-width="3.0" fill="none" stroke="rgb(0, 0, 0)" stroke-opacity="1.0" stroke-linecap="round" stroke-linejoin="round"/>
    <path d="M 184.6375274658203 44.69208908081055 C 187.75973510742188 45.79135513305664 194.9822998046875 48.99714660644531 188.16390991210938 79.90823364257812" stroke-width="3.0" fill="none" stroke="rgb(0, 0, 0)" stroke-opacity="1.0" stroke-linecap="round" stroke-linejoin="round"/>
    <path d="M 100.76945495605469 194.24395751953125 C 122.48413848876953 81.42424774169922 122.01789093017578 122.5027084350586 132.8497314453125 102.92237091064453" stroke-width="3.0" fill="none" stroke="rgb(0, 0, 0)" stroke-opacity="1.0" stroke-linecap="round" stroke-linejoin="round"/>
    <path d="M 45.147525787353516 98.69766235351562 C 22.998258590698242 180.33975219726562 17.13340187072754 124.92402648925781 38.55607986450195 196.58505249023438" stroke-width="3.0" fill="none" stroke="rgb(0, 0, 0)" stroke-opacity="1.0" stroke-linecap="round" stroke-linejoin="round"/>
    <path d="M 65.0291748046875 39.00871276855469 C 98.97565460205078 12.157811164855957 143.34474182128906 110.16383361816406 170.20205688476562 79.06747436523438" stroke-width="3.0" fill="none" stroke="rgb(0, 0, 0)" stroke-opacity="1.0" stroke-linecap="round" stroke-linejoin="round"/>
    <path d="M 50.120033264160156 97.40633392333984 C 75.43772888183594 122.61843872070312 86.51224517822266 114.13136291503906 104.68131256103516 118.28286743164062" stroke-width="3.0" fill="none" stroke="rgb(0, 0, 0)" stroke-opacity="1.0" stroke-linecap="round" stroke-linejoin="round"/>
    <path d="M 18.971599578857422 133.09938049316406 C 7.267082214355469 68.76849365234375 16.641830444335938 81.08027648925781 57.98543167114258 42.701602935791016" stroke-width="3.0" fill="none" stroke="rgb(0, 0, 0)" stroke-opacity="1.0" stroke-linecap="round" stroke-linejoin="round"/>
    <path d="M 166.568115234375 81.90042877197266 C 198.80152893066406 36.331748962402344 200.0445098876953 47.08644485473633 171.1427001953125 89.06737518310547" stroke-width="3.0" fill="none" stroke="rgb(0, 0, 0)" stroke-opacity="1.0" stroke-linecap="round" stroke-linejoin="round"/>
    <path d="M 105.29315948486328 117.9945297241211 C 109.03892517089844 179.03314208984375 75.19973754882812 197.30064392089844 110.5029067993164 189.2483673095703" stroke-width="3.0" fill="none" stroke="rgb(0, 0, 0)" stroke-opacity="1.0" stroke-linecap="round" stroke-linejoin="round"/>
    <path d="M 171.50010681152344 77.44336700439453 C 173.61399841308594 -0.8915436863899231 214.8072052001953 74.1469497680664 210.90316772460938 47.12044906616211" stroke-width="3.0" fill="none" stroke="rgb(0, 0, 0)" stroke-opacity="1.0" stroke-linecap="round" stroke-linejoin="round"/>
    <path d="M 198.17596435546875 59.4101448059082 C 150.8323211669922 41.5469856262207 261.0601806640625 47.25682830810547 202.17349243164062 58.29479217529297" stroke-width="3.0" fill="none" stroke="rgb(0, 0, 0)" stroke-opacity="1.0" stroke-linecap="round" stroke-linejoin="round"/>
  </g>
</svg>
