<?xml version="1.0" ?>
<svg xmlns="http://www.w3.org/2000/svg" version="1.1" width="224" height="224">
  <defs/>
  <g>
    <path d="M 141.7713623046875 106.21089172363281 C 117.88268280029297 81.50192260742188 158.68301391601562 141.54800415039062 121.47122192382812 69.72078704833984" stroke-width="3.0" fill="none" stroke="rgb(0, 0, 0)" stroke-opacity="1.0" stroke-linecap="round" stroke-linejoin="round"/>
    <path d="M 107.45230865478516 96.69305419921875 C 108.89332580566406 103.98588562011719 100.81560516357422 102.50640869140625 108.22208404541016 113.23580932617188" stroke-width="3.0" fill="none" stroke="rgb(0, 0, 0)" stroke-opacity="1.0" stroke-linecap="round" stroke-linejoin="round"/>
    <path d="M 132.19442749023438 106.4503402709961 C 135.2258758544922 65.6155014038086 135.0825958251953 136.23414611816406 178.9251251220703 87.74373626708984" stroke-width="3.0" fill="none" stroke="rgb(0, 0, 0)" stroke-opacity="1.0" stroke-linecap="round" stroke-linejoin="round"/>
    <path d="M 64.42591094970703 41.08641052246094 C 63.632293701171875 40.69011688232422 56.385780334472656 45.030311584472656 60.19297409057617 43.026512145996094" stroke-width="3.0" fill="none" stroke="rgb(0, 0, 0)" stroke-opacity="1.0" stroke-linecap="round" stroke-linejoin="round"/>
    <path d="M 136.20468139648438 82.598388671875 C 108.6988296508789 38.670169830322266 111.30940246582031 65.54486846923828 96.66948699951172 43.68292999267578" stroke-width="3.0" fill="none" stroke="rgb(0, 0, 0)" stroke-opacity="1.0" stroke-linecap="round" stroke-linejoin="round"/>
    <path d="M 67.43155670166016 113.82269287109375 C 36.69587707519531 80.16606140136719 62.97829055786133 96.23299407958984 38.16317367553711 68.9640884399414" stroke-width="3.0" fill="none" stroke="rgb(0, 0, 0)" stroke-opacity="1.0" stroke-linecap="round" stroke-linejoin="round"/>
    <path d="M 181.4917449951172 49.153770446777344 C 186.58543395996094 26.992822647094727 190.62815856933594 45.1381721496582 186.36019897460938 83.66609954833984" stroke-width="3.0" fill="none" stroke="rgb(0, 0, 0)" stroke-opacity="1.0" stroke-linecap="round" stroke-linejoin="round"/>
    <path d="M 102.89025115966797 194.6114959716797 C 120.91674041748047 80.4217300415039 120.52546691894531 125.4774398803711 126.97966003417969 103.07878875732422" stroke-width="3.0" fill="none" stroke="rgb(0, 0, 0)" stroke-opacity="1.0" stroke-linecap="round" stroke-linejoin="round"/>
    <path d="M 41.56945037841797 102.239501953125 C 22.191991806030273 178.0009765625 14.42216682434082 132.40296936035156 40.59642028808594 199.632080078125" stroke-width="3.0" fill="none" stroke="rgb(0, 0, 0)" stroke-opacity="1.0" stroke-linecap="round" stroke-linejoin="round"/>
    <path d="M 63.11765670776367 41.57162857055664 C 97.35704803466797 15.039506912231445 145.4883575439453 110.39837646484375 166.81149291992188 76.00802612304688" stroke-width="3.0" fill="none" stroke="rgb(0, 0, 0)" stroke-opacity="1.0" stroke-linecap="round" stroke-linejoin="round"/>
    <path d="M 45.48115921020508 103.94489288330078 C 80.19523620605469 121.48001861572266 81.5031967163086 113.16388702392578 105.35706329345703 117.87745666503906" stroke-width="3.0" fill="none" stroke="rgb(0, 0, 0)" stroke-opacity="1.0" stroke-linecap="round" stroke-linejoin="round"/>
    <path d="M 17.536121368408203 130.2222900390625 C 9.569414138793945 68.32524108886719 14.510332107543945 80.13911437988281 58.7901725769043 44.083866119384766" stroke-width="3.0" fill="none" stroke="rgb(0, 0, 0)" stroke-opacity="1.0" stroke-linecap="round" stroke-linejoin="round"/>
    <path d="M 172.6403045654297 84.27967071533203 C 198.37710571289062 27.835529327392578 209.48289489746094 41.516963958740234 171.6786651611328 93.23931884765625" stroke-width="3.0" fill="none" stroke="rgb(0, 0, 0)" stroke-opacity="1.0" stroke-linecap="round" stroke-linejoin="round"/>
    <path d="M 105.60221099853516 117.8707504272461 C 107.92759704589844 183.8524627685547 74.82305145263672 206.13597106933594 109.36766815185547 189.283203125" stroke-width="3.0" fill="none" stroke="rgb(0, 0, 0)" stroke-opacity="1.0" stroke-linecap="round" stroke-linejoin="round"/>
    <path d="M 170.09751892089844 76.39954376220703 C 177.96572875976562 5.4722371101379395 214.29293823242188 72.67094421386719 205.39706420898438 48.89951705932617" stroke-width="3.0" fill="none" stroke="rgb(0, 0, 0)" stroke-opacity="1.0" stroke-linecap="round" stroke-linejoin="round"/>
    <path d="M 195.07162475585938 61.19575500488281 C 156.4714813232422 38.14329147338867 256.822509765625 49.02885818481445 198.2094268798828 56.966773986816406" stroke-width="3.0" fill="none" stroke="rgb(0, 0, 0)" stroke-opacity="1.0" stroke-linecap="round" stroke-linejoin="round"/>
  </g>
</svg>
