<?xml version="1.0" ?>
<svg xmlns="http://www.w3.org/2000/svg" version="1.1" width="224" height="224">
  <defs/>
  <g>
    <path d="M 132.60531616210938 108.27449035644531 C 131.2126007080078 96.20077514648438 146.6089324951172 134.1437530517578 123.22341918945312 71.09199523925781" stroke-width="3.0" fill="none" stroke="rgb(0, 0, 0)" stroke-opacity="1.0" stroke-linecap="round" stroke-linejoin="round"/>
    <path d="M 107.20226287841797 93.78218841552734 C 111.419189453125 102.89476776123047 102.47166442871094 102.40555572509766 110.77278137207031 112.35487365722656" stroke-width="3.0" fill="none" stroke="rgb(0, 0, 0)" stroke-opacity="1.0" stroke-linecap="round" stroke-linejoin="round"/>
    <path d="M 128.98939514160156 112.4564208984375 C 141.63612365722656 95.66622161865234 157.1814422607422 130.4556121826172 198.26832580566406 57.8554801940918" stroke-width="3.0" fill="none" stroke="rgb(0, 0, 0)" stroke-opacity="1.0" stroke-linecap="round" stroke-linejoin="round"/>
    <path d="M 64.83473205566406 38.96950149536133 C 64.71739196777344 38.81667709350586 53.10279083251953 47.261932373046875 43.889278411865234 57.469627380371094" stroke-width="3.0" fill="none" stroke="rgb(0, 0, 0)" stroke-opacity="1.0" stroke-linecap="round" stroke-linejoin="round"/>
    <path d="M 143.09500122070312 79.66853332519531 C 104.44853973388672 39.73942184448242 114.34562683105469 65.50511169433594 96.91451263427734 42.125980377197266" stroke-width="3.0" fill="none" stroke="rgb(0, 0, 0)" stroke-opacity="1.0" stroke-linecap="round" stroke-linejoin="round"/>
    <path d="M 66.15128326416016 108.57096099853516 C 41.723060607910156 81.01836395263672 58.99735641479492 98.0140151977539 45.03676986694336 74.48526763916016" stroke-width="3.0" fill="none" stroke="rgb(0, 0, 0)" stroke-opacity="1.0" stroke-linecap="round" stroke-linejoin="round"/>
    <path d="M 185.48379516601562 63.00686264038086 C 172.37937927246094 30.317445755004883 194.49258422851562 45.47396469116211 188.99075317382812 80.48339080810547" stroke-width="3.0" fill="none" stroke="rgb(0, 0, 0)" stroke-opacity="1.0" stroke-linecap="round" stroke-linejoin="round"/>
    <path d="M 104.0524673461914 194.9473876953125 C 111.20893096923828 109.03813171386719 119.7823486328125 143.15489196777344 127.48239135742188 100.23394012451172" stroke-width="3.0" fill="none" stroke="rgb(0, 0, 0)" stroke-opacity="1.0" stroke-linecap="round" stroke-linejoin="round"/>
    <path d="M 49.5493278503418 98.884033203125 C 13.983039855957031 183.89071655273438 28.822668075561523 130.26669311523438 37.627262115478516 197.96633911132812" stroke-width="3.0" fill="none" stroke="rgb(0, 0, 0)" stroke-opacity="1.0" stroke-linecap="round" stroke-linejoin="round"/>
    <path d="M 64.30902099609375 39.47151565551758 C 101.67718505859375 13.415933609008789 157.2759552001953 137.30918884277344 174.3658905029297 51.73398971557617" stroke-width="3.0" fill="none" stroke="rgb(0, 0, 0)" stroke-opacity="1.0" stroke-linecap="round" stroke-linejoin="round"/>
    <path d="M 49.40536117553711 100.7088851928711 C 83.05615234375 122.36410522460938 80.91314697265625 110.2710189819336 106.19338989257812 116.87409210205078" stroke-width="3.0" fill="none" stroke="rgb(0, 0, 0)" stroke-opacity="1.0" stroke-linecap="round" stroke-linejoin="round"/>
    <path d="M 24.210309982299805 143.7868194580078 C 30.964366912841797 106.72313690185547 -10.682600021362305 89.77462768554688 50.513797760009766 50.997169494628906" stroke-width="3.0" fill="none" stroke="rgb(0, 0, 0)" stroke-opacity="1.0" stroke-linecap="round" stroke-linejoin="round"/>
    <path d="M 175.22433471679688 90.80592346191406 C 190.31869506835938 19.053272247314453 205.9029541015625 26.939605712890625 172.4188232421875 95.00110626220703" stroke-width="3.0" fill="none" stroke="rgb(0, 0, 0)" stroke-opacity="1.0" stroke-linecap="round" stroke-linejoin="round"/>
    <path d="M 104.46575164794922 114.745849609375 C 106.98695373535156 183.45655822753906 80.14102172851562 203.64393615722656 111.06375885009766 190.31167602539062" stroke-width="3.0" fill="none" stroke="rgb(0, 0, 0)" stroke-opacity="1.0" stroke-linecap="round" stroke-linejoin="round"/>
    <path d="M 170.67160034179688 70.9413070678711 C 180.36785888671875 0.12474565207958221 212.48782348632812 75.51387786865234 208.0426788330078 47.40585708618164" stroke-width="3.0" fill="none" stroke="rgb(0, 0, 0)" stroke-opacity="1.0" stroke-linecap="round" stroke-linejoin="round"/>
    <path d="M 192.195068359375 64.00253295898438 C 156.86097717285156 42.355674743652344 256.5555725097656 45.71879196166992 194.862060546875 58.77645492553711" stroke-width="3.0" fill="none" stroke="rgb(0, 0, 0)" stroke-opacity="1.0" stroke-linecap="round" stroke-linejoin="round"/>
  </g>
</svg>
