<?xml version="1.0" ?>
<svg xmlns="http://www.w3.org/2000/svg" version="1.1" width="224" height="224">
  <defs/>
  <g>
    <path d="M 151.44891357421875 102.2171401977539 C 131.2171630859375 102.90135192871094 153.17694091796875 103.59171295166016 137.55526733398438 94.10386657714844" stroke-width="3.0" fill="none" stroke="rgb(0, 0, 0)" stroke-opacity="1.0" stroke-linecap="round" stroke-linejoin="round"/>
    <path d="M 108.21774291992188 88.78776550292969 C 107.71849822998047 95.40580749511719 106.30471801757812 99.26831817626953 110.59989166259766 105.9406967163086" stroke-width="3.0" fill="none" stroke="rgb(0, 0, 0)" stroke-opacity="1.0" stroke-linecap="round" stroke-linejoin="round"/>
    <path d="M 133.0335235595703 104.29003143310547 C 153.7962646484375 93.73977661132812 117.42149353027344 108.38907623291016 159.64120483398438 100.04239654541016" stroke-width="3.0" fill="none" stroke="rgb(0, 0, 0)" stroke-opacity="1.0" stroke-linecap="round" stroke-linejoin="round"/>
    <path d="M 59.47657012939453 43.07034683227539 C 52.01906204223633 50.394107818603516 34.917816162109375 69.8824234008789 48.90070724487305 57.15378952026367" stroke-width="3.0" fill="none" stroke="rgb(0, 0, 0)" stroke-opacity="1.0" stroke-linecap="round" stroke-linejoin="round"/>
    <path d="M 100.76081848144531 50.274192810058594 C 119.5806655883789 56.748313903808594 102.72732543945312 53.39741897583008 96.17691040039062 43.54943084716797" stroke-width="3.0" fill="none" stroke="rgb(0, 0, 0)" stroke-opacity="1.0" stroke-linecap="round" stroke-linejoin="round"/>
    <path d="M 76.58758544921875 114.05300903320312 C 49.840614318847656 93.14159393310547 61.009490966796875 87.29412841796875 44.876747131347656 75.07649230957031" stroke-width="3.0" fill="none" stroke="rgb(0, 0, 0)" stroke-opacity="1.0" stroke-linecap="round" stroke-linejoin="round"/>
    <path d="M 186.78076171875 42.909034729003906 C 182.4195098876953 68.85381317138672 210.74436950683594 74.71896362304688 174.218994140625 86.76496124267578" stroke-width="3.0" fill="none" stroke="rgb(0, 0, 0)" stroke-opacity="1.0" stroke-linecap="round" stroke-linejoin="round"/>
    <path d="M 110.1478042602539 162.38710021972656 C 126.3768539428711 92.28993225097656 115.62903594970703 125.39028930664062 128.41079711914062 104.89688110351562" stroke-width="3.0" fill="none" stroke="rgb(0, 0, 0)" stroke-opacity="1.0" stroke-linecap="round" stroke-linejoin="round"/>
    <path d="M 46.04239273071289 93.9704818725586 C 24.702165603637695 181.01348876953125 17.969812393188477 116.64305114746094 40.03424835205078 197.65467834472656" stroke-width="3.0" fill="none" stroke="rgb(0, 0, 0)" stroke-opacity="1.0" stroke-linecap="round" stroke-linejoin="round"/>
    <path d="M 59.47925567626953 43.71323013305664 C 89.43798828125 11.878966331481934 129.61083984375 89.19063568115234 159.86764526367188 83.89934539794922" stroke-width="3.0" fill="none" stroke="rgb(0, 0, 0)" stroke-opacity="1.0" stroke-linecap="round" stroke-linejoin="round"/>
    <path d="M 45.82477951049805 101.91647338867188 C 97.9750747680664 126.03736877441406 98.28670501708984 108.47100067138672 106.39193725585938 114.82254028320312" stroke-width="3.0" fill="none" stroke="rgb(0, 0, 0)" stroke-opacity="1.0" stroke-linecap="round" stroke-linejoin="round"/>
    <path d="M 35.62314224243164 88.14522552490234 C 38.21653366088867 66.65695190429688 31.994699478149414 63.79605484008789 32.2368278503418 62.6043815612793" stroke-width="3.0" fill="none" stroke="rgb(0, 0, 0)" stroke-opacity="1.0" stroke-linecap="round" stroke-linejoin="round"/>
    <path d="M 160.28660583496094 84.58815002441406 C 222.01377868652344 78.928955078125 169.70419311523438 79.20215606689453 171.9322509765625 97.29090118408203" stroke-width="3.0" fill="none" stroke="rgb(0, 0, 0)" stroke-opacity="1.0" stroke-linecap="round" stroke-linejoin="round"/>
    <path d="M 107.46771240234375 108.82504272460938 C 111.65746307373047 174.49351501464844 81.43940734863281 195.1111602783203 110.76445770263672 191.38677978515625" stroke-width="3.0" fill="none" stroke="rgb(0, 0, 0)" stroke-opacity="1.0" stroke-linecap="round" stroke-linejoin="round"/>
    <path d="M 173.35623168945312 78.64204406738281 C 182.12989807128906 0.6326202750205994 184.93539428710938 67.9146728515625 206.4384307861328 44.42335510253906" stroke-width="3.0" fill="none" stroke="rgb(0, 0, 0)" stroke-opacity="1.0" stroke-linecap="round" stroke-linejoin="round"/>
    <path d="M 199.1263427734375 60.684349060058594 C 152.3218994140625 39.39190673828125 218.43154907226562 40.71678161621094 206.76856994628906 58.3924446105957" stroke-width="3.0" fill="none" stroke="rgb(0, 0, 0)" stroke-opacity="1.0" stroke-linecap="round" stroke-linejoin="round"/>
  </g>
</svg>
