<?xml version="1.0" ?>
<svg xmlns="http://www.w3.org/2000/svg" version="1.1" width="224" height="224">
  <defs/>
  <g>
    <path d="M 153.2017059326172 101.85173034667969 C 132.15406799316406 96.54132080078125 157.8402862548828 108.51155090332031 135.1966094970703 95.08779907226562" stroke-width="3.0" fill="none" stroke="rgb(0, 0, 0)" stroke-opacity="1.0" stroke-linecap="round" stroke-linejoin="round"/>
    <path d="M 108.0067367553711 88.48118591308594 C 108.16880798339844 94.90714263916016 108.25972747802734 97.04061889648438 112.6363296508789 103.4923095703125" stroke-width="3.0" fill="none" stroke="rgb(0, 0, 0)" stroke-opacity="1.0" stroke-linecap="round" stroke-linejoin="round"/>
    <path d="M 135.52023315429688 107.77896881103516 C 154.47866821289062 90.74972534179688 118.15029907226562 107.07867431640625 164.42440795898438 100.0894546508789" stroke-width="3.0" fill="none" stroke="rgb(0, 0, 0)" stroke-opacity="1.0" stroke-linecap="round" stroke-linejoin="round"/>
    <path d="M 60.22018051147461 45.382057189941406 C 54.499568939208984 53.42915725708008 35.43986129760742 66.93364715576172 50.178592681884766 58.6281852722168" stroke-width="3.0" fill="none" stroke="rgb(0, 0, 0)" stroke-opacity="1.0" stroke-linecap="round" stroke-linejoin="round"/>
    <path d="M 101.6905746459961 47.51632308959961 C 121.30125427246094 52.37470245361328 103.22372436523438 52.89032745361328 94.50300598144531 46.381900787353516" stroke-width="3.0" fill="none" stroke="rgb(0, 0, 0)" stroke-opacity="1.0" stroke-linecap="round" stroke-linejoin="round"/>
    <path d="M 76.01142883300781 113.28645324707031 C 47.78128433227539 91.3452377319336 61.032005310058594 89.02836608886719 47.32561111450195 76.20732116699219" stroke-width="3.0" fill="none" stroke="rgb(0, 0, 0)" stroke-opacity="1.0" stroke-linecap="round" stroke-linejoin="round"/>
    <path d="M 191.00332641601562 43.67548370361328 C 184.78121948242188 68.26239776611328 211.7760772705078 73.23143768310547 173.981201171875 88.58190155029297" stroke-width="3.0" fill="none" stroke="rgb(0, 0, 0)" stroke-opacity="1.0" stroke-linecap="round" stroke-linejoin="round"/>
    <path d="M 108.81475830078125 161.54736328125 C 126.43401336669922 88.4363784790039 113.5723876953125 126.93704223632812 132.7432403564453 101.5008544921875" stroke-width="3.0" fill="none" stroke="rgb(0, 0, 0)" stroke-opacity="1.0" stroke-linecap="round" stroke-linejoin="round"/>
    <path d="M 49.336463928222656 96.2398681640625 C 25.419279098510742 179.86587524414062 22.387561798095703 117.91641235351562 38.54608917236328 197.1742706298828" stroke-width="3.0" fill="none" stroke="rgb(0, 0, 0)" stroke-opacity="1.0" stroke-linecap="round" stroke-linejoin="round"/>
    <path d="M 60.488643646240234 45.82504653930664 C 90.99532318115234 14.606413841247559 130.77685546875 90.35017395019531 159.5859375 85.45075225830078" stroke-width="3.0" fill="none" stroke="rgb(0, 0, 0)" stroke-opacity="1.0" stroke-linecap="round" stroke-linejoin="round"/>
    <path d="M 47.91779327392578 101.84398651123047 C 100.10015869140625 125.45967864990234 95.65206909179688 108.26095581054688 104.4814682006836 118.0557632446289" stroke-width="3.0" fill="none" stroke="rgb(0, 0, 0)" stroke-opacity="1.0" stroke-linecap="round" stroke-linejoin="round"/>
    <path d="M 36.27651596069336 87.81266021728516 C 36.47735595703125 68.01531982421875 30.278383255004883 65.24783325195312 32.04888153076172 65.57177734375" stroke-width="3.0" fill="none" stroke="rgb(0, 0, 0)" stroke-opacity="1.0" stroke-linecap="round" stroke-linejoin="round"/>
    <path d="M 161.30279541015625 86.4609146118164 C 222.13531494140625 81.34568786621094 170.42857360839844 79.44818878173828 167.73565673828125 97.91373443603516" stroke-width="3.0" fill="none" stroke="rgb(0, 0, 0)" stroke-opacity="1.0" stroke-linecap="round" stroke-linejoin="round"/>
    <path d="M 105.77357482910156 110.47063446044922 C 109.95951080322266 175.67738342285156 79.22575378417969 195.32614135742188 110.31311798095703 191.20082092285156" stroke-width="3.0" fill="none" stroke="rgb(0, 0, 0)" stroke-opacity="1.0" stroke-linecap="round" stroke-linejoin="round"/>
    <path d="M 174.47947692871094 80.1978988647461 C 179.76034545898438 -5.5779337882995605 186.34324645996094 70.12373352050781 207.25143432617188 47.189701080322266" stroke-width="3.0" fill="none" stroke="rgb(0, 0, 0)" stroke-opacity="1.0" stroke-linecap="round" stroke-linejoin="round"/>
    <path d="M 197.39151000976562 64.64207458496094 C 152.18338012695312 40.02457809448242 222.50987243652344 40.330284118652344 204.24977111816406 58.39597702026367" stroke-width="3.0" fill="none" stroke="rgb(0, 0, 0)" stroke-opacity="1.0" stroke-linecap="round" stroke-linejoin="round"/>
  </g>
</svg>
