<?xml version="1.0" ?>
<svg xmlns="http://www.w3.org/2000/svg" version="1.1" width="224" height="224">
  <defs/>
  <g>
    <path d="M 138.8487548828125 108.22624969482422 C 122.65904998779297 92.33721160888672 154.37789916992188 139.1024932861328 118.06764221191406 66.4903793334961" stroke-width="3.0" fill="none" stroke="rgb(0, 0, 0)" stroke-opacity="1.0" stroke-linecap="round" stroke-linejoin="round"/>
    <path d="M 109.59658813476562 94.33968353271484 C 112.8971176147461 104.76087188720703 102.89170837402344 104.01042175292969 108.23405456542969 116.30842590332031" stroke-width="3.0" fill="none" stroke="rgb(0, 0, 0)" stroke-opacity="1.0" stroke-linecap="round" stroke-linejoin="round"/>
    <path d="M 131.70504760742188 107.10954284667969 C 131.03985595703125 81.54117584228516 142.03036499023438 133.7798309326172 186.106201171875 80.7350082397461" stroke-width="3.0" fill="none" stroke="rgb(0, 0, 0)" stroke-opacity="1.0" stroke-linecap="round" stroke-linejoin="round"/>
    <path d="M 71.25523376464844 36.6555061340332 C 64.5875473022461 38.154144287109375 54.02516555786133 47.198848724365234 50.15320587158203 49.71867752075195" stroke-width="3.0" fill="none" stroke="rgb(0, 0, 0)" stroke-opacity="1.0" stroke-linecap="round" stroke-linejoin="round"/>
    <path d="M 131.4788818359375 81.97457122802734 C 110.80573272705078 38.852840423583984 113.29409790039062 64.79247283935547 97.10346984863281 43.20026397705078" stroke-width="3.0" fill="none" stroke="rgb(0, 0, 0)" stroke-opacity="1.0" stroke-linecap="round" stroke-linejoin="round"/>
    <path d="M 69.93203735351562 113.73514556884766 C 36.6657600402832 84.74528503417969 61.05975341796875 104.53518676757812 42.538612365722656 80.75434112548828" stroke-width="3.0" fill="none" stroke="rgb(0, 0, 0)" stroke-opacity="1.0" stroke-linecap="round" stroke-linejoin="round"/>
    <path d="M 183.7943572998047 57.81736755371094 C 177.17593383789062 36.27000427246094 195.13214111328125 46.480064392089844 191.34107971191406 76.42374420166016" stroke-width="3.0" fill="none" stroke="rgb(0, 0, 0)" stroke-opacity="1.0" stroke-linecap="round" stroke-linejoin="round"/>
    <path d="M 100.24042510986328 190.08726501464844 C 121.38008880615234 82.59091186523438 122.61225891113281 128.42933654785156 125.10494995117188 101.46381378173828" stroke-width="3.0" fill="none" stroke="rgb(0, 0, 0)" stroke-opacity="1.0" stroke-linecap="round" stroke-linejoin="round"/>
    <path d="M 43.401912689208984 102.0784912109375 C 25.609708786010742 177.37570190429688 20.57318687438965 121.57597351074219 42.98308181762695 196.28482055664062" stroke-width="3.0" fill="none" stroke="rgb(0, 0, 0)" stroke-opacity="1.0" stroke-linecap="round" stroke-linejoin="round"/>
    <path d="M 67.22217559814453 38.668148040771484 C 99.54630279541016 16.344093322753906 156.65672302246094 130.11074829101562 173.69664001464844 66.14789581298828" stroke-width="3.0" fill="none" stroke="rgb(0, 0, 0)" stroke-opacity="1.0" stroke-linecap="round" stroke-linejoin="round"/>
    <path d="M 45.49140548706055 103.27173614501953 C 83.02875518798828 125.85708618164062 77.81544494628906 116.79293823242188 105.37371826171875 119.82951354980469" stroke-width="3.0" fill="none" stroke="rgb(0, 0, 0)" stroke-opacity="1.0" stroke-linecap="round" stroke-linejoin="round"/>
    <path d="M 20.30645751953125 137.08560180664062 C 11.63364315032959 70.98751068115234 7.51121711730957 87.54177856445312 53.46905517578125 46.213722229003906" stroke-width="3.0" fill="none" stroke="rgb(0, 0, 0)" stroke-opacity="1.0" stroke-linecap="round" stroke-linejoin="round"/>
    <path d="M 177.65347290039062 88.90409088134766 C 196.51321411132812 24.080787658691406 197.4258575439453 25.378496170043945 173.81997680664062 93.37611389160156" stroke-width="3.0" fill="none" stroke="rgb(0, 0, 0)" stroke-opacity="1.0" stroke-linecap="round" stroke-linejoin="round"/>
    <path d="M 104.6427993774414 118.84455108642578 C 110.18289947509766 177.8568115234375 73.62037658691406 199.7898712158203 108.64114379882812 192.44140625" stroke-width="3.0" fill="none" stroke="rgb(0, 0, 0)" stroke-opacity="1.0" stroke-linecap="round" stroke-linejoin="round"/>
    <path d="M 172.02825927734375 66.90447998046875 C 182.3524169921875 7.42672872543335 219.7715301513672 77.38957214355469 210.53091430664062 46.307952880859375" stroke-width="3.0" fill="none" stroke="rgb(0, 0, 0)" stroke-opacity="1.0" stroke-linecap="round" stroke-linejoin="round"/>
    <path d="M 194.73452758789062 62.42741394042969 C 154.73770141601562 40.706424713134766 257.7948303222656 49.59968948364258 198.18679809570312 57.59867858886719" stroke-width="3.0" fill="none" stroke="rgb(0, 0, 0)" stroke-opacity="1.0" stroke-linecap="round" stroke-linejoin="round"/>
  </g>
</svg>
