<?xml version="1.0" ?>
<svg xmlns="http://www.w3.org/2000/svg" version="1.1" width="224" height="224">
  <defs/>
  <g>
    <path d="M 136.43470764160156 107.5879135131836 C 120.86198425292969 95.83149719238281 149.46786499023438 140.21908569335938 115.74519348144531 67.11743927001953" stroke-width="3.0" fill="none" stroke="rgb(0, 0, 0)" stroke-opacity="1.0" stroke-linecap="round" stroke-linejoin="round"/>
    <path d="M 108.93013763427734 94.19952392578125 C 110.16868591308594 100.6588363647461 101.86369323730469 100.0052490234375 107.9288101196289 113.98563385009766" stroke-width="3.0" fill="none" stroke="rgb(0, 0, 0)" stroke-opacity="1.0" stroke-linecap="round" stroke-linejoin="round"/>
    <path d="M 129.8521270751953 110.45663452148438 C 130.41241455078125 84.916259765625 147.66879272460938 138.42315673828125 187.36827087402344 72.91505432128906" stroke-width="3.0" fill="none" stroke="rgb(0, 0, 0)" stroke-opacity="1.0" stroke-linecap="round" stroke-linejoin="round"/>
    <path d="M 68.33757019042969 40.94205093383789 C 64.94158935546875 39.16457748413086 53.173702239990234 45.8340950012207 44.86808776855469 59.462608337402344" stroke-width="3.0" fill="none" stroke="rgb(0, 0, 0)" stroke-opacity="1.0" stroke-linecap="round" stroke-linejoin="round"/>
    <path d="M 135.45526123046875 82.42510986328125 C 108.41284942626953 38.40441131591797 112.76616668701172 66.7217025756836 94.85712432861328 46.96091079711914" stroke-width="3.0" fill="none" stroke="rgb(0, 0, 0)" stroke-opacity="1.0" stroke-linecap="round" stroke-linejoin="round"/>
    <path d="M 67.3188247680664 112.66285705566406 C 34.92427444458008 83.5203628540039 60.81710433959961 99.22747039794922 39.20294952392578 76.4012222290039" stroke-width="3.0" fill="none" stroke="rgb(0, 0, 0)" stroke-opacity="1.0" stroke-linecap="round" stroke-linejoin="round"/>
    <path d="M 185.60610961914062 58.99357986450195 C 172.79400634765625 39.57946014404297 194.79722595214844 54.310890197753906 187.41726684570312 80.91714477539062" stroke-width="3.0" fill="none" stroke="rgb(0, 0, 0)" stroke-opacity="1.0" stroke-linecap="round" stroke-linejoin="round"/>
    <path d="M 100.3192367553711 191.41917419433594 C 119.88886260986328 89.97453308105469 121.08233642578125 126.85973358154297 121.3749008178711 104.3798599243164" stroke-width="3.0" fill="none" stroke="rgb(0, 0, 0)" stroke-opacity="1.0" stroke-linecap="round" stroke-linejoin="round"/>
    <path d="M 48.46708679199219 101.75232696533203 C 23.639556884765625 173.4619598388672 11.349817276000977 125.99751281738281 39.67211151123047 200.60305786132812" stroke-width="3.0" fill="none" stroke="rgb(0, 0, 0)" stroke-opacity="1.0" stroke-linecap="round" stroke-linejoin="round"/>
    <path d="M 64.57119750976562 40.65553283691406 C 99.13075256347656 18.256309509277344 161.4996795654297 135.31263732910156 172.84228515625 56.91570281982422" stroke-width="3.0" fill="none" stroke="rgb(0, 0, 0)" stroke-opacity="1.0" stroke-linecap="round" stroke-linejoin="round"/>
    <path d="M 49.5576171875 102.50872802734375 C 81.98979949951172 123.16231536865234 80.79724884033203 113.84629821777344 103.97465515136719 117.83135986328125" stroke-width="3.0" fill="none" stroke="rgb(0, 0, 0)" stroke-opacity="1.0" stroke-linecap="round" stroke-linejoin="round"/>
    <path d="M 22.524478912353516 137.6031951904297 C 13.400957107543945 81.6758041381836 1.4929932355880737 87.16985321044922 53.27969741821289 52.37942886352539" stroke-width="3.0" fill="none" stroke="rgb(0, 0, 0)" stroke-opacity="1.0" stroke-linecap="round" stroke-linejoin="round"/>
    <path d="M 173.4466094970703 87.94441986083984 C 190.79595947265625 20.415578842163086 203.66395568847656 30.331981658935547 170.1693572998047 92.06197357177734" stroke-width="3.0" fill="none" stroke="rgb(0, 0, 0)" stroke-opacity="1.0" stroke-linecap="round" stroke-linejoin="round"/>
    <path d="M 103.6845474243164 117.80772399902344 C 107.11096954345703 180.32162475585938 78.11433410644531 199.1163787841797 110.44549560546875 195.4958038330078" stroke-width="3.0" fill="none" stroke="rgb(0, 0, 0)" stroke-opacity="1.0" stroke-linecap="round" stroke-linejoin="round"/>
    <path d="M 170.48245239257812 67.89286041259766 C 184.815673828125 9.592022895812988 214.06991577148438 78.68839263916016 204.08326721191406 49.040313720703125" stroke-width="3.0" fill="none" stroke="rgb(0, 0, 0)" stroke-opacity="1.0" stroke-linecap="round" stroke-linejoin="round"/>
    <path d="M 191.6902313232422 64.64974212646484 C 150.85568237304688 43.81053924560547 259.33349609375 50.81719207763672 193.03421020507812 60.01803207397461" stroke-width="3.0" fill="none" stroke="rgb(0, 0, 0)" stroke-opacity="1.0" stroke-linecap="round" stroke-linejoin="round"/>
  </g>
</svg>
