<?xml version="1.0" ?>
<svg xmlns="http://www.w3.org/2000/svg" version="1.1" width="224" height="224">
  <defs/>
  <g>
    <path d="M 155.34463500976562 99.1809310913086 C 120.03166961669922 86.14920806884766 179.57766723632812 121.97809600830078 124.42343139648438 73.74907684326172" stroke-width="3.0" fill="none" stroke="rgb(0, 0, 0)" stroke-opacity="1.0" stroke-linecap="round" stroke-linejoin="round"/>
    <path d="M 108.11636352539062 89.62144470214844 C 110.30461120605469 104.65840911865234 101.923583984375 102.1263656616211 108.45835876464844 113.01519775390625" stroke-width="3.0" fill="none" stroke="rgb(0, 0, 0)" stroke-opacity="1.0" stroke-linecap="round" stroke-linejoin="round"/>
    <path d="M 143.1783447265625 103.21234893798828 C 140.3251495361328 60.73979568481445 123.21543884277344 126.26382446289062 177.4086151123047 89.9444351196289" stroke-width="3.0" fill="none" stroke="rgb(0, 0, 0)" stroke-opacity="1.0" stroke-linecap="round" stroke-linejoin="round"/>
    <path d="M 62.57861328125 43.03639221191406 C 62.39630126953125 40.8748779296875 55.995723724365234 46.92233657836914 62.31346130371094 42.859561920166016" stroke-width="3.0" fill="none" stroke="rgb(0, 0, 0)" stroke-opacity="1.0" stroke-linecap="round" stroke-linejoin="round"/>
    <path d="M 127.48761749267578 77.70394134521484 C 114.1159439086914 48.99909591674805 109.24726104736328 64.3233642578125 98.26368713378906 47.832279205322266" stroke-width="3.0" fill="none" stroke="rgb(0, 0, 0)" stroke-opacity="1.0" stroke-linecap="round" stroke-linejoin="round"/>
    <path d="M 75.57549285888672 111.63160705566406 C 46.36634063720703 80.58229064941406 62.6019401550293 85.94473266601562 48.0460205078125 63.748043060302734" stroke-width="3.0" fill="none" stroke="rgb(0, 0, 0)" stroke-opacity="1.0" stroke-linecap="round" stroke-linejoin="round"/>
    <path d="M 181.54238891601562 39.52596664428711 C 182.23915100097656 44.15456008911133 192.53167724609375 50.316192626953125 172.85910034179688 76.04766082763672" stroke-width="3.0" fill="none" stroke="rgb(0, 0, 0)" stroke-opacity="1.0" stroke-linecap="round" stroke-linejoin="round"/>
    <path d="M 101.98358917236328 195.00656127929688 C 124.64167022705078 80.08211517333984 121.200927734375 122.21385955810547 131.96493530273438 100.46548461914062" stroke-width="3.0" fill="none" stroke="rgb(0, 0, 0)" stroke-opacity="1.0" stroke-linecap="round" stroke-linejoin="round"/>
    <path d="M 45.33282470703125 84.92252349853516 C 32.76614761352539 198.5564727783203 19.95586585998535 118.40218353271484 41.543582916259766 199.38253784179688" stroke-width="3.0" fill="none" stroke="rgb(0, 0, 0)" stroke-opacity="1.0" stroke-linecap="round" stroke-linejoin="round"/>
    <path d="M 61.875244140625 43.90890121459961 C 91.24055480957031 15.732757568359375 140.30859375 101.81531524658203 163.4805450439453 83.57164001464844" stroke-width="3.0" fill="none" stroke="rgb(0, 0, 0)" stroke-opacity="1.0" stroke-linecap="round" stroke-linejoin="round"/>
    <path d="M 47.81124496459961 88.38034057617188 C 77.55463409423828 126.03974914550781 78.07657623291016 115.83583068847656 105.20313262939453 119.34894561767578" stroke-width="3.0" fill="none" stroke="rgb(0, 0, 0)" stroke-opacity="1.0" stroke-linecap="round" stroke-linejoin="round"/>
    <path d="M 30.76890754699707 121.39738464355469 C 16.841087341308594 64.70603942871094 31.717586517333984 67.63282012939453 61.376617431640625 42.20058822631836" stroke-width="3.0" fill="none" stroke="rgb(0, 0, 0)" stroke-opacity="1.0" stroke-linecap="round" stroke-linejoin="round"/>
    <path d="M 165.9365997314453 82.9212875366211 C 194.34738159179688 45.366676330566406 196.02008056640625 61.06462478637695 179.18954467773438 86.65306854248047" stroke-width="3.0" fill="none" stroke="rgb(0, 0, 0)" stroke-opacity="1.0" stroke-linecap="round" stroke-linejoin="round"/>
    <path d="M 105.28826904296875 117.64066314697266 C 108.25798797607422 182.9467315673828 73.85126495361328 203.53738403320312 111.80148315429688 188.96852111816406" stroke-width="3.0" fill="none" stroke="rgb(0, 0, 0)" stroke-opacity="1.0" stroke-linecap="round" stroke-linejoin="round"/>
    <path d="M 172.61068725585938 84.99856567382812 C 173.16119384765625 -3.2005414962768555 206.69552612304688 72.92988586425781 198.69606018066406 47.99821090698242" stroke-width="3.0" fill="none" stroke="rgb(0, 0, 0)" stroke-opacity="1.0" stroke-linecap="round" stroke-linejoin="round"/>
    <path d="M 196.62130737304688 62.285926818847656 C 149.20883178710938 38.8833122253418 232.9075927734375 42.84950637817383 191.7655487060547 53.67675018310547" stroke-width="3.0" fill="none" stroke="rgb(0, 0, 0)" stroke-opacity="1.0" stroke-linecap="round" stroke-linejoin="round"/>
  </g>
</svg>
