<?xml version="1.0" ?>
<svg xmlns="http://www.w3.org/2000/svg" version="1.1" width="224" height="224">
  <defs/>
  <g>
    <path d="M 131.16754150390625 107.44439697265625 C 129.78518676757812 97.0229721069336 150.0861358642578 128.9603271484375 119.6243896484375 65.28714752197266" stroke-width="3.0" fill="none" stroke="rgb(0, 0, 0)" stroke-opacity="1.0" stroke-linecap="round" stroke-linejoin="round"/>
    <path d="M 107.7646713256836 92.30587005615234 C 112.46088409423828 100.7435073852539 101.57400512695312 99.2938003540039 107.17578887939453 114.12533569335938" stroke-width="3.0" fill="none" stroke="rgb(0, 0, 0)" stroke-opacity="1.0" stroke-linecap="round" stroke-linejoin="round"/>
    <path d="M 127.86065673828125 109.67770385742188 C 143.0297393798828 93.94901275634766 154.88104248046875 127.2779312133789 198.2035369873047 60.3260498046875" stroke-width="3.0" fill="none" stroke="rgb(0, 0, 0)" stroke-opacity="1.0" stroke-linecap="round" stroke-linejoin="round"/>
    <path d="M 68.29563903808594 37.57473373413086 C 64.12169647216797 37.9166374206543 55.423370361328125 48.28305435180664 41.53789138793945 60.209835052490234" stroke-width="3.0" fill="none" stroke="rgb(0, 0, 0)" stroke-opacity="1.0" stroke-linecap="round" stroke-linejoin="round"/>
    <path d="M 143.19998168945312 80.2193603515625 C 103.41795349121094 39.37175369262695 114.09825134277344 65.16288757324219 96.35061645507812 44.59727096557617" stroke-width="3.0" fill="none" stroke="rgb(0, 0, 0)" stroke-opacity="1.0" stroke-linecap="round" stroke-linejoin="round"/>
    <path d="M 66.93692779541016 110.7152328491211 C 43.12901306152344 74.7867660522461 63.205406188964844 96.64769744873047 46.05907440185547 70.95863342285156" stroke-width="3.0" fill="none" stroke="rgb(0, 0, 0)" stroke-opacity="1.0" stroke-linecap="round" stroke-linejoin="round"/>
    <path d="M 185.2317657470703 61.67284393310547 C 173.55860900878906 29.877857208251953 193.5915985107422 47.094261169433594 189.2495880126953 80.330322265625" stroke-width="3.0" fill="none" stroke="rgb(0, 0, 0)" stroke-opacity="1.0" stroke-linecap="round" stroke-linejoin="round"/>
    <path d="M 105.20573425292969 195.94422912597656 C 109.81446838378906 115.47984313964844 116.69965362548828 148.22901916503906 126.46824645996094 99.70132446289062" stroke-width="3.0" fill="none" stroke="rgb(0, 0, 0)" stroke-opacity="1.0" stroke-linecap="round" stroke-linejoin="round"/>
    <path d="M 48.177730560302734 101.00009155273438 C 11.032066345214844 184.95428466796875 32.643367767333984 140.42796325683594 37.10752868652344 198.05210876464844" stroke-width="3.0" fill="none" stroke="rgb(0, 0, 0)" stroke-opacity="1.0" stroke-linecap="round" stroke-linejoin="round"/>
    <path d="M 66.69279479980469 38.65125274658203 C 101.84555053710938 12.667265892028809 150.10476684570312 139.87754821777344 175.5026397705078 52.63311004638672" stroke-width="3.0" fill="none" stroke="rgb(0, 0, 0)" stroke-opacity="1.0" stroke-linecap="round" stroke-linejoin="round"/>
    <path d="M 49.43450927734375 97.71822357177734 C 84.71570587158203 125.37274169921875 78.35946655273438 113.94629669189453 102.35707092285156 118.22091674804688" stroke-width="3.0" fill="none" stroke="rgb(0, 0, 0)" stroke-opacity="1.0" stroke-linecap="round" stroke-linejoin="round"/>
    <path d="M 20.880556106567383 155.01834106445312 C 37.63753890991211 114.24996185302734 -17.425203323364258 90.03590393066406 49.199527740478516 55.32206344604492" stroke-width="3.0" fill="none" stroke="rgb(0, 0, 0)" stroke-opacity="1.0" stroke-linecap="round" stroke-linejoin="round"/>
    <path d="M 175.47840881347656 88.3930892944336 C 188.47213745117188 18.756139755249023 206.22531127929688 28.495189666748047 172.10816955566406 93.94474029541016" stroke-width="3.0" fill="none" stroke="rgb(0, 0, 0)" stroke-opacity="1.0" stroke-linecap="round" stroke-linejoin="round"/>
    <path d="M 105.37328338623047 118.52639770507812 C 106.97498321533203 188.44358825683594 80.70008850097656 204.3915557861328 109.05758666992188 189.85858154296875" stroke-width="3.0" fill="none" stroke="rgb(0, 0, 0)" stroke-opacity="1.0" stroke-linecap="round" stroke-linejoin="round"/>
    <path d="M 168.62054443359375 71.75273895263672 C 177.4470672607422 1.6692204475402832 212.4893035888672 75.13223266601562 205.6952667236328 48.503273010253906" stroke-width="3.0" fill="none" stroke="rgb(0, 0, 0)" stroke-opacity="1.0" stroke-linecap="round" stroke-linejoin="round"/>
    <path d="M 195.69992065429688 61.88453674316406 C 159.07421875 39.971160888671875 260.5018005371094 50.95650863647461 197.79705810546875 61.32880783081055" stroke-width="3.0" fill="none" stroke="rgb(0, 0, 0)" stroke-opacity="1.0" stroke-linecap="round" stroke-linejoin="round"/>
  </g>
</svg>
