<?xml version="1.0" ?>
<svg xmlns="http://www.w3.org/2000/svg" version="1.1" width="224" height="224">
  <defs/>
  <g>
    <path d="M 139.05276489257812 90.4986343383789 C 125.95237731933594 70.46150207519531 128.3656768798828 67.19186401367188 133.8574981689453 78.2137680053711" stroke-width="3.0" fill="none" stroke="rgb(0, 0, 0)" stroke-opacity="1.0" stroke-linecap="round" stroke-linejoin="round"/>
    <path d="M 98.01640319824219 88.77424621582031 C 95.16522216796875 97.86978149414062 97.51142120361328 109.32223510742188 100.83586883544922 110.65017700195312" stroke-width="3.0" fill="none" stroke="rgb(0, 0, 0)" stroke-opacity="1.0" stroke-linecap="round" stroke-linejoin="round"/>
    <path d="M 142.4625701904297 109.25770568847656 C 150.8260498046875 100.56185150146484 131.1220703125 80.256591796875 150.38417053222656 105.96255493164062" stroke-width="3.0" fill="none" stroke="rgb(0, 0, 0)" stroke-opacity="1.0" stroke-linecap="round" stroke-linejoin="round"/>
    <path d="M 52.46542739868164 51.38612747192383 C 57.5074577331543 73.54447937011719 41.98622131347656 101.60042572021484 48.7751350402832 85.74293518066406" stroke-width="3.0" fill="none" stroke="rgb(0, 0, 0)" stroke-opacity="1.0" stroke-linecap="round" stroke-linejoin="round"/>
    <path d="M 115.46900939941406 53.85601806640625 C 119.6796875 58.10219955444336 118.3721923828125 59.1994514465332 117.74886322021484 56.263938903808594" stroke-width="3.0" fill="none" stroke="rgb(0, 0, 0)" stroke-opacity="1.0" stroke-linecap="round" stroke-linejoin="round"/>
    <path d="M 60.11235427856445 97.43125915527344 C 54.923744201660156 93.65618896484375 53.72099685668945 82.13642883300781 55.0473747253418 81.45246124267578" stroke-width="3.0" fill="none" stroke="rgb(0, 0, 0)" stroke-opacity="1.0" stroke-linecap="round" stroke-linejoin="round"/>
    <path d="M 180.8142547607422 42.224674224853516 C 180.1386260986328 80.73314666748047 177.7675018310547 74.85873413085938 162.13595581054688 80.974853515625" stroke-width="3.0" fill="none" stroke="rgb(0, 0, 0)" stroke-opacity="1.0" stroke-linecap="round" stroke-linejoin="round"/>
    <path d="M 117.40338134765625 145.60147094726562 C 126.40721130371094 108.61003112792969 110.0261001586914 139.8683624267578 124.34255981445312 116.55960845947266" stroke-width="3.0" fill="none" stroke="rgb(0, 0, 0)" stroke-opacity="1.0" stroke-linecap="round" stroke-linejoin="round"/>
    <path d="M 36.30482864379883 122.82937622070312 C 23.053186416625977 171.32115173339844 25.298261642456055 142.58570861816406 43.34627151489258 199.34393310546875" stroke-width="3.0" fill="none" stroke="rgb(0, 0, 0)" stroke-opacity="1.0" stroke-linecap="round" stroke-linejoin="round"/>
    <path d="M 69.31665802001953 37.15453338623047 C 120.37860107421875 39.9072151184082 123.7966079711914 65.47403717041016 138.5663604736328 81.5847396850586" stroke-width="3.0" fill="none" stroke="rgb(0, 0, 0)" stroke-opacity="1.0" stroke-linecap="round" stroke-linejoin="round"/>
    <path d="M 55.190269470214844 88.99735260009766 C 85.64006805419922 125.13739776611328 81.08490753173828 118.12260437011719 104.56732177734375 122.093505859375" stroke-width="3.0" fill="none" stroke="rgb(0, 0, 0)" stroke-opacity="1.0" stroke-linecap="round" stroke-linejoin="round"/>
    <path d="M 32.62060546875 92.56123352050781 C 23.60671615600586 80.55036163330078 15.576545715332031 81.1063461303711 17.428817749023438 78.09339904785156" stroke-width="3.0" fill="none" stroke="rgb(0, 0, 0)" stroke-opacity="1.0" stroke-linecap="round" stroke-linejoin="round"/>
    <path d="M 142.5272979736328 82.974365234375 C 199.40277099609375 74.94120025634766 156.08615112304688 75.90111541748047 171.57069396972656 99.77783203125" stroke-width="3.0" fill="none" stroke="rgb(0, 0, 0)" stroke-opacity="1.0" stroke-linecap="round" stroke-linejoin="round"/>
    <path d="M 106.44438171386719 115.17233276367188 C 122.16575622558594 149.0794219970703 90.86215209960938 203.6137237548828 113.19183349609375 190.6964111328125" stroke-width="3.0" fill="none" stroke="rgb(0, 0, 0)" stroke-opacity="1.0" stroke-linecap="round" stroke-linejoin="round"/>
    <path d="M 176.04653930664062 58.77071762084961 C 190.75099182128906 12.918496131896973 182.86190795898438 63.42228698730469 207.98483276367188 49.73225784301758" stroke-width="3.0" fill="none" stroke="rgb(0, 0, 0)" stroke-opacity="1.0" stroke-linecap="round" stroke-linejoin="round"/>
    <path d="M 198.31434631347656 63.812007904052734 C 171.07810974121094 46.124603271484375 205.87376403808594 37.47134017944336 198.4222412109375 58.2099609375" stroke-width="3.0" fill="none" stroke="rgb(0, 0, 0)" stroke-opacity="1.0" stroke-linecap="round" stroke-linejoin="round"/>
  </g>
</svg>
