<?xml version="1.0" ?>
<svg xmlns="http://www.w3.org/2000/svg" version="1.1" width="224" height="224">
  <defs/>
  <g>
    <path d="M 141.74481201171875 99.80099487304688 C 122.2511978149414 79.78042602539062 131.58287048339844 74.0472412109375 133.48056030273438 90.42363739013672" stroke-width="3.0" fill="none" stroke="rgb(0, 0, 0)" stroke-opacity="1.0" stroke-linecap="round" stroke-linejoin="round"/>
    <path d="M 97.83802032470703 93.48637390136719 C 97.11622619628906 93.04048156738281 100.63159942626953 104.34626770019531 106.46771240234375 106.77254486083984" stroke-width="3.0" fill="none" stroke="rgb(0, 0, 0)" stroke-opacity="1.0" stroke-linecap="round" stroke-linejoin="round"/>
    <path d="M 127.14804077148438 107.29843139648438 C 145.93312072753906 93.00736999511719 123.35249328613281 87.73321533203125 152.16273498535156 100.63514709472656" stroke-width="3.0" fill="none" stroke="rgb(0, 0, 0)" stroke-opacity="1.0" stroke-linecap="round" stroke-linejoin="round"/>
    <path d="M 63.6977424621582 43.74814224243164 C 52.88321304321289 54.47241973876953 25.167987823486328 73.24385833740234 38.59294509887695 62.042720794677734" stroke-width="3.0" fill="none" stroke="rgb(0, 0, 0)" stroke-opacity="1.0" stroke-linecap="round" stroke-linejoin="round"/>
    <path d="M 109.90760803222656 56.292076110839844 C 119.01093292236328 58.62981414794922 112.46052551269531 67.6514892578125 106.61842346191406 52.53050994873047" stroke-width="3.0" fill="none" stroke="rgb(0, 0, 0)" stroke-opacity="1.0" stroke-linecap="round" stroke-linejoin="round"/>
    <path d="M 65.90160369873047 108.88014221191406 C 56.214969635009766 90.00183868408203 47.16050720214844 86.73763275146484 46.86484909057617 77.18933868408203" stroke-width="3.0" fill="none" stroke="rgb(0, 0, 0)" stroke-opacity="1.0" stroke-linecap="round" stroke-linejoin="round"/>
    <path d="M 179.8829345703125 44.83464050292969 C 171.48974609375 70.35063934326172 187.38412475585938 71.52427673339844 166.32701110839844 80.86548614501953" stroke-width="3.0" fill="none" stroke="rgb(0, 0, 0)" stroke-opacity="1.0" stroke-linecap="round" stroke-linejoin="round"/>
    <path d="M 112.77271270751953 146.54891967773438 C 122.1708984375 91.80303192138672 118.66508483886719 125.89950561523438 127.78355407714844 102.6202621459961" stroke-width="3.0" fill="none" stroke="rgb(0, 0, 0)" stroke-opacity="1.0" stroke-linecap="round" stroke-linejoin="round"/>
    <path d="M 47.028656005859375 93.72913360595703 C 18.498878479003906 175.01019287109375 12.859301567077637 119.61384582519531 41.4058837890625 197.80340576171875" stroke-width="3.0" fill="none" stroke="rgb(0, 0, 0)" stroke-opacity="1.0" stroke-linecap="round" stroke-linejoin="round"/>
    <path d="M 61.04855728149414 45.918731689453125 C 90.56285858154297 27.126956939697266 126.17430114746094 74.93326568603516 150.61631774902344 81.81533813476562" stroke-width="3.0" fill="none" stroke="rgb(0, 0, 0)" stroke-opacity="1.0" stroke-linecap="round" stroke-linejoin="round"/>
    <path d="M 49.51622772216797 98.31636810302734 C 89.03087615966797 125.80862426757812 79.80452728271484 116.43789672851562 102.07866668701172 119.60431671142578" stroke-width="3.0" fill="none" stroke="rgb(0, 0, 0)" stroke-opacity="1.0" stroke-linecap="round" stroke-linejoin="round"/>
    <path d="M 40.573890686035156 77.76408386230469 C 32.870113372802734 68.3663558959961 26.409774780273438 65.30876159667969 21.325151443481445 64.81359100341797" stroke-width="3.0" fill="none" stroke="rgb(0, 0, 0)" stroke-opacity="1.0" stroke-linecap="round" stroke-linejoin="round"/>
    <path d="M 151.9824981689453 82.5099105834961 C 211.1940460205078 77.566650390625 164.53611755371094 74.585693359375 174.96542358398438 96.21928405761719" stroke-width="3.0" fill="none" stroke="rgb(0, 0, 0)" stroke-opacity="1.0" stroke-linecap="round" stroke-linejoin="round"/>
    <path d="M 105.00043487548828 110.18273162841797 C 115.81485748291016 160.7004852294922 81.18165588378906 200.2292022705078 110.15612030029297 194.5189208984375" stroke-width="3.0" fill="none" stroke="rgb(0, 0, 0)" stroke-opacity="1.0" stroke-linecap="round" stroke-linejoin="round"/>
    <path d="M 175.7578887939453 63.09328842163086 C 189.1553497314453 11.653053283691406 181.23155212402344 68.28630065917969 208.80935668945312 50.426509857177734" stroke-width="3.0" fill="none" stroke="rgb(0, 0, 0)" stroke-opacity="1.0" stroke-linecap="round" stroke-linejoin="round"/>
    <path d="M 193.0367889404297 66.52906799316406 C 160.8256072998047 42.051055908203125 209.31480407714844 37.463279724121094 198.41314697265625 60.482826232910156" stroke-width="3.0" fill="none" stroke="rgb(0, 0, 0)" stroke-opacity="1.0" stroke-linecap="round" stroke-linejoin="round"/>
  </g>
</svg>
