<?xml version="1.0" ?>
<svg xmlns="http://www.w3.org/2000/svg" version="1.1" width="224" height="224">
  <defs/>
  <g>
    <path d="M 146.72341918945312 105.03822326660156 C 117.34835815429688 80.37372589111328 173.61044311523438 139.21897888183594 124.81718444824219 72.64442443847656" stroke-width="3.0" fill="none" stroke="rgb(0, 0, 0)" stroke-opacity="1.0" stroke-linecap="round" stroke-linejoin="round"/>
    <path d="M 104.67251586914062 94.1572036743164 C 110.2883529663086 106.04266357421875 100.85807037353516 103.68119049072266 106.3673095703125 114.89898681640625" stroke-width="3.0" fill="none" stroke="rgb(0, 0, 0)" stroke-opacity="1.0" stroke-linecap="round" stroke-linejoin="round"/>
    <path d="M 138.50918579101562 106.97712707519531 C 134.63082885742188 64.8196792602539 136.36570739746094 138.3632354736328 184.17791748046875 81.78697204589844" stroke-width="3.0" fill="none" stroke="rgb(0, 0, 0)" stroke-opacity="1.0" stroke-linecap="round" stroke-linejoin="round"/>
    <path d="M 63.081382751464844 41.5372428894043 C 64.33497619628906 40.33413314819336 57.4676628112793 45.87327575683594 62.507293701171875 42.191707611083984" stroke-width="3.0" fill="none" stroke="rgb(0, 0, 0)" stroke-opacity="1.0" stroke-linecap="round" stroke-linejoin="round"/>
    <path d="M 131.60890197753906 82.10307312011719 C 104.1229248046875 39.00016403198242 113.121826171875 64.97745513916016 96.96134185791016 44.62383270263672" stroke-width="3.0" fill="none" stroke="rgb(0, 0, 0)" stroke-opacity="1.0" stroke-linecap="round" stroke-linejoin="round"/>
    <path d="M 68.44847106933594 111.79373931884766 C 33.26870346069336 74.85372161865234 57.3764533996582 89.6955795288086 39.94609832763672 70.7195816040039" stroke-width="3.0" fill="none" stroke="rgb(0, 0, 0)" stroke-opacity="1.0" stroke-linecap="round" stroke-linejoin="round"/>
    <path d="M 184.82492065429688 46.16334533691406 C 188.28712463378906 41.950279235839844 194.31056213378906 48.13629150390625 187.79180908203125 78.856689453125" stroke-width="3.0" fill="none" stroke="rgb(0, 0, 0)" stroke-opacity="1.0" stroke-linecap="round" stroke-linejoin="round"/>
    <path d="M 101.57315063476562 194.8893585205078 C 125.09012603759766 82.58302307128906 121.35159301757812 124.06744384765625 132.79266357421875 103.49563598632812" stroke-width="3.0" fill="none" stroke="rgb(0, 0, 0)" stroke-opacity="1.0" stroke-linecap="round" stroke-linejoin="round"/>
    <path d="M 46.50252914428711 100.0843505859375 C 23.859100341796875 180.3761749267578 18.199644088745117 125.53406524658203 38.60176467895508 196.2832794189453" stroke-width="3.0" fill="none" stroke="rgb(0, 0, 0)" stroke-opacity="1.0" stroke-linecap="round" stroke-linejoin="round"/>
    <path d="M 64.31129455566406 40.71474075317383 C 99.79882049560547 13.28069019317627 142.31936645507812 111.94833374023438 170.1187744140625 79.3755111694336" stroke-width="3.0" fill="none" stroke="rgb(0, 0, 0)" stroke-opacity="1.0" stroke-linecap="round" stroke-linejoin="round"/>
    <path d="M 50.612152099609375 97.53060913085938 C 76.43846893310547 122.7306900024414 85.28347778320312 114.30342864990234 105.18558502197266 119.1264419555664" stroke-width="3.0" fill="none" stroke="rgb(0, 0, 0)" stroke-opacity="1.0" stroke-linecap="round" stroke-linejoin="round"/>
    <path d="M 21.75654411315918 130.50572204589844 C 9.314393997192383 68.5336685180664 18.250885009765625 82.11804962158203 59.0101432800293 43.78897476196289" stroke-width="3.0" fill="none" stroke="rgb(0, 0, 0)" stroke-opacity="1.0" stroke-linecap="round" stroke-linejoin="round"/>
    <path d="M 166.3761749267578 81.97294616699219 C 200.82821655273438 37.290870666503906 203.38552856445312 49.905372619628906 173.74440002441406 91.81641387939453" stroke-width="3.0" fill="none" stroke="rgb(0, 0, 0)" stroke-opacity="1.0" stroke-linecap="round" stroke-linejoin="round"/>
    <path d="M 105.60812377929688 120.51141357421875 C 108.54959106445312 181.0665740966797 76.12908935546875 199.34786987304688 110.87384796142578 191.07833862304688" stroke-width="3.0" fill="none" stroke="rgb(0, 0, 0)" stroke-opacity="1.0" stroke-linecap="round" stroke-linejoin="round"/>
    <path d="M 172.3653106689453 79.63863372802734 C 173.65565490722656 -1.074555516242981 213.53411865234375 73.07482147216797 211.59274291992188 46.30228805541992" stroke-width="3.0" fill="none" stroke="rgb(0, 0, 0)" stroke-opacity="1.0" stroke-linecap="round" stroke-linejoin="round"/>
    <path d="M 199.3187255859375 60.78999710083008 C 152.86868286132812 39.796627044677734 259.9189758300781 46.744144439697266 202.04541015625 58.205806732177734" stroke-width="3.0" fill="none" stroke="rgb(0, 0, 0)" stroke-opacity="1.0" stroke-linecap="round" stroke-linejoin="round"/>
  </g>
</svg>
