<?xml version="1.0" ?>
<svg xmlns="http://www.w3.org/2000/svg" version="1.1" width="224" height="224">
  <defs/>
  <g>
    <path d="M 132.2966766357422 92.9383773803711 C 124.3833999633789 79.99498748779297 127.91163635253906 79.80609893798828 130.6204833984375 78.1176986694336" stroke-width="3.0" fill="none" stroke="rgb(0, 0, 0)" stroke-opacity="1.0" stroke-linecap="round" stroke-linejoin="round"/>
    <path d="M 94.02922058105469 100.02293395996094 C 94.12324523925781 101.35030364990234 86.17294311523438 105.49234771728516 99.29541778564453 110.5427474975586" stroke-width="3.0" fill="none" stroke="rgb(0, 0, 0)" stroke-opacity="1.0" stroke-linecap="round" stroke-linejoin="round"/>
    <path d="M 148.14971923828125 106.3480453491211 C 155.3433837890625 84.88963317871094 140.60586547851562 68.58029174804688 153.7277374267578 103.10821533203125" stroke-width="3.0" fill="none" stroke="rgb(0, 0, 0)" stroke-opacity="1.0" stroke-linecap="round" stroke-linejoin="round"/>
    <path d="M 51.75181198120117 50.654598236083984 C 62.657466888427734 85.11640930175781 43.348453521728516 93.76297760009766 52.02043914794922 92.89186096191406" stroke-width="3.0" fill="none" stroke="rgb(0, 0, 0)" stroke-opacity="1.0" stroke-linecap="round" stroke-linejoin="round"/>
    <path d="M 114.77721405029297 53.4153938293457 C 117.10755920410156 61.808876037597656 117.65068054199219 57.56294631958008 116.1275863647461 55.66213607788086" stroke-width="3.0" fill="none" stroke="rgb(0, 0, 0)" stroke-opacity="1.0" stroke-linecap="round" stroke-linejoin="round"/>
    <path d="M 53.95333480834961 85.25145721435547 C 53.11879348754883 102.38014221191406 52.896690368652344 91.44363403320312 52.63551712036133 90.75926208496094" stroke-width="3.0" fill="none" stroke="rgb(0, 0, 0)" stroke-opacity="1.0" stroke-linecap="round" stroke-linejoin="round"/>
    <path d="M 179.62355041503906 43.943359375 C 176.27459716796875 77.20468139648438 161.87550354003906 71.6866455078125 163.948974609375 76.0119857788086" stroke-width="3.0" fill="none" stroke="rgb(0, 0, 0)" stroke-opacity="1.0" stroke-linecap="round" stroke-linejoin="round"/>
    <path d="M 108.31394958496094 131.86581420898438 C 114.36573028564453 111.89020538330078 97.54651641845703 127.21844482421875 115.21087646484375 115.32833099365234" stroke-width="3.0" fill="none" stroke="rgb(0, 0, 0)" stroke-opacity="1.0" stroke-linecap="round" stroke-linejoin="round"/>
    <path d="M 36.466339111328125 132.98828125 C 26.534164428710938 174.05516052246094 27.982080459594727 148.8486328125 39.53751754760742 198.876220703125" stroke-width="3.0" fill="none" stroke="rgb(0, 0, 0)" stroke-opacity="1.0" stroke-linecap="round" stroke-linejoin="round"/>
    <path d="M 86.13064575195312 40.088924407958984 C 119.43693542480469 49.21841049194336 123.35343933105469 60.954246520996094 129.24957275390625 84.85767364501953" stroke-width="3.0" fill="none" stroke="rgb(0, 0, 0)" stroke-opacity="1.0" stroke-linecap="round" stroke-linejoin="round"/>
    <path d="M 59.17240905761719 101.50027465820312 C 77.44463348388672 115.35236358642578 76.38119506835938 110.12397003173828 102.36111450195312 116.9797134399414" stroke-width="3.0" fill="none" stroke="rgb(0, 0, 0)" stroke-opacity="1.0" stroke-linecap="round" stroke-linejoin="round"/>
    <path d="M 24.400156021118164 92.23614501953125 C 18.762168884277344 76.54703521728516 13.179916381835938 83.92620086669922 21.302448272705078 75.61223602294922" stroke-width="3.0" fill="none" stroke="rgb(0, 0, 0)" stroke-opacity="1.0" stroke-linecap="round" stroke-linejoin="round"/>
    <path d="M 153.228759765625 82.30094909667969 C 181.2423095703125 66.70619201660156 152.4903106689453 79.92745208740234 172.5921173095703 99.82525634765625" stroke-width="3.0" fill="none" stroke="rgb(0, 0, 0)" stroke-opacity="1.0" stroke-linecap="round" stroke-linejoin="round"/>
    <path d="M 103.9993667602539 116.83003997802734 C 119.82371520996094 152.96160888671875 88.6214370727539 180.37271118164062 109.45760345458984 193.5613555908203" stroke-width="3.0" fill="none" stroke="rgb(0, 0, 0)" stroke-opacity="1.0" stroke-linecap="round" stroke-linejoin="round"/>
    <path d="M 176.64144897460938 53.32366943359375 C 195.7311248779297 17.94207763671875 187.86395263671875 50.920860290527344 199.79171752929688 41.84572219848633" stroke-width="3.0" fill="none" stroke="rgb(0, 0, 0)" stroke-opacity="1.0" stroke-linecap="round" stroke-linejoin="round"/>
    <path d="M 197.86399841308594 60.93355941772461 C 172.3844757080078 46.99385452270508 200.7829132080078 42.74401092529297 205.9228057861328 50.03750991821289" stroke-width="3.0" fill="none" stroke="rgb(0, 0, 0)" stroke-opacity="1.0" stroke-linecap="round" stroke-linejoin="round"/>
  </g>
</svg>
