<?xml version="1.0" ?>
<svg xmlns="http://www.w3.org/2000/svg" version="1.1" width="224" height="224">
  <defs/>
  <g>
    <path d="M 137.9786834716797 102.5124740600586 C 121.57962799072266 78.35808563232422 132.74224853515625 70.414306640625 133.1703338623047 89.78874969482422" stroke-width="3.0" fill="none" stroke="rgb(0, 0, 0)" stroke-opacity="1.0" stroke-linecap="round" stroke-linejoin="round"/>
    <path d="M 95.2574691772461 92.87464141845703 C 94.70477294921875 95.92867279052734 99.16650390625 105.05317687988281 107.40045166015625 108.40155792236328" stroke-width="3.0" fill="none" stroke="rgb(0, 0, 0)" stroke-opacity="1.0" stroke-linecap="round" stroke-linejoin="round"/>
    <path d="M 129.69888305664062 111.73950958251953 C 139.98263549804688 100.44134521484375 121.69108581542969 94.6196517944336 150.7870330810547 101.36042785644531" stroke-width="3.0" fill="none" stroke="rgb(0, 0, 0)" stroke-opacity="1.0" stroke-linecap="round" stroke-linejoin="round"/>
    <path d="M 62.857791900634766 41.88141632080078 C 53.34793472290039 54.45677185058594 23.89324188232422 71.5789794921875 36.296409606933594 62.08952713012695" stroke-width="3.0" fill="none" stroke="rgb(0, 0, 0)" stroke-opacity="1.0" stroke-linecap="round" stroke-linejoin="round"/>
    <path d="M 110.16828155517578 59.18942642211914 C 119.51892852783203 58.023807525634766 114.02391052246094 64.53112030029297 106.89029693603516 55.34812927246094" stroke-width="3.0" fill="none" stroke="rgb(0, 0, 0)" stroke-opacity="1.0" stroke-linecap="round" stroke-linejoin="round"/>
    <path d="M 62.87403106689453 109.95318603515625 C 56.755496978759766 90.08329772949219 45.645835876464844 84.59020233154297 47.24025344848633 76.68475341796875" stroke-width="3.0" fill="none" stroke="rgb(0, 0, 0)" stroke-opacity="1.0" stroke-linecap="round" stroke-linejoin="round"/>
    <path d="M 180.33892822265625 41.69721984863281 C 169.5915985107422 71.21112060546875 188.68016052246094 71.57120513916016 167.7782745361328 82.1956558227539" stroke-width="3.0" fill="none" stroke="rgb(0, 0, 0)" stroke-opacity="1.0" stroke-linecap="round" stroke-linejoin="round"/>
    <path d="M 115.8941879272461 146.63180541992188 C 126.28242492675781 93.41641235351562 116.31111145019531 126.95008850097656 128.29139709472656 107.18870544433594" stroke-width="3.0" fill="none" stroke="rgb(0, 0, 0)" stroke-opacity="1.0" stroke-linecap="round" stroke-linejoin="round"/>
    <path d="M 46.76863479614258 93.92578887939453 C 20.565284729003906 181.46730041503906 9.828144073486328 124.79086303710938 40.54165267944336 199.58775329589844" stroke-width="3.0" fill="none" stroke="rgb(0, 0, 0)" stroke-opacity="1.0" stroke-linecap="round" stroke-linejoin="round"/>
    <path d="M 64.85735321044922 41.869346618652344 C 92.28284454345703 22.752338409423828 121.02323150634766 77.56201934814453 148.15798950195312 83.96223449707031" stroke-width="3.0" fill="none" stroke="rgb(0, 0, 0)" stroke-opacity="1.0" stroke-linecap="round" stroke-linejoin="round"/>
    <path d="M 44.42011260986328 98.06214904785156 C 85.13062286376953 126.21699523925781 78.29701232910156 113.6369857788086 102.75797271728516 119.3758544921875" stroke-width="3.0" fill="none" stroke="rgb(0, 0, 0)" stroke-opacity="1.0" stroke-linecap="round" stroke-linejoin="round"/>
    <path d="M 39.453304290771484 78.26698303222656 C 31.915122985839844 68.54010009765625 26.830387115478516 67.27759552001953 21.389896392822266 65.32100677490234" stroke-width="3.0" fill="none" stroke="rgb(0, 0, 0)" stroke-opacity="1.0" stroke-linecap="round" stroke-linejoin="round"/>
    <path d="M 149.8189239501953 86.17831420898438 C 209.03785705566406 74.83568572998047 167.5637969970703 75.76085662841797 175.03211975097656 96.4073257446289" stroke-width="3.0" fill="none" stroke="rgb(0, 0, 0)" stroke-opacity="1.0" stroke-linecap="round" stroke-linejoin="round"/>
    <path d="M 106.15970611572266 112.77239990234375 C 116.42708587646484 157.09352111816406 79.54515075683594 195.1450653076172 110.86258697509766 188.6693115234375" stroke-width="3.0" fill="none" stroke="rgb(0, 0, 0)" stroke-opacity="1.0" stroke-linecap="round" stroke-linejoin="round"/>
    <path d="M 176.9860076904297 62.61029052734375 C 192.04856872558594 7.096068382263184 181.92315673828125 68.71236419677734 208.21485900878906 49.38603210449219" stroke-width="3.0" fill="none" stroke="rgb(0, 0, 0)" stroke-opacity="1.0" stroke-linecap="round" stroke-linejoin="round"/>
    <path d="M 193.79098510742188 64.7400894165039 C 158.8758544921875 41.4060173034668 208.1811981201172 34.43765640258789 201.076904296875 60.513099670410156" stroke-width="3.0" fill="none" stroke="rgb(0, 0, 0)" stroke-opacity="1.0" stroke-linecap="round" stroke-linejoin="round"/>
  </g>
</svg>
