<?xml version="1.0" ?>
<svg xmlns="http://www.w3.org/2000/svg" version="1.1" width="224" height="224">
  <defs/>
  <g>
    <path d="M 139.08323669433594 106.43102264404297 C 119.92059326171875 93.34358215332031 153.6021728515625 135.2560272216797 118.29287719726562 65.65437316894531" stroke-width="3.0" fill="none" stroke="rgb(0, 0, 0)" stroke-opacity="1.0" stroke-linecap="round" stroke-linejoin="round"/>
    <path d="M 112.52605438232422 93.80200958251953 C 112.81827545166016 99.40371704101562 104.01689910888672 101.6518325805664 108.72013092041016 112.3451919555664" stroke-width="3.0" fill="none" stroke="rgb(0, 0, 0)" stroke-opacity="1.0" stroke-linecap="round" stroke-linejoin="round"/>
    <path d="M 133.3321990966797 107.56243133544922 C 130.79786682128906 83.50668334960938 146.18234252929688 137.9662628173828 187.90692138671875 76.05414581298828" stroke-width="3.0" fill="none" stroke="rgb(0, 0, 0)" stroke-opacity="1.0" stroke-linecap="round" stroke-linejoin="round"/>
    <path d="M 67.42898559570312 38.487998962402344 C 64.72810363769531 39.09980773925781 53.79179763793945 47.49751663208008 46.56905746459961 53.54454040527344" stroke-width="3.0" fill="none" stroke="rgb(0, 0, 0)" stroke-opacity="1.0" stroke-linecap="round" stroke-linejoin="round"/>
    <path d="M 133.50035095214844 79.95874786376953 C 106.55425262451172 37.17817306518555 113.2065200805664 62.4369010925293 97.52278900146484 45.192474365234375" stroke-width="3.0" fill="none" stroke="rgb(0, 0, 0)" stroke-opacity="1.0" stroke-linecap="round" stroke-linejoin="round"/>
    <path d="M 70.44210815429688 111.91831970214844 C 41.38821029663086 80.58124542236328 62.7447395324707 100.70172882080078 44.1048698425293 73.01097106933594" stroke-width="3.0" fill="none" stroke="rgb(0, 0, 0)" stroke-opacity="1.0" stroke-linecap="round" stroke-linejoin="round"/>
    <path d="M 183.78909301757812 60.94280242919922 C 176.0631103515625 37.53125 196.55690002441406 48.65927505493164 189.78231811523438 81.8416519165039" stroke-width="3.0" fill="none" stroke="rgb(0, 0, 0)" stroke-opacity="1.0" stroke-linecap="round" stroke-linejoin="round"/>
    <path d="M 103.8431625366211 189.4558563232422 C 122.12548828125 86.45746612548828 120.17166137695312 129.9821014404297 124.98555755615234 104.74991607666016" stroke-width="3.0" fill="none" stroke="rgb(0, 0, 0)" stroke-opacity="1.0" stroke-linecap="round" stroke-linejoin="round"/>
    <path d="M 47.641841888427734 103.03192901611328 C 27.892498016357422 174.37554931640625 13.928194999694824 126.06615447998047 41.11310577392578 199.5703582763672" stroke-width="3.0" fill="none" stroke="rgb(0, 0, 0)" stroke-opacity="1.0" stroke-linecap="round" stroke-linejoin="round"/>
    <path d="M 69.1578598022461 38.6001091003418 C 101.01569366455078 14.915319442749023 157.43984985351562 136.03897094726562 174.32504272460938 57.77744674682617" stroke-width="3.0" fill="none" stroke="rgb(0, 0, 0)" stroke-opacity="1.0" stroke-linecap="round" stroke-linejoin="round"/>
    <path d="M 48.24872589111328 103.9089584350586 C 87.094482421875 121.59778594970703 78.77725219726562 112.95176696777344 103.49555206298828 119.05980682373047" stroke-width="3.0" fill="none" stroke="rgb(0, 0, 0)" stroke-opacity="1.0" stroke-linecap="round" stroke-linejoin="round"/>
    <path d="M 23.529342651367188 134.7981719970703 C 14.050354957580566 75.59725189208984 3.867053985595703 87.12724304199219 53.749332427978516 48.48531723022461" stroke-width="3.0" fill="none" stroke="rgb(0, 0, 0)" stroke-opacity="1.0" stroke-linecap="round" stroke-linejoin="round"/>
    <path d="M 177.91835021972656 84.28173828125 C 192.01974487304688 18.44864845275879 203.41224670410156 28.160903930664062 169.8960723876953 95.195068359375" stroke-width="3.0" fill="none" stroke="rgb(0, 0, 0)" stroke-opacity="1.0" stroke-linecap="round" stroke-linejoin="round"/>
    <path d="M 106.50917053222656 117.08039855957031 C 106.3852767944336 184.8553009033203 79.76461791992188 192.24046325683594 109.59288787841797 192.57347106933594" stroke-width="3.0" fill="none" stroke="rgb(0, 0, 0)" stroke-opacity="1.0" stroke-linecap="round" stroke-linejoin="round"/>
    <path d="M 173.08934020996094 66.01239013671875 C 181.54202270507812 7.226388454437256 218.25404357910156 75.85296630859375 208.55763244628906 49.891456604003906" stroke-width="3.0" fill="none" stroke="rgb(0, 0, 0)" stroke-opacity="1.0" stroke-linecap="round" stroke-linejoin="round"/>
    <path d="M 192.89447021484375 61.4229621887207 C 152.46194458007812 43.3726692199707 260.9695739746094 47.680931091308594 197.07130432128906 58.44499206542969" stroke-width="3.0" fill="none" stroke="rgb(0, 0, 0)" stroke-opacity="1.0" stroke-linecap="round" stroke-linejoin="round"/>
  </g>
</svg>
