<?xml version="1.0" ?>
<svg xmlns="http://www.w3.org/2000/svg" version="1.1" width="224" height="224">
  <defs/>
  <g>
    <path d="M 153.88314819335938 101.78938293457031 C 123.46569061279297 96.10816192626953 161.24256896972656 112.36516571044922 130.61575317382812 87.9692611694336" stroke-width="3.0" fill="none" stroke="rgb(0, 0, 0)" stroke-opacity="1.0" stroke-linecap="round" stroke-linejoin="round"/>
    <path d="M 108.36654663085938 93.68893432617188 C 108.94154357910156 95.6044921875 102.43028259277344 100.17781829833984 106.94232177734375 111.27828979492188" stroke-width="3.0" fill="none" stroke="rgb(0, 0, 0)" stroke-opacity="1.0" stroke-linecap="round" stroke-linejoin="round"/>
    <path d="M 137.51060485839844 105.67825317382812 C 149.69683837890625 77.49031066894531 114.1650161743164 119.75010681152344 171.0868682861328 95.53087615966797" stroke-width="3.0" fill="none" stroke="rgb(0, 0, 0)" stroke-opacity="1.0" stroke-linecap="round" stroke-linejoin="round"/>
    <path d="M 62.456851959228516 41.860496520996094 C 57.71813201904297 45.65072250366211 47.5404167175293 56.99862289428711 56.88037109375 46.83580780029297" stroke-width="3.0" fill="none" stroke="rgb(0, 0, 0)" stroke-opacity="1.0" stroke-linecap="round" stroke-linejoin="round"/>
    <path d="M 109.99919891357422 52.61079788208008 C 118.62854766845703 50.91128921508789 104.82759094238281 49.7128791809082 98.85525512695312 48.11686706542969" stroke-width="3.0" fill="none" stroke="rgb(0, 0, 0)" stroke-opacity="1.0" stroke-linecap="round" stroke-linejoin="round"/>
    <path d="M 78.20699310302734 112.46393585205078 C 47.54682922363281 84.19445037841797 68.82145690917969 93.96832275390625 51.719783782958984 80.0389633178711" stroke-width="3.0" fill="none" stroke="rgb(0, 0, 0)" stroke-opacity="1.0" stroke-linecap="round" stroke-linejoin="round"/>
    <path d="M 186.7677001953125 44.140968322753906 C 177.64984130859375 68.39479064941406 206.75755310058594 65.55847930908203 177.831787109375 85.11799621582031" stroke-width="3.0" fill="none" stroke="rgb(0, 0, 0)" stroke-opacity="1.0" stroke-linecap="round" stroke-linejoin="round"/>
    <path d="M 102.14895629882812 190.39517211914062 C 123.0035629272461 77.2640151977539 117.60969543457031 134.84808349609375 129.66136169433594 100.62313842773438" stroke-width="3.0" fill="none" stroke="rgb(0, 0, 0)" stroke-opacity="1.0" stroke-linecap="round" stroke-linejoin="round"/>
    <path d="M 47.89188766479492 95.57275390625 C 21.963531494140625 185.91358947753906 22.988540649414062 115.0565414428711 40.24151611328125 198.43016052246094" stroke-width="3.0" fill="none" stroke="rgb(0, 0, 0)" stroke-opacity="1.0" stroke-linecap="round" stroke-linejoin="round"/>
    <path d="M 63.32484436035156 41.98286437988281 C 89.83427429199219 11.407190322875977 134.57925415039062 93.14225006103516 165.89463806152344 87.23687744140625" stroke-width="3.0" fill="none" stroke="rgb(0, 0, 0)" stroke-opacity="1.0" stroke-linecap="round" stroke-linejoin="round"/>
    <path d="M 47.994815826416016 104.29557800292969 C 102.6729965209961 120.87419891357422 86.70398712158203 111.41291809082031 103.97150421142578 115.2891616821289" stroke-width="3.0" fill="none" stroke="rgb(0, 0, 0)" stroke-opacity="1.0" stroke-linecap="round" stroke-linejoin="round"/>
    <path d="M 43.64229965209961 76.90858459472656 C 43.119510650634766 66.65282440185547 32.687007904052734 65.15789794921875 37.87147903442383 64.0624771118164" stroke-width="3.0" fill="none" stroke="rgb(0, 0, 0)" stroke-opacity="1.0" stroke-linecap="round" stroke-linejoin="round"/>
    <path d="M 164.80856323242188 87.02423095703125 C 216.15704345703125 70.8746337890625 180.67620849609375 71.66824340820312 173.87710571289062 93.56339263916016" stroke-width="3.0" fill="none" stroke="rgb(0, 0, 0)" stroke-opacity="1.0" stroke-linecap="round" stroke-linejoin="round"/>
    <path d="M 105.6435775756836 114.47647094726562 C 109.30693054199219 185.0687255859375 80.79953002929688 190.07484436035156 110.16017150878906 192.86810302734375" stroke-width="3.0" fill="none" stroke="rgb(0, 0, 0)" stroke-opacity="1.0" stroke-linecap="round" stroke-linejoin="round"/>
    <path d="M 175.886962890625 84.46786499023438 C 174.56021118164062 -7.991224765777588 188.2687530517578 73.44652557373047 198.0935516357422 47.219181060791016" stroke-width="3.0" fill="none" stroke="rgb(0, 0, 0)" stroke-opacity="1.0" stroke-linecap="round" stroke-linejoin="round"/>
    <path d="M 195.84027099609375 61.27668380737305 C 149.8265838623047 39.22532272338867 226.1419219970703 48.841644287109375 207.24188232421875 56.93868637084961" stroke-width="3.0" fill="none" stroke="rgb(0, 0, 0)" stroke-opacity="1.0" stroke-linecap="round" stroke-linejoin="round"/>
  </g>
</svg>
