<?xml version="1.0" ?>
<svg xmlns="http://www.w3.org/2000/svg" version="1.1" width="224" height="224">
  <defs/>
  <g>
    <path d="M 142.98104858398438 99.14669799804688 C 123.38892364501953 78.40171813964844 126.62826538085938 77.05977630615234 131.98968505859375 88.77571868896484" stroke-width="3.0" fill="none" stroke="rgb(0, 0, 0)" stroke-opacity="1.0" stroke-linecap="round" stroke-linejoin="round"/>
    <path d="M 97.35913848876953 94.56307983398438 C 97.00543212890625 93.41612243652344 100.52388763427734 103.54517364501953 106.9565658569336 107.04650115966797" stroke-width="3.0" fill="none" stroke="rgb(0, 0, 0)" stroke-opacity="1.0" stroke-linecap="round" stroke-linejoin="round"/>
    <path d="M 127.32818603515625 108.20124816894531 C 146.92465209960938 93.41185760498047 122.33735656738281 89.19258880615234 151.9919891357422 103.53291320800781" stroke-width="3.0" fill="none" stroke="rgb(0, 0, 0)" stroke-opacity="1.0" stroke-linecap="round" stroke-linejoin="round"/>
    <path d="M 62.66351318359375 43.40928649902344 C 52.22773361206055 53.05458068847656 23.792041778564453 68.30065155029297 39.22493362426758 59.79656219482422" stroke-width="3.0" fill="none" stroke="rgb(0, 0, 0)" stroke-opacity="1.0" stroke-linecap="round" stroke-linejoin="round"/>
    <path d="M 109.5289535522461 56.98067092895508 C 119.51954650878906 57.64545822143555 113.37335205078125 63.52632141113281 105.21723175048828 53.475189208984375" stroke-width="3.0" fill="none" stroke="rgb(0, 0, 0)" stroke-opacity="1.0" stroke-linecap="round" stroke-linejoin="round"/>
    <path d="M 66.22799682617188 110.61957550048828 C 55.76329803466797 90.69476318359375 49.21573257446289 87.4599609375 46.80105209350586 77.25526428222656" stroke-width="3.0" fill="none" stroke="rgb(0, 0, 0)" stroke-opacity="1.0" stroke-linecap="round" stroke-linejoin="round"/>
    <path d="M 179.4486846923828 44.26967239379883 C 172.69044494628906 70.40018463134766 187.18650817871094 72.34505462646484 168.00599670410156 81.9731216430664" stroke-width="3.0" fill="none" stroke="rgb(0, 0, 0)" stroke-opacity="1.0" stroke-linecap="round" stroke-linejoin="round"/>
    <path d="M 112.58766174316406 148.3439483642578 C 124.19072723388672 95.66244506835938 122.52143096923828 128.07521057128906 127.70157623291016 101.03626251220703" stroke-width="3.0" fill="none" stroke="rgb(0, 0, 0)" stroke-opacity="1.0" stroke-linecap="round" stroke-linejoin="round"/>
    <path d="M 46.8823127746582 93.98128509521484 C 19.097091674804688 175.62884521484375 14.558550834655762 117.59550476074219 39.74671173095703 200.10888671875" stroke-width="3.0" fill="none" stroke="rgb(0, 0, 0)" stroke-opacity="1.0" stroke-linecap="round" stroke-linejoin="round"/>
    <path d="M 59.91321563720703 44.79962921142578 C 89.75122833251953 24.89131736755371 126.80121612548828 75.2335433959961 150.02285766601562 81.6131591796875" stroke-width="3.0" fill="none" stroke="rgb(0, 0, 0)" stroke-opacity="1.0" stroke-linecap="round" stroke-linejoin="round"/>
    <path d="M 45.797096252441406 101.11664581298828 C 88.80345153808594 126.42212677001953 79.3305892944336 116.09078216552734 102.76542663574219 118.79236602783203" stroke-width="3.0" fill="none" stroke="rgb(0, 0, 0)" stroke-opacity="1.0" stroke-linecap="round" stroke-linejoin="round"/>
    <path d="M 40.957035064697266 77.29750061035156 C 35.13304138183594 66.73997497558594 25.634119033813477 66.17344665527344 21.339820861816406 67.14312744140625" stroke-width="3.0" fill="none" stroke="rgb(0, 0, 0)" stroke-opacity="1.0" stroke-linecap="round" stroke-linejoin="round"/>
    <path d="M 152.169921875 82.26478576660156 C 212.09498596191406 78.13624572753906 163.90696716308594 76.75093841552734 174.55638122558594 96.13865661621094" stroke-width="3.0" fill="none" stroke="rgb(0, 0, 0)" stroke-opacity="1.0" stroke-linecap="round" stroke-linejoin="round"/>
    <path d="M 105.17549133300781 110.71192169189453 C 114.6836929321289 161.2586669921875 81.98609924316406 203.0264129638672 109.76241302490234 194.69631958007812" stroke-width="3.0" fill="none" stroke="rgb(0, 0, 0)" stroke-opacity="1.0" stroke-linecap="round" stroke-linejoin="round"/>
    <path d="M 175.5602264404297 63.43443298339844 C 189.8073272705078 11.97234058380127 180.4141387939453 66.46957397460938 209.31106567382812 49.268733978271484" stroke-width="3.0" fill="none" stroke="rgb(0, 0, 0)" stroke-opacity="1.0" stroke-linecap="round" stroke-linejoin="round"/>
    <path d="M 191.88348388671875 67.12471771240234 C 160.9800262451172 41.286773681640625 209.03875732421875 37.96969985961914 197.78065490722656 61.59952163696289" stroke-width="3.0" fill="none" stroke="rgb(0, 0, 0)" stroke-opacity="1.0" stroke-linecap="round" stroke-linejoin="round"/>
  </g>
</svg>
