<?xml version="1.0" ?>
<svg xmlns="http://www.w3.org/2000/svg" version="1.1" width="224" height="224">
  <defs/>
  <g>
    <path d="M 153.50741577148438 101.56178283691406 C 131.28204345703125 94.05948638916016 159.10443115234375 109.23756408691406 133.47450256347656 89.5553970336914" stroke-width="3.0" fill="none" stroke="rgb(0, 0, 0)" stroke-opacity="1.0" stroke-linecap="round" stroke-linejoin="round"/>
    <path d="M 109.34918975830078 89.3812484741211 C 108.14492797851562 96.59061431884766 104.85272979736328 97.61581420898438 110.06470489501953 107.76793670654297" stroke-width="3.0" fill="none" stroke="rgb(0, 0, 0)" stroke-opacity="1.0" stroke-linecap="round" stroke-linejoin="round"/>
    <path d="M 136.3023223876953 104.84467315673828 C 154.07257080078125 89.13439178466797 117.77458190917969 114.22685241699219 166.45440673828125 97.90641784667969" stroke-width="3.0" fill="none" stroke="rgb(0, 0, 0)" stroke-opacity="1.0" stroke-linecap="round" stroke-linejoin="round"/>
    <path d="M 58.54408264160156 45.83497619628906 C 53.89229965209961 51.45497131347656 35.75679397583008 61.707313537597656 49.14244079589844 53.70689392089844" stroke-width="3.0" fill="none" stroke="rgb(0, 0, 0)" stroke-opacity="1.0" stroke-linecap="round" stroke-linejoin="round"/>
    <path d="M 100.99288177490234 51.09531784057617 C 119.71477508544922 55.14481735229492 101.92772674560547 54.731536865234375 97.72388458251953 47.96405792236328" stroke-width="3.0" fill="none" stroke="rgb(0, 0, 0)" stroke-opacity="1.0" stroke-linecap="round" stroke-linejoin="round"/>
    <path d="M 74.42642211914062 114.08173370361328 C 45.614784240722656 88.3342514038086 59.56824493408203 92.7605972290039 44.921180725097656 77.74105834960938" stroke-width="3.0" fill="none" stroke="rgb(0, 0, 0)" stroke-opacity="1.0" stroke-linecap="round" stroke-linejoin="round"/>
    <path d="M 189.47021484375 39.08810043334961 C 177.8174591064453 70.20338439941406 210.05361938476562 72.15153503417969 176.7034454345703 88.4751205444336" stroke-width="3.0" fill="none" stroke="rgb(0, 0, 0)" stroke-opacity="1.0" stroke-linecap="round" stroke-linejoin="round"/>
    <path d="M 111.1381607055664 165.58236694335938 C 125.47682189941406 87.70425415039062 115.52674865722656 130.1279754638672 132.58241271972656 99.88082122802734" stroke-width="3.0" fill="none" stroke="rgb(0, 0, 0)" stroke-opacity="1.0" stroke-linecap="round" stroke-linejoin="round"/>
    <path d="M 46.63799285888672 95.74586486816406 C 23.29000473022461 181.90252685546875 21.672048568725586 119.7628173828125 39.567352294921875 198.83738708496094" stroke-width="3.0" fill="none" stroke="rgb(0, 0, 0)" stroke-opacity="1.0" stroke-linecap="round" stroke-linejoin="round"/>
    <path d="M 58.201576232910156 45.00143051147461 C 91.66751098632812 15.758288383483887 134.48358154296875 89.09268951416016 159.52027893066406 86.21251678466797" stroke-width="3.0" fill="none" stroke="rgb(0, 0, 0)" stroke-opacity="1.0" stroke-linecap="round" stroke-linejoin="round"/>
    <path d="M 45.771453857421875 103.3415298461914 C 97.33599853515625 126.13524627685547 90.57012939453125 107.51348114013672 106.33999633789062 117.4275894165039" stroke-width="3.0" fill="none" stroke="rgb(0, 0, 0)" stroke-opacity="1.0" stroke-linecap="round" stroke-linejoin="round"/>
    <path d="M 34.698360443115234 88.40275573730469 C 35.565731048583984 70.26026916503906 27.726747512817383 68.06826782226562 29.871875762939453 67.01466369628906" stroke-width="3.0" fill="none" stroke="rgb(0, 0, 0)" stroke-opacity="1.0" stroke-linecap="round" stroke-linejoin="round"/>
    <path d="M 161.1006317138672 86.23478698730469 C 222.03173828125 82.14330291748047 170.78387451171875 79.08848571777344 169.0028076171875 95.47473907470703" stroke-width="3.0" fill="none" stroke="rgb(0, 0, 0)" stroke-opacity="1.0" stroke-linecap="round" stroke-linejoin="round"/>
    <path d="M 106.22489166259766 110.2431411743164 C 110.53824615478516 177.7884521484375 83.46040344238281 195.3101348876953 111.39325714111328 192.56793212890625" stroke-width="3.0" fill="none" stroke="rgb(0, 0, 0)" stroke-opacity="1.0" stroke-linecap="round" stroke-linejoin="round"/>
    <path d="M 175.4558563232422 78.4898452758789 C 179.2161102294922 -13.666616439819336 184.10360717773438 66.81352996826172 207.1439208984375 42.94069290161133" stroke-width="3.0" fill="none" stroke="rgb(0, 0, 0)" stroke-opacity="1.0" stroke-linecap="round" stroke-linejoin="round"/>
    <path d="M 195.4422607421875 58.40981674194336 C 154.07530212402344 36.79951477050781 222.45809936523438 41.17192840576172 200.92762756347656 54.92622375488281" stroke-width="3.0" fill="none" stroke="rgb(0, 0, 0)" stroke-opacity="1.0" stroke-linecap="round" stroke-linejoin="round"/>
  </g>
</svg>
