<?xml version="1.0" ?>
<svg xmlns="http://www.w3.org/2000/svg" version="1.1" width="224" height="224">
  <defs/>
  <g>
    <path d="M 141.42230224609375 105.63139343261719 C 115.974365234375 85.7519760131836 154.4815216064453 140.09951782226562 119.21456909179688 68.02904510498047" stroke-width="3.0" fill="none" stroke="rgb(0, 0, 0)" stroke-opacity="1.0" stroke-linecap="round" stroke-linejoin="round"/>
    <path d="M 109.16348266601562 94.18484497070312 C 108.003173828125 96.84967041015625 103.6244125366211 102.51150512695312 107.41595458984375 110.05384063720703" stroke-width="3.0" fill="none" stroke="rgb(0, 0, 0)" stroke-opacity="1.0" stroke-linecap="round" stroke-linejoin="round"/>
    <path d="M 132.35743713378906 108.54251861572266 C 137.0360107421875 79.10333251953125 139.36874389648438 134.6289520263672 182.5819091796875 81.27619171142578" stroke-width="3.0" fill="none" stroke="rgb(0, 0, 0)" stroke-opacity="1.0" stroke-linecap="round" stroke-linejoin="round"/>
    <path d="M 66.3779067993164 38.872047424316406 C 63.95967102050781 41.44154357910156 55.28947830200195 45.383235931396484 59.76722717285156 42.81800842285156" stroke-width="3.0" fill="none" stroke="rgb(0, 0, 0)" stroke-opacity="1.0" stroke-linecap="round" stroke-linejoin="round"/>
    <path d="M 131.5087432861328 83.82276153564453 C 105.5884017944336 38.8927116394043 113.62969207763672 68.40428161621094 99.08212280273438 46.49750518798828" stroke-width="3.0" fill="none" stroke="rgb(0, 0, 0)" stroke-opacity="1.0" stroke-linecap="round" stroke-linejoin="round"/>
    <path d="M 62.68787384033203 111.1661605834961 C 37.57380676269531 78.00165557861328 59.15866470336914 97.62754821777344 42.94204330444336 73.17820739746094" stroke-width="3.0" fill="none" stroke="rgb(0, 0, 0)" stroke-opacity="1.0" stroke-linecap="round" stroke-linejoin="round"/>
    <path d="M 180.37330627441406 50.35676956176758 C 176.7610626220703 23.682437896728516 191.659912109375 49.74744415283203 185.36471557617188 78.12114715576172" stroke-width="3.0" fill="none" stroke="rgb(0, 0, 0)" stroke-opacity="1.0" stroke-linecap="round" stroke-linejoin="round"/>
    <path d="M 103.9682388305664 194.78306579589844 C 120.64366149902344 80.73759460449219 123.22386932373047 129.98977661132812 126.4104995727539 99.04302978515625" stroke-width="3.0" fill="none" stroke="rgb(0, 0, 0)" stroke-opacity="1.0" stroke-linecap="round" stroke-linejoin="round"/>
    <path d="M 47.09743118286133 100.18501281738281 C 22.704730987548828 176.91567993164062 14.816563606262207 125.83914947509766 40.67546081542969 198.81198120117188" stroke-width="3.0" fill="none" stroke="rgb(0, 0, 0)" stroke-opacity="1.0" stroke-linecap="round" stroke-linejoin="round"/>
    <path d="M 66.10053253173828 39.60551071166992 C 98.43959045410156 15.030546188354492 148.12681579589844 115.2355728149414 169.2533721923828 74.59602355957031" stroke-width="3.0" fill="none" stroke="rgb(0, 0, 0)" stroke-opacity="1.0" stroke-linecap="round" stroke-linejoin="round"/>
    <path d="M 48.05931091308594 99.12743377685547 C 79.75521850585938 126.34850311279297 78.59403991699219 112.34480285644531 104.85651397705078 115.95787048339844" stroke-width="3.0" fill="none" stroke="rgb(0, 0, 0)" stroke-opacity="1.0" stroke-linecap="round" stroke-linejoin="round"/>
    <path d="M 21.588760375976562 131.32508850097656 C 11.234736442565918 70.51763916015625 12.668856620788574 84.0041275024414 58.070003509521484 43.99279022216797" stroke-width="3.0" fill="none" stroke="rgb(0, 0, 0)" stroke-opacity="1.0" stroke-linecap="round" stroke-linejoin="round"/>
    <path d="M 173.817138671875 85.19105529785156 C 198.93325805664062 28.402530670166016 202.9708251953125 31.796192169189453 166.8357696533203 90.79823303222656" stroke-width="3.0" fill="none" stroke="rgb(0, 0, 0)" stroke-opacity="1.0" stroke-linecap="round" stroke-linejoin="round"/>
    <path d="M 105.47561645507812 114.3274917602539 C 108.99669647216797 183.63601684570312 79.97225189208984 201.96922302246094 112.28401947021484 188.56695556640625" stroke-width="3.0" fill="none" stroke="rgb(0, 0, 0)" stroke-opacity="1.0" stroke-linecap="round" stroke-linejoin="round"/>
    <path d="M 169.1238555908203 74.74344635009766 C 172.23744201660156 5.919386863708496 214.36093139648438 75.34573364257812 209.10545349121094 47.64864730834961" stroke-width="3.0" fill="none" stroke="rgb(0, 0, 0)" stroke-opacity="1.0" stroke-linecap="round" stroke-linejoin="round"/>
    <path d="M 194.42413330078125 63.08855056762695 C 154.31199645996094 43.56086349487305 258.1050720214844 48.2326774597168 197.87681579589844 59.33525085449219" stroke-width="3.0" fill="none" stroke="rgb(0, 0, 0)" stroke-opacity="1.0" stroke-linecap="round" stroke-linejoin="round"/>
  </g>
</svg>
