<?xml version="1.0" ?>
<svg xmlns="http://www.w3.org/2000/svg" version="1.1" width="224" height="224">
  <defs/>
  <g>
    <path d="M 139.30636596679688 106.79487609863281 C 122.0048599243164 91.2892074584961 154.85801696777344 139.76600646972656 117.29891967773438 68.15242767333984" stroke-width="3.0" fill="none" stroke="rgb(0, 0, 0)" stroke-opacity="1.0" stroke-linecap="round" stroke-linejoin="round"/>
    <path d="M 106.46749114990234 95.13314819335938 C 106.35294342041016 99.36743927001953 101.62638092041016 101.87288665771484 107.22716522216797 113.05164337158203" stroke-width="3.0" fill="none" stroke="rgb(0, 0, 0)" stroke-opacity="1.0" stroke-linecap="round" stroke-linejoin="round"/>
    <path d="M 131.64022827148438 108.39299774169922 C 132.4121551513672 81.42826080322266 144.88409423828125 134.5009002685547 187.6019744873047 79.81067657470703" stroke-width="3.0" fill="none" stroke="rgb(0, 0, 0)" stroke-opacity="1.0" stroke-linecap="round" stroke-linejoin="round"/>
    <path d="M 71.56022644042969 38.87293243408203 C 64.89488220214844 37.63291549682617 56.46944046020508 45.490848541259766 55.8342399597168 46.27595520019531" stroke-width="3.0" fill="none" stroke="rgb(0, 0, 0)" stroke-opacity="1.0" stroke-linecap="round" stroke-linejoin="round"/>
    <path d="M 136.92494201660156 84.19981384277344 C 108.19564056396484 40.62207794189453 111.48658752441406 67.46575927734375 93.8776626586914 42.138240814208984" stroke-width="3.0" fill="none" stroke="rgb(0, 0, 0)" stroke-opacity="1.0" stroke-linecap="round" stroke-linejoin="round"/>
    <path d="M 65.58526611328125 112.56436920166016 C 36.11099624633789 76.81914520263672 61.68680191040039 95.56420135498047 38.54031753540039 71.12635040283203" stroke-width="3.0" fill="none" stroke="rgb(0, 0, 0)" stroke-opacity="1.0" stroke-linecap="round" stroke-linejoin="round"/>
    <path d="M 179.984375 65.04937744140625 C 172.98663330078125 36.85292434692383 190.05125427246094 54.30948257446289 187.4660186767578 78.89927673339844" stroke-width="3.0" fill="none" stroke="rgb(0, 0, 0)" stroke-opacity="1.0" stroke-linecap="round" stroke-linejoin="round"/>
    <path d="M 104.34761810302734 194.94586181640625 C 121.047607421875 83.579833984375 123.30897521972656 128.19247436523438 126.56381225585938 103.1082992553711" stroke-width="3.0" fill="none" stroke="rgb(0, 0, 0)" stroke-opacity="1.0" stroke-linecap="round" stroke-linejoin="round"/>
    <path d="M 45.85723876953125 103.41831970214844 C 25.130096435546875 175.82569885253906 18.700138092041016 124.2147445678711 40.29024887084961 197.89793395996094" stroke-width="3.0" fill="none" stroke="rgb(0, 0, 0)" stroke-opacity="1.0" stroke-linecap="round" stroke-linejoin="round"/>
    <path d="M 64.04572296142578 40.326332092285156 C 99.69391632080078 15.199350357055664 156.450439453125 128.77188110351562 171.54541015625 67.86833953857422" stroke-width="3.0" fill="none" stroke="rgb(0, 0, 0)" stroke-opacity="1.0" stroke-linecap="round" stroke-linejoin="round"/>
    <path d="M 45.95157241821289 102.5831069946289 C 82.29102325439453 121.8915023803711 80.37336730957031 113.53559112548828 102.5329818725586 118.39586639404297" stroke-width="3.0" fill="none" stroke="rgb(0, 0, 0)" stroke-opacity="1.0" stroke-linecap="round" stroke-linejoin="round"/>
    <path d="M 20.614410400390625 136.29244995117188 C 14.253260612487793 67.47484588623047 11.240523338317871 85.52893829345703 56.63287353515625 45.32326889038086" stroke-width="3.0" fill="none" stroke="rgb(0, 0, 0)" stroke-opacity="1.0" stroke-linecap="round" stroke-linejoin="round"/>
    <path d="M 179.57315063476562 87.27432250976562 C 203.5495147705078 26.742830276489258 198.6454620361328 24.401142120361328 170.2544403076172 90.86014556884766" stroke-width="3.0" fill="none" stroke="rgb(0, 0, 0)" stroke-opacity="1.0" stroke-linecap="round" stroke-linejoin="round"/>
    <path d="M 104.84835052490234 117.35089874267578 C 110.25272369384766 188.1929931640625 76.93634033203125 209.07041931152344 109.91387939453125 189.56373596191406" stroke-width="3.0" fill="none" stroke="rgb(0, 0, 0)" stroke-opacity="1.0" stroke-linecap="round" stroke-linejoin="round"/>
    <path d="M 170.82476806640625 70.00265502929688 C 179.0159454345703 3.703105926513672 219.6250457763672 76.65840148925781 205.50082397460938 48.1329460144043" stroke-width="3.0" fill="none" stroke="rgb(0, 0, 0)" stroke-opacity="1.0" stroke-linecap="round" stroke-linejoin="round"/>
    <path d="M 188.5597381591797 60.56365203857422 C 151.40577697753906 45.434852600097656 256.8193359375 47.94046401977539 195.4151153564453 62.08600997924805" stroke-width="3.0" fill="none" stroke="rgb(0, 0, 0)" stroke-opacity="1.0" stroke-linecap="round" stroke-linejoin="round"/>
  </g>
</svg>
