<?xml version="1.0" ?>
<svg xmlns="http://www.w3.org/2000/svg" version="1.1" width="224" height="224">
  <defs/>
  <g>
    <path d="M 154.8721923828125 102.25790405273438 C 120.42398071289062 96.76496124267578 162.9949188232422 114.65450286865234 130.682373046875 89.64250946044922" stroke-width="3.0" fill="none" stroke="rgb(0, 0, 0)" stroke-opacity="1.0" stroke-linecap="round" stroke-linejoin="round"/>
    <path d="M 107.80319213867188 91.02123260498047 C 108.78816986083984 98.49876403808594 100.42980194091797 100.05856323242188 105.8146743774414 111.4778060913086" stroke-width="3.0" fill="none" stroke="rgb(0, 0, 0)" stroke-opacity="1.0" stroke-linecap="round" stroke-linejoin="round"/>
    <path d="M 137.0967559814453 105.67198181152344 C 151.6779327392578 79.64529418945312 112.13611602783203 120.90550231933594 171.28005981445312 97.42546844482422" stroke-width="3.0" fill="none" stroke="rgb(0, 0, 0)" stroke-opacity="1.0" stroke-linecap="round" stroke-linejoin="round"/>
    <path d="M 62.802371978759766 42.97016525268555 C 60.08552551269531 44.99639129638672 50.360145568847656 52.33351516723633 61.07065963745117 44.234676361083984" stroke-width="3.0" fill="none" stroke="rgb(0, 0, 0)" stroke-opacity="1.0" stroke-linecap="round" stroke-linejoin="round"/>
    <path d="M 114.82305145263672 57.56148147583008 C 109.43661499023438 52.422245025634766 102.81131744384766 49.927982330322266 93.69512939453125 43.97616958618164" stroke-width="3.0" fill="none" stroke="rgb(0, 0, 0)" stroke-opacity="1.0" stroke-linecap="round" stroke-linejoin="round"/>
    <path d="M 77.02373504638672 112.61370086669922 C 44.38948440551758 92.03348541259766 66.2478256225586 100.28968048095703 45.03437805175781 87.67044067382812" stroke-width="3.0" fill="none" stroke="rgb(0, 0, 0)" stroke-opacity="1.0" stroke-linecap="round" stroke-linejoin="round"/>
    <path d="M 186.49696350097656 43.19096374511719 C 174.4737091064453 64.08555603027344 204.61557006835938 57.87642288208008 178.14926147460938 82.66876983642578" stroke-width="3.0" fill="none" stroke="rgb(0, 0, 0)" stroke-opacity="1.0" stroke-linecap="round" stroke-linejoin="round"/>
    <path d="M 101.81139373779297 191.46038818359375 C 125.17049407958984 80.94789123535156 118.05900573730469 132.6298065185547 130.77316284179688 102.05571746826172" stroke-width="3.0" fill="none" stroke="rgb(0, 0, 0)" stroke-opacity="1.0" stroke-linecap="round" stroke-linejoin="round"/>
    <path d="M 37.4776725769043 93.50027465820312 C 19.659221649169922 186.81642150878906 16.469552993774414 121.33842468261719 38.12401580810547 196.7744903564453" stroke-width="3.0" fill="none" stroke="rgb(0, 0, 0)" stroke-opacity="1.0" stroke-linecap="round" stroke-linejoin="round"/>
    <path d="M 63.97005844116211 43.74732208251953 C 92.59947967529297 12.626233100891113 135.8839569091797 97.1814956665039 165.4661407470703 87.68317413330078" stroke-width="3.0" fill="none" stroke="rgb(0, 0, 0)" stroke-opacity="1.0" stroke-linecap="round" stroke-linejoin="round"/>
    <path d="M 40.65851593017578 102.35032653808594 C 94.30636596679688 126.63092041015625 82.28474426269531 111.51870727539062 104.70435333251953 115.4013442993164" stroke-width="3.0" fill="none" stroke="rgb(0, 0, 0)" stroke-opacity="1.0" stroke-linecap="round" stroke-linejoin="round"/>
    <path d="M 45.111106872558594 79.90937042236328 C 43.97869873046875 67.21236419677734 37.09105682373047 64.041015625 36.18175506591797 63.57917404174805" stroke-width="3.0" fill="none" stroke="rgb(0, 0, 0)" stroke-opacity="1.0" stroke-linecap="round" stroke-linejoin="round"/>
    <path d="M 167.19781494140625 87.46160125732422 C 210.4661865234375 61.92714309692383 184.82347106933594 68.85557556152344 173.9832000732422 93.227294921875" stroke-width="3.0" fill="none" stroke="rgb(0, 0, 0)" stroke-opacity="1.0" stroke-linecap="round" stroke-linejoin="round"/>
    <path d="M 103.36618041992188 117.2150650024414 C 106.58233642578125 189.67051696777344 77.62857818603516 190.56060791015625 111.70227813720703 189.47415161132812" stroke-width="3.0" fill="none" stroke="rgb(0, 0, 0)" stroke-opacity="1.0" stroke-linecap="round" stroke-linejoin="round"/>
    <path d="M 176.1405487060547 82.42357635498047 C 174.976806640625 -10.863981246948242 188.2397918701172 75.22103118896484 195.06930541992188 47.88869857788086" stroke-width="3.0" fill="none" stroke="rgb(0, 0, 0)" stroke-opacity="1.0" stroke-linecap="round" stroke-linejoin="round"/>
    <path d="M 193.8912353515625 58.671138763427734 C 150.30029296875 37.13581848144531 237.49099731445312 47.45414352416992 205.616455078125 52.473846435546875" stroke-width="3.0" fill="none" stroke="rgb(0, 0, 0)" stroke-opacity="1.0" stroke-linecap="round" stroke-linejoin="round"/>
  </g>
</svg>
