<?xml version="1.0" ?>
<svg xmlns="http://www.w3.org/2000/svg" version="1.1" width="224" height="224">
  <defs/>
  <g>
    <path d="M 138.3121337890625 106.9864501953125 C 119.6555404663086 93.1897964477539 154.33416748046875 135.27772521972656 117.31124877929688 66.68946838378906" stroke-width="3.0" fill="none" stroke="rgb(0, 0, 0)" stroke-opacity="1.0" stroke-linecap="round" stroke-linejoin="round"/>
    <path d="M 111.75260925292969 93.81561279296875 C 114.82979583740234 99.28653717041016 104.43069458007812 104.19967651367188 109.6220932006836 112.6811294555664" stroke-width="3.0" fill="none" stroke="rgb(0, 0, 0)" stroke-opacity="1.0" stroke-linecap="round" stroke-linejoin="round"/>
    <path d="M 131.8433837890625 108.24253845214844 C 128.1692352294922 83.58235168457031 145.82371520996094 135.82144165039062 186.98101806640625 74.5178451538086" stroke-width="3.0" fill="none" stroke="rgb(0, 0, 0)" stroke-opacity="1.0" stroke-linecap="round" stroke-linejoin="round"/>
    <path d="M 68.42485046386719 38.05335998535156 C 64.56430053710938 39.245540618896484 52.970951080322266 46.716285705566406 48.15180969238281 54.65700912475586" stroke-width="3.0" fill="none" stroke="rgb(0, 0, 0)" stroke-opacity="1.0" stroke-linecap="round" stroke-linejoin="round"/>
    <path d="M 132.06243896484375 81.43760681152344 C 106.07496643066406 37.97004699707031 113.4716567993164 62.068511962890625 97.57459259033203 44.22861862182617" stroke-width="3.0" fill="none" stroke="rgb(0, 0, 0)" stroke-opacity="1.0" stroke-linecap="round" stroke-linejoin="round"/>
    <path d="M 68.46014404296875 113.95922088623047 C 38.346839904785156 83.22039031982422 62.34246063232422 102.43370056152344 43.495201110839844 76.50264739990234" stroke-width="3.0" fill="none" stroke="rgb(0, 0, 0)" stroke-opacity="1.0" stroke-linecap="round" stroke-linejoin="round"/>
    <path d="M 184.2700653076172 62.981693267822266 C 175.12547302246094 38.821922302246094 194.31932067871094 50.0635986328125 188.78741455078125 78.06301879882812" stroke-width="3.0" fill="none" stroke="rgb(0, 0, 0)" stroke-opacity="1.0" stroke-linecap="round" stroke-linejoin="round"/>
    <path d="M 102.78706359863281 189.40771484375 C 119.85179138183594 83.13398742675781 119.5913314819336 128.685302734375 125.17574310302734 105.6305923461914" stroke-width="3.0" fill="none" stroke="rgb(0, 0, 0)" stroke-opacity="1.0" stroke-linecap="round" stroke-linejoin="round"/>
    <path d="M 48.116703033447266 104.076904296875 C 26.296785354614258 174.03314208984375 13.333406448364258 124.53934478759766 40.666202545166016 198.21719360351562" stroke-width="3.0" fill="none" stroke="rgb(0, 0, 0)" stroke-opacity="1.0" stroke-linecap="round" stroke-linejoin="round"/>
    <path d="M 67.48135375976562 37.87396240234375 C 100.96656799316406 15.453359603881836 159.38037109375 137.6444854736328 174.9882354736328 60.70158767700195" stroke-width="3.0" fill="none" stroke="rgb(0, 0, 0)" stroke-opacity="1.0" stroke-linecap="round" stroke-linejoin="round"/>
    <path d="M 47.77555847167969 103.98240661621094 C 86.21888732910156 123.20614624023438 77.8232192993164 113.0060043334961 105.28987884521484 117.92450714111328" stroke-width="3.0" fill="none" stroke="rgb(0, 0, 0)" stroke-opacity="1.0" stroke-linecap="round" stroke-linejoin="round"/>
    <path d="M 22.70505142211914 137.6742401123047 C 14.895929336547852 76.1953125 5.930294990539551 88.56764221191406 53.932125091552734 48.13685989379883" stroke-width="3.0" fill="none" stroke="rgb(0, 0, 0)" stroke-opacity="1.0" stroke-linecap="round" stroke-linejoin="round"/>
    <path d="M 176.69482421875 84.46646118164062 C 193.7006072998047 18.86277961730957 206.56198120117188 29.148277282714844 171.39842224121094 97.07228088378906" stroke-width="3.0" fill="none" stroke="rgb(0, 0, 0)" stroke-opacity="1.0" stroke-linecap="round" stroke-linejoin="round"/>
    <path d="M 106.73441314697266 115.8046646118164 C 107.57915496826172 186.12098693847656 81.48023223876953 192.74185180664062 109.63145446777344 192.8031005859375" stroke-width="3.0" fill="none" stroke="rgb(0, 0, 0)" stroke-opacity="1.0" stroke-linecap="round" stroke-linejoin="round"/>
    <path d="M 174.4783935546875 69.44429016113281 C 181.47740173339844 8.210351943969727 217.6395263671875 76.31937408447266 209.62855529785156 50.005332946777344" stroke-width="3.0" fill="none" stroke="rgb(0, 0, 0)" stroke-opacity="1.0" stroke-linecap="round" stroke-linejoin="round"/>
    <path d="M 193.83396911621094 63.417640686035156 C 153.30564880371094 41.6325798034668 263.08184814453125 47.220882415771484 196.7100372314453 59.14430236816406" stroke-width="3.0" fill="none" stroke="rgb(0, 0, 0)" stroke-opacity="1.0" stroke-linecap="round" stroke-linejoin="round"/>
  </g>
</svg>
