<?xml version="1.0" ?>
<svg xmlns="http://www.w3.org/2000/svg" version="1.1" width="224" height="224">
  <defs/>
  <g>
    <path d="M 139.0381622314453 105.5093994140625 C 120.49737548828125 85.23180389404297 155.1541290283203 139.2731475830078 119.24626159667969 67.30452728271484" stroke-width="3.0" fill="none" stroke="rgb(0, 0, 0)" stroke-opacity="1.0" stroke-linecap="round" stroke-linejoin="round"/>
    <path d="M 107.75099182128906 96.28058624267578 C 107.87025451660156 95.4374008178711 103.28193664550781 98.85856628417969 108.56790161132812 110.28012084960938" stroke-width="3.0" fill="none" stroke="rgb(0, 0, 0)" stroke-opacity="1.0" stroke-linecap="round" stroke-linejoin="round"/>
    <path d="M 131.83567810058594 106.06590270996094 C 136.71495056152344 81.23920440673828 140.5724639892578 134.7379913330078 180.80679321289062 81.2657699584961" stroke-width="3.0" fill="none" stroke="rgb(0, 0, 0)" stroke-opacity="1.0" stroke-linecap="round" stroke-linejoin="round"/>
    <path d="M 66.4830093383789 40.68714141845703 C 63.437644958496094 40.70217514038086 55.6489143371582 46.852474212646484 59.930355072021484 43.051090240478516" stroke-width="3.0" fill="none" stroke="rgb(0, 0, 0)" stroke-opacity="1.0" stroke-linecap="round" stroke-linejoin="round"/>
    <path d="M 130.31265258789062 84.98963928222656 C 104.85092163085938 39.099761962890625 111.51033020019531 67.69226837158203 96.8548355102539 46.9271354675293" stroke-width="3.0" fill="none" stroke="rgb(0, 0, 0)" stroke-opacity="1.0" stroke-linecap="round" stroke-linejoin="round"/>
    <path d="M 64.47608184814453 109.3758544921875 C 38.78055953979492 78.00688934326172 61.7468147277832 96.15892028808594 42.91973114013672 72.04212951660156" stroke-width="3.0" fill="none" stroke="rgb(0, 0, 0)" stroke-opacity="1.0" stroke-linecap="round" stroke-linejoin="round"/>
    <path d="M 183.19442749023438 52.75126266479492 C 177.88108825683594 25.782094955444336 195.13381958007812 49.471805572509766 183.968994140625 81.370361328125" stroke-width="3.0" fill="none" stroke="rgb(0, 0, 0)" stroke-opacity="1.0" stroke-linecap="round" stroke-linejoin="round"/>
    <path d="M 103.37077331542969 193.53977966308594 C 120.28988647460938 79.37552642822266 124.63990020751953 130.7854461669922 126.24575805664062 100.58509826660156" stroke-width="3.0" fill="none" stroke="rgb(0, 0, 0)" stroke-opacity="1.0" stroke-linecap="round" stroke-linejoin="round"/>
    <path d="M 48.584415435791016 99.81552124023438 C 23.34355926513672 175.1778564453125 14.53196907043457 125.63422393798828 41.22526168823242 198.59420776367188" stroke-width="3.0" fill="none" stroke="rgb(0, 0, 0)" stroke-opacity="1.0" stroke-linecap="round" stroke-linejoin="round"/>
    <path d="M 65.25164031982422 40.925994873046875 C 97.62364196777344 17.931066513061523 149.45077514648438 118.28680419921875 169.54312133789062 75.2279281616211" stroke-width="3.0" fill="none" stroke="rgb(0, 0, 0)" stroke-opacity="1.0" stroke-linecap="round" stroke-linejoin="round"/>
    <path d="M 50.2884407043457 97.74527740478516 C 80.40119934082031 120.9135513305664 79.45938110351562 111.82899475097656 104.79276275634766 119.07526397705078" stroke-width="3.0" fill="none" stroke="rgb(0, 0, 0)" stroke-opacity="1.0" stroke-linecap="round" stroke-linejoin="round"/>
    <path d="M 20.72430419921875 132.35887145996094 C 11.146804809570312 70.05497741699219 11.856401443481445 83.54759979248047 58.291107177734375 44.13868713378906" stroke-width="3.0" fill="none" stroke="rgb(0, 0, 0)" stroke-opacity="1.0" stroke-linecap="round" stroke-linejoin="round"/>
    <path d="M 173.82574462890625 87.88262176513672 C 193.4690704345703 25.76109504699707 203.36375427246094 31.623918533325195 168.2135467529297 95.66120147705078" stroke-width="3.0" fill="none" stroke="rgb(0, 0, 0)" stroke-opacity="1.0" stroke-linecap="round" stroke-linejoin="round"/>
    <path d="M 104.8802490234375 116.36783599853516 C 109.79029083251953 185.53529357910156 78.71728515625 203.28904724121094 112.1326675415039 187.92286682128906" stroke-width="3.0" fill="none" stroke="rgb(0, 0, 0)" stroke-opacity="1.0" stroke-linecap="round" stroke-linejoin="round"/>
    <path d="M 170.49667358398438 75.32674407958984 C 177.17747497558594 7.116908073425293 218.51663208007812 75.43034362792969 208.73992919921875 47.671451568603516" stroke-width="3.0" fill="none" stroke="rgb(0, 0, 0)" stroke-opacity="1.0" stroke-linecap="round" stroke-linejoin="round"/>
    <path d="M 191.43582153320312 63.982723236083984 C 154.1767578125 43.73263931274414 258.82440185546875 45.17128372192383 197.72860717773438 58.51362609863281" stroke-width="3.0" fill="none" stroke="rgb(0, 0, 0)" stroke-opacity="1.0" stroke-linecap="round" stroke-linejoin="round"/>
  </g>
</svg>
