<?xml version="1.0" ?>
<svg xmlns="http://www.w3.org/2000/svg" version="1.1" width="224" height="224">
  <defs/>
  <g>
    <path d="M 140.0075225830078 106.91252899169922 C 119.52520751953125 84.63018035888672 154.93870544433594 139.14768981933594 119.37010192871094 67.42945861816406" stroke-width="3.0" fill="none" stroke="rgb(0, 0, 0)" stroke-opacity="1.0" stroke-linecap="round" stroke-linejoin="round"/>
    <path d="M 108.14310455322266 95.6077651977539 C 108.24478149414062 96.78797149658203 102.92598724365234 101.07769012451172 109.43189239501953 109.86942291259766" stroke-width="3.0" fill="none" stroke="rgb(0, 0, 0)" stroke-opacity="1.0" stroke-linecap="round" stroke-linejoin="round"/>
    <path d="M 132.96473693847656 106.78765869140625 C 136.35073852539062 82.04113006591797 140.1687469482422 135.87611389160156 180.4486541748047 81.88291931152344" stroke-width="3.0" fill="none" stroke="rgb(0, 0, 0)" stroke-opacity="1.0" stroke-linecap="round" stroke-linejoin="round"/>
    <path d="M 66.36738586425781 39.636505126953125 C 63.19874954223633 39.94365310668945 55.79205322265625 46.24689483642578 60.02030944824219 42.80533981323242" stroke-width="3.0" fill="none" stroke="rgb(0, 0, 0)" stroke-opacity="1.0" stroke-linecap="round" stroke-linejoin="round"/>
    <path d="M 131.07949829101562 83.6073989868164 C 106.2684555053711 38.14781951904297 114.85977935791016 66.5838623046875 98.84219360351562 46.01701736450195" stroke-width="3.0" fill="none" stroke="rgb(0, 0, 0)" stroke-opacity="1.0" stroke-linecap="round" stroke-linejoin="round"/>
    <path d="M 64.87140655517578 109.37327575683594 C 41.41447067260742 76.29425048828125 60.04337692260742 98.40885925292969 43.22958755493164 71.86035919189453" stroke-width="3.0" fill="none" stroke="rgb(0, 0, 0)" stroke-opacity="1.0" stroke-linecap="round" stroke-linejoin="round"/>
    <path d="M 182.1708526611328 51.87446594238281 C 178.1935272216797 25.346105575561523 193.3380584716797 49.81159210205078 185.04888916015625 79.42398071289062" stroke-width="3.0" fill="none" stroke="rgb(0, 0, 0)" stroke-opacity="1.0" stroke-linecap="round" stroke-linejoin="round"/>
    <path d="M 103.27051544189453 194.3213348388672 C 118.64390563964844 79.82787322998047 123.1316146850586 130.8871307373047 126.12699127197266 98.64195251464844" stroke-width="3.0" fill="none" stroke="rgb(0, 0, 0)" stroke-opacity="1.0" stroke-linecap="round" stroke-linejoin="round"/>
    <path d="M 49.15300369262695 101.01798248291016 C 23.003971099853516 176.11630249023438 14.563157081604004 124.8738021850586 40.68806076049805 198.7996368408203" stroke-width="3.0" fill="none" stroke="rgb(0, 0, 0)" stroke-opacity="1.0" stroke-linecap="round" stroke-linejoin="round"/>
    <path d="M 65.52832794189453 39.50147247314453 C 98.13297271728516 16.009750366210938 149.19244384765625 115.83145904541016 168.72036743164062 74.29400634765625" stroke-width="3.0" fill="none" stroke="rgb(0, 0, 0)" stroke-opacity="1.0" stroke-linecap="round" stroke-linejoin="round"/>
    <path d="M 47.62575912475586 98.6421890258789 C 77.9998550415039 124.6888198852539 77.9527359008789 112.1155776977539 104.91934204101562 119.14069366455078" stroke-width="3.0" fill="none" stroke="rgb(0, 0, 0)" stroke-opacity="1.0" stroke-linecap="round" stroke-linejoin="round"/>
    <path d="M 21.4312686920166 131.8834228515625 C 10.192148208618164 71.0322265625 12.170936584472656 84.09063720703125 58.0966682434082 44.06904602050781" stroke-width="3.0" fill="none" stroke="rgb(0, 0, 0)" stroke-opacity="1.0" stroke-linecap="round" stroke-linejoin="round"/>
    <path d="M 174.77276611328125 87.40703582763672 C 195.3873748779297 26.713504791259766 201.8362579345703 30.772220611572266 165.7115478515625 91.93904876708984" stroke-width="3.0" fill="none" stroke="rgb(0, 0, 0)" stroke-opacity="1.0" stroke-linecap="round" stroke-linejoin="round"/>
    <path d="M 105.20916748046875 114.14060974121094 C 107.75858306884766 183.45941162109375 78.8126220703125 202.139892578125 111.9212417602539 187.84934997558594" stroke-width="3.0" fill="none" stroke="rgb(0, 0, 0)" stroke-opacity="1.0" stroke-linecap="round" stroke-linejoin="round"/>
    <path d="M 169.99273681640625 75.69921875 C 174.19158935546875 4.551393985748291 217.22972106933594 74.02839660644531 209.30360412597656 49.2481575012207" stroke-width="3.0" fill="none" stroke="rgb(0, 0, 0)" stroke-opacity="1.0" stroke-linecap="round" stroke-linejoin="round"/>
    <path d="M 194.286376953125 62.65568923950195 C 154.47410583496094 44.254459381103516 258.9053649902344 46.68605041503906 199.0343017578125 58.984046936035156" stroke-width="3.0" fill="none" stroke="rgb(0, 0, 0)" stroke-opacity="1.0" stroke-linecap="round" stroke-linejoin="round"/>
  </g>
</svg>
