<?xml version="1.0" ?>
<svg xmlns="http://www.w3.org/2000/svg" version="1.1" width="224" height="224">
  <defs/>
  <g>
    <path d="M 131.24008178710938 106.51666259765625 C 118.25630187988281 87.48355865478516 150.3533477783203 131.4676971435547 118.51700592041016 66.57299041748047" stroke-width="3.0" fill="none" stroke="rgb(0, 0, 0)" stroke-opacity="1.0" stroke-linecap="round" stroke-linejoin="round"/>
    <path d="M 111.26091003417969 88.63192749023438 C 114.98223876953125 99.18675231933594 104.75860595703125 102.38231658935547 110.70487976074219 113.19602966308594" stroke-width="3.0" fill="none" stroke="rgb(0, 0, 0)" stroke-opacity="1.0" stroke-linecap="round" stroke-linejoin="round"/>
    <path d="M 128.38223266601562 109.68555450439453 C 127.14781951904297 87.22999572753906 148.3971405029297 134.9412384033203 189.2558135986328 70.49314880371094" stroke-width="3.0" fill="none" stroke="rgb(0, 0, 0)" stroke-opacity="1.0" stroke-linecap="round" stroke-linejoin="round"/>
    <path d="M 61.67856216430664 42.87661361694336 C 65.35420989990234 38.879669189453125 53.76640319824219 48.10826110839844 40.80842208862305 60.4056396484375" stroke-width="3.0" fill="none" stroke="rgb(0, 0, 0)" stroke-opacity="1.0" stroke-linecap="round" stroke-linejoin="round"/>
    <path d="M 134.8372039794922 82.32610321044922 C 108.33304595947266 40.67104721069336 112.61624145507812 68.93980407714844 91.53032684326172 44.019649505615234" stroke-width="3.0" fill="none" stroke="rgb(0, 0, 0)" stroke-opacity="1.0" stroke-linecap="round" stroke-linejoin="round"/>
    <path d="M 68.9916000366211 111.74047088623047 C 36.414329528808594 81.1435775756836 58.33369445800781 99.42259216308594 43.22392272949219 71.99024963378906" stroke-width="3.0" fill="none" stroke="rgb(0, 0, 0)" stroke-opacity="1.0" stroke-linecap="round" stroke-linejoin="round"/>
    <path d="M 185.97579956054688 62.78947448730469 C 171.04873657226562 40.020729064941406 193.23387145996094 53.466575622558594 188.53021240234375 82.0407943725586" stroke-width="3.0" fill="none" stroke="rgb(0, 0, 0)" stroke-opacity="1.0" stroke-linecap="round" stroke-linejoin="round"/>
    <path d="M 104.67643737792969 196.36126708984375 C 115.70157623291016 90.64533996582031 124.3668212890625 132.51742553710938 124.42947387695312 103.47041320800781" stroke-width="3.0" fill="none" stroke="rgb(0, 0, 0)" stroke-opacity="1.0" stroke-linecap="round" stroke-linejoin="round"/>
    <path d="M 46.29092788696289 104.68977355957031 C 28.9193115234375 176.48135375976562 17.000560760498047 119.01466369628906 43.12055969238281 197.98976135253906" stroke-width="3.0" fill="none" stroke="rgb(0, 0, 0)" stroke-opacity="1.0" stroke-linecap="round" stroke-linejoin="round"/>
    <path d="M 63.499412536621094 41.18479919433594 C 99.85165405273438 17.286012649536133 157.1236114501953 134.22657775878906 174.9837188720703 57.569602966308594" stroke-width="3.0" fill="none" stroke="rgb(0, 0, 0)" stroke-opacity="1.0" stroke-linecap="round" stroke-linejoin="round"/>
    <path d="M 48.232887268066406 100.53437042236328 C 84.15575408935547 121.92134857177734 81.82099151611328 108.57743835449219 105.38619995117188 118.14319610595703" stroke-width="3.0" fill="none" stroke="rgb(0, 0, 0)" stroke-opacity="1.0" stroke-linecap="round" stroke-linejoin="round"/>
    <path d="M 25.66128158569336 140.68563842773438 C 21.48300552368164 91.08721923828125 -2.217845916748047 85.94160461425781 52.147403717041016 52.12580108642578" stroke-width="3.0" fill="none" stroke="rgb(0, 0, 0)" stroke-opacity="1.0" stroke-linecap="round" stroke-linejoin="round"/>
    <path d="M 175.55015563964844 88.47238159179688 C 192.7749786376953 19.308250427246094 209.28402709960938 29.90567398071289 165.66453552246094 94.39354705810547" stroke-width="3.0" fill="none" stroke="rgb(0, 0, 0)" stroke-opacity="1.0" stroke-linecap="round" stroke-linejoin="round"/>
    <path d="M 105.52603149414062 115.55296325683594 C 108.16083526611328 186.57777404785156 79.81550598144531 205.25970458984375 112.02556610107422 188.87677001953125" stroke-width="3.0" fill="none" stroke="rgb(0, 0, 0)" stroke-opacity="1.0" stroke-linecap="round" stroke-linejoin="round"/>
    <path d="M 170.24176025390625 69.26859283447266 C 182.7803192138672 5.566969871520996 216.18142700195312 76.9286880493164 204.26243591308594 47.085052490234375" stroke-width="3.0" fill="none" stroke="rgb(0, 0, 0)" stroke-opacity="1.0" stroke-linecap="round" stroke-linejoin="round"/>
    <path d="M 193.03660583496094 65.96881103515625 C 147.0314178466797 46.33150100708008 254.4137420654297 48.06855010986328 197.70120239257812 62.78676986694336" stroke-width="3.0" fill="none" stroke="rgb(0, 0, 0)" stroke-opacity="1.0" stroke-linecap="round" stroke-linejoin="round"/>
  </g>
</svg>
