<?xml version="1.0" ?>
<svg xmlns="http://www.w3.org/2000/svg" version="1.1" width="224" height="224">
  <defs/>
  <g>
    <path d="M 142.1736602783203 94.6418228149414 C 120.39411163330078 78.86286163330078 121.72211456298828 74.05817413330078 130.95152282714844 88.89781951904297" stroke-width="3.0" fill="none" stroke="rgb(0, 0, 0)" stroke-opacity="1.0" stroke-linecap="round" stroke-linejoin="round"/>
    <path d="M 93.57215881347656 93.71524047851562 C 92.29419708251953 95.61862182617188 98.67680358886719 109.00169372558594 106.427734375 111.33333587646484" stroke-width="3.0" fill="none" stroke="rgb(0, 0, 0)" stroke-opacity="1.0" stroke-linecap="round" stroke-linejoin="round"/>
    <path d="M 135.34291076660156 105.358154296875 C 148.6463165283203 94.49352264404297 129.50149536132812 89.39532470703125 152.2467041015625 100.42196655273438" stroke-width="3.0" fill="none" stroke="rgb(0, 0, 0)" stroke-opacity="1.0" stroke-linecap="round" stroke-linejoin="round"/>
    <path d="M 52.34145736694336 48.741233825683594 C 55.2612419128418 63.61445617675781 40.600799560546875 99.75169372558594 46.050636291503906 82.16300201416016" stroke-width="3.0" fill="none" stroke="rgb(0, 0, 0)" stroke-opacity="1.0" stroke-linecap="round" stroke-linejoin="round"/>
    <path d="M 113.58087921142578 56.75157165527344 C 120.8339614868164 59.50828552246094 119.28498840332031 59.42331314086914 109.81289672851562 54.761802673339844" stroke-width="3.0" fill="none" stroke="rgb(0, 0, 0)" stroke-opacity="1.0" stroke-linecap="round" stroke-linejoin="round"/>
    <path d="M 58.82558059692383 103.22122955322266 C 58.45595932006836 94.54148864746094 47.02790451049805 83.66483306884766 47.435882568359375 73.62623596191406" stroke-width="3.0" fill="none" stroke="rgb(0, 0, 0)" stroke-opacity="1.0" stroke-linecap="round" stroke-linejoin="round"/>
    <path d="M 183.54275512695312 42.00013732910156 C 178.85340881347656 79.00950622558594 179.06504821777344 73.33221435546875 164.0184783935547 79.74302673339844" stroke-width="3.0" fill="none" stroke="rgb(0, 0, 0)" stroke-opacity="1.0" stroke-linecap="round" stroke-linejoin="round"/>
    <path d="M 114.48785400390625 134.53436279296875 C 126.84120178222656 99.98824310302734 107.98127746582031 132.07662963867188 126.65524291992188 109.32624816894531" stroke-width="3.0" fill="none" stroke="rgb(0, 0, 0)" stroke-opacity="1.0" stroke-linecap="round" stroke-linejoin="round"/>
    <path d="M 40.32644271850586 102.79591369628906 C 21.006702423095703 186.82620239257812 19.870351791381836 139.5579071044922 41.61404800415039 197.71011352539062" stroke-width="3.0" fill="none" stroke="rgb(0, 0, 0)" stroke-opacity="1.0" stroke-linecap="round" stroke-linejoin="round"/>
    <path d="M 62.87714767456055 41.634620666503906 C 107.67974090576172 33.915775299072266 121.31999206542969 71.48016357421875 143.2246856689453 81.97579193115234" stroke-width="3.0" fill="none" stroke="rgb(0, 0, 0)" stroke-opacity="1.0" stroke-linecap="round" stroke-linejoin="round"/>
    <path d="M 48.78993225097656 94.17658233642578 C 83.64187622070312 127.47569274902344 74.39173126220703 113.85074615478516 103.17481231689453 121.14202880859375" stroke-width="3.0" fill="none" stroke="rgb(0, 0, 0)" stroke-opacity="1.0" stroke-linecap="round" stroke-linejoin="round"/>
    <path d="M 34.38783645629883 85.50948333740234 C 30.802505493164062 77.9145736694336 22.640869140625 75.55675506591797 24.359094619750977 76.08098602294922" stroke-width="3.0" fill="none" stroke="rgb(0, 0, 0)" stroke-opacity="1.0" stroke-linecap="round" stroke-linejoin="round"/>
    <path d="M 146.7425994873047 82.8819580078125 C 204.24501037597656 77.38107299804688 159.53781127929688 77.45547485351562 169.2458953857422 96.61324310302734" stroke-width="3.0" fill="none" stroke="rgb(0, 0, 0)" stroke-opacity="1.0" stroke-linecap="round" stroke-linejoin="round"/>
    <path d="M 107.83162689208984 110.76516723632812 C 116.36469268798828 149.12574768066406 79.55554962158203 200.31826782226562 111.50801849365234 191.43031311035156" stroke-width="3.0" fill="none" stroke="rgb(0, 0, 0)" stroke-opacity="1.0" stroke-linecap="round" stroke-linejoin="round"/>
    <path d="M 174.3229522705078 61.71098327636719 C 198.9375 7.247621536254883 181.30149841308594 65.25016021728516 207.07611083984375 44.15558624267578" stroke-width="3.0" fill="none" stroke="rgb(0, 0, 0)" stroke-opacity="1.0" stroke-linecap="round" stroke-linejoin="round"/>
    <path d="M 200.8452911376953 58.916603088378906 C 160.441650390625 39.792633056640625 211.00233459472656 35.8100700378418 204.29823303222656 59.4732780456543" stroke-width="3.0" fill="none" stroke="rgb(0, 0, 0)" stroke-opacity="1.0" stroke-linecap="round" stroke-linejoin="round"/>
  </g>
</svg>
