<?xml version="1.0" ?>
<svg xmlns="http://www.w3.org/2000/svg" version="1.1" width="224" height="224">
  <defs/>
  <g>
    <path d="M 155.52780151367188 99.82112884521484 C 121.31425476074219 85.00392150878906 177.56884765625 121.80940246582031 124.61317443847656 75.49365997314453" stroke-width="3.0" fill="none" stroke="rgb(0, 0, 0)" stroke-opacity="1.0" stroke-linecap="round" stroke-linejoin="round"/>
    <path d="M 108.24674224853516 90.18408203125 C 107.37089538574219 101.33930969238281 101.1734619140625 101.65921783447266 107.19515228271484 113.36212921142578" stroke-width="3.0" fill="none" stroke="rgb(0, 0, 0)" stroke-opacity="1.0" stroke-linecap="round" stroke-linejoin="round"/>
    <path d="M 142.42105102539062 103.53119659423828 C 143.06410217285156 62.443336486816406 124.06655883789062 127.85941314697266 175.18710327148438 88.98343658447266" stroke-width="3.0" fill="none" stroke="rgb(0, 0, 0)" stroke-opacity="1.0" stroke-linecap="round" stroke-linejoin="round"/>
    <path d="M 63.157737731933594 43.62522506713867 C 63.28947830200195 42.89288330078125 57.0436897277832 49.27796173095703 62.81894302368164 43.47874450683594" stroke-width="3.0" fill="none" stroke="rgb(0, 0, 0)" stroke-opacity="1.0" stroke-linecap="round" stroke-linejoin="round"/>
    <path d="M 126.23124694824219 75.25538635253906 C 114.130126953125 50.61107635498047 109.5639419555664 63.08665084838867 95.10728454589844 47.19942092895508" stroke-width="3.0" fill="none" stroke="rgb(0, 0, 0)" stroke-opacity="1.0" stroke-linecap="round" stroke-linejoin="round"/>
    <path d="M 76.67720031738281 112.05358123779297 C 43.62388229370117 83.37833404541016 64.93187713623047 91.72175598144531 47.4963264465332 67.05874633789062" stroke-width="3.0" fill="none" stroke="rgb(0, 0, 0)" stroke-opacity="1.0" stroke-linecap="round" stroke-linejoin="round"/>
    <path d="M 181.40098571777344 36.34360122680664 C 179.1986846923828 46.844947814941406 193.11849975585938 54.37263488769531 178.71063232421875 76.91426086425781" stroke-width="3.0" fill="none" stroke="rgb(0, 0, 0)" stroke-opacity="1.0" stroke-linecap="round" stroke-linejoin="round"/>
    <path d="M 102.27059173583984 193.7925567626953 C 125.27955627441406 79.48882293701172 119.4195785522461 125.20100402832031 131.5113525390625 104.15206146240234" stroke-width="3.0" fill="none" stroke="rgb(0, 0, 0)" stroke-opacity="1.0" stroke-linecap="round" stroke-linejoin="round"/>
    <path d="M 40.058956146240234 84.60124969482422 C 32.832305908203125 198.3671875 20.789390563964844 118.84442901611328 41.22991943359375 198.973876953125" stroke-width="3.0" fill="none" stroke="rgb(0, 0, 0)" stroke-opacity="1.0" stroke-linecap="round" stroke-linejoin="round"/>
    <path d="M 64.37056732177734 43.0250244140625 C 89.46221923828125 13.971056938171387 139.5802001953125 104.24959564208984 164.92990112304688 84.84185791015625" stroke-width="3.0" fill="none" stroke="rgb(0, 0, 0)" stroke-opacity="1.0" stroke-linecap="round" stroke-linejoin="round"/>
    <path d="M 47.573394775390625 85.00926971435547 C 79.45906829833984 126.13992309570312 77.75344848632812 116.12332916259766 103.60283660888672 119.39989471435547" stroke-width="3.0" fill="none" stroke="rgb(0, 0, 0)" stroke-opacity="1.0" stroke-linecap="round" stroke-linejoin="round"/>
    <path d="M 35.61334228515625 108.71577453613281 C 24.4431209564209 63.021507263183594 34.442771911621094 68.36964416503906 56.65848922729492 48.87111282348633" stroke-width="3.0" fill="none" stroke="rgb(0, 0, 0)" stroke-opacity="1.0" stroke-linecap="round" stroke-linejoin="round"/>
    <path d="M 166.56333923339844 83.54946899414062 C 195.5511016845703 43.89134979248047 193.255859375 56.74397659301758 178.81863403320312 86.34234619140625" stroke-width="3.0" fill="none" stroke="rgb(0, 0, 0)" stroke-opacity="1.0" stroke-linecap="round" stroke-linejoin="round"/>
    <path d="M 105.42953491210938 117.39443969726562 C 110.04026794433594 188.0482177734375 76.81754302978516 204.27964782714844 110.11251068115234 188.1474151611328" stroke-width="3.0" fill="none" stroke="rgb(0, 0, 0)" stroke-opacity="1.0" stroke-linecap="round" stroke-linejoin="round"/>
    <path d="M 171.9168701171875 82.58427429199219 C 174.0247802734375 -2.960045099258423 207.26071166992188 70.88506317138672 200.26199340820312 46.75932693481445" stroke-width="3.0" fill="none" stroke="rgb(0, 0, 0)" stroke-opacity="1.0" stroke-linecap="round" stroke-linejoin="round"/>
    <path d="M 194.90147399902344 60.92691421508789 C 152.508544921875 37.09760665893555 231.28375244140625 43.58679962158203 193.88839721679688 52.09687042236328" stroke-width="3.0" fill="none" stroke="rgb(0, 0, 0)" stroke-opacity="1.0" stroke-linecap="round" stroke-linejoin="round"/>
  </g>
</svg>
