<?xml version="1.0" ?>
<svg xmlns="http://www.w3.org/2000/svg" version="1.1" width="224" height="224">
  <defs/>
  <g>
    <path d="M 135.2623748779297 108.34680938720703 C 121.52355194091797 96.88402557373047 149.95826721191406 142.4217529296875 119.07982635498047 67.65275573730469" stroke-width="3.0" fill="none" stroke="rgb(0, 0, 0)" stroke-opacity="1.0" stroke-linecap="round" stroke-linejoin="round"/>
    <path d="M 108.26023864746094 92.68512725830078 C 111.73936462402344 98.66340637207031 100.93597412109375 99.52777862548828 110.25804901123047 113.598388671875" stroke-width="3.0" fill="none" stroke="rgb(0, 0, 0)" stroke-opacity="1.0" stroke-linecap="round" stroke-linejoin="round"/>
    <path d="M 129.17724609375 111.42721557617188 C 128.4525604248047 81.457275390625 152.04656982421875 139.92982482910156 184.80264282226562 71.06388854980469" stroke-width="3.0" fill="none" stroke="rgb(0, 0, 0)" stroke-opacity="1.0" stroke-linecap="round" stroke-linejoin="round"/>
    <path d="M 64.53199005126953 42.6889762878418 C 64.70806884765625 39.66255187988281 54.700252532958984 47.50448989868164 42.189857482910156 60.2713508605957" stroke-width="3.0" fill="none" stroke="rgb(0, 0, 0)" stroke-opacity="1.0" stroke-linecap="round" stroke-linejoin="round"/>
    <path d="M 133.8911590576172 85.48851013183594 C 107.85432434082031 41.517555236816406 114.81314086914062 67.14285278320312 94.39773559570312 45.183258056640625" stroke-width="3.0" fill="none" stroke="rgb(0, 0, 0)" stroke-opacity="1.0" stroke-linecap="round" stroke-linejoin="round"/>
    <path d="M 70.18046569824219 111.1192855834961 C 35.91122817993164 81.45331573486328 61.00516891479492 99.83138275146484 40.566009521484375 76.77570343017578" stroke-width="3.0" fill="none" stroke="rgb(0, 0, 0)" stroke-opacity="1.0" stroke-linecap="round" stroke-linejoin="round"/>
    <path d="M 185.03921508789062 57.19096755981445 C 170.39842224121094 35.75742721557617 195.0829620361328 51.14902114868164 187.4205322265625 77.35028839111328" stroke-width="3.0" fill="none" stroke="rgb(0, 0, 0)" stroke-opacity="1.0" stroke-linecap="round" stroke-linejoin="round"/>
    <path d="M 104.28243255615234 193.42996215820312 C 117.9735107421875 85.05294799804688 123.85697174072266 128.7540283203125 123.06126403808594 104.00592041015625" stroke-width="3.0" fill="none" stroke="rgb(0, 0, 0)" stroke-opacity="1.0" stroke-linecap="round" stroke-linejoin="round"/>
    <path d="M 47.150814056396484 104.31126403808594 C 26.466215133666992 174.1155548095703 13.122554779052734 125.11856079101562 41.020694732666016 199.33485412597656" stroke-width="3.0" fill="none" stroke="rgb(0, 0, 0)" stroke-opacity="1.0" stroke-linecap="round" stroke-linejoin="round"/>
    <path d="M 65.20069122314453 41.09429931640625 C 98.98749542236328 19.047840118408203 156.5541534423828 137.3517303466797 172.633544921875 57.75544357299805" stroke-width="3.0" fill="none" stroke="rgb(0, 0, 0)" stroke-opacity="1.0" stroke-linecap="round" stroke-linejoin="round"/>
    <path d="M 50.24530029296875 101.4836654663086 C 84.44241333007812 121.32071685791016 81.81889343261719 113.3741683959961 106.40499114990234 118.33666229248047" stroke-width="3.0" fill="none" stroke="rgb(0, 0, 0)" stroke-opacity="1.0" stroke-linecap="round" stroke-linejoin="round"/>
    <path d="M 21.18258285522461 138.96957397460938 C 16.390695571899414 85.71766662597656 -1.858144760131836 83.23200225830078 56.124088287353516 50.31147003173828" stroke-width="3.0" fill="none" stroke="rgb(0, 0, 0)" stroke-opacity="1.0" stroke-linecap="round" stroke-linejoin="round"/>
    <path d="M 171.08436584472656 86.05469512939453 C 192.01988220214844 20.017038345336914 204.0989532470703 28.90675926208496 167.3812713623047 94.05693054199219" stroke-width="3.0" fill="none" stroke="rgb(0, 0, 0)" stroke-opacity="1.0" stroke-linecap="round" stroke-linejoin="round"/>
    <path d="M 105.31222534179688 118.40084075927734 C 110.66226959228516 188.0906524658203 77.85514831542969 198.77786254882812 112.66744995117188 190.59234619140625" stroke-width="3.0" fill="none" stroke="rgb(0, 0, 0)" stroke-opacity="1.0" stroke-linecap="round" stroke-linejoin="round"/>
    <path d="M 170.38612365722656 65.06129455566406 C 180.20765686035156 8.13933277130127 213.4763641357422 79.23592376708984 204.94952392578125 47.629234313964844" stroke-width="3.0" fill="none" stroke="rgb(0, 0, 0)" stroke-opacity="1.0" stroke-linecap="round" stroke-linejoin="round"/>
    <path d="M 191.2212677001953 62.884517669677734 C 145.658447265625 41.34177017211914 256.73809814453125 46.73463821411133 193.47373962402344 58.94105529785156" stroke-width="3.0" fill="none" stroke="rgb(0, 0, 0)" stroke-opacity="1.0" stroke-linecap="round" stroke-linejoin="round"/>
  </g>
</svg>
