<?xml version="1.0" ?>
<svg xmlns="http://www.w3.org/2000/svg" version="1.1" width="224" height="224">
  <defs/>
  <g>
    <path d="M 127.23079681396484 83.79899597167969 C 118.06851196289062 81.22618865966797 127.48065948486328 77.19259643554688 127.48347473144531 72.39826202392578" stroke-width="3.0" fill="none" stroke="rgb(0, 0, 0)" stroke-opacity="1.0" stroke-linecap="round" stroke-linejoin="round"/>
    <path d="M 88.85810852050781 99.1185073852539 C 90.92761993408203 97.80284118652344 86.13597106933594 98.18079376220703 89.81920623779297 105.67882537841797" stroke-width="3.0" fill="none" stroke="rgb(0, 0, 0)" stroke-opacity="1.0" stroke-linecap="round" stroke-linejoin="round"/>
    <path d="M 154.76718139648438 104.88407897949219 C 159.88934326171875 87.12434387207031 157.149169921875 79.09814453125 157.09036254882812 97.21099853515625" stroke-width="3.0" fill="none" stroke="rgb(0, 0, 0)" stroke-opacity="1.0" stroke-linecap="round" stroke-linejoin="round"/>
    <path d="M 61.93777847290039 60.60610580444336 C 62.0871696472168 88.83613586425781 46.398406982421875 91.67103576660156 50.318199157714844 96.24707794189453" stroke-width="3.0" fill="none" stroke="rgb(0, 0, 0)" stroke-opacity="1.0" stroke-linecap="round" stroke-linejoin="round"/>
    <path d="M 107.8796157836914 65.77101135253906 C 110.48092651367188 57.751068115234375 108.71416473388672 65.75315856933594 107.34288024902344 71.09805297851562" stroke-width="3.0" fill="none" stroke="rgb(0, 0, 0)" stroke-opacity="1.0" stroke-linecap="round" stroke-linejoin="round"/>
    <path d="M 53.550697326660156 88.20189666748047 C 48.374385833740234 106.79403686523438 51.99043655395508 98.13048553466797 49.96858596801758 95.51575469970703" stroke-width="3.0" fill="none" stroke="rgb(0, 0, 0)" stroke-opacity="1.0" stroke-linecap="round" stroke-linejoin="round"/>
    <path d="M 170.62303161621094 59.59428024291992 C 172.67918395996094 71.95864868164062 161.9424285888672 76.22576141357422 165.80125427246094 84.51459503173828" stroke-width="3.0" fill="none" stroke="rgb(0, 0, 0)" stroke-opacity="1.0" stroke-linecap="round" stroke-linejoin="round"/>
    <path d="M 103.46895599365234 125.12239074707031 C 106.86076354980469 114.62019348144531 105.24687957763672 121.98137664794922 108.99864196777344 122.71794128417969" stroke-width="3.0" fill="none" stroke="rgb(0, 0, 0)" stroke-opacity="1.0" stroke-linecap="round" stroke-linejoin="round"/>
    <path d="M 38.96063995361328 152.7749786376953 C 37.59664535522461 175.23577880859375 33.925472259521484 164.34976196289062 33.483741760253906 183.07000732421875" stroke-width="3.0" fill="none" stroke="rgb(0, 0, 0)" stroke-opacity="1.0" stroke-linecap="round" stroke-linejoin="round"/>
    <path d="M 111.7754135131836 54.32231903076172 C 114.25581359863281 63.37610626220703 120.7742919921875 64.00846862792969 122.34156036376953 70.4339370727539" stroke-width="3.0" fill="none" stroke="rgb(0, 0, 0)" stroke-opacity="1.0" stroke-linecap="round" stroke-linejoin="round"/>
    <path d="M 67.51025390625 103.61426544189453 C 80.1150894165039 108.43820190429688 76.60079956054688 114.4729232788086 93.00980377197266 112.81221008300781" stroke-width="3.0" fill="none" stroke="rgb(0, 0, 0)" stroke-opacity="1.0" stroke-linecap="round" stroke-linejoin="round"/>
    <path d="M 27.16924285888672 90.18462371826172 C 18.83885383605957 71.88389587402344 17.639251708984375 78.95096588134766 17.429330825805664 78.31153869628906" stroke-width="3.0" fill="none" stroke="rgb(0, 0, 0)" stroke-opacity="1.0" stroke-linecap="round" stroke-linejoin="round"/>
    <path d="M 163.39990234375 86.42781829833984 C 170.83155822753906 69.6507797241211 157.12966918945312 89.65650939941406 175.7281494140625 97.37482452392578" stroke-width="3.0" fill="none" stroke="rgb(0, 0, 0)" stroke-opacity="1.0" stroke-linecap="round" stroke-linejoin="round"/>
    <path d="M 102.60256958007812 125.91676330566406 C 112.02677917480469 141.39646911621094 109.58403015136719 146.9210205078125 115.0933837890625 171.03988647460938" stroke-width="3.0" fill="none" stroke="rgb(0, 0, 0)" stroke-opacity="1.0" stroke-linecap="round" stroke-linejoin="round"/>
    <path d="M 175.0167694091797 45.659908294677734 C 186.02890014648438 29.264925003051758 182.5208740234375 53.36063003540039 196.9225616455078 51.044368743896484" stroke-width="3.0" fill="none" stroke="rgb(0, 0, 0)" stroke-opacity="1.0" stroke-linecap="round" stroke-linejoin="round"/>
    <path d="M 199.3905487060547 54.76655960083008 C 192.9871063232422 46.58098602294922 196.75949096679688 50.63103103637695 215.52040100097656 54.180423736572266" stroke-width="3.0" fill="none" stroke="rgb(0, 0, 0)" stroke-opacity="1.0" stroke-linecap="round" stroke-linejoin="round"/>
  </g>
</svg>
