<?xml version="1.0" ?>
<svg xmlns="http://www.w3.org/2000/svg" version="1.1" width="224" height="224">
  <defs/>
  <g>
    <path d="M 137.87181091308594 101.61448669433594 C 120.71905517578125 78.29930114746094 129.55360412597656 71.0445785522461 132.2774200439453 89.52452850341797" stroke-width="3.0" fill="none" stroke="rgb(0, 0, 0)" stroke-opacity="1.0" stroke-linecap="round" stroke-linejoin="round"/>
    <path d="M 94.34361267089844 92.32624053955078 C 94.06412506103516 95.80147552490234 99.70664978027344 103.79305267333984 107.28107452392578 106.20877838134766" stroke-width="3.0" fill="none" stroke="rgb(0, 0, 0)" stroke-opacity="1.0" stroke-linecap="round" stroke-linejoin="round"/>
    <path d="M 133.2003173828125 113.61943817138672 C 141.09349060058594 102.41825103759766 122.08352661132812 92.09467315673828 150.0684814453125 103.85713958740234" stroke-width="3.0" fill="none" stroke="rgb(0, 0, 0)" stroke-opacity="1.0" stroke-linecap="round" stroke-linejoin="round"/>
    <path d="M 61.75244140625 43.29494094848633 C 53.530330657958984 54.52359390258789 23.569883346557617 71.06501770019531 36.464271545410156 65.03116607666016" stroke-width="3.0" fill="none" stroke="rgb(0, 0, 0)" stroke-opacity="1.0" stroke-linecap="round" stroke-linejoin="round"/>
    <path d="M 110.52484130859375 58.5687255859375 C 118.30046844482422 63.82103729248047 113.23339080810547 69.41180419921875 107.42937469482422 54.6309700012207" stroke-width="3.0" fill="none" stroke="rgb(0, 0, 0)" stroke-opacity="1.0" stroke-linecap="round" stroke-linejoin="round"/>
    <path d="M 62.559146881103516 109.16707611083984 C 57.35307312011719 90.37812042236328 42.753089904785156 86.67306518554688 45.84424591064453 71.6014404296875" stroke-width="3.0" fill="none" stroke="rgb(0, 0, 0)" stroke-opacity="1.0" stroke-linecap="round" stroke-linejoin="round"/>
    <path d="M 180.59835815429688 41.305137634277344 C 170.04571533203125 71.64669799804688 189.1795196533203 69.19473266601562 168.5672149658203 83.07621002197266" stroke-width="3.0" fill="none" stroke="rgb(0, 0, 0)" stroke-opacity="1.0" stroke-linecap="round" stroke-linejoin="round"/>
    <path d="M 114.32939910888672 145.97589111328125 C 126.63587188720703 94.65267181396484 116.5846176147461 129.06373596191406 127.26612854003906 108.40917205810547" stroke-width="3.0" fill="none" stroke="rgb(0, 0, 0)" stroke-opacity="1.0" stroke-linecap="round" stroke-linejoin="round"/>
    <path d="M 42.13495635986328 92.76519012451172 C 21.258039474487305 182.18565368652344 10.011574745178223 129.20993041992188 40.675052642822266 199.79685974121094" stroke-width="3.0" fill="none" stroke="rgb(0, 0, 0)" stroke-opacity="1.0" stroke-linecap="round" stroke-linejoin="round"/>
    <path d="M 64.31041717529297 41.797332763671875 C 93.68653869628906 26.261322021484375 122.4316635131836 74.8717269897461 148.15316772460938 83.61903381347656" stroke-width="3.0" fill="none" stroke="rgb(0, 0, 0)" stroke-opacity="1.0" stroke-linecap="round" stroke-linejoin="round"/>
    <path d="M 46.671756744384766 96.73162078857422 C 83.38561248779297 128.99742126464844 76.49909973144531 112.3077621459961 104.09203338623047 119.25228118896484" stroke-width="3.0" fill="none" stroke="rgb(0, 0, 0)" stroke-opacity="1.0" stroke-linecap="round" stroke-linejoin="round"/>
    <path d="M 39.76426315307617 78.30313873291016 C 33.09562301635742 68.35074615478516 27.274221420288086 67.72671508789062 23.396060943603516 68.9224624633789" stroke-width="3.0" fill="none" stroke="rgb(0, 0, 0)" stroke-opacity="1.0" stroke-linecap="round" stroke-linejoin="round"/>
    <path d="M 149.07388305664062 84.89038848876953 C 208.7673797607422 76.78204345703125 167.84774780273438 77.69526672363281 174.39891052246094 95.56171417236328" stroke-width="3.0" fill="none" stroke="rgb(0, 0, 0)" stroke-opacity="1.0" stroke-linecap="round" stroke-linejoin="round"/>
    <path d="M 106.42646789550781 110.92645263671875 C 119.31562042236328 159.25547790527344 81.95558166503906 197.53013610839844 111.5486068725586 191.93727111816406" stroke-width="3.0" fill="none" stroke="rgb(0, 0, 0)" stroke-opacity="1.0" stroke-linecap="round" stroke-linejoin="round"/>
    <path d="M 176.66188049316406 61.046852111816406 C 193.1044921875 4.387120723724365 184.14707946777344 68.94756317138672 210.4403533935547 48.87504959106445" stroke-width="3.0" fill="none" stroke="rgb(0, 0, 0)" stroke-opacity="1.0" stroke-linecap="round" stroke-linejoin="round"/>
    <path d="M 195.93788146972656 63.95686721801758 C 160.1410369873047 42.0666389465332 209.01864624023438 34.0850830078125 202.51951599121094 60.616065979003906" stroke-width="3.0" fill="none" stroke="rgb(0, 0, 0)" stroke-opacity="1.0" stroke-linecap="round" stroke-linejoin="round"/>
  </g>
</svg>
