<?xml version="1.0" ?>
<svg xmlns="http://www.w3.org/2000/svg" version="1.1" width="224" height="224">
  <defs/>
  <g>
    <path d="M 151.2064971923828 103.05168914794922 C 117.6603775024414 81.04581451416016 178.5808563232422 131.70118713378906 119.15290832519531 73.89773559570312" stroke-width="3.0" fill="none" stroke="rgb(0, 0, 0)" stroke-opacity="1.0" stroke-linecap="round" stroke-linejoin="round"/>
    <path d="M 108.82184600830078 95.65422821044922 C 109.45454406738281 102.98306274414062 102.1895980834961 105.53761291503906 106.23303985595703 112.99375915527344" stroke-width="3.0" fill="none" stroke="rgb(0, 0, 0)" stroke-opacity="1.0" stroke-linecap="round" stroke-linejoin="round"/>
    <path d="M 138.91305541992188 105.37510681152344 C 137.3193817138672 67.67792510986328 128.65626525878906 137.03936767578125 183.87249755859375 83.85519409179688" stroke-width="3.0" fill="none" stroke="rgb(0, 0, 0)" stroke-opacity="1.0" stroke-linecap="round" stroke-linejoin="round"/>
    <path d="M 63.12078094482422 42.229312896728516 C 64.06348419189453 41.46806335449219 57.83638000488281 46.823646545410156 64.26188659667969 42.1313591003418" stroke-width="3.0" fill="none" stroke="rgb(0, 0, 0)" stroke-opacity="1.0" stroke-linecap="round" stroke-linejoin="round"/>
    <path d="M 128.15902709960938 84.3621826171875 C 111.89090728759766 37.82839584350586 111.78507232666016 67.36882781982422 94.69882202148438 43.52473449707031" stroke-width="3.0" fill="none" stroke="rgb(0, 0, 0)" stroke-opacity="1.0" stroke-linecap="round" stroke-linejoin="round"/>
    <path d="M 68.40423583984375 110.80231475830078 C 46.768768310546875 72.07642364501953 63.77217102050781 87.0677490234375 49.38949203491211 63.52831268310547" stroke-width="3.0" fill="none" stroke="rgb(0, 0, 0)" stroke-opacity="1.0" stroke-linecap="round" stroke-linejoin="round"/>
    <path d="M 187.19219970703125 42.758766174316406 C 188.652099609375 41.8238525390625 193.44337463378906 47.86160659790039 185.73287963867188 78.00916290283203" stroke-width="3.0" fill="none" stroke="rgb(0, 0, 0)" stroke-opacity="1.0" stroke-linecap="round" stroke-linejoin="round"/>
    <path d="M 102.84349822998047 192.11972045898438 C 123.22703552246094 81.1199722290039 123.0395278930664 121.0446548461914 131.11216735839844 102.30925750732422" stroke-width="3.0" fill="none" stroke="rgb(0, 0, 0)" stroke-opacity="1.0" stroke-linecap="round" stroke-linejoin="round"/>
    <path d="M 46.62512969970703 97.64260864257812 C 20.170246124267578 179.19924926757812 14.546173095703125 119.7697525024414 39.44908905029297 197.31863403320312" stroke-width="3.0" fill="none" stroke="rgb(0, 0, 0)" stroke-opacity="1.0" stroke-linecap="round" stroke-linejoin="round"/>
    <path d="M 63.81336975097656 42.877174377441406 C 95.37701416015625 15.37004566192627 144.7528076171875 109.19407653808594 167.79461669921875 80.60078430175781" stroke-width="3.0" fill="none" stroke="rgb(0, 0, 0)" stroke-opacity="1.0" stroke-linecap="round" stroke-linejoin="round"/>
    <path d="M 50.97770690917969 96.66175079345703 C 74.53653717041016 122.57870483398438 83.98328399658203 114.9398193359375 105.71764373779297 117.42069244384766" stroke-width="3.0" fill="none" stroke="rgb(0, 0, 0)" stroke-opacity="1.0" stroke-linecap="round" stroke-linejoin="round"/>
    <path d="M 22.49307632446289 131.83624267578125 C 8.571432113647461 66.125 19.79693031311035 81.30333709716797 58.6764030456543 44.70022964477539" stroke-width="3.0" fill="none" stroke="rgb(0, 0, 0)" stroke-opacity="1.0" stroke-linecap="round" stroke-linejoin="round"/>
    <path d="M 167.84292602539062 81.59867095947266 C 197.25816345214844 38.17212677001953 195.6747283935547 47.306270599365234 173.76913452148438 91.62748718261719" stroke-width="3.0" fill="none" stroke="rgb(0, 0, 0)" stroke-opacity="1.0" stroke-linecap="round" stroke-linejoin="round"/>
    <path d="M 104.42942810058594 118.88726806640625 C 109.84667205810547 179.66249084472656 76.28092956542969 198.18775939941406 110.95999908447266 187.5417938232422" stroke-width="3.0" fill="none" stroke="rgb(0, 0, 0)" stroke-opacity="1.0" stroke-linecap="round" stroke-linejoin="round"/>
    <path d="M 171.22000122070312 79.50626373291016 C 174.96914672851562 -2.7083933353424072 215.5437469482422 73.46283721923828 206.4945526123047 49.665550231933594" stroke-width="3.0" fill="none" stroke="rgb(0, 0, 0)" stroke-opacity="1.0" stroke-linecap="round" stroke-linejoin="round"/>
    <path d="M 194.72801208496094 60.81678009033203 C 147.3043975830078 37.940589904785156 253.18751525878906 47.12498092651367 199.82777404785156 58.82170486450195" stroke-width="3.0" fill="none" stroke="rgb(0, 0, 0)" stroke-opacity="1.0" stroke-linecap="round" stroke-linejoin="round"/>
  </g>
</svg>
