<?xml version="1.0" ?>
<svg xmlns="http://www.w3.org/2000/svg" version="1.1" width="224" height="224">
  <defs/>
  <g>
    <path d="M 127.59552001953125 84.91221618652344 C 118.12989807128906 74.23582458496094 125.63037109375 76.62694549560547 127.06098175048828 75.80174255371094" stroke-width="3.0" fill="none" stroke="rgb(0, 0, 0)" stroke-opacity="1.0" stroke-linecap="round" stroke-linejoin="round"/>
    <path d="M 89.50202178955078 98.37344360351562 C 91.52848815917969 96.71720123291016 85.39753723144531 97.51016998291016 93.19641876220703 108.35250854492188" stroke-width="3.0" fill="none" stroke="rgb(0, 0, 0)" stroke-opacity="1.0" stroke-linecap="round" stroke-linejoin="round"/>
    <path d="M 157.84629821777344 107.56538391113281 C 163.3203125 87.18665313720703 151.19110107421875 76.15263366699219 159.70726013183594 97.52410125732422" stroke-width="3.0" fill="none" stroke="rgb(0, 0, 0)" stroke-opacity="1.0" stroke-linecap="round" stroke-linejoin="round"/>
    <path d="M 65.26053619384766 60.06904983520508 C 61.07842254638672 88.17444610595703 45.769554138183594 91.56891632080078 52.06001281738281 96.41402435302734" stroke-width="3.0" fill="none" stroke="rgb(0, 0, 0)" stroke-opacity="1.0" stroke-linecap="round" stroke-linejoin="round"/>
    <path d="M 109.96139526367188 60.5954704284668 C 110.68959045410156 51.35243606567383 109.11605834960938 62.76335906982422 110.98802947998047 66.22720336914062" stroke-width="3.0" fill="none" stroke="rgb(0, 0, 0)" stroke-opacity="1.0" stroke-linecap="round" stroke-linejoin="round"/>
    <path d="M 55.003360748291016 86.77338409423828 C 50.14039993286133 108.97785186767578 52.986961364746094 97.31399536132812 51.197933197021484 90.41793823242188" stroke-width="3.0" fill="none" stroke="rgb(0, 0, 0)" stroke-opacity="1.0" stroke-linecap="round" stroke-linejoin="round"/>
    <path d="M 169.93991088867188 53.58732223510742 C 175.0555877685547 71.78718566894531 164.38821411132812 76.57466125488281 166.06556701660156 83.35215759277344" stroke-width="3.0" fill="none" stroke="rgb(0, 0, 0)" stroke-opacity="1.0" stroke-linecap="round" stroke-linejoin="round"/>
    <path d="M 106.15523529052734 128.2362823486328 C 109.07621765136719 120.75948333740234 101.38177490234375 127.73468780517578 107.47026062011719 119.44404602050781" stroke-width="3.0" fill="none" stroke="rgb(0, 0, 0)" stroke-opacity="1.0" stroke-linecap="round" stroke-linejoin="round"/>
    <path d="M 37.459632873535156 146.3978729248047 C 33.999114990234375 174.05087280273438 29.776227951049805 159.71128845214844 33.4168586730957 192.09117126464844" stroke-width="3.0" fill="none" stroke="rgb(0, 0, 0)" stroke-opacity="1.0" stroke-linecap="round" stroke-linejoin="round"/>
    <path d="M 109.56266021728516 51.065486907958984 C 117.6827621459961 56.37342834472656 124.15668487548828 55.19283676147461 128.14056396484375 71.33878326416016" stroke-width="3.0" fill="none" stroke="rgb(0, 0, 0)" stroke-opacity="1.0" stroke-linecap="round" stroke-linejoin="round"/>
    <path d="M 59.937007904052734 97.23860931396484 C 80.9395751953125 109.93727111816406 74.3298568725586 113.84113311767578 100.99851989746094 118.92916107177734" stroke-width="3.0" fill="none" stroke="rgb(0, 0, 0)" stroke-opacity="1.0" stroke-linecap="round" stroke-linejoin="round"/>
    <path d="M 26.2784481048584 89.34686279296875 C 17.20573616027832 74.28177642822266 17.083744049072266 83.60813903808594 20.578041076660156 78.30828094482422" stroke-width="3.0" fill="none" stroke="rgb(0, 0, 0)" stroke-opacity="1.0" stroke-linecap="round" stroke-linejoin="round"/>
    <path d="M 155.81243896484375 87.47639465332031 C 176.62173461914062 67.18865966796875 163.45474243164062 84.0645980834961 175.20565795898438 96.41683959960938" stroke-width="3.0" fill="none" stroke="rgb(0, 0, 0)" stroke-opacity="1.0" stroke-linecap="round" stroke-linejoin="round"/>
    <path d="M 102.4015884399414 120.53192901611328 C 111.04991149902344 144.87548828125 100.37039184570312 152.85577392578125 108.16458892822266 185.78623962402344" stroke-width="3.0" fill="none" stroke="rgb(0, 0, 0)" stroke-opacity="1.0" stroke-linecap="round" stroke-linejoin="round"/>
    <path d="M 174.95645141601562 45.10074234008789 C 179.74679565429688 21.082033157348633 181.5801239013672 47.00021743774414 199.50047302246094 48.70399475097656" stroke-width="3.0" fill="none" stroke="rgb(0, 0, 0)" stroke-opacity="1.0" stroke-linecap="round" stroke-linejoin="round"/>
    <path d="M 201.85879516601562 59.949684143066406 C 195.31422424316406 46.74169921875 205.03515625 47.731109619140625 215.48025512695312 51.77359390258789" stroke-width="3.0" fill="none" stroke="rgb(0, 0, 0)" stroke-opacity="1.0" stroke-linecap="round" stroke-linejoin="round"/>
  </g>
</svg>
