<?xml version="1.0" ?>
<svg xmlns="http://www.w3.org/2000/svg" version="1.1" width="224" height="224">
  <defs/>
  <g>
    <path d="M 155.24337768554688 101.86788177490234 C 120.13754272460938 95.42162322998047 164.50498962402344 113.47777557373047 131.83026123046875 86.54696655273438" stroke-width="3.0" fill="none" stroke="rgb(0, 0, 0)" stroke-opacity="1.0" stroke-linecap="round" stroke-linejoin="round"/>
    <path d="M 107.74410247802734 92.15216827392578 C 108.61563110351562 100.35025787353516 99.71625518798828 101.85758972167969 106.23100280761719 112.08543395996094" stroke-width="3.0" fill="none" stroke="rgb(0, 0, 0)" stroke-opacity="1.0" stroke-linecap="round" stroke-linejoin="round"/>
    <path d="M 136.63868713378906 106.44256591796875 C 151.45388793945312 78.60999298095703 111.65396118164062 120.85809326171875 171.48631286621094 95.85227966308594" stroke-width="3.0" fill="none" stroke="rgb(0, 0, 0)" stroke-opacity="1.0" stroke-linecap="round" stroke-linejoin="round"/>
    <path d="M 63.640586853027344 43.21580505371094 C 59.88690948486328 43.46885681152344 51.02687072753906 52.08736038208008 62.68855285644531 44.4681282043457" stroke-width="3.0" fill="none" stroke="rgb(0, 0, 0)" stroke-opacity="1.0" stroke-linecap="round" stroke-linejoin="round"/>
    <path d="M 117.16200256347656 58.07188415527344 C 109.00288391113281 52.1552848815918 100.42744445800781 52.57878494262695 95.47266387939453 42.82453918457031" stroke-width="3.0" fill="none" stroke="rgb(0, 0, 0)" stroke-opacity="1.0" stroke-linecap="round" stroke-linejoin="round"/>
    <path d="M 76.78202056884766 113.23027038574219 C 44.790557861328125 92.92159271240234 64.0130615234375 99.77003479003906 45.98462677001953 83.39167022705078" stroke-width="3.0" fill="none" stroke="rgb(0, 0, 0)" stroke-opacity="1.0" stroke-linecap="round" stroke-linejoin="round"/>
    <path d="M 187.95635986328125 44.66057205200195 C 174.12210083007812 65.23029327392578 202.40357971191406 57.75823974609375 177.32733154296875 82.41232299804688" stroke-width="3.0" fill="none" stroke="rgb(0, 0, 0)" stroke-opacity="1.0" stroke-linecap="round" stroke-linejoin="round"/>
    <path d="M 103.23240661621094 191.55517578125 C 124.52629089355469 79.22233581542969 116.8252182006836 129.8457489013672 133.16213989257812 103.23194122314453" stroke-width="3.0" fill="none" stroke="rgb(0, 0, 0)" stroke-opacity="1.0" stroke-linecap="round" stroke-linejoin="round"/>
    <path d="M 37.3939094543457 93.62278747558594 C 20.140701293945312 187.6141357421875 15.595419883728027 119.77495574951172 38.62593078613281 195.91647338867188" stroke-width="3.0" fill="none" stroke="rgb(0, 0, 0)" stroke-opacity="1.0" stroke-linecap="round" stroke-linejoin="round"/>
    <path d="M 62.62106704711914 44.118106842041016 C 91.77625274658203 13.509721755981445 136.4649200439453 96.86170959472656 166.82473754882812 87.06327819824219" stroke-width="3.0" fill="none" stroke="rgb(0, 0, 0)" stroke-opacity="1.0" stroke-linecap="round" stroke-linejoin="round"/>
    <path d="M 37.879364013671875 100.94055938720703 C 93.97706604003906 128.83999633789062 82.10460662841797 113.00994110107422 104.4174575805664 116.94210815429688" stroke-width="3.0" fill="none" stroke="rgb(0, 0, 0)" stroke-opacity="1.0" stroke-linecap="round" stroke-linejoin="round"/>
    <path d="M 42.82219314575195 80.1550064086914 C 41.37892532348633 68.21640014648438 37.43738555908203 62.411102294921875 35.49483108520508 61.74958038330078" stroke-width="3.0" fill="none" stroke="rgb(0, 0, 0)" stroke-opacity="1.0" stroke-linecap="round" stroke-linejoin="round"/>
    <path d="M 167.2509765625 86.97880554199219 C 206.90968322753906 58.917301177978516 183.34288024902344 65.05782318115234 175.12359619140625 94.1418685913086" stroke-width="3.0" fill="none" stroke="rgb(0, 0, 0)" stroke-opacity="1.0" stroke-linecap="round" stroke-linejoin="round"/>
    <path d="M 104.40303802490234 117.685546875 C 105.53134155273438 189.13626098632812 77.13863372802734 192.79812622070312 111.33123779296875 188.15737915039062" stroke-width="3.0" fill="none" stroke="rgb(0, 0, 0)" stroke-opacity="1.0" stroke-linecap="round" stroke-linejoin="round"/>
    <path d="M 175.48756408691406 81.98395538330078 C 175.25054931640625 -7.0910258293151855 187.70970153808594 76.82302856445312 196.66714477539062 48.078330993652344" stroke-width="3.0" fill="none" stroke="rgb(0, 0, 0)" stroke-opacity="1.0" stroke-linecap="round" stroke-linejoin="round"/>
    <path d="M 193.17002868652344 60.41139602661133 C 148.35272216796875 41.46137619018555 236.37319946289062 50.672279357910156 204.2270050048828 54.98495864868164" stroke-width="3.0" fill="none" stroke="rgb(0, 0, 0)" stroke-opacity="1.0" stroke-linecap="round" stroke-linejoin="round"/>
  </g>
</svg>
