<?xml version="1.0" ?>
<svg xmlns="http://www.w3.org/2000/svg" version="1.1" width="224" height="224">
  <defs/>
  <g>
    <path d="M 141.53707885742188 99.47376251220703 C 119.29378509521484 80.56238555908203 126.56796264648438 70.25967407226562 129.47003173828125 87.66876983642578" stroke-width="3.0" fill="none" stroke="rgb(0, 0, 0)" stroke-opacity="1.0" stroke-linecap="round" stroke-linejoin="round"/>
    <path d="M 95.53219604492188 90.39972686767578 C 92.8828125 94.66635131835938 99.76021575927734 106.81877899169922 107.70247650146484 112.11617279052734" stroke-width="3.0" fill="none" stroke="rgb(0, 0, 0)" stroke-opacity="1.0" stroke-linecap="round" stroke-linejoin="round"/>
    <path d="M 134.73973083496094 108.6080322265625 C 147.9980010986328 100.61239624023438 126.37046813964844 91.57441711425781 152.29278564453125 104.78973388671875" stroke-width="3.0" fill="none" stroke="rgb(0, 0, 0)" stroke-opacity="1.0" stroke-linecap="round" stroke-linejoin="round"/>
    <path d="M 60.407596588134766 44.40071487426758 C 55.83674240112305 61.431827545166016 29.767786026000977 83.00305938720703 39.50674819946289 73.80191802978516" stroke-width="3.0" fill="none" stroke="rgb(0, 0, 0)" stroke-opacity="1.0" stroke-linecap="round" stroke-linejoin="round"/>
    <path d="M 111.47661590576172 57.15129089355469 C 118.16975402832031 65.5049819946289 117.50067901611328 62.846778869628906 109.28046417236328 53.26229476928711" stroke-width="3.0" fill="none" stroke="rgb(0, 0, 0)" stroke-opacity="1.0" stroke-linecap="round" stroke-linejoin="round"/>
    <path d="M 60.32625198364258 106.02897644042969 C 58.75809860229492 93.23981475830078 47.98724365234375 82.96358489990234 48.10346603393555 73.97964477539062" stroke-width="3.0" fill="none" stroke="rgb(0, 0, 0)" stroke-opacity="1.0" stroke-linecap="round" stroke-linejoin="round"/>
    <path d="M 180.2327423095703 43.64628982543945 C 176.43093872070312 79.4977798461914 187.77566528320312 74.42597961425781 165.79249572753906 82.04339599609375" stroke-width="3.0" fill="none" stroke="rgb(0, 0, 0)" stroke-opacity="1.0" stroke-linecap="round" stroke-linejoin="round"/>
    <path d="M 112.77667999267578 137.0970001220703 C 126.39208221435547 97.22264862060547 110.92240142822266 129.46267700195312 127.52340698242188 110.98139953613281" stroke-width="3.0" fill="none" stroke="rgb(0, 0, 0)" stroke-opacity="1.0" stroke-linecap="round" stroke-linejoin="round"/>
    <path d="M 40.01512145996094 101.69361877441406 C 21.226179122924805 185.25318908691406 14.748133659362793 128.80262756347656 41.42623519897461 198.1649627685547" stroke-width="3.0" fill="none" stroke="rgb(0, 0, 0)" stroke-opacity="1.0" stroke-linecap="round" stroke-linejoin="round"/>
    <path d="M 61.6658821105957 43.02080154418945 C 103.0440444946289 31.966169357299805 122.17420959472656 73.34855651855469 146.88893127441406 82.30474090576172" stroke-width="3.0" fill="none" stroke="rgb(0, 0, 0)" stroke-opacity="1.0" stroke-linecap="round" stroke-linejoin="round"/>
    <path d="M 45.680992126464844 94.3710708618164 C 83.3775863647461 127.12210083007812 74.07513427734375 114.83024597167969 104.7210464477539 118.45142364501953" stroke-width="3.0" fill="none" stroke="rgb(0, 0, 0)" stroke-opacity="1.0" stroke-linecap="round" stroke-linejoin="round"/>
    <path d="M 37.85610580444336 82.75775909423828 C 33.21684265136719 75.44181823730469 22.711774826049805 73.61312866210938 22.258028030395508 75.04597473144531" stroke-width="3.0" fill="none" stroke="rgb(0, 0, 0)" stroke-opacity="1.0" stroke-linecap="round" stroke-linejoin="round"/>
    <path d="M 147.48095703125 82.46976470947266 C 206.99559020996094 81.54939270019531 164.2440185546875 80.29689025878906 173.28500366210938 100.23710632324219" stroke-width="3.0" fill="none" stroke="rgb(0, 0, 0)" stroke-opacity="1.0" stroke-linecap="round" stroke-linejoin="round"/>
    <path d="M 105.9020767211914 110.64612579345703 C 116.56626892089844 153.03627014160156 79.92444610595703 201.11688232421875 111.15918731689453 191.7569580078125" stroke-width="3.0" fill="none" stroke="rgb(0, 0, 0)" stroke-opacity="1.0" stroke-linecap="round" stroke-linejoin="round"/>
    <path d="M 174.26551818847656 60.64628601074219 C 198.04598999023438 8.152423858642578 183.77003479003906 69.03057098388672 204.33160400390625 46.16555404663086" stroke-width="3.0" fill="none" stroke="rgb(0, 0, 0)" stroke-opacity="1.0" stroke-linecap="round" stroke-linejoin="round"/>
    <path d="M 199.0169219970703 61.02067184448242 C 159.55294799804688 38.9223747253418 205.99522399902344 34.33171081542969 202.1621551513672 57.847496032714844" stroke-width="3.0" fill="none" stroke="rgb(0, 0, 0)" stroke-opacity="1.0" stroke-linecap="round" stroke-linejoin="round"/>
  </g>
</svg>
