<?xml version="1.0" ?>
<svg xmlns="http://www.w3.org/2000/svg" version="1.1" width="224" height="224">
  <defs/>
  <g>
    <path d="M 133.099609375 108.95439147949219 C 130.60264587402344 97.02521514892578 146.2178497314453 133.99417114257812 122.38679504394531 70.05552673339844" stroke-width="3.0" fill="none" stroke="rgb(0, 0, 0)" stroke-opacity="1.0" stroke-linecap="round" stroke-linejoin="round"/>
    <path d="M 106.98562622070312 93.46609497070312 C 112.28688049316406 102.46320343017578 102.11774444580078 101.9180908203125 111.49468231201172 113.72948455810547" stroke-width="3.0" fill="none" stroke="rgb(0, 0, 0)" stroke-opacity="1.0" stroke-linecap="round" stroke-linejoin="round"/>
    <path d="M 127.29964447021484 109.89884185791016 C 143.1585693359375 97.8237533569336 157.13406372070312 130.1519775390625 197.111083984375 56.150875091552734" stroke-width="3.0" fill="none" stroke="rgb(0, 0, 0)" stroke-opacity="1.0" stroke-linecap="round" stroke-linejoin="round"/>
    <path d="M 65.60990142822266 39.930267333984375 C 65.29298400878906 39.44830322265625 53.328773498535156 47.332332611083984 43.250946044921875 58.906829833984375" stroke-width="3.0" fill="none" stroke="rgb(0, 0, 0)" stroke-opacity="1.0" stroke-linecap="round" stroke-linejoin="round"/>
    <path d="M 143.6823272705078 80.63198852539062 C 104.06983184814453 39.0074577331543 113.03964233398438 64.50784301757812 96.09164428710938 43.80303955078125" stroke-width="3.0" fill="none" stroke="rgb(0, 0, 0)" stroke-opacity="1.0" stroke-linecap="round" stroke-linejoin="round"/>
    <path d="M 65.86186981201172 108.90921783447266 C 41.86146545410156 80.00505828857422 61.791351318359375 96.30989074707031 42.98442459106445 73.99982452392578" stroke-width="3.0" fill="none" stroke="rgb(0, 0, 0)" stroke-opacity="1.0" stroke-linecap="round" stroke-linejoin="round"/>
    <path d="M 184.4837188720703 63.86285400390625 C 172.1156463623047 32.2459716796875 195.33192443847656 47.10302734375 188.00730895996094 80.68525695800781" stroke-width="3.0" fill="none" stroke="rgb(0, 0, 0)" stroke-opacity="1.0" stroke-linecap="round" stroke-linejoin="round"/>
    <path d="M 104.27897644042969 195.52401733398438 C 112.0369644165039 111.98235321044922 118.33656311035156 144.4010009765625 125.13693237304688 98.75230407714844" stroke-width="3.0" fill="none" stroke="rgb(0, 0, 0)" stroke-opacity="1.0" stroke-linecap="round" stroke-linejoin="round"/>
    <path d="M 48.742000579833984 100.06707000732422 C 13.28451919555664 183.54518127441406 30.0355281829834 131.14718627929688 37.08913040161133 197.98460388183594" stroke-width="3.0" fill="none" stroke="rgb(0, 0, 0)" stroke-opacity="1.0" stroke-linecap="round" stroke-linejoin="round"/>
    <path d="M 64.97540283203125 39.90644836425781 C 101.65279388427734 13.409031867980957 157.71829223632812 138.3677215576172 174.70211791992188 52.90542984008789" stroke-width="3.0" fill="none" stroke="rgb(0, 0, 0)" stroke-opacity="1.0" stroke-linecap="round" stroke-linejoin="round"/>
    <path d="M 48.54620361328125 100.35990905761719 C 84.36978149414062 121.39652252197266 82.34222412109375 109.28007507324219 106.86990356445312 116.04077911376953" stroke-width="3.0" fill="none" stroke="rgb(0, 0, 0)" stroke-opacity="1.0" stroke-linecap="round" stroke-linejoin="round"/>
    <path d="M 24.67734718322754 146.34718322753906 C 32.73429489135742 107.26924896240234 -13.226539611816406 90.31648254394531 51.0579719543457 53.752811431884766" stroke-width="3.0" fill="none" stroke="rgb(0, 0, 0)" stroke-opacity="1.0" stroke-linecap="round" stroke-linejoin="round"/>
    <path d="M 174.7625732421875 90.98746490478516 C 191.33238220214844 20.46703338623047 205.42857360839844 27.345714569091797 172.13975524902344 94.2130355834961" stroke-width="3.0" fill="none" stroke="rgb(0, 0, 0)" stroke-opacity="1.0" stroke-linecap="round" stroke-linejoin="round"/>
    <path d="M 107.05103302001953 114.901123046875 C 108.92695617675781 184.76083374023438 81.38711547851562 203.16561889648438 112.52742767333984 189.79893493652344" stroke-width="3.0" fill="none" stroke="rgb(0, 0, 0)" stroke-opacity="1.0" stroke-linecap="round" stroke-linejoin="round"/>
    <path d="M 169.63824462890625 71.35336303710938 C 181.9414825439453 1.1645642518997192 213.95132446289062 75.64696502685547 208.75897216796875 47.32231903076172" stroke-width="3.0" fill="none" stroke="rgb(0, 0, 0)" stroke-opacity="1.0" stroke-linecap="round" stroke-linejoin="round"/>
    <path d="M 194.25827026367188 63.028263092041016 C 158.62294006347656 41.85136413574219 257.6512756347656 46.66709899902344 195.2097930908203 57.79163360595703" stroke-width="3.0" fill="none" stroke="rgb(0, 0, 0)" stroke-opacity="1.0" stroke-linecap="round" stroke-linejoin="round"/>
  </g>
</svg>
