<?xml version="1.0" ?>
<svg xmlns="http://www.w3.org/2000/svg" version="1.1" width="224" height="224">
  <defs/>
  <g>
    <path d="M 154.58070373535156 101.5483169555664 C 122.91303253173828 96.3023452758789 163.3941192626953 113.40607452392578 130.5929412841797 89.64949035644531" stroke-width="3.0" fill="none" stroke="rgb(0, 0, 0)" stroke-opacity="1.0" stroke-linecap="round" stroke-linejoin="round"/>
    <path d="M 110.07453155517578 91.02387237548828 C 109.00154876708984 97.17440795898438 101.56462860107422 100.63349151611328 108.3677749633789 109.6629409790039" stroke-width="3.0" fill="none" stroke="rgb(0, 0, 0)" stroke-opacity="1.0" stroke-linecap="round" stroke-linejoin="round"/>
    <path d="M 137.7265625 105.47191619873047 C 150.5907745361328 81.54920959472656 112.56047821044922 120.45513153076172 170.953125 96.36693572998047" stroke-width="3.0" fill="none" stroke="rgb(0, 0, 0)" stroke-opacity="1.0" stroke-linecap="round" stroke-linejoin="round"/>
    <path d="M 62.07887649536133 41.53630828857422 C 58.08827590942383 43.782718658447266 49.918785095214844 55.70541763305664 58.42963409423828 45.833866119384766" stroke-width="3.0" fill="none" stroke="rgb(0, 0, 0)" stroke-opacity="1.0" stroke-linecap="round" stroke-linejoin="round"/>
    <path d="M 110.65523529052734 51.720970153808594 C 116.08963012695312 48.45930099487305 102.13167572021484 52.252872467041016 98.1217041015625 43.170963287353516" stroke-width="3.0" fill="none" stroke="rgb(0, 0, 0)" stroke-opacity="1.0" stroke-linecap="round" stroke-linejoin="round"/>
    <path d="M 76.57373046875 114.38566589355469 C 46.51752471923828 87.1951904296875 68.12428283691406 98.29793548583984 48.07625961303711 83.91475677490234" stroke-width="3.0" fill="none" stroke="rgb(0, 0, 0)" stroke-opacity="1.0" stroke-linecap="round" stroke-linejoin="round"/>
    <path d="M 188.06871032714844 43.26211166381836 C 176.548095703125 64.9671859741211 207.47439575195312 61.65662384033203 178.9319305419922 84.28343963623047" stroke-width="3.0" fill="none" stroke="rgb(0, 0, 0)" stroke-opacity="1.0" stroke-linecap="round" stroke-linejoin="round"/>
    <path d="M 101.96178436279297 191.0142059326172 C 123.01942443847656 80.40861511230469 118.89805603027344 136.26901245117188 130.52757263183594 102.00553131103516" stroke-width="3.0" fill="none" stroke="rgb(0, 0, 0)" stroke-opacity="1.0" stroke-linecap="round" stroke-linejoin="round"/>
    <path d="M 43.1508903503418 91.84968566894531 C 18.73699951171875 186.92274475097656 17.592266082763672 120.47869110107422 38.17851257324219 196.62852478027344" stroke-width="3.0" fill="none" stroke="rgb(0, 0, 0)" stroke-opacity="1.0" stroke-linecap="round" stroke-linejoin="round"/>
    <path d="M 63.609161376953125 40.85496520996094 C 92.04292297363281 10.433737754821777 136.7382049560547 93.12631225585938 166.1900634765625 87.52749633789062" stroke-width="3.0" fill="none" stroke="rgb(0, 0, 0)" stroke-opacity="1.0" stroke-linecap="round" stroke-linejoin="round"/>
    <path d="M 45.251712799072266 99.78042602539062 C 99.72742462158203 123.49891662597656 86.96717071533203 113.09297180175781 104.40118408203125 114.31936645507812" stroke-width="3.0" fill="none" stroke="rgb(0, 0, 0)" stroke-opacity="1.0" stroke-linecap="round" stroke-linejoin="round"/>
    <path d="M 45.53683853149414 75.36610412597656 C 43.69015884399414 67.65739440917969 36.92708206176758 63.686466217041016 36.695674896240234 63.17953872680664" stroke-width="3.0" fill="none" stroke="rgb(0, 0, 0)" stroke-opacity="1.0" stroke-linecap="round" stroke-linejoin="round"/>
    <path d="M 165.8238983154297 87.29360961914062 C 212.89706420898438 65.7126693725586 182.91998291015625 70.28730773925781 173.41519165039062 94.20842742919922" stroke-width="3.0" fill="none" stroke="rgb(0, 0, 0)" stroke-opacity="1.0" stroke-linecap="round" stroke-linejoin="round"/>
    <path d="M 105.6251449584961 114.66213989257812 C 107.5422592163086 186.48583984375 79.12354278564453 188.61532592773438 109.79399108886719 191.82269287109375" stroke-width="3.0" fill="none" stroke="rgb(0, 0, 0)" stroke-opacity="1.0" stroke-linecap="round" stroke-linejoin="round"/>
    <path d="M 174.23211669921875 81.45675659179688 C 171.84185791015625 -11.653667449951172 192.6065673828125 73.94866180419922 196.1448516845703 47.81239318847656" stroke-width="3.0" fill="none" stroke="rgb(0, 0, 0)" stroke-opacity="1.0" stroke-linecap="round" stroke-linejoin="round"/>
    <path d="M 194.26910400390625 60.81364059448242 C 149.23231506347656 36.891456604003906 234.16543579101562 47.851219177246094 205.78887939453125 54.453304290771484" stroke-width="3.0" fill="none" stroke="rgb(0, 0, 0)" stroke-opacity="1.0" stroke-linecap="round" stroke-linejoin="round"/>
  </g>
</svg>
