<?xml version="1.0" ?>
<svg xmlns="http://www.w3.org/2000/svg" version="1.1" width="224" height="224">
  <defs/>
  <g>
    <path d="M 141.322265625 102.07723999023438 C 124.34345245361328 77.6744384765625 123.70695495605469 80.29484558105469 129.9245147705078 88.6278076171875" stroke-width="3.0" fill="none" stroke="rgb(0, 0, 0)" stroke-opacity="1.0" stroke-linecap="round" stroke-linejoin="round"/>
    <path d="M 97.13395690917969 94.92069244384766 C 95.97480010986328 95.478515625 99.14939880371094 103.78187561035156 107.03450012207031 107.64617156982422" stroke-width="3.0" fill="none" stroke="rgb(0, 0, 0)" stroke-opacity="1.0" stroke-linecap="round" stroke-linejoin="round"/>
    <path d="M 127.3314208984375 108.26591491699219 C 148.4497833251953 93.35880279541016 122.96662902832031 88.8525390625 154.17324829101562 104.38360595703125" stroke-width="3.0" fill="none" stroke="rgb(0, 0, 0)" stroke-opacity="1.0" stroke-linecap="round" stroke-linejoin="round"/>
    <path d="M 61.62129592895508 43.39805603027344 C 51.926292419433594 53.10967254638672 24.276578903198242 69.25199890136719 39.51844787597656 59.144771575927734" stroke-width="3.0" fill="none" stroke="rgb(0, 0, 0)" stroke-opacity="1.0" stroke-linecap="round" stroke-linejoin="round"/>
    <path d="M 109.0854721069336 56.5422248840332 C 119.86862182617188 57.77741622924805 113.32676696777344 61.07994079589844 105.37318420410156 52.64350891113281" stroke-width="3.0" fill="none" stroke="rgb(0, 0, 0)" stroke-opacity="1.0" stroke-linecap="round" stroke-linejoin="round"/>
    <path d="M 67.73545837402344 110.81282043457031 C 57.45060348510742 89.42413330078125 49.24761962890625 89.01783752441406 47.13998031616211 78.87940979003906" stroke-width="3.0" fill="none" stroke="rgb(0, 0, 0)" stroke-opacity="1.0" stroke-linecap="round" stroke-linejoin="round"/>
    <path d="M 180.16162109375 43.98769760131836 C 172.20860290527344 70.98251342773438 187.3979034423828 72.96192169189453 168.51632690429688 80.0142822265625" stroke-width="3.0" fill="none" stroke="rgb(0, 0, 0)" stroke-opacity="1.0" stroke-linecap="round" stroke-linejoin="round"/>
    <path d="M 113.24674224853516 148.03262329101562 C 122.4911880493164 93.11751556396484 117.41881561279297 124.33218383789062 129.22056579589844 102.40980529785156" stroke-width="3.0" fill="none" stroke="rgb(0, 0, 0)" stroke-opacity="1.0" stroke-linecap="round" stroke-linejoin="round"/>
    <path d="M 47.873748779296875 94.66678619384766 C 19.332441329956055 177.8443603515625 14.41969108581543 116.76258850097656 38.63325500488281 200.1509552001953" stroke-width="3.0" fill="none" stroke="rgb(0, 0, 0)" stroke-opacity="1.0" stroke-linecap="round" stroke-linejoin="round"/>
    <path d="M 60.686851501464844 43.849151611328125 C 89.93435668945312 20.409664154052734 126.67011260986328 76.30023956298828 150.0689697265625 82.39874267578125" stroke-width="3.0" fill="none" stroke="rgb(0, 0, 0)" stroke-opacity="1.0" stroke-linecap="round" stroke-linejoin="round"/>
    <path d="M 46.42901611328125 100.8210220336914 C 91.20336151123047 124.18152618408203 80.36717987060547 116.1737060546875 103.71697998046875 119.1951904296875" stroke-width="3.0" fill="none" stroke="rgb(0, 0, 0)" stroke-opacity="1.0" stroke-linecap="round" stroke-linejoin="round"/>
    <path d="M 42.114933013916016 79.4621353149414 C 33.429134368896484 67.76078033447266 25.943912506103516 67.59725952148438 25.327360153198242 68.94359588623047" stroke-width="3.0" fill="none" stroke="rgb(0, 0, 0)" stroke-opacity="1.0" stroke-linecap="round" stroke-linejoin="round"/>
    <path d="M 151.6339569091797 82.04774475097656 C 212.36651611328125 76.35358428955078 163.8474884033203 76.24083709716797 175.158447265625 94.729248046875" stroke-width="3.0" fill="none" stroke="rgb(0, 0, 0)" stroke-opacity="1.0" stroke-linecap="round" stroke-linejoin="round"/>
    <path d="M 106.96397399902344 111.36626434326172 C 113.40435028076172 160.11798095703125 81.6361083984375 202.6724090576172 110.74764251708984 191.32777404785156" stroke-width="3.0" fill="none" stroke="rgb(0, 0, 0)" stroke-opacity="1.0" stroke-linecap="round" stroke-linejoin="round"/>
    <path d="M 176.29029846191406 61.487159729003906 C 191.94021606445312 12.3934907913208 180.60154724121094 65.95802307128906 209.50030517578125 49.40761947631836" stroke-width="3.0" fill="none" stroke="rgb(0, 0, 0)" stroke-opacity="1.0" stroke-linecap="round" stroke-linejoin="round"/>
    <path d="M 192.78253173828125 66.39701843261719 C 162.3219757080078 40.28916549682617 209.81520080566406 38.39502716064453 198.1188201904297 60.63352584838867" stroke-width="3.0" fill="none" stroke="rgb(0, 0, 0)" stroke-opacity="1.0" stroke-linecap="round" stroke-linejoin="round"/>
  </g>
</svg>
