<?xml version="1.0" ?>
<svg xmlns="http://www.w3.org/2000/svg" version="1.1" width="224" height="224">
  <defs/>
  <g>
    <path d="M 152.3368682861328 100.4674072265625 C 120.33106231689453 80.97406005859375 178.16488647460938 128.53428649902344 123.94832611083984 73.65714263916016" stroke-width="3.0" fill="none" stroke="rgb(0, 0, 0)" stroke-opacity="1.0" stroke-linecap="round" stroke-linejoin="round"/>
    <path d="M 103.25334167480469 96.35006713867188 C 103.30204772949219 107.25228881835938 97.24512481689453 97.5644302368164 105.922119140625 114.21739959716797" stroke-width="3.0" fill="none" stroke="rgb(0, 0, 0)" stroke-opacity="1.0" stroke-linecap="round" stroke-linejoin="round"/>
    <path d="M 139.90106201171875 103.37757873535156 C 142.5554656982422 64.73081970214844 124.37307739257812 128.01303100585938 176.2665252685547 89.49229431152344" stroke-width="3.0" fill="none" stroke="rgb(0, 0, 0)" stroke-opacity="1.0" stroke-linecap="round" stroke-linejoin="round"/>
    <path d="M 61.44572067260742 42.57441711425781 C 63.092384338378906 41.70066452026367 56.32781982421875 47.16817092895508 62.344791412353516 41.545467376708984" stroke-width="3.0" fill="none" stroke="rgb(0, 0, 0)" stroke-opacity="1.0" stroke-linecap="round" stroke-linejoin="round"/>
    <path d="M 127.34858703613281 83.76166534423828 C 114.16915130615234 46.60875701904297 109.09479522705078 67.48551940917969 98.36114501953125 47.511390686035156" stroke-width="3.0" fill="none" stroke="rgb(0, 0, 0)" stroke-opacity="1.0" stroke-linecap="round" stroke-linejoin="round"/>
    <path d="M 72.13755798339844 112.56165313720703 C 46.44576644897461 78.43368530273438 60.6262092590332 86.65681457519531 49.0518684387207 60.37680435180664" stroke-width="3.0" fill="none" stroke="rgb(0, 0, 0)" stroke-opacity="1.0" stroke-linecap="round" stroke-linejoin="round"/>
    <path d="M 181.47705078125 38.40443801879883 C 183.6272430419922 43.109375 193.9871368408203 49.241146087646484 170.9127197265625 74.9710922241211" stroke-width="3.0" fill="none" stroke="rgb(0, 0, 0)" stroke-opacity="1.0" stroke-linecap="round" stroke-linejoin="round"/>
    <path d="M 105.39388275146484 194.1192169189453 C 125.27806091308594 82.35112762451172 122.22789001464844 122.7836685180664 132.32240295410156 100.6430892944336" stroke-width="3.0" fill="none" stroke="rgb(0, 0, 0)" stroke-opacity="1.0" stroke-linecap="round" stroke-linejoin="round"/>
    <path d="M 50.012428283691406 89.73371124267578 C 25.964181900024414 188.07086181640625 13.54762077331543 121.0406723022461 40.471744537353516 201.43931579589844" stroke-width="3.0" fill="none" stroke="rgb(0, 0, 0)" stroke-opacity="1.0" stroke-linecap="round" stroke-linejoin="round"/>
    <path d="M 62.78651428222656 42.10969543457031 C 90.05711364746094 15.129199028015137 139.65231323242188 104.97563934326172 161.92123413085938 83.7801513671875" stroke-width="3.0" fill="none" stroke="rgb(0, 0, 0)" stroke-opacity="1.0" stroke-linecap="round" stroke-linejoin="round"/>
    <path d="M 52.34903335571289 91.41650390625 C 74.19252014160156 125.06988525390625 79.49663543701172 114.6598892211914 106.17164611816406 118.7492446899414" stroke-width="3.0" fill="none" stroke="rgb(0, 0, 0)" stroke-opacity="1.0" stroke-linecap="round" stroke-linejoin="round"/>
    <path d="M 24.680988311767578 129.3732147216797 C 5.5549092292785645 65.77619934082031 26.222597122192383 75.49388122558594 58.963294982910156 43.62405014038086" stroke-width="3.0" fill="none" stroke="rgb(0, 0, 0)" stroke-opacity="1.0" stroke-linecap="round" stroke-linejoin="round"/>
    <path d="M 164.1916046142578 82.2948226928711 C 197.57986450195312 41.2847900390625 201.74380493164062 57.09564208984375 178.0198211669922 87.10514068603516" stroke-width="3.0" fill="none" stroke="rgb(0, 0, 0)" stroke-opacity="1.0" stroke-linecap="round" stroke-linejoin="round"/>
    <path d="M 105.21477508544922 119.9801025390625 C 109.05217742919922 181.9794158935547 78.76591491699219 203.38082885742188 109.68276977539062 189.73410034179688" stroke-width="3.0" fill="none" stroke="rgb(0, 0, 0)" stroke-opacity="1.0" stroke-linecap="round" stroke-linejoin="round"/>
    <path d="M 172.16424560546875 83.88629913330078 C 172.85720825195312 -4.220587253570557 207.4794464111328 75.18524169921875 200.6831817626953 44.81345748901367" stroke-width="3.0" fill="none" stroke="rgb(0, 0, 0)" stroke-opacity="1.0" stroke-linecap="round" stroke-linejoin="round"/>
    <path d="M 198.42884826660156 63.123741149902344 C 144.63265991210938 37.98515319824219 235.9219512939453 41.054237365722656 191.8498992919922 52.97905349731445" stroke-width="3.0" fill="none" stroke="rgb(0, 0, 0)" stroke-opacity="1.0" stroke-linecap="round" stroke-linejoin="round"/>
  </g>
</svg>
