<?xml version="1.0" ?>
<svg xmlns="http://www.w3.org/2000/svg" version="1.1" width="224" height="224">
  <defs/>
  <g>
    <path d="M 134.60443115234375 106.99813842773438 C 118.58758544921875 94.4146499633789 148.71827697753906 138.7847900390625 116.15773010253906 66.58415222167969" stroke-width="3.0" fill="none" stroke="rgb(0, 0, 0)" stroke-opacity="1.0" stroke-linecap="round" stroke-linejoin="round"/>
    <path d="M 108.97844696044922 93.83463287353516 C 112.36903381347656 105.2738037109375 103.40067291259766 102.56856536865234 108.44530487060547 113.69400787353516" stroke-width="3.0" fill="none" stroke="rgb(0, 0, 0)" stroke-opacity="1.0" stroke-linecap="round" stroke-linejoin="round"/>
    <path d="M 127.93925476074219 111.03223419189453 C 130.9980926513672 85.0421142578125 145.87059020996094 138.23681640625 187.37147521972656 73.0735092163086" stroke-width="3.0" fill="none" stroke="rgb(0, 0, 0)" stroke-opacity="1.0" stroke-linecap="round" stroke-linejoin="round"/>
    <path d="M 67.89850616455078 39.093631744384766 C 65.52188873291016 39.693687438964844 54.012786865234375 47.2635612487793 43.13410186767578 56.45636749267578" stroke-width="3.0" fill="none" stroke="rgb(0, 0, 0)" stroke-opacity="1.0" stroke-linecap="round" stroke-linejoin="round"/>
    <path d="M 132.478515625 83.85337829589844 C 106.3712158203125 40.54180145263672 111.69495391845703 67.47732543945312 95.44087982177734 47.31424331665039" stroke-width="3.0" fill="none" stroke="rgb(0, 0, 0)" stroke-opacity="1.0" stroke-linecap="round" stroke-linejoin="round"/>
    <path d="M 68.71856689453125 111.35633850097656 C 37.915855407714844 81.9185791015625 61.93132400512695 99.1285171508789 40.589542388916016 75.43020629882812" stroke-width="3.0" fill="none" stroke="rgb(0, 0, 0)" stroke-opacity="1.0" stroke-linecap="round" stroke-linejoin="round"/>
    <path d="M 182.86289978027344 61.54034423828125 C 171.7542266845703 42.47423553466797 196.69297790527344 56.055179595947266 187.58799743652344 80.30139923095703" stroke-width="3.0" fill="none" stroke="rgb(0, 0, 0)" stroke-opacity="1.0" stroke-linecap="round" stroke-linejoin="round"/>
    <path d="M 100.13976287841797 191.18301391601562 C 118.26138305664062 87.48025512695312 120.94621276855469 127.26937103271484 121.12122344970703 107.17227935791016" stroke-width="3.0" fill="none" stroke="rgb(0, 0, 0)" stroke-opacity="1.0" stroke-linecap="round" stroke-linejoin="round"/>
    <path d="M 47.85384750366211 100.05400848388672 C 25.879913330078125 175.5318145751953 13.337465286254883 128.2752227783203 40.89405059814453 199.04237365722656" stroke-width="3.0" fill="none" stroke="rgb(0, 0, 0)" stroke-opacity="1.0" stroke-linecap="round" stroke-linejoin="round"/>
    <path d="M 64.17422485351562 41.816402435302734 C 99.55492401123047 19.308809280395508 161.83482360839844 137.1283721923828 176.67649841308594 57.94514846801758" stroke-width="3.0" fill="none" stroke="rgb(0, 0, 0)" stroke-opacity="1.0" stroke-linecap="round" stroke-linejoin="round"/>
    <path d="M 50.120330810546875 102.1574935913086 C 82.30461120605469 123.69923400878906 79.31227111816406 112.5115966796875 105.06391143798828 118.77989196777344" stroke-width="3.0" fill="none" stroke="rgb(0, 0, 0)" stroke-opacity="1.0" stroke-linecap="round" stroke-linejoin="round"/>
    <path d="M 22.280302047729492 136.16482543945312 C 14.8419771194458 78.90042114257812 2.5846378803253174 86.14818572998047 52.26544189453125 50.906803131103516" stroke-width="3.0" fill="none" stroke="rgb(0, 0, 0)" stroke-opacity="1.0" stroke-linecap="round" stroke-linejoin="round"/>
    <path d="M 175.5401153564453 88.52226257324219 C 191.1448516845703 20.80742835998535 203.7338409423828 31.009450912475586 170.1262664794922 92.77091979980469" stroke-width="3.0" fill="none" stroke="rgb(0, 0, 0)" stroke-opacity="1.0" stroke-linecap="round" stroke-linejoin="round"/>
    <path d="M 104.14505004882812 116.92349243164062 C 107.50941467285156 182.71788024902344 77.80665588378906 200.82028198242188 107.07266235351562 194.6549530029297" stroke-width="3.0" fill="none" stroke="rgb(0, 0, 0)" stroke-opacity="1.0" stroke-linecap="round" stroke-linejoin="round"/>
    <path d="M 169.88043212890625 67.26886749267578 C 184.3843231201172 9.79305648803711 213.51902770996094 79.2208480834961 203.97833251953125 48.492713928222656" stroke-width="3.0" fill="none" stroke="rgb(0, 0, 0)" stroke-opacity="1.0" stroke-linecap="round" stroke-linejoin="round"/>
    <path d="M 192.04086303710938 63.52271270751953 C 150.392333984375 43.19279479980469 259.566650390625 50.309173583984375 196.08299255371094 61.20067596435547" stroke-width="3.0" fill="none" stroke="rgb(0, 0, 0)" stroke-opacity="1.0" stroke-linecap="round" stroke-linejoin="round"/>
  </g>
</svg>
