<?xml version="1.0" ?>
<svg xmlns="http://www.w3.org/2000/svg" version="1.1" width="224" height="224">
  <defs/>
  <g>
    <path d="M 153.25367736816406 101.01905059814453 C 129.52981567382812 94.6954116821289 160.03834533691406 106.471435546875 130.3465118408203 91.40484619140625" stroke-width="3.0" fill="none" stroke="rgb(0, 0, 0)" stroke-opacity="1.0" stroke-linecap="round" stroke-linejoin="round"/>
    <path d="M 109.6162338256836 92.37676239013672 C 109.29080963134766 96.65221405029297 104.99441528320312 98.70170593261719 108.69173431396484 107.64757537841797" stroke-width="3.0" fill="none" stroke="rgb(0, 0, 0)" stroke-opacity="1.0" stroke-linecap="round" stroke-linejoin="round"/>
    <path d="M 137.37416076660156 104.8320541381836 C 152.91665649414062 88.10078430175781 115.7203598022461 113.92864227294922 169.34210205078125 97.40936279296875" stroke-width="3.0" fill="none" stroke="rgb(0, 0, 0)" stroke-opacity="1.0" stroke-linecap="round" stroke-linejoin="round"/>
    <path d="M 58.346439361572266 45.14136505126953 C 51.41364669799805 44.48509979248047 36.71272277832031 59.850929260253906 50.367584228515625 48.5499382019043" stroke-width="3.0" fill="none" stroke="rgb(0, 0, 0)" stroke-opacity="1.0" stroke-linecap="round" stroke-linejoin="round"/>
    <path d="M 104.22782897949219 52.9165153503418 C 119.0938720703125 57.104087829589844 102.54844665527344 54.552406311035156 99.25588989257812 45.389251708984375" stroke-width="3.0" fill="none" stroke="rgb(0, 0, 0)" stroke-opacity="1.0" stroke-linecap="round" stroke-linejoin="round"/>
    <path d="M 72.94307708740234 113.35633087158203 C 42.500640869140625 86.92890167236328 61.12535095214844 93.36981201171875 44.47194290161133 77.55278015136719" stroke-width="3.0" fill="none" stroke="rgb(0, 0, 0)" stroke-opacity="1.0" stroke-linecap="round" stroke-linejoin="round"/>
    <path d="M 188.05274963378906 38.50482940673828 C 180.47251892089844 65.1217041015625 212.91226196289062 68.41081237792969 177.88577270507812 89.18452453613281" stroke-width="3.0" fill="none" stroke="rgb(0, 0, 0)" stroke-opacity="1.0" stroke-linecap="round" stroke-linejoin="round"/>
    <path d="M 109.90631866455078 166.01060485839844 C 126.30680847167969 85.27877044677734 118.07502746582031 128.7742156982422 131.09075927734375 100.88461303710938" stroke-width="3.0" fill="none" stroke="rgb(0, 0, 0)" stroke-opacity="1.0" stroke-linecap="round" stroke-linejoin="round"/>
    <path d="M 47.090694427490234 97.54082489013672 C 20.903844833374023 186.43710327148438 19.595638275146484 121.04478454589844 39.80509948730469 197.41372680664062" stroke-width="3.0" fill="none" stroke="rgb(0, 0, 0)" stroke-opacity="1.0" stroke-linecap="round" stroke-linejoin="round"/>
    <path d="M 58.45097732543945 45.25749969482422 C 92.27364349365234 15.613236427307129 136.2985076904297 89.23788452148438 157.54922485351562 86.28439331054688" stroke-width="3.0" fill="none" stroke="rgb(0, 0, 0)" stroke-opacity="1.0" stroke-linecap="round" stroke-linejoin="round"/>
    <path d="M 44.75175094604492 106.87625122070312 C 95.4965591430664 127.18672943115234 86.1228256225586 108.82152557373047 104.5274658203125 117.6385726928711" stroke-width="3.0" fill="none" stroke="rgb(0, 0, 0)" stroke-opacity="1.0" stroke-linecap="round" stroke-linejoin="round"/>
    <path d="M 38.24040222167969 83.05867004394531 C 34.24859619140625 71.24846649169922 28.31735610961914 69.4642562866211 29.985488891601562 70.2759780883789" stroke-width="3.0" fill="none" stroke="rgb(0, 0, 0)" stroke-opacity="1.0" stroke-linecap="round" stroke-linejoin="round"/>
    <path d="M 159.86444091796875 88.04141235351562 C 221.4346466064453 77.0456314086914 175.89508056640625 81.0127944946289 172.99710083007812 95.1739501953125" stroke-width="3.0" fill="none" stroke="rgb(0, 0, 0)" stroke-opacity="1.0" stroke-linecap="round" stroke-linejoin="round"/>
    <path d="M 106.43426513671875 114.33110809326172 C 109.98693084716797 177.46958923339844 80.79151153564453 193.24058532714844 108.45148468017578 191.85060119628906" stroke-width="3.0" fill="none" stroke="rgb(0, 0, 0)" stroke-opacity="1.0" stroke-linecap="round" stroke-linejoin="round"/>
    <path d="M 177.01190185546875 80.11185455322266 C 177.61746215820312 -14.224295616149902 185.94984436035156 66.922607421875 206.52264404296875 44.32985305786133" stroke-width="3.0" fill="none" stroke="rgb(0, 0, 0)" stroke-opacity="1.0" stroke-linecap="round" stroke-linejoin="round"/>
    <path d="M 195.43304443359375 59.813621520996094 C 154.52096557617188 36.893741607666016 221.58985900878906 41.48960494995117 197.24961853027344 53.09686279296875" stroke-width="3.0" fill="none" stroke="rgb(0, 0, 0)" stroke-opacity="1.0" stroke-linecap="round" stroke-linejoin="round"/>
  </g>
</svg>
