<?xml version="1.0" ?>
<svg xmlns="http://www.w3.org/2000/svg" version="1.1" width="224" height="224">
  <defs/>
  <g>
    <path d="M 153.4326171875 99.75593566894531 C 119.44377136230469 84.27810668945312 176.9324493408203 127.88578033447266 123.23847198486328 74.35077667236328" stroke-width="3.0" fill="none" stroke="rgb(0, 0, 0)" stroke-opacity="1.0" stroke-linecap="round" stroke-linejoin="round"/>
    <path d="M 104.087158203125 89.52391052246094 C 110.24762725830078 109.16802978515625 101.4847412109375 99.17935943603516 107.46879577636719 115.16767883300781" stroke-width="3.0" fill="none" stroke="rgb(0, 0, 0)" stroke-opacity="1.0" stroke-linecap="round" stroke-linejoin="round"/>
    <path d="M 141.2793426513672 103.33363342285156 C 140.1861572265625 62.33678436279297 124.0273208618164 128.29330444335938 177.49818420410156 89.88304901123047" stroke-width="3.0" fill="none" stroke="rgb(0, 0, 0)" stroke-opacity="1.0" stroke-linecap="round" stroke-linejoin="round"/>
    <path d="M 61.40081787109375 41.42403793334961 C 62.38056564331055 40.51050567626953 55.93272018432617 46.78568649291992 61.24232864379883 41.626495361328125" stroke-width="3.0" fill="none" stroke="rgb(0, 0, 0)" stroke-opacity="1.0" stroke-linecap="round" stroke-linejoin="round"/>
    <path d="M 127.46751403808594 80.5593490600586 C 114.56769561767578 46.74774932861328 109.94410705566406 64.19774627685547 97.73751831054688 47.583351135253906" stroke-width="3.0" fill="none" stroke="rgb(0, 0, 0)" stroke-opacity="1.0" stroke-linecap="round" stroke-linejoin="round"/>
    <path d="M 72.65348815917969 112.5475082397461 C 45.54747772216797 79.0954818725586 61.056095123291016 85.71615600585938 49.85263442993164 60.100486755371094" stroke-width="3.0" fill="none" stroke="rgb(0, 0, 0)" stroke-opacity="1.0" stroke-linecap="round" stroke-linejoin="round"/>
    <path d="M 180.289794921875 39.82175827026367 C 180.2447509765625 46.60252380371094 192.72137451171875 51.96193313598633 173.82342529296875 77.4373779296875" stroke-width="3.0" fill="none" stroke="rgb(0, 0, 0)" stroke-opacity="1.0" stroke-linecap="round" stroke-linejoin="round"/>
    <path d="M 100.90220642089844 195.59164428710938 C 121.94039154052734 81.03446197509766 121.92278289794922 124.08226776123047 133.2855224609375 101.37124633789062" stroke-width="3.0" fill="none" stroke="rgb(0, 0, 0)" stroke-opacity="1.0" stroke-linecap="round" stroke-linejoin="round"/>
    <path d="M 49.292232513427734 84.28096008300781 C 25.1544132232666 188.45802307128906 18.447738647460938 115.48312377929688 42.67276382446289 196.45611572265625" stroke-width="3.0" fill="none" stroke="rgb(0, 0, 0)" stroke-opacity="1.0" stroke-linecap="round" stroke-linejoin="round"/>
    <path d="M 62.301979064941406 41.867286682128906 C 90.84022521972656 14.290809631347656 140.37120056152344 102.0744400024414 163.41905212402344 84.17301177978516" stroke-width="3.0" fill="none" stroke="rgb(0, 0, 0)" stroke-opacity="1.0" stroke-linecap="round" stroke-linejoin="round"/>
    <path d="M 47.015899658203125 90.30256652832031 C 77.55209350585938 124.39698028564453 80.53776550292969 112.44187927246094 106.1026611328125 117.91725158691406" stroke-width="3.0" fill="none" stroke="rgb(0, 0, 0)" stroke-opacity="1.0" stroke-linecap="round" stroke-linejoin="round"/>
    <path d="M 31.544450759887695 127.32852935791016 C 14.439772605895996 64.90202331542969 30.02261734008789 69.45563507080078 60.49115753173828 41.827796936035156" stroke-width="3.0" fill="none" stroke="rgb(0, 0, 0)" stroke-opacity="1.0" stroke-linecap="round" stroke-linejoin="round"/>
    <path d="M 165.44869995117188 82.09314727783203 C 190.2935333251953 41.483036041259766 195.02149963378906 58.55142593383789 178.13050842285156 89.10198211669922" stroke-width="3.0" fill="none" stroke="rgb(0, 0, 0)" stroke-opacity="1.0" stroke-linecap="round" stroke-linejoin="round"/>
    <path d="M 105.25711822509766 118.78101348876953 C 110.33604431152344 181.75131225585938 76.78672790527344 202.9239501953125 111.07733154296875 189.47286987304688" stroke-width="3.0" fill="none" stroke="rgb(0, 0, 0)" stroke-opacity="1.0" stroke-linecap="round" stroke-linejoin="round"/>
    <path d="M 170.78834533691406 84.22952270507812 C 174.51022338867188 -1.6632194519042969 206.687744140625 74.78650665283203 196.76690673828125 45.50662612915039" stroke-width="3.0" fill="none" stroke="rgb(0, 0, 0)" stroke-opacity="1.0" stroke-linecap="round" stroke-linejoin="round"/>
    <path d="M 198.00579833984375 61.534767150878906 C 147.60140991210938 39.68718338012695 236.70297241210938 43.5172004699707 190.42250061035156 51.907936096191406" stroke-width="3.0" fill="none" stroke="rgb(0, 0, 0)" stroke-opacity="1.0" stroke-linecap="round" stroke-linejoin="round"/>
  </g>
</svg>
