<?xml version="1.0" ?>
<svg xmlns="http://www.w3.org/2000/svg" version="1.1" width="224" height="224">
  <defs/>
  <g>
    <path d="M 127.37750244140625 85.96393585205078 C 117.52067565917969 73.45366668701172 125.09527587890625 78.73757934570312 124.66764068603516 77.39707946777344" stroke-width="3.0" fill="none" stroke="rgb(0, 0, 0)" stroke-opacity="1.0" stroke-linecap="round" stroke-linejoin="round"/>
    <path d="M 91.79718780517578 100.37906646728516 C 91.32423400878906 98.79759979248047 86.36554718017578 97.7301254272461 98.8165054321289 110.45108795166016" stroke-width="3.0" fill="none" stroke="rgb(0, 0, 0)" stroke-opacity="1.0" stroke-linecap="round" stroke-linejoin="round"/>
    <path d="M 154.83941650390625 104.83837890625 C 162.28282165527344 86.50212860107422 148.08599853515625 76.7647933959961 156.32627868652344 99.6739501953125" stroke-width="3.0" fill="none" stroke="rgb(0, 0, 0)" stroke-opacity="1.0" stroke-linecap="round" stroke-linejoin="round"/>
    <path d="M 63.63169860839844 60.23819351196289 C 60.30023956298828 87.29569244384766 44.18372344970703 89.00411987304688 53.049007415771484 94.02472686767578" stroke-width="3.0" fill="none" stroke="rgb(0, 0, 0)" stroke-opacity="1.0" stroke-linecap="round" stroke-linejoin="round"/>
    <path d="M 113.23450469970703 59.145668029785156 C 112.16583251953125 50.7203369140625 111.34278106689453 61.37837600708008 110.92206573486328 61.79560852050781" stroke-width="3.0" fill="none" stroke="rgb(0, 0, 0)" stroke-opacity="1.0" stroke-linecap="round" stroke-linejoin="round"/>
    <path d="M 54.28437042236328 85.51285552978516 C 49.94453430175781 108.00641632080078 54.13151550292969 96.80715942382812 50.94104766845703 92.35089874267578" stroke-width="3.0" fill="none" stroke="rgb(0, 0, 0)" stroke-opacity="1.0" stroke-linecap="round" stroke-linejoin="round"/>
    <path d="M 172.87094116210938 51.535274505615234 C 175.32876586914062 73.12308502197266 164.2330780029297 76.62492370605469 166.1402587890625 82.63652801513672" stroke-width="3.0" fill="none" stroke="rgb(0, 0, 0)" stroke-opacity="1.0" stroke-linecap="round" stroke-linejoin="round"/>
    <path d="M 107.97542572021484 130.41151428222656 C 110.29414367675781 121.71617126464844 99.35302734375 129.5486602783203 105.78465270996094 116.49439239501953" stroke-width="3.0" fill="none" stroke="rgb(0, 0, 0)" stroke-opacity="1.0" stroke-linecap="round" stroke-linejoin="round"/>
    <path d="M 37.95656204223633 144.45962524414062 C 34.61327362060547 175.8492431640625 29.552507400512695 156.3717498779297 38.33409881591797 195.212890625" stroke-width="3.0" fill="none" stroke="rgb(0, 0, 0)" stroke-opacity="1.0" stroke-linecap="round" stroke-linejoin="round"/>
    <path d="M 106.09698486328125 48.274776458740234 C 118.62802124023438 56.72359848022461 123.7266616821289 55.35068130493164 127.5776138305664 72.14093780517578" stroke-width="3.0" fill="none" stroke="rgb(0, 0, 0)" stroke-opacity="1.0" stroke-linecap="round" stroke-linejoin="round"/>
    <path d="M 58.25770568847656 95.22003173828125 C 77.96833038330078 111.97465515136719 75.15579986572266 110.83732604980469 101.58222961425781 117.70072937011719" stroke-width="3.0" fill="none" stroke="rgb(0, 0, 0)" stroke-opacity="1.0" stroke-linecap="round" stroke-linejoin="round"/>
    <path d="M 26.0220890045166 90.77193450927734 C 17.727087020874023 74.96024322509766 14.4526948928833 83.71712493896484 21.412567138671875 78.10269165039062" stroke-width="3.0" fill="none" stroke="rgb(0, 0, 0)" stroke-opacity="1.0" stroke-linecap="round" stroke-linejoin="round"/>
    <path d="M 156.91526794433594 87.22191619873047 C 175.9917449951172 67.98454284667969 160.083740234375 83.57633209228516 175.1433563232422 96.34077453613281" stroke-width="3.0" fill="none" stroke="rgb(0, 0, 0)" stroke-opacity="1.0" stroke-linecap="round" stroke-linejoin="round"/>
    <path d="M 101.93852996826172 118.63204193115234 C 114.98086547851562 146.4541473388672 97.82914733886719 155.32960510253906 107.00942993164062 190.38845825195312" stroke-width="3.0" fill="none" stroke="rgb(0, 0, 0)" stroke-opacity="1.0" stroke-linecap="round" stroke-linejoin="round"/>
    <path d="M 174.7784423828125 47.527549743652344 C 177.88290405273438 20.979360580444336 183.2906951904297 47.206478118896484 201.2277069091797 45.83254623413086" stroke-width="3.0" fill="none" stroke="rgb(0, 0, 0)" stroke-opacity="1.0" stroke-linecap="round" stroke-linejoin="round"/>
    <path d="M 200.47470092773438 60.23929214477539 C 191.8415069580078 48.1898078918457 207.5963592529297 47.44927978515625 214.11911010742188 49.646488189697266" stroke-width="3.0" fill="none" stroke="rgb(0, 0, 0)" stroke-opacity="1.0" stroke-linecap="round" stroke-linejoin="round"/>
  </g>
</svg>
