<?xml version="1.0" ?>
<svg xmlns="http://www.w3.org/2000/svg" version="1.1" width="224" height="224">
  <defs/>
  <g>
    <path d="M 142.68603515625 107.09439086914062 C 119.67276763916016 85.51751708984375 161.32632446289062 141.30833435058594 122.83660125732422 68.9996109008789" stroke-width="3.0" fill="none" stroke="rgb(0, 0, 0)" stroke-opacity="1.0" stroke-linecap="round" stroke-linejoin="round"/>
    <path d="M 106.06263732910156 92.77496337890625 C 107.51840209960938 103.00890350341797 98.78636932373047 103.15251159667969 106.9250259399414 112.58268737792969" stroke-width="3.0" fill="none" stroke="rgb(0, 0, 0)" stroke-opacity="1.0" stroke-linecap="round" stroke-linejoin="round"/>
    <path d="M 133.3618621826172 105.68692016601562 C 140.46133422851562 72.672119140625 134.52235412597656 132.49679565429688 181.11532592773438 84.32613372802734" stroke-width="3.0" fill="none" stroke="rgb(0, 0, 0)" stroke-opacity="1.0" stroke-linecap="round" stroke-linejoin="round"/>
    <path d="M 66.5290298461914 39.18982696533203 C 63.617122650146484 40.500850677490234 56.62730026245117 45.74550247192383 60.65963363647461 42.440181732177734" stroke-width="3.0" fill="none" stroke="rgb(0, 0, 0)" stroke-opacity="1.0" stroke-linecap="round" stroke-linejoin="round"/>
    <path d="M 131.58047485351562 79.09249877929688 C 104.97673034667969 40.2255859375 115.47142791748047 67.18736267089844 98.19210052490234 45.57941436767578" stroke-width="3.0" fill="none" stroke="rgb(0, 0, 0)" stroke-opacity="1.0" stroke-linecap="round" stroke-linejoin="round"/>
    <path d="M 64.36900329589844 109.5588607788086 C 32.84467315673828 80.2696762084961 54.61945343017578 93.92684936523438 36.89614486694336 73.04621124267578" stroke-width="3.0" fill="none" stroke="rgb(0, 0, 0)" stroke-opacity="1.0" stroke-linecap="round" stroke-linejoin="round"/>
    <path d="M 181.38441467285156 50.614131927490234 C 183.78561401367188 28.19397735595703 195.75196838378906 46.43546676635742 186.77268981933594 79.9474105834961" stroke-width="3.0" fill="none" stroke="rgb(0, 0, 0)" stroke-opacity="1.0" stroke-linecap="round" stroke-linejoin="round"/>
    <path d="M 101.40299987792969 194.72457885742188 C 121.49637603759766 77.65448760986328 124.18230438232422 126.45368194580078 129.26361083984375 98.01249694824219" stroke-width="3.0" fill="none" stroke="rgb(0, 0, 0)" stroke-opacity="1.0" stroke-linecap="round" stroke-linejoin="round"/>
    <path d="M 45.04414367675781 101.81356811523438 C 20.320899963378906 175.01918029785156 13.090497970581055 126.00894927978516 40.82548522949219 196.1444091796875" stroke-width="3.0" fill="none" stroke="rgb(0, 0, 0)" stroke-opacity="1.0" stroke-linecap="round" stroke-linejoin="round"/>
    <path d="M 64.61937713623047 40.362403869628906 C 95.6246566772461 15.521458625793457 146.93673706054688 113.79954528808594 167.2747039794922 76.52276611328125" stroke-width="3.0" fill="none" stroke="rgb(0, 0, 0)" stroke-opacity="1.0" stroke-linecap="round" stroke-linejoin="round"/>
    <path d="M 42.982994079589844 100.28874206542969 C 81.69770050048828 122.59498596191406 81.46994018554688 114.04122161865234 105.54207611083984 116.0316390991211" stroke-width="3.0" fill="none" stroke="rgb(0, 0, 0)" stroke-opacity="1.0" stroke-linecap="round" stroke-linejoin="round"/>
    <path d="M 19.844167709350586 132.02920532226562 C 9.318190574645996 71.15635681152344 13.575011253356934 84.4216537475586 58.43376159667969 43.77219009399414" stroke-width="3.0" fill="none" stroke="rgb(0, 0, 0)" stroke-opacity="1.0" stroke-linecap="round" stroke-linejoin="round"/>
    <path d="M 172.3702850341797 83.99797058105469 C 203.10848999023438 30.704774856567383 207.6659698486328 37.552032470703125 171.89463806152344 89.26924896240234" stroke-width="3.0" fill="none" stroke="rgb(0, 0, 0)" stroke-opacity="1.0" stroke-linecap="round" stroke-linejoin="round"/>
    <path d="M 105.2245101928711 119.00707244873047 C 109.59466552734375 180.99391174316406 74.91121673583984 199.85202026367188 110.07310485839844 190.28680419921875" stroke-width="3.0" fill="none" stroke="rgb(0, 0, 0)" stroke-opacity="1.0" stroke-linecap="round" stroke-linejoin="round"/>
    <path d="M 169.4872589111328 73.97523498535156 C 174.47891235351562 7.938560485839844 217.66770935058594 72.25941467285156 209.02871704101562 47.372920989990234" stroke-width="3.0" fill="none" stroke="rgb(0, 0, 0)" stroke-opacity="1.0" stroke-linecap="round" stroke-linejoin="round"/>
    <path d="M 197.25894165039062 59.83494186401367 C 155.218505859375 42.70169448852539 256.45697021484375 47.61141586303711 200.29054260253906 58.07375717163086" stroke-width="3.0" fill="none" stroke="rgb(0, 0, 0)" stroke-opacity="1.0" stroke-linecap="round" stroke-linejoin="round"/>
  </g>
</svg>
