<?xml version="1.0" ?>
<svg xmlns="http://www.w3.org/2000/svg" version="1.1" width="224" height="224">
  <defs/>
  <g>
    <path d="M 133.9773406982422 105.34797668457031 C 117.4464111328125 86.40596008300781 150.52474975585938 130.1664581298828 120.6863784790039 65.44429779052734" stroke-width="3.0" fill="none" stroke="rgb(0, 0, 0)" stroke-opacity="1.0" stroke-linecap="round" stroke-linejoin="round"/>
    <path d="M 112.17951965332031 89.99502563476562 C 114.65900421142578 102.12630462646484 102.89468383789062 101.15901947021484 110.024169921875 113.93051147460938" stroke-width="3.0" fill="none" stroke="rgb(0, 0, 0)" stroke-opacity="1.0" stroke-linecap="round" stroke-linejoin="round"/>
    <path d="M 129.93991088867188 106.42208862304688 C 128.9177703857422 86.38975524902344 149.56784057617188 138.10366821289062 187.42642211914062 69.76921081542969" stroke-width="3.0" fill="none" stroke="rgb(0, 0, 0)" stroke-opacity="1.0" stroke-linecap="round" stroke-linejoin="round"/>
    <path d="M 63.37128829956055 44.347923278808594 C 65.89596557617188 39.97441482543945 53.96830368041992 48.167503356933594 43.251853942871094 60.864044189453125" stroke-width="3.0" fill="none" stroke="rgb(0, 0, 0)" stroke-opacity="1.0" stroke-linecap="round" stroke-linejoin="round"/>
    <path d="M 135.54156494140625 82.12619018554688 C 109.15509796142578 42.16103744506836 115.52650451660156 68.36671447753906 92.6182632446289 43.31732177734375" stroke-width="3.0" fill="none" stroke="rgb(0, 0, 0)" stroke-opacity="1.0" stroke-linecap="round" stroke-linejoin="round"/>
    <path d="M 70.1529312133789 110.76879119873047 C 38.50929260253906 79.86739349365234 59.90289306640625 97.50870513916016 42.52645492553711 74.7798843383789" stroke-width="3.0" fill="none" stroke="rgb(0, 0, 0)" stroke-opacity="1.0" stroke-linecap="round" stroke-linejoin="round"/>
    <path d="M 182.68458557128906 60.490631103515625 C 168.28541564941406 34.52031326293945 195.6665496826172 48.45981979370117 189.84487915039062 76.97576141357422" stroke-width="3.0" fill="none" stroke="rgb(0, 0, 0)" stroke-opacity="1.0" stroke-linecap="round" stroke-linejoin="round"/>
    <path d="M 103.50851440429688 193.5779266357422 C 117.6668930053711 89.29049682617188 124.84771728515625 133.1398162841797 122.90107727050781 102.99916076660156" stroke-width="3.0" fill="none" stroke="rgb(0, 0, 0)" stroke-opacity="1.0" stroke-linecap="round" stroke-linejoin="round"/>
    <path d="M 46.721702575683594 104.45539855957031 C 28.353904724121094 175.4228973388672 15.350714683532715 124.7416000366211 40.9429817199707 201.67308044433594" stroke-width="3.0" fill="none" stroke="rgb(0, 0, 0)" stroke-opacity="1.0" stroke-linecap="round" stroke-linejoin="round"/>
    <path d="M 64.97592163085938 41.03896713256836 C 102.67727661132812 16.93462371826172 159.06875610351562 134.15126037597656 172.93026733398438 57.39616394042969" stroke-width="3.0" fill="none" stroke="rgb(0, 0, 0)" stroke-opacity="1.0" stroke-linecap="round" stroke-linejoin="round"/>
    <path d="M 48.42353439331055 100.6280517578125 C 86.6770248413086 119.9615478515625 82.3241958618164 115.6642074584961 105.24606323242188 119.40771484375" stroke-width="3.0" fill="none" stroke="rgb(0, 0, 0)" stroke-opacity="1.0" stroke-linecap="round" stroke-linejoin="round"/>
    <path d="M 26.120405197143555 138.20310974121094 C 18.23204231262207 87.95386505126953 -4.257346153259277 83.4034194946289 52.24570083618164 53.47879409790039" stroke-width="3.0" fill="none" stroke="rgb(0, 0, 0)" stroke-opacity="1.0" stroke-linecap="round" stroke-linejoin="round"/>
    <path d="M 174.1953125 87.2389144897461 C 192.92796325683594 19.723773956298828 205.10906982421875 27.05022430419922 164.48956298828125 95.46002960205078" stroke-width="3.0" fill="none" stroke="rgb(0, 0, 0)" stroke-opacity="1.0" stroke-linecap="round" stroke-linejoin="round"/>
    <path d="M 106.89492797851562 117.79812622070312 C 109.48641204833984 183.37057495117188 78.50929260253906 200.32888793945312 108.30934143066406 189.28656005859375" stroke-width="3.0" fill="none" stroke="rgb(0, 0, 0)" stroke-opacity="1.0" stroke-linecap="round" stroke-linejoin="round"/>
    <path d="M 169.88491821289062 65.6124267578125 C 184.6433868408203 5.298351287841797 215.89898681640625 76.83357238769531 203.4297332763672 46.06778335571289" stroke-width="3.0" fill="none" stroke="rgb(0, 0, 0)" stroke-opacity="1.0" stroke-linecap="round" stroke-linejoin="round"/>
    <path d="M 193.2615509033203 62.07228469848633 C 145.64144897460938 42.83111572265625 257.28057861328125 43.857940673828125 194.8828125 56.38578414916992" stroke-width="3.0" fill="none" stroke="rgb(0, 0, 0)" stroke-opacity="1.0" stroke-linecap="round" stroke-linejoin="round"/>
  </g>
</svg>
