<?xml version="1.0" ?>
<svg xmlns="http://www.w3.org/2000/svg" version="1.1" width="224" height="224">
  <defs/>
  <g>
    <path d="M 138.20855712890625 94.5094985961914 C 125.34668731689453 81.72022247314453 133.3434600830078 79.52466583251953 131.22105407714844 85.07867431640625" stroke-width="3.0" fill="none" stroke="rgb(0, 0, 0)" stroke-opacity="1.0" stroke-linecap="round" stroke-linejoin="round"/>
    <path d="M 99.9191665649414 93.6325454711914 C 91.62605285644531 103.4288558959961 88.55669403076172 105.73839569091797 101.54425811767578 116.7720718383789" stroke-width="3.0" fill="none" stroke="rgb(0, 0, 0)" stroke-opacity="1.0" stroke-linecap="round" stroke-linejoin="round"/>
    <path d="M 147.6874237060547 111.5870132446289 C 155.05809020996094 84.1710433959961 138.43511962890625 66.42726135253906 156.02127075195312 104.83153533935547" stroke-width="3.0" fill="none" stroke="rgb(0, 0, 0)" stroke-opacity="1.0" stroke-linecap="round" stroke-linejoin="round"/>
    <path d="M 59.29649353027344 49.34037780761719 C 67.57571411132812 83.66157531738281 45.72084426879883 94.6889419555664 53.384735107421875 90.52381896972656" stroke-width="3.0" fill="none" stroke="rgb(0, 0, 0)" stroke-opacity="1.0" stroke-linecap="round" stroke-linejoin="round"/>
    <path d="M 115.66944885253906 53.35002136230469 C 119.20452880859375 58.018699645996094 117.83952331542969 57.38895034790039 116.92715454101562 54.13374710083008" stroke-width="3.0" fill="none" stroke="rgb(0, 0, 0)" stroke-opacity="1.0" stroke-linecap="round" stroke-linejoin="round"/>
    <path d="M 56.18827438354492 83.09938049316406 C 53.360958099365234 100.02435302734375 51.46317672729492 90.80767059326172 54.33181381225586 88.11813354492188" stroke-width="3.0" fill="none" stroke="rgb(0, 0, 0)" stroke-opacity="1.0" stroke-linecap="round" stroke-linejoin="round"/>
    <path d="M 182.7688751220703 43.0669059753418 C 178.9346160888672 77.92018127441406 168.08981323242188 73.45686340332031 164.0159454345703 77.0897216796875" stroke-width="3.0" fill="none" stroke="rgb(0, 0, 0)" stroke-opacity="1.0" stroke-linecap="round" stroke-linejoin="round"/>
    <path d="M 111.66021728515625 138.48745727539062 C 118.99140167236328 113.93199920654297 98.68896484375 130.79237365722656 112.91045379638672 117.70750427246094" stroke-width="3.0" fill="none" stroke="rgb(0, 0, 0)" stroke-opacity="1.0" stroke-linecap="round" stroke-linejoin="round"/>
    <path d="M 34.63239669799805 128.46292114257812 C 27.437557220458984 171.4867401123047 34.369625091552734 144.24375915527344 44.231658935546875 198.71490478515625" stroke-width="3.0" fill="none" stroke="rgb(0, 0, 0)" stroke-opacity="1.0" stroke-linecap="round" stroke-linejoin="round"/>
    <path d="M 82.19155883789062 36.006935119628906 C 119.23047637939453 45.27900695800781 123.27220916748047 63.482337951660156 129.6406707763672 84.25789642333984" stroke-width="3.0" fill="none" stroke="rgb(0, 0, 0)" stroke-opacity="1.0" stroke-linecap="round" stroke-linejoin="round"/>
    <path d="M 59.34739685058594 100.7898178100586 C 73.47209167480469 123.13837432861328 71.50189208984375 116.5892562866211 105.4287109375 117.77140808105469" stroke-width="3.0" fill="none" stroke="rgb(0, 0, 0)" stroke-opacity="1.0" stroke-linecap="round" stroke-linejoin="round"/>
    <path d="M 25.687255859375 91.2737808227539 C 22.899059295654297 76.79887390136719 19.289405822753906 83.12308502197266 21.908124923706055 77.46891021728516" stroke-width="3.0" fill="none" stroke="rgb(0, 0, 0)" stroke-opacity="1.0" stroke-linecap="round" stroke-linejoin="round"/>
    <path d="M 145.34495544433594 79.14649963378906 C 181.74856567382812 67.03120422363281 153.2656707763672 81.08810424804688 169.2647247314453 99.88238525390625" stroke-width="3.0" fill="none" stroke="rgb(0, 0, 0)" stroke-opacity="1.0" stroke-linecap="round" stroke-linejoin="round"/>
    <path d="M 104.86741638183594 116.22901153564453 C 121.76535034179688 153.8839111328125 83.8405532836914 208.0952606201172 110.39201354980469 192.89163208007812" stroke-width="3.0" fill="none" stroke="rgb(0, 0, 0)" stroke-opacity="1.0" stroke-linecap="round" stroke-linejoin="round"/>
    <path d="M 174.16384887695312 57.837894439697266 C 198.34539794921875 19.02872085571289 184.52561950683594 54.9029541015625 198.9738006591797 45.96072006225586" stroke-width="3.0" fill="none" stroke="rgb(0, 0, 0)" stroke-opacity="1.0" stroke-linecap="round" stroke-linejoin="round"/>
    <path d="M 199.12310791015625 63.24868392944336 C 168.92832946777344 42.35921859741211 205.14776611328125 34.495670318603516 203.0342559814453 52.753761291503906" stroke-width="3.0" fill="none" stroke="rgb(0, 0, 0)" stroke-opacity="1.0" stroke-linecap="round" stroke-linejoin="round"/>
  </g>
</svg>
