<?xml version="1.0" ?>
<svg xmlns="http://www.w3.org/2000/svg" version="1.1" width="224" height="224">
  <defs/>
  <g>
    <path d="M 140.4454345703125 106.20909118652344 C 117.41552734375 82.79228210449219 156.7350311279297 143.10000610351562 119.49932098388672 70.24333953857422" stroke-width="3.0" fill="none" stroke="rgb(0, 0, 0)" stroke-opacity="1.0" stroke-linecap="round" stroke-linejoin="round"/>
    <path d="M 109.454833984375 94.50981140136719 C 109.42242431640625 100.97122192382812 101.61880493164062 103.62242126464844 106.96420288085938 113.3203125" stroke-width="3.0" fill="none" stroke="rgb(0, 0, 0)" stroke-opacity="1.0" stroke-linecap="round" stroke-linejoin="round"/>
    <path d="M 135.08970642089844 107.83204650878906 C 135.25946044921875 65.85218048095703 131.61915588378906 133.61752319335938 179.66653442382812 86.4893569946289" stroke-width="3.0" fill="none" stroke="rgb(0, 0, 0)" stroke-opacity="1.0" stroke-linecap="round" stroke-linejoin="round"/>
    <path d="M 64.7126693725586 40.60599899291992 C 63.812217712402344 41.041725158691406 56.46186065673828 45.195953369140625 60.74323654174805 42.83601760864258" stroke-width="3.0" fill="none" stroke="rgb(0, 0, 0)" stroke-opacity="1.0" stroke-linecap="round" stroke-linejoin="round"/>
    <path d="M 136.40447998046875 82.83104705810547 C 108.05301666259766 40.56842803955078 110.75407409667969 66.3349838256836 96.17503356933594 45.36972427368164" stroke-width="3.0" fill="none" stroke="rgb(0, 0, 0)" stroke-opacity="1.0" stroke-linecap="round" stroke-linejoin="round"/>
    <path d="M 66.7210464477539 111.09878540039062 C 36.210693359375 80.96639251708984 62.00681686401367 97.74937438964844 38.71882247924805 71.70323944091797" stroke-width="3.0" fill="none" stroke="rgb(0, 0, 0)" stroke-opacity="1.0" stroke-linecap="round" stroke-linejoin="round"/>
    <path d="M 181.92774963378906 48.51593780517578 C 186.2332000732422 28.288475036621094 191.89215087890625 45.815025329589844 183.8499755859375 84.1800308227539" stroke-width="3.0" fill="none" stroke="rgb(0, 0, 0)" stroke-opacity="1.0" stroke-linecap="round" stroke-linejoin="round"/>
    <path d="M 102.95606231689453 196.75230407714844 C 121.8801040649414 82.37539672851562 122.18668365478516 126.44416809082031 126.0803451538086 101.75023651123047" stroke-width="3.0" fill="none" stroke="rgb(0, 0, 0)" stroke-opacity="1.0" stroke-linecap="round" stroke-linejoin="round"/>
    <path d="M 40.92788314819336 102.58079528808594 C 24.130847930908203 176.8880157470703 13.562642097473145 130.41213989257812 40.8268928527832 199.581787109375" stroke-width="3.0" fill="none" stroke="rgb(0, 0, 0)" stroke-opacity="1.0" stroke-linecap="round" stroke-linejoin="round"/>
    <path d="M 62.8037109375 41.591243743896484 C 98.19774627685547 15.282881736755371 146.46266174316406 111.76004791259766 168.67776489257812 77.38987731933594" stroke-width="3.0" fill="none" stroke="rgb(0, 0, 0)" stroke-opacity="1.0" stroke-linecap="round" stroke-linejoin="round"/>
    <path d="M 46.64544677734375 103.05794525146484 C 81.32868957519531 120.38536071777344 81.47001647949219 111.30412292480469 105.39253234863281 118.60897064208984" stroke-width="3.0" fill="none" stroke="rgb(0, 0, 0)" stroke-opacity="1.0" stroke-linecap="round" stroke-linejoin="round"/>
    <path d="M 20.952573776245117 130.4374237060547 C 12.73441219329834 67.13372802734375 15.02138900756836 81.24939727783203 58.101436614990234 43.62718963623047" stroke-width="3.0" fill="none" stroke="rgb(0, 0, 0)" stroke-opacity="1.0" stroke-linecap="round" stroke-linejoin="round"/>
    <path d="M 170.94888305664062 83.92353820800781 C 198.93609619140625 27.555089950561523 210.18133544921875 40.85013198852539 171.51895141601562 93.26959228515625" stroke-width="3.0" fill="none" stroke="rgb(0, 0, 0)" stroke-opacity="1.0" stroke-linecap="round" stroke-linejoin="round"/>
    <path d="M 104.74018096923828 117.07432556152344 C 110.27769470214844 184.89186096191406 76.07628631591797 206.3470458984375 112.13884735107422 189.97605895996094" stroke-width="3.0" fill="none" stroke="rgb(0, 0, 0)" stroke-opacity="1.0" stroke-linecap="round" stroke-linejoin="round"/>
    <path d="M 170.45602416992188 75.40672302246094 C 179.5475616455078 7.631113052368164 215.8463134765625 72.72415924072266 207.1405487060547 48.195987701416016" stroke-width="3.0" fill="none" stroke="rgb(0, 0, 0)" stroke-opacity="1.0" stroke-linecap="round" stroke-linejoin="round"/>
    <path d="M 193.2856903076172 61.754398345947266 C 157.02886962890625 41.27949523925781 255.07711791992188 49.9501953125 200.16403198242188 55.7275390625" stroke-width="3.0" fill="none" stroke="rgb(0, 0, 0)" stroke-opacity="1.0" stroke-linecap="round" stroke-linejoin="round"/>
  </g>
</svg>
