<?xml version="1.0" ?>
<svg xmlns="http://www.w3.org/2000/svg" version="1.1" width="224" height="224">
  <defs/>
  <g>
    <path d="M 155.34410095214844 100.87297821044922 C 118.89116668701172 89.42794036865234 166.65780639648438 115.09078216552734 133.5033416748047 83.73029327392578" stroke-width="3.0" fill="none" stroke="rgb(0, 0, 0)" stroke-opacity="1.0" stroke-linecap="round" stroke-linejoin="round"/>
    <path d="M 110.36296081542969 94.37261962890625 C 109.35791778564453 101.72483825683594 102.28260803222656 101.99816131591797 107.12760162353516 112.8314208984375" stroke-width="3.0" fill="none" stroke="rgb(0, 0, 0)" stroke-opacity="1.0" stroke-linecap="round" stroke-linejoin="round"/>
    <path d="M 138.08203125 104.26288604736328 C 152.07403564453125 68.77427673339844 114.97657775878906 120.73833465576172 176.0879669189453 92.60236358642578" stroke-width="3.0" fill="none" stroke="rgb(0, 0, 0)" stroke-opacity="1.0" stroke-linecap="round" stroke-linejoin="round"/>
    <path d="M 62.93714141845703 43.92991638183594 C 62.5883903503418 44.36154556274414 54.9788818359375 50.39010238647461 64.89093780517578 42.31415557861328" stroke-width="3.0" fill="none" stroke="rgb(0, 0, 0)" stroke-opacity="1.0" stroke-linecap="round" stroke-linejoin="round"/>
    <path d="M 119.02241516113281 64.03605651855469 C 111.28306579589844 52.70615005493164 103.48074340820312 55.821205139160156 90.93196105957031 43.053157806396484" stroke-width="3.0" fill="none" stroke="rgb(0, 0, 0)" stroke-opacity="1.0" stroke-linecap="round" stroke-linejoin="round"/>
    <path d="M 72.11868286132812 114.823974609375 C 49.7411003112793 91.76189422607422 66.78258514404297 99.01332092285156 46.62835693359375 75.51642608642578" stroke-width="3.0" fill="none" stroke="rgb(0, 0, 0)" stroke-opacity="1.0" stroke-linecap="round" stroke-linejoin="round"/>
    <path d="M 188.16403198242188 48.82293701171875 C 178.03208923339844 54.10227966308594 198.5316619873047 55.89838409423828 173.7630615234375 80.70425415039062" stroke-width="3.0" fill="none" stroke="rgb(0, 0, 0)" stroke-opacity="1.0" stroke-linecap="round" stroke-linejoin="round"/>
    <path d="M 103.85885620117188 194.7801055908203 C 124.10870361328125 79.376708984375 121.47498321533203 126.99237060546875 131.4066925048828 101.09990692138672" stroke-width="3.0" fill="none" stroke="rgb(0, 0, 0)" stroke-opacity="1.0" stroke-linecap="round" stroke-linejoin="round"/>
    <path d="M 33.84856414794922 88.7798843383789 C 21.569162368774414 191.34768676757812 13.30179214477539 120.06324768066406 41.63749313354492 198.34906005859375" stroke-width="3.0" fill="none" stroke="rgb(0, 0, 0)" stroke-opacity="1.0" stroke-linecap="round" stroke-linejoin="round"/>
    <path d="M 63.58415985107422 43.55085754394531 C 90.64451599121094 13.043313980102539 135.54396057128906 101.46662902832031 166.0923309326172 85.96393585205078" stroke-width="3.0" fill="none" stroke="rgb(0, 0, 0)" stroke-opacity="1.0" stroke-linecap="round" stroke-linejoin="round"/>
    <path d="M 37.796234130859375 95.99066925048828 C 88.97219848632812 128.22642517089844 81.95974731445312 112.53827667236328 105.50241088867188 118.58775329589844" stroke-width="3.0" fill="none" stroke="rgb(0, 0, 0)" stroke-opacity="1.0" stroke-linecap="round" stroke-linejoin="round"/>
    <path d="M 32.37505340576172 84.02490234375 C 37.471622467041016 66.66029357910156 28.090179443359375 74.49750518798828 40.302486419677734 56.085472106933594" stroke-width="3.0" fill="none" stroke="rgb(0, 0, 0)" stroke-opacity="1.0" stroke-linecap="round" stroke-linejoin="round"/>
    <path d="M 167.36767578125 85.38619232177734 C 198.5181884765625 50.50640869140625 186.0375518798828 59.778411865234375 179.906494140625 88.50077819824219" stroke-width="3.0" fill="none" stroke="rgb(0, 0, 0)" stroke-opacity="1.0" stroke-linecap="round" stroke-linejoin="round"/>
    <path d="M 104.31813049316406 118.16087341308594 C 111.02685546875 187.23504638671875 80.02696990966797 198.29541015625 113.83912658691406 188.1762237548828" stroke-width="3.0" fill="none" stroke="rgb(0, 0, 0)" stroke-opacity="1.0" stroke-linecap="round" stroke-linejoin="round"/>
    <path d="M 174.29299926757812 82.33415222167969 C 174.56776428222656 -3.584918260574341 193.87754821777344 76.94570922851562 197.7088165283203 51.96184158325195" stroke-width="3.0" fill="none" stroke="rgb(0, 0, 0)" stroke-opacity="1.0" stroke-linecap="round" stroke-linejoin="round"/>
    <path d="M 191.9435577392578 63.243858337402344 C 147.9521026611328 35.82012939453125 231.92318725585938 44.846168518066406 201.87615966796875 48.33081817626953" stroke-width="3.0" fill="none" stroke="rgb(0, 0, 0)" stroke-opacity="1.0" stroke-linecap="round" stroke-linejoin="round"/>
  </g>
</svg>
