<?xml version="1.0" ?>
<svg xmlns="http://www.w3.org/2000/svg" version="1.1" width="224" height="224">
  <defs/>
  <g>
    <path d="M 136.82020568847656 106.82890319824219 C 122.68876647949219 92.59465026855469 155.0819091796875 135.99752807617188 115.21109008789062 66.49140930175781" stroke-width="3.0" fill="none" stroke="rgb(0, 0, 0)" stroke-opacity="1.0" stroke-linecap="round" stroke-linejoin="round"/>
    <path d="M 108.52853393554688 91.76665496826172 C 113.4766845703125 103.4469223022461 105.04507446289062 102.21199035644531 109.39623260498047 112.34848022460938" stroke-width="3.0" fill="none" stroke="rgb(0, 0, 0)" stroke-opacity="1.0" stroke-linecap="round" stroke-linejoin="round"/>
    <path d="M 130.07269287109375 109.0910873413086 C 127.56600189208984 84.56217956542969 147.77255249023438 137.30311584472656 186.21453857421875 79.97920227050781" stroke-width="3.0" fill="none" stroke="rgb(0, 0, 0)" stroke-opacity="1.0" stroke-linecap="round" stroke-linejoin="round"/>
    <path d="M 68.73340606689453 38.40825271606445 C 64.22032928466797 39.114990234375 53.028602600097656 46.310218811035156 48.94236373901367 50.7471809387207" stroke-width="3.0" fill="none" stroke="rgb(0, 0, 0)" stroke-opacity="1.0" stroke-linecap="round" stroke-linejoin="round"/>
    <path d="M 133.5605926513672 82.07957458496094 C 109.54182434082031 38.45600128173828 111.06842803955078 66.18588256835938 97.91780853271484 46.814414978027344" stroke-width="3.0" fill="none" stroke="rgb(0, 0, 0)" stroke-opacity="1.0" stroke-linecap="round" stroke-linejoin="round"/>
    <path d="M 69.60848999023438 113.46141052246094 C 37.92091369628906 82.05467987060547 62.55344009399414 102.410400390625 42.06724548339844 76.69937896728516" stroke-width="3.0" fill="none" stroke="rgb(0, 0, 0)" stroke-opacity="1.0" stroke-linecap="round" stroke-linejoin="round"/>
    <path d="M 187.13330078125 60.87618637084961 C 176.22686767578125 36.38399887084961 192.6073760986328 49.46799850463867 188.27635192871094 84.59449005126953" stroke-width="3.0" fill="none" stroke="rgb(0, 0, 0)" stroke-opacity="1.0" stroke-linecap="round" stroke-linejoin="round"/>
    <path d="M 101.9844741821289 189.6997833251953 C 121.4275894165039 87.33110046386719 122.02944946289062 133.96728515625 122.95076751708984 103.04632568359375" stroke-width="3.0" fill="none" stroke="rgb(0, 0, 0)" stroke-opacity="1.0" stroke-linecap="round" stroke-linejoin="round"/>
    <path d="M 49.120750427246094 103.57182312011719 C 26.92774772644043 171.36334228515625 16.449630737304688 126.0108413696289 41.12790298461914 200.3511962890625" stroke-width="3.0" fill="none" stroke="rgb(0, 0, 0)" stroke-opacity="1.0" stroke-linecap="round" stroke-linejoin="round"/>
    <path d="M 65.24052429199219 40.163795471191406 C 99.84532928466797 17.288114547729492 159.82821655273438 129.7605438232422 173.8691864013672 61.042964935302734" stroke-width="3.0" fill="none" stroke="rgb(0, 0, 0)" stroke-opacity="1.0" stroke-linecap="round" stroke-linejoin="round"/>
    <path d="M 49.684391021728516 106.18721771240234 C 85.63082122802734 123.25344848632812 82.03990173339844 113.18753814697266 104.99710083007812 117.9603042602539" stroke-width="3.0" fill="none" stroke="rgb(0, 0, 0)" stroke-opacity="1.0" stroke-linecap="round" stroke-linejoin="round"/>
    <path d="M 22.261507034301758 136.8923797607422 C 14.637042999267578 72.8547592163086 7.482944011688232 87.70256042480469 54.07555389404297 46.19864273071289" stroke-width="3.0" fill="none" stroke="rgb(0, 0, 0)" stroke-opacity="1.0" stroke-linecap="round" stroke-linejoin="round"/>
    <path d="M 173.3414764404297 86.06278991699219 C 199.39964294433594 22.519882202148438 205.0249786376953 27.72259521484375 172.0743408203125 93.84708404541016" stroke-width="3.0" fill="none" stroke="rgb(0, 0, 0)" stroke-opacity="1.0" stroke-linecap="round" stroke-linejoin="round"/>
    <path d="M 105.9279556274414 116.80274963378906 C 108.43109893798828 184.25025939941406 77.49178314208984 196.4081573486328 110.96925354003906 193.0223846435547" stroke-width="3.0" fill="none" stroke="rgb(0, 0, 0)" stroke-opacity="1.0" stroke-linecap="round" stroke-linejoin="round"/>
    <path d="M 171.2808837890625 70.77847290039062 C 180.85089111328125 4.214054584503174 217.84902954101562 74.6707992553711 210.12271118164062 51.03927993774414" stroke-width="3.0" fill="none" stroke="rgb(0, 0, 0)" stroke-opacity="1.0" stroke-linecap="round" stroke-linejoin="round"/>
    <path d="M 197.13424682617188 64.20682525634766 C 151.96714782714844 44.18703842163086 262.92535400390625 48.79287338256836 198.92401123046875 58.18424987792969" stroke-width="3.0" fill="none" stroke="rgb(0, 0, 0)" stroke-opacity="1.0" stroke-linecap="round" stroke-linejoin="round"/>
  </g>
</svg>
