<?xml version="1.0" ?>
<svg xmlns="http://www.w3.org/2000/svg" version="1.1" width="224" height="224">
  <defs/>
  <g>
    <path d="M 151.19644165039062 98.66563415527344 C 119.07281494140625 83.13036346435547 182.17144775390625 126.20539855957031 122.04174041748047 73.58011627197266" stroke-width="3.0" fill="none" stroke="rgb(0, 0, 0)" stroke-opacity="1.0" stroke-linecap="round" stroke-linejoin="round"/>
    <path d="M 111.66763305664062 96.66931915283203 C 111.02424621582031 115.1584701538086 105.13611602783203 104.60081481933594 108.96725463867188 114.0691146850586" stroke-width="3.0" fill="none" stroke="rgb(0, 0, 0)" stroke-opacity="1.0" stroke-linecap="round" stroke-linejoin="round"/>
    <path d="M 139.38819885253906 101.43074798583984 C 141.7786865234375 64.61239624023438 125.95996856689453 127.15461730957031 177.1687774658203 90.00883483886719" stroke-width="3.0" fill="none" stroke="rgb(0, 0, 0)" stroke-opacity="1.0" stroke-linecap="round" stroke-linejoin="round"/>
    <path d="M 60.81398010253906 43.62546157836914 C 62.84794616699219 41.900211334228516 55.94661331176758 47.565635681152344 63.662662506103516 40.84709167480469" stroke-width="3.0" fill="none" stroke="rgb(0, 0, 0)" stroke-opacity="1.0" stroke-linecap="round" stroke-linejoin="round"/>
    <path d="M 130.9021453857422 83.7308120727539 C 110.23089599609375 43.59054946899414 112.2769546508789 62.09257125854492 99.77298736572266 47.35216522216797" stroke-width="3.0" fill="none" stroke="rgb(0, 0, 0)" stroke-opacity="1.0" stroke-linecap="round" stroke-linejoin="round"/>
    <path d="M 72.73263549804688 109.06190490722656 C 43.04855728149414 75.89915466308594 61.292396545410156 86.98663330078125 49.32939147949219 61.87141036987305" stroke-width="3.0" fill="none" stroke="rgb(0, 0, 0)" stroke-opacity="1.0" stroke-linecap="round" stroke-linejoin="round"/>
    <path d="M 182.06011962890625 38.619991302490234 C 180.27810668945312 47.543006896972656 192.22109985351562 50.78518295288086 179.3250732421875 76.47698211669922" stroke-width="3.0" fill="none" stroke="rgb(0, 0, 0)" stroke-opacity="1.0" stroke-linecap="round" stroke-linejoin="round"/>
    <path d="M 104.71711730957031 194.79759216308594 C 123.2026596069336 87.19266510009766 121.30860900878906 122.32804870605469 131.00674438476562 100.09637451171875" stroke-width="3.0" fill="none" stroke="rgb(0, 0, 0)" stroke-opacity="1.0" stroke-linecap="round" stroke-linejoin="round"/>
    <path d="M 46.060855865478516 92.57755279541016 C 24.458467483520508 180.0051727294922 14.639565467834473 123.73174285888672 42.05228805541992 199.00604248046875" stroke-width="3.0" fill="none" stroke="rgb(0, 0, 0)" stroke-opacity="1.0" stroke-linecap="round" stroke-linejoin="round"/>
    <path d="M 61.84591293334961 42.565269470214844 C 95.185302734375 14.837675094604492 141.69935607910156 104.44715881347656 166.04640197753906 80.75769805908203" stroke-width="3.0" fill="none" stroke="rgb(0, 0, 0)" stroke-opacity="1.0" stroke-linecap="round" stroke-linejoin="round"/>
    <path d="M 47.77256393432617 94.27104949951172 C 71.97146606445312 120.61920166015625 87.47688293457031 114.59774017333984 105.66649627685547 119.42725372314453" stroke-width="3.0" fill="none" stroke="rgb(0, 0, 0)" stroke-opacity="1.0" stroke-linecap="round" stroke-linejoin="round"/>
    <path d="M 18.218090057373047 132.00303649902344 C 5.794869422912598 69.33328247070312 23.14760398864746 73.1288833618164 59.87022018432617 44.606285095214844" stroke-width="3.0" fill="none" stroke="rgb(0, 0, 0)" stroke-opacity="1.0" stroke-linecap="round" stroke-linejoin="round"/>
    <path d="M 165.3694305419922 83.75544738769531 C 192.16954040527344 41.19696807861328 200.521728515625 59.127193450927734 178.9339141845703 88.75559997558594" stroke-width="3.0" fill="none" stroke="rgb(0, 0, 0)" stroke-opacity="1.0" stroke-linecap="round" stroke-linejoin="round"/>
    <path d="M 104.99522399902344 120.24786376953125 C 111.144287109375 183.0438995361328 77.24762725830078 205.13671875 111.56011199951172 189.43418884277344" stroke-width="3.0" fill="none" stroke="rgb(0, 0, 0)" stroke-opacity="1.0" stroke-linecap="round" stroke-linejoin="round"/>
    <path d="M 172.40377807617188 80.67940521240234 C 171.8114471435547 -1.9242818355560303 210.73849487304688 76.10161590576172 198.98623657226562 46.046443939208984" stroke-width="3.0" fill="none" stroke="rgb(0, 0, 0)" stroke-opacity="1.0" stroke-linecap="round" stroke-linejoin="round"/>
    <path d="M 193.48622131347656 61.244564056396484 C 145.47084045410156 41.530216217041016 242.9656219482422 42.46742630004883 194.40614318847656 54.160179138183594" stroke-width="3.0" fill="none" stroke="rgb(0, 0, 0)" stroke-opacity="1.0" stroke-linecap="round" stroke-linejoin="round"/>
  </g>
</svg>
