<?xml version="1.0" ?>
<svg xmlns="http://www.w3.org/2000/svg" version="1.1" width="224" height="224">
  <defs/>
  <g>
    <path d="M 143.61929321289062 106.3097915649414 C 119.97908020019531 85.14424133300781 160.3220977783203 141.74671936035156 123.43804168701172 68.90623474121094" stroke-width="3.0" fill="none" stroke="rgb(0, 0, 0)" stroke-opacity="1.0" stroke-linecap="round" stroke-linejoin="round"/>
    <path d="M 108.01582336425781 94.35824584960938 C 108.83763885498047 104.05699920654297 100.71411895751953 103.47061920166016 106.36266326904297 113.0384521484375" stroke-width="3.0" fill="none" stroke="rgb(0, 0, 0)" stroke-opacity="1.0" stroke-linecap="round" stroke-linejoin="round"/>
    <path d="M 135.25367736816406 106.27544403076172 C 140.30746459960938 75.14659118652344 134.13064575195312 135.0917205810547 183.32835388183594 83.89238739013672" stroke-width="3.0" fill="none" stroke="rgb(0, 0, 0)" stroke-opacity="1.0" stroke-linecap="round" stroke-linejoin="round"/>
    <path d="M 66.29434967041016 39.11375427246094 C 63.37214279174805 39.90966033935547 56.57802963256836 45.70759201049805 60.59648132324219 41.673606872558594" stroke-width="3.0" fill="none" stroke="rgb(0, 0, 0)" stroke-opacity="1.0" stroke-linecap="round" stroke-linejoin="round"/>
    <path d="M 132.7671661376953 82.11727142333984 C 103.87406158447266 41.54157257080078 114.04496002197266 67.47206115722656 97.96044921875 45.47962951660156" stroke-width="3.0" fill="none" stroke="rgb(0, 0, 0)" stroke-opacity="1.0" stroke-linecap="round" stroke-linejoin="round"/>
    <path d="M 64.9361343383789 109.42787170410156 C 34.359352111816406 78.63165283203125 54.07362747192383 94.10740661621094 37.2950325012207 72.90174102783203" stroke-width="3.0" fill="none" stroke="rgb(0, 0, 0)" stroke-opacity="1.0" stroke-linecap="round" stroke-linejoin="round"/>
    <path d="M 181.47157287597656 49.86876678466797 C 183.9378662109375 25.839372634887695 194.50283813476562 45.54063415527344 184.85963439941406 81.39527130126953" stroke-width="3.0" fill="none" stroke="rgb(0, 0, 0)" stroke-opacity="1.0" stroke-linecap="round" stroke-linejoin="round"/>
    <path d="M 103.25715637207031 193.81060791015625 C 121.37015533447266 77.99896240234375 124.88878631591797 127.67982482910156 131.2235870361328 97.45329284667969" stroke-width="3.0" fill="none" stroke="rgb(0, 0, 0)" stroke-opacity="1.0" stroke-linecap="round" stroke-linejoin="round"/>
    <path d="M 45.67424011230469 101.61457061767578 C 22.728479385375977 176.42100524902344 14.137466430664062 127.25444793701172 41.91913604736328 196.87811279296875" stroke-width="3.0" fill="none" stroke="rgb(0, 0, 0)" stroke-opacity="1.0" stroke-linecap="round" stroke-linejoin="round"/>
    <path d="M 63.503746032714844 40.6439208984375 C 97.4774169921875 15.236736297607422 148.84535217285156 111.55887603759766 169.7050323486328 76.51634216308594" stroke-width="3.0" fill="none" stroke="rgb(0, 0, 0)" stroke-opacity="1.0" stroke-linecap="round" stroke-linejoin="round"/>
    <path d="M 46.14934158325195 100.03646850585938 C 80.81507873535156 123.15288543701172 80.20753479003906 113.9395751953125 106.68473815917969 117.2872543334961" stroke-width="3.0" fill="none" stroke="rgb(0, 0, 0)" stroke-opacity="1.0" stroke-linecap="round" stroke-linejoin="round"/>
    <path d="M 20.589994430541992 131.2882843017578 C 8.843478202819824 70.49122619628906 12.844929695129395 84.18770599365234 57.9697265625 44.01374053955078" stroke-width="3.0" fill="none" stroke="rgb(0, 0, 0)" stroke-opacity="1.0" stroke-linecap="round" stroke-linejoin="round"/>
    <path d="M 172.66360473632812 85.01695251464844 C 204.39036560058594 31.56069564819336 208.89662170410156 39.17144775390625 171.99879455566406 87.04907989501953" stroke-width="3.0" fill="none" stroke="rgb(0, 0, 0)" stroke-opacity="1.0" stroke-linecap="round" stroke-linejoin="round"/>
    <path d="M 105.48963928222656 119.6644058227539 C 108.96650695800781 180.23487854003906 74.50631713867188 200.88333129882812 110.51431274414062 189.60873413085938" stroke-width="3.0" fill="none" stroke="rgb(0, 0, 0)" stroke-opacity="1.0" stroke-linecap="round" stroke-linejoin="round"/>
    <path d="M 168.40586853027344 75.66508483886719 C 175.74435424804688 8.990144729614258 218.47677612304688 72.4359359741211 212.25172424316406 47.61173629760742" stroke-width="3.0" fill="none" stroke="rgb(0, 0, 0)" stroke-opacity="1.0" stroke-linecap="round" stroke-linejoin="round"/>
    <path d="M 196.8998565673828 59.54074478149414 C 155.96939086914062 42.16959762573242 256.29132080078125 47.66420364379883 202.9492645263672 57.85639953613281" stroke-width="3.0" fill="none" stroke="rgb(0, 0, 0)" stroke-opacity="1.0" stroke-linecap="round" stroke-linejoin="round"/>
  </g>
</svg>
