<?xml version="1.0" ?>
<svg xmlns="http://www.w3.org/2000/svg" version="1.1" width="224" height="224">
  <defs/>
  <g>
    <path d="M 145.28811645507812 101.23174285888672 C 123.37371063232422 83.92015838623047 125.98135375976562 83.18952941894531 130.2706298828125 92.51683807373047" stroke-width="3.0" fill="none" stroke="rgb(0, 0, 0)" stroke-opacity="1.0" stroke-linecap="round" stroke-linejoin="round"/>
    <path d="M 100.00118255615234 94.91674041748047 C 100.27071380615234 96.77232360839844 98.44758605957031 102.88703918457031 105.09353637695312 108.21702575683594" stroke-width="3.0" fill="none" stroke="rgb(0, 0, 0)" stroke-opacity="1.0" stroke-linecap="round" stroke-linejoin="round"/>
    <path d="M 125.05400085449219 107.38761138916016 C 148.4973602294922 96.46419525146484 119.3079833984375 96.41932678222656 158.1097869873047 101.50516510009766" stroke-width="3.0" fill="none" stroke="rgb(0, 0, 0)" stroke-opacity="1.0" stroke-linecap="round" stroke-linejoin="round"/>
    <path d="M 57.875370025634766 43.66393280029297 C 49.88695526123047 50.03425979614258 26.706079483032227 74.19256591796875 40.84945297241211 60.5212287902832" stroke-width="3.0" fill="none" stroke="rgb(0, 0, 0)" stroke-opacity="1.0" stroke-linecap="round" stroke-linejoin="round"/>
    <path d="M 109.20708465576172 52.58728790283203 C 120.87934875488281 56.14275360107422 109.2246322631836 60.11067199707031 103.24639129638672 50.274898529052734" stroke-width="3.0" fill="none" stroke="rgb(0, 0, 0)" stroke-opacity="1.0" stroke-linecap="round" stroke-linejoin="round"/>
    <path d="M 72.43815612792969 112.6639633178711 C 54.379486083984375 91.34075927734375 49.080177307128906 88.72731018066406 49.76764678955078 78.00605773925781" stroke-width="3.0" fill="none" stroke="rgb(0, 0, 0)" stroke-opacity="1.0" stroke-linecap="round" stroke-linejoin="round"/>
    <path d="M 183.79478454589844 45.02104949951172 C 175.50938415527344 67.21456146240234 192.9112548828125 64.97343444824219 168.22372436523438 77.36470794677734" stroke-width="3.0" fill="none" stroke="rgb(0, 0, 0)" stroke-opacity="1.0" stroke-linecap="round" stroke-linejoin="round"/>
    <path d="M 114.0302505493164 147.88441467285156 C 126.34416198730469 93.20372772216797 117.93937683105469 125.70842742919922 128.64170837402344 100.7101058959961" stroke-width="3.0" fill="none" stroke="rgb(0, 0, 0)" stroke-opacity="1.0" stroke-linecap="round" stroke-linejoin="round"/>
    <path d="M 50.91620635986328 97.26529693603516 C 18.947256088256836 178.8930206298828 13.247729301452637 115.68501281738281 41.03846740722656 200.55760192871094" stroke-width="3.0" fill="none" stroke="rgb(0, 0, 0)" stroke-opacity="1.0" stroke-linecap="round" stroke-linejoin="round"/>
    <path d="M 60.377593994140625 43.513824462890625 C 91.66566467285156 17.266021728515625 127.41401672363281 82.69721221923828 149.57870483398438 82.38949584960938" stroke-width="3.0" fill="none" stroke="rgb(0, 0, 0)" stroke-opacity="1.0" stroke-linecap="round" stroke-linejoin="round"/>
    <path d="M 50.096370697021484 102.50996398925781 C 91.54144287109375 126.91380310058594 76.84869384765625 112.11273956298828 106.28840637207031 115.68048858642578" stroke-width="3.0" fill="none" stroke="rgb(0, 0, 0)" stroke-opacity="1.0" stroke-linecap="round" stroke-linejoin="round"/>
    <path d="M 42.46151351928711 83.4027328491211 C 35.34842300415039 66.09297180175781 28.730199813842773 65.65705108642578 29.55348014831543 65.93146514892578" stroke-width="3.0" fill="none" stroke="rgb(0, 0, 0)" stroke-opacity="1.0" stroke-linecap="round" stroke-linejoin="round"/>
    <path d="M 151.9847869873047 82.96240234375 C 212.74949645996094 69.19589233398438 163.44007873535156 71.07139587402344 176.16552734375 94.60611724853516" stroke-width="3.0" fill="none" stroke="rgb(0, 0, 0)" stroke-opacity="1.0" stroke-linecap="round" stroke-linejoin="round"/>
    <path d="M 106.51028442382812 112.22077178955078 C 112.23977661132812 158.0030059814453 81.62902069091797 196.86627197265625 111.97709655761719 191.1668701171875" stroke-width="3.0" fill="none" stroke="rgb(0, 0, 0)" stroke-opacity="1.0" stroke-linecap="round" stroke-linejoin="round"/>
    <path d="M 174.1241455078125 61.82499694824219 C 197.3011474609375 10.068635940551758 183.25625610351562 59.97283172607422 210.2347869873047 46.1666374206543" stroke-width="3.0" fill="none" stroke="rgb(0, 0, 0)" stroke-opacity="1.0" stroke-linecap="round" stroke-linejoin="round"/>
    <path d="M 199.70330810546875 63.06144714355469 C 168.83253479003906 34.94255828857422 214.2375030517578 39.114864349365234 202.5164031982422 54.847129821777344" stroke-width="3.0" fill="none" stroke="rgb(0, 0, 0)" stroke-opacity="1.0" stroke-linecap="round" stroke-linejoin="round"/>
  </g>
</svg>
