<?xml version="1.0" ?>
<svg xmlns="http://www.w3.org/2000/svg" version="1.1" width="224" height="224">
  <defs/>
  <g>
    <path d="M 154.08895874023438 101.50764465332031 C 117.44695281982422 85.09761810302734 179.61180114746094 132.35382080078125 121.0302963256836 73.12610626220703" stroke-width="3.0" fill="none" stroke="rgb(0, 0, 0)" stroke-opacity="1.0" stroke-linecap="round" stroke-linejoin="round"/>
    <path d="M 111.0287094116211 92.64167785644531 C 114.77738189697266 106.31979370117188 106.6253433227539 103.90846252441406 107.3340072631836 113.97210693359375" stroke-width="3.0" fill="none" stroke="rgb(0, 0, 0)" stroke-opacity="1.0" stroke-linecap="round" stroke-linejoin="round"/>
    <path d="M 138.7753143310547 101.39368438720703 C 142.07183837890625 66.34317016601562 122.49593353271484 127.80328369140625 177.13963317871094 89.23406219482422" stroke-width="3.0" fill="none" stroke="rgb(0, 0, 0)" stroke-opacity="1.0" stroke-linecap="round" stroke-linejoin="round"/>
    <path d="M 61.66263961791992 44.156761169433594 C 63.509918212890625 42.81367111206055 55.377655029296875 46.06003952026367 64.23812866210938 42.28260803222656" stroke-width="3.0" fill="none" stroke="rgb(0, 0, 0)" stroke-opacity="1.0" stroke-linecap="round" stroke-linejoin="round"/>
    <path d="M 129.2203826904297 84.42211151123047 C 106.45542907714844 43.04098129272461 110.80369567871094 66.18148803710938 98.88597106933594 48.13581848144531" stroke-width="3.0" fill="none" stroke="rgb(0, 0, 0)" stroke-opacity="1.0" stroke-linecap="round" stroke-linejoin="round"/>
    <path d="M 69.21011352539062 111.65874481201172 C 44.876502990722656 76.49618530273438 59.86097717285156 87.5886001586914 49.1822395324707 61.99418258666992" stroke-width="3.0" fill="none" stroke="rgb(0, 0, 0)" stroke-opacity="1.0" stroke-linecap="round" stroke-linejoin="round"/>
    <path d="M 183.931884765625 40.34662628173828 C 188.29026794433594 43.65230178833008 197.9982147216797 46.35646057128906 181.98382568359375 77.18585205078125" stroke-width="3.0" fill="none" stroke="rgb(0, 0, 0)" stroke-opacity="1.0" stroke-linecap="round" stroke-linejoin="round"/>
    <path d="M 103.73695373535156 193.05416870117188 C 121.41118621826172 79.89305877685547 122.360595703125 120.21607208251953 132.01507568359375 100.69806671142578" stroke-width="3.0" fill="none" stroke="rgb(0, 0, 0)" stroke-opacity="1.0" stroke-linecap="round" stroke-linejoin="round"/>
    <path d="M 45.6237907409668 92.0184555053711 C 24.807004928588867 179.1682891845703 18.31256866455078 121.89446258544922 37.910160064697266 198.1495361328125" stroke-width="3.0" fill="none" stroke="rgb(0, 0, 0)" stroke-opacity="1.0" stroke-linecap="round" stroke-linejoin="round"/>
    <path d="M 62.08251953125 43.525611877441406 C 92.49142456054688 16.919485092163086 140.31578063964844 107.75303649902344 168.51211547851562 80.31745147705078" stroke-width="3.0" fill="none" stroke="rgb(0, 0, 0)" stroke-opacity="1.0" stroke-linecap="round" stroke-linejoin="round"/>
    <path d="M 49.956356048583984 95.45974731445312 C 68.26066589355469 123.45338439941406 84.91410827636719 113.88664245605469 106.28001403808594 119.05094909667969" stroke-width="3.0" fill="none" stroke="rgb(0, 0, 0)" stroke-opacity="1.0" stroke-linecap="round" stroke-linejoin="round"/>
    <path d="M 18.346784591674805 132.0075225830078 C 7.1879048347473145 68.54737091064453 23.94785499572754 78.74638366699219 59.189979553222656 44.674591064453125" stroke-width="3.0" fill="none" stroke="rgb(0, 0, 0)" stroke-opacity="1.0" stroke-linecap="round" stroke-linejoin="round"/>
    <path d="M 166.9429473876953 85.22447204589844 C 195.6746063232422 37.44309997558594 200.1782989501953 51.112152099609375 179.20436096191406 85.92350006103516" stroke-width="3.0" fill="none" stroke="rgb(0, 0, 0)" stroke-opacity="1.0" stroke-linecap="round" stroke-linejoin="round"/>
    <path d="M 105.55636596679688 121.3148193359375 C 110.64456176757812 176.2901153564453 73.13818359375 198.93368530273438 113.18513488769531 187.8582305908203" stroke-width="3.0" fill="none" stroke="rgb(0, 0, 0)" stroke-opacity="1.0" stroke-linecap="round" stroke-linejoin="round"/>
    <path d="M 175.0608673095703 80.95407104492188 C 174.16775512695312 -0.02445410192012787 214.3845672607422 75.69767761230469 201.1361541748047 46.0825309753418" stroke-width="3.0" fill="none" stroke="rgb(0, 0, 0)" stroke-opacity="1.0" stroke-linecap="round" stroke-linejoin="round"/>
    <path d="M 196.63153076171875 58.5516471862793 C 151.03182983398438 43.92559814453125 248.02499389648438 44.87245559692383 199.4505157470703 55.45563507080078" stroke-width="3.0" fill="none" stroke="rgb(0, 0, 0)" stroke-opacity="1.0" stroke-linecap="round" stroke-linejoin="round"/>
  </g>
</svg>
