<?xml version="1.0" ?>
<svg xmlns="http://www.w3.org/2000/svg" version="1.1" width="224" height="224">
  <defs/>
  <g>
    <path d="M 155.26475524902344 100.6570816040039 C 118.98331451416016 92.2056884765625 165.2131805419922 117.00909423828125 134.1584930419922 83.99842071533203" stroke-width="3.0" fill="none" stroke="rgb(0, 0, 0)" stroke-opacity="1.0" stroke-linecap="round" stroke-linejoin="round"/>
    <path d="M 109.03044128417969 94.72892761230469 C 107.98283386230469 100.87622833251953 100.69613647460938 101.34257507324219 107.55525970458984 112.86375427246094" stroke-width="3.0" fill="none" stroke="rgb(0, 0, 0)" stroke-opacity="1.0" stroke-linecap="round" stroke-linejoin="round"/>
    <path d="M 140.27670288085938 103.07079315185547 C 152.6217803955078 71.31212615966797 113.46443176269531 121.76441192626953 174.6302947998047 93.9091796875" stroke-width="3.0" fill="none" stroke="rgb(0, 0, 0)" stroke-opacity="1.0" stroke-linecap="round" stroke-linejoin="round"/>
    <path d="M 63.15620040893555 44.03398513793945 C 62.86687469482422 45.408992767333984 55.09976577758789 51.630802154541016 64.1163330078125 41.67430114746094" stroke-width="3.0" fill="none" stroke="rgb(0, 0, 0)" stroke-opacity="1.0" stroke-linecap="round" stroke-linejoin="round"/>
    <path d="M 120.50675964355469 61.606971740722656 C 110.99205780029297 52.341217041015625 102.59031677246094 55.26604080200195 92.7057113647461 41.29943084716797" stroke-width="3.0" fill="none" stroke="rgb(0, 0, 0)" stroke-opacity="1.0" stroke-linecap="round" stroke-linejoin="round"/>
    <path d="M 73.6758804321289 112.12643432617188 C 48.53152847290039 93.83101654052734 67.65025329589844 96.02851867675781 45.19771957397461 79.47509765625" stroke-width="3.0" fill="none" stroke="rgb(0, 0, 0)" stroke-opacity="1.0" stroke-linecap="round" stroke-linejoin="round"/>
    <path d="M 186.7611846923828 47.38656234741211 C 174.6938018798828 54.84609603881836 196.98275756835938 54.09300231933594 173.72921752929688 81.0601577758789" stroke-width="3.0" fill="none" stroke="rgb(0, 0, 0)" stroke-opacity="1.0" stroke-linecap="round" stroke-linejoin="round"/>
    <path d="M 103.78453826904297 191.96620178222656 C 124.61329650878906 78.57936096191406 120.3194580078125 127.8548355102539 133.20753479003906 101.153564453125" stroke-width="3.0" fill="none" stroke="rgb(0, 0, 0)" stroke-opacity="1.0" stroke-linecap="round" stroke-linejoin="round"/>
    <path d="M 34.708377838134766 89.96640014648438 C 22.061965942382812 189.93788146972656 15.726340293884277 117.78721618652344 39.96438217163086 197.7125244140625" stroke-width="3.0" fill="none" stroke="rgb(0, 0, 0)" stroke-opacity="1.0" stroke-linecap="round" stroke-linejoin="round"/>
    <path d="M 63.86870193481445 44.13705825805664 C 92.33415985107422 12.412158966064453 137.28297424316406 99.4732437133789 165.91824340820312 85.6053466796875" stroke-width="3.0" fill="none" stroke="rgb(0, 0, 0)" stroke-opacity="1.0" stroke-linecap="round" stroke-linejoin="round"/>
    <path d="M 39.049415588378906 97.12586975097656 C 90.46507263183594 127.60039520263672 82.36026000976562 110.83271026611328 105.08036041259766 117.19171142578125" stroke-width="3.0" fill="none" stroke="rgb(0, 0, 0)" stroke-opacity="1.0" stroke-linecap="round" stroke-linejoin="round"/>
    <path d="M 34.258331298828125 84.28629302978516 C 34.925418853759766 67.93367767333984 25.861927032470703 70.36734771728516 40.000240325927734 56.15764236450195" stroke-width="3.0" fill="none" stroke="rgb(0, 0, 0)" stroke-opacity="1.0" stroke-linecap="round" stroke-linejoin="round"/>
    <path d="M 167.59629821777344 85.40250396728516 C 203.4095458984375 54.3981819152832 185.7836456298828 62.14592361450195 179.13475036621094 91.42732238769531" stroke-width="3.0" fill="none" stroke="rgb(0, 0, 0)" stroke-opacity="1.0" stroke-linecap="round" stroke-linejoin="round"/>
    <path d="M 105.16287231445312 118.09444427490234 C 109.87132263183594 187.1456298828125 78.72753143310547 194.68043518066406 113.31413269042969 186.38665771484375" stroke-width="3.0" fill="none" stroke="rgb(0, 0, 0)" stroke-opacity="1.0" stroke-linecap="round" stroke-linejoin="round"/>
    <path d="M 172.61257934570312 82.01226043701172 C 173.8010711669922 -1.0414503812789917 192.60365295410156 77.46227264404297 198.23550415039062 50.84592056274414" stroke-width="3.0" fill="none" stroke="rgb(0, 0, 0)" stroke-opacity="1.0" stroke-linecap="round" stroke-linejoin="round"/>
    <path d="M 193.42425537109375 63.62472152709961 C 148.25128173828125 37.65789031982422 232.6339874267578 48.22457504272461 202.33685302734375 51.34597396850586" stroke-width="3.0" fill="none" stroke="rgb(0, 0, 0)" stroke-opacity="1.0" stroke-linecap="round" stroke-linejoin="round"/>
  </g>
</svg>
