<?xml version="1.0" ?>
<svg xmlns="http://www.w3.org/2000/svg" version="1.1" width="224" height="224">
  <defs/>
  <g>
    <path d="M 131.82337951660156 110.0771713256836 C 131.9723358154297 94.72579193115234 145.44334411621094 134.6171875 123.50080871582031 70.72119140625" stroke-width="3.0" fill="none" stroke="rgb(0, 0, 0)" stroke-opacity="1.0" stroke-linecap="round" stroke-linejoin="round"/>
    <path d="M 109.13431549072266 91.66452026367188 C 113.09610748291016 100.27041625976562 101.70130157470703 102.64549255371094 108.72087097167969 113.15161895751953" stroke-width="3.0" fill="none" stroke="rgb(0, 0, 0)" stroke-opacity="1.0" stroke-linecap="round" stroke-linejoin="round"/>
    <path d="M 128.99737548828125 111.37297821044922 C 140.39199829101562 95.54078674316406 157.94296264648438 131.94703674316406 196.00814819335938 58.42479705810547" stroke-width="3.0" fill="none" stroke="rgb(0, 0, 0)" stroke-opacity="1.0" stroke-linecap="round" stroke-linejoin="round"/>
    <path d="M 64.89460754394531 40.91284942626953 C 64.13070678710938 38.96228790283203 52.714073181152344 46.97417068481445 42.84133529663086 56.97052764892578" stroke-width="3.0" fill="none" stroke="rgb(0, 0, 0)" stroke-opacity="1.0" stroke-linecap="round" stroke-linejoin="round"/>
    <path d="M 142.25607299804688 78.2899398803711 C 104.42655944824219 39.58912658691406 112.38555145263672 68.17267608642578 94.81608581542969 44.15558624267578" stroke-width="3.0" fill="none" stroke="rgb(0, 0, 0)" stroke-opacity="1.0" stroke-linecap="round" stroke-linejoin="round"/>
    <path d="M 65.71498107910156 109.07667541503906 C 41.29915237426758 81.1181869506836 61.0442008972168 94.8365478515625 44.692832946777344 76.71437072753906" stroke-width="3.0" fill="none" stroke="rgb(0, 0, 0)" stroke-opacity="1.0" stroke-linecap="round" stroke-linejoin="round"/>
    <path d="M 186.0524444580078 61.77713394165039 C 170.28823852539062 31.550634384155273 192.48587036132812 46.85531997680664 189.36170959472656 81.01054382324219" stroke-width="3.0" fill="none" stroke="rgb(0, 0, 0)" stroke-opacity="1.0" stroke-linecap="round" stroke-linejoin="round"/>
    <path d="M 104.58223724365234 195.10757446289062 C 111.43859100341797 107.6636962890625 121.39978790283203 143.29464721679688 126.87609100341797 99.40691375732422" stroke-width="3.0" fill="none" stroke="rgb(0, 0, 0)" stroke-opacity="1.0" stroke-linecap="round" stroke-linejoin="round"/>
    <path d="M 50.88994598388672 99.11644744873047 C 16.23099708557129 183.3050537109375 29.026241302490234 129.02943420410156 35.755313873291016 198.5131072998047" stroke-width="3.0" fill="none" stroke="rgb(0, 0, 0)" stroke-opacity="1.0" stroke-linecap="round" stroke-linejoin="round"/>
    <path d="M 65.69902038574219 39.249969482421875 C 101.74140167236328 13.15384292602539 156.71182250976562 137.85369873046875 176.10745239257812 52.731815338134766" stroke-width="3.0" fill="none" stroke="rgb(0, 0, 0)" stroke-opacity="1.0" stroke-linecap="round" stroke-linejoin="round"/>
    <path d="M 53.9648323059082 99.73094940185547 C 81.2034683227539 124.04576873779297 78.17435455322266 111.4848403930664 107.56092071533203 117.32606506347656" stroke-width="3.0" fill="none" stroke="rgb(0, 0, 0)" stroke-opacity="1.0" stroke-linecap="round" stroke-linejoin="round"/>
    <path d="M 26.25238609313965 144.07196044921875 C 28.204586029052734 106.28499603271484 -11.159903526306152 88.6594009399414 52.40519332885742 50.944339752197266" stroke-width="3.0" fill="none" stroke="rgb(0, 0, 0)" stroke-opacity="1.0" stroke-linecap="round" stroke-linejoin="round"/>
    <path d="M 174.7394561767578 90.08354949951172 C 189.42324829101562 16.870006561279297 207.4577178955078 26.327281951904297 172.1641845703125 94.67671966552734" stroke-width="3.0" fill="none" stroke="rgb(0, 0, 0)" stroke-opacity="1.0" stroke-linecap="round" stroke-linejoin="round"/>
    <path d="M 106.59718322753906 116.93267059326172 C 108.88998413085938 183.94647216796875 79.16981506347656 201.85440063476562 110.2728500366211 190.77601623535156" stroke-width="3.0" fill="none" stroke="rgb(0, 0, 0)" stroke-opacity="1.0" stroke-linecap="round" stroke-linejoin="round"/>
    <path d="M 170.86668395996094 72.52676391601562 C 177.39743041992188 1.4832375049591064 210.00982666015625 77.28618621826172 207.16336059570312 46.38467788696289" stroke-width="3.0" fill="none" stroke="rgb(0, 0, 0)" stroke-opacity="1.0" stroke-linecap="round" stroke-linejoin="round"/>
    <path d="M 190.67721557617188 64.33126831054688 C 155.96026611328125 41.94770431518555 255.57363891601562 44.586238861083984 192.7847900390625 59.317161560058594" stroke-width="3.0" fill="none" stroke="rgb(0, 0, 0)" stroke-opacity="1.0" stroke-linecap="round" stroke-linejoin="round"/>
  </g>
</svg>
