<?xml version="1.0" ?>
<svg xmlns="http://www.w3.org/2000/svg" version="1.1" width="224" height="224">
  <defs/>
  <g>
    <path d="M 137.5552215576172 105.11943054199219 C 118.61186981201172 91.82855987548828 152.5869140625 137.09605407714844 117.71961975097656 67.81576538085938" stroke-width="3.0" fill="none" stroke="rgb(0, 0, 0)" stroke-opacity="1.0" stroke-linecap="round" stroke-linejoin="round"/>
    <path d="M 108.6730728149414 93.4092788696289 C 110.64730834960938 103.18919372558594 101.74919128417969 105.12296295166016 108.36988067626953 113.3656005859375" stroke-width="3.0" fill="none" stroke="rgb(0, 0, 0)" stroke-opacity="1.0" stroke-linecap="round" stroke-linejoin="round"/>
    <path d="M 130.865234375 108.32586669921875 C 130.73052978515625 80.99510955810547 140.16751098632812 133.5072021484375 184.9888153076172 78.91429138183594" stroke-width="3.0" fill="none" stroke="rgb(0, 0, 0)" stroke-opacity="1.0" stroke-linecap="round" stroke-linejoin="round"/>
    <path d="M 70.00910949707031 39.84187698364258 C 64.8709945678711 38.039649963378906 53.64628982543945 47.273502349853516 51.34190368652344 50.38907241821289" stroke-width="3.0" fill="none" stroke="rgb(0, 0, 0)" stroke-opacity="1.0" stroke-linecap="round" stroke-linejoin="round"/>
    <path d="M 132.0303192138672 81.9944076538086 C 109.27239227294922 38.73830032348633 113.92322540283203 65.06243896484375 95.95318603515625 47.12043762207031" stroke-width="3.0" fill="none" stroke="rgb(0, 0, 0)" stroke-opacity="1.0" stroke-linecap="round" stroke-linejoin="round"/>
    <path d="M 67.14508819580078 112.43436431884766 C 39.29439163208008 83.74333953857422 62.01009750366211 102.54570007324219 42.79705047607422 79.00333404541016" stroke-width="3.0" fill="none" stroke="rgb(0, 0, 0)" stroke-opacity="1.0" stroke-linecap="round" stroke-linejoin="round"/>
    <path d="M 185.53750610351562 61.4565544128418 C 176.5608673095703 32.88103485107422 196.14852905273438 45.59330749511719 190.5457305908203 78.45277404785156" stroke-width="3.0" fill="none" stroke="rgb(0, 0, 0)" stroke-opacity="1.0" stroke-linecap="round" stroke-linejoin="round"/>
    <path d="M 100.78646087646484 188.90858459472656 C 122.26531982421875 80.5080337524414 123.29644012451172 128.6984100341797 124.95951080322266 102.92913818359375" stroke-width="3.0" fill="none" stroke="rgb(0, 0, 0)" stroke-opacity="1.0" stroke-linecap="round" stroke-linejoin="round"/>
    <path d="M 48.90394973754883 104.41162109375 C 20.950456619262695 174.9195098876953 12.694108009338379 122.95491790771484 38.37000274658203 201.04905700683594" stroke-width="3.0" fill="none" stroke="rgb(0, 0, 0)" stroke-opacity="1.0" stroke-linecap="round" stroke-linejoin="round"/>
    <path d="M 66.14216613769531 39.211360931396484 C 100.89950561523438 15.981029510498047 155.13455200195312 128.0244598388672 174.3196563720703 62.96649169921875" stroke-width="3.0" fill="none" stroke="rgb(0, 0, 0)" stroke-opacity="1.0" stroke-linecap="round" stroke-linejoin="round"/>
    <path d="M 47.836795806884766 103.62113189697266 C 86.67814636230469 123.55354309082031 81.07398223876953 113.62545013427734 105.43193054199219 116.32852172851562" stroke-width="3.0" fill="none" stroke="rgb(0, 0, 0)" stroke-opacity="1.0" stroke-linecap="round" stroke-linejoin="round"/>
    <path d="M 22.373552322387695 136.98895263671875 C 13.68104362487793 73.08456420898438 7.9405646324157715 86.97306060791016 55.01350784301758 48.075714111328125" stroke-width="3.0" fill="none" stroke="rgb(0, 0, 0)" stroke-opacity="1.0" stroke-linecap="round" stroke-linejoin="round"/>
    <path d="M 174.83172607421875 87.35822296142578 C 201.39686584472656 26.197385787963867 201.55264282226562 27.526655197143555 171.90533447265625 93.72482299804688" stroke-width="3.0" fill="none" stroke="rgb(0, 0, 0)" stroke-opacity="1.0" stroke-linecap="round" stroke-linejoin="round"/>
    <path d="M 107.42387390136719 118.32061004638672 C 109.15789031982422 177.8468017578125 75.26563262939453 194.10116577148438 108.73243713378906 192.80963134765625" stroke-width="3.0" fill="none" stroke="rgb(0, 0, 0)" stroke-opacity="1.0" stroke-linecap="round" stroke-linejoin="round"/>
    <path d="M 171.06834411621094 69.0677490234375 C 183.527587890625 5.8811354637146 221.3820037841797 74.77519989013672 210.12255859375 52.59965896606445" stroke-width="3.0" fill="none" stroke="rgb(0, 0, 0)" stroke-opacity="1.0" stroke-linecap="round" stroke-linejoin="round"/>
    <path d="M 196.287353515625 61.788612365722656 C 154.03787231445312 39.05029296875 256.5630798339844 44.94662094116211 199.24850463867188 58.801368713378906" stroke-width="3.0" fill="none" stroke="rgb(0, 0, 0)" stroke-opacity="1.0" stroke-linecap="round" stroke-linejoin="round"/>
  </g>
</svg>
