<?xml version="1.0" ?>
<svg xmlns="http://www.w3.org/2000/svg" version="1.1" width="224" height="224">
  <defs/>
  <g>
    <path d="M 149.12789916992188 105.95655059814453 C 132.8250274658203 92.45909881591797 151.3685760498047 84.9278564453125 140.59414672851562 93.7079086303711" stroke-width="3.0" fill="none" stroke="rgb(0, 0, 0)" stroke-opacity="1.0" stroke-linecap="round" stroke-linejoin="round"/>
    <path d="M 106.40482330322266 93.98876190185547 C 105.82191467285156 99.21905517578125 103.00688934326172 100.18254089355469 106.96018981933594 109.42743682861328" stroke-width="3.0" fill="none" stroke="rgb(0, 0, 0)" stroke-opacity="1.0" stroke-linecap="round" stroke-linejoin="round"/>
    <path d="M 131.9667205810547 108.03775787353516 C 155.6626434326172 93.19635772705078 120.161376953125 97.6893310546875 160.00477600097656 105.29712677001953" stroke-width="3.0" fill="none" stroke="rgb(0, 0, 0)" stroke-opacity="1.0" stroke-linecap="round" stroke-linejoin="round"/>
    <path d="M 59.25948715209961 44.90735626220703 C 50.83869171142578 47.55123519897461 33.444580078125 72.36518859863281 46.135231018066406 55.942039489746094" stroke-width="3.0" fill="none" stroke="rgb(0, 0, 0)" stroke-opacity="1.0" stroke-linecap="round" stroke-linejoin="round"/>
    <path d="M 101.79387664794922 53.0059814453125 C 119.29776000976562 53.58970260620117 104.99310302734375 51.80355453491211 98.00752258300781 45.445316314697266" stroke-width="3.0" fill="none" stroke="rgb(0, 0, 0)" stroke-opacity="1.0" stroke-linecap="round" stroke-linejoin="round"/>
    <path d="M 73.1657485961914 113.20719146728516 C 52.54237365722656 94.76082611083984 59.307193756103516 88.40470123291016 46.05146789550781 76.2811279296875" stroke-width="3.0" fill="none" stroke="rgb(0, 0, 0)" stroke-opacity="1.0" stroke-linecap="round" stroke-linejoin="round"/>
    <path d="M 182.17672729492188 45.77070236206055 C 180.74392700195312 65.4267807006836 205.9423370361328 66.80979919433594 174.37733459472656 83.80492401123047" stroke-width="3.0" fill="none" stroke="rgb(0, 0, 0)" stroke-opacity="1.0" stroke-linecap="round" stroke-linejoin="round"/>
    <path d="M 110.53872680664062 154.6379852294922 C 122.6602783203125 91.19178009033203 115.8271713256836 121.5157241821289 129.40823364257812 101.80290985107422" stroke-width="3.0" fill="none" stroke="rgb(0, 0, 0)" stroke-opacity="1.0" stroke-linecap="round" stroke-linejoin="round"/>
    <path d="M 47.676185607910156 92.08242797851562 C 25.214815139770508 185.51214599609375 18.222530364990234 124.69690704345703 42.25824737548828 197.7150421142578" stroke-width="3.0" fill="none" stroke="rgb(0, 0, 0)" stroke-opacity="1.0" stroke-linecap="round" stroke-linejoin="round"/>
    <path d="M 58.874271392822266 44.85423278808594 C 87.2417221069336 11.71509075164795 130.68153381347656 86.59251403808594 160.03515625 81.38334655761719" stroke-width="3.0" fill="none" stroke="rgb(0, 0, 0)" stroke-opacity="1.0" stroke-linecap="round" stroke-linejoin="round"/>
    <path d="M 46.6237907409668 100.35086822509766 C 94.47142791748047 124.8537826538086 90.45796203613281 110.93840789794922 104.36359405517578 117.12957000732422" stroke-width="3.0" fill="none" stroke="rgb(0, 0, 0)" stroke-opacity="1.0" stroke-linecap="round" stroke-linejoin="round"/>
    <path d="M 40.69586944580078 85.89915466308594 C 37.094303131103516 67.321533203125 27.98686408996582 62.05888748168945 30.67188262939453 61.9850959777832" stroke-width="3.0" fill="none" stroke="rgb(0, 0, 0)" stroke-opacity="1.0" stroke-linecap="round" stroke-linejoin="round"/>
    <path d="M 152.21804809570312 82.95921325683594 C 219.7482147216797 70.74322509765625 170.15164184570312 82.52640533447266 171.35317993164062 99.40077209472656" stroke-width="3.0" fill="none" stroke="rgb(0, 0, 0)" stroke-opacity="1.0" stroke-linecap="round" stroke-linejoin="round"/>
    <path d="M 107.943603515625 113.29279327392578 C 110.72108459472656 167.86729431152344 82.28816223144531 197.84063720703125 109.41521453857422 192.639892578125" stroke-width="3.0" fill="none" stroke="rgb(0, 0, 0)" stroke-opacity="1.0" stroke-linecap="round" stroke-linejoin="round"/>
    <path d="M 173.98316955566406 77.30216979980469 C 185.42147827148438 0.46806082129478455 179.8147430419922 66.54351043701172 206.13800048828125 46.773685455322266" stroke-width="3.0" fill="none" stroke="rgb(0, 0, 0)" stroke-opacity="1.0" stroke-linecap="round" stroke-linejoin="round"/>
    <path d="M 202.4431915283203 64.5383529663086 C 154.53201293945312 37.32902908325195 214.10311889648438 38.56204605102539 200.38365173339844 57.77981185913086" stroke-width="3.0" fill="none" stroke="rgb(0, 0, 0)" stroke-opacity="1.0" stroke-linecap="round" stroke-linejoin="round"/>
  </g>
</svg>
