<?xml version="1.0" ?>
<svg xmlns="http://www.w3.org/2000/svg" version="1.1" width="224" height="224">
  <defs/>
  <g>
    <path d="M 146.0960693359375 103.24983215332031 C 124.0120849609375 81.81238555908203 124.39898681640625 84.11493682861328 132.0614776611328 89.75607299804688" stroke-width="3.0" fill="none" stroke="rgb(0, 0, 0)" stroke-opacity="1.0" stroke-linecap="round" stroke-linejoin="round"/>
    <path d="M 97.85594177246094 95.12348175048828 C 98.5121078491211 96.15568542480469 99.3310775756836 101.48106384277344 106.59403991699219 106.86039733886719" stroke-width="3.0" fill="none" stroke="rgb(0, 0, 0)" stroke-opacity="1.0" stroke-linecap="round" stroke-linejoin="round"/>
    <path d="M 125.71925354003906 108.36456298828125 C 148.1571502685547 95.72286987304688 120.58248901367188 93.69388580322266 158.41165161132812 101.2420883178711" stroke-width="3.0" fill="none" stroke="rgb(0, 0, 0)" stroke-opacity="1.0" stroke-linecap="round" stroke-linejoin="round"/>
    <path d="M 59.203590393066406 43.85675811767578 C 51.92804718017578 54.267765045166016 25.967042922973633 72.22393798828125 41.27912902832031 62.05348587036133" stroke-width="3.0" fill="none" stroke="rgb(0, 0, 0)" stroke-opacity="1.0" stroke-linecap="round" stroke-linejoin="round"/>
    <path d="M 108.60092163085938 54.859737396240234 C 120.08609008789062 59.72312927246094 111.64582824707031 60.87060546875 104.32868957519531 49.76582717895508" stroke-width="3.0" fill="none" stroke="rgb(0, 0, 0)" stroke-opacity="1.0" stroke-linecap="round" stroke-linejoin="round"/>
    <path d="M 70.8177490234375 110.44351959228516 C 56.150611877441406 89.99666595458984 50.85995101928711 88.04598236083984 50.3397216796875 75.96566772460938" stroke-width="3.0" fill="none" stroke="rgb(0, 0, 0)" stroke-opacity="1.0" stroke-linecap="round" stroke-linejoin="round"/>
    <path d="M 180.03939819335938 44.91078567504883 C 173.37149047851562 68.34852600097656 190.10671997070312 67.4867172241211 168.6892547607422 78.6852798461914" stroke-width="3.0" fill="none" stroke="rgb(0, 0, 0)" stroke-opacity="1.0" stroke-linecap="round" stroke-linejoin="round"/>
    <path d="M 111.86164855957031 145.94839477539062 C 125.35066986083984 93.41151428222656 116.67898559570312 123.686767578125 129.88719177246094 101.17339324951172" stroke-width="3.0" fill="none" stroke="rgb(0, 0, 0)" stroke-opacity="1.0" stroke-linecap="round" stroke-linejoin="round"/>
    <path d="M 50.46671676635742 97.1128921508789 C 17.50509262084961 175.03028869628906 13.446349143981934 115.53431701660156 41.377952575683594 200.4801483154297" stroke-width="3.0" fill="none" stroke="rgb(0, 0, 0)" stroke-opacity="1.0" stroke-linecap="round" stroke-linejoin="round"/>
    <path d="M 61.00981140136719 43.18206787109375 C 91.54840850830078 17.327051162719727 127.90508270263672 79.08949279785156 149.85301208496094 82.17024230957031" stroke-width="3.0" fill="none" stroke="rgb(0, 0, 0)" stroke-opacity="1.0" stroke-linecap="round" stroke-linejoin="round"/>
    <path d="M 47.76314163208008 98.86156463623047 C 94.7677230834961 122.98117065429688 78.63851928710938 112.25543212890625 106.0674057006836 114.3936996459961" stroke-width="3.0" fill="none" stroke="rgb(0, 0, 0)" stroke-opacity="1.0" stroke-linecap="round" stroke-linejoin="round"/>
    <path d="M 42.67925262451172 82.8798599243164 C 34.90010452270508 65.97895050048828 29.57572364807129 65.79654693603516 30.690738677978516 65.28699493408203" stroke-width="3.0" fill="none" stroke="rgb(0, 0, 0)" stroke-opacity="1.0" stroke-linecap="round" stroke-linejoin="round"/>
    <path d="M 151.50526428222656 82.4597396850586 C 212.49603271484375 69.63560485839844 163.99972534179688 72.48091888427734 176.28518676757812 94.26789093017578" stroke-width="3.0" fill="none" stroke="rgb(0, 0, 0)" stroke-opacity="1.0" stroke-linecap="round" stroke-linejoin="round"/>
    <path d="M 106.72079467773438 110.3211898803711 C 112.78723907470703 157.1697235107422 82.71733856201172 197.87997436523438 112.25100708007812 192.74951171875" stroke-width="3.0" fill="none" stroke="rgb(0, 0, 0)" stroke-opacity="1.0" stroke-linecap="round" stroke-linejoin="round"/>
    <path d="M 178.0978546142578 61.19097137451172 C 196.85897827148438 11.54040813446045 182.029541015625 61.24452209472656 210.0373077392578 48.33632278442383" stroke-width="3.0" fill="none" stroke="rgb(0, 0, 0)" stroke-opacity="1.0" stroke-linecap="round" stroke-linejoin="round"/>
    <path d="M 197.62034606933594 63.25116729736328 C 167.0143280029297 37.04978561401367 212.71742248535156 38.960628509521484 200.7185821533203 57.556495666503906" stroke-width="3.0" fill="none" stroke="rgb(0, 0, 0)" stroke-opacity="1.0" stroke-linecap="round" stroke-linejoin="round"/>
  </g>
</svg>
