<?xml version="1.0" ?>
<svg xmlns="http://www.w3.org/2000/svg" version="1.1" width="224" height="224">
  <defs/>
  <g>
    <path d="M 151.7191162109375 103.04679107666016 C 117.6080551147461 81.2049560546875 178.5948486328125 131.4949493408203 120.29185485839844 74.24991607666016" stroke-width="3.0" fill="none" stroke="rgb(0, 0, 0)" stroke-opacity="1.0" stroke-linecap="round" stroke-linejoin="round"/>
    <path d="M 109.52377319335938 94.62199401855469 C 110.58482360839844 102.48787689208984 102.90116882324219 105.22954559326172 106.78561401367188 113.02776336669922" stroke-width="3.0" fill="none" stroke="rgb(0, 0, 0)" stroke-opacity="1.0" stroke-linecap="round" stroke-linejoin="round"/>
    <path d="M 137.57647705078125 103.305419921875 C 138.8346710205078 66.80513763427734 129.32366943359375 136.41781616210938 182.61807250976562 83.416015625" stroke-width="3.0" fill="none" stroke="rgb(0, 0, 0)" stroke-opacity="1.0" stroke-linecap="round" stroke-linejoin="round"/>
    <path d="M 63.1319580078125 42.129329681396484 C 63.990753173828125 41.58769226074219 57.07365798950195 45.64884948730469 63.93574142456055 41.58419418334961" stroke-width="3.0" fill="none" stroke="rgb(0, 0, 0)" stroke-opacity="1.0" stroke-linecap="round" stroke-linejoin="round"/>
    <path d="M 128.11497497558594 83.9954833984375 C 112.28408813476562 37.42782974243164 111.76671600341797 68.51151275634766 94.45282745361328 44.93387222290039" stroke-width="3.0" fill="none" stroke="rgb(0, 0, 0)" stroke-opacity="1.0" stroke-linecap="round" stroke-linejoin="round"/>
    <path d="M 69.64405059814453 110.46366119384766 C 45.474876403808594 73.65179443359375 60.7803840637207 89.04324340820312 49.16312789916992 64.60902404785156" stroke-width="3.0" fill="none" stroke="rgb(0, 0, 0)" stroke-opacity="1.0" stroke-linecap="round" stroke-linejoin="round"/>
    <path d="M 186.1702117919922 42.88003158569336 C 185.80653381347656 44.838050842285156 193.65135192871094 49.8939094543457 183.46246337890625 78.63125610351562" stroke-width="3.0" fill="none" stroke="rgb(0, 0, 0)" stroke-opacity="1.0" stroke-linecap="round" stroke-linejoin="round"/>
    <path d="M 102.4001235961914 193.95143127441406 C 123.59269714355469 80.99481964111328 122.93390655517578 121.04033660888672 130.67294311523438 100.91519927978516" stroke-width="3.0" fill="none" stroke="rgb(0, 0, 0)" stroke-opacity="1.0" stroke-linecap="round" stroke-linejoin="round"/>
    <path d="M 46.22479248046875 97.49799346923828 C 19.722251892089844 180.08897399902344 14.957716941833496 123.07257080078125 38.91032028198242 198.2977294921875" stroke-width="3.0" fill="none" stroke="rgb(0, 0, 0)" stroke-opacity="1.0" stroke-linecap="round" stroke-linejoin="round"/>
    <path d="M 62.46277618408203 43.0257453918457 C 93.40682220458984 16.538190841674805 143.193359375 108.07743072509766 168.84072875976562 79.82644653320312" stroke-width="3.0" fill="none" stroke="rgb(0, 0, 0)" stroke-opacity="1.0" stroke-linecap="round" stroke-linejoin="round"/>
    <path d="M 51.38887023925781 96.7052230834961 C 73.1000747680664 123.01288604736328 82.55130004882812 113.84515380859375 105.43328857421875 116.7398681640625" stroke-width="3.0" fill="none" stroke="rgb(0, 0, 0)" stroke-opacity="1.0" stroke-linecap="round" stroke-linejoin="round"/>
    <path d="M 24.074020385742188 132.54393005371094 C 10.750449180603027 65.16902160644531 20.72603416442871 78.87601470947266 58.608802795410156 44.596675872802734" stroke-width="3.0" fill="none" stroke="rgb(0, 0, 0)" stroke-opacity="1.0" stroke-linecap="round" stroke-linejoin="round"/>
    <path d="M 166.191162109375 81.3067398071289 C 192.60025024414062 37.72822570800781 189.71475219726562 45.42775344848633 172.8841094970703 91.50330352783203" stroke-width="3.0" fill="none" stroke="rgb(0, 0, 0)" stroke-opacity="1.0" stroke-linecap="round" stroke-linejoin="round"/>
    <path d="M 104.57401275634766 117.60421752929688 C 109.53462982177734 179.9967041015625 76.01463317871094 201.2716522216797 110.48908233642578 189.15701293945312" stroke-width="3.0" fill="none" stroke="rgb(0, 0, 0)" stroke-opacity="1.0" stroke-linecap="round" stroke-linejoin="round"/>
    <path d="M 170.4183807373047 78.4675064086914 C 172.6308135986328 -3.442548990249634 213.8925018310547 74.12702178955078 206.59201049804688 50.182960510253906" stroke-width="3.0" fill="none" stroke="rgb(0, 0, 0)" stroke-opacity="1.0" stroke-linecap="round" stroke-linejoin="round"/>
    <path d="M 193.6439666748047 60.65996551513672 C 150.2269744873047 37.55963134765625 253.3470458984375 46.171844482421875 200.08554077148438 57.71627426147461" stroke-width="3.0" fill="none" stroke="rgb(0, 0, 0)" stroke-opacity="1.0" stroke-linecap="round" stroke-linejoin="round"/>
  </g>
</svg>
