<?xml version="1.0" ?>
<svg xmlns="http://www.w3.org/2000/svg" version="1.1" width="224" height="224">
  <defs/>
  <g>
    <path d="M 137.72085571289062 104.2886734008789 C 121.22029876708984 91.44180297851562 154.2156219482422 133.7248992919922 116.26799011230469 66.13082122802734" stroke-width="3.0" fill="none" stroke="rgb(0, 0, 0)" stroke-opacity="1.0" stroke-linecap="round" stroke-linejoin="round"/>
    <path d="M 111.75676727294922 93.58806610107422 C 112.40035247802734 104.4261245727539 104.60962677001953 104.97306060791016 110.98890686035156 113.33515167236328" stroke-width="3.0" fill="none" stroke="rgb(0, 0, 0)" stroke-opacity="1.0" stroke-linecap="round" stroke-linejoin="round"/>
    <path d="M 130.3184814453125 107.17887878417969 C 130.3953094482422 83.01473999023438 144.1790008544922 135.7986602783203 188.85617065429688 73.65665435791016" stroke-width="3.0" fill="none" stroke="rgb(0, 0, 0)" stroke-opacity="1.0" stroke-linecap="round" stroke-linejoin="round"/>
    <path d="M 68.3289794921875 39.35709762573242 C 65.27762603759766 40.36478805541992 53.942405700683594 47.867557525634766 45.72134780883789 57.0374641418457" stroke-width="3.0" fill="none" stroke="rgb(0, 0, 0)" stroke-opacity="1.0" stroke-linecap="round" stroke-linejoin="round"/>
    <path d="M 133.3276824951172 83.11454772949219 C 106.84097290039062 39.61974334716797 110.2403793334961 67.4801025390625 97.0099868774414 45.5075798034668" stroke-width="3.0" fill="none" stroke="rgb(0, 0, 0)" stroke-opacity="1.0" stroke-linecap="round" stroke-linejoin="round"/>
    <path d="M 69.84687042236328 111.29705810546875 C 40.73122024536133 82.56521606445312 62.54629135131836 99.22819519042969 41.87495422363281 72.30067443847656" stroke-width="3.0" fill="none" stroke="rgb(0, 0, 0)" stroke-opacity="1.0" stroke-linecap="round" stroke-linejoin="round"/>
    <path d="M 182.20399475097656 60.166481018066406 C 172.2613983154297 38.6166877746582 196.9036865234375 52.44618225097656 186.63890075683594 82.60082244873047" stroke-width="3.0" fill="none" stroke="rgb(0, 0, 0)" stroke-opacity="1.0" stroke-linecap="round" stroke-linejoin="round"/>
    <path d="M 103.6357421875 191.49575805664062 C 119.03350067138672 86.74117279052734 121.68115234375 132.43727111816406 121.98868560791016 106.62551879882812" stroke-width="3.0" fill="none" stroke="rgb(0, 0, 0)" stroke-opacity="1.0" stroke-linecap="round" stroke-linejoin="round"/>
    <path d="M 46.88982009887695 101.38726043701172 C 25.728294372558594 173.4901885986328 14.119470596313477 127.83322143554688 40.76668167114258 198.6886749267578" stroke-width="3.0" fill="none" stroke="rgb(0, 0, 0)" stroke-opacity="1.0" stroke-linecap="round" stroke-linejoin="round"/>
    <path d="M 67.66847229003906 40.733821868896484 C 99.54667663574219 17.827125549316406 159.0145263671875 137.6434783935547 173.13461303710938 56.42098617553711" stroke-width="3.0" fill="none" stroke="rgb(0, 0, 0)" stroke-opacity="1.0" stroke-linecap="round" stroke-linejoin="round"/>
    <path d="M 50.910335540771484 101.99368286132812 C 84.86739349365234 125.87379455566406 78.99686431884766 115.04685974121094 105.25422668457031 118.2120590209961" stroke-width="3.0" fill="none" stroke="rgb(0, 0, 0)" stroke-opacity="1.0" stroke-linecap="round" stroke-linejoin="round"/>
    <path d="M 22.95947265625 137.67091369628906 C 15.067795753479004 78.19377136230469 5.519176006317139 86.59234619140625 52.600887298583984 49.84779739379883" stroke-width="3.0" fill="none" stroke="rgb(0, 0, 0)" stroke-opacity="1.0" stroke-linecap="round" stroke-linejoin="round"/>
    <path d="M 174.8557586669922 87.14920043945312 C 190.36138916015625 16.915090560913086 207.0146026611328 30.112213134765625 171.31971740722656 93.2928466796875" stroke-width="3.0" fill="none" stroke="rgb(0, 0, 0)" stroke-opacity="1.0" stroke-linecap="round" stroke-linejoin="round"/>
    <path d="M 106.3012466430664 115.65689849853516 C 107.62483215332031 188.16036987304688 77.62321472167969 200.9025115966797 109.22550964355469 193.6964569091797" stroke-width="3.0" fill="none" stroke="rgb(0, 0, 0)" stroke-opacity="1.0" stroke-linecap="round" stroke-linejoin="round"/>
    <path d="M 170.43951416015625 63.251224517822266 C 182.23245239257812 7.534702777862549 216.02578735351562 77.35741424560547 203.86062622070312 49.98809051513672" stroke-width="3.0" fill="none" stroke="rgb(0, 0, 0)" stroke-opacity="1.0" stroke-linecap="round" stroke-linejoin="round"/>
    <path d="M 192.56398010253906 62.335304260253906 C 145.2808837890625 40.4555549621582 252.99127197265625 45.91965866088867 196.92897033691406 59.48331069946289" stroke-width="3.0" fill="none" stroke="rgb(0, 0, 0)" stroke-opacity="1.0" stroke-linecap="round" stroke-linejoin="round"/>
  </g>
</svg>
