<?xml version="1.0" ?>
<svg xmlns="http://www.w3.org/2000/svg" version="1.1" width="224" height="224">
  <defs/>
  <g>
    <path d="M 149.67794799804688 103.43071746826172 C 130.48997497558594 97.80138397216797 151.72882080078125 89.89897918701172 139.99827575683594 97.85079956054688" stroke-width="3.0" fill="none" stroke="rgb(0, 0, 0)" stroke-opacity="1.0" stroke-linecap="round" stroke-linejoin="round"/>
    <path d="M 106.19348907470703 90.30929565429688 C 103.93879699707031 98.36946868896484 101.98727416992188 100.05594635009766 108.78644561767578 106.74578857421875" stroke-width="3.0" fill="none" stroke="rgb(0, 0, 0)" stroke-opacity="1.0" stroke-linecap="round" stroke-linejoin="round"/>
    <path d="M 133.25473022460938 108.64556121826172 C 155.6058349609375 94.41395568847656 119.6633071899414 98.79110717773438 158.71176147460938 105.30895233154297" stroke-width="3.0" fill="none" stroke="rgb(0, 0, 0)" stroke-opacity="1.0" stroke-linecap="round" stroke-linejoin="round"/>
    <path d="M 58.85175323486328 44.687984466552734 C 50.003456115722656 45.91737365722656 33.8200798034668 70.79527282714844 47.79674530029297 55.9699821472168" stroke-width="3.0" fill="none" stroke="rgb(0, 0, 0)" stroke-opacity="1.0" stroke-linecap="round" stroke-linejoin="round"/>
    <path d="M 101.04207611083984 49.32700729370117 C 118.91470336914062 56.10029220581055 104.71244812011719 52.13430404663086 97.20291137695312 45.27021026611328" stroke-width="3.0" fill="none" stroke="rgb(0, 0, 0)" stroke-opacity="1.0" stroke-linecap="round" stroke-linejoin="round"/>
    <path d="M 75.90850830078125 111.37904357910156 C 51.97715759277344 93.81092834472656 59.86658477783203 88.96771240234375 45.18748092651367 74.66547393798828" stroke-width="3.0" fill="none" stroke="rgb(0, 0, 0)" stroke-opacity="1.0" stroke-linecap="round" stroke-linejoin="round"/>
    <path d="M 184.21914672851562 43.98272705078125 C 179.8097686767578 69.08477020263672 207.2859649658203 72.05066680908203 175.45664978027344 86.50684356689453" stroke-width="3.0" fill="none" stroke="rgb(0, 0, 0)" stroke-opacity="1.0" stroke-linecap="round" stroke-linejoin="round"/>
    <path d="M 109.2196273803711 158.10093688964844 C 126.53816223144531 94.4006576538086 118.05250549316406 122.8075180053711 131.39212036132812 102.6701889038086" stroke-width="3.0" fill="none" stroke="rgb(0, 0, 0)" stroke-opacity="1.0" stroke-linecap="round" stroke-linejoin="round"/>
    <path d="M 47.736751556396484 91.84732055664062 C 23.973140716552734 185.87820434570312 15.607892990112305 126.01211547851562 43.30120849609375 197.66038513183594" stroke-width="3.0" fill="none" stroke="rgb(0, 0, 0)" stroke-opacity="1.0" stroke-linecap="round" stroke-linejoin="round"/>
    <path d="M 60.09147262573242 44.11384201049805 C 89.11677551269531 9.602665901184082 130.30506896972656 87.92459106445312 159.52902221679688 82.1733169555664" stroke-width="3.0" fill="none" stroke="rgb(0, 0, 0)" stroke-opacity="1.0" stroke-linecap="round" stroke-linejoin="round"/>
    <path d="M 46.09419250488281 101.02061462402344 C 93.63298797607422 124.11257934570312 91.20540618896484 107.40235900878906 104.65544128417969 116.54570007324219" stroke-width="3.0" fill="none" stroke="rgb(0, 0, 0)" stroke-opacity="1.0" stroke-linecap="round" stroke-linejoin="round"/>
    <path d="M 38.97107696533203 88.345947265625 C 39.91979217529297 66.35786437988281 29.875146865844727 61.994606018066406 28.67096710205078 62.61703109741211" stroke-width="3.0" fill="none" stroke="rgb(0, 0, 0)" stroke-opacity="1.0" stroke-linecap="round" stroke-linejoin="round"/>
    <path d="M 156.77684020996094 83.4969711303711 C 220.662353515625 74.46565246582031 169.48190307617188 80.01141357421875 171.67318725585938 98.0523452758789" stroke-width="3.0" fill="none" stroke="rgb(0, 0, 0)" stroke-opacity="1.0" stroke-linecap="round" stroke-linejoin="round"/>
    <path d="M 107.91423034667969 111.16372680664062 C 111.06949615478516 169.67523193359375 83.24008178710938 196.32310485839844 107.9122314453125 193.7666778564453" stroke-width="3.0" fill="none" stroke="rgb(0, 0, 0)" stroke-opacity="1.0" stroke-linecap="round" stroke-linejoin="round"/>
    <path d="M 174.09927368164062 78.68962097167969 C 184.0584716796875 1.4213981628417969 179.18698120117188 68.39913177490234 205.43338012695312 44.19306182861328" stroke-width="3.0" fill="none" stroke="rgb(0, 0, 0)" stroke-opacity="1.0" stroke-linecap="round" stroke-linejoin="round"/>
    <path d="M 201.1547393798828 64.01477813720703 C 151.60427856445312 37.31162643432617 211.11270141601562 40.660247802734375 200.8794403076172 54.92055130004883" stroke-width="3.0" fill="none" stroke="rgb(0, 0, 0)" stroke-opacity="1.0" stroke-linecap="round" stroke-linejoin="round"/>
  </g>
</svg>
