<?xml version="1.0" ?>
<svg xmlns="http://www.w3.org/2000/svg" version="1.1" width="224" height="224">
  <defs/>
  <g>
    <path d="M 136.86752319335938 107.69188690185547 C 121.58164978027344 89.44322204589844 152.14584350585938 138.54359436035156 119.1557388305664 64.69832611083984" stroke-width="3.0" fill="none" stroke="rgb(0, 0, 0)" stroke-opacity="1.0" stroke-linecap="round" stroke-linejoin="round"/>
    <path d="M 107.27398681640625 95.44605255126953 C 109.75202178955078 105.95850372314453 101.20960235595703 106.41896057128906 107.41879272460938 113.22319030761719" stroke-width="3.0" fill="none" stroke="rgb(0, 0, 0)" stroke-opacity="1.0" stroke-linecap="round" stroke-linejoin="round"/>
    <path d="M 131.53111267089844 108.72203063964844 C 131.81678771972656 81.06218719482422 141.5226593017578 133.5553436279297 187.29588317871094 79.1788330078125" stroke-width="3.0" fill="none" stroke="rgb(0, 0, 0)" stroke-opacity="1.0" stroke-linecap="round" stroke-linejoin="round"/>
    <path d="M 72.25334930419922 37.50693893432617 C 65.30731201171875 39.879703521728516 56.44253158569336 45.96018600463867 55.65744400024414 45.762935638427734" stroke-width="3.0" fill="none" stroke="rgb(0, 0, 0)" stroke-opacity="1.0" stroke-linecap="round" stroke-linejoin="round"/>
    <path d="M 135.79629516601562 81.60028839111328 C 107.14002227783203 40.953590393066406 111.10360717773438 66.14964294433594 94.87455749511719 44.370147705078125" stroke-width="3.0" fill="none" stroke="rgb(0, 0, 0)" stroke-opacity="1.0" stroke-linecap="round" stroke-linejoin="round"/>
    <path d="M 68.49334716796875 111.41748809814453 C 36.52962875366211 80.0395278930664 63.53993225097656 99.38227081298828 40.8863639831543 72.97599029541016" stroke-width="3.0" fill="none" stroke="rgb(0, 0, 0)" stroke-opacity="1.0" stroke-linecap="round" stroke-linejoin="round"/>
    <path d="M 184.80482482910156 62.515113830566406 C 178.87750244140625 32.192420959472656 189.24937438964844 48.4449577331543 186.82777404785156 76.96955871582031" stroke-width="3.0" fill="none" stroke="rgb(0, 0, 0)" stroke-opacity="1.0" stroke-linecap="round" stroke-linejoin="round"/>
    <path d="M 101.6411361694336 194.63275146484375 C 119.42955780029297 80.10810852050781 122.85055541992188 128.10919189453125 126.85185241699219 103.5622329711914" stroke-width="3.0" fill="none" stroke="rgb(0, 0, 0)" stroke-opacity="1.0" stroke-linecap="round" stroke-linejoin="round"/>
    <path d="M 46.40778732299805 105.85956573486328 C 26.199918746948242 176.84703063964844 18.820249557495117 123.26332092285156 40.978328704833984 201.08860778808594" stroke-width="3.0" fill="none" stroke="rgb(0, 0, 0)" stroke-opacity="1.0" stroke-linecap="round" stroke-linejoin="round"/>
    <path d="M 65.39450073242188 40.90094757080078 C 98.16879272460938 15.914166450500488 157.47828674316406 126.25238037109375 171.7391815185547 65.03165435791016" stroke-width="3.0" fill="none" stroke="rgb(0, 0, 0)" stroke-opacity="1.0" stroke-linecap="round" stroke-linejoin="round"/>
    <path d="M 45.76563262939453 102.91725158691406 C 84.41108703613281 121.12936401367188 80.6552734375 113.05718994140625 104.16844177246094 117.39054870605469" stroke-width="3.0" fill="none" stroke="rgb(0, 0, 0)" stroke-opacity="1.0" stroke-linecap="round" stroke-linejoin="round"/>
    <path d="M 20.877275466918945 137.48887634277344 C 11.18420124053955 69.5025405883789 11.269501686096191 86.53504943847656 55.12383270263672 45.96898651123047" stroke-width="3.0" fill="none" stroke="rgb(0, 0, 0)" stroke-opacity="1.0" stroke-linecap="round" stroke-linejoin="round"/>
    <path d="M 177.97906494140625 87.28340911865234 C 201.34681701660156 25.793903350830078 195.27627563476562 22.12180519104004 169.87966918945312 89.5720443725586" stroke-width="3.0" fill="none" stroke="rgb(0, 0, 0)" stroke-opacity="1.0" stroke-linecap="round" stroke-linejoin="round"/>
    <path d="M 105.35485076904297 117.2444076538086 C 110.03294372558594 183.31443786621094 71.95781707763672 208.1921844482422 109.61906433105469 193.8679962158203" stroke-width="3.0" fill="none" stroke="rgb(0, 0, 0)" stroke-opacity="1.0" stroke-linecap="round" stroke-linejoin="round"/>
    <path d="M 172.6207733154297 67.808837890625 C 178.61424255371094 4.432509422302246 219.22589111328125 77.72053527832031 207.8517608642578 46.423072814941406" stroke-width="3.0" fill="none" stroke="rgb(0, 0, 0)" stroke-opacity="1.0" stroke-linecap="round" stroke-linejoin="round"/>
    <path d="M 193.34739685058594 62.909629821777344 C 155.8457489013672 44.38459777832031 259.9049377441406 45.48423767089844 197.55880737304688 59.9060173034668" stroke-width="3.0" fill="none" stroke="rgb(0, 0, 0)" stroke-opacity="1.0" stroke-linecap="round" stroke-linejoin="round"/>
  </g>
</svg>
