<?xml version="1.0" ?>
<svg xmlns="http://www.w3.org/2000/svg" version="1.1" width="224" height="224">
  <defs/>
  <g>
    <path d="M 139.93353271484375 106.02559661865234 C 121.65676879882812 91.99934387207031 153.98367309570312 138.47470092773438 118.32538604736328 67.15516662597656" stroke-width="3.0" fill="none" stroke="rgb(0, 0, 0)" stroke-opacity="1.0" stroke-linecap="round" stroke-linejoin="round"/>
    <path d="M 108.49710845947266 94.54704284667969 C 110.04998016357422 102.8940658569336 102.19157409667969 102.3088150024414 107.68190002441406 114.5531005859375" stroke-width="3.0" fill="none" stroke="rgb(0, 0, 0)" stroke-opacity="1.0" stroke-linecap="round" stroke-linejoin="round"/>
    <path d="M 131.15396118164062 107.57540893554688 C 133.83799743652344 82.18730163574219 142.82484436035156 134.8646697998047 187.0650634765625 81.0849838256836" stroke-width="3.0" fill="none" stroke="rgb(0, 0, 0)" stroke-opacity="1.0" stroke-linecap="round" stroke-linejoin="round"/>
    <path d="M 71.36945343017578 38.306583404541016 C 64.95769500732422 38.632057189941406 53.67896270751953 47.161041259765625 51.550872802734375 51.232872009277344" stroke-width="3.0" fill="none" stroke="rgb(0, 0, 0)" stroke-opacity="1.0" stroke-linecap="round" stroke-linejoin="round"/>
    <path d="M 132.54171752929688 81.96497344970703 C 110.15434265136719 39.40391159057617 112.6842269897461 65.31211853027344 95.81683349609375 45.12162780761719" stroke-width="3.0" fill="none" stroke="rgb(0, 0, 0)" stroke-opacity="1.0" stroke-linecap="round" stroke-linejoin="round"/>
    <path d="M 67.85648345947266 114.89817810058594 C 38.4139518737793 85.12336730957031 61.60810089111328 104.89041900634766 43.827125549316406 79.49896240234375" stroke-width="3.0" fill="none" stroke="rgb(0, 0, 0)" stroke-opacity="1.0" stroke-linecap="round" stroke-linejoin="round"/>
    <path d="M 184.4139862060547 59.461238861083984 C 176.74896240234375 33.4539909362793 195.82498168945312 44.08131408691406 189.6036834716797 78.36689758300781" stroke-width="3.0" fill="none" stroke="rgb(0, 0, 0)" stroke-opacity="1.0" stroke-linecap="round" stroke-linejoin="round"/>
    <path d="M 99.61582946777344 191.05433654785156 C 123.57003021240234 82.68524932861328 123.68168640136719 128.6144256591797 125.21691131591797 101.75157928466797" stroke-width="3.0" fill="none" stroke="rgb(0, 0, 0)" stroke-opacity="1.0" stroke-linecap="round" stroke-linejoin="round"/>
    <path d="M 42.97517395019531 100.66913604736328 C 23.48471450805664 179.0958251953125 17.012149810791016 123.71827697753906 42.54231643676758 196.50851440429688" stroke-width="3.0" fill="none" stroke="rgb(0, 0, 0)" stroke-opacity="1.0" stroke-linecap="round" stroke-linejoin="round"/>
    <path d="M 66.06153869628906 39.28937911987305 C 99.61677551269531 17.147268295288086 156.26539611816406 130.42044067382812 172.65130615234375 65.38053131103516" stroke-width="3.0" fill="none" stroke="rgb(0, 0, 0)" stroke-opacity="1.0" stroke-linecap="round" stroke-linejoin="round"/>
    <path d="M 46.3939208984375 103.19158172607422 C 86.06636810302734 123.76313781738281 80.12174224853516 116.38594818115234 103.9128189086914 120.92939758300781" stroke-width="3.0" fill="none" stroke="rgb(0, 0, 0)" stroke-opacity="1.0" stroke-linecap="round" stroke-linejoin="round"/>
    <path d="M 22.520370483398438 136.0278778076172 C 13.312877655029297 71.85789489746094 8.889944076538086 88.34248352050781 54.35633087158203 47.407737731933594" stroke-width="3.0" fill="none" stroke="rgb(0, 0, 0)" stroke-opacity="1.0" stroke-linecap="round" stroke-linejoin="round"/>
    <path d="M 175.47911071777344 87.89875793457031 C 198.21180725097656 24.835433959960938 199.7976837158203 26.7076416015625 173.5742645263672 94.0073013305664" stroke-width="3.0" fill="none" stroke="rgb(0, 0, 0)" stroke-opacity="1.0" stroke-linecap="round" stroke-linejoin="round"/>
    <path d="M 104.34285736083984 119.06671142578125 C 108.18926239013672 176.76080322265625 73.16747283935547 197.51356506347656 108.35407257080078 193.5142059326172" stroke-width="3.0" fill="none" stroke="rgb(0, 0, 0)" stroke-opacity="1.0" stroke-linecap="round" stroke-linejoin="round"/>
    <path d="M 172.4478759765625 65.89701080322266 C 182.20269775390625 4.760377883911133 221.58851623535156 74.51824951171875 211.8527374267578 49.172977447509766" stroke-width="3.0" fill="none" stroke="rgb(0, 0, 0)" stroke-opacity="1.0" stroke-linecap="round" stroke-linejoin="round"/>
    <path d="M 197.2334442138672 61.48521041870117 C 156.9706573486328 37.99331283569336 260.63238525390625 45.610565185546875 199.6944122314453 58.03392028808594" stroke-width="3.0" fill="none" stroke="rgb(0, 0, 0)" stroke-opacity="1.0" stroke-linecap="round" stroke-linejoin="round"/>
  </g>
</svg>
