<?xml version="1.0" ?>
<svg xmlns="http://www.w3.org/2000/svg" version="1.1" width="224" height="224">
  <defs/>
  <g>
    <path d="M 138.56222534179688 90.72731018066406 C 127.34915161132812 68.4770278930664 130.02133178710938 64.71783447265625 133.5406036376953 79.7953109741211" stroke-width="3.0" fill="none" stroke="rgb(0, 0, 0)" stroke-opacity="1.0" stroke-linecap="round" stroke-linejoin="round"/>
    <path d="M 97.18565368652344 90.00961303710938 C 93.71907806396484 96.9604721069336 98.56192779541016 108.82351684570312 102.87709045410156 109.99788665771484" stroke-width="3.0" fill="none" stroke="rgb(0, 0, 0)" stroke-opacity="1.0" stroke-linecap="round" stroke-linejoin="round"/>
    <path d="M 142.41683959960938 106.8916015625 C 148.87466430664062 99.14442443847656 130.3975067138672 80.72411346435547 150.6190948486328 102.97392272949219" stroke-width="3.0" fill="none" stroke="rgb(0, 0, 0)" stroke-opacity="1.0" stroke-linecap="round" stroke-linejoin="round"/>
    <path d="M 53.074623107910156 50.19538116455078 C 57.65192794799805 72.89358520507812 42.578922271728516 102.53713989257812 50.36550521850586 85.84263610839844" stroke-width="3.0" fill="none" stroke="rgb(0, 0, 0)" stroke-opacity="1.0" stroke-linecap="round" stroke-linejoin="round"/>
    <path d="M 115.5626220703125 54.01765441894531 C 117.17908477783203 62.39390563964844 117.39530181884766 60.42607116699219 117.61809539794922 56.06895446777344" stroke-width="3.0" fill="none" stroke="rgb(0, 0, 0)" stroke-opacity="1.0" stroke-linecap="round" stroke-linejoin="round"/>
    <path d="M 60.51966857910156 99.1100082397461 C 56.84764862060547 94.67184448242188 53.54906463623047 82.13378143310547 51.97673416137695 78.33660888671875" stroke-width="3.0" fill="none" stroke="rgb(0, 0, 0)" stroke-opacity="1.0" stroke-linecap="round" stroke-linejoin="round"/>
    <path d="M 178.11172485351562 42.02016830444336 C 178.2489471435547 79.73965454101562 177.35720825195312 73.75098419189453 162.7061309814453 80.96016693115234" stroke-width="3.0" fill="none" stroke="rgb(0, 0, 0)" stroke-opacity="1.0" stroke-linecap="round" stroke-linejoin="round"/>
    <path d="M 117.03263854980469 143.62789916992188 C 125.21800231933594 108.09474182128906 108.90400695800781 140.09628295898438 124.32808685302734 116.96452331542969" stroke-width="3.0" fill="none" stroke="rgb(0, 0, 0)" stroke-opacity="1.0" stroke-linecap="round" stroke-linejoin="round"/>
    <path d="M 35.19459915161133 121.7876205444336 C 20.16273307800293 174.5114288330078 22.583635330200195 145.6222381591797 43.25887680053711 197.72195434570312" stroke-width="3.0" fill="none" stroke="rgb(0, 0, 0)" stroke-opacity="1.0" stroke-linecap="round" stroke-linejoin="round"/>
    <path d="M 67.56827545166016 39.46726608276367 C 118.78424835205078 38.440460205078125 119.71060180664062 69.21495056152344 141.84332275390625 80.7839126586914" stroke-width="3.0" fill="none" stroke="rgb(0, 0, 0)" stroke-opacity="1.0" stroke-linecap="round" stroke-linejoin="round"/>
    <path d="M 55.9798583984375 90.53944396972656 C 85.95049285888672 125.96566772460938 78.15000915527344 116.92919921875 103.61369323730469 120.17681121826172" stroke-width="3.0" fill="none" stroke="rgb(0, 0, 0)" stroke-opacity="1.0" stroke-linecap="round" stroke-linejoin="round"/>
    <path d="M 29.228288650512695 93.73578643798828 C 23.670204162597656 82.4974594116211 17.98682975769043 83.48810577392578 19.781442642211914 78.26258850097656" stroke-width="3.0" fill="none" stroke="rgb(0, 0, 0)" stroke-opacity="1.0" stroke-linecap="round" stroke-linejoin="round"/>
    <path d="M 142.5229949951172 82.339599609375 C 200.177734375 79.28153228759766 156.2830810546875 77.45037078857422 170.014404296875 100.54674530029297" stroke-width="3.0" fill="none" stroke="rgb(0, 0, 0)" stroke-opacity="1.0" stroke-linecap="round" stroke-linejoin="round"/>
    <path d="M 106.89918518066406 113.48832702636719 C 121.06044006347656 149.8127899169922 89.30025482177734 200.5634765625 112.15320587158203 190.26991271972656" stroke-width="3.0" fill="none" stroke="rgb(0, 0, 0)" stroke-opacity="1.0" stroke-linecap="round" stroke-linejoin="round"/>
    <path d="M 173.0926055908203 59.02480697631836 C 191.4914093017578 11.608835220336914 184.0185546875 62.114524841308594 207.49765014648438 47.448909759521484" stroke-width="3.0" fill="none" stroke="rgb(0, 0, 0)" stroke-opacity="1.0" stroke-linecap="round" stroke-linejoin="round"/>
    <path d="M 196.08506774902344 64.51022338867188 C 164.97637939453125 44.25981140136719 208.68980407714844 36.612022399902344 205.09544372558594 57.133304595947266" stroke-width="3.0" fill="none" stroke="rgb(0, 0, 0)" stroke-opacity="1.0" stroke-linecap="round" stroke-linejoin="round"/>
  </g>
</svg>
