<?xml version="1.0" ?>
<svg xmlns="http://www.w3.org/2000/svg" version="1.1" width="224" height="224">
  <defs/>
  <g>
    <path d="M 136.23245239257812 104.8877944946289 C 122.40774536132812 88.61053466796875 151.8109130859375 137.8195037841797 119.96553802490234 63.597137451171875" stroke-width="3.0" fill="none" stroke="rgb(0, 0, 0)" stroke-opacity="1.0" stroke-linecap="round" stroke-linejoin="round"/>
    <path d="M 110.51581573486328 92.11048126220703 C 112.3303451538086 105.46019744873047 101.76495361328125 105.95884704589844 106.99526977539062 114.1780014038086" stroke-width="3.0" fill="none" stroke="rgb(0, 0, 0)" stroke-opacity="1.0" stroke-linecap="round" stroke-linejoin="round"/>
    <path d="M 131.4493865966797 108.08766174316406 C 132.64112854003906 81.96665954589844 140.4757843017578 134.35671997070312 187.31936645507812 79.56365966796875" stroke-width="3.0" fill="none" stroke="rgb(0, 0, 0)" stroke-opacity="1.0" stroke-linecap="round" stroke-linejoin="round"/>
    <path d="M 72.86780548095703 38.73706817626953 C 64.49849700927734 37.86112594604492 55.799983978271484 45.33096694946289 54.41152572631836 46.175106048583984" stroke-width="3.0" fill="none" stroke="rgb(0, 0, 0)" stroke-opacity="1.0" stroke-linecap="round" stroke-linejoin="round"/>
    <path d="M 134.03604125976562 82.86308288574219 C 108.51701354980469 38.32809066772461 110.78079986572266 67.39291381835938 96.21943664550781 45.161155700683594" stroke-width="3.0" fill="none" stroke="rgb(0, 0, 0)" stroke-opacity="1.0" stroke-linecap="round" stroke-linejoin="round"/>
    <path d="M 66.44993591308594 113.35730743408203 C 37.04494094848633 79.80123901367188 61.92576599121094 100.54322052001953 41.337928771972656 74.25996398925781" stroke-width="3.0" fill="none" stroke="rgb(0, 0, 0)" stroke-opacity="1.0" stroke-linecap="round" stroke-linejoin="round"/>
    <path d="M 185.16656494140625 60.99982833862305 C 177.95909118652344 31.927011489868164 189.78416442871094 47.58753204345703 186.8924560546875 75.18023681640625" stroke-width="3.0" fill="none" stroke="rgb(0, 0, 0)" stroke-opacity="1.0" stroke-linecap="round" stroke-linejoin="round"/>
    <path d="M 100.94136047363281 193.94676208496094 C 123.34838104248047 83.22784423828125 123.1379165649414 128.02621459960938 126.51705932617188 100.84223937988281" stroke-width="3.0" fill="none" stroke="rgb(0, 0, 0)" stroke-opacity="1.0" stroke-linecap="round" stroke-linejoin="round"/>
    <path d="M 47.098655700683594 106.42569732666016 C 25.809627532958984 175.14218139648438 17.237545013427734 124.5097427368164 41.26657485961914 201.3397979736328" stroke-width="3.0" fill="none" stroke="rgb(0, 0, 0)" stroke-opacity="1.0" stroke-linecap="round" stroke-linejoin="round"/>
    <path d="M 64.63723754882812 39.39787673950195 C 96.05316162109375 17.271759033203125 154.77685546875 128.3943634033203 172.3352508544922 65.15445709228516" stroke-width="3.0" fill="none" stroke="rgb(0, 0, 0)" stroke-opacity="1.0" stroke-linecap="round" stroke-linejoin="round"/>
    <path d="M 47.96422576904297 103.84867095947266 C 84.19751739501953 121.91783905029297 79.46420288085938 113.4281997680664 104.40107727050781 116.98023223876953" stroke-width="3.0" fill="none" stroke="rgb(0, 0, 0)" stroke-opacity="1.0" stroke-linecap="round" stroke-linejoin="round"/>
    <path d="M 24.323429107666016 136.58811950683594 C 11.003120422363281 70.3108139038086 11.557571411132812 86.4870376586914 54.92388153076172 45.64537811279297" stroke-width="3.0" fill="none" stroke="rgb(0, 0, 0)" stroke-opacity="1.0" stroke-linecap="round" stroke-linejoin="round"/>
    <path d="M 177.62147521972656 87.87476348876953 C 201.14866638183594 24.83521842956543 194.22401428222656 20.362579345703125 172.56944274902344 89.40975189208984" stroke-width="3.0" fill="none" stroke="rgb(0, 0, 0)" stroke-opacity="1.0" stroke-linecap="round" stroke-linejoin="round"/>
    <path d="M 105.332275390625 117.97408294677734 C 110.6711196899414 182.37924194335938 72.6653060913086 205.92950439453125 108.83732604980469 193.89186096191406" stroke-width="3.0" fill="none" stroke="rgb(0, 0, 0)" stroke-opacity="1.0" stroke-linecap="round" stroke-linejoin="round"/>
    <path d="M 171.99114990234375 66.61283111572266 C 179.71630859375 3.596935987472534 221.13064575195312 76.14759063720703 208.41163635253906 46.551692962646484" stroke-width="3.0" fill="none" stroke="rgb(0, 0, 0)" stroke-opacity="1.0" stroke-linecap="round" stroke-linejoin="round"/>
    <path d="M 193.26023864746094 62.72792053222656 C 155.9008026123047 41.032920837402344 259.7865295410156 42.869354248046875 196.79872131347656 58.66707992553711" stroke-width="3.0" fill="none" stroke="rgb(0, 0, 0)" stroke-opacity="1.0" stroke-linecap="round" stroke-linejoin="round"/>
  </g>
</svg>
