<?xml version="1.0" ?>
<svg xmlns="http://www.w3.org/2000/svg" version="1.1" width="224" height="224">
  <defs/>
  <g>
    <path d="M 155.24639892578125 100.0342788696289 C 120.50543975830078 86.54447174072266 176.27125549316406 122.01609802246094 125.496337890625 75.28467559814453" stroke-width="3.0" fill="none" stroke="rgb(0, 0, 0)" stroke-opacity="1.0" stroke-linecap="round" stroke-linejoin="round"/>
    <path d="M 105.69956970214844 91.02183532714844 C 109.96468353271484 101.94197845458984 101.2126235961914 101.5318603515625 106.54003143310547 113.46717071533203" stroke-width="3.0" fill="none" stroke="rgb(0, 0, 0)" stroke-opacity="1.0" stroke-linecap="round" stroke-linejoin="round"/>
    <path d="M 142.10540771484375 103.70986938476562 C 144.43820190429688 62.084129333496094 123.86042022705078 126.50504302978516 175.92274475097656 89.26236724853516" stroke-width="3.0" fill="none" stroke="rgb(0, 0, 0)" stroke-opacity="1.0" stroke-linecap="round" stroke-linejoin="round"/>
    <path d="M 62.28648376464844 42.0212287902832 C 62.57168960571289 42.188934326171875 55.78611755371094 48.09373092651367 62.326271057128906 42.34404373168945" stroke-width="3.0" fill="none" stroke="rgb(0, 0, 0)" stroke-opacity="1.0" stroke-linecap="round" stroke-linejoin="round"/>
    <path d="M 124.55367279052734 74.16050720214844 C 113.39690399169922 51.62419128417969 110.40665435791016 61.829105377197266 94.82672119140625 45.1469841003418" stroke-width="3.0" fill="none" stroke="rgb(0, 0, 0)" stroke-opacity="1.0" stroke-linecap="round" stroke-linejoin="round"/>
    <path d="M 76.23371124267578 113.03640747070312 C 42.94795227050781 82.54277038574219 65.33366394042969 92.54972076416016 48.484127044677734 66.49022674560547" stroke-width="3.0" fill="none" stroke="rgb(0, 0, 0)" stroke-opacity="1.0" stroke-linecap="round" stroke-linejoin="round"/>
    <path d="M 182.6592254638672 38.664093017578125 C 177.78201293945312 47.492462158203125 192.7862091064453 55.490047454833984 179.21205139160156 76.19044494628906" stroke-width="3.0" fill="none" stroke="rgb(0, 0, 0)" stroke-opacity="1.0" stroke-linecap="round" stroke-linejoin="round"/>
    <path d="M 104.24585723876953 193.7056121826172 C 123.71548461914062 79.90199279785156 119.36139678955078 128.1256866455078 129.60301208496094 102.96886444091797" stroke-width="3.0" fill="none" stroke="rgb(0, 0, 0)" stroke-opacity="1.0" stroke-linecap="round" stroke-linejoin="round"/>
    <path d="M 38.24143981933594 85.57979583740234 C 30.244279861450195 195.77194213867188 18.107402801513672 116.67749786376953 40.0999755859375 198.9333038330078" stroke-width="3.0" fill="none" stroke="rgb(0, 0, 0)" stroke-opacity="1.0" stroke-linecap="round" stroke-linejoin="round"/>
    <path d="M 64.27764892578125 42.354705810546875 C 89.2544174194336 12.938576698303223 140.18441772460938 104.41439819335938 165.43209838867188 85.10759735107422" stroke-width="3.0" fill="none" stroke="rgb(0, 0, 0)" stroke-opacity="1.0" stroke-linecap="round" stroke-linejoin="round"/>
    <path d="M 45.381141662597656 86.58912658691406 C 80.28907012939453 126.14688110351562 78.42680358886719 112.28925323486328 103.51560974121094 117.22036743164062" stroke-width="3.0" fill="none" stroke="rgb(0, 0, 0)" stroke-opacity="1.0" stroke-linecap="round" stroke-linejoin="round"/>
    <path d="M 34.13926315307617 103.29119873046875 C 24.5517520904541 64.07137298583984 36.40534973144531 72.13133239746094 53.40245056152344 51.514163970947266" stroke-width="3.0" fill="none" stroke="rgb(0, 0, 0)" stroke-opacity="1.0" stroke-linecap="round" stroke-linejoin="round"/>
    <path d="M 166.21823120117188 83.49955749511719 C 194.01939392089844 42.186859130859375 193.71670532226562 55.817081451416016 179.23159790039062 85.85449981689453" stroke-width="3.0" fill="none" stroke="rgb(0, 0, 0)" stroke-opacity="1.0" stroke-linecap="round" stroke-linejoin="round"/>
    <path d="M 105.38052368164062 117.48670959472656 C 108.9780044555664 186.91641235351562 78.49668884277344 202.01560974121094 110.5235366821289 188.8441162109375" stroke-width="3.0" fill="none" stroke="rgb(0, 0, 0)" stroke-opacity="1.0" stroke-linecap="round" stroke-linejoin="round"/>
    <path d="M 170.87826538085938 81.6414566040039 C 175.71717834472656 -2.1922526359558105 208.38340759277344 70.41700744628906 200.60504150390625 46.48970031738281" stroke-width="3.0" fill="none" stroke="rgb(0, 0, 0)" stroke-opacity="1.0" stroke-linecap="round" stroke-linejoin="round"/>
    <path d="M 193.9422607421875 59.9156494140625 C 153.55209350585938 35.571109771728516 230.3796844482422 43.10566329956055 194.26895141601562 50.94208908081055" stroke-width="3.0" fill="none" stroke="rgb(0, 0, 0)" stroke-opacity="1.0" stroke-linecap="round" stroke-linejoin="round"/>
  </g>
</svg>
