<?xml version="1.0" ?>
<svg xmlns="http://www.w3.org/2000/svg" version="1.1" width="224" height="224">
  <defs/>
  <g>
    <path d="M 142.5724639892578 105.09759521484375 C 118.23916625976562 83.70990753173828 161.30557250976562 140.2321319580078 119.78215789794922 68.20919799804688" stroke-width="3.0" fill="none" stroke="rgb(0, 0, 0)" stroke-opacity="1.0" stroke-linecap="round" stroke-linejoin="round"/>
    <path d="M 106.426513671875 92.96868896484375 C 110.37403106689453 103.17381286621094 102.38914489746094 102.60975646972656 107.69351959228516 113.3052749633789" stroke-width="3.0" fill="none" stroke="rgb(0, 0, 0)" stroke-opacity="1.0" stroke-linecap="round" stroke-linejoin="round"/>
    <path d="M 135.00204467773438 106.18229675292969 C 134.85397338867188 67.5077133178711 132.82266235351562 133.82168579101562 180.90501403808594 86.85508728027344" stroke-width="3.0" fill="none" stroke="rgb(0, 0, 0)" stroke-opacity="1.0" stroke-linecap="round" stroke-linejoin="round"/>
    <path d="M 65.4405746459961 40.252235412597656 C 63.68666458129883 40.639469146728516 56.99586486816406 45.60708999633789 61.4510498046875 42.99474334716797" stroke-width="3.0" fill="none" stroke="rgb(0, 0, 0)" stroke-opacity="1.0" stroke-linecap="round" stroke-linejoin="round"/>
    <path d="M 133.30897521972656 82.84725189208984 C 109.4782943725586 38.32151794433594 112.34416961669922 64.66685485839844 95.56513977050781 43.994049072265625" stroke-width="3.0" fill="none" stroke="rgb(0, 0, 0)" stroke-opacity="1.0" stroke-linecap="round" stroke-linejoin="round"/>
    <path d="M 65.57694244384766 109.69615936279297 C 34.838356018066406 79.97601318359375 57.218746185302734 100.17945098876953 37.59563064575195 72.85749053955078" stroke-width="3.0" fill="none" stroke="rgb(0, 0, 0)" stroke-opacity="1.0" stroke-linecap="round" stroke-linejoin="round"/>
    <path d="M 181.92556762695312 49.41349411010742 C 185.2606658935547 25.846012115478516 194.06732177734375 45.16460037231445 185.44126892089844 84.18828582763672" stroke-width="3.0" fill="none" stroke="rgb(0, 0, 0)" stroke-opacity="1.0" stroke-linecap="round" stroke-linejoin="round"/>
    <path d="M 105.35032653808594 195.514892578125 C 119.9158935546875 78.24977111816406 125.9414291381836 130.10888671875 126.6407470703125 99.40821075439453" stroke-width="3.0" fill="none" stroke="rgb(0, 0, 0)" stroke-opacity="1.0" stroke-linecap="round" stroke-linejoin="round"/>
    <path d="M 47.0550537109375 102.27268981933594 C 25.840465545654297 175.67459106445312 11.851088523864746 128.20176696777344 38.28955078125 202.9774169921875" stroke-width="3.0" fill="none" stroke="rgb(0, 0, 0)" stroke-opacity="1.0" stroke-linecap="round" stroke-linejoin="round"/>
    <path d="M 62.506690979003906 41.72081756591797 C 97.74029541015625 15.871504783630371 147.06898498535156 111.23297119140625 166.05572509765625 75.38038635253906" stroke-width="3.0" fill="none" stroke="rgb(0, 0, 0)" stroke-opacity="1.0" stroke-linecap="round" stroke-linejoin="round"/>
    <path d="M 44.10094451904297 99.04413604736328 C 80.60688781738281 123.37118530273438 78.8326644897461 112.74308013916016 105.09120178222656 116.4265365600586" stroke-width="3.0" fill="none" stroke="rgb(0, 0, 0)" stroke-opacity="1.0" stroke-linecap="round" stroke-linejoin="round"/>
    <path d="M 21.637048721313477 131.10386657714844 C 10.461085319519043 68.5093002319336 13.752999305725098 83.28239440917969 58.289913177490234 44.7415885925293" stroke-width="3.0" fill="none" stroke="rgb(0, 0, 0)" stroke-opacity="1.0" stroke-linecap="round" stroke-linejoin="round"/>
    <path d="M 174.33953857421875 86.18890380859375 C 200.9648895263672 29.39960479736328 209.71551513671875 40.474517822265625 171.8546600341797 90.89855194091797" stroke-width="3.0" fill="none" stroke="rgb(0, 0, 0)" stroke-opacity="1.0" stroke-linecap="round" stroke-linejoin="round"/>
    <path d="M 105.34988403320312 116.07013702392578 C 109.0644302368164 180.39154052734375 78.93199157714844 206.1195831298828 109.70735931396484 190.06431579589844" stroke-width="3.0" fill="none" stroke="rgb(0, 0, 0)" stroke-opacity="1.0" stroke-linecap="round" stroke-linejoin="round"/>
    <path d="M 168.28561401367188 74.50442504882812 C 177.71746826171875 6.635196208953857 216.4126739501953 72.30982208251953 206.94883728027344 47.01308059692383" stroke-width="3.0" fill="none" stroke="rgb(0, 0, 0)" stroke-opacity="1.0" stroke-linecap="round" stroke-linejoin="round"/>
    <path d="M 195.0030517578125 59.73570251464844 C 156.1790008544922 43.12171173095703 252.86611938476562 49.19695281982422 200.1742706298828 57.47538757324219" stroke-width="3.0" fill="none" stroke="rgb(0, 0, 0)" stroke-opacity="1.0" stroke-linecap="round" stroke-linejoin="round"/>
  </g>
</svg>
