<?xml version="1.0" ?>
<svg xmlns="http://www.w3.org/2000/svg" version="1.1" width="224" height="224">
  <defs/>
  <g>
    <path d="M 141.19021606445312 106.64359283447266 C 117.7493667602539 85.8785629272461 162.46438598632812 138.9088134765625 120.78343963623047 68.62482452392578" stroke-width="3.0" fill="none" stroke="rgb(0, 0, 0)" stroke-opacity="1.0" stroke-linecap="round" stroke-linejoin="round"/>
    <path d="M 104.63438415527344 92.02458190917969 C 106.69783782958984 101.34673309326172 99.9229736328125 100.44873809814453 107.74594116210938 111.76922607421875" stroke-width="3.0" fill="none" stroke="rgb(0, 0, 0)" stroke-opacity="1.0" stroke-linecap="round" stroke-linejoin="round"/>
    <path d="M 132.73684692382812 107.91521453857422 C 136.5825958251953 76.06315612792969 136.17678833007812 135.62965393066406 183.14425659179688 82.3793716430664" stroke-width="3.0" fill="none" stroke="rgb(0, 0, 0)" stroke-opacity="1.0" stroke-linecap="round" stroke-linejoin="round"/>
    <path d="M 67.07395935058594 40.70923614501953 C 63.509796142578125 39.98828887939453 57.37831497192383 46.92995834350586 60.63837432861328 43.74899673461914" stroke-width="3.0" fill="none" stroke="rgb(0, 0, 0)" stroke-opacity="1.0" stroke-linecap="round" stroke-linejoin="round"/>
    <path d="M 132.94821166992188 81.87326049804688 C 103.7016372680664 39.66433334350586 113.54059600830078 67.36197662353516 97.99304962158203 45.83448028564453" stroke-width="3.0" fill="none" stroke="rgb(0, 0, 0)" stroke-opacity="1.0" stroke-linecap="round" stroke-linejoin="round"/>
    <path d="M 62.91875076293945 110.94612121582031 C 33.83961486816406 77.9754867553711 55.56753921508789 94.86550903320312 38.62690734863281 70.73892974853516" stroke-width="3.0" fill="none" stroke="rgb(0, 0, 0)" stroke-opacity="1.0" stroke-linecap="round" stroke-linejoin="round"/>
    <path d="M 181.87118530273438 49.10481643676758 C 177.78440856933594 29.99118423461914 194.5642547607422 49.84421920776367 186.18255615234375 83.56693267822266" stroke-width="3.0" fill="none" stroke="rgb(0, 0, 0)" stroke-opacity="1.0" stroke-linecap="round" stroke-linejoin="round"/>
    <path d="M 104.26091766357422 194.44940185546875 C 118.44319915771484 76.1148681640625 126.32134246826172 130.6565704345703 128.0406036376953 100.05479431152344" stroke-width="3.0" fill="none" stroke="rgb(0, 0, 0)" stroke-opacity="1.0" stroke-linecap="round" stroke-linejoin="round"/>
    <path d="M 43.03120422363281 100.74494171142578 C 21.488130569458008 178.54742431640625 14.910611152648926 125.11399841308594 39.85848617553711 198.51548767089844" stroke-width="3.0" fill="none" stroke="rgb(0, 0, 0)" stroke-opacity="1.0" stroke-linecap="round" stroke-linejoin="round"/>
    <path d="M 64.95809936523438 41.47666549682617 C 96.40280151367188 16.197376251220703 146.8833465576172 112.38892364501953 171.46603393554688 75.22623443603516" stroke-width="3.0" fill="none" stroke="rgb(0, 0, 0)" stroke-opacity="1.0" stroke-linecap="round" stroke-linejoin="round"/>
    <path d="M 45.7451286315918 101.83374786376953 C 81.5997085571289 122.86548614501953 81.32237243652344 111.41932678222656 106.0318603515625 118.20726776123047" stroke-width="3.0" fill="none" stroke="rgb(0, 0, 0)" stroke-opacity="1.0" stroke-linecap="round" stroke-linejoin="round"/>
    <path d="M 19.191213607788086 131.19473266601562 C 10.70351791381836 70.0733642578125 13.51315975189209 83.29730224609375 59.000579833984375 44.49637222290039" stroke-width="3.0" fill="none" stroke="rgb(0, 0, 0)" stroke-opacity="1.0" stroke-linecap="round" stroke-linejoin="round"/>
    <path d="M 181.1870880126953 87.90948486328125 C 201.41635131835938 29.873355865478516 201.7952880859375 31.828493118286133 167.92428588867188 91.04824829101562" stroke-width="3.0" fill="none" stroke="rgb(0, 0, 0)" stroke-opacity="1.0" stroke-linecap="round" stroke-linejoin="round"/>
    <path d="M 106.48117065429688 115.6070785522461 C 110.10078430175781 180.88357543945312 79.45857238769531 201.12855529785156 111.83876037597656 189.75680541992188" stroke-width="3.0" fill="none" stroke="rgb(0, 0, 0)" stroke-opacity="1.0" stroke-linecap="round" stroke-linejoin="round"/>
    <path d="M 171.67974853515625 74.75531768798828 C 176.75015258789062 6.065559387207031 218.90615844726562 70.42131042480469 207.23178100585938 46.6849250793457" stroke-width="3.0" fill="none" stroke="rgb(0, 0, 0)" stroke-opacity="1.0" stroke-linecap="round" stroke-linejoin="round"/>
    <path d="M 196.076416015625 61.78007507324219 C 156.12246704101562 40.35283660888672 255.27178955078125 46.042884826660156 201.02474975585938 58.22789001464844" stroke-width="3.0" fill="none" stroke="rgb(0, 0, 0)" stroke-opacity="1.0" stroke-linecap="round" stroke-linejoin="round"/>
  </g>
</svg>
