<?xml version="1.0" ?>
<svg xmlns="http://www.w3.org/2000/svg" version="1.1" width="224" height="224">
  <defs/>
  <g>
    <path d="M 141.87083435058594 106.93648529052734 C 116.87619018554688 85.65479278564453 159.68287658691406 139.179443359375 120.69042205810547 67.81243133544922" stroke-width="3.0" fill="none" stroke="rgb(0, 0, 0)" stroke-opacity="1.0" stroke-linecap="round" stroke-linejoin="round"/>
    <path d="M 105.28732299804688 93.21395874023438 C 107.38764190673828 101.50419616699219 100.57682037353516 99.9004898071289 108.18441772460938 110.08587646484375" stroke-width="3.0" fill="none" stroke="rgb(0, 0, 0)" stroke-opacity="1.0" stroke-linecap="round" stroke-linejoin="round"/>
    <path d="M 133.40521240234375 106.1430435180664 C 136.42471313476562 77.51837921142578 136.6549835205078 136.31182861328125 182.58155822753906 81.61666870117188" stroke-width="3.0" fill="none" stroke="rgb(0, 0, 0)" stroke-opacity="1.0" stroke-linecap="round" stroke-linejoin="round"/>
    <path d="M 67.37638092041016 41.32429122924805 C 63.54808807373047 40.20726013183594 57.270503997802734 47.1864013671875 61.096435546875 43.070556640625" stroke-width="3.0" fill="none" stroke="rgb(0, 0, 0)" stroke-opacity="1.0" stroke-linecap="round" stroke-linejoin="round"/>
    <path d="M 130.2547607421875 84.25822448730469 C 101.99288940429688 39.862369537353516 112.12149810791016 67.57026672363281 98.94503021240234 44.95086669921875" stroke-width="3.0" fill="none" stroke="rgb(0, 0, 0)" stroke-opacity="1.0" stroke-linecap="round" stroke-linejoin="round"/>
    <path d="M 64.3936996459961 110.39354705810547 C 37.04572677612305 75.96928405761719 59.67820739746094 91.91714477539062 40.98505783081055 70.53815460205078" stroke-width="3.0" fill="none" stroke="rgb(0, 0, 0)" stroke-opacity="1.0" stroke-linecap="round" stroke-linejoin="round"/>
    <path d="M 181.40321350097656 50.591209411621094 C 177.68307495117188 26.24693489074707 194.2208709716797 48.58476257324219 186.24855041503906 82.31544494628906" stroke-width="3.0" fill="none" stroke="rgb(0, 0, 0)" stroke-opacity="1.0" stroke-linecap="round" stroke-linejoin="round"/>
    <path d="M 103.85910034179688 194.5013427734375 C 119.83511352539062 79.4134292602539 126.90782928466797 133.08726501464844 126.56147766113281 98.17922973632812" stroke-width="3.0" fill="none" stroke="rgb(0, 0, 0)" stroke-opacity="1.0" stroke-linecap="round" stroke-linejoin="round"/>
    <path d="M 43.818721771240234 99.08554077148438 C 21.74944305419922 177.05178833007812 15.061527252197266 125.78690338134766 40.25471878051758 198.85838317871094" stroke-width="3.0" fill="none" stroke="rgb(0, 0, 0)" stroke-opacity="1.0" stroke-linecap="round" stroke-linejoin="round"/>
    <path d="M 65.98175811767578 40.53541564941406 C 96.69515991210938 15.427080154418945 146.29649353027344 113.20881652832031 170.25729370117188 74.72772979736328" stroke-width="3.0" fill="none" stroke="rgb(0, 0, 0)" stroke-opacity="1.0" stroke-linecap="round" stroke-linejoin="round"/>
    <path d="M 46.19070053100586 100.5892562866211 C 82.0387191772461 123.2759017944336 80.33514404296875 110.5966567993164 105.13484954833984 117.29731750488281" stroke-width="3.0" fill="none" stroke="rgb(0, 0, 0)" stroke-opacity="1.0" stroke-linecap="round" stroke-linejoin="round"/>
    <path d="M 19.709842681884766 130.9676513671875 C 11.959705352783203 70.21178436279297 14.162151336669922 84.13992309570312 58.230953216552734 45.03445053100586" stroke-width="3.0" fill="none" stroke="rgb(0, 0, 0)" stroke-opacity="1.0" stroke-linecap="round" stroke-linejoin="round"/>
    <path d="M 180.4674072265625 86.82996368408203 C 201.85838317871094 29.616474151611328 201.7901153564453 31.167070388793945 168.12159729003906 90.70991516113281" stroke-width="3.0" fill="none" stroke="rgb(0, 0, 0)" stroke-opacity="1.0" stroke-linecap="round" stroke-linejoin="round"/>
    <path d="M 107.20777130126953 114.30824279785156 C 109.27467346191406 181.72213745117188 78.91461181640625 202.49319458007812 110.43685913085938 189.67062377929688" stroke-width="3.0" fill="none" stroke="rgb(0, 0, 0)" stroke-opacity="1.0" stroke-linecap="round" stroke-linejoin="round"/>
    <path d="M 170.8822021484375 74.48115539550781 C 176.63035583496094 6.793732643127441 217.47555541992188 72.66532135009766 210.34408569335938 47.354427337646484" stroke-width="3.0" fill="none" stroke="rgb(0, 0, 0)" stroke-opacity="1.0" stroke-linecap="round" stroke-linejoin="round"/>
    <path d="M 195.11984252929688 61.32909393310547 C 154.26487731933594 41.31858444213867 255.25010681152344 47.013607025146484 201.3345947265625 58.232112884521484" stroke-width="3.0" fill="none" stroke="rgb(0, 0, 0)" stroke-opacity="1.0" stroke-linecap="round" stroke-linejoin="round"/>
  </g>
</svg>
