<?xml version="1.0" ?>
<svg xmlns="http://www.w3.org/2000/svg" version="1.1" width="224" height="224">
  <defs/>
  <g>
    <path d="M 153.52952575683594 100.45450592041016 C 120.0452880859375 82.44105529785156 182.57176208496094 127.91358184814453 121.37664031982422 71.5639877319336" stroke-width="3.0" fill="none" stroke="rgb(0, 0, 0)" stroke-opacity="1.0" stroke-linecap="round" stroke-linejoin="round"/>
    <path d="M 111.00955200195312 92.99047088623047 C 117.25377655029297 109.30528259277344 107.38314819335938 104.81670379638672 109.09568786621094 115.53157806396484" stroke-width="3.0" fill="none" stroke="rgb(0, 0, 0)" stroke-opacity="1.0" stroke-linecap="round" stroke-linejoin="round"/>
    <path d="M 140.64903259277344 103.89307403564453 C 141.39547729492188 66.98448181152344 121.70207977294922 126.36009979248047 177.96539306640625 89.57095336914062" stroke-width="3.0" fill="none" stroke="rgb(0, 0, 0)" stroke-opacity="1.0" stroke-linecap="round" stroke-linejoin="round"/>
    <path d="M 60.7411003112793 43.28662872314453 C 63.394317626953125 42.585330963134766 55.7629508972168 46.96569061279297 63.856449127197266 42.08573913574219" stroke-width="3.0" fill="none" stroke="rgb(0, 0, 0)" stroke-opacity="1.0" stroke-linecap="round" stroke-linejoin="round"/>
    <path d="M 129.7032470703125 84.35787200927734 C 105.90872192382812 43.35384750366211 109.96220397949219 65.60900115966797 99.58187866210938 48.708892822265625" stroke-width="3.0" fill="none" stroke="rgb(0, 0, 0)" stroke-opacity="1.0" stroke-linecap="round" stroke-linejoin="round"/>
    <path d="M 68.97647857666016 112.240478515625 C 42.66693878173828 77.01148986816406 59.38664627075195 87.22594451904297 49.02354049682617 62.11425018310547" stroke-width="3.0" fill="none" stroke="rgb(0, 0, 0)" stroke-opacity="1.0" stroke-linecap="round" stroke-linejoin="round"/>
    <path d="M 183.76116943359375 38.81969451904297 C 185.81394958496094 43.04152297973633 194.78602600097656 46.65644836425781 178.71600341796875 75.93720245361328" stroke-width="3.0" fill="none" stroke="rgb(0, 0, 0)" stroke-opacity="1.0" stroke-linecap="round" stroke-linejoin="round"/>
    <path d="M 103.72674560546875 193.8951873779297 C 120.469482421875 81.92335510253906 121.96514129638672 121.79086303710938 131.9727783203125 99.85076141357422" stroke-width="3.0" fill="none" stroke="rgb(0, 0, 0)" stroke-opacity="1.0" stroke-linecap="round" stroke-linejoin="round"/>
    <path d="M 47.9710578918457 92.25375366210938 C 27.460758209228516 181.2613983154297 18.05304718017578 122.77922821044922 37.595001220703125 198.04920959472656" stroke-width="3.0" fill="none" stroke="rgb(0, 0, 0)" stroke-opacity="1.0" stroke-linecap="round" stroke-linejoin="round"/>
    <path d="M 61.8007926940918 42.95546340942383 C 95.03810119628906 15.304797172546387 142.97987365722656 105.94108581542969 170.15176391601562 82.36164093017578" stroke-width="3.0" fill="none" stroke="rgb(0, 0, 0)" stroke-opacity="1.0" stroke-linecap="round" stroke-linejoin="round"/>
    <path d="M 49.9527702331543 94.6099853515625 C 70.71832275390625 122.17452239990234 86.17967987060547 113.46052551269531 107.13182067871094 119.35098266601562" stroke-width="3.0" fill="none" stroke="rgb(0, 0, 0)" stroke-opacity="1.0" stroke-linecap="round" stroke-linejoin="round"/>
    <path d="M 17.45079803466797 132.80052185058594 C 4.9670610427856445 68.08055877685547 22.004356384277344 75.53684997558594 58.71781921386719 44.15093231201172" stroke-width="3.0" fill="none" stroke="rgb(0, 0, 0)" stroke-opacity="1.0" stroke-linecap="round" stroke-linejoin="round"/>
    <path d="M 166.9267578125 85.09686279296875 C 196.22265625 38.07578659057617 202.01881408691406 52.8282470703125 181.14816284179688 86.806884765625" stroke-width="3.0" fill="none" stroke="rgb(0, 0, 0)" stroke-opacity="1.0" stroke-linecap="round" stroke-linejoin="round"/>
    <path d="M 105.31612396240234 121.14405822753906 C 111.53565216064453 179.41192626953125 74.85987091064453 200.3943328857422 111.14481353759766 187.35716247558594" stroke-width="3.0" fill="none" stroke="rgb(0, 0, 0)" stroke-opacity="1.0" stroke-linecap="round" stroke-linejoin="round"/>
    <path d="M 173.9873046875 80.87400817871094 C 172.56716918945312 -0.8166380524635315 213.8539581298828 75.70996856689453 202.23902893066406 45.08125305175781" stroke-width="3.0" fill="none" stroke="rgb(0, 0, 0)" stroke-opacity="1.0" stroke-linecap="round" stroke-linejoin="round"/>
    <path d="M 198.3307342529297 59.198184967041016 C 150.5654754638672 43.05249786376953 248.0937042236328 42.84480285644531 197.40158081054688 54.97922134399414" stroke-width="3.0" fill="none" stroke="rgb(0, 0, 0)" stroke-opacity="1.0" stroke-linecap="round" stroke-linejoin="round"/>
  </g>
</svg>
