<?xml version="1.0" ?>
<svg xmlns="http://www.w3.org/2000/svg" version="1.1" width="224" height="224">
  <defs/>
  <g>
    <path d="M 137.14743041992188 106.70172882080078 C 120.5030288696289 91.8466567993164 155.31298828125 136.84878540039062 118.34817504882812 67.35818481445312" stroke-width="3.0" fill="none" stroke="rgb(0, 0, 0)" stroke-opacity="1.0" stroke-linecap="round" stroke-linejoin="round"/>
    <path d="M 108.82634735107422 95.0749740600586 C 110.7441177368164 103.23187255859375 102.29158020019531 102.61251831054688 107.07888793945312 114.42144012451172" stroke-width="3.0" fill="none" stroke="rgb(0, 0, 0)" stroke-opacity="1.0" stroke-linecap="round" stroke-linejoin="round"/>
    <path d="M 131.43185424804688 108.65839385986328 C 134.08370971679688 80.0885009765625 142.12472534179688 133.5001220703125 184.58349609375 80.0329818725586" stroke-width="3.0" fill="none" stroke="rgb(0, 0, 0)" stroke-opacity="1.0" stroke-linecap="round" stroke-linejoin="round"/>
    <path d="M 70.31873321533203 38.74449157714844 C 64.46279907226562 37.015220642089844 54.388092041015625 47.62446212768555 51.215980529785156 50.753536224365234" stroke-width="3.0" fill="none" stroke="rgb(0, 0, 0)" stroke-opacity="1.0" stroke-linecap="round" stroke-linejoin="round"/>
    <path d="M 132.87367248535156 82.55253601074219 C 108.43307495117188 40.14916229248047 112.06905364990234 65.98340606689453 96.42948150634766 44.315467834472656" stroke-width="3.0" fill="none" stroke="rgb(0, 0, 0)" stroke-opacity="1.0" stroke-linecap="round" stroke-linejoin="round"/>
    <path d="M 67.12269592285156 112.82308959960938 C 38.19706726074219 84.55172729492188 61.312950134277344 104.32171630859375 43.05529022216797 79.1898422241211" stroke-width="3.0" fill="none" stroke="rgb(0, 0, 0)" stroke-opacity="1.0" stroke-linecap="round" stroke-linejoin="round"/>
    <path d="M 184.89151000976562 60.92479705810547 C 176.7613983154297 34.13615036010742 196.6488800048828 45.13078308105469 190.82598876953125 78.30528259277344" stroke-width="3.0" fill="none" stroke="rgb(0, 0, 0)" stroke-opacity="1.0" stroke-linecap="round" stroke-linejoin="round"/>
    <path d="M 102.15088653564453 191.1887969970703 C 124.77874755859375 81.97759246826172 123.923583984375 128.38174438476562 125.44252014160156 102.847900390625" stroke-width="3.0" fill="none" stroke="rgb(0, 0, 0)" stroke-opacity="1.0" stroke-linecap="round" stroke-linejoin="round"/>
    <path d="M 45.7149658203125 103.5501480102539 C 22.653545379638672 179.3986053466797 14.058223724365234 124.14776611328125 39.26308822631836 197.1430206298828" stroke-width="3.0" fill="none" stroke="rgb(0, 0, 0)" stroke-opacity="1.0" stroke-linecap="round" stroke-linejoin="round"/>
    <path d="M 64.15997314453125 39.935997009277344 C 98.59891510009766 18.637205123901367 154.87127685546875 130.7742156982422 172.4908905029297 64.10853576660156" stroke-width="3.0" fill="none" stroke="rgb(0, 0, 0)" stroke-opacity="1.0" stroke-linecap="round" stroke-linejoin="round"/>
    <path d="M 47.149356842041016 103.31770324707031 C 84.86317443847656 125.77347564697266 78.23601531982422 114.4869613647461 103.65287780761719 118.39228057861328" stroke-width="3.0" fill="none" stroke="rgb(0, 0, 0)" stroke-opacity="1.0" stroke-linecap="round" stroke-linejoin="round"/>
    <path d="M 21.333232879638672 136.60147094726562 C 12.020342826843262 71.95626831054688 7.195216178894043 87.59188842773438 54.92969512939453 47.987586975097656" stroke-width="3.0" fill="none" stroke="rgb(0, 0, 0)" stroke-opacity="1.0" stroke-linecap="round" stroke-linejoin="round"/>
    <path d="M 176.2934112548828 88.07141876220703 C 200.50282287597656 25.820541381835938 201.1974334716797 27.44048500061035 173.3436279296875 94.4152603149414" stroke-width="3.0" fill="none" stroke="rgb(0, 0, 0)" stroke-opacity="1.0" stroke-linecap="round" stroke-linejoin="round"/>
    <path d="M 106.42671203613281 117.08203125 C 108.67194366455078 176.18234252929688 75.14702606201172 194.38134765625 107.66983032226562 193.96759033203125" stroke-width="3.0" fill="none" stroke="rgb(0, 0, 0)" stroke-opacity="1.0" stroke-linecap="round" stroke-linejoin="round"/>
    <path d="M 172.36097717285156 67.4552230834961 C 183.68777465820312 5.358389377593994 222.86862182617188 73.7520751953125 211.6638641357422 51.159908294677734" stroke-width="3.0" fill="none" stroke="rgb(0, 0, 0)" stroke-opacity="1.0" stroke-linecap="round" stroke-linejoin="round"/>
    <path d="M 195.52853393554688 63.50751876831055 C 155.3512420654297 40.100257873535156 258.8798828125 46.40050506591797 200.11268615722656 58.342384338378906" stroke-width="3.0" fill="none" stroke="rgb(0, 0, 0)" stroke-opacity="1.0" stroke-linecap="round" stroke-linejoin="round"/>
  </g>
</svg>
