<?xml version="1.0" ?>
<svg xmlns="http://www.w3.org/2000/svg" version="1.1" width="224" height="224">
  <defs/>
  <g>
    <path d="M 137.57460021972656 106.9361343383789 C 121.83918762207031 96.72473907470703 151.28834533691406 140.1954803466797 118.08100891113281 66.24080657958984" stroke-width="3.0" fill="none" stroke="rgb(0, 0, 0)" stroke-opacity="1.0" stroke-linecap="round" stroke-linejoin="round"/>
    <path d="M 108.41059112548828 93.38819122314453 C 111.53889465332031 101.76815032958984 100.96238708496094 102.27930450439453 109.04891204833984 114.29069519042969" stroke-width="3.0" fill="none" stroke="rgb(0, 0, 0)" stroke-opacity="1.0" stroke-linecap="round" stroke-linejoin="round"/>
    <path d="M 131.54541015625 112.12078094482422 C 129.8202362060547 84.70864868164062 148.08961486816406 137.9298095703125 187.1332244873047 72.46176147460938" stroke-width="3.0" fill="none" stroke="rgb(0, 0, 0)" stroke-opacity="1.0" stroke-linecap="round" stroke-linejoin="round"/>
    <path d="M 66.28949737548828 40.04936981201172 C 65.2872543334961 40.704803466796875 54.333412170410156 46.70469284057617 43.699119567871094 61.493499755859375" stroke-width="3.0" fill="none" stroke="rgb(0, 0, 0)" stroke-opacity="1.0" stroke-linecap="round" stroke-linejoin="round"/>
    <path d="M 134.94570922851562 82.07685852050781 C 107.0381088256836 39.63084411621094 111.05773162841797 67.58353424072266 94.89665222167969 44.91273880004883" stroke-width="3.0" fill="none" stroke="rgb(0, 0, 0)" stroke-opacity="1.0" stroke-linecap="round" stroke-linejoin="round"/>
    <path d="M 67.88663482666016 112.39020538330078 C 36.51667404174805 81.08348083496094 60.377445220947266 100.89990234375 39.530853271484375 77.21556854248047" stroke-width="3.0" fill="none" stroke="rgb(0, 0, 0)" stroke-opacity="1.0" stroke-linecap="round" stroke-linejoin="round"/>
    <path d="M 186.2001190185547 57.467491149902344 C 172.27354431152344 37.074798583984375 194.03440856933594 52.76519775390625 187.72903442382812 79.73596954345703" stroke-width="3.0" fill="none" stroke="rgb(0, 0, 0)" stroke-opacity="1.0" stroke-linecap="round" stroke-linejoin="round"/>
    <path d="M 102.27957153320312 191.8945770263672 C 118.66155242919922 88.91578674316406 124.46509552001953 129.10829162597656 123.16740417480469 104.98568725585938" stroke-width="3.0" fill="none" stroke="rgb(0, 0, 0)" stroke-opacity="1.0" stroke-linecap="round" stroke-linejoin="round"/>
    <path d="M 47.46089172363281 102.79535675048828 C 23.247360229492188 174.51651000976562 10.737129211425781 123.82855987548828 42.68667221069336 199.47216796875" stroke-width="3.0" fill="none" stroke="rgb(0, 0, 0)" stroke-opacity="1.0" stroke-linecap="round" stroke-linejoin="round"/>
    <path d="M 65.34437561035156 41.20382308959961 C 99.42680358886719 18.34459114074707 161.97879028320312 136.09716796875 173.01686096191406 58.390907287597656" stroke-width="3.0" fill="none" stroke="rgb(0, 0, 0)" stroke-opacity="1.0" stroke-linecap="round" stroke-linejoin="round"/>
    <path d="M 48.981239318847656 102.81243133544922 C 81.90416717529297 121.66920471191406 81.64156341552734 112.36465454101562 102.43197631835938 117.41496276855469" stroke-width="3.0" fill="none" stroke="rgb(0, 0, 0)" stroke-opacity="1.0" stroke-linecap="round" stroke-linejoin="round"/>
    <path d="M 22.671152114868164 137.61801147460938 C 15.34688663482666 84.117431640625 3.152656078338623 85.989013671875 54.060508728027344 52.17816925048828" stroke-width="3.0" fill="none" stroke="rgb(0, 0, 0)" stroke-opacity="1.0" stroke-linecap="round" stroke-linejoin="round"/>
    <path d="M 172.2682647705078 87.68878936767578 C 190.4829559326172 19.8819580078125 204.1913299560547 30.121063232421875 170.5681610107422 93.25189208984375" stroke-width="3.0" fill="none" stroke="rgb(0, 0, 0)" stroke-opacity="1.0" stroke-linecap="round" stroke-linejoin="round"/>
    <path d="M 106.06011199951172 117.05010223388672 C 109.25887298583984 180.40267944335938 80.75299072265625 195.43704223632812 110.10159301757812 192.2189178466797" stroke-width="3.0" fill="none" stroke="rgb(0, 0, 0)" stroke-opacity="1.0" stroke-linecap="round" stroke-linejoin="round"/>
    <path d="M 169.9776153564453 67.44105529785156 C 184.27490234375 9.430541038513184 214.3246307373047 78.67439270019531 203.8470001220703 48.403663635253906" stroke-width="3.0" fill="none" stroke="rgb(0, 0, 0)" stroke-opacity="1.0" stroke-linecap="round" stroke-linejoin="round"/>
    <path d="M 190.6963653564453 63.44239807128906 C 150.61700439453125 42.26952362060547 257.9866943359375 49.04704284667969 193.9053497314453 60.086246490478516" stroke-width="3.0" fill="none" stroke="rgb(0, 0, 0)" stroke-opacity="1.0" stroke-linecap="round" stroke-linejoin="round"/>
  </g>
</svg>
