<?xml version="1.0" ?>
<svg xmlns="http://www.w3.org/2000/svg" version="1.1" width="224" height="224">
  <defs/>
  <g>
    <path d="M 154.8199920654297 95.94769287109375 C 119.40723419189453 85.82682037353516 167.60057067871094 114.45623016357422 132.9157257080078 83.07197570800781" stroke-width="3.0" fill="none" stroke="rgb(0, 0, 0)" stroke-opacity="1.0" stroke-linecap="round" stroke-linejoin="round"/>
    <path d="M 110.91148376464844 94.388427734375 C 108.24268341064453 103.11683654785156 100.80879211425781 103.18604278564453 107.44864654541016 113.06580352783203" stroke-width="3.0" fill="none" stroke="rgb(0, 0, 0)" stroke-opacity="1.0" stroke-linecap="round" stroke-linejoin="round"/>
    <path d="M 138.5601043701172 103.11143493652344 C 151.34335327148438 67.43390655517578 114.97805786132812 120.47528076171875 177.81146240234375 91.09379577636719" stroke-width="3.0" fill="none" stroke="rgb(0, 0, 0)" stroke-opacity="1.0" stroke-linecap="round" stroke-linejoin="round"/>
    <path d="M 62.42855453491211 43.69535446166992 C 61.60524368286133 42.80965042114258 53.763397216796875 47.970333099365234 64.49451446533203 41.685020446777344" stroke-width="3.0" fill="none" stroke="rgb(0, 0, 0)" stroke-opacity="1.0" stroke-linecap="round" stroke-linejoin="round"/>
    <path d="M 119.77300262451172 63.96739959716797 C 111.93399810791016 52.06310272216797 101.68805694580078 59.0221061706543 92.12767791748047 43.056373596191406" stroke-width="3.0" fill="none" stroke="rgb(0, 0, 0)" stroke-opacity="1.0" stroke-linecap="round" stroke-linejoin="round"/>
    <path d="M 71.8687515258789 115.4902114868164 C 49.04710388183594 91.32963562011719 66.1373062133789 102.20160675048828 46.56753158569336 72.74150085449219" stroke-width="3.0" fill="none" stroke="rgb(0, 0, 0)" stroke-opacity="1.0" stroke-linecap="round" stroke-linejoin="round"/>
    <path d="M 188.93026733398438 45.44662857055664 C 180.06959533691406 50.71031951904297 199.45428466796875 57.68108367919922 175.6614990234375 81.62569427490234" stroke-width="3.0" fill="none" stroke="rgb(0, 0, 0)" stroke-opacity="1.0" stroke-linecap="round" stroke-linejoin="round"/>
    <path d="M 103.60660552978516 193.5183868408203 C 122.88824462890625 80.5146713256836 120.41360473632812 125.45784759521484 131.482177734375 99.91401672363281" stroke-width="3.0" fill="none" stroke="rgb(0, 0, 0)" stroke-opacity="1.0" stroke-linecap="round" stroke-linejoin="round"/>
    <path d="M 34.059139251708984 85.1996841430664 C 24.335283279418945 190.1717987060547 15.58996868133545 119.35478973388672 43.29254913330078 198.2818603515625" stroke-width="3.0" fill="none" stroke="rgb(0, 0, 0)" stroke-opacity="1.0" stroke-linecap="round" stroke-linejoin="round"/>
    <path d="M 61.97951889038086 44.017555236816406 C 90.62373352050781 13.615496635437012 136.02548217773438 100.27909851074219 168.55038452148438 85.76917266845703" stroke-width="3.0" fill="none" stroke="rgb(0, 0, 0)" stroke-opacity="1.0" stroke-linecap="round" stroke-linejoin="round"/>
    <path d="M 37.94512939453125 95.09060668945312 C 87.51923370361328 129.6544647216797 82.3775634765625 116.17679595947266 105.54940032958984 118.97389221191406" stroke-width="3.0" fill="none" stroke="rgb(0, 0, 0)" stroke-opacity="1.0" stroke-linecap="round" stroke-linejoin="round"/>
    <path d="M 33.69237518310547 87.5123291015625 C 35.89346694946289 66.30006408691406 27.138830184936523 76.30615234375 39.668521881103516 55.38098907470703" stroke-width="3.0" fill="none" stroke="rgb(0, 0, 0)" stroke-opacity="1.0" stroke-linecap="round" stroke-linejoin="round"/>
    <path d="M 168.96542358398438 86.3752670288086 C 199.868408203125 49.28176498413086 190.3265380859375 60.65291976928711 182.65757751464844 87.69690704345703" stroke-width="3.0" fill="none" stroke="rgb(0, 0, 0)" stroke-opacity="1.0" stroke-linecap="round" stroke-linejoin="round"/>
    <path d="M 105.03472900390625 117.62076568603516 C 108.4833755493164 180.7825469970703 78.84952545166016 196.7359161376953 113.05533599853516 188.967529296875" stroke-width="3.0" fill="none" stroke="rgb(0, 0, 0)" stroke-opacity="1.0" stroke-linecap="round" stroke-linejoin="round"/>
    <path d="M 173.18478393554688 81.38333129882812 C 173.246337890625 -6.577846527099609 194.99447631835938 75.8559799194336 196.5945281982422 54.12726974487305" stroke-width="3.0" fill="none" stroke="rgb(0, 0, 0)" stroke-opacity="1.0" stroke-linecap="round" stroke-linejoin="round"/>
    <path d="M 192.09371948242188 62.60961151123047 C 150.27679443359375 37.52779006958008 232.09307861328125 44.94112014770508 199.23846435546875 49.796932220458984" stroke-width="3.0" fill="none" stroke="rgb(0, 0, 0)" stroke-opacity="1.0" stroke-linecap="round" stroke-linejoin="round"/>
  </g>
</svg>
