<?xml version="1.0" ?>
<svg xmlns="http://www.w3.org/2000/svg" version="1.1" width="224" height="224">
  <defs/>
  <g>
    <path d="M 140.39328002929688 97.72766876220703 C 124.9444580078125 84.71448516845703 135.3708038330078 78.67491912841797 134.0999755859375 84.54200744628906" stroke-width="3.0" fill="none" stroke="rgb(0, 0, 0)" stroke-opacity="1.0" stroke-linecap="round" stroke-linejoin="round"/>
    <path d="M 98.82073211669922 88.46932220458984 C 96.84868621826172 99.45957946777344 95.09355163574219 106.48234558105469 101.59233856201172 115.44606018066406" stroke-width="3.0" fill="none" stroke="rgb(0, 0, 0)" stroke-opacity="1.0" stroke-linecap="round" stroke-linejoin="round"/>
    <path d="M 149.67811584472656 109.99874114990234 C 155.0703887939453 89.46835327148438 134.11756896972656 70.49964141845703 154.31405639648438 106.1421890258789" stroke-width="3.0" fill="none" stroke="rgb(0, 0, 0)" stroke-opacity="1.0" stroke-linecap="round" stroke-linejoin="round"/>
    <path d="M 56.31570053100586 47.170738220214844 C 64.73204803466797 83.84095764160156 45.51044464111328 96.69503784179688 53.31239318847656 90.08755493164062" stroke-width="3.0" fill="none" stroke="rgb(0, 0, 0)" stroke-opacity="1.0" stroke-linecap="round" stroke-linejoin="round"/>
    <path d="M 115.05341339111328 54.39830780029297 C 119.12393951416016 58.375267028808594 118.08649444580078 56.92288589477539 116.31090545654297 55.851356506347656" stroke-width="3.0" fill="none" stroke="rgb(0, 0, 0)" stroke-opacity="1.0" stroke-linecap="round" stroke-linejoin="round"/>
    <path d="M 55.55504608154297 80.89956665039062 C 52.292938232421875 95.22622680664062 51.72293472290039 88.12820434570312 54.816795349121094 85.01879119873047" stroke-width="3.0" fill="none" stroke="rgb(0, 0, 0)" stroke-opacity="1.0" stroke-linecap="round" stroke-linejoin="round"/>
    <path d="M 181.9282684326172 42.24368667602539 C 181.04483032226562 82.1069107055664 171.71112060546875 73.42813873291016 165.88502502441406 72.65299987792969" stroke-width="3.0" fill="none" stroke="rgb(0, 0, 0)" stroke-opacity="1.0" stroke-linecap="round" stroke-linejoin="round"/>
    <path d="M 111.70824432373047 138.0852813720703 C 122.499267578125 110.16338348388672 101.16584014892578 129.4408416748047 116.09282684326172 122.14191436767578" stroke-width="3.0" fill="none" stroke="rgb(0, 0, 0)" stroke-opacity="1.0" stroke-linecap="round" stroke-linejoin="round"/>
    <path d="M 30.77846336364746 126.83594512939453 C 27.718332290649414 172.08453369140625 31.55255699157715 146.41015625 45.67401885986328 194.6480255126953" stroke-width="3.0" fill="none" stroke="rgb(0, 0, 0)" stroke-opacity="1.0" stroke-linecap="round" stroke-linejoin="round"/>
    <path d="M 80.19901275634766 37.72856521606445 C 118.69805908203125 44.722042083740234 123.97904968261719 64.28997039794922 131.66265869140625 82.72929382324219" stroke-width="3.0" fill="none" stroke="rgb(0, 0, 0)" stroke-opacity="1.0" stroke-linecap="round" stroke-linejoin="round"/>
    <path d="M 54.07244110107422 97.62755584716797 C 73.34111785888672 125.76195526123047 73.61431121826172 119.63641357421875 104.10820007324219 123.61966705322266" stroke-width="3.0" fill="none" stroke="rgb(0, 0, 0)" stroke-opacity="1.0" stroke-linecap="round" stroke-linejoin="round"/>
    <path d="M 28.594547271728516 93.45986938476562 C 21.093446731567383 78.58631134033203 16.556962966918945 81.65496826171875 20.279420852661133 73.98775482177734" stroke-width="3.0" fill="none" stroke="rgb(0, 0, 0)" stroke-opacity="1.0" stroke-linecap="round" stroke-linejoin="round"/>
    <path d="M 144.68397521972656 78.17548370361328 C 184.78799438476562 67.94068908691406 154.42710876464844 80.71812438964844 167.747802734375 98.07001495361328" stroke-width="3.0" fill="none" stroke="rgb(0, 0, 0)" stroke-opacity="1.0" stroke-linecap="round" stroke-linejoin="round"/>
    <path d="M 107.81114959716797 116.09642791748047 C 122.6976089477539 148.01495361328125 82.02822875976562 204.37449645996094 112.04389953613281 194.7234344482422" stroke-width="3.0" fill="none" stroke="rgb(0, 0, 0)" stroke-opacity="1.0" stroke-linecap="round" stroke-linejoin="round"/>
    <path d="M 175.24237060546875 59.750587463378906 C 198.5340118408203 14.7068510055542 185.8201141357422 56.26173782348633 199.977294921875 48.89879608154297" stroke-width="3.0" fill="none" stroke="rgb(0, 0, 0)" stroke-opacity="1.0" stroke-linecap="round" stroke-linejoin="round"/>
    <path d="M 197.618408203125 61.39202880859375 C 166.72427368164062 44.40830993652344 206.7257080078125 34.94991683959961 200.52264404296875 55.329952239990234" stroke-width="3.0" fill="none" stroke="rgb(0, 0, 0)" stroke-opacity="1.0" stroke-linecap="round" stroke-linejoin="round"/>
  </g>
</svg>
