<?xml version="1.0" ?>
<svg xmlns="http://www.w3.org/2000/svg" version="1.1" width="224" height="224">
  <defs/>
  <g>
    <path d="M 138.36135864257812 105.90005493164062 C 120.27149963378906 93.30427551269531 154.93865966796875 133.36959838867188 117.86390686035156 66.39457702636719" stroke-width="3.0" fill="none" stroke="rgb(0, 0, 0)" stroke-opacity="1.0" stroke-linecap="round" stroke-linejoin="round"/>
    <path d="M 112.02174377441406 93.67719268798828 C 111.62448120117188 101.83470916748047 104.67233276367188 101.95503997802734 112.19841003417969 112.86329650878906" stroke-width="3.0" fill="none" stroke="rgb(0, 0, 0)" stroke-opacity="1.0" stroke-linecap="round" stroke-linejoin="round"/>
    <path d="M 132.67617797851562 107.41598510742188 C 131.47433471679688 81.46121215820312 144.6398468017578 136.33628845214844 188.04119873046875 76.55545043945312" stroke-width="3.0" fill="none" stroke="rgb(0, 0, 0)" stroke-opacity="1.0" stroke-linecap="round" stroke-linejoin="round"/>
    <path d="M 67.23360443115234 38.16695022583008 C 64.31219482421875 39.02872848510742 51.86842727661133 45.51237106323242 46.817256927490234 54.705230712890625" stroke-width="3.0" fill="none" stroke="rgb(0, 0, 0)" stroke-opacity="1.0" stroke-linecap="round" stroke-linejoin="round"/>
    <path d="M 133.52462768554688 82.91704559326172 C 106.62403869628906 38.865333557128906 111.58097076416016 65.7838363647461 97.27169036865234 45.29719543457031" stroke-width="3.0" fill="none" stroke="rgb(0, 0, 0)" stroke-opacity="1.0" stroke-linecap="round" stroke-linejoin="round"/>
    <path d="M 69.91848754882812 112.90615844726562 C 39.037349700927734 83.70769500732422 61.58565139770508 100.46942901611328 44.61872100830078 71.33162689208984" stroke-width="3.0" fill="none" stroke="rgb(0, 0, 0)" stroke-opacity="1.0" stroke-linecap="round" stroke-linejoin="round"/>
    <path d="M 182.29464721679688 60.570289611816406 C 174.3480987548828 42.29304504394531 199.8943328857422 52.153663635253906 189.53939819335938 79.87837219238281" stroke-width="3.0" fill="none" stroke="rgb(0, 0, 0)" stroke-opacity="1.0" stroke-linecap="round" stroke-linejoin="round"/>
    <path d="M 103.42257690429688 189.59925842285156 C 119.83240509033203 86.19418334960938 120.63300323486328 130.2204132080078 124.341796875 106.632080078125" stroke-width="3.0" fill="none" stroke="rgb(0, 0, 0)" stroke-opacity="1.0" stroke-linecap="round" stroke-linejoin="round"/>
    <path d="M 46.38925552368164 102.09363555908203 C 27.104705810546875 171.58212280273438 13.895431518554688 124.82289123535156 40.23734664916992 198.5091094970703" stroke-width="3.0" fill="none" stroke="rgb(0, 0, 0)" stroke-opacity="1.0" stroke-linecap="round" stroke-linejoin="round"/>
    <path d="M 67.1947021484375 38.253204345703125 C 99.64866638183594 16.950965881347656 158.69287109375 137.7295379638672 173.41131591796875 57.15327072143555" stroke-width="3.0" fill="none" stroke="rgb(0, 0, 0)" stroke-opacity="1.0" stroke-linecap="round" stroke-linejoin="round"/>
    <path d="M 48.14901351928711 104.45650482177734 C 86.94107055664062 122.52635192871094 80.27297973632812 112.02426147460938 104.96617889404297 117.82771301269531" stroke-width="3.0" fill="none" stroke="rgb(0, 0, 0)" stroke-opacity="1.0" stroke-linecap="round" stroke-linejoin="round"/>
    <path d="M 21.554981231689453 137.5740203857422 C 14.463099479675293 76.78164672851562 4.2135443687438965 85.35336303710938 53.34954071044922 48.54563903808594" stroke-width="3.0" fill="none" stroke="rgb(0, 0, 0)" stroke-opacity="1.0" stroke-linecap="round" stroke-linejoin="round"/>
    <path d="M 175.4783477783203 84.28750610351562 C 192.38311767578125 18.575532913208008 202.718994140625 27.65011978149414 168.43150329589844 93.14210510253906" stroke-width="3.0" fill="none" stroke="rgb(0, 0, 0)" stroke-opacity="1.0" stroke-linecap="round" stroke-linejoin="round"/>
    <path d="M 104.3779067993164 116.08354949951172 C 107.87696838378906 188.95982360839844 79.59426879882812 195.8240509033203 108.7541732788086 192.0891876220703" stroke-width="3.0" fill="none" stroke="rgb(0, 0, 0)" stroke-opacity="1.0" stroke-linecap="round" stroke-linejoin="round"/>
    <path d="M 172.60679626464844 64.6463623046875 C 183.53211975097656 6.905322074890137 218.8967742919922 75.77422332763672 206.78829956054688 50.15625" stroke-width="3.0" fill="none" stroke="rgb(0, 0, 0)" stroke-opacity="1.0" stroke-linecap="round" stroke-linejoin="round"/>
    <path d="M 195.7384490966797 62.59695816040039 C 151.3049774169922 41.118629455566406 259.493408203125 44.12649917602539 199.2853240966797 57.842193603515625" stroke-width="3.0" fill="none" stroke="rgb(0, 0, 0)" stroke-opacity="1.0" stroke-linecap="round" stroke-linejoin="round"/>
  </g>
</svg>
