<?xml version="1.0" ?>
<svg xmlns="http://www.w3.org/2000/svg" version="1.1" width="224" height="224">
  <defs/>
  <g>
    <path d="M 156.21624755859375 100.803955078125 C 119.71859741210938 93.5503921508789 164.5724639892578 117.0027084350586 133.39706420898438 85.29888153076172" stroke-width="3.0" fill="none" stroke="rgb(0, 0, 0)" stroke-opacity="1.0" stroke-linecap="round" stroke-linejoin="round"/>
    <path d="M 109.24203491210938 93.97740936279297 C 108.68970489501953 102.90386199951172 101.27914428710938 104.25790405273438 107.6285400390625 113.06742095947266" stroke-width="3.0" fill="none" stroke="rgb(0, 0, 0)" stroke-opacity="1.0" stroke-linecap="round" stroke-linejoin="round"/>
    <path d="M 137.05345153808594 103.127197265625 C 152.78787231445312 72.03166198730469 113.52954864501953 120.12088775634766 174.473388671875 93.93095397949219" stroke-width="3.0" fill="none" stroke="rgb(0, 0, 0)" stroke-opacity="1.0" stroke-linecap="round" stroke-linejoin="round"/>
    <path d="M 63.243751525878906 43.86943435668945 C 61.88235855102539 44.817100524902344 53.87480926513672 51.45439910888672 64.64131164550781 43.331573486328125" stroke-width="3.0" fill="none" stroke="rgb(0, 0, 0)" stroke-opacity="1.0" stroke-linecap="round" stroke-linejoin="round"/>
    <path d="M 118.65641021728516 60.754817962646484 C 112.49823760986328 49.289913177490234 101.11550903320312 55.07891845703125 93.3439712524414 43.03083038330078" stroke-width="3.0" fill="none" stroke="rgb(0, 0, 0)" stroke-opacity="1.0" stroke-linecap="round" stroke-linejoin="round"/>
    <path d="M 74.43827056884766 113.20840454101562 C 46.07079315185547 95.44223022460938 66.25709533691406 95.4787368774414 45.34535217285156 82.27185821533203" stroke-width="3.0" fill="none" stroke="rgb(0, 0, 0)" stroke-opacity="1.0" stroke-linecap="round" stroke-linejoin="round"/>
    <path d="M 186.52880859375 46.07101821899414 C 175.5770721435547 57.90475845336914 199.77593994140625 53.914024353027344 176.92576599121094 82.43510437011719" stroke-width="3.0" fill="none" stroke="rgb(0, 0, 0)" stroke-opacity="1.0" stroke-linecap="round" stroke-linejoin="round"/>
    <path d="M 103.66676330566406 192.48780822753906 C 125.30370330810547 78.24227142333984 118.1474838256836 128.31124877929688 131.88943481445312 100.85858917236328" stroke-width="3.0" fill="none" stroke="rgb(0, 0, 0)" stroke-opacity="1.0" stroke-linecap="round" stroke-linejoin="round"/>
    <path d="M 37.53255844116211 91.5571060180664 C 21.97226905822754 188.71334838867188 17.489463806152344 116.70978546142578 40.723934173583984 197.3972930908203" stroke-width="3.0" fill="none" stroke="rgb(0, 0, 0)" stroke-opacity="1.0" stroke-linecap="round" stroke-linejoin="round"/>
    <path d="M 62.956668853759766 44.130733489990234 C 92.03097534179688 12.885946273803711 137.70440673828125 98.7039794921875 167.42066955566406 87.4505386352539" stroke-width="3.0" fill="none" stroke="rgb(0, 0, 0)" stroke-opacity="1.0" stroke-linecap="round" stroke-linejoin="round"/>
    <path d="M 40.536476135253906 96.3617935180664 C 93.8676986694336 126.31676483154297 84.4073486328125 110.34925079345703 104.7104263305664 117.25739288330078" stroke-width="3.0" fill="none" stroke="rgb(0, 0, 0)" stroke-opacity="1.0" stroke-linecap="round" stroke-linejoin="round"/>
    <path d="M 35.32634353637695 83.3763656616211 C 36.74241256713867 68.35529327392578 26.8203182220459 66.44868469238281 38.287322998046875 58.20463562011719" stroke-width="3.0" fill="none" stroke="rgb(0, 0, 0)" stroke-opacity="1.0" stroke-linecap="round" stroke-linejoin="round"/>
    <path d="M 168.85601806640625 86.76966857910156 C 205.5981903076172 56.28060531616211 185.22872924804688 62.99553680419922 176.1741943359375 92.10174560546875" stroke-width="3.0" fill="none" stroke="rgb(0, 0, 0)" stroke-opacity="1.0" stroke-linecap="round" stroke-linejoin="round"/>
    <path d="M 105.75434112548828 116.7085189819336 C 106.12310791015625 184.52243041992188 77.5281753540039 193.72222900390625 113.1889419555664 188.186767578125" stroke-width="3.0" fill="none" stroke="rgb(0, 0, 0)" stroke-opacity="1.0" stroke-linecap="round" stroke-linejoin="round"/>
    <path d="M 172.90829467773438 81.91519165039062 C 174.69898986816406 -0.7297839522361755 191.53140258789062 78.42047119140625 198.1456756591797 51.02406311035156" stroke-width="3.0" fill="none" stroke="rgb(0, 0, 0)" stroke-opacity="1.0" stroke-linecap="round" stroke-linejoin="round"/>
    <path d="M 194.21937561035156 63.85786819458008 C 148.3668975830078 41.49137496948242 233.6897430419922 51.85829162597656 202.49136352539062 55.363075256347656" stroke-width="3.0" fill="none" stroke="rgb(0, 0, 0)" stroke-opacity="1.0" stroke-linecap="round" stroke-linejoin="round"/>
  </g>
</svg>
