<?xml version="1.0" ?>
<svg xmlns="http://www.w3.org/2000/svg" version="1.1" width="224" height="224">
  <defs/>
  <g>
    <path d="M 136.53485107421875 105.41854095458984 C 119.06884002685547 91.2821044921875 151.4115753173828 137.17625427246094 118.62114715576172 66.61203002929688" stroke-width="3.0" fill="none" stroke="rgb(0, 0, 0)" stroke-opacity="1.0" stroke-linecap="round" stroke-linejoin="round"/>
    <path d="M 108.82041931152344 93.58023071289062 C 111.41071319580078 101.50962829589844 102.76244354248047 104.10930633544922 107.3007583618164 112.64146423339844" stroke-width="3.0" fill="none" stroke="rgb(0, 0, 0)" stroke-opacity="1.0" stroke-linecap="round" stroke-linejoin="round"/>
    <path d="M 131.87890625 108.37036895751953 C 129.88104248046875 82.71532440185547 142.70132446289062 136.13035583496094 186.707763671875 80.29995727539062" stroke-width="3.0" fill="none" stroke="rgb(0, 0, 0)" stroke-opacity="1.0" stroke-linecap="round" stroke-linejoin="round"/>
    <path d="M 69.57247161865234 38.89675521850586 C 65.13853454589844 39.49681091308594 52.96915054321289 46.78312301635742 51.3646354675293 50.545021057128906" stroke-width="3.0" fill="none" stroke="rgb(0, 0, 0)" stroke-opacity="1.0" stroke-linecap="round" stroke-linejoin="round"/>
    <path d="M 132.5232696533203 81.54439544677734 C 108.04827117919922 38.649269104003906 115.48798370361328 63.21189498901367 97.65788269042969 45.94843673706055" stroke-width="3.0" fill="none" stroke="rgb(0, 0, 0)" stroke-opacity="1.0" stroke-linecap="round" stroke-linejoin="round"/>
    <path d="M 68.47772979736328 111.31179809570312 C 37.84016799926758 83.07115173339844 61.563053131103516 101.67652130126953 43.33810043334961 78.92850494384766" stroke-width="3.0" fill="none" stroke="rgb(0, 0, 0)" stroke-opacity="1.0" stroke-linecap="round" stroke-linejoin="round"/>
    <path d="M 185.75091552734375 62.19007110595703 C 177.29754638671875 35.13603591918945 195.83140563964844 48.028404235839844 189.82923889160156 78.34058380126953" stroke-width="3.0" fill="none" stroke="rgb(0, 0, 0)" stroke-opacity="1.0" stroke-linecap="round" stroke-linejoin="round"/>
    <path d="M 101.21150970458984 187.7885284423828 C 122.798095703125 84.25056457519531 123.16996002197266 131.08070373535156 125.6019058227539 102.87821197509766" stroke-width="3.0" fill="none" stroke="rgb(0, 0, 0)" stroke-opacity="1.0" stroke-linecap="round" stroke-linejoin="round"/>
    <path d="M 49.620994567871094 105.0341567993164 C 23.367502212524414 173.04457092285156 15.854865074157715 122.08660888671875 40.9140510559082 199.43954467773438" stroke-width="3.0" fill="none" stroke="rgb(0, 0, 0)" stroke-opacity="1.0" stroke-linecap="round" stroke-linejoin="round"/>
    <path d="M 66.96265411376953 39.91796112060547 C 100.17548370361328 16.038930892944336 153.7985382080078 126.8197021484375 174.15725708007812 61.52457809448242" stroke-width="3.0" fill="none" stroke="rgb(0, 0, 0)" stroke-opacity="1.0" stroke-linecap="round" stroke-linejoin="round"/>
    <path d="M 50.35948944091797 104.02806854248047 C 87.6723861694336 121.50141906738281 82.90369415283203 113.98259735107422 106.43514251708984 117.62870025634766" stroke-width="3.0" fill="none" stroke="rgb(0, 0, 0)" stroke-opacity="1.0" stroke-linecap="round" stroke-linejoin="round"/>
    <path d="M 22.577434539794922 136.27313232421875 C 12.60671615600586 74.07970428466797 6.563476085662842 85.62116241455078 54.4487419128418 46.91921615600586" stroke-width="3.0" fill="none" stroke="rgb(0, 0, 0)" stroke-opacity="1.0" stroke-linecap="round" stroke-linejoin="round"/>
    <path d="M 172.54002380371094 85.8163070678711 C 201.29345703125 26.05950927734375 202.4537353515625 28.17328643798828 172.43092346191406 94.16582489013672" stroke-width="3.0" fill="none" stroke="rgb(0, 0, 0)" stroke-opacity="1.0" stroke-linecap="round" stroke-linejoin="round"/>
    <path d="M 106.1203842163086 117.62183380126953 C 108.85308074951172 181.52598571777344 75.15824127197266 195.34405517578125 111.95325469970703 191.5150604248047" stroke-width="3.0" fill="none" stroke="rgb(0, 0, 0)" stroke-opacity="1.0" stroke-linecap="round" stroke-linejoin="round"/>
    <path d="M 169.1621551513672 70.78294372558594 C 182.5880584716797 7.42338228225708 219.00900268554688 76.69405364990234 210.826416015625 51.92028045654297" stroke-width="3.0" fill="none" stroke="rgb(0, 0, 0)" stroke-opacity="1.0" stroke-linecap="round" stroke-linejoin="round"/>
    <path d="M 194.34664916992188 64.10890197753906 C 150.78265380859375 40.130218505859375 257.49664306640625 46.24249267578125 200.53466796875 60.35677719116211" stroke-width="3.0" fill="none" stroke="rgb(0, 0, 0)" stroke-opacity="1.0" stroke-linecap="round" stroke-linejoin="round"/>
  </g>
</svg>
