<?xml version="1.0" ?>
<svg xmlns="http://www.w3.org/2000/svg" version="1.1" width="224" height="224">
  <defs/>
  <g>
    <path d="M 153.95281982421875 102.09332275390625 C 116.996826171875 82.4197006225586 179.55987548828125 129.52349853515625 121.23199462890625 72.91633605957031" stroke-width="3.0" fill="none" stroke="rgb(0, 0, 0)" stroke-opacity="1.0" stroke-linecap="round" stroke-linejoin="round"/>
    <path d="M 111.00763702392578 94.13690185546875 C 110.96783447265625 106.20220184326172 102.00090026855469 104.59696960449219 107.55933380126953 114.42326354980469" stroke-width="3.0" fill="none" stroke="rgb(0, 0, 0)" stroke-opacity="1.0" stroke-linecap="round" stroke-linejoin="round"/>
    <path d="M 139.17601013183594 105.33863067626953 C 142.0461883544922 66.10356903076172 125.68757629394531 131.89804077148438 179.2650909423828 87.49384307861328" stroke-width="3.0" fill="none" stroke="rgb(0, 0, 0)" stroke-opacity="1.0" stroke-linecap="round" stroke-linejoin="round"/>
    <path d="M 62.58889389038086 41.99701690673828 C 63.51030349731445 42.01790237426758 56.18478012084961 46.27690505981445 64.39282989501953 41.92341232299805" stroke-width="3.0" fill="none" stroke="rgb(0, 0, 0)" stroke-opacity="1.0" stroke-linecap="round" stroke-linejoin="round"/>
    <path d="M 130.139892578125 84.92554473876953 C 108.52954864501953 44.0127067565918 111.09517669677734 68.314208984375 98.68415832519531 47.15651321411133" stroke-width="3.0" fill="none" stroke="rgb(0, 0, 0)" stroke-opacity="1.0" stroke-linecap="round" stroke-linejoin="round"/>
    <path d="M 68.66592407226562 111.28431701660156 C 42.376583099365234 75.56942749023438 58.55895233154297 87.61644744873047 48.123382568359375 63.970497131347656" stroke-width="3.0" fill="none" stroke="rgb(0, 0, 0)" stroke-opacity="1.0" stroke-linecap="round" stroke-linejoin="round"/>
    <path d="M 186.0085906982422 39.59486389160156 C 188.144287109375 47.64454650878906 198.70277404785156 47.912540435791016 188.42044067382812 79.94244384765625" stroke-width="3.0" fill="none" stroke="rgb(0, 0, 0)" stroke-opacity="1.0" stroke-linecap="round" stroke-linejoin="round"/>
    <path d="M 101.81827545166016 193.0770721435547 C 123.5436782836914 79.60867309570312 123.20914459228516 122.61132049560547 133.9324951171875 101.00389099121094" stroke-width="3.0" fill="none" stroke="rgb(0, 0, 0)" stroke-opacity="1.0" stroke-linecap="round" stroke-linejoin="round"/>
    <path d="M 47.5918083190918 97.55499267578125 C 23.916439056396484 184.71160888671875 15.769318580627441 124.94493865966797 39.95277404785156 199.3782501220703" stroke-width="3.0" fill="none" stroke="rgb(0, 0, 0)" stroke-opacity="1.0" stroke-linecap="round" stroke-linejoin="round"/>
    <path d="M 62.995967864990234 42.68086242675781 C 92.98756408691406 15.706992149353027 141.3466033935547 107.16385650634766 170.5244903564453 80.52433013916016" stroke-width="3.0" fill="none" stroke="rgb(0, 0, 0)" stroke-opacity="1.0" stroke-linecap="round" stroke-linejoin="round"/>
    <path d="M 50.35988235473633 93.8317642211914 C 69.57661437988281 120.77239990234375 87.23660278320312 113.53527069091797 107.07562255859375 117.07039642333984" stroke-width="3.0" fill="none" stroke="rgb(0, 0, 0)" stroke-opacity="1.0" stroke-linecap="round" stroke-linejoin="round"/>
    <path d="M 18.40933609008789 131.8203125 C 6.601221561431885 67.1261215209961 21.87049674987793 78.29143524169922 58.92557144165039 44.828369140625" stroke-width="3.0" fill="none" stroke="rgb(0, 0, 0)" stroke-opacity="1.0" stroke-linecap="round" stroke-linejoin="round"/>
    <path d="M 167.29693603515625 85.15960693359375 C 198.4266357421875 39.50617599487305 196.84693908691406 49.211326599121094 176.4657440185547 88.36228942871094" stroke-width="3.0" fill="none" stroke="rgb(0, 0, 0)" stroke-opacity="1.0" stroke-linecap="round" stroke-linejoin="round"/>
    <path d="M 106.1544189453125 119.83033752441406 C 109.9080810546875 176.94064331054688 74.72903442382812 202.0359649658203 112.52438354492188 187.6103515625" stroke-width="3.0" fill="none" stroke="rgb(0, 0, 0)" stroke-opacity="1.0" stroke-linecap="round" stroke-linejoin="round"/>
    <path d="M 173.57594299316406 77.18045806884766 C 173.08551025390625 -0.12130416929721832 215.32716369628906 75.6734619140625 206.36981201171875 48.51029968261719" stroke-width="3.0" fill="none" stroke="rgb(0, 0, 0)" stroke-opacity="1.0" stroke-linecap="round" stroke-linejoin="round"/>
    <path d="M 197.0243682861328 57.56078338623047 C 154.4877166748047 39.35877227783203 249.15513610839844 45.78627395629883 199.28468322753906 54.54226303100586" stroke-width="3.0" fill="none" stroke="rgb(0, 0, 0)" stroke-opacity="1.0" stroke-linecap="round" stroke-linejoin="round"/>
  </g>
</svg>
