<?xml version="1.0" ?>
<svg xmlns="http://www.w3.org/2000/svg" version="1.1" width="224" height="224">
  <defs/>
  <g>
    <path d="M 153.22019958496094 101.60536193847656 C 128.6933135986328 96.38748931884766 159.4538116455078 108.02761840820312 130.12005615234375 92.15544891357422" stroke-width="3.0" fill="none" stroke="rgb(0, 0, 0)" stroke-opacity="1.0" stroke-linecap="round" stroke-linejoin="round"/>
    <path d="M 110.29164123535156 93.88307189941406 C 110.8888168334961 98.25238037109375 104.6168212890625 98.75973510742188 109.0483169555664 107.96969604492188" stroke-width="3.0" fill="none" stroke="rgb(0, 0, 0)" stroke-opacity="1.0" stroke-linecap="round" stroke-linejoin="round"/>
    <path d="M 138.17405700683594 104.708740234375 C 152.59747314453125 87.58260345458984 115.16629028320312 114.85319519042969 170.0478515625 98.05276489257812" stroke-width="3.0" fill="none" stroke="rgb(0, 0, 0)" stroke-opacity="1.0" stroke-linecap="round" stroke-linejoin="round"/>
    <path d="M 58.96846389770508 42.95785903930664 C 51.575706481933594 44.100013732910156 37.99867630004883 60.40444564819336 50.70954513549805 48.51218032836914" stroke-width="3.0" fill="none" stroke="rgb(0, 0, 0)" stroke-opacity="1.0" stroke-linecap="round" stroke-linejoin="round"/>
    <path d="M 105.2291259765625 52.34946060180664 C 118.08991241455078 59.254913330078125 102.67454528808594 55.70891189575195 98.69303131103516 47.36530685424805" stroke-width="3.0" fill="none" stroke="rgb(0, 0, 0)" stroke-opacity="1.0" stroke-linecap="round" stroke-linejoin="round"/>
    <path d="M 72.83609771728516 113.8326416015625 C 40.675537109375 86.81488800048828 60.04299545288086 95.79145050048828 43.57663345336914 79.34480285644531" stroke-width="3.0" fill="none" stroke="rgb(0, 0, 0)" stroke-opacity="1.0" stroke-linecap="round" stroke-linejoin="round"/>
    <path d="M 186.57888793945312 38.43061447143555 C 178.95166015625 66.24105072021484 213.6059112548828 69.86673736572266 178.2270965576172 88.8182373046875" stroke-width="3.0" fill="none" stroke="rgb(0, 0, 0)" stroke-opacity="1.0" stroke-linecap="round" stroke-linejoin="round"/>
    <path d="M 109.91332244873047 168.35865783691406 C 126.50375366210938 84.74166870117188 117.64733123779297 127.05675506591797 131.294921875 102.76016998291016" stroke-width="3.0" fill="none" stroke="rgb(0, 0, 0)" stroke-opacity="1.0" stroke-linecap="round" stroke-linejoin="round"/>
    <path d="M 47.04241943359375 96.50135040283203 C 21.353044509887695 186.6961669921875 21.595935821533203 122.52369689941406 38.85725784301758 198.08148193359375" stroke-width="3.0" fill="none" stroke="rgb(0, 0, 0)" stroke-opacity="1.0" stroke-linecap="round" stroke-linejoin="round"/>
    <path d="M 58.05732345581055 43.59700393676758 C 90.45655059814453 15.537979125976562 135.05213928222656 90.5196304321289 157.87623596191406 86.71514129638672" stroke-width="3.0" fill="none" stroke="rgb(0, 0, 0)" stroke-opacity="1.0" stroke-linecap="round" stroke-linejoin="round"/>
    <path d="M 46.209022521972656 107.33418273925781 C 94.5885238647461 125.0933837890625 84.59451293945312 109.24051666259766 105.12354278564453 117.05503845214844" stroke-width="3.0" fill="none" stroke="rgb(0, 0, 0)" stroke-opacity="1.0" stroke-linecap="round" stroke-linejoin="round"/>
    <path d="M 38.542667388916016 83.28180694580078 C 34.08255386352539 72.4234390258789 26.499284744262695 71.8238754272461 29.215152740478516 71.8394775390625" stroke-width="3.0" fill="none" stroke="rgb(0, 0, 0)" stroke-opacity="1.0" stroke-linecap="round" stroke-linejoin="round"/>
    <path d="M 160.8271942138672 86.05179595947266 C 221.16029357910156 76.22089385986328 176.48883056640625 79.83414459228516 172.34716796875 93.93982696533203" stroke-width="3.0" fill="none" stroke="rgb(0, 0, 0)" stroke-opacity="1.0" stroke-linecap="round" stroke-linejoin="round"/>
    <path d="M 106.50619506835938 115.5699234008789 C 109.90217590332031 178.638671875 79.64665222167969 194.0538787841797 110.37776184082031 194.4513702392578" stroke-width="3.0" fill="none" stroke="rgb(0, 0, 0)" stroke-opacity="1.0" stroke-linecap="round" stroke-linejoin="round"/>
    <path d="M 178.15835571289062 80.29328918457031 C 176.36390686035156 -12.106003761291504 185.39739990234375 68.14208984375 205.45188903808594 45.38370895385742" stroke-width="3.0" fill="none" stroke="rgb(0, 0, 0)" stroke-opacity="1.0" stroke-linecap="round" stroke-linejoin="round"/>
    <path d="M 195.88853454589844 60.639747619628906 C 152.89988708496094 36.102447509765625 220.44561767578125 40.88836669921875 197.52268981933594 54.904170989990234" stroke-width="3.0" fill="none" stroke="rgb(0, 0, 0)" stroke-opacity="1.0" stroke-linecap="round" stroke-linejoin="round"/>
  </g>
</svg>
