<?xml version="1.0" ?>
<svg xmlns="http://www.w3.org/2000/svg" version="1.1" width="224" height="224">
  <defs/>
  <g>
    <path d="M 138.765625 91.90312957763672 C 124.6225814819336 76.82833862304688 129.8160400390625 71.31964874267578 133.39315795898438 77.84783172607422" stroke-width="3.0" fill="none" stroke="rgb(0, 0, 0)" stroke-opacity="1.0" stroke-linecap="round" stroke-linejoin="round"/>
    <path d="M 99.44583129882812 89.75640106201172 C 95.85733795166016 96.06623077392578 98.89690399169922 107.22512817382812 105.1929931640625 112.19581604003906" stroke-width="3.0" fill="none" stroke="rgb(0, 0, 0)" stroke-opacity="1.0" stroke-linecap="round" stroke-linejoin="round"/>
    <path d="M 141.74803161621094 105.72408294677734 C 150.98341369628906 99.7158203125 134.005859375 74.37992858886719 152.22349548339844 104.79490661621094" stroke-width="3.0" fill="none" stroke="rgb(0, 0, 0)" stroke-opacity="1.0" stroke-linecap="round" stroke-linejoin="round"/>
    <path d="M 51.2662467956543 51.50116729736328 C 56.8394660949707 75.43855285644531 41.75614929199219 101.01514434814453 49.762962341308594 88.00714111328125" stroke-width="3.0" fill="none" stroke="rgb(0, 0, 0)" stroke-opacity="1.0" stroke-linecap="round" stroke-linejoin="round"/>
    <path d="M 115.25845336914062 53.62331771850586 C 119.43647003173828 58.3825569152832 118.40978240966797 58.7298583984375 116.95685577392578 56.09743881225586" stroke-width="3.0" fill="none" stroke="rgb(0, 0, 0)" stroke-opacity="1.0" stroke-linecap="round" stroke-linejoin="round"/>
    <path d="M 60.96425247192383 86.79710388183594 C 50.97374725341797 90.36459350585938 50.246089935302734 84.01180267333984 58.64266586303711 79.66327667236328" stroke-width="3.0" fill="none" stroke="rgb(0, 0, 0)" stroke-opacity="1.0" stroke-linecap="round" stroke-linejoin="round"/>
    <path d="M 182.4378204345703 43.65705108642578 C 180.48497009277344 80.34453582763672 176.1707305908203 72.2226333618164 163.2640838623047 80.84378051757812" stroke-width="3.0" fill="none" stroke="rgb(0, 0, 0)" stroke-opacity="1.0" stroke-linecap="round" stroke-linejoin="round"/>
    <path d="M 115.51972961425781 143.93356323242188 C 128.87728881835938 107.04043579101562 108.76516723632812 134.7317352294922 120.28299713134766 117.16064453125" stroke-width="3.0" fill="none" stroke="rgb(0, 0, 0)" stroke-opacity="1.0" stroke-linecap="round" stroke-linejoin="round"/>
    <path d="M 35.6118049621582 122.17212677001953 C 22.196687698364258 170.3603515625 23.597204208374023 143.09828186035156 42.732208251953125 196.17498779296875" stroke-width="3.0" fill="none" stroke="rgb(0, 0, 0)" stroke-opacity="1.0" stroke-linecap="round" stroke-linejoin="round"/>
    <path d="M 72.76596069335938 37.459861755371094 C 117.69353485107422 44.308738708496094 125.77986145019531 65.64753723144531 136.89564514160156 81.29606628417969" stroke-width="3.0" fill="none" stroke="rgb(0, 0, 0)" stroke-opacity="1.0" stroke-linecap="round" stroke-linejoin="round"/>
    <path d="M 51.47675704956055 90.54548645019531 C 78.28694915771484 129.54229736328125 77.23807525634766 121.76758575439453 102.156005859375 124.22802734375" stroke-width="3.0" fill="none" stroke="rgb(0, 0, 0)" stroke-opacity="1.0" stroke-linecap="round" stroke-linejoin="round"/>
    <path d="M 31.699356079101562 91.64546203613281 C 26.782073974609375 76.00450897216797 18.309253692626953 78.50151824951172 18.996524810791016 77.12499237060547" stroke-width="3.0" fill="none" stroke="rgb(0, 0, 0)" stroke-opacity="1.0" stroke-linecap="round" stroke-linejoin="round"/>
    <path d="M 143.5753173828125 84.50192260742188 C 199.58921813964844 73.50102233886719 157.5974884033203 77.44954681396484 171.63583374023438 99.48113250732422" stroke-width="3.0" fill="none" stroke="rgb(0, 0, 0)" stroke-opacity="1.0" stroke-linecap="round" stroke-linejoin="round"/>
    <path d="M 107.0386734008789 115.33129119873047 C 122.10640716552734 145.58201599121094 89.65442657470703 205.24395751953125 111.63431549072266 192.4880828857422" stroke-width="3.0" fill="none" stroke="rgb(0, 0, 0)" stroke-opacity="1.0" stroke-linecap="round" stroke-linejoin="round"/>
    <path d="M 180.44561767578125 59.081424713134766 C 193.25967407226562 12.614433288574219 182.39601135253906 62.97275924682617 205.88497924804688 48.80890655517578" stroke-width="3.0" fill="none" stroke="rgb(0, 0, 0)" stroke-opacity="1.0" stroke-linecap="round" stroke-linejoin="round"/>
    <path d="M 198.10906982421875 65.71328735351562 C 172.81326293945312 45.16545104980469 204.7064666748047 35.887916564941406 196.751708984375 56.25840377807617" stroke-width="3.0" fill="none" stroke="rgb(0, 0, 0)" stroke-opacity="1.0" stroke-linecap="round" stroke-linejoin="round"/>
  </g>
</svg>
