<?xml version="1.0" ?>
<svg xmlns="http://www.w3.org/2000/svg" version="1.1" width="224" height="224">
  <defs/>
  <g>
    <path d="M 140.11959838867188 107.30054473876953 C 121.52197265625 92.1520767211914 154.1237030029297 141.79408264160156 117.98054504394531 66.75932312011719" stroke-width="3.0" fill="none" stroke="rgb(0, 0, 0)" stroke-opacity="1.0" stroke-linecap="round" stroke-linejoin="round"/>
    <path d="M 107.92074584960938 92.92156982421875 C 110.81848907470703 102.34205627441406 102.35343933105469 102.39900207519531 108.80982971191406 113.54540252685547" stroke-width="3.0" fill="none" stroke="rgb(0, 0, 0)" stroke-opacity="1.0" stroke-linecap="round" stroke-linejoin="round"/>
    <path d="M 132.84002685546875 109.8890151977539 C 132.323974609375 80.9157943725586 144.91970825195312 134.77891540527344 184.8945770263672 79.96392059326172" stroke-width="3.0" fill="none" stroke="rgb(0, 0, 0)" stroke-opacity="1.0" stroke-linecap="round" stroke-linejoin="round"/>
    <path d="M 68.33859252929688 38.810150146484375 C 64.32148742675781 38.78483200073242 56.09429931640625 45.56258773803711 56.42481231689453 46.277740478515625" stroke-width="3.0" fill="none" stroke="rgb(0, 0, 0)" stroke-opacity="1.0" stroke-linecap="round" stroke-linejoin="round"/>
    <path d="M 132.80284118652344 82.73094177246094 C 107.4486083984375 36.75413131713867 112.8393783569336 66.51468658447266 93.45114135742188 43.854373931884766" stroke-width="3.0" fill="none" stroke="rgb(0, 0, 0)" stroke-opacity="1.0" stroke-linecap="round" stroke-linejoin="round"/>
    <path d="M 66.51190948486328 110.79327392578125 C 38.708656311035156 79.6287841796875 60.793800354003906 92.6918716430664 39.04243087768555 70.39033508300781" stroke-width="3.0" fill="none" stroke="rgb(0, 0, 0)" stroke-opacity="1.0" stroke-linecap="round" stroke-linejoin="round"/>
    <path d="M 184.33396911621094 64.34303283691406 C 172.06993103027344 30.61441993713379 188.9705810546875 52.445072174072266 184.66357421875 82.79150390625" stroke-width="3.0" fill="none" stroke="rgb(0, 0, 0)" stroke-opacity="1.0" stroke-linecap="round" stroke-linejoin="round"/>
    <path d="M 105.5389175415039 195.6602325439453 C 121.01993560791016 81.20250701904297 122.1463851928711 125.19343566894531 127.15667724609375 101.79354858398438" stroke-width="3.0" fill="none" stroke="rgb(0, 0, 0)" stroke-opacity="1.0" stroke-linecap="round" stroke-linejoin="round"/>
    <path d="M 46.940650939941406 100.92317199707031 C 22.90161895751953 170.09649658203125 14.54316234588623 127.80445098876953 40.340396881103516 198.0150146484375" stroke-width="3.0" fill="none" stroke="rgb(0, 0, 0)" stroke-opacity="1.0" stroke-linecap="round" stroke-linejoin="round"/>
    <path d="M 64.40731048583984 40.537044525146484 C 97.85404968261719 15.020722389221191 152.58982849121094 124.4764175415039 171.97360229492188 69.31066131591797" stroke-width="3.0" fill="none" stroke="rgb(0, 0, 0)" stroke-opacity="1.0" stroke-linecap="round" stroke-linejoin="round"/>
    <path d="M 46.31010437011719 98.75498962402344 C 82.07185363769531 124.03335571289062 79.24222564697266 112.47858428955078 104.6060562133789 115.66171264648438" stroke-width="3.0" fill="none" stroke="rgb(0, 0, 0)" stroke-opacity="1.0" stroke-linecap="round" stroke-linejoin="round"/>
    <path d="M 20.41008186340332 134.52645874023438 C 8.640175819396973 71.22237396240234 12.595149993896484 85.11835479736328 57.87726593017578 44.869300842285156" stroke-width="3.0" fill="none" stroke="rgb(0, 0, 0)" stroke-opacity="1.0" stroke-linecap="round" stroke-linejoin="round"/>
    <path d="M 178.7421112060547 87.32071685791016 C 194.85621643066406 23.069700241088867 198.8992156982422 24.30469512939453 168.45201110839844 91.78356170654297" stroke-width="3.0" fill="none" stroke="rgb(0, 0, 0)" stroke-opacity="1.0" stroke-linecap="round" stroke-linejoin="round"/>
    <path d="M 107.92170715332031 117.63298034667969 C 110.36048126220703 186.32888793945312 81.33426666259766 204.58290100097656 109.96187591552734 190.96047973632812" stroke-width="3.0" fill="none" stroke="rgb(0, 0, 0)" stroke-opacity="1.0" stroke-linecap="round" stroke-linejoin="round"/>
    <path d="M 172.85304260253906 66.9737319946289 C 177.63136291503906 3.6765060424804688 214.38320922851562 79.91449737548828 205.626220703125 47.45406723022461" stroke-width="3.0" fill="none" stroke="rgb(0, 0, 0)" stroke-opacity="1.0" stroke-linecap="round" stroke-linejoin="round"/>
    <path d="M 189.84844970703125 62.573997497558594 C 151.79461669921875 44.6781120300293 257.6422119140625 46.20623779296875 194.1754150390625 58.6075325012207" stroke-width="3.0" fill="none" stroke="rgb(0, 0, 0)" stroke-opacity="1.0" stroke-linecap="round" stroke-linejoin="round"/>
  </g>
</svg>
