<?xml version="1.0" ?>
<svg xmlns="http://www.w3.org/2000/svg" version="1.1" width="224" height="224">
  <defs/>
  <g>
    <path d="M 132.4998779296875 108.07227325439453 C 124.43490600585938 88.42869567871094 149.65670776367188 137.79518127441406 118.83480834960938 69.32070922851562" stroke-width="3.0" fill="none" stroke="rgb(0, 0, 0)" stroke-opacity="1.0" stroke-linecap="round" stroke-linejoin="round"/>
    <path d="M 112.84329986572266 88.89347839355469 C 115.08358764648438 98.28910064697266 104.27446746826172 102.15029907226562 110.7119140625 113.32545471191406" stroke-width="3.0" fill="none" stroke="rgb(0, 0, 0)" stroke-opacity="1.0" stroke-linecap="round" stroke-linejoin="round"/>
    <path d="M 129.43063354492188 108.18417358398438 C 129.6230926513672 91.75630950927734 153.84585571289062 134.95838928222656 189.25062561035156 67.56786346435547" stroke-width="3.0" fill="none" stroke="rgb(0, 0, 0)" stroke-opacity="1.0" stroke-linecap="round" stroke-linejoin="round"/>
    <path d="M 60.57453918457031 42.814781188964844 C 64.4057388305664 38.93164825439453 52.693729400634766 47.25625991821289 40.01980972290039 62.043209075927734" stroke-width="3.0" fill="none" stroke="rgb(0, 0, 0)" stroke-opacity="1.0" stroke-linecap="round" stroke-linejoin="round"/>
    <path d="M 138.42344665527344 77.33815002441406 C 104.34869384765625 44.019901275634766 113.25653839111328 68.67235565185547 94.37337493896484 44.521183013916016" stroke-width="3.0" fill="none" stroke="rgb(0, 0, 0)" stroke-opacity="1.0" stroke-linecap="round" stroke-linejoin="round"/>
    <path d="M 67.48188018798828 110.02412414550781 C 41.9769172668457 73.97239685058594 61.137943267822266 93.80087280273438 43.62697982788086 70.0109634399414" stroke-width="3.0" fill="none" stroke="rgb(0, 0, 0)" stroke-opacity="1.0" stroke-linecap="round" stroke-linejoin="round"/>
    <path d="M 187.16827392578125 59.34672164916992 C 170.28323364257812 36.60887908935547 195.73948669433594 50.14656066894531 187.1012725830078 78.10224151611328" stroke-width="3.0" fill="none" stroke="rgb(0, 0, 0)" stroke-opacity="1.0" stroke-linecap="round" stroke-linejoin="round"/>
    <path d="M 105.54048156738281 193.73944091796875 C 114.26909637451172 99.31163787841797 124.47307586669922 135.05426025390625 124.89399719238281 102.2686538696289" stroke-width="3.0" fill="none" stroke="rgb(0, 0, 0)" stroke-opacity="1.0" stroke-linecap="round" stroke-linejoin="round"/>
    <path d="M 48.43346405029297 100.17535400390625 C 28.779420852661133 179.57029724121094 16.304439544677734 127.54656982421875 40.29185104370117 198.22653198242188" stroke-width="3.0" fill="none" stroke="rgb(0, 0, 0)" stroke-opacity="1.0" stroke-linecap="round" stroke-linejoin="round"/>
    <path d="M 62.16866683959961 40.824893951416016 C 99.47957611083984 15.912266731262207 153.34727478027344 135.37716674804688 177.82923889160156 54.18903350830078" stroke-width="3.0" fill="none" stroke="rgb(0, 0, 0)" stroke-opacity="1.0" stroke-linecap="round" stroke-linejoin="round"/>
    <path d="M 50.66282653808594 97.2282943725586 C 83.81078338623047 124.21458435058594 78.48252868652344 113.66792297363281 104.79383087158203 119.0909194946289" stroke-width="3.0" fill="none" stroke="rgb(0, 0, 0)" stroke-opacity="1.0" stroke-linecap="round" stroke-linejoin="round"/>
    <path d="M 18.02528190612793 142.0600128173828 C 19.419269561767578 97.03995513916016 -7.322073936462402 88.404296875 52.61824035644531 52.18594741821289" stroke-width="3.0" fill="none" stroke="rgb(0, 0, 0)" stroke-opacity="1.0" stroke-linecap="round" stroke-linejoin="round"/>
    <path d="M 176.18853759765625 88.70947265625 C 191.1277618408203 19.978168487548828 206.2930450439453 28.56619644165039 166.29908752441406 98.0948486328125" stroke-width="3.0" fill="none" stroke="rgb(0, 0, 0)" stroke-opacity="1.0" stroke-linecap="round" stroke-linejoin="round"/>
    <path d="M 106.75519561767578 115.71220397949219 C 109.58175659179688 183.0877685546875 83.02610778808594 199.72154235839844 112.94588470458984 189.32321166992188" stroke-width="3.0" fill="none" stroke="rgb(0, 0, 0)" stroke-opacity="1.0" stroke-linecap="round" stroke-linejoin="round"/>
    <path d="M 169.2192840576172 72.95903015136719 C 179.72410583496094 3.6796653270721436 216.20840454101562 76.89437866210938 206.79302978515625 49.81448745727539" stroke-width="3.0" fill="none" stroke="rgb(0, 0, 0)" stroke-opacity="1.0" stroke-linecap="round" stroke-linejoin="round"/>
    <path d="M 193.3896942138672 61.84092712402344 C 153.0041046142578 46.715660095214844 253.3311309814453 45.152191162109375 197.59024047851562 58.6624870300293" stroke-width="3.0" fill="none" stroke="rgb(0, 0, 0)" stroke-opacity="1.0" stroke-linecap="round" stroke-linejoin="round"/>
  </g>
</svg>
