<?xml version="1.0" ?>
<svg xmlns="http://www.w3.org/2000/svg" version="1.1" width="224" height="224">
  <defs/>
  <g>
    <path d="M 131.43576049804688 108.7044448852539 C 118.88463592529297 95.9356689453125 151.3390350341797 139.3404998779297 122.13687133789062 65.2686767578125" stroke-width="3.0" fill="none" stroke="rgb(0, 0, 0)" stroke-opacity="1.0" stroke-linecap="round" stroke-linejoin="round"/>
    <path d="M 108.8499755859375 92.43122863769531 C 113.34880065917969 97.84558868408203 103.32496643066406 100.24444580078125 110.07664489746094 114.12112426757812" stroke-width="3.0" fill="none" stroke="rgb(0, 0, 0)" stroke-opacity="1.0" stroke-linecap="round" stroke-linejoin="round"/>
    <path d="M 131.9916229248047 112.45982360839844 C 129.2676544189453 81.4312515258789 151.48480224609375 139.12083435058594 187.9647216796875 72.93120574951172" stroke-width="3.0" fill="none" stroke="rgb(0, 0, 0)" stroke-opacity="1.0" stroke-linecap="round" stroke-linejoin="round"/>
    <path d="M 64.35491943359375 42.197288513183594 C 65.29486846923828 39.36121368408203 56.07364273071289 48.98553466796875 43.184852600097656 60.49019241333008" stroke-width="3.0" fill="none" stroke="rgb(0, 0, 0)" stroke-opacity="1.0" stroke-linecap="round" stroke-linejoin="round"/>
    <path d="M 134.31373596191406 87.07243347167969 C 109.20613098144531 42.04599380493164 114.3238754272461 69.60276794433594 93.52371215820312 44.51872253417969" stroke-width="3.0" fill="none" stroke="rgb(0, 0, 0)" stroke-opacity="1.0" stroke-linecap="round" stroke-linejoin="round"/>
    <path d="M 68.72051239013672 111.80181884765625 C 35.655357360839844 81.6459732055664 61.495941162109375 97.62215423583984 41.79426574707031 77.32183837890625" stroke-width="3.0" fill="none" stroke="rgb(0, 0, 0)" stroke-opacity="1.0" stroke-linecap="round" stroke-linejoin="round"/>
    <path d="M 185.3312225341797 56.62136459350586 C 169.2866973876953 34.68356704711914 194.49330139160156 50.39468002319336 187.64724731445312 77.19662475585938" stroke-width="3.0" fill="none" stroke="rgb(0, 0, 0)" stroke-opacity="1.0" stroke-linecap="round" stroke-linejoin="round"/>
    <path d="M 107.4881591796875 194.66615295410156 C 117.74362182617188 85.16227722167969 123.40769958496094 129.8648681640625 122.04340362548828 103.36625671386719" stroke-width="3.0" fill="none" stroke="rgb(0, 0, 0)" stroke-opacity="1.0" stroke-linecap="round" stroke-linejoin="round"/>
    <path d="M 47.099674224853516 106.29180908203125 C 25.940462112426758 175.18060302734375 12.685833930969238 125.43207550048828 40.278907775878906 198.57821655273438" stroke-width="3.0" fill="none" stroke="rgb(0, 0, 0)" stroke-opacity="1.0" stroke-linecap="round" stroke-linejoin="round"/>
    <path d="M 65.11001586914062 39.21320724487305 C 100.41461944580078 17.3234806060791 156.50706481933594 136.9646759033203 172.47384643554688 57.912322998046875" stroke-width="3.0" fill="none" stroke="rgb(0, 0, 0)" stroke-opacity="1.0" stroke-linecap="round" stroke-linejoin="round"/>
    <path d="M 48.45293426513672 102.71092987060547 C 83.91744232177734 122.51262664794922 81.57713317871094 112.20036315917969 105.72196197509766 117.36455535888672" stroke-width="3.0" fill="none" stroke="rgb(0, 0, 0)" stroke-opacity="1.0" stroke-linecap="round" stroke-linejoin="round"/>
    <path d="M 22.214130401611328 138.07730102539062 C 17.142934799194336 85.58032989501953 -3.387896776199341 83.82763671875 55.8966178894043 52.26687240600586" stroke-width="3.0" fill="none" stroke="rgb(0, 0, 0)" stroke-opacity="1.0" stroke-linecap="round" stroke-linejoin="round"/>
    <path d="M 170.55287170410156 84.19184112548828 C 192.8479461669922 19.94867515563965 206.03802490234375 28.970420837402344 166.3815155029297 93.58063507080078" stroke-width="3.0" fill="none" stroke="rgb(0, 0, 0)" stroke-opacity="1.0" stroke-linecap="round" stroke-linejoin="round"/>
    <path d="M 105.09315490722656 119.41724395751953 C 109.64153289794922 184.98651123046875 79.5813217163086 198.0753173828125 112.1583480834961 192.19290161132812" stroke-width="3.0" fill="none" stroke="rgb(0, 0, 0)" stroke-opacity="1.0" stroke-linecap="round" stroke-linejoin="round"/>
    <path d="M 169.96517944335938 64.7005386352539 C 182.46510314941406 6.380124092102051 215.2284698486328 77.54246520996094 204.7693328857422 46.21038055419922" stroke-width="3.0" fill="none" stroke="rgb(0, 0, 0)" stroke-opacity="1.0" stroke-linecap="round" stroke-linejoin="round"/>
    <path d="M 190.9507598876953 65.70938873291016 C 144.52610778808594 41.782623291015625 259.0715026855469 45.542747497558594 194.25436401367188 58.986610412597656" stroke-width="3.0" fill="none" stroke="rgb(0, 0, 0)" stroke-opacity="1.0" stroke-linecap="round" stroke-linejoin="round"/>
  </g>
</svg>
