<?xml version="1.0" ?>
<svg xmlns="http://www.w3.org/2000/svg" version="1.1" width="224" height="224">
  <defs/>
  <g>
    <path d="M 138.3449249267578 106.89483642578125 C 121.58253479003906 91.60038757324219 152.11904907226562 137.09384155273438 118.32837677001953 67.51248931884766" stroke-width="3.0" fill="none" stroke="rgb(0, 0, 0)" stroke-opacity="1.0" stroke-linecap="round" stroke-linejoin="round"/>
    <path d="M 106.89387512207031 91.98767852783203 C 110.74402618408203 100.923828125 101.07347869873047 102.85457611083984 108.2510986328125 113.00359344482422" stroke-width="3.0" fill="none" stroke="rgb(0, 0, 0)" stroke-opacity="1.0" stroke-linecap="round" stroke-linejoin="round"/>
    <path d="M 131.45225524902344 108.3299331665039 C 128.6107177734375 81.30943298339844 143.43887329101562 135.1002197265625 184.19142150878906 78.2198257446289" stroke-width="3.0" fill="none" stroke="rgb(0, 0, 0)" stroke-opacity="1.0" stroke-linecap="round" stroke-linejoin="round"/>
    <path d="M 68.91541290283203 38.45467758178711 C 65.12946319580078 40.16089630126953 53.634525299072266 47.535125732421875 50.203365325927734 50.86948776245117" stroke-width="3.0" fill="none" stroke="rgb(0, 0, 0)" stroke-opacity="1.0" stroke-linecap="round" stroke-linejoin="round"/>
    <path d="M 132.22219848632812 79.83171081542969 C 108.13301849365234 39.1987419128418 113.819091796875 64.92079162597656 98.60134887695312 46.52272415161133" stroke-width="3.0" fill="none" stroke="rgb(0, 0, 0)" stroke-opacity="1.0" stroke-linecap="round" stroke-linejoin="round"/>
    <path d="M 68.50879669189453 111.52920532226562 C 35.94084930419922 84.00557708740234 61.795135498046875 100.91998291015625 41.88650894165039 80.42060852050781" stroke-width="3.0" fill="none" stroke="rgb(0, 0, 0)" stroke-opacity="1.0" stroke-linecap="round" stroke-linejoin="round"/>
    <path d="M 186.1558074951172 62.24705123901367 C 176.50949096679688 36.99236297607422 193.605712890625 50.13898468017578 187.87355041503906 79.9813461303711" stroke-width="3.0" fill="none" stroke="rgb(0, 0, 0)" stroke-opacity="1.0" stroke-linecap="round" stroke-linejoin="round"/>
    <path d="M 102.24161529541016 189.54443359375 C 121.54673767089844 84.79508972167969 121.52376556396484 131.0043182373047 126.87069702148438 103.7826919555664" stroke-width="3.0" fill="none" stroke="rgb(0, 0, 0)" stroke-opacity="1.0" stroke-linecap="round" stroke-linejoin="round"/>
    <path d="M 49.243072509765625 104.29035949707031 C 25.934463500976562 171.74021911621094 16.949832916259766 123.53306579589844 40.32135009765625 198.75962829589844" stroke-width="3.0" fill="none" stroke="rgb(0, 0, 0)" stroke-opacity="1.0" stroke-linecap="round" stroke-linejoin="round"/>
    <path d="M 66.90027618408203 39.80031967163086 C 99.30459594726562 17.18154525756836 153.9661865234375 129.09768676757812 174.61114501953125 62.457550048828125" stroke-width="3.0" fill="none" stroke="rgb(0, 0, 0)" stroke-opacity="1.0" stroke-linecap="round" stroke-linejoin="round"/>
    <path d="M 49.876590728759766 105.56007385253906 C 86.71414947509766 123.03205108642578 82.40985870361328 113.29705047607422 104.16277313232422 117.57295989990234" stroke-width="3.0" fill="none" stroke="rgb(0, 0, 0)" stroke-opacity="1.0" stroke-linecap="round" stroke-linejoin="round"/>
    <path d="M 22.177309036254883 136.1274871826172 C 11.754180908203125 75.89130401611328 7.676793098449707 87.89989471435547 55.05120849609375 46.99014663696289" stroke-width="3.0" fill="none" stroke="rgb(0, 0, 0)" stroke-opacity="1.0" stroke-linecap="round" stroke-linejoin="round"/>
    <path d="M 171.3837127685547 85.11119842529297 C 200.12152099609375 24.661333084106445 201.77630615234375 26.935434341430664 171.46649169921875 93.50111389160156" stroke-width="3.0" fill="none" stroke="rgb(0, 0, 0)" stroke-opacity="1.0" stroke-linecap="round" stroke-linejoin="round"/>
    <path d="M 105.8638687133789 117.73006439208984 C 108.53105926513672 185.24105834960938 75.07857513427734 198.073486328125 112.25946044921875 192.5703125" stroke-width="3.0" fill="none" stroke="rgb(0, 0, 0)" stroke-opacity="1.0" stroke-linecap="round" stroke-linejoin="round"/>
    <path d="M 169.50323486328125 71.65201568603516 C 183.74337768554688 6.5721025466918945 218.7157440185547 75.96481323242188 209.67205810546875 52.95615005493164" stroke-width="3.0" fill="none" stroke="rgb(0, 0, 0)" stroke-opacity="1.0" stroke-linecap="round" stroke-linejoin="round"/>
    <path d="M 197.2068634033203 64.95296478271484 C 151.11253356933594 42.297325134277344 260.46649169921875 47.26372528076172 199.4126434326172 60.82685089111328" stroke-width="3.0" fill="none" stroke="rgb(0, 0, 0)" stroke-opacity="1.0" stroke-linecap="round" stroke-linejoin="round"/>
  </g>
</svg>
