<?xml version="1.0" ?>
<svg xmlns="http://www.w3.org/2000/svg" version="1.1" width="224" height="224">
  <defs/>
  <g>
    <path d="M 152.3907928466797 95.76087951660156 C 119.34112548828125 84.89405059814453 169.99899291992188 113.8813247680664 132.5384979248047 81.9538803100586" stroke-width="3.0" fill="none" stroke="rgb(0, 0, 0)" stroke-opacity="1.0" stroke-linecap="round" stroke-linejoin="round"/>
    <path d="M 109.54108428955078 94.73578643798828 C 108.6515884399414 103.67066955566406 102.66282653808594 101.63687896728516 107.72769927978516 114.2219009399414" stroke-width="3.0" fill="none" stroke="rgb(0, 0, 0)" stroke-opacity="1.0" stroke-linecap="round" stroke-linejoin="round"/>
    <path d="M 138.04266357421875 101.22933197021484 C 149.2679901123047 64.98814392089844 114.30731964111328 120.41867065429688 178.78500366210938 89.82502746582031" stroke-width="3.0" fill="none" stroke="rgb(0, 0, 0)" stroke-opacity="1.0" stroke-linecap="round" stroke-linejoin="round"/>
    <path d="M 62.15650939941406 43.32011032104492 C 62.24617004394531 44.59089279174805 54.428253173828125 49.728904724121094 65.03955841064453 41.38625717163086" stroke-width="3.0" fill="none" stroke="rgb(0, 0, 0)" stroke-opacity="1.0" stroke-linecap="round" stroke-linejoin="round"/>
    <path d="M 121.37995910644531 64.18646240234375 C 112.11993408203125 50.99055480957031 103.12909698486328 58.43222427368164 93.0252456665039 43.89436340332031" stroke-width="3.0" fill="none" stroke="rgb(0, 0, 0)" stroke-opacity="1.0" stroke-linecap="round" stroke-linejoin="round"/>
    <path d="M 72.28592681884766 114.89276123046875 C 47.154273986816406 92.60271453857422 67.34194946289062 104.51143646240234 46.89455795288086 70.96690368652344" stroke-width="3.0" fill="none" stroke="rgb(0, 0, 0)" stroke-opacity="1.0" stroke-linecap="round" stroke-linejoin="round"/>
    <path d="M 189.06353759765625 44.478065490722656 C 179.42434692382812 50.450035095214844 198.5545196533203 59.550048828125 177.36123657226562 83.0211410522461" stroke-width="3.0" fill="none" stroke="rgb(0, 0, 0)" stroke-opacity="1.0" stroke-linecap="round" stroke-linejoin="round"/>
    <path d="M 102.101318359375 191.60150146484375 C 124.30345153808594 84.50994873046875 124.70697784423828 129.38961791992188 132.78219604492188 99.8978271484375" stroke-width="3.0" fill="none" stroke="rgb(0, 0, 0)" stroke-opacity="1.0" stroke-linecap="round" stroke-linejoin="round"/>
    <path d="M 33.38516616821289 84.46208953857422 C 28.162939071655273 191.3350067138672 16.306806564331055 121.04232025146484 41.46165466308594 198.3133087158203" stroke-width="3.0" fill="none" stroke="rgb(0, 0, 0)" stroke-opacity="1.0" stroke-linecap="round" stroke-linejoin="round"/>
    <path d="M 60.002105712890625 45.64754104614258 C 91.88533782958984 15.176538467407227 137.72032165527344 99.57882690429688 168.88824462890625 84.8036880493164" stroke-width="3.0" fill="none" stroke="rgb(0, 0, 0)" stroke-opacity="1.0" stroke-linecap="round" stroke-linejoin="round"/>
    <path d="M 40.241249084472656 94.6779556274414 C 87.46318054199219 130.89430236816406 81.54735565185547 118.61353302001953 105.53962707519531 119.16191101074219" stroke-width="3.0" fill="none" stroke="rgb(0, 0, 0)" stroke-opacity="1.0" stroke-linecap="round" stroke-linejoin="round"/>
    <path d="M 33.41127014160156 89.11446380615234 C 34.17680358886719 66.66317749023438 29.99397850036621 78.40138244628906 43.29778289794922 57.09764862060547" stroke-width="3.0" fill="none" stroke="rgb(0, 0, 0)" stroke-opacity="1.0" stroke-linecap="round" stroke-linejoin="round"/>
    <path d="M 168.11546325683594 85.74642944335938 C 198.0192413330078 47.54422378540039 191.130126953125 60.00046920776367 182.3234100341797 87.11582946777344" stroke-width="3.0" fill="none" stroke="rgb(0, 0, 0)" stroke-opacity="1.0" stroke-linecap="round" stroke-linejoin="round"/>
    <path d="M 105.568359375 118.19298553466797 C 107.75917053222656 178.55079650878906 78.36885833740234 194.99838256835938 111.04444122314453 188.6201171875" stroke-width="3.0" fill="none" stroke="rgb(0, 0, 0)" stroke-opacity="1.0" stroke-linecap="round" stroke-linejoin="round"/>
    <path d="M 172.38729858398438 80.31231689453125 C 173.9359130859375 -8.903464317321777 195.44015502929688 74.62149810791016 196.51004028320312 54.95157241821289" stroke-width="3.0" fill="none" stroke="rgb(0, 0, 0)" stroke-opacity="1.0" stroke-linecap="round" stroke-linejoin="round"/>
    <path d="M 193.77891540527344 62.494598388671875 C 151.34523010253906 36.104312896728516 230.62380981445312 45.61136245727539 199.94253540039062 49.35730743408203" stroke-width="3.0" fill="none" stroke="rgb(0, 0, 0)" stroke-opacity="1.0" stroke-linecap="round" stroke-linejoin="round"/>
  </g>
</svg>
