<?xml version="1.0" ?>
<svg xmlns="http://www.w3.org/2000/svg" version="1.1" width="224" height="224">
  <defs/>
  <g>
    <path d="M 128.25437927246094 88.1013412475586 C 120.28650665283203 73.17449188232422 127.64531707763672 77.40135955810547 127.05450439453125 74.19493103027344" stroke-width="3.0" fill="none" stroke="rgb(0, 0, 0)" stroke-opacity="1.0" stroke-linecap="round" stroke-linejoin="round"/>
    <path d="M 90.67027282714844 101.73499298095703 C 91.56684112548828 101.52011108398438 85.32850646972656 100.14466857910156 102.15779876708984 110.94995880126953" stroke-width="3.0" fill="none" stroke="rgb(0, 0, 0)" stroke-opacity="1.0" stroke-linecap="round" stroke-linejoin="round"/>
    <path d="M 153.43106079101562 105.7275619506836 C 161.2824249267578 86.22386169433594 147.35377502441406 76.33544921875 154.86412048339844 101.07186126708984" stroke-width="3.0" fill="none" stroke="rgb(0, 0, 0)" stroke-opacity="1.0" stroke-linecap="round" stroke-linejoin="round"/>
    <path d="M 59.31169509887695 57.13560104370117 C 59.70796203613281 88.75440979003906 43.86589431762695 90.46600341796875 51.092376708984375 94.2153549194336" stroke-width="3.0" fill="none" stroke="rgb(0, 0, 0)" stroke-opacity="1.0" stroke-linecap="round" stroke-linejoin="round"/>
    <path d="M 113.57567596435547 54.140926361083984 C 113.89271545410156 53.43178939819336 114.00537872314453 62.898990631103516 114.10922241210938 58.092742919921875" stroke-width="3.0" fill="none" stroke="rgb(0, 0, 0)" stroke-opacity="1.0" stroke-linecap="round" stroke-linejoin="round"/>
    <path d="M 54.13595199584961 85.10797882080078 C 51.87355422973633 107.10657501220703 56.633663177490234 96.00643157958984 52.36115264892578 94.3702163696289" stroke-width="3.0" fill="none" stroke="rgb(0, 0, 0)" stroke-opacity="1.0" stroke-linecap="round" stroke-linejoin="round"/>
    <path d="M 174.35736083984375 48.639488220214844 C 177.28359985351562 73.56134796142578 161.40750122070312 73.84967041015625 162.34353637695312 84.2860107421875" stroke-width="3.0" fill="none" stroke="rgb(0, 0, 0)" stroke-opacity="1.0" stroke-linecap="round" stroke-linejoin="round"/>
    <path d="M 109.9529037475586 132.45726013183594 C 113.9247817993164 119.63777923583984 99.55509948730469 129.92282104492188 110.77633666992188 114.7440185546875" stroke-width="3.0" fill="none" stroke="rgb(0, 0, 0)" stroke-opacity="1.0" stroke-linecap="round" stroke-linejoin="round"/>
    <path d="M 37.493751525878906 142.7503662109375 C 32.723140716552734 176.42396545410156 28.79195785522461 151.1598663330078 44.034088134765625 197.17140197753906" stroke-width="3.0" fill="none" stroke="rgb(0, 0, 0)" stroke-opacity="1.0" stroke-linecap="round" stroke-linejoin="round"/>
    <path d="M 101.27339935302734 48.284423828125 C 119.61634063720703 55.18999099731445 122.46051025390625 55.722808837890625 128.3435516357422 75.31059265136719" stroke-width="3.0" fill="none" stroke="rgb(0, 0, 0)" stroke-opacity="1.0" stroke-linecap="round" stroke-linejoin="round"/>
    <path d="M 58.73027801513672 97.0849609375 C 75.95162200927734 112.8518295288086 76.8369369506836 108.1580810546875 100.88898468017578 115.35337829589844" stroke-width="3.0" fill="none" stroke="rgb(0, 0, 0)" stroke-opacity="1.0" stroke-linecap="round" stroke-linejoin="round"/>
    <path d="M 24.982826232910156 92.6810302734375 C 17.495758056640625 76.16214752197266 10.259416580200195 81.88768005371094 16.801912307739258 78.71148681640625" stroke-width="3.0" fill="none" stroke="rgb(0, 0, 0)" stroke-opacity="1.0" stroke-linecap="round" stroke-linejoin="round"/>
    <path d="M 156.2089385986328 85.80140686035156 C 176.41490173339844 67.54219818115234 158.8266143798828 81.3428955078125 175.0517120361328 95.7400131225586" stroke-width="3.0" fill="none" stroke="rgb(0, 0, 0)" stroke-opacity="1.0" stroke-linecap="round" stroke-linejoin="round"/>
    <path d="M 102.62664794921875 117.69246673583984 C 119.1683349609375 146.63809204101562 97.43099212646484 156.45863342285156 110.12390899658203 189.9999237060547" stroke-width="3.0" fill="none" stroke="rgb(0, 0, 0)" stroke-opacity="1.0" stroke-linecap="round" stroke-linejoin="round"/>
    <path d="M 176.30343627929688 53.20436096191406 C 182.4672393798828 20.3092041015625 184.9766845703125 48.847591400146484 202.44796752929688 44.28125762939453" stroke-width="3.0" fill="none" stroke="rgb(0, 0, 0)" stroke-opacity="1.0" stroke-linecap="round" stroke-linejoin="round"/>
    <path d="M 200.8766326904297 60.593116760253906 C 182.81759643554688 45.188941955566406 201.6898956298828 46.633365631103516 213.07325744628906 49.83404541015625" stroke-width="3.0" fill="none" stroke="rgb(0, 0, 0)" stroke-opacity="1.0" stroke-linecap="round" stroke-linejoin="round"/>
  </g>
</svg>
