<?xml version="1.0" ?>
<svg xmlns="http://www.w3.org/2000/svg" version="1.1" width="224" height="224">
  <defs/>
  <g>
    <path d="M 137.8666534423828 106.79701232910156 C 123.695068359375 91.4157943725586 153.6875 139.3661346435547 116.15478515625 66.66938018798828" stroke-width="3.0" fill="none" stroke="rgb(0, 0, 0)" stroke-opacity="1.0" stroke-linecap="round" stroke-linejoin="round"/>
    <path d="M 110.05567169189453 96.12706756591797 C 112.37837219238281 102.29580688476562 102.56027221679688 103.3589859008789 107.61524200439453 115.83607482910156" stroke-width="3.0" fill="none" stroke="rgb(0, 0, 0)" stroke-opacity="1.0" stroke-linecap="round" stroke-linejoin="round"/>
    <path d="M 131.40228271484375 109.88688659667969 C 131.1723175048828 82.78629302978516 143.3154296875 135.4446563720703 188.14596557617188 81.16139221191406" stroke-width="3.0" fill="none" stroke="rgb(0, 0, 0)" stroke-opacity="1.0" stroke-linecap="round" stroke-linejoin="round"/>
    <path d="M 72.00286102294922 37.483604431152344 C 63.871734619140625 37.274478912353516 53.849205017089844 46.18791198730469 51.72889709472656 49.15240478515625" stroke-width="3.0" fill="none" stroke="rgb(0, 0, 0)" stroke-opacity="1.0" stroke-linecap="round" stroke-linejoin="round"/>
    <path d="M 131.68202209472656 82.50780487060547 C 110.81580352783203 40.275604248046875 112.02871704101562 66.04898834228516 96.19740295410156 42.85116958618164" stroke-width="3.0" fill="none" stroke="rgb(0, 0, 0)" stroke-opacity="1.0" stroke-linecap="round" stroke-linejoin="round"/>
    <path d="M 68.4520263671875 117.54731750488281 C 35.026329040527344 85.55912780761719 61.53978729248047 103.12528228759766 41.776493072509766 78.83091735839844" stroke-width="3.0" fill="none" stroke="rgb(0, 0, 0)" stroke-opacity="1.0" stroke-linecap="round" stroke-linejoin="round"/>
    <path d="M 182.96690368652344 59.81739044189453 C 176.69232177734375 40.390689849853516 191.64134216308594 50.686981201171875 189.76193237304688 76.36975860595703" stroke-width="3.0" fill="none" stroke="rgb(0, 0, 0)" stroke-opacity="1.0" stroke-linecap="round" stroke-linejoin="round"/>
    <path d="M 103.01481628417969 190.79661560058594 C 121.52776336669922 83.26567840576172 122.85790252685547 128.46380615234375 126.06993103027344 101.37664794921875" stroke-width="3.0" fill="none" stroke="rgb(0, 0, 0)" stroke-opacity="1.0" stroke-linecap="round" stroke-linejoin="round"/>
    <path d="M 44.18659210205078 101.82462310791016 C 26.170989990234375 173.41278076171875 20.919530868530273 118.60962677001953 38.8178596496582 199.6021728515625" stroke-width="3.0" fill="none" stroke="rgb(0, 0, 0)" stroke-opacity="1.0" stroke-linecap="round" stroke-linejoin="round"/>
    <path d="M 65.12870788574219 38.796451568603516 C 99.26927185058594 17.470678329467773 157.50242614746094 130.6572265625 172.36387634277344 66.53524017333984" stroke-width="3.0" fill="none" stroke="rgb(0, 0, 0)" stroke-opacity="1.0" stroke-linecap="round" stroke-linejoin="round"/>
    <path d="M 45.779930114746094 102.42028045654297 C 84.30548858642578 125.222412109375 78.88475799560547 117.58248901367188 105.81991577148438 120.15055847167969" stroke-width="3.0" fill="none" stroke="rgb(0, 0, 0)" stroke-opacity="1.0" stroke-linecap="round" stroke-linejoin="round"/>
    <path d="M 18.802642822265625 136.99270629882812 C 13.116069793701172 70.3182601928711 8.476017951965332 86.48058319091797 53.76654052734375 46.11362075805664" stroke-width="3.0" fill="none" stroke="rgb(0, 0, 0)" stroke-opacity="1.0" stroke-linecap="round" stroke-linejoin="round"/>
    <path d="M 179.8036651611328 89.4424057006836 C 200.1178436279297 24.952903747558594 196.83848571777344 24.129854202270508 169.56674194335938 88.73487091064453" stroke-width="3.0" fill="none" stroke="rgb(0, 0, 0)" stroke-opacity="1.0" stroke-linecap="round" stroke-linejoin="round"/>
    <path d="M 104.28558349609375 118.96697235107422 C 110.77760314941406 178.35336303710938 74.39334869384766 202.36489868164062 108.784912109375 192.40895080566406" stroke-width="3.0" fill="none" stroke="rgb(0, 0, 0)" stroke-opacity="1.0" stroke-linecap="round" stroke-linejoin="round"/>
    <path d="M 171.1400146484375 65.15108489990234 C 180.44459533691406 6.425251007080078 216.66796875 78.7476806640625 208.3451385498047 48.130374908447266" stroke-width="3.0" fill="none" stroke="rgb(0, 0, 0)" stroke-opacity="1.0" stroke-linecap="round" stroke-linejoin="round"/>
    <path d="M 194.06500244140625 60.66127014160156 C 154.46310424804688 40.57425308227539 257.7388610839844 48.70109939575195 197.1272430419922 57.967037200927734" stroke-width="3.0" fill="none" stroke="rgb(0, 0, 0)" stroke-opacity="1.0" stroke-linecap="round" stroke-linejoin="round"/>
  </g>
</svg>
