<?xml version="1.0" ?>
<svg xmlns="http://www.w3.org/2000/svg" version="1.1" width="224" height="224">
  <defs/>
  <g>
    <path d="M 152.80018615722656 98.17283630371094 C 119.6053466796875 84.07260131835938 173.4952850341797 115.69026947021484 130.6432647705078 78.27305603027344" stroke-width="3.0" fill="none" stroke="rgb(0, 0, 0)" stroke-opacity="1.0" stroke-linecap="round" stroke-linejoin="round"/>
    <path d="M 107.67853546142578 94.62925720214844 C 110.11713409423828 105.7934799194336 103.69515991210938 103.23249053955078 109.24971771240234 116.27691650390625" stroke-width="3.0" fill="none" stroke="rgb(0, 0, 0)" stroke-opacity="1.0" stroke-linecap="round" stroke-linejoin="round"/>
    <path d="M 140.96632385253906 100.1968765258789 C 148.6882781982422 62.600162506103516 117.51026153564453 121.44284057617188 176.0948486328125 89.7004623413086" stroke-width="3.0" fill="none" stroke="rgb(0, 0, 0)" stroke-opacity="1.0" stroke-linecap="round" stroke-linejoin="round"/>
    <path d="M 62.820213317871094 44.49851989746094 C 61.93680953979492 44.84540557861328 53.650909423828125 49.043792724609375 65.14237213134766 43.788726806640625" stroke-width="3.0" fill="none" stroke="rgb(0, 0, 0)" stroke-opacity="1.0" stroke-linecap="round" stroke-linejoin="round"/>
    <path d="M 121.21976470947266 68.66754913330078 C 112.48612213134766 51.16845703125 105.4161376953125 58.7154655456543 93.41839599609375 44.85971450805664" stroke-width="3.0" fill="none" stroke="rgb(0, 0, 0)" stroke-opacity="1.0" stroke-linecap="round" stroke-linejoin="round"/>
    <path d="M 72.33446502685547 115.48201751708984 C 45.82473373413086 90.48469543457031 69.42068481445312 101.24826049804688 47.146514892578125 73.29331970214844" stroke-width="3.0" fill="none" stroke="rgb(0, 0, 0)" stroke-opacity="1.0" stroke-linecap="round" stroke-linejoin="round"/>
    <path d="M 185.40769958496094 35.90357971191406 C 175.0833282470703 51.372718811035156 193.7191925048828 61.571617126464844 178.48597717285156 80.58470153808594" stroke-width="3.0" fill="none" stroke="rgb(0, 0, 0)" stroke-opacity="1.0" stroke-linecap="round" stroke-linejoin="round"/>
    <path d="M 103.95641326904297 195.68955993652344 C 123.12037658691406 81.90880584716797 123.22978210449219 131.68215942382812 129.90695190429688 101.62004089355469" stroke-width="3.0" fill="none" stroke="rgb(0, 0, 0)" stroke-opacity="1.0" stroke-linecap="round" stroke-linejoin="round"/>
    <path d="M 33.684139251708984 86.08377838134766 C 30.595745086669922 195.22486877441406 15.70913314819336 119.62052154541016 40.805145263671875 198.57029724121094" stroke-width="3.0" fill="none" stroke="rgb(0, 0, 0)" stroke-opacity="1.0" stroke-linecap="round" stroke-linejoin="round"/>
    <path d="M 62.35330581665039 44.48902130126953 C 89.69557189941406 14.00333023071289 138.73899841308594 101.3396224975586 167.50189208984375 84.75360107421875" stroke-width="3.0" fill="none" stroke="rgb(0, 0, 0)" stroke-opacity="1.0" stroke-linecap="round" stroke-linejoin="round"/>
    <path d="M 41.9013671875 90.00473022460938 C 86.344482421875 130.14500427246094 75.30238342285156 116.02347564697266 106.3883056640625 118.99374389648438" stroke-width="3.0" fill="none" stroke="rgb(0, 0, 0)" stroke-opacity="1.0" stroke-linecap="round" stroke-linejoin="round"/>
    <path d="M 33.15623092651367 93.0890121459961 C 32.592735290527344 67.22795867919922 33.33600997924805 75.84320831298828 46.59559631347656 55.73706817626953" stroke-width="3.0" fill="none" stroke="rgb(0, 0, 0)" stroke-opacity="1.0" stroke-linecap="round" stroke-linejoin="round"/>
    <path d="M 168.12672424316406 84.95114135742188 C 195.2431640625 45.481170654296875 190.52114868164062 58.41454315185547 182.32093811035156 87.51615142822266" stroke-width="3.0" fill="none" stroke="rgb(0, 0, 0)" stroke-opacity="1.0" stroke-linecap="round" stroke-linejoin="round"/>
    <path d="M 106.43994903564453 119.91329193115234 C 107.93116760253906 181.9268798828125 78.8528823852539 198.9282684326172 110.9683837890625 193.35775756835938" stroke-width="3.0" fill="none" stroke="rgb(0, 0, 0)" stroke-opacity="1.0" stroke-linecap="round" stroke-linejoin="round"/>
    <path d="M 172.255126953125 80.48694610595703 C 177.5282440185547 -6.807856559753418 197.95399475097656 73.52880859375 198.8433380126953 54.51646423339844" stroke-width="3.0" fill="none" stroke="rgb(0, 0, 0)" stroke-opacity="1.0" stroke-linecap="round" stroke-linejoin="round"/>
    <path d="M 194.10609436035156 63.258453369140625 C 153.1678009033203 40.3577766418457 228.42591857910156 50.44290542602539 196.81033325195312 52.61526870727539" stroke-width="3.0" fill="none" stroke="rgb(0, 0, 0)" stroke-opacity="1.0" stroke-linecap="round" stroke-linejoin="round"/>
  </g>
</svg>
