<?xml version="1.0" ?>
<svg xmlns="http://www.w3.org/2000/svg" version="1.1" width="224" height="224">
  <defs/>
  <g>
    <path d="M 136.5637664794922 109.67169189453125 C 123.36376953125 96.48677062988281 151.4534149169922 140.9851531982422 117.09017181396484 70.12435150146484" stroke-width="3.0" fill="none" stroke="rgb(0, 0, 0)" stroke-opacity="1.0" stroke-linecap="round" stroke-linejoin="round"/>
    <path d="M 108.897705078125 91.5603256225586 C 112.4195327758789 100.43428802490234 102.95889282226562 103.71194458007812 110.06881713867188 113.71832275390625" stroke-width="3.0" fill="none" stroke="rgb(0, 0, 0)" stroke-opacity="1.0" stroke-linecap="round" stroke-linejoin="round"/>
    <path d="M 132.2338409423828 111.4605941772461 C 129.66461181640625 82.98857116699219 148.58517456054688 136.8642578125 185.89015197753906 71.3503646850586" stroke-width="3.0" fill="none" stroke="rgb(0, 0, 0)" stroke-opacity="1.0" stroke-linecap="round" stroke-linejoin="round"/>
    <path d="M 66.00516510009766 41.75783157348633 C 64.43045806884766 40.09642791748047 54.05891799926758 46.0656852722168 40.872554779052734 59.96128463745117" stroke-width="3.0" fill="none" stroke="rgb(0, 0, 0)" stroke-opacity="1.0" stroke-linecap="round" stroke-linejoin="round"/>
    <path d="M 132.9402618408203 83.61466979980469 C 106.26051330566406 40.25544738769531 112.92720031738281 66.1198501586914 93.824462890625 45.16398620605469" stroke-width="3.0" fill="none" stroke="rgb(0, 0, 0)" stroke-opacity="1.0" stroke-linecap="round" stroke-linejoin="round"/>
    <path d="M 68.45735168457031 112.02035522460938 C 34.90444564819336 82.48346710205078 58.98591232299805 103.815673828125 39.97745132446289 75.63417053222656" stroke-width="3.0" fill="none" stroke="rgb(0, 0, 0)" stroke-opacity="1.0" stroke-linecap="round" stroke-linejoin="round"/>
    <path d="M 185.64979553222656 57.34489822387695 C 171.39256286621094 36.29702377319336 193.8894805908203 51.92290115356445 188.16561889648438 78.31477355957031" stroke-width="3.0" fill="none" stroke="rgb(0, 0, 0)" stroke-opacity="1.0" stroke-linecap="round" stroke-linejoin="round"/>
    <path d="M 103.26177978515625 192.33583068847656 C 118.25856018066406 87.1692123413086 123.85675811767578 128.9393768310547 122.70397186279297 104.98029327392578" stroke-width="3.0" fill="none" stroke="rgb(0, 0, 0)" stroke-opacity="1.0" stroke-linecap="round" stroke-linejoin="round"/>
    <path d="M 47.149024963378906 101.3512954711914 C 24.061100006103516 174.67002868652344 12.141797065734863 123.2550277709961 42.970947265625 199.87237548828125" stroke-width="3.0" fill="none" stroke="rgb(0, 0, 0)" stroke-opacity="1.0" stroke-linecap="round" stroke-linejoin="round"/>
    <path d="M 66.5880355834961 40.75636672973633 C 99.20713806152344 17.865108489990234 160.24911499023438 136.163330078125 173.42762756347656 58.85498046875" stroke-width="3.0" fill="none" stroke="rgb(0, 0, 0)" stroke-opacity="1.0" stroke-linecap="round" stroke-linejoin="round"/>
    <path d="M 48.38791275024414 103.67939758300781 C 81.88481140136719 122.11653900146484 80.71438598632812 113.77059173583984 105.23514556884766 119.07090759277344" stroke-width="3.0" fill="none" stroke="rgb(0, 0, 0)" stroke-opacity="1.0" stroke-linecap="round" stroke-linejoin="round"/>
    <path d="M 23.07040786743164 139.31141662597656 C 15.649312019348145 85.23646545410156 2.4393577575683594 85.17166137695312 55.94822692871094 52.77593994140625" stroke-width="3.0" fill="none" stroke="rgb(0, 0, 0)" stroke-opacity="1.0" stroke-linecap="round" stroke-linejoin="round"/>
    <path d="M 172.6416473388672 87.62744140625 C 191.09547424316406 19.551753997802734 203.3173065185547 28.684406280517578 168.44508361816406 92.23088073730469" stroke-width="3.0" fill="none" stroke="rgb(0, 0, 0)" stroke-opacity="1.0" stroke-linecap="round" stroke-linejoin="round"/>
    <path d="M 105.63333892822266 117.54983520507812 C 109.03748321533203 182.7678985595703 78.4046859741211 194.89431762695312 106.56502532958984 190.62474060058594" stroke-width="3.0" fill="none" stroke="rgb(0, 0, 0)" stroke-opacity="1.0" stroke-linecap="round" stroke-linejoin="round"/>
    <path d="M 169.52410888671875 65.51605224609375 C 181.95675659179688 8.34141731262207 213.8203887939453 78.86567687988281 204.07733154296875 47.12875747680664" stroke-width="3.0" fill="none" stroke="rgb(0, 0, 0)" stroke-opacity="1.0" stroke-linecap="round" stroke-linejoin="round"/>
    <path d="M 191.00198364257812 64.00005340576172 C 150.03189086914062 41.41048812866211 256.8796081542969 47.00290298461914 193.45018005371094 60.28076171875" stroke-width="3.0" fill="none" stroke="rgb(0, 0, 0)" stroke-opacity="1.0" stroke-linecap="round" stroke-linejoin="round"/>
  </g>
</svg>
