<?xml version="1.0" ?>
<svg xmlns="http://www.w3.org/2000/svg" version="1.1" width="224" height="224">
  <defs/>
  <g>
    <path d="M 144.872314453125 104.8094482421875 C 116.21097564697266 79.93611145019531 169.07516479492188 137.20782470703125 122.28240203857422 75.00128173828125" stroke-width="3.0" fill="none" stroke="rgb(0, 0, 0)" stroke-opacity="1.0" stroke-linecap="round" stroke-linejoin="round"/>
    <path d="M 105.49137115478516 97.63558197021484 C 110.54861450195312 111.8231201171875 102.40729522705078 107.26156616210938 105.32875061035156 115.09313201904297" stroke-width="3.0" fill="none" stroke="rgb(0, 0, 0)" stroke-opacity="1.0" stroke-linecap="round" stroke-linejoin="round"/>
    <path d="M 137.1160125732422 105.89069366455078 C 132.8064422607422 65.79351806640625 136.92129516601562 138.42042541503906 182.231689453125 84.44012451171875" stroke-width="3.0" fill="none" stroke="rgb(0, 0, 0)" stroke-opacity="1.0" stroke-linecap="round" stroke-linejoin="round"/>
    <path d="M 63.51885986328125 41.0849723815918 C 63.815853118896484 40.09011459350586 56.67611312866211 45.04819107055664 60.66500473022461 42.15193176269531" stroke-width="3.0" fill="none" stroke="rgb(0, 0, 0)" stroke-opacity="1.0" stroke-linecap="round" stroke-linejoin="round"/>
    <path d="M 126.91891479492188 83.87271881103516 C 103.7833480834961 40.11479187011719 109.78189086914062 67.34191131591797 97.23563385009766 44.625099182128906" stroke-width="3.0" fill="none" stroke="rgb(0, 0, 0)" stroke-opacity="1.0" stroke-linecap="round" stroke-linejoin="round"/>
    <path d="M 67.02960205078125 112.86497497558594 C 33.938289642333984 76.86798858642578 57.668968200683594 93.0058364868164 38.87749481201172 70.22078704833984" stroke-width="3.0" fill="none" stroke="rgb(0, 0, 0)" stroke-opacity="1.0" stroke-linecap="round" stroke-linejoin="round"/>
    <path d="M 181.400146484375 46.5536003112793 C 189.12103271484375 36.4076042175293 187.7474822998047 45.9653434753418 189.25057983398438 80.34710693359375" stroke-width="3.0" fill="none" stroke="rgb(0, 0, 0)" stroke-opacity="1.0" stroke-linecap="round" stroke-linejoin="round"/>
    <path d="M 103.2883529663086 193.50213623046875 C 124.81144714355469 78.46871948242188 121.80369567871094 126.5385513305664 129.95799255371094 102.53063201904297" stroke-width="3.0" fill="none" stroke="rgb(0, 0, 0)" stroke-opacity="1.0" stroke-linecap="round" stroke-linejoin="round"/>
    <path d="M 46.846988677978516 101.07157897949219 C 25.40216064453125 182.38853454589844 15.904263496398926 130.07064819335938 41.35537338256836 199.52769470214844" stroke-width="3.0" fill="none" stroke="rgb(0, 0, 0)" stroke-opacity="1.0" stroke-linecap="round" stroke-linejoin="round"/>
    <path d="M 61.69039535522461 41.81673812866211 C 96.32633209228516 16.500080108642578 143.12380981445312 111.60810089111328 169.67320251464844 77.99738311767578" stroke-width="3.0" fill="none" stroke="rgb(0, 0, 0)" stroke-opacity="1.0" stroke-linecap="round" stroke-linejoin="round"/>
    <path d="M 48.59414291381836 103.03079986572266 C 77.90050506591797 121.73074340820312 82.4913330078125 113.91880798339844 105.43912506103516 119.20510864257812" stroke-width="3.0" fill="none" stroke="rgb(0, 0, 0)" stroke-opacity="1.0" stroke-linecap="round" stroke-linejoin="round"/>
    <path d="M 19.088176727294922 126.94161224365234 C 8.255590438842773 69.38007354736328 16.306720733642578 81.51099395751953 59.10756301879883 42.63487243652344" stroke-width="3.0" fill="none" stroke="rgb(0, 0, 0)" stroke-opacity="1.0" stroke-linecap="round" stroke-linejoin="round"/>
    <path d="M 163.9790802001953 81.5399398803711 C 195.29075622558594 34.45195388793945 203.0280303955078 49.6509895324707 174.01905822753906 92.22988891601562" stroke-width="3.0" fill="none" stroke="rgb(0, 0, 0)" stroke-opacity="1.0" stroke-linecap="round" stroke-linejoin="round"/>
    <path d="M 105.7708969116211 120.39144897460938 C 108.8603744506836 184.09071350097656 77.65033721923828 200.1212921142578 112.82867431640625 188.3724822998047" stroke-width="3.0" fill="none" stroke="rgb(0, 0, 0)" stroke-opacity="1.0" stroke-linecap="round" stroke-linejoin="round"/>
    <path d="M 171.3750457763672 78.46783447265625 C 173.75564575195312 -0.7419896125793457 211.860107421875 73.02413940429688 208.88885498046875 46.09476852416992" stroke-width="3.0" fill="none" stroke="rgb(0, 0, 0)" stroke-opacity="1.0" stroke-linecap="round" stroke-linejoin="round"/>
    <path d="M 197.676513671875 59.90445327758789 C 152.65313720703125 37.22797775268555 255.58926391601562 46.782203674316406 200.3717498779297 57.152183532714844" stroke-width="3.0" fill="none" stroke="rgb(0, 0, 0)" stroke-opacity="1.0" stroke-linecap="round" stroke-linejoin="round"/>
  </g>
</svg>
