<?xml version="1.0" ?>
<svg xmlns="http://www.w3.org/2000/svg" version="1.1" width="224" height="224">
  <defs/>
  <g>
    <path d="M 139.0274658203125 105.43881225585938 C 121.1529541015625 92.56659698486328 154.20751953125 136.531494140625 115.41184997558594 64.35645294189453" stroke-width="3.0" fill="none" stroke="rgb(0, 0, 0)" stroke-opacity="1.0" stroke-linecap="round" stroke-linejoin="round"/>
    <path d="M 108.71844482421875 93.31858825683594 C 111.33169555664062 100.87472534179688 102.99208068847656 99.0560073852539 109.7860107421875 111.6760482788086" stroke-width="3.0" fill="none" stroke="rgb(0, 0, 0)" stroke-opacity="1.0" stroke-linecap="round" stroke-linejoin="round"/>
    <path d="M 131.80642700195312 108.39533996582031 C 130.31849670410156 84.04753875732422 149.49057006835938 134.66934204101562 184.69212341308594 76.62196350097656" stroke-width="3.0" fill="none" stroke="rgb(0, 0, 0)" stroke-opacity="1.0" stroke-linecap="round" stroke-linejoin="round"/>
    <path d="M 69.14318084716797 39.591060638427734 C 63.9726448059082 39.104209899902344 52.9770622253418 46.41563415527344 48.778472900390625 52.130069732666016" stroke-width="3.0" fill="none" stroke="rgb(0, 0, 0)" stroke-opacity="1.0" stroke-linecap="round" stroke-linejoin="round"/>
    <path d="M 135.62649536132812 82.70950317382812 C 109.2970962524414 39.64332580566406 111.36283874511719 65.98038482666016 97.47677612304688 45.87794876098633" stroke-width="3.0" fill="none" stroke="rgb(0, 0, 0)" stroke-opacity="1.0" stroke-linecap="round" stroke-linejoin="round"/>
    <path d="M 69.53173828125 113.1695556640625 C 38.0330810546875 83.26917266845703 62.723751068115234 104.27540588378906 43.183170318603516 76.1553955078125" stroke-width="3.0" fill="none" stroke="rgb(0, 0, 0)" stroke-opacity="1.0" stroke-linecap="round" stroke-linejoin="round"/>
    <path d="M 183.42950439453125 62.64786911010742 C 174.80999755859375 36.777069091796875 191.99400329589844 48.279476165771484 187.44406127929688 79.31361389160156" stroke-width="3.0" fill="none" stroke="rgb(0, 0, 0)" stroke-opacity="1.0" stroke-linecap="round" stroke-linejoin="round"/>
    <path d="M 103.40222930908203 190.4579620361328 C 121.99723052978516 85.59764099121094 122.7238998413086 134.11497497558594 124.50132751464844 103.47529602050781" stroke-width="3.0" fill="none" stroke="rgb(0, 0, 0)" stroke-opacity="1.0" stroke-linecap="round" stroke-linejoin="round"/>
    <path d="M 47.060386657714844 103.45519256591797 C 25.54384422302246 174.39662170410156 11.881377220153809 128.06007385253906 41.0524787902832 199.81930541992188" stroke-width="3.0" fill="none" stroke="rgb(0, 0, 0)" stroke-opacity="1.0" stroke-linecap="round" stroke-linejoin="round"/>
    <path d="M 67.19629669189453 39.47218704223633 C 97.71881866455078 16.74745750427246 158.4418487548828 132.24826049804688 171.80128479003906 59.24254608154297" stroke-width="3.0" fill="none" stroke="rgb(0, 0, 0)" stroke-opacity="1.0" stroke-linecap="round" stroke-linejoin="round"/>
    <path d="M 50.90436553955078 105.14723205566406 C 86.93525695800781 122.37284851074219 81.9718246459961 111.88378143310547 107.98110961914062 116.61447143554688" stroke-width="3.0" fill="none" stroke="rgb(0, 0, 0)" stroke-opacity="1.0" stroke-linecap="round" stroke-linejoin="round"/>
    <path d="M 22.553321838378906 137.08416748046875 C 13.21153450012207 72.9614028930664 5.096232891082764 88.85276794433594 54.20014953613281 46.90008544921875" stroke-width="3.0" fill="none" stroke="rgb(0, 0, 0)" stroke-opacity="1.0" stroke-linecap="round" stroke-linejoin="round"/>
    <path d="M 175.3923797607422 86.42725372314453 C 199.63153076171875 22.470731735229492 206.67942810058594 28.83191680908203 171.13034057617188 92.11023712158203" stroke-width="3.0" fill="none" stroke="rgb(0, 0, 0)" stroke-opacity="1.0" stroke-linecap="round" stroke-linejoin="round"/>
    <path d="M 105.79296112060547 114.70307922363281 C 108.31656646728516 185.927001953125 79.97037506103516 194.3837432861328 109.01177978515625 193.72120666503906" stroke-width="3.0" fill="none" stroke="rgb(0, 0, 0)" stroke-opacity="1.0" stroke-linecap="round" stroke-linejoin="round"/>
    <path d="M 171.52090454101562 71.67963409423828 C 180.56614685058594 5.121922016143799 217.63870239257812 74.49687957763672 208.02561950683594 50.79276657104492" stroke-width="3.0" fill="none" stroke="rgb(0, 0, 0)" stroke-opacity="1.0" stroke-linecap="round" stroke-linejoin="round"/>
    <path d="M 192.91282653808594 64.52964782714844 C 152.3231964111328 42.51552963256836 262.5013427734375 47.23509216308594 197.8538055419922 59.904579162597656" stroke-width="3.0" fill="none" stroke="rgb(0, 0, 0)" stroke-opacity="1.0" stroke-linecap="round" stroke-linejoin="round"/>
  </g>
</svg>
