<?xml version="1.0" ?>
<svg xmlns="http://www.w3.org/2000/svg" version="1.1" width="224" height="224">
  <defs/>
  <g>
    <path d="M 139.628173828125 105.98126983642578 C 123.27108764648438 89.79280090332031 155.16514587402344 138.45770263671875 119.33787536621094 67.17012023925781" stroke-width="3.0" fill="none" stroke="rgb(0, 0, 0)" stroke-opacity="1.0" stroke-linecap="round" stroke-linejoin="round"/>
    <path d="M 106.06816101074219 97.22797393798828 C 106.61959075927734 99.7317123413086 101.32617950439453 103.4341049194336 107.32648468017578 113.28067779541016" stroke-width="3.0" fill="none" stroke="rgb(0, 0, 0)" stroke-opacity="1.0" stroke-linecap="round" stroke-linejoin="round"/>
    <path d="M 132.23565673828125 107.54231262207031 C 130.11988830566406 82.00764465332031 142.6354217529297 134.26602172851562 187.44163513183594 78.90763092041016" stroke-width="3.0" fill="none" stroke="rgb(0, 0, 0)" stroke-opacity="1.0" stroke-linecap="round" stroke-linejoin="round"/>
    <path d="M 71.82001495361328 38.96466827392578 C 64.81034851074219 38.245330810546875 56.35078430175781 45.59634780883789 55.401397705078125 45.41437530517578" stroke-width="3.0" fill="none" stroke="rgb(0, 0, 0)" stroke-opacity="1.0" stroke-linecap="round" stroke-linejoin="round"/>
    <path d="M 137.46267700195312 82.50474548339844 C 109.27046966552734 37.92545700073242 112.2183837890625 65.52894592285156 92.10589599609375 43.920509338378906" stroke-width="3.0" fill="none" stroke="rgb(0, 0, 0)" stroke-opacity="1.0" stroke-linecap="round" stroke-linejoin="round"/>
    <path d="M 68.64898681640625 110.4609375 C 36.13071060180664 76.90275573730469 62.03221130371094 96.75955200195312 40.20689392089844 71.1311264038086" stroke-width="3.0" fill="none" stroke="rgb(0, 0, 0)" stroke-opacity="1.0" stroke-linecap="round" stroke-linejoin="round"/>
    <path d="M 181.23448181152344 65.15571594238281 C 175.65158081054688 35.90048599243164 190.15728759765625 53.08936309814453 186.30252075195312 77.98114776611328" stroke-width="3.0" fill="none" stroke="rgb(0, 0, 0)" stroke-opacity="1.0" stroke-linecap="round" stroke-linejoin="round"/>
    <path d="M 106.1819076538086 196.6453857421875 C 120.49626922607422 82.86365509033203 123.49606323242188 128.92222595214844 125.69722747802734 102.91780853271484" stroke-width="3.0" fill="none" stroke="rgb(0, 0, 0)" stroke-opacity="1.0" stroke-linecap="round" stroke-linejoin="round"/>
    <path d="M 46.18721008300781 104.45018005371094 C 25.88833236694336 178.2095184326172 17.864646911621094 124.91995239257812 41.496490478515625 199.90476989746094" stroke-width="3.0" fill="none" stroke="rgb(0, 0, 0)" stroke-opacity="1.0" stroke-linecap="round" stroke-linejoin="round"/>
    <path d="M 64.09800720214844 40.33828353881836 C 99.03358459472656 15.602107048034668 156.37283325195312 128.35641479492188 171.59327697753906 66.9295883178711" stroke-width="3.0" fill="none" stroke="rgb(0, 0, 0)" stroke-opacity="1.0" stroke-linecap="round" stroke-linejoin="round"/>
    <path d="M 44.57605743408203 102.26546478271484 C 83.56848907470703 120.70275115966797 81.22032165527344 112.70433807373047 102.95877075195312 118.8912124633789" stroke-width="3.0" fill="none" stroke="rgb(0, 0, 0)" stroke-opacity="1.0" stroke-linecap="round" stroke-linejoin="round"/>
    <path d="M 20.101139068603516 136.2412109375 C 12.811744689941406 68.78726196289062 11.264311790466309 87.59058380126953 56.142486572265625 45.30104446411133" stroke-width="3.0" fill="none" stroke="rgb(0, 0, 0)" stroke-opacity="1.0" stroke-linecap="round" stroke-linejoin="round"/>
    <path d="M 177.84765625 86.50431060791016 C 200.90542602539062 26.103214263916016 196.3064422607422 23.32518768310547 170.32125854492188 90.74732208251953" stroke-width="3.0" fill="none" stroke="rgb(0, 0, 0)" stroke-opacity="1.0" stroke-linecap="round" stroke-linejoin="round"/>
    <path d="M 104.32937622070312 117.54509735107422 C 109.49691009521484 185.81683349609375 74.75198364257812 209.1408233642578 110.8893814086914 191.139404296875" stroke-width="3.0" fill="none" stroke="rgb(0, 0, 0)" stroke-opacity="1.0" stroke-linecap="round" stroke-linejoin="round"/>
    <path d="M 172.6480712890625 71.53274536132812 C 179.63232421875 4.808849334716797 219.79486083984375 77.68704223632812 207.6542205810547 48.0848503112793" stroke-width="3.0" fill="none" stroke="rgb(0, 0, 0)" stroke-opacity="1.0" stroke-linecap="round" stroke-linejoin="round"/>
    <path d="M 188.7003631591797 59.81147003173828 C 153.57952880859375 45.884273529052734 259.5872802734375 47.05604934692383 196.74607849121094 60.10871887207031" stroke-width="3.0" fill="none" stroke="rgb(0, 0, 0)" stroke-opacity="1.0" stroke-linecap="round" stroke-linejoin="round"/>
  </g>
</svg>
