<?xml version="1.0" ?>
<svg xmlns="http://www.w3.org/2000/svg" version="1.1" width="224" height="224">
  <defs/>
  <g>
    <path d="M 151.520263671875 103.26321411132812 C 118.70308685302734 79.70954132080078 177.8336181640625 133.78482055664062 123.48888397216797 71.74321746826172" stroke-width="3.0" fill="none" stroke="rgb(0, 0, 0)" stroke-opacity="1.0" stroke-linecap="round" stroke-linejoin="round"/>
    <path d="M 108.84609985351562 91.92387390136719 C 111.97869110107422 106.84967041015625 101.88933563232422 106.99775695800781 106.26548767089844 115.22281646728516" stroke-width="3.0" fill="none" stroke="rgb(0, 0, 0)" stroke-opacity="1.0" stroke-linecap="round" stroke-linejoin="round"/>
    <path d="M 140.11473083496094 104.3468017578125 C 141.49456787109375 66.5744857788086 132.35064697265625 138.24920654296875 182.60670471191406 82.69547271728516" stroke-width="3.0" fill="none" stroke="rgb(0, 0, 0)" stroke-opacity="1.0" stroke-linecap="round" stroke-linejoin="round"/>
    <path d="M 63.508426666259766 42.33056640625 C 64.43514251708984 41.615840911865234 56.661163330078125 44.44462203979492 64.19722747802734 41.81361389160156" stroke-width="3.0" fill="none" stroke="rgb(0, 0, 0)" stroke-opacity="1.0" stroke-linecap="round" stroke-linejoin="round"/>
    <path d="M 130.05288696289062 84.96070861816406 C 106.72166442871094 41.79312515258789 111.48164367675781 66.47725677490234 94.44388580322266 43.99583435058594" stroke-width="3.0" fill="none" stroke="rgb(0, 0, 0)" stroke-opacity="1.0" stroke-linecap="round" stroke-linejoin="round"/>
    <path d="M 68.54594421386719 110.19019317626953 C 41.126976013183594 71.65498352050781 58.303672790527344 91.0240707397461 47.16828918457031 65.66340637207031" stroke-width="3.0" fill="none" stroke="rgb(0, 0, 0)" stroke-opacity="1.0" stroke-linecap="round" stroke-linejoin="round"/>
    <path d="M 185.1816864013672 44.36837387084961 C 189.12786865234375 41.4138298034668 193.77337646484375 47.13202667236328 188.27374267578125 81.07843017578125" stroke-width="3.0" fill="none" stroke="rgb(0, 0, 0)" stroke-opacity="1.0" stroke-linecap="round" stroke-linejoin="round"/>
    <path d="M 101.8812026977539 193.51499938964844 C 121.18485260009766 81.70281219482422 123.15840911865234 123.44998168945312 133.3345489501953 104.17996215820312" stroke-width="3.0" fill="none" stroke="rgb(0, 0, 0)" stroke-opacity="1.0" stroke-linecap="round" stroke-linejoin="round"/>
    <path d="M 47.24318313598633 96.6107406616211 C 22.935693740844727 182.8304901123047 14.690483093261719 124.74102020263672 41.03691864013672 197.98403930664062" stroke-width="3.0" fill="none" stroke="rgb(0, 0, 0)" stroke-opacity="1.0" stroke-linecap="round" stroke-linejoin="round"/>
    <path d="M 62.13621139526367 42.66930389404297 C 95.78662872314453 17.000722885131836 143.77236938476562 110.34969329833984 168.2147979736328 79.8924789428711" stroke-width="3.0" fill="none" stroke="rgb(0, 0, 0)" stroke-opacity="1.0" stroke-linecap="round" stroke-linejoin="round"/>
    <path d="M 51.93980026245117 96.07693481445312 C 73.34638214111328 124.09503936767578 84.02125549316406 116.02529907226562 105.5275650024414 119.08252716064453" stroke-width="3.0" fill="none" stroke="rgb(0, 0, 0)" stroke-opacity="1.0" stroke-linecap="round" stroke-linejoin="round"/>
    <path d="M 20.404361724853516 132.2987060546875 C 7.771706581115723 67.766357421875 16.863523483276367 80.58050537109375 59.238800048828125 43.552337646484375" stroke-width="3.0" fill="none" stroke="rgb(0, 0, 0)" stroke-opacity="1.0" stroke-linecap="round" stroke-linejoin="round"/>
    <path d="M 166.89376831054688 81.35160064697266 C 194.52700805664062 35.72673034667969 196.7091522216797 46.97357940673828 174.38673400878906 90.79572296142578" stroke-width="3.0" fill="none" stroke="rgb(0, 0, 0)" stroke-opacity="1.0" stroke-linecap="round" stroke-linejoin="round"/>
    <path d="M 105.57474517822266 119.2839126586914 C 110.05555725097656 180.0270233154297 76.27066040039062 198.39149475097656 111.14061737060547 190.0120849609375" stroke-width="3.0" fill="none" stroke="rgb(0, 0, 0)" stroke-opacity="1.0" stroke-linecap="round" stroke-linejoin="round"/>
    <path d="M 171.9678192138672 77.19043731689453 C 175.7409210205078 -1.6173367500305176 216.8341522216797 72.95904541015625 207.70338439941406 48.22877883911133" stroke-width="3.0" fill="none" stroke="rgb(0, 0, 0)" stroke-opacity="1.0" stroke-linecap="round" stroke-linejoin="round"/>
    <path d="M 198.18673706054688 58.60966491699219 C 148.34828186035156 39.8823127746582 260.1085205078125 46.46070098876953 199.98568725585938 56.74400329589844" stroke-width="3.0" fill="none" stroke="rgb(0, 0, 0)" stroke-opacity="1.0" stroke-linecap="round" stroke-linejoin="round"/>
  </g>
</svg>
