<?xml version="1.0" ?>
<svg xmlns="http://www.w3.org/2000/svg" version="1.1" width="224" height="224">
  <defs/>
  <g>
    <path d="M 138.6041259765625 106.6474380493164 C 120.27525329589844 93.60014343261719 151.51795959472656 138.36642456054688 114.40276336669922 64.84037780761719" stroke-width="3.0" fill="none" stroke="rgb(0, 0, 0)" stroke-opacity="1.0" stroke-linecap="round" stroke-linejoin="round"/>
    <path d="M 108.92030334472656 91.77900695800781 C 111.42073822021484 102.92682647705078 103.42437744140625 102.02874755859375 109.62939453125 111.85831451416016" stroke-width="3.0" fill="none" stroke="rgb(0, 0, 0)" stroke-opacity="1.0" stroke-linecap="round" stroke-linejoin="round"/>
    <path d="M 128.9098358154297 107.19412231445312 C 128.2118377685547 82.3961410522461 148.2798309326172 134.58197021484375 184.29037475585938 77.77603149414062" stroke-width="3.0" fill="none" stroke="rgb(0, 0, 0)" stroke-opacity="1.0" stroke-linecap="round" stroke-linejoin="round"/>
    <path d="M 68.76361083984375 38.63776779174805 C 64.12627410888672 39.04531478881836 53.40878677368164 46.810489654541016 49.45269775390625 51.797950744628906" stroke-width="3.0" fill="none" stroke="rgb(0, 0, 0)" stroke-opacity="1.0" stroke-linecap="round" stroke-linejoin="round"/>
    <path d="M 134.42588806152344 82.7638931274414 C 109.67591094970703 39.21382522583008 110.26919555664062 66.93852996826172 97.9428482055664 46.2806396484375" stroke-width="3.0" fill="none" stroke="rgb(0, 0, 0)" stroke-opacity="1.0" stroke-linecap="round" stroke-linejoin="round"/>
    <path d="M 69.22941589355469 114.3755111694336 C 38.20301055908203 82.22416687011719 63.14820861816406 102.67400360107422 44.00064468383789 76.02581024169922" stroke-width="3.0" fill="none" stroke="rgb(0, 0, 0)" stroke-opacity="1.0" stroke-linecap="round" stroke-linejoin="round"/>
    <path d="M 185.42503356933594 61.45463562011719 C 175.5633544921875 35.65266799926758 191.93846130371094 48.11634063720703 187.52134704589844 82.81581115722656" stroke-width="3.0" fill="none" stroke="rgb(0, 0, 0)" stroke-opacity="1.0" stroke-linecap="round" stroke-linejoin="round"/>
    <path d="M 102.0489273071289 188.4283905029297 C 120.9683609008789 86.15020751953125 120.49544525146484 133.55821228027344 124.14704132080078 101.62699127197266" stroke-width="3.0" fill="none" stroke="rgb(0, 0, 0)" stroke-opacity="1.0" stroke-linecap="round" stroke-linejoin="round"/>
    <path d="M 48.12077331542969 104.36245727539062 C 26.266992568969727 172.6876983642578 14.993648529052734 127.15713500976562 41.45442581176758 199.969482421875" stroke-width="3.0" fill="none" stroke="rgb(0, 0, 0)" stroke-opacity="1.0" stroke-linecap="round" stroke-linejoin="round"/>
    <path d="M 65.94755554199219 39.8028450012207 C 97.68309020996094 17.67024803161621 160.00038146972656 131.16152954101562 173.95204162597656 60.28659439086914" stroke-width="3.0" fill="none" stroke="rgb(0, 0, 0)" stroke-opacity="1.0" stroke-linecap="round" stroke-linejoin="round"/>
    <path d="M 50.10036849975586 105.50341796875 C 86.53422546386719 122.95265197753906 82.58588409423828 112.87295532226562 105.98603057861328 117.46790313720703" stroke-width="3.0" fill="none" stroke="rgb(0, 0, 0)" stroke-opacity="1.0" stroke-linecap="round" stroke-linejoin="round"/>
    <path d="M 23.140947341918945 136.85057067871094 C 14.41305923461914 71.71945190429688 6.147695064544678 88.05621337890625 54.664947509765625 47.075435638427734" stroke-width="3.0" fill="none" stroke="rgb(0, 0, 0)" stroke-opacity="1.0" stroke-linecap="round" stroke-linejoin="round"/>
    <path d="M 174.63143920898438 86.1288833618164 C 200.07574462890625 22.648746490478516 206.7179412841797 28.735855102539062 170.92279052734375 92.81560516357422" stroke-width="3.0" fill="none" stroke="rgb(0, 0, 0)" stroke-opacity="1.0" stroke-linecap="round" stroke-linejoin="round"/>
    <path d="M 106.4202651977539 116.33354949951172 C 109.19620513916016 184.64688110351562 79.35838317871094 194.65859985351562 109.03565979003906 192.46017456054688" stroke-width="3.0" fill="none" stroke="rgb(0, 0, 0)" stroke-opacity="1.0" stroke-linecap="round" stroke-linejoin="round"/>
    <path d="M 170.7694091796875 71.37627410888672 C 180.8756561279297 5.109584331512451 218.17340087890625 74.56226348876953 209.91790771484375 50.55995559692383" stroke-width="3.0" fill="none" stroke="rgb(0, 0, 0)" stroke-opacity="1.0" stroke-linecap="round" stroke-linejoin="round"/>
    <path d="M 194.61260986328125 63.57574462890625 C 151.2506561279297 42.30977249145508 262.0263671875 47.38821792602539 197.52032470703125 60.37362289428711" stroke-width="3.0" fill="none" stroke="rgb(0, 0, 0)" stroke-opacity="1.0" stroke-linecap="round" stroke-linejoin="round"/>
  </g>
</svg>
