<?xml version="1.0" ?>
<svg xmlns="http://www.w3.org/2000/svg" version="1.1" width="224" height="224">
  <defs/>
  <g>
    <path d="M 147.689453125 104.4207992553711 C 130.98385620117188 88.14686584472656 145.97581481933594 80.14168548583984 139.36666870117188 89.79517364501953" stroke-width="3.0" fill="none" stroke="rgb(0, 0, 0)" stroke-opacity="1.0" stroke-linecap="round" stroke-linejoin="round"/>
    <path d="M 105.34932708740234 94.24032592773438 C 105.56171417236328 99.33201599121094 102.31280517578125 100.32148742675781 108.51710510253906 109.64229583740234" stroke-width="3.0" fill="none" stroke="rgb(0, 0, 0)" stroke-opacity="1.0" stroke-linecap="round" stroke-linejoin="round"/>
    <path d="M 130.26675415039062 108.4853744506836 C 155.38853454589844 91.60346221923828 120.5552749633789 96.83920288085938 161.4219512939453 103.38309478759766" stroke-width="3.0" fill="none" stroke="rgb(0, 0, 0)" stroke-opacity="1.0" stroke-linecap="round" stroke-linejoin="round"/>
    <path d="M 59.211875915527344 44.77787399291992 C 50.5443115234375 47.453521728515625 33.00825500488281 73.98106384277344 47.12405776977539 58.2850456237793" stroke-width="3.0" fill="none" stroke="rgb(0, 0, 0)" stroke-opacity="1.0" stroke-linecap="round" stroke-linejoin="round"/>
    <path d="M 103.94892883300781 52.02558135986328 C 119.30777740478516 53.50556182861328 103.87531280517578 55.069766998291016 99.25115203857422 44.984619140625" stroke-width="3.0" fill="none" stroke="rgb(0, 0, 0)" stroke-opacity="1.0" stroke-linecap="round" stroke-linejoin="round"/>
    <path d="M 74.50433349609375 110.35901641845703 C 53.64921188354492 93.59674835205078 58.51314163208008 87.2264633178711 45.69953155517578 80.51961517333984" stroke-width="3.0" fill="none" stroke="rgb(0, 0, 0)" stroke-opacity="1.0" stroke-linecap="round" stroke-linejoin="round"/>
    <path d="M 182.34292602539062 47.346614837646484 C 179.3330535888672 63.81741714477539 202.52235412597656 64.93457794189453 170.02890014648438 84.5641860961914" stroke-width="3.0" fill="none" stroke="rgb(0, 0, 0)" stroke-opacity="1.0" stroke-linecap="round" stroke-linejoin="round"/>
    <path d="M 111.0938720703125 150.29551696777344 C 123.78849029541016 90.50035858154297 119.45337677001953 125.94319915771484 127.98432922363281 100.84082794189453" stroke-width="3.0" fill="none" stroke="rgb(0, 0, 0)" stroke-opacity="1.0" stroke-linecap="round" stroke-linejoin="round"/>
    <path d="M 45.830928802490234 92.27738952636719 C 25.21200180053711 184.2576446533203 18.418800354003906 124.09504699707031 40.58769607543945 199.09666442871094" stroke-width="3.0" fill="none" stroke="rgb(0, 0, 0)" stroke-opacity="1.0" stroke-linecap="round" stroke-linejoin="round"/>
    <path d="M 59.05253982543945 44.95998001098633 C 87.50579833984375 11.675239562988281 130.3251953125 87.55487823486328 156.7346649169922 82.7898178100586" stroke-width="3.0" fill="none" stroke="rgb(0, 0, 0)" stroke-opacity="1.0" stroke-linecap="round" stroke-linejoin="round"/>
    <path d="M 47.99198913574219 99.17709350585938 C 94.5988540649414 126.84013366699219 87.38074493408203 111.77819061279297 102.7230224609375 114.88471221923828" stroke-width="3.0" fill="none" stroke="rgb(0, 0, 0)" stroke-opacity="1.0" stroke-linecap="round" stroke-linejoin="round"/>
    <path d="M 40.471492767333984 85.71597290039062 C 36.93789291381836 67.20951080322266 26.978187561035156 62.90943145751953 29.404529571533203 64.11532592773438" stroke-width="3.0" fill="none" stroke="rgb(0, 0, 0)" stroke-opacity="1.0" stroke-linecap="round" stroke-linejoin="round"/>
    <path d="M 150.27037048339844 81.66072845458984 C 215.92849731445312 66.95764923095703 167.52308654785156 78.82329559326172 172.46812438964844 100.3328857421875" stroke-width="3.0" fill="none" stroke="rgb(0, 0, 0)" stroke-opacity="1.0" stroke-linecap="round" stroke-linejoin="round"/>
    <path d="M 107.00859832763672 115.4731216430664 C 110.93484497070312 167.08758544921875 81.3052978515625 198.82369995117188 110.9854507446289 192.71824645996094" stroke-width="3.0" fill="none" stroke="rgb(0, 0, 0)" stroke-opacity="1.0" stroke-linecap="round" stroke-linejoin="round"/>
    <path d="M 173.18695068359375 75.24246215820312 C 184.73760986328125 1.5030821561813354 180.81048583984375 63.86687088012695 208.67308044433594 48.723602294921875" stroke-width="3.0" fill="none" stroke="rgb(0, 0, 0)" stroke-opacity="1.0" stroke-linecap="round" stroke-linejoin="round"/>
    <path d="M 201.14266967773438 66.3161392211914 C 157.57684326171875 39.014949798583984 215.57093811035156 40.438148498535156 205.15269470214844 58.33490753173828" stroke-width="3.0" fill="none" stroke="rgb(0, 0, 0)" stroke-opacity="1.0" stroke-linecap="round" stroke-linejoin="round"/>
  </g>
</svg>
