<?xml version="1.0" ?>
<svg xmlns="http://www.w3.org/2000/svg" version="1.1" width="224" height="224">
  <defs/>
  <g>
    <path d="M 137.8815460205078 108.13067626953125 C 121.12616729736328 91.23844146728516 151.7916717529297 142.5481414794922 119.27804565429688 71.38054656982422" stroke-width="3.0" fill="none" stroke="rgb(0, 0, 0)" stroke-opacity="1.0" stroke-linecap="round" stroke-linejoin="round"/>
    <path d="M 105.82801818847656 95.63967895507812 C 109.02741241455078 100.59701538085938 100.59980010986328 105.614990234375 105.38553619384766 113.94474792480469" stroke-width="3.0" fill="none" stroke="rgb(0, 0, 0)" stroke-opacity="1.0" stroke-linecap="round" stroke-linejoin="round"/>
    <path d="M 131.76351928710938 111.86898803710938 C 129.2637939453125 83.0342788696289 137.1100616455078 131.5901336669922 183.28773498535156 85.27619171142578" stroke-width="3.0" fill="none" stroke="rgb(0, 0, 0)" stroke-opacity="1.0" stroke-linecap="round" stroke-linejoin="round"/>
    <path d="M 66.4546127319336 43.20684814453125 C 64.5157470703125 41.89056396484375 57.19071578979492 47.93798828125 61.001285552978516 44.68213653564453" stroke-width="3.0" fill="none" stroke="rgb(0, 0, 0)" stroke-opacity="1.0" stroke-linecap="round" stroke-linejoin="round"/>
    <path d="M 134.5724334716797 83.4450454711914 C 106.66600036621094 39.995452880859375 117.44973754882812 67.93309020996094 96.40145874023438 45.11907958984375" stroke-width="3.0" fill="none" stroke="rgb(0, 0, 0)" stroke-opacity="1.0" stroke-linecap="round" stroke-linejoin="round"/>
    <path d="M 63.47406768798828 109.34257507324219 C 37.2913703918457 82.58087158203125 59.24601745605469 94.2547607421875 39.825374603271484 69.6937255859375" stroke-width="3.0" fill="none" stroke="rgb(0, 0, 0)" stroke-opacity="1.0" stroke-linecap="round" stroke-linejoin="round"/>
    <path d="M 184.1517791748047 62.787696838378906 C 169.58291625976562 27.579622268676758 195.70680236816406 51.13480758666992 187.12576293945312 81.1830062866211" stroke-width="3.0" fill="none" stroke="rgb(0, 0, 0)" stroke-opacity="1.0" stroke-linecap="round" stroke-linejoin="round"/>
    <path d="M 103.82174682617188 194.8948211669922 C 120.85868072509766 83.75103759765625 126.98391723632812 128.1044921875 124.62979125976562 101.42607116699219" stroke-width="3.0" fill="none" stroke="rgb(0, 0, 0)" stroke-opacity="1.0" stroke-linecap="round" stroke-linejoin="round"/>
    <path d="M 45.41117477416992 98.07902526855469 C 23.395612716674805 169.95797729492188 15.493228912353516 125.3843002319336 39.39976119995117 200.0053253173828" stroke-width="3.0" fill="none" stroke="rgb(0, 0, 0)" stroke-opacity="1.0" stroke-linecap="round" stroke-linejoin="round"/>
    <path d="M 65.46454620361328 41.71489715576172 C 94.9095687866211 17.128921508789062 153.5220947265625 117.10879516601562 167.8959503173828 71.92749786376953" stroke-width="3.0" fill="none" stroke="rgb(0, 0, 0)" stroke-opacity="1.0" stroke-linecap="round" stroke-linejoin="round"/>
    <path d="M 47.05615234375 102.49966430664062 C 83.98961639404297 121.49317169189453 80.0870361328125 113.37084197998047 105.2350082397461 117.20047760009766" stroke-width="3.0" fill="none" stroke="rgb(0, 0, 0)" stroke-opacity="1.0" stroke-linecap="round" stroke-linejoin="round"/>
    <path d="M 17.225727081298828 132.78353881835938 C 12.662259101867676 69.85895538330078 13.941224098205566 84.80313873291016 58.93186569213867 46.3721809387207" stroke-width="3.0" fill="none" stroke="rgb(0, 0, 0)" stroke-opacity="1.0" stroke-linecap="round" stroke-linejoin="round"/>
    <path d="M 177.28106689453125 86.0718765258789 C 193.4958953857422 24.1870059967041 203.54507446289062 29.508939743041992 171.28457641601562 94.49494934082031" stroke-width="3.0" fill="none" stroke="rgb(0, 0, 0)" stroke-opacity="1.0" stroke-linecap="round" stroke-linejoin="round"/>
    <path d="M 105.40550994873047 118.38340759277344 C 109.24826049804688 183.31585693359375 79.80377197265625 202.38919067382812 109.49600219726562 190.50514221191406" stroke-width="3.0" fill="none" stroke="rgb(0, 0, 0)" stroke-opacity="1.0" stroke-linecap="round" stroke-linejoin="round"/>
    <path d="M 169.41140747070312 69.2530517578125 C 175.42079162597656 7.206521987915039 215.23016357421875 78.23121643066406 207.67828369140625 48.51427459716797" stroke-width="3.0" fill="none" stroke="rgb(0, 0, 0)" stroke-opacity="1.0" stroke-linecap="round" stroke-linejoin="round"/>
    <path d="M 190.98146057128906 64.85674285888672 C 155.8994598388672 45.96605682373047 257.092529296875 46.52834701538086 195.13784790039062 60.00242233276367" stroke-width="3.0" fill="none" stroke="rgb(0, 0, 0)" stroke-opacity="1.0" stroke-linecap="round" stroke-linejoin="round"/>
  </g>
</svg>
