<?xml version="1.0" ?>
<svg xmlns="http://www.w3.org/2000/svg" version="1.1" width="224" height="224">
  <defs/>
  <g>
    <path d="M 152.89353942871094 100.9818344116211 C 119.041015625 83.26742553710938 179.9081573486328 127.61325073242188 122.97857666015625 74.66442108154297" stroke-width="3.0" fill="none" stroke="rgb(0, 0, 0)" stroke-opacity="1.0" stroke-linecap="round" stroke-linejoin="round"/>
    <path d="M 107.39574432373047 98.91514587402344 C 104.08561706542969 109.33411407470703 101.78035736083984 100.50458526611328 106.2878189086914 114.44235229492188" stroke-width="3.0" fill="none" stroke="rgb(0, 0, 0)" stroke-opacity="1.0" stroke-linecap="round" stroke-linejoin="round"/>
    <path d="M 140.00975036621094 103.85690307617188 C 142.74928283691406 65.26224517822266 124.6724624633789 126.99052429199219 175.60487365722656 89.95671081542969" stroke-width="3.0" fill="none" stroke="rgb(0, 0, 0)" stroke-opacity="1.0" stroke-linecap="round" stroke-linejoin="round"/>
    <path d="M 60.62953186035156 42.76548385620117 C 62.875572204589844 41.959232330322266 55.32529830932617 46.294921875 62.048675537109375 41.75066375732422" stroke-width="3.0" fill="none" stroke="rgb(0, 0, 0)" stroke-opacity="1.0" stroke-linecap="round" stroke-linejoin="round"/>
    <path d="M 128.0914306640625 82.51863861083984 C 112.75643920898438 46.421417236328125 111.53048706054688 65.41476440429688 99.1026382446289 47.285404205322266" stroke-width="3.0" fill="none" stroke="rgb(0, 0, 0)" stroke-opacity="1.0" stroke-linecap="round" stroke-linejoin="round"/>
    <path d="M 69.89295959472656 112.64938354492188 C 42.30290222167969 78.71077728271484 59.84598922729492 87.06463623046875 48.687522888183594 64.32608795166016" stroke-width="3.0" fill="none" stroke="rgb(0, 0, 0)" stroke-opacity="1.0" stroke-linecap="round" stroke-linejoin="round"/>
    <path d="M 181.9205322265625 38.603431701660156 C 182.9046630859375 44.36301040649414 192.70687866210938 48.45589065551758 174.60630798339844 76.39038848876953" stroke-width="3.0" fill="none" stroke="rgb(0, 0, 0)" stroke-opacity="1.0" stroke-linecap="round" stroke-linejoin="round"/>
    <path d="M 105.44754028320312 194.40309143066406 C 122.70146179199219 81.71159362792969 122.90738677978516 124.42092895507812 133.79248046875 105.19108581542969" stroke-width="3.0" fill="none" stroke="rgb(0, 0, 0)" stroke-opacity="1.0" stroke-linecap="round" stroke-linejoin="round"/>
    <path d="M 46.416297912597656 91.3984603881836 C 26.273052215576172 185.9613800048828 14.326529502868652 124.41482543945312 40.73087692260742 200.36837768554688" stroke-width="3.0" fill="none" stroke="rgb(0, 0, 0)" stroke-opacity="1.0" stroke-linecap="round" stroke-linejoin="round"/>
    <path d="M 63.3167839050293 41.92707443237305 C 94.19680786132812 13.610711097717285 140.7489013671875 103.60159301757812 165.33859252929688 81.58729553222656" stroke-width="3.0" fill="none" stroke="rgb(0, 0, 0)" stroke-opacity="1.0" stroke-linecap="round" stroke-linejoin="round"/>
    <path d="M 48.52116394042969 93.73182678222656 C 69.56715393066406 122.81807708740234 84.70500183105469 111.6163330078125 105.68840789794922 119.2158432006836" stroke-width="3.0" fill="none" stroke="rgb(0, 0, 0)" stroke-opacity="1.0" stroke-linecap="round" stroke-linejoin="round"/>
    <path d="M 19.259044647216797 128.0419464111328 C 3.8369901180267334 67.35018920898438 24.29486083984375 76.63217163085938 59.048973083496094 43.49189758300781" stroke-width="3.0" fill="none" stroke="rgb(0, 0, 0)" stroke-opacity="1.0" stroke-linecap="round" stroke-linejoin="round"/>
    <path d="M 165.11387634277344 84.94183349609375 C 190.8874969482422 43.28785705566406 197.73924255371094 61.40601348876953 179.2655792236328 88.8744125366211" stroke-width="3.0" fill="none" stroke="rgb(0, 0, 0)" stroke-opacity="1.0" stroke-linecap="round" stroke-linejoin="round"/>
    <path d="M 104.97867584228516 120.12879180908203 C 109.76830291748047 182.25543212890625 78.90771484375 204.33180236816406 110.90369415283203 188.8975067138672" stroke-width="3.0" fill="none" stroke="rgb(0, 0, 0)" stroke-opacity="1.0" stroke-linecap="round" stroke-linejoin="round"/>
    <path d="M 175.02845764160156 83.78824615478516 C 173.26051330566406 -4.387936592102051 208.6648712158203 75.01348114013672 196.6526336669922 46.009891510009766" stroke-width="3.0" fill="none" stroke="rgb(0, 0, 0)" stroke-opacity="1.0" stroke-linecap="round" stroke-linejoin="round"/>
    <path d="M 198.65756225585938 62.067867279052734 C 146.7186737060547 39.60100555419922 240.5430145263672 41.97162628173828 192.6085968017578 52.47445297241211" stroke-width="3.0" fill="none" stroke="rgb(0, 0, 0)" stroke-opacity="1.0" stroke-linecap="round" stroke-linejoin="round"/>
  </g>
</svg>
