<?xml version="1.0" ?>
<svg xmlns="http://www.w3.org/2000/svg" version="1.1" width="224" height="224">
  <defs/>
  <g>
    <path d="M 132.47630310058594 106.78114318847656 C 124.6400146484375 88.13534545898438 150.58840942382812 137.08810424804688 119.05889129638672 68.85301208496094" stroke-width="3.0" fill="none" stroke="rgb(0, 0, 0)" stroke-opacity="1.0" stroke-linecap="round" stroke-linejoin="round"/>
    <path d="M 112.63382720947266 89.1534194946289 C 114.9872817993164 99.12508392333984 103.02462005615234 98.2710952758789 111.9510726928711 113.1181640625" stroke-width="3.0" fill="none" stroke="rgb(0, 0, 0)" stroke-opacity="1.0" stroke-linecap="round" stroke-linejoin="round"/>
    <path d="M 128.72459411621094 109.35896301269531 C 131.33511352539062 89.74434661865234 154.43447875976562 136.28538513183594 188.51637268066406 68.48957824707031" stroke-width="3.0" fill="none" stroke="rgb(0, 0, 0)" stroke-opacity="1.0" stroke-linecap="round" stroke-linejoin="round"/>
    <path d="M 61.579383850097656 43.147361755371094 C 64.11360931396484 38.38320541381836 52.55708694458008 46.857662200927734 37.88862228393555 61.176387786865234" stroke-width="3.0" fill="none" stroke="rgb(0, 0, 0)" stroke-opacity="1.0" stroke-linecap="round" stroke-linejoin="round"/>
    <path d="M 137.18006896972656 78.5600357055664 C 106.19359588623047 42.3874397277832 114.64581298828125 68.6194076538086 92.95096588134766 45.44056701660156" stroke-width="3.0" fill="none" stroke="rgb(0, 0, 0)" stroke-opacity="1.0" stroke-linecap="round" stroke-linejoin="round"/>
    <path d="M 68.37095642089844 109.00753784179688 C 37.496212005615234 77.86722564697266 59.127685546875 97.32820892333984 44.2763786315918 71.0595703125" stroke-width="3.0" fill="none" stroke="rgb(0, 0, 0)" stroke-opacity="1.0" stroke-linecap="round" stroke-linejoin="round"/>
    <path d="M 187.90371704101562 59.47524642944336 C 171.67381286621094 37.032493591308594 196.93272399902344 50.99808120727539 188.54312133789062 77.6469955444336" stroke-width="3.0" fill="none" stroke="rgb(0, 0, 0)" stroke-opacity="1.0" stroke-linecap="round" stroke-linejoin="round"/>
    <path d="M 107.65670776367188 193.95486450195312 C 115.49860382080078 96.66263580322266 125.38178253173828 134.00967407226562 124.76083374023438 102.77100372314453" stroke-width="3.0" fill="none" stroke="rgb(0, 0, 0)" stroke-opacity="1.0" stroke-linecap="round" stroke-linejoin="round"/>
    <path d="M 46.777305603027344 100.08051300048828 C 28.39065933227539 177.3771514892578 17.150440216064453 124.43499755859375 39.94515609741211 196.73988342285156" stroke-width="3.0" fill="none" stroke="rgb(0, 0, 0)" stroke-opacity="1.0" stroke-linecap="round" stroke-linejoin="round"/>
    <path d="M 64.98587799072266 40.916751861572266 C 98.36625671386719 16.814889907836914 153.56195068359375 133.81124877929688 178.4140625 52.94273376464844" stroke-width="3.0" fill="none" stroke="rgb(0, 0, 0)" stroke-opacity="1.0" stroke-linecap="round" stroke-linejoin="round"/>
    <path d="M 49.2128791809082 97.68187713623047 C 83.27639770507812 125.20064544677734 78.3069839477539 116.02860260009766 103.1861801147461 118.53160095214844" stroke-width="3.0" fill="none" stroke="rgb(0, 0, 0)" stroke-opacity="1.0" stroke-linecap="round" stroke-linejoin="round"/>
    <path d="M 23.4605770111084 141.466064453125 C 18.546323776245117 94.57964324951172 -9.3328218460083 88.87094116210938 52.26105499267578 53.13080978393555" stroke-width="3.0" fill="none" stroke="rgb(0, 0, 0)" stroke-opacity="1.0" stroke-linecap="round" stroke-linejoin="round"/>
    <path d="M 175.39630126953125 89.22392272949219 C 191.5968780517578 19.870800018310547 209.5960693359375 30.870895385742188 166.69656372070312 98.21670532226562" stroke-width="3.0" fill="none" stroke="rgb(0, 0, 0)" stroke-opacity="1.0" stroke-linecap="round" stroke-linejoin="round"/>
    <path d="M 106.42919921875 115.83863830566406 C 109.5954360961914 182.343994140625 82.71503448486328 199.2889404296875 111.37157440185547 189.5426483154297" stroke-width="3.0" fill="none" stroke="rgb(0, 0, 0)" stroke-opacity="1.0" stroke-linecap="round" stroke-linejoin="round"/>
    <path d="M 171.73081970214844 73.6196517944336 C 181.60630798339844 4.651902675628662 215.6918487548828 77.48656463623047 204.9048309326172 49.99968338012695" stroke-width="3.0" fill="none" stroke="rgb(0, 0, 0)" stroke-opacity="1.0" stroke-linecap="round" stroke-linejoin="round"/>
    <path d="M 193.63671875 61.64175796508789 C 152.7150115966797 47.56692886352539 253.18576049804688 46.00324630737305 196.69920349121094 58.519691467285156" stroke-width="3.0" fill="none" stroke="rgb(0, 0, 0)" stroke-opacity="1.0" stroke-linecap="round" stroke-linejoin="round"/>
  </g>
</svg>
