<?xml version="1.0" ?>
<svg xmlns="http://www.w3.org/2000/svg" version="1.1" width="224" height="224">
  <defs/>
  <g>
    <path d="M 129.81703186035156 109.68159484863281 C 131.50901794433594 89.54625701904297 147.37911987304688 133.42840576171875 122.80561828613281 70.98098754882812" stroke-width="3.0" fill="none" stroke="rgb(0, 0, 0)" stroke-opacity="1.0" stroke-linecap="round" stroke-linejoin="round"/>
    <path d="M 112.93508911132812 91.68258666992188 C 116.92581176757812 98.9830551147461 100.12533569335938 106.2353286743164 109.13529205322266 116.18983459472656" stroke-width="3.0" fill="none" stroke="rgb(0, 0, 0)" stroke-opacity="1.0" stroke-linecap="round" stroke-linejoin="round"/>
    <path d="M 128.35244750976562 111.29049682617188 C 136.05563354492188 91.57835388183594 158.48231506347656 133.82537841796875 190.57965087890625 62.381412506103516" stroke-width="3.0" fill="none" stroke="rgb(0, 0, 0)" stroke-opacity="1.0" stroke-linecap="round" stroke-linejoin="round"/>
    <path d="M 64.34477233886719 40.46636962890625 C 63.72102355957031 38.47262954711914 53.019535064697266 47.2091064453125 42.46706771850586 58.70935821533203" stroke-width="3.0" fill="none" stroke="rgb(0, 0, 0)" stroke-opacity="1.0" stroke-linecap="round" stroke-linejoin="round"/>
    <path d="M 140.01654052734375 78.57425689697266 C 103.58231353759766 41.25086212158203 112.8570556640625 67.78402709960938 95.30667114257812 43.5042610168457" stroke-width="3.0" fill="none" stroke="rgb(0, 0, 0)" stroke-opacity="1.0" stroke-linecap="round" stroke-linejoin="round"/>
    <path d="M 64.7094955444336 110.0452651977539 C 38.68124771118164 77.83733367919922 57.46029281616211 93.71388244628906 43.591976165771484 76.00273895263672" stroke-width="3.0" fill="none" stroke="rgb(0, 0, 0)" stroke-opacity="1.0" stroke-linecap="round" stroke-linejoin="round"/>
    <path d="M 185.3630828857422 62.138214111328125 C 172.72401428222656 29.75028419494629 192.82923889160156 47.10621643066406 187.47622680664062 80.47018432617188" stroke-width="3.0" fill="none" stroke="rgb(0, 0, 0)" stroke-opacity="1.0" stroke-linecap="round" stroke-linejoin="round"/>
    <path d="M 102.49732208251953 193.2476806640625 C 113.57365417480469 105.53955078125 120.06353759765625 139.56259155273438 126.67916870117188 97.30355072021484" stroke-width="3.0" fill="none" stroke="rgb(0, 0, 0)" stroke-opacity="1.0" stroke-linecap="round" stroke-linejoin="round"/>
    <path d="M 48.253482818603516 100.56909942626953 C 17.252548217773438 182.14755249023438 25.695642471313477 128.1881103515625 37.036739349365234 199.03366088867188" stroke-width="3.0" fill="none" stroke="rgb(0, 0, 0)" stroke-opacity="1.0" stroke-linecap="round" stroke-linejoin="round"/>
    <path d="M 65.79095458984375 40.47267150878906 C 101.08045959472656 13.593387603759766 154.43128967285156 138.04522705078125 177.63650512695312 53.78069305419922" stroke-width="3.0" fill="none" stroke="rgb(0, 0, 0)" stroke-opacity="1.0" stroke-linecap="round" stroke-linejoin="round"/>
    <path d="M 51.95208740234375 103.04830169677734 C 81.59300231933594 121.82306671142578 77.76758575439453 110.68689727783203 104.18123626708984 121.5112075805664" stroke-width="3.0" fill="none" stroke="rgb(0, 0, 0)" stroke-opacity="1.0" stroke-linecap="round" stroke-linejoin="round"/>
    <path d="M 29.923290252685547 143.8749237060547 C 26.09575080871582 104.65021514892578 -12.315449714660645 87.68025970458984 52.331600189208984 52.471046447753906" stroke-width="3.0" fill="none" stroke="rgb(0, 0, 0)" stroke-opacity="1.0" stroke-linecap="round" stroke-linejoin="round"/>
    <path d="M 174.21231079101562 88.53324890136719 C 188.21095275878906 15.509984970092773 206.20065307617188 24.718008041381836 169.05316162109375 95.9593734741211" stroke-width="3.0" fill="none" stroke="rgb(0, 0, 0)" stroke-opacity="1.0" stroke-linecap="round" stroke-linejoin="round"/>
    <path d="M 106.05890655517578 119.41643524169922 C 107.44715881347656 181.1125030517578 78.25363159179688 197.4070281982422 109.83179473876953 189.0312957763672" stroke-width="3.0" fill="none" stroke="rgb(0, 0, 0)" stroke-opacity="1.0" stroke-linecap="round" stroke-linejoin="round"/>
    <path d="M 170.24229431152344 72.1330795288086 C 178.9954071044922 -0.05911651998758316 212.7385711669922 75.31136322021484 206.11412048339844 46.39333724975586" stroke-width="3.0" fill="none" stroke="rgb(0, 0, 0)" stroke-opacity="1.0" stroke-linecap="round" stroke-linejoin="round"/>
    <path d="M 190.349853515625 63.44853210449219 C 152.7926483154297 41.62751388549805 254.30447387695312 44.512962341308594 196.0112762451172 58.087982177734375" stroke-width="3.0" fill="none" stroke="rgb(0, 0, 0)" stroke-opacity="1.0" stroke-linecap="round" stroke-linejoin="round"/>
  </g>
</svg>
