<?xml version="1.0" ?>
<svg xmlns="http://www.w3.org/2000/svg" version="1.1" width="224" height="224">
  <defs/>
  <g>
    <path d="M 138.5823974609375 106.3763198852539 C 122.00694274902344 92.81261444091797 153.53909301757812 136.7469482421875 115.66497039794922 67.89433288574219" stroke-width="3.0" fill="none" stroke="rgb(0, 0, 0)" stroke-opacity="1.0" stroke-linecap="round" stroke-linejoin="round"/>
    <path d="M 106.73246002197266 91.8363037109375 C 111.1058349609375 101.62399291992188 101.22976684570312 101.52983856201172 108.77032470703125 113.26994323730469" stroke-width="3.0" fill="none" stroke="rgb(0, 0, 0)" stroke-opacity="1.0" stroke-linecap="round" stroke-linejoin="round"/>
    <path d="M 132.99349975585938 108.28890228271484 C 130.562744140625 79.80103302001953 147.78277587890625 135.50807189941406 186.48458862304688 80.19435119628906" stroke-width="3.0" fill="none" stroke="rgb(0, 0, 0)" stroke-opacity="1.0" stroke-linecap="round" stroke-linejoin="round"/>
    <path d="M 69.26239776611328 39.351844787597656 C 64.43914794921875 39.8184928894043 52.07717514038086 45.3531608581543 48.91474533081055 49.992034912109375" stroke-width="3.0" fill="none" stroke="rgb(0, 0, 0)" stroke-opacity="1.0" stroke-linecap="round" stroke-linejoin="round"/>
    <path d="M 131.2642822265625 81.32464599609375 C 108.36160278320312 38.77949142456055 112.08515930175781 65.49005889892578 97.99553680419922 46.82921600341797" stroke-width="3.0" fill="none" stroke="rgb(0, 0, 0)" stroke-opacity="1.0" stroke-linecap="round" stroke-linejoin="round"/>
    <path d="M 68.96503448486328 113.12682342529297 C 36.979583740234375 82.8140640258789 62.92657470703125 99.98509216308594 41.09651565551758 79.39637756347656" stroke-width="3.0" fill="none" stroke="rgb(0, 0, 0)" stroke-opacity="1.0" stroke-linecap="round" stroke-linejoin="round"/>
    <path d="M 186.60528564453125 61.78933334350586 C 176.32147216796875 37.7495231628418 193.22886657714844 50.84489440917969 187.1771697998047 81.22594451904297" stroke-width="3.0" fill="none" stroke="rgb(0, 0, 0)" stroke-opacity="1.0" stroke-linecap="round" stroke-linejoin="round"/>
    <path d="M 100.75172424316406 190.7008514404297 C 119.88329315185547 84.7894515991211 119.2286376953125 130.94198608398438 123.47765350341797 103.05516052246094" stroke-width="3.0" fill="none" stroke="rgb(0, 0, 0)" stroke-opacity="1.0" stroke-linecap="round" stroke-linejoin="round"/>
    <path d="M 49.1153564453125 103.29711151123047 C 27.862045288085938 171.7877197265625 17.547836303710938 125.2470932006836 40.81050491333008 198.49012756347656" stroke-width="3.0" fill="none" stroke="rgb(0, 0, 0)" stroke-opacity="1.0" stroke-linecap="round" stroke-linejoin="round"/>
    <path d="M 65.34928894042969 39.28752136230469 C 99.7138671875 17.573427200317383 156.2877960205078 130.0521240234375 173.5872344970703 61.65131759643555" stroke-width="3.0" fill="none" stroke="rgb(0, 0, 0)" stroke-opacity="1.0" stroke-linecap="round" stroke-linejoin="round"/>
    <path d="M 50.00704574584961 105.58060455322266 C 86.39891052246094 123.27112579345703 81.93905639648438 113.11600494384766 103.00048828125 118.17408752441406" stroke-width="3.0" fill="none" stroke="rgb(0, 0, 0)" stroke-opacity="1.0" stroke-linecap="round" stroke-linejoin="round"/>
    <path d="M 22.4477596282959 135.70681762695312 C 14.64062213897705 73.89171600341797 8.072343826293945 86.42160034179688 53.876285552978516 45.737274169921875" stroke-width="3.0" fill="none" stroke="rgb(0, 0, 0)" stroke-opacity="1.0" stroke-linecap="round" stroke-linejoin="round"/>
    <path d="M 172.59701538085938 85.70343017578125 C 199.8643341064453 23.532957077026367 203.762451171875 27.48023796081543 170.86402893066406 92.89714813232422" stroke-width="3.0" fill="none" stroke="rgb(0, 0, 0)" stroke-opacity="1.0" stroke-linecap="round" stroke-linejoin="round"/>
    <path d="M 105.63106536865234 115.86048889160156 C 106.7892074584961 184.3182373046875 74.93321228027344 197.38369750976562 110.67215728759766 193.17161560058594" stroke-width="3.0" fill="none" stroke="rgb(0, 0, 0)" stroke-opacity="1.0" stroke-linecap="round" stroke-linejoin="round"/>
    <path d="M 171.05812072753906 70.68138122558594 C 182.4648895263672 3.9152657985687256 217.65350341796875 74.97428131103516 210.59007263183594 51.60110092163086" stroke-width="3.0" fill="none" stroke="rgb(0, 0, 0)" stroke-opacity="1.0" stroke-linecap="round" stroke-linejoin="round"/>
    <path d="M 197.1680450439453 62.222068786621094 C 151.7820281982422 42.38934326171875 262.7260437011719 46.73007583618164 199.16464233398438 59.88313674926758" stroke-width="3.0" fill="none" stroke="rgb(0, 0, 0)" stroke-opacity="1.0" stroke-linecap="round" stroke-linejoin="round"/>
  </g>
</svg>
