<?xml version="1.0" ?>
<svg xmlns="http://www.w3.org/2000/svg" version="1.1" width="224" height="224">
  <defs/>
  <g>
    <path d="M 138.251708984375 107.40892791748047 C 120.51162719726562 93.46173858642578 154.2044677734375 137.11825561523438 114.88802337646484 65.7330093383789" stroke-width="3.0" fill="none" stroke="rgb(0, 0, 0)" stroke-opacity="1.0" stroke-linecap="round" stroke-linejoin="round"/>
    <path d="M 110.02397155761719 93.79605865478516 C 112.19129180908203 99.32371520996094 102.42797088623047 100.8442611694336 110.58680725097656 111.94512939453125" stroke-width="3.0" fill="none" stroke="rgb(0, 0, 0)" stroke-opacity="1.0" stroke-linecap="round" stroke-linejoin="round"/>
    <path d="M 131.02606201171875 107.47966003417969 C 129.2299346923828 83.21597290039062 149.9663543701172 134.5015411376953 187.47103881835938 75.72813415527344" stroke-width="3.0" fill="none" stroke="rgb(0, 0, 0)" stroke-opacity="1.0" stroke-linecap="round" stroke-linejoin="round"/>
    <path d="M 68.712158203125 39.76502990722656 C 64.45259094238281 39.330814361572266 53.438682556152344 47.166114807128906 48.26239013671875 52.7022819519043" stroke-width="3.0" fill="none" stroke="rgb(0, 0, 0)" stroke-opacity="1.0" stroke-linecap="round" stroke-linejoin="round"/>
    <path d="M 136.25717163085938 83.11255645751953 C 108.52571105957031 39.14654541015625 111.24137878417969 64.58979797363281 97.41888427734375 45.224979400634766" stroke-width="3.0" fill="none" stroke="rgb(0, 0, 0)" stroke-opacity="1.0" stroke-linecap="round" stroke-linejoin="round"/>
    <path d="M 68.73429870605469 113.9154052734375 C 38.089351654052734 84.65155029296875 63.93611526489258 104.7758560180664 43.24993896484375 77.43340301513672" stroke-width="3.0" fill="none" stroke="rgb(0, 0, 0)" stroke-opacity="1.0" stroke-linecap="round" stroke-linejoin="round"/>
    <path d="M 183.2333526611328 63.928653717041016 C 175.92665100097656 39.28040313720703 193.6603240966797 49.86392593383789 191.18594360351562 78.68484497070312" stroke-width="3.0" fill="none" stroke="rgb(0, 0, 0)" stroke-opacity="1.0" stroke-linecap="round" stroke-linejoin="round"/>
    <path d="M 104.08008575439453 189.78860473632812 C 121.2275390625 83.6841049194336 123.0398941040039 132.4751739501953 125.03236389160156 104.64881896972656" stroke-width="3.0" fill="none" stroke="rgb(0, 0, 0)" stroke-opacity="1.0" stroke-linecap="round" stroke-linejoin="round"/>
    <path d="M 46.952049255371094 103.1502685546875 C 23.624555587768555 171.47117614746094 12.503561973571777 123.74541473388672 41.611167907714844 200.01885986328125" stroke-width="3.0" fill="none" stroke="rgb(0, 0, 0)" stroke-opacity="1.0" stroke-linecap="round" stroke-linejoin="round"/>
    <path d="M 67.8597640991211 39.77387237548828 C 99.37305450439453 16.138431549072266 158.6991729736328 133.8905792236328 173.89443969726562 59.399227142333984" stroke-width="3.0" fill="none" stroke="rgb(0, 0, 0)" stroke-opacity="1.0" stroke-linecap="round" stroke-linejoin="round"/>
    <path d="M 50.18273162841797 103.50169372558594 C 86.11449432373047 124.37926483154297 79.4692153930664 113.52236938476562 106.16385650634766 117.62396240234375" stroke-width="3.0" fill="none" stroke="rgb(0, 0, 0)" stroke-opacity="1.0" stroke-linecap="round" stroke-linejoin="round"/>
    <path d="M 22.182268142700195 136.7437286376953 C 13.865285873413086 74.7358169555664 5.930086135864258 89.52633666992188 54.638206481933594 47.34891891479492" stroke-width="3.0" fill="none" stroke="rgb(0, 0, 0)" stroke-opacity="1.0" stroke-linecap="round" stroke-linejoin="round"/>
    <path d="M 174.6527862548828 85.7186050415039 C 197.22564697265625 21.177770614624023 206.0356903076172 28.38504981994629 169.35794067382812 89.9752197265625" stroke-width="3.0" fill="none" stroke="rgb(0, 0, 0)" stroke-opacity="1.0" stroke-linecap="round" stroke-linejoin="round"/>
    <path d="M 105.81297302246094 115.11933135986328 C 109.46485137939453 188.63327026367188 81.96390533447266 196.0710906982422 108.80839538574219 192.61280822753906" stroke-width="3.0" fill="none" stroke="rgb(0, 0, 0)" stroke-opacity="1.0" stroke-linecap="round" stroke-linejoin="round"/>
    <path d="M 173.39840698242188 70.35257720947266 C 180.34332275390625 5.672484874725342 217.37745666503906 75.0056381225586 209.5271759033203 50.36711502075195" stroke-width="3.0" fill="none" stroke="rgb(0, 0, 0)" stroke-opacity="1.0" stroke-linecap="round" stroke-linejoin="round"/>
    <path d="M 193.02630615234375 64.03251647949219 C 153.36851501464844 41.08982849121094 261.2799072265625 46.298946380615234 195.59521484375 59.647483825683594" stroke-width="3.0" fill="none" stroke="rgb(0, 0, 0)" stroke-opacity="1.0" stroke-linecap="round" stroke-linejoin="round"/>
  </g>
</svg>
