<?xml version="1.0" ?>
<svg xmlns="http://www.w3.org/2000/svg" version="1.1" width="224" height="224">
  <defs/>
  <g>
    <path d="M 144.46749877929688 102.42036437988281 C 123.98135375976562 85.84291076660156 131.72824096679688 80.8513412475586 130.7991943359375 89.96781158447266" stroke-width="3.0" fill="none" stroke="rgb(0, 0, 0)" stroke-opacity="1.0" stroke-linecap="round" stroke-linejoin="round"/>
    <path d="M 103.71843719482422 95.07683563232422 C 104.66976165771484 99.26016998291016 99.6594467163086 103.86727142333984 106.82128143310547 109.18798065185547" stroke-width="3.0" fill="none" stroke="rgb(0, 0, 0)" stroke-opacity="1.0" stroke-linecap="round" stroke-linejoin="round"/>
    <path d="M 127.2699966430664 110.15946960449219 C 148.6558074951172 92.29373931884766 117.87667846679688 96.24436950683594 158.845458984375 101.67252349853516" stroke-width="3.0" fill="none" stroke="rgb(0, 0, 0)" stroke-opacity="1.0" stroke-linecap="round" stroke-linejoin="round"/>
    <path d="M 58.36082458496094 46.59530258178711 C 49.12956237792969 48.11534118652344 27.118715286254883 72.16754913330078 43.78355407714844 56.257362365722656" stroke-width="3.0" fill="none" stroke="rgb(0, 0, 0)" stroke-opacity="1.0" stroke-linecap="round" stroke-linejoin="round"/>
    <path d="M 106.5534439086914 52.29353713989258 C 120.08260345458984 54.823604583740234 106.73978424072266 59.59233474731445 102.26133728027344 47.603729248046875" stroke-width="3.0" fill="none" stroke="rgb(0, 0, 0)" stroke-opacity="1.0" stroke-linecap="round" stroke-linejoin="round"/>
    <path d="M 73.6357650756836 112.93985748291016 C 54.2314453125 91.73460388183594 51.031654357910156 88.10518646240234 49.549259185791016 78.72818756103516" stroke-width="3.0" fill="none" stroke="rgb(0, 0, 0)" stroke-opacity="1.0" stroke-linecap="round" stroke-linejoin="round"/>
    <path d="M 182.7388153076172 46.9221305847168 C 173.20045471191406 66.48986053466797 194.99688720703125 63.30482864379883 170.00277709960938 79.4000244140625" stroke-width="3.0" fill="none" stroke="rgb(0, 0, 0)" stroke-opacity="1.0" stroke-linecap="round" stroke-linejoin="round"/>
    <path d="M 114.25709533691406 152.6611785888672 C 125.9350814819336 91.05047607421875 119.98779296875 129.3263702392578 130.1708221435547 102.67724609375" stroke-width="3.0" fill="none" stroke="rgb(0, 0, 0)" stroke-opacity="1.0" stroke-linecap="round" stroke-linejoin="round"/>
    <path d="M 50.23160934448242 94.95879364013672 C 19.013473510742188 174.70021057128906 15.161728858947754 114.63996887207031 39.88337707519531 197.447509765625" stroke-width="3.0" fill="none" stroke="rgb(0, 0, 0)" stroke-opacity="1.0" stroke-linecap="round" stroke-linejoin="round"/>
    <path d="M 59.64380645751953 44.519893646240234 C 91.22673797607422 13.949548721313477 130.31202697753906 83.44332885742188 151.6506805419922 82.319091796875" stroke-width="3.0" fill="none" stroke="rgb(0, 0, 0)" stroke-opacity="1.0" stroke-linecap="round" stroke-linejoin="round"/>
    <path d="M 47.07916259765625 104.60366821289062 C 93.56216430664062 122.19193267822266 81.11957550048828 108.15326690673828 103.1650161743164 115.5766372680664" stroke-width="3.0" fill="none" stroke="rgb(0, 0, 0)" stroke-opacity="1.0" stroke-linecap="round" stroke-linejoin="round"/>
    <path d="M 45.26974105834961 82.73487854003906 C 36.11420440673828 66.02051544189453 27.572385787963867 65.56188201904297 28.808719635009766 65.81131744384766" stroke-width="3.0" fill="none" stroke="rgb(0, 0, 0)" stroke-opacity="1.0" stroke-linecap="round" stroke-linejoin="round"/>
    <path d="M 151.807861328125 82.37523651123047 C 212.57931518554688 66.89408111572266 163.19436645507812 72.67141723632812 175.1138916015625 95.00973510742188" stroke-width="3.0" fill="none" stroke="rgb(0, 0, 0)" stroke-opacity="1.0" stroke-linecap="round" stroke-linejoin="round"/>
    <path d="M 106.86894226074219 114.18024444580078 C 112.51480102539062 163.36947631835938 82.5290298461914 201.07504272460938 111.88797760009766 190.6846160888672" stroke-width="3.0" fill="none" stroke="rgb(0, 0, 0)" stroke-opacity="1.0" stroke-linecap="round" stroke-linejoin="round"/>
    <path d="M 171.7611541748047 64.17853546142578 C 194.32870483398438 9.99670696258545 182.3149871826172 61.11612319946289 209.8734893798828 47.707340240478516" stroke-width="3.0" fill="none" stroke="rgb(0, 0, 0)" stroke-opacity="1.0" stroke-linecap="round" stroke-linejoin="round"/>
    <path d="M 202.11105346679688 62.875633239746094 C 167.3301544189453 34.93548583984375 212.17568969726562 40.284847259521484 202.4920654296875 56.739707946777344" stroke-width="3.0" fill="none" stroke="rgb(0, 0, 0)" stroke-opacity="1.0" stroke-linecap="round" stroke-linejoin="round"/>
  </g>
</svg>
