<?xml version="1.0" ?>
<svg xmlns="http://www.w3.org/2000/svg" version="1.1" width="224" height="224">
  <defs/>
  <g>
    <path d="M 143.5520477294922 106.40353393554688 C 121.38314056396484 84.12568664550781 162.0257110595703 140.9294891357422 122.82100677490234 69.46156311035156" stroke-width="3.0" fill="none" stroke="rgb(0, 0, 0)" stroke-opacity="1.0" stroke-linecap="round" stroke-linejoin="round"/>
    <path d="M 108.5947265625 94.66853332519531 C 110.70252990722656 104.44547271728516 104.31105041503906 103.46035766601562 107.4059829711914 113.48475646972656" stroke-width="3.0" fill="none" stroke="rgb(0, 0, 0)" stroke-opacity="1.0" stroke-linecap="round" stroke-linejoin="round"/>
    <path d="M 134.9508514404297 108.29961395263672 C 140.56881713867188 74.74431610107422 133.6329345703125 135.1475067138672 179.77127075195312 84.30186462402344" stroke-width="3.0" fill="none" stroke="rgb(0, 0, 0)" stroke-opacity="1.0" stroke-linecap="round" stroke-linejoin="round"/>
    <path d="M 66.10070037841797 39.81332015991211 C 63.2490234375 39.86138916015625 56.4573860168457 45.50014877319336 60.69601058959961 42.516109466552734" stroke-width="3.0" fill="none" stroke="rgb(0, 0, 0)" stroke-opacity="1.0" stroke-linecap="round" stroke-linejoin="round"/>
    <path d="M 135.48760986328125 82.9653549194336 C 105.83837890625 39.20331573486328 113.56364440917969 65.70523834228516 97.89530181884766 44.229400634765625" stroke-width="3.0" fill="none" stroke="rgb(0, 0, 0)" stroke-opacity="1.0" stroke-linecap="round" stroke-linejoin="round"/>
    <path d="M 65.42176818847656 109.6040267944336 C 33.98137664794922 78.2593002319336 56.82967758178711 92.03427124023438 38.56934356689453 73.0363540649414" stroke-width="3.0" fill="none" stroke="rgb(0, 0, 0)" stroke-opacity="1.0" stroke-linecap="round" stroke-linejoin="round"/>
    <path d="M 181.7498779296875 49.54963684082031 C 186.34046936035156 27.911386489868164 195.04205322265625 45.425289154052734 186.4589080810547 83.08204650878906" stroke-width="3.0" fill="none" stroke="rgb(0, 0, 0)" stroke-opacity="1.0" stroke-linecap="round" stroke-linejoin="round"/>
    <path d="M 102.94339752197266 195.7086639404297 C 118.81452941894531 77.54622650146484 124.3530044555664 129.6011962890625 130.79461669921875 98.07849884033203" stroke-width="3.0" fill="none" stroke="rgb(0, 0, 0)" stroke-opacity="1.0" stroke-linecap="round" stroke-linejoin="round"/>
    <path d="M 46.607391357421875 100.09193420410156 C 24.204702377319336 174.21356201171875 16.874479293823242 123.42640686035156 44.55619812011719 196.79393005371094" stroke-width="3.0" fill="none" stroke="rgb(0, 0, 0)" stroke-opacity="1.0" stroke-linecap="round" stroke-linejoin="round"/>
    <path d="M 62.6019401550293 41.15064239501953 C 97.33370208740234 16.175186157226562 148.16651916503906 111.39555358886719 168.64759826660156 75.59050750732422" stroke-width="3.0" fill="none" stroke="rgb(0, 0, 0)" stroke-opacity="1.0" stroke-linecap="round" stroke-linejoin="round"/>
    <path d="M 44.83736801147461 99.41720581054688 C 78.96279907226562 124.01326751708984 78.85869598388672 112.5304183959961 105.95427703857422 117.23057556152344" stroke-width="3.0" fill="none" stroke="rgb(0, 0, 0)" stroke-opacity="1.0" stroke-linecap="round" stroke-linejoin="round"/>
    <path d="M 21.46599578857422 131.07391357421875 C 9.53526782989502 70.06486511230469 13.797624588012695 85.05818176269531 58.10282516479492 44.31868362426758" stroke-width="3.0" fill="none" stroke="rgb(0, 0, 0)" stroke-opacity="1.0" stroke-linecap="round" stroke-linejoin="round"/>
    <path d="M 174.30723571777344 86.2698745727539 C 201.21385192871094 29.867107391357422 208.6987762451172 39.67652130126953 172.76612854003906 86.78241729736328" stroke-width="3.0" fill="none" stroke="rgb(0, 0, 0)" stroke-opacity="1.0" stroke-linecap="round" stroke-linejoin="round"/>
    <path d="M 106.16278076171875 119.49047088623047 C 107.57123565673828 180.51609802246094 73.8973617553711 202.9258575439453 108.56011962890625 189.5919189453125" stroke-width="3.0" fill="none" stroke="rgb(0, 0, 0)" stroke-opacity="1.0" stroke-linecap="round" stroke-linejoin="round"/>
    <path d="M 169.4029541015625 76.11270904541016 C 178.00306701660156 5.692845344543457 218.98963928222656 70.46604919433594 210.16575622558594 48.35105514526367" stroke-width="3.0" fill="none" stroke="rgb(0, 0, 0)" stroke-opacity="1.0" stroke-linecap="round" stroke-linejoin="round"/>
    <path d="M 195.6176300048828 59.43141555786133 C 156.20416259765625 44.29493713378906 255.6072235107422 49.61980056762695 202.66668701171875 58.64646530151367" stroke-width="3.0" fill="none" stroke="rgb(0, 0, 0)" stroke-opacity="1.0" stroke-linecap="round" stroke-linejoin="round"/>
  </g>
</svg>
