<?xml version="1.0" ?>
<svg xmlns="http://www.w3.org/2000/svg" version="1.1" width="224" height="224">
  <defs/>
  <g>
    <path d="M 145.9707794189453 103.13755798339844 C 124.58338928222656 86.7227554321289 131.37380981445312 81.86151123046875 130.7580108642578 90.49828338623047" stroke-width="3.0" fill="none" stroke="rgb(0, 0, 0)" stroke-opacity="1.0" stroke-linecap="round" stroke-linejoin="round"/>
    <path d="M 102.21728515625 94.69098663330078 C 104.16065979003906 99.09123229980469 100.0533676147461 102.30030059814453 108.43733215332031 110.34703826904297" stroke-width="3.0" fill="none" stroke="rgb(0, 0, 0)" stroke-opacity="1.0" stroke-linecap="round" stroke-linejoin="round"/>
    <path d="M 127.26026153564453 110.90214538574219 C 148.8299102783203 91.89891815185547 117.35128784179688 97.33214569091797 158.84280395507812 102.2718734741211" stroke-width="3.0" fill="none" stroke="rgb(0, 0, 0)" stroke-opacity="1.0" stroke-linecap="round" stroke-linejoin="round"/>
    <path d="M 58.53096008300781 46.2555046081543 C 49.838279724121094 49.20930099487305 27.809329986572266 71.13287353515625 44.897911071777344 56.86568832397461" stroke-width="3.0" fill="none" stroke="rgb(0, 0, 0)" stroke-opacity="1.0" stroke-linecap="round" stroke-linejoin="round"/>
    <path d="M 105.86653900146484 52.60185241699219 C 119.87701416015625 54.6258544921875 107.11105346679688 57.14094924926758 101.90758514404297 46.7451171875" stroke-width="3.0" fill="none" stroke="rgb(0, 0, 0)" stroke-opacity="1.0" stroke-linecap="round" stroke-linejoin="round"/>
    <path d="M 74.36358642578125 111.3727035522461 C 55.645450592041016 90.78160095214844 54.31387710571289 85.27745819091797 51.63452911376953 80.05242919921875" stroke-width="3.0" fill="none" stroke="rgb(0, 0, 0)" stroke-opacity="1.0" stroke-linecap="round" stroke-linejoin="round"/>
    <path d="M 181.5191650390625 48.00531005859375 C 171.00608825683594 66.78893280029297 194.1653594970703 63.51436233520508 167.7659149169922 80.07614135742188" stroke-width="3.0" fill="none" stroke="rgb(0, 0, 0)" stroke-opacity="1.0" stroke-linecap="round" stroke-linejoin="round"/>
    <path d="M 114.82262420654297 152.4705810546875 C 125.3641586303711 89.1675796508789 120.38915252685547 129.720703125 130.2507781982422 103.84078979492188" stroke-width="3.0" fill="none" stroke="rgb(0, 0, 0)" stroke-opacity="1.0" stroke-linecap="round" stroke-linejoin="round"/>
    <path d="M 48.09407043457031 92.32049560546875 C 21.849300384521484 177.19776916503906 18.537269592285156 117.08208465576172 40.26683807373047 199.16542053222656" stroke-width="3.0" fill="none" stroke="rgb(0, 0, 0)" stroke-opacity="1.0" stroke-linecap="round" stroke-linejoin="round"/>
    <path d="M 60.42938232421875 45.80289840698242 C 91.14737701416016 12.747535705566406 130.71705627441406 84.22306060791016 151.85723876953125 82.86183166503906" stroke-width="3.0" fill="none" stroke="rgb(0, 0, 0)" stroke-opacity="1.0" stroke-linecap="round" stroke-linejoin="round"/>
    <path d="M 46.845359802246094 103.47315216064453 C 94.68562316894531 122.68030548095703 80.8919677734375 108.24661254882812 103.8656005859375 115.2010726928711" stroke-width="3.0" fill="none" stroke="rgb(0, 0, 0)" stroke-opacity="1.0" stroke-linecap="round" stroke-linejoin="round"/>
    <path d="M 44.50926208496094 85.73001098632812 C 38.17162322998047 64.30615234375 29.213945388793945 63.06104278564453 30.65635871887207 62.522789001464844" stroke-width="3.0" fill="none" stroke="rgb(0, 0, 0)" stroke-opacity="1.0" stroke-linecap="round" stroke-linejoin="round"/>
    <path d="M 152.5839080810547 83.55977630615234 C 212.73692321777344 65.59283447265625 164.6661834716797 73.6747817993164 174.76727294921875 96.4114990234375" stroke-width="3.0" fill="none" stroke="rgb(0, 0, 0)" stroke-opacity="1.0" stroke-linecap="round" stroke-linejoin="round"/>
    <path d="M 106.52565002441406 114.67527770996094 C 110.98487091064453 162.6533203125 81.894287109375 199.0202178955078 110.83511352539062 191.59007263183594" stroke-width="3.0" fill="none" stroke="rgb(0, 0, 0)" stroke-opacity="1.0" stroke-linecap="round" stroke-linejoin="round"/>
    <path d="M 174.162353515625 65.68365478515625 C 193.8804931640625 8.80516242980957 182.77403259277344 61.85400390625 210.27218627929688 48.88186264038086" stroke-width="3.0" fill="none" stroke="rgb(0, 0, 0)" stroke-opacity="1.0" stroke-linecap="round" stroke-linejoin="round"/>
    <path d="M 201.90074157714844 64.24376678466797 C 164.81068420410156 37.024166107177734 212.4988555908203 42.03938674926758 205.8784637451172 56.57994842529297" stroke-width="3.0" fill="none" stroke="rgb(0, 0, 0)" stroke-opacity="1.0" stroke-linecap="round" stroke-linejoin="round"/>
  </g>
</svg>
