<?xml version="1.0" ?>
<svg xmlns="http://www.w3.org/2000/svg" version="1.1" width="224" height="224">
  <defs/>
  <g>
    <path d="M 127.80712890625 80.38789367675781 C 120.04197692871094 84.73849487304688 130.39019775390625 80.15064239501953 124.76246643066406 74.56986999511719" stroke-width="3.0" fill="none" stroke="rgb(0, 0, 0)" stroke-opacity="1.0" stroke-linecap="round" stroke-linejoin="round"/>
    <path d="M 86.95091247558594 99.21455383300781 C 87.87632751464844 98.76435852050781 82.17999267578125 99.63575744628906 91.63932037353516 101.76891326904297" stroke-width="3.0" fill="none" stroke="rgb(0, 0, 0)" stroke-opacity="1.0" stroke-linecap="round" stroke-linejoin="round"/>
    <path d="M 153.56826782226562 104.19819641113281 C 155.63613891601562 85.60433197021484 158.82684326171875 79.21949005126953 156.23304748535156 95.82149505615234" stroke-width="3.0" fill="none" stroke="rgb(0, 0, 0)" stroke-opacity="1.0" stroke-linecap="round" stroke-linejoin="round"/>
    <path d="M 60.30806350708008 62.16407775878906 C 60.783939361572266 88.48485565185547 47.0274772644043 91.9585952758789 50.478721618652344 96.93240356445312" stroke-width="3.0" fill="none" stroke="rgb(0, 0, 0)" stroke-opacity="1.0" stroke-linecap="round" stroke-linejoin="round"/>
    <path d="M 106.42742156982422 68.1103515625 C 106.62296295166016 58.40495300292969 107.33665466308594 65.3088150024414 105.8772201538086 70.54468536376953" stroke-width="3.0" fill="none" stroke="rgb(0, 0, 0)" stroke-opacity="1.0" stroke-linecap="round" stroke-linejoin="round"/>
    <path d="M 53.909236907958984 89.32369232177734 C 47.61622619628906 102.7076644897461 51.95035934448242 98.01905822753906 51.0030517578125 96.94820404052734" stroke-width="3.0" fill="none" stroke="rgb(0, 0, 0)" stroke-opacity="1.0" stroke-linecap="round" stroke-linejoin="round"/>
    <path d="M 169.90225219726562 63.563621520996094 C 173.85198974609375 71.70155334472656 161.11669921875 75.30065155029297 164.81448364257812 82.94615173339844" stroke-width="3.0" fill="none" stroke="rgb(0, 0, 0)" stroke-opacity="1.0" stroke-linecap="round" stroke-linejoin="round"/>
    <path d="M 105.82105255126953 123.2258529663086 C 109.2531967163086 115.69957733154297 106.87948608398438 121.32913208007812 105.53450012207031 122.47938537597656" stroke-width="3.0" fill="none" stroke="rgb(0, 0, 0)" stroke-opacity="1.0" stroke-linecap="round" stroke-linejoin="round"/>
    <path d="M 38.357540130615234 157.02902221679688 C 36.12841033935547 174.35748291015625 34.07003402709961 165.11456298828125 32.388301849365234 178.42782592773438" stroke-width="3.0" fill="none" stroke="rgb(0, 0, 0)" stroke-opacity="1.0" stroke-linecap="round" stroke-linejoin="round"/>
    <path d="M 111.13833618164062 54.729347229003906 C 114.14207458496094 65.5072021484375 122.39649200439453 68.11747741699219 121.22057342529297 74.22029876708984" stroke-width="3.0" fill="none" stroke="rgb(0, 0, 0)" stroke-opacity="1.0" stroke-linecap="round" stroke-linejoin="round"/>
    <path d="M 70.36438751220703 107.22653198242188 C 79.36388397216797 106.66178894042969 75.57782745361328 113.56669616699219 89.24640655517578 110.84068298339844" stroke-width="3.0" fill="none" stroke="rgb(0, 0, 0)" stroke-opacity="1.0" stroke-linecap="round" stroke-linejoin="round"/>
    <path d="M 24.08391761779785 88.41858673095703 C 19.695404052734375 73.248046875 15.656709671020508 79.9992904663086 16.992372512817383 79.67794036865234" stroke-width="3.0" fill="none" stroke="rgb(0, 0, 0)" stroke-opacity="1.0" stroke-linecap="round" stroke-linejoin="round"/>
    <path d="M 162.8528289794922 85.67523193359375 C 168.987060546875 71.56782531738281 158.85618591308594 85.89777374267578 178.4543914794922 98.133056640625" stroke-width="3.0" fill="none" stroke="rgb(0, 0, 0)" stroke-opacity="1.0" stroke-linecap="round" stroke-linejoin="round"/>
    <path d="M 105.04159545898438 128.39578247070312 C 112.30244445800781 139.27066040039062 112.28702545166016 145.9635467529297 114.93856048583984 164.17469787597656" stroke-width="3.0" fill="none" stroke="rgb(0, 0, 0)" stroke-opacity="1.0" stroke-linecap="round" stroke-linejoin="round"/>
    <path d="M 179.4698028564453 46.84050369262695 C 187.43228149414062 35.130680084228516 182.4230499267578 56.46855545043945 195.85569763183594 54.47498321533203" stroke-width="3.0" fill="none" stroke="rgb(0, 0, 0)" stroke-opacity="1.0" stroke-linecap="round" stroke-linejoin="round"/>
    <path d="M 197.70944213867188 55.454471588134766 C 191.52853393554688 50.17509078979492 196.4210968017578 52.85697555541992 218.59471130371094 53.03772735595703" stroke-width="3.0" fill="none" stroke="rgb(0, 0, 0)" stroke-opacity="1.0" stroke-linecap="round" stroke-linejoin="round"/>
  </g>
</svg>
