<?xml version="1.0" ?>
<svg xmlns="http://www.w3.org/2000/svg" version="1.1" width="224" height="224">
  <defs/>
  <g>
    <path d="M 138.9438018798828 106.85601806640625 C 121.86006927490234 89.99038696289062 152.44094848632812 139.39540100097656 118.25373840332031 66.89447021484375" stroke-width="3.0" fill="none" stroke="rgb(0, 0, 0)" stroke-opacity="1.0" stroke-linecap="round" stroke-linejoin="round"/>
    <path d="M 104.5649185180664 93.96470642089844 C 109.72364044189453 103.41668701171875 101.25159454345703 106.7494888305664 106.4483642578125 112.81610870361328" stroke-width="3.0" fill="none" stroke="rgb(0, 0, 0)" stroke-opacity="1.0" stroke-linecap="round" stroke-linejoin="round"/>
    <path d="M 131.87380981445312 108.8952865600586 C 129.95555114746094 83.79486083984375 140.7783203125 134.92254638671875 187.32345581054688 78.68634796142578" stroke-width="3.0" fill="none" stroke="rgb(0, 0, 0)" stroke-opacity="1.0" stroke-linecap="round" stroke-linejoin="round"/>
    <path d="M 71.28836059570312 37.54111099243164 C 64.32844543457031 38.293758392333984 56.096519470214844 45.27752685546875 55.893157958984375 46.212486267089844" stroke-width="3.0" fill="none" stroke="rgb(0, 0, 0)" stroke-opacity="1.0" stroke-linecap="round" stroke-linejoin="round"/>
    <path d="M 137.99215698242188 80.40567016601562 C 108.60702514648438 39.18745422363281 112.68221282958984 64.52788543701172 94.7779312133789 42.47565460205078" stroke-width="3.0" fill="none" stroke="rgb(0, 0, 0)" stroke-opacity="1.0" stroke-linecap="round" stroke-linejoin="round"/>
    <path d="M 68.20589447021484 111.43077850341797 C 35.47856521606445 80.30664825439453 62.12300491333008 99.90229034423828 40.869285583496094 71.57254028320312" stroke-width="3.0" fill="none" stroke="rgb(0, 0, 0)" stroke-opacity="1.0" stroke-linecap="round" stroke-linejoin="round"/>
    <path d="M 182.04188537597656 64.2904281616211 C 178.097900390625 32.729217529296875 191.2637939453125 49.284759521484375 186.35470581054688 77.12477111816406" stroke-width="3.0" fill="none" stroke="rgb(0, 0, 0)" stroke-opacity="1.0" stroke-linecap="round" stroke-linejoin="round"/>
    <path d="M 103.03402709960938 195.1211700439453 C 117.79176330566406 79.80377960205078 123.26889038085938 128.09165954589844 125.79676055908203 102.95781707763672" stroke-width="3.0" fill="none" stroke="rgb(0, 0, 0)" stroke-opacity="1.0" stroke-linecap="round" stroke-linejoin="round"/>
    <path d="M 46.01129150390625 104.41026306152344 C 24.868112564086914 176.77581787109375 17.696565628051758 122.83761596679688 41.24736785888672 200.6147003173828" stroke-width="3.0" fill="none" stroke="rgb(0, 0, 0)" stroke-opacity="1.0" stroke-linecap="round" stroke-linejoin="round"/>
    <path d="M 65.40676879882812 41.272613525390625 C 98.83576202392578 15.389297485351562 157.02781677246094 126.26168060302734 172.47157287597656 65.53494262695312" stroke-width="3.0" fill="none" stroke="rgb(0, 0, 0)" stroke-opacity="1.0" stroke-linecap="round" stroke-linejoin="round"/>
    <path d="M 47.445682525634766 101.74327087402344 C 84.96849060058594 120.3657455444336 81.9496078491211 112.48384094238281 104.03191375732422 117.42149353027344" stroke-width="3.0" fill="none" stroke="rgb(0, 0, 0)" stroke-opacity="1.0" stroke-linecap="round" stroke-linejoin="round"/>
    <path d="M 20.528444290161133 135.93417358398438 C 11.484759330749512 69.11508178710938 10.521772384643555 87.00453186035156 55.8488883972168 45.700130462646484" stroke-width="3.0" fill="none" stroke="rgb(0, 0, 0)" stroke-opacity="1.0" stroke-linecap="round" stroke-linejoin="round"/>
    <path d="M 178.0662841796875 86.70551300048828 C 201.48480224609375 26.439050674438477 196.48280334472656 23.665647506713867 170.80917358398438 90.9117660522461" stroke-width="3.0" fill="none" stroke="rgb(0, 0, 0)" stroke-opacity="1.0" stroke-linecap="round" stroke-linejoin="round"/>
    <path d="M 105.63522338867188 117.39753723144531 C 109.47080993652344 183.6343231201172 73.66294860839844 208.15084838867188 110.13575744628906 192.7418670654297" stroke-width="3.0" fill="none" stroke="rgb(0, 0, 0)" stroke-opacity="1.0" stroke-linecap="round" stroke-linejoin="round"/>
    <path d="M 172.3460235595703 68.27583312988281 C 178.00794982910156 3.726837158203125 218.8681640625 77.87334442138672 208.4127197265625 47.418392181396484" stroke-width="3.0" fill="none" stroke="rgb(0, 0, 0)" stroke-opacity="1.0" stroke-linecap="round" stroke-linejoin="round"/>
    <path d="M 190.7869873046875 61.384037017822266 C 156.13760375976562 45.25949478149414 261.222412109375 45.07581329345703 197.47181701660156 57.43120193481445" stroke-width="3.0" fill="none" stroke="rgb(0, 0, 0)" stroke-opacity="1.0" stroke-linecap="round" stroke-linejoin="round"/>
  </g>
</svg>
