<?xml version="1.0" ?>
<svg xmlns="http://www.w3.org/2000/svg" version="1.1" width="224" height="224">
  <defs/>
  <g>
    <path d="M 153.83151245117188 101.5992431640625 C 128.06948852539062 99.19438934326172 159.958740234375 110.12394714355469 131.41134643554688 90.27637481689453" stroke-width="3.0" fill="none" stroke="rgb(0, 0, 0)" stroke-opacity="1.0" stroke-linecap="round" stroke-linejoin="round"/>
    <path d="M 113.08694458007812 91.65162658691406 C 111.73800659179688 100.29263305664062 104.9696044921875 97.90257263183594 108.736328125 106.18180084228516" stroke-width="3.0" fill="none" stroke="rgb(0, 0, 0)" stroke-opacity="1.0" stroke-linecap="round" stroke-linejoin="round"/>
    <path d="M 136.78793334960938 105.0849838256836 C 151.467041015625 84.06057739257812 115.14342498779297 117.05096435546875 169.51107788085938 96.8966064453125" stroke-width="3.0" fill="none" stroke="rgb(0, 0, 0)" stroke-opacity="1.0" stroke-linecap="round" stroke-linejoin="round"/>
    <path d="M 60.59986877441406 45.29440689086914 C 53.353546142578125 46.36428451538086 41.34916305541992 62.12201690673828 52.20401382446289 49.85465621948242" stroke-width="3.0" fill="none" stroke="rgb(0, 0, 0)" stroke-opacity="1.0" stroke-linecap="round" stroke-linejoin="round"/>
    <path d="M 105.28771209716797 52.08454895019531 C 117.22006225585938 55.98542404174805 101.6549301147461 54.87607955932617 99.64358520507812 45.2442741394043" stroke-width="3.0" fill="none" stroke="rgb(0, 0, 0)" stroke-opacity="1.0" stroke-linecap="round" stroke-linejoin="round"/>
    <path d="M 75.47433471679688 112.53155517578125 C 39.42884063720703 85.00981903076172 59.303070068359375 95.44295501708984 45.51837158203125 76.03296661376953" stroke-width="3.0" fill="none" stroke="rgb(0, 0, 0)" stroke-opacity="1.0" stroke-linecap="round" stroke-linejoin="round"/>
    <path d="M 185.43478393554688 40.94580841064453 C 180.87689208984375 66.96061706542969 212.9617919921875 71.08718872070312 178.22142028808594 86.51315307617188" stroke-width="3.0" fill="none" stroke="rgb(0, 0, 0)" stroke-opacity="1.0" stroke-linecap="round" stroke-linejoin="round"/>
    <path d="M 106.97528076171875 171.61383056640625 C 128.2746124267578 85.61089324951172 115.81205749511719 124.10986328125 131.12515258789062 102.11988067626953" stroke-width="3.0" fill="none" stroke="rgb(0, 0, 0)" stroke-opacity="1.0" stroke-linecap="round" stroke-linejoin="round"/>
    <path d="M 47.96908187866211 100.70415496826172 C 19.218435287475586 188.44468688964844 18.973617553710938 124.83893585205078 37.40973663330078 198.22244262695312" stroke-width="3.0" fill="none" stroke="rgb(0, 0, 0)" stroke-opacity="1.0" stroke-linecap="round" stroke-linejoin="round"/>
    <path d="M 62.29534149169922 43.62015914916992 C 88.3294448852539 14.37674331665039 134.53482055664062 89.91352844238281 165.0153350830078 84.03266143798828" stroke-width="3.0" fill="none" stroke="rgb(0, 0, 0)" stroke-opacity="1.0" stroke-linecap="round" stroke-linejoin="round"/>
    <path d="M 47.21851348876953 105.79590606689453 C 95.70738220214844 122.05872344970703 85.57296752929688 109.75714874267578 106.92864990234375 115.37638092041016" stroke-width="3.0" fill="none" stroke="rgb(0, 0, 0)" stroke-opacity="1.0" stroke-linecap="round" stroke-linejoin="round"/>
    <path d="M 36.46342849731445 83.4681396484375 C 33.85237503051758 76.3206558227539 24.197114944458008 73.45974731445312 26.40845489501953 74.51802825927734" stroke-width="3.0" fill="none" stroke="rgb(0, 0, 0)" stroke-opacity="1.0" stroke-linecap="round" stroke-linejoin="round"/>
    <path d="M 166.02952575683594 86.14884185791016 C 221.01187133789062 76.4154281616211 176.79373168945312 81.36793518066406 173.20001220703125 93.95116424560547" stroke-width="3.0" fill="none" stroke="rgb(0, 0, 0)" stroke-opacity="1.0" stroke-linecap="round" stroke-linejoin="round"/>
    <path d="M 108.15447235107422 113.00248718261719 C 108.76508331298828 178.4801025390625 80.29592895507812 191.48468017578125 109.9769515991211 194.72662353515625" stroke-width="3.0" fill="none" stroke="rgb(0, 0, 0)" stroke-opacity="1.0" stroke-linecap="round" stroke-linejoin="round"/>
    <path d="M 178.86712646484375 82.79757690429688 C 173.2091064453125 -9.234907150268555 188.85377502441406 69.26701354980469 205.5065460205078 48.573211669921875" stroke-width="3.0" fill="none" stroke="rgb(0, 0, 0)" stroke-opacity="1.0" stroke-linecap="round" stroke-linejoin="round"/>
    <path d="M 196.3718719482422 60.892494201660156 C 151.14122009277344 37.59193420410156 218.56051635742188 42.58469009399414 201.043212890625 58.28742218017578" stroke-width="3.0" fill="none" stroke="rgb(0, 0, 0)" stroke-opacity="1.0" stroke-linecap="round" stroke-linejoin="round"/>
  </g>
</svg>
