<?xml version="1.0" ?>
<svg xmlns="http://www.w3.org/2000/svg" version="1.1" width="224" height="224">
  <defs/>
  <g>
    <path d="M 143.9105682373047 102.04846954345703 C 124.0752944946289 84.08868408203125 130.9811553955078 79.87916564941406 130.88475036621094 90.91976165771484" stroke-width="3.0" fill="none" stroke="rgb(0, 0, 0)" stroke-opacity="1.0" stroke-linecap="round" stroke-linejoin="round"/>
    <path d="M 103.34378814697266 93.93836975097656 C 101.35680389404297 97.10775756835938 97.80294799804688 103.8544692993164 105.1475830078125 109.91992950439453" stroke-width="3.0" fill="none" stroke="rgb(0, 0, 0)" stroke-opacity="1.0" stroke-linecap="round" stroke-linejoin="round"/>
    <path d="M 127.04380798339844 110.02213287353516 C 149.19961547851562 95.81950378417969 118.61275482177734 95.20269775390625 157.83705139160156 100.53791046142578" stroke-width="3.0" fill="none" stroke="rgb(0, 0, 0)" stroke-opacity="1.0" stroke-linecap="round" stroke-linejoin="round"/>
    <path d="M 57.41730880737305 43.88521957397461 C 48.607181549072266 47.3465576171875 26.18817901611328 72.419921875 42.09468460083008 57.913352966308594" stroke-width="3.0" fill="none" stroke="rgb(0, 0, 0)" stroke-opacity="1.0" stroke-linecap="round" stroke-linejoin="round"/>
    <path d="M 107.44560241699219 53.586299896240234 C 121.13996887207031 54.456424713134766 107.29664611816406 60.01019287109375 102.25912475585938 49.29121017456055" stroke-width="3.0" fill="none" stroke="rgb(0, 0, 0)" stroke-opacity="1.0" stroke-linecap="round" stroke-linejoin="round"/>
    <path d="M 71.88941192626953 115.26251220703125 C 54.301612854003906 91.85871124267578 51.55503463745117 87.35543060302734 48.51700973510742 77.4024429321289" stroke-width="3.0" fill="none" stroke="rgb(0, 0, 0)" stroke-opacity="1.0" stroke-linecap="round" stroke-linejoin="round"/>
    <path d="M 185.2768096923828 45.639801025390625 C 174.28231811523438 66.03545379638672 192.87493896484375 62.38520431518555 168.9961395263672 79.12979125976562" stroke-width="3.0" fill="none" stroke="rgb(0, 0, 0)" stroke-opacity="1.0" stroke-linecap="round" stroke-linejoin="round"/>
    <path d="M 114.8772964477539 150.6930389404297 C 127.14082336425781 92.44170379638672 119.04193115234375 127.6024398803711 130.3033447265625 103.05866241455078" stroke-width="3.0" fill="none" stroke="rgb(0, 0, 0)" stroke-opacity="1.0" stroke-linecap="round" stroke-linejoin="round"/>
    <path d="M 50.06685256958008 96.96125030517578 C 18.2896785736084 178.06443786621094 11.881769180297852 115.61640930175781 41.60704803466797 200.06260681152344" stroke-width="3.0" fill="none" stroke="rgb(0, 0, 0)" stroke-opacity="1.0" stroke-linecap="round" stroke-linejoin="round"/>
    <path d="M 58.55605697631836 43.100704193115234 C 91.36167907714844 15.058512687683105 128.82496643066406 83.4352035522461 150.15142822265625 82.71892547607422" stroke-width="3.0" fill="none" stroke="rgb(0, 0, 0)" stroke-opacity="1.0" stroke-linecap="round" stroke-linejoin="round"/>
    <path d="M 48.96760559082031 106.54783630371094 C 91.85848236083984 125.84036254882812 78.54373168945312 109.9710922241211 105.34207916259766 115.31593322753906" stroke-width="3.0" fill="none" stroke="rgb(0, 0, 0)" stroke-opacity="1.0" stroke-linecap="round" stroke-linejoin="round"/>
    <path d="M 43.33787155151367 84.08314514160156 C 34.566890716552734 67.425537109375 27.08827781677246 66.29136657714844 28.722347259521484 66.50413513183594" stroke-width="3.0" fill="none" stroke="rgb(0, 0, 0)" stroke-opacity="1.0" stroke-linecap="round" stroke-linejoin="round"/>
    <path d="M 152.34112548828125 82.86819458007812 C 212.99874877929688 68.80738830566406 162.7560272216797 71.79166412353516 175.38735961914062 94.5036849975586" stroke-width="3.0" fill="none" stroke="rgb(0, 0, 0)" stroke-opacity="1.0" stroke-linecap="round" stroke-linejoin="round"/>
    <path d="M 108.22608947753906 113.78018951416016 C 114.14244842529297 162.37759399414062 82.48388671875 200.42147827148438 113.2763671875 190.0772247314453" stroke-width="3.0" fill="none" stroke="rgb(0, 0, 0)" stroke-opacity="1.0" stroke-linecap="round" stroke-linejoin="round"/>
    <path d="M 172.30465698242188 62.72956466674805 C 194.71902465820312 9.320406913757324 182.1312713623047 60.0942497253418 209.87701416015625 46.42120361328125" stroke-width="3.0" fill="none" stroke="rgb(0, 0, 0)" stroke-opacity="1.0" stroke-linecap="round" stroke-linejoin="round"/>
    <path d="M 200.39683532714844 62.55449676513672 C 168.49569702148438 34.48312759399414 212.498779296875 39.63484573364258 202.1541748046875 57.158653259277344" stroke-width="3.0" fill="none" stroke="rgb(0, 0, 0)" stroke-opacity="1.0" stroke-linecap="round" stroke-linejoin="round"/>
  </g>
</svg>
