<?xml version="1.0" ?>
<svg xmlns="http://www.w3.org/2000/svg" version="1.1" width="224" height="224">
  <defs/>
  <g>
    <path d="M 142.4625244140625 99.92032623291016 C 123.02230834960938 76.3682861328125 127.75130462646484 69.29875183105469 129.93701171875 89.074951171875" stroke-width="3.0" fill="none" stroke="rgb(0, 0, 0)" stroke-opacity="1.0" stroke-linecap="round" stroke-linejoin="round"/>
    <path d="M 93.13199615478516 89.56725311279297 C 93.48722076416016 94.7994384765625 99.54428100585938 106.7261962890625 105.80287170410156 111.06441497802734" stroke-width="3.0" fill="none" stroke="rgb(0, 0, 0)" stroke-opacity="1.0" stroke-linecap="round" stroke-linejoin="round"/>
    <path d="M 133.7235107421875 108.59766387939453 C 146.22120666503906 102.33040618896484 124.45346069335938 92.2642593383789 150.7161865234375 108.9945068359375" stroke-width="3.0" fill="none" stroke="rgb(0, 0, 0)" stroke-opacity="1.0" stroke-linecap="round" stroke-linejoin="round"/>
    <path d="M 60.550106048583984 42.93038558959961 C 54.49443817138672 56.94382858276367 25.437898635864258 75.12321472167969 36.505680084228516 69.80909729003906" stroke-width="3.0" fill="none" stroke="rgb(0, 0, 0)" stroke-opacity="1.0" stroke-linecap="round" stroke-linejoin="round"/>
    <path d="M 111.05958557128906 56.29739761352539 C 116.79034423828125 67.56558990478516 117.40376281738281 63.33604049682617 107.98246002197266 55.77932357788086" stroke-width="3.0" fill="none" stroke="rgb(0, 0, 0)" stroke-opacity="1.0" stroke-linecap="round" stroke-linejoin="round"/>
    <path d="M 62.94467544555664 106.57022857666016 C 58.7745361328125 92.11036682128906 45.949520111083984 85.40706634521484 47.309410095214844 71.3742446899414" stroke-width="3.0" fill="none" stroke="rgb(0, 0, 0)" stroke-opacity="1.0" stroke-linecap="round" stroke-linejoin="round"/>
    <path d="M 179.71844482421875 41.59230041503906 C 175.3357696533203 78.4207763671875 192.50277709960938 74.16897583007812 166.6110076904297 81.83992004394531" stroke-width="3.0" fill="none" stroke="rgb(0, 0, 0)" stroke-opacity="1.0" stroke-linecap="round" stroke-linejoin="round"/>
    <path d="M 114.31906127929688 140.74237060546875 C 126.62323760986328 96.14686584472656 110.06404876708984 124.8161849975586 127.71747589111328 110.07185363769531" stroke-width="3.0" fill="none" stroke="rgb(0, 0, 0)" stroke-opacity="1.0" stroke-linecap="round" stroke-linejoin="round"/>
    <path d="M 40.53356170654297 98.17568969726562 C 19.492982864379883 182.95736694335938 12.429421424865723 128.787841796875 41.83777618408203 197.64686584472656" stroke-width="3.0" fill="none" stroke="rgb(0, 0, 0)" stroke-opacity="1.0" stroke-linecap="round" stroke-linejoin="round"/>
    <path d="M 62.60507583618164 41.86928176879883 C 100.12857055664062 30.716506958007812 123.16570281982422 73.56159973144531 147.330810546875 81.06684112548828" stroke-width="3.0" fill="none" stroke="rgb(0, 0, 0)" stroke-opacity="1.0" stroke-linecap="round" stroke-linejoin="round"/>
    <path d="M 43.58130645751953 94.73358154296875 C 84.59449768066406 124.50971984863281 76.37063598632812 111.80201721191406 105.62216186523438 117.76663208007812" stroke-width="3.0" fill="none" stroke="rgb(0, 0, 0)" stroke-opacity="1.0" stroke-linecap="round" stroke-linejoin="round"/>
    <path d="M 35.67172622680664 79.61980438232422 C 35.469627380371094 72.06826782226562 23.662675857543945 70.24749755859375 21.798316955566406 71.17254638671875" stroke-width="3.0" fill="none" stroke="rgb(0, 0, 0)" stroke-opacity="1.0" stroke-linecap="round" stroke-linejoin="round"/>
    <path d="M 149.0241241455078 81.80863952636719 C 207.22769165039062 78.52611541748047 165.26177978515625 78.06649780273438 171.7574462890625 100.8089599609375" stroke-width="3.0" fill="none" stroke="rgb(0, 0, 0)" stroke-opacity="1.0" stroke-linecap="round" stroke-linejoin="round"/>
    <path d="M 105.7809829711914 109.7098388671875 C 115.96053314208984 154.39361572265625 79.77516174316406 200.27833557128906 110.68367767333984 191.28196716308594" stroke-width="3.0" fill="none" stroke="rgb(0, 0, 0)" stroke-opacity="1.0" stroke-linecap="round" stroke-linejoin="round"/>
    <path d="M 174.10989379882812 60.04584884643555 C 195.77670288085938 5.787966728210449 183.77098083496094 69.39633178710938 205.5362091064453 45.871063232421875" stroke-width="3.0" fill="none" stroke="rgb(0, 0, 0)" stroke-opacity="1.0" stroke-linecap="round" stroke-linejoin="round"/>
    <path d="M 197.33958435058594 64.5820083618164 C 157.85400390625 40.916893005371094 204.3643341064453 35.32659149169922 202.167236328125 58.679866790771484" stroke-width="3.0" fill="none" stroke="rgb(0, 0, 0)" stroke-opacity="1.0" stroke-linecap="round" stroke-linejoin="round"/>
  </g>
</svg>
