<?xml version="1.0" ?>
<svg xmlns="http://www.w3.org/2000/svg" version="1.1" width="224" height="224">
  <defs/>
  <g>
    <path d="M 153.50933837890625 101.09886932373047 C 131.88711547851562 95.099365234375 157.76841735839844 111.28976440429688 134.61917114257812 92.04602813720703" stroke-width="3.0" fill="none" stroke="rgb(0, 0, 0)" stroke-opacity="1.0" stroke-linecap="round" stroke-linejoin="round"/>
    <path d="M 109.22794342041016 89.04227447509766 C 109.52133178710938 95.80706787109375 107.92626953125 97.0865249633789 112.66431427001953 104.56244659423828" stroke-width="3.0" fill="none" stroke="rgb(0, 0, 0)" stroke-opacity="1.0" stroke-linecap="round" stroke-linejoin="round"/>
    <path d="M 135.2992401123047 105.86426544189453 C 154.6235809326172 91.0569076538086 118.15890502929688 111.02975463867188 164.83567810058594 99.22078704833984" stroke-width="3.0" fill="none" stroke="rgb(0, 0, 0)" stroke-opacity="1.0" stroke-linecap="round" stroke-linejoin="round"/>
    <path d="M 59.64141082763672 45.96916198730469 C 55.018550872802734 53.89527130126953 36.774085998535156 66.40843200683594 50.76723861694336 56.907081604003906" stroke-width="3.0" fill="none" stroke="rgb(0, 0, 0)" stroke-opacity="1.0" stroke-linecap="round" stroke-linejoin="round"/>
    <path d="M 99.96929931640625 49.18009948730469 C 120.52275848388672 55.893836975097656 102.14873504638672 56.33607482910156 98.35978698730469 46.003841400146484" stroke-width="3.0" fill="none" stroke="rgb(0, 0, 0)" stroke-opacity="1.0" stroke-linecap="round" stroke-linejoin="round"/>
    <path d="M 75.38075256347656 112.55659484863281 C 46.02597427368164 90.43852233886719 59.71168899536133 91.13926696777344 46.47046661376953 78.29499053955078" stroke-width="3.0" fill="none" stroke="rgb(0, 0, 0)" stroke-opacity="1.0" stroke-linecap="round" stroke-linejoin="round"/>
    <path d="M 190.81825256347656 43.132774353027344 C 180.09153747558594 72.10243225097656 210.2054443359375 74.9431381225586 175.64256286621094 89.61774444580078" stroke-width="3.0" fill="none" stroke="rgb(0, 0, 0)" stroke-opacity="1.0" stroke-linecap="round" stroke-linejoin="round"/>
    <path d="M 109.93501281738281 163.6260223388672 C 127.97026824951172 90.57382202148438 116.72137451171875 129.69039916992188 133.38546752929688 101.56118774414062" stroke-width="3.0" fill="none" stroke="rgb(0, 0, 0)" stroke-opacity="1.0" stroke-linecap="round" stroke-linejoin="round"/>
    <path d="M 48.31248092651367 96.30537414550781 C 24.954130172729492 180.7316436767578 22.333662033081055 119.35018157958984 38.90546417236328 197.08901977539062" stroke-width="3.0" fill="none" stroke="rgb(0, 0, 0)" stroke-opacity="1.0" stroke-linecap="round" stroke-linejoin="round"/>
    <path d="M 58.97943878173828 46.637203216552734 C 92.47035217285156 16.474628448486328 134.27532958984375 88.59062957763672 158.97633361816406 85.24700927734375" stroke-width="3.0" fill="none" stroke="rgb(0, 0, 0)" stroke-opacity="1.0" stroke-linecap="round" stroke-linejoin="round"/>
    <path d="M 48.60550308227539 102.42845916748047 C 98.65496063232422 126.88526916503906 93.24229431152344 108.5672378540039 106.69193267822266 117.56680297851562" stroke-width="3.0" fill="none" stroke="rgb(0, 0, 0)" stroke-opacity="1.0" stroke-linecap="round" stroke-linejoin="round"/>
    <path d="M 37.06430435180664 87.94735717773438 C 38.206825256347656 68.82432556152344 28.42650032043457 67.42386627197266 30.903562545776367 66.61418151855469" stroke-width="3.0" fill="none" stroke="rgb(0, 0, 0)" stroke-opacity="1.0" stroke-linecap="round" stroke-linejoin="round"/>
    <path d="M 161.96966552734375 84.73617553710938 C 221.8190460205078 81.13340759277344 170.14715576171875 78.24966430664062 169.33108520507812 96.26145935058594" stroke-width="3.0" fill="none" stroke="rgb(0, 0, 0)" stroke-opacity="1.0" stroke-linecap="round" stroke-linejoin="round"/>
    <path d="M 106.0114974975586 110.49079132080078 C 111.67820739746094 178.94590759277344 81.47737884521484 196.81248474121094 110.94808197021484 193.26536560058594" stroke-width="3.0" fill="none" stroke="rgb(0, 0, 0)" stroke-opacity="1.0" stroke-linecap="round" stroke-linejoin="round"/>
    <path d="M 175.0826873779297 79.4864273071289 C 180.5811309814453 -9.74316692352295 186.30567932128906 68.46102905273438 207.0391845703125 43.243431091308594" stroke-width="3.0" fill="none" stroke="rgb(0, 0, 0)" stroke-opacity="1.0" stroke-linecap="round" stroke-linejoin="round"/>
    <path d="M 197.66114807128906 62.16524887084961 C 153.5977020263672 37.40454864501953 222.05767822265625 40.86268997192383 202.998046875 55.882659912109375" stroke-width="3.0" fill="none" stroke="rgb(0, 0, 0)" stroke-opacity="1.0" stroke-linecap="round" stroke-linejoin="round"/>
  </g>
</svg>
