<?xml version="1.0" ?>
<svg xmlns="http://www.w3.org/2000/svg" version="1.1" width="224" height="224">
  <defs/>
  <g>
    <path d="M 141.26791381835938 94.25902557373047 C 126.50177001953125 80.01040649414062 133.6127166748047 72.72926330566406 132.72207641601562 78.49749755859375" stroke-width="3.0" fill="none" stroke="rgb(0, 0, 0)" stroke-opacity="1.0" stroke-linecap="round" stroke-linejoin="round"/>
    <path d="M 96.52023315429688 91.48265075683594 C 98.73648071289062 94.9205322265625 99.27487182617188 107.2882308959961 107.8396987915039 110.50968170166016" stroke-width="3.0" fill="none" stroke="rgb(0, 0, 0)" stroke-opacity="1.0" stroke-linecap="round" stroke-linejoin="round"/>
    <path d="M 144.5815887451172 106.1070327758789 C 150.35787963867188 97.77894592285156 134.86709594726562 71.6014404296875 153.90907287597656 101.2041015625" stroke-width="3.0" fill="none" stroke="rgb(0, 0, 0)" stroke-opacity="1.0" stroke-linecap="round" stroke-linejoin="round"/>
    <path d="M 54.207786560058594 49.263607025146484 C 60.77229309082031 80.10731506347656 46.24334716796875 101.04469299316406 50.628211975097656 86.52203369140625" stroke-width="3.0" fill="none" stroke="rgb(0, 0, 0)" stroke-opacity="1.0" stroke-linecap="round" stroke-linejoin="round"/>
    <path d="M 115.80863189697266 52.8492431640625 C 119.86857604980469 56.85396957397461 118.99588012695312 55.39220428466797 117.46742248535156 54.837703704833984" stroke-width="3.0" fill="none" stroke="rgb(0, 0, 0)" stroke-opacity="1.0" stroke-linecap="round" stroke-linejoin="round"/>
    <path d="M 62.105289459228516 86.09843444824219 C 50.88926315307617 91.40962219238281 50.402244567871094 86.66419219970703 55.60630798339844 76.50438690185547" stroke-width="3.0" fill="none" stroke="rgb(0, 0, 0)" stroke-opacity="1.0" stroke-linecap="round" stroke-linejoin="round"/>
    <path d="M 183.6099395751953 45.531227111816406 C 181.49002075195312 80.8675537109375 175.20481872558594 70.51588439941406 166.19081115722656 81.28146362304688" stroke-width="3.0" fill="none" stroke="rgb(0, 0, 0)" stroke-opacity="1.0" stroke-linecap="round" stroke-linejoin="round"/>
    <path d="M 112.86000061035156 135.93775939941406 C 126.68948364257812 106.5570068359375 105.44867706298828 132.29188537597656 118.19481658935547 120.36068725585938" stroke-width="3.0" fill="none" stroke="rgb(0, 0, 0)" stroke-opacity="1.0" stroke-linecap="round" stroke-linejoin="round"/>
    <path d="M 30.959774017333984 123.60385131835938 C 22.767566680908203 173.5955810546875 23.920137405395508 145.07899475097656 45.87672424316406 192.972412109375" stroke-width="3.0" fill="none" stroke="rgb(0, 0, 0)" stroke-opacity="1.0" stroke-linecap="round" stroke-linejoin="round"/>
    <path d="M 78.10760498046875 37.6600341796875 C 117.56071472167969 43.99231719970703 125.88166809082031 65.49516296386719 133.72454833984375 82.3851318359375" stroke-width="3.0" fill="none" stroke="rgb(0, 0, 0)" stroke-opacity="1.0" stroke-linecap="round" stroke-linejoin="round"/>
    <path d="M 44.47269821166992 95.42449188232422 C 69.80955505371094 133.45675659179688 70.84625244140625 123.37141418457031 102.87615966796875 126.6512680053711" stroke-width="3.0" fill="none" stroke="rgb(0, 0, 0)" stroke-opacity="1.0" stroke-linecap="round" stroke-linejoin="round"/>
    <path d="M 30.25420379638672 94.9810562133789 C 25.701377868652344 75.63270568847656 19.80126953125 76.12896728515625 21.008739471435547 74.10874938964844" stroke-width="3.0" fill="none" stroke="rgb(0, 0, 0)" stroke-opacity="1.0" stroke-linecap="round" stroke-linejoin="round"/>
    <path d="M 145.1678466796875 81.99417877197266 C 196.09207153320312 72.75714874267578 156.6823272705078 75.3179702758789 172.18026733398438 96.53422546386719" stroke-width="3.0" fill="none" stroke="rgb(0, 0, 0)" stroke-opacity="1.0" stroke-linecap="round" stroke-linejoin="round"/>
    <path d="M 108.17683410644531 116.66217041015625 C 120.62601470947266 142.0670623779297 84.32269287109375 203.47137451171875 111.0754623413086 194.16409301757812" stroke-width="3.0" fill="none" stroke="rgb(0, 0, 0)" stroke-opacity="1.0" stroke-linecap="round" stroke-linejoin="round"/>
    <path d="M 179.94595336914062 60.617767333984375 C 193.10406494140625 12.602350234985352 181.23133850097656 60.96049118041992 203.74754333496094 49.22309494018555" stroke-width="3.0" fill="none" stroke="rgb(0, 0, 0)" stroke-opacity="1.0" stroke-linecap="round" stroke-linejoin="round"/>
    <path d="M 197.85838317871094 65.48457336425781 C 169.3396759033203 42.754695892333984 202.8834991455078 34.338436126708984 197.90328979492188 59.88276290893555" stroke-width="3.0" fill="none" stroke="rgb(0, 0, 0)" stroke-opacity="1.0" stroke-linecap="round" stroke-linejoin="round"/>
  </g>
</svg>
