<?xml version="1.0" ?>
<svg xmlns="http://www.w3.org/2000/svg" version="1.1" width="224" height="224">
  <defs/>
  <g>
    <path d="M 138.19297790527344 104.74324798583984 C 119.51960754394531 89.62232208251953 152.7713623046875 141.8223419189453 121.85913848876953 68.36544036865234" stroke-width="3.0" fill="none" stroke="rgb(0, 0, 0)" stroke-opacity="1.0" stroke-linecap="round" stroke-linejoin="round"/>
    <path d="M 107.09387969970703 96.91445922851562 C 109.3995590209961 99.19945526123047 101.96398162841797 106.5186538696289 106.439208984375 112.26188659667969" stroke-width="3.0" fill="none" stroke="rgb(0, 0, 0)" stroke-opacity="1.0" stroke-linecap="round" stroke-linejoin="round"/>
    <path d="M 130.721923828125 108.21041870117188 C 132.85987854003906 79.93260192871094 140.38433837890625 132.0465850830078 182.2571258544922 84.54894256591797" stroke-width="3.0" fill="none" stroke="rgb(0, 0, 0)" stroke-opacity="1.0" stroke-linecap="round" stroke-linejoin="round"/>
    <path d="M 66.0617904663086 41.02410888671875 C 64.08512115478516 41.103302001953125 55.75967788696289 46.42159652709961 60.01964569091797 44.54283905029297" stroke-width="3.0" fill="none" stroke="rgb(0, 0, 0)" stroke-opacity="1.0" stroke-linecap="round" stroke-linejoin="round"/>
    <path d="M 129.5362548828125 84.45115661621094 C 103.70355224609375 39.86470413208008 111.23062896728516 68.71871948242188 95.82780456542969 47.67241287231445" stroke-width="3.0" fill="none" stroke="rgb(0, 0, 0)" stroke-opacity="1.0" stroke-linecap="round" stroke-linejoin="round"/>
    <path d="M 65.48817443847656 111.0172119140625 C 40.22800064086914 80.66252899169922 59.88486099243164 95.27449035644531 41.54006576538086 72.4449691772461" stroke-width="3.0" fill="none" stroke="rgb(0, 0, 0)" stroke-opacity="1.0" stroke-linecap="round" stroke-linejoin="round"/>
    <path d="M 187.61888122558594 59.8536262512207 C 172.24832153320312 25.953676223754883 193.07369995117188 51.046329498291016 187.06019592285156 83.66001892089844" stroke-width="3.0" fill="none" stroke="rgb(0, 0, 0)" stroke-opacity="1.0" stroke-linecap="round" stroke-linejoin="round"/>
    <path d="M 104.35842895507812 195.06422424316406 C 119.02989196777344 81.37251281738281 126.1959457397461 130.56900024414062 125.04679870605469 100.74987030029297" stroke-width="3.0" fill="none" stroke="rgb(0, 0, 0)" stroke-opacity="1.0" stroke-linecap="round" stroke-linejoin="round"/>
    <path d="M 48.75965118408203 102.40825653076172 C 23.701955795288086 171.87567138671875 14.450287818908691 123.39129638671875 39.83881378173828 198.5428924560547" stroke-width="3.0" fill="none" stroke="rgb(0, 0, 0)" stroke-opacity="1.0" stroke-linecap="round" stroke-linejoin="round"/>
    <path d="M 62.039794921875 42.604801177978516 C 94.4212875366211 19.603363037109375 152.74957275390625 114.03904724121094 170.4813690185547 72.2164077758789" stroke-width="3.0" fill="none" stroke="rgb(0, 0, 0)" stroke-opacity="1.0" stroke-linecap="round" stroke-linejoin="round"/>
    <path d="M 49.25303268432617 98.84859466552734 C 82.62030792236328 122.28373718261719 77.69707489013672 113.40929412841797 104.66625213623047 116.53996276855469" stroke-width="3.0" fill="none" stroke="rgb(0, 0, 0)" stroke-opacity="1.0" stroke-linecap="round" stroke-linejoin="round"/>
    <path d="M 18.133377075195312 133.42576599121094 C 10.15771770477295 70.35759735107422 11.02471923828125 84.24048614501953 58.404029846191406 43.849365234375" stroke-width="3.0" fill="none" stroke="rgb(0, 0, 0)" stroke-opacity="1.0" stroke-linecap="round" stroke-linejoin="round"/>
    <path d="M 173.01962280273438 84.48783874511719 C 188.5346221923828 23.21058464050293 200.32843017578125 29.316190719604492 169.97207641601562 96.4820327758789" stroke-width="3.0" fill="none" stroke="rgb(0, 0, 0)" stroke-opacity="1.0" stroke-linecap="round" stroke-linejoin="round"/>
    <path d="M 108.04769134521484 116.83050537109375 C 109.64534759521484 184.0399932861328 79.85543060302734 202.1671142578125 111.08361053466797 190.03448486328125" stroke-width="3.0" fill="none" stroke="rgb(0, 0, 0)" stroke-opacity="1.0" stroke-linecap="round" stroke-linejoin="round"/>
    <path d="M 170.10693359375 74.4547119140625 C 178.4393310546875 8.453521728515625 217.7415313720703 76.77416229248047 204.12713623046875 48.17088317871094" stroke-width="3.0" fill="none" stroke="rgb(0, 0, 0)" stroke-opacity="1.0" stroke-linecap="round" stroke-linejoin="round"/>
    <path d="M 190.1659698486328 64.90086364746094 C 152.742431640625 43.38477325439453 258.66864013671875 45.661781311035156 194.34754943847656 59.14760971069336" stroke-width="3.0" fill="none" stroke="rgb(0, 0, 0)" stroke-opacity="1.0" stroke-linecap="round" stroke-linejoin="round"/>
  </g>
</svg>
