<?xml version="1.0" ?>
<svg xmlns="http://www.w3.org/2000/svg" version="1.1" width="224" height="224">
  <defs/>
  <g>
    <path d="M 131.80406188964844 106.94001007080078 C 117.0864028930664 89.43059539794922 150.6897735595703 132.3817901611328 121.4978256225586 65.45053100585938" stroke-width="3.0" fill="none" stroke="rgb(0, 0, 0)" stroke-opacity="1.0" stroke-linecap="round" stroke-linejoin="round"/>
    <path d="M 109.96022033691406 89.96772766113281 C 112.9625015258789 99.24270629882812 104.74491882324219 100.92025756835938 109.84269714355469 114.19486236572266" stroke-width="3.0" fill="none" stroke="rgb(0, 0, 0)" stroke-opacity="1.0" stroke-linecap="round" stroke-linejoin="round"/>
    <path d="M 132.91481018066406 111.54969787597656 C 128.96185302734375 82.98471069335938 147.95242309570312 136.86245727539062 185.30569458007812 70.4667739868164" stroke-width="3.0" fill="none" stroke="rgb(0, 0, 0)" stroke-opacity="1.0" stroke-linecap="round" stroke-linejoin="round"/>
    <path d="M 64.16887664794922 42.20147705078125 C 63.870269775390625 37.761112213134766 54.5128059387207 47.971214294433594 42.629146575927734 59.610008239746094" stroke-width="3.0" fill="none" stroke="rgb(0, 0, 0)" stroke-opacity="1.0" stroke-linecap="round" stroke-linejoin="round"/>
    <path d="M 135.88479614257812 82.90888977050781 C 111.32716369628906 40.39652633666992 116.69691467285156 67.94682312011719 92.59362030029297 44.16888427734375" stroke-width="3.0" fill="none" stroke="rgb(0, 0, 0)" stroke-opacity="1.0" stroke-linecap="round" stroke-linejoin="round"/>
    <path d="M 68.54209899902344 111.88246154785156 C 36.592140197753906 80.43846893310547 59.84375762939453 97.6194076538086 43.48441696166992 75.89088439941406" stroke-width="3.0" fill="none" stroke="rgb(0, 0, 0)" stroke-opacity="1.0" stroke-linecap="round" stroke-linejoin="round"/>
    <path d="M 185.31407165527344 57.062679290771484 C 169.20729064941406 33.678497314453125 194.1981964111328 49.5332145690918 189.50668334960938 79.20677947998047" stroke-width="3.0" fill="none" stroke="rgb(0, 0, 0)" stroke-opacity="1.0" stroke-linecap="round" stroke-linejoin="round"/>
    <path d="M 106.08564758300781 194.8944091796875 C 117.11544799804688 87.06453704833984 123.679443359375 131.920166015625 123.06013488769531 102.32286071777344" stroke-width="3.0" fill="none" stroke="rgb(0, 0, 0)" stroke-opacity="1.0" stroke-linecap="round" stroke-linejoin="round"/>
    <path d="M 47.55453109741211 105.10160064697266 C 26.497047424316406 174.6029815673828 13.432051658630371 124.67034912109375 40.49797058105469 199.70071411132812" stroke-width="3.0" fill="none" stroke="rgb(0, 0, 0)" stroke-opacity="1.0" stroke-linecap="round" stroke-linejoin="round"/>
    <path d="M 66.99515533447266 41.06806564331055 C 101.72943115234375 15.978814125061035 157.0361785888672 133.64712524414062 171.85289001464844 56.780601501464844" stroke-width="3.0" fill="none" stroke="rgb(0, 0, 0)" stroke-opacity="1.0" stroke-linecap="round" stroke-linejoin="round"/>
    <path d="M 46.1915283203125 103.94470977783203 C 85.58829498291016 119.73585510253906 83.04953002929688 111.98009490966797 106.13175964355469 117.04475402832031" stroke-width="3.0" fill="none" stroke="rgb(0, 0, 0)" stroke-opacity="1.0" stroke-linecap="round" stroke-linejoin="round"/>
    <path d="M 23.944459915161133 137.68618774414062 C 19.41947364807129 86.15963745117188 -2.1860527992248535 84.26329040527344 54.918487548828125 53.70174026489258" stroke-width="3.0" fill="none" stroke="rgb(0, 0, 0)" stroke-opacity="1.0" stroke-linecap="round" stroke-linejoin="round"/>
    <path d="M 173.03395080566406 85.19601440429688 C 193.8681640625 20.072847366333008 205.4015350341797 27.2346248626709 164.65402221679688 94.8016357421875" stroke-width="3.0" fill="none" stroke="rgb(0, 0, 0)" stroke-opacity="1.0" stroke-linecap="round" stroke-linejoin="round"/>
    <path d="M 106.6325454711914 119.88590240478516 C 109.50201416015625 182.390380859375 80.04331970214844 197.76268005371094 109.86849975585938 190.73397827148438" stroke-width="3.0" fill="none" stroke="rgb(0, 0, 0)" stroke-opacity="1.0" stroke-linecap="round" stroke-linejoin="round"/>
    <path d="M 169.46804809570312 66.52287292480469 C 182.8695068359375 7.9565324783325195 214.28311157226562 78.9615707397461 204.25926208496094 45.68117904663086" stroke-width="3.0" fill="none" stroke="rgb(0, 0, 0)" stroke-opacity="1.0" stroke-linecap="round" stroke-linejoin="round"/>
    <path d="M 193.17689514160156 61.82679748535156 C 145.15750122070312 42.07863235473633 259.4677429199219 44.843238830566406 194.14637756347656 59.284881591796875" stroke-width="3.0" fill="none" stroke="rgb(0, 0, 0)" stroke-opacity="1.0" stroke-linecap="round" stroke-linejoin="round"/>
  </g>
</svg>
