<?xml version="1.0" ?>
<svg xmlns="http://www.w3.org/2000/svg" version="1.1" width="224" height="224">
  <defs/>
  <g>
    <path d="M 152.8812713623047 103.47018432617188 C 117.11832427978516 82.03917694091797 179.7967529296875 129.21087646484375 119.99369049072266 73.64264678955078" stroke-width="3.0" fill="none" stroke="rgb(0, 0, 0)" stroke-opacity="1.0" stroke-linecap="round" stroke-linejoin="round"/>
    <path d="M 111.18649291992188 94.24061584472656 C 109.2827377319336 105.41332244873047 99.7819595336914 107.10013580322266 107.25262451171875 112.06953430175781" stroke-width="3.0" fill="none" stroke="rgb(0, 0, 0)" stroke-opacity="1.0" stroke-linecap="round" stroke-linejoin="round"/>
    <path d="M 138.50465393066406 105.35018920898438 C 141.78848266601562 66.83893585205078 127.38877868652344 134.31655883789062 181.4508514404297 86.75888061523438" stroke-width="3.0" fill="none" stroke="rgb(0, 0, 0)" stroke-opacity="1.0" stroke-linecap="round" stroke-linejoin="round"/>
    <path d="M 63.067832946777344 42.29008102416992 C 63.721927642822266 42.117149353027344 56.35863494873047 46.07451248168945 64.2353286743164 42.28867721557617" stroke-width="3.0" fill="none" stroke="rgb(0, 0, 0)" stroke-opacity="1.0" stroke-linecap="round" stroke-linejoin="round"/>
    <path d="M 129.86500549316406 84.45648193359375 C 106.0408706665039 45.917015075683594 111.69866180419922 67.63008880615234 98.04402923583984 46.36344528198242" stroke-width="3.0" fill="none" stroke="rgb(0, 0, 0)" stroke-opacity="1.0" stroke-linecap="round" stroke-linejoin="round"/>
    <path d="M 68.27069854736328 111.81900024414062 C 40.82832717895508 75.89201354980469 58.97993850708008 88.63568878173828 48.65079116821289 63.89053726196289" stroke-width="3.0" fill="none" stroke="rgb(0, 0, 0)" stroke-opacity="1.0" stroke-linecap="round" stroke-linejoin="round"/>
    <path d="M 186.44796752929688 42.36222839355469 C 187.5856475830078 47.426300048828125 197.93606567382812 48.98279571533203 186.5666961669922 79.67964935302734" stroke-width="3.0" fill="none" stroke="rgb(0, 0, 0)" stroke-opacity="1.0" stroke-linecap="round" stroke-linejoin="round"/>
    <path d="M 102.31954193115234 194.0863494873047 C 123.3989486694336 80.06542205810547 123.25035858154297 122.14106750488281 132.76866149902344 100.47918701171875" stroke-width="3.0" fill="none" stroke="rgb(0, 0, 0)" stroke-opacity="1.0" stroke-linecap="round" stroke-linejoin="round"/>
    <path d="M 48.01483917236328 97.92430114746094 C 22.598730087280273 184.2687225341797 15.905705451965332 126.11781311035156 40.56492233276367 198.29592895507812" stroke-width="3.0" fill="none" stroke="rgb(0, 0, 0)" stroke-opacity="1.0" stroke-linecap="round" stroke-linejoin="round"/>
    <path d="M 63.089698791503906 42.683326721191406 C 93.34020233154297 16.087377548217773 141.122802734375 108.77507781982422 169.0004119873047 80.70509338378906" stroke-width="3.0" fill="none" stroke="rgb(0, 0, 0)" stroke-opacity="1.0" stroke-linecap="round" stroke-linejoin="round"/>
    <path d="M 49.7134895324707 94.65337371826172 C 69.99205017089844 121.73474884033203 85.44081115722656 113.23514556884766 106.96210479736328 117.0009994506836" stroke-width="3.0" fill="none" stroke="rgb(0, 0, 0)" stroke-opacity="1.0" stroke-linecap="round" stroke-linejoin="round"/>
    <path d="M 19.379230499267578 133.2615509033203 C 8.756525993347168 66.26251983642578 21.757080078125 78.02969360351562 59.01792907714844 44.99814224243164" stroke-width="3.0" fill="none" stroke="rgb(0, 0, 0)" stroke-opacity="1.0" stroke-linecap="round" stroke-linejoin="round"/>
    <path d="M 167.8136444091797 83.74543762207031 C 197.8446807861328 40.39640808105469 191.43678283691406 46.96601486206055 175.62252807617188 89.86415100097656" stroke-width="3.0" fill="none" stroke="rgb(0, 0, 0)" stroke-opacity="1.0" stroke-linecap="round" stroke-linejoin="round"/>
    <path d="M 106.26522827148438 118.09107208251953 C 108.7960433959961 176.7254180908203 74.7860107421875 202.65333557128906 111.97383880615234 188.78421020507812" stroke-width="3.0" fill="none" stroke="rgb(0, 0, 0)" stroke-opacity="1.0" stroke-linecap="round" stroke-linejoin="round"/>
    <path d="M 172.82052612304688 76.51359558105469 C 172.6640167236328 -3.1128015518188477 215.9754638671875 73.36823272705078 206.02761840820312 48.37749481201172" stroke-width="3.0" fill="none" stroke="rgb(0, 0, 0)" stroke-opacity="1.0" stroke-linecap="round" stroke-linejoin="round"/>
    <path d="M 194.0483856201172 59.840641021728516 C 154.64501953125 37.58403778076172 250.3085479736328 46.03514099121094 199.6818084716797 56.68562698364258" stroke-width="3.0" fill="none" stroke="rgb(0, 0, 0)" stroke-opacity="1.0" stroke-linecap="round" stroke-linejoin="round"/>
  </g>
</svg>
