<?xml version="1.0" ?>
<svg xmlns="http://www.w3.org/2000/svg" version="1.1" width="224" height="224">
  <defs/>
  <g>
    <path d="M 131.52935791015625 90.44744873046875 C 128.1979522705078 77.6648178100586 129.51486206054688 78.58039093017578 128.0677032470703 74.54639434814453" stroke-width="3.0" fill="none" stroke="rgb(0, 0, 0)" stroke-opacity="1.0" stroke-linecap="round" stroke-linejoin="round"/>
    <path d="M 93.5368423461914 101.43891906738281 C 96.4107894897461 98.24260711669922 86.91126251220703 104.888427734375 102.77932739257812 110.4022445678711" stroke-width="3.0" fill="none" stroke="rgb(0, 0, 0)" stroke-opacity="1.0" stroke-linecap="round" stroke-linejoin="round"/>
    <path d="M 148.619873046875 106.52892303466797 C 153.33697509765625 85.31926727294922 141.24935913085938 70.21124267578125 154.0187530517578 104.31355285644531" stroke-width="3.0" fill="none" stroke="rgb(0, 0, 0)" stroke-opacity="1.0" stroke-linecap="round" stroke-linejoin="round"/>
    <path d="M 53.39200210571289 50.11838912963867 C 63.096038818359375 86.20576477050781 44.55037307739258 94.91263580322266 52.32775115966797 94.53336334228516" stroke-width="3.0" fill="none" stroke="rgb(0, 0, 0)" stroke-opacity="1.0" stroke-linecap="round" stroke-linejoin="round"/>
    <path d="M 114.69589233398438 53.63017654418945 C 118.29153442382812 56.892730712890625 117.15098571777344 58.39463424682617 116.07123565673828 54.94416427612305" stroke-width="3.0" fill="none" stroke="rgb(0, 0, 0)" stroke-opacity="1.0" stroke-linecap="round" stroke-linejoin="round"/>
    <path d="M 54.55647659301758 90.72261047363281 C 54.23086166381836 102.54057312011719 53.38957977294922 92.1155776977539 53.185604095458984 92.21465301513672" stroke-width="3.0" fill="none" stroke="rgb(0, 0, 0)" stroke-opacity="1.0" stroke-linecap="round" stroke-linejoin="round"/>
    <path d="M 180.4157257080078 45.64441680908203 C 174.64309692382812 75.95878601074219 161.57659912109375 74.0460433959961 163.42897033691406 75.49652099609375" stroke-width="3.0" fill="none" stroke="rgb(0, 0, 0)" stroke-opacity="1.0" stroke-linecap="round" stroke-linejoin="round"/>
    <path d="M 110.40911865234375 130.14361572265625 C 115.44570922851562 114.3730239868164 98.03630065917969 129.99234008789062 113.74207305908203 117.22310638427734" stroke-width="3.0" fill="none" stroke="rgb(0, 0, 0)" stroke-opacity="1.0" stroke-linecap="round" stroke-linejoin="round"/>
    <path d="M 39.11849594116211 135.3311004638672 C 31.38317108154297 173.92999267578125 28.35454750061035 151.069091796875 40.38335418701172 199.2251739501953" stroke-width="3.0" fill="none" stroke="rgb(0, 0, 0)" stroke-opacity="1.0" stroke-linecap="round" stroke-linejoin="round"/>
    <path d="M 91.00658416748047 43.21800231933594 C 119.60015869140625 50.730934143066406 121.82238006591797 59.92323303222656 129.2119140625 82.47860717773438" stroke-width="3.0" fill="none" stroke="rgb(0, 0, 0)" stroke-opacity="1.0" stroke-linecap="round" stroke-linejoin="round"/>
    <path d="M 62.0576057434082 98.46113586425781 C 76.7242431640625 113.7981185913086 78.10493469238281 106.85797119140625 102.48959350585938 115.01710510253906" stroke-width="3.0" fill="none" stroke="rgb(0, 0, 0)" stroke-opacity="1.0" stroke-linecap="round" stroke-linejoin="round"/>
    <path d="M 22.47814178466797 91.05392456054688 C 18.51816177368164 75.06092834472656 13.473861694335938 81.15375518798828 19.359779357910156 77.4748764038086" stroke-width="3.0" fill="none" stroke="rgb(0, 0, 0)" stroke-opacity="1.0" stroke-linecap="round" stroke-linejoin="round"/>
    <path d="M 152.67446899414062 82.17253875732422 C 180.4417724609375 66.7301025390625 154.15028381347656 76.95032501220703 170.46609497070312 99.48216247558594" stroke-width="3.0" fill="none" stroke="rgb(0, 0, 0)" stroke-opacity="1.0" stroke-linecap="round" stroke-linejoin="round"/>
    <path d="M 104.67760467529297 116.1028823852539 C 116.76903533935547 149.15008544921875 88.6856460571289 167.4961395263672 110.69822692871094 194.54061889648438" stroke-width="3.0" fill="none" stroke="rgb(0, 0, 0)" stroke-opacity="1.0" stroke-linecap="round" stroke-linejoin="round"/>
    <path d="M 179.0639190673828 54.0388069152832 C 195.0229949951172 17.92034339904785 186.1829071044922 50.272193908691406 200.0876922607422 43.519371032714844" stroke-width="3.0" fill="none" stroke="rgb(0, 0, 0)" stroke-opacity="1.0" stroke-linecap="round" stroke-linejoin="round"/>
    <path d="M 197.09249877929688 60.486602783203125 C 174.91998291015625 48.3908805847168 202.4805145263672 44.323944091796875 210.25393676757812 48.564273834228516" stroke-width="3.0" fill="none" stroke="rgb(0, 0, 0)" stroke-opacity="1.0" stroke-linecap="round" stroke-linejoin="round"/>
  </g>
</svg>
