<?xml version="1.0" ?>
<svg xmlns="http://www.w3.org/2000/svg" version="1.1" width="224" height="224">
  <defs/>
  <g>
    <path d="M 152.10992431640625 98.03076934814453 C 119.23847961425781 82.66834259033203 181.10459899902344 127.94122314453125 121.20140838623047 71.15933990478516" stroke-width="3.0" fill="none" stroke="rgb(0, 0, 0)" stroke-opacity="1.0" stroke-linecap="round" stroke-linejoin="round"/>
    <path d="M 111.96048736572266 93.28826141357422 C 115.08265686035156 114.54853820800781 107.89862060546875 106.4250717163086 107.62525177001953 116.65573120117188" stroke-width="3.0" fill="none" stroke="rgb(0, 0, 0)" stroke-opacity="1.0" stroke-linecap="round" stroke-linejoin="round"/>
    <path d="M 141.8439483642578 102.89501953125 C 142.54466247558594 64.71282958984375 124.69110870361328 125.9256820678711 177.13787841796875 90.63053894042969" stroke-width="3.0" fill="none" stroke="rgb(0, 0, 0)" stroke-opacity="1.0" stroke-linecap="round" stroke-linejoin="round"/>
    <path d="M 60.83763122558594 43.69556427001953 C 63.16320037841797 42.38818359375 55.600582122802734 46.94462203979492 63.665348052978516 41.43910598754883" stroke-width="3.0" fill="none" stroke="rgb(0, 0, 0)" stroke-opacity="1.0" stroke-linecap="round" stroke-linejoin="round"/>
    <path d="M 129.03839111328125 84.56080627441406 C 108.55961608886719 42.401710510253906 111.36792755126953 63.17387771606445 100.61497497558594 47.302024841308594" stroke-width="3.0" fill="none" stroke="rgb(0, 0, 0)" stroke-opacity="1.0" stroke-linecap="round" stroke-linejoin="round"/>
    <path d="M 71.7725601196289 110.45654296875 C 43.76421356201172 75.4156494140625 61.5052604675293 86.84651947021484 48.9944953918457 62.02686309814453" stroke-width="3.0" fill="none" stroke="rgb(0, 0, 0)" stroke-opacity="1.0" stroke-linecap="round" stroke-linejoin="round"/>
    <path d="M 181.52203369140625 40.22655487060547 C 181.4312286376953 46.65095138549805 192.15003967285156 49.262596130371094 179.4042205810547 75.22551727294922" stroke-width="3.0" fill="none" stroke="rgb(0, 0, 0)" stroke-opacity="1.0" stroke-linecap="round" stroke-linejoin="round"/>
    <path d="M 106.10728454589844 193.83718872070312 C 122.91195678710938 86.24160766601562 121.68562316894531 122.40320587158203 132.4125213623047 100.2742919921875" stroke-width="3.0" fill="none" stroke="rgb(0, 0, 0)" stroke-opacity="1.0" stroke-linecap="round" stroke-linejoin="round"/>
    <path d="M 48.005043029785156 93.30094909667969 C 26.676834106445312 181.1974639892578 15.422571182250977 123.58905029296875 38.432125091552734 200.4141845703125" stroke-width="3.0" fill="none" stroke="rgb(0, 0, 0)" stroke-opacity="1.0" stroke-linecap="round" stroke-linejoin="round"/>
    <path d="M 61.851417541503906 42.56126403808594 C 95.37720489501953 14.897512435913086 142.5455780029297 106.08014678955078 169.20094299316406 83.73065185546875" stroke-width="3.0" fill="none" stroke="rgb(0, 0, 0)" stroke-opacity="1.0" stroke-linecap="round" stroke-linejoin="round"/>
    <path d="M 49.37494659423828 94.44576263427734 C 71.87528991699219 121.46544647216797 86.4306411743164 115.99910736083984 107.00235748291016 120.43492126464844" stroke-width="3.0" fill="none" stroke="rgb(0, 0, 0)" stroke-opacity="1.0" stroke-linecap="round" stroke-linejoin="round"/>
    <path d="M 16.64546012878418 133.46353149414062 C 5.9366960525512695 69.4207534790039 23.293230056762695 74.36772918701172 59.85377883911133 45.08148956298828" stroke-width="3.0" fill="none" stroke="rgb(0, 0, 0)" stroke-opacity="1.0" stroke-linecap="round" stroke-linejoin="round"/>
    <path d="M 166.4441375732422 85.22770690917969 C 193.7186737060547 42.969635009765625 200.0971221923828 59.860877990722656 179.3396453857422 86.9131088256836" stroke-width="3.0" fill="none" stroke="rgb(0, 0, 0)" stroke-opacity="1.0" stroke-linecap="round" stroke-linejoin="round"/>
    <path d="M 104.6269760131836 119.89533996582031 C 109.75028228759766 180.2223663330078 75.63058471679688 204.45596313476562 110.29379272460938 189.3603515625" stroke-width="3.0" fill="none" stroke="rgb(0, 0, 0)" stroke-opacity="1.0" stroke-linecap="round" stroke-linejoin="round"/>
    <path d="M 173.20896911621094 80.376220703125 C 172.61679077148438 -1.5899916887283325 212.9732208251953 75.51311492919922 200.2104034423828 45.80305099487305" stroke-width="3.0" fill="none" stroke="rgb(0, 0, 0)" stroke-opacity="1.0" stroke-linecap="round" stroke-linejoin="round"/>
    <path d="M 197.6505584716797 58.801876068115234 C 148.94691467285156 40.59048843383789 246.00039672851562 41.194252014160156 195.9508819580078 54.25498580932617" stroke-width="3.0" fill="none" stroke="rgb(0, 0, 0)" stroke-opacity="1.0" stroke-linecap="round" stroke-linejoin="round"/>
  </g>
</svg>
