<?xml version="1.0" ?>
<svg xmlns="http://www.w3.org/2000/svg" version="1.1" width="224" height="224">
  <defs/>
  <g>
    <path d="M 138.12399291992188 102.87670135498047 C 119.19832611083984 88.15653228759766 154.34095764160156 140.9005584716797 120.12146759033203 68.04721069335938" stroke-width="3.0" fill="none" stroke="rgb(0, 0, 0)" stroke-opacity="1.0" stroke-linecap="round" stroke-linejoin="round"/>
    <path d="M 107.19355773925781 96.80540466308594 C 108.08562469482422 98.37754821777344 99.97916412353516 103.71670532226562 106.86882019042969 111.68916320800781" stroke-width="3.0" fill="none" stroke="rgb(0, 0, 0)" stroke-opacity="1.0" stroke-linecap="round" stroke-linejoin="round"/>
    <path d="M 131.6433868408203 107.39401245117188 C 135.15235900878906 80.74320983886719 141.374267578125 134.43045043945312 182.34742736816406 86.05294036865234" stroke-width="3.0" fill="none" stroke="rgb(0, 0, 0)" stroke-opacity="1.0" stroke-linecap="round" stroke-linejoin="round"/>
    <path d="M 66.06722259521484 40.164119720458984 C 64.10482788085938 41.993038177490234 54.33595657348633 45.15615463256836 60.30088424682617 44.59263610839844" stroke-width="3.0" fill="none" stroke="rgb(0, 0, 0)" stroke-opacity="1.0" stroke-linecap="round" stroke-linejoin="round"/>
    <path d="M 131.2042236328125 83.16901397705078 C 104.3230972290039 37.733924865722656 111.8556137084961 66.38462829589844 96.42459869384766 47.36555480957031" stroke-width="3.0" fill="none" stroke="rgb(0, 0, 0)" stroke-opacity="1.0" stroke-linecap="round" stroke-linejoin="round"/>
    <path d="M 67.1335678100586 109.36119079589844 C 40.49258804321289 78.60753631591797 60.15275955200195 95.94180297851562 44.98857498168945 69.39379119873047" stroke-width="3.0" fill="none" stroke="rgb(0, 0, 0)" stroke-opacity="1.0" stroke-linecap="round" stroke-linejoin="round"/>
    <path d="M 184.2679443359375 58.88059997558594 C 173.62741088867188 26.46913719177246 193.6929168701172 49.50224304199219 187.78627014160156 81.87818908691406" stroke-width="3.0" fill="none" stroke="rgb(0, 0, 0)" stroke-opacity="1.0" stroke-linecap="round" stroke-linejoin="round"/>
    <path d="M 103.5440444946289 194.62966918945312 C 119.6662826538086 79.84563446044922 124.90768432617188 131.5142364501953 125.27495574951172 101.15255737304688" stroke-width="3.0" fill="none" stroke="rgb(0, 0, 0)" stroke-opacity="1.0" stroke-linecap="round" stroke-linejoin="round"/>
    <path d="M 49.300907135009766 100.56581115722656 C 24.25278091430664 174.4755401611328 15.052572250366211 124.50823974609375 40.40074157714844 198.5902862548828" stroke-width="3.0" fill="none" stroke="rgb(0, 0, 0)" stroke-opacity="1.0" stroke-linecap="round" stroke-linejoin="round"/>
    <path d="M 63.14113235473633 42.13188552856445 C 96.13078308105469 19.02501678466797 151.09780883789062 114.36087036132812 171.20204162597656 72.60588836669922" stroke-width="3.0" fill="none" stroke="rgb(0, 0, 0)" stroke-opacity="1.0" stroke-linecap="round" stroke-linejoin="round"/>
    <path d="M 47.71248245239258 100.42633819580078 C 80.8450927734375 122.32391357421875 77.15596008300781 113.69747161865234 104.34375762939453 118.46705627441406" stroke-width="3.0" fill="none" stroke="rgb(0, 0, 0)" stroke-opacity="1.0" stroke-linecap="round" stroke-linejoin="round"/>
    <path d="M 20.675655364990234 132.3740692138672 C 10.825345039367676 71.32951354980469 12.249628067016602 85.44966125488281 59.38522720336914 44.745243072509766" stroke-width="3.0" fill="none" stroke="rgb(0, 0, 0)" stroke-opacity="1.0" stroke-linecap="round" stroke-linejoin="round"/>
    <path d="M 175.49427795410156 87.08578491210938 C 192.4058837890625 25.199058532714844 201.00099182128906 30.386085510253906 169.20724487304688 97.77255249023438" stroke-width="3.0" fill="none" stroke="rgb(0, 0, 0)" stroke-opacity="1.0" stroke-linecap="round" stroke-linejoin="round"/>
    <path d="M 105.79335021972656 117.10966491699219 C 107.59576416015625 182.91981506347656 79.06029510498047 202.54837036132812 112.48406219482422 188.49696350097656" stroke-width="3.0" fill="none" stroke="rgb(0, 0, 0)" stroke-opacity="1.0" stroke-linecap="round" stroke-linejoin="round"/>
    <path d="M 169.91787719726562 74.88188171386719 C 180.05125427246094 7.038750648498535 219.0097198486328 74.94584655761719 205.30340576171875 44.54347610473633" stroke-width="3.0" fill="none" stroke="rgb(0, 0, 0)" stroke-opacity="1.0" stroke-linecap="round" stroke-linejoin="round"/>
    <path d="M 193.03651428222656 64.53034973144531 C 154.3369140625 42.95171356201172 259.2224426269531 44.5391731262207 197.43113708496094 60.31727600097656" stroke-width="3.0" fill="none" stroke="rgb(0, 0, 0)" stroke-opacity="1.0" stroke-linecap="round" stroke-linejoin="round"/>
  </g>
</svg>
