<?xml version="1.0" ?>
<svg xmlns="http://www.w3.org/2000/svg" version="1.1" width="224" height="224">
  <defs/>
  <g>
    <path d="M 140.37721252441406 105.39066314697266 C 116.94102478027344 86.34429168701172 159.4163360595703 139.21701049804688 121.989501953125 67.34004974365234" stroke-width="3.0" fill="none" stroke="rgb(0, 0, 0)" stroke-opacity="1.0" stroke-linecap="round" stroke-linejoin="round"/>
    <path d="M 109.0244369506836 93.94862365722656 C 108.61346435546875 99.68785095214844 102.71389770507812 101.75248718261719 108.00557708740234 109.55703735351562" stroke-width="3.0" fill="none" stroke="rgb(0, 0, 0)" stroke-opacity="1.0" stroke-linecap="round" stroke-linejoin="round"/>
    <path d="M 131.15023803710938 106.98038482666016 C 136.57061767578125 76.386474609375 138.25103759765625 135.46385192871094 182.7094268798828 81.78840637207031" stroke-width="3.0" fill="none" stroke="rgb(0, 0, 0)" stroke-opacity="1.0" stroke-linecap="round" stroke-linejoin="round"/>
    <path d="M 66.55123138427734 39.50196075439453 C 63.535133361816406 40.413150787353516 55.40993118286133 45.184837341308594 60.285396575927734 43.45151138305664" stroke-width="3.0" fill="none" stroke="rgb(0, 0, 0)" stroke-opacity="1.0" stroke-linecap="round" stroke-linejoin="round"/>
    <path d="M 133.9835968017578 81.73400115966797 C 105.24592590332031 37.75350570678711 112.46760559082031 68.39757537841797 99.33370971679688 45.91294860839844" stroke-width="3.0" fill="none" stroke="rgb(0, 0, 0)" stroke-opacity="1.0" stroke-linecap="round" stroke-linejoin="round"/>
    <path d="M 64.67164611816406 110.3587417602539 C 38.98633575439453 76.34874725341797 59.9820671081543 94.06671142578125 41.036224365234375 71.99856567382812" stroke-width="3.0" fill="none" stroke="rgb(0, 0, 0)" stroke-opacity="1.0" stroke-linecap="round" stroke-linejoin="round"/>
    <path d="M 181.45684814453125 49.600013732910156 C 177.04318237304688 23.966461181640625 192.59530639648438 49.05253601074219 187.1657257080078 80.13064575195312" stroke-width="3.0" fill="none" stroke="rgb(0, 0, 0)" stroke-opacity="1.0" stroke-linecap="round" stroke-linejoin="round"/>
    <path d="M 102.73379516601562 194.78086853027344 C 119.98456573486328 79.62423706054688 124.38402557373047 131.24118041992188 126.35155487060547 97.92491149902344" stroke-width="3.0" fill="none" stroke="rgb(0, 0, 0)" stroke-opacity="1.0" stroke-linecap="round" stroke-linejoin="round"/>
    <path d="M 43.7885627746582 98.3672866821289 C 22.163923263549805 177.02377319335938 14.712145805358887 127.40664672851562 41.086883544921875 198.607666015625" stroke-width="3.0" fill="none" stroke="rgb(0, 0, 0)" stroke-opacity="1.0" stroke-linecap="round" stroke-linejoin="round"/>
    <path d="M 66.53617858886719 40.040367126464844 C 97.12379455566406 15.233477592468262 146.3927764892578 114.41455078125 168.17893981933594 74.73396301269531" stroke-width="3.0" fill="none" stroke="rgb(0, 0, 0)" stroke-opacity="1.0" stroke-linecap="round" stroke-linejoin="round"/>
    <path d="M 47.95503234863281 100.68053436279297 C 81.28536224365234 125.05457305908203 79.1329116821289 112.02605438232422 104.8104476928711 116.55803680419922" stroke-width="3.0" fill="none" stroke="rgb(0, 0, 0)" stroke-opacity="1.0" stroke-linecap="round" stroke-linejoin="round"/>
    <path d="M 21.491413116455078 132.20343017578125 C 10.828994750976562 69.23822021484375 11.398184776306152 82.62660217285156 57.821773529052734 44.36151123046875" stroke-width="3.0" fill="none" stroke="rgb(0, 0, 0)" stroke-opacity="1.0" stroke-linecap="round" stroke-linejoin="round"/>
    <path d="M 174.4727783203125 84.74313354492188 C 200.08892822265625 28.913951873779297 202.99761962890625 31.960147857666016 167.65371704101562 89.50826263427734" stroke-width="3.0" fill="none" stroke="rgb(0, 0, 0)" stroke-opacity="1.0" stroke-linecap="round" stroke-linejoin="round"/>
    <path d="M 106.49085235595703 115.24675750732422 C 109.0766830444336 183.82823181152344 77.5064697265625 202.74037170410156 108.95880126953125 189.15269470214844" stroke-width="3.0" fill="none" stroke="rgb(0, 0, 0)" stroke-opacity="1.0" stroke-linecap="round" stroke-linejoin="round"/>
    <path d="M 169.06993103027344 72.15486145019531 C 173.24307250976562 5.182713985443115 215.10116577148438 74.02041625976562 210.039794921875 48.31646728515625" stroke-width="3.0" fill="none" stroke="rgb(0, 0, 0)" stroke-opacity="1.0" stroke-linecap="round" stroke-linejoin="round"/>
    <path d="M 194.53358459472656 62.402889251708984 C 154.01622009277344 42.12342834472656 256.0249328613281 47.157249450683594 198.5359344482422 58.78881072998047" stroke-width="3.0" fill="none" stroke="rgb(0, 0, 0)" stroke-opacity="1.0" stroke-linecap="round" stroke-linejoin="round"/>
  </g>
</svg>
