<?xml version="1.0" ?>
<svg xmlns="http://www.w3.org/2000/svg" version="1.1" width="224" height="224">
  <defs/>
  <g>
    <path d="M 138.58026123046875 102.91957092285156 C 122.41191101074219 76.82395935058594 128.096435546875 69.9969482421875 131.12460327148438 89.66226196289062" stroke-width="3.0" fill="none" stroke="rgb(0, 0, 0)" stroke-opacity="1.0" stroke-linecap="round" stroke-linejoin="round"/>
    <path d="M 93.62803649902344 89.91597747802734 C 95.46018981933594 94.24836730957031 99.29053497314453 106.06258392333984 106.3100357055664 108.50616455078125" stroke-width="3.0" fill="none" stroke="rgb(0, 0, 0)" stroke-opacity="1.0" stroke-linecap="round" stroke-linejoin="round"/>
    <path d="M 133.38803100585938 110.49169921875 C 144.169677734375 102.35149383544922 123.87262725830078 90.80550384521484 150.48764038085938 106.55789947509766" stroke-width="3.0" fill="none" stroke="rgb(0, 0, 0)" stroke-opacity="1.0" stroke-linecap="round" stroke-linejoin="round"/>
    <path d="M 61.40605926513672 44.027870178222656 C 53.32563018798828 53.6489372253418 23.949140548706055 72.15088653564453 35.343017578125 64.49059295654297" stroke-width="3.0" fill="none" stroke="rgb(0, 0, 0)" stroke-opacity="1.0" stroke-linecap="round" stroke-linejoin="round"/>
    <path d="M 111.14778900146484 56.08137512207031 C 117.0624008178711 67.71041870117188 114.93036651611328 68.86930084228516 108.1731185913086 54.37384796142578" stroke-width="3.0" fill="none" stroke="rgb(0, 0, 0)" stroke-opacity="1.0" stroke-linecap="round" stroke-linejoin="round"/>
    <path d="M 62.625919342041016 107.91077423095703 C 55.98897933959961 93.2947006225586 43.8436393737793 87.7869644165039 45.7966194152832 68.97614288330078" stroke-width="3.0" fill="none" stroke="rgb(0, 0, 0)" stroke-opacity="1.0" stroke-linecap="round" stroke-linejoin="round"/>
    <path d="M 179.54830932617188 41.33131408691406 C 172.46617126464844 74.31696319580078 192.5733184814453 70.37921142578125 167.63870239257812 80.58065795898438" stroke-width="3.0" fill="none" stroke="rgb(0, 0, 0)" stroke-opacity="1.0" stroke-linecap="round" stroke-linejoin="round"/>
    <path d="M 114.07645416259766 142.49124145507812 C 123.35003662109375 94.85032653808594 110.74312591552734 126.42481231689453 125.73401641845703 108.69144439697266" stroke-width="3.0" fill="none" stroke="rgb(0, 0, 0)" stroke-opacity="1.0" stroke-linecap="round" stroke-linejoin="round"/>
    <path d="M 40.07731628417969 97.27030181884766 C 20.498228073120117 183.197998046875 10.772611618041992 129.7662811279297 43.48767852783203 198.33238220214844" stroke-width="3.0" fill="none" stroke="rgb(0, 0, 0)" stroke-opacity="1.0" stroke-linecap="round" stroke-linejoin="round"/>
    <path d="M 63.24174499511719 42.539833068847656 C 96.07504272460938 30.15458869934082 122.70475769042969 74.74164581298828 147.7498321533203 82.38589477539062" stroke-width="3.0" fill="none" stroke="rgb(0, 0, 0)" stroke-opacity="1.0" stroke-linecap="round" stroke-linejoin="round"/>
    <path d="M 46.29375457763672 94.7384033203125 C 84.46163940429688 126.45841979980469 76.55908966064453 109.74395751953125 105.63916015625 116.4352798461914" stroke-width="3.0" fill="none" stroke="rgb(0, 0, 0)" stroke-opacity="1.0" stroke-linecap="round" stroke-linejoin="round"/>
    <path d="M 36.205039978027344 77.8467025756836 C 34.05950927734375 70.01274871826172 25.208372116088867 67.20084381103516 21.652633666992188 69.19367980957031" stroke-width="3.0" fill="none" stroke="rgb(0, 0, 0)" stroke-opacity="1.0" stroke-linecap="round" stroke-linejoin="round"/>
    <path d="M 149.5099334716797 83.21118927001953 C 208.12420654296875 79.30009460449219 166.527587890625 78.7469253540039 173.120849609375 97.55301666259766" stroke-width="3.0" fill="none" stroke="rgb(0, 0, 0)" stroke-opacity="1.0" stroke-linecap="round" stroke-linejoin="round"/>
    <path d="M 105.62067413330078 109.76470184326172 C 117.40192413330078 157.28561401367188 81.02501678466797 199.16590881347656 110.85022735595703 192.39991760253906" stroke-width="3.0" fill="none" stroke="rgb(0, 0, 0)" stroke-opacity="1.0" stroke-linecap="round" stroke-linejoin="round"/>
    <path d="M 174.72898864746094 61.10308837890625 C 193.72869873046875 6.111843585968018 183.43170166015625 71.45869445800781 209.26385498046875 47.97657012939453" stroke-width="3.0" fill="none" stroke="rgb(0, 0, 0)" stroke-opacity="1.0" stroke-linecap="round" stroke-linejoin="round"/>
    <path d="M 196.16246032714844 63.820621490478516 C 158.95863342285156 40.535640716552734 206.7775115966797 33.30605697631836 202.6082763671875 58.65543746948242" stroke-width="3.0" fill="none" stroke="rgb(0, 0, 0)" stroke-opacity="1.0" stroke-linecap="round" stroke-linejoin="round"/>
  </g>
</svg>
