<?xml version="1.0" ?>
<svg xmlns="http://www.w3.org/2000/svg" version="1.1" width="224" height="224">
  <defs/>
  <g>
    <path d="M 146.6108856201172 105.77450561523438 C 115.90068817138672 80.6461410522461 170.54598999023438 139.16510009765625 124.04304504394531 73.42875671386719" stroke-width="3.0" fill="none" stroke="rgb(0, 0, 0)" stroke-opacity="1.0" stroke-linecap="round" stroke-linejoin="round"/>
    <path d="M 104.6058120727539 95.33106231689453 C 107.08869171142578 108.00769805908203 98.94398498535156 104.84087371826172 106.68997192382812 114.82408142089844" stroke-width="3.0" fill="none" stroke="rgb(0, 0, 0)" stroke-opacity="1.0" stroke-linecap="round" stroke-linejoin="round"/>
    <path d="M 138.74366760253906 106.59200286865234 C 134.23048400878906 64.766357421875 138.12203979492188 138.94053649902344 182.72149658203125 82.30776977539062" stroke-width="3.0" fill="none" stroke="rgb(0, 0, 0)" stroke-opacity="1.0" stroke-linecap="round" stroke-linejoin="round"/>
    <path d="M 63.06626892089844 41.29212188720703 C 64.13433074951172 40.12893295288086 56.880062103271484 45.044105529785156 61.777496337890625 41.83186340332031" stroke-width="3.0" fill="none" stroke="rgb(0, 0, 0)" stroke-opacity="1.0" stroke-linecap="round" stroke-linejoin="round"/>
    <path d="M 128.4450225830078 84.9400405883789 C 106.64939880371094 34.923954010009766 113.02386474609375 64.61749267578125 96.61524200439453 45.09988784790039" stroke-width="3.0" fill="none" stroke="rgb(0, 0, 0)" stroke-opacity="1.0" stroke-linecap="round" stroke-linejoin="round"/>
    <path d="M 68.22330474853516 112.9383773803711 C 34.69710159301758 74.4080810546875 56.407691955566406 92.00421142578125 40.06000518798828 70.89041900634766" stroke-width="3.0" fill="none" stroke="rgb(0, 0, 0)" stroke-opacity="1.0" stroke-linecap="round" stroke-linejoin="round"/>
    <path d="M 184.77084350585938 46.60824203491211 C 186.94790649414062 41.36914825439453 190.11172485351562 48.07901382446289 188.25782775878906 80.8001480102539" stroke-width="3.0" fill="none" stroke="rgb(0, 0, 0)" stroke-opacity="1.0" stroke-linecap="round" stroke-linejoin="round"/>
    <path d="M 102.90320587158203 194.7725372314453 C 124.79899597167969 81.40094757080078 119.86532592773438 126.0445785522461 130.26788330078125 101.67920684814453" stroke-width="3.0" fill="none" stroke="rgb(0, 0, 0)" stroke-opacity="1.0" stroke-linecap="round" stroke-linejoin="round"/>
    <path d="M 45.903465270996094 100.02703857421875 C 24.044696807861328 180.76190185546875 16.956310272216797 126.86096954345703 39.08669662475586 196.58856201171875" stroke-width="3.0" fill="none" stroke="rgb(0, 0, 0)" stroke-opacity="1.0" stroke-linecap="round" stroke-linejoin="round"/>
    <path d="M 63.71632766723633 40.981056213378906 C 98.70777130126953 13.878889083862305 141.5009002685547 112.6797103881836 170.4019317626953 79.51190185546875" stroke-width="3.0" fill="none" stroke="rgb(0, 0, 0)" stroke-opacity="1.0" stroke-linecap="round" stroke-linejoin="round"/>
    <path d="M 49.721458435058594 100.19889831542969 C 76.8843994140625 122.8502197265625 84.0877685546875 114.4452896118164 105.96514129638672 118.61161804199219" stroke-width="3.0" fill="none" stroke="rgb(0, 0, 0)" stroke-opacity="1.0" stroke-linecap="round" stroke-linejoin="round"/>
    <path d="M 23.601659774780273 130.39859008789062 C 8.958125114440918 67.50369262695312 16.923721313476562 81.91190338134766 59.36231994628906 43.10800552368164" stroke-width="3.0" fill="none" stroke="rgb(0, 0, 0)" stroke-opacity="1.0" stroke-linecap="round" stroke-linejoin="round"/>
    <path d="M 164.83706665039062 81.03699493408203 C 197.86917114257812 34.220584869384766 203.955078125 48.93589782714844 174.88375854492188 92.52588653564453" stroke-width="3.0" fill="none" stroke="rgb(0, 0, 0)" stroke-opacity="1.0" stroke-linecap="round" stroke-linejoin="round"/>
    <path d="M 106.89204406738281 120.58953857421875 C 108.24590301513672 182.89724731445312 75.7556381225586 200.46279907226562 110.12924194335938 188.99037170410156" stroke-width="3.0" fill="none" stroke="rgb(0, 0, 0)" stroke-opacity="1.0" stroke-linecap="round" stroke-linejoin="round"/>
    <path d="M 170.75430297851562 80.38545989990234 C 173.88302612304688 0.12482723593711853 213.64501953125 71.51982879638672 209.97862243652344 46.19440460205078" stroke-width="3.0" fill="none" stroke="rgb(0, 0, 0)" stroke-opacity="1.0" stroke-linecap="round" stroke-linejoin="round"/>
    <path d="M 199.4141082763672 59.63694381713867 C 153.6561737060547 38.9940299987793 258.9812927246094 46.06787109375 202.0748748779297 57.6150016784668" stroke-width="3.0" fill="none" stroke="rgb(0, 0, 0)" stroke-opacity="1.0" stroke-linecap="round" stroke-linejoin="round"/>
  </g>
</svg>
