<?xml version="1.0" ?>
<svg xmlns="http://www.w3.org/2000/svg" version="1.1" width="224" height="224">
  <defs/>
  <g>
    <path d="M 153.62937927246094 101.99478149414062 C 128.43955993652344 98.59735870361328 160.7106170654297 106.91287994384766 129.8255615234375 93.06233215332031" stroke-width="3.0" fill="none" stroke="rgb(0, 0, 0)" stroke-opacity="1.0" stroke-linecap="round" stroke-linejoin="round"/>
    <path d="M 110.20932006835938 95.001220703125 C 110.99646759033203 98.17701721191406 105.60692596435547 98.1357650756836 108.85912322998047 107.89306640625" stroke-width="3.0" fill="none" stroke="rgb(0, 0, 0)" stroke-opacity="1.0" stroke-linecap="round" stroke-linejoin="round"/>
    <path d="M 138.14984130859375 105.4124984741211 C 152.1629180908203 86.91558837890625 115.57931518554688 117.78336334228516 170.18556213378906 98.17533874511719" stroke-width="3.0" fill="none" stroke="rgb(0, 0, 0)" stroke-opacity="1.0" stroke-linecap="round" stroke-linejoin="round"/>
    <path d="M 59.993263244628906 43.70518493652344 C 53.48406982421875 47.0438232421875 40.21857833862305 62.119354248046875 51.950225830078125 49.708740234375" stroke-width="3.0" fill="none" stroke="rgb(0, 0, 0)" stroke-opacity="1.0" stroke-linecap="round" stroke-linejoin="round"/>
    <path d="M 105.53268432617188 52.06727600097656 C 118.49854278564453 56.13987350463867 103.09609985351562 53.403724670410156 97.25079345703125 47.389625549316406" stroke-width="3.0" fill="none" stroke="rgb(0, 0, 0)" stroke-opacity="1.0" stroke-linecap="round" stroke-linejoin="round"/>
    <path d="M 73.38446807861328 113.6670913696289 C 39.22618865966797 87.03309631347656 58.033447265625 97.62688446044922 44.28913497924805 79.84716033935547" stroke-width="3.0" fill="none" stroke="rgb(0, 0, 0)" stroke-opacity="1.0" stroke-linecap="round" stroke-linejoin="round"/>
    <path d="M 186.60470581054688 37.53335189819336 C 179.01475524902344 67.305908203125 214.10064697265625 70.70023345947266 179.77488708496094 88.62721252441406" stroke-width="3.0" fill="none" stroke="rgb(0, 0, 0)" stroke-opacity="1.0" stroke-linecap="round" stroke-linejoin="round"/>
    <path d="M 106.67326354980469 169.27072143554688 C 128.9851837158203 84.86062622070312 117.4406509399414 123.50193786621094 130.9944610595703 102.80643463134766" stroke-width="3.0" fill="none" stroke="rgb(0, 0, 0)" stroke-opacity="1.0" stroke-linecap="round" stroke-linejoin="round"/>
    <path d="M 46.94184112548828 97.94837188720703 C 21.227148056030273 188.08717346191406 22.029903411865234 123.97100830078125 35.977291107177734 198.61289978027344" stroke-width="3.0" fill="none" stroke="rgb(0, 0, 0)" stroke-opacity="1.0" stroke-linecap="round" stroke-linejoin="round"/>
    <path d="M 59.1500129699707 42.975120544433594 C 89.72838592529297 14.85538101196289 134.68722534179688 90.12859344482422 162.0487518310547 84.76495361328125" stroke-width="3.0" fill="none" stroke="rgb(0, 0, 0)" stroke-opacity="1.0" stroke-linecap="round" stroke-linejoin="round"/>
    <path d="M 47.30608367919922 105.40900421142578 C 94.71034240722656 122.44278717041016 85.0730972290039 109.95084381103516 106.8475570678711 115.74065399169922" stroke-width="3.0" fill="none" stroke="rgb(0, 0, 0)" stroke-opacity="1.0" stroke-linecap="round" stroke-linejoin="round"/>
    <path d="M 37.8266487121582 83.90341186523438 C 34.3714485168457 73.88471984863281 25.129863739013672 73.10053253173828 28.36027717590332 73.11161804199219" stroke-width="3.0" fill="none" stroke="rgb(0, 0, 0)" stroke-opacity="1.0" stroke-linecap="round" stroke-linejoin="round"/>
    <path d="M 164.1607666015625 85.38059997558594 C 221.28451538085938 76.1197280883789 177.31932067871094 81.49287414550781 173.341552734375 95.64683532714844" stroke-width="3.0" fill="none" stroke="rgb(0, 0, 0)" stroke-opacity="1.0" stroke-linecap="round" stroke-linejoin="round"/>
    <path d="M 107.27286529541016 112.76464080810547 C 109.73812866210938 178.92710876464844 80.15167236328125 192.48255920410156 109.89566802978516 194.36004638671875" stroke-width="3.0" fill="none" stroke="rgb(0, 0, 0)" stroke-opacity="1.0" stroke-linecap="round" stroke-linejoin="round"/>
    <path d="M 178.31256103515625 81.93616485595703 C 174.8115234375 -11.096549987792969 188.49917602539062 67.76455688476562 207.01698303222656 46.2759895324707" stroke-width="3.0" fill="none" stroke="rgb(0, 0, 0)" stroke-opacity="1.0" stroke-linecap="round" stroke-linejoin="round"/>
    <path d="M 196.9239044189453 62.58232879638672 C 152.98382568359375 36.74504470825195 219.32969665527344 42.1041374206543 198.08653259277344 54.83644104003906" stroke-width="3.0" fill="none" stroke="rgb(0, 0, 0)" stroke-opacity="1.0" stroke-linecap="round" stroke-linejoin="round"/>
  </g>
</svg>
