<?xml version="1.0" ?>
<svg xmlns="http://www.w3.org/2000/svg" version="1.1" width="224" height="224">
  <defs/>
  <g>
    <path d="M 138.13690185546875 103.9581527709961 C 122.19182586669922 89.80274200439453 150.6593017578125 139.4039306640625 118.44185638427734 64.31367492675781" stroke-width="3.0" fill="none" stroke="rgb(0, 0, 0)" stroke-opacity="1.0" stroke-linecap="round" stroke-linejoin="round"/>
    <path d="M 110.89214324951172 90.86650848388672 C 114.05841827392578 102.48933410644531 101.83318328857422 104.84025573730469 106.95267486572266 114.9425277709961" stroke-width="3.0" fill="none" stroke="rgb(0, 0, 0)" stroke-opacity="1.0" stroke-linecap="round" stroke-linejoin="round"/>
    <path d="M 131.21722412109375 107.34178924560547 C 134.44007873535156 82.89449310302734 141.3795623779297 135.92041015625 185.36802673339844 78.20989990234375" stroke-width="3.0" fill="none" stroke="rgb(0, 0, 0)" stroke-opacity="1.0" stroke-linecap="round" stroke-linejoin="round"/>
    <path d="M 72.44353485107422 38.6861686706543 C 63.899681091308594 37.97606658935547 55.68962860107422 45.617488861083984 54.65557861328125 47.86601257324219" stroke-width="3.0" fill="none" stroke="rgb(0, 0, 0)" stroke-opacity="1.0" stroke-linecap="round" stroke-linejoin="round"/>
    <path d="M 131.35629272460938 84.05640411376953 C 109.78706359863281 37.33439254760742 111.16533660888672 68.69813537597656 96.86285400390625 44.822998046875" stroke-width="3.0" fill="none" stroke="rgb(0, 0, 0)" stroke-opacity="1.0" stroke-linecap="round" stroke-linejoin="round"/>
    <path d="M 68.0764389038086 112.7634506225586 C 36.895145416259766 80.25285339355469 60.4014892578125 100.77900695800781 42.00368881225586 76.46017456054688" stroke-width="3.0" fill="none" stroke="rgb(0, 0, 0)" stroke-opacity="1.0" stroke-linecap="round" stroke-linejoin="round"/>
    <path d="M 183.73550415039062 60.320343017578125 C 175.89808654785156 32.70425033569336 190.7066192626953 47.07263946533203 186.48707580566406 72.93360137939453" stroke-width="3.0" fill="none" stroke="rgb(0, 0, 0)" stroke-opacity="1.0" stroke-linecap="round" stroke-linejoin="round"/>
    <path d="M 99.86723327636719 192.81301879882812 C 123.76869201660156 83.18341064453125 124.72411346435547 129.14207458496094 126.38178253173828 99.02608489990234" stroke-width="3.0" fill="none" stroke="rgb(0, 0, 0)" stroke-opacity="1.0" stroke-linecap="round" stroke-linejoin="round"/>
    <path d="M 47.562923431396484 106.40547943115234 C 25.64795684814453 173.31414794921875 16.872032165527344 124.4532699584961 40.37662124633789 199.984375" stroke-width="3.0" fill="none" stroke="rgb(0, 0, 0)" stroke-opacity="1.0" stroke-linecap="round" stroke-linejoin="round"/>
    <path d="M 67.12248229980469 39.28305435180664 C 96.48714447021484 16.315580368041992 154.0479736328125 129.75979614257812 170.78176879882812 65.08873748779297" stroke-width="3.0" fill="none" stroke="rgb(0, 0, 0)" stroke-opacity="1.0" stroke-linecap="round" stroke-linejoin="round"/>
    <path d="M 47.52418518066406 103.36760711669922 C 82.82015228271484 123.02188873291016 77.92565155029297 115.09339141845703 105.82904052734375 119.50115966796875" stroke-width="3.0" fill="none" stroke="rgb(0, 0, 0)" stroke-opacity="1.0" stroke-linecap="round" stroke-linejoin="round"/>
    <path d="M 24.65662956237793 137.13002014160156 C 11.15273666381836 70.64682006835938 11.0242338180542 86.03753662109375 55.40793991088867 45.72270965576172" stroke-width="3.0" fill="none" stroke="rgb(0, 0, 0)" stroke-opacity="1.0" stroke-linecap="round" stroke-linejoin="round"/>
    <path d="M 175.7562713623047 87.40940856933594 C 201.05189514160156 24.167896270751953 193.10198974609375 19.02513885498047 172.18507385253906 88.58726501464844" stroke-width="3.0" fill="none" stroke="rgb(0, 0, 0)" stroke-opacity="1.0" stroke-linecap="round" stroke-linejoin="round"/>
    <path d="M 105.17887115478516 119.42208862304688 C 110.0400161743164 182.87200927734375 71.30390930175781 205.65521240234375 108.67234802246094 195.5546417236328" stroke-width="3.0" fill="none" stroke="rgb(0, 0, 0)" stroke-opacity="1.0" stroke-linecap="round" stroke-linejoin="round"/>
    <path d="M 171.6774444580078 66.43933868408203 C 178.88204956054688 4.936707973480225 219.9372100830078 77.55592346191406 208.65602111816406 47.315216064453125" stroke-width="3.0" fill="none" stroke="rgb(0, 0, 0)" stroke-opacity="1.0" stroke-linecap="round" stroke-linejoin="round"/>
    <path d="M 192.0389862060547 62.26889419555664 C 156.3511505126953 39.76710891723633 259.65997314453125 42.15306854248047 197.30767822265625 57.416900634765625" stroke-width="3.0" fill="none" stroke="rgb(0, 0, 0)" stroke-opacity="1.0" stroke-linecap="round" stroke-linejoin="round"/>
  </g>
</svg>
