<?xml version="1.0" ?>
<svg xmlns="http://www.w3.org/2000/svg" version="1.1" width="224" height="224">
  <defs/>
  <g>
    <path d="M 138.4864044189453 106.68519592285156 C 122.56688690185547 91.52459716796875 150.91946411132812 140.680419921875 117.25984954833984 66.46345520019531" stroke-width="3.0" fill="none" stroke="rgb(0, 0, 0)" stroke-opacity="1.0" stroke-linecap="round" stroke-linejoin="round"/>
    <path d="M 109.81678009033203 94.26586151123047 C 111.65277862548828 102.06214141845703 102.56017303466797 103.99833679199219 107.24549102783203 114.42030334472656" stroke-width="3.0" fill="none" stroke="rgb(0, 0, 0)" stroke-opacity="1.0" stroke-linecap="round" stroke-linejoin="round"/>
    <path d="M 132.6298370361328 109.72916412353516 C 133.17721557617188 84.65782165527344 142.75552368164062 137.85552978515625 187.30430603027344 78.83124542236328" stroke-width="3.0" fill="none" stroke="rgb(0, 0, 0)" stroke-opacity="1.0" stroke-linecap="round" stroke-linejoin="round"/>
    <path d="M 73.74778747558594 38.0767707824707 C 63.69252395629883 36.693477630615234 54.48972702026367 46.66348648071289 51.70792770385742 48.20172119140625" stroke-width="3.0" fill="none" stroke="rgb(0, 0, 0)" stroke-opacity="1.0" stroke-linecap="round" stroke-linejoin="round"/>
    <path d="M 131.6683807373047 81.67359924316406 C 111.5151138305664 39.481388092041016 112.52041625976562 65.88607025146484 94.09740447998047 43.118690490722656" stroke-width="3.0" fill="none" stroke="rgb(0, 0, 0)" stroke-opacity="1.0" stroke-linecap="round" stroke-linejoin="round"/>
    <path d="M 71.38617706298828 113.87947082519531 C 36.72400665283203 84.47679901123047 61.1863899230957 103.67403411865234 41.66954040527344 77.92350006103516" stroke-width="3.0" fill="none" stroke="rgb(0, 0, 0)" stroke-opacity="1.0" stroke-linecap="round" stroke-linejoin="round"/>
    <path d="M 182.1433868408203 60.7618408203125 C 175.40872192382812 40.02068328857422 191.9408416748047 50.04106903076172 186.83665466308594 75.4463119506836" stroke-width="3.0" fill="none" stroke="rgb(0, 0, 0)" stroke-opacity="1.0" stroke-linecap="round" stroke-linejoin="round"/>
    <path d="M 102.8917465209961 192.43218994140625 C 119.36810302734375 82.89667510986328 123.96531677246094 130.67564392089844 126.51010131835938 100.81932830810547" stroke-width="3.0" fill="none" stroke="rgb(0, 0, 0)" stroke-opacity="1.0" stroke-linecap="round" stroke-linejoin="round"/>
    <path d="M 45.77882385253906 102.70818328857422 C 27.606359481811523 172.85235595703125 21.692380905151367 119.2566146850586 36.295448303222656 200.18382263183594" stroke-width="3.0" fill="none" stroke="rgb(0, 0, 0)" stroke-opacity="1.0" stroke-linecap="round" stroke-linejoin="round"/>
    <path d="M 67.16487884521484 38.43754577636719 C 99.8917465209961 16.097339630126953 156.41087341308594 129.3502197265625 171.68978881835938 65.3429946899414" stroke-width="3.0" fill="none" stroke="rgb(0, 0, 0)" stroke-opacity="1.0" stroke-linecap="round" stroke-linejoin="round"/>
    <path d="M 45.01349639892578 102.0767593383789 C 84.35636901855469 123.91293334960938 79.33998107910156 114.73625183105469 106.15105438232422 118.56861114501953" stroke-width="3.0" fill="none" stroke="rgb(0, 0, 0)" stroke-opacity="1.0" stroke-linecap="round" stroke-linejoin="round"/>
    <path d="M 20.91716194152832 139.00209045410156 C 13.687629699707031 71.26856231689453 10.37074089050293 86.02149963378906 54.91264343261719 46.33915710449219" stroke-width="3.0" fill="none" stroke="rgb(0, 0, 0)" stroke-opacity="1.0" stroke-linecap="round" stroke-linejoin="round"/>
    <path d="M 177.5672149658203 88.64362335205078 C 200.12692260742188 25.000106811523438 196.68756103515625 24.03546714782715 169.2235107421875 87.13583374023438" stroke-width="3.0" fill="none" stroke="rgb(0, 0, 0)" stroke-opacity="1.0" stroke-linecap="round" stroke-linejoin="round"/>
    <path d="M 105.23590087890625 119.16474151611328 C 110.85456085205078 179.5731658935547 72.93672180175781 205.71884155273438 108.5146713256836 193.38961791992188" stroke-width="3.0" fill="none" stroke="rgb(0, 0, 0)" stroke-opacity="1.0" stroke-linecap="round" stroke-linejoin="round"/>
    <path d="M 172.79104614257812 64.68714904785156 C 180.3704071044922 5.012107849121094 214.97950744628906 78.90399169921875 207.45814514160156 47.77423095703125" stroke-width="3.0" fill="none" stroke="rgb(0, 0, 0)" stroke-opacity="1.0" stroke-linecap="round" stroke-linejoin="round"/>
    <path d="M 194.08782958984375 63.58278274536133 C 154.74147033691406 41.06289291381836 257.6141662597656 48.77383804321289 198.04647827148438 59.24547576904297" stroke-width="3.0" fill="none" stroke="rgb(0, 0, 0)" stroke-opacity="1.0" stroke-linecap="round" stroke-linejoin="round"/>
  </g>
</svg>
