<?xml version="1.0" ?>
<svg xmlns="http://www.w3.org/2000/svg" version="1.1" width="224" height="224">
  <defs/>
  <g>
    <path d="M 154.66439819335938 98.67034912109375 C 120.04511260986328 85.65784454345703 176.2147674560547 117.57825469970703 127.61602020263672 77.19447326660156" stroke-width="3.0" fill="none" stroke="rgb(0, 0, 0)" stroke-opacity="1.0" stroke-linecap="round" stroke-linejoin="round"/>
    <path d="M 106.82148742675781 92.15410614013672 C 107.11949157714844 102.88380432128906 100.80792999267578 103.62523651123047 107.21033477783203 113.00826263427734" stroke-width="3.0" fill="none" stroke="rgb(0, 0, 0)" stroke-opacity="1.0" stroke-linecap="round" stroke-linejoin="round"/>
    <path d="M 142.29469299316406 102.0670166015625 C 146.18370056152344 64.3741455078125 119.88529968261719 123.49165344238281 178.6046905517578 89.44567108154297" stroke-width="3.0" fill="none" stroke="rgb(0, 0, 0)" stroke-opacity="1.0" stroke-linecap="round" stroke-linejoin="round"/>
    <path d="M 62.202571868896484 42.19453048706055 C 61.316043853759766 41.91497802734375 53.97633361816406 47.806697845458984 62.72475051879883 40.93003845214844" stroke-width="3.0" fill="none" stroke="rgb(0, 0, 0)" stroke-opacity="1.0" stroke-linecap="round" stroke-linejoin="round"/>
    <path d="M 126.28427124023438 69.87098693847656 C 112.24358367919922 52.416473388671875 104.87870788574219 63.41749572753906 92.79607391357422 43.6998405456543" stroke-width="3.0" fill="none" stroke="rgb(0, 0, 0)" stroke-opacity="1.0" stroke-linecap="round" stroke-linejoin="round"/>
    <path d="M 74.25114440917969 113.74310302734375 C 41.558475494384766 86.71709442138672 64.2658462524414 98.70249938964844 46.99204635620117 70.7969741821289" stroke-width="3.0" fill="none" stroke="rgb(0, 0, 0)" stroke-opacity="1.0" stroke-linecap="round" stroke-linejoin="round"/>
    <path d="M 183.1997528076172 37.243465423583984 C 178.41929626464844 48.22896194458008 196.51673889160156 58.770992279052734 177.18551635742188 78.29524993896484" stroke-width="3.0" fill="none" stroke="rgb(0, 0, 0)" stroke-opacity="1.0" stroke-linecap="round" stroke-linejoin="round"/>
    <path d="M 101.0137939453125 193.89768981933594 C 123.5169906616211 81.91891479492188 121.87195587158203 130.19998168945312 130.60791015625 102.6185531616211" stroke-width="3.0" fill="none" stroke="rgb(0, 0, 0)" stroke-opacity="1.0" stroke-linecap="round" stroke-linejoin="round"/>
    <path d="M 36.12584686279297 87.9114761352539 C 34.317108154296875 197.1595001220703 19.400911331176758 118.82893371582031 39.01111602783203 196.94503784179688" stroke-width="3.0" fill="none" stroke="rgb(0, 0, 0)" stroke-opacity="1.0" stroke-linecap="round" stroke-linejoin="round"/>
    <path d="M 62.76278305053711 43.13227081298828 C 87.38546752929688 14.095294952392578 138.92884826660156 103.17405700683594 166.3532257080078 85.19715881347656" stroke-width="3.0" fill="none" stroke="rgb(0, 0, 0)" stroke-opacity="1.0" stroke-linecap="round" stroke-linejoin="round"/>
    <path d="M 40.74720764160156 90.03223419189453 C 80.68196105957031 127.22510528564453 77.0345458984375 110.31424713134766 104.38591766357422 117.93794250488281" stroke-width="3.0" fill="none" stroke="rgb(0, 0, 0)" stroke-opacity="1.0" stroke-linecap="round" stroke-linejoin="round"/>
    <path d="M 34.70618438720703 98.2886962890625 C 29.01270294189453 65.70561218261719 36.41016387939453 74.0243911743164 48.26142501831055 54.042335510253906" stroke-width="3.0" fill="none" stroke="rgb(0, 0, 0)" stroke-opacity="1.0" stroke-linecap="round" stroke-linejoin="round"/>
    <path d="M 167.49395751953125 83.1459732055664 C 192.68406677246094 41.79756546020508 192.37730407714844 55.37874984741211 180.2264862060547 84.3812026977539" stroke-width="3.0" fill="none" stroke="rgb(0, 0, 0)" stroke-opacity="1.0" stroke-linecap="round" stroke-linejoin="round"/>
    <path d="M 105.64891052246094 117.23941040039062 C 108.18081665039062 182.7857666015625 79.67167663574219 195.88040161132812 109.92800903320312 188.1995391845703" stroke-width="3.0" fill="none" stroke="rgb(0, 0, 0)" stroke-opacity="1.0" stroke-linecap="round" stroke-linejoin="round"/>
    <path d="M 169.33535766601562 79.1181869506836 C 175.2142791748047 -2.8400027751922607 200.6797332763672 73.62606811523438 200.10630798339844 51.2869873046875" stroke-width="3.0" fill="none" stroke="rgb(0, 0, 0)" stroke-opacity="1.0" stroke-linecap="round" stroke-linejoin="round"/>
    <path d="M 194.24436950683594 60.08944320678711 C 154.46507263183594 37.594322204589844 228.29652404785156 46.5968132019043 195.83914184570312 51.42958450317383" stroke-width="3.0" fill="none" stroke="rgb(0, 0, 0)" stroke-opacity="1.0" stroke-linecap="round" stroke-linejoin="round"/>
  </g>
</svg>
