<?xml version="1.0" ?>
<svg xmlns="http://www.w3.org/2000/svg" version="1.1" width="224" height="224">
  <defs/>
  <g>
    <path d="M 155.28404235839844 100.14086151123047 C 120.688232421875 85.2872085571289 177.72584533691406 122.64637756347656 124.5621337890625 75.46910095214844" stroke-width="3.0" fill="none" stroke="rgb(0, 0, 0)" stroke-opacity="1.0" stroke-linecap="round" stroke-linejoin="round"/>
    <path d="M 108.1242904663086 89.04975891113281 C 106.51950073242188 101.45452880859375 101.71824645996094 101.59414672851562 107.19383239746094 113.43912506103516" stroke-width="3.0" fill="none" stroke="rgb(0, 0, 0)" stroke-opacity="1.0" stroke-linecap="round" stroke-linejoin="round"/>
    <path d="M 142.71566772460938 103.40060424804688 C 143.72897338867188 61.53594207763672 125.44203186035156 128.38827514648438 176.12135314941406 89.56963348388672" stroke-width="3.0" fill="none" stroke="rgb(0, 0, 0)" stroke-opacity="1.0" stroke-linecap="round" stroke-linejoin="round"/>
    <path d="M 63.199485778808594 43.84827423095703 C 62.74404525756836 41.89012145996094 56.48878479003906 48.08833312988281 62.681888580322266 43.206966400146484" stroke-width="3.0" fill="none" stroke="rgb(0, 0, 0)" stroke-opacity="1.0" stroke-linecap="round" stroke-linejoin="round"/>
    <path d="M 123.46884155273438 78.3241195678711 C 114.73108673095703 48.407806396484375 109.88241577148438 62.762664794921875 97.4504623413086 46.819725036621094" stroke-width="3.0" fill="none" stroke="rgb(0, 0, 0)" stroke-opacity="1.0" stroke-linecap="round" stroke-linejoin="round"/>
    <path d="M 76.27704620361328 112.43804931640625 C 43.93439865112305 83.13076782226562 62.255889892578125 89.03131866455078 47.96057891845703 65.52507019042969" stroke-width="3.0" fill="none" stroke="rgb(0, 0, 0)" stroke-opacity="1.0" stroke-linecap="round" stroke-linejoin="round"/>
    <path d="M 180.87420654296875 39.32588577270508 C 181.03216552734375 44.829776763916016 193.1033935546875 52.485748291015625 178.70114135742188 78.74665069580078" stroke-width="3.0" fill="none" stroke="rgb(0, 0, 0)" stroke-opacity="1.0" stroke-linecap="round" stroke-linejoin="round"/>
    <path d="M 101.91715240478516 194.3579864501953 C 125.94886779785156 80.8203353881836 120.82354736328125 123.68303680419922 132.4103240966797 101.72338104248047" stroke-width="3.0" fill="none" stroke="rgb(0, 0, 0)" stroke-opacity="1.0" stroke-linecap="round" stroke-linejoin="round"/>
    <path d="M 41.08122634887695 85.48605346679688 C 35.14259338378906 200.0762939453125 21.375869750976562 119.11255645751953 41.17862319946289 200.04115295410156" stroke-width="3.0" fill="none" stroke="rgb(0, 0, 0)" stroke-opacity="1.0" stroke-linecap="round" stroke-linejoin="round"/>
    <path d="M 63.45460510253906 43.91399383544922 C 89.96672821044922 15.564937591552734 139.8089599609375 102.95391845703125 164.3427276611328 84.33899688720703" stroke-width="3.0" fill="none" stroke="rgb(0, 0, 0)" stroke-opacity="1.0" stroke-linecap="round" stroke-linejoin="round"/>
    <path d="M 51.4943733215332 85.5758285522461 C 77.41251373291016 126.31028747558594 77.38482666015625 116.26210021972656 104.03553009033203 119.76270294189453" stroke-width="3.0" fill="none" stroke="rgb(0, 0, 0)" stroke-opacity="1.0" stroke-linecap="round" stroke-linejoin="round"/>
    <path d="M 30.832197189331055 116.68580627441406 C 20.372615814208984 62.95037078857422 31.779630661010742 66.49832916259766 60.38312911987305 44.54121398925781" stroke-width="3.0" fill="none" stroke="rgb(0, 0, 0)" stroke-opacity="1.0" stroke-linecap="round" stroke-linejoin="round"/>
    <path d="M 166.20692443847656 83.17228698730469 C 193.47140502929688 43.99906921386719 192.99581909179688 57.83774948120117 178.95947265625 86.54765319824219" stroke-width="3.0" fill="none" stroke="rgb(0, 0, 0)" stroke-opacity="1.0" stroke-linecap="round" stroke-linejoin="round"/>
    <path d="M 107.18941497802734 118.4851303100586 C 109.13761901855469 185.23159790039062 74.42044067382812 204.1290740966797 112.74470520019531 188.63861083984375" stroke-width="3.0" fill="none" stroke="rgb(0, 0, 0)" stroke-opacity="1.0" stroke-linecap="round" stroke-linejoin="round"/>
    <path d="M 172.5011444091797 84.18173217773438 C 172.1859588623047 -2.889495849609375 205.45855712890625 72.61100006103516 200.43833923339844 48.14107131958008" stroke-width="3.0" fill="none" stroke="rgb(0, 0, 0)" stroke-opacity="1.0" stroke-linecap="round" stroke-linejoin="round"/>
    <path d="M 194.9441375732422 63.771976470947266 C 151.40113830566406 38.02688217163086 232.57032775878906 42.67982482910156 195.01527404785156 52.551177978515625" stroke-width="3.0" fill="none" stroke="rgb(0, 0, 0)" stroke-opacity="1.0" stroke-linecap="round" stroke-linejoin="round"/>
  </g>
</svg>
