<?xml version="1.0" ?>
<svg xmlns="http://www.w3.org/2000/svg" version="1.1" width="224" height="224">
  <defs/>
  <g>
    <path d="M 152.7520751953125 103.084228515625 C 118.79503631591797 79.11912536621094 175.59454345703125 136.81211853027344 121.94511413574219 74.04889678955078" stroke-width="3.0" fill="none" stroke="rgb(0, 0, 0)" stroke-opacity="1.0" stroke-linecap="round" stroke-linejoin="round"/>
    <path d="M 108.16154479980469 93.00496673583984 C 112.40657806396484 108.24398040771484 100.87249755859375 107.65644836425781 106.5948257446289 114.99801635742188" stroke-width="3.0" fill="none" stroke="rgb(0, 0, 0)" stroke-opacity="1.0" stroke-linecap="round" stroke-linejoin="round"/>
    <path d="M 140.57276916503906 105.73506927490234 C 141.2596893310547 63.78606414794922 132.6934356689453 135.7979278564453 183.25291442871094 81.85224151611328" stroke-width="3.0" fill="none" stroke="rgb(0, 0, 0)" stroke-opacity="1.0" stroke-linecap="round" stroke-linejoin="round"/>
    <path d="M 62.80210876464844 39.81713104248047 C 64.12026977539062 40.46622848510742 56.29649353027344 43.46555709838867 62.65143966674805 40.66960525512695" stroke-width="3.0" fill="none" stroke="rgb(0, 0, 0)" stroke-opacity="1.0" stroke-linecap="round" stroke-linejoin="round"/>
    <path d="M 130.00491333007812 83.141357421875 C 105.71642303466797 41.54792404174805 113.21414947509766 65.14582061767578 95.11282348632812 44.77025604248047" stroke-width="3.0" fill="none" stroke="rgb(0, 0, 0)" stroke-opacity="1.0" stroke-linecap="round" stroke-linejoin="round"/>
    <path d="M 67.48060607910156 111.51631927490234 C 40.075740814208984 70.41485595703125 56.08595657348633 91.06177520751953 42.09663772583008 67.9311752319336" stroke-width="3.0" fill="none" stroke="rgb(0, 0, 0)" stroke-opacity="1.0" stroke-linecap="round" stroke-linejoin="round"/>
    <path d="M 185.1380615234375 44.089210510253906 C 189.1331329345703 44.183292388916016 195.57171630859375 48.176021575927734 187.1807098388672 80.39161682128906" stroke-width="3.0" fill="none" stroke="rgb(0, 0, 0)" stroke-opacity="1.0" stroke-linecap="round" stroke-linejoin="round"/>
    <path d="M 105.28545379638672 192.44692993164062 C 122.84129333496094 82.78765106201172 122.53031921386719 122.59075164794922 132.8323974609375 101.83788299560547" stroke-width="3.0" fill="none" stroke="rgb(0, 0, 0)" stroke-opacity="1.0" stroke-linecap="round" stroke-linejoin="round"/>
    <path d="M 46.551490783691406 97.91914367675781 C 23.440935134887695 181.57508850097656 15.751745223999023 125.06102752685547 39.231754302978516 199.46524047851562" stroke-width="3.0" fill="none" stroke="rgb(0, 0, 0)" stroke-opacity="1.0" stroke-linecap="round" stroke-linejoin="round"/>
    <path d="M 62.98219680786133 40.1659049987793 C 95.89320373535156 15.110943794250488 142.3597412109375 111.07295227050781 169.16824340820312 79.67778015136719" stroke-width="3.0" fill="none" stroke="rgb(0, 0, 0)" stroke-opacity="1.0" stroke-linecap="round" stroke-linejoin="round"/>
    <path d="M 50.74261474609375 96.65424346923828 C 75.521240234375 122.36184692382812 86.57991790771484 115.01366424560547 104.90673065185547 118.97853088378906" stroke-width="3.0" fill="none" stroke="rgb(0, 0, 0)" stroke-opacity="1.0" stroke-linecap="round" stroke-linejoin="round"/>
    <path d="M 17.409948348999023 134.26637268066406 C 8.874425888061523 70.60541534423828 19.37490463256836 82.79759216308594 58.12267303466797 42.511417388916016" stroke-width="3.0" fill="none" stroke="rgb(0, 0, 0)" stroke-opacity="1.0" stroke-linecap="round" stroke-linejoin="round"/>
    <path d="M 166.64834594726562 81.40262603759766 C 194.59214782714844 34.54997634887695 197.6882781982422 46.1287841796875 173.14341735839844 89.60774230957031" stroke-width="3.0" fill="none" stroke="rgb(0, 0, 0)" stroke-opacity="1.0" stroke-linecap="round" stroke-linejoin="round"/>
    <path d="M 105.65247344970703 118.0307388305664 C 110.06632232666016 179.9403839111328 76.6922836303711 198.7517547607422 109.57854461669922 190.78659057617188" stroke-width="3.0" fill="none" stroke="rgb(0, 0, 0)" stroke-opacity="1.0" stroke-linecap="round" stroke-linejoin="round"/>
    <path d="M 171.70755004882812 76.28572845458984 C 173.89932250976562 -1.7867648601531982 215.26611328125 73.3570327758789 207.23388671875 47.9963264465332" stroke-width="3.0" fill="none" stroke="rgb(0, 0, 0)" stroke-opacity="1.0" stroke-linecap="round" stroke-linejoin="round"/>
    <path d="M 198.6024627685547 59.72820281982422 C 151.06451416015625 41.348445892333984 262.39593505859375 46.24451446533203 201.88038635253906 56.87588882446289" stroke-width="3.0" fill="none" stroke="rgb(0, 0, 0)" stroke-opacity="1.0" stroke-linecap="round" stroke-linejoin="round"/>
  </g>
</svg>
