<?xml version="1.0" ?>
<svg xmlns="http://www.w3.org/2000/svg" version="1.1" width="224" height="224">
  <defs/>
  <g>
    <path d="M 140.0522003173828 101.52368927001953 C 120.60011291503906 86.64368438720703 153.84268188476562 141.080322265625 117.8165283203125 68.96356201171875" stroke-width="3.0" fill="none" stroke="rgb(0, 0, 0)" stroke-opacity="1.0" stroke-linecap="round" stroke-linejoin="round"/>
    <path d="M 107.17707061767578 95.63249206542969 C 108.46623992919922 97.64149475097656 101.87721252441406 99.40065002441406 107.92437744140625 111.88834381103516" stroke-width="3.0" fill="none" stroke="rgb(0, 0, 0)" stroke-opacity="1.0" stroke-linecap="round" stroke-linejoin="round"/>
    <path d="M 131.58233642578125 108.83370971679688 C 136.49208068847656 82.3357162475586 140.133544921875 134.7393798828125 182.72128295898438 83.87598419189453" stroke-width="3.0" fill="none" stroke="rgb(0, 0, 0)" stroke-opacity="1.0" stroke-linecap="round" stroke-linejoin="round"/>
    <path d="M 66.3591079711914 40.3470458984375 C 64.0580825805664 42.02623748779297 55.06381607055664 46.429656982421875 60.290672302246094 43.39166259765625" stroke-width="3.0" fill="none" stroke="rgb(0, 0, 0)" stroke-opacity="1.0" stroke-linecap="round" stroke-linejoin="round"/>
    <path d="M 131.0966796875 84.50081634521484 C 101.89204406738281 40.7962760925293 111.52263641357422 66.18677520751953 96.44287109375 46.3885498046875" stroke-width="3.0" fill="none" stroke="rgb(0, 0, 0)" stroke-opacity="1.0" stroke-linecap="round" stroke-linejoin="round"/>
    <path d="M 67.18058776855469 108.40086364746094 C 38.661468505859375 78.5958480834961 60.6851692199707 96.84053802490234 44.309539794921875 70.93975067138672" stroke-width="3.0" fill="none" stroke="rgb(0, 0, 0)" stroke-opacity="1.0" stroke-linecap="round" stroke-linejoin="round"/>
    <path d="M 180.48329162597656 54.60838317871094 C 177.12255859375 24.020793914794922 195.6127166748047 47.30519485473633 186.8402557373047 83.2195053100586" stroke-width="3.0" fill="none" stroke="rgb(0, 0, 0)" stroke-opacity="1.0" stroke-linecap="round" stroke-linejoin="round"/>
    <path d="M 103.8291015625 193.29263305664062 C 119.2995376586914 77.21987915039062 123.40646362304688 128.7539825439453 124.62577819824219 101.36520385742188" stroke-width="3.0" fill="none" stroke="rgb(0, 0, 0)" stroke-opacity="1.0" stroke-linecap="round" stroke-linejoin="round"/>
    <path d="M 49.37871551513672 99.85675811767578 C 24.284961700439453 175.4997100830078 15.357912063598633 125.2608642578125 41.82786178588867 198.0657501220703" stroke-width="3.0" fill="none" stroke="rgb(0, 0, 0)" stroke-opacity="1.0" stroke-linecap="round" stroke-linejoin="round"/>
    <path d="M 63.27029800415039 41.95644760131836 C 97.52262878417969 18.858755111694336 151.1973419189453 114.94891357421875 172.22171020507812 73.40406799316406" stroke-width="3.0" fill="none" stroke="rgb(0, 0, 0)" stroke-opacity="1.0" stroke-linecap="round" stroke-linejoin="round"/>
    <path d="M 49.1254768371582 98.21592712402344 C 81.5750503540039 120.36788177490234 79.15562438964844 112.75682830810547 104.08385467529297 118.84134674072266" stroke-width="3.0" fill="none" stroke="rgb(0, 0, 0)" stroke-opacity="1.0" stroke-linecap="round" stroke-linejoin="round"/>
    <path d="M 21.132463455200195 132.44882202148438 C 10.897378921508789 70.013916015625 10.783452987670898 83.07489013671875 58.32890319824219 44.05649948120117" stroke-width="3.0" fill="none" stroke="rgb(0, 0, 0)" stroke-opacity="1.0" stroke-linecap="round" stroke-linejoin="round"/>
    <path d="M 172.867431640625 87.91539764404297 C 193.85096740722656 25.979276657104492 204.12693786621094 32.214637756347656 169.1887664794922 96.96001434326172" stroke-width="3.0" fill="none" stroke="rgb(0, 0, 0)" stroke-opacity="1.0" stroke-linecap="round" stroke-linejoin="round"/>
    <path d="M 106.35580444335938 115.79442596435547 C 110.09099578857422 185.2222442626953 79.15431213378906 202.2779541015625 112.59292602539062 187.3828582763672" stroke-width="3.0" fill="none" stroke="rgb(0, 0, 0)" stroke-opacity="1.0" stroke-linecap="round" stroke-linejoin="round"/>
    <path d="M 170.6612091064453 76.45951080322266 C 180.38751220703125 8.77547836303711 217.94039916992188 76.61891174316406 205.9450225830078 45.58189392089844" stroke-width="3.0" fill="none" stroke="rgb(0, 0, 0)" stroke-opacity="1.0" stroke-linecap="round" stroke-linejoin="round"/>
    <path d="M 191.4890899658203 63.307437896728516 C 155.29469299316406 42.027130126953125 258.1338806152344 42.9041633605957 197.73831176757812 57.45840835571289" stroke-width="3.0" fill="none" stroke="rgb(0, 0, 0)" stroke-opacity="1.0" stroke-linecap="round" stroke-linejoin="round"/>
  </g>
</svg>
