<?xml version="1.0" ?>
<svg xmlns="http://www.w3.org/2000/svg" version="1.1" width="224" height="224">
  <defs/>
  <g>
    <path d="M 131.5100555419922 106.50959014892578 C 124.48771667480469 87.86720275878906 150.77276611328125 136.41802978515625 118.96246337890625 69.24258422851562" stroke-width="3.0" fill="none" stroke="rgb(0, 0, 0)" stroke-opacity="1.0" stroke-linecap="round" stroke-linejoin="round"/>
    <path d="M 111.97427368164062 88.55023193359375 C 116.22428131103516 99.90483093261719 105.9788818359375 102.01077270507812 112.08867645263672 112.93762969970703" stroke-width="3.0" fill="none" stroke="rgb(0, 0, 0)" stroke-opacity="1.0" stroke-linecap="round" stroke-linejoin="round"/>
    <path d="M 128.92141723632812 107.66639709472656 C 131.4210968017578 91.1116943359375 153.40884399414062 138.3887481689453 186.71786499023438 69.26930236816406" stroke-width="3.0" fill="none" stroke="rgb(0, 0, 0)" stroke-opacity="1.0" stroke-linecap="round" stroke-linejoin="round"/>
    <path d="M 61.5452880859375 42.50876998901367 C 63.95856475830078 37.969810485839844 52.83423614501953 47.10325241088867 40.74125671386719 62.26723861694336" stroke-width="3.0" fill="none" stroke="rgb(0, 0, 0)" stroke-opacity="1.0" stroke-linecap="round" stroke-linejoin="round"/>
    <path d="M 135.75845336914062 82.20086669921875 C 106.21417236328125 41.93807601928711 113.82647705078125 69.43311309814453 91.84363555908203 45.813568115234375" stroke-width="3.0" fill="none" stroke="rgb(0, 0, 0)" stroke-opacity="1.0" stroke-linecap="round" stroke-linejoin="round"/>
    <path d="M 67.70662689208984 109.90190124511719 C 39.28081512451172 78.3480453491211 61.181793212890625 96.76214599609375 41.093017578125 74.17158508300781" stroke-width="3.0" fill="none" stroke="rgb(0, 0, 0)" stroke-opacity="1.0" stroke-linecap="round" stroke-linejoin="round"/>
    <path d="M 188.19569396972656 60.594207763671875 C 172.54722595214844 38.213069915771484 195.74354553222656 52.32070541381836 186.81680297851562 77.81787872314453" stroke-width="3.0" fill="none" stroke="rgb(0, 0, 0)" stroke-opacity="1.0" stroke-linecap="round" stroke-linejoin="round"/>
    <path d="M 104.76696014404297 194.3866424560547 C 112.5144271850586 92.21141815185547 119.94638061523438 130.09738159179688 122.02333068847656 103.24967956542969" stroke-width="3.0" fill="none" stroke="rgb(0, 0, 0)" stroke-opacity="1.0" stroke-linecap="round" stroke-linejoin="round"/>
    <path d="M 48.01516342163086 102.09834289550781 C 28.77311897277832 177.95315551757812 15.029297828674316 124.2300033569336 38.74576187133789 199.7687225341797" stroke-width="3.0" fill="none" stroke="rgb(0, 0, 0)" stroke-opacity="1.0" stroke-linecap="round" stroke-linejoin="round"/>
    <path d="M 62.49558639526367 41.16216278076172 C 98.58475494384766 17.533411026000977 155.55880737304688 133.18106079101562 178.59378051757812 54.853187561035156" stroke-width="3.0" fill="none" stroke="rgb(0, 0, 0)" stroke-opacity="1.0" stroke-linecap="round" stroke-linejoin="round"/>
    <path d="M 46.532955169677734 97.31813049316406 C 85.63628387451172 122.18653869628906 82.09567260742188 113.53324890136719 104.8572998046875 116.94552612304688" stroke-width="3.0" fill="none" stroke="rgb(0, 0, 0)" stroke-opacity="1.0" stroke-linecap="round" stroke-linejoin="round"/>
    <path d="M 27.223709106445312 139.81272888183594 C 19.61011505126953 93.14933776855469 -7.183964252471924 88.8648681640625 53.414615631103516 53.18267822265625" stroke-width="3.0" fill="none" stroke="rgb(0, 0, 0)" stroke-opacity="1.0" stroke-linecap="round" stroke-linejoin="round"/>
    <path d="M 174.75086975097656 88.35259246826172 C 189.3439483642578 17.490060806274414 209.07846069335938 29.54465675354004 164.5738525390625 95.58755493164062" stroke-width="3.0" fill="none" stroke="rgb(0, 0, 0)" stroke-opacity="1.0" stroke-linecap="round" stroke-linejoin="round"/>
    <path d="M 104.79471588134766 116.0119857788086 C 109.14066314697266 182.5144500732422 83.35807800292969 201.04347229003906 111.98535919189453 189.74290466308594" stroke-width="3.0" fill="none" stroke="rgb(0, 0, 0)" stroke-opacity="1.0" stroke-linecap="round" stroke-linejoin="round"/>
    <path d="M 169.94363403320312 71.27685546875 C 180.80958557128906 4.06332540512085 215.56268310546875 77.12129211425781 203.40914916992188 50.18467712402344" stroke-width="3.0" fill="none" stroke="rgb(0, 0, 0)" stroke-opacity="1.0" stroke-linecap="round" stroke-linejoin="round"/>
    <path d="M 193.51844787597656 63.352203369140625 C 151.3819122314453 46.230926513671875 253.2610321044922 45.47344207763672 196.17581176757812 58.85490798950195" stroke-width="3.0" fill="none" stroke="rgb(0, 0, 0)" stroke-opacity="1.0" stroke-linecap="round" stroke-linejoin="round"/>
  </g>
</svg>
