<?xml version="1.0" ?>
<svg xmlns="http://www.w3.org/2000/svg" version="1.1" width="224" height="224">
  <defs/>
  <g>
    <path d="M 137.1827392578125 105.03251647949219 C 122.15943145751953 90.78044891357422 149.93812561035156 140.84364318847656 117.7450180053711 65.49507904052734" stroke-width="3.0" fill="none" stroke="rgb(0, 0, 0)" stroke-opacity="1.0" stroke-linecap="round" stroke-linejoin="round"/>
    <path d="M 109.67391967773438 91.18525695800781 C 113.50577545166016 101.42273712158203 101.617919921875 105.03388214111328 106.87972259521484 115.70553588867188" stroke-width="3.0" fill="none" stroke="rgb(0, 0, 0)" stroke-opacity="1.0" stroke-linecap="round" stroke-linejoin="round"/>
    <path d="M 130.8860626220703 109.44943237304688 C 136.1372528076172 84.68172454833984 143.31431579589844 138.57704162597656 186.66940307617188 75.560791015625" stroke-width="3.0" fill="none" stroke="rgb(0, 0, 0)" stroke-opacity="1.0" stroke-linecap="round" stroke-linejoin="round"/>
    <path d="M 72.15023040771484 37.315616607666016 C 63.983394622802734 37.86090850830078 56.074981689453125 46.773223876953125 53.928466796875 48.25017166137695" stroke-width="3.0" fill="none" stroke="rgb(0, 0, 0)" stroke-opacity="1.0" stroke-linecap="round" stroke-linejoin="round"/>
    <path d="M 130.50892639160156 83.3307113647461 C 111.15123748779297 36.20203399658203 112.76675415039062 66.6902847290039 96.90912628173828 44.120269775390625" stroke-width="3.0" fill="none" stroke="rgb(0, 0, 0)" stroke-opacity="1.0" stroke-linecap="round" stroke-linejoin="round"/>
    <path d="M 68.87545013427734 113.11359405517578 C 35.892120361328125 83.1995620727539 61.408809661865234 100.59618377685547 40.86368179321289 78.91398620605469" stroke-width="3.0" fill="none" stroke="rgb(0, 0, 0)" stroke-opacity="1.0" stroke-linecap="round" stroke-linejoin="round"/>
    <path d="M 183.73794555664062 59.95623016357422 C 175.10386657714844 32.94015884399414 190.96087646484375 47.08580780029297 186.1822052001953 73.20465850830078" stroke-width="3.0" fill="none" stroke="rgb(0, 0, 0)" stroke-opacity="1.0" stroke-linecap="round" stroke-linejoin="round"/>
    <path d="M 102.44379425048828 195.16343688964844 C 122.89895629882812 81.67454528808594 125.37610626220703 129.4971466064453 125.83182525634766 98.74568176269531" stroke-width="3.0" fill="none" stroke="rgb(0, 0, 0)" stroke-opacity="1.0" stroke-linecap="round" stroke-linejoin="round"/>
    <path d="M 45.48115158081055 104.34416198730469 C 24.16466522216797 171.81576538085938 16.703256607055664 125.20790100097656 38.601829528808594 198.38018798828125" stroke-width="3.0" fill="none" stroke="rgb(0, 0, 0)" stroke-opacity="1.0" stroke-linecap="round" stroke-linejoin="round"/>
    <path d="M 69.40731811523438 38.466182708740234 C 98.42826080322266 14.363969802856445 156.06460571289062 130.08053588867188 170.20509338378906 64.92078399658203" stroke-width="3.0" fill="none" stroke="rgb(0, 0, 0)" stroke-opacity="1.0" stroke-linecap="round" stroke-linejoin="round"/>
    <path d="M 48.05224609375 102.38298034667969 C 84.66730499267578 121.12709045410156 79.67603302001953 113.60063934326172 105.87944793701172 119.38898468017578" stroke-width="3.0" fill="none" stroke="rgb(0, 0, 0)" stroke-opacity="1.0" stroke-linecap="round" stroke-linejoin="round"/>
    <path d="M 22.413028717041016 135.8229522705078 C 9.300272941589355 72.21077728271484 10.550684928894043 87.3459243774414 55.69500732421875 45.62319564819336" stroke-width="3.0" fill="none" stroke="rgb(0, 0, 0)" stroke-opacity="1.0" stroke-linecap="round" stroke-linejoin="round"/>
    <path d="M 176.5458526611328 87.74982452392578 C 203.53346252441406 24.746694564819336 194.80886840820312 20.00636100769043 173.1753387451172 88.4113540649414" stroke-width="3.0" fill="none" stroke="rgb(0, 0, 0)" stroke-opacity="1.0" stroke-linecap="round" stroke-linejoin="round"/>
    <path d="M 105.17329406738281 120.73469543457031 C 110.05609130859375 182.90646362304688 72.01029968261719 206.3504180908203 108.13725280761719 196.78225708007812" stroke-width="3.0" fill="none" stroke="rgb(0, 0, 0)" stroke-opacity="1.0" stroke-linecap="round" stroke-linejoin="round"/>
    <path d="M 171.305908203125 65.86298370361328 C 180.5237579345703 4.0036492347717285 220.33151245117188 76.29045104980469 207.00100708007812 46.68495178222656" stroke-width="3.0" fill="none" stroke="rgb(0, 0, 0)" stroke-opacity="1.0" stroke-linecap="round" stroke-linejoin="round"/>
    <path d="M 189.2663116455078 63.0923957824707 C 157.36920166015625 42.2851676940918 259.9682922363281 45.27855682373047 196.23538208007812 58.65545654296875" stroke-width="3.0" fill="none" stroke="rgb(0, 0, 0)" stroke-opacity="1.0" stroke-linecap="round" stroke-linejoin="round"/>
  </g>
</svg>
