<?xml version="1.0" ?>
<svg xmlns="http://www.w3.org/2000/svg" version="1.1" width="224" height="224">
  <defs/>
  <g>
    <path d="M 153.28213500976562 99.19817352294922 C 118.8445053100586 83.61333465576172 181.310546875 126.67374420166016 123.38467407226562 74.57015991210938" stroke-width="3.0" fill="none" stroke="rgb(0, 0, 0)" stroke-opacity="1.0" stroke-linecap="round" stroke-linejoin="round"/>
    <path d="M 110.57215118408203 99.21965789794922 C 106.15303039550781 111.12235260009766 104.59423065185547 103.14358520507812 106.69680786132812 113.99356842041016" stroke-width="3.0" fill="none" stroke="rgb(0, 0, 0)" stroke-opacity="1.0" stroke-linecap="round" stroke-linejoin="round"/>
    <path d="M 139.9742889404297 103.09014129638672 C 142.54812622070312 64.67706298828125 126.06452178955078 127.39008331298828 177.06471252441406 91.2068862915039" stroke-width="3.0" fill="none" stroke="rgb(0, 0, 0)" stroke-opacity="1.0" stroke-linecap="round" stroke-linejoin="round"/>
    <path d="M 60.68787384033203 43.435935974121094 C 63.04878234863281 42.361724853515625 55.9593391418457 47.69755172729492 63.70777130126953 41.89247512817383" stroke-width="3.0" fill="none" stroke="rgb(0, 0, 0)" stroke-opacity="1.0" stroke-linecap="round" stroke-linejoin="round"/>
    <path d="M 130.3675537109375 83.18782806396484 C 110.18305206298828 46.61386489868164 112.78370666503906 62.37388610839844 99.70710754394531 46.568660736083984" stroke-width="3.0" fill="none" stroke="rgb(0, 0, 0)" stroke-opacity="1.0" stroke-linecap="round" stroke-linejoin="round"/>
    <path d="M 70.17462158203125 111.30654907226562 C 41.86886978149414 78.21033477783203 60.58012390136719 87.77802276611328 49.03377151489258 62.76293182373047" stroke-width="3.0" fill="none" stroke="rgb(0, 0, 0)" stroke-opacity="1.0" stroke-linecap="round" stroke-linejoin="round"/>
    <path d="M 182.122314453125 39.59146499633789 C 183.4080352783203 44.38819885253906 192.92355346679688 48.135677337646484 175.45672607421875 75.45557403564453" stroke-width="3.0" fill="none" stroke="rgb(0, 0, 0)" stroke-opacity="1.0" stroke-linecap="round" stroke-linejoin="round"/>
    <path d="M 105.01786804199219 193.96266174316406 C 120.95303344726562 82.9610595703125 119.95885467529297 121.98499298095703 131.96202087402344 102.7787857055664" stroke-width="3.0" fill="none" stroke="rgb(0, 0, 0)" stroke-opacity="1.0" stroke-linecap="round" stroke-linejoin="round"/>
    <path d="M 45.045166015625 91.78556060791016 C 23.31684684753418 180.9923858642578 14.336736679077148 124.03421783447266 40.70115280151367 196.6400909423828" stroke-width="3.0" fill="none" stroke="rgb(0, 0, 0)" stroke-opacity="1.0" stroke-linecap="round" stroke-linejoin="round"/>
    <path d="M 62.00395584106445 43.05596160888672 C 95.08008575439453 15.093096733093262 141.2985382080078 103.18213653564453 166.4666748046875 80.36543273925781" stroke-width="3.0" fill="none" stroke="rgb(0, 0, 0)" stroke-opacity="1.0" stroke-linecap="round" stroke-linejoin="round"/>
    <path d="M 47.02631759643555 93.820068359375 C 69.6767578125 121.74176025390625 86.00826263427734 112.12501525878906 105.40983581542969 119.04698181152344" stroke-width="3.0" fill="none" stroke="rgb(0, 0, 0)" stroke-opacity="1.0" stroke-linecap="round" stroke-linejoin="round"/>
    <path d="M 20.7747859954834 128.26559448242188 C 5.404443264007568 68.40515899658203 23.94580078125 75.19329833984375 59.659767150878906 43.96755599975586" stroke-width="3.0" fill="none" stroke="rgb(0, 0, 0)" stroke-opacity="1.0" stroke-linecap="round" stroke-linejoin="round"/>
    <path d="M 164.18614196777344 84.5029067993164 C 191.06874084472656 43.13697052001953 197.54476928710938 60.800567626953125 178.89178466796875 88.30145263671875" stroke-width="3.0" fill="none" stroke="rgb(0, 0, 0)" stroke-opacity="1.0" stroke-linecap="round" stroke-linejoin="round"/>
    <path d="M 104.41150665283203 120.17059326171875 C 109.94780731201172 182.48231506347656 77.34028625488281 204.53245544433594 109.3570556640625 188.74635314941406" stroke-width="3.0" fill="none" stroke="rgb(0, 0, 0)" stroke-opacity="1.0" stroke-linecap="round" stroke-linejoin="round"/>
    <path d="M 173.9523468017578 82.9648208618164 C 172.79566955566406 -2.7920384407043457 210.1440887451172 75.47110748291016 198.55955505371094 45.71228790283203" stroke-width="3.0" fill="none" stroke="rgb(0, 0, 0)" stroke-opacity="1.0" stroke-linecap="round" stroke-linejoin="round"/>
    <path d="M 194.37191772460938 64.09062957763672 C 144.78868103027344 40.67715072631836 241.3269500732422 42.11899185180664 193.83934020996094 51.261688232421875" stroke-width="3.0" fill="none" stroke="rgb(0, 0, 0)" stroke-opacity="1.0" stroke-linecap="round" stroke-linejoin="round"/>
  </g>
</svg>
