<?xml version="1.0" ?>
<svg xmlns="http://www.w3.org/2000/svg" version="1.1" width="224" height="224">
  <defs/>
  <g>
    <path d="M 147.97451782226562 101.54855346679688 C 129.7112274169922 85.9726791381836 139.60694885253906 78.93231964111328 134.23822021484375 88.81678009033203" stroke-width="3.0" fill="none" stroke="rgb(0, 0, 0)" stroke-opacity="1.0" stroke-linecap="round" stroke-linejoin="round"/>
    <path d="M 104.41210174560547 95.00311279296875 C 102.88507843017578 98.971435546875 101.38744354248047 99.7490234375 108.83696746826172 110.4627685546875" stroke-width="3.0" fill="none" stroke="rgb(0, 0, 0)" stroke-opacity="1.0" stroke-linecap="round" stroke-linejoin="round"/>
    <path d="M 131.24708557128906 112.64622497558594 C 153.61085510253906 93.6645736694336 119.42914581298828 95.8155746459961 159.6217041015625 101.48375701904297" stroke-width="3.0" fill="none" stroke="rgb(0, 0, 0)" stroke-opacity="1.0" stroke-linecap="round" stroke-linejoin="round"/>
    <path d="M 58.46847152709961 43.78376007080078 C 50.45148468017578 48.05918502807617 31.081924438476562 72.33033752441406 44.92444610595703 56.13118362426758" stroke-width="3.0" fill="none" stroke="rgb(0, 0, 0)" stroke-opacity="1.0" stroke-linecap="round" stroke-linejoin="round"/>
    <path d="M 103.30585479736328 52.295352935791016 C 119.41949462890625 55.56208419799805 104.73402404785156 57.55052947998047 100.52339172363281 46.88646697998047" stroke-width="3.0" fill="none" stroke="rgb(0, 0, 0)" stroke-opacity="1.0" stroke-linecap="round" stroke-linejoin="round"/>
    <path d="M 72.97257232666016 112.3606185913086 C 53.508087158203125 93.67842864990234 56.71299743652344 86.27375030517578 47.681976318359375 81.09327697753906" stroke-width="3.0" fill="none" stroke="rgb(0, 0, 0)" stroke-opacity="1.0" stroke-linecap="round" stroke-linejoin="round"/>
    <path d="M 183.44677734375 47.510501861572266 C 174.6651153564453 66.43143463134766 197.37896728515625 65.6190185546875 168.41336059570312 83.34346008300781" stroke-width="3.0" fill="none" stroke="rgb(0, 0, 0)" stroke-opacity="1.0" stroke-linecap="round" stroke-linejoin="round"/>
    <path d="M 112.95530700683594 150.9032440185547 C 125.62893676757812 89.970947265625 120.88045501708984 127.40937805175781 128.8954620361328 102.75273895263672" stroke-width="3.0" fill="none" stroke="rgb(0, 0, 0)" stroke-opacity="1.0" stroke-linecap="round" stroke-linejoin="round"/>
    <path d="M 47.79853057861328 94.60431671142578 C 25.618581771850586 183.9933319091797 18.238136291503906 122.93587493896484 39.743831634521484 198.57720947265625" stroke-width="3.0" fill="none" stroke="rgb(0, 0, 0)" stroke-opacity="1.0" stroke-linecap="round" stroke-linejoin="round"/>
    <path d="M 58.48998260498047 44.86745834350586 C 89.22110748291016 11.712393760681152 131.68472290039062 85.79326629638672 153.16976928710938 82.7864990234375" stroke-width="3.0" fill="none" stroke="rgb(0, 0, 0)" stroke-opacity="1.0" stroke-linecap="round" stroke-linejoin="round"/>
    <path d="M 48.33598327636719 99.37654876708984 C 94.5406265258789 127.4781265258789 83.76344299316406 110.05723571777344 102.21363067626953 114.462890625" stroke-width="3.0" fill="none" stroke="rgb(0, 0, 0)" stroke-opacity="1.0" stroke-linecap="round" stroke-linejoin="round"/>
    <path d="M 40.78452682495117 86.29094696044922 C 38.177520751953125 65.84151458740234 28.050029754638672 62.36990737915039 30.183773040771484 64.09322357177734" stroke-width="3.0" fill="none" stroke="rgb(0, 0, 0)" stroke-opacity="1.0" stroke-linecap="round" stroke-linejoin="round"/>
    <path d="M 152.62657165527344 84.38294982910156 C 213.72450256347656 66.61190032958984 163.0472412109375 72.88595581054688 171.6468505859375 97.29246520996094" stroke-width="3.0" fill="none" stroke="rgb(0, 0, 0)" stroke-opacity="1.0" stroke-linecap="round" stroke-linejoin="round"/>
    <path d="M 106.0719985961914 115.86066436767578 C 112.64424896240234 166.06597900390625 83.17743682861328 198.55062866210938 111.18431091308594 191.44436645507812" stroke-width="3.0" fill="none" stroke="rgb(0, 0, 0)" stroke-opacity="1.0" stroke-linecap="round" stroke-linejoin="round"/>
    <path d="M 172.6903076171875 71.02659606933594 C 184.5172882080078 4.383509159088135 180.7864532470703 63.38457489013672 210.5551300048828 48.28089141845703" stroke-width="3.0" fill="none" stroke="rgb(0, 0, 0)" stroke-opacity="1.0" stroke-linecap="round" stroke-linejoin="round"/>
    <path d="M 202.62660217285156 64.9405288696289 C 161.13763427734375 37.42982864379883 212.92291259765625 42.375728607177734 206.8999481201172 58.36170959472656" stroke-width="3.0" fill="none" stroke="rgb(0, 0, 0)" stroke-opacity="1.0" stroke-linecap="round" stroke-linejoin="round"/>
  </g>
</svg>
