<?xml version="1.0" ?>
<svg xmlns="http://www.w3.org/2000/svg" version="1.1" width="224" height="224">
  <defs/>
  <g>
    <path d="M 134.01495361328125 94.15292358398438 C 126.4927978515625 78.9057846069336 130.17262268066406 80.35523223876953 130.47425842285156 83.44566345214844" stroke-width="3.0" fill="none" stroke="rgb(0, 0, 0)" stroke-opacity="1.0" stroke-linecap="round" stroke-linejoin="round"/>
    <path d="M 95.60789489746094 99.37710571289062 C 95.14539337158203 105.97457122802734 87.57112884521484 104.73021697998047 99.26277923583984 114.79000091552734" stroke-width="3.0" fill="none" stroke="rgb(0, 0, 0)" stroke-opacity="1.0" stroke-linecap="round" stroke-linejoin="round"/>
    <path d="M 145.89288330078125 107.05240631103516 C 154.5629425048828 81.51361083984375 140.8961944580078 65.35401916503906 155.85780334472656 102.81058502197266" stroke-width="3.0" fill="none" stroke="rgb(0, 0, 0)" stroke-opacity="1.0" stroke-linecap="round" stroke-linejoin="round"/>
    <path d="M 55.64768600463867 50.968299865722656 C 66.6424331665039 83.31887817382812 44.61201095581055 93.74456024169922 52.69841384887695 92.49148559570312" stroke-width="3.0" fill="none" stroke="rgb(0, 0, 0)" stroke-opacity="1.0" stroke-linecap="round" stroke-linejoin="round"/>
    <path d="M 115.13267517089844 53.7568244934082 C 119.06440734863281 57.933406829833984 118.57939910888672 54.39205551147461 116.38798522949219 55.37018966674805" stroke-width="3.0" fill="none" stroke="rgb(0, 0, 0)" stroke-opacity="1.0" stroke-linecap="round" stroke-linejoin="round"/>
    <path d="M 55.43671417236328 84.85157012939453 C 54.172237396240234 101.52027130126953 52.27128601074219 90.96110534667969 52.87437438964844 88.75363159179688" stroke-width="3.0" fill="none" stroke="rgb(0, 0, 0)" stroke-opacity="1.0" stroke-linecap="round" stroke-linejoin="round"/>
    <path d="M 180.31768798828125 43.35414505004883 C 175.9141387939453 75.52669525146484 163.0363006591797 71.60294342041016 165.4342498779297 78.57414245605469" stroke-width="3.0" fill="none" stroke="rgb(0, 0, 0)" stroke-opacity="1.0" stroke-linecap="round" stroke-linejoin="round"/>
    <path d="M 109.21368408203125 135.4104766845703 C 116.85804748535156 115.50529479980469 98.43933868408203 131.3789520263672 114.79266357421875 115.7920150756836" stroke-width="3.0" fill="none" stroke="rgb(0, 0, 0)" stroke-opacity="1.0" stroke-linecap="round" stroke-linejoin="round"/>
    <path d="M 34.667110443115234 128.87060546875 C 24.66969871520996 173.36529541015625 32.39725875854492 144.98977661132812 44.04846954345703 198.47164916992188" stroke-width="3.0" fill="none" stroke="rgb(0, 0, 0)" stroke-opacity="1.0" stroke-linecap="round" stroke-linejoin="round"/>
    <path d="M 85.36956024169922 34.63362503051758 C 118.52346801757812 46.734214782714844 122.2309799194336 63.315059661865234 129.61947631835938 84.70471954345703" stroke-width="3.0" fill="none" stroke="rgb(0, 0, 0)" stroke-opacity="1.0" stroke-linecap="round" stroke-linejoin="round"/>
    <path d="M 55.1742057800293 102.40229034423828 C 74.596435546875 118.86869812011719 73.50701904296875 111.53609466552734 103.23633575439453 117.66407012939453" stroke-width="3.0" fill="none" stroke="rgb(0, 0, 0)" stroke-opacity="1.0" stroke-linecap="round" stroke-linejoin="round"/>
    <path d="M 26.386554718017578 91.9950180053711 C 22.423280715942383 75.50431060791016 20.120601654052734 82.37384796142578 22.001386642456055 77.44459533691406" stroke-width="3.0" fill="none" stroke="rgb(0, 0, 0)" stroke-opacity="1.0" stroke-linecap="round" stroke-linejoin="round"/>
    <path d="M 149.12535095214844 83.29473114013672 C 180.1366729736328 65.28106689453125 152.2303924560547 79.7922134399414 171.68360900878906 99.4158706665039" stroke-width="3.0" fill="none" stroke="rgb(0, 0, 0)" stroke-opacity="1.0" stroke-linecap="round" stroke-linejoin="round"/>
    <path d="M 103.60920715332031 114.00655364990234 C 121.43818664550781 155.46636962890625 86.79871368408203 198.71824645996094 108.99224853515625 190.19277954101562" stroke-width="3.0" fill="none" stroke="rgb(0, 0, 0)" stroke-opacity="1.0" stroke-linecap="round" stroke-linejoin="round"/>
    <path d="M 173.97628784179688 56.215293884277344 C 198.58575439453125 18.168533325195312 189.2291259765625 49.431854248046875 199.701904296875 42.33552932739258" stroke-width="3.0" fill="none" stroke="rgb(0, 0, 0)" stroke-opacity="1.0" stroke-linecap="round" stroke-linejoin="round"/>
    <path d="M 198.47373962402344 63.7156982421875 C 167.71546936035156 41.55550003051758 197.7246856689453 37.369972229003906 204.4499969482422 51.14753723144531" stroke-width="3.0" fill="none" stroke="rgb(0, 0, 0)" stroke-opacity="1.0" stroke-linecap="round" stroke-linejoin="round"/>
  </g>
</svg>
