<?xml version="1.0" ?>
<svg xmlns="http://www.w3.org/2000/svg" version="1.1" width="224" height="224">
  <defs/>
  <g>
    <path d="M 136.51702880859375 108.32530212402344 C 122.47766876220703 91.13568878173828 153.66250610351562 141.65133666992188 121.29426574707031 69.04269409179688" stroke-width="3.0" fill="none" stroke="rgb(0, 0, 0)" stroke-opacity="1.0" stroke-linecap="round" stroke-linejoin="round"/>
    <path d="M 108.81436157226562 93.52091979980469 C 109.93904876708984 102.58081817626953 102.9774398803711 101.87698364257812 107.3318862915039 112.19865417480469" stroke-width="3.0" fill="none" stroke="rgb(0, 0, 0)" stroke-opacity="1.0" stroke-linecap="round" stroke-linejoin="round"/>
    <path d="M 132.31884765625 110.46820068359375 C 131.3159942626953 82.33285522460938 142.5562286376953 136.6585693359375 183.14404296875 81.69479370117188" stroke-width="3.0" fill="none" stroke="rgb(0, 0, 0)" stroke-opacity="1.0" stroke-linecap="round" stroke-linejoin="round"/>
    <path d="M 68.5034408569336 37.48933410644531 C 63.572078704833984 38.4124755859375 55.45281982421875 44.6562385559082 56.40092468261719 44.1096076965332" stroke-width="3.0" fill="none" stroke="rgb(0, 0, 0)" stroke-opacity="1.0" stroke-linecap="round" stroke-linejoin="round"/>
    <path d="M 134.67367553710938 81.74147033691406 C 107.24181365966797 37.3529052734375 114.89900970458984 67.49462127685547 95.1574478149414 43.8505973815918" stroke-width="3.0" fill="none" stroke="rgb(0, 0, 0)" stroke-opacity="1.0" stroke-linecap="round" stroke-linejoin="round"/>
    <path d="M 63.183475494384766 111.08966827392578 C 37.9614372253418 78.96271514892578 58.49353790283203 92.49847412109375 41.91254425048828 70.42443084716797" stroke-width="3.0" fill="none" stroke="rgb(0, 0, 0)" stroke-opacity="1.0" stroke-linecap="round" stroke-linejoin="round"/>
    <path d="M 183.80532836914062 63.82054138183594 C 173.4270477294922 27.40105628967285 193.452880859375 49.95046615600586 186.50877380371094 81.28893280029297" stroke-width="3.0" fill="none" stroke="rgb(0, 0, 0)" stroke-opacity="1.0" stroke-linecap="round" stroke-linejoin="round"/>
    <path d="M 104.2892837524414 195.06809997558594 C 120.94524383544922 83.8748550415039 123.94181060791016 129.3122100830078 124.68235778808594 103.04405212402344" stroke-width="3.0" fill="none" stroke="rgb(0, 0, 0)" stroke-opacity="1.0" stroke-linecap="round" stroke-linejoin="round"/>
    <path d="M 47.373069763183594 100.02327728271484 C 24.741750717163086 173.33221435546875 14.041406631469727 120.82354736328125 39.587425231933594 198.9281005859375" stroke-width="3.0" fill="none" stroke="rgb(0, 0, 0)" stroke-opacity="1.0" stroke-linecap="round" stroke-linejoin="round"/>
    <path d="M 64.5095443725586 38.62104034423828 C 97.19410705566406 14.166298866271973 152.44520568847656 122.55341339111328 171.35670471191406 69.33924102783203" stroke-width="3.0" fill="none" stroke="rgb(0, 0, 0)" stroke-opacity="1.0" stroke-linecap="round" stroke-linejoin="round"/>
    <path d="M 46.67899703979492 100.30523681640625 C 82.38430786132812 124.20947265625 77.01920318603516 113.73096466064453 105.82601928710938 119.48210144042969" stroke-width="3.0" fill="none" stroke="rgb(0, 0, 0)" stroke-opacity="1.0" stroke-linecap="round" stroke-linejoin="round"/>
    <path d="M 21.10365104675293 133.44940185546875 C 10.328620910644531 69.06425476074219 12.018903732299805 83.30712890625 57.800331115722656 43.339778900146484" stroke-width="3.0" fill="none" stroke="rgb(0, 0, 0)" stroke-opacity="1.0" stroke-linecap="round" stroke-linejoin="round"/>
    <path d="M 173.64862060546875 86.11509704589844 C 190.92330932617188 21.784442901611328 202.62295532226562 27.300350189208984 171.61892700195312 93.61189270019531" stroke-width="3.0" fill="none" stroke="rgb(0, 0, 0)" stroke-opacity="1.0" stroke-linecap="round" stroke-linejoin="round"/>
    <path d="M 107.41622924804688 117.52416229248047 C 109.67060852050781 185.01351928710938 77.8245620727539 202.12469482421875 112.60889434814453 189.71719360351562" stroke-width="3.0" fill="none" stroke="rgb(0, 0, 0)" stroke-opacity="1.0" stroke-linecap="round" stroke-linejoin="round"/>
    <path d="M 171.72348022460938 68.05500030517578 C 177.22528076171875 2.033381700515747 216.4866180419922 77.50138092041016 208.07484436035156 47.21781921386719" stroke-width="3.0" fill="none" stroke="rgb(0, 0, 0)" stroke-opacity="1.0" stroke-linecap="round" stroke-linejoin="round"/>
    <path d="M 191.5969696044922 64.8543701171875 C 151.32420349121094 43.3559684753418 255.97183227539062 44.549434661865234 196.32498168945312 60.47570037841797" stroke-width="3.0" fill="none" stroke="rgb(0, 0, 0)" stroke-opacity="1.0" stroke-linecap="round" stroke-linejoin="round"/>
  </g>
</svg>
