<?xml version="1.0" ?>
<svg xmlns="http://www.w3.org/2000/svg" version="1.1" width="224" height="224">
  <defs/>
  <g>
    <path d="M 141.8997039794922 106.48081970214844 C 118.15653228759766 83.4233169555664 159.99032592773438 141.21133422851562 119.60340118408203 68.29385375976562" stroke-width="3.0" fill="none" stroke="rgb(0, 0, 0)" stroke-opacity="1.0" stroke-linecap="round" stroke-linejoin="round"/>
    <path d="M 107.72506713867188 93.78650665283203 C 112.86639404296875 103.1589126586914 102.85540008544922 103.79087829589844 109.16871643066406 112.87586212158203" stroke-width="3.0" fill="none" stroke="rgb(0, 0, 0)" stroke-opacity="1.0" stroke-linecap="round" stroke-linejoin="round"/>
    <path d="M 135.66688537597656 107.59403228759766 C 132.082763671875 69.92428588867188 128.39730834960938 133.7819061279297 181.901123046875 87.0402603149414" stroke-width="3.0" fill="none" stroke="rgb(0, 0, 0)" stroke-opacity="1.0" stroke-linecap="round" stroke-linejoin="round"/>
    <path d="M 64.72663879394531 39.709205627441406 C 63.51210403442383 40.357505798339844 56.390132904052734 44.735496520996094 60.974056243896484 42.374332427978516" stroke-width="3.0" fill="none" stroke="rgb(0, 0, 0)" stroke-opacity="1.0" stroke-linecap="round" stroke-linejoin="round"/>
    <path d="M 133.82362365722656 83.0007553100586 C 109.34131622314453 38.29069137573242 112.32927703857422 64.52239990234375 95.9981689453125 45.142967224121094" stroke-width="3.0" fill="none" stroke="rgb(0, 0, 0)" stroke-opacity="1.0" stroke-linecap="round" stroke-linejoin="round"/>
    <path d="M 66.11569213867188 109.9783935546875 C 36.034141540527344 80.41193389892578 59.99750900268555 98.14080810546875 38.422908782958984 72.13272094726562" stroke-width="3.0" fill="none" stroke="rgb(0, 0, 0)" stroke-opacity="1.0" stroke-linecap="round" stroke-linejoin="round"/>
    <path d="M 182.1664276123047 49.564537048339844 C 186.90211486816406 26.506807327270508 195.14442443847656 45.51231384277344 184.2394256591797 84.1041259765625" stroke-width="3.0" fill="none" stroke="rgb(0, 0, 0)" stroke-opacity="1.0" stroke-linecap="round" stroke-linejoin="round"/>
    <path d="M 102.70640563964844 197.3335723876953 C 120.52998352050781 80.15119934082031 124.81535339355469 127.76795196533203 126.03350830078125 99.97003936767578" stroke-width="3.0" fill="none" stroke="rgb(0, 0, 0)" stroke-opacity="1.0" stroke-linecap="round" stroke-linejoin="round"/>
    <path d="M 43.12410354614258 101.51885223388672 C 25.286230087280273 175.2391815185547 13.514375686645508 128.2230987548828 40.677947998046875 200.24708557128906" stroke-width="3.0" fill="none" stroke="rgb(0, 0, 0)" stroke-opacity="1.0" stroke-linecap="round" stroke-linejoin="round"/>
    <path d="M 62.88199996948242 41.0786018371582 C 97.72408294677734 15.265539169311523 146.06057739257812 112.96712493896484 168.2368927001953 77.26628112792969" stroke-width="3.0" fill="none" stroke="rgb(0, 0, 0)" stroke-opacity="1.0" stroke-linecap="round" stroke-linejoin="round"/>
    <path d="M 47.00303649902344 99.9894027709961 C 81.98807525634766 121.2057113647461 80.38199615478516 111.08428955078125 105.1764907836914 115.77557373046875" stroke-width="3.0" fill="none" stroke="rgb(0, 0, 0)" stroke-opacity="1.0" stroke-linecap="round" stroke-linejoin="round"/>
    <path d="M 21.661897659301758 132.04180908203125 C 12.172797203063965 66.57561492919922 13.823944091796875 81.56832885742188 57.97333908081055 44.00937271118164" stroke-width="3.0" fill="none" stroke="rgb(0, 0, 0)" stroke-opacity="1.0" stroke-linecap="round" stroke-linejoin="round"/>
    <path d="M 170.96322631835938 84.57862091064453 C 198.32659912109375 26.55679702758789 208.1973419189453 37.769813537597656 169.98313903808594 91.24356842041016" stroke-width="3.0" fill="none" stroke="rgb(0, 0, 0)" stroke-opacity="1.0" stroke-linecap="round" stroke-linejoin="round"/>
    <path d="M 104.45323181152344 117.52579498291016 C 110.88813781738281 183.64686584472656 77.53172302246094 206.53378295898438 110.89793395996094 190.33169555664062" stroke-width="3.0" fill="none" stroke="rgb(0, 0, 0)" stroke-opacity="1.0" stroke-linecap="round" stroke-linejoin="round"/>
    <path d="M 168.247802734375 74.46751403808594 C 177.36854553222656 9.170433044433594 215.49639892578125 73.89675903320312 207.5213623046875 48.11306381225586" stroke-width="3.0" fill="none" stroke="rgb(0, 0, 0)" stroke-opacity="1.0" stroke-linecap="round" stroke-linejoin="round"/>
    <path d="M 195.77130126953125 59.2661247253418 C 156.32826232910156 42.552799224853516 252.5724639892578 48.68629837036133 198.28916931152344 57.255008697509766" stroke-width="3.0" fill="none" stroke="rgb(0, 0, 0)" stroke-opacity="1.0" stroke-linecap="round" stroke-linejoin="round"/>
  </g>
</svg>
