<?xml version="1.0" ?>
<svg xmlns="http://www.w3.org/2000/svg" version="1.1" width="224" height="224">
  <defs/>
  <g>
    <path d="M 130.2529754638672 90.44668579101562 C 123.81787109375 74.59964752197266 130.7113037109375 77.20964050292969 127.31076049804688 73.56430053710938" stroke-width="3.0" fill="none" stroke="rgb(0, 0, 0)" stroke-opacity="1.0" stroke-linecap="round" stroke-linejoin="round"/>
    <path d="M 90.42607879638672 101.58174896240234 C 96.451904296875 99.58766174316406 85.36418914794922 103.22039031982422 105.16288757324219 109.10400390625" stroke-width="3.0" fill="none" stroke="rgb(0, 0, 0)" stroke-opacity="1.0" stroke-linecap="round" stroke-linejoin="round"/>
    <path d="M 151.1446990966797 104.51322937011719 C 160.13916015625 84.1235580444336 145.24481201171875 72.66635131835938 154.63377380371094 100.79438781738281" stroke-width="3.0" fill="none" stroke="rgb(0, 0, 0)" stroke-opacity="1.0" stroke-linecap="round" stroke-linejoin="round"/>
    <path d="M 56.578826904296875 52.961673736572266 C 60.40550231933594 88.74723052978516 45.22475051879883 93.083984375 51.61056137084961 95.259521484375" stroke-width="3.0" fill="none" stroke="rgb(0, 0, 0)" stroke-opacity="1.0" stroke-linecap="round" stroke-linejoin="round"/>
    <path d="M 113.34803009033203 55.96601867675781 C 116.60908508300781 54.13814926147461 115.3298110961914 63.019813537597656 115.13773345947266 56.22819519042969" stroke-width="3.0" fill="none" stroke="rgb(0, 0, 0)" stroke-opacity="1.0" stroke-linecap="round" stroke-linejoin="round"/>
    <path d="M 52.44414520263672 87.0697021484375 C 55.240089416503906 105.54351043701172 55.123512268066406 94.76585388183594 52.026611328125 94.89263916015625" stroke-width="3.0" fill="none" stroke="rgb(0, 0, 0)" stroke-opacity="1.0" stroke-linecap="round" stroke-linejoin="round"/>
    <path d="M 177.9849853515625 46.31835174560547 C 177.1224822998047 74.37698364257812 161.46324157714844 75.3992919921875 162.80712890625 80.88273620605469" stroke-width="3.0" fill="none" stroke="rgb(0, 0, 0)" stroke-opacity="1.0" stroke-linecap="round" stroke-linejoin="round"/>
    <path d="M 107.80805969238281 131.61216735839844 C 115.7610855102539 118.06004333496094 95.4839859008789 131.04168701171875 113.10758972167969 116.16645050048828" stroke-width="3.0" fill="none" stroke="rgb(0, 0, 0)" stroke-opacity="1.0" stroke-linecap="round" stroke-linejoin="round"/>
    <path d="M 40.66011047363281 140.73648071289062 C 33.911537170410156 176.21701049804688 27.56412124633789 150.46839904785156 44.059539794921875 200.48414611816406" stroke-width="3.0" fill="none" stroke="rgb(0, 0, 0)" stroke-opacity="1.0" stroke-linecap="round" stroke-linejoin="round"/>
    <path d="M 97.41859436035156 48.9085578918457 C 118.6828842163086 55.635108947753906 120.99057006835938 57.89607620239258 129.1710662841797 77.18582916259766" stroke-width="3.0" fill="none" stroke="rgb(0, 0, 0)" stroke-opacity="1.0" stroke-linecap="round" stroke-linejoin="round"/>
    <path d="M 61.30884552001953 97.77915954589844 C 75.92493438720703 112.46495819091797 77.2647933959961 108.51994323730469 104.47173309326172 114.3729019165039" stroke-width="3.0" fill="none" stroke="rgb(0, 0, 0)" stroke-opacity="1.0" stroke-linecap="round" stroke-linejoin="round"/>
    <path d="M 24.667949676513672 93.11736297607422 C 15.518511772155762 76.4461669921875 13.120882987976074 79.16001892089844 14.436665534973145 78.79467010498047" stroke-width="3.0" fill="none" stroke="rgb(0, 0, 0)" stroke-opacity="1.0" stroke-linecap="round" stroke-linejoin="round"/>
    <path d="M 154.35829162597656 84.82572937011719 C 176.95887756347656 67.3404769897461 159.24705505371094 78.11730194091797 173.67227172851562 97.60697174072266" stroke-width="3.0" fill="none" stroke="rgb(0, 0, 0)" stroke-opacity="1.0" stroke-linecap="round" stroke-linejoin="round"/>
    <path d="M 104.8184814453125 116.98029327392578 C 117.71587371826172 144.98358154296875 92.38687133789062 158.17202758789062 108.77909851074219 192.33668518066406" stroke-width="3.0" fill="none" stroke="rgb(0, 0, 0)" stroke-opacity="1.0" stroke-linecap="round" stroke-linejoin="round"/>
    <path d="M 178.37802124023438 55.16358184814453 C 189.77149963378906 20.033477783203125 187.69012451171875 47.23683166503906 202.60508728027344 42.954227447509766" stroke-width="3.0" fill="none" stroke="rgb(0, 0, 0)" stroke-opacity="1.0" stroke-linecap="round" stroke-linejoin="round"/>
    <path d="M 198.0732879638672 62.618045806884766 C 178.49728393554688 46.025733947753906 201.48785400390625 44.97700881958008 213.2831268310547 51.13595962524414" stroke-width="3.0" fill="none" stroke="rgb(0, 0, 0)" stroke-opacity="1.0" stroke-linecap="round" stroke-linejoin="round"/>
  </g>
</svg>
