<?xml version="1.0" ?>
<svg xmlns="http://www.w3.org/2000/svg" version="1.1" width="224" height="224">
  <defs/>
  <g>
    <path d="M 140.30868530273438 107.97174072265625 C 122.08867645263672 92.67012786865234 157.01976013183594 140.32003784179688 118.79185485839844 66.91529846191406" stroke-width="3.0" fill="none" stroke="rgb(0, 0, 0)" stroke-opacity="1.0" stroke-linecap="round" stroke-linejoin="round"/>
    <path d="M 105.28105926513672 93.99291229248047 C 110.51280975341797 103.08464813232422 102.7249526977539 103.60948944091797 110.1338882446289 111.62767791748047" stroke-width="3.0" fill="none" stroke="rgb(0, 0, 0)" stroke-opacity="1.0" stroke-linecap="round" stroke-linejoin="round"/>
    <path d="M 133.9254913330078 109.76850128173828 C 132.8375701904297 80.36373901367188 145.6876220703125 135.17076110839844 184.95700073242188 79.20352172851562" stroke-width="3.0" fill="none" stroke="rgb(0, 0, 0)" stroke-opacity="1.0" stroke-linecap="round" stroke-linejoin="round"/>
    <path d="M 68.8218765258789 39.06009292602539 C 65.12348937988281 39.59718704223633 56.07271194458008 45.39807891845703 55.98149871826172 46.184547424316406" stroke-width="3.0" fill="none" stroke="rgb(0, 0, 0)" stroke-opacity="1.0" stroke-linecap="round" stroke-linejoin="round"/>
    <path d="M 133.58778381347656 83.31782531738281 C 108.76248168945312 36.949378967285156 111.96604919433594 67.26607513427734 93.30867004394531 42.930816650390625" stroke-width="3.0" fill="none" stroke="rgb(0, 0, 0)" stroke-opacity="1.0" stroke-linecap="round" stroke-linejoin="round"/>
    <path d="M 65.87480926513672 111.53826904296875 C 36.73942947387695 79.71406555175781 59.810646057128906 93.89156341552734 39.17823028564453 70.01179504394531" stroke-width="3.0" fill="none" stroke="rgb(0, 0, 0)" stroke-opacity="1.0" stroke-linecap="round" stroke-linejoin="round"/>
    <path d="M 183.5422821044922 65.11961364746094 C 171.91334533691406 32.460487365722656 188.53677368164062 52.89802551269531 185.3455810546875 82.97647857666016" stroke-width="3.0" fill="none" stroke="rgb(0, 0, 0)" stroke-opacity="1.0" stroke-linecap="round" stroke-linejoin="round"/>
    <path d="M 104.6060791015625 195.3934783935547 C 120.54644775390625 81.11199951171875 122.98534393310547 126.91974639892578 128.58291625976562 103.13260650634766" stroke-width="3.0" fill="none" stroke="rgb(0, 0, 0)" stroke-opacity="1.0" stroke-linecap="round" stroke-linejoin="round"/>
    <path d="M 46.75754928588867 100.68644714355469 C 21.888919830322266 170.23890686035156 15.041067123413086 130.01095581054688 38.951881408691406 199.38832092285156" stroke-width="3.0" fill="none" stroke="rgb(0, 0, 0)" stroke-opacity="1.0" stroke-linecap="round" stroke-linejoin="round"/>
    <path d="M 64.85118103027344 40.88425064086914 C 99.34436798095703 14.80257511138916 154.2624969482422 127.03313446044922 170.0212860107422 68.42202758789062" stroke-width="3.0" fill="none" stroke="rgb(0, 0, 0)" stroke-opacity="1.0" stroke-linecap="round" stroke-linejoin="round"/>
    <path d="M 45.5605354309082 98.61080932617188 C 81.48808288574219 123.35652923583984 79.16336822509766 112.6712646484375 103.83903503417969 116.86317443847656" stroke-width="3.0" fill="none" stroke="rgb(0, 0, 0)" stroke-opacity="1.0" stroke-linecap="round" stroke-linejoin="round"/>
    <path d="M 20.866519927978516 136.45449829101562 C 12.662371635437012 69.14204406738281 12.409653663635254 83.50082397460938 57.04227828979492 44.85284423828125" stroke-width="3.0" fill="none" stroke="rgb(0, 0, 0)" stroke-opacity="1.0" stroke-linecap="round" stroke-linejoin="round"/>
    <path d="M 178.01246643066406 87.09729766845703 C 197.8680419921875 24.654577255249023 199.86512756347656 25.509605407714844 169.57138061523438 91.84778594970703" stroke-width="3.0" fill="none" stroke="rgb(0, 0, 0)" stroke-opacity="1.0" stroke-linecap="round" stroke-linejoin="round"/>
    <path d="M 106.33668518066406 114.22364807128906 C 107.05879211425781 183.29576110839844 78.39820861816406 204.8472442626953 109.93072509765625 190.14564514160156" stroke-width="3.0" fill="none" stroke="rgb(0, 0, 0)" stroke-opacity="1.0" stroke-linecap="round" stroke-linejoin="round"/>
    <path d="M 171.61744689941406 68.43537139892578 C 176.74440002441406 3.8748700618743896 216.14181518554688 78.70429229736328 204.6824493408203 47.82864761352539" stroke-width="3.0" fill="none" stroke="rgb(0, 0, 0)" stroke-opacity="1.0" stroke-linecap="round" stroke-linejoin="round"/>
    <path d="M 189.33460998535156 64.08915710449219 C 151.0457305908203 44.37786102294922 256.2271728515625 47.14960861206055 193.57400512695312 58.857521057128906" stroke-width="3.0" fill="none" stroke="rgb(0, 0, 0)" stroke-opacity="1.0" stroke-linecap="round" stroke-linejoin="round"/>
  </g>
</svg>
