<?xml version="1.0" ?>
<svg xmlns="http://www.w3.org/2000/svg" version="1.1" width="224" height="224">
  <defs/>
  <g>
    <path d="M 129.65333557128906 76.85912322998047 C 123.1265869140625 87.2947006225586 129.91567993164062 80.80265808105469 125.12928009033203 79.88735961914062" stroke-width="3.0" fill="none" stroke="rgb(0, 0, 0)" stroke-opacity="1.0" stroke-linecap="round" stroke-linejoin="round"/>
    <path d="M 86.46354675292969 100.39264678955078 C 87.45340728759766 97.98963165283203 82.81565856933594 100.45536804199219 92.33417510986328 99.65485382080078" stroke-width="3.0" fill="none" stroke="rgb(0, 0, 0)" stroke-opacity="1.0" stroke-linecap="round" stroke-linejoin="round"/>
    <path d="M 152.75656127929688 102.43521118164062 C 153.96807861328125 85.81217193603516 156.52198791503906 79.69622039794922 154.82362365722656 93.80650329589844" stroke-width="3.0" fill="none" stroke="rgb(0, 0, 0)" stroke-opacity="1.0" stroke-linecap="round" stroke-linejoin="round"/>
    <path d="M 60.02280044555664 66.92427825927734 C 60.795257568359375 90.5347671508789 49.26241683959961 94.08969116210938 51.26948928833008 96.70706176757812" stroke-width="3.0" fill="none" stroke="rgb(0, 0, 0)" stroke-opacity="1.0" stroke-linecap="round" stroke-linejoin="round"/>
    <path d="M 104.77127075195312 73.13777923583984 C 102.83293151855469 59.0760498046875 108.12981414794922 64.95630645751953 103.72776794433594 72.16295623779297" stroke-width="3.0" fill="none" stroke="rgb(0, 0, 0)" stroke-opacity="1.0" stroke-linecap="round" stroke-linejoin="round"/>
    <path d="M 54.74956130981445 91.37902069091797 C 54.70747756958008 104.0226058959961 55.178504943847656 102.18509674072266 52.11504364013672 96.66770935058594" stroke-width="3.0" fill="none" stroke="rgb(0, 0, 0)" stroke-opacity="1.0" stroke-linecap="round" stroke-linejoin="round"/>
    <path d="M 169.6800079345703 65.62776184082031 C 171.44992065429688 71.52169036865234 163.24595642089844 78.22383880615234 164.29953002929688 82.16593933105469" stroke-width="3.0" fill="none" stroke="rgb(0, 0, 0)" stroke-opacity="1.0" stroke-linecap="round" stroke-linejoin="round"/>
    <path d="M 106.038818359375 123.01175689697266 C 109.35657501220703 115.64790344238281 106.15618896484375 120.21762084960938 104.21369934082031 125.3854751586914" stroke-width="3.0" fill="none" stroke="rgb(0, 0, 0)" stroke-opacity="1.0" stroke-linecap="round" stroke-linejoin="round"/>
    <path d="M 38.11690139770508 160.83221435546875 C 33.796775817871094 172.81414794921875 34.62316131591797 165.55104064941406 30.454187393188477 174.03262329101562" stroke-width="3.0" fill="none" stroke="rgb(0, 0, 0)" stroke-opacity="1.0" stroke-linecap="round" stroke-linejoin="round"/>
    <path d="M 113.64039611816406 57.1048583984375 C 113.00563049316406 67.07080078125 121.37918090820312 70.82743835449219 119.69914245605469 76.03657531738281" stroke-width="3.0" fill="none" stroke="rgb(0, 0, 0)" stroke-opacity="1.0" stroke-linecap="round" stroke-linejoin="round"/>
    <path d="M 69.4820556640625 109.01219177246094 C 80.60507202148438 107.26571655273438 80.4115982055664 111.16114807128906 86.2010498046875 109.36886596679688" stroke-width="3.0" fill="none" stroke="rgb(0, 0, 0)" stroke-opacity="1.0" stroke-linecap="round" stroke-linejoin="round"/>
    <path d="M 24.19397735595703 87.23432922363281 C 15.673702239990234 78.09603881835938 13.12746524810791 82.11775207519531 19.086008071899414 76.98934173583984" stroke-width="3.0" fill="none" stroke="rgb(0, 0, 0)" stroke-opacity="1.0" stroke-linecap="round" stroke-linejoin="round"/>
    <path d="M 164.81607055664062 85.04112243652344 C 165.80087280273438 76.4252700805664 161.471923828125 80.59102630615234 178.48545837402344 96.65655517578125" stroke-width="3.0" fill="none" stroke="rgb(0, 0, 0)" stroke-opacity="1.0" stroke-linecap="round" stroke-linejoin="round"/>
    <path d="M 108.68415832519531 128.90383911132812 C 113.47032928466797 135.76321411132812 113.88615417480469 146.4894561767578 113.31314086914062 157.1473846435547" stroke-width="3.0" fill="none" stroke="rgb(0, 0, 0)" stroke-opacity="1.0" stroke-linecap="round" stroke-linejoin="round"/>
    <path d="M 183.739990234375 46.84585189819336 C 186.17062377929688 37.714813232421875 182.70993041992188 57.24973678588867 194.43011474609375 55.85122299194336" stroke-width="3.0" fill="none" stroke="rgb(0, 0, 0)" stroke-opacity="1.0" stroke-linecap="round" stroke-linejoin="round"/>
    <path d="M 200.6868896484375 58.679874420166016 C 190.37240600585938 51.583824157714844 198.23031616210938 52.175743103027344 218.7227325439453 53.75922393798828" stroke-width="3.0" fill="none" stroke="rgb(0, 0, 0)" stroke-opacity="1.0" stroke-linecap="round" stroke-linejoin="round"/>
  </g>
</svg>
