<?xml version="1.0" ?>
<svg xmlns="http://www.w3.org/2000/svg" version="1.1" width="224" height="224">
  <defs/>
  <g>
    <path d="M 153.96144104003906 99.7738265991211 C 119.55998992919922 85.31812286376953 178.12583923339844 125.07543182373047 124.17263793945312 72.9644775390625" stroke-width="3.0" fill="none" stroke="rgb(0, 0, 0)" stroke-opacity="1.0" stroke-linecap="round" stroke-linejoin="round"/>
    <path d="M 106.5307388305664 87.81837463378906 C 113.47671508789062 106.96414947509766 104.3088607788086 100.8122787475586 105.90467071533203 113.46561431884766" stroke-width="3.0" fill="none" stroke="rgb(0, 0, 0)" stroke-opacity="1.0" stroke-linecap="round" stroke-linejoin="round"/>
    <path d="M 142.882568359375 101.29876708984375 C 140.20677185058594 60.10683822631836 123.19454193115234 126.18046569824219 177.9361572265625 89.2700424194336" stroke-width="3.0" fill="none" stroke="rgb(0, 0, 0)" stroke-opacity="1.0" stroke-linecap="round" stroke-linejoin="round"/>
    <path d="M 61.93178939819336 41.77549362182617 C 62.492767333984375 40.771385192871094 56.0278434753418 46.92625045776367 61.73258590698242 41.911865234375" stroke-width="3.0" fill="none" stroke="rgb(0, 0, 0)" stroke-opacity="1.0" stroke-linecap="round" stroke-linejoin="round"/>
    <path d="M 127.92982482910156 78.98052978515625 C 114.01824951171875 48.7396125793457 109.91838836669922 64.44651794433594 98.469970703125 47.366458892822266" stroke-width="3.0" fill="none" stroke="rgb(0, 0, 0)" stroke-opacity="1.0" stroke-linecap="round" stroke-linejoin="round"/>
    <path d="M 73.05901336669922 112.69544219970703 C 44.88039016723633 80.7754898071289 61.6710205078125 85.2929458618164 49.001129150390625 62.257781982421875" stroke-width="3.0" fill="none" stroke="rgb(0, 0, 0)" stroke-opacity="1.0" stroke-linecap="round" stroke-linejoin="round"/>
    <path d="M 182.10791015625 38.744239807128906 C 182.3883514404297 44.44609832763672 192.61227416992188 49.93854522705078 172.2216033935547 75.96917724609375" stroke-width="3.0" fill="none" stroke="rgb(0, 0, 0)" stroke-opacity="1.0" stroke-linecap="round" stroke-linejoin="round"/>
    <path d="M 102.5938949584961 194.36318969726562 C 123.67176818847656 81.56501007080078 123.06832122802734 124.61763000488281 131.8907012939453 102.37508392333984" stroke-width="3.0" fill="none" stroke="rgb(0, 0, 0)" stroke-opacity="1.0" stroke-linecap="round" stroke-linejoin="round"/>
    <path d="M 47.2497673034668 83.62360382080078 C 27.945159912109375 193.93211364746094 19.15510368347168 117.36932373046875 42.605712890625 197.7362518310547" stroke-width="3.0" fill="none" stroke="rgb(0, 0, 0)" stroke-opacity="1.0" stroke-linecap="round" stroke-linejoin="round"/>
    <path d="M 61.19479751586914 41.43340301513672 C 90.85923767089844 14.638721466064453 139.38731384277344 102.15708923339844 163.87802124023438 83.92498016357422" stroke-width="3.0" fill="none" stroke="rgb(0, 0, 0)" stroke-opacity="1.0" stroke-linecap="round" stroke-linejoin="round"/>
    <path d="M 47.10671615600586 89.86255645751953 C 79.16326141357422 124.20948028564453 81.3981704711914 113.93953704833984 105.62715148925781 119.18524932861328" stroke-width="3.0" fill="none" stroke="rgb(0, 0, 0)" stroke-opacity="1.0" stroke-linecap="round" stroke-linejoin="round"/>
    <path d="M 31.959354400634766 124.92925262451172 C 16.247541427612305 65.07190704345703 30.883691787719727 67.51631164550781 61.27506637573242 41.829315185546875" stroke-width="3.0" fill="none" stroke="rgb(0, 0, 0)" stroke-opacity="1.0" stroke-linecap="round" stroke-linejoin="round"/>
    <path d="M 166.00576782226562 82.62593841552734 C 194.91249084472656 43.51630401611328 197.95407104492188 59.88999557495117 178.7224884033203 88.38072204589844" stroke-width="3.0" fill="none" stroke="rgb(0, 0, 0)" stroke-opacity="1.0" stroke-linecap="round" stroke-linejoin="round"/>
    <path d="M 104.38404846191406 118.2236328125 C 109.20764923095703 182.82395935058594 75.92386627197266 204.94772338867188 110.25558471679688 188.41751098632812" stroke-width="3.0" fill="none" stroke="rgb(0, 0, 0)" stroke-opacity="1.0" stroke-linecap="round" stroke-linejoin="round"/>
    <path d="M 171.07127380371094 84.20901489257812 C 172.9898681640625 -3.305974006652832 206.687255859375 73.46643829345703 197.21749877929688 46.63948440551758" stroke-width="3.0" fill="none" stroke="rgb(0, 0, 0)" stroke-opacity="1.0" stroke-linecap="round" stroke-linejoin="round"/>
    <path d="M 196.68936157226562 61.785736083984375 C 146.74256896972656 39.198482513427734 233.98439025878906 42.841915130615234 190.2862091064453 52.46662902832031" stroke-width="3.0" fill="none" stroke="rgb(0, 0, 0)" stroke-opacity="1.0" stroke-linecap="round" stroke-linejoin="round"/>
  </g>
</svg>
