<?xml version="1.0" ?>
<svg xmlns="http://www.w3.org/2000/svg" version="1.1" width="224" height="224">
  <defs/>
  <g>
    <path d="M 130.87660217285156 109.15020751953125 C 129.72996520996094 96.74076843261719 149.55267333984375 129.97543334960938 122.40645599365234 63.639442443847656" stroke-width="3.0" fill="none" stroke="rgb(0, 0, 0)" stroke-opacity="1.0" stroke-linecap="round" stroke-linejoin="round"/>
    <path d="M 108.58927154541016 91.15164184570312 C 112.83895111083984 103.22991180419922 103.6192855834961 101.119384765625 109.39088439941406 112.85257720947266" stroke-width="3.0" fill="none" stroke="rgb(0, 0, 0)" stroke-opacity="1.0" stroke-linecap="round" stroke-linejoin="round"/>
    <path d="M 127.06316375732422 110.41968536376953 C 143.5580596923828 94.76123046875 156.6968231201172 127.82617950439453 199.3724822998047 58.88344955444336" stroke-width="3.0" fill="none" stroke="rgb(0, 0, 0)" stroke-opacity="1.0" stroke-linecap="round" stroke-linejoin="round"/>
    <path d="M 67.80270385742188 40.73293685913086 C 64.79923248291016 39.712677001953125 53.577659606933594 46.963443756103516 41.8848762512207 60.08375549316406" stroke-width="3.0" fill="none" stroke="rgb(0, 0, 0)" stroke-opacity="1.0" stroke-linecap="round" stroke-linejoin="round"/>
    <path d="M 141.22190856933594 83.83040618896484 C 102.22718048095703 38.9734992980957 114.82489013671875 62.35609817504883 95.9444580078125 44.89789962768555" stroke-width="3.0" fill="none" stroke="rgb(0, 0, 0)" stroke-opacity="1.0" stroke-linecap="round" stroke-linejoin="round"/>
    <path d="M 68.81507110595703 108.56449127197266 C 41.32851028442383 75.72797393798828 62.055538177490234 96.35193634033203 45.6817741394043 72.16732025146484" stroke-width="3.0" fill="none" stroke="rgb(0, 0, 0)" stroke-opacity="1.0" stroke-linecap="round" stroke-linejoin="round"/>
    <path d="M 185.42251586914062 63.2969970703125 C 173.16502380371094 30.701889038085938 195.9038848876953 46.794437408447266 190.48129272460938 79.42849731445312" stroke-width="3.0" fill="none" stroke="rgb(0, 0, 0)" stroke-opacity="1.0" stroke-linecap="round" stroke-linejoin="round"/>
    <path d="M 106.84991455078125 194.40089416503906 C 112.22685241699219 115.12625122070312 118.155029296875 147.68701171875 124.73110961914062 100.59725952148438" stroke-width="3.0" fill="none" stroke="rgb(0, 0, 0)" stroke-opacity="1.0" stroke-linecap="round" stroke-linejoin="round"/>
    <path d="M 48.27365493774414 102.1976089477539 C 11.647107124328613 186.21633911132812 32.01433563232422 138.6534423828125 37.02497482299805 198.02708435058594" stroke-width="3.0" fill="none" stroke="rgb(0, 0, 0)" stroke-opacity="1.0" stroke-linecap="round" stroke-linejoin="round"/>
    <path d="M 67.63766479492188 39.46235275268555 C 101.28819274902344 13.151071548461914 152.6372528076172 140.80386352539062 177.803955078125 54.539161682128906" stroke-width="3.0" fill="none" stroke="rgb(0, 0, 0)" stroke-opacity="1.0" stroke-linecap="round" stroke-linejoin="round"/>
    <path d="M 49.95811462402344 98.12334442138672 C 86.81875610351562 123.34296417236328 81.27523803710938 114.3760986328125 103.26494598388672 117.63382720947266" stroke-width="3.0" fill="none" stroke="rgb(0, 0, 0)" stroke-opacity="1.0" stroke-linecap="round" stroke-linejoin="round"/>
    <path d="M 20.46479034423828 150.70289611816406 C 36.7165641784668 113.67012786865234 -15.995630264282227 89.90164184570312 49.954872131347656 54.188262939453125" stroke-width="3.0" fill="none" stroke="rgb(0, 0, 0)" stroke-opacity="1.0" stroke-linecap="round" stroke-linejoin="round"/>
    <path d="M 176.44427490234375 89.76102447509766 C 193.36451721191406 20.332183837890625 205.68800354003906 26.122756958007812 170.44688415527344 92.7618408203125" stroke-width="3.0" fill="none" stroke="rgb(0, 0, 0)" stroke-opacity="1.0" stroke-linecap="round" stroke-linejoin="round"/>
    <path d="M 104.66291046142578 116.03655242919922 C 108.02015686035156 185.03627014160156 84.28885650634766 202.8116912841797 111.01982879638672 190.23475646972656" stroke-width="3.0" fill="none" stroke="rgb(0, 0, 0)" stroke-opacity="1.0" stroke-linecap="round" stroke-linejoin="round"/>
    <path d="M 169.38250732421875 73.38595581054688 C 177.96640014648438 3.6161224842071533 211.27142333984375 77.4824447631836 204.31838989257812 49.10365676879883" stroke-width="3.0" fill="none" stroke="rgb(0, 0, 0)" stroke-opacity="1.0" stroke-linecap="round" stroke-linejoin="round"/>
    <path d="M 195.24269104003906 62.79741668701172 C 159.85084533691406 41.34225082397461 259.25909423828125 49.66676712036133 196.93051147460938 61.820594787597656" stroke-width="3.0" fill="none" stroke="rgb(0, 0, 0)" stroke-opacity="1.0" stroke-linecap="round" stroke-linejoin="round"/>
  </g>
</svg>
