<?xml version="1.0" ?>
<svg xmlns="http://www.w3.org/2000/svg" version="1.1" width="224" height="224">
  <defs/>
  <g>
    <path d="M 144.0974884033203 105.64685821533203 C 115.56813049316406 81.91394805908203 167.82879638671875 138.71095275878906 121.8558349609375 75.5953140258789" stroke-width="3.0" fill="none" stroke="rgb(0, 0, 0)" stroke-opacity="1.0" stroke-linecap="round" stroke-linejoin="round"/>
    <path d="M 108.97754669189453 94.30210876464844 C 111.11779022216797 110.64702606201172 102.47394561767578 107.28662872314453 106.2394790649414 115.153076171875" stroke-width="3.0" fill="none" stroke="rgb(0, 0, 0)" stroke-opacity="1.0" stroke-linecap="round" stroke-linejoin="round"/>
    <path d="M 136.57603454589844 107.51172637939453 C 131.25572204589844 64.85057067871094 134.1472625732422 135.59109497070312 182.22268676757812 85.50291442871094" stroke-width="3.0" fill="none" stroke="rgb(0, 0, 0)" stroke-opacity="1.0" stroke-linecap="round" stroke-linejoin="round"/>
    <path d="M 63.152652740478516 40.08946228027344 C 63.97798156738281 40.51472854614258 56.73421096801758 45.228477478027344 60.08394241333008 42.73352813720703" stroke-width="3.0" fill="none" stroke="rgb(0, 0, 0)" stroke-opacity="1.0" stroke-linecap="round" stroke-linejoin="round"/>
    <path d="M 126.39244842529297 83.17558288574219 C 106.4231948852539 38.293052673339844 112.1591796875 64.74900817871094 96.06331634521484 45.09834671020508" stroke-width="3.0" fill="none" stroke="rgb(0, 0, 0)" stroke-opacity="1.0" stroke-linecap="round" stroke-linejoin="round"/>
    <path d="M 66.7086410522461 113.10938262939453 C 34.824893951416016 78.70642852783203 57.896785736083984 95.41228485107422 39.32347106933594 70.55662536621094" stroke-width="3.0" fill="none" stroke="rgb(0, 0, 0)" stroke-opacity="1.0" stroke-linecap="round" stroke-linejoin="round"/>
    <path d="M 181.38555908203125 46.456363677978516 C 189.66026306152344 32.25634002685547 187.44482421875 44.88249969482422 189.4524383544922 79.70207214355469" stroke-width="3.0" fill="none" stroke="rgb(0, 0, 0)" stroke-opacity="1.0" stroke-linecap="round" stroke-linejoin="round"/>
    <path d="M 102.71920013427734 195.76173400878906 C 124.31806182861328 78.69857025146484 122.7532958984375 126.20569610595703 130.43736267089844 103.8824691772461" stroke-width="3.0" fill="none" stroke="rgb(0, 0, 0)" stroke-opacity="1.0" stroke-linecap="round" stroke-linejoin="round"/>
    <path d="M 47.164329528808594 102.23690795898438 C 24.227083206176758 180.42742919921875 14.506573677062988 131.26055908203125 40.272560119628906 200.73751831054688" stroke-width="3.0" fill="none" stroke="rgb(0, 0, 0)" stroke-opacity="1.0" stroke-linecap="round" stroke-linejoin="round"/>
    <path d="M 61.59531021118164 41.903411865234375 C 97.01997375488281 15.772582054138184 145.0335235595703 110.23025512695312 170.29808044433594 76.8891372680664" stroke-width="3.0" fill="none" stroke="rgb(0, 0, 0)" stroke-opacity="1.0" stroke-linecap="round" stroke-linejoin="round"/>
    <path d="M 47.874149322509766 104.22723388671875 C 79.14918518066406 121.57245635986328 82.01770782470703 115.01946258544922 105.8936996459961 118.72128295898438" stroke-width="3.0" fill="none" stroke="rgb(0, 0, 0)" stroke-opacity="1.0" stroke-linecap="round" stroke-linejoin="round"/>
    <path d="M 19.632360458374023 127.18214416503906 C 10.092530250549316 70.9797134399414 17.73188018798828 81.68779754638672 59.27627944946289 42.70459747314453" stroke-width="3.0" fill="none" stroke="rgb(0, 0, 0)" stroke-opacity="1.0" stroke-linecap="round" stroke-linejoin="round"/>
    <path d="M 163.5085906982422 81.40299987792969 C 193.75596618652344 31.229942321777344 204.12384033203125 47.46834945678711 175.39938354492188 92.66661834716797" stroke-width="3.0" fill="none" stroke="rgb(0, 0, 0)" stroke-opacity="1.0" stroke-linecap="round" stroke-linejoin="round"/>
    <path d="M 105.36382293701172 120.22319030761719 C 108.73631286621094 185.83306884765625 77.99203491210938 202.7880401611328 110.93346405029297 189.9033966064453" stroke-width="3.0" fill="none" stroke="rgb(0, 0, 0)" stroke-opacity="1.0" stroke-linecap="round" stroke-linejoin="round"/>
    <path d="M 169.29811096191406 75.8100357055664 C 174.3820037841797 -1.2038772106170654 213.32261657714844 72.75174713134766 208.5182647705078 44.445831298828125" stroke-width="3.0" fill="none" stroke="rgb(0, 0, 0)" stroke-opacity="1.0" stroke-linecap="round" stroke-linejoin="round"/>
    <path d="M 196.32296752929688 60.662357330322266 C 152.17767333984375 37.34575653076172 255.84947204589844 47.20479965209961 200.01583862304688 57.391845703125" stroke-width="3.0" fill="none" stroke="rgb(0, 0, 0)" stroke-opacity="1.0" stroke-linecap="round" stroke-linejoin="round"/>
  </g>
</svg>
