<?xml version="1.0" ?>
<svg xmlns="http://www.w3.org/2000/svg" version="1.1" width="224" height="224">
  <defs/>
  <g>
    <path d="M 128.57948303222656 109.7688980102539 C 132.24801635742188 89.20503997802734 151.0004119873047 132.16323852539062 120.48887634277344 70.68975830078125" stroke-width="3.0" fill="none" stroke="rgb(0, 0, 0)" stroke-opacity="1.0" stroke-linecap="round" stroke-linejoin="round"/>
    <path d="M 113.71283721923828 89.67977905273438 C 116.6041030883789 98.65199279785156 102.23322296142578 103.11293029785156 109.29139709472656 116.84515380859375" stroke-width="3.0" fill="none" stroke="rgb(0, 0, 0)" stroke-opacity="1.0" stroke-linecap="round" stroke-linejoin="round"/>
    <path d="M 126.24505615234375 112.91754913330078 C 134.38973999023438 92.1485824584961 157.4110107421875 134.49554443359375 191.18719482421875 61.634803771972656" stroke-width="3.0" fill="none" stroke="rgb(0, 0, 0)" stroke-opacity="1.0" stroke-linecap="round" stroke-linejoin="round"/>
    <path d="M 65.18317413330078 40.005653381347656 C 64.61212921142578 40.23751449584961 53.55678176879883 48.02890396118164 42.448577880859375 60.51463317871094" stroke-width="3.0" fill="none" stroke="rgb(0, 0, 0)" stroke-opacity="1.0" stroke-linecap="round" stroke-linejoin="round"/>
    <path d="M 139.10433959960938 80.1220932006836 C 102.63584899902344 40.32170104980469 111.41386413574219 66.6917495727539 95.37358856201172 45.018558502197266" stroke-width="3.0" fill="none" stroke="rgb(0, 0, 0)" stroke-opacity="1.0" stroke-linecap="round" stroke-linejoin="round"/>
    <path d="M 64.79336547851562 109.84292602539062 C 36.81488037109375 75.78895568847656 55.28289794921875 92.45634460449219 40.5980224609375 72.78641510009766" stroke-width="3.0" fill="none" stroke="rgb(0, 0, 0)" stroke-opacity="1.0" stroke-linecap="round" stroke-linejoin="round"/>
    <path d="M 185.10125732421875 62.868072509765625 C 172.5771484375 31.606969833374023 193.68190002441406 49.81386947631836 184.9520721435547 81.18412780761719" stroke-width="3.0" fill="none" stroke="rgb(0, 0, 0)" stroke-opacity="1.0" stroke-linecap="round" stroke-linejoin="round"/>
    <path d="M 103.2724838256836 194.9932861328125 C 115.26766204833984 104.03515625 122.1799545288086 136.32215881347656 125.28742218017578 96.7029037475586" stroke-width="3.0" fill="none" stroke="rgb(0, 0, 0)" stroke-opacity="1.0" stroke-linecap="round" stroke-linejoin="round"/>
    <path d="M 47.64903259277344 99.2241439819336 C 20.28590965270996 179.8682098388672 26.947298049926758 123.96488952636719 39.46896743774414 197.19984436035156" stroke-width="3.0" fill="none" stroke="rgb(0, 0, 0)" stroke-opacity="1.0" stroke-linecap="round" stroke-linejoin="round"/>
    <path d="M 65.12506103515625 41.1026725769043 C 99.57778930664062 13.613378524780273 153.9798126220703 137.79957580566406 177.9443359375 53.68932342529297" stroke-width="3.0" fill="none" stroke="rgb(0, 0, 0)" stroke-opacity="1.0" stroke-linecap="round" stroke-linejoin="round"/>
    <path d="M 54.069618225097656 100.18701171875 C 83.82324981689453 124.75543212890625 78.73808288574219 115.60227966308594 104.21997833251953 118.71109771728516" stroke-width="3.0" fill="none" stroke="rgb(0, 0, 0)" stroke-opacity="1.0" stroke-linecap="round" stroke-linejoin="round"/>
    <path d="M 30.5428466796875 142.38250732421875 C 25.952131271362305 100.93883514404297 -11.679815292358398 87.62442779541016 52.79633331298828 53.31031799316406" stroke-width="3.0" fill="none" stroke="rgb(0, 0, 0)" stroke-opacity="1.0" stroke-linecap="round" stroke-linejoin="round"/>
    <path d="M 174.24029541015625 87.49345397949219 C 190.3013916015625 18.139949798583984 205.363037109375 26.149982452392578 165.9582061767578 96.2095947265625" stroke-width="3.0" fill="none" stroke="rgb(0, 0, 0)" stroke-opacity="1.0" stroke-linecap="round" stroke-linejoin="round"/>
    <path d="M 105.74526977539062 119.11296844482422 C 107.67208099365234 187.83363342285156 76.63011932373047 200.7345428466797 111.29513549804688 190.6845245361328" stroke-width="3.0" fill="none" stroke="rgb(0, 0, 0)" stroke-opacity="1.0" stroke-linecap="round" stroke-linejoin="round"/>
    <path d="M 169.59449768066406 75.01841735839844 C 180.8670654296875 2.9786040782928467 214.30780029296875 76.53296661376953 206.05194091796875 47.138572692871094" stroke-width="3.0" fill="none" stroke="rgb(0, 0, 0)" stroke-opacity="1.0" stroke-linecap="round" stroke-linejoin="round"/>
    <path d="M 195.0028533935547 59.1445426940918 C 153.64593505859375 41.77766799926758 258.1007995605469 44.56302261352539 199.34373474121094 57.75840377807617" stroke-width="3.0" fill="none" stroke="rgb(0, 0, 0)" stroke-opacity="1.0" stroke-linecap="round" stroke-linejoin="round"/>
  </g>
</svg>
