<?xml version="1.0" ?>
<svg xmlns="http://www.w3.org/2000/svg" version="1.1" width="224" height="224">
  <defs/>
  <g>
    <path d="M 131.9952392578125 108.87666320800781 C 128.88623046875 96.9264907836914 144.7486572265625 133.9896697998047 119.49593353271484 67.70613861083984" stroke-width="3.0" fill="none" stroke="rgb(0, 0, 0)" stroke-opacity="1.0" stroke-linecap="round" stroke-linejoin="round"/>
    <path d="M 107.53875732421875 91.82013702392578 C 114.20619201660156 103.36354064941406 102.9613265991211 102.23529815673828 111.1644058227539 114.02716064453125" stroke-width="3.0" fill="none" stroke="rgb(0, 0, 0)" stroke-opacity="1.0" stroke-linecap="round" stroke-linejoin="round"/>
    <path d="M 126.97924041748047 112.01298522949219 C 145.04046630859375 98.21729278564453 157.8142852783203 129.53146362304688 196.99192810058594 56.074668884277344" stroke-width="3.0" fill="none" stroke="rgb(0, 0, 0)" stroke-opacity="1.0" stroke-linecap="round" stroke-linejoin="round"/>
    <path d="M 65.63134765625 40.983970642089844 C 64.8476333618164 39.27402114868164 53.99210739135742 47.7638053894043 43.27804946899414 59.851890563964844" stroke-width="3.0" fill="none" stroke="rgb(0, 0, 0)" stroke-opacity="1.0" stroke-linecap="round" stroke-linejoin="round"/>
    <path d="M 143.22113037109375 82.17219543457031 C 102.83119201660156 39.45453643798828 110.94155883789062 65.26701354980469 96.36077880859375 43.95094680786133" stroke-width="3.0" fill="none" stroke="rgb(0, 0, 0)" stroke-opacity="1.0" stroke-linecap="round" stroke-linejoin="round"/>
    <path d="M 66.5011978149414 108.1159896850586 C 40.09523391723633 80.58911895751953 62.584556579589844 97.37273406982422 41.967742919921875 72.80724334716797" stroke-width="3.0" fill="none" stroke="rgb(0, 0, 0)" stroke-opacity="1.0" stroke-linecap="round" stroke-linejoin="round"/>
    <path d="M 185.9031219482422 64.00569152832031 C 172.63612365722656 33.89466857910156 193.74319458007812 50.277034759521484 187.9161376953125 79.929443359375" stroke-width="3.0" fill="none" stroke="rgb(0, 0, 0)" stroke-opacity="1.0" stroke-linecap="round" stroke-linejoin="round"/>
    <path d="M 106.04217529296875 194.60801696777344 C 112.36572265625 113.23062896728516 117.38584899902344 145.22572326660156 123.88554382324219 98.34159851074219" stroke-width="3.0" fill="none" stroke="rgb(0, 0, 0)" stroke-opacity="1.0" stroke-linecap="round" stroke-linejoin="round"/>
    <path d="M 48.9451789855957 100.86967468261719 C 13.211750030517578 186.37588500976562 29.847454071044922 135.78216552734375 36.831298828125 198.5872802734375" stroke-width="3.0" fill="none" stroke="rgb(0, 0, 0)" stroke-opacity="1.0" stroke-linecap="round" stroke-linejoin="round"/>
    <path d="M 67.00775909423828 39.50426483154297 C 100.62918090820312 12.85463809967041 155.08026123046875 138.8920135498047 175.8299102783203 53.4880485534668" stroke-width="3.0" fill="none" stroke="rgb(0, 0, 0)" stroke-opacity="1.0" stroke-linecap="round" stroke-linejoin="round"/>
    <path d="M 48.44464874267578 100.69532012939453 C 85.52574157714844 121.61316680908203 82.56851196289062 110.263916015625 105.02957153320312 116.41818237304688" stroke-width="3.0" fill="none" stroke="rgb(0, 0, 0)" stroke-opacity="1.0" stroke-linecap="round" stroke-linejoin="round"/>
    <path d="M 22.894136428833008 146.04505920410156 C 35.51081085205078 108.24286651611328 -14.927852630615234 90.2683334350586 50.371726989746094 55.31873321533203" stroke-width="3.0" fill="none" stroke="rgb(0, 0, 0)" stroke-opacity="1.0" stroke-linecap="round" stroke-linejoin="round"/>
    <path d="M 173.6268768310547 90.29138946533203 C 189.83779907226562 18.02621078491211 205.27456665039062 25.367074966430664 171.00465393066406 92.27950286865234" stroke-width="3.0" fill="none" stroke="rgb(0, 0, 0)" stroke-opacity="1.0" stroke-linecap="round" stroke-linejoin="round"/>
    <path d="M 106.694091796875 116.77501678466797 C 109.6357192993164 184.23703002929688 84.36395263671875 202.37765502929688 111.13652038574219 190.05474853515625" stroke-width="3.0" fill="none" stroke="rgb(0, 0, 0)" stroke-opacity="1.0" stroke-linecap="round" stroke-linejoin="round"/>
    <path d="M 170.78366088867188 73.4665756225586 C 182.9806365966797 2.6231470108032227 213.66610717773438 76.411376953125 208.67787170410156 48.614227294921875" stroke-width="3.0" fill="none" stroke="rgb(0, 0, 0)" stroke-opacity="1.0" stroke-linecap="round" stroke-linejoin="round"/>
    <path d="M 195.0155029296875 61.500572204589844 C 160.2742919921875 40.314117431640625 259.7494201660156 45.76708221435547 196.01951599121094 58.641780853271484" stroke-width="3.0" fill="none" stroke="rgb(0, 0, 0)" stroke-opacity="1.0" stroke-linecap="round" stroke-linejoin="round"/>
  </g>
</svg>
