<?xml version="1.0" ?>
<svg xmlns="http://www.w3.org/2000/svg" version="1.1" width="224" height="224">
  <defs/>
  <g>
    <path d="M 141.39013671875 100.83779907226562 C 123.34982299804688 79.14075469970703 135.40744018554688 72.50869750976562 135.23391723632812 89.56121826171875" stroke-width="3.0" fill="none" stroke="rgb(0, 0, 0)" stroke-opacity="1.0" stroke-linecap="round" stroke-linejoin="round"/>
    <path d="M 97.02398681640625 91.8596420288086 C 96.4002914428711 94.51838684082031 99.59147644042969 105.17475128173828 106.82318878173828 107.81866455078125" stroke-width="3.0" fill="none" stroke="rgb(0, 0, 0)" stroke-opacity="1.0" stroke-linecap="round" stroke-linejoin="round"/>
    <path d="M 128.6800079345703 109.82652282714844 C 142.7681427001953 96.9406509399414 121.88304138183594 92.84873962402344 151.59121704101562 99.37054443359375" stroke-width="3.0" fill="none" stroke="rgb(0, 0, 0)" stroke-opacity="1.0" stroke-linecap="round" stroke-linejoin="round"/>
    <path d="M 63.905426025390625 43.93660354614258 C 51.916290283203125 50.33812713623047 23.951190948486328 70.46147155761719 37.08051300048828 61.17608642578125" stroke-width="3.0" fill="none" stroke="rgb(0, 0, 0)" stroke-opacity="1.0" stroke-linecap="round" stroke-linejoin="round"/>
    <path d="M 110.05459594726562 57.184051513671875 C 119.48069763183594 57.60548782348633 113.46215057373047 66.07948303222656 107.25114440917969 54.57765579223633" stroke-width="3.0" fill="none" stroke="rgb(0, 0, 0)" stroke-opacity="1.0" stroke-linecap="round" stroke-linejoin="round"/>
    <path d="M 65.89005279541016 106.96022033691406 C 56.361900329589844 90.13745880126953 47.44927215576172 84.03681182861328 46.958641052246094 79.97645568847656" stroke-width="3.0" fill="none" stroke="rgb(0, 0, 0)" stroke-opacity="1.0" stroke-linecap="round" stroke-linejoin="round"/>
    <path d="M 180.7106170654297 43.63315963745117 C 170.62893676757812 70.4736328125 188.89599609375 71.90538787841797 166.99180603027344 81.82890319824219" stroke-width="3.0" fill="none" stroke="rgb(0, 0, 0)" stroke-opacity="1.0" stroke-linecap="round" stroke-linejoin="round"/>
    <path d="M 114.89640045166016 145.70034790039062 C 123.75829315185547 91.69844055175781 115.62026977539062 124.86917877197266 126.71066284179688 103.77207946777344" stroke-width="3.0" fill="none" stroke="rgb(0, 0, 0)" stroke-opacity="1.0" stroke-linecap="round" stroke-linejoin="round"/>
    <path d="M 46.60978317260742 93.83294677734375 C 18.836462020874023 179.18792724609375 10.2655611038208 122.68971252441406 41.59139633178711 201.09303283691406" stroke-width="3.0" fill="none" stroke="rgb(0, 0, 0)" stroke-opacity="1.0" stroke-linecap="round" stroke-linejoin="round"/>
    <path d="M 62.74822235107422 44.81486129760742 C 92.79926300048828 24.586050033569336 124.58897399902344 75.30985260009766 149.46438598632812 82.84016418457031" stroke-width="3.0" fill="none" stroke="rgb(0, 0, 0)" stroke-opacity="1.0" stroke-linecap="round" stroke-linejoin="round"/>
    <path d="M 48.63261795043945 96.70149993896484 C 87.372314453125 125.52362823486328 79.2375259399414 115.13343811035156 102.73251342773438 119.02300262451172" stroke-width="3.0" fill="none" stroke="rgb(0, 0, 0)" stroke-opacity="1.0" stroke-linecap="round" stroke-linejoin="round"/>
    <path d="M 40.03840255737305 78.02481842041016 C 31.99114418029785 68.43396759033203 27.043807983398438 65.99519348144531 19.885574340820312 64.99803161621094" stroke-width="3.0" fill="none" stroke="rgb(0, 0, 0)" stroke-opacity="1.0" stroke-linecap="round" stroke-linejoin="round"/>
    <path d="M 151.19459533691406 83.10325622558594 C 210.7460479736328 76.03395080566406 165.9755096435547 76.70157623291016 175.19435119628906 95.72811126708984" stroke-width="3.0" fill="none" stroke="rgb(0, 0, 0)" stroke-opacity="1.0" stroke-linecap="round" stroke-linejoin="round"/>
    <path d="M 106.26913452148438 111.42414855957031 C 116.43597412109375 158.94334411621094 80.24222564697266 197.7652587890625 111.3680419921875 192.83314514160156" stroke-width="3.0" fill="none" stroke="rgb(0, 0, 0)" stroke-opacity="1.0" stroke-linecap="round" stroke-linejoin="round"/>
    <path d="M 175.48475646972656 62.278629302978516 C 190.72755432128906 6.998524188995361 183.5181884765625 66.20757293701172 210.00843811035156 49.73480224609375" stroke-width="3.0" fill="none" stroke="rgb(0, 0, 0)" stroke-opacity="1.0" stroke-linecap="round" stroke-linejoin="round"/>
    <path d="M 193.14027404785156 65.47056579589844 C 160.28269958496094 42.27254104614258 208.92669677734375 36.72161865234375 199.51641845703125 60.17599105834961" stroke-width="3.0" fill="none" stroke="rgb(0, 0, 0)" stroke-opacity="1.0" stroke-linecap="round" stroke-linejoin="round"/>
  </g>
</svg>
