<?xml version="1.0" ?>
<svg xmlns="http://www.w3.org/2000/svg" version="1.1" width="224" height="224">
  <defs/>
  <g>
    <path d="M 142.83071899414062 95.92416381835938 C 127.15660858154297 82.58076477050781 136.31690979003906 74.8890609741211 133.58303833007812 80.72991943359375" stroke-width="3.0" fill="none" stroke="rgb(0, 0, 0)" stroke-opacity="1.0" stroke-linecap="round" stroke-linejoin="round"/>
    <path d="M 100.00186920166016 91.57705688476562 C 96.10453796386719 96.1314926147461 98.52861022949219 106.32597351074219 103.64311981201172 114.29769134521484" stroke-width="3.0" fill="none" stroke="rgb(0, 0, 0)" stroke-opacity="1.0" stroke-linecap="round" stroke-linejoin="round"/>
    <path d="M 146.85043334960938 105.87610626220703 C 152.8787841796875 92.59219360351562 134.85850524902344 70.95494079589844 153.81138610839844 103.36151885986328" stroke-width="3.0" fill="none" stroke="rgb(0, 0, 0)" stroke-opacity="1.0" stroke-linecap="round" stroke-linejoin="round"/>
    <path d="M 53.35932159423828 47.93242645263672 C 59.61404800415039 80.82947540283203 43.132076263427734 97.19866943359375 50.875152587890625 87.86248016357422" stroke-width="3.0" fill="none" stroke="rgb(0, 0, 0)" stroke-opacity="1.0" stroke-linecap="round" stroke-linejoin="round"/>
    <path d="M 115.00892639160156 54.369205474853516 C 119.39411926269531 58.4290657043457 118.89290618896484 55.13412094116211 116.58842468261719 56.40113830566406" stroke-width="3.0" fill="none" stroke="rgb(0, 0, 0)" stroke-opacity="1.0" stroke-linecap="round" stroke-linejoin="round"/>
    <path d="M 58.427494049072266 83.75321197509766 C 54.12541198730469 91.7447738647461 50.91153335571289 83.7137222290039 53.104366302490234 78.1274185180664" stroke-width="3.0" fill="none" stroke="rgb(0, 0, 0)" stroke-opacity="1.0" stroke-linecap="round" stroke-linejoin="round"/>
    <path d="M 180.40115356445312 43.313045501708984 C 181.22567749023438 81.89923095703125 173.27297973632812 70.35546112060547 164.97726440429688 77.78713989257812" stroke-width="3.0" fill="none" stroke="rgb(0, 0, 0)" stroke-opacity="1.0" stroke-linecap="round" stroke-linejoin="round"/>
    <path d="M 111.38246154785156 135.01641845703125 C 125.50336456298828 110.11125183105469 104.19580841064453 133.55905151367188 120.10497283935547 121.70980834960938" stroke-width="3.0" fill="none" stroke="rgb(0, 0, 0)" stroke-opacity="1.0" stroke-linecap="round" stroke-linejoin="round"/>
    <path d="M 29.035968780517578 125.535400390625 C 24.17125129699707 176.48333740234375 24.546340942382812 150.23727416992188 45.46144485473633 192.9244384765625" stroke-width="3.0" fill="none" stroke="rgb(0, 0, 0)" stroke-opacity="1.0" stroke-linecap="round" stroke-linejoin="round"/>
    <path d="M 80.12913513183594 36.78077697753906 C 117.90440368652344 45.055641174316406 126.02356719970703 64.71070861816406 131.8085174560547 82.80624389648438" stroke-width="3.0" fill="none" stroke="rgb(0, 0, 0)" stroke-opacity="1.0" stroke-linecap="round" stroke-linejoin="round"/>
    <path d="M 47.568145751953125 95.85096740722656 C 68.48004913330078 131.65762329101562 70.22686767578125 122.25191497802734 104.86766815185547 127.10958862304688" stroke-width="3.0" fill="none" stroke="rgb(0, 0, 0)" stroke-opacity="1.0" stroke-linecap="round" stroke-linejoin="round"/>
    <path d="M 29.58316993713379 95.92402648925781 C 24.583980560302734 76.1887435913086 20.625858306884766 76.38796997070312 20.735055923461914 73.057373046875" stroke-width="3.0" fill="none" stroke="rgb(0, 0, 0)" stroke-opacity="1.0" stroke-linecap="round" stroke-linejoin="round"/>
    <path d="M 145.21437072753906 79.85118865966797 C 191.22158813476562 70.44596862792969 157.0103759765625 77.93064880371094 168.5478515625 98.04351043701172" stroke-width="3.0" fill="none" stroke="rgb(0, 0, 0)" stroke-opacity="1.0" stroke-linecap="round" stroke-linejoin="round"/>
    <path d="M 109.84187316894531 115.50872802734375 C 121.88278198242188 143.69383239746094 81.18892669677734 200.29640197753906 110.00962829589844 191.3153533935547" stroke-width="3.0" fill="none" stroke="rgb(0, 0, 0)" stroke-opacity="1.0" stroke-linecap="round" stroke-linejoin="round"/>
    <path d="M 177.2563934326172 61.21074676513672 C 195.5821533203125 12.834221839904785 183.8369140625 58.1693229675293 201.25851440429688 49.480098724365234" stroke-width="3.0" fill="none" stroke="rgb(0, 0, 0)" stroke-opacity="1.0" stroke-linecap="round" stroke-linejoin="round"/>
    <path d="M 198.45176696777344 66.09722137451172 C 169.67092895507812 44.44186782836914 205.19598388671875 34.83830261230469 196.73812866210938 56.48280715942383" stroke-width="3.0" fill="none" stroke="rgb(0, 0, 0)" stroke-opacity="1.0" stroke-linecap="round" stroke-linejoin="round"/>
  </g>
</svg>
