<?xml version="1.0" ?>
<svg xmlns="http://www.w3.org/2000/svg" version="1.1" width="224" height="224">
  <defs/>
  <g>
    <path d="M 131.90341186523438 105.73641967773438 C 116.05529022216797 86.52372741699219 149.67684936523438 129.2657928466797 120.15369415283203 65.6776123046875" stroke-width="3.0" fill="none" stroke="rgb(0, 0, 0)" stroke-opacity="1.0" stroke-linecap="round" stroke-linejoin="round"/>
    <path d="M 111.59175109863281 89.06809997558594 C 114.8616943359375 101.76866149902344 104.4677505493164 101.56201171875 111.08805084228516 111.7891616821289" stroke-width="3.0" fill="none" stroke="rgb(0, 0, 0)" stroke-opacity="1.0" stroke-linecap="round" stroke-linejoin="round"/>
    <path d="M 129.05416870117188 107.05667877197266 C 128.27305603027344 89.21609497070312 150.0717315673828 138.78848266601562 188.8505401611328 70.89570617675781" stroke-width="3.0" fill="none" stroke="rgb(0, 0, 0)" stroke-opacity="1.0" stroke-linecap="round" stroke-linejoin="round"/>
    <path d="M 61.19899368286133 42.69584655761719 C 65.70917510986328 39.225955963134766 53.87984848022461 48.20685958862305 41.16679382324219 59.9868049621582" stroke-width="3.0" fill="none" stroke="rgb(0, 0, 0)" stroke-opacity="1.0" stroke-linecap="round" stroke-linejoin="round"/>
    <path d="M 134.14183044433594 81.51673126220703 C 108.86244201660156 40.614646911621094 114.73440551757812 67.3379898071289 92.8839111328125 42.52634048461914" stroke-width="3.0" fill="none" stroke="rgb(0, 0, 0)" stroke-opacity="1.0" stroke-linecap="round" stroke-linejoin="round"/>
    <path d="M 68.5916976928711 112.11150360107422 C 36.093624114990234 81.75406646728516 58.95127868652344 98.28659057617188 43.160892486572266 72.16929626464844" stroke-width="3.0" fill="none" stroke="rgb(0, 0, 0)" stroke-opacity="1.0" stroke-linecap="round" stroke-linejoin="round"/>
    <path d="M 181.9187774658203 64.47167205810547 C 168.0250244140625 40.615814208984375 194.0752716064453 53.0145149230957 187.76451110839844 77.40354919433594" stroke-width="3.0" fill="none" stroke="rgb(0, 0, 0)" stroke-opacity="1.0" stroke-linecap="round" stroke-linejoin="round"/>
    <path d="M 104.55490112304688 194.99942016601562 C 118.38562774658203 91.41654205322266 124.5084228515625 133.08233642578125 122.87089538574219 102.75462341308594" stroke-width="3.0" fill="none" stroke="rgb(0, 0, 0)" stroke-opacity="1.0" stroke-linecap="round" stroke-linejoin="round"/>
    <path d="M 46.58821487426758 104.85751342773438 C 29.14204216003418 175.03042602539062 17.771772384643555 121.07075500488281 41.898719787597656 199.0704345703125" stroke-width="3.0" fill="none" stroke="rgb(0, 0, 0)" stroke-opacity="1.0" stroke-linecap="round" stroke-linejoin="round"/>
    <path d="M 64.58479309082031 41.31893539428711 C 101.35273742675781 17.06727409362793 157.96429443359375 134.58074951171875 174.32484436035156 57.42037582397461" stroke-width="3.0" fill="none" stroke="rgb(0, 0, 0)" stroke-opacity="1.0" stroke-linecap="round" stroke-linejoin="round"/>
    <path d="M 48.05558776855469 101.3826675415039 C 84.59451293945312 122.35115814208984 80.67948150634766 113.29359436035156 104.58160400390625 119.95975494384766" stroke-width="3.0" fill="none" stroke="rgb(0, 0, 0)" stroke-opacity="1.0" stroke-linecap="round" stroke-linejoin="round"/>
    <path d="M 25.92066192626953 139.54515075683594 C 20.656747817993164 89.10681915283203 -3.1486456394195557 83.48023223876953 52.08493423461914 52.924861907958984" stroke-width="3.0" fill="none" stroke="rgb(0, 0, 0)" stroke-opacity="1.0" stroke-linecap="round" stroke-linejoin="round"/>
    <path d="M 176.9496307373047 89.25642395019531 C 195.047119140625 20.838239669799805 209.64004516601562 30.75095558166504 167.208740234375 96.61659240722656" stroke-width="3.0" fill="none" stroke="rgb(0, 0, 0)" stroke-opacity="1.0" stroke-linecap="round" stroke-linejoin="round"/>
    <path d="M 105.7450180053711 117.21063995361328 C 110.39178466796875 186.8795166015625 79.33228302001953 204.08432006835938 111.35648345947266 190.75917053222656" stroke-width="3.0" fill="none" stroke="rgb(0, 0, 0)" stroke-opacity="1.0" stroke-linecap="round" stroke-linejoin="round"/>
    <path d="M 168.80540466308594 66.26206970214844 C 183.1593017578125 6.022947311401367 215.79783630371094 77.21050262451172 204.0868682861328 45.32308578491211" stroke-width="3.0" fill="none" stroke="rgb(0, 0, 0)" stroke-opacity="1.0" stroke-linecap="round" stroke-linejoin="round"/>
    <path d="M 192.95004272460938 62.29182815551758 C 145.168212890625 42.47251510620117 254.5518341064453 44.32996368408203 196.4748077392578 59.463829040527344" stroke-width="3.0" fill="none" stroke="rgb(0, 0, 0)" stroke-opacity="1.0" stroke-linecap="round" stroke-linejoin="round"/>
  </g>
</svg>
