<?xml version="1.0" ?>
<svg xmlns="http://www.w3.org/2000/svg" version="1.1" width="224" height="224">
  <defs/>
  <g>
    <path d="M 153.3732147216797 101.74432373046875 C 123.38796997070312 97.47004699707031 161.21131896972656 109.67457580566406 130.6055450439453 89.3667984008789" stroke-width="3.0" fill="none" stroke="rgb(0, 0, 0)" stroke-opacity="1.0" stroke-linecap="round" stroke-linejoin="round"/>
    <path d="M 106.48200225830078 94.08291625976562 C 108.19841766357422 94.46380615234375 101.99401092529297 98.49627685546875 107.31204986572266 110.11528778076172" stroke-width="3.0" fill="none" stroke="rgb(0, 0, 0)" stroke-opacity="1.0" stroke-linecap="round" stroke-linejoin="round"/>
    <path d="M 136.77493286132812 103.93286895751953 C 149.2836456298828 76.17745971679688 114.46027374267578 119.78329467773438 172.84661865234375 96.71161651611328" stroke-width="3.0" fill="none" stroke="rgb(0, 0, 0)" stroke-opacity="1.0" stroke-linecap="round" stroke-linejoin="round"/>
    <path d="M 62.47396469116211 42.144309997558594 C 57.28138732910156 46.407188415527344 46.16423416137695 58.749271392822266 56.04142761230469 48.53389358520508" stroke-width="3.0" fill="none" stroke="rgb(0, 0, 0)" stroke-opacity="1.0" stroke-linecap="round" stroke-linejoin="round"/>
    <path d="M 109.38138580322266 52.59895324707031 C 119.13290405273438 52.03525924682617 105.29793548583984 50.109134674072266 100.16139221191406 45.68950653076172" stroke-width="3.0" fill="none" stroke="rgb(0, 0, 0)" stroke-opacity="1.0" stroke-linecap="round" stroke-linejoin="round"/>
    <path d="M 76.1031494140625 113.18733978271484 C 45.80087661743164 84.84977722167969 65.23673248291016 95.27163696289062 50.851871490478516 78.95780944824219" stroke-width="3.0" fill="none" stroke="rgb(0, 0, 0)" stroke-opacity="1.0" stroke-linecap="round" stroke-linejoin="round"/>
    <path d="M 184.4473114013672 45.82965087890625 C 177.3663330078125 69.98020935058594 208.43972778320312 68.6273193359375 178.21983337402344 85.30293273925781" stroke-width="3.0" fill="none" stroke="rgb(0, 0, 0)" stroke-opacity="1.0" stroke-linecap="round" stroke-linejoin="round"/>
    <path d="M 102.50762939453125 189.17823791503906 C 124.51691436767578 76.61080932617188 118.67635345458984 135.10398864746094 129.79046630859375 101.01576232910156" stroke-width="3.0" fill="none" stroke="rgb(0, 0, 0)" stroke-opacity="1.0" stroke-linecap="round" stroke-linejoin="round"/>
    <path d="M 48.94192123413086 95.49160766601562 C 22.47613525390625 187.5889129638672 22.800113677978516 117.75558471679688 40.66014099121094 198.58309936523438" stroke-width="3.0" fill="none" stroke="rgb(0, 0, 0)" stroke-opacity="1.0" stroke-linecap="round" stroke-linejoin="round"/>
    <path d="M 62.61475372314453 43.2006721496582 C 88.6010971069336 11.649349212646484 134.59860229492188 91.95195007324219 165.89059448242188 87.21552276611328" stroke-width="3.0" fill="none" stroke="rgb(0, 0, 0)" stroke-opacity="1.0" stroke-linecap="round" stroke-linejoin="round"/>
    <path d="M 47.288639068603516 106.2779541015625 C 100.81480407714844 122.41057586669922 85.70795440673828 111.2561264038086 106.09159851074219 114.99502563476562" stroke-width="3.0" fill="none" stroke="rgb(0, 0, 0)" stroke-opacity="1.0" stroke-linecap="round" stroke-linejoin="round"/>
    <path d="M 42.43707275390625 74.63391876220703 C 41.044673919677734 65.99710083007812 32.163299560546875 63.713104248046875 34.7822380065918 66.08345794677734" stroke-width="3.0" fill="none" stroke="rgb(0, 0, 0)" stroke-opacity="1.0" stroke-linecap="round" stroke-linejoin="round"/>
    <path d="M 164.55029296875 88.08622741699219 C 217.70628356933594 72.34243774414062 181.28466796875 75.06648254394531 174.35321044921875 94.32818603515625" stroke-width="3.0" fill="none" stroke="rgb(0, 0, 0)" stroke-opacity="1.0" stroke-linecap="round" stroke-linejoin="round"/>
    <path d="M 104.12466430664062 115.07233428955078 C 109.57611083984375 182.39797973632812 81.66927337646484 189.9865264892578 109.78104400634766 192.3317108154297" stroke-width="3.0" fill="none" stroke="rgb(0, 0, 0)" stroke-opacity="1.0" stroke-linecap="round" stroke-linejoin="round"/>
    <path d="M 175.49139404296875 83.47338104248047 C 171.95712280273438 -9.72619915008545 185.2334747314453 73.23772430419922 199.91650390625 47.243133544921875" stroke-width="3.0" fill="none" stroke="rgb(0, 0, 0)" stroke-opacity="1.0" stroke-linecap="round" stroke-linejoin="round"/>
    <path d="M 196.15399169921875 62.2218017578125 C 151.69900512695312 39.56818771362305 222.1869354248047 48.03160858154297 204.9071807861328 56.35430145263672" stroke-width="3.0" fill="none" stroke="rgb(0, 0, 0)" stroke-opacity="1.0" stroke-linecap="round" stroke-linejoin="round"/>
  </g>
</svg>
