<?xml version="1.0" ?>
<svg xmlns="http://www.w3.org/2000/svg" version="1.1" width="224" height="224">
  <defs/>
  <g>
    <path d="M 153.80230712890625 102.18611907958984 C 116.5870590209961 83.93011474609375 178.5609893798828 131.46690368652344 120.81060791015625 72.87615966796875" stroke-width="3.0" fill="none" stroke="rgb(0, 0, 0)" stroke-opacity="1.0" stroke-linecap="round" stroke-linejoin="round"/>
    <path d="M 110.756103515625 93.17442321777344 C 112.21025085449219 105.9847640991211 103.03547668457031 103.87574005126953 107.2998046875 114.33968353271484" stroke-width="3.0" fill="none" stroke="rgb(0, 0, 0)" stroke-opacity="1.0" stroke-linecap="round" stroke-linejoin="round"/>
    <path d="M 138.92091369628906 103.27880096435547 C 142.4128875732422 67.71307373046875 123.60690307617188 131.06747436523438 176.31332397460938 89.04261016845703" stroke-width="3.0" fill="none" stroke="rgb(0, 0, 0)" stroke-opacity="1.0" stroke-linecap="round" stroke-linejoin="round"/>
    <path d="M 61.90262985229492 42.92766189575195 C 63.7852897644043 43.17991256713867 55.75741958618164 46.31929397583008 64.02242279052734 41.202762603759766" stroke-width="3.0" fill="none" stroke="rgb(0, 0, 0)" stroke-opacity="1.0" stroke-linecap="round" stroke-linejoin="round"/>
    <path d="M 127.48787689208984 86.2402572631836 C 107.85023498535156 42.89152526855469 111.04285430908203 67.89354705810547 97.91626739501953 48.51467514038086" stroke-width="3.0" fill="none" stroke="rgb(0, 0, 0)" stroke-opacity="1.0" stroke-linecap="round" stroke-linejoin="round"/>
    <path d="M 68.76094818115234 111.52355194091797 C 44.58734893798828 75.9066162109375 60.28519821166992 87.56352233886719 48.73301315307617 62.489715576171875" stroke-width="3.0" fill="none" stroke="rgb(0, 0, 0)" stroke-opacity="1.0" stroke-linecap="round" stroke-linejoin="round"/>
    <path d="M 183.61386108398438 38.14380645751953 C 186.82717895507812 49.78350067138672 198.53382873535156 48.05513381958008 187.8015899658203 79.45658111572266" stroke-width="3.0" fill="none" stroke="rgb(0, 0, 0)" stroke-opacity="1.0" stroke-linecap="round" stroke-linejoin="round"/>
    <path d="M 103.0442886352539 192.95065307617188 C 124.0130844116211 80.84512329101562 122.85464477539062 121.46623992919922 132.87460327148438 100.173095703125" stroke-width="3.0" fill="none" stroke="rgb(0, 0, 0)" stroke-opacity="1.0" stroke-linecap="round" stroke-linejoin="round"/>
    <path d="M 46.15964889526367 94.98657989501953 C 24.625324249267578 181.69371032714844 17.862674713134766 122.93888092041016 40.231712341308594 197.7194366455078" stroke-width="3.0" fill="none" stroke="rgb(0, 0, 0)" stroke-opacity="1.0" stroke-linecap="round" stroke-linejoin="round"/>
    <path d="M 62.57823181152344 43.09041213989258 C 92.3617935180664 16.225902557373047 140.4599609375 107.378662109375 170.21617126464844 80.21553039550781" stroke-width="3.0" fill="none" stroke="rgb(0, 0, 0)" stroke-opacity="1.0" stroke-linecap="round" stroke-linejoin="round"/>
    <path d="M 50.12721252441406 93.86698150634766 C 68.98941040039062 121.60230255126953 86.77883911132812 113.5866470336914 106.1808090209961 118.6277084350586" stroke-width="3.0" fill="none" stroke="rgb(0, 0, 0)" stroke-opacity="1.0" stroke-linecap="round" stroke-linejoin="round"/>
    <path d="M 17.90791130065918 132.2300567626953 C 6.054017543792725 67.48016357421875 22.47064208984375 78.75772857666016 58.696746826171875 45.0621223449707" stroke-width="3.0" fill="none" stroke="rgb(0, 0, 0)" stroke-opacity="1.0" stroke-linecap="round" stroke-linejoin="round"/>
    <path d="M 166.87252807617188 85.14862060546875 C 196.98193359375 38.56232452392578 198.5900421142578 50.379669189453125 178.5833740234375 86.74302673339844" stroke-width="3.0" fill="none" stroke="rgb(0, 0, 0)" stroke-opacity="1.0" stroke-linecap="round" stroke-linejoin="round"/>
    <path d="M 104.20065307617188 120.6759262084961 C 110.4856948852539 178.29351806640625 73.823486328125 201.580322265625 113.17019653320312 187.52781677246094" stroke-width="3.0" fill="none" stroke="rgb(0, 0, 0)" stroke-opacity="1.0" stroke-linecap="round" stroke-linejoin="round"/>
    <path d="M 173.5529022216797 77.88735961914062 C 174.12918090820312 -1.9450502395629883 215.95303344726562 74.30792999267578 204.7076873779297 47.62080764770508" stroke-width="3.0" fill="none" stroke="rgb(0, 0, 0)" stroke-opacity="1.0" stroke-linecap="round" stroke-linejoin="round"/>
    <path d="M 196.78379821777344 56.13218688964844 C 153.06326293945312 42.83733367919922 248.14617919921875 45.735740661621094 199.02618408203125 55.778350830078125" stroke-width="3.0" fill="none" stroke="rgb(0, 0, 0)" stroke-opacity="1.0" stroke-linecap="round" stroke-linejoin="round"/>
  </g>
</svg>
