<?xml version="1.0" ?>
<svg xmlns="http://www.w3.org/2000/svg" version="1.1" width="224" height="224">
  <defs/>
  <g>
    <path d="M 151.73135375976562 101.35740661621094 C 119.629638671875 82.63302612304688 176.5597381591797 129.2242889404297 122.93290710449219 74.36702728271484" stroke-width="3.0" fill="none" stroke="rgb(0, 0, 0)" stroke-opacity="1.0" stroke-linecap="round" stroke-linejoin="round"/>
    <path d="M 103.30614471435547 96.1240463256836 C 107.32867431640625 109.56343078613281 97.94491577148438 97.6834487915039 108.62313079833984 115.04627990722656" stroke-width="3.0" fill="none" stroke="rgb(0, 0, 0)" stroke-opacity="1.0" stroke-linecap="round" stroke-linejoin="round"/>
    <path d="M 139.0409698486328 103.23910522460938 C 141.26010131835938 63.20457458496094 124.39663696289062 127.92850494384766 176.9777374267578 89.4102783203125" stroke-width="3.0" fill="none" stroke="rgb(0, 0, 0)" stroke-opacity="1.0" stroke-linecap="round" stroke-linejoin="round"/>
    <path d="M 61.69614791870117 42.86802673339844 C 62.478912353515625 40.48931121826172 55.88971710205078 46.43550109863281 61.71389389038086 42.46213912963867" stroke-width="3.0" fill="none" stroke="rgb(0, 0, 0)" stroke-opacity="1.0" stroke-linecap="round" stroke-linejoin="round"/>
    <path d="M 124.830078125 84.33963012695312 C 113.79808807373047 47.14329528808594 109.83525848388672 65.38545989990234 98.86360931396484 47.020957946777344" stroke-width="3.0" fill="none" stroke="rgb(0, 0, 0)" stroke-opacity="1.0" stroke-linecap="round" stroke-linejoin="round"/>
    <path d="M 70.91020202636719 113.5208969116211 C 44.984317779541016 79.03699493408203 61.066165924072266 86.41378784179688 49.602420806884766 60.2296142578125" stroke-width="3.0" fill="none" stroke="rgb(0, 0, 0)" stroke-opacity="1.0" stroke-linecap="round" stroke-linejoin="round"/>
    <path d="M 180.25999450683594 39.963687896728516 C 182.0039825439453 44.546356201171875 193.53656005859375 50.93977355957031 172.54855346679688 76.48519134521484" stroke-width="3.0" fill="none" stroke="rgb(0, 0, 0)" stroke-opacity="1.0" stroke-linecap="round" stroke-linejoin="round"/>
    <path d="M 104.59465026855469 194.82437133789062 C 123.29059600830078 80.36730194091797 120.31690979003906 121.62366485595703 133.9267120361328 101.38228607177734" stroke-width="3.0" fill="none" stroke="rgb(0, 0, 0)" stroke-opacity="1.0" stroke-linecap="round" stroke-linejoin="round"/>
    <path d="M 50.163818359375 86.12423706054688 C 24.76166534423828 187.42019653320312 16.159597396850586 118.13275909423828 39.959861755371094 200.99539184570312" stroke-width="3.0" fill="none" stroke="rgb(0, 0, 0)" stroke-opacity="1.0" stroke-linecap="round" stroke-linejoin="round"/>
    <path d="M 62.5374641418457 42.06916809082031 C 90.41771697998047 14.535505294799805 141.16590881347656 103.03726959228516 163.2584991455078 85.05156707763672" stroke-width="3.0" fill="none" stroke="rgb(0, 0, 0)" stroke-opacity="1.0" stroke-linecap="round" stroke-linejoin="round"/>
    <path d="M 49.09962844848633 91.35780334472656 C 75.46353912353516 125.05902862548828 78.83921813964844 113.08067321777344 106.25859069824219 119.2727279663086" stroke-width="3.0" fill="none" stroke="rgb(0, 0, 0)" stroke-opacity="1.0" stroke-linecap="round" stroke-linejoin="round"/>
    <path d="M 28.023399353027344 129.2172393798828 C 8.852965354919434 63.9707145690918 26.67947006225586 71.74054718017578 59.66230392456055 42.788246154785156" stroke-width="3.0" fill="none" stroke="rgb(0, 0, 0)" stroke-opacity="1.0" stroke-linecap="round" stroke-linejoin="round"/>
    <path d="M 165.031982421875 82.50531768798828 C 192.20838928222656 43.021541595458984 195.50460815429688 59.0891227722168 177.29420471191406 88.45020294189453" stroke-width="3.0" fill="none" stroke="rgb(0, 0, 0)" stroke-opacity="1.0" stroke-linecap="round" stroke-linejoin="round"/>
    <path d="M 105.77069854736328 118.0105209350586 C 109.70616149902344 181.32252502441406 77.86854553222656 202.28565979003906 110.7949447631836 190.61358642578125" stroke-width="3.0" fill="none" stroke="rgb(0, 0, 0)" stroke-opacity="1.0" stroke-linecap="round" stroke-linejoin="round"/>
    <path d="M 171.26133728027344 84.00358581542969 C 174.97239685058594 -2.363103151321411 208.0635986328125 74.68025207519531 197.7904052734375 45.15237808227539" stroke-width="3.0" fill="none" stroke="rgb(0, 0, 0)" stroke-opacity="1.0" stroke-linecap="round" stroke-linejoin="round"/>
    <path d="M 198.38870239257812 63.852691650390625 C 146.3831024169922 38.994144439697266 237.2148895263672 42.38884353637695 190.8198699951172 51.8497314453125" stroke-width="3.0" fill="none" stroke="rgb(0, 0, 0)" stroke-opacity="1.0" stroke-linecap="round" stroke-linejoin="round"/>
  </g>
</svg>
