<?xml version="1.0" ?>
<svg xmlns="http://www.w3.org/2000/svg" version="1.1" width="224" height="224">
  <defs/>
  <g>
    <path d="M 136.87069702148438 107.97288513183594 C 119.59739685058594 90.82451629638672 151.7341766357422 142.35260009765625 118.84603881835938 71.466552734375" stroke-width="3.0" fill="none" stroke="rgb(0, 0, 0)" stroke-opacity="1.0" stroke-linecap="round" stroke-linejoin="round"/>
    <path d="M 107.34329223632812 96.41677856445312 C 110.54074096679688 100.57137298583984 100.29792022705078 105.52588653564453 106.5275650024414 112.45559692382812" stroke-width="3.0" fill="none" stroke="rgb(0, 0, 0)" stroke-opacity="1.0" stroke-linecap="round" stroke-linejoin="round"/>
    <path d="M 131.638916015625 111.37553405761719 C 131.0191650390625 82.63896942138672 138.65081787109375 132.2417755126953 181.79940795898438 84.9827651977539" stroke-width="3.0" fill="none" stroke="rgb(0, 0, 0)" stroke-opacity="1.0" stroke-linecap="round" stroke-linejoin="round"/>
    <path d="M 65.43169403076172 40.34834289550781 C 64.33667755126953 40.700340270996094 57.38096237182617 47.72754669189453 60.68052673339844 44.44951629638672" stroke-width="3.0" fill="none" stroke="rgb(0, 0, 0)" stroke-opacity="1.0" stroke-linecap="round" stroke-linejoin="round"/>
    <path d="M 132.85923767089844 82.7671890258789 C 107.110595703125 40.20065689086914 116.28955078125 68.37153625488281 95.87113189697266 46.20291519165039" stroke-width="3.0" fill="none" stroke="rgb(0, 0, 0)" stroke-opacity="1.0" stroke-linecap="round" stroke-linejoin="round"/>
    <path d="M 65.21977996826172 108.85459899902344 C 40.61964416503906 79.76720428466797 60.21330261230469 93.69811248779297 40.23662185668945 72.38836669921875" stroke-width="3.0" fill="none" stroke="rgb(0, 0, 0)" stroke-opacity="1.0" stroke-linecap="round" stroke-linejoin="round"/>
    <path d="M 186.25233459472656 61.38871765136719 C 170.33544921875 26.728975296020508 192.91336059570312 52.29377746582031 187.11627197265625 82.1944351196289" stroke-width="3.0" fill="none" stroke="rgb(0, 0, 0)" stroke-opacity="1.0" stroke-linecap="round" stroke-linejoin="round"/>
    <path d="M 103.71952056884766 194.90728759765625 C 120.13041687011719 82.58399963378906 126.75951385498047 128.09397888183594 124.88274383544922 100.65933990478516" stroke-width="3.0" fill="none" stroke="rgb(0, 0, 0)" stroke-opacity="1.0" stroke-linecap="round" stroke-linejoin="round"/>
    <path d="M 46.957523345947266 99.6552734375 C 23.466577529907227 169.8940887451172 15.858162879943848 124.4342269897461 40.73878860473633 199.52679443359375" stroke-width="3.0" fill="none" stroke="rgb(0, 0, 0)" stroke-opacity="1.0" stroke-linecap="round" stroke-linejoin="round"/>
    <path d="M 63.53692626953125 41.78076171875 C 93.62176513671875 18.294694900512695 153.40530395507812 114.40081787109375 168.70855712890625 71.99930572509766" stroke-width="3.0" fill="none" stroke="rgb(0, 0, 0)" stroke-opacity="1.0" stroke-linecap="round" stroke-linejoin="round"/>
    <path d="M 47.60384750366211 102.1244888305664 C 82.6317367553711 122.198486328125 78.09103393554688 112.3821792602539 104.2762680053711 117.23966979980469" stroke-width="3.0" fill="none" stroke="rgb(0, 0, 0)" stroke-opacity="1.0" stroke-linecap="round" stroke-linejoin="round"/>
    <path d="M 16.42060089111328 132.9227752685547 C 11.466822624206543 70.91727447509766 13.076942443847656 84.98787689208984 58.70624923706055 45.53217697143555" stroke-width="3.0" fill="none" stroke="rgb(0, 0, 0)" stroke-opacity="1.0" stroke-linecap="round" stroke-linejoin="round"/>
    <path d="M 174.4109649658203 84.5826187133789 C 190.30474853515625 23.716976165771484 203.3776092529297 30.5728702545166 171.27047729492188 95.29676055908203" stroke-width="3.0" fill="none" stroke="rgb(0, 0, 0)" stroke-opacity="1.0" stroke-linecap="round" stroke-linejoin="round"/>
    <path d="M 106.73307037353516 116.8617935180664 C 109.06281280517578 182.56007385253906 80.07789611816406 201.89212036132812 110.36145782470703 190.5608673095703" stroke-width="3.0" fill="none" stroke="rgb(0, 0, 0)" stroke-opacity="1.0" stroke-linecap="round" stroke-linejoin="round"/>
    <path d="M 169.97247314453125 71.87211608886719 C 177.5953369140625 7.627330303192139 217.5341339111328 76.73242950439453 204.9827117919922 49.42945861816406" stroke-width="3.0" fill="none" stroke="rgb(0, 0, 0)" stroke-opacity="1.0" stroke-linecap="round" stroke-linejoin="round"/>
    <path d="M 190.98463439941406 64.13960266113281 C 154.19757080078125 44.85326385498047 257.438720703125 46.98875427246094 194.2892303466797 59.07866668701172" stroke-width="3.0" fill="none" stroke="rgb(0, 0, 0)" stroke-opacity="1.0" stroke-linecap="round" stroke-linejoin="round"/>
  </g>
</svg>
