<?xml version="1.0" ?>
<svg xmlns="http://www.w3.org/2000/svg" version="1.1" width="224" height="224">
  <defs/>
  <g>
    <path d="M 153.47837829589844 101.01959991455078 C 124.6999740600586 95.24850463867188 160.0647735595703 109.48159790039062 133.72398376464844 89.26470947265625" stroke-width="3.0" fill="none" stroke="rgb(0, 0, 0)" stroke-opacity="1.0" stroke-linecap="round" stroke-linejoin="round"/>
    <path d="M 110.3489761352539 90.58631896972656 C 110.80500030517578 97.86720275878906 103.41917419433594 96.21916198730469 108.62991333007812 109.13661193847656" stroke-width="3.0" fill="none" stroke="rgb(0, 0, 0)" stroke-opacity="1.0" stroke-linecap="round" stroke-linejoin="round"/>
    <path d="M 137.49476623535156 104.28722381591797 C 149.9601287841797 77.5235595703125 114.364501953125 118.22991943359375 171.08615112304688 93.2422103881836" stroke-width="3.0" fill="none" stroke="rgb(0, 0, 0)" stroke-opacity="1.0" stroke-linecap="round" stroke-linejoin="round"/>
    <path d="M 63.10050582885742 43.534523010253906 C 56.969600677490234 48.72797393798828 45.4022102355957 63.66103744506836 54.51758575439453 51.384159088134766" stroke-width="3.0" fill="none" stroke="rgb(0, 0, 0)" stroke-opacity="1.0" stroke-linecap="round" stroke-linejoin="round"/>
    <path d="M 109.1183853149414 51.976219177246094 C 118.92906188964844 55.1005859375 105.23653411865234 48.795658111572266 97.96204376220703 47.178741455078125" stroke-width="3.0" fill="none" stroke="rgb(0, 0, 0)" stroke-opacity="1.0" stroke-linecap="round" stroke-linejoin="round"/>
    <path d="M 76.75232696533203 113.19818878173828 C 41.582061767578125 87.62269592285156 62.94704818725586 96.7876205444336 44.206172943115234 77.35442352294922" stroke-width="3.0" fill="none" stroke="rgb(0, 0, 0)" stroke-opacity="1.0" stroke-linecap="round" stroke-linejoin="round"/>
    <path d="M 186.91134643554688 45.675071716308594 C 179.6371612548828 69.50746154785156 209.11593627929688 72.72592163085938 178.2270965576172 86.96826934814453" stroke-width="3.0" fill="none" stroke="rgb(0, 0, 0)" stroke-opacity="1.0" stroke-linecap="round" stroke-linejoin="round"/>
    <path d="M 104.27337646484375 182.59727478027344 C 125.32649993896484 81.09812927246094 114.59083557128906 130.77513122558594 131.10720825195312 99.16680145263672" stroke-width="3.0" fill="none" stroke="rgb(0, 0, 0)" stroke-opacity="1.0" stroke-linecap="round" stroke-linejoin="round"/>
    <path d="M 47.018760681152344 95.81993865966797 C 21.713882446289062 187.4594268798828 21.271060943603516 121.14896392822266 39.41761016845703 197.71775817871094" stroke-width="3.0" fill="none" stroke="rgb(0, 0, 0)" stroke-opacity="1.0" stroke-linecap="round" stroke-linejoin="round"/>
    <path d="M 63.285552978515625 44.46311569213867 C 88.7002944946289 13.169032096862793 132.4478759765625 92.05012512207031 164.2611846923828 87.70860290527344" stroke-width="3.0" fill="none" stroke="rgb(0, 0, 0)" stroke-opacity="1.0" stroke-linecap="round" stroke-linejoin="round"/>
    <path d="M 48.099708557128906 105.81098937988281 C 99.7684326171875 121.4840087890625 85.98190307617188 108.23151397705078 105.98257446289062 114.67106628417969" stroke-width="3.0" fill="none" stroke="rgb(0, 0, 0)" stroke-opacity="1.0" stroke-linecap="round" stroke-linejoin="round"/>
    <path d="M 36.90205383300781 77.88428497314453 C 35.079410552978516 73.48954010009766 26.842519760131836 69.49885559082031 27.00130844116211 70.16390991210938" stroke-width="3.0" fill="none" stroke="rgb(0, 0, 0)" stroke-opacity="1.0" stroke-linecap="round" stroke-linejoin="round"/>
    <path d="M 164.13705444335938 88.48341369628906 C 219.54495239257812 74.66839599609375 180.16905212402344 80.10729217529297 172.77926635742188 91.89732360839844" stroke-width="3.0" fill="none" stroke="rgb(0, 0, 0)" stroke-opacity="1.0" stroke-linecap="round" stroke-linejoin="round"/>
    <path d="M 104.79598999023438 114.71107482910156 C 109.45233917236328 179.458251953125 80.71581268310547 192.96380615234375 110.88105010986328 195.4669647216797" stroke-width="3.0" fill="none" stroke="rgb(0, 0, 0)" stroke-opacity="1.0" stroke-linecap="round" stroke-linejoin="round"/>
    <path d="M 175.65277099609375 83.84243774414062 C 170.6489715576172 -8.57758903503418 189.41876220703125 70.50438690185547 203.3863525390625 47.494728088378906" stroke-width="3.0" fill="none" stroke="rgb(0, 0, 0)" stroke-opacity="1.0" stroke-linecap="round" stroke-linejoin="round"/>
    <path d="M 194.79644775390625 62.42832946777344 C 151.6900177001953 39.917423248291016 219.0433349609375 44.849525451660156 202.22073364257812 58.115020751953125" stroke-width="3.0" fill="none" stroke="rgb(0, 0, 0)" stroke-opacity="1.0" stroke-linecap="round" stroke-linejoin="round"/>
  </g>
</svg>
