<?xml version="1.0" ?>
<svg xmlns="http://www.w3.org/2000/svg" version="1.1" width="224" height="224">
  <defs/>
  <g>
    <path d="M 153.99813842773438 98.43394470214844 C 120.14044189453125 83.9129638671875 174.35752868652344 117.17479705810547 128.62318420410156 77.50421142578125" stroke-width="3.0" fill="none" stroke="rgb(0, 0, 0)" stroke-opacity="1.0" stroke-linecap="round" stroke-linejoin="round"/>
    <path d="M 106.64302062988281 93.9780044555664 C 107.62273406982422 104.86016082763672 100.79785919189453 103.7381820678711 107.11209869384766 114.3555908203125" stroke-width="3.0" fill="none" stroke="rgb(0, 0, 0)" stroke-opacity="1.0" stroke-linecap="round" stroke-linejoin="round"/>
    <path d="M 140.6933135986328 99.92906188964844 C 147.77976989746094 64.35568237304688 118.45924377441406 122.90995788574219 177.67355346679688 88.90687561035156" stroke-width="3.0" fill="none" stroke="rgb(0, 0, 0)" stroke-opacity="1.0" stroke-linecap="round" stroke-linejoin="round"/>
    <path d="M 62.8023681640625 44.156837463378906 C 61.84312057495117 44.27158737182617 53.83308410644531 48.946842193603516 65.05176544189453 42.675933837890625" stroke-width="3.0" fill="none" stroke="rgb(0, 0, 0)" stroke-opacity="1.0" stroke-linecap="round" stroke-linejoin="round"/>
    <path d="M 123.10047149658203 70.01507568359375 C 114.29225158691406 50.086002349853516 105.65890502929688 60.631370544433594 93.28473663330078 43.356590270996094" stroke-width="3.0" fill="none" stroke="rgb(0, 0, 0)" stroke-opacity="1.0" stroke-linecap="round" stroke-linejoin="round"/>
    <path d="M 73.43370819091797 114.34483337402344 C 44.61056137084961 88.0897216796875 67.15535736083984 99.12200927734375 46.60948944091797 72.59602355957031" stroke-width="3.0" fill="none" stroke="rgb(0, 0, 0)" stroke-opacity="1.0" stroke-linecap="round" stroke-linejoin="round"/>
    <path d="M 183.85177612304688 38.77667236328125 C 178.2188262939453 49.68824005126953 197.95021057128906 61.2943000793457 177.8565216064453 78.55441284179688" stroke-width="3.0" fill="none" stroke="rgb(0, 0, 0)" stroke-opacity="1.0" stroke-linecap="round" stroke-linejoin="round"/>
    <path d="M 102.43364715576172 193.99374389648438 C 123.06632232666016 82.17171478271484 123.05510711669922 132.1324005126953 130.99607849121094 102.75437927246094" stroke-width="3.0" fill="none" stroke="rgb(0, 0, 0)" stroke-opacity="1.0" stroke-linecap="round" stroke-linejoin="round"/>
    <path d="M 34.970638275146484 87.45177459716797 C 32.52166748046875 196.62326049804688 17.371414184570312 119.3515853881836 41.624061584472656 198.38986206054688" stroke-width="3.0" fill="none" stroke="rgb(0, 0, 0)" stroke-opacity="1.0" stroke-linecap="round" stroke-linejoin="round"/>
    <path d="M 63.04502868652344 42.977970123291016 C 87.48558044433594 13.424894332885742 138.82534790039062 101.92322540283203 167.973876953125 85.33500671386719" stroke-width="3.0" fill="none" stroke="rgb(0, 0, 0)" stroke-opacity="1.0" stroke-linecap="round" stroke-linejoin="round"/>
    <path d="M 41.18544006347656 89.27705383300781 C 83.25858306884766 128.6309356689453 75.10618591308594 112.51827239990234 106.5314712524414 118.7439193725586" stroke-width="3.0" fill="none" stroke="rgb(0, 0, 0)" stroke-opacity="1.0" stroke-linecap="round" stroke-linejoin="round"/>
    <path d="M 34.69690704345703 95.99290466308594 C 30.767969131469727 66.44902038574219 35.06501770019531 74.50887298583984 45.566959381103516 53.94734573364258" stroke-width="3.0" fill="none" stroke="rgb(0, 0, 0)" stroke-opacity="1.0" stroke-linecap="round" stroke-linejoin="round"/>
    <path d="M 168.3386993408203 84.16159057617188 C 195.8424835205078 44.70999526977539 194.6250762939453 59.21240234375 180.11749267578125 85.33647155761719" stroke-width="3.0" fill="none" stroke="rgb(0, 0, 0)" stroke-opacity="1.0" stroke-linecap="round" stroke-linejoin="round"/>
    <path d="M 106.00112915039062 118.81475067138672 C 108.24336242675781 182.70489501953125 79.43429565429688 197.9126434326172 110.05280303955078 191.3013153076172" stroke-width="3.0" fill="none" stroke="rgb(0, 0, 0)" stroke-opacity="1.0" stroke-linecap="round" stroke-linejoin="round"/>
    <path d="M 172.8782196044922 80.94110107421875 C 178.35679626464844 -3.2270045280456543 197.56893920898438 74.76245880126953 200.65179443359375 53.630699157714844" stroke-width="3.0" fill="none" stroke="rgb(0, 0, 0)" stroke-opacity="1.0" stroke-linecap="round" stroke-linejoin="round"/>
    <path d="M 193.424560546875 60.4886474609375 C 152.5836181640625 39.236392974853516 227.44117736816406 49.2451171875 195.8073272705078 51.056819915771484" stroke-width="3.0" fill="none" stroke="rgb(0, 0, 0)" stroke-opacity="1.0" stroke-linecap="round" stroke-linejoin="round"/>
  </g>
</svg>
