<?xml version="1.0" ?>
<svg xmlns="http://www.w3.org/2000/svg" version="1.1" width="224" height="224">
  <defs/>
  <g>
    <path d="M 132.50827026367188 105.357421875 C 122.64271545410156 87.79876708984375 151.1877899169922 134.4893341064453 118.5050277709961 68.6341552734375" stroke-width="3.0" fill="none" stroke="rgb(0, 0, 0)" stroke-opacity="1.0" stroke-linecap="round" stroke-linejoin="round"/>
    <path d="M 112.76200103759766 89.16943359375 C 116.63715362548828 98.66692352294922 104.50119018554688 103.14979553222656 110.1358413696289 113.07539367675781" stroke-width="3.0" fill="none" stroke="rgb(0, 0, 0)" stroke-opacity="1.0" stroke-linecap="round" stroke-linejoin="round"/>
    <path d="M 128.75619506835938 106.46981048583984 C 128.53468322753906 86.4169921875 150.36251831054688 134.46371459960938 187.78636169433594 69.37010192871094" stroke-width="3.0" fill="none" stroke="rgb(0, 0, 0)" stroke-opacity="1.0" stroke-linecap="round" stroke-linejoin="round"/>
    <path d="M 61.59903335571289 42.42442321777344 C 65.32075500488281 39.14495086669922 53.25780487060547 47.63274383544922 39.971744537353516 60.60002136230469" stroke-width="3.0" fill="none" stroke="rgb(0, 0, 0)" stroke-opacity="1.0" stroke-linecap="round" stroke-linejoin="round"/>
    <path d="M 134.72702026367188 82.86734008789062 C 109.04627990722656 38.44192123413086 115.27613830566406 67.07149505615234 93.85282135009766 42.76045227050781" stroke-width="3.0" fill="none" stroke="rgb(0, 0, 0)" stroke-opacity="1.0" stroke-linecap="round" stroke-linejoin="round"/>
    <path d="M 68.01956176757812 110.51615142822266 C 38.882537841796875 79.74226379394531 60.98427963256836 97.25837707519531 41.80678939819336 72.79793548583984" stroke-width="3.0" fill="none" stroke="rgb(0, 0, 0)" stroke-opacity="1.0" stroke-linecap="round" stroke-linejoin="round"/>
    <path d="M 186.6460418701172 62.938621520996094 C 171.99131774902344 39.74125671386719 195.07972717285156 52.76179122924805 187.79306030273438 80.1771469116211" stroke-width="3.0" fill="none" stroke="rgb(0, 0, 0)" stroke-opacity="1.0" stroke-linecap="round" stroke-linejoin="round"/>
    <path d="M 104.51747131347656 194.91250610351562 C 113.41576385498047 91.09508514404297 120.14472961425781 131.01466369628906 120.72393035888672 103.06463623046875" stroke-width="3.0" fill="none" stroke="rgb(0, 0, 0)" stroke-opacity="1.0" stroke-linecap="round" stroke-linejoin="round"/>
    <path d="M 47.58180618286133 102.87893676757812 C 27.79835319519043 177.64463806152344 13.577201843261719 121.8975830078125 42.649837493896484 198.53121948242188" stroke-width="3.0" fill="none" stroke="rgb(0, 0, 0)" stroke-opacity="1.0" stroke-linecap="round" stroke-linejoin="round"/>
    <path d="M 62.89498519897461 41.56333923339844 C 99.01564025878906 17.50101089477539 156.59884643554688 133.40518188476562 175.79966735839844 56.87464904785156" stroke-width="3.0" fill="none" stroke="rgb(0, 0, 0)" stroke-opacity="1.0" stroke-linecap="round" stroke-linejoin="round"/>
    <path d="M 45.069095611572266 100.02472686767578 C 84.79671478271484 121.3768310546875 82.7408447265625 109.6661376953125 106.19976806640625 116.46576690673828" stroke-width="3.0" fill="none" stroke="rgb(0, 0, 0)" stroke-opacity="1.0" stroke-linecap="round" stroke-linejoin="round"/>
    <path d="M 24.965778350830078 140.76832580566406 C 19.163009643554688 93.75504302978516 -4.478337287902832 88.03775024414062 52.012577056884766 52.0431022644043" stroke-width="3.0" fill="none" stroke="rgb(0, 0, 0)" stroke-opacity="1.0" stroke-linecap="round" stroke-linejoin="round"/>
    <path d="M 174.1774139404297 87.86937713623047 C 191.08811950683594 18.3281192779541 209.99371337890625 30.00757598876953 165.27761840820312 94.87564086914062" stroke-width="3.0" fill="none" stroke="rgb(0, 0, 0)" stroke-opacity="1.0" stroke-linecap="round" stroke-linejoin="round"/>
    <path d="M 105.71869659423828 114.03611755371094 C 107.42445373535156 183.23033142089844 82.51935577392578 203.8593292236328 112.007080078125 188.97544860839844" stroke-width="3.0" fill="none" stroke="rgb(0, 0, 0)" stroke-opacity="1.0" stroke-linecap="round" stroke-linejoin="round"/>
    <path d="M 169.56259155273438 68.84375 C 181.16940307617188 4.077110290527344 215.35433959960938 76.95272064208984 202.60365295410156 49.44977569580078" stroke-width="3.0" fill="none" stroke="rgb(0, 0, 0)" stroke-opacity="1.0" stroke-linecap="round" stroke-linejoin="round"/>
    <path d="M 194.18673706054688 65.93197631835938 C 149.6126708984375 45.40803527832031 254.39088439941406 46.35598373413086 195.82948303222656 60.35063171386719" stroke-width="3.0" fill="none" stroke="rgb(0, 0, 0)" stroke-opacity="1.0" stroke-linecap="round" stroke-linejoin="round"/>
  </g>
</svg>
