<?xml version="1.0" ?>
<svg xmlns="http://www.w3.org/2000/svg" version="1.1" width="224" height="224">
  <defs/>
  <g>
    <path d="M 138.2837677001953 90.14704132080078 C 127.2027587890625 68.39916229248047 126.45965576171875 66.74979400634766 132.54946899414062 81.61547088623047" stroke-width="3.0" fill="none" stroke="rgb(0, 0, 0)" stroke-opacity="1.0" stroke-linecap="round" stroke-linejoin="round"/>
    <path d="M 94.2720718383789 91.52155303955078 C 95.2985610961914 94.60408782958984 100.266845703125 107.69678497314453 105.15616607666016 110.10968017578125" stroke-width="3.0" fill="none" stroke="rgb(0, 0, 0)" stroke-opacity="1.0" stroke-linecap="round" stroke-linejoin="round"/>
    <path d="M 142.99720764160156 106.15866088867188 C 149.07855224609375 98.7774658203125 130.22190856933594 81.42784118652344 150.46209716796875 102.00093078613281" stroke-width="3.0" fill="none" stroke="rgb(0, 0, 0)" stroke-opacity="1.0" stroke-linecap="round" stroke-linejoin="round"/>
    <path d="M 52.673675537109375 50.09504318237305 C 58.685707092285156 71.20099639892578 42.90109634399414 102.99089050292969 49.94459915161133 87.34539794921875" stroke-width="3.0" fill="none" stroke="rgb(0, 0, 0)" stroke-opacity="1.0" stroke-linecap="round" stroke-linejoin="round"/>
    <path d="M 114.58992004394531 56.24784469604492 C 117.55628967285156 62.57064437866211 117.86280059814453 60.01551055908203 114.02479553222656 56.782012939453125" stroke-width="3.0" fill="none" stroke="rgb(0, 0, 0)" stroke-opacity="1.0" stroke-linecap="round" stroke-linejoin="round"/>
    <path d="M 62.796852111816406 98.68470764160156 C 56.500465393066406 95.2213363647461 50.741756439208984 83.10786437988281 51.780818939208984 77.77127075195312" stroke-width="3.0" fill="none" stroke="rgb(0, 0, 0)" stroke-opacity="1.0" stroke-linecap="round" stroke-linejoin="round"/>
    <path d="M 178.16619873046875 43.16196060180664 C 175.70660400390625 79.6795654296875 176.45455932617188 74.85347747802734 163.45298767089844 81.66389465332031" stroke-width="3.0" fill="none" stroke="rgb(0, 0, 0)" stroke-opacity="1.0" stroke-linecap="round" stroke-linejoin="round"/>
    <path d="M 115.89060974121094 141.61761474609375 C 125.79535675048828 107.03670501708984 109.48099517822266 139.74073791503906 123.79472351074219 116.73820495605469" stroke-width="3.0" fill="none" stroke="rgb(0, 0, 0)" stroke-opacity="1.0" stroke-linecap="round" stroke-linejoin="round"/>
    <path d="M 32.28833770751953 115.39559936523438 C 17.30051612854004 172.17625427246094 23.25137710571289 146.49734497070312 42.91948318481445 198.00967407226562" stroke-width="3.0" fill="none" stroke="rgb(0, 0, 0)" stroke-opacity="1.0" stroke-linecap="round" stroke-linejoin="round"/>
    <path d="M 67.0516586303711 39.423885345458984 C 117.67523956298828 36.3634033203125 122.42289733886719 66.53767395019531 143.65660095214844 80.7353286743164" stroke-width="3.0" fill="none" stroke="rgb(0, 0, 0)" stroke-opacity="1.0" stroke-linecap="round" stroke-linejoin="round"/>
    <path d="M 53.8332633972168 94.07577514648438 C 83.15984344482422 128.03724670410156 75.15955352783203 117.35260772705078 105.4852066040039 120.34780883789062" stroke-width="3.0" fill="none" stroke="rgb(0, 0, 0)" stroke-opacity="1.0" stroke-linecap="round" stroke-linejoin="round"/>
    <path d="M 27.158039093017578 91.40357971191406 C 25.03060531616211 81.98153686523438 17.594274520874023 81.44730377197266 21.848072052001953 75.62086486816406" stroke-width="3.0" fill="none" stroke="rgb(0, 0, 0)" stroke-opacity="1.0" stroke-linecap="round" stroke-linejoin="round"/>
    <path d="M 141.9632568359375 82.08878326416016 C 200.303955078125 80.33831787109375 157.05029296875 77.4865493774414 166.96473693847656 100.48152923583984" stroke-width="3.0" fill="none" stroke="rgb(0, 0, 0)" stroke-opacity="1.0" stroke-linecap="round" stroke-linejoin="round"/>
    <path d="M 109.16072845458984 110.88549041748047 C 123.97947692871094 152.9868927001953 89.31071472167969 199.72528076171875 112.69126892089844 190.7468719482422" stroke-width="3.0" fill="none" stroke="rgb(0, 0, 0)" stroke-opacity="1.0" stroke-linecap="round" stroke-linejoin="round"/>
    <path d="M 173.4252166748047 59.175804138183594 C 191.56968688964844 6.847134590148926 182.9711456298828 59.8525505065918 208.01556396484375 45.56004333496094" stroke-width="3.0" fill="none" stroke="rgb(0, 0, 0)" stroke-opacity="1.0" stroke-linecap="round" stroke-linejoin="round"/>
    <path d="M 196.4491424560547 64.3477783203125 C 162.46986389160156 41.62624740600586 213.51077270507812 34.35505294799805 205.20050048828125 54.19927978515625" stroke-width="3.0" fill="none" stroke="rgb(0, 0, 0)" stroke-opacity="1.0" stroke-linecap="round" stroke-linejoin="round"/>
  </g>
</svg>
