<?xml version="1.0" ?>
<svg xmlns="http://www.w3.org/2000/svg" version="1.1" width="224" height="224">
  <defs/>
  <g>
    <path d="M 142.38841247558594 107.3611831665039 C 116.96464538574219 81.35333251953125 159.6785888671875 140.5876922607422 122.11734008789062 70.74861145019531" stroke-width="3.0" fill="none" stroke="rgb(0, 0, 0)" stroke-opacity="1.0" stroke-linecap="round" stroke-linejoin="round"/>
    <path d="M 107.36576843261719 96.93485260009766 C 108.79771423339844 105.65594482421875 101.09220123291016 102.9932861328125 107.48890686035156 115.21210479736328" stroke-width="3.0" fill="none" stroke="rgb(0, 0, 0)" stroke-opacity="1.0" stroke-linecap="round" stroke-linejoin="round"/>
    <path d="M 134.14321899414062 107.3050765991211 C 134.85951232910156 68.33612823486328 134.8054962158203 138.96170043945312 179.59194946289062 87.46116638183594" stroke-width="3.0" fill="none" stroke="rgb(0, 0, 0)" stroke-opacity="1.0" stroke-linecap="round" stroke-linejoin="round"/>
    <path d="M 64.19056701660156 40.961158752441406 C 63.88848114013672 41.13859939575195 56.39432907104492 44.92285919189453 59.88992691040039 43.209495544433594" stroke-width="3.0" fill="none" stroke="rgb(0, 0, 0)" stroke-opacity="1.0" stroke-linecap="round" stroke-linejoin="round"/>
    <path d="M 135.52972412109375 80.88646697998047 C 108.70684814453125 37.3884391784668 112.04339599609375 63.99700927734375 96.40524291992188 44.144081115722656" stroke-width="3.0" fill="none" stroke="rgb(0, 0, 0)" stroke-opacity="1.0" stroke-linecap="round" stroke-linejoin="round"/>
    <path d="M 67.93971252441406 111.8967514038086 C 36.6493034362793 80.07965087890625 59.590003967285156 98.75553131103516 36.82600402832031 70.7018051147461" stroke-width="3.0" fill="none" stroke="rgb(0, 0, 0)" stroke-opacity="1.0" stroke-linecap="round" stroke-linejoin="round"/>
    <path d="M 180.39474487304688 48.01021957397461 C 189.7515869140625 24.37626838684082 192.4481658935547 43.354679107666016 185.55352783203125 80.85600280761719" stroke-width="3.0" fill="none" stroke="rgb(0, 0, 0)" stroke-opacity="1.0" stroke-linecap="round" stroke-linejoin="round"/>
    <path d="M 103.18622589111328 195.80319213867188 C 123.33277893066406 81.63233947753906 123.07797241210938 127.6103286743164 127.45502471923828 103.76203155517578" stroke-width="3.0" fill="none" stroke="rgb(0, 0, 0)" stroke-opacity="1.0" stroke-linecap="round" stroke-linejoin="round"/>
    <path d="M 44.473899841308594 102.28628540039062 C 23.675289154052734 179.30992126464844 17.070737838745117 131.667724609375 40.4429817199707 198.8763885498047" stroke-width="3.0" fill="none" stroke="rgb(0, 0, 0)" stroke-opacity="1.0" stroke-linecap="round" stroke-linejoin="round"/>
    <path d="M 63.201786041259766 41.701969146728516 C 96.95257568359375 14.804412841796875 143.98196411132812 111.03495025634766 170.1702880859375 76.45999908447266" stroke-width="3.0" fill="none" stroke="rgb(0, 0, 0)" stroke-opacity="1.0" stroke-linecap="round" stroke-linejoin="round"/>
    <path d="M 47.69249725341797 104.4758071899414 C 79.7167739868164 120.56551361083984 81.73816680908203 113.15032196044922 104.8715591430664 118.47233581542969" stroke-width="3.0" fill="none" stroke="rgb(0, 0, 0)" stroke-opacity="1.0" stroke-linecap="round" stroke-linejoin="round"/>
    <path d="M 15.773510932922363 129.8563995361328 C 8.704803466796875 69.68498992919922 14.495705604553223 78.95059967041016 59.02560043334961 43.86490249633789" stroke-width="3.0" fill="none" stroke="rgb(0, 0, 0)" stroke-opacity="1.0" stroke-linecap="round" stroke-linejoin="round"/>
    <path d="M 172.75729370117188 83.98030853271484 C 200.48268127441406 26.16497039794922 210.5648956298828 39.046600341796875 172.74623107910156 92.73182678222656" stroke-width="3.0" fill="none" stroke="rgb(0, 0, 0)" stroke-opacity="1.0" stroke-linecap="round" stroke-linejoin="round"/>
    <path d="M 106.0548095703125 119.53290557861328 C 109.79524993896484 185.8009033203125 76.1963882446289 205.93222045898438 110.78741455078125 189.4158935546875" stroke-width="3.0" fill="none" stroke="rgb(0, 0, 0)" stroke-opacity="1.0" stroke-linecap="round" stroke-linejoin="round"/>
    <path d="M 168.74449157714844 75.63382720947266 C 174.0961151123047 4.684304714202881 211.92735290527344 74.15702819824219 203.48512268066406 49.74363708496094" stroke-width="3.0" fill="none" stroke="rgb(0, 0, 0)" stroke-opacity="1.0" stroke-linecap="round" stroke-linejoin="round"/>
    <path d="M 194.19589233398438 61.835750579833984 C 154.81373596191406 39.593631744384766 257.10662841796875 50.04168701171875 197.56927490234375 60.328548431396484" stroke-width="3.0" fill="none" stroke="rgb(0, 0, 0)" stroke-opacity="1.0" stroke-linecap="round" stroke-linejoin="round"/>
  </g>
</svg>
