<?xml version="1.0" ?>
<svg xmlns="http://www.w3.org/2000/svg" version="1.1" width="224" height="224">
  <defs/>
  <g>
    <path d="M 137.4156494140625 105.54641723632812 C 118.53723907470703 93.77127838134766 153.40504455566406 136.99588012695312 116.26707458496094 66.1056900024414" stroke-width="3.0" fill="none" stroke="rgb(0, 0, 0)" stroke-opacity="1.0" stroke-linecap="round" stroke-linejoin="round"/>
    <path d="M 112.19234466552734 93.95738983154297 C 112.64064025878906 96.87239074707031 102.40562438964844 103.36063385009766 110.06558990478516 112.30913543701172" stroke-width="3.0" fill="none" stroke="rgb(0, 0, 0)" stroke-opacity="1.0" stroke-linecap="round" stroke-linejoin="round"/>
    <path d="M 131.79461669921875 108.75057220458984 C 128.5924530029297 82.7420425415039 147.3776092529297 134.40953063964844 187.68533325195312 74.78021240234375" stroke-width="3.0" fill="none" stroke="rgb(0, 0, 0)" stroke-opacity="1.0" stroke-linecap="round" stroke-linejoin="round"/>
    <path d="M 68.64266204833984 37.68595504760742 C 64.61410522460938 39.43272399902344 52.43485641479492 46.161705017089844 47.649600982666016 52.894657135009766" stroke-width="3.0" fill="none" stroke="rgb(0, 0, 0)" stroke-opacity="1.0" stroke-linecap="round" stroke-linejoin="round"/>
    <path d="M 133.16343688964844 83.65685272216797 C 105.34717559814453 41.07126235961914 110.33021545410156 64.90039825439453 97.88705444335938 44.61687088012695" stroke-width="3.0" fill="none" stroke="rgb(0, 0, 0)" stroke-opacity="1.0" stroke-linecap="round" stroke-linejoin="round"/>
    <path d="M 69.09027099609375 113.19847869873047 C 36.953731536865234 84.73702239990234 61.86628723144531 105.85868072509766 43.01020812988281 77.70602416992188" stroke-width="3.0" fill="none" stroke="rgb(0, 0, 0)" stroke-opacity="1.0" stroke-linecap="round" stroke-linejoin="round"/>
    <path d="M 182.9736785888672 63.94239807128906 C 175.2987060546875 39.75763702392578 194.74679565429688 50.30033874511719 191.1773223876953 77.6051025390625" stroke-width="3.0" fill="none" stroke="rgb(0, 0, 0)" stroke-opacity="1.0" stroke-linecap="round" stroke-linejoin="round"/>
    <path d="M 103.6125259399414 188.7340850830078 C 121.77787780761719 84.50770568847656 123.5207290649414 131.51507568359375 126.6977310180664 105.69729614257812" stroke-width="3.0" fill="none" stroke="rgb(0, 0, 0)" stroke-opacity="1.0" stroke-linecap="round" stroke-linejoin="round"/>
    <path d="M 47.35392761230469 102.28196716308594 C 24.034202575683594 172.002685546875 13.383910179138184 123.84172058105469 41.31094741821289 200.05743408203125" stroke-width="3.0" fill="none" stroke="rgb(0, 0, 0)" stroke-opacity="1.0" stroke-linecap="round" stroke-linejoin="round"/>
    <path d="M 67.70105743408203 38.849239349365234 C 100.33531188964844 15.690031051635742 160.41783142089844 135.65525817871094 175.1922607421875 60.6811408996582" stroke-width="3.0" fill="none" stroke="rgb(0, 0, 0)" stroke-opacity="1.0" stroke-linecap="round" stroke-linejoin="round"/>
    <path d="M 48.627708435058594 103.49663543701172 C 84.57263946533203 124.32662200927734 77.37447357177734 112.51362609863281 106.06806945800781 118.57291412353516" stroke-width="3.0" fill="none" stroke="rgb(0, 0, 0)" stroke-opacity="1.0" stroke-linecap="round" stroke-linejoin="round"/>
    <path d="M 22.041561126708984 136.8460693359375 C 13.878303527832031 75.19194030761719 4.982561111450195 88.25623321533203 54.49515151977539 47.673545837402344" stroke-width="3.0" fill="none" stroke="rgb(0, 0, 0)" stroke-opacity="1.0" stroke-linecap="round" stroke-linejoin="round"/>
    <path d="M 176.27992248535156 85.34807586669922 C 195.0510711669922 20.042991638183594 205.94784545898438 28.753856658935547 169.9400177001953 94.43753814697266" stroke-width="3.0" fill="none" stroke="rgb(0, 0, 0)" stroke-opacity="1.0" stroke-linecap="round" stroke-linejoin="round"/>
    <path d="M 105.48448181152344 114.51317596435547 C 107.2688980102539 186.44863891601562 82.0287857055664 194.57391357421875 111.42211151123047 192.56565856933594" stroke-width="3.0" fill="none" stroke="rgb(0, 0, 0)" stroke-opacity="1.0" stroke-linecap="round" stroke-linejoin="round"/>
    <path d="M 174.40882873535156 69.2857437133789 C 181.9857940673828 5.1247100830078125 219.03408813476562 73.87982940673828 209.73072814941406 50.48191833496094" stroke-width="3.0" fill="none" stroke="rgb(0, 0, 0)" stroke-opacity="1.0" stroke-linecap="round" stroke-linejoin="round"/>
    <path d="M 193.82431030273438 63.52174758911133 C 153.9759063720703 38.87929916381836 263.923828125 44.63386535644531 195.80517578125 59.61956787109375" stroke-width="3.0" fill="none" stroke="rgb(0, 0, 0)" stroke-opacity="1.0" stroke-linecap="round" stroke-linejoin="round"/>
  </g>
</svg>
