<?xml version="1.0" ?>
<svg xmlns="http://www.w3.org/2000/svg" version="1.1" width="224" height="224">
  <defs/>
  <g>
    <path d="M 128.9534912109375 109.12552642822266 C 127.4876480102539 91.31305694580078 149.55409240722656 136.19825744628906 118.99617004394531 69.82002258300781" stroke-width="3.0" fill="none" stroke="rgb(0, 0, 0)" stroke-opacity="1.0" stroke-linecap="round" stroke-linejoin="round"/>
    <path d="M 113.68515014648438 89.06183624267578 C 116.53170013427734 100.94486236572266 103.35952758789062 102.45845794677734 108.1708755493164 115.6990737915039" stroke-width="3.0" fill="none" stroke="rgb(0, 0, 0)" stroke-opacity="1.0" stroke-linecap="round" stroke-linejoin="round"/>
    <path d="M 128.027587890625 111.95313262939453 C 132.89927673339844 90.24586486816406 155.60215759277344 131.9025421142578 191.57493591308594 62.770362854003906" stroke-width="3.0" fill="none" stroke="rgb(0, 0, 0)" stroke-opacity="1.0" stroke-linecap="round" stroke-linejoin="round"/>
    <path d="M 65.65531921386719 40.64498519897461 C 63.99040985107422 39.46363067626953 53.418479919433594 47.72401428222656 41.714019775390625 60.30293273925781" stroke-width="3.0" fill="none" stroke="rgb(0, 0, 0)" stroke-opacity="1.0" stroke-linecap="round" stroke-linejoin="round"/>
    <path d="M 140.2305908203125 78.0730209350586 C 101.80146026611328 41.491756439208984 113.05487060546875 64.81051635742188 95.65631866455078 45.22563171386719" stroke-width="3.0" fill="none" stroke="rgb(0, 0, 0)" stroke-opacity="1.0" stroke-linecap="round" stroke-linejoin="round"/>
    <path d="M 67.4837875366211 106.13690185546875 C 37.540401458740234 75.00135040283203 58.726844787597656 90.1781234741211 41.42653274536133 70.72984313964844" stroke-width="3.0" fill="none" stroke="rgb(0, 0, 0)" stroke-opacity="1.0" stroke-linecap="round" stroke-linejoin="round"/>
    <path d="M 186.1699981689453 61.336456298828125 C 172.5743865966797 31.907730102539062 194.40968322753906 50.301185607910156 185.19439697265625 82.11912536621094" stroke-width="3.0" fill="none" stroke="rgb(0, 0, 0)" stroke-opacity="1.0" stroke-linecap="round" stroke-linejoin="round"/>
    <path d="M 102.46907043457031 194.15245056152344 C 113.20474243164062 102.87696075439453 123.45970916748047 136.08433532714844 125.77507781982422 95.05302429199219" stroke-width="3.0" fill="none" stroke="rgb(0, 0, 0)" stroke-opacity="1.0" stroke-linecap="round" stroke-linejoin="round"/>
    <path d="M 47.678462982177734 100.03715515136719 C 22.64520835876465 181.05421447753906 25.62782859802246 125.82403564453125 39.20144271850586 197.57431030273438" stroke-width="3.0" fill="none" stroke="rgb(0, 0, 0)" stroke-opacity="1.0" stroke-linecap="round" stroke-linejoin="round"/>
    <path d="M 63.9610595703125 41.03443145751953 C 100.06524658203125 13.56925106048584 155.04745483398438 137.13636779785156 177.27134704589844 54.684810638427734" stroke-width="3.0" fill="none" stroke="rgb(0, 0, 0)" stroke-opacity="1.0" stroke-linecap="round" stroke-linejoin="round"/>
    <path d="M 51.30841827392578 100.48365020751953 C 84.27460479736328 124.10143280029297 81.49557495117188 115.9254379272461 103.89398956298828 119.3145523071289" stroke-width="3.0" fill="none" stroke="rgb(0, 0, 0)" stroke-opacity="1.0" stroke-linecap="round" stroke-linejoin="round"/>
    <path d="M 31.5410213470459 143.0740966796875 C 27.36834144592285 99.02291107177734 -9.708989143371582 86.8760986328125 53.58466339111328 52.440155029296875" stroke-width="3.0" fill="none" stroke="rgb(0, 0, 0)" stroke-opacity="1.0" stroke-linecap="round" stroke-linejoin="round"/>
    <path d="M 174.447265625 86.4595718383789 C 190.4501190185547 18.236759185791016 207.3631134033203 27.519126892089844 167.09153747558594 97.9237289428711" stroke-width="3.0" fill="none" stroke="rgb(0, 0, 0)" stroke-opacity="1.0" stroke-linecap="round" stroke-linejoin="round"/>
    <path d="M 104.89432525634766 118.62960815429688 C 108.58208465576172 189.40940856933594 78.36793518066406 201.95156860351562 110.40213775634766 189.23068237304688" stroke-width="3.0" fill="none" stroke="rgb(0, 0, 0)" stroke-opacity="1.0" stroke-linecap="round" stroke-linejoin="round"/>
    <path d="M 169.63914489746094 74.04729461669922 C 181.18704223632812 1.0432188510894775 215.83184814453125 75.14399719238281 207.1050567626953 47.458683013916016" stroke-width="3.0" fill="none" stroke="rgb(0, 0, 0)" stroke-opacity="1.0" stroke-linecap="round" stroke-linejoin="round"/>
    <path d="M 194.1761474609375 60.56718444824219 C 152.8232879638672 41.59592056274414 257.68231201171875 43.808536529541016 198.03030395507812 58.16053009033203" stroke-width="3.0" fill="none" stroke="rgb(0, 0, 0)" stroke-opacity="1.0" stroke-linecap="round" stroke-linejoin="round"/>
  </g>
</svg>
