<?xml version="1.0" ?>
<svg xmlns="http://www.w3.org/2000/svg" version="1.1" width="224" height="224">
  <defs/>
  <g>
    <path d="M 130.6542510986328 109.1726303100586 C 129.7171630859375 96.20288848876953 148.15689086914062 131.08763122558594 121.53182220458984 65.14509582519531" stroke-width="3.0" fill="none" stroke="rgb(0, 0, 0)" stroke-opacity="1.0" stroke-linecap="round" stroke-linejoin="round"/>
    <path d="M 107.99227905273438 91.4744873046875 C 112.48870086669922 104.97401428222656 103.58272552490234 102.14713287353516 111.23155975341797 113.05632019042969" stroke-width="3.0" fill="none" stroke="rgb(0, 0, 0)" stroke-opacity="1.0" stroke-linecap="round" stroke-linejoin="round"/>
    <path d="M 126.97303009033203 112.34613037109375 C 145.27239990234375 98.21133422851562 159.01585388183594 130.12350463867188 197.22154235839844 54.283226013183594" stroke-width="3.0" fill="none" stroke="rgb(0, 0, 0)" stroke-opacity="1.0" stroke-linecap="round" stroke-linejoin="round"/>
    <path d="M 65.75669860839844 40.085636138916016 C 64.82186126708984 39.38676834106445 54.1964225769043 47.81687927246094 42.36112976074219 59.63560104370117" stroke-width="3.0" fill="none" stroke="rgb(0, 0, 0)" stroke-opacity="1.0" stroke-linecap="round" stroke-linejoin="round"/>
    <path d="M 143.23867797851562 82.24691009521484 C 102.63340759277344 39.673099517822266 110.5831298828125 66.37490844726562 95.80754852294922 44.896968841552734" stroke-width="3.0" fill="none" stroke="rgb(0, 0, 0)" stroke-opacity="1.0" stroke-linecap="round" stroke-linejoin="round"/>
    <path d="M 67.6861572265625 108.18240356445312 C 39.273963928222656 78.81990814208984 61.461151123046875 98.12686157226562 43.14095687866211 73.62482452392578" stroke-width="3.0" fill="none" stroke="rgb(0, 0, 0)" stroke-opacity="1.0" stroke-linecap="round" stroke-linejoin="round"/>
    <path d="M 188.2063751220703 62.45829391479492 C 173.36978149414062 32.697425842285156 193.7869873046875 50.36363220214844 188.13462829589844 79.30307006835938" stroke-width="3.0" fill="none" stroke="rgb(0, 0, 0)" stroke-opacity="1.0" stroke-linecap="round" stroke-linejoin="round"/>
    <path d="M 106.3542251586914 195.11245727539062 C 111.04698944091797 113.31924438476562 117.48973083496094 146.27664184570312 124.04887390136719 100.50568389892578" stroke-width="3.0" fill="none" stroke="rgb(0, 0, 0)" stroke-opacity="1.0" stroke-linecap="round" stroke-linejoin="round"/>
    <path d="M 48.039283752441406 101.86853790283203 C 11.428581237792969 186.65805053710938 30.645381927490234 136.82492065429688 37.48507308959961 199.64308166503906" stroke-width="3.0" fill="none" stroke="rgb(0, 0, 0)" stroke-opacity="1.0" stroke-linecap="round" stroke-linejoin="round"/>
    <path d="M 68.25575256347656 38.67591857910156 C 101.19661712646484 12.293652534484863 154.05909729003906 140.1676483154297 178.8362274169922 54.80500030517578" stroke-width="3.0" fill="none" stroke="rgb(0, 0, 0)" stroke-opacity="1.0" stroke-linecap="round" stroke-linejoin="round"/>
    <path d="M 50.016014099121094 98.80066680908203 C 87.3084945678711 121.83209991455078 82.17354583740234 112.64241027832031 104.01403045654297 116.37738800048828" stroke-width="3.0" fill="none" stroke="rgb(0, 0, 0)" stroke-opacity="1.0" stroke-linecap="round" stroke-linejoin="round"/>
    <path d="M 23.54848289489746 148.81149291992188 C 37.15918731689453 110.63238525390625 -15.144352912902832 89.56826782226562 49.78972625732422 54.35758972167969" stroke-width="3.0" fill="none" stroke="rgb(0, 0, 0)" stroke-opacity="1.0" stroke-linecap="round" stroke-linejoin="round"/>
    <path d="M 175.49981689453125 91.260009765625 C 192.67897033691406 19.33560562133789 204.50144958496094 24.371469497680664 170.22996520996094 91.97209930419922" stroke-width="3.0" fill="none" stroke="rgb(0, 0, 0)" stroke-opacity="1.0" stroke-linecap="round" stroke-linejoin="round"/>
    <path d="M 106.5283203125 115.54773712158203 C 109.52752685546875 183.87681579589844 86.27334594726562 202.4490203857422 112.42615509033203 190.39915466308594" stroke-width="3.0" fill="none" stroke="rgb(0, 0, 0)" stroke-opacity="1.0" stroke-linecap="round" stroke-linejoin="round"/>
    <path d="M 169.7920684814453 74.40792846679688 C 181.06983947753906 3.9755806922912598 212.9145050048828 77.03345489501953 204.3829803466797 49.320350646972656" stroke-width="3.0" fill="none" stroke="rgb(0, 0, 0)" stroke-opacity="1.0" stroke-linecap="round" stroke-linejoin="round"/>
    <path d="M 195.2367401123047 62.576419830322266 C 160.70883178710938 43.173072814941406 259.3356628417969 48.50798034667969 196.54612731933594 61.45189666748047" stroke-width="3.0" fill="none" stroke="rgb(0, 0, 0)" stroke-opacity="1.0" stroke-linecap="round" stroke-linejoin="round"/>
  </g>
</svg>
