<?xml version="1.0" ?>
<svg xmlns="http://www.w3.org/2000/svg" version="1.1" width="224" height="224">
  <defs/>
  <g>
    <path d="M 142.38552856445312 106.01541137695312 C 117.7604751586914 86.71776580810547 160.4105224609375 141.75929260253906 121.20989990234375 69.21377563476562" stroke-width="3.0" fill="none" stroke="rgb(0, 0, 0)" stroke-opacity="1.0" stroke-linecap="round" stroke-linejoin="round"/>
    <path d="M 105.0586166381836 92.72552490234375 C 108.63114929199219 102.45932006835938 98.94623565673828 102.21076202392578 107.1802749633789 112.31781005859375" stroke-width="3.0" fill="none" stroke="rgb(0, 0, 0)" stroke-opacity="1.0" stroke-linecap="round" stroke-linejoin="round"/>
    <path d="M 132.98899841308594 107.57373046875 C 139.0450439453125 72.68096923828125 136.077880859375 132.80526733398438 182.73831176757812 83.0408935546875" stroke-width="3.0" fill="none" stroke="rgb(0, 0, 0)" stroke-opacity="1.0" stroke-linecap="round" stroke-linejoin="round"/>
    <path d="M 66.93560028076172 40.292137145996094 C 64.24859619140625 41.81160354614258 56.859474182128906 46.281524658203125 61.046180725097656 43.76719284057617" stroke-width="3.0" fill="none" stroke="rgb(0, 0, 0)" stroke-opacity="1.0" stroke-linecap="round" stroke-linejoin="round"/>
    <path d="M 130.654541015625 81.91107940673828 C 105.02458190917969 39.541175842285156 114.81437683105469 67.41449737548828 96.73279571533203 46.85546875" stroke-width="3.0" fill="none" stroke="rgb(0, 0, 0)" stroke-opacity="1.0" stroke-linecap="round" stroke-linejoin="round"/>
    <path d="M 63.08661651611328 110.55517578125 C 33.151451110839844 78.7031478881836 55.23106002807617 93.65882873535156 37.54597473144531 71.46314239501953" stroke-width="3.0" fill="none" stroke="rgb(0, 0, 0)" stroke-opacity="1.0" stroke-linecap="round" stroke-linejoin="round"/>
    <path d="M 181.70579528808594 49.71833419799805 C 181.0583038330078 32.108253479003906 194.79481506347656 49.18596267700195 186.31175231933594 81.6888427734375" stroke-width="3.0" fill="none" stroke="rgb(0, 0, 0)" stroke-opacity="1.0" stroke-linecap="round" stroke-linejoin="round"/>
    <path d="M 103.71622467041016 194.27874755859375 C 121.84532165527344 77.76720428466797 125.38753509521484 128.02044677734375 126.39186096191406 98.56336975097656" stroke-width="3.0" fill="none" stroke="rgb(0, 0, 0)" stroke-opacity="1.0" stroke-linecap="round" stroke-linejoin="round"/>
    <path d="M 44.12492752075195 101.53135681152344 C 20.80588722229004 176.216796875 14.993340492248535 124.63656616210938 40.866214752197266 198.76837158203125" stroke-width="3.0" fill="none" stroke="rgb(0, 0, 0)" stroke-opacity="1.0" stroke-linecap="round" stroke-linejoin="round"/>
    <path d="M 65.2350082397461 41.663970947265625 C 95.12488555908203 16.2388858795166 145.7801055908203 113.18900299072266 170.23587036132812 75.63856506347656" stroke-width="3.0" fill="none" stroke="rgb(0, 0, 0)" stroke-opacity="1.0" stroke-linecap="round" stroke-linejoin="round"/>
    <path d="M 43.71136474609375 101.19491577148438 C 81.56595611572266 121.10527801513672 81.70977020263672 110.66382598876953 106.8412857055664 117.87696075439453" stroke-width="3.0" fill="none" stroke="rgb(0, 0, 0)" stroke-opacity="1.0" stroke-linecap="round" stroke-linejoin="round"/>
    <path d="M 19.325851440429688 131.70811462402344 C 9.747607231140137 69.94245147705078 12.901576042175293 83.70911407470703 59.400001525878906 44.278038024902344" stroke-width="3.0" fill="none" stroke="rgb(0, 0, 0)" stroke-opacity="1.0" stroke-linecap="round" stroke-linejoin="round"/>
    <path d="M 178.15505981445312 86.64179992675781 C 201.0613555908203 29.739349365234375 201.52957153320312 31.717491149902344 168.21070861816406 90.18301391601562" stroke-width="3.0" fill="none" stroke="rgb(0, 0, 0)" stroke-opacity="1.0" stroke-linecap="round" stroke-linejoin="round"/>
    <path d="M 106.33057403564453 117.13638305664062 C 109.72339630126953 180.77272033691406 76.68001556396484 201.21356201171875 111.95094299316406 190.92587280273438" stroke-width="3.0" fill="none" stroke="rgb(0, 0, 0)" stroke-opacity="1.0" stroke-linecap="round" stroke-linejoin="round"/>
    <path d="M 170.67083740234375 76.12355041503906 C 174.71876525878906 8.344103813171387 217.4931640625 72.10501861572266 205.54501342773438 46.347877502441406" stroke-width="3.0" fill="none" stroke="rgb(0, 0, 0)" stroke-opacity="1.0" stroke-linecap="round" stroke-linejoin="round"/>
    <path d="M 196.93605041503906 61.03921890258789 C 156.47952270507812 42.77976989746094 256.37738037109375 47.73658752441406 199.80010986328125 57.787879943847656" stroke-width="3.0" fill="none" stroke="rgb(0, 0, 0)" stroke-opacity="1.0" stroke-linecap="round" stroke-linejoin="round"/>
  </g>
</svg>
