<?xml version="1.0" ?>
<svg xmlns="http://www.w3.org/2000/svg" version="1.1" width="224" height="224">
  <defs/>
  <g>
    <path d="M 126.5458755493164 86.28861236572266 C 117.91971588134766 77.05310821533203 126.36639404296875 75.21946716308594 129.82537841796875 75.14088439941406" stroke-width="3.0" fill="none" stroke="rgb(0, 0, 0)" stroke-opacity="1.0" stroke-linecap="round" stroke-linejoin="round"/>
    <path d="M 90.13855743408203 97.52931213378906 C 92.17156219482422 98.23019409179688 84.71783447265625 98.2168197631836 89.40513610839844 108.61692810058594" stroke-width="3.0" fill="none" stroke="rgb(0, 0, 0)" stroke-opacity="1.0" stroke-linecap="round" stroke-linejoin="round"/>
    <path d="M 157.50779724121094 107.06468200683594 C 161.12579345703125 88.44322204589844 152.07017517089844 78.26881408691406 158.7123565673828 97.18779754638672" stroke-width="3.0" fill="none" stroke="rgb(0, 0, 0)" stroke-opacity="1.0" stroke-linecap="round" stroke-linejoin="round"/>
    <path d="M 62.785282135009766 58.481727600097656 C 61.570804595947266 87.47900390625 45.493534088134766 89.76293182373047 50.31376647949219 96.04676055908203" stroke-width="3.0" fill="none" stroke="rgb(0, 0, 0)" stroke-opacity="1.0" stroke-linecap="round" stroke-linejoin="round"/>
    <path d="M 108.1858901977539 63.46922302246094 C 109.0045166015625 53.4544792175293 107.58512115478516 64.5407485961914 111.12201690673828 68.39940643310547" stroke-width="3.0" fill="none" stroke="rgb(0, 0, 0)" stroke-opacity="1.0" stroke-linecap="round" stroke-linejoin="round"/>
    <path d="M 53.927249908447266 87.66555786132812 C 49.546302795410156 108.74620056152344 54.35646438598633 98.18585968017578 51.1565055847168 92.6893081665039" stroke-width="3.0" fill="none" stroke="rgb(0, 0, 0)" stroke-opacity="1.0" stroke-linecap="round" stroke-linejoin="round"/>
    <path d="M 169.0041046142578 57.55806350708008 C 174.1116180419922 71.18690490722656 163.9431915283203 76.3172836303711 167.3552703857422 84.35533142089844" stroke-width="3.0" fill="none" stroke="rgb(0, 0, 0)" stroke-opacity="1.0" stroke-linecap="round" stroke-linejoin="round"/>
    <path d="M 104.08048248291016 126.3609848022461 C 107.7284164428711 116.60575103759766 103.0888671875 123.49662017822266 110.89813232421875 121.16285705566406" stroke-width="3.0" fill="none" stroke="rgb(0, 0, 0)" stroke-opacity="1.0" stroke-linecap="round" stroke-linejoin="round"/>
    <path d="M 39.56889724731445 149.7635955810547 C 35.15744400024414 174.08816528320312 32.04895782470703 162.5830535888672 32.300907135009766 187.0631561279297" stroke-width="3.0" fill="none" stroke="rgb(0, 0, 0)" stroke-opacity="1.0" stroke-linecap="round" stroke-linejoin="round"/>
    <path d="M 112.14762878417969 50.86112976074219 C 114.02045440673828 62.986480712890625 122.77398681640625 58.736568450927734 126.23431396484375 71.5302505493164" stroke-width="3.0" fill="none" stroke="rgb(0, 0, 0)" stroke-opacity="1.0" stroke-linecap="round" stroke-linejoin="round"/>
    <path d="M 63.482112884521484 101.9507827758789 C 82.80313873291016 107.49623107910156 76.09534454345703 113.95267486572266 97.6983642578125 117.04817962646484" stroke-width="3.0" fill="none" stroke="rgb(0, 0, 0)" stroke-opacity="1.0" stroke-linecap="round" stroke-linejoin="round"/>
    <path d="M 28.846240997314453 88.85208892822266 C 18.763662338256836 72.42847442626953 17.71979522705078 81.70561218261719 19.16807746887207 77.06779479980469" stroke-width="3.0" fill="none" stroke="rgb(0, 0, 0)" stroke-opacity="1.0" stroke-linecap="round" stroke-linejoin="round"/>
    <path d="M 158.607666015625 87.24402618408203 C 174.01942443847656 67.41129302978516 160.55313110351562 87.30896759033203 175.08062744140625 96.33953857421875" stroke-width="3.0" fill="none" stroke="rgb(0, 0, 0)" stroke-opacity="1.0" stroke-linecap="round" stroke-linejoin="round"/>
    <path d="M 103.23394012451172 124.23120880126953 C 111.24545288085938 143.14297485351562 105.25568389892578 149.7709503173828 111.33951568603516 178.46530151367188" stroke-width="3.0" fill="none" stroke="rgb(0, 0, 0)" stroke-opacity="1.0" stroke-linecap="round" stroke-linejoin="round"/>
    <path d="M 173.3366241455078 43.34151840209961 C 182.9722900390625 23.095252990722656 182.0954132080078 49.463523864746094 198.19493103027344 49.00773239135742" stroke-width="3.0" fill="none" stroke="rgb(0, 0, 0)" stroke-opacity="1.0" stroke-linecap="round" stroke-linejoin="round"/>
    <path d="M 201.30630493164062 57.18645095825195 C 191.89987182617188 45.731571197509766 198.66229248046875 48.95183563232422 215.79739379882812 51.74839401245117" stroke-width="3.0" fill="none" stroke="rgb(0, 0, 0)" stroke-opacity="1.0" stroke-linecap="round" stroke-linejoin="round"/>
  </g>
</svg>
