<?xml version="1.0" ?>
<svg xmlns="http://www.w3.org/2000/svg" version="1.1" width="224" height="224">
  <defs/>
  <g>
    <path d="M 153.6205596923828 100.61753845214844 C 130.64610290527344 94.47007751464844 159.1414031982422 110.11814880371094 130.61692810058594 92.77140045166016" stroke-width="3.0" fill="none" stroke="rgb(0, 0, 0)" stroke-opacity="1.0" stroke-linecap="round" stroke-linejoin="round"/>
    <path d="M 109.7283706665039 91.2860336303711 C 108.0954818725586 96.33242797851562 104.1748275756836 97.9004135131836 108.92337036132812 107.6786880493164" stroke-width="3.0" fill="none" stroke="rgb(0, 0, 0)" stroke-opacity="1.0" stroke-linecap="round" stroke-linejoin="round"/>
    <path d="M 136.97996520996094 104.0282974243164 C 153.60084533691406 86.9288101196289 117.12666320800781 113.00227355957031 167.83792114257812 97.318603515625" stroke-width="3.0" fill="none" stroke="rgb(0, 0, 0)" stroke-opacity="1.0" stroke-linecap="round" stroke-linejoin="round"/>
    <path d="M 57.648189544677734 45.329349517822266 C 52.2679557800293 47.53950881958008 35.51581573486328 59.25785827636719 49.388729095458984 50.360076904296875" stroke-width="3.0" fill="none" stroke="rgb(0, 0, 0)" stroke-opacity="1.0" stroke-linecap="round" stroke-linejoin="round"/>
    <path d="M 102.73880004882812 52.354957580566406 C 119.13729095458984 55.96998596191406 101.18045806884766 55.12199783325195 98.6407699584961 46.689029693603516" stroke-width="3.0" fill="none" stroke="rgb(0, 0, 0)" stroke-opacity="1.0" stroke-linecap="round" stroke-linejoin="round"/>
    <path d="M 73.57650756835938 114.08389282226562 C 43.846534729003906 87.29467010498047 61.00265884399414 92.1160659790039 44.34748458862305 78.86508178710938" stroke-width="3.0" fill="none" stroke="rgb(0, 0, 0)" stroke-opacity="1.0" stroke-linecap="round" stroke-linejoin="round"/>
    <path d="M 188.03121948242188 39.25240707397461 C 177.3016815185547 67.536865234375 210.1909942626953 69.08723449707031 176.13189697265625 88.18235778808594" stroke-width="3.0" fill="none" stroke="rgb(0, 0, 0)" stroke-opacity="1.0" stroke-linecap="round" stroke-linejoin="round"/>
    <path d="M 111.43622589111328 165.60943603515625 C 125.44723510742188 85.68356323242188 116.94654083251953 130.78575134277344 133.0119171142578 100.40389251708984" stroke-width="3.0" fill="none" stroke="rgb(0, 0, 0)" stroke-opacity="1.0" stroke-linecap="round" stroke-linejoin="round"/>
    <path d="M 45.5655517578125 97.38089752197266 C 20.571691513061523 183.72447204589844 19.267549514770508 119.5461654663086 39.870243072509766 198.79412841796875" stroke-width="3.0" fill="none" stroke="rgb(0, 0, 0)" stroke-opacity="1.0" stroke-linecap="round" stroke-linejoin="round"/>
    <path d="M 57.894004821777344 44.81356430053711 C 91.7051773071289 15.994295120239258 135.47015380859375 89.14330291748047 159.07737731933594 86.58708953857422" stroke-width="3.0" fill="none" stroke="rgb(0, 0, 0)" stroke-opacity="1.0" stroke-linecap="round" stroke-linejoin="round"/>
    <path d="M 44.017860412597656 103.79651641845703 C 96.912841796875 125.08548736572266 88.89039611816406 107.04875946044922 106.41417694091797 117.09668731689453" stroke-width="3.0" fill="none" stroke="rgb(0, 0, 0)" stroke-opacity="1.0" stroke-linecap="round" stroke-linejoin="round"/>
    <path d="M 35.95014190673828 85.50279235839844 C 34.41051483154297 71.15068054199219 27.92010498046875 69.15773010253906 29.035551071166992 69.39822387695312" stroke-width="3.0" fill="none" stroke="rgb(0, 0, 0)" stroke-opacity="1.0" stroke-linecap="round" stroke-linejoin="round"/>
    <path d="M 160.7100830078125 87.69911193847656 C 221.86740112304688 79.74427032470703 173.30235290527344 80.64798736572266 171.4323272705078 94.54214477539062" stroke-width="3.0" fill="none" stroke="rgb(0, 0, 0)" stroke-opacity="1.0" stroke-linecap="round" stroke-linejoin="round"/>
    <path d="M 105.57365417480469 112.22444152832031 C 109.21939849853516 175.81924438476562 81.89500427246094 193.17185974121094 108.70108032226562 193.31138610839844" stroke-width="3.0" fill="none" stroke="rgb(0, 0, 0)" stroke-opacity="1.0" stroke-linecap="round" stroke-linejoin="round"/>
    <path d="M 176.3374786376953 80.12680053710938 C 178.56271362304688 -15.021745681762695 184.3301544189453 66.7513198852539 206.98313903808594 44.498382568359375" stroke-width="3.0" fill="none" stroke="rgb(0, 0, 0)" stroke-opacity="1.0" stroke-linecap="round" stroke-linejoin="round"/>
    <path d="M 193.83323669433594 59.17384338378906 C 154.67198181152344 36.74897384643555 222.25843811035156 41.3401985168457 198.52430725097656 55.55487823486328" stroke-width="3.0" fill="none" stroke="rgb(0, 0, 0)" stroke-opacity="1.0" stroke-linecap="round" stroke-linejoin="round"/>
  </g>
</svg>
