<?xml version="1.0" ?>
<svg xmlns="http://www.w3.org/2000/svg" version="1.1" width="224" height="224">
  <defs/>
  <g>
    <path d="M 138.13572692871094 108.24115753173828 C 121.57357025146484 91.767333984375 153.81504821777344 141.6390838623047 118.78385925292969 68.28543853759766" stroke-width="3.0" fill="none" stroke="rgb(0, 0, 0)" stroke-opacity="1.0" stroke-linecap="round" stroke-linejoin="round"/>
    <path d="M 108.43009948730469 92.47520446777344 C 111.69699096679688 104.16852569580078 102.46084594726562 103.46922302246094 109.26573944091797 112.73249053955078" stroke-width="3.0" fill="none" stroke="rgb(0, 0, 0)" stroke-opacity="1.0" stroke-linecap="round" stroke-linejoin="round"/>
    <path d="M 132.53823852539062 110.58218383789062 C 131.87289428710938 80.79524993896484 143.27186584472656 135.02003479003906 181.93580627441406 79.94937896728516" stroke-width="3.0" fill="none" stroke="rgb(0, 0, 0)" stroke-opacity="1.0" stroke-linecap="round" stroke-linejoin="round"/>
    <path d="M 68.28900909423828 38.25582504272461 C 63.94955825805664 38.28165054321289 56.38249969482422 45.9237060546875 55.126976013183594 44.45646286010742" stroke-width="3.0" fill="none" stroke="rgb(0, 0, 0)" stroke-opacity="1.0" stroke-linecap="round" stroke-linejoin="round"/>
    <path d="M 134.24798583984375 82.34622192382812 C 107.56681060791016 36.89973831176758 112.98031616210938 67.94987487792969 94.86438751220703 42.99956130981445" stroke-width="3.0" fill="none" stroke="rgb(0, 0, 0)" stroke-opacity="1.0" stroke-linecap="round" stroke-linejoin="round"/>
    <path d="M 65.85122680664062 110.32500457763672 C 40.82695007324219 77.6989517211914 59.05870056152344 93.63450622558594 39.53632354736328 71.25928497314453" stroke-width="3.0" fill="none" stroke="rgb(0, 0, 0)" stroke-opacity="1.0" stroke-linecap="round" stroke-linejoin="round"/>
    <path d="M 185.0067901611328 63.93122482299805 C 173.2696075439453 28.81125831604004 190.0072479248047 51.75999069213867 186.32321166992188 82.58277893066406" stroke-width="3.0" fill="none" stroke="rgb(0, 0, 0)" stroke-opacity="1.0" stroke-linecap="round" stroke-linejoin="round"/>
    <path d="M 105.25428771972656 194.4526824951172 C 121.37936401367188 82.54403686523438 124.41923522949219 128.05264282226562 126.77908325195312 104.29685974121094" stroke-width="3.0" fill="none" stroke="rgb(0, 0, 0)" stroke-opacity="1.0" stroke-linecap="round" stroke-linejoin="round"/>
    <path d="M 47.92061233520508 102.26429748535156 C 23.963327407836914 172.5629425048828 13.260643005371094 122.41322326660156 40.60234832763672 198.04595947265625" stroke-width="3.0" fill="none" stroke="rgb(0, 0, 0)" stroke-opacity="1.0" stroke-linecap="round" stroke-linejoin="round"/>
    <path d="M 64.9439926147461 39.91233825683594 C 97.94203186035156 14.132242202758789 152.47816467285156 122.70025634765625 171.30648803710938 68.8272705078125" stroke-width="3.0" fill="none" stroke="rgb(0, 0, 0)" stroke-opacity="1.0" stroke-linecap="round" stroke-linejoin="round"/>
    <path d="M 47.63865280151367 100.27275848388672 C 81.64287567138672 124.52167510986328 77.697021484375 112.37416076660156 105.68644714355469 117.71680450439453" stroke-width="3.0" fill="none" stroke="rgb(0, 0, 0)" stroke-opacity="1.0" stroke-linecap="round" stroke-linejoin="round"/>
    <path d="M 20.51439666748047 132.59823608398438 C 8.181514739990234 71.2951889038086 12.696995735168457 85.85424041748047 57.210941314697266 42.65070343017578" stroke-width="3.0" fill="none" stroke="rgb(0, 0, 0)" stroke-opacity="1.0" stroke-linecap="round" stroke-linejoin="round"/>
    <path d="M 176.24806213378906 86.72960662841797 C 193.82034301757812 22.675806045532227 200.81512451171875 25.689321517944336 169.9187774658203 93.27879333496094" stroke-width="3.0" fill="none" stroke="rgb(0, 0, 0)" stroke-opacity="1.0" stroke-linecap="round" stroke-linejoin="round"/>
    <path d="M 107.53776550292969 116.2421875 C 110.85030364990234 185.83132934570312 80.59100341796875 202.1778106689453 111.79762268066406 189.49249267578125" stroke-width="3.0" fill="none" stroke="rgb(0, 0, 0)" stroke-opacity="1.0" stroke-linecap="round" stroke-linejoin="round"/>
    <path d="M 172.0499267578125 67.14388275146484 C 177.09300231933594 2.7340025901794434 213.9982147216797 79.57477569580078 206.14219665527344 46.2330436706543" stroke-width="3.0" fill="none" stroke="rgb(0, 0, 0)" stroke-opacity="1.0" stroke-linecap="round" stroke-linejoin="round"/>
    <path d="M 191.67971801757812 62.5176887512207 C 151.77490234375 43.80793762207031 258.02728271484375 44.227508544921875 193.91427612304688 59.142738342285156" stroke-width="3.0" fill="none" stroke="rgb(0, 0, 0)" stroke-opacity="1.0" stroke-linecap="round" stroke-linejoin="round"/>
  </g>
</svg>
