<?xml version="1.0" ?>
<svg xmlns="http://www.w3.org/2000/svg" version="1.1" width="224" height="224">
  <defs/>
  <g>
    <path d="M 129.82960510253906 109.35731506347656 C 125.15750122070312 92.22705841064453 148.65518188476562 139.07350158691406 119.0853500366211 67.3218002319336" stroke-width="3.0" fill="none" stroke="rgb(0, 0, 0)" stroke-opacity="1.0" stroke-linecap="round" stroke-linejoin="round"/>
    <path d="M 111.00678253173828 88.9417953491211 C 115.10419464111328 99.39772033691406 102.91072845458984 101.12054443359375 108.53240966796875 113.65583038330078" stroke-width="3.0" fill="none" stroke="rgb(0, 0, 0)" stroke-opacity="1.0" stroke-linecap="round" stroke-linejoin="round"/>
    <path d="M 128.3402557373047 109.12822723388672 C 132.2913360595703 90.53380584716797 155.2909698486328 130.21644592285156 191.6181640625 66.28910064697266" stroke-width="3.0" fill="none" stroke="rgb(0, 0, 0)" stroke-opacity="1.0" stroke-linecap="round" stroke-linejoin="round"/>
    <path d="M 66.39627075195312 41.283409118652344 C 64.09396362304688 39.27496337890625 53.82994842529297 48.17083740234375 40.444671630859375 59.22157287597656" stroke-width="3.0" fill="none" stroke="rgb(0, 0, 0)" stroke-opacity="1.0" stroke-linecap="round" stroke-linejoin="round"/>
    <path d="M 140.00424194335938 77.83882904052734 C 104.364013671875 39.68535614013672 113.8490982055664 64.87747192382812 95.73445129394531 45.22621536254883" stroke-width="3.0" fill="none" stroke="rgb(0, 0, 0)" stroke-opacity="1.0" stroke-linecap="round" stroke-linejoin="round"/>
    <path d="M 67.00299072265625 107.39337158203125 C 38.551918029785156 74.63975524902344 59.97639846801758 91.59679412841797 40.83298873901367 71.21372985839844" stroke-width="3.0" fill="none" stroke="rgb(0, 0, 0)" stroke-opacity="1.0" stroke-linecap="round" stroke-linejoin="round"/>
    <path d="M 186.419921875 61.36778259277344 C 171.63414001464844 34.15462112426758 194.88607788085938 51.9998893737793 186.2874755859375 81.68940734863281" stroke-width="3.0" fill="none" stroke="rgb(0, 0, 0)" stroke-opacity="1.0" stroke-linecap="round" stroke-linejoin="round"/>
    <path d="M 104.48660278320312 194.00575256347656 C 110.37374877929688 100.49047088623047 121.5450439453125 134.56878662109375 125.50003051757812 96.21452331542969" stroke-width="3.0" fill="none" stroke="rgb(0, 0, 0)" stroke-opacity="1.0" stroke-linecap="round" stroke-linejoin="round"/>
    <path d="M 45.836063385009766 99.53047943115234 C 21.114011764526367 180.326904296875 20.617210388183594 128.55987548828125 40.51476287841797 198.9443817138672" stroke-width="3.0" fill="none" stroke="rgb(0, 0, 0)" stroke-opacity="1.0" stroke-linecap="round" stroke-linejoin="round"/>
    <path d="M 64.0793228149414 41.57006072998047 C 100.40277099609375 13.738844871520996 155.32061767578125 136.9317626953125 176.79981994628906 54.77146530151367" stroke-width="3.0" fill="none" stroke="rgb(0, 0, 0)" stroke-opacity="1.0" stroke-linecap="round" stroke-linejoin="round"/>
    <path d="M 50.146934509277344 98.82547760009766 C 82.3759536743164 123.7193374633789 82.58281707763672 112.3043441772461 103.68940734863281 118.84149932861328" stroke-width="3.0" fill="none" stroke="rgb(0, 0, 0)" stroke-opacity="1.0" stroke-linecap="round" stroke-linejoin="round"/>
    <path d="M 27.928001403808594 144.68832397460938 C 28.002384185791016 97.30452728271484 -7.962161540985107 84.49421691894531 55.33668518066406 50.77014923095703" stroke-width="3.0" fill="none" stroke="rgb(0, 0, 0)" stroke-opacity="1.0" stroke-linecap="round" stroke-linejoin="round"/>
    <path d="M 174.99842834472656 86.11815643310547 C 192.59259033203125 19.08705711364746 206.68154907226562 26.404972076416016 165.48046875 96.56434631347656" stroke-width="3.0" fill="none" stroke="rgb(0, 0, 0)" stroke-opacity="1.0" stroke-linecap="round" stroke-linejoin="round"/>
    <path d="M 104.98600006103516 117.37854766845703 C 108.51018524169922 187.60562133789062 79.39764404296875 200.62428283691406 109.72915649414062 188.46714782714844" stroke-width="3.0" fill="none" stroke="rgb(0, 0, 0)" stroke-opacity="1.0" stroke-linecap="round" stroke-linejoin="round"/>
    <path d="M 168.6379852294922 74.25079345703125 C 178.67324829101562 3.125920534133911 214.4818572998047 77.74109649658203 208.60003662109375 49.28781509399414" stroke-width="3.0" fill="none" stroke="rgb(0, 0, 0)" stroke-opacity="1.0" stroke-linecap="round" stroke-linejoin="round"/>
    <path d="M 195.0352020263672 62.78590774536133 C 153.18624877929688 44.52445983886719 257.0257263183594 45.8729362487793 198.1184844970703 59.567100524902344" stroke-width="3.0" fill="none" stroke="rgb(0, 0, 0)" stroke-opacity="1.0" stroke-linecap="round" stroke-linejoin="round"/>
  </g>
</svg>
