<?xml version="1.0" ?>
<svg xmlns="http://www.w3.org/2000/svg" version="1.1" width="224" height="224">
  <defs/>
  <g>
    <path d="M 136.11813354492188 106.36577606201172 C 118.8700180053711 92.39883422851562 150.34967041015625 136.3628692626953 116.46674346923828 66.31494140625" stroke-width="3.0" fill="none" stroke="rgb(0, 0, 0)" stroke-opacity="1.0" stroke-linecap="round" stroke-linejoin="round"/>
    <path d="M 109.40065002441406 95.30225372314453 C 114.59249114990234 107.40449523925781 105.5694580078125 105.1902847290039 110.46271514892578 113.16991424560547" stroke-width="3.0" fill="none" stroke="rgb(0, 0, 0)" stroke-opacity="1.0" stroke-linecap="round" stroke-linejoin="round"/>
    <path d="M 129.24107360839844 109.35630798339844 C 130.7107391357422 83.0728530883789 143.41015625 136.17453002929688 186.46473693847656 71.82119750976562" stroke-width="3.0" fill="none" stroke="rgb(0, 0, 0)" stroke-opacity="1.0" stroke-linecap="round" stroke-linejoin="round"/>
    <path d="M 68.9462890625 41.612571716308594 C 64.98585510253906 40.341583251953125 52.80622863769531 46.19512939453125 44.7525634765625 56.576534271240234" stroke-width="3.0" fill="none" stroke="rgb(0, 0, 0)" stroke-opacity="1.0" stroke-linecap="round" stroke-linejoin="round"/>
    <path d="M 133.445556640625 82.52867889404297 C 107.53594970703125 39.10734176635742 111.1151123046875 67.31607818603516 95.98699951171875 46.99949264526367" stroke-width="3.0" fill="none" stroke="rgb(0, 0, 0)" stroke-opacity="1.0" stroke-linecap="round" stroke-linejoin="round"/>
    <path d="M 68.38097381591797 112.10980224609375 C 39.41128921508789 82.52132415771484 63.02475357055664 98.10213470458984 41.3340950012207 73.93402099609375" stroke-width="3.0" fill="none" stroke="rgb(0, 0, 0)" stroke-opacity="1.0" stroke-linecap="round" stroke-linejoin="round"/>
    <path d="M 181.6385955810547 61.129066467285156 C 172.736083984375 37.45774459838867 197.90452575683594 51.38459014892578 186.26779174804688 79.20708465576172" stroke-width="3.0" fill="none" stroke="rgb(0, 0, 0)" stroke-opacity="1.0" stroke-linecap="round" stroke-linejoin="round"/>
    <path d="M 102.66812896728516 191.91127014160156 C 119.1332778930664 87.36651611328125 122.66519927978516 130.0019989013672 121.75022888183594 107.05511474609375" stroke-width="3.0" fill="none" stroke="rgb(0, 0, 0)" stroke-opacity="1.0" stroke-linecap="round" stroke-linejoin="round"/>
    <path d="M 46.67613220214844 99.69159698486328 C 25.169355392456055 173.68028259277344 13.56775951385498 127.99920654296875 40.37114715576172 198.33241271972656" stroke-width="3.0" fill="none" stroke="rgb(0, 0, 0)" stroke-opacity="1.0" stroke-linecap="round" stroke-linejoin="round"/>
    <path d="M 66.80652618408203 40.85193634033203 C 99.5815658569336 18.259172439575195 159.90420532226562 137.5923309326172 174.08090209960938 56.69639587402344" stroke-width="3.0" fill="none" stroke="rgb(0, 0, 0)" stroke-opacity="1.0" stroke-linecap="round" stroke-linejoin="round"/>
    <path d="M 50.55305099487305 101.19141387939453 C 84.45044708251953 122.84262084960938 80.6657943725586 111.43489074707031 104.87081909179688 118.49604797363281" stroke-width="3.0" fill="none" stroke="rgb(0, 0, 0)" stroke-opacity="1.0" stroke-linecap="round" stroke-linejoin="round"/>
    <path d="M 22.11656951904297 137.14639282226562 C 15.245390892028809 76.9962387084961 3.1180033683776855 85.20389556884766 52.50956726074219 50.94980239868164" stroke-width="3.0" fill="none" stroke="rgb(0, 0, 0)" stroke-opacity="1.0" stroke-linecap="round" stroke-linejoin="round"/>
    <path d="M 175.1484832763672 87.86971282958984 C 188.60797119140625 17.925880432128906 204.8743133544922 30.546804428100586 170.51097106933594 92.18431854248047" stroke-width="3.0" fill="none" stroke="rgb(0, 0, 0)" stroke-opacity="1.0" stroke-linecap="round" stroke-linejoin="round"/>
    <path d="M 106.45672607421875 116.74337005615234 C 107.03137969970703 184.29078674316406 76.70883178710938 200.82931518554688 108.67208099365234 194.00621032714844" stroke-width="3.0" fill="none" stroke="rgb(0, 0, 0)" stroke-opacity="1.0" stroke-linecap="round" stroke-linejoin="round"/>
    <path d="M 170.74337768554688 65.80284118652344 C 183.90235900878906 8.633502006530762 214.33236694335938 78.46051788330078 204.64649963378906 49.35886001586914" stroke-width="3.0" fill="none" stroke="rgb(0, 0, 0)" stroke-opacity="1.0" stroke-linecap="round" stroke-linejoin="round"/>
    <path d="M 193.72146606445312 63.49615478515625 C 148.63616943359375 41.710994720458984 256.3039855957031 48.2350959777832 196.56710815429688 59.67571258544922" stroke-width="3.0" fill="none" stroke="rgb(0, 0, 0)" stroke-opacity="1.0" stroke-linecap="round" stroke-linejoin="round"/>
  </g>
</svg>
