<?xml version="1.0" ?>
<svg xmlns="http://www.w3.org/2000/svg" version="1.1" width="224" height="224">
  <defs/>
  <g>
    <path d="M 140.0968017578125 108.29328918457031 C 121.73571014404297 91.74706268310547 152.0506134033203 142.62472534179688 122.27243041992188 69.52754211425781" stroke-width="3.0" fill="none" stroke="rgb(0, 0, 0)" stroke-opacity="1.0" stroke-linecap="round" stroke-linejoin="round"/>
    <path d="M 106.07858276367188 95.93912506103516 C 107.49246215820312 100.58539581298828 99.51933288574219 104.29930114746094 107.56734466552734 113.39160919189453" stroke-width="3.0" fill="none" stroke="rgb(0, 0, 0)" stroke-opacity="1.0" stroke-linecap="round" stroke-linejoin="round"/>
    <path d="M 132.23019409179688 110.77593994140625 C 130.1401824951172 79.6651611328125 138.1955108642578 129.8280792236328 181.65408325195312 82.17672729492188" stroke-width="3.0" fill="none" stroke="rgb(0, 0, 0)" stroke-opacity="1.0" stroke-linecap="round" stroke-linejoin="round"/>
    <path d="M 67.30111694335938 40.98611068725586 C 64.21857452392578 40.64003372192383 56.89575958251953 46.797367095947266 61.11614227294922 45.5426025390625" stroke-width="3.0" fill="none" stroke="rgb(0, 0, 0)" stroke-opacity="1.0" stroke-linecap="round" stroke-linejoin="round"/>
    <path d="M 135.88465881347656 81.65869903564453 C 107.8102798461914 37.822147369384766 117.06385040283203 67.84209442138672 95.81999969482422 44.69310760498047" stroke-width="3.0" fill="none" stroke="rgb(0, 0, 0)" stroke-opacity="1.0" stroke-linecap="round" stroke-linejoin="round"/>
    <path d="M 63.97410202026367 108.73171997070312 C 37.83913803100586 80.23333740234375 56.80480194091797 95.69772338867188 39.847835540771484 71.02931213378906" stroke-width="3.0" fill="none" stroke="rgb(0, 0, 0)" stroke-opacity="1.0" stroke-linecap="round" stroke-linejoin="round"/>
    <path d="M 183.52919006347656 63.644474029541016 C 171.5918426513672 27.943208694458008 196.80499267578125 50.37990951538086 186.9014892578125 80.22544860839844" stroke-width="3.0" fill="none" stroke="rgb(0, 0, 0)" stroke-opacity="1.0" stroke-linecap="round" stroke-linejoin="round"/>
    <path d="M 103.32423400878906 193.8642578125 C 120.3156967163086 83.44058990478516 126.61363220214844 128.84054565429688 125.05965423583984 102.9491195678711" stroke-width="3.0" fill="none" stroke="rgb(0, 0, 0)" stroke-opacity="1.0" stroke-linecap="round" stroke-linejoin="round"/>
    <path d="M 44.22422409057617 99.40955352783203 C 23.491182327270508 171.58265686035156 14.753161430358887 125.69596862792969 40.15778732299805 198.45050048828125" stroke-width="3.0" fill="none" stroke="rgb(0, 0, 0)" stroke-opacity="1.0" stroke-linecap="round" stroke-linejoin="round"/>
    <path d="M 66.19017791748047 41.78082275390625 C 96.15740203857422 16.115028381347656 153.62266540527344 119.96366882324219 170.82395935058594 71.40960693359375" stroke-width="3.0" fill="none" stroke="rgb(0, 0, 0)" stroke-opacity="1.0" stroke-linecap="round" stroke-linejoin="round"/>
    <path d="M 47.04344177246094 100.1287612915039 C 83.14981079101562 122.43235778808594 79.40740966796875 111.52305603027344 106.93485260009766 117.7316665649414" stroke-width="3.0" fill="none" stroke="rgb(0, 0, 0)" stroke-opacity="1.0" stroke-linecap="round" stroke-linejoin="round"/>
    <path d="M 21.81773567199707 131.917724609375 C 11.680055618286133 67.12150573730469 10.526471138000488 81.33755493164062 58.618953704833984 46.09908676147461" stroke-width="3.0" fill="none" stroke="rgb(0, 0, 0)" stroke-opacity="1.0" stroke-linecap="round" stroke-linejoin="round"/>
    <path d="M 176.4727020263672 86.48521423339844 C 191.35597229003906 22.73188018798828 201.43670654296875 27.471670150756836 170.73216247558594 94.47333526611328" stroke-width="3.0" fill="none" stroke="rgb(0, 0, 0)" stroke-opacity="1.0" stroke-linecap="round" stroke-linejoin="round"/>
    <path d="M 105.55182647705078 118.58467864990234 C 109.49921417236328 184.4700469970703 77.6866455078125 203.262451171875 109.10609436035156 190.4012908935547" stroke-width="3.0" fill="none" stroke="rgb(0, 0, 0)" stroke-opacity="1.0" stroke-linecap="round" stroke-linejoin="round"/>
    <path d="M 170.86270141601562 68.53294372558594 C 174.04428100585938 5.730565071105957 214.50633239746094 79.00569152832031 209.27398681640625 48.75349807739258" stroke-width="3.0" fill="none" stroke="rgb(0, 0, 0)" stroke-opacity="1.0" stroke-linecap="round" stroke-linejoin="round"/>
    <path d="M 193.13778686523438 64.7089614868164 C 154.23757934570312 43.23474884033203 255.65548706054688 45.14421081542969 195.8193817138672 60.65639114379883" stroke-width="3.0" fill="none" stroke="rgb(0, 0, 0)" stroke-opacity="1.0" stroke-linecap="round" stroke-linejoin="round"/>
  </g>
</svg>
