<?xml version="1.0" ?>
<svg xmlns="http://www.w3.org/2000/svg" version="1.1" width="224" height="224">
  <defs/>
  <g>
    <path d="M 136.64537048339844 108.6313705444336 C 121.28246307373047 91.66941833496094 150.70388793945312 143.13650512695312 121.03044891357422 68.79969024658203" stroke-width="3.0" fill="none" stroke="rgb(0, 0, 0)" stroke-opacity="1.0" stroke-linecap="round" stroke-linejoin="round"/>
    <path d="M 108.85981750488281 95.9156265258789 C 111.3077621459961 103.70641326904297 102.11480712890625 102.3265151977539 107.35960388183594 112.89146423339844" stroke-width="3.0" fill="none" stroke="rgb(0, 0, 0)" stroke-opacity="1.0" stroke-linecap="round" stroke-linejoin="round"/>
    <path d="M 132.08468627929688 110.4798355102539 C 131.78353881835938 80.56815338134766 141.79940795898438 134.21517944335938 182.31192016601562 82.02433776855469" stroke-width="3.0" fill="none" stroke="rgb(0, 0, 0)" stroke-opacity="1.0" stroke-linecap="round" stroke-linejoin="round"/>
    <path d="M 68.5633544921875 39.26662063598633 C 64.83238983154297 41.09542465209961 56.317596435546875 46.15399932861328 59.050498962402344 44.92119598388672" stroke-width="3.0" fill="none" stroke="rgb(0, 0, 0)" stroke-opacity="1.0" stroke-linecap="round" stroke-linejoin="round"/>
    <path d="M 134.9440460205078 81.58511352539062 C 104.83621978759766 40.66205978393555 114.58920288085938 68.67031860351562 94.78536987304688 44.988887786865234" stroke-width="3.0" fill="none" stroke="rgb(0, 0, 0)" stroke-opacity="1.0" stroke-linecap="round" stroke-linejoin="round"/>
    <path d="M 64.37097930908203 108.45547485351562 C 37.17433166503906 78.38165283203125 58.1371955871582 93.07814025878906 41.421356201171875 71.05213928222656" stroke-width="3.0" fill="none" stroke="rgb(0, 0, 0)" stroke-opacity="1.0" stroke-linecap="round" stroke-linejoin="round"/>
    <path d="M 182.67623901367188 63.97616958618164 C 171.9757843017578 27.99367904663086 194.9864959716797 50.50614547729492 186.46792602539062 80.45111083984375" stroke-width="3.0" fill="none" stroke="rgb(0, 0, 0)" stroke-opacity="1.0" stroke-linecap="round" stroke-linejoin="round"/>
    <path d="M 101.16921997070312 194.98629760742188 C 119.5249252319336 82.90318298339844 123.91830444335938 128.2679901123047 124.90289306640625 103.32669067382812" stroke-width="3.0" fill="none" stroke="rgb(0, 0, 0)" stroke-opacity="1.0" stroke-linecap="round" stroke-linejoin="round"/>
    <path d="M 44.61539840698242 99.15776062011719 C 24.218740463256836 173.43359375 13.73800277709961 124.13703918457031 40.039466857910156 199.32577514648438" stroke-width="3.0" fill="none" stroke="rgb(0, 0, 0)" stroke-opacity="1.0" stroke-linecap="round" stroke-linejoin="round"/>
    <path d="M 65.18912506103516 41.28446960449219 C 96.68328857421875 15.836029052734375 152.39813232421875 122.22867584228516 171.3764190673828 70.37825012207031" stroke-width="3.0" fill="none" stroke="rgb(0, 0, 0)" stroke-opacity="1.0" stroke-linecap="round" stroke-linejoin="round"/>
    <path d="M 47.60169982910156 100.87519073486328 C 81.39285278320312 124.6028060913086 76.9658432006836 111.54505920410156 106.02487182617188 116.48572540283203" stroke-width="3.0" fill="none" stroke="rgb(0, 0, 0)" stroke-opacity="1.0" stroke-linecap="round" stroke-linejoin="round"/>
    <path d="M 22.49470329284668 132.26187133789062 C 11.861695289611816 68.18895721435547 12.703866004943848 83.27364349365234 58.15215301513672 44.60783767700195" stroke-width="3.0" fill="none" stroke="rgb(0, 0, 0)" stroke-opacity="1.0" stroke-linecap="round" stroke-linejoin="round"/>
    <path d="M 175.23770141601562 86.38765716552734 C 191.6813201904297 22.449533462524414 202.70150756835938 27.763391494750977 170.9864501953125 93.57552337646484" stroke-width="3.0" fill="none" stroke="rgb(0, 0, 0)" stroke-opacity="1.0" stroke-linecap="round" stroke-linejoin="round"/>
    <path d="M 105.3664321899414 118.42703247070312 C 108.6915283203125 184.61651611328125 76.10334014892578 202.22982788085938 109.66339111328125 188.4694366455078" stroke-width="3.0" fill="none" stroke="rgb(0, 0, 0)" stroke-opacity="1.0" stroke-linecap="round" stroke-linejoin="round"/>
    <path d="M 171.2234649658203 68.66419982910156 C 175.18722534179688 3.898160457611084 215.8876495361328 78.41765594482422 208.67401123046875 47.084712982177734" stroke-width="3.0" fill="none" stroke="rgb(0, 0, 0)" stroke-opacity="1.0" stroke-linecap="round" stroke-linejoin="round"/>
    <path d="M 192.93121337890625 66.02223205566406 C 152.1962432861328 43.551124572753906 254.510009765625 45.6846809387207 196.89859008789062 59.8325080871582" stroke-width="3.0" fill="none" stroke="rgb(0, 0, 0)" stroke-opacity="1.0" stroke-linecap="round" stroke-linejoin="round"/>
  </g>
</svg>
