<?xml version="1.0" ?>
<svg xmlns="http://www.w3.org/2000/svg" version="1.1" width="224" height="224">
  <defs/>
  <g>
    <path d="M 152.6895294189453 103.71759796142578 C 117.4845962524414 81.45465850830078 179.13238525390625 130.48095703125 118.7850112915039 75.09587097167969" stroke-width="3.0" fill="none" stroke="rgb(0, 0, 0)" stroke-opacity="1.0" stroke-linecap="round" stroke-linejoin="round"/>
    <path d="M 111.232421875 93.90279388427734 C 110.97318267822266 103.83387756347656 101.09799194335938 106.19055938720703 107.76541137695312 113.14521026611328" stroke-width="3.0" fill="none" stroke="rgb(0, 0, 0)" stroke-opacity="1.0" stroke-linecap="round" stroke-linejoin="round"/>
    <path d="M 137.9390106201172 104.84291076660156 C 140.81773376464844 66.53559875488281 128.4445343017578 135.2209014892578 179.97219848632812 84.28337097167969" stroke-width="3.0" fill="none" stroke="rgb(0, 0, 0)" stroke-opacity="1.0" stroke-linecap="round" stroke-linejoin="round"/>
    <path d="M 63.20377731323242 42.116119384765625 C 64.3285140991211 42.902076721191406 56.806583404541016 46.03031921386719 63.97922897338867 41.81584167480469" stroke-width="3.0" fill="none" stroke="rgb(0, 0, 0)" stroke-opacity="1.0" stroke-linecap="round" stroke-linejoin="round"/>
    <path d="M 128.97213745117188 84.64032745361328 C 109.20879364013672 42.44428634643555 111.76972961425781 68.69088745117188 96.9690170288086 44.48714065551758" stroke-width="3.0" fill="none" stroke="rgb(0, 0, 0)" stroke-opacity="1.0" stroke-linecap="round" stroke-linejoin="round"/>
    <path d="M 68.07508850097656 111.9990463256836 C 42.02117156982422 76.36707305908203 60.02397155761719 90.21382904052734 48.83367156982422 64.36621856689453" stroke-width="3.0" fill="none" stroke="rgb(0, 0, 0)" stroke-opacity="1.0" stroke-linecap="round" stroke-linejoin="round"/>
    <path d="M 186.66018676757812 43.46017074584961 C 187.50148010253906 45.78992462158203 197.23690795898438 49.624237060546875 186.45724487304688 79.16387176513672" stroke-width="3.0" fill="none" stroke="rgb(0, 0, 0)" stroke-opacity="1.0" stroke-linecap="round" stroke-linejoin="round"/>
    <path d="M 102.1173095703125 195.89678955078125 C 123.41400909423828 81.0318603515625 123.92982482910156 122.31940460205078 132.56118774414062 100.8156967163086" stroke-width="3.0" fill="none" stroke="rgb(0, 0, 0)" stroke-opacity="1.0" stroke-linecap="round" stroke-linejoin="round"/>
    <path d="M 47.41287612915039 97.49816131591797 C 20.390926361083984 180.8551025390625 16.320093154907227 124.5191650390625 41.66146469116211 196.809814453125" stroke-width="3.0" fill="none" stroke="rgb(0, 0, 0)" stroke-opacity="1.0" stroke-linecap="round" stroke-linejoin="round"/>
    <path d="M 62.463565826416016 43.29954528808594 C 93.67536926269531 16.527515411376953 143.13616943359375 107.3437271118164 169.72512817382812 80.36177825927734" stroke-width="3.0" fill="none" stroke="rgb(0, 0, 0)" stroke-opacity="1.0" stroke-linecap="round" stroke-linejoin="round"/>
    <path d="M 51.702537536621094 95.08030700683594 C 71.24636840820312 122.58357238769531 83.1116714477539 112.8376693725586 106.2354965209961 115.91161346435547" stroke-width="3.0" fill="none" stroke="rgb(0, 0, 0)" stroke-opacity="1.0" stroke-linecap="round" stroke-linejoin="round"/>
    <path d="M 22.093313217163086 133.26597595214844 C 9.781218528747559 65.47152709960938 21.11309242248535 78.47151947021484 58.991493225097656 44.71388244628906" stroke-width="3.0" fill="none" stroke="rgb(0, 0, 0)" stroke-opacity="1.0" stroke-linecap="round" stroke-linejoin="round"/>
    <path d="M 167.30638122558594 82.27543640136719 C 196.3333740234375 40.14377212524414 188.15187072753906 45.327919006347656 173.93487548828125 90.81074523925781" stroke-width="3.0" fill="none" stroke="rgb(0, 0, 0)" stroke-opacity="1.0" stroke-linecap="round" stroke-linejoin="round"/>
    <path d="M 106.05603790283203 117.26222229003906 C 108.66825103759766 178.56790161132812 74.52255249023438 203.06602478027344 111.59725952148438 190.1746368408203" stroke-width="3.0" fill="none" stroke="rgb(0, 0, 0)" stroke-opacity="1.0" stroke-linecap="round" stroke-linejoin="round"/>
    <path d="M 172.07818603515625 78.4366226196289 C 172.8309326171875 -2.39701247215271 214.81179809570312 74.18659210205078 206.948974609375 48.827667236328125" stroke-width="3.0" fill="none" stroke="rgb(0, 0, 0)" stroke-opacity="1.0" stroke-linecap="round" stroke-linejoin="round"/>
    <path d="M 195.0694580078125 61.07666015625 C 154.063720703125 37.357147216796875 252.1253204345703 45.60866928100586 199.0166473388672 58.51758575439453" stroke-width="3.0" fill="none" stroke="rgb(0, 0, 0)" stroke-opacity="1.0" stroke-linecap="round" stroke-linejoin="round"/>
  </g>
</svg>
