<?xml version="1.0" ?>
<svg xmlns="http://www.w3.org/2000/svg" version="1.1" width="224" height="224">
  <defs/>
  <g>
    <path d="M 156.00099182128906 101.83914947509766 C 119.87641143798828 93.87102508544922 164.18576049804688 115.16731262207031 132.0911865234375 84.98197174072266" stroke-width="3.0" fill="none" stroke="rgb(0, 0, 0)" stroke-opacity="1.0" stroke-linecap="round" stroke-linejoin="round"/>
    <path d="M 109.04430389404297 95.03520202636719 C 107.7317886352539 101.21347045898438 100.82428741455078 104.22042846679688 106.2352294921875 113.19623565673828" stroke-width="3.0" fill="none" stroke="rgb(0, 0, 0)" stroke-opacity="1.0" stroke-linecap="round" stroke-linejoin="round"/>
    <path d="M 136.5966033935547 105.89736938476562 C 152.00332641601562 75.2872085571289 112.05801391601562 120.10430908203125 171.52276611328125 95.1404037475586" stroke-width="3.0" fill="none" stroke="rgb(0, 0, 0)" stroke-opacity="1.0" stroke-linecap="round" stroke-linejoin="round"/>
    <path d="M 64.08287048339844 43.922149658203125 C 61.37744903564453 44.95643997192383 52.12405776977539 50.88076400756836 62.244056701660156 42.83305740356445" stroke-width="3.0" fill="none" stroke="rgb(0, 0, 0)" stroke-opacity="1.0" stroke-linecap="round" stroke-linejoin="round"/>
    <path d="M 116.2251205444336 60.224056243896484 C 109.34574127197266 49.81158447265625 97.67070007324219 55.92289352416992 95.2305679321289 44.20883560180664" stroke-width="3.0" fill="none" stroke="rgb(0, 0, 0)" stroke-opacity="1.0" stroke-linecap="round" stroke-linejoin="round"/>
    <path d="M 77.49281311035156 111.8194580078125 C 47.012081146240234 92.2741470336914 63.014095306396484 98.47750091552734 47.169795989990234 84.95901489257812" stroke-width="3.0" fill="none" stroke="rgb(0, 0, 0)" stroke-opacity="1.0" stroke-linecap="round" stroke-linejoin="round"/>
    <path d="M 188.58505249023438 47.44362258911133 C 175.03790283203125 61.98771286010742 200.05140686035156 54.907466888427734 175.50941467285156 82.12310028076172" stroke-width="3.0" fill="none" stroke="rgb(0, 0, 0)" stroke-opacity="1.0" stroke-linecap="round" stroke-linejoin="round"/>
    <path d="M 102.72216033935547 190.90542602539062 C 126.9013671875 80.90850067138672 118.1918716430664 129.3067626953125 130.7559356689453 101.61445617675781" stroke-width="3.0" fill="none" stroke="rgb(0, 0, 0)" stroke-opacity="1.0" stroke-linecap="round" stroke-linejoin="round"/>
    <path d="M 39.25648880004883 93.2938003540039 C 23.03748321533203 188.25131225585938 16.587749481201172 117.14105987548828 38.663185119628906 197.48585510253906" stroke-width="3.0" fill="none" stroke="rgb(0, 0, 0)" stroke-opacity="1.0" stroke-linecap="round" stroke-linejoin="round"/>
    <path d="M 61.95759582519531 44.46173858642578 C 92.75005340576172 13.38101863861084 138.373046875 96.78885650634766 167.64859008789062 87.16157531738281" stroke-width="3.0" fill="none" stroke="rgb(0, 0, 0)" stroke-opacity="1.0" stroke-linecap="round" stroke-linejoin="round"/>
    <path d="M 38.015625 99.24034118652344 C 93.84769439697266 128.0045166015625 83.6136703491211 111.56790924072266 104.82909393310547 117.48274230957031" stroke-width="3.0" fill="none" stroke="rgb(0, 0, 0)" stroke-opacity="1.0" stroke-linecap="round" stroke-linejoin="round"/>
    <path d="M 36.65324783325195 82.30611419677734 C 42.25026321411133 67.97891235351562 36.479618072509766 64.0994873046875 38.0409049987793 62.353084564208984" stroke-width="3.0" fill="none" stroke="rgb(0, 0, 0)" stroke-opacity="1.0" stroke-linecap="round" stroke-linejoin="round"/>
    <path d="M 168.25164794921875 86.98172760009766 C 205.20346069335938 57.2452392578125 182.2372283935547 62.27045822143555 175.154541015625 91.14044952392578" stroke-width="3.0" fill="none" stroke="rgb(0, 0, 0)" stroke-opacity="1.0" stroke-linecap="round" stroke-linejoin="round"/>
    <path d="M 104.22001647949219 117.65415954589844 C 106.23258209228516 185.7975616455078 78.9112777709961 192.9907684326172 113.3190689086914 187.7886962890625" stroke-width="3.0" fill="none" stroke="rgb(0, 0, 0)" stroke-opacity="1.0" stroke-linecap="round" stroke-linejoin="round"/>
    <path d="M 175.67112731933594 81.68012237548828 C 176.6019744873047 -3.1262855529785156 189.766845703125 78.41789245605469 196.27540588378906 50.33875274658203" stroke-width="3.0" fill="none" stroke="rgb(0, 0, 0)" stroke-opacity="1.0" stroke-linecap="round" stroke-linejoin="round"/>
    <path d="M 193.8902130126953 60.77830505371094 C 148.85829162597656 41.58904266357422 235.88348388671875 50.70097351074219 202.0346221923828 58.28664779663086" stroke-width="3.0" fill="none" stroke="rgb(0, 0, 0)" stroke-opacity="1.0" stroke-linecap="round" stroke-linejoin="round"/>
  </g>
</svg>
