<?xml version="1.0" ?>
<svg xmlns="http://www.w3.org/2000/svg" version="1.1" width="224" height="224">
  <defs/>
  <g>
    <path d="M 155.32421875 98.55193328857422 C 120.25929260253906 86.29511260986328 177.3018035888672 118.69050598144531 126.71208953857422 75.95475769042969" stroke-width="3.0" fill="none" stroke="rgb(0, 0, 0)" stroke-opacity="1.0" stroke-linecap="round" stroke-linejoin="round"/>
    <path d="M 106.11779022216797 91.01445007324219 C 107.60440826416016 101.46539306640625 101.1055908203125 102.76598358154297 107.71350860595703 112.99571990966797" stroke-width="3.0" fill="none" stroke="rgb(0, 0, 0)" stroke-opacity="1.0" stroke-linecap="round" stroke-linejoin="round"/>
    <path d="M 141.8983917236328 101.171875 C 144.25042724609375 63.55514907836914 121.09303283691406 124.62457275390625 177.0358123779297 88.53387451171875" stroke-width="3.0" fill="none" stroke="rgb(0, 0, 0)" stroke-opacity="1.0" stroke-linecap="round" stroke-linejoin="round"/>
    <path d="M 62.23800277709961 41.65565490722656 C 61.882476806640625 41.738136291503906 54.97605514526367 47.94906997680664 62.49111557006836 41.13526153564453" stroke-width="3.0" fill="none" stroke="rgb(0, 0, 0)" stroke-opacity="1.0" stroke-linecap="round" stroke-linejoin="round"/>
    <path d="M 127.21023559570312 70.82996368408203 C 114.40142822265625 50.98796463012695 109.90245819091797 60.906681060791016 94.57967376708984 44.005496978759766" stroke-width="3.0" fill="none" stroke="rgb(0, 0, 0)" stroke-opacity="1.0" stroke-linecap="round" stroke-linejoin="round"/>
    <path d="M 76.51766204833984 112.34555053710938 C 41.55087661743164 83.88955688476562 63.40293884277344 96.39470672607422 48.22785568237305 68.54731750488281" stroke-width="3.0" fill="none" stroke="rgb(0, 0, 0)" stroke-opacity="1.0" stroke-linecap="round" stroke-linejoin="round"/>
    <path d="M 182.2509002685547 35.609249114990234 C 177.18507385253906 47.68461990356445 193.18968200683594 56.075111389160156 178.18310546875 77.16963958740234" stroke-width="3.0" fill="none" stroke="rgb(0, 0, 0)" stroke-opacity="1.0" stroke-linecap="round" stroke-linejoin="round"/>
    <path d="M 103.69485473632812 192.9618682861328 C 124.6470947265625 81.20401763916016 120.67359161376953 129.01663208007812 129.07286071777344 103.25688934326172" stroke-width="3.0" fill="none" stroke="rgb(0, 0, 0)" stroke-opacity="1.0" stroke-linecap="round" stroke-linejoin="round"/>
    <path d="M 35.45001220703125 86.57119750976562 C 33.5074348449707 196.51763916015625 19.411157608032227 117.8067398071289 39.07585906982422 197.00588989257812" stroke-width="3.0" fill="none" stroke="rgb(0, 0, 0)" stroke-opacity="1.0" stroke-linecap="round" stroke-linejoin="round"/>
    <path d="M 61.30341339111328 41.40094757080078 C 88.55366516113281 13.422060012817383 140.95599365234375 103.26724243164062 165.2859649658203 85.00987243652344" stroke-width="3.0" fill="none" stroke="rgb(0, 0, 0)" stroke-opacity="1.0" stroke-linecap="round" stroke-linejoin="round"/>
    <path d="M 43.31492614746094 89.32221984863281 C 79.79032135009766 126.67726135253906 78.21260833740234 110.25562286376953 102.94285583496094 117.78128814697266" stroke-width="3.0" fill="none" stroke="rgb(0, 0, 0)" stroke-opacity="1.0" stroke-linecap="round" stroke-linejoin="round"/>
    <path d="M 33.64109420776367 100.10958862304688 C 28.595964431762695 64.4247817993164 36.22602462768555 72.4368896484375 49.32496643066406 52.552913665771484" stroke-width="3.0" fill="none" stroke="rgb(0, 0, 0)" stroke-opacity="1.0" stroke-linecap="round" stroke-linejoin="round"/>
    <path d="M 167.60276794433594 83.81028747558594 C 193.2340087890625 41.46307373046875 193.46055603027344 55.131072998046875 180.5477752685547 86.18643188476562" stroke-width="3.0" fill="none" stroke="rgb(0, 0, 0)" stroke-opacity="1.0" stroke-linecap="round" stroke-linejoin="round"/>
    <path d="M 105.402587890625 117.72413635253906 C 108.78608703613281 185.0963897705078 79.92208099365234 198.38677978515625 111.75588989257812 188.8174591064453" stroke-width="3.0" fill="none" stroke="rgb(0, 0, 0)" stroke-opacity="1.0" stroke-linecap="round" stroke-linejoin="round"/>
    <path d="M 168.8157958984375 79.30811309814453 C 175.41775512695312 -4.006312847137451 206.31332397460938 70.61944580078125 201.14096069335938 47.251502990722656" stroke-width="3.0" fill="none" stroke="rgb(0, 0, 0)" stroke-opacity="1.0" stroke-linecap="round" stroke-linejoin="round"/>
    <path d="M 193.1369171142578 60.80292892456055 C 154.0238037109375 35.703861236572266 228.4392547607422 44.02177047729492 195.070556640625 51.25664138793945" stroke-width="3.0" fill="none" stroke="rgb(0, 0, 0)" stroke-opacity="1.0" stroke-linecap="round" stroke-linejoin="round"/>
  </g>
</svg>
