<?xml version="1.0" ?>
<svg xmlns="http://www.w3.org/2000/svg" version="1.1" width="224" height="224">
  <defs/>
  <g>
    <path d="M 138.1094512939453 108.19692993164062 C 124.68655395507812 90.8784408569336 153.0226287841797 139.9010009765625 119.0184326171875 67.42098236083984" stroke-width="3.0" fill="none" stroke="rgb(0, 0, 0)" stroke-opacity="1.0" stroke-linecap="round" stroke-linejoin="round"/>
    <path d="M 110.07331848144531 95.741943359375 C 110.81141662597656 102.52128601074219 102.72444915771484 106.26998901367188 106.96077728271484 113.76785278320312" stroke-width="3.0" fill="none" stroke="rgb(0, 0, 0)" stroke-opacity="1.0" stroke-linecap="round" stroke-linejoin="round"/>
    <path d="M 131.45301818847656 107.72073364257812 C 132.2386932373047 82.58596801757812 139.85305786132812 135.10911560058594 189.13226318359375 75.80648040771484" stroke-width="3.0" fill="none" stroke="rgb(0, 0, 0)" stroke-opacity="1.0" stroke-linecap="round" stroke-linejoin="round"/>
    <path d="M 74.0329360961914 38.61180877685547 C 64.83600616455078 39.03908920288086 55.537384033203125 47.76215744018555 53.28914260864258 49.45146560668945" stroke-width="3.0" fill="none" stroke="rgb(0, 0, 0)" stroke-opacity="1.0" stroke-linecap="round" stroke-linejoin="round"/>
    <path d="M 132.58209228515625 82.15467834472656 C 110.51875305175781 38.91556167602539 111.02581024169922 66.7041015625 94.3050537109375 42.647300720214844" stroke-width="3.0" fill="none" stroke="rgb(0, 0, 0)" stroke-opacity="1.0" stroke-linecap="round" stroke-linejoin="round"/>
    <path d="M 71.774658203125 112.26911926269531 C 37.03118896484375 83.74019622802734 63.647403717041016 99.40956115722656 40.944000244140625 78.91272735595703" stroke-width="3.0" fill="none" stroke="rgb(0, 0, 0)" stroke-opacity="1.0" stroke-linecap="round" stroke-linejoin="round"/>
    <path d="M 183.81405639648438 59.85685729980469 C 176.5123748779297 37.070613861083984 192.82855224609375 47.76979064941406 186.70147705078125 74.55471801757812" stroke-width="3.0" fill="none" stroke="rgb(0, 0, 0)" stroke-opacity="1.0" stroke-linecap="round" stroke-linejoin="round"/>
    <path d="M 103.72846984863281 192.570556640625 C 119.30111694335938 81.68115997314453 124.00823974609375 131.0887908935547 125.91905212402344 100.7742691040039" stroke-width="3.0" fill="none" stroke="rgb(0, 0, 0)" stroke-opacity="1.0" stroke-linecap="round" stroke-linejoin="round"/>
    <path d="M 46.90898895263672 103.03413391113281 C 27.954692840576172 173.35838317871094 21.765647888183594 120.79900360107422 37.8728141784668 198.6540985107422" stroke-width="3.0" fill="none" stroke="rgb(0, 0, 0)" stroke-opacity="1.0" stroke-linecap="round" stroke-linejoin="round"/>
    <path d="M 69.08865356445312 39.07002639770508 C 100.00153350830078 15.62993335723877 156.59426879882812 130.88125610351562 173.16873168945312 65.6500473022461" stroke-width="3.0" fill="none" stroke="rgb(0, 0, 0)" stroke-opacity="1.0" stroke-linecap="round" stroke-linejoin="round"/>
    <path d="M 47.79543685913086 100.72262573242188 C 86.36328887939453 120.831787109375 81.3837890625 112.24310302734375 106.20650482177734 117.21976470947266" stroke-width="3.0" fill="none" stroke="rgb(0, 0, 0)" stroke-opacity="1.0" stroke-linecap="round" stroke-linejoin="round"/>
    <path d="M 22.320831298828125 137.71543884277344 C 11.611515045166016 73.69729614257812 12.496075630187988 88.15302276611328 56.43794250488281 47.07286834716797" stroke-width="3.0" fill="none" stroke="rgb(0, 0, 0)" stroke-opacity="1.0" stroke-linecap="round" stroke-linejoin="round"/>
    <path d="M 176.67251586914062 88.93498229980469 C 199.95492553710938 24.86267852783203 197.3860321044922 24.456205368041992 172.25453186035156 89.10768127441406" stroke-width="3.0" fill="none" stroke="rgb(0, 0, 0)" stroke-opacity="1.0" stroke-linecap="round" stroke-linejoin="round"/>
    <path d="M 104.945556640625 119.48604583740234 C 110.61489868164062 180.5549774169922 72.708984375 206.91714477539062 108.48609161376953 195.10829162597656" stroke-width="3.0" fill="none" stroke="rgb(0, 0, 0)" stroke-opacity="1.0" stroke-linecap="round" stroke-linejoin="round"/>
    <path d="M 172.972900390625 63.71068572998047 C 181.08224487304688 2.6934428215026855 216.5400848388672 77.39349365234375 206.927734375 45.92668533325195" stroke-width="3.0" fill="none" stroke="rgb(0, 0, 0)" stroke-opacity="1.0" stroke-linecap="round" stroke-linejoin="round"/>
    <path d="M 193.87112426757812 63.094051361083984 C 156.01690673828125 40.16718292236328 258.0038146972656 46.36824035644531 195.85755920410156 58.906524658203125" stroke-width="3.0" fill="none" stroke="rgb(0, 0, 0)" stroke-opacity="1.0" stroke-linecap="round" stroke-linejoin="round"/>
  </g>
</svg>
