<?xml version="1.0" ?>
<svg xmlns="http://www.w3.org/2000/svg" version="1.1" width="224" height="224">
  <defs/>
  <g>
    <path d="M 131.08619689941406 91.35479736328125 C 125.54767608642578 77.0858154296875 129.85791015625 78.20600128173828 126.41008758544922 73.35576629638672" stroke-width="3.0" fill="none" stroke="rgb(0, 0, 0)" stroke-opacity="1.0" stroke-linecap="round" stroke-linejoin="round"/>
    <path d="M 93.70523071289062 105.05912780761719 C 98.59762573242188 97.76480102539062 85.79566192626953 104.00056457519531 103.85419464111328 109.67547607421875" stroke-width="3.0" fill="none" stroke="rgb(0, 0, 0)" stroke-opacity="1.0" stroke-linecap="round" stroke-linejoin="round"/>
    <path d="M 149.7784423828125 105.85775756835938 C 158.9955291748047 83.30648803710938 142.1814422607422 72.76763916015625 152.7201385498047 105.34120178222656" stroke-width="3.0" fill="none" stroke="rgb(0, 0, 0)" stroke-opacity="1.0" stroke-linecap="round" stroke-linejoin="round"/>
    <path d="M 55.32523727416992 50.0915412902832 C 61.87795639038086 87.70320892333984 45.99221420288086 95.9271011352539 53.05121612548828 95.285888671875" stroke-width="3.0" fill="none" stroke="rgb(0, 0, 0)" stroke-opacity="1.0" stroke-linecap="round" stroke-linejoin="round"/>
    <path d="M 113.92711639404297 55.0536994934082 C 118.35405731201172 54.121891021728516 116.67992401123047 59.60525131225586 115.70146179199219 55.48596954345703" stroke-width="3.0" fill="none" stroke="rgb(0, 0, 0)" stroke-opacity="1.0" stroke-linecap="round" stroke-linejoin="round"/>
    <path d="M 53.588523864746094 90.819580078125 C 54.757869720458984 104.37415313720703 52.873992919921875 94.94363403320312 52.26127243041992 93.52017974853516" stroke-width="3.0" fill="none" stroke="rgb(0, 0, 0)" stroke-opacity="1.0" stroke-linecap="round" stroke-linejoin="round"/>
    <path d="M 180.14784240722656 46.8768196105957 C 175.1321258544922 74.40581512451172 161.2755889892578 74.6060791015625 162.8433074951172 77.6798324584961" stroke-width="3.0" fill="none" stroke="rgb(0, 0, 0)" stroke-opacity="1.0" stroke-linecap="round" stroke-linejoin="round"/>
    <path d="M 109.10285186767578 129.5159454345703 C 116.1434326171875 114.46846008300781 97.59881591796875 130.82289123535156 114.11795043945312 120.11998748779297" stroke-width="3.0" fill="none" stroke="rgb(0, 0, 0)" stroke-opacity="1.0" stroke-linecap="round" stroke-linejoin="round"/>
    <path d="M 41.03245544433594 137.8759765625 C 33.856903076171875 175.40309143066406 28.254972457885742 152.07028198242188 42.988731384277344 200.847900390625" stroke-width="3.0" fill="none" stroke="rgb(0, 0, 0)" stroke-opacity="1.0" stroke-linecap="round" stroke-linejoin="round"/>
    <path d="M 95.25630950927734 44.40482711791992 C 118.86654663085938 53.949161529541016 122.09857940673828 58.8086051940918 131.6085205078125 78.89657592773438" stroke-width="3.0" fill="none" stroke="rgb(0, 0, 0)" stroke-opacity="1.0" stroke-linecap="round" stroke-linejoin="round"/>
    <path d="M 63.51069641113281 99.8645248413086 C 76.71321105957031 111.57079315185547 78.60233306884766 106.10107421875 105.2986068725586 113.76210021972656" stroke-width="3.0" fill="none" stroke="rgb(0, 0, 0)" stroke-opacity="1.0" stroke-linecap="round" stroke-linejoin="round"/>
    <path d="M 23.450265884399414 91.69535064697266 C 16.83888053894043 75.20841217041016 14.995892524719238 78.25794982910156 15.468542098999023 78.06826782226562" stroke-width="3.0" fill="none" stroke="rgb(0, 0, 0)" stroke-opacity="1.0" stroke-linecap="round" stroke-linejoin="round"/>
    <path d="M 151.7320098876953 80.96891021728516 C 179.11415100097656 67.95944213867188 157.59324645996094 75.43807983398438 170.76828002929688 98.47538757324219" stroke-width="3.0" fill="none" stroke="rgb(0, 0, 0)" stroke-opacity="1.0" stroke-linecap="round" stroke-linejoin="round"/>
    <path d="M 105.25948333740234 115.79904174804688 C 116.56021881103516 146.3662109375 90.89169311523438 161.74557495117188 111.8774185180664 194.7196807861328" stroke-width="3.0" fill="none" stroke="rgb(0, 0, 0)" stroke-opacity="1.0" stroke-linecap="round" stroke-linejoin="round"/>
    <path d="M 179.0131378173828 54.00918960571289 C 193.13919067382812 19.109302520751953 185.02621459960938 48.24951171875 199.56011962890625 42.230403900146484" stroke-width="3.0" fill="none" stroke="rgb(0, 0, 0)" stroke-opacity="1.0" stroke-linecap="round" stroke-linejoin="round"/>
    <path d="M 197.29852294921875 59.823421478271484 C 176.39556884765625 46.10636520385742 201.38955688476562 43.707271575927734 210.25485229492188 50.95795822143555" stroke-width="3.0" fill="none" stroke="rgb(0, 0, 0)" stroke-opacity="1.0" stroke-linecap="round" stroke-linejoin="round"/>
  </g>
</svg>
