<?xml version="1.0" ?>
<svg xmlns="http://www.w3.org/2000/svg" version="1.1" width="224" height="224">
  <defs/>
  <g>
    <path d="M 143.70970153808594 106.59422302246094 C 118.10860443115234 86.57966613769531 162.07342529296875 142.4851531982422 123.59477996826172 69.36353302001953" stroke-width="3.0" fill="none" stroke="rgb(0, 0, 0)" stroke-opacity="1.0" stroke-linecap="round" stroke-linejoin="round"/>
    <path d="M 105.84695434570312 94.43607330322266 C 110.25491333007812 103.44964599609375 102.38639068603516 102.1598129272461 107.98275756835938 113.39429473876953" stroke-width="3.0" fill="none" stroke="rgb(0, 0, 0)" stroke-opacity="1.0" stroke-linecap="round" stroke-linejoin="round"/>
    <path d="M 134.5890350341797 106.77604675292969 C 140.47230529785156 70.26705932617188 136.01864624023438 134.79518127441406 182.90171813964844 86.2080307006836" stroke-width="3.0" fill="none" stroke="rgb(0, 0, 0)" stroke-opacity="1.0" stroke-linecap="round" stroke-linejoin="round"/>
    <path d="M 66.03816986083984 40.618595123291016 C 63.562042236328125 40.73828887939453 56.75621032714844 45.576881408691406 61.110897064208984 43.30669403076172" stroke-width="3.0" fill="none" stroke="rgb(0, 0, 0)" stroke-opacity="1.0" stroke-linecap="round" stroke-linejoin="round"/>
    <path d="M 133.88148498535156 83.89250946044922 C 104.5620346069336 40.881771087646484 111.65397644042969 66.0535888671875 95.64344787597656 45.087398529052734" stroke-width="3.0" fill="none" stroke="rgb(0, 0, 0)" stroke-opacity="1.0" stroke-linecap="round" stroke-linejoin="round"/>
    <path d="M 66.19281768798828 109.21430206298828 C 32.72177505493164 78.2691879272461 57.699222564697266 93.44251251220703 39.5656623840332 72.78536224365234" stroke-width="3.0" fill="none" stroke="rgb(0, 0, 0)" stroke-opacity="1.0" stroke-linecap="round" stroke-linejoin="round"/>
    <path d="M 181.38629150390625 47.85890579223633 C 185.8420867919922 26.367759704589844 194.1915740966797 45.05833435058594 186.10025024414062 83.23068237304688" stroke-width="3.0" fill="none" stroke="rgb(0, 0, 0)" stroke-opacity="1.0" stroke-linecap="round" stroke-linejoin="round"/>
    <path d="M 105.87712860107422 195.7531280517578 C 120.12991333007812 79.3016357421875 125.45840454101562 132.349609375 131.43402099609375 97.74246215820312" stroke-width="3.0" fill="none" stroke="rgb(0, 0, 0)" stroke-opacity="1.0" stroke-linecap="round" stroke-linejoin="round"/>
    <path d="M 45.90595626831055 99.74117279052734 C 25.073196411132812 172.3456268310547 17.220102310180664 121.9375991821289 43.29641342163086 197.52452087402344" stroke-width="3.0" fill="none" stroke="rgb(0, 0, 0)" stroke-opacity="1.0" stroke-linecap="round" stroke-linejoin="round"/>
    <path d="M 63.04717254638672 41.57991409301758 C 97.43868255615234 16.038705825805664 147.3088836669922 110.95866394042969 167.4287567138672 74.66226959228516" stroke-width="3.0" fill="none" stroke="rgb(0, 0, 0)" stroke-opacity="1.0" stroke-linecap="round" stroke-linejoin="round"/>
    <path d="M 46.34041213989258 98.99698638916016 C 78.68673706054688 123.76385498046875 78.23916625976562 112.22856903076172 107.28314208984375 117.4331283569336" stroke-width="3.0" fill="none" stroke="rgb(0, 0, 0)" stroke-opacity="1.0" stroke-linecap="round" stroke-linejoin="round"/>
    <path d="M 20.167551040649414 132.86111450195312 C 9.187837600708008 69.41639709472656 13.195510864257812 84.42061614990234 58.32319641113281 44.605979919433594" stroke-width="3.0" fill="none" stroke="rgb(0, 0, 0)" stroke-opacity="1.0" stroke-linecap="round" stroke-linejoin="round"/>
    <path d="M 176.10203552246094 86.39550018310547 C 200.74627685546875 30.01911735534668 208.33932495117188 39.966365814208984 172.57293701171875 88.66999053955078" stroke-width="3.0" fill="none" stroke="rgb(0, 0, 0)" stroke-opacity="1.0" stroke-linecap="round" stroke-linejoin="round"/>
    <path d="M 106.137939453125 119.8957748413086 C 108.4426040649414 182.5447540283203 75.93614196777344 207.4228057861328 110.07579040527344 191.94662475585938" stroke-width="3.0" fill="none" stroke="rgb(0, 0, 0)" stroke-opacity="1.0" stroke-linecap="round" stroke-linejoin="round"/>
    <path d="M 168.1696014404297 75.12284851074219 C 175.35891723632812 4.98422908782959 216.6822052001953 71.40863800048828 208.84231567382812 49.1326789855957" stroke-width="3.0" fill="none" stroke="rgb(0, 0, 0)" stroke-opacity="1.0" stroke-linecap="round" stroke-linejoin="round"/>
    <path d="M 196.7259979248047 58.667999267578125 C 157.9974822998047 44.81165313720703 254.88671875 50.73888397216797 202.09266662597656 57.621734619140625" stroke-width="3.0" fill="none" stroke="rgb(0, 0, 0)" stroke-opacity="1.0" stroke-linecap="round" stroke-linejoin="round"/>
  </g>
</svg>
