<?xml version="1.0" ?>
<svg xmlns="http://www.w3.org/2000/svg" version="1.1" width="224" height="224">
  <defs/>
  <g>
    <path d="M 131.11734008789062 107.42668151855469 C 124.59232330322266 88.82232666015625 149.50238037109375 137.726318359375 117.93090057373047 69.67813873291016" stroke-width="3.0" fill="none" stroke="rgb(0, 0, 0)" stroke-opacity="1.0" stroke-linecap="round" stroke-linejoin="round"/>
    <path d="M 111.8009033203125 88.82613372802734 C 116.13481140136719 99.5162353515625 104.24745178222656 105.48033142089844 110.13925170898438 112.18582916259766" stroke-width="3.0" fill="none" stroke="rgb(0, 0, 0)" stroke-opacity="1.0" stroke-linecap="round" stroke-linejoin="round"/>
    <path d="M 128.42825317382812 109.07331848144531 C 129.57875061035156 90.40029907226562 156.76287841796875 132.77587890625 190.146240234375 67.61536407470703" stroke-width="3.0" fill="none" stroke="rgb(0, 0, 0)" stroke-opacity="1.0" stroke-linecap="round" stroke-linejoin="round"/>
    <path d="M 62.91116714477539 43.68196105957031 C 64.11001586914062 38.54498291015625 53.133445739746094 47.52882766723633 41.34990692138672 61.21195602416992" stroke-width="3.0" fill="none" stroke="rgb(0, 0, 0)" stroke-opacity="1.0" stroke-linecap="round" stroke-linejoin="round"/>
    <path d="M 139.25689697265625 77.19467163085938 C 104.27310943603516 41.5782356262207 112.29102325439453 67.39742279052734 93.47332000732422 45.52119827270508" stroke-width="3.0" fill="none" stroke="rgb(0, 0, 0)" stroke-opacity="1.0" stroke-linecap="round" stroke-linejoin="round"/>
    <path d="M 66.53466796875 109.74186706542969 C 40.96918869018555 74.50750732421875 60.75312042236328 94.1789321899414 41.50520706176758 71.04913330078125" stroke-width="3.0" fill="none" stroke="rgb(0, 0, 0)" stroke-opacity="1.0" stroke-linecap="round" stroke-linejoin="round"/>
    <path d="M 185.9701385498047 60.559791564941406 C 169.39950561523438 37.122249603271484 195.8405303955078 50.360633850097656 188.36013793945312 80.02861785888672" stroke-width="3.0" fill="none" stroke="rgb(0, 0, 0)" stroke-opacity="1.0" stroke-linecap="round" stroke-linejoin="round"/>
    <path d="M 104.50531768798828 192.5441131591797 C 113.64849853515625 101.06101989746094 123.09274291992188 133.8995361328125 126.41048431396484 98.57638549804688" stroke-width="3.0" fill="none" stroke="rgb(0, 0, 0)" stroke-opacity="1.0" stroke-linecap="round" stroke-linejoin="round"/>
    <path d="M 47.3332405090332 99.11946868896484 C 26.81166648864746 180.69253540039062 16.74016761779785 129.98492431640625 41.263484954833984 199.6092529296875" stroke-width="3.0" fill="none" stroke="rgb(0, 0, 0)" stroke-opacity="1.0" stroke-linecap="round" stroke-linejoin="round"/>
    <path d="M 62.418983459472656 42.69514465332031 C 99.64446258544922 15.753531455993652 154.0006103515625 136.13607788085938 177.1951141357422 53.2816047668457" stroke-width="3.0" fill="none" stroke="rgb(0, 0, 0)" stroke-opacity="1.0" stroke-linecap="round" stroke-linejoin="round"/>
    <path d="M 49.99636459350586 96.66280364990234 C 81.39051055908203 125.62042236328125 77.33668518066406 112.2239761352539 104.6202621459961 118.66452026367188" stroke-width="3.0" fill="none" stroke="rgb(0, 0, 0)" stroke-opacity="1.0" stroke-linecap="round" stroke-linejoin="round"/>
    <path d="M 18.164567947387695 142.6836700439453 C 23.33729362487793 97.203125 -4.587774276733398 86.99822998046875 55.01938247680664 52.07078170776367" stroke-width="3.0" fill="none" stroke="rgb(0, 0, 0)" stroke-opacity="1.0" stroke-linecap="round" stroke-linejoin="round"/>
    <path d="M 173.35289001464844 86.454833984375 C 191.91091918945312 19.967361450195312 207.95077514648438 28.952022552490234 166.74386596679688 97.916748046875" stroke-width="3.0" fill="none" stroke="rgb(0, 0, 0)" stroke-opacity="1.0" stroke-linecap="round" stroke-linejoin="round"/>
    <path d="M 105.20873260498047 115.23294067382812 C 109.38666534423828 183.54026794433594 83.97479248046875 199.4211883544922 110.39265441894531 188.39190673828125" stroke-width="3.0" fill="none" stroke="rgb(0, 0, 0)" stroke-opacity="1.0" stroke-linecap="round" stroke-linejoin="round"/>
    <path d="M 169.16627502441406 73.4135513305664 C 178.70553588867188 3.1419382095336914 215.0055694580078 77.02894592285156 205.59580993652344 50.2905158996582" stroke-width="3.0" fill="none" stroke="rgb(0, 0, 0)" stroke-opacity="1.0" stroke-linecap="round" stroke-linejoin="round"/>
    <path d="M 194.3907470703125 63.24349594116211 C 153.36927795410156 44.42833709716797 254.3668212890625 43.69031524658203 197.14308166503906 60.74661636352539" stroke-width="3.0" fill="none" stroke="rgb(0, 0, 0)" stroke-opacity="1.0" stroke-linecap="round" stroke-linejoin="round"/>
  </g>
</svg>
