<?xml version="1.0" ?>
<svg xmlns="http://www.w3.org/2000/svg" version="1.1" width="224" height="224">
  <defs/>
  <g>
    <path d="M 173.10240173339844 89.19156646728516 C 137.3715362548828 78.89344787597656 102.26690673828125 89.85150146484375 146.52230834960938 83.75296020507812" stroke-width="3.0" fill="none" stroke="rgb(0, 0, 0)" stroke-opacity="1.0" stroke-linecap="round" stroke-linejoin="round"/>
    <path d="M 173.2027130126953 89.69770050048828 C 172.38198852539062 97.1175308227539 194.98287963867188 91.40229797363281 158.933837890625 110.19943237304688" stroke-width="3.0" fill="none" stroke="rgb(0, 0, 0)" stroke-opacity="1.0" stroke-linecap="round" stroke-linejoin="round"/>
    <path d="M 45.25846862792969 39.0369987487793 C 7.471926689147949 58.436771392822266 83.71209716796875 130.80580139160156 89.36207580566406 71.90953826904297" stroke-width="3.0" fill="none" stroke="rgb(0, 0, 0)" stroke-opacity="1.0" stroke-linecap="round" stroke-linejoin="round"/>
    <path d="M 103.10515594482422 70.99262237548828 C 143.33421325683594 69.12399291992188 181.67604064941406 75.16590118408203 105.63096618652344 94.44145965576172" stroke-width="3.0" fill="none" stroke="rgb(0, 0, 0)" stroke-opacity="1.0" stroke-linecap="round" stroke-linejoin="round"/>
    <path d="M 157.82789611816406 84.87012481689453 C 213.59100341796875 102.96172332763672 170.83395385742188 97.15717315673828 185.4942169189453 97.88374328613281" stroke-width="3.0" fill="none" stroke="rgb(0, 0, 0)" stroke-opacity="1.0" stroke-linecap="round" stroke-linejoin="round"/>
    <path d="M 144.61854553222656 55.482181549072266 C 121.2308120727539 75.2926025390625 68.80255889892578 99.70609283447266 89.52356719970703 59.78033447265625" stroke-width="3.0" fill="none" stroke="rgb(0, 0, 0)" stroke-opacity="1.0" stroke-linecap="round" stroke-linejoin="round"/>
    <path d="M 147.05780029296875 65.99143981933594 C 132.0712890625 66.86436462402344 156.39564514160156 47.277252197265625 190.5850372314453 94.49236297607422" stroke-width="3.0" fill="none" stroke="rgb(0, 0, 0)" stroke-opacity="1.0" stroke-linecap="round" stroke-linejoin="round"/>
    <path d="M 81.9889907836914 89.72059631347656 C 117.58592224121094 101.4193115234375 106.67735290527344 80.95606231689453 122.30339050292969 137.1909637451172" stroke-width="3.0" fill="none" stroke="rgb(0, 0, 0)" stroke-opacity="1.0" stroke-linecap="round" stroke-linejoin="round"/>
    <path d="M 141.12245178222656 111.4916000366211 C 113.39554595947266 174.57028198242188 135.71949768066406 100.26484680175781 104.53129577636719 206.0729522705078" stroke-width="3.0" fill="none" stroke="rgb(0, 0, 0)" stroke-opacity="1.0" stroke-linecap="round" stroke-linejoin="round"/>
    <path d="M 132.2249755859375 46.059879302978516 C 147.35414123535156 52.33784484863281 88.75442504882812 30.458717346191406 77.20255279541016 84.69391632080078" stroke-width="3.0" fill="none" stroke="rgb(0, 0, 0)" stroke-opacity="1.0" stroke-linecap="round" stroke-linejoin="round"/>
    <path d="M 104.26327514648438 61.59572982788086 C 154.79806518554688 54.76156234741211 130.52947998046875 58.71562957763672 172.98019409179688 84.0196762084961" stroke-width="3.0" fill="none" stroke="rgb(0, 0, 0)" stroke-opacity="1.0" stroke-linecap="round" stroke-linejoin="round"/>
    <path d="M 178.38150024414062 83.5453109741211 C 146.78875732421875 62.309818267822266 173.75479125976562 83.64655303955078 146.16476440429688 80.2829360961914" stroke-width="3.0" fill="none" stroke="rgb(0, 0, 0)" stroke-opacity="1.0" stroke-linecap="round" stroke-linejoin="round"/>
    <path d="M 144.1726531982422 64.11163330078125 C 140.84092712402344 68.32171630859375 149.58570861816406 55.94963073730469 147.34263610839844 61.255733489990234" stroke-width="3.0" fill="none" stroke="rgb(0, 0, 0)" stroke-opacity="1.0" stroke-linecap="round" stroke-linejoin="round"/>
    <path d="M 122.38532257080078 132.1802520751953 C 131.7897186279297 143.8279571533203 126.28996276855469 107.23931884765625 113.0401840209961 145.15142822265625" stroke-width="3.0" fill="none" stroke="rgb(0, 0, 0)" stroke-opacity="1.0" stroke-linecap="round" stroke-linejoin="round"/>
    <path d="M 145.2784881591797 60.790496826171875 C 166.04751586914062 64.23822784423828 129.7501678466797 50.24379348754883 152.70449829101562 61.80470275878906" stroke-width="3.0" fill="none" stroke="rgb(0, 0, 0)" stroke-opacity="1.0" stroke-linecap="round" stroke-linejoin="round"/>
    <path d="M 142.7744140625 53.50138473510742 C 124.87220764160156 49.03659439086914 158.2774658203125 55.95652770996094 146.14060974121094 61.47895812988281" stroke-width="3.0" fill="none" stroke="rgb(0, 0, 0)" stroke-opacity="1.0" stroke-linecap="round" stroke-linejoin="round"/>
  </g>
</svg>
