<?xml version="1.0" ?>
<svg xmlns="http://www.w3.org/2000/svg" version="1.1" width="224" height="224">
  <defs/>
  <g>
    <path d="M 162.54522705078125 89.4705810546875 C 138.90240478515625 88.35492706298828 101.47225952148438 87.67607116699219 144.20816040039062 79.32675170898438" stroke-width="3.0" fill="none" stroke="rgb(0, 0, 0)" stroke-opacity="1.0" stroke-linecap="round" stroke-linejoin="round"/>
    <path d="M 178.8231658935547 93.6518783569336 C 165.4821319580078 98.05908203125 189.04624938964844 88.52130889892578 161.25645446777344 108.46760559082031" stroke-width="3.0" fill="none" stroke="rgb(0, 0, 0)" stroke-opacity="1.0" stroke-linecap="round" stroke-linejoin="round"/>
    <path d="M 49.40806579589844 37.49442672729492 C 16.394594192504883 77.77627563476562 86.66012573242188 124.84539794921875 80.20310974121094 64.10089874267578" stroke-width="3.0" fill="none" stroke="rgb(0, 0, 0)" stroke-opacity="1.0" stroke-linecap="round" stroke-linejoin="round"/>
    <path d="M 110.36429595947266 80.54347229003906 C 131.77752685546875 84.88923645019531 178.21388244628906 92.7816390991211 102.08434295654297 88.36962127685547" stroke-width="3.0" fill="none" stroke="rgb(0, 0, 0)" stroke-opacity="1.0" stroke-linecap="round" stroke-linejoin="round"/>
    <path d="M 170.58653259277344 89.89418029785156 C 205.7791290283203 102.81632995605469 171.36697387695312 96.38260650634766 183.81521606445312 98.77178955078125" stroke-width="3.0" fill="none" stroke="rgb(0, 0, 0)" stroke-opacity="1.0" stroke-linecap="round" stroke-linejoin="round"/>
    <path d="M 150.63214111328125 66.9964599609375 C 116.48412322998047 78.35100555419922 49.10602951049805 98.67251586914062 94.24215698242188 54.89604568481445" stroke-width="3.0" fill="none" stroke="rgb(0, 0, 0)" stroke-opacity="1.0" stroke-linecap="round" stroke-linejoin="round"/>
    <path d="M 139.9222869873047 61.124786376953125 C 148.1595001220703 77.4765396118164 142.3345489501953 39.84187316894531 190.1781768798828 95.62350463867188" stroke-width="3.0" fill="none" stroke="rgb(0, 0, 0)" stroke-opacity="1.0" stroke-linecap="round" stroke-linejoin="round"/>
    <path d="M 78.43790435791016 84.30487823486328 C 125.26529693603516 97.17924499511719 109.5281753540039 85.6278305053711 124.25717163085938 134.09274291992188" stroke-width="3.0" fill="none" stroke="rgb(0, 0, 0)" stroke-opacity="1.0" stroke-linecap="round" stroke-linejoin="round"/>
    <path d="M 135.18052673339844 116.09703063964844 C 120.57658386230469 169.9579620361328 130.94224548339844 99.50727081298828 103.62740325927734 204.9011688232422" stroke-width="3.0" fill="none" stroke="rgb(0, 0, 0)" stroke-opacity="1.0" stroke-linecap="round" stroke-linejoin="round"/>
    <path d="M 136.0936737060547 50.70109176635742 C 139.080322265625 53.86867141723633 81.47396087646484 22.171167373657227 66.5794906616211 82.64339447021484" stroke-width="3.0" fill="none" stroke="rgb(0, 0, 0)" stroke-opacity="1.0" stroke-linecap="round" stroke-linejoin="round"/>
    <path d="M 107.08792114257812 79.68273162841797 C 146.3468780517578 63.47267150878906 114.2842788696289 76.82721710205078 175.4551544189453 94.05919647216797" stroke-width="3.0" fill="none" stroke="rgb(0, 0, 0)" stroke-opacity="1.0" stroke-linecap="round" stroke-linejoin="round"/>
    <path d="M 177.67672729492188 88.45025634765625 C 143.69557189941406 74.70834350585938 169.3947296142578 83.54334259033203 150.911865234375 72.79500579833984" stroke-width="3.0" fill="none" stroke="rgb(0, 0, 0)" stroke-opacity="1.0" stroke-linecap="round" stroke-linejoin="round"/>
    <path d="M 144.91200256347656 60.43252182006836 C 143.53819274902344 71.92879486083984 151.0701446533203 57.28386688232422 147.6870574951172 61.32514572143555" stroke-width="3.0" fill="none" stroke="rgb(0, 0, 0)" stroke-opacity="1.0" stroke-linecap="round" stroke-linejoin="round"/>
    <path d="M 129.9048614501953 135.34054565429688 C 129.99705505371094 142.29673767089844 123.22122192382812 110.2255630493164 117.64653778076172 141.15126037597656" stroke-width="3.0" fill="none" stroke="rgb(0, 0, 0)" stroke-opacity="1.0" stroke-linecap="round" stroke-linejoin="round"/>
    <path d="M 141.2803497314453 61.92528533935547 C 166.80294799804688 64.50045013427734 133.9056396484375 53.238162994384766 152.125244140625 69.26578521728516" stroke-width="3.0" fill="none" stroke="rgb(0, 0, 0)" stroke-opacity="1.0" stroke-linecap="round" stroke-linejoin="round"/>
    <path d="M 140.47215270996094 50.50447463989258 C 123.76824188232422 53.30443572998047 157.61888122558594 52.89999008178711 145.94956970214844 64.32144165039062" stroke-width="3.0" fill="none" stroke="rgb(0, 0, 0)" stroke-opacity="1.0" stroke-linecap="round" stroke-linejoin="round"/>
  </g>
</svg>
