<?xml version="1.0" ?>
<svg xmlns="http://www.w3.org/2000/svg" version="1.1" width="224" height="224">
  <defs/>
  <g>
    <path d="M 179.77032470703125 89.24127197265625 C 126.58102416992188 78.03883361816406 40.35980224609375 112.1464614868164 136.15682983398438 70.10260772705078" stroke-width="3.0" fill="none" stroke="rgb(0, 0, 0)" stroke-opacity="1.0" stroke-linecap="round" stroke-linejoin="round"/>
    <path d="M 188.189208984375 97.80106353759766 C 171.33872985839844 90.83782958984375 196.06495666503906 89.02410888671875 139.32858276367188 117.53199768066406" stroke-width="3.0" fill="none" stroke="rgb(0, 0, 0)" stroke-opacity="1.0" stroke-linecap="round" stroke-linejoin="round"/>
    <path d="M 50.67779541015625 37.71624755859375 C 7.243269920349121 34.63275909423828 69.12908172607422 123.07467651367188 74.59049224853516 59.816650390625" stroke-width="3.0" fill="none" stroke="rgb(0, 0, 0)" stroke-opacity="1.0" stroke-linecap="round" stroke-linejoin="round"/>
    <path d="M 105.69124603271484 63.13563537597656 C 167.43052673339844 62.85063552856445 215.61126708984375 77.60623931884766 91.07128143310547 89.53994750976562" stroke-width="3.0" fill="none" stroke="rgb(0, 0, 0)" stroke-opacity="1.0" stroke-linecap="round" stroke-linejoin="round"/>
    <path d="M 146.25035095214844 67.47648620605469 C 218.6629638671875 102.89342498779297 177.4010009765625 96.69062805175781 189.10256958007812 96.35873413085938" stroke-width="3.0" fill="none" stroke="rgb(0, 0, 0)" stroke-opacity="1.0" stroke-linecap="round" stroke-linejoin="round"/>
    <path d="M 139.1840362548828 55.86288070678711 C 105.82044982910156 57.2110595703125 50.65779113769531 108.0448226928711 79.30667877197266 59.93284606933594" stroke-width="3.0" fill="none" stroke="rgb(0, 0, 0)" stroke-opacity="1.0" stroke-linecap="round" stroke-linejoin="round"/>
    <path d="M 157.5752716064453 81.59093475341797 C 100.80614471435547 48.874061584472656 162.30311584472656 46.3421630859375 190.1031494140625 95.23251342773438" stroke-width="3.0" fill="none" stroke="rgb(0, 0, 0)" stroke-opacity="1.0" stroke-linecap="round" stroke-linejoin="round"/>
    <path d="M 78.36177825927734 84.50843048095703 C 125.8708267211914 92.23802185058594 112.65171813964844 87.28246307373047 122.38191223144531 141.92214965820312" stroke-width="3.0" fill="none" stroke="rgb(0, 0, 0)" stroke-opacity="1.0" stroke-linecap="round" stroke-linejoin="round"/>
    <path d="M 127.9111557006836 90.07178497314453 C 119.80597686767578 201.9962615966797 131.5635528564453 93.73155212402344 106.42455291748047 205.09141540527344" stroke-width="3.0" fill="none" stroke="rgb(0, 0, 0)" stroke-opacity="1.0" stroke-linecap="round" stroke-linejoin="round"/>
    <path d="M 126.99583435058594 47.37443161010742 C 133.8405303955078 52.43999099731445 74.00457763671875 24.22586441040039 72.46876525878906 83.82581329345703" stroke-width="3.0" fill="none" stroke="rgb(0, 0, 0)" stroke-opacity="1.0" stroke-linecap="round" stroke-linejoin="round"/>
    <path d="M 105.95563507080078 55.71213912963867 C 156.5484161376953 38.42156982421875 137.92845153808594 55.78993225097656 170.63414001464844 81.43521881103516" stroke-width="3.0" fill="none" stroke="rgb(0, 0, 0)" stroke-opacity="1.0" stroke-linecap="round" stroke-linejoin="round"/>
    <path d="M 163.3942108154297 85.48137664794922 C 143.6055908203125 65.74583435058594 206.53628540039062 98.46842193603516 149.26463317871094 67.52178192138672" stroke-width="3.0" fill="none" stroke="rgb(0, 0, 0)" stroke-opacity="1.0" stroke-linecap="round" stroke-linejoin="round"/>
    <path d="M 151.5830078125 65.8787841796875 C 149.98736572265625 80.64888763427734 158.34747314453125 64.13753509521484 151.3994903564453 61.96204376220703" stroke-width="3.0" fill="none" stroke="rgb(0, 0, 0)" stroke-opacity="1.0" stroke-linecap="round" stroke-linejoin="round"/>
    <path d="M 124.87069702148438 121.4439697265625 C 151.2560577392578 154.52566528320312 138.09829711914062 106.60492706298828 118.31680297851562 145.9491729736328" stroke-width="3.0" fill="none" stroke="rgb(0, 0, 0)" stroke-opacity="1.0" stroke-linecap="round" stroke-linejoin="round"/>
    <path d="M 137.89511108398438 68.55180358886719 C 168.86485290527344 70.1313705444336 140.15304565429688 48.129127502441406 153.9440460205078 66.13594055175781" stroke-width="3.0" fill="none" stroke="rgb(0, 0, 0)" stroke-opacity="1.0" stroke-linecap="round" stroke-linejoin="round"/>
    <path d="M 139.9807891845703 48.98198699951172 C 125.1036605834961 49.42605972290039 154.57420349121094 60.22724533081055 145.3336639404297 56.603755950927734" stroke-width="3.0" fill="none" stroke="rgb(0, 0, 0)" stroke-opacity="1.0" stroke-linecap="round" stroke-linejoin="round"/>
  </g>
</svg>
