<?xml version="1.0" ?>
<svg xmlns="http://www.w3.org/2000/svg" version="1.1" width="224" height="224">
  <defs/>
  <g>
    <path d="M 181.15542602539062 92.04358673095703 C 159.281005859375 85.51933288574219 33.052982330322266 99.41071319580078 124.71149444580078 67.8530502319336" stroke-width="3.0" fill="none" stroke="rgb(0, 0, 0)" stroke-opacity="1.0" stroke-linecap="round" stroke-linejoin="round"/>
    <path d="M 177.8414764404297 95.53329467773438 C 174.55126953125 95.51683044433594 204.65896606445312 89.51768493652344 134.10238647460938 119.65142059326172" stroke-width="3.0" fill="none" stroke="rgb(0, 0, 0)" stroke-opacity="1.0" stroke-linecap="round" stroke-linejoin="round"/>
    <path d="M 57.79887008666992 42.511112213134766 C 9.27559757232666 28.879131317138672 60.34714889526367 127.9964828491211 81.63644409179688 63.964134216308594" stroke-width="3.0" fill="none" stroke="rgb(0, 0, 0)" stroke-opacity="1.0" stroke-linecap="round" stroke-linejoin="round"/>
    <path d="M 98.19051361083984 61.83293914794922 C 145.67361450195312 69.33320617675781 202.45399475097656 100.44950866699219 105.35650634765625 77.84783172607422" stroke-width="3.0" fill="none" stroke="rgb(0, 0, 0)" stroke-opacity="1.0" stroke-linecap="round" stroke-linejoin="round"/>
    <path d="M 130.46438598632812 74.1780776977539 C 206.0109405517578 101.87532043457031 171.17649841308594 96.83976745605469 181.10372924804688 95.3212661743164" stroke-width="3.0" fill="none" stroke="rgb(0, 0, 0)" stroke-opacity="1.0" stroke-linecap="round" stroke-linejoin="round"/>
    <path d="M 104.95243072509766 52.65665817260742 C 108.58419036865234 57.16146469116211 34.60821533203125 137.75741577148438 72.40904998779297 92.72384643554688" stroke-width="3.0" fill="none" stroke="rgb(0, 0, 0)" stroke-opacity="1.0" stroke-linecap="round" stroke-linejoin="round"/>
    <path d="M 142.03114318847656 80.9299087524414 C 1.9034900665283203 66.08562469482422 149.56776428222656 25.982452392578125 190.3462371826172 95.89568328857422" stroke-width="3.0" fill="none" stroke="rgb(0, 0, 0)" stroke-opacity="1.0" stroke-linecap="round" stroke-linejoin="round"/>
    <path d="M 89.18585968017578 77.45958709716797 C 111.52821350097656 111.7589340209961 110.2765884399414 68.99525451660156 119.2169418334961 148.6460723876953" stroke-width="3.0" fill="none" stroke="rgb(0, 0, 0)" stroke-opacity="1.0" stroke-linecap="round" stroke-linejoin="round"/>
    <path d="M 125.55428314208984 91.74798583984375 C 119.19602966308594 206.27294921875 129.00360107421875 93.93782806396484 106.9776382446289 207.16810607910156" stroke-width="3.0" fill="none" stroke="rgb(0, 0, 0)" stroke-opacity="1.0" stroke-linecap="round" stroke-linejoin="round"/>
    <path d="M 152.80691528320312 60.501670837402344 C 134.56219482421875 49.224159240722656 88.4219741821289 21.08915901184082 83.85087585449219 84.12177276611328" stroke-width="3.0" fill="none" stroke="rgb(0, 0, 0)" stroke-opacity="1.0" stroke-linecap="round" stroke-linejoin="round"/>
    <path d="M 90.79024505615234 57.091590881347656 C 139.93624877929688 33.875274658203125 143.9573211669922 54.65101623535156 174.393798828125 80.57929992675781" stroke-width="3.0" fill="none" stroke="rgb(0, 0, 0)" stroke-opacity="1.0" stroke-linecap="round" stroke-linejoin="round"/>
    <path d="M 164.02418518066406 75.05619049072266 C 158.108154296875 89.16458129882812 242.45681762695312 130.85137939453125 144.08253479003906 55.59494400024414" stroke-width="3.0" fill="none" stroke="rgb(0, 0, 0)" stroke-opacity="1.0" stroke-linecap="round" stroke-linejoin="round"/>
    <path d="M 150.465576171875 66.86024475097656 C 193.6335906982422 100.75836181640625 180.7835693359375 75.96312713623047 132.82159423828125 59.3133430480957" stroke-width="3.0" fill="none" stroke="rgb(0, 0, 0)" stroke-opacity="1.0" stroke-linecap="round" stroke-linejoin="round"/>
    <path d="M 122.45877075195312 120.21711730957031 C 145.291748046875 151.46493530273438 135.43785095214844 108.16142272949219 116.3166275024414 143.43568420410156" stroke-width="3.0" fill="none" stroke="rgb(0, 0, 0)" stroke-opacity="1.0" stroke-linecap="round" stroke-linejoin="round"/>
    <path d="M 118.78833770751953 80.37400817871094 C 180.87210083007812 108.64594268798828 139.19544982910156 55.24153137207031 136.7294464111328 60.508056640625" stroke-width="3.0" fill="none" stroke="rgb(0, 0, 0)" stroke-opacity="1.0" stroke-linecap="round" stroke-linejoin="round"/>
    <path d="M 140.68719482421875 70.37718963623047 C 96.24852752685547 42.97709655761719 169.35157775878906 68.43258666992188 127.15626525878906 46.996246337890625" stroke-width="3.0" fill="none" stroke="rgb(0, 0, 0)" stroke-opacity="1.0" stroke-linecap="round" stroke-linejoin="round"/>
  </g>
</svg>
