<?xml version="1.0" ?>
<svg xmlns="http://www.w3.org/2000/svg" version="1.1" width="224" height="224">
  <defs/>
  <g>
    <path d="M 183.96624755859375 98.1761474609375 C 152.3065643310547 83.07833099365234 53.46932601928711 98.26307678222656 128.03489685058594 81.5843505859375" stroke-width="3.0" fill="none" stroke="rgb(0, 0, 0)" stroke-opacity="1.0" stroke-linecap="round" stroke-linejoin="round"/>
    <path d="M 188.21632385253906 99.20970916748047 C 174.31056213378906 97.27582550048828 202.75863647460938 92.11708068847656 130.4625701904297 123.99418640136719" stroke-width="3.0" fill="none" stroke="rgb(0, 0, 0)" stroke-opacity="1.0" stroke-linecap="round" stroke-linejoin="round"/>
    <path d="M 58.71702575683594 41.925682067871094 C 7.990865707397461 38.91539764404297 69.10734558105469 126.68284606933594 70.65794372558594 65.63751220703125" stroke-width="3.0" fill="none" stroke="rgb(0, 0, 0)" stroke-opacity="1.0" stroke-linecap="round" stroke-linejoin="round"/>
    <path d="M 100.15145874023438 67.89697265625 C 154.87757873535156 64.5484390258789 206.04837036132812 87.59446716308594 99.11251831054688 78.89368438720703" stroke-width="3.0" fill="none" stroke="rgb(0, 0, 0)" stroke-opacity="1.0" stroke-linecap="round" stroke-linejoin="round"/>
    <path d="M 146.12054443359375 73.93334197998047 C 211.77728271484375 99.78961944580078 171.1112060546875 101.02986907958984 190.0841827392578 96.98904418945312" stroke-width="3.0" fill="none" stroke="rgb(0, 0, 0)" stroke-opacity="1.0" stroke-linecap="round" stroke-linejoin="round"/>
    <path d="M 127.37706756591797 51.171531677246094 C 97.26622009277344 55.09897232055664 32.73065185546875 131.39981079101562 69.70586395263672 75.72940826416016" stroke-width="3.0" fill="none" stroke="rgb(0, 0, 0)" stroke-opacity="1.0" stroke-linecap="round" stroke-linejoin="round"/>
    <path d="M 146.68658447265625 79.28681182861328 C 34.10015106201172 53.01249694824219 147.5209197998047 38.81682205200195 191.25538635253906 93.1118392944336" stroke-width="3.0" fill="none" stroke="rgb(0, 0, 0)" stroke-opacity="1.0" stroke-linecap="round" stroke-linejoin="round"/>
    <path d="M 77.56885528564453 74.5288314819336 C 124.5003890991211 99.67748260498047 113.69644165039062 85.70466613769531 121.9354019165039 144.39523315429688" stroke-width="3.0" fill="none" stroke="rgb(0, 0, 0)" stroke-opacity="1.0" stroke-linecap="round" stroke-linejoin="round"/>
    <path d="M 127.45781707763672 92.96114349365234 C 114.28968048095703 210.24551391601562 130.19418334960938 97.56249237060547 105.88679504394531 202.5094757080078" stroke-width="3.0" fill="none" stroke="rgb(0, 0, 0)" stroke-opacity="1.0" stroke-linecap="round" stroke-linejoin="round"/>
    <path d="M 132.73814392089844 47.94012451171875 C 143.38502502441406 49.29288864135742 83.1949691772461 27.63630485534668 78.42546844482422 81.23411560058594" stroke-width="3.0" fill="none" stroke="rgb(0, 0, 0)" stroke-opacity="1.0" stroke-linecap="round" stroke-linejoin="round"/>
    <path d="M 103.07987213134766 54.48784255981445 C 138.73983764648438 35.25254440307617 142.0553741455078 57.65622329711914 172.72161865234375 82.52515411376953" stroke-width="3.0" fill="none" stroke="rgb(0, 0, 0)" stroke-opacity="1.0" stroke-linecap="round" stroke-linejoin="round"/>
    <path d="M 158.11851501464844 77.2980728149414 C 141.16006469726562 70.45197296142578 214.99591064453125 112.00868225097656 146.65988159179688 61.29602813720703" stroke-width="3.0" fill="none" stroke="rgb(0, 0, 0)" stroke-opacity="1.0" stroke-linecap="round" stroke-linejoin="round"/>
    <path d="M 161.2556915283203 71.09771728515625 C 166.78927612304688 94.62451171875 162.79095458984375 76.24349212646484 146.9443817138672 64.69861602783203" stroke-width="3.0" fill="none" stroke="rgb(0, 0, 0)" stroke-opacity="1.0" stroke-linecap="round" stroke-linejoin="round"/>
    <path d="M 124.55615997314453 126.88246154785156 C 138.77442932128906 171.53868103027344 138.03709411621094 111.9355239868164 117.5363998413086 150.02230834960938" stroke-width="3.0" fill="none" stroke="rgb(0, 0, 0)" stroke-opacity="1.0" stroke-linecap="round" stroke-linejoin="round"/>
    <path d="M 141.48902893066406 65.57794189453125 C 186.544921875 89.79841613769531 146.15682983398438 53.909610748291016 153.63528442382812 65.4714584350586" stroke-width="3.0" fill="none" stroke="rgb(0, 0, 0)" stroke-opacity="1.0" stroke-linecap="round" stroke-linejoin="round"/>
    <path d="M 141.17953491210938 67.18195343017578 C 113.23958587646484 48.1114616394043 152.17279052734375 66.29737091064453 132.96533203125 61.175724029541016" stroke-width="3.0" fill="none" stroke="rgb(0, 0, 0)" stroke-opacity="1.0" stroke-linecap="round" stroke-linejoin="round"/>
  </g>
</svg>
