<?xml version="1.0" ?>
<svg xmlns="http://www.w3.org/2000/svg" version="1.1" width="224" height="224">
  <defs/>
  <g>
    <path d="M 152.51979064941406 76.2652587890625 C 142.87753295898438 95.92918395996094 116.21525573730469 100.4523696899414 141.12646484375 87.86089324951172" stroke-width="3.0" fill="none" stroke="rgb(0, 0, 0)" stroke-opacity="1.0" stroke-linecap="round" stroke-linejoin="round"/>
    <path d="M 175.0406951904297 100.64087677001953 C 188.53024291992188 91.41595458984375 193.8813934326172 99.93976593017578 151.71690368652344 112.34469604492188" stroke-width="3.0" fill="none" stroke="rgb(0, 0, 0)" stroke-opacity="1.0" stroke-linecap="round" stroke-linejoin="round"/>
    <path d="M 63.41337966918945 42.020835876464844 C 40.53675842285156 96.74844360351562 72.13998413085938 120.47382354736328 102.59175872802734 77.75957489013672" stroke-width="3.0" fill="none" stroke="rgb(0, 0, 0)" stroke-opacity="1.0" stroke-linecap="round" stroke-linejoin="round"/>
    <path d="M 125.60137176513672 94.0435562133789 C 112.03713989257812 87.05563354492188 158.51756286621094 97.73580932617188 98.1557846069336 93.13241577148438" stroke-width="3.0" fill="none" stroke="rgb(0, 0, 0)" stroke-opacity="1.0" stroke-linecap="round" stroke-linejoin="round"/>
    <path d="M 175.6236114501953 101.34858703613281 C 190.62710571289062 93.51612091064453 178.27577209472656 96.52584838867188 187.4531707763672 86.57345581054688" stroke-width="3.0" fill="none" stroke="rgb(0, 0, 0)" stroke-opacity="1.0" stroke-linecap="round" stroke-linejoin="round"/>
    <path d="M 142.02610778808594 56.309425354003906 C 134.85801696777344 97.4739761352539 86.84851837158203 119.38040161132812 118.512451171875 65.84173583984375" stroke-width="3.0" fill="none" stroke="rgb(0, 0, 0)" stroke-opacity="1.0" stroke-linecap="round" stroke-linejoin="round"/>
    <path d="M 140.1838836669922 51.39607620239258 C 163.06814575195312 86.90609741210938 133.94529724121094 44.961551666259766 172.892333984375 82.11872863769531" stroke-width="3.0" fill="none" stroke="rgb(0, 0, 0)" stroke-opacity="1.0" stroke-linecap="round" stroke-linejoin="round"/>
    <path d="M 84.04971313476562 103.17521667480469 C 119.64576721191406 84.83851623535156 106.80243682861328 86.99156951904297 121.98541259765625 136.01539611816406" stroke-width="3.0" fill="none" stroke="rgb(0, 0, 0)" stroke-opacity="1.0" stroke-linecap="round" stroke-linejoin="round"/>
    <path d="M 138.15953063964844 123.51542663574219 C 114.23065185546875 172.60484313964844 132.96339416503906 127.35235595703125 105.81121063232422 205.68692016601562" stroke-width="3.0" fill="none" stroke="rgb(0, 0, 0)" stroke-opacity="1.0" stroke-linecap="round" stroke-linejoin="round"/>
    <path d="M 119.62383270263672 54.54255676269531 C 139.63807678222656 61.26508712768555 107.0764389038086 38.464500427246094 91.33106231689453 96.5589599609375" stroke-width="3.0" fill="none" stroke="rgb(0, 0, 0)" stroke-opacity="1.0" stroke-linecap="round" stroke-linejoin="round"/>
    <path d="M 129.9417266845703 91.88944244384766 C 156.62648010253906 75.5755615234375 132.58523559570312 76.88661193847656 160.19900512695312 72.30016326904297" stroke-width="3.0" fill="none" stroke="rgb(0, 0, 0)" stroke-opacity="1.0" stroke-linecap="round" stroke-linejoin="round"/>
    <path d="M 157.68438720703125 72.17686462402344 C 151.3260498046875 76.87996673583984 149.4744873046875 105.76313018798828 148.46243286132812 63.222103118896484" stroke-width="3.0" fill="none" stroke="rgb(0, 0, 0)" stroke-opacity="1.0" stroke-linecap="round" stroke-linejoin="round"/>
    <path d="M 139.43423461914062 62.191890716552734 C 122.34877014160156 80.0949478149414 143.02017211914062 66.1600570678711 145.5674591064453 63.64494323730469" stroke-width="3.0" fill="none" stroke="rgb(0, 0, 0)" stroke-opacity="1.0" stroke-linecap="round" stroke-linejoin="round"/>
    <path d="M 122.83646392822266 140.89202880859375 C 126.81398010253906 145.77230834960938 137.55014038085938 103.50527954101562 114.25736236572266 143.48081970214844" stroke-width="3.0" fill="none" stroke="rgb(0, 0, 0)" stroke-opacity="1.0" stroke-linecap="round" stroke-linejoin="round"/>
    <path d="M 143.97901916503906 61.682125091552734 C 148.6215362548828 59.257911682128906 125.10554504394531 48.82630920410156 141.74264526367188 56.50075149536133" stroke-width="3.0" fill="none" stroke="rgb(0, 0, 0)" stroke-opacity="1.0" stroke-linecap="round" stroke-linejoin="round"/>
    <path d="M 126.3821029663086 52.292633056640625 C 121.27690887451172 54.02976989746094 154.40240478515625 38.50373077392578 142.3268280029297 61.99477767944336" stroke-width="3.0" fill="none" stroke="rgb(0, 0, 0)" stroke-opacity="1.0" stroke-linecap="round" stroke-linejoin="round"/>
  </g>
</svg>
