<?xml version="1.0" ?>
<svg xmlns="http://www.w3.org/2000/svg" version="1.1" width="224" height="224">
  <defs/>
  <g>
    <path d="M 154.46621704101562 70.24618530273438 C 145.0983123779297 89.67875671386719 115.43553924560547 88.99014282226562 142.06846618652344 85.07019805908203" stroke-width="3.0" fill="none" stroke="rgb(0, 0, 0)" stroke-opacity="1.0" stroke-linecap="round" stroke-linejoin="round"/>
    <path d="M 181.12966918945312 88.44918823242188 C 163.2432861328125 81.4947280883789 183.8135528564453 92.43278503417969 165.6310272216797 108.08335876464844" stroke-width="3.0" fill="none" stroke="rgb(0, 0, 0)" stroke-opacity="1.0" stroke-linecap="round" stroke-linejoin="round"/>
    <path d="M 64.71502685546875 46.37374496459961 C 35.925575256347656 91.9242172241211 75.25127410888672 119.06098175048828 102.84886169433594 80.88050842285156" stroke-width="3.0" fill="none" stroke="rgb(0, 0, 0)" stroke-opacity="1.0" stroke-linecap="round" stroke-linejoin="round"/>
    <path d="M 121.65460205078125 90.04227447509766 C 112.41230773925781 78.86991882324219 158.7437286376953 94.69166564941406 87.3520278930664 92.01560974121094" stroke-width="3.0" fill="none" stroke="rgb(0, 0, 0)" stroke-opacity="1.0" stroke-linecap="round" stroke-linejoin="round"/>
    <path d="M 174.42201232910156 93.41049194335938 C 201.57923889160156 95.75881958007812 174.42323303222656 88.33650207519531 175.62982177734375 87.44161987304688" stroke-width="3.0" fill="none" stroke="rgb(0, 0, 0)" stroke-opacity="1.0" stroke-linecap="round" stroke-linejoin="round"/>
    <path d="M 143.24435424804688 57.05051040649414 C 129.5631561279297 92.25717163085938 77.13565826416016 115.1879653930664 117.20378875732422 66.52433776855469" stroke-width="3.0" fill="none" stroke="rgb(0, 0, 0)" stroke-opacity="1.0" stroke-linecap="round" stroke-linejoin="round"/>
    <path d="M 141.29884338378906 52.22610092163086 C 159.2010040283203 92.01014709472656 131.8572998046875 45.26362991333008 180.96298217773438 87.37446594238281" stroke-width="3.0" fill="none" stroke="rgb(0, 0, 0)" stroke-opacity="1.0" stroke-linecap="round" stroke-linejoin="round"/>
    <path d="M 67.60110473632812 98.06688690185547 C 119.74586486816406 85.18661499023438 106.7889404296875 86.96540832519531 122.9682388305664 140.43417358398438" stroke-width="3.0" fill="none" stroke="rgb(0, 0, 0)" stroke-opacity="1.0" stroke-linecap="round" stroke-linejoin="round"/>
    <path d="M 134.5742950439453 118.52324676513672 C 119.50538635253906 177.3790740966797 132.93019104003906 121.23380279541016 103.86671447753906 207.0935516357422" stroke-width="3.0" fill="none" stroke="rgb(0, 0, 0)" stroke-opacity="1.0" stroke-linecap="round" stroke-linejoin="round"/>
    <path d="M 129.6852264404297 52.63982009887695 C 138.65158081054688 60.34478759765625 102.55540466308594 38.962738037109375 84.8607406616211 91.383544921875" stroke-width="3.0" fill="none" stroke="rgb(0, 0, 0)" stroke-opacity="1.0" stroke-linecap="round" stroke-linejoin="round"/>
    <path d="M 126.94261932373047 85.95210266113281 C 144.99014282226562 59.58466339111328 111.88870239257812 64.13337707519531 169.2748260498047 82.25472259521484" stroke-width="3.0" fill="none" stroke="rgb(0, 0, 0)" stroke-opacity="1.0" stroke-linecap="round" stroke-linejoin="round"/>
    <path d="M 162.5346221923828 73.87628936767578 C 144.9482421875 70.07957458496094 143.52500915527344 102.87606048583984 142.62139892578125 67.01042175292969" stroke-width="3.0" fill="none" stroke="rgb(0, 0, 0)" stroke-opacity="1.0" stroke-linecap="round" stroke-linejoin="round"/>
    <path d="M 136.52273559570312 58.80513000488281 C 121.41839599609375 71.92793273925781 137.83834838867188 56.634029388427734 141.63262939453125 60.51176452636719" stroke-width="3.0" fill="none" stroke="rgb(0, 0, 0)" stroke-opacity="1.0" stroke-linecap="round" stroke-linejoin="round"/>
    <path d="M 126.59342193603516 149.47296142578125 C 128.2631072998047 152.84072875976562 128.9527587890625 109.57878875732422 115.8652572631836 146.7892303466797" stroke-width="3.0" fill="none" stroke="rgb(0, 0, 0)" stroke-opacity="1.0" stroke-linecap="round" stroke-linejoin="round"/>
    <path d="M 138.4180450439453 60.39631652832031 C 144.27227783203125 63.831138610839844 123.93118286132812 49.750518798828125 144.797607421875 60.48809814453125" stroke-width="3.0" fill="none" stroke="rgb(0, 0, 0)" stroke-opacity="1.0" stroke-linecap="round" stroke-linejoin="round"/>
    <path d="M 137.4759521484375 48.50535583496094 C 127.62523651123047 56.858848571777344 152.0247344970703 42.0362434387207 140.98825073242188 53.540252685546875" stroke-width="3.0" fill="none" stroke="rgb(0, 0, 0)" stroke-opacity="1.0" stroke-linecap="round" stroke-linejoin="round"/>
  </g>
</svg>
