<?xml version="1.0" ?>
<svg xmlns="http://www.w3.org/2000/svg" version="1.1" width="224" height="224">
  <defs/>
  <g>
    <path d="M 185.58909606933594 96.87499237060547 C 151.50672912597656 77.72137451171875 58.759098052978516 89.81529235839844 135.00001525878906 74.26358795166016" stroke-width="3.0" fill="none" stroke="rgb(0, 0, 0)" stroke-opacity="1.0" stroke-linecap="round" stroke-linejoin="round"/>
    <path d="M 188.709716796875 96.6638412475586 C 175.02511596679688 94.672607421875 197.61256408691406 87.58373260498047 133.58349609375 122.22557830810547" stroke-width="3.0" fill="none" stroke="rgb(0, 0, 0)" stroke-opacity="1.0" stroke-linecap="round" stroke-linejoin="round"/>
    <path d="M 55.02009201049805 39.79659652709961 C 6.5665669441223145 34.861610412597656 68.37435150146484 129.44088745117188 70.77972412109375 64.61862182617188" stroke-width="3.0" fill="none" stroke="rgb(0, 0, 0)" stroke-opacity="1.0" stroke-linecap="round" stroke-linejoin="round"/>
    <path d="M 102.666015625 65.9697265625 C 151.4927978515625 64.34381103515625 202.04290771484375 81.01373291015625 96.14469146728516 81.17910766601562" stroke-width="3.0" fill="none" stroke="rgb(0, 0, 0)" stroke-opacity="1.0" stroke-linecap="round" stroke-linejoin="round"/>
    <path d="M 150.22808837890625 78.57223510742188 C 205.8762664794922 103.76302337646484 163.80679321289062 103.19055938720703 187.739013671875 96.78501892089844" stroke-width="3.0" fill="none" stroke="rgb(0, 0, 0)" stroke-opacity="1.0" stroke-linecap="round" stroke-linejoin="round"/>
    <path d="M 135.19012451171875 53.955726623535156 C 99.7994155883789 56.65080642700195 31.161396026611328 122.97354125976562 70.58182525634766 74.56797790527344" stroke-width="3.0" fill="none" stroke="rgb(0, 0, 0)" stroke-opacity="1.0" stroke-linecap="round" stroke-linejoin="round"/>
    <path d="M 153.5469207763672 79.09117889404297 C 61.6142463684082 52.04765701293945 152.41970825195312 39.359107971191406 188.96719360351562 94.78925323486328" stroke-width="3.0" fill="none" stroke="rgb(0, 0, 0)" stroke-opacity="1.0" stroke-linecap="round" stroke-linejoin="round"/>
    <path d="M 83.2373275756836 70.98492431640625 C 122.08183288574219 94.7958755493164 111.51334381103516 88.06175231933594 116.255615234375 145.15557861328125" stroke-width="3.0" fill="none" stroke="rgb(0, 0, 0)" stroke-opacity="1.0" stroke-linecap="round" stroke-linejoin="round"/>
    <path d="M 131.49293518066406 87.18099975585938 C 110.38153839111328 207.17454528808594 121.87118530273438 96.33647918701172 106.98825073242188 201.86077880859375" stroke-width="3.0" fill="none" stroke="rgb(0, 0, 0)" stroke-opacity="1.0" stroke-linecap="round" stroke-linejoin="round"/>
    <path d="M 132.99557495117188 48.599769592285156 C 142.56265258789062 48.590431213378906 81.79093933105469 25.33999252319336 76.80448913574219 82.34588623046875" stroke-width="3.0" fill="none" stroke="rgb(0, 0, 0)" stroke-opacity="1.0" stroke-linecap="round" stroke-linejoin="round"/>
    <path d="M 104.369873046875 53.95722579956055 C 146.25650024414062 40.226783752441406 139.00509643554688 59.184810638427734 172.071533203125 84.57550048828125" stroke-width="3.0" fill="none" stroke="rgb(0, 0, 0)" stroke-opacity="1.0" stroke-linecap="round" stroke-linejoin="round"/>
    <path d="M 155.03590393066406 80.95773315429688 C 143.27012634277344 74.61678314208984 217.94320678710938 112.51781463623047 149.8376922607422 65.04049682617188" stroke-width="3.0" fill="none" stroke="rgb(0, 0, 0)" stroke-opacity="1.0" stroke-linecap="round" stroke-linejoin="round"/>
    <path d="M 156.25482177734375 72.99388885498047 C 169.84938049316406 92.14451599121094 161.8334503173828 75.87784576416016 141.64794921875 64.3748550415039" stroke-width="3.0" fill="none" stroke="rgb(0, 0, 0)" stroke-opacity="1.0" stroke-linecap="round" stroke-linejoin="round"/>
    <path d="M 121.90199279785156 127.77963256835938 C 141.5516815185547 173.0851287841797 138.29470825195312 118.55439758300781 112.00914001464844 147.91067504882812" stroke-width="3.0" fill="none" stroke="rgb(0, 0, 0)" stroke-opacity="1.0" stroke-linecap="round" stroke-linejoin="round"/>
    <path d="M 142.68251037597656 69.42742156982422 C 188.62721252441406 90.66777801513672 143.47105407714844 59.70970153808594 153.28326416015625 65.48760986328125" stroke-width="3.0" fill="none" stroke="rgb(0, 0, 0)" stroke-opacity="1.0" stroke-linecap="round" stroke-linejoin="round"/>
    <path d="M 140.3900909423828 63.328433990478516 C 113.39823150634766 46.52202224731445 149.3067626953125 69.14323425292969 131.3721160888672 57.58701705932617" stroke-width="3.0" fill="none" stroke="rgb(0, 0, 0)" stroke-opacity="1.0" stroke-linecap="round" stroke-linejoin="round"/>
  </g>
</svg>
