<?xml version="1.0" ?>
<svg xmlns="http://www.w3.org/2000/svg" version="1.1" width="224" height="224">
  <defs/>
  <g>
    <path d="M 158.8645477294922 83.7203140258789 C 138.35726928710938 80.61055755615234 104.35131072998047 94.54083251953125 144.82278442382812 78.68477630615234" stroke-width="3.0" fill="none" stroke="rgb(0, 0, 0)" stroke-opacity="1.0" stroke-linecap="round" stroke-linejoin="round"/>
    <path d="M 182.62852478027344 91.97599029541016 C 167.9326171875 96.88536834716797 191.98130798339844 89.6151351928711 164.2438507080078 107.45124816894531" stroke-width="3.0" fill="none" stroke="rgb(0, 0, 0)" stroke-opacity="1.0" stroke-linecap="round" stroke-linejoin="round"/>
    <path d="M 50.16408157348633 36.446956634521484 C 5.587900161743164 80.18568420410156 82.6431655883789 125.66963958740234 81.37223052978516 68.70616912841797" stroke-width="3.0" fill="none" stroke="rgb(0, 0, 0)" stroke-opacity="1.0" stroke-linecap="round" stroke-linejoin="round"/>
    <path d="M 124.23212432861328 81.5306625366211 C 120.12570190429688 82.05443572998047 167.76417541503906 87.6526870727539 88.8948745727539 92.62255096435547" stroke-width="3.0" fill="none" stroke="rgb(0, 0, 0)" stroke-opacity="1.0" stroke-linecap="round" stroke-linejoin="round"/>
    <path d="M 170.0447235107422 86.0023422241211 C 215.80833435058594 111.30010223388672 185.41331481933594 98.933349609375 182.04983520507812 91.3189926147461" stroke-width="3.0" fill="none" stroke="rgb(0, 0, 0)" stroke-opacity="1.0" stroke-linecap="round" stroke-linejoin="round"/>
    <path d="M 152.22361755371094 63.06387710571289 C 118.30758666992188 82.07007598876953 51.35177993774414 100.90196228027344 105.2297134399414 67.23893737792969" stroke-width="3.0" fill="none" stroke="rgb(0, 0, 0)" stroke-opacity="1.0" stroke-linecap="round" stroke-linejoin="round"/>
    <path d="M 139.6038818359375 61.15351486206055 C 161.83657836914062 80.63937377929688 137.83885192871094 37.045413970947266 191.6343994140625 95.85975646972656" stroke-width="3.0" fill="none" stroke="rgb(0, 0, 0)" stroke-opacity="1.0" stroke-linecap="round" stroke-linejoin="round"/>
    <path d="M 76.46548461914062 94.34876251220703 C 124.69849395751953 90.08969116210938 105.38166809082031 80.58690643310547 124.55159759521484 138.0774688720703" stroke-width="3.0" fill="none" stroke="rgb(0, 0, 0)" stroke-opacity="1.0" stroke-linecap="round" stroke-linejoin="round"/>
    <path d="M 137.51080322265625 124.73783874511719 C 119.43889617919922 177.22560119628906 135.79273986816406 116.47013854980469 104.62969207763672 205.81678771972656" stroke-width="3.0" fill="none" stroke="rgb(0, 0, 0)" stroke-opacity="1.0" stroke-linecap="round" stroke-linejoin="round"/>
    <path d="M 137.5272216796875 51.47422790527344 C 143.95016479492188 53.370365142822266 85.52047729492188 28.9047794342041 68.2238998413086 82.16343688964844" stroke-width="3.0" fill="none" stroke="rgb(0, 0, 0)" stroke-opacity="1.0" stroke-linecap="round" stroke-linejoin="round"/>
    <path d="M 121.56510925292969 81.05624389648438 C 151.6353759765625 55.9561653137207 112.58063507080078 73.1650390625 176.03512573242188 88.67823791503906" stroke-width="3.0" fill="none" stroke="rgb(0, 0, 0)" stroke-opacity="1.0" stroke-linecap="round" stroke-linejoin="round"/>
    <path d="M 169.6466827392578 79.78218841552734 C 148.37757873535156 72.62478637695312 166.32333374023438 84.36621856689453 150.03636169433594 78.9351577758789" stroke-width="3.0" fill="none" stroke="rgb(0, 0, 0)" stroke-opacity="1.0" stroke-linecap="round" stroke-linejoin="round"/>
    <path d="M 141.1695098876953 58.52418899536133 C 133.2274627685547 71.72906494140625 144.7311553955078 54.79381561279297 144.33042907714844 55.47583770751953" stroke-width="3.0" fill="none" stroke="rgb(0, 0, 0)" stroke-opacity="1.0" stroke-linecap="round" stroke-linejoin="round"/>
    <path d="M 123.8158950805664 143.41226196289062 C 127.41488647460938 150.05224609375 128.29367065429688 117.34247589111328 118.0853271484375 142.70660400390625" stroke-width="3.0" fill="none" stroke="rgb(0, 0, 0)" stroke-opacity="1.0" stroke-linecap="round" stroke-linejoin="round"/>
    <path d="M 146.8733673095703 62.61380386352539 C 167.05177307128906 64.00897979736328 133.85940551757812 53.08024215698242 147.09898376464844 66.84134674072266" stroke-width="3.0" fill="none" stroke="rgb(0, 0, 0)" stroke-opacity="1.0" stroke-linecap="round" stroke-linejoin="round"/>
    <path d="M 139.5983123779297 53.42372512817383 C 129.1773681640625 55.59709167480469 155.2170867919922 49.58055877685547 145.45022583007812 65.45291137695312" stroke-width="3.0" fill="none" stroke="rgb(0, 0, 0)" stroke-opacity="1.0" stroke-linecap="round" stroke-linejoin="round"/>
  </g>
</svg>
