<?xml version="1.0" ?>
<svg xmlns="http://www.w3.org/2000/svg" version="1.1" width="224" height="224">
  <defs/>
  <g>
    <path d="M 184.65869140625 92.53662109375 C 163.6060028076172 82.04862213134766 54.00324630737305 100.8974609375 129.5528564453125 82.64385223388672" stroke-width="3.0" fill="none" stroke="rgb(0, 0, 0)" stroke-opacity="1.0" stroke-linecap="round" stroke-linejoin="round"/>
    <path d="M 189.94615173339844 98.19277954101562 C 176.56211853027344 100.255615234375 204.73440551757812 93.6430892944336 128.9852294921875 118.65160369873047" stroke-width="3.0" fill="none" stroke="rgb(0, 0, 0)" stroke-opacity="1.0" stroke-linecap="round" stroke-linejoin="round"/>
    <path d="M 52.59855270385742 39.35016632080078 C 5.175124645233154 37.85462951660156 73.22227478027344 134.3030242919922 62.630210876464844 64.2969741821289" stroke-width="3.0" fill="none" stroke="rgb(0, 0, 0)" stroke-opacity="1.0" stroke-linecap="round" stroke-linejoin="round"/>
    <path d="M 91.71717071533203 64.9879150390625 C 147.2957763671875 67.74475860595703 198.424560546875 92.77338409423828 93.34282684326172 82.67298126220703" stroke-width="3.0" fill="none" stroke="rgb(0, 0, 0)" stroke-opacity="1.0" stroke-linecap="round" stroke-linejoin="round"/>
    <path d="M 143.10191345214844 79.1241683959961 C 213.2010498046875 95.65945434570312 169.9785614013672 104.38245391845703 187.337646484375 96.36165618896484" stroke-width="3.0" fill="none" stroke="rgb(0, 0, 0)" stroke-opacity="1.0" stroke-linecap="round" stroke-linejoin="round"/>
    <path d="M 113.398193359375 46.0288200378418 C 97.64447021484375 54.50896072387695 37.1782341003418 143.08741760253906 70.19342803955078 80.29290008544922" stroke-width="3.0" fill="none" stroke="rgb(0, 0, 0)" stroke-opacity="1.0" stroke-linecap="round" stroke-linejoin="round"/>
    <path d="M 141.0070343017578 87.44831085205078 C 15.856575012207031 64.91385650634766 157.22084045410156 31.925058364868164 190.696533203125 95.47653198242188" stroke-width="3.0" fill="none" stroke="rgb(0, 0, 0)" stroke-opacity="1.0" stroke-linecap="round" stroke-linejoin="round"/>
    <path d="M 80.16863250732422 75.5362319946289 C 121.31895446777344 102.48233032226562 107.76974487304688 84.26068878173828 123.07743072509766 145.57191467285156" stroke-width="3.0" fill="none" stroke="rgb(0, 0, 0)" stroke-opacity="1.0" stroke-linecap="round" stroke-linejoin="round"/>
    <path d="M 122.7898941040039 93.19575500488281 C 123.62811279296875 209.29037475585938 133.70962524414062 94.3948974609375 103.95647430419922 208.24407958984375" stroke-width="3.0" fill="none" stroke="rgb(0, 0, 0)" stroke-opacity="1.0" stroke-linecap="round" stroke-linejoin="round"/>
    <path d="M 128.4551544189453 47.57122802734375 C 137.92279052734375 50.72544479370117 80.91170501708984 24.255807876586914 76.6177749633789 86.52297973632812" stroke-width="3.0" fill="none" stroke="rgb(0, 0, 0)" stroke-opacity="1.0" stroke-linecap="round" stroke-linejoin="round"/>
    <path d="M 94.17800903320312 55.89237976074219 C 140.29547119140625 35.29259490966797 147.0993194580078 53.686832427978516 173.72015380859375 82.50750732421875" stroke-width="3.0" fill="none" stroke="rgb(0, 0, 0)" stroke-opacity="1.0" stroke-linecap="round" stroke-linejoin="round"/>
    <path d="M 153.2237548828125 85.87850952148438 C 143.5240478515625 82.54527282714844 229.18157958984375 118.96898651123047 139.0970001220703 60.20152282714844" stroke-width="3.0" fill="none" stroke="rgb(0, 0, 0)" stroke-opacity="1.0" stroke-linecap="round" stroke-linejoin="round"/>
    <path d="M 152.01995849609375 74.53734588623047 C 173.9899444580078 92.4450912475586 164.6497039794922 78.113037109375 144.18606567382812 70.30810546875" stroke-width="3.0" fill="none" stroke="rgb(0, 0, 0)" stroke-opacity="1.0" stroke-linecap="round" stroke-linejoin="round"/>
    <path d="M 123.5650405883789 125.26996612548828 C 144.5957489013672 164.904541015625 136.15432739257812 109.1493148803711 119.16094207763672 151.59332275390625" stroke-width="3.0" fill="none" stroke="rgb(0, 0, 0)" stroke-opacity="1.0" stroke-linecap="round" stroke-linejoin="round"/>
    <path d="M 131.5725860595703 77.10501098632812 C 177.83370971679688 103.82788848876953 141.3862762451172 54.813697814941406 149.40853881835938 66.13816833496094" stroke-width="3.0" fill="none" stroke="rgb(0, 0, 0)" stroke-opacity="1.0" stroke-linecap="round" stroke-linejoin="round"/>
    <path d="M 140.8744659423828 73.86967468261719 C 104.35356903076172 52.90789794921875 158.55018615722656 72.80341339111328 128.2352752685547 51.770347595214844" stroke-width="3.0" fill="none" stroke="rgb(0, 0, 0)" stroke-opacity="1.0" stroke-linecap="round" stroke-linejoin="round"/>
  </g>
</svg>
