<?xml version="1.0" ?>
<svg xmlns="http://www.w3.org/2000/svg" version="1.1" width="224" height="224">
  <defs/>
  <g>
    <path d="M 157.54978942871094 74.42218780517578 C 142.82467651367188 91.84514617919922 118.59209442138672 100.64624786376953 138.1733856201172 91.98133087158203" stroke-width="3.0" fill="none" stroke="rgb(0, 0, 0)" stroke-opacity="1.0" stroke-linecap="round" stroke-linejoin="round"/>
    <path d="M 177.56243896484375 97.13162994384766 C 185.0515594482422 87.16693115234375 191.7762451171875 96.65943145751953 158.50006103515625 107.47174835205078" stroke-width="3.0" fill="none" stroke="rgb(0, 0, 0)" stroke-opacity="1.0" stroke-linecap="round" stroke-linejoin="round"/>
    <path d="M 67.46277618408203 47.19097900390625 C 40.74863052368164 92.75642395019531 71.53150177001953 123.13321685791016 101.49790954589844 86.09625244140625" stroke-width="3.0" fill="none" stroke="rgb(0, 0, 0)" stroke-opacity="1.0" stroke-linecap="round" stroke-linejoin="round"/>
    <path d="M 118.1741943359375 95.43698120117188 C 114.48761749267578 94.278076171875 156.7572479248047 95.29655456542969 98.64451599121094 100.73355865478516" stroke-width="3.0" fill="none" stroke="rgb(0, 0, 0)" stroke-opacity="1.0" stroke-linecap="round" stroke-linejoin="round"/>
    <path d="M 180.8924102783203 97.31977081298828 C 201.23443603515625 92.02299499511719 198.87942504882812 98.403076171875 199.18646240234375 94.62183380126953" stroke-width="3.0" fill="none" stroke="rgb(0, 0, 0)" stroke-opacity="1.0" stroke-linecap="round" stroke-linejoin="round"/>
    <path d="M 134.4591522216797 52.56080627441406 C 135.1335906982422 106.69542694091797 92.3416748046875 124.75439453125 118.72457122802734 73.82665252685547" stroke-width="3.0" fill="none" stroke="rgb(0, 0, 0)" stroke-opacity="1.0" stroke-linecap="round" stroke-linejoin="round"/>
    <path d="M 141.0901336669922 56.154632568359375 C 162.2283477783203 72.41631317138672 143.00137329101562 48.176124572753906 158.5015106201172 66.57572937011719" stroke-width="3.0" fill="none" stroke="rgb(0, 0, 0)" stroke-opacity="1.0" stroke-linecap="round" stroke-linejoin="round"/>
    <path d="M 81.01666259765625 102.0481185913086 C 122.22156524658203 91.05813598632812 109.06262969970703 98.93106079101562 125.8353500366211 132.92648315429688" stroke-width="3.0" fill="none" stroke="rgb(0, 0, 0)" stroke-opacity="1.0" stroke-linecap="round" stroke-linejoin="round"/>
    <path d="M 133.25523376464844 130.0165557861328 C 115.57234954833984 166.9082489013672 136.41419982910156 133.48922729492188 105.01504516601562 205.161865234375" stroke-width="3.0" fill="none" stroke="rgb(0, 0, 0)" stroke-opacity="1.0" stroke-linecap="round" stroke-linejoin="round"/>
    <path d="M 121.47247314453125 53.046329498291016 C 145.71563720703125 60.21129608154297 107.89122772216797 48.8238410949707 88.90467071533203 97.03713989257812" stroke-width="3.0" fill="none" stroke="rgb(0, 0, 0)" stroke-opacity="1.0" stroke-linecap="round" stroke-linejoin="round"/>
    <path d="M 132.25299072265625 91.95292663574219 C 151.6938018798828 76.6412353515625 123.62078094482422 67.80680084228516 153.85557556152344 64.03436279296875" stroke-width="3.0" fill="none" stroke="rgb(0, 0, 0)" stroke-opacity="1.0" stroke-linecap="round" stroke-linejoin="round"/>
    <path d="M 152.73268127441406 65.1219711303711 C 136.60873413085938 88.30950927734375 144.84432983398438 106.02153015136719 150.96646118164062 64.22607421875" stroke-width="3.0" fill="none" stroke="rgb(0, 0, 0)" stroke-opacity="1.0" stroke-linecap="round" stroke-linejoin="round"/>
    <path d="M 132.54339599609375 67.43787384033203 C 123.71611785888672 83.80827331542969 133.16165161132812 50.68119430541992 147.767578125 55.46397018432617" stroke-width="3.0" fill="none" stroke="rgb(0, 0, 0)" stroke-opacity="1.0" stroke-linecap="round" stroke-linejoin="round"/>
    <path d="M 121.40552520751953 132.86964416503906 C 125.48807525634766 144.40908813476562 129.31570434570312 115.08648681640625 115.78401947021484 136.0216827392578" stroke-width="3.0" fill="none" stroke="rgb(0, 0, 0)" stroke-opacity="1.0" stroke-linecap="round" stroke-linejoin="round"/>
    <path d="M 134.10096740722656 51.56394958496094 C 147.5117645263672 58.491661071777344 137.67706298828125 47.458839416503906 147.4660186767578 65.55043029785156" stroke-width="3.0" fill="none" stroke="rgb(0, 0, 0)" stroke-opacity="1.0" stroke-linecap="round" stroke-linejoin="round"/>
    <path d="M 127.02806091308594 55.558860778808594 C 121.60511779785156 56.18124008178711 154.52188110351562 40.085899353027344 145.75514221191406 65.40997314453125" stroke-width="3.0" fill="none" stroke="rgb(0, 0, 0)" stroke-opacity="1.0" stroke-linecap="round" stroke-linejoin="round"/>
  </g>
</svg>
