<?xml version="1.0" ?>
<svg xmlns="http://www.w3.org/2000/svg" version="1.1" width="224" height="224">
  <defs/>
  <g>
    <path d="M 172.1638641357422 91.07060241699219 C 138.88804626464844 82.86962890625 102.10803985595703 91.75975799560547 144.48374938964844 89.30486297607422" stroke-width="3.0" fill="none" stroke="rgb(0, 0, 0)" stroke-opacity="1.0" stroke-linecap="round" stroke-linejoin="round"/>
    <path d="M 177.07095336914062 91.02784729003906 C 173.22682189941406 100.99005889892578 193.52345275878906 88.8194808959961 158.5511932373047 110.18173217773438" stroke-width="3.0" fill="none" stroke="rgb(0, 0, 0)" stroke-opacity="1.0" stroke-linecap="round" stroke-linejoin="round"/>
    <path d="M 44.729331970214844 41.42356491088867 C 12.705572128295898 71.81805419921875 83.19876098632812 131.00128173828125 78.91603088378906 68.79153442382812" stroke-width="3.0" fill="none" stroke="rgb(0, 0, 0)" stroke-opacity="1.0" stroke-linecap="round" stroke-linejoin="round"/>
    <path d="M 99.59552764892578 80.47904205322266 C 123.6657943725586 84.4444580078125 167.5897674560547 88.64779663085938 99.79631042480469 93.89661407470703" stroke-width="3.0" fill="none" stroke="rgb(0, 0, 0)" stroke-opacity="1.0" stroke-linecap="round" stroke-linejoin="round"/>
    <path d="M 158.99688720703125 84.37301635742188 C 210.75949096679688 103.0435791015625 171.69862365722656 97.67217254638672 190.0966339111328 95.39203643798828" stroke-width="3.0" fill="none" stroke="rgb(0, 0, 0)" stroke-opacity="1.0" stroke-linecap="round" stroke-linejoin="round"/>
    <path d="M 144.72320556640625 56.83182907104492 C 115.89641571044922 74.73764038085938 60.68364334106445 106.3977279663086 84.73039245605469 60.886207580566406" stroke-width="3.0" fill="none" stroke="rgb(0, 0, 0)" stroke-opacity="1.0" stroke-linecap="round" stroke-linejoin="round"/>
    <path d="M 140.58395385742188 64.09352111816406 C 145.47119140625 70.58964538574219 144.8782958984375 44.83571243286133 190.66835021972656 95.09920501708984" stroke-width="3.0" fill="none" stroke="rgb(0, 0, 0)" stroke-opacity="1.0" stroke-linecap="round" stroke-linejoin="round"/>
    <path d="M 80.56478118896484 89.18462371826172 C 123.27567291259766 98.36568450927734 109.21788787841797 87.25918579101562 122.88768768310547 136.05752563476562" stroke-width="3.0" fill="none" stroke="rgb(0, 0, 0)" stroke-opacity="1.0" stroke-linecap="round" stroke-linejoin="round"/>
    <path d="M 139.16329956054688 114.45860290527344 C 122.32730865478516 179.40933227539062 131.6492156982422 104.63424682617188 108.87287902832031 206.8110809326172" stroke-width="3.0" fill="none" stroke="rgb(0, 0, 0)" stroke-opacity="1.0" stroke-linecap="round" stroke-linejoin="round"/>
    <path d="M 137.34701538085938 53.36124038696289 C 141.40394592285156 53.24070739746094 79.71440887451172 23.910404205322266 67.47900390625 82.39775848388672" stroke-width="3.0" fill="none" stroke="rgb(0, 0, 0)" stroke-opacity="1.0" stroke-linecap="round" stroke-linejoin="round"/>
    <path d="M 102.89659118652344 74.06732177734375 C 149.76271057128906 65.83488464355469 120.41761779785156 69.8607406616211 176.5286865234375 91.40213012695312" stroke-width="3.0" fill="none" stroke="rgb(0, 0, 0)" stroke-opacity="1.0" stroke-linecap="round" stroke-linejoin="round"/>
    <path d="M 179.0325469970703 86.1807632446289 C 146.34449768066406 70.66136169433594 174.665283203125 78.94139862060547 148.7317352294922 77.18421936035156" stroke-width="3.0" fill="none" stroke="rgb(0, 0, 0)" stroke-opacity="1.0" stroke-linecap="round" stroke-linejoin="round"/>
    <path d="M 144.33096313476562 62.883663177490234 C 143.08033752441406 71.45075225830078 149.63150024414062 56.4649772644043 146.9656524658203 61.104827880859375" stroke-width="3.0" fill="none" stroke="rgb(0, 0, 0)" stroke-opacity="1.0" stroke-linecap="round" stroke-linejoin="round"/>
    <path d="M 123.66180419921875 132.83445739746094 C 131.47023010253906 142.63018798828125 124.64350891113281 110.72512817382812 115.96573638916016 147.70559692382812" stroke-width="3.0" fill="none" stroke="rgb(0, 0, 0)" stroke-opacity="1.0" stroke-linecap="round" stroke-linejoin="round"/>
    <path d="M 145.06216430664062 63.63451385498047 C 166.2122344970703 62.873558044433594 129.45811462402344 56.09056854248047 148.60694885253906 67.90739440917969" stroke-width="3.0" fill="none" stroke="rgb(0, 0, 0)" stroke-opacity="1.0" stroke-linecap="round" stroke-linejoin="round"/>
    <path d="M 141.3834228515625 54.02056884765625 C 120.47799682617188 57.0035514831543 160.83741760253906 57.230770111083984 148.24574279785156 63.66346740722656" stroke-width="3.0" fill="none" stroke="rgb(0, 0, 0)" stroke-opacity="1.0" stroke-linecap="round" stroke-linejoin="round"/>
  </g>
</svg>
