<?xml version="1.0" ?>
<svg xmlns="http://www.w3.org/2000/svg" version="1.1" width="224" height="224">
  <defs/>
  <g>
    <path d="M 163.73260498046875 89.43126678466797 C 139.28814697265625 89.89684295654297 102.04232788085938 86.15808868408203 143.39651489257812 79.02445220947266" stroke-width="3.0" fill="none" stroke="rgb(0, 0, 0)" stroke-opacity="1.0" stroke-linecap="round" stroke-linejoin="round"/>
    <path d="M 179.30482482910156 95.6297836303711 C 166.10537719726562 98.69711303710938 189.56878662109375 88.62432861328125 162.84765625 110.98593139648438" stroke-width="3.0" fill="none" stroke="rgb(0, 0, 0)" stroke-opacity="1.0" stroke-linecap="round" stroke-linejoin="round"/>
    <path d="M 46.03273010253906 42.60429763793945 C 14.267607688903809 81.6507339477539 83.51661682128906 128.26754760742188 80.5888671875 63.52983474731445" stroke-width="3.0" fill="none" stroke="rgb(0, 0, 0)" stroke-opacity="1.0" stroke-linecap="round" stroke-linejoin="round"/>
    <path d="M 110.34190368652344 79.64115905761719 C 132.6359100341797 85.0134506225586 178.27615356445312 95.9992446899414 103.83486938476562 90.71170043945312" stroke-width="3.0" fill="none" stroke="rgb(0, 0, 0)" stroke-opacity="1.0" stroke-linecap="round" stroke-linejoin="round"/>
    <path d="M 167.9575958251953 91.04696655273438 C 206.17364501953125 104.5077133178711 171.72727966308594 97.35950469970703 184.90786743164062 97.11067962646484" stroke-width="3.0" fill="none" stroke="rgb(0, 0, 0)" stroke-opacity="1.0" stroke-linecap="round" stroke-linejoin="round"/>
    <path d="M 150.45445251464844 68.57783508300781 C 117.06275939941406 76.40131378173828 51.347564697265625 96.80244445800781 93.06356048583984 56.2531852722168" stroke-width="3.0" fill="none" stroke="rgb(0, 0, 0)" stroke-opacity="1.0" stroke-linecap="round" stroke-linejoin="round"/>
    <path d="M 140.9500274658203 60.37275695800781 C 148.1987762451172 76.09137725830078 143.6892547607422 38.548309326171875 188.7758026123047 95.26486206054688" stroke-width="3.0" fill="none" stroke="rgb(0, 0, 0)" stroke-opacity="1.0" stroke-linecap="round" stroke-linejoin="round"/>
    <path d="M 80.45577239990234 84.70821380615234 C 125.841796875 98.63445281982422 110.83091735839844 85.39952087402344 122.63871002197266 134.55078125" stroke-width="3.0" fill="none" stroke="rgb(0, 0, 0)" stroke-opacity="1.0" stroke-linecap="round" stroke-linejoin="round"/>
    <path d="M 135.46200561523438 115.77091217041016 C 119.43904876708984 170.41925048828125 131.47312927246094 98.04483795166016 105.60135650634766 207.3325653076172" stroke-width="3.0" fill="none" stroke="rgb(0, 0, 0)" stroke-opacity="1.0" stroke-linecap="round" stroke-linejoin="round"/>
    <path d="M 136.3177490234375 49.81398010253906 C 140.82928466796875 52.8613166809082 84.41223907470703 23.327041625976562 67.22882080078125 81.24400329589844" stroke-width="3.0" fill="none" stroke="rgb(0, 0, 0)" stroke-opacity="1.0" stroke-linecap="round" stroke-linejoin="round"/>
    <path d="M 107.03688049316406 82.36453247070312 C 146.2638397216797 63.485294342041016 113.72843170166016 77.357421875 176.3886260986328 92.28483581542969" stroke-width="3.0" fill="none" stroke="rgb(0, 0, 0)" stroke-opacity="1.0" stroke-linecap="round" stroke-linejoin="round"/>
    <path d="M 178.7936553955078 86.32284545898438 C 141.45266723632812 77.46540069580078 169.82424926757812 80.42086791992188 150.00173950195312 72.00113677978516" stroke-width="3.0" fill="none" stroke="rgb(0, 0, 0)" stroke-opacity="1.0" stroke-linecap="round" stroke-linejoin="round"/>
    <path d="M 145.23434448242188 60.202659606933594 C 143.62872314453125 72.09638214111328 151.11354064941406 57.352352142333984 147.91464233398438 61.54148483276367" stroke-width="3.0" fill="none" stroke="rgb(0, 0, 0)" stroke-opacity="1.0" stroke-linecap="round" stroke-linejoin="round"/>
    <path d="M 129.18817138671875 135.23841857910156 C 130.36378479003906 142.81729125976562 123.90760040283203 111.45767974853516 117.20562744140625 140.38278198242188" stroke-width="3.0" fill="none" stroke="rgb(0, 0, 0)" stroke-opacity="1.0" stroke-linecap="round" stroke-linejoin="round"/>
    <path d="M 142.20855712890625 61.84686279296875 C 166.5579833984375 63.70631790161133 132.5286865234375 53.40425491333008 150.9969024658203 68.58502960205078" stroke-width="3.0" fill="none" stroke="rgb(0, 0, 0)" stroke-opacity="1.0" stroke-linecap="round" stroke-linejoin="round"/>
    <path d="M 142.42784118652344 50.60045623779297 C 123.46627807617188 52.08403015136719 157.7648468017578 51.220359802246094 145.6147918701172 63.658016204833984" stroke-width="3.0" fill="none" stroke="rgb(0, 0, 0)" stroke-opacity="1.0" stroke-linecap="round" stroke-linejoin="round"/>
  </g>
</svg>
