<?xml version="1.0" ?>
<svg xmlns="http://www.w3.org/2000/svg" version="1.1" width="224" height="224">
  <defs/>
  <g>
    <path d="M 175.68270874023438 95.6661605834961 C 161.68545532226562 81.14775848388672 30.773283004760742 93.17269134521484 118.11614990234375 71.28143310546875" stroke-width="3.0" fill="none" stroke="rgb(0, 0, 0)" stroke-opacity="1.0" stroke-linecap="round" stroke-linejoin="round"/>
    <path d="M 176.9986572265625 96.39654541015625 C 176.66653442382812 104.41941833496094 205.45179748535156 89.30753326416016 130.3193359375 121.16487884521484" stroke-width="3.0" fill="none" stroke="rgb(0, 0, 0)" stroke-opacity="1.0" stroke-linecap="round" stroke-linejoin="round"/>
    <path d="M 57.94668960571289 40.80513381958008 C 2.1379899978637695 14.467205047607422 65.61260986328125 136.72389221191406 84.70764923095703 61.074119567871094" stroke-width="3.0" fill="none" stroke="rgb(0, 0, 0)" stroke-opacity="1.0" stroke-linecap="round" stroke-linejoin="round"/>
    <path d="M 100.72433471679688 62.09471893310547 C 157.06881713867188 63.70933151245117 208.32151794433594 106.50304412841797 109.9912109375 74.77774047851562" stroke-width="3.0" fill="none" stroke="rgb(0, 0, 0)" stroke-opacity="1.0" stroke-linecap="round" stroke-linejoin="round"/>
    <path d="M 122.05638122558594 72.21966552734375 C 206.56362915039062 101.3431625366211 174.5028533935547 90.83396911621094 179.1326446533203 93.25851440429688" stroke-width="3.0" fill="none" stroke="rgb(0, 0, 0)" stroke-opacity="1.0" stroke-linecap="round" stroke-linejoin="round"/>
    <path d="M 100.87519073486328 49.75127029418945 C 115.69526672363281 63.10321044921875 40.0812873840332 138.1115264892578 74.90618896484375 98.71623229980469" stroke-width="3.0" fill="none" stroke="rgb(0, 0, 0)" stroke-opacity="1.0" stroke-linecap="round" stroke-linejoin="round"/>
    <path d="M 150.29405212402344 76.76012420654297 C 4.732821464538574 58.150230407714844 151.7062225341797 25.55679702758789 186.06028747558594 97.6903076171875" stroke-width="3.0" fill="none" stroke="rgb(0, 0, 0)" stroke-opacity="1.0" stroke-linecap="round" stroke-linejoin="round"/>
    <path d="M 92.37252044677734 71.90406036376953 C 113.04634094238281 110.39360809326172 114.12409210205078 62.16480255126953 116.2818603515625 145.281982421875" stroke-width="3.0" fill="none" stroke="rgb(0, 0, 0)" stroke-opacity="1.0" stroke-linecap="round" stroke-linejoin="round"/>
    <path d="M 124.46282958984375 90.6197509765625 C 115.30226135253906 202.31268310546875 125.70985412597656 93.54723358154297 104.49620819091797 205.25094604492188" stroke-width="3.0" fill="none" stroke="rgb(0, 0, 0)" stroke-opacity="1.0" stroke-linecap="round" stroke-linejoin="round"/>
    <path d="M 153.92906188964844 64.31394958496094 C 138.05723571777344 48.64118576049805 97.41400146484375 22.791872024536133 78.93226623535156 81.8552017211914" stroke-width="3.0" fill="none" stroke="rgb(0, 0, 0)" stroke-opacity="1.0" stroke-linecap="round" stroke-linejoin="round"/>
    <path d="M 93.17823791503906 64.30918884277344 C 136.8048858642578 27.023143768310547 138.69923400878906 53.099082946777344 174.8411865234375 84.1209945678711" stroke-width="3.0" fill="none" stroke="rgb(0, 0, 0)" stroke-opacity="1.0" stroke-linecap="round" stroke-linejoin="round"/>
    <path d="M 155.78160095214844 72.21161651611328 C 162.10386657714844 89.97554016113281 253.34837341308594 123.15599060058594 140.22698974609375 58.94888687133789" stroke-width="3.0" fill="none" stroke="rgb(0, 0, 0)" stroke-opacity="1.0" stroke-linecap="round" stroke-linejoin="round"/>
    <path d="M 159.474853515625 70.29753112792969 C 192.6214141845703 102.4946060180664 167.8801727294922 87.661865234375 121.25399017333984 58.66870880126953" stroke-width="3.0" fill="none" stroke="rgb(0, 0, 0)" stroke-opacity="1.0" stroke-linecap="round" stroke-linejoin="round"/>
    <path d="M 121.32471466064453 123.31905364990234 C 136.9538116455078 151.37884521484375 133.82640075683594 104.43568420410156 115.41673278808594 149.3603973388672" stroke-width="3.0" fill="none" stroke="rgb(0, 0, 0)" stroke-opacity="1.0" stroke-linecap="round" stroke-linejoin="round"/>
    <path d="M 104.6209716796875 79.96981811523438 C 183.1696014404297 111.90027618408203 140.0816650390625 61.55308151245117 139.75082397460938 70.18220520019531" stroke-width="3.0" fill="none" stroke="rgb(0, 0, 0)" stroke-opacity="1.0" stroke-linecap="round" stroke-linejoin="round"/>
    <path d="M 143.758544921875 83.13636016845703 C 62.12744903564453 33.40369415283203 163.63926696777344 61.58518600463867 126.59883880615234 47.669349670410156" stroke-width="3.0" fill="none" stroke="rgb(0, 0, 0)" stroke-opacity="1.0" stroke-linecap="round" stroke-linejoin="round"/>
  </g>
</svg>
