<?xml version="1.0" ?>
<svg xmlns="http://www.w3.org/2000/svg" version="1.1" width="224" height="224">
  <defs/>
  <g>
    <path d="M 179.86175537109375 90.27117919921875 C 126.11688232421875 78.35478210449219 41.472076416015625 109.40818786621094 136.43679809570312 69.3448257446289" stroke-width="3.0" fill="none" stroke="rgb(0, 0, 0)" stroke-opacity="1.0" stroke-linecap="round" stroke-linejoin="round"/>
    <path d="M 189.75540161132812 96.95455169677734 C 174.64443969726562 92.05972290039062 196.7043914794922 90.21882629394531 139.24896240234375 116.6014404296875" stroke-width="3.0" fill="none" stroke="rgb(0, 0, 0)" stroke-opacity="1.0" stroke-linecap="round" stroke-linejoin="round"/>
    <path d="M 49.68101119995117 42.00005340576172 C 6.169456481933594 36.56365966796875 68.17359924316406 124.5675048828125 72.93450164794922 59.1058349609375" stroke-width="3.0" fill="none" stroke="rgb(0, 0, 0)" stroke-opacity="1.0" stroke-linecap="round" stroke-linejoin="round"/>
    <path d="M 104.42462158203125 64.89034271240234 C 166.8123016357422 61.36090087890625 213.3261260986328 75.52529907226562 91.91986083984375 89.54016876220703" stroke-width="3.0" fill="none" stroke="rgb(0, 0, 0)" stroke-opacity="1.0" stroke-linecap="round" stroke-linejoin="round"/>
    <path d="M 141.19827270507812 72.88658905029297 C 218.87564086914062 103.98542785644531 178.8804168701172 95.82573699951172 188.165771484375 98.55919647216797" stroke-width="3.0" fill="none" stroke="rgb(0, 0, 0)" stroke-opacity="1.0" stroke-linecap="round" stroke-linejoin="round"/>
    <path d="M 139.7216339111328 57.02321243286133 C 104.72101593017578 56.37294387817383 49.88588333129883 106.76831817626953 81.0464859008789 61.21235656738281" stroke-width="3.0" fill="none" stroke="rgb(0, 0, 0)" stroke-opacity="1.0" stroke-linecap="round" stroke-linejoin="round"/>
    <path d="M 158.90357971191406 80.43269348144531 C 105.54530334472656 52.34048080444336 161.5878143310547 50.87836456298828 191.34396362304688 96.39318084716797" stroke-width="3.0" fill="none" stroke="rgb(0, 0, 0)" stroke-opacity="1.0" stroke-linecap="round" stroke-linejoin="round"/>
    <path d="M 77.22944641113281 86.83060455322266 C 125.40534210205078 93.13389587402344 110.60795593261719 87.93460083007812 123.09884643554688 140.03396606445312" stroke-width="3.0" fill="none" stroke="rgb(0, 0, 0)" stroke-opacity="1.0" stroke-linecap="round" stroke-linejoin="round"/>
    <path d="M 131.58766174316406 91.87531280517578 C 119.49275970458984 200.0686798095703 131.5951690673828 93.1964340209961 105.43870544433594 202.44898986816406" stroke-width="3.0" fill="none" stroke="rgb(0, 0, 0)" stroke-opacity="1.0" stroke-linecap="round" stroke-linejoin="round"/>
    <path d="M 129.47589111328125 45.85093688964844 C 132.4253692626953 52.47480392456055 73.02700805664062 23.381038665771484 69.77906799316406 84.79638671875" stroke-width="3.0" fill="none" stroke="rgb(0, 0, 0)" stroke-opacity="1.0" stroke-linecap="round" stroke-linejoin="round"/>
    <path d="M 102.53473663330078 55.15406799316406 C 154.57461547851562 41.41590118408203 136.4672088623047 57.14217758178711 172.5451202392578 79.65152740478516" stroke-width="3.0" fill="none" stroke="rgb(0, 0, 0)" stroke-opacity="1.0" stroke-linecap="round" stroke-linejoin="round"/>
    <path d="M 169.25848388671875 87.65464782714844 C 151.55177307128906 68.47291564941406 209.99591064453125 96.8053970336914 149.93911743164062 67.53012084960938" stroke-width="3.0" fill="none" stroke="rgb(0, 0, 0)" stroke-opacity="1.0" stroke-linecap="round" stroke-linejoin="round"/>
    <path d="M 151.2714080810547 65.5142593383789 C 148.6365203857422 78.7582778930664 158.4103546142578 62.865447998046875 152.01437377929688 62.18927764892578" stroke-width="3.0" fill="none" stroke="rgb(0, 0, 0)" stroke-opacity="1.0" stroke-linecap="round" stroke-linejoin="round"/>
    <path d="M 124.34905242919922 119.6728744506836 C 150.3387908935547 155.44888305664062 136.7571258544922 106.6661148071289 117.65410614013672 145.37095642089844" stroke-width="3.0" fill="none" stroke="rgb(0, 0, 0)" stroke-opacity="1.0" stroke-linecap="round" stroke-linejoin="round"/>
    <path d="M 136.24127197265625 68.32918548583984 C 165.6324920654297 68.27013397216797 137.79013061523438 47.56610107421875 152.26287841796875 66.75865936279297" stroke-width="3.0" fill="none" stroke="rgb(0, 0, 0)" stroke-opacity="1.0" stroke-linecap="round" stroke-linejoin="round"/>
    <path d="M 140.14683532714844 52.28550720214844 C 123.54024505615234 50.8837890625 154.10887145996094 60.65085220336914 145.42625427246094 56.539737701416016" stroke-width="3.0" fill="none" stroke="rgb(0, 0, 0)" stroke-opacity="1.0" stroke-linecap="round" stroke-linejoin="round"/>
  </g>
</svg>
