<?xml version="1.0" ?>
<svg xmlns="http://www.w3.org/2000/svg" version="1.1" width="224" height="224">
  <defs/>
  <g>
    <path d="M 171.5830841064453 90.92442321777344 C 127.12052154541016 86.27619171142578 65.23014831542969 107.68756103515625 141.61746215820312 70.36027526855469" stroke-width="3.0" fill="none" stroke="rgb(0, 0, 0)" stroke-opacity="1.0" stroke-linecap="round" stroke-linejoin="round"/>
    <path d="M 179.83468627929688 93.28507232666016 C 175.8645782470703 101.32205963134766 192.2582550048828 89.77316284179688 155.9506072998047 112.2510757446289" stroke-width="3.0" fill="none" stroke="rgb(0, 0, 0)" stroke-opacity="1.0" stroke-linecap="round" stroke-linejoin="round"/>
    <path d="M 46.667972564697266 38.206573486328125 C 15.13980484008789 43.72151184082031 81.1504898071289 136.8576202392578 79.25773620605469 67.33012390136719" stroke-width="3.0" fill="none" stroke="rgb(0, 0, 0)" stroke-opacity="1.0" stroke-linecap="round" stroke-linejoin="round"/>
    <path d="M 117.29119110107422 66.5880126953125 C 150.35536193847656 68.07926940917969 195.377685546875 76.25374603271484 93.53689575195312 88.84957122802734" stroke-width="3.0" fill="none" stroke="rgb(0, 0, 0)" stroke-opacity="1.0" stroke-linecap="round" stroke-linejoin="round"/>
    <path d="M 155.0376739501953 83.38600158691406 C 216.80050659179688 105.31106567382812 167.54759216308594 98.03478240966797 181.12124633789062 95.4189224243164" stroke-width="3.0" fill="none" stroke="rgb(0, 0, 0)" stroke-opacity="1.0" stroke-linecap="round" stroke-linejoin="round"/>
    <path d="M 146.18582153320312 62.668785095214844 C 109.06974792480469 65.61833953857422 57.0257568359375 106.67504119873047 84.13902282714844 62.942138671875" stroke-width="3.0" fill="none" stroke="rgb(0, 0, 0)" stroke-opacity="1.0" stroke-linecap="round" stroke-linejoin="round"/>
    <path d="M 158.42530822753906 65.25150299072266 C 117.39883422851562 57.769325256347656 160.022216796875 51.028533935546875 188.9725799560547 94.46085357666016" stroke-width="3.0" fill="none" stroke="rgb(0, 0, 0)" stroke-opacity="1.0" stroke-linecap="round" stroke-linejoin="round"/>
    <path d="M 81.96229553222656 84.06941986083984 C 125.97525024414062 95.84099578857422 117.5472183227539 82.8872299194336 122.2286605834961 135.81527709960938" stroke-width="3.0" fill="none" stroke="rgb(0, 0, 0)" stroke-opacity="1.0" stroke-linecap="round" stroke-linejoin="round"/>
    <path d="M 139.38424682617188 93.6273422241211 C 115.1778564453125 188.4584503173828 133.54989624023438 88.24726867675781 107.458740234375 208.7085723876953" stroke-width="3.0" fill="none" stroke="rgb(0, 0, 0)" stroke-opacity="1.0" stroke-linecap="round" stroke-linejoin="round"/>
    <path d="M 121.96672821044922 51.292991638183594 C 140.2377471923828 49.577842712402344 78.6105728149414 27.52936363220215 69.63951110839844 74.79911804199219" stroke-width="3.0" fill="none" stroke="rgb(0, 0, 0)" stroke-opacity="1.0" stroke-linecap="round" stroke-linejoin="round"/>
    <path d="M 112.6356430053711 46.29081344604492 C 159.841552734375 46.62985610961914 131.9460906982422 65.52423858642578 175.53636169433594 85.3733139038086" stroke-width="3.0" fill="none" stroke="rgb(0, 0, 0)" stroke-opacity="1.0" stroke-linecap="round" stroke-linejoin="round"/>
    <path d="M 181.2383575439453 85.63577270507812 C 149.373291015625 74.0367660522461 201.46726989746094 94.09384155273438 146.4379119873047 84.80535125732422" stroke-width="3.0" fill="none" stroke="rgb(0, 0, 0)" stroke-opacity="1.0" stroke-linecap="round" stroke-linejoin="round"/>
    <path d="M 145.69947814941406 64.99311828613281 C 144.07469177246094 71.9801254272461 152.79489135742188 59.75984573364258 145.57308959960938 64.7656478881836" stroke-width="3.0" fill="none" stroke="rgb(0, 0, 0)" stroke-opacity="1.0" stroke-linecap="round" stroke-linejoin="round"/>
    <path d="M 126.40245056152344 125.1371841430664 C 133.8131561279297 151.18106079101562 126.24476623535156 107.11139678955078 114.79536437988281 143.08740234375" stroke-width="3.0" fill="none" stroke="rgb(0, 0, 0)" stroke-opacity="1.0" stroke-linecap="round" stroke-linejoin="round"/>
    <path d="M 147.47918701171875 64.64393615722656 C 164.61825561523438 65.6064682006836 131.8113555908203 46.06688690185547 146.1075897216797 58.996925354003906" stroke-width="3.0" fill="none" stroke="rgb(0, 0, 0)" stroke-opacity="1.0" stroke-linecap="round" stroke-linejoin="round"/>
    <path d="M 139.8928680419922 59.010589599609375 C 109.10456848144531 51.517452239990234 149.2100067138672 55.55665969848633 142.07313537597656 56.43661117553711" stroke-width="3.0" fill="none" stroke="rgb(0, 0, 0)" stroke-opacity="1.0" stroke-linecap="round" stroke-linejoin="round"/>
  </g>
</svg>
