<?xml version="1.0" ?>
<svg xmlns="http://www.w3.org/2000/svg" version="1.1" width="224" height="224">
  <defs/>
  <g>
    <path d="M 177.8547821044922 93.0687026977539 C 162.9875030517578 84.43690490722656 35.47306442260742 98.1222915649414 126.23660278320312 65.99468231201172" stroke-width="3.0" fill="none" stroke="rgb(0, 0, 0)" stroke-opacity="1.0" stroke-linecap="round" stroke-linejoin="round"/>
    <path d="M 179.12741088867188 93.72077178955078 C 174.4582977294922 99.32377624511719 202.547607421875 87.34550476074219 132.2423858642578 121.49755859375" stroke-width="3.0" fill="none" stroke="rgb(0, 0, 0)" stroke-opacity="1.0" stroke-linecap="round" stroke-linejoin="round"/>
    <path d="M 58.847408294677734 42.930267333984375 C 6.489523887634277 26.714811325073242 63.35770034790039 142.3950653076172 83.37593841552734 63.06126403808594" stroke-width="3.0" fill="none" stroke="rgb(0, 0, 0)" stroke-opacity="1.0" stroke-linecap="round" stroke-linejoin="round"/>
    <path d="M 103.28363800048828 61.255210876464844 C 152.37672424316406 65.97586059570312 208.9834442138672 99.80443572998047 106.53253936767578 76.73345947265625" stroke-width="3.0" fill="none" stroke="rgb(0, 0, 0)" stroke-opacity="1.0" stroke-linecap="round" stroke-linejoin="round"/>
    <path d="M 120.298095703125 71.25797271728516 C 206.04351806640625 103.05669403076172 174.35409545898438 93.64207458496094 180.51991271972656 94.45729064941406" stroke-width="3.0" fill="none" stroke="rgb(0, 0, 0)" stroke-opacity="1.0" stroke-linecap="round" stroke-linejoin="round"/>
    <path d="M 104.24449157714844 51.214839935302734 C 112.8559799194336 59.92170333862305 36.82151794433594 136.8359375 73.3504638671875 97.31372833251953" stroke-width="3.0" fill="none" stroke="rgb(0, 0, 0)" stroke-opacity="1.0" stroke-linecap="round" stroke-linejoin="round"/>
    <path d="M 144.35748291015625 78.47274017333984 C 4.415350437164307 61.58956527709961 150.65765380859375 27.720252990722656 187.92567443847656 97.51611328125" stroke-width="3.0" fill="none" stroke="rgb(0, 0, 0)" stroke-opacity="1.0" stroke-linecap="round" stroke-linejoin="round"/>
    <path d="M 87.19908142089844 75.60638427734375 C 114.3791732788086 113.94303894042969 116.77847290039062 61.26189422607422 120.32176971435547 144.67913818359375" stroke-width="3.0" fill="none" stroke="rgb(0, 0, 0)" stroke-opacity="1.0" stroke-linecap="round" stroke-linejoin="round"/>
    <path d="M 128.08685302734375 93.78535461425781 C 119.06954193115234 202.509521484375 128.047119140625 93.47745513916016 103.58489990234375 207.48695373535156" stroke-width="3.0" fill="none" stroke="rgb(0, 0, 0)" stroke-opacity="1.0" stroke-linecap="round" stroke-linejoin="round"/>
    <path d="M 145.59552001953125 65.0415267944336 C 134.3748321533203 46.807823181152344 97.5933837890625 19.51194953918457 83.74491882324219 85.6018295288086" stroke-width="3.0" fill="none" stroke="rgb(0, 0, 0)" stroke-opacity="1.0" stroke-linecap="round" stroke-linejoin="round"/>
    <path d="M 92.19573974609375 61.82836151123047 C 142.93667602539062 34.42765808105469 141.24549865722656 54.25841522216797 170.20645141601562 83.38870239257812" stroke-width="3.0" fill="none" stroke="rgb(0, 0, 0)" stroke-opacity="1.0" stroke-linecap="round" stroke-linejoin="round"/>
    <path d="M 157.759033203125 73.1290283203125 C 160.75067138671875 87.83415222167969 245.1612091064453 128.67819213867188 143.43655395507812 52.66797637939453" stroke-width="3.0" fill="none" stroke="rgb(0, 0, 0)" stroke-opacity="1.0" stroke-linecap="round" stroke-linejoin="round"/>
    <path d="M 153.34019470214844 72.53028869628906 C 180.6901397705078 114.73075866699219 168.8695526123047 87.1679458618164 131.7128143310547 60.647605895996094" stroke-width="3.0" fill="none" stroke="rgb(0, 0, 0)" stroke-opacity="1.0" stroke-linecap="round" stroke-linejoin="round"/>
    <path d="M 127.26622009277344 120.84454345703125 C 138.88558959960938 150.56297302246094 139.487060546875 103.46565246582031 114.15995025634766 149.53598022460938" stroke-width="3.0" fill="none" stroke="rgb(0, 0, 0)" stroke-opacity="1.0" stroke-linecap="round" stroke-linejoin="round"/>
    <path d="M 110.6988525390625 79.6489486694336 C 187.90306091308594 108.05125427246094 144.25344848632812 59.227054595947266 136.5269012451172 68.53629302978516" stroke-width="3.0" fill="none" stroke="rgb(0, 0, 0)" stroke-opacity="1.0" stroke-linecap="round" stroke-linejoin="round"/>
    <path d="M 141.81800842285156 77.23260498046875 C 67.56897735595703 34.814476013183594 160.54934692382812 65.24998474121094 127.42625427246094 47.00493621826172" stroke-width="3.0" fill="none" stroke="rgb(0, 0, 0)" stroke-opacity="1.0" stroke-linecap="round" stroke-linejoin="round"/>
  </g>
</svg>
