<?xml version="1.0" ?>
<svg xmlns="http://www.w3.org/2000/svg" version="1.1" width="224" height="224">
  <defs/>
  <g>
    <path d="M 156.96392822265625 76.70730590820312 C 142.2244110107422 86.52235412597656 106.29780578613281 90.8640365600586 141.62403869628906 79.26752471923828" stroke-width="3.0" fill="none" stroke="rgb(0, 0, 0)" stroke-opacity="1.0" stroke-linecap="round" stroke-linejoin="round"/>
    <path d="M 179.87686157226562 91.47503662109375 C 161.92764282226562 81.33684539794922 186.9428253173828 89.88101959228516 164.0362091064453 109.4231185913086" stroke-width="3.0" fill="none" stroke="rgb(0, 0, 0)" stroke-opacity="1.0" stroke-linecap="round" stroke-linejoin="round"/>
    <path d="M 61.25768280029297 44.41706466674805 C 22.502349853515625 86.33301544189453 90.32257843017578 126.8238754272461 91.41653442382812 77.71292114257812" stroke-width="3.0" fill="none" stroke="rgb(0, 0, 0)" stroke-opacity="1.0" stroke-linecap="round" stroke-linejoin="round"/>
    <path d="M 123.26296997070312 86.18565368652344 C 109.69652557373047 79.55901336669922 154.32717895507812 84.30866241455078 92.22509002685547 95.62702178955078" stroke-width="3.0" fill="none" stroke="rgb(0, 0, 0)" stroke-opacity="1.0" stroke-linecap="round" stroke-linejoin="round"/>
    <path d="M 171.38796997070312 88.46540069580078 C 202.39544677734375 95.18856048583984 172.24044799804688 95.37864685058594 173.92172241210938 91.03843688964844" stroke-width="3.0" fill="none" stroke="rgb(0, 0, 0)" stroke-opacity="1.0" stroke-linecap="round" stroke-linejoin="round"/>
    <path d="M 150.50442504882812 64.45713806152344 C 126.60552978515625 88.43538665771484 64.5362777709961 104.60668182373047 114.08312225341797 76.10604858398438" stroke-width="3.0" fill="none" stroke="rgb(0, 0, 0)" stroke-opacity="1.0" stroke-linecap="round" stroke-linejoin="round"/>
    <path d="M 140.1672821044922 61.17763137817383 C 162.97984313964844 84.69618225097656 130.52523803710938 43.239768981933594 188.0663604736328 88.2090072631836" stroke-width="3.0" fill="none" stroke="rgb(0, 0, 0)" stroke-opacity="1.0" stroke-linecap="round" stroke-linejoin="round"/>
    <path d="M 67.04683685302734 98.96056365966797 C 120.33261108398438 92.72669982910156 102.22784423828125 88.72257232666016 121.74565124511719 139.5222930908203" stroke-width="3.0" fill="none" stroke="rgb(0, 0, 0)" stroke-opacity="1.0" stroke-linecap="round" stroke-linejoin="round"/>
    <path d="M 134.8369598388672 120.907470703125 C 117.96126556396484 175.8540802001953 130.15245056152344 113.67139434814453 103.07744598388672 203.2307586669922" stroke-width="3.0" fill="none" stroke="rgb(0, 0, 0)" stroke-opacity="1.0" stroke-linecap="round" stroke-linejoin="round"/>
    <path d="M 136.25990295410156 54.066829681396484 C 145.1035614013672 55.179534912109375 96.08394622802734 35.29526138305664 76.62251281738281 86.58074951171875" stroke-width="3.0" fill="none" stroke="rgb(0, 0, 0)" stroke-opacity="1.0" stroke-linecap="round" stroke-linejoin="round"/>
    <path d="M 125.96571350097656 83.08968353271484 C 147.7947540283203 56.910221099853516 110.24447631835938 76.58296203613281 170.4230499267578 87.84587860107422" stroke-width="3.0" fill="none" stroke="rgb(0, 0, 0)" stroke-opacity="1.0" stroke-linecap="round" stroke-linejoin="round"/>
    <path d="M 170.3588409423828 79.53291320800781 C 151.19964599609375 76.4966049194336 159.2715606689453 82.50484466552734 149.0999755859375 76.492919921875" stroke-width="3.0" fill="none" stroke="rgb(0, 0, 0)" stroke-opacity="1.0" stroke-linecap="round" stroke-linejoin="round"/>
    <path d="M 136.3526611328125 55.29840850830078 C 124.62625885009766 64.8676986694336 139.42987060546875 55.02406692504883 146.72291564941406 55.73661422729492" stroke-width="3.0" fill="none" stroke="rgb(0, 0, 0)" stroke-opacity="1.0" stroke-linecap="round" stroke-linejoin="round"/>
    <path d="M 122.38944244384766 145.86546325683594 C 129.5452423095703 151.6372528076172 131.30050659179688 113.91919708251953 115.05866241455078 144.85958862304688" stroke-width="3.0" fill="none" stroke="rgb(0, 0, 0)" stroke-opacity="1.0" stroke-linecap="round" stroke-linejoin="round"/>
    <path d="M 134.74093627929688 61.91575241088867 C 150.2162322998047 60.99467086791992 129.5254364013672 46.51721954345703 148.54800415039062 63.504302978515625" stroke-width="3.0" fill="none" stroke="rgb(0, 0, 0)" stroke-opacity="1.0" stroke-linecap="round" stroke-linejoin="round"/>
    <path d="M 136.16908264160156 53.891380310058594 C 127.41925811767578 56.70853805541992 152.71035766601562 48.63677978515625 141.28579711914062 63.63656997680664" stroke-width="3.0" fill="none" stroke="rgb(0, 0, 0)" stroke-opacity="1.0" stroke-linecap="round" stroke-linejoin="round"/>
  </g>
</svg>
