<?xml version="1.0" ?>
<svg xmlns="http://www.w3.org/2000/svg" version="1.1" width="224" height="224">
  <defs/>
  <g>
    <path d="M 159.43182373046875 75.80513000488281 C 143.02960205078125 92.47350311279297 117.68292236328125 98.35257720947266 137.3879852294922 89.45117950439453" stroke-width="3.0" fill="none" stroke="rgb(0, 0, 0)" stroke-opacity="1.0" stroke-linecap="round" stroke-linejoin="round"/>
    <path d="M 178.45989990234375 100.0604019165039 C 185.30755615234375 87.32933807373047 191.9146270751953 98.36400604248047 157.6731719970703 108.51115417480469" stroke-width="3.0" fill="none" stroke="rgb(0, 0, 0)" stroke-opacity="1.0" stroke-linecap="round" stroke-linejoin="round"/>
    <path d="M 65.20259094238281 49.15385437011719 C 43.63541793823242 89.5770492553711 73.67581939697266 120.5105972290039 99.04710388183594 85.11797332763672" stroke-width="3.0" fill="none" stroke="rgb(0, 0, 0)" stroke-opacity="1.0" stroke-linecap="round" stroke-linejoin="round"/>
    <path d="M 120.06903839111328 97.01476287841797 C 115.28636169433594 94.3486099243164 157.5379638671875 96.5357437133789 97.82654571533203 100.70571899414062" stroke-width="3.0" fill="none" stroke="rgb(0, 0, 0)" stroke-opacity="1.0" stroke-linecap="round" stroke-linejoin="round"/>
    <path d="M 179.6363067626953 97.89241790771484 C 200.8851776123047 95.42757415771484 197.79177856445312 100.79859924316406 196.30128479003906 98.58805847167969" stroke-width="3.0" fill="none" stroke="rgb(0, 0, 0)" stroke-opacity="1.0" stroke-linecap="round" stroke-linejoin="round"/>
    <path d="M 134.3944854736328 53.23792266845703 C 134.75656127929688 105.92510223388672 91.69220733642578 124.58882141113281 119.46361541748047 73.77885437011719" stroke-width="3.0" fill="none" stroke="rgb(0, 0, 0)" stroke-opacity="1.0" stroke-linecap="round" stroke-linejoin="round"/>
    <path d="M 139.310302734375 57.778717041015625 C 161.85643005371094 72.19715118408203 141.7981719970703 48.040470123291016 156.8727264404297 67.71968841552734" stroke-width="3.0" fill="none" stroke="rgb(0, 0, 0)" stroke-opacity="1.0" stroke-linecap="round" stroke-linejoin="round"/>
    <path d="M 79.94003295898438 101.42909240722656 C 122.32479095458984 88.31504821777344 110.9747085571289 95.21907806396484 125.49398803710938 131.99913024902344" stroke-width="3.0" fill="none" stroke="rgb(0, 0, 0)" stroke-opacity="1.0" stroke-linecap="round" stroke-linejoin="round"/>
    <path d="M 134.91099548339844 130.7666015625 C 114.63969421386719 167.0177764892578 135.1001434326172 130.76625061035156 104.39077758789062 206.2053680419922" stroke-width="3.0" fill="none" stroke="rgb(0, 0, 0)" stroke-opacity="1.0" stroke-linecap="round" stroke-linejoin="round"/>
    <path d="M 122.26309204101562 56.817012786865234 C 145.49765014648438 60.0840950012207 109.18035125732422 49.12232208251953 89.66519927978516 98.31053924560547" stroke-width="3.0" fill="none" stroke="rgb(0, 0, 0)" stroke-opacity="1.0" stroke-linecap="round" stroke-linejoin="round"/>
    <path d="M 134.25225830078125 92.57557678222656 C 153.59315490722656 77.79354095458984 123.90503692626953 67.38272094726562 154.9756317138672 64.57640075683594" stroke-width="3.0" fill="none" stroke="rgb(0, 0, 0)" stroke-opacity="1.0" stroke-linecap="round" stroke-linejoin="round"/>
    <path d="M 154.3066864013672 66.40872192382812 C 137.43751525878906 86.7617416381836 146.15357971191406 104.48058319091797 152.7967529296875 64.62271881103516" stroke-width="3.0" fill="none" stroke="rgb(0, 0, 0)" stroke-opacity="1.0" stroke-linecap="round" stroke-linejoin="round"/>
    <path d="M 132.4562530517578 66.62969207763672 C 121.957275390625 83.03903198242188 133.15744018554688 51.10033416748047 147.33985900878906 56.04289245605469" stroke-width="3.0" fill="none" stroke="rgb(0, 0, 0)" stroke-opacity="1.0" stroke-linecap="round" stroke-linejoin="round"/>
    <path d="M 122.1451644897461 134.88121032714844 C 128.14833068847656 145.8123016357422 130.5872039794922 113.6724853515625 116.13605499267578 132.96185302734375" stroke-width="3.0" fill="none" stroke="rgb(0, 0, 0)" stroke-opacity="1.0" stroke-linecap="round" stroke-linejoin="round"/>
    <path d="M 134.60801696777344 52.7027587890625 C 147.2351837158203 57.84385299682617 136.89390563964844 47.37138748168945 147.36428833007812 63.79854202270508" stroke-width="3.0" fill="none" stroke="rgb(0, 0, 0)" stroke-opacity="1.0" stroke-linecap="round" stroke-linejoin="round"/>
    <path d="M 127.13272094726562 56.081233978271484 C 119.61515045166016 55.85206604003906 153.03814697265625 42.288455963134766 145.1526641845703 66.87932586669922" stroke-width="3.0" fill="none" stroke="rgb(0, 0, 0)" stroke-opacity="1.0" stroke-linecap="round" stroke-linejoin="round"/>
  </g>
</svg>
