<?xml version="1.0" ?>
<svg xmlns="http://www.w3.org/2000/svg" version="1.1" width="224" height="224">
  <defs/>
  <g>
    <path d="M 173.52957153320312 91.0306396484375 C 128.51510620117188 85.80874633789062 74.6259994506836 107.6813735961914 146.56930541992188 75.2365493774414" stroke-width="3.0" fill="none" stroke="rgb(0, 0, 0)" stroke-opacity="1.0" stroke-linecap="round" stroke-linejoin="round"/>
    <path d="M 176.4095458984375 92.26937866210938 C 173.41476440429688 99.22531127929688 192.8364715576172 90.78461456298828 158.78176879882812 109.99150085449219" stroke-width="3.0" fill="none" stroke="rgb(0, 0, 0)" stroke-opacity="1.0" stroke-linecap="round" stroke-linejoin="round"/>
    <path d="M 54.03700256347656 39.08277130126953 C 17.239543914794922 50.404720306396484 83.2609634399414 141.16766357421875 81.85491943359375 70.6408462524414" stroke-width="3.0" fill="none" stroke="rgb(0, 0, 0)" stroke-opacity="1.0" stroke-linecap="round" stroke-linejoin="round"/>
    <path d="M 113.15604400634766 70.9102783203125 C 150.56980895996094 69.3129653930664 196.93618774414062 79.35358428955078 101.60587310791016 93.57282257080078" stroke-width="3.0" fill="none" stroke="rgb(0, 0, 0)" stroke-opacity="1.0" stroke-linecap="round" stroke-linejoin="round"/>
    <path d="M 158.8464813232422 85.92406463623047 C 216.52957153320312 105.44503021240234 165.26243591308594 97.70123291015625 176.2705535888672 92.00157165527344" stroke-width="3.0" fill="none" stroke="rgb(0, 0, 0)" stroke-opacity="1.0" stroke-linecap="round" stroke-linejoin="round"/>
    <path d="M 148.15184020996094 61.694942474365234 C 112.49117279052734 69.19011688232422 61.585357666015625 107.64900970458984 90.53186798095703 63.68939971923828" stroke-width="3.0" fill="none" stroke="rgb(0, 0, 0)" stroke-opacity="1.0" stroke-linecap="round" stroke-linejoin="round"/>
    <path d="M 155.5172119140625 69.67759704589844 C 119.46172332763672 63.0936393737793 162.0399627685547 50.9893913269043 190.45257568359375 95.96156311035156" stroke-width="3.0" fill="none" stroke="rgb(0, 0, 0)" stroke-opacity="1.0" stroke-linecap="round" stroke-linejoin="round"/>
    <path d="M 84.12139892578125 89.61040496826172 C 124.29838562011719 101.94920349121094 115.87715911865234 83.99274444580078 124.04424285888672 137.41983032226562" stroke-width="3.0" fill="none" stroke="rgb(0, 0, 0)" stroke-opacity="1.0" stroke-linecap="round" stroke-linejoin="round"/>
    <path d="M 137.2438201904297 95.5468978881836 C 118.06021118164062 188.2535858154297 130.8465118408203 85.859130859375 106.66055297851562 206.12696838378906" stroke-width="3.0" fill="none" stroke="rgb(0, 0, 0)" stroke-opacity="1.0" stroke-linecap="round" stroke-linejoin="round"/>
    <path d="M 123.30213165283203 50.398155212402344 C 139.38172912597656 51.89683532714844 78.09618377685547 29.048873901367188 73.70854949951172 76.12405395507812" stroke-width="3.0" fill="none" stroke="rgb(0, 0, 0)" stroke-opacity="1.0" stroke-linecap="round" stroke-linejoin="round"/>
    <path d="M 109.11634063720703 47.26567840576172 C 160.3839874267578 48.4322395324707 133.0851593017578 64.07328033447266 174.001708984375 84.52985382080078" stroke-width="3.0" fill="none" stroke="rgb(0, 0, 0)" stroke-opacity="1.0" stroke-linecap="round" stroke-linejoin="round"/>
    <path d="M 181.38160705566406 87.29412841796875 C 150.1900634765625 68.42098236083984 197.8811798095703 93.9031982421875 146.92288208007812 87.54256439208984" stroke-width="3.0" fill="none" stroke="rgb(0, 0, 0)" stroke-opacity="1.0" stroke-linecap="round" stroke-linejoin="round"/>
    <path d="M 146.06594848632812 65.15973663330078 C 144.01388549804688 71.65544891357422 152.54052734375 59.40618896484375 145.26458740234375 64.4715805053711" stroke-width="3.0" fill="none" stroke="rgb(0, 0, 0)" stroke-opacity="1.0" stroke-linecap="round" stroke-linejoin="round"/>
    <path d="M 124.1210708618164 130.98475646972656 C 137.42433166503906 148.4009552001953 128.3768768310547 103.93902587890625 115.59525299072266 146.23484802246094" stroke-width="3.0" fill="none" stroke="rgb(0, 0, 0)" stroke-opacity="1.0" stroke-linecap="round" stroke-linejoin="round"/>
    <path d="M 147.52960205078125 63.749908447265625 C 164.32899475097656 66.31529235839844 131.04525756835938 49.00593185424805 145.8689422607422 60.0934944152832" stroke-width="3.0" fill="none" stroke="rgb(0, 0, 0)" stroke-opacity="1.0" stroke-linecap="round" stroke-linejoin="round"/>
    <path d="M 141.20008850097656 52.20280075073242 C 113.08784484863281 45.178192138671875 150.80958557128906 53.34813690185547 145.29469299316406 52.683448791503906" stroke-width="3.0" fill="none" stroke="rgb(0, 0, 0)" stroke-opacity="1.0" stroke-linecap="round" stroke-linejoin="round"/>
  </g>
</svg>
