<?xml version="1.0" ?>
<svg xmlns="http://www.w3.org/2000/svg" version="1.1" width="224" height="224">
  <defs/>
  <g>
    <path d="M 173.38980102539062 89.16705322265625 C 138.82980346679688 80.83428192138672 101.6809310913086 92.02548217773438 145.53636169433594 88.9918212890625" stroke-width="3.0" fill="none" stroke="rgb(0, 0, 0)" stroke-opacity="1.0" stroke-linecap="round" stroke-linejoin="round"/>
    <path d="M 177.8510284423828 90.68647003173828 C 173.82870483398438 100.87417602539062 194.44781494140625 90.634033203125 157.93748474121094 109.72891235351562" stroke-width="3.0" fill="none" stroke="rgb(0, 0, 0)" stroke-opacity="1.0" stroke-linecap="round" stroke-linejoin="round"/>
    <path d="M 47.19600296020508 43.25035095214844 C 12.95040512084961 70.53328704833984 83.3812484741211 130.05267333984375 79.04425811767578 69.07151794433594" stroke-width="3.0" fill="none" stroke="rgb(0, 0, 0)" stroke-opacity="1.0" stroke-linecap="round" stroke-linejoin="round"/>
    <path d="M 98.76863861083984 78.20282745361328 C 125.94599914550781 82.64387512207031 169.51602172851562 89.03982543945312 101.56199645996094 92.37786102294922" stroke-width="3.0" fill="none" stroke="rgb(0, 0, 0)" stroke-opacity="1.0" stroke-linecap="round" stroke-linejoin="round"/>
    <path d="M 159.26808166503906 84.03587341308594 C 212.3805694580078 101.71163940429688 172.00294494628906 98.82237243652344 188.7237548828125 97.6797866821289" stroke-width="3.0" fill="none" stroke="rgb(0, 0, 0)" stroke-opacity="1.0" stroke-linecap="round" stroke-linejoin="round"/>
    <path d="M 143.88780212402344 55.00218200683594 C 116.35032653808594 76.1112060546875 62.84734344482422 109.18450927734375 86.13011169433594 63.21116256713867" stroke-width="3.0" fill="none" stroke="rgb(0, 0, 0)" stroke-opacity="1.0" stroke-linecap="round" stroke-linejoin="round"/>
    <path d="M 141.09751892089844 64.13409423828125 C 144.50669860839844 73.18429565429688 145.42367553710938 48.58003616333008 190.27352905273438 93.74879455566406" stroke-width="3.0" fill="none" stroke="rgb(0, 0, 0)" stroke-opacity="1.0" stroke-linecap="round" stroke-linejoin="round"/>
    <path d="M 82.33258056640625 90.76776885986328 C 122.04071044921875 99.97938537597656 108.47222900390625 88.40966033935547 122.68754577636719 135.03150939941406" stroke-width="3.0" fill="none" stroke="rgb(0, 0, 0)" stroke-opacity="1.0" stroke-linecap="round" stroke-linejoin="round"/>
    <path d="M 139.26182556152344 114.1406478881836 C 120.42759704589844 180.09596252441406 132.25506591796875 107.16849517822266 105.26805877685547 206.706298828125" stroke-width="3.0" fill="none" stroke="rgb(0, 0, 0)" stroke-opacity="1.0" stroke-linecap="round" stroke-linejoin="round"/>
    <path d="M 137.94679260253906 51.440975189208984 C 143.9080810546875 49.7563362121582 79.75053405761719 22.272409439086914 67.31099700927734 83.98292541503906" stroke-width="3.0" fill="none" stroke="rgb(0, 0, 0)" stroke-opacity="1.0" stroke-linecap="round" stroke-linejoin="round"/>
    <path d="M 103.47810363769531 75.89815521240234 C 149.87181091308594 66.8981704711914 120.80018615722656 70.50980377197266 176.5182647705078 91.5350570678711" stroke-width="3.0" fill="none" stroke="rgb(0, 0, 0)" stroke-opacity="1.0" stroke-linecap="round" stroke-linejoin="round"/>
    <path d="M 178.8624267578125 84.69901275634766 C 145.5021209716797 73.36231994628906 174.56979370117188 82.56134033203125 148.4678955078125 78.21854400634766" stroke-width="3.0" fill="none" stroke="rgb(0, 0, 0)" stroke-opacity="1.0" stroke-linecap="round" stroke-linejoin="round"/>
    <path d="M 144.32974243164062 62.985382080078125 C 143.14340209960938 71.57505798339844 149.6544647216797 56.4925422668457 146.93324279785156 61.08623504638672" stroke-width="3.0" fill="none" stroke="rgb(0, 0, 0)" stroke-opacity="1.0" stroke-linecap="round" stroke-linejoin="round"/>
    <path d="M 123.7027816772461 132.49093627929688 C 131.6212615966797 139.93740844726562 123.76630401611328 106.4847183227539 114.71268463134766 147.23605346679688" stroke-width="3.0" fill="none" stroke="rgb(0, 0, 0)" stroke-opacity="1.0" stroke-linecap="round" stroke-linejoin="round"/>
    <path d="M 145.290283203125 63.503902435302734 C 166.12725830078125 64.5920181274414 128.0875244140625 57.12187194824219 150.52291870117188 62.74272918701172" stroke-width="3.0" fill="none" stroke="rgb(0, 0, 0)" stroke-opacity="1.0" stroke-linecap="round" stroke-linejoin="round"/>
    <path d="M 141.2247772216797 53.87287521362305 C 122.90686798095703 55.87646484375 161.02133178710938 57.52933883666992 148.65968322753906 65.54782104492188" stroke-width="3.0" fill="none" stroke="rgb(0, 0, 0)" stroke-opacity="1.0" stroke-linecap="round" stroke-linejoin="round"/>
  </g>
</svg>
