<?xml version="1.0" ?>
<svg xmlns="http://www.w3.org/2000/svg" version="1.1" width="224" height="224">
  <defs/>
  <g>
    <path d="M 176.2705535888672 93.0302505493164 C 162.45468139648438 82.60674285888672 46.02222442626953 102.07054138183594 135.37490844726562 85.6603012084961" stroke-width="3.0" fill="none" stroke="rgb(0, 0, 0)" stroke-opacity="1.0" stroke-linecap="round" stroke-linejoin="round"/>
    <path d="M 185.14501953125 96.32786560058594 C 174.8665771484375 96.28941345214844 204.6961212158203 89.56181335449219 136.76217651367188 119.92605590820312" stroke-width="3.0" fill="none" stroke="rgb(0, 0, 0)" stroke-opacity="1.0" stroke-linecap="round" stroke-linejoin="round"/>
    <path d="M 56.54753494262695 42.06535339355469 C 10.958950996398926 24.0943603515625 67.68183135986328 127.16705322265625 82.07145690917969 66.9426498413086" stroke-width="3.0" fill="none" stroke="rgb(0, 0, 0)" stroke-opacity="1.0" stroke-linecap="round" stroke-linejoin="round"/>
    <path d="M 96.87297058105469 68.16542053222656 C 154.75355529785156 64.41999053955078 207.2554473876953 95.91949462890625 96.25167083740234 81.54685974121094" stroke-width="3.0" fill="none" stroke="rgb(0, 0, 0)" stroke-opacity="1.0" stroke-linecap="round" stroke-linejoin="round"/>
    <path d="M 135.72840881347656 72.19176483154297 C 207.40432739257812 98.61808776855469 169.51953125 99.4961929321289 180.74183654785156 96.00432586669922" stroke-width="3.0" fill="none" stroke="rgb(0, 0, 0)" stroke-opacity="1.0" stroke-linecap="round" stroke-linejoin="round"/>
    <path d="M 103.91788482666016 52.55675506591797 C 106.86876678466797 57.59067916870117 38.578399658203125 146.01927185058594 72.36689758300781 91.14196014404297" stroke-width="3.0" fill="none" stroke="rgb(0, 0, 0)" stroke-opacity="1.0" stroke-linecap="round" stroke-linejoin="round"/>
    <path d="M 145.04417419433594 84.02959442138672 C 10.961645126342773 71.95219421386719 156.20016479492188 28.00081443786621 190.71435546875 96.31502532958984" stroke-width="3.0" fill="none" stroke="rgb(0, 0, 0)" stroke-opacity="1.0" stroke-linecap="round" stroke-linejoin="round"/>
    <path d="M 88.92948913574219 81.44617462158203 C 117.8160171508789 112.83686828613281 116.2992935180664 71.94914245605469 122.73956298828125 144.68251037597656" stroke-width="3.0" fill="none" stroke="rgb(0, 0, 0)" stroke-opacity="1.0" stroke-linecap="round" stroke-linejoin="round"/>
    <path d="M 130.7228546142578 90.37960052490234 C 112.18412017822266 202.66749572753906 131.2598419189453 93.82099914550781 105.87706756591797 206.1209259033203" stroke-width="3.0" fill="none" stroke="rgb(0, 0, 0)" stroke-opacity="1.0" stroke-linecap="round" stroke-linejoin="round"/>
    <path d="M 150.31280517578125 62.113372802734375 C 135.3448028564453 47.00038528442383 90.24563598632812 19.27994728088379 83.92405700683594 85.64810943603516" stroke-width="3.0" fill="none" stroke="rgb(0, 0, 0)" stroke-opacity="1.0" stroke-linecap="round" stroke-linejoin="round"/>
    <path d="M 94.68647003173828 59.296504974365234 C 138.197509765625 31.992700576782227 140.73123168945312 54.40889358520508 170.0379180908203 83.4311294555664" stroke-width="3.0" fill="none" stroke="rgb(0, 0, 0)" stroke-opacity="1.0" stroke-linecap="round" stroke-linejoin="round"/>
    <path d="M 156.59104919433594 79.8734359741211 C 158.1125946044922 84.2769775390625 248.18576049804688 125.68831634521484 139.48696899414062 59.58226776123047" stroke-width="3.0" fill="none" stroke="rgb(0, 0, 0)" stroke-opacity="1.0" stroke-linecap="round" stroke-linejoin="round"/>
    <path d="M 142.18299865722656 78.94036865234375 C 181.38746643066406 95.07636260986328 175.9314422607422 68.19995880126953 133.05322265625 72.40349578857422" stroke-width="3.0" fill="none" stroke="rgb(0, 0, 0)" stroke-opacity="1.0" stroke-linecap="round" stroke-linejoin="round"/>
    <path d="M 127.2735366821289 121.31062316894531 C 148.92262268066406 151.8151092529297 139.51205444335938 103.59703826904297 116.5696792602539 148.17176818847656" stroke-width="3.0" fill="none" stroke="rgb(0, 0, 0)" stroke-opacity="1.0" stroke-linecap="round" stroke-linejoin="round"/>
    <path d="M 125.03501892089844 77.8165283203125 C 178.08811950683594 98.12696838378906 150.39248657226562 47.05154800415039 147.64306640625 60.93706512451172" stroke-width="3.0" fill="none" stroke="rgb(0, 0, 0)" stroke-opacity="1.0" stroke-linecap="round" stroke-linejoin="round"/>
    <path d="M 140.1961669921875 69.41675567626953 C 91.28897857666016 49.720741271972656 172.0651397705078 69.64568328857422 131.0616912841797 52.51319885253906" stroke-width="3.0" fill="none" stroke="rgb(0, 0, 0)" stroke-opacity="1.0" stroke-linecap="round" stroke-linejoin="round"/>
  </g>
</svg>
