<?xml version="1.0" ?>
<svg xmlns="http://www.w3.org/2000/svg" version="1.1" width="224" height="224">
  <defs/>
  <g>
    <path d="M 182.64932250976562 94.0859603881836 C 145.37611389160156 74.03690338134766 56.47566223144531 98.67127990722656 139.62901306152344 71.86930847167969" stroke-width="3.0" fill="none" stroke="rgb(0, 0, 0)" stroke-opacity="1.0" stroke-linecap="round" stroke-linejoin="round"/>
    <path d="M 182.2138671875 98.43082427978516 C 182.85931396484375 94.52542877197266 202.98590087890625 93.83924102783203 133.35238647460938 119.87579345703125" stroke-width="3.0" fill="none" stroke="rgb(0, 0, 0)" stroke-opacity="1.0" stroke-linecap="round" stroke-linejoin="round"/>
    <path d="M 54.74444580078125 41.887535095214844 C 7.5741353034973145 35.907806396484375 65.15338897705078 127.57221221923828 70.18254852294922 64.19633483886719" stroke-width="3.0" fill="none" stroke="rgb(0, 0, 0)" stroke-opacity="1.0" stroke-linecap="round" stroke-linejoin="round"/>
    <path d="M 108.61714172363281 64.77308654785156 C 153.50697326660156 61.825584411621094 205.20065307617188 77.97979736328125 98.15473175048828 82.05875396728516" stroke-width="3.0" fill="none" stroke="rgb(0, 0, 0)" stroke-opacity="1.0" stroke-linecap="round" stroke-linejoin="round"/>
    <path d="M 153.77008056640625 78.55856323242188 C 209.08631896972656 105.9941177368164 166.57147216796875 101.72425842285156 188.20025634765625 100.73356628417969" stroke-width="3.0" fill="none" stroke="rgb(0, 0, 0)" stroke-opacity="1.0" stroke-linecap="round" stroke-linejoin="round"/>
    <path d="M 142.0527801513672 54.28303909301758 C 104.06426239013672 60.94466018676758 33.57513427734375 117.54427337646484 68.21432495117188 73.97576141357422" stroke-width="3.0" fill="none" stroke="rgb(0, 0, 0)" stroke-opacity="1.0" stroke-linecap="round" stroke-linejoin="round"/>
    <path d="M 154.8890838623047 76.3735122680664 C 71.64763641357422 55.58298110961914 159.7071533203125 38.70119857788086 189.5379180908203 97.80694580078125" stroke-width="3.0" fill="none" stroke="rgb(0, 0, 0)" stroke-opacity="1.0" stroke-linecap="round" stroke-linejoin="round"/>
    <path d="M 86.37850952148438 73.17403411865234 C 128.66632080078125 91.70561218261719 115.85721588134766 82.58872985839844 123.25569915771484 144.15701293945312" stroke-width="3.0" fill="none" stroke="rgb(0, 0, 0)" stroke-opacity="1.0" stroke-linecap="round" stroke-linejoin="round"/>
    <path d="M 131.49803161621094 90.12113189697266 C 116.36451721191406 200.33985900878906 130.06202697753906 93.76676177978516 105.5905990600586 204.57012939453125" stroke-width="3.0" fill="none" stroke="rgb(0, 0, 0)" stroke-opacity="1.0" stroke-linecap="round" stroke-linejoin="round"/>
    <path d="M 128.58470153808594 50.207088470458984 C 138.45835876464844 53.80594253540039 83.93907165527344 29.554157257080078 77.13584899902344 82.88246154785156" stroke-width="3.0" fill="none" stroke="rgb(0, 0, 0)" stroke-opacity="1.0" stroke-linecap="round" stroke-linejoin="round"/>
    <path d="M 110.49813842773438 54.66316604614258 C 143.6046905517578 43.93338394165039 131.07542419433594 64.77729797363281 168.67323303222656 84.4102783203125" stroke-width="3.0" fill="none" stroke="rgb(0, 0, 0)" stroke-opacity="1.0" stroke-linecap="round" stroke-linejoin="round"/>
    <path d="M 155.0528564453125 82.61930084228516 C 143.49359130859375 72.12799072265625 216.72720336914062 109.79877471923828 152.96487426757812 64.06385040283203" stroke-width="3.0" fill="none" stroke="rgb(0, 0, 0)" stroke-opacity="1.0" stroke-linecap="round" stroke-linejoin="round"/>
    <path d="M 160.8785858154297 67.61759185791016 C 167.48329162597656 89.36814880371094 158.58914184570312 77.34313201904297 141.06597900390625 73.7218246459961" stroke-width="3.0" fill="none" stroke="rgb(0, 0, 0)" stroke-opacity="1.0" stroke-linecap="round" stroke-linejoin="round"/>
    <path d="M 126.9775390625 124.93804931640625 C 147.55821228027344 159.71890258789062 137.57687377929688 106.79444885253906 117.10261535644531 150.10069274902344" stroke-width="3.0" fill="none" stroke="rgb(0, 0, 0)" stroke-opacity="1.0" stroke-linecap="round" stroke-linejoin="round"/>
    <path d="M 137.41905212402344 80.46651458740234 C 178.92327880859375 94.90179443359375 141.8560333251953 57.73003005981445 152.38059997558594 66.83750915527344" stroke-width="3.0" fill="none" stroke="rgb(0, 0, 0)" stroke-opacity="1.0" stroke-linecap="round" stroke-linejoin="round"/>
    <path d="M 138.34100341796875 54.02157974243164 C 121.59442901611328 47.177059173583984 156.98580932617188 66.02783966064453 142.97354125976562 53.40814971923828" stroke-width="3.0" fill="none" stroke="rgb(0, 0, 0)" stroke-opacity="1.0" stroke-linecap="round" stroke-linejoin="round"/>
  </g>
</svg>
