<?xml version="1.0" ?>
<svg xmlns="http://www.w3.org/2000/svg" version="1.1" width="224" height="224">
  <defs/>
  <g>
    <path d="M 153.23919677734375 69.68077850341797 C 140.65040588378906 90.06575775146484 117.25786590576172 102.67554473876953 137.97996520996094 90.66862487792969" stroke-width="3.0" fill="none" stroke="rgb(0, 0, 0)" stroke-opacity="1.0" stroke-linecap="round" stroke-linejoin="round"/>
    <path d="M 176.63055419921875 98.65740203857422 C 181.1591033935547 79.8607406616211 189.53147888183594 90.0915756225586 163.78677368164062 100.13603973388672" stroke-width="3.0" fill="none" stroke="rgb(0, 0, 0)" stroke-opacity="1.0" stroke-linecap="round" stroke-linejoin="round"/>
    <path d="M 70.05978393554688 42.60911178588867 C 38.98720169067383 91.0656509399414 72.07310485839844 124.12136840820312 98.67254638671875 87.41254425048828" stroke-width="3.0" fill="none" stroke="rgb(0, 0, 0)" stroke-opacity="1.0" stroke-linecap="round" stroke-linejoin="round"/>
    <path d="M 115.0094985961914 89.19268035888672 C 112.31092071533203 89.47443389892578 152.44900512695312 85.84864044189453 100.00486755371094 97.81227111816406" stroke-width="3.0" fill="none" stroke="rgb(0, 0, 0)" stroke-opacity="1.0" stroke-linecap="round" stroke-linejoin="round"/>
    <path d="M 182.7636260986328 88.95162963867188 C 202.2248077392578 86.01311492919922 203.14419555664062 86.821533203125 200.70440673828125 86.75350952148438" stroke-width="3.0" fill="none" stroke="rgb(0, 0, 0)" stroke-opacity="1.0" stroke-linecap="round" stroke-linejoin="round"/>
    <path d="M 130.79478454589844 53.765628814697266 C 130.3070068359375 100.0076675415039 87.95622253417969 117.67167663574219 117.7799072265625 70.81986236572266" stroke-width="3.0" fill="none" stroke="rgb(0, 0, 0)" stroke-opacity="1.0" stroke-linecap="round" stroke-linejoin="round"/>
    <path d="M 141.85609436035156 56.74550247192383 C 160.2276611328125 72.57042694091797 138.68247985839844 52.99181365966797 158.8096160888672 65.02591705322266" stroke-width="3.0" fill="none" stroke="rgb(0, 0, 0)" stroke-opacity="1.0" stroke-linecap="round" stroke-linejoin="round"/>
    <path d="M 81.21553802490234 103.43060302734375 C 129.7089080810547 91.63008117675781 109.09806060791016 99.81492614746094 122.98980712890625 127.9393310546875" stroke-width="3.0" fill="none" stroke="rgb(0, 0, 0)" stroke-opacity="1.0" stroke-linecap="round" stroke-linejoin="round"/>
    <path d="M 135.1223907470703 131.72097778320312 C 109.14604187011719 156.83026123046875 123.97998809814453 129.67588806152344 106.25521087646484 204.378662109375" stroke-width="3.0" fill="none" stroke="rgb(0, 0, 0)" stroke-opacity="1.0" stroke-linecap="round" stroke-linejoin="round"/>
    <path d="M 121.21678924560547 57.55745315551758 C 145.51754760742188 69.79722595214844 109.33284759521484 53.40262985229492 91.09866333007812 97.06916046142578" stroke-width="3.0" fill="none" stroke="rgb(0, 0, 0)" stroke-opacity="1.0" stroke-linecap="round" stroke-linejoin="round"/>
    <path d="M 127.39649963378906 88.37923431396484 C 149.67970275878906 79.20470428466797 119.95952606201172 68.5493392944336 152.6604461669922 65.60782623291016" stroke-width="3.0" fill="none" stroke="rgb(0, 0, 0)" stroke-opacity="1.0" stroke-linecap="round" stroke-linejoin="round"/>
    <path d="M 153.33950805664062 67.03280639648438 C 136.8824005126953 90.8614273071289 140.9215545654297 108.38597869873047 147.2739715576172 61.233795166015625" stroke-width="3.0" fill="none" stroke="rgb(0, 0, 0)" stroke-opacity="1.0" stroke-linecap="round" stroke-linejoin="round"/>
    <path d="M 128.90611267089844 67.55230712890625 C 126.05210876464844 84.85711669921875 132.44662475585938 46.72996520996094 146.3772735595703 57.96626663208008" stroke-width="3.0" fill="none" stroke="rgb(0, 0, 0)" stroke-opacity="1.0" stroke-linecap="round" stroke-linejoin="round"/>
    <path d="M 118.64286804199219 129.47311401367188 C 132.02462768554688 144.4420166015625 124.24296569824219 110.4076156616211 115.76554107666016 138.21600341796875" stroke-width="3.0" fill="none" stroke="rgb(0, 0, 0)" stroke-opacity="1.0" stroke-linecap="round" stroke-linejoin="round"/>
    <path d="M 135.40757751464844 49.6132698059082 C 154.28530883789062 57.347373962402344 142.419189453125 46.20517349243164 151.49371337890625 63.05348205566406" stroke-width="3.0" fill="none" stroke="rgb(0, 0, 0)" stroke-opacity="1.0" stroke-linecap="round" stroke-linejoin="round"/>
    <path d="M 125.77312469482422 54.20452880859375 C 117.80763244628906 49.63926696777344 148.5137176513672 31.995513916015625 140.0908966064453 62.2333984375" stroke-width="3.0" fill="none" stroke="rgb(0, 0, 0)" stroke-opacity="1.0" stroke-linecap="round" stroke-linejoin="round"/>
  </g>
</svg>
