<?xml version="1.0" ?>
<svg xmlns="http://www.w3.org/2000/svg" version="1.1" width="224" height="224">
  <defs/>
  <g>
    <path d="M 172.4042510986328 89.88719940185547 C 136.5333709716797 76.96466064453125 104.10667419433594 90.37123107910156 147.19395446777344 82.88346862792969" stroke-width="3.0" fill="none" stroke="rgb(0, 0, 0)" stroke-opacity="1.0" stroke-linecap="round" stroke-linejoin="round"/>
    <path d="M 172.51394653320312 87.7364730834961 C 172.7696990966797 93.9162826538086 192.4272918701172 91.33748626708984 159.58836364746094 109.45767211914062" stroke-width="3.0" fill="none" stroke="rgb(0, 0, 0)" stroke-opacity="1.0" stroke-linecap="round" stroke-linejoin="round"/>
    <path d="M 48.37254333496094 42.81011199951172 C 13.058133125305176 58.405391693115234 81.22749328613281 135.55699157714844 87.8306655883789 73.40071105957031" stroke-width="3.0" fill="none" stroke="rgb(0, 0, 0)" stroke-opacity="1.0" stroke-linecap="round" stroke-linejoin="round"/>
    <path d="M 100.60116577148438 71.21768188476562 C 157.20980834960938 71.73674011230469 202.04481506347656 79.42884063720703 108.3628158569336 89.88229370117188" stroke-width="3.0" fill="none" stroke="rgb(0, 0, 0)" stroke-opacity="1.0" stroke-linecap="round" stroke-linejoin="round"/>
    <path d="M 161.31192016601562 84.96016693115234 C 212.82814025878906 105.10462951660156 168.01768493652344 98.2295913696289 183.58021545410156 95.76814270019531" stroke-width="3.0" fill="none" stroke="rgb(0, 0, 0)" stroke-opacity="1.0" stroke-linecap="round" stroke-linejoin="round"/>
    <path d="M 146.22463989257812 58.27040100097656 C 114.8927230834961 68.79700469970703 70.96360778808594 101.13531494140625 92.67510986328125 59.407833099365234" stroke-width="3.0" fill="none" stroke="rgb(0, 0, 0)" stroke-opacity="1.0" stroke-linecap="round" stroke-linejoin="round"/>
    <path d="M 151.47140502929688 66.0832290649414 C 132.45443725585938 67.1280288696289 159.9363250732422 49.275352478027344 189.8257293701172 95.56036376953125" stroke-width="3.0" fill="none" stroke="rgb(0, 0, 0)" stroke-opacity="1.0" stroke-linecap="round" stroke-linejoin="round"/>
    <path d="M 84.59587860107422 91.29290008544922 C 119.44698333740234 98.34982299804688 112.275390625 75.74069213867188 124.59815979003906 136.9139862060547" stroke-width="3.0" fill="none" stroke="rgb(0, 0, 0)" stroke-opacity="1.0" stroke-linecap="round" stroke-linejoin="round"/>
    <path d="M 142.07138061523438 109.81999206542969 C 112.82140350341797 176.1464080810547 132.97764587402344 100.71409606933594 104.07211303710938 205.85519409179688" stroke-width="3.0" fill="none" stroke="rgb(0, 0, 0)" stroke-opacity="1.0" stroke-linecap="round" stroke-linejoin="round"/>
    <path d="M 120.32015228271484 49.14902877807617 C 144.20018005371094 52.62641525268555 93.10261535644531 30.220054626464844 82.5864486694336 79.6268081665039" stroke-width="3.0" fill="none" stroke="rgb(0, 0, 0)" stroke-opacity="1.0" stroke-linecap="round" stroke-linejoin="round"/>
    <path d="M 104.25348663330078 63.74003982543945 C 156.89212036132812 53.866024017333984 131.25897216796875 59.2236328125 172.01797485351562 83.9378890991211" stroke-width="3.0" fill="none" stroke="rgb(0, 0, 0)" stroke-opacity="1.0" stroke-linecap="round" stroke-linejoin="round"/>
    <path d="M 178.76034545898438 82.84769439697266 C 145.41929626464844 62.74384307861328 170.98379516601562 77.59984588623047 143.880615234375 81.69356536865234" stroke-width="3.0" fill="none" stroke="rgb(0, 0, 0)" stroke-opacity="1.0" stroke-linecap="round" stroke-linejoin="round"/>
    <path d="M 143.55133056640625 63.977237701416016 C 138.54959106445312 66.83995819091797 149.30825805664062 56.19629669189453 147.1231231689453 61.486385345458984" stroke-width="3.0" fill="none" stroke="rgb(0, 0, 0)" stroke-opacity="1.0" stroke-linecap="round" stroke-linejoin="round"/>
    <path d="M 127.1135025024414 135.923583984375 C 132.7149200439453 147.38987731933594 130.43795776367188 109.6513442993164 116.66561889648438 143.0078125" stroke-width="3.0" fill="none" stroke="rgb(0, 0, 0)" stroke-opacity="1.0" stroke-linecap="round" stroke-linejoin="round"/>
    <path d="M 145.9461669921875 62.99515151977539 C 163.88282775878906 65.39881134033203 127.1025161743164 52.545684814453125 154.73196411132812 62.4099006652832" stroke-width="3.0" fill="none" stroke="rgb(0, 0, 0)" stroke-opacity="1.0" stroke-linecap="round" stroke-linejoin="round"/>
    <path d="M 139.22109985351562 57.964805603027344 C 118.35066986083984 51.799530029296875 153.6901397705078 60.53544616699219 145.568115234375 63.767189025878906" stroke-width="3.0" fill="none" stroke="rgb(0, 0, 0)" stroke-opacity="1.0" stroke-linecap="round" stroke-linejoin="round"/>
  </g>
</svg>
