<?xml version="1.0" ?>
<svg xmlns="http://www.w3.org/2000/svg" version="1.1" width="224" height="224">
  <defs/>
  <g>
    <path d="M 162.3055419921875 85.99172973632812 C 138.57919311523438 84.32197570800781 103.78282928466797 93.9009017944336 148.12539672851562 81.00869750976562" stroke-width="3.0" fill="none" stroke="rgb(0, 0, 0)" stroke-opacity="1.0" stroke-linecap="round" stroke-linejoin="round"/>
    <path d="M 181.19960021972656 95.62796783447266 C 166.59619140625 94.70189666748047 191.71047973632812 89.2831039428711 163.68560791015625 108.10480499267578" stroke-width="3.0" fill="none" stroke="rgb(0, 0, 0)" stroke-opacity="1.0" stroke-linecap="round" stroke-linejoin="round"/>
    <path d="M 48.11061096191406 42.85353088378906 C 4.382901668548584 74.1741714477539 85.49465942382812 121.56073760986328 78.1500244140625 70.0596923828125" stroke-width="3.0" fill="none" stroke="rgb(0, 0, 0)" stroke-opacity="1.0" stroke-linecap="round" stroke-linejoin="round"/>
    <path d="M 119.60916900634766 78.12831115722656 C 126.77403259277344 77.61714172363281 171.37269592285156 88.17776489257812 89.28607177734375 90.2144775390625" stroke-width="3.0" fill="none" stroke="rgb(0, 0, 0)" stroke-opacity="1.0" stroke-linecap="round" stroke-linejoin="round"/>
    <path d="M 172.51979064941406 89.6644287109375 C 211.59555053710938 108.13412475585938 176.793701171875 102.46973419189453 184.47109985351562 96.44889831542969" stroke-width="3.0" fill="none" stroke="rgb(0, 0, 0)" stroke-opacity="1.0" stroke-linecap="round" stroke-linejoin="round"/>
    <path d="M 152.47291564941406 60.94829559326172 C 114.14205169677734 74.96190643310547 42.90668487548828 93.73509216308594 97.03094482421875 54.71697235107422" stroke-width="3.0" fill="none" stroke="rgb(0, 0, 0)" stroke-opacity="1.0" stroke-linecap="round" stroke-linejoin="round"/>
    <path d="M 141.74227905273438 61.788780212402344 C 149.49957275390625 79.19007110595703 136.71023559570312 41.32173156738281 189.6688995361328 95.82962036132812" stroke-width="3.0" fill="none" stroke="rgb(0, 0, 0)" stroke-opacity="1.0" stroke-linecap="round" stroke-linejoin="round"/>
    <path d="M 80.92535400390625 88.65726470947266 C 121.13372802734375 95.24112701416016 107.6969985961914 88.39310455322266 125.27333068847656 138.35580444335938" stroke-width="3.0" fill="none" stroke="rgb(0, 0, 0)" stroke-opacity="1.0" stroke-linecap="round" stroke-linejoin="round"/>
    <path d="M 137.5043182373047 125.92707824707031 C 121.7801742553711 176.10830688476562 134.20700073242188 113.36334228515625 105.83892822265625 205.37156677246094" stroke-width="3.0" fill="none" stroke="rgb(0, 0, 0)" stroke-opacity="1.0" stroke-linecap="round" stroke-linejoin="round"/>
    <path d="M 134.7318572998047 51.111549377441406 C 143.88084411621094 50.66618347167969 80.48896789550781 25.074012756347656 66.23761749267578 82.12975311279297" stroke-width="3.0" fill="none" stroke="rgb(0, 0, 0)" stroke-opacity="1.0" stroke-linecap="round" stroke-linejoin="round"/>
    <path d="M 116.26573944091797 76.76156616210938 C 150.007568359375 51.97914123535156 113.99330139160156 72.80827331542969 174.79281616210938 90.81539154052734" stroke-width="3.0" fill="none" stroke="rgb(0, 0, 0)" stroke-opacity="1.0" stroke-linecap="round" stroke-linejoin="round"/>
    <path d="M 173.52481079101562 84.86882019042969 C 146.89151000976562 73.44369506835938 169.58941650390625 87.630859375 150.15567016601562 76.0126724243164" stroke-width="3.0" fill="none" stroke="rgb(0, 0, 0)" stroke-opacity="1.0" stroke-linecap="round" stroke-linejoin="round"/>
    <path d="M 144.79144287109375 60.21172332763672 C 143.0514373779297 76.8051986694336 151.60411071777344 58.97486114501953 147.41046142578125 60.71177673339844" stroke-width="3.0" fill="none" stroke="rgb(0, 0, 0)" stroke-opacity="1.0" stroke-linecap="round" stroke-linejoin="round"/>
    <path d="M 126.30388641357422 136.26718139648438 C 131.13821411132812 143.4583282470703 127.20704650878906 111.08497619628906 116.29967498779297 145.1565399169922" stroke-width="3.0" fill="none" stroke="rgb(0, 0, 0)" stroke-opacity="1.0" stroke-linecap="round" stroke-linejoin="round"/>
    <path d="M 143.87017822265625 63.14980697631836 C 164.54295349121094 65.88814544677734 135.00607299804688 53.55540084838867 150.28208923339844 66.73515319824219" stroke-width="3.0" fill="none" stroke="rgb(0, 0, 0)" stroke-opacity="1.0" stroke-linecap="round" stroke-linejoin="round"/>
    <path d="M 138.85565185546875 49.55032730102539 C 126.9066162109375 54.901329040527344 156.22117614746094 51.74163818359375 145.54409790039062 64.94070434570312" stroke-width="3.0" fill="none" stroke="rgb(0, 0, 0)" stroke-opacity="1.0" stroke-linecap="round" stroke-linejoin="round"/>
  </g>
</svg>
