<?xml version="1.0" ?>
<svg xmlns="http://www.w3.org/2000/svg" version="1.1" width="224" height="224">
  <defs/>
  <g>
    <path d="M 156.07672119140625 77.84605407714844 C 141.98170471191406 95.83208465576172 113.2271728515625 99.05999755859375 137.51194763183594 90.98343658447266" stroke-width="3.0" fill="none" stroke="rgb(0, 0, 0)" stroke-opacity="1.0" stroke-linecap="round" stroke-linejoin="round"/>
    <path d="M 176.95787048339844 99.46952056884766 C 185.61798095703125 88.82162475585938 193.5816650390625 97.75672912597656 153.91192626953125 111.28375244140625" stroke-width="3.0" fill="none" stroke="rgb(0, 0, 0)" stroke-opacity="1.0" stroke-linecap="round" stroke-linejoin="round"/>
    <path d="M 66.46463012695312 48.156192779541016 C 43.10333251953125 97.11263275146484 71.55590057373047 123.97518157958984 104.67154693603516 81.36915588378906" stroke-width="3.0" fill="none" stroke="rgb(0, 0, 0)" stroke-opacity="1.0" stroke-linecap="round" stroke-linejoin="round"/>
    <path d="M 119.90190124511719 95.26451873779297 C 111.74187469482422 88.31594848632812 158.84373474121094 98.0770034790039 97.16698455810547 97.61675262451172" stroke-width="3.0" fill="none" stroke="rgb(0, 0, 0)" stroke-opacity="1.0" stroke-linecap="round" stroke-linejoin="round"/>
    <path d="M 179.72802734375 100.59490203857422 C 195.0439910888672 98.39949798583984 185.60684204101562 105.66461944580078 189.4606170654297 100.69002532958984" stroke-width="3.0" fill="none" stroke="rgb(0, 0, 0)" stroke-opacity="1.0" stroke-linecap="round" stroke-linejoin="round"/>
    <path d="M 138.1696014404297 57.20149612426758 C 134.14474487304688 101.97857666015625 89.61876678466797 125.42613983154297 121.11518096923828 65.80397033691406" stroke-width="3.0" fill="none" stroke="rgb(0, 0, 0)" stroke-opacity="1.0" stroke-linecap="round" stroke-linejoin="round"/>
    <path d="M 137.57485961914062 63.15935134887695 C 168.4733428955078 83.07836151123047 140.18788146972656 50.49736785888672 161.26258850097656 68.6173324584961" stroke-width="3.0" fill="none" stroke="rgb(0, 0, 0)" stroke-opacity="1.0" stroke-linecap="round" stroke-linejoin="round"/>
    <path d="M 80.68366241455078 101.3403549194336 C 126.92601776123047 87.78288269042969 106.09954071044922 90.00183868408203 119.80650329589844 134.52630615234375" stroke-width="3.0" fill="none" stroke="rgb(0, 0, 0)" stroke-opacity="1.0" stroke-linecap="round" stroke-linejoin="round"/>
    <path d="M 133.45501708984375 132.04830932617188 C 117.43902587890625 174.6831512451172 135.49403381347656 131.72769165039062 103.53170013427734 204.7830047607422" stroke-width="3.0" fill="none" stroke="rgb(0, 0, 0)" stroke-opacity="1.0" stroke-linecap="round" stroke-linejoin="round"/>
    <path d="M 124.7148666381836 56.506256103515625 C 142.93861389160156 57.177398681640625 109.72396850585938 46.37668228149414 89.01085662841797 94.70603942871094" stroke-width="3.0" fill="none" stroke="rgb(0, 0, 0)" stroke-opacity="1.0" stroke-linecap="round" stroke-linejoin="round"/>
    <path d="M 134.8212127685547 90.28590393066406 C 161.5352783203125 83.6614761352539 133.110595703125 71.09565734863281 157.58787536621094 65.6860580444336" stroke-width="3.0" fill="none" stroke="rgb(0, 0, 0)" stroke-opacity="1.0" stroke-linecap="round" stroke-linejoin="round"/>
    <path d="M 159.05584716796875 68.1196517944336 C 141.036865234375 77.31179809570312 150.29983520507812 99.67376708984375 149.3002471923828 67.61845397949219" stroke-width="3.0" fill="none" stroke="rgb(0, 0, 0)" stroke-opacity="1.0" stroke-linecap="round" stroke-linejoin="round"/>
    <path d="M 133.44293212890625 68.19828796386719 C 119.40386962890625 80.8331527709961 137.38426208496094 60.38737869262695 148.01100158691406 63.106414794921875" stroke-width="3.0" fill="none" stroke="rgb(0, 0, 0)" stroke-opacity="1.0" stroke-linecap="round" stroke-linejoin="round"/>
    <path d="M 122.34203338623047 143.86280822753906 C 129.10333251953125 154.45411682128906 123.81917572021484 110.3547134399414 117.18208312988281 133.96278381347656" stroke-width="3.0" fill="none" stroke="rgb(0, 0, 0)" stroke-opacity="1.0" stroke-linecap="round" stroke-linejoin="round"/>
    <path d="M 138.955810546875 62.98699951171875 C 141.04287719726562 60.36967468261719 131.75257873535156 45.5581169128418 143.514892578125 63.53153991699219" stroke-width="3.0" fill="none" stroke="rgb(0, 0, 0)" stroke-opacity="1.0" stroke-linecap="round" stroke-linejoin="round"/>
    <path d="M 128.3953399658203 53.007999420166016 C 119.73104858398438 55.3156852722168 148.181396484375 40.44621276855469 144.599609375 65.2632064819336" stroke-width="3.0" fill="none" stroke="rgb(0, 0, 0)" stroke-opacity="1.0" stroke-linecap="round" stroke-linejoin="round"/>
  </g>
</svg>
