<?xml version="1.0" ?>
<svg xmlns="http://www.w3.org/2000/svg" version="1.1" width="224" height="224">
  <defs/>
  <g>
    <path d="M 168.40121459960938 89.65702819824219 C 139.28463745117188 86.32550811767578 103.13406372070312 88.08554077148438 147.46556091308594 90.10774230957031" stroke-width="3.0" fill="none" stroke="rgb(0, 0, 0)" stroke-opacity="1.0" stroke-linecap="round" stroke-linejoin="round"/>
    <path d="M 178.8988037109375 94.38800048828125 C 170.43724060058594 99.50320434570312 193.47352600097656 89.33201599121094 159.26153564453125 110.34733581542969" stroke-width="3.0" fill="none" stroke="rgb(0, 0, 0)" stroke-opacity="1.0" stroke-linecap="round" stroke-linejoin="round"/>
    <path d="M 43.905029296875 43.13224792480469 C 18.33736801147461 74.9190444946289 87.00833129882812 131.7921905517578 77.81510162353516 69.31124114990234" stroke-width="3.0" fill="none" stroke="rgb(0, 0, 0)" stroke-opacity="1.0" stroke-linecap="round" stroke-linejoin="round"/>
    <path d="M 111.33798217773438 81.2393569946289 C 130.32266235351562 85.61363983154297 177.6007080078125 94.21146392822266 100.18576049804688 91.77412414550781" stroke-width="3.0" fill="none" stroke="rgb(0, 0, 0)" stroke-opacity="1.0" stroke-linecap="round" stroke-linejoin="round"/>
    <path d="M 163.62960815429688 84.77412414550781 C 207.8516387939453 104.22491455078125 170.899169921875 99.47431945800781 186.76393127441406 94.71031951904297" stroke-width="3.0" fill="none" stroke="rgb(0, 0, 0)" stroke-opacity="1.0" stroke-linecap="round" stroke-linejoin="round"/>
    <path d="M 148.70242309570312 67.25481414794922 C 118.15078735351562 76.1858139038086 57.950687408447266 99.0333480834961 88.86198425292969 58.67707824707031" stroke-width="3.0" fill="none" stroke="rgb(0, 0, 0)" stroke-opacity="1.0" stroke-linecap="round" stroke-linejoin="round"/>
    <path d="M 140.53292846679688 60.82016372680664 C 149.71649169921875 72.50794982910156 141.8015594482422 43.967437744140625 189.38584899902344 95.93084716796875" stroke-width="3.0" fill="none" stroke="rgb(0, 0, 0)" stroke-opacity="1.0" stroke-linecap="round" stroke-linejoin="round"/>
    <path d="M 81.58309173583984 85.20158386230469 C 121.99005126953125 98.0758285522461 107.36991882324219 88.19615936279297 124.63583374023438 138.77511596679688" stroke-width="3.0" fill="none" stroke="rgb(0, 0, 0)" stroke-opacity="1.0" stroke-linecap="round" stroke-linejoin="round"/>
    <path d="M 138.30467224121094 118.57115173339844 C 120.36882019042969 173.60516357421875 131.1693115234375 100.7384033203125 105.59040069580078 206.9021453857422" stroke-width="3.0" fill="none" stroke="rgb(0, 0, 0)" stroke-opacity="1.0" stroke-linecap="round" stroke-linejoin="round"/>
    <path d="M 138.26934814453125 54.3546142578125 C 136.36404418945312 56.62305450439453 82.14066314697266 22.34511947631836 67.48988342285156 84.12572479248047" stroke-width="3.0" fill="none" stroke="rgb(0, 0, 0)" stroke-opacity="1.0" stroke-linecap="round" stroke-linejoin="round"/>
    <path d="M 104.53487396240234 81.0120620727539 C 146.78271484375 66.72762298583984 114.52232360839844 75.59480285644531 175.81004333496094 90.38067626953125" stroke-width="3.0" fill="none" stroke="rgb(0, 0, 0)" stroke-opacity="1.0" stroke-linecap="round" stroke-linejoin="round"/>
    <path d="M 180.80804443359375 85.72160339355469 C 145.87998962402344 70.0805892944336 173.40318298339844 78.80758666992188 150.66522216796875 75.13609313964844" stroke-width="3.0" fill="none" stroke="rgb(0, 0, 0)" stroke-opacity="1.0" stroke-linecap="round" stroke-linejoin="round"/>
    <path d="M 143.66888427734375 61.79166030883789 C 142.65203857421875 71.80943298339844 149.7446746826172 56.65952682495117 147.4060821533203 61.35602951049805" stroke-width="3.0" fill="none" stroke="rgb(0, 0, 0)" stroke-opacity="1.0" stroke-linecap="round" stroke-linejoin="round"/>
    <path d="M 123.57078552246094 133.5234375 C 131.15122985839844 141.4893798828125 128.1746368408203 113.32797241210938 118.66688537597656 145.24075317382812" stroke-width="3.0" fill="none" stroke="rgb(0, 0, 0)" stroke-opacity="1.0" stroke-linecap="round" stroke-linejoin="round"/>
    <path d="M 143.56448364257812 62.38896560668945 C 163.90838623046875 62.627044677734375 130.92947387695312 53.43000030517578 152.09628295898438 68.93009185791016" stroke-width="3.0" fill="none" stroke="rgb(0, 0, 0)" stroke-opacity="1.0" stroke-linecap="round" stroke-linejoin="round"/>
    <path d="M 139.1942901611328 52.787933349609375 C 119.57756805419922 52.519447326660156 157.76849365234375 51.570709228515625 146.00379943847656 63.1741943359375" stroke-width="3.0" fill="none" stroke="rgb(0, 0, 0)" stroke-opacity="1.0" stroke-linecap="round" stroke-linejoin="round"/>
  </g>
</svg>
