<?xml version="1.0" ?>
<svg xmlns="http://www.w3.org/2000/svg" version="1.1" width="224" height="224">
  <defs/>
  <g>
    <path d="M 182.3475341796875 96.62957763671875 C 185.99114990234375 79.3381118774414 40.84947967529297 92.46652221679688 120.98615264892578 75.39785766601562" stroke-width="3.0" fill="none" stroke="rgb(0, 0, 0)" stroke-opacity="1.0" stroke-linecap="round" stroke-linejoin="round"/>
    <path d="M 187.5337677001953 100.37039947509766 C 170.6287384033203 97.4371109008789 205.1175994873047 88.95654296875 129.2083282470703 121.24930572509766" stroke-width="3.0" fill="none" stroke="rgb(0, 0, 0)" stroke-opacity="1.0" stroke-linecap="round" stroke-linejoin="round"/>
    <path d="M 59.763038635253906 45.010047912597656 C 8.888893127441406 22.641014099121094 77.59004211425781 150.3691864013672 87.05097961425781 60.43795394897461" stroke-width="3.0" fill="none" stroke="rgb(0, 0, 0)" stroke-opacity="1.0" stroke-linecap="round" stroke-linejoin="round"/>
    <path d="M 93.12705993652344 63.40967559814453 C 151.22125244140625 59.54746627807617 198.10064697265625 108.75566864013672 111.25056457519531 74.90462493896484" stroke-width="3.0" fill="none" stroke="rgb(0, 0, 0)" stroke-opacity="1.0" stroke-linecap="round" stroke-linejoin="round"/>
    <path d="M 128.083984375 69.67378997802734 C 204.1854705810547 101.93441009521484 167.82296752929688 81.00877380371094 170.2594451904297 81.6493148803711" stroke-width="3.0" fill="none" stroke="rgb(0, 0, 0)" stroke-opacity="1.0" stroke-linecap="round" stroke-linejoin="round"/>
    <path d="M 102.38323211669922 52.925140380859375 C 122.8677749633789 71.57754516601562 55.60434341430664 143.31704711914062 84.65756225585938 110.4046859741211" stroke-width="3.0" fill="none" stroke="rgb(0, 0, 0)" stroke-opacity="1.0" stroke-linecap="round" stroke-linejoin="round"/>
    <path d="M 159.5415496826172 76.59288024902344 C 4.007707595825195 59.650611877441406 152.97412109375 26.908918380737305 190.15013122558594 96.93528747558594" stroke-width="3.0" fill="none" stroke="rgb(0, 0, 0)" stroke-opacity="1.0" stroke-linecap="round" stroke-linejoin="round"/>
    <path d="M 95.93663024902344 64.4807357788086 C 116.92607116699219 116.72216033935547 114.85431671142578 69.45465850830078 118.96297454833984 145.4355010986328" stroke-width="3.0" fill="none" stroke="rgb(0, 0, 0)" stroke-opacity="1.0" stroke-linecap="round" stroke-linejoin="round"/>
    <path d="M 125.69939422607422 92.3770980834961 C 119.33025360107422 203.09120178222656 131.00135803222656 97.6528549194336 104.41334533691406 205.8780059814453" stroke-width="3.0" fill="none" stroke="rgb(0, 0, 0)" stroke-opacity="1.0" stroke-linecap="round" stroke-linejoin="round"/>
    <path d="M 152.8250732421875 58.77362060546875 C 136.77642822265625 50.737464904785156 102.9758071899414 24.824398040771484 85.76644897460938 80.5667953491211" stroke-width="3.0" fill="none" stroke="rgb(0, 0, 0)" stroke-opacity="1.0" stroke-linecap="round" stroke-linejoin="round"/>
    <path d="M 91.48324584960938 75.11588287353516 C 132.94757080078125 21.53070068359375 138.1442108154297 53.08954620361328 160.86978149414062 83.35466766357422" stroke-width="3.0" fill="none" stroke="rgb(0, 0, 0)" stroke-opacity="1.0" stroke-linecap="round" stroke-linejoin="round"/>
    <path d="M 145.60928344726562 72.76567077636719 C 151.81394958496094 88.476806640625 237.78941345214844 121.70181274414062 149.68716430664062 55.32139205932617" stroke-width="3.0" fill="none" stroke="rgb(0, 0, 0)" stroke-opacity="1.0" stroke-linecap="round" stroke-linejoin="round"/>
    <path d="M 159.7740478515625 67.76850128173828 C 200.60507202148438 91.43850708007812 171.69052124023438 82.66385650634766 115.5395736694336 52.82671356201172" stroke-width="3.0" fill="none" stroke="rgb(0, 0, 0)" stroke-opacity="1.0" stroke-linecap="round" stroke-linejoin="round"/>
    <path d="M 122.94193267822266 120.9389877319336 C 137.1156005859375 146.14356994628906 137.75440979003906 98.86299133300781 115.51040649414062 152.49586486816406" stroke-width="3.0" fill="none" stroke="rgb(0, 0, 0)" stroke-opacity="1.0" stroke-linecap="round" stroke-linejoin="round"/>
    <path d="M 96.94657135009766 84.7323226928711 C 191.85519409179688 100.16970825195312 160.9579315185547 50.06633758544922 140.38336181640625 74.24200439453125" stroke-width="3.0" fill="none" stroke="rgb(0, 0, 0)" stroke-opacity="1.0" stroke-linecap="round" stroke-linejoin="round"/>
    <path d="M 149.9114532470703 86.0506591796875 C 55.640262603759766 46.23945236206055 178.6302032470703 71.20247650146484 121.55311584472656 48.23116683959961" stroke-width="3.0" fill="none" stroke="rgb(0, 0, 0)" stroke-opacity="1.0" stroke-linecap="round" stroke-linejoin="round"/>
  </g>
</svg>
