<?xml version="1.0" ?>
<svg xmlns="http://www.w3.org/2000/svg" version="1.1" width="224" height="224">
  <defs/>
  <g>
    <path d="M 158.90194702148438 77.12120056152344 C 143.52670288085938 94.15290069580078 117.65534210205078 98.68598937988281 136.7965087890625 88.46939086914062" stroke-width="3.0" fill="none" stroke="rgb(0, 0, 0)" stroke-opacity="1.0" stroke-linecap="round" stroke-linejoin="round"/>
    <path d="M 178.8352508544922 100.25555419921875 C 185.81680297851562 88.70948791503906 192.67901611328125 99.85546875 157.60792541503906 108.47032165527344" stroke-width="3.0" fill="none" stroke="rgb(0, 0, 0)" stroke-opacity="1.0" stroke-linecap="round" stroke-linejoin="round"/>
    <path d="M 67.17952728271484 49.31741714477539 C 45.49717712402344 92.5224838256836 71.70098114013672 121.44981384277344 99.03705596923828 84.7774429321289" stroke-width="3.0" fill="none" stroke="rgb(0, 0, 0)" stroke-opacity="1.0" stroke-linecap="round" stroke-linejoin="round"/>
    <path d="M 120.33698272705078 95.2251205444336 C 113.3175277709961 90.56810760498047 155.7429656982422 95.14179229736328 97.60555267333984 98.37178039550781" stroke-width="3.0" fill="none" stroke="rgb(0, 0, 0)" stroke-opacity="1.0" stroke-linecap="round" stroke-linejoin="round"/>
    <path d="M 179.5146942138672 99.07112884521484 C 200.05987548828125 96.55134582519531 196.15528869628906 101.05535125732422 194.79103088378906 100.19459533691406" stroke-width="3.0" fill="none" stroke="rgb(0, 0, 0)" stroke-opacity="1.0" stroke-linecap="round" stroke-linejoin="round"/>
    <path d="M 134.631103515625 53.20313262939453 C 133.2990264892578 104.28022003173828 89.27194213867188 123.95343017578125 119.8733901977539 74.62920379638672" stroke-width="3.0" fill="none" stroke="rgb(0, 0, 0)" stroke-opacity="1.0" stroke-linecap="round" stroke-linejoin="round"/>
    <path d="M 137.54644775390625 60.04597473144531 C 162.05682373046875 73.77969360351562 140.45831298828125 49.77112579345703 157.73294067382812 65.8656005859375" stroke-width="3.0" fill="none" stroke="rgb(0, 0, 0)" stroke-opacity="1.0" stroke-linecap="round" stroke-linejoin="round"/>
    <path d="M 79.93944549560547 103.8706283569336 C 121.5132827758789 91.05308532714844 109.27055358886719 96.46198272705078 124.61498260498047 131.48678588867188" stroke-width="3.0" fill="none" stroke="rgb(0, 0, 0)" stroke-opacity="1.0" stroke-linecap="round" stroke-linejoin="round"/>
    <path d="M 134.2937469482422 129.91937255859375 C 115.22234344482422 168.50975036621094 135.5780792236328 130.5012664794922 104.83396911621094 206.67906188964844" stroke-width="3.0" fill="none" stroke="rgb(0, 0, 0)" stroke-opacity="1.0" stroke-linecap="round" stroke-linejoin="round"/>
    <path d="M 122.328125 56.03856658935547 C 144.54124450683594 58.540382385253906 107.39039611816406 46.756263732910156 88.96898651123047 97.60382843017578" stroke-width="3.0" fill="none" stroke="rgb(0, 0, 0)" stroke-opacity="1.0" stroke-linecap="round" stroke-linejoin="round"/>
    <path d="M 133.12249755859375 91.23961639404297 C 155.31968688964844 75.530029296875 126.2219467163086 67.4834213256836 155.0516815185547 67.19999694824219" stroke-width="3.0" fill="none" stroke="rgb(0, 0, 0)" stroke-opacity="1.0" stroke-linecap="round" stroke-linejoin="round"/>
    <path d="M 154.93341064453125 67.1960678100586 C 138.56101989746094 85.4664306640625 149.23497009277344 106.08798217773438 154.2830352783203 64.95075988769531" stroke-width="3.0" fill="none" stroke="rgb(0, 0, 0)" stroke-opacity="1.0" stroke-linecap="round" stroke-linejoin="round"/>
    <path d="M 131.17384338378906 64.5865478515625 C 119.833740234375 82.35619354248047 134.12814331054688 55.09994888305664 146.14505004882812 56.98030471801758" stroke-width="3.0" fill="none" stroke="rgb(0, 0, 0)" stroke-opacity="1.0" stroke-linecap="round" stroke-linejoin="round"/>
    <path d="M 121.41999053955078 134.62754821777344 C 129.0742950439453 146.40423583984375 130.613525390625 112.94667053222656 117.4300308227539 134.3256378173828" stroke-width="3.0" fill="none" stroke="rgb(0, 0, 0)" stroke-opacity="1.0" stroke-linecap="round" stroke-linejoin="round"/>
    <path d="M 134.62303161621094 54.29960250854492 C 147.31393432617188 58.7044792175293 137.88055419921875 47.116844177246094 148.38352966308594 62.698509216308594" stroke-width="3.0" fill="none" stroke="rgb(0, 0, 0)" stroke-opacity="1.0" stroke-linecap="round" stroke-linejoin="round"/>
    <path d="M 126.2353744506836 55.73434066772461 C 117.85269165039062 54.51105880737305 151.72767639160156 42.63286209106445 144.88475036621094 66.04072570800781" stroke-width="3.0" fill="none" stroke="rgb(0, 0, 0)" stroke-opacity="1.0" stroke-linecap="round" stroke-linejoin="round"/>
  </g>
</svg>
