<?xml version="1.0" ?>
<svg xmlns="http://www.w3.org/2000/svg" version="1.1" width="224" height="224">
  <defs/>
  <g>
    <path d="M 172.19100952148438 90.36334991455078 C 127.73251342773438 85.25589752197266 76.89735412597656 108.40837097167969 145.1808624267578 78.025634765625" stroke-width="3.0" fill="none" stroke="rgb(0, 0, 0)" stroke-opacity="1.0" stroke-linecap="round" stroke-linejoin="round"/>
    <path d="M 177.87823486328125 92.29379272460938 C 170.51962280273438 97.13317108154297 190.46322631835938 89.44170379638672 162.79324340820312 108.30728149414062" stroke-width="3.0" fill="none" stroke="rgb(0, 0, 0)" stroke-opacity="1.0" stroke-linecap="round" stroke-linejoin="round"/>
    <path d="M 52.596736907958984 41.859344482421875 C 11.841106414794922 52.768096923828125 80.87101745605469 141.7253875732422 82.1550521850586 71.66050720214844" stroke-width="3.0" fill="none" stroke="rgb(0, 0, 0)" stroke-opacity="1.0" stroke-linecap="round" stroke-linejoin="round"/>
    <path d="M 103.12135314941406 77.0508804321289 C 150.94842529296875 71.06314849853516 196.41595458984375 78.7176284790039 101.8519058227539 92.37796783447266" stroke-width="3.0" fill="none" stroke="rgb(0, 0, 0)" stroke-opacity="1.0" stroke-linecap="round" stroke-linejoin="round"/>
    <path d="M 158.03916931152344 85.3338623046875 C 216.17697143554688 108.28031921386719 166.93260192871094 99.39448547363281 179.4251708984375 93.66629028320312" stroke-width="3.0" fill="none" stroke="rgb(0, 0, 0)" stroke-opacity="1.0" stroke-linecap="round" stroke-linejoin="round"/>
    <path d="M 148.22296142578125 60.066650390625 C 113.6231460571289 71.9133529663086 61.349491119384766 109.5499038696289 90.49243927001953 64.14287567138672" stroke-width="3.0" fill="none" stroke="rgb(0, 0, 0)" stroke-opacity="1.0" stroke-linecap="round" stroke-linejoin="round"/>
    <path d="M 154.3130340576172 69.68553924560547 C 122.18065643310547 64.04606628417969 161.57119750976562 52.375099182128906 190.47129821777344 95.63504028320312" stroke-width="3.0" fill="none" stroke="rgb(0, 0, 0)" stroke-opacity="1.0" stroke-linecap="round" stroke-linejoin="round"/>
    <path d="M 84.19172668457031 89.3623275756836 C 125.36540985107422 100.56023406982422 116.58895111083984 82.79695129394531 120.65345001220703 138.4481658935547" stroke-width="3.0" fill="none" stroke="rgb(0, 0, 0)" stroke-opacity="1.0" stroke-linecap="round" stroke-linejoin="round"/>
    <path d="M 134.89505004882812 93.43014526367188 C 118.09652709960938 189.57498168945312 131.62217712402344 90.34484100341797 105.29019927978516 205.83970642089844" stroke-width="3.0" fill="none" stroke="rgb(0, 0, 0)" stroke-opacity="1.0" stroke-linecap="round" stroke-linejoin="round"/>
    <path d="M 121.8644790649414 49.08717346191406 C 139.73175048828125 52.78539276123047 80.81437683105469 30.022294998168945 75.35022735595703 78.722412109375" stroke-width="3.0" fill="none" stroke="rgb(0, 0, 0)" stroke-opacity="1.0" stroke-linecap="round" stroke-linejoin="round"/>
    <path d="M 109.10907745361328 46.0317497253418 C 157.1976318359375 49.237491607666016 131.12008666992188 65.18212127685547 174.80906677246094 85.55191040039062" stroke-width="3.0" fill="none" stroke="rgb(0, 0, 0)" stroke-opacity="1.0" stroke-linecap="round" stroke-linejoin="round"/>
    <path d="M 179.02735900878906 86.53434753417969 C 145.82212829589844 64.750732421875 188.101806640625 89.00050354003906 144.31423950195312 83.3139877319336" stroke-width="3.0" fill="none" stroke="rgb(0, 0, 0)" stroke-opacity="1.0" stroke-linecap="round" stroke-linejoin="round"/>
    <path d="M 146.41236877441406 65.5964584350586 C 144.22134399414062 71.6627197265625 152.63772583007812 59.413875579833984 144.50567626953125 62.939632415771484" stroke-width="3.0" fill="none" stroke="rgb(0, 0, 0)" stroke-opacity="1.0" stroke-linecap="round" stroke-linejoin="round"/>
    <path d="M 121.77718353271484 133.8546905517578 C 137.1062774658203 144.34033203125 127.09111785888672 101.70902252197266 114.4837875366211 145.24981689453125" stroke-width="3.0" fill="none" stroke="rgb(0, 0, 0)" stroke-opacity="1.0" stroke-linecap="round" stroke-linejoin="round"/>
    <path d="M 148.19273376464844 63.299652099609375 C 164.50955200195312 67.43296813964844 130.6275634765625 50.060482025146484 146.5467987060547 59.35954666137695" stroke-width="3.0" fill="none" stroke="rgb(0, 0, 0)" stroke-opacity="1.0" stroke-linecap="round" stroke-linejoin="round"/>
    <path d="M 140.6319580078125 51.27220916748047 C 113.9605941772461 44.10851287841797 150.6571502685547 56.10051345825195 147.79000854492188 54.00412368774414" stroke-width="3.0" fill="none" stroke="rgb(0, 0, 0)" stroke-opacity="1.0" stroke-linecap="round" stroke-linejoin="round"/>
  </g>
</svg>
