<?xml version="1.0" ?>
<svg xmlns="http://www.w3.org/2000/svg" version="1.1" width="224" height="224">
  <defs/>
  <g>
    <path d="M 179.79379272460938 93.45217895507812 C 161.11306762695312 84.58338928222656 44.2474365234375 101.76492309570312 133.9540252685547 80.4542465209961" stroke-width="3.0" fill="none" stroke="rgb(0, 0, 0)" stroke-opacity="1.0" stroke-linecap="round" stroke-linejoin="round"/>
    <path d="M 178.6665496826172 96.64743041992188 C 176.4557342529297 97.4783706665039 204.9245147705078 88.8480224609375 130.85354614257812 120.55144500732422" stroke-width="3.0" fill="none" stroke="rgb(0, 0, 0)" stroke-opacity="1.0" stroke-linecap="round" stroke-linejoin="round"/>
    <path d="M 58.02680206298828 40.378299713134766 C 13.035191535949707 23.58883285522461 66.43140411376953 126.97232818603516 81.60441589355469 69.16181945800781" stroke-width="3.0" fill="none" stroke="rgb(0, 0, 0)" stroke-opacity="1.0" stroke-linecap="round" stroke-linejoin="round"/>
    <path d="M 95.32833862304688 65.93423461914062 C 146.2637176513672 70.0201644897461 202.3534393310547 99.49653625488281 100.13862609863281 82.95288848876953" stroke-width="3.0" fill="none" stroke="rgb(0, 0, 0)" stroke-opacity="1.0" stroke-linecap="round" stroke-linejoin="round"/>
    <path d="M 135.23110961914062 73.05113220214844 C 205.25344848632812 101.50328063964844 169.36981201171875 99.35607147216797 181.0078125 94.59534454345703" stroke-width="3.0" fill="none" stroke="rgb(0, 0, 0)" stroke-opacity="1.0" stroke-linecap="round" stroke-linejoin="round"/>
    <path d="M 103.15768432617188 51.42396926879883 C 105.16380310058594 56.532798767089844 36.75675582885742 143.73069763183594 70.74533081054688 91.43643951416016" stroke-width="3.0" fill="none" stroke="rgb(0, 0, 0)" stroke-opacity="1.0" stroke-linecap="round" stroke-linejoin="round"/>
    <path d="M 143.8783721923828 78.01826477050781 C 4.603610515594482 68.43404388427734 149.74664306640625 29.37215232849121 189.35658264160156 98.69219207763672" stroke-width="3.0" fill="none" stroke="rgb(0, 0, 0)" stroke-opacity="1.0" stroke-linecap="round" stroke-linejoin="round"/>
    <path d="M 91.24120330810547 79.59768676757812 C 114.48220825195312 114.1424560546875 113.94978332519531 71.26982116699219 118.95416259765625 146.10409545898438" stroke-width="3.0" fill="none" stroke="rgb(0, 0, 0)" stroke-opacity="1.0" stroke-linecap="round" stroke-linejoin="round"/>
    <path d="M 128.24374389648438 95.47552490234375 C 114.43502044677734 203.9798583984375 126.42341613769531 90.56338500976562 106.77588653564453 204.1484375" stroke-width="3.0" fill="none" stroke="rgb(0, 0, 0)" stroke-opacity="1.0" stroke-linecap="round" stroke-linejoin="round"/>
    <path d="M 151.5897216796875 59.639801025390625 C 137.3684844970703 49.73185729980469 92.97016906738281 23.37649917602539 83.3294448852539 85.460693359375" stroke-width="3.0" fill="none" stroke="rgb(0, 0, 0)" stroke-opacity="1.0" stroke-linecap="round" stroke-linejoin="round"/>
    <path d="M 95.10391998291016 59.48096466064453 C 137.51992797851562 30.90148162841797 139.6055450439453 54.97760772705078 172.67796325683594 81.33052062988281" stroke-width="3.0" fill="none" stroke="rgb(0, 0, 0)" stroke-opacity="1.0" stroke-linecap="round" stroke-linejoin="round"/>
    <path d="M 157.75389099121094 78.29571533203125 C 152.9210662841797 89.64695739746094 243.3010711669922 129.482421875 139.6610870361328 58.65383529663086" stroke-width="3.0" fill="none" stroke="rgb(0, 0, 0)" stroke-opacity="1.0" stroke-linecap="round" stroke-linejoin="round"/>
    <path d="M 143.19171142578125 76.98097229003906 C 187.27105712890625 104.16248321533203 176.76344299316406 78.67992401123047 131.3611602783203 70.44853973388672" stroke-width="3.0" fill="none" stroke="rgb(0, 0, 0)" stroke-opacity="1.0" stroke-linecap="round" stroke-linejoin="round"/>
    <path d="M 126.02477264404297 120.02870178222656 C 150.31698608398438 151.12841796875 138.14663696289062 104.03463745117188 114.74483489990234 143.62857055664062" stroke-width="3.0" fill="none" stroke="rgb(0, 0, 0)" stroke-opacity="1.0" stroke-linecap="round" stroke-linejoin="round"/>
    <path d="M 124.22270202636719 76.06795501708984 C 177.2751922607422 106.87680053710938 146.09779357910156 50.3259162902832 148.50045776367188 57.880924224853516" stroke-width="3.0" fill="none" stroke="rgb(0, 0, 0)" stroke-opacity="1.0" stroke-linecap="round" stroke-linejoin="round"/>
    <path d="M 141.52194213867188 71.28003692626953 C 97.10088348388672 48.0816764831543 171.9422149658203 68.90083312988281 127.46002197265625 53.60685348510742" stroke-width="3.0" fill="none" stroke="rgb(0, 0, 0)" stroke-opacity="1.0" stroke-linecap="round" stroke-linejoin="round"/>
  </g>
</svg>
