<?xml version="1.0" ?>
<svg xmlns="http://www.w3.org/2000/svg" version="1.1" width="224" height="224">
  <defs/>
  <g>
    <path d="M 181.0118408203125 95.80046081542969 C 186.2519073486328 85.67259216308594 41.94678497314453 100.97581481933594 121.60871887207031 72.32237243652344" stroke-width="3.0" fill="none" stroke="rgb(0, 0, 0)" stroke-opacity="1.0" stroke-linecap="round" stroke-linejoin="round"/>
    <path d="M 186.26332092285156 99.80465698242188 C 176.6507110595703 97.28834533691406 205.87625122070312 87.35063934326172 129.9343719482422 120.3230209350586" stroke-width="3.0" fill="none" stroke="rgb(0, 0, 0)" stroke-opacity="1.0" stroke-linecap="round" stroke-linejoin="round"/>
    <path d="M 58.35421371459961 44.894840240478516 C 8.942434310913086 21.41901397705078 79.22364807128906 155.06285095214844 88.42806243896484 65.14848327636719" stroke-width="3.0" fill="none" stroke="rgb(0, 0, 0)" stroke-opacity="1.0" stroke-linecap="round" stroke-linejoin="round"/>
    <path d="M 91.1169204711914 61.8394889831543 C 149.84922790527344 60.645233154296875 195.992919921875 107.7573471069336 114.04761505126953 79.33399200439453" stroke-width="3.0" fill="none" stroke="rgb(0, 0, 0)" stroke-opacity="1.0" stroke-linecap="round" stroke-linejoin="round"/>
    <path d="M 128.2848358154297 68.1363525390625 C 203.23959350585938 106.69642639160156 170.13595581054688 85.52263641357422 176.15338134765625 79.00179290771484" stroke-width="3.0" fill="none" stroke="rgb(0, 0, 0)" stroke-opacity="1.0" stroke-linecap="round" stroke-linejoin="round"/>
    <path d="M 99.24441528320312 52.9296989440918 C 122.53052520751953 72.44129180908203 57.26974105834961 143.7902374267578 85.61223602294922 111.7830810546875" stroke-width="3.0" fill="none" stroke="rgb(0, 0, 0)" stroke-opacity="1.0" stroke-linecap="round" stroke-linejoin="round"/>
    <path d="M 159.45790100097656 82.05833435058594 C 1.974317193031311 64.71246337890625 153.3938446044922 28.323509216308594 189.3606414794922 95.4637680053711" stroke-width="3.0" fill="none" stroke="rgb(0, 0, 0)" stroke-opacity="1.0" stroke-linecap="round" stroke-linejoin="round"/>
    <path d="M 97.58267974853516 63.72304153442383 C 113.04237365722656 119.05733489990234 113.03203582763672 72.56109619140625 120.77560424804688 145.91104125976562" stroke-width="3.0" fill="none" stroke="rgb(0, 0, 0)" stroke-opacity="1.0" stroke-linecap="round" stroke-linejoin="round"/>
    <path d="M 126.1011734008789 93.23632049560547 C 119.5005874633789 205.27044677734375 129.89845275878906 97.64700317382812 105.34500122070312 205.57093811035156" stroke-width="3.0" fill="none" stroke="rgb(0, 0, 0)" stroke-opacity="1.0" stroke-linecap="round" stroke-linejoin="round"/>
    <path d="M 153.21612548828125 61.14496612548828 C 141.32838439941406 50.23474884033203 96.65543365478516 24.932722091674805 83.97655487060547 79.55451965332031" stroke-width="3.0" fill="none" stroke="rgb(0, 0, 0)" stroke-opacity="1.0" stroke-linecap="round" stroke-linejoin="round"/>
    <path d="M 88.46266174316406 72.8394546508789 C 132.29147338867188 20.10601043701172 137.47265625 52.31992721557617 158.75466918945312 83.65255737304688" stroke-width="3.0" fill="none" stroke="rgb(0, 0, 0)" stroke-opacity="1.0" stroke-linecap="round" stroke-linejoin="round"/>
    <path d="M 150.56634521484375 73.31010437011719 C 155.54087829589844 89.5724868774414 239.59921264648438 129.25405883789062 145.89173889160156 61.90851974487305" stroke-width="3.0" fill="none" stroke="rgb(0, 0, 0)" stroke-opacity="1.0" stroke-linecap="round" stroke-linejoin="round"/>
    <path d="M 156.68594360351562 72.09374237060547 C 193.43441772460938 98.42192077636719 171.03306579589844 82.919921875 114.92864990234375 53.643089294433594" stroke-width="3.0" fill="none" stroke="rgb(0, 0, 0)" stroke-opacity="1.0" stroke-linecap="round" stroke-linejoin="round"/>
    <path d="M 125.63284301757812 124.53374481201172 C 140.3062744140625 147.3887939453125 139.49197387695312 100.42079162597656 116.851318359375 151.80038452148438" stroke-width="3.0" fill="none" stroke="rgb(0, 0, 0)" stroke-opacity="1.0" stroke-linecap="round" stroke-linejoin="round"/>
    <path d="M 98.33800506591797 88.19021606445312 C 195.77740478515625 106.51488494873047 161.1947479248047 57.8722038269043 143.30587768554688 76.14989471435547" stroke-width="3.0" fill="none" stroke="rgb(0, 0, 0)" stroke-opacity="1.0" stroke-linecap="round" stroke-linejoin="round"/>
    <path d="M 149.81228637695312 85.03033447265625 C 49.97732162475586 45.038780212402344 180.36325073242188 68.81127166748047 118.69161224365234 50.960933685302734" stroke-width="3.0" fill="none" stroke="rgb(0, 0, 0)" stroke-opacity="1.0" stroke-linecap="round" stroke-linejoin="round"/>
  </g>
</svg>
