<?xml version="1.0" ?>
<svg xmlns="http://www.w3.org/2000/svg" version="1.1" width="224" height="224">
  <defs/>
  <g>
    <path d="M 147.32833862304688 72.48576354980469 C 137.01084899902344 84.13301086425781 117.70130920410156 101.21126556396484 124.99470520019531 81.2386474609375" stroke-width="3.0" fill="none" stroke="rgb(0, 0, 0)" stroke-opacity="1.0" stroke-linecap="round" stroke-linejoin="round"/>
    <path d="M 181.25762939453125 96.47402954101562 C 184.70570373535156 86.7149429321289 189.54849243164062 85.18062591552734 176.19512939453125 107.59217071533203" stroke-width="3.0" fill="none" stroke="rgb(0, 0, 0)" stroke-opacity="1.0" stroke-linecap="round" stroke-linejoin="round"/>
    <path d="M 64.3529281616211 45.32501983642578 C 38.803131103515625 85.60543060302734 70.81135559082031 120.0807113647461 107.35063171386719 90.11058044433594" stroke-width="3.0" fill="none" stroke="rgb(0, 0, 0)" stroke-opacity="1.0" stroke-linecap="round" stroke-linejoin="round"/>
    <path d="M 116.62664794921875 94.47691345214844 C 110.84246826171875 96.10662841796875 148.05111694335938 87.7947006225586 113.21263122558594 101.22835540771484" stroke-width="3.0" fill="none" stroke="rgb(0, 0, 0)" stroke-opacity="1.0" stroke-linecap="round" stroke-linejoin="round"/>
    <path d="M 182.34165954589844 91.21347045898438 C 196.69537353515625 80.36576080322266 198.33656311035156 71.77474975585938 194.0365753173828 79.15275573730469" stroke-width="3.0" fill="none" stroke="rgb(0, 0, 0)" stroke-opacity="1.0" stroke-linecap="round" stroke-linejoin="round"/>
    <path d="M 131.44300842285156 65.70026397705078 C 130.38671875 91.07687377929688 111.48475646972656 103.81968688964844 121.46994018554688 70.40133666992188" stroke-width="3.0" fill="none" stroke="rgb(0, 0, 0)" stroke-opacity="1.0" stroke-linecap="round" stroke-linejoin="round"/>
    <path d="M 142.60939025878906 56.4583625793457 C 159.8819580078125 71.30838775634766 139.1678009033203 51.892478942871094 153.78575134277344 64.47228240966797" stroke-width="3.0" fill="none" stroke="rgb(0, 0, 0)" stroke-opacity="1.0" stroke-linecap="round" stroke-linejoin="round"/>
    <path d="M 87.64781188964844 100.55892181396484 C 123.85427856445312 91.18455505371094 105.51459503173828 109.4843978881836 126.81459045410156 127.26074981689453" stroke-width="3.0" fill="none" stroke="rgb(0, 0, 0)" stroke-opacity="1.0" stroke-linecap="round" stroke-linejoin="round"/>
    <path d="M 130.13099670410156 131.49700927734375 C 115.01986694335938 162.55430603027344 127.49494934082031 147.32107543945312 103.52525329589844 202.264404296875" stroke-width="3.0" fill="none" stroke="rgb(0, 0, 0)" stroke-opacity="1.0" stroke-linecap="round" stroke-linejoin="round"/>
    <path d="M 120.84498596191406 51.3441276550293 C 134.6806640625 62.14944839477539 117.07089233398438 50.994422912597656 98.89087677001953 84.69840240478516" stroke-width="3.0" fill="none" stroke="rgb(0, 0, 0)" stroke-opacity="1.0" stroke-linecap="round" stroke-linejoin="round"/>
    <path d="M 134.12815856933594 90.20882415771484 C 145.95669555664062 82.59679412841797 123.51009368896484 78.98497009277344 151.781982421875 69.21470642089844" stroke-width="3.0" fill="none" stroke="rgb(0, 0, 0)" stroke-opacity="1.0" stroke-linecap="round" stroke-linejoin="round"/>
    <path d="M 142.242431640625 63.21426773071289 C 134.4262237548828 91.8349380493164 133.53538513183594 101.14643096923828 141.9705047607422 74.25031280517578" stroke-width="3.0" fill="none" stroke="rgb(0, 0, 0)" stroke-opacity="1.0" stroke-linecap="round" stroke-linejoin="round"/>
    <path d="M 132.82666015625 65.7251968383789 C 151.10452270507812 88.66647338867188 149.37953186035156 60.046146392822266 139.23435974121094 55.2364501953125" stroke-width="3.0" fill="none" stroke="rgb(0, 0, 0)" stroke-opacity="1.0" stroke-linecap="round" stroke-linejoin="round"/>
    <path d="M 126.70092010498047 123.1961669921875 C 142.46055603027344 144.5969696044922 122.70845794677734 97.88036346435547 118.23959350585938 135.5546112060547" stroke-width="3.0" fill="none" stroke="rgb(0, 0, 0)" stroke-opacity="1.0" stroke-linecap="round" stroke-linejoin="round"/>
    <path d="M 136.42977905273438 52.30728530883789 C 145.59983825683594 65.35987091064453 138.85931396484375 47.339229583740234 153.77809143066406 60.976959228515625" stroke-width="3.0" fill="none" stroke="rgb(0, 0, 0)" stroke-opacity="1.0" stroke-linecap="round" stroke-linejoin="round"/>
    <path d="M 124.73277282714844 47.433868408203125 C 122.8972396850586 56.17079162597656 134.54896545410156 30.76267433166504 128.21572875976562 66.46903991699219" stroke-width="3.0" fill="none" stroke="rgb(0, 0, 0)" stroke-opacity="1.0" stroke-linecap="round" stroke-linejoin="round"/>
  </g>
</svg>
