<?xml version="1.0" ?>
<svg xmlns="http://www.w3.org/2000/svg" version="1.1" width="224" height="224">
  <defs/>
  <g>
    <path d="M 171.8297882080078 92.44831848144531 C 134.85682678222656 82.54349517822266 106.3223876953125 94.49396514892578 146.3255615234375 82.260498046875" stroke-width="3.0" fill="none" stroke="rgb(0, 0, 0)" stroke-opacity="1.0" stroke-linecap="round" stroke-linejoin="round"/>
    <path d="M 172.21473693847656 90.8781509399414 C 173.62066650390625 93.26827239990234 193.0871124267578 92.29131317138672 158.0092315673828 105.8614501953125" stroke-width="3.0" fill="none" stroke="rgb(0, 0, 0)" stroke-opacity="1.0" stroke-linecap="round" stroke-linejoin="round"/>
    <path d="M 45.759857177734375 41.685264587402344 C 11.513821601867676 57.899559020996094 78.99737548828125 138.30880737304688 85.97439575195312 72.10767364501953" stroke-width="3.0" fill="none" stroke="rgb(0, 0, 0)" stroke-opacity="1.0" stroke-linecap="round" stroke-linejoin="round"/>
    <path d="M 96.16277313232422 79.80701446533203 C 151.96536254882812 73.05751037597656 197.14356994628906 79.6041030883789 111.88758087158203 92.06759643554688" stroke-width="3.0" fill="none" stroke="rgb(0, 0, 0)" stroke-opacity="1.0" stroke-linecap="round" stroke-linejoin="round"/>
    <path d="M 162.41587829589844 88.58503723144531 C 214.46902465820312 107.17613983154297 168.3563232421875 95.80314636230469 182.82781982421875 95.99015045166016" stroke-width="3.0" fill="none" stroke="rgb(0, 0, 0)" stroke-opacity="1.0" stroke-linecap="round" stroke-linejoin="round"/>
    <path d="M 147.92364501953125 59.83723831176758 C 113.69947814941406 68.58779907226562 68.51220703125 101.75592041015625 89.43595886230469 60.54384994506836" stroke-width="3.0" fill="none" stroke="rgb(0, 0, 0)" stroke-opacity="1.0" stroke-linecap="round" stroke-linejoin="round"/>
    <path d="M 151.912353515625 65.45503997802734 C 130.03228759765625 67.24763488769531 161.8349151611328 52.646881103515625 189.75363159179688 95.30218505859375" stroke-width="3.0" fill="none" stroke="rgb(0, 0, 0)" stroke-opacity="1.0" stroke-linecap="round" stroke-linejoin="round"/>
    <path d="M 88.04706573486328 80.71823120117188 C 122.24713134765625 97.20528411865234 113.0938491821289 80.37637329101562 123.9094009399414 137.97216796875" stroke-width="3.0" fill="none" stroke="rgb(0, 0, 0)" stroke-opacity="1.0" stroke-linecap="round" stroke-linejoin="round"/>
    <path d="M 139.14154052734375 102.50534057617188 C 115.61663055419922 181.68267822265625 132.9556884765625 98.84968566894531 105.11664581298828 203.67083740234375" stroke-width="3.0" fill="none" stroke="rgb(0, 0, 0)" stroke-opacity="1.0" stroke-linecap="round" stroke-linejoin="round"/>
    <path d="M 113.19122314453125 52.37592697143555 C 132.99282836914062 61.083045959472656 85.93748474121094 33.30991744995117 79.66978454589844 74.96125793457031" stroke-width="3.0" fill="none" stroke="rgb(0, 0, 0)" stroke-opacity="1.0" stroke-linecap="round" stroke-linejoin="round"/>
    <path d="M 101.06303405761719 58.36176681518555 C 158.01455688476562 47.383140563964844 133.66697692871094 57.53791427612305 173.60577392578125 87.08055114746094" stroke-width="3.0" fill="none" stroke="rgb(0, 0, 0)" stroke-opacity="1.0" stroke-linecap="round" stroke-linejoin="round"/>
    <path d="M 178.00619506835938 85.86929321289062 C 145.58253479003906 73.47647094726562 175.75704956054688 94.81934356689453 142.35963439941406 78.2147445678711" stroke-width="3.0" fill="none" stroke="rgb(0, 0, 0)" stroke-opacity="1.0" stroke-linecap="round" stroke-linejoin="round"/>
    <path d="M 146.21446228027344 66.59278106689453 C 142.88682556152344 71.89974975585938 152.0380401611328 58.53794479370117 148.23719787597656 62.078033447265625" stroke-width="3.0" fill="none" stroke="rgb(0, 0, 0)" stroke-opacity="1.0" stroke-linecap="round" stroke-linejoin="round"/>
    <path d="M 124.86672973632812 137.145263671875 C 130.06387329101562 145.03448486328125 133.61346435546875 109.01821899414062 118.10132598876953 143.6498565673828" stroke-width="3.0" fill="none" stroke="rgb(0, 0, 0)" stroke-opacity="1.0" stroke-linecap="round" stroke-linejoin="round"/>
    <path d="M 147.29345703125 63.49541473388672 C 164.42982482910156 66.9902572631836 127.93634033203125 51.83647918701172 148.03236389160156 62.375701904296875" stroke-width="3.0" fill="none" stroke="rgb(0, 0, 0)" stroke-opacity="1.0" stroke-linecap="round" stroke-linejoin="round"/>
    <path d="M 138.8788299560547 56.929603576660156 C 117.4623794555664 46.81088638305664 154.88894653320312 56.85357666015625 147.35025024414062 61.19667434692383" stroke-width="3.0" fill="none" stroke="rgb(0, 0, 0)" stroke-opacity="1.0" stroke-linecap="round" stroke-linejoin="round"/>
  </g>
</svg>
