<?xml version="1.0" ?>
<svg xmlns="http://www.w3.org/2000/svg" version="1.1" width="224" height="224">
  <defs/>
  <g>
    <path d="M 180.58847045898438 91.43559265136719 C 165.5751190185547 82.83678436279297 54.21152877807617 104.90348815917969 131.03359985351562 85.98778533935547" stroke-width="3.0" fill="none" stroke="rgb(0, 0, 0)" stroke-opacity="1.0" stroke-linecap="round" stroke-linejoin="round"/>
    <path d="M 189.5248565673828 99.61747741699219 C 174.21762084960938 93.14352416992188 203.67105102539062 91.79804992675781 135.2552032470703 122.21680450439453" stroke-width="3.0" fill="none" stroke="rgb(0, 0, 0)" stroke-opacity="1.0" stroke-linecap="round" stroke-linejoin="round"/>
    <path d="M 58.45176696777344 46.016746520996094 C 2.5318191051483154 42.61153793334961 74.07188415527344 131.3015594482422 72.13731384277344 65.72535705566406" stroke-width="3.0" fill="none" stroke="rgb(0, 0, 0)" stroke-opacity="1.0" stroke-linecap="round" stroke-linejoin="round"/>
    <path d="M 90.61846160888672 65.35540771484375 C 145.9781494140625 67.45179748535156 197.10110473632812 98.20947265625 97.30577850341797 80.74177551269531" stroke-width="3.0" fill="none" stroke="rgb(0, 0, 0)" stroke-opacity="1.0" stroke-linecap="round" stroke-linejoin="round"/>
    <path d="M 141.48951721191406 76.01514434814453 C 210.9886016845703 93.9420394897461 166.5112762451172 103.12525939941406 184.44932556152344 97.88813018798828" stroke-width="3.0" fill="none" stroke="rgb(0, 0, 0)" stroke-opacity="1.0" stroke-linecap="round" stroke-linejoin="round"/>
    <path d="M 108.62222290039062 47.157249450683594 C 95.8907241821289 53.21604919433594 37.990264892578125 144.80055236816406 74.21306610107422 85.56336975097656" stroke-width="3.0" fill="none" stroke="rgb(0, 0, 0)" stroke-opacity="1.0" stroke-linecap="round" stroke-linejoin="round"/>
    <path d="M 141.78463745117188 78.50585174560547 C 13.97291374206543 64.02811431884766 151.89373779296875 35.23085403442383 192.30572509765625 98.26998138427734" stroke-width="3.0" fill="none" stroke="rgb(0, 0, 0)" stroke-opacity="1.0" stroke-linecap="round" stroke-linejoin="round"/>
    <path d="M 81.13904571533203 78.52086639404297 C 119.67044830322266 105.12986755371094 109.61723327636719 82.2579574584961 122.44043731689453 142.09117126464844" stroke-width="3.0" fill="none" stroke="rgb(0, 0, 0)" stroke-opacity="1.0" stroke-linecap="round" stroke-linejoin="round"/>
    <path d="M 128.630126953125 92.12705993652344 C 123.67312622070312 204.67697143554688 132.21923828125 88.41830444335938 105.08453369140625 204.5988006591797" stroke-width="3.0" fill="none" stroke="rgb(0, 0, 0)" stroke-opacity="1.0" stroke-linecap="round" stroke-linejoin="round"/>
    <path d="M 138.9248809814453 49.08478546142578 C 132.927001953125 52.89548873901367 82.73333740234375 22.90947914123535 73.76985168457031 86.86414337158203" stroke-width="3.0" fill="none" stroke="rgb(0, 0, 0)" stroke-opacity="1.0" stroke-linecap="round" stroke-linejoin="round"/>
    <path d="M 95.3129653930664 57.552730560302734 C 136.46958923339844 33.89179992675781 142.0772247314453 56.70578384399414 169.36297607421875 85.26048278808594" stroke-width="3.0" fill="none" stroke="rgb(0, 0, 0)" stroke-opacity="1.0" stroke-linecap="round" stroke-linejoin="round"/>
    <path d="M 151.77113342285156 87.22775268554688 C 147.45664978027344 80.98848724365234 236.85511779785156 115.38008880615234 142.08824157714844 53.10223388671875" stroke-width="3.0" fill="none" stroke="rgb(0, 0, 0)" stroke-opacity="1.0" stroke-linecap="round" stroke-linejoin="round"/>
    <path d="M 153.4431610107422 72.97872161865234 C 173.14495849609375 95.49927520751953 165.5850372314453 76.63761138916016 141.32261657714844 64.00527954101562" stroke-width="3.0" fill="none" stroke="rgb(0, 0, 0)" stroke-opacity="1.0" stroke-linecap="round" stroke-linejoin="round"/>
    <path d="M 126.38533782958984 120.38945770263672 C 147.66940307617188 154.7808380126953 135.82467651367188 101.99040985107422 115.6585922241211 150.4466094970703" stroke-width="3.0" fill="none" stroke="rgb(0, 0, 0)" stroke-opacity="1.0" stroke-linecap="round" stroke-linejoin="round"/>
    <path d="M 126.00769805908203 73.91542053222656 C 180.40650939941406 104.63081359863281 147.86964416503906 52.848533630371094 151.39352416992188 63.9182243347168" stroke-width="3.0" fill="none" stroke="rgb(0, 0, 0)" stroke-opacity="1.0" stroke-linecap="round" stroke-linejoin="round"/>
    <path d="M 145.31515502929688 72.78343200683594 C 109.39128875732422 46.09352111816406 164.05540466308594 66.77308654785156 132.38514709472656 54.385440826416016" stroke-width="3.0" fill="none" stroke="rgb(0, 0, 0)" stroke-opacity="1.0" stroke-linecap="round" stroke-linejoin="round"/>
  </g>
</svg>
