<?xml version="1.0" ?>
<svg xmlns="http://www.w3.org/2000/svg" version="1.1" width="224" height="224">
  <defs/>
  <g>
    <path d="M 169.2683868408203 91.23824310302734 C 135.91104125976562 84.58145141601562 104.67003631591797 102.96505737304688 143.11199951171875 71.35369873046875" stroke-width="3.0" fill="none" stroke="rgb(0, 0, 0)" stroke-opacity="1.0" stroke-linecap="round" stroke-linejoin="round"/>
    <path d="M 176.22059631347656 94.34735107421875 C 171.9635467529297 97.38644409179688 190.98573303222656 88.55200958251953 160.2050323486328 108.13321685791016" stroke-width="3.0" fill="none" stroke="rgb(0, 0, 0)" stroke-opacity="1.0" stroke-linecap="round" stroke-linejoin="round"/>
    <path d="M 46.99824142456055 38.21190643310547 C 11.168302536010742 57.999366760253906 74.15402221679688 145.40017700195312 87.04977416992188 74.16216278076172" stroke-width="3.0" fill="none" stroke="rgb(0, 0, 0)" stroke-opacity="1.0" stroke-linecap="round" stroke-linejoin="round"/>
    <path d="M 98.81240844726562 76.76927947998047 C 146.90579223632812 68.96516418457031 190.06089782714844 76.48797607421875 102.13191986083984 91.51536560058594" stroke-width="3.0" fill="none" stroke="rgb(0, 0, 0)" stroke-opacity="1.0" stroke-linecap="round" stroke-linejoin="round"/>
    <path d="M 159.33489990234375 87.33405303955078 C 212.51373291015625 108.8687744140625 167.8361358642578 93.76971435546875 179.44857788085938 101.90145874023438" stroke-width="3.0" fill="none" stroke="rgb(0, 0, 0)" stroke-opacity="1.0" stroke-linecap="round" stroke-linejoin="round"/>
    <path d="M 147.13438415527344 59.560997009277344 C 116.17645263671875 71.92182159423828 67.05558013916016 104.96703338623047 91.13162994384766 64.95958709716797" stroke-width="3.0" fill="none" stroke="rgb(0, 0, 0)" stroke-opacity="1.0" stroke-linecap="round" stroke-linejoin="round"/>
    <path d="M 152.10934448242188 67.81534576416016 C 127.59625244140625 68.09412384033203 161.88052368164062 55.59994125366211 187.40904235839844 96.3683853149414" stroke-width="3.0" fill="none" stroke="rgb(0, 0, 0)" stroke-opacity="1.0" stroke-linecap="round" stroke-linejoin="round"/>
    <path d="M 86.5002670288086 85.73567199707031 C 128.32725524902344 100.49137115478516 113.43170928955078 78.99858093261719 127.29891204833984 138.64923095703125" stroke-width="3.0" fill="none" stroke="rgb(0, 0, 0)" stroke-opacity="1.0" stroke-linecap="round" stroke-linejoin="round"/>
    <path d="M 138.05906677246094 96.06021881103516 C 115.34215545654297 188.28070068359375 130.6326141357422 99.96871185302734 108.50434875488281 201.74842834472656" stroke-width="3.0" fill="none" stroke="rgb(0, 0, 0)" stroke-opacity="1.0" stroke-linecap="round" stroke-linejoin="round"/>
    <path d="M 116.07213592529297 50.7230110168457 C 135.77896118164062 55.480712890625 84.03360748291016 29.768980026245117 78.92987823486328 75.55133819580078" stroke-width="3.0" fill="none" stroke="rgb(0, 0, 0)" stroke-opacity="1.0" stroke-linecap="round" stroke-linejoin="round"/>
    <path d="M 102.12713623046875 53.058494567871094 C 154.07736206054688 42.44175720214844 128.9866180419922 61.74083709716797 175.20408630371094 88.1323471069336" stroke-width="3.0" fill="none" stroke="rgb(0, 0, 0)" stroke-opacity="1.0" stroke-linecap="round" stroke-linejoin="round"/>
    <path d="M 178.7933349609375 84.26881408691406 C 141.61195373535156 73.68360137939453 182.44482421875 92.63237762451172 142.41184997558594 81.0099105834961" stroke-width="3.0" fill="none" stroke="rgb(0, 0, 0)" stroke-opacity="1.0" stroke-linecap="round" stroke-linejoin="round"/>
    <path d="M 146.4942626953125 66.03219604492188 C 144.5721435546875 72.38463592529297 152.83853149414062 59.65505599975586 148.77769470214844 62.3169059753418" stroke-width="3.0" fill="none" stroke="rgb(0, 0, 0)" stroke-opacity="1.0" stroke-linecap="round" stroke-linejoin="round"/>
    <path d="M 122.70716094970703 138.26589965820312 C 133.79379272460938 145.2743377685547 134.50254821777344 108.6014633178711 118.0527572631836 142.05650329589844" stroke-width="3.0" fill="none" stroke="rgb(0, 0, 0)" stroke-opacity="1.0" stroke-linecap="round" stroke-linejoin="round"/>
    <path d="M 149.17431640625 64.17463684082031 C 165.56396484375 69.02261352539062 129.06005859375 52.10302734375 146.26458740234375 59.444976806640625" stroke-width="3.0" fill="none" stroke="rgb(0, 0, 0)" stroke-opacity="1.0" stroke-linecap="round" stroke-linejoin="round"/>
    <path d="M 142.539794921875 55.49495315551758 C 114.90973663330078 47.91633224487305 157.07949829101562 53.20061492919922 149.06787109375 55.050994873046875" stroke-width="3.0" fill="none" stroke="rgb(0, 0, 0)" stroke-opacity="1.0" stroke-linecap="round" stroke-linejoin="round"/>
  </g>
</svg>
