<?xml version="1.0" ?>
<svg xmlns="http://www.w3.org/2000/svg" version="1.1" width="224" height="224">
  <defs/>
  <g>
    <path d="M 182.98475646972656 93.87193298339844 C 150.15362548828125 77.75428009033203 62.710540771484375 90.23426055908203 140.0776824951172 69.05908966064453" stroke-width="3.0" fill="none" stroke="rgb(0, 0, 0)" stroke-opacity="1.0" stroke-linecap="round" stroke-linejoin="round"/>
    <path d="M 184.17152404785156 98.40018463134766 C 183.52378845214844 95.14290618896484 201.2481231689453 90.31704711914062 130.87814331054688 120.45276641845703" stroke-width="3.0" fill="none" stroke="rgb(0, 0, 0)" stroke-opacity="1.0" stroke-linecap="round" stroke-linejoin="round"/>
    <path d="M 52.513675689697266 41.132896423339844 C 2.283379316329956 34.32155990600586 67.26051330566406 128.2111358642578 70.8771743774414 63.87446975708008" stroke-width="3.0" fill="none" stroke="rgb(0, 0, 0)" stroke-opacity="1.0" stroke-linecap="round" stroke-linejoin="round"/>
    <path d="M 104.30623626708984 61.78499221801758 C 150.11032104492188 59.2528076171875 199.86129760742188 78.44374084472656 98.69074249267578 80.48147583007812" stroke-width="3.0" fill="none" stroke="rgb(0, 0, 0)" stroke-opacity="1.0" stroke-linecap="round" stroke-linejoin="round"/>
    <path d="M 152.146484375 77.72451782226562 C 206.4620361328125 105.03523254394531 164.64303588867188 103.59864807128906 187.59425354003906 99.29270935058594" stroke-width="3.0" fill="none" stroke="rgb(0, 0, 0)" stroke-opacity="1.0" stroke-linecap="round" stroke-linejoin="round"/>
    <path d="M 137.0509033203125 51.642826080322266 C 99.76195526123047 56.49690628051758 33.653602600097656 122.29205322265625 69.06985473632812 75.3023452758789" stroke-width="3.0" fill="none" stroke="rgb(0, 0, 0)" stroke-opacity="1.0" stroke-linecap="round" stroke-linejoin="round"/>
    <path d="M 155.71641540527344 74.8422622680664 C 67.98218536376953 54.341339111328125 154.45852661132812 38.5699577331543 190.6525115966797 95.56031799316406" stroke-width="3.0" fill="none" stroke="rgb(0, 0, 0)" stroke-opacity="1.0" stroke-linecap="round" stroke-linejoin="round"/>
    <path d="M 82.75672149658203 72.3089599609375 C 123.42584991455078 95.23381805419922 113.1033935546875 87.81219482421875 116.9559326171875 146.68824768066406" stroke-width="3.0" fill="none" stroke="rgb(0, 0, 0)" stroke-opacity="1.0" stroke-linecap="round" stroke-linejoin="round"/>
    <path d="M 128.6616973876953 88.09562683105469 C 107.90254211425781 201.92947387695312 123.48526763916016 94.09063720703125 105.90283203125 202.2689971923828" stroke-width="3.0" fill="none" stroke="rgb(0, 0, 0)" stroke-opacity="1.0" stroke-linecap="round" stroke-linejoin="round"/>
    <path d="M 130.67153930664062 50.1484375 C 141.46701049804688 50.410579681396484 85.61233520507812 26.693248748779297 76.65875244140625 80.64421844482422" stroke-width="3.0" fill="none" stroke="rgb(0, 0, 0)" stroke-opacity="1.0" stroke-linecap="round" stroke-linejoin="round"/>
    <path d="M 107.63713836669922 54.544063568115234 C 143.7143096923828 38.43836212158203 131.79598999023438 61.61579132080078 169.0038299560547 87.34161376953125" stroke-width="3.0" fill="none" stroke="rgb(0, 0, 0)" stroke-opacity="1.0" stroke-linecap="round" stroke-linejoin="round"/>
    <path d="M 155.81317138671875 80.7931137084961 C 146.50738525390625 72.20245361328125 221.55447387695312 112.42282104492188 154.0284423828125 62.4195442199707" stroke-width="3.0" fill="none" stroke="rgb(0, 0, 0)" stroke-opacity="1.0" stroke-linecap="round" stroke-linejoin="round"/>
    <path d="M 157.6357879638672 70.8931655883789 C 170.6047821044922 92.03248596191406 158.6453857421875 79.91401672363281 141.9155731201172 68.53764343261719" stroke-width="3.0" fill="none" stroke="rgb(0, 0, 0)" stroke-opacity="1.0" stroke-linecap="round" stroke-linejoin="round"/>
    <path d="M 121.168701171875 126.8459701538086 C 144.2219696044922 168.30291748046875 136.0778045654297 115.07401275634766 111.81417083740234 147.7279510498047" stroke-width="3.0" fill="none" stroke="rgb(0, 0, 0)" stroke-opacity="1.0" stroke-linecap="round" stroke-linejoin="round"/>
    <path d="M 138.87306213378906 78.49940490722656 C 181.86959838867188 93.76974487304688 138.835205078125 60.82349395751953 151.3866729736328 64.77527618408203" stroke-width="3.0" fill="none" stroke="rgb(0, 0, 0)" stroke-opacity="1.0" stroke-linecap="round" stroke-linejoin="round"/>
    <path d="M 140.42469787597656 60.60399627685547 C 122.89295959472656 42.63943099975586 157.88336181640625 62.69710159301758 139.228515625 50.87009811401367" stroke-width="3.0" fill="none" stroke="rgb(0, 0, 0)" stroke-opacity="1.0" stroke-linecap="round" stroke-linejoin="round"/>
  </g>
</svg>
