<?xml version="1.0" ?>
<svg xmlns="http://www.w3.org/2000/svg" version="1.1" width="224" height="224">
  <defs/>
  <g>
    <path d="M 159.37220764160156 85.3687744140625 C 138.35337829589844 81.36018371582031 104.63916778564453 94.83930206298828 145.82424926757812 80.06017303466797" stroke-width="3.0" fill="none" stroke="rgb(0, 0, 0)" stroke-opacity="1.0" stroke-linecap="round" stroke-linejoin="round"/>
    <path d="M 182.6633758544922 92.35881805419922 C 167.5180206298828 97.02693939208984 192.6770782470703 90.38040924072266 163.28701782226562 105.97914123535156" stroke-width="3.0" fill="none" stroke="rgb(0, 0, 0)" stroke-opacity="1.0" stroke-linecap="round" stroke-linejoin="round"/>
    <path d="M 47.39591598510742 38.000911712646484 C 4.09014368057251 77.38643646240234 85.61056518554688 126.61104583740234 78.34777069091797 70.07167053222656" stroke-width="3.0" fill="none" stroke="rgb(0, 0, 0)" stroke-opacity="1.0" stroke-linecap="round" stroke-linejoin="round"/>
    <path d="M 123.54815673828125 81.11209869384766 C 121.50055694580078 79.59459686279297 167.92491149902344 87.00729370117188 88.29964447021484 91.44845581054688" stroke-width="3.0" fill="none" stroke="rgb(0, 0, 0)" stroke-opacity="1.0" stroke-linecap="round" stroke-linejoin="round"/>
    <path d="M 169.12522888183594 88.08988189697266 C 214.13600158691406 114.69149780273438 184.69229125976562 101.30680847167969 182.62570190429688 93.6248779296875" stroke-width="3.0" fill="none" stroke="rgb(0, 0, 0)" stroke-opacity="1.0" stroke-linecap="round" stroke-linejoin="round"/>
    <path d="M 153.2500762939453 65.8611831665039 C 117.08561706542969 78.53421020507812 48.88771057128906 96.42059326171875 102.54608154296875 63.718658447265625" stroke-width="3.0" fill="none" stroke="rgb(0, 0, 0)" stroke-opacity="1.0" stroke-linecap="round" stroke-linejoin="round"/>
    <path d="M 141.64389038085938 63.214237213134766 C 160.5174102783203 81.21566772460938 139.8544158935547 39.405460357666016 190.6826171875 96.25994110107422" stroke-width="3.0" fill="none" stroke="rgb(0, 0, 0)" stroke-opacity="1.0" stroke-linecap="round" stroke-linejoin="round"/>
    <path d="M 77.0765380859375 94.36400604248047 C 123.67210388183594 91.0127944946289 106.4916000366211 81.67721557617188 124.9693832397461 138.17105102539062" stroke-width="3.0" fill="none" stroke="rgb(0, 0, 0)" stroke-opacity="1.0" stroke-linecap="round" stroke-linejoin="round"/>
    <path d="M 137.81651306152344 127.2254867553711 C 119.09021759033203 176.12701416015625 134.63865661621094 114.3396987915039 103.0289535522461 205.13148498535156" stroke-width="3.0" fill="none" stroke="rgb(0, 0, 0)" stroke-opacity="1.0" stroke-linecap="round" stroke-linejoin="round"/>
    <path d="M 137.9754180908203 49.1910514831543 C 144.72152709960938 53.01145553588867 84.98118591308594 29.258790969848633 68.83533477783203 82.41053771972656" stroke-width="3.0" fill="none" stroke="rgb(0, 0, 0)" stroke-opacity="1.0" stroke-linecap="round" stroke-linejoin="round"/>
    <path d="M 119.69343566894531 79.26880645751953 C 150.4155731201172 54.459407806396484 111.54367065429688 74.19563293457031 175.94580078125 90.5176773071289" stroke-width="3.0" fill="none" stroke="rgb(0, 0, 0)" stroke-opacity="1.0" stroke-linecap="round" stroke-linejoin="round"/>
    <path d="M 170.79595947265625 81.65499114990234 C 147.76031494140625 73.14471435546875 167.789306640625 82.1325912475586 150.14108276367188 79.82929992675781" stroke-width="3.0" fill="none" stroke="rgb(0, 0, 0)" stroke-opacity="1.0" stroke-linecap="round" stroke-linejoin="round"/>
    <path d="M 143.00450134277344 60.39651107788086 C 136.3837890625 75.0819091796875 148.209716796875 56.98057556152344 145.91903686523438 56.33040237426758" stroke-width="3.0" fill="none" stroke="rgb(0, 0, 0)" stroke-opacity="1.0" stroke-linecap="round" stroke-linejoin="round"/>
    <path d="M 123.99857330322266 141.9276580810547 C 128.5328826904297 148.96749877929688 130.01797485351562 118.40196228027344 119.05033874511719 145.01947021484375" stroke-width="3.0" fill="none" stroke="rgb(0, 0, 0)" stroke-opacity="1.0" stroke-linecap="round" stroke-linejoin="round"/>
    <path d="M 145.37332153320312 61.92111587524414 C 164.81211853027344 66.00376892089844 133.6789093017578 53.64701461791992 147.5237274169922 65.34562683105469" stroke-width="3.0" fill="none" stroke="rgb(0, 0, 0)" stroke-opacity="1.0" stroke-linecap="round" stroke-linejoin="round"/>
    <path d="M 140.6803741455078 50.49036407470703 C 127.6354751586914 55.36225509643555 154.6669158935547 51.65627670288086 145.57115173339844 66.1563491821289" stroke-width="3.0" fill="none" stroke="rgb(0, 0, 0)" stroke-opacity="1.0" stroke-linecap="round" stroke-linejoin="round"/>
  </g>
</svg>
