<?xml version="1.0" ?>
<svg xmlns="http://www.w3.org/2000/svg" version="1.1" width="224" height="224">
  <defs/>
  <g>
    <path d="M 173.74876403808594 87.21388244628906 C 139.04998779296875 80.78690338134766 101.76809692382812 93.81607818603516 145.53863525390625 87.60187530517578" stroke-width="3.0" fill="none" stroke="rgb(0, 0, 0)" stroke-opacity="1.0" stroke-linecap="round" stroke-linejoin="round"/>
    <path d="M 177.49855041503906 91.1412353515625 C 174.53125 101.26961517333984 194.5771026611328 89.3812255859375 156.93504333496094 108.17753601074219" stroke-width="3.0" fill="none" stroke="rgb(0, 0, 0)" stroke-opacity="1.0" stroke-linecap="round" stroke-linejoin="round"/>
    <path d="M 45.81796646118164 40.549015045166016 C 15.32127857208252 67.1948013305664 85.85189056396484 128.74795532226562 79.68538665771484 70.77764892578125" stroke-width="3.0" fill="none" stroke="rgb(0, 0, 0)" stroke-opacity="1.0" stroke-linecap="round" stroke-linejoin="round"/>
    <path d="M 99.41481018066406 79.05277252197266 C 125.07296752929688 83.73009490966797 169.38369750976562 91.07266998291016 103.43464660644531 93.07623291015625" stroke-width="3.0" fill="none" stroke="rgb(0, 0, 0)" stroke-opacity="1.0" stroke-linecap="round" stroke-linejoin="round"/>
    <path d="M 159.56553649902344 84.05750274658203 C 213.35972595214844 101.89222717285156 172.31690979003906 98.92395782470703 187.367919921875 96.85530090332031" stroke-width="3.0" fill="none" stroke="rgb(0, 0, 0)" stroke-opacity="1.0" stroke-linecap="round" stroke-linejoin="round"/>
    <path d="M 142.83346557617188 54.096282958984375 C 115.69271850585938 76.26126861572266 62.51969909667969 110.64860534667969 86.74121856689453 62.564064025878906" stroke-width="3.0" fill="none" stroke="rgb(0, 0, 0)" stroke-opacity="1.0" stroke-linecap="round" stroke-linejoin="round"/>
    <path d="M 142.80502319335938 63.85651779174805 C 143.633544921875 70.83763885498047 148.39889526367188 47.66337203979492 190.7661590576172 93.87935638427734" stroke-width="3.0" fill="none" stroke="rgb(0, 0, 0)" stroke-opacity="1.0" stroke-linecap="round" stroke-linejoin="round"/>
    <path d="M 81.57638549804688 89.24984741210938 C 122.2296142578125 99.82005310058594 106.77786254882812 86.6949691772461 122.65587615966797 133.30787658691406" stroke-width="3.0" fill="none" stroke="rgb(0, 0, 0)" stroke-opacity="1.0" stroke-linecap="round" stroke-linejoin="round"/>
    <path d="M 138.9765625 112.55403137207031 C 116.9951171875 178.05230712890625 131.70359802246094 105.0794448852539 103.56331634521484 205.84727478027344" stroke-width="3.0" fill="none" stroke="rgb(0, 0, 0)" stroke-opacity="1.0" stroke-linecap="round" stroke-linejoin="round"/>
    <path d="M 138.6092071533203 50.2524299621582 C 144.9118194580078 50.417118072509766 80.13548278808594 23.258298873901367 68.58572387695312 84.579833984375" stroke-width="3.0" fill="none" stroke="rgb(0, 0, 0)" stroke-opacity="1.0" stroke-linecap="round" stroke-linejoin="round"/>
    <path d="M 104.3218002319336 74.20973205566406 C 151.22909545898438 64.97976684570312 121.92971801757812 69.54185485839844 176.4466552734375 91.63328552246094" stroke-width="3.0" fill="none" stroke="rgb(0, 0, 0)" stroke-opacity="1.0" stroke-linecap="round" stroke-linejoin="round"/>
    <path d="M 178.99496459960938 84.15010070800781 C 144.9018096923828 73.6102294921875 173.9102783203125 84.21129608154297 148.58355712890625 77.05816650390625" stroke-width="3.0" fill="none" stroke="rgb(0, 0, 0)" stroke-opacity="1.0" stroke-linecap="round" stroke-linejoin="round"/>
    <path d="M 142.45925903320312 62.93855667114258 C 143.12640380859375 71.50032806396484 149.6738739013672 56.48691940307617 146.92315673828125 61.079166412353516" stroke-width="3.0" fill="none" stroke="rgb(0, 0, 0)" stroke-opacity="1.0" stroke-linecap="round" stroke-linejoin="round"/>
    <path d="M 123.51683044433594 131.85105895996094 C 129.86451721191406 140.3150634765625 124.81857299804688 105.4612045288086 116.7967758178711 149.0382080078125" stroke-width="3.0" fill="none" stroke="rgb(0, 0, 0)" stroke-opacity="1.0" stroke-linecap="round" stroke-linejoin="round"/>
    <path d="M 145.19287109375 63.37320327758789 C 166.0363006591797 66.01518249511719 127.23226928710938 58.66233444213867 151.43966674804688 60.50225067138672" stroke-width="3.0" fill="none" stroke="rgb(0, 0, 0)" stroke-opacity="1.0" stroke-linecap="round" stroke-linejoin="round"/>
    <path d="M 140.78469848632812 51.52829360961914 C 124.40398406982422 53.46274948120117 160.276611328125 56.94503402709961 147.86708068847656 64.18766021728516" stroke-width="3.0" fill="none" stroke="rgb(0, 0, 0)" stroke-opacity="1.0" stroke-linecap="round" stroke-linejoin="round"/>
  </g>
</svg>
