<?xml version="1.0" ?>
<svg xmlns="http://www.w3.org/2000/svg" version="1.1" width="224" height="224">
  <defs/>
  <g>
    <path d="M 170.9483642578125 90.50204467773438 C 127.486572265625 88.10093688964844 57.055572509765625 105.42145538330078 141.57766723632812 71.90901947021484" stroke-width="3.0" fill="none" stroke="rgb(0, 0, 0)" stroke-opacity="1.0" stroke-linecap="round" stroke-linejoin="round"/>
    <path d="M 180.075927734375 92.52068328857422 C 178.17092895507812 101.66316223144531 192.1352996826172 89.49578857421875 156.4939727783203 114.3394775390625" stroke-width="3.0" fill="none" stroke="rgb(0, 0, 0)" stroke-opacity="1.0" stroke-linecap="round" stroke-linejoin="round"/>
    <path d="M 44.33326721191406 38.012516021728516 C 14.790911674499512 44.78340148925781 77.59439086914062 135.9290313720703 76.68904876708984 65.50110626220703" stroke-width="3.0" fill="none" stroke="rgb(0, 0, 0)" stroke-opacity="1.0" stroke-linecap="round" stroke-linejoin="round"/>
    <path d="M 103.33379364013672 71.90039825439453 C 147.40066528320312 73.31404113769531 194.14990234375 78.0 98.22038269042969 89.26288604736328" stroke-width="3.0" fill="none" stroke="rgb(0, 0, 0)" stroke-opacity="1.0" stroke-linecap="round" stroke-linejoin="round"/>
    <path d="M 153.81399536132812 83.8082275390625 C 216.03683471679688 109.48517608642578 170.95445251464844 94.01091003417969 182.9112548828125 94.99454498291016" stroke-width="3.0" fill="none" stroke="rgb(0, 0, 0)" stroke-opacity="1.0" stroke-linecap="round" stroke-linejoin="round"/>
    <path d="M 146.5841827392578 64.34347534179688 C 109.0392074584961 64.5265884399414 55.842308044433594 102.78731536865234 84.18499755859375 60.269718170166016" stroke-width="3.0" fill="none" stroke="rgb(0, 0, 0)" stroke-opacity="1.0" stroke-linecap="round" stroke-linejoin="round"/>
    <path d="M 159.33119201660156 69.52803802490234 C 117.2247085571289 54.849979400634766 158.25460815429688 51.84198760986328 188.8968963623047 95.27922821044922" stroke-width="3.0" fill="none" stroke="rgb(0, 0, 0)" stroke-opacity="1.0" stroke-linecap="round" stroke-linejoin="round"/>
    <path d="M 79.33308410644531 85.11956787109375 C 124.04024505615234 97.55088806152344 114.46118927001953 82.13591766357422 119.56526947021484 140.00201416015625" stroke-width="3.0" fill="none" stroke="rgb(0, 0, 0)" stroke-opacity="1.0" stroke-linecap="round" stroke-linejoin="round"/>
    <path d="M 130.04122924804688 92.80593872070312 C 115.56089782714844 193.1054229736328 129.85911560058594 88.52731323242188 106.26006317138672 204.67071533203125" stroke-width="3.0" fill="none" stroke="rgb(0, 0, 0)" stroke-opacity="1.0" stroke-linecap="round" stroke-linejoin="round"/>
    <path d="M 125.8743667602539 48.03876495361328 C 140.01177978515625 52.48961639404297 75.72915649414062 26.54208755493164 66.7101058959961 78.87187957763672" stroke-width="3.0" fill="none" stroke="rgb(0, 0, 0)" stroke-opacity="1.0" stroke-linecap="round" stroke-linejoin="round"/>
    <path d="M 112.50250244140625 48.252525329589844 C 157.5032958984375 48.80307388305664 131.2263946533203 65.83013916015625 172.75634765625 85.72373962402344" stroke-width="3.0" fill="none" stroke="rgb(0, 0, 0)" stroke-opacity="1.0" stroke-linecap="round" stroke-linejoin="round"/>
    <path d="M 180.55108642578125 86.54727935791016 C 151.75271606445312 76.2010498046875 204.95919799804688 103.20109558105469 145.39312744140625 83.01483917236328" stroke-width="3.0" fill="none" stroke="rgb(0, 0, 0)" stroke-opacity="1.0" stroke-linecap="round" stroke-linejoin="round"/>
    <path d="M 145.3292694091797 65.68123626708984 C 144.74615478515625 74.2067642211914 153.79148864746094 61.209808349609375 144.1764678955078 65.90180206298828" stroke-width="3.0" fill="none" stroke="rgb(0, 0, 0)" stroke-opacity="1.0" stroke-linecap="round" stroke-linejoin="round"/>
    <path d="M 129.1421356201172 119.98155212402344 C 141.639404296875 147.85557556152344 135.64804077148438 101.0877456665039 116.69591522216797 137.7162628173828" stroke-width="3.0" fill="none" stroke="rgb(0, 0, 0)" stroke-opacity="1.0" stroke-linecap="round" stroke-linejoin="round"/>
    <path d="M 146.7543487548828 64.10173797607422 C 161.9535675048828 67.65898895263672 130.0339813232422 46.92888259887695 146.62417602539062 61.51288986206055" stroke-width="3.0" fill="none" stroke="rgb(0, 0, 0)" stroke-opacity="1.0" stroke-linecap="round" stroke-linejoin="round"/>
    <path d="M 144.58499145507812 58.1097526550293 C 117.96942138671875 53.709747314453125 151.04603576660156 60.24855041503906 142.52389526367188 61.17136764526367" stroke-width="3.0" fill="none" stroke="rgb(0, 0, 0)" stroke-opacity="1.0" stroke-linecap="round" stroke-linejoin="round"/>
  </g>
</svg>
