<?xml version="1.0" ?>
<svg xmlns="http://www.w3.org/2000/svg" version="1.1" width="224" height="224">
  <defs/>
  <g>
    <path d="M 177.95260620117188 95.0385971069336 C 161.81851196289062 89.00341033935547 34.47899627685547 100.97587585449219 125.70928955078125 67.73490905761719" stroke-width="3.0" fill="none" stroke="rgb(0, 0, 0)" stroke-opacity="1.0" stroke-linecap="round" stroke-linejoin="round"/>
    <path d="M 179.6279296875 93.41262817382812 C 174.5368194580078 98.71261596679688 204.16476440429688 89.5799560546875 133.5011749267578 121.90095520019531" stroke-width="3.0" fill="none" stroke="rgb(0, 0, 0)" stroke-opacity="1.0" stroke-linecap="round" stroke-linejoin="round"/>
    <path d="M 58.639427185058594 40.506675720214844 C 7.96017599105835 28.462108612060547 62.34416198730469 140.78639221191406 81.15718078613281 62.53363037109375" stroke-width="3.0" fill="none" stroke="rgb(0, 0, 0)" stroke-opacity="1.0" stroke-linecap="round" stroke-linejoin="round"/>
    <path d="M 101.50132751464844 60.19621276855469 C 146.2402801513672 68.83383178710938 205.5201416015625 98.40557861328125 103.39300537109375 75.26324462890625" stroke-width="3.0" fill="none" stroke="rgb(0, 0, 0)" stroke-opacity="1.0" stroke-linecap="round" stroke-linejoin="round"/>
    <path d="M 125.27088165283203 69.2645492553711 C 205.07022094726562 104.32647705078125 172.69952392578125 95.77604675292969 181.221435546875 94.30877685546875" stroke-width="3.0" fill="none" stroke="rgb(0, 0, 0)" stroke-opacity="1.0" stroke-linecap="round" stroke-linejoin="round"/>
    <path d="M 107.1728286743164 51.1265869140625 C 112.20288848876953 59.171722412109375 34.90922164916992 135.92071533203125 74.46654510498047 97.69672393798828" stroke-width="3.0" fill="none" stroke="rgb(0, 0, 0)" stroke-opacity="1.0" stroke-linecap="round" stroke-linejoin="round"/>
    <path d="M 144.66468811035156 78.94538879394531 C 0.13060744106769562 63.08427429199219 150.6381072998047 24.901538848876953 188.2234649658203 95.82429504394531" stroke-width="3.0" fill="none" stroke="rgb(0, 0, 0)" stroke-opacity="1.0" stroke-linecap="round" stroke-linejoin="round"/>
    <path d="M 86.67449188232422 76.72655487060547 C 111.85000610351562 114.40619659423828 114.12784576416016 64.78654479980469 121.51752471923828 146.62124633789062" stroke-width="3.0" fill="none" stroke="rgb(0, 0, 0)" stroke-opacity="1.0" stroke-linecap="round" stroke-linejoin="round"/>
    <path d="M 127.78596496582031 93.52455139160156 C 118.70204162597656 203.53663635253906 131.02781677246094 92.97190856933594 102.38436889648438 205.640869140625" stroke-width="3.0" fill="none" stroke="rgb(0, 0, 0)" stroke-opacity="1.0" stroke-linecap="round" stroke-linejoin="round"/>
    <path d="M 148.85198974609375 62.822845458984375 C 138.2103271484375 46.16611862182617 94.37744140625 19.454988479614258 83.0209732055664 83.75113677978516" stroke-width="3.0" fill="none" stroke="rgb(0, 0, 0)" stroke-opacity="1.0" stroke-linecap="round" stroke-linejoin="round"/>
    <path d="M 88.71632385253906 55.3438835144043 C 142.32423400878906 31.324857711791992 143.5723419189453 52.816280364990234 171.2152099609375 83.43572998046875" stroke-width="3.0" fill="none" stroke="rgb(0, 0, 0)" stroke-opacity="1.0" stroke-linecap="round" stroke-linejoin="round"/>
    <path d="M 157.7903594970703 73.9198226928711 C 158.9136962890625 89.63037872314453 248.87701416015625 124.92750549316406 145.35467529296875 52.5624885559082" stroke-width="3.0" fill="none" stroke="rgb(0, 0, 0)" stroke-opacity="1.0" stroke-linecap="round" stroke-linejoin="round"/>
    <path d="M 153.93336486816406 70.04141998291016 C 179.640380859375 114.10980224609375 169.45733642578125 86.45339965820312 130.69776916503906 60.14020538330078" stroke-width="3.0" fill="none" stroke="rgb(0, 0, 0)" stroke-opacity="1.0" stroke-linecap="round" stroke-linejoin="round"/>
    <path d="M 124.9261703491211 119.32701873779297 C 145.47076416015625 152.7258758544922 142.00286865234375 104.54090118408203 115.70148468017578 147.58802795410156" stroke-width="3.0" fill="none" stroke="rgb(0, 0, 0)" stroke-opacity="1.0" stroke-linecap="round" stroke-linejoin="round"/>
    <path d="M 113.3294906616211 75.92594909667969 C 192.0891571044922 101.5870361328125 144.4391632080078 57.75804138183594 132.12281799316406 65.1089096069336" stroke-width="3.0" fill="none" stroke="rgb(0, 0, 0)" stroke-opacity="1.0" stroke-linecap="round" stroke-linejoin="round"/>
    <path d="M 142.66018676757812 75.36756134033203 C 84.17733764648438 36.209041595458984 164.98899841308594 64.48442840576172 128.84246826171875 46.80876922607422" stroke-width="3.0" fill="none" stroke="rgb(0, 0, 0)" stroke-opacity="1.0" stroke-linecap="round" stroke-linejoin="round"/>
  </g>
</svg>
