<?xml version="1.0" ?>
<svg xmlns="http://www.w3.org/2000/svg" version="1.1" width="224" height="224">
  <defs/>
  <g>
    <path d="M 172.00616455078125 89.24560546875 C 138.14891052246094 81.07479095458984 100.88854217529297 93.09668731689453 146.32373046875 88.87664794921875" stroke-width="3.0" fill="none" stroke="rgb(0, 0, 0)" stroke-opacity="1.0" stroke-linecap="round" stroke-linejoin="round"/>
    <path d="M 177.9457550048828 89.67525482177734 C 176.76707458496094 96.32673645019531 196.24842834472656 90.38436126708984 160.4437713623047 108.05392456054688" stroke-width="3.0" fill="none" stroke="rgb(0, 0, 0)" stroke-opacity="1.0" stroke-linecap="round" stroke-linejoin="round"/>
    <path d="M 45.07598876953125 37.8131217956543 C 14.350704193115234 62.60918426513672 86.33865356445312 128.4703826904297 83.21443176269531 69.18531036376953" stroke-width="3.0" fill="none" stroke="rgb(0, 0, 0)" stroke-opacity="1.0" stroke-linecap="round" stroke-linejoin="round"/>
    <path d="M 87.6783676147461 76.0894775390625 C 125.61936950683594 84.64923858642578 170.5843963623047 89.0892333984375 105.7583236694336 94.5645523071289" stroke-width="3.0" fill="none" stroke="rgb(0, 0, 0)" stroke-opacity="1.0" stroke-linecap="round" stroke-linejoin="round"/>
    <path d="M 159.945556640625 84.58718872070312 C 213.5264129638672 103.56102752685547 171.84060668945312 99.56976318359375 186.0792999267578 96.28044891357422" stroke-width="3.0" fill="none" stroke="rgb(0, 0, 0)" stroke-opacity="1.0" stroke-linecap="round" stroke-linejoin="round"/>
    <path d="M 142.4772186279297 54.8337516784668 C 116.33529663085938 75.04265594482422 63.35419845581055 107.60758209228516 88.4500961303711 59.99666976928711" stroke-width="3.0" fill="none" stroke="rgb(0, 0, 0)" stroke-opacity="1.0" stroke-linecap="round" stroke-linejoin="round"/>
    <path d="M 143.0138702392578 64.39766693115234 C 139.80511474609375 69.46102905273438 152.66419982910156 47.3925666809082 191.59764099121094 94.54826354980469" stroke-width="3.0" fill="none" stroke="rgb(0, 0, 0)" stroke-opacity="1.0" stroke-linecap="round" stroke-linejoin="round"/>
    <path d="M 82.31770324707031 91.7984848022461 C 121.85448455810547 102.0702133178711 104.89046478271484 85.25385284423828 122.70311737060547 134.59518432617188" stroke-width="3.0" fill="none" stroke="rgb(0, 0, 0)" stroke-opacity="1.0" stroke-linecap="round" stroke-linejoin="round"/>
    <path d="M 140.05006408691406 110.80108642578125 C 115.54019927978516 176.95513916015625 135.3534393310547 104.60879516601562 104.73393249511719 204.63076782226562" stroke-width="3.0" fill="none" stroke="rgb(0, 0, 0)" stroke-opacity="1.0" stroke-linecap="round" stroke-linejoin="round"/>
    <path d="M 138.4810028076172 49.16958999633789 C 143.1434326171875 52.53398132324219 80.14599609375 23.585390090942383 76.50831604003906 81.42097473144531" stroke-width="3.0" fill="none" stroke="rgb(0, 0, 0)" stroke-opacity="1.0" stroke-linecap="round" stroke-linejoin="round"/>
    <path d="M 106.73308563232422 72.03302764892578 C 154.33856201171875 60.73750305175781 126.32994842529297 64.09416961669922 175.85614013671875 91.61043548583984" stroke-width="3.0" fill="none" stroke="rgb(0, 0, 0)" stroke-opacity="1.0" stroke-linecap="round" stroke-linejoin="round"/>
    <path d="M 178.92318725585938 83.71002960205078 C 145.6825408935547 69.02427673339844 173.33355712890625 84.21076202392578 147.3362579345703 77.62533569335938" stroke-width="3.0" fill="none" stroke="rgb(0, 0, 0)" stroke-opacity="1.0" stroke-linecap="round" stroke-linejoin="round"/>
    <path d="M 144.33021545410156 63.786293029785156 C 141.85838317871094 69.83564758300781 149.16860961914062 55.927181243896484 146.8701629638672 61.022926330566406" stroke-width="3.0" fill="none" stroke="rgb(0, 0, 0)" stroke-opacity="1.0" stroke-linecap="round" stroke-linejoin="round"/>
    <path d="M 123.62269592285156 132.95008850097656 C 127.92960357666016 142.54994201660156 123.14498901367188 105.54688262939453 115.14419555664062 146.71971130371094" stroke-width="3.0" fill="none" stroke="rgb(0, 0, 0)" stroke-opacity="1.0" stroke-linecap="round" stroke-linejoin="round"/>
    <path d="M 145.2340087890625 63.04546356201172 C 166.26971435546875 66.09274291992188 127.01122283935547 57.19478988647461 153.5025634765625 61.26430130004883" stroke-width="3.0" fill="none" stroke="rgb(0, 0, 0)" stroke-opacity="1.0" stroke-linecap="round" stroke-linejoin="round"/>
    <path d="M 140.51551818847656 53.92686462402344 C 125.2704086303711 50.69884490966797 159.33653259277344 55.89702606201172 147.11126708984375 62.167049407958984" stroke-width="3.0" fill="none" stroke="rgb(0, 0, 0)" stroke-opacity="1.0" stroke-linecap="round" stroke-linejoin="round"/>
  </g>
</svg>
