<?xml version="1.0" ?>
<svg xmlns="http://www.w3.org/2000/svg" version="1.1" width="224" height="224">
  <defs/>
  <g>
    <path d="M 158.76242065429688 82.30968475341797 C 138.23207092285156 80.20832824707031 104.3097152709961 94.40865325927734 144.4264678955078 78.7929916381836" stroke-width="3.0" fill="none" stroke="rgb(0, 0, 0)" stroke-opacity="1.0" stroke-linecap="round" stroke-linejoin="round"/>
    <path d="M 182.1455535888672 91.93639373779297 C 167.26629638671875 94.6238021850586 189.30313110351562 87.01117706298828 164.4545440673828 107.22513580322266" stroke-width="3.0" fill="none" stroke="rgb(0, 0, 0)" stroke-opacity="1.0" stroke-linecap="round" stroke-linejoin="round"/>
    <path d="M 57.167049407958984 37.154170989990234 C 11.513203620910645 83.18431854248047 84.70191192626953 126.12613677978516 81.61058807373047 69.12220001220703" stroke-width="3.0" fill="none" stroke="rgb(0, 0, 0)" stroke-opacity="1.0" stroke-linecap="round" stroke-linejoin="round"/>
    <path d="M 125.27643585205078 80.28343200683594 C 120.30354309082031 81.17593383789062 166.8637237548828 86.90137481689453 89.21609497070312 90.75872802734375" stroke-width="3.0" fill="none" stroke="rgb(0, 0, 0)" stroke-opacity="1.0" stroke-linecap="round" stroke-linejoin="round"/>
    <path d="M 169.5970458984375 87.26666259765625 C 215.55026245117188 108.57627868652344 184.03713989257812 98.43186950683594 180.2541961669922 91.89805603027344" stroke-width="3.0" fill="none" stroke="rgb(0, 0, 0)" stroke-opacity="1.0" stroke-linecap="round" stroke-linejoin="round"/>
    <path d="M 151.21409606933594 60.65330123901367 C 120.17479705810547 86.88127136230469 53.82673645019531 104.95755004882812 106.65039825439453 70.49356079101562" stroke-width="3.0" fill="none" stroke="rgb(0, 0, 0)" stroke-opacity="1.0" stroke-linecap="round" stroke-linejoin="round"/>
    <path d="M 137.9313507080078 59.7116813659668 C 163.6457061767578 81.2967758178711 136.13035583496094 36.24797821044922 191.41348266601562 95.53407287597656" stroke-width="3.0" fill="none" stroke="rgb(0, 0, 0)" stroke-opacity="1.0" stroke-linecap="round" stroke-linejoin="round"/>
    <path d="M 72.32475280761719 93.96013641357422 C 123.04825592041016 91.78816986083984 105.37757110595703 83.40290832519531 123.1773910522461 136.6507110595703" stroke-width="3.0" fill="none" stroke="rgb(0, 0, 0)" stroke-opacity="1.0" stroke-linecap="round" stroke-linejoin="round"/>
    <path d="M 137.72430419921875 123.38804626464844 C 118.60479736328125 176.5433807373047 135.17019653320312 116.11152648925781 106.30565643310547 205.01657104492188" stroke-width="3.0" fill="none" stroke="rgb(0, 0, 0)" stroke-opacity="1.0" stroke-linecap="round" stroke-linejoin="round"/>
    <path d="M 137.6184539794922 52.32403564453125 C 144.70777893066406 53.95769119262695 88.3893051147461 31.159893035888672 68.75064849853516 81.78976440429688" stroke-width="3.0" fill="none" stroke="rgb(0, 0, 0)" stroke-opacity="1.0" stroke-linecap="round" stroke-linejoin="round"/>
    <path d="M 121.97535705566406 81.47661590576172 C 153.06976318359375 58.7856330871582 113.3987045288086 73.93905639648438 174.1573944091797 85.75102996826172" stroke-width="3.0" fill="none" stroke="rgb(0, 0, 0)" stroke-opacity="1.0" stroke-linecap="round" stroke-linejoin="round"/>
    <path d="M 169.00991821289062 81.8533706665039 C 149.072509765625 69.10859680175781 163.99903869628906 80.71710968017578 149.5638885498047 77.13760375976562" stroke-width="3.0" fill="none" stroke="rgb(0, 0, 0)" stroke-opacity="1.0" stroke-linecap="round" stroke-linejoin="round"/>
    <path d="M 140.4126739501953 57.82236862182617 C 129.8639373779297 67.56304168701172 142.89193725585938 54.13874816894531 144.279541015625 56.237159729003906" stroke-width="3.0" fill="none" stroke="rgb(0, 0, 0)" stroke-opacity="1.0" stroke-linecap="round" stroke-linejoin="round"/>
    <path d="M 122.95649719238281 142.81520080566406 C 127.70225524902344 151.02381896972656 127.49185943603516 116.18780517578125 117.32476806640625 141.8211212158203" stroke-width="3.0" fill="none" stroke="rgb(0, 0, 0)" stroke-opacity="1.0" stroke-linecap="round" stroke-linejoin="round"/>
    <path d="M 146.953857421875 62.734283447265625 C 167.19737243652344 63.51744079589844 133.4243927001953 52.820865631103516 145.0660400390625 67.42890930175781" stroke-width="3.0" fill="none" stroke="rgb(0, 0, 0)" stroke-opacity="1.0" stroke-linecap="round" stroke-linejoin="round"/>
    <path d="M 138.59544372558594 56.627098083496094 C 127.8683090209961 55.90393829345703 151.9822998046875 48.78700256347656 143.74061584472656 65.72236633300781" stroke-width="3.0" fill="none" stroke="rgb(0, 0, 0)" stroke-opacity="1.0" stroke-linecap="round" stroke-linejoin="round"/>
  </g>
</svg>
