<?xml version="1.0" ?>
<svg xmlns="http://www.w3.org/2000/svg" version="1.1" width="224" height="224">
  <defs/>
  <g>
    <path d="M 180.79034423828125 97.67052459716797 C 186.8284149169922 84.65418243408203 43.84906768798828 97.69671630859375 123.76744842529297 71.37220001220703" stroke-width="3.0" fill="none" stroke="rgb(0, 0, 0)" stroke-opacity="1.0" stroke-linecap="round" stroke-linejoin="round"/>
    <path d="M 185.801025390625 98.13772583007812 C 171.72494506835938 95.48535919189453 204.23776245117188 86.74837493896484 131.0206298828125 122.14410400390625" stroke-width="3.0" fill="none" stroke="rgb(0, 0, 0)" stroke-opacity="1.0" stroke-linecap="round" stroke-linejoin="round"/>
    <path d="M 57.9746208190918 45.21160125732422 C 9.360194206237793 22.284568786621094 79.0387191772461 152.8204345703125 88.0083999633789 62.153663635253906" stroke-width="3.0" fill="none" stroke="rgb(0, 0, 0)" stroke-opacity="1.0" stroke-linecap="round" stroke-linejoin="round"/>
    <path d="M 91.58815002441406 63.31349563598633 C 148.67857360839844 60.74554443359375 195.97097778320312 106.78135681152344 116.37433624267578 76.78278350830078" stroke-width="3.0" fill="none" stroke="rgb(0, 0, 0)" stroke-opacity="1.0" stroke-linecap="round" stroke-linejoin="round"/>
    <path d="M 128.1010284423828 70.03325653076172 C 201.98492431640625 106.94478607177734 166.8641357421875 86.41178131103516 175.2617645263672 78.89775085449219" stroke-width="3.0" fill="none" stroke="rgb(0, 0, 0)" stroke-opacity="1.0" stroke-linecap="round" stroke-linejoin="round"/>
    <path d="M 100.91433715820312 52.98349380493164 C 123.28517150878906 72.24452209472656 57.29510498046875 143.9507598876953 85.39566040039062 111.295166015625" stroke-width="3.0" fill="none" stroke="rgb(0, 0, 0)" stroke-opacity="1.0" stroke-linecap="round" stroke-linejoin="round"/>
    <path d="M 158.4155731201172 82.22650146484375 C 1.2776340246200562 64.15701293945312 153.98703002929688 26.245441436767578 188.4991455078125 95.95369720458984" stroke-width="3.0" fill="none" stroke="rgb(0, 0, 0)" stroke-opacity="1.0" stroke-linecap="round" stroke-linejoin="round"/>
    <path d="M 97.0412368774414 63.73235321044922 C 114.82510375976562 117.62869262695312 111.91206359863281 72.30362701416016 119.57361602783203 145.84078979492188" stroke-width="3.0" fill="none" stroke="rgb(0, 0, 0)" stroke-opacity="1.0" stroke-linecap="round" stroke-linejoin="round"/>
    <path d="M 125.09656524658203 92.15953826904297 C 118.48342895507812 204.83779907226562 129.76766967773438 99.05082702636719 105.71440124511719 209.05654907226562" stroke-width="3.0" fill="none" stroke="rgb(0, 0, 0)" stroke-opacity="1.0" stroke-linecap="round" stroke-linejoin="round"/>
    <path d="M 154.34024047851562 60.340660095214844 C 140.548583984375 50.51188659667969 99.45899963378906 25.476160049438477 83.9815444946289 78.51736450195312" stroke-width="3.0" fill="none" stroke="rgb(0, 0, 0)" stroke-opacity="1.0" stroke-linecap="round" stroke-linejoin="round"/>
    <path d="M 88.58039093017578 74.47898864746094 C 132.82778930664062 21.57144546508789 139.16278076171875 52.77252960205078 160.83673095703125 82.85431671142578" stroke-width="3.0" fill="none" stroke="rgb(0, 0, 0)" stroke-opacity="1.0" stroke-linecap="round" stroke-linejoin="round"/>
    <path d="M 147.1351776123047 73.9880599975586 C 153.41323852539062 89.2856674194336 238.21343994140625 126.65523529052734 146.27488708496094 60.19190216064453" stroke-width="3.0" fill="none" stroke="rgb(0, 0, 0)" stroke-opacity="1.0" stroke-linecap="round" stroke-linejoin="round"/>
    <path d="M 156.30604553222656 70.50789642333984 C 193.35147094726562 98.78134155273438 169.8749542236328 84.38508605957031 115.79926300048828 53.59382247924805" stroke-width="3.0" fill="none" stroke="rgb(0, 0, 0)" stroke-opacity="1.0" stroke-linecap="round" stroke-linejoin="round"/>
    <path d="M 123.92469787597656 121.63797760009766 C 139.39859008789062 143.73147583007812 139.3275146484375 99.9342269897461 117.55089569091797 151.02886962890625" stroke-width="3.0" fill="none" stroke="rgb(0, 0, 0)" stroke-opacity="1.0" stroke-linecap="round" stroke-linejoin="round"/>
    <path d="M 99.2022476196289 89.10955810546875 C 194.64886474609375 107.59568786621094 161.11904907226562 52.612571716308594 143.06031799316406 71.68616485595703" stroke-width="3.0" fill="none" stroke="rgb(0, 0, 0)" stroke-opacity="1.0" stroke-linecap="round" stroke-linejoin="round"/>
    <path d="M 152.13516235351562 84.18643188476562 C 53.13340759277344 44.383853912353516 180.2837677001953 69.09495544433594 120.09164428710938 50.485103607177734" stroke-width="3.0" fill="none" stroke="rgb(0, 0, 0)" stroke-opacity="1.0" stroke-linecap="round" stroke-linejoin="round"/>
  </g>
</svg>
