<?xml version="1.0" ?>
<svg xmlns="http://www.w3.org/2000/svg" version="1.1" width="224" height="224">
  <defs/>
  <g>
    <path d="M 180.02127075195312 98.1403579711914 C 134.61109924316406 76.68572235107422 44.54533767700195 108.619873046875 136.9153594970703 70.0712890625" stroke-width="3.0" fill="none" stroke="rgb(0, 0, 0)" stroke-opacity="1.0" stroke-linecap="round" stroke-linejoin="round"/>
    <path d="M 186.05181884765625 100.90800476074219 C 177.94578552246094 89.69910430908203 199.2859649658203 88.75645446777344 131.44993591308594 119.94793701171875" stroke-width="3.0" fill="none" stroke="rgb(0, 0, 0)" stroke-opacity="1.0" stroke-linecap="round" stroke-linejoin="round"/>
    <path d="M 54.76134490966797 41.569908142089844 C 6.989670753479004 32.66775894165039 62.57338333129883 122.97940063476562 70.63175964355469 65.49765014648438" stroke-width="3.0" fill="none" stroke="rgb(0, 0, 0)" stroke-opacity="1.0" stroke-linecap="round" stroke-linejoin="round"/>
    <path d="M 113.62576293945312 65.0145492553711 C 158.98960876464844 65.1297607421875 212.34548950195312 82.00305938720703 97.42608642578125 88.69877624511719" stroke-width="3.0" fill="none" stroke="rgb(0, 0, 0)" stroke-opacity="1.0" stroke-linecap="round" stroke-linejoin="round"/>
    <path d="M 156.23641967773438 77.22207641601562 C 212.54583740234375 104.2243881225586 169.06483459472656 102.27482604980469 188.7957000732422 98.62181854248047" stroke-width="3.0" fill="none" stroke="rgb(0, 0, 0)" stroke-opacity="1.0" stroke-linecap="round" stroke-linejoin="round"/>
    <path d="M 139.78298950195312 52.43544387817383 C 106.19667053222656 62.15679931640625 40.44365310668945 117.6046142578125 70.46151733398438 68.08450317382812" stroke-width="3.0" fill="none" stroke="rgb(0, 0, 0)" stroke-opacity="1.0" stroke-linecap="round" stroke-linejoin="round"/>
    <path d="M 155.6935577392578 78.35429382324219 C 74.19287109375 50.61598587036133 155.0546112060547 44.580955505371094 192.10162353515625 96.71629333496094" stroke-width="3.0" fill="none" stroke="rgb(0, 0, 0)" stroke-opacity="1.0" stroke-linecap="round" stroke-linejoin="round"/>
    <path d="M 82.91735076904297 79.25530242919922 C 123.0497055053711 96.50635528564453 112.53412628173828 86.43109893798828 124.85063934326172 150.00535583496094" stroke-width="3.0" fill="none" stroke="rgb(0, 0, 0)" stroke-opacity="1.0" stroke-linecap="round" stroke-linejoin="round"/>
    <path d="M 126.95769500732422 90.95466613769531 C 125.1381607055664 202.09669494628906 134.2371826171875 93.21874237060547 105.90222930908203 198.2857666015625" stroke-width="3.0" fill="none" stroke="rgb(0, 0, 0)" stroke-opacity="1.0" stroke-linecap="round" stroke-linejoin="round"/>
    <path d="M 130.89064025878906 47.046722412109375 C 139.31192016601562 54.128684997558594 79.53001403808594 29.96348762512207 77.01991271972656 83.68948364257812" stroke-width="3.0" fill="none" stroke="rgb(0, 0, 0)" stroke-opacity="1.0" stroke-linecap="round" stroke-linejoin="round"/>
    <path d="M 111.75836181640625 52.735965728759766 C 148.27113342285156 42.166412353515625 130.6766357421875 65.0593032836914 168.3513946533203 81.4168472290039" stroke-width="3.0" fill="none" stroke="rgb(0, 0, 0)" stroke-opacity="1.0" stroke-linecap="round" stroke-linejoin="round"/>
    <path d="M 157.08444213867188 82.5320053100586 C 137.18736267089844 75.81880950927734 205.54464721679688 112.5931625366211 152.22555541992188 63.5494499206543" stroke-width="3.0" fill="none" stroke="rgb(0, 0, 0)" stroke-opacity="1.0" stroke-linecap="round" stroke-linejoin="round"/>
    <path d="M 153.25338745117188 67.9818115234375 C 158.68299865722656 90.3749008178711 158.044677734375 73.24347686767578 147.3182373046875 74.79790496826172" stroke-width="3.0" fill="none" stroke="rgb(0, 0, 0)" stroke-opacity="1.0" stroke-linecap="round" stroke-linejoin="round"/>
    <path d="M 124.87199401855469 120.6384048461914 C 148.55137634277344 155.98037719726562 136.6995849609375 102.73638153076172 117.18653106689453 149.0072021484375" stroke-width="3.0" fill="none" stroke="rgb(0, 0, 0)" stroke-opacity="1.0" stroke-linecap="round" stroke-linejoin="round"/>
    <path d="M 141.0791778564453 77.3131332397461 C 177.26144409179688 91.73558044433594 138.33648681640625 57.7579231262207 153.33392333984375 66.0374526977539" stroke-width="3.0" fill="none" stroke="rgb(0, 0, 0)" stroke-opacity="1.0" stroke-linecap="round" stroke-linejoin="round"/>
    <path d="M 137.06944274902344 48.74981689453125 C 125.03327178955078 44.87382888793945 158.0522003173828 62.327613830566406 143.54566955566406 59.97638702392578" stroke-width="3.0" fill="none" stroke="rgb(0, 0, 0)" stroke-opacity="1.0" stroke-linecap="round" stroke-linejoin="round"/>
  </g>
</svg>
