<?xml version="1.0" ?>
<svg xmlns="http://www.w3.org/2000/svg" version="1.1" width="224" height="224">
  <defs/>
  <g>
    <path d="M 167.9788818359375 89.2054214477539 C 139.1951446533203 87.099609375 102.8415756225586 87.58320617675781 148.64524841308594 91.3470458984375" stroke-width="3.0" fill="none" stroke="rgb(0, 0, 0)" stroke-opacity="1.0" stroke-linecap="round" stroke-linejoin="round"/>
    <path d="M 179.3088836669922 95.35392761230469 C 169.5751953125 98.90457916259766 191.59873962402344 87.4538803100586 159.55075073242188 109.2271499633789" stroke-width="3.0" fill="none" stroke="rgb(0, 0, 0)" stroke-opacity="1.0" stroke-linecap="round" stroke-linejoin="round"/>
    <path d="M 43.94322967529297 43.17068099975586 C 18.961055755615234 74.86378479003906 85.23908996582031 131.12570190429688 77.61624145507812 69.58564758300781" stroke-width="3.0" fill="none" stroke="rgb(0, 0, 0)" stroke-opacity="1.0" stroke-linecap="round" stroke-linejoin="round"/>
    <path d="M 110.82611083984375 81.74568939208984 C 131.10182189941406 86.3490219116211 178.9600067138672 94.31719970703125 100.39624786376953 91.35157775878906" stroke-width="3.0" fill="none" stroke="rgb(0, 0, 0)" stroke-opacity="1.0" stroke-linecap="round" stroke-linejoin="round"/>
    <path d="M 163.36880493164062 87.1238784790039 C 207.5667266845703 103.4037857055664 171.1127471923828 96.92494201660156 184.81005859375 94.29460144042969" stroke-width="3.0" fill="none" stroke="rgb(0, 0, 0)" stroke-opacity="1.0" stroke-linecap="round" stroke-linejoin="round"/>
    <path d="M 149.1191864013672 68.1021728515625 C 118.5401611328125 77.64900207519531 56.53715896606445 98.61659240722656 88.85289764404297 57.74744415283203" stroke-width="3.0" fill="none" stroke="rgb(0, 0, 0)" stroke-opacity="1.0" stroke-linecap="round" stroke-linejoin="round"/>
    <path d="M 139.77474975585938 59.00673294067383 C 151.88075256347656 72.61129760742188 143.205810546875 42.228416442871094 190.53871154785156 94.14310455322266" stroke-width="3.0" fill="none" stroke="rgb(0, 0, 0)" stroke-opacity="1.0" stroke-linecap="round" stroke-linejoin="round"/>
    <path d="M 84.93328857421875 82.13059997558594 C 123.74028778076172 96.03485870361328 109.08721923828125 86.68290710449219 124.58284759521484 138.85191345214844" stroke-width="3.0" fill="none" stroke="rgb(0, 0, 0)" stroke-opacity="1.0" stroke-linecap="round" stroke-linejoin="round"/>
    <path d="M 136.5454864501953 118.38875579833984 C 119.85971069335938 173.1818389892578 131.51617431640625 100.06477355957031 106.56364440917969 206.8809814453125" stroke-width="3.0" fill="none" stroke="rgb(0, 0, 0)" stroke-opacity="1.0" stroke-linecap="round" stroke-linejoin="round"/>
    <path d="M 138.4690399169922 53.3514289855957 C 136.45834350585938 56.098846435546875 82.19783020019531 22.071426391601562 66.05071258544922 82.52516174316406" stroke-width="3.0" fill="none" stroke="rgb(0, 0, 0)" stroke-opacity="1.0" stroke-linecap="round" stroke-linejoin="round"/>
    <path d="M 104.83067321777344 81.0785903930664 C 145.6263427734375 60.7077522277832 114.35344696044922 74.9724349975586 174.467041015625 91.65377807617188" stroke-width="3.0" fill="none" stroke="rgb(0, 0, 0)" stroke-opacity="1.0" stroke-linecap="round" stroke-linejoin="round"/>
    <path d="M 181.20925903320312 85.60952758789062 C 146.22314453125 69.85408782958984 173.78985595703125 78.15519714355469 150.88206481933594 73.35001373291016" stroke-width="3.0" fill="none" stroke="rgb(0, 0, 0)" stroke-opacity="1.0" stroke-linecap="round" stroke-linejoin="round"/>
    <path d="M 143.85671997070312 60.891597747802734 C 143.00341796875 71.86347198486328 150.02264404296875 56.78590393066406 147.5405731201172 61.41508865356445" stroke-width="3.0" fill="none" stroke="rgb(0, 0, 0)" stroke-opacity="1.0" stroke-linecap="round" stroke-linejoin="round"/>
    <path d="M 125.17316436767578 135.53042602539062 C 131.41505432128906 143.40896606445312 126.36882019042969 113.20361328125 117.60913848876953 146.20469665527344" stroke-width="3.0" fill="none" stroke="rgb(0, 0, 0)" stroke-opacity="1.0" stroke-linecap="round" stroke-linejoin="round"/>
    <path d="M 143.04559326171875 61.99983215332031 C 162.93243408203125 63.94274139404297 130.59414672851562 52.9770622253418 151.0445556640625 69.73795318603516" stroke-width="3.0" fill="none" stroke="rgb(0, 0, 0)" stroke-opacity="1.0" stroke-linecap="round" stroke-linejoin="round"/>
    <path d="M 140.62417602539062 52.58576202392578 C 119.4435806274414 53.47948455810547 156.9008331298828 52.88312911987305 145.72921752929688 63.91486358642578" stroke-width="3.0" fill="none" stroke="rgb(0, 0, 0)" stroke-opacity="1.0" stroke-linecap="round" stroke-linejoin="round"/>
  </g>
</svg>
