<?xml version="1.0" ?>
<svg xmlns="http://www.w3.org/2000/svg" version="1.1" width="224" height="224">
  <defs/>
  <g>
    <path d="M 161.3416748046875 87.97600555419922 C 138.2628631591797 85.2158203125 99.91159057617188 87.50927734375 147.2000274658203 77.67875671386719" stroke-width="3.0" fill="none" stroke="rgb(0, 0, 0)" stroke-opacity="1.0" stroke-linecap="round" stroke-linejoin="round"/>
    <path d="M 179.12240600585938 92.80233764648438 C 164.78677368164062 97.39183044433594 189.2201690673828 89.53203582763672 163.44046020507812 108.96408081054688" stroke-width="3.0" fill="none" stroke="rgb(0, 0, 0)" stroke-opacity="1.0" stroke-linecap="round" stroke-linejoin="round"/>
    <path d="M 47.34254837036133 36.94051742553711 C 11.467890739440918 78.0750961303711 85.5433578491211 125.36442565917969 78.31893920898438 66.7222900390625" stroke-width="3.0" fill="none" stroke="rgb(0, 0, 0)" stroke-opacity="1.0" stroke-linecap="round" stroke-linejoin="round"/>
    <path d="M 111.5262451171875 79.63435363769531 C 135.28485107421875 80.96915435791016 180.1851806640625 92.39366912841797 100.04275512695312 87.84455871582031" stroke-width="3.0" fill="none" stroke="rgb(0, 0, 0)" stroke-opacity="1.0" stroke-linecap="round" stroke-linejoin="round"/>
    <path d="M 171.8766326904297 91.24470520019531 C 205.470703125 103.08233642578125 171.1778564453125 97.57601165771484 183.6218719482422 99.61012268066406" stroke-width="3.0" fill="none" stroke="rgb(0, 0, 0)" stroke-opacity="1.0" stroke-linecap="round" stroke-linejoin="round"/>
    <path d="M 151.0740203857422 66.0883560180664 C 115.34127807617188 76.45311737060547 47.17501449584961 97.91168975830078 94.1802749633789 53.74155044555664" stroke-width="3.0" fill="none" stroke="rgb(0, 0, 0)" stroke-opacity="1.0" stroke-linecap="round" stroke-linejoin="round"/>
    <path d="M 140.2194061279297 60.66230773925781 C 148.02503967285156 75.8159408569336 140.40887451171875 38.38799285888672 189.817138671875 95.03421020507812" stroke-width="3.0" fill="none" stroke="rgb(0, 0, 0)" stroke-opacity="1.0" stroke-linecap="round" stroke-linejoin="round"/>
    <path d="M 79.31429290771484 83.1613540649414 C 125.98524475097656 96.95105743408203 107.5642318725586 86.89765167236328 124.57298278808594 135.33120727539062" stroke-width="3.0" fill="none" stroke="rgb(0, 0, 0)" stroke-opacity="1.0" stroke-linecap="round" stroke-linejoin="round"/>
    <path d="M 134.91685485839844 117.9109878540039 C 120.3834228515625 169.29212951660156 133.3690643310547 103.71165466308594 103.7594223022461 204.07337951660156" stroke-width="3.0" fill="none" stroke="rgb(0, 0, 0)" stroke-opacity="1.0" stroke-linecap="round" stroke-linejoin="round"/>
    <path d="M 136.0181121826172 51.394405364990234 C 138.4714813232422 54.41690444946289 80.05803680419922 22.09855842590332 65.91064453125 82.31175994873047" stroke-width="3.0" fill="none" stroke="rgb(0, 0, 0)" stroke-opacity="1.0" stroke-linecap="round" stroke-linejoin="round"/>
    <path d="M 109.3035659790039 78.96277618408203 C 147.229736328125 62.870269775390625 114.32247924804688 76.927978515625 175.1593017578125 93.99966430664062" stroke-width="3.0" fill="none" stroke="rgb(0, 0, 0)" stroke-opacity="1.0" stroke-linecap="round" stroke-linejoin="round"/>
    <path d="M 177.969970703125 87.91155242919922 C 145.55494689941406 72.73039245605469 168.73678588867188 85.73028564453125 150.51290893554688 72.06256103515625" stroke-width="3.0" fill="none" stroke="rgb(0, 0, 0)" stroke-opacity="1.0" stroke-linecap="round" stroke-linejoin="round"/>
    <path d="M 144.3740692138672 61.04996109008789 C 143.46212768554688 71.96143341064453 151.02378845214844 57.265960693359375 147.2526092529297 60.91509246826172" stroke-width="3.0" fill="none" stroke="rgb(0, 0, 0)" stroke-opacity="1.0" stroke-linecap="round" stroke-linejoin="round"/>
    <path d="M 128.57676696777344 135.5631103515625 C 129.03106689453125 142.721435546875 125.11030578613281 110.4111328125 119.00830078125 141.81459045410156" stroke-width="3.0" fill="none" stroke="rgb(0, 0, 0)" stroke-opacity="1.0" stroke-linecap="round" stroke-linejoin="round"/>
    <path d="M 140.7296905517578 61.90824508666992 C 165.72328186035156 65.5223159790039 134.04202270507812 53.451412200927734 152.8936004638672 69.3520736694336" stroke-width="3.0" fill="none" stroke="rgb(0, 0, 0)" stroke-opacity="1.0" stroke-linecap="round" stroke-linejoin="round"/>
    <path d="M 138.2728729248047 51.194129943847656 C 123.3667984008789 54.83002471923828 156.9075164794922 53.75654983520508 145.7574005126953 64.6620864868164" stroke-width="3.0" fill="none" stroke="rgb(0, 0, 0)" stroke-opacity="1.0" stroke-linecap="round" stroke-linejoin="round"/>
  </g>
</svg>
