<?xml version="1.0" ?>
<svg xmlns="http://www.w3.org/2000/svg" version="1.1" width="224" height="224">
  <defs/>
  <g>
    <path d="M 131.82151794433594 88.34288787841797 C 131.29164123535156 85.17340087890625 130.3414306640625 84.91252136230469 126.91448211669922 81.67963409423828" stroke-width="3.0" fill="none" stroke="rgb(0, 0, 0)" stroke-opacity="1.0" stroke-linecap="round" stroke-linejoin="round"/>
    <path d="M 172.8478546142578 91.46704864501953 C 174.3303680419922 85.51888275146484 174.88746643066406 85.54881286621094 176.2982940673828 85.8843994140625" stroke-width="3.0" fill="none" stroke="rgb(0, 0, 0)" stroke-opacity="1.0" stroke-linecap="round" stroke-linejoin="round"/>
    <path d="M 86.2103500366211 74.00863647460938 C 85.15911102294922 82.84098052978516 90.14517974853516 82.80634307861328 93.29474639892578 91.56946563720703" stroke-width="3.0" fill="none" stroke="rgb(0, 0, 0)" stroke-opacity="1.0" stroke-linecap="round" stroke-linejoin="round"/>
    <path d="M 106.70004272460938 78.78778076171875 C 112.4356918334961 90.54010009765625 116.96800994873047 85.9626693725586 115.9144515991211 89.17330932617188" stroke-width="3.0" fill="none" stroke="rgb(0, 0, 0)" stroke-opacity="1.0" stroke-linecap="round" stroke-linejoin="round"/>
    <path d="M 169.17098999023438 75.53182220458984 C 168.69464111328125 72.53469848632812 165.99505615234375 69.98371124267578 173.6309356689453 80.21880340576172" stroke-width="3.0" fill="none" stroke="rgb(0, 0, 0)" stroke-opacity="1.0" stroke-linecap="round" stroke-linejoin="round"/>
    <path d="M 122.3927230834961 87.55958557128906 C 119.53141021728516 94.75276947021484 120.46297454833984 95.66111755371094 123.35419464111328 87.49341583251953" stroke-width="3.0" fill="none" stroke="rgb(0, 0, 0)" stroke-opacity="1.0" stroke-linecap="round" stroke-linejoin="round"/>
    <path d="M 148.01364135742188 65.90547180175781 C 153.03558349609375 71.03227233886719 156.8872528076172 69.15233612060547 146.1891632080078 70.49979400634766" stroke-width="3.0" fill="none" stroke="rgb(0, 0, 0)" stroke-opacity="1.0" stroke-linecap="round" stroke-linejoin="round"/>
    <path d="M 115.07320404052734 102.28791046142578 C 122.26007080078125 108.04729461669922 115.69762420654297 106.3386001586914 116.72480010986328 115.34862518310547" stroke-width="3.0" fill="none" stroke="rgb(0, 0, 0)" stroke-opacity="1.0" stroke-linecap="round" stroke-linejoin="round"/>
    <path d="M 111.18132019042969 155.26458740234375 C 113.55366516113281 165.47335815429688 115.42686462402344 164.03201293945312 112.24407958984375 171.81454467773438" stroke-width="3.0" fill="none" stroke="rgb(0, 0, 0)" stroke-opacity="1.0" stroke-linecap="round" stroke-linejoin="round"/>
    <path d="M 131.3392333984375 66.43811798095703 C 128.72317504882812 78.3661117553711 119.86738586425781 71.31867218017578 121.98334503173828 82.22675323486328" stroke-width="3.0" fill="none" stroke="rgb(0, 0, 0)" stroke-opacity="1.0" stroke-linecap="round" stroke-linejoin="round"/>
    <path d="M 135.4285430908203 98.74896240234375 C 135.9285430908203 93.32801818847656 134.72869873046875 97.73910522460938 141.0669403076172 94.67890167236328" stroke-width="3.0" fill="none" stroke="rgb(0, 0, 0)" stroke-opacity="1.0" stroke-linecap="round" stroke-linejoin="round"/>
    <path d="M 132.07630920410156 74.46430969238281 C 125.97660827636719 77.79682922363281 125.17513275146484 79.7877426147461 129.0181884765625 77.29895782470703" stroke-width="3.0" fill="none" stroke="rgb(0, 0, 0)" stroke-opacity="1.0" stroke-linecap="round" stroke-linejoin="round"/>
    <path d="M 129.10513305664062 83.76673889160156 C 131.87730407714844 84.05892181396484 129.7803192138672 75.71128845214844 129.42880249023438 80.84983825683594" stroke-width="3.0" fill="none" stroke="rgb(0, 0, 0)" stroke-opacity="1.0" stroke-linecap="round" stroke-linejoin="round"/>
    <path d="M 118.42765808105469 132.81947326660156 C 125.19720458984375 132.71351623535156 127.3676528930664 141.59042358398438 123.05018615722656 131.79391479492188" stroke-width="3.0" fill="none" stroke="rgb(0, 0, 0)" stroke-opacity="1.0" stroke-linecap="round" stroke-linejoin="round"/>
    <path d="M 136.17820739746094 43.838565826416016 C 134.6897430419922 44.68008041381836 140.6636505126953 47.137474060058594 144.3855743408203 52.04067611694336" stroke-width="3.0" fill="none" stroke="rgb(0, 0, 0)" stroke-opacity="1.0" stroke-linecap="round" stroke-linejoin="round"/>
    <path d="M 123.00007629394531 45.36085510253906 C 124.99797821044922 54.100704193115234 125.5760726928711 53.65447235107422 133.93048095703125 61.861083984375" stroke-width="3.0" fill="none" stroke="rgb(0, 0, 0)" stroke-opacity="1.0" stroke-linecap="round" stroke-linejoin="round"/>
  </g>
</svg>
