<?xml version="1.0" ?>
<svg xmlns="http://www.w3.org/2000/svg" version="1.1" width="224" height="224">
  <defs/>
  <g>
    <path d="M 172.67001342773438 90.05915069580078 C 136.21388244628906 77.46271514892578 104.7171401977539 90.27405548095703 146.61244201660156 81.41209411621094" stroke-width="3.0" fill="none" stroke="rgb(0, 0, 0)" stroke-opacity="1.0" stroke-linecap="round" stroke-linejoin="round"/>
    <path d="M 171.83944702148438 89.29959106445312 C 173.17906188964844 88.53009033203125 192.1331024169922 91.56224822998047 159.8932647705078 110.62567138671875" stroke-width="3.0" fill="none" stroke="rgb(0, 0, 0)" stroke-opacity="1.0" stroke-linecap="round" stroke-linejoin="round"/>
    <path d="M 47.97990417480469 43.1539192199707 C 12.301301002502441 58.63020706176758 81.03794860839844 135.45077514648438 88.80953216552734 72.14476013183594" stroke-width="3.0" fill="none" stroke="rgb(0, 0, 0)" stroke-opacity="1.0" stroke-linecap="round" stroke-linejoin="round"/>
    <path d="M 96.64904022216797 77.59883880615234 C 156.43048095703125 75.87456512451172 202.96424865722656 82.20661163330078 111.34809112548828 92.50151824951172" stroke-width="3.0" fill="none" stroke="rgb(0, 0, 0)" stroke-opacity="1.0" stroke-linecap="round" stroke-linejoin="round"/>
    <path d="M 162.24002075195312 83.78248596191406 C 213.9530029296875 105.86492156982422 167.01145935058594 100.72592163085938 182.0548095703125 95.0777359008789" stroke-width="3.0" fill="none" stroke="rgb(0, 0, 0)" stroke-opacity="1.0" stroke-linecap="round" stroke-linejoin="round"/>
    <path d="M 146.97409057617188 57.823909759521484 C 112.04830932617188 65.81971740722656 69.00005340576172 100.55091857910156 93.9803695678711 61.799964904785156" stroke-width="3.0" fill="none" stroke="rgb(0, 0, 0)" stroke-opacity="1.0" stroke-linecap="round" stroke-linejoin="round"/>
    <path d="M 151.23973083496094 65.60123443603516 C 131.425537109375 68.85902404785156 160.21395874023438 51.445011138916016 189.6121063232422 95.92192077636719" stroke-width="3.0" fill="none" stroke="rgb(0, 0, 0)" stroke-opacity="1.0" stroke-linecap="round" stroke-linejoin="round"/>
    <path d="M 86.02059936523438 87.61013793945312 C 121.14215087890625 99.24517822265625 115.90925598144531 76.86795043945312 124.483154296875 136.00399780273438" stroke-width="3.0" fill="none" stroke="rgb(0, 0, 0)" stroke-opacity="1.0" stroke-linecap="round" stroke-linejoin="round"/>
    <path d="M 142.1657257080078 107.9876708984375 C 115.00577545166016 178.95396423339844 133.80877685546875 101.75556945800781 105.06101989746094 204.77743530273438" stroke-width="3.0" fill="none" stroke="rgb(0, 0, 0)" stroke-opacity="1.0" stroke-linecap="round" stroke-linejoin="round"/>
    <path d="M 117.2899398803711 48.905059814453125 C 141.52784729003906 53.97522735595703 91.85260009765625 30.475326538085938 83.2002182006836 77.58212280273438" stroke-width="3.0" fill="none" stroke="rgb(0, 0, 0)" stroke-opacity="1.0" stroke-linecap="round" stroke-linejoin="round"/>
    <path d="M 103.48993682861328 65.07774353027344 C 158.32669067382812 52.72711944580078 132.1569061279297 58.896568298339844 173.2579803466797 85.1228256225586" stroke-width="3.0" fill="none" stroke="rgb(0, 0, 0)" stroke-opacity="1.0" stroke-linecap="round" stroke-linejoin="round"/>
    <path d="M 177.01132202148438 84.96900177001953 C 144.7607421875 67.09852600097656 173.0580291748047 81.60340881347656 141.53956604003906 80.83475494384766" stroke-width="3.0" fill="none" stroke="rgb(0, 0, 0)" stroke-opacity="1.0" stroke-linecap="round" stroke-linejoin="round"/>
    <path d="M 143.6830596923828 64.42041778564453 C 139.7543182373047 68.5403060913086 150.04156494140625 56.834228515625 147.3165283203125 61.593536376953125" stroke-width="3.0" fill="none" stroke="rgb(0, 0, 0)" stroke-opacity="1.0" stroke-linecap="round" stroke-linejoin="round"/>
    <path d="M 128.8589324951172 135.5787353515625 C 129.996337890625 145.76092529296875 131.51544189453125 108.97742462158203 117.32964324951172 142.5155792236328" stroke-width="3.0" fill="none" stroke="rgb(0, 0, 0)" stroke-opacity="1.0" stroke-linecap="round" stroke-linejoin="round"/>
    <path d="M 146.3263702392578 62.952232360839844 C 164.70602416992188 64.98291778564453 128.0948944091797 50.91923141479492 153.4752197265625 61.545135498046875" stroke-width="3.0" fill="none" stroke="rgb(0, 0, 0)" stroke-opacity="1.0" stroke-linecap="round" stroke-linejoin="round"/>
    <path d="M 137.95660400390625 59.975914001464844 C 116.14205932617188 53.780059814453125 152.87562561035156 62.19490432739258 145.69528198242188 63.958045959472656" stroke-width="3.0" fill="none" stroke="rgb(0, 0, 0)" stroke-opacity="1.0" stroke-linecap="round" stroke-linejoin="round"/>
  </g>
</svg>
