<?xml version="1.0" ?>
<svg xmlns="http://www.w3.org/2000/svg" version="1.1" width="224" height="224">
  <defs/>
  <g>
    <path d="M 183.79237365722656 94.10929870605469 C 148.56112670898438 77.0416488647461 62.6801872253418 92.7756118774414 141.44598388671875 67.90052795410156" stroke-width="3.0" fill="none" stroke="rgb(0, 0, 0)" stroke-opacity="1.0" stroke-linecap="round" stroke-linejoin="round"/>
    <path d="M 182.2621612548828 97.45899200439453 C 182.27110290527344 94.00499725341797 200.8567352294922 90.03970336914062 134.5607147216797 122.92832946777344" stroke-width="3.0" fill="none" stroke="rgb(0, 0, 0)" stroke-opacity="1.0" stroke-linecap="round" stroke-linejoin="round"/>
    <path d="M 54.1678581237793 40.577239990234375 C 2.214475393295288 32.29182815551758 65.13724517822266 127.38783264160156 70.1082534790039 65.46610260009766" stroke-width="3.0" fill="none" stroke="rgb(0, 0, 0)" stroke-opacity="1.0" stroke-linecap="round" stroke-linejoin="round"/>
    <path d="M 108.15137481689453 62.879676818847656 C 150.30575561523438 64.10034942626953 202.81153869628906 79.3233642578125 97.99015045166016 79.68795776367188" stroke-width="3.0" fill="none" stroke="rgb(0, 0, 0)" stroke-opacity="1.0" stroke-linecap="round" stroke-linejoin="round"/>
    <path d="M 154.99400329589844 76.37704467773438 C 210.58163452148438 102.3265609741211 166.53294372558594 98.67147064208984 190.07431030273438 99.7734603881836" stroke-width="3.0" fill="none" stroke="rgb(0, 0, 0)" stroke-opacity="1.0" stroke-linecap="round" stroke-linejoin="round"/>
    <path d="M 140.55581665039062 54.791744232177734 C 101.31476593017578 58.265655517578125 32.047508239746094 119.17634582519531 68.2818603515625 75.19374084472656" stroke-width="3.0" fill="none" stroke="rgb(0, 0, 0)" stroke-opacity="1.0" stroke-linecap="round" stroke-linejoin="round"/>
    <path d="M 155.2167510986328 72.77136993408203 C 68.96846771240234 59.018104553222656 154.5887451171875 42.16093063354492 192.33599853515625 97.80545806884766" stroke-width="3.0" fill="none" stroke="rgb(0, 0, 0)" stroke-opacity="1.0" stroke-linecap="round" stroke-linejoin="round"/>
    <path d="M 85.01573181152344 71.935546875 C 127.32202911376953 92.64405822753906 112.98339080810547 84.02787017822266 118.30021667480469 144.33401489257812" stroke-width="3.0" fill="none" stroke="rgb(0, 0, 0)" stroke-opacity="1.0" stroke-linecap="round" stroke-linejoin="round"/>
    <path d="M 130.0950927734375 87.84612274169922 C 112.79779052734375 202.96017456054688 130.45489501953125 97.88475799560547 103.36465454101562 205.94696044921875" stroke-width="3.0" fill="none" stroke="rgb(0, 0, 0)" stroke-opacity="1.0" stroke-linecap="round" stroke-linejoin="round"/>
    <path d="M 127.18927764892578 53.02819061279297 C 139.3192138671875 53.83710861206055 87.25344848632812 29.973140716552734 77.22936248779297 82.2638931274414" stroke-width="3.0" fill="none" stroke="rgb(0, 0, 0)" stroke-opacity="1.0" stroke-linecap="round" stroke-linejoin="round"/>
    <path d="M 108.34452056884766 52.45635223388672 C 145.33433532714844 40.85666275024414 133.25962829589844 61.51276779174805 170.92132568359375 84.17842864990234" stroke-width="3.0" fill="none" stroke="rgb(0, 0, 0)" stroke-opacity="1.0" stroke-linecap="round" stroke-linejoin="round"/>
    <path d="M 155.64891052246094 82.16204071044922 C 145.58531188964844 73.26451110839844 221.29530334472656 111.37007141113281 152.50869750976562 64.92525482177734" stroke-width="3.0" fill="none" stroke="rgb(0, 0, 0)" stroke-opacity="1.0" stroke-linecap="round" stroke-linejoin="round"/>
    <path d="M 158.2749786376953 71.44088745117188 C 168.92637634277344 92.82389831542969 158.23255920410156 81.04927825927734 142.9815216064453 76.44332122802734" stroke-width="3.0" fill="none" stroke="rgb(0, 0, 0)" stroke-opacity="1.0" stroke-linecap="round" stroke-linejoin="round"/>
    <path d="M 124.7494125366211 128.66592407226562 C 144.84059143066406 166.83872985839844 138.0424346923828 110.62604522705078 115.59296417236328 150.09307861328125" stroke-width="3.0" fill="none" stroke="rgb(0, 0, 0)" stroke-opacity="1.0" stroke-linecap="round" stroke-linejoin="round"/>
    <path d="M 138.90597534179688 79.48995971679688 C 180.61972045898438 95.03462982177734 137.52044677734375 61.30741882324219 150.48782348632812 65.62946319580078" stroke-width="3.0" fill="none" stroke="rgb(0, 0, 0)" stroke-opacity="1.0" stroke-linecap="round" stroke-linejoin="round"/>
    <path d="M 138.38526916503906 58.34358215332031 C 123.89266204833984 45.010501861572266 159.13841247558594 64.89125061035156 139.434326171875 57.28535842895508" stroke-width="3.0" fill="none" stroke="rgb(0, 0, 0)" stroke-opacity="1.0" stroke-linecap="round" stroke-linejoin="round"/>
  </g>
</svg>
