<?xml version="1.0" ?>
<svg xmlns="http://www.w3.org/2000/svg" version="1.1" width="224" height="224">
  <defs/>
  <g>
    <path d="M 186.1310272216797 97.13516998291016 C 151.80438232421875 81.0335922241211 55.98836135864258 93.30024719238281 133.88592529296875 74.73091125488281" stroke-width="3.0" fill="none" stroke="rgb(0, 0, 0)" stroke-opacity="1.0" stroke-linecap="round" stroke-linejoin="round"/>
    <path d="M 187.0350799560547 97.43175506591797 C 169.08030700683594 96.0946273803711 198.26751708984375 89.16522979736328 132.48208618164062 121.41632843017578" stroke-width="3.0" fill="none" stroke="rgb(0, 0, 0)" stroke-opacity="1.0" stroke-linecap="round" stroke-linejoin="round"/>
    <path d="M 59.84323501586914 41.103599548339844 C 8.049905776977539 35.80875015258789 67.42704772949219 129.4296112060547 69.79547119140625 63.49211502075195" stroke-width="3.0" fill="none" stroke="rgb(0, 0, 0)" stroke-opacity="1.0" stroke-linecap="round" stroke-linejoin="round"/>
    <path d="M 100.02452850341797 63.51106643676758 C 151.4309844970703 64.26213073730469 202.3712921142578 87.05818939208984 99.35798645019531 81.94918060302734" stroke-width="3.0" fill="none" stroke="rgb(0, 0, 0)" stroke-opacity="1.0" stroke-linecap="round" stroke-linejoin="round"/>
    <path d="M 149.25714111328125 79.3499755859375 C 209.6822967529297 104.15596771240234 171.061279296875 101.58837890625 188.7948760986328 94.16264343261719" stroke-width="3.0" fill="none" stroke="rgb(0, 0, 0)" stroke-opacity="1.0" stroke-linecap="round" stroke-linejoin="round"/>
    <path d="M 136.66244506835938 49.486392974853516 C 103.24816131591797 61.14595031738281 32.964012145996094 129.99838256835938 68.60816192626953 75.22815704345703" stroke-width="3.0" fill="none" stroke="rgb(0, 0, 0)" stroke-opacity="1.0" stroke-linecap="round" stroke-linejoin="round"/>
    <path d="M 155.2784881591797 77.1728744506836 C 62.544979095458984 56.59803009033203 155.8751678466797 42.02878952026367 190.80905151367188 94.22914123535156" stroke-width="3.0" fill="none" stroke="rgb(0, 0, 0)" stroke-opacity="1.0" stroke-linecap="round" stroke-linejoin="round"/>
    <path d="M 82.2804946899414 75.14408111572266 C 123.89566802978516 95.41667175292969 113.43913269042969 85.90483093261719 119.30567932128906 145.7557373046875" stroke-width="3.0" fill="none" stroke="rgb(0, 0, 0)" stroke-opacity="1.0" stroke-linecap="round" stroke-linejoin="round"/>
    <path d="M 129.73365783691406 87.93252563476562 C 112.29044342041016 210.9939727783203 125.57443237304688 101.08700561523438 103.00792694091797 205.5274200439453" stroke-width="3.0" fill="none" stroke="rgb(0, 0, 0)" stroke-opacity="1.0" stroke-linecap="round" stroke-linejoin="round"/>
    <path d="M 132.7426300048828 49.086402893066406 C 140.09213256835938 50.952266693115234 80.16154479980469 26.757930755615234 77.62936401367188 82.52532958984375" stroke-width="3.0" fill="none" stroke="rgb(0, 0, 0)" stroke-opacity="1.0" stroke-linecap="round" stroke-linejoin="round"/>
    <path d="M 101.37255859375 51.83317184448242 C 144.80259704589844 37.74827194213867 139.2320556640625 58.21561050415039 168.9856414794922 85.503662109375" stroke-width="3.0" fill="none" stroke="rgb(0, 0, 0)" stroke-opacity="1.0" stroke-linecap="round" stroke-linejoin="round"/>
    <path d="M 157.82952880859375 75.203857421875 C 147.3359832763672 63.091121673583984 219.1037139892578 106.22208404541016 147.19573974609375 64.29545593261719" stroke-width="3.0" fill="none" stroke="rgb(0, 0, 0)" stroke-opacity="1.0" stroke-linecap="round" stroke-linejoin="round"/>
    <path d="M 155.19175720214844 77.67168426513672 C 162.23252868652344 98.07916259765625 154.92849731445312 79.37288665771484 146.48524475097656 59.15788650512695" stroke-width="3.0" fill="none" stroke="rgb(0, 0, 0)" stroke-opacity="1.0" stroke-linecap="round" stroke-linejoin="round"/>
    <path d="M 123.64759063720703 125.10314178466797 C 140.28466796875 171.17947387695312 137.43594360351562 117.01203155517578 114.89678955078125 148.6831512451172" stroke-width="3.0" fill="none" stroke="rgb(0, 0, 0)" stroke-opacity="1.0" stroke-linecap="round" stroke-linejoin="round"/>
    <path d="M 141.71714782714844 65.74897003173828 C 188.86497497558594 90.11109924316406 145.49717712402344 57.41646194458008 153.39208984375 65.9955825805664" stroke-width="3.0" fill="none" stroke="rgb(0, 0, 0)" stroke-opacity="1.0" stroke-linecap="round" stroke-linejoin="round"/>
    <path d="M 141.6580047607422 65.19266510009766 C 114.97351837158203 46.1598014831543 150.69578552246094 67.843017578125 133.21511840820312 58.756038665771484" stroke-width="3.0" fill="none" stroke="rgb(0, 0, 0)" stroke-opacity="1.0" stroke-linecap="round" stroke-linejoin="round"/>
  </g>
</svg>
