<?xml version="1.0" ?>
<svg xmlns="http://www.w3.org/2000/svg" version="1.1" width="224" height="224">
  <defs/>
  <g>
    <path d="M 177.56866455078125 92.6972427368164 C 166.003173828125 83.66334533691406 48.20254898071289 106.11505889892578 132.9685821533203 85.41349792480469" stroke-width="3.0" fill="none" stroke="rgb(0, 0, 0)" stroke-opacity="1.0" stroke-linecap="round" stroke-linejoin="round"/>
    <path d="M 190.52447509765625 98.82328796386719 C 177.2318572998047 91.87769317626953 204.2467803955078 89.56009674072266 133.9936981201172 120.94709777832031" stroke-width="3.0" fill="none" stroke="rgb(0, 0, 0)" stroke-opacity="1.0" stroke-linecap="round" stroke-linejoin="round"/>
    <path d="M 54.63005828857422 45.089263916015625 C 4.034551620483398 37.311614990234375 62.97477722167969 129.3436279296875 81.22935485839844 68.01184844970703" stroke-width="3.0" fill="none" stroke="rgb(0, 0, 0)" stroke-opacity="1.0" stroke-linecap="round" stroke-linejoin="round"/>
    <path d="M 92.40463256835938 65.19310760498047 C 150.5042724609375 60.18052673339844 198.41708374023438 95.26148223876953 96.74048614501953 81.29349517822266" stroke-width="3.0" fill="none" stroke="rgb(0, 0, 0)" stroke-opacity="1.0" stroke-linecap="round" stroke-linejoin="round"/>
    <path d="M 141.8445587158203 69.2557373046875 C 208.0775146484375 98.01012420654297 166.4652099609375 105.00602722167969 180.6105499267578 93.28927612304688" stroke-width="3.0" fill="none" stroke="rgb(0, 0, 0)" stroke-opacity="1.0" stroke-linecap="round" stroke-linejoin="round"/>
    <path d="M 105.20756530761719 51.39417266845703 C 98.94074249267578 53.68380355834961 39.38744354248047 145.0576629638672 75.33065795898438 88.88973236083984" stroke-width="3.0" fill="none" stroke="rgb(0, 0, 0)" stroke-opacity="1.0" stroke-linecap="round" stroke-linejoin="round"/>
    <path d="M 145.2521209716797 81.12035369873047 C 12.608850479125977 68.1962661743164 154.15272521972656 27.511266708374023 191.51634216308594 96.87216186523438" stroke-width="3.0" fill="none" stroke="rgb(0, 0, 0)" stroke-opacity="1.0" stroke-linecap="round" stroke-linejoin="round"/>
    <path d="M 83.82201385498047 84.16828918457031 C 119.5445785522461 109.85564422607422 116.98726654052734 67.69007110595703 117.256103515625 145.0160675048828" stroke-width="3.0" fill="none" stroke="rgb(0, 0, 0)" stroke-opacity="1.0" stroke-linecap="round" stroke-linejoin="round"/>
    <path d="M 130.97972106933594 93.81402587890625 C 115.0182876586914 208.1855010986328 126.9358139038086 97.1029052734375 106.09645080566406 206.63693237304688" stroke-width="3.0" fill="none" stroke="rgb(0, 0, 0)" stroke-opacity="1.0" stroke-linecap="round" stroke-linejoin="round"/>
    <path d="M 150.49156188964844 55.59894943237305 C 134.98777770996094 46.199981689453125 79.75889587402344 18.309799194335938 81.47581481933594 84.6080551147461" stroke-width="3.0" fill="none" stroke="rgb(0, 0, 0)" stroke-opacity="1.0" stroke-linecap="round" stroke-linejoin="round"/>
    <path d="M 94.34282684326172 59.220218658447266 C 131.27537536621094 31.46526336669922 140.50013732910156 55.10207748413086 173.2881317138672 84.52593231201172" stroke-width="3.0" fill="none" stroke="rgb(0, 0, 0)" stroke-opacity="1.0" stroke-linecap="round" stroke-linejoin="round"/>
    <path d="M 153.30203247070312 81.00746154785156 C 150.62501525878906 82.63307189941406 238.7755584716797 122.00106048583984 139.2955780029297 58.283817291259766" stroke-width="3.0" fill="none" stroke="rgb(0, 0, 0)" stroke-opacity="1.0" stroke-linecap="round" stroke-linejoin="round"/>
    <path d="M 146.32034301757812 80.9483871459961 C 176.98648071289062 105.46443176269531 174.58999633789062 70.2186050415039 137.61917114257812 68.17053985595703" stroke-width="3.0" fill="none" stroke="rgb(0, 0, 0)" stroke-opacity="1.0" stroke-linecap="round" stroke-linejoin="round"/>
    <path d="M 125.10054779052734 118.84651947021484 C 151.9021453857422 147.8241424560547 139.02255249023438 100.58760070800781 111.76573944091797 148.4334716796875" stroke-width="3.0" fill="none" stroke="rgb(0, 0, 0)" stroke-opacity="1.0" stroke-linecap="round" stroke-linejoin="round"/>
    <path d="M 119.8125991821289 72.29312133789062 C 185.0034637451172 104.07328796386719 157.0209197998047 51.61338424682617 154.61151123046875 65.53667449951172" stroke-width="3.0" fill="none" stroke="rgb(0, 0, 0)" stroke-opacity="1.0" stroke-linecap="round" stroke-linejoin="round"/>
    <path d="M 140.85061645507812 67.5875473022461 C 94.42474365234375 46.47029495239258 167.32254028320312 69.84326171875 130.9044647216797 53.01953125" stroke-width="3.0" fill="none" stroke="rgb(0, 0, 0)" stroke-opacity="1.0" stroke-linecap="round" stroke-linejoin="round"/>
  </g>
</svg>
