<?xml version="1.0" ?>
<svg xmlns="http://www.w3.org/2000/svg" version="1.1" width="224" height="224">
  <defs/>
  <g>
    <path d="M 173.89405822753906 95.86408233642578 C 161.12274169921875 83.24799346923828 27.493467330932617 92.96219635009766 117.06640625 73.31903076171875" stroke-width="3.0" fill="none" stroke="rgb(0, 0, 0)" stroke-opacity="1.0" stroke-linecap="round" stroke-linejoin="round"/>
    <path d="M 178.8816680908203 98.25737762451172 C 178.33164978027344 107.16574096679688 205.34812927246094 88.96735382080078 127.4442138671875 121.21344757080078" stroke-width="3.0" fill="none" stroke="rgb(0, 0, 0)" stroke-opacity="1.0" stroke-linecap="round" stroke-linejoin="round"/>
    <path d="M 57.59938430786133 39.21139144897461 C 3.541276216506958 20.95079231262207 68.27113342285156 132.31719970703125 85.2105712890625 59.497467041015625" stroke-width="3.0" fill="none" stroke="rgb(0, 0, 0)" stroke-opacity="1.0" stroke-linecap="round" stroke-linejoin="round"/>
    <path d="M 95.15416717529297 61.37543869018555 C 154.81895446777344 64.64681243896484 207.2415771484375 107.76585388183594 109.16707611083984 74.65840911865234" stroke-width="3.0" fill="none" stroke="rgb(0, 0, 0)" stroke-opacity="1.0" stroke-linecap="round" stroke-linejoin="round"/>
    <path d="M 123.17459869384766 74.03988647460938 C 207.61553955078125 98.7098159790039 175.63247680664062 86.94960021972656 179.06666564941406 91.3752212524414" stroke-width="3.0" fill="none" stroke="rgb(0, 0, 0)" stroke-opacity="1.0" stroke-linecap="round" stroke-linejoin="round"/>
    <path d="M 100.86841583251953 52.14091873168945 C 116.47685241699219 65.37689208984375 43.152740478515625 139.38385009765625 77.59733581542969 101.8436508178711" stroke-width="3.0" fill="none" stroke="rgb(0, 0, 0)" stroke-opacity="1.0" stroke-linecap="round" stroke-linejoin="round"/>
    <path d="M 151.24609375 78.47628784179688 C 5.753740310668945 55.63777542114258 155.13429260253906 22.497106552124023 186.51931762695312 95.30717468261719" stroke-width="3.0" fill="none" stroke="rgb(0, 0, 0)" stroke-opacity="1.0" stroke-linecap="round" stroke-linejoin="round"/>
    <path d="M 92.40361022949219 68.26400756835938 C 108.082763671875 110.39810180664062 111.44447326660156 64.07537841796875 119.38066101074219 144.10826110839844" stroke-width="3.0" fill="none" stroke="rgb(0, 0, 0)" stroke-opacity="1.0" stroke-linecap="round" stroke-linejoin="round"/>
    <path d="M 124.69664001464844 89.2396011352539 C 114.5542221069336 202.2568359375 122.97952270507812 91.72042846679688 103.61273193359375 206.9954833984375" stroke-width="3.0" fill="none" stroke="rgb(0, 0, 0)" stroke-opacity="1.0" stroke-linecap="round" stroke-linejoin="round"/>
    <path d="M 154.83998107910156 62.61716079711914 C 134.9158935546875 46.405975341796875 102.30413055419922 19.800724029541016 78.9632568359375 81.99479675292969" stroke-width="3.0" fill="none" stroke="rgb(0, 0, 0)" stroke-opacity="1.0" stroke-linecap="round" stroke-linejoin="round"/>
    <path d="M 93.30982971191406 62.93972396850586 C 133.72581481933594 25.110395431518555 137.80377197265625 53.464393615722656 172.62924194335938 85.25050354003906" stroke-width="3.0" fill="none" stroke="rgb(0, 0, 0)" stroke-opacity="1.0" stroke-linecap="round" stroke-linejoin="round"/>
    <path d="M 156.51222229003906 70.53060913085938 C 159.218017578125 93.560302734375 250.2528076171875 124.3130111694336 137.89044189453125 60.489646911621094" stroke-width="3.0" fill="none" stroke="rgb(0, 0, 0)" stroke-opacity="1.0" stroke-linecap="round" stroke-linejoin="round"/>
    <path d="M 158.83700561523438 72.16105651855469 C 194.3250274658203 99.41925811767578 166.75823974609375 88.4312973022461 120.47825622558594 58.81239700317383" stroke-width="3.0" fill="none" stroke="rgb(0, 0, 0)" stroke-opacity="1.0" stroke-linecap="round" stroke-linejoin="round"/>
    <path d="M 121.87535858154297 122.72526550292969 C 140.36659240722656 149.76673889160156 134.9667205810547 104.28591918945312 112.31444549560547 149.19198608398438" stroke-width="3.0" fill="none" stroke="rgb(0, 0, 0)" stroke-opacity="1.0" stroke-linecap="round" stroke-linejoin="round"/>
    <path d="M 104.82528686523438 81.53203582763672 C 190.77969360351562 113.32015991210938 151.78659057617188 57.201026916503906 141.9980010986328 71.6392593383789" stroke-width="3.0" fill="none" stroke="rgb(0, 0, 0)" stroke-opacity="1.0" stroke-linecap="round" stroke-linejoin="round"/>
    <path d="M 141.74520874023438 82.36100006103516 C 46.888877868652344 34.40500259399414 158.33815002441406 63.6649055480957 124.36456298828125 49.89738845825195" stroke-width="3.0" fill="none" stroke="rgb(0, 0, 0)" stroke-opacity="1.0" stroke-linecap="round" stroke-linejoin="round"/>
  </g>
</svg>
