<?xml version="1.0" ?>
<svg xmlns="http://www.w3.org/2000/svg" version="1.1" width="224" height="224">
  <defs/>
  <g>
    <path d="M 181.01345825195312 94.76343536376953 C 142.99205017089844 73.27567291259766 53.42226028442383 101.22782135009766 139.77828979492188 74.7655029296875" stroke-width="3.0" fill="none" stroke="rgb(0, 0, 0)" stroke-opacity="1.0" stroke-linecap="round" stroke-linejoin="round"/>
    <path d="M 183.2584686279297 98.0200424194336 C 181.09657287597656 92.3505630493164 200.41831970214844 89.46189880371094 131.69500732421875 117.95562744140625" stroke-width="3.0" fill="none" stroke="rgb(0, 0, 0)" stroke-opacity="1.0" stroke-linecap="round" stroke-linejoin="round"/>
    <path d="M 54.67991638183594 42.02156066894531 C 7.564503192901611 36.82310104370117 63.76148223876953 126.85489654541016 69.66688537597656 63.3132438659668" stroke-width="3.0" fill="none" stroke="rgb(0, 0, 0)" stroke-opacity="1.0" stroke-linecap="round" stroke-linejoin="round"/>
    <path d="M 108.16581726074219 63.41289138793945 C 154.9295654296875 61.834266662597656 207.25978088378906 79.0407943725586 98.36442565917969 81.53816223144531" stroke-width="3.0" fill="none" stroke="rgb(0, 0, 0)" stroke-opacity="1.0" stroke-linecap="round" stroke-linejoin="round"/>
    <path d="M 154.7783203125 78.00617980957031 C 210.85379028320312 105.18199920654297 167.93820190429688 101.6805419921875 190.8419189453125 97.8116226196289" stroke-width="3.0" fill="none" stroke="rgb(0, 0, 0)" stroke-opacity="1.0" stroke-linecap="round" stroke-linejoin="round"/>
    <path d="M 141.84353637695312 52.236995697021484 C 104.82394409179688 61.92493438720703 33.695709228515625 118.07168579101562 69.54490661621094 72.1624755859375" stroke-width="3.0" fill="none" stroke="rgb(0, 0, 0)" stroke-opacity="1.0" stroke-linecap="round" stroke-linejoin="round"/>
    <path d="M 155.6954345703125 76.8279800415039 C 73.71802520751953 56.299495697021484 160.38087463378906 41.12903594970703 190.90402221679688 95.52867126464844" stroke-width="3.0" fill="none" stroke="rgb(0, 0, 0)" stroke-opacity="1.0" stroke-linecap="round" stroke-linejoin="round"/>
    <path d="M 85.99276733398438 73.55610656738281 C 128.03189086914062 91.54988098144531 114.49009704589844 81.99574279785156 124.54792785644531 145.74754333496094" stroke-width="3.0" fill="none" stroke="rgb(0, 0, 0)" stroke-opacity="1.0" stroke-linecap="round" stroke-linejoin="round"/>
    <path d="M 130.502197265625 89.20183563232422 C 117.67755889892578 200.39991760253906 131.5286407470703 94.44772338867188 104.55875396728516 205.40818786621094" stroke-width="3.0" fill="none" stroke="rgb(0, 0, 0)" stroke-opacity="1.0" stroke-linecap="round" stroke-linejoin="round"/>
    <path d="M 130.4842987060547 48.36913299560547 C 136.54464721679688 52.692298889160156 80.96221160888672 27.089311599731445 76.73660278320312 80.84950256347656" stroke-width="3.0" fill="none" stroke="rgb(0, 0, 0)" stroke-opacity="1.0" stroke-linecap="round" stroke-linejoin="round"/>
    <path d="M 114.49638366699219 53.8412971496582 C 144.1505889892578 43.253501892089844 131.02481079101562 64.6351318359375 168.70852661132812 83.30506134033203" stroke-width="3.0" fill="none" stroke="rgb(0, 0, 0)" stroke-opacity="1.0" stroke-linecap="round" stroke-linejoin="round"/>
    <path d="M 155.04666137695312 82.01393127441406 C 143.86709594726562 71.3122329711914 217.51695251464844 109.58209228515625 153.70748901367188 63.66958236694336" stroke-width="3.0" fill="none" stroke="rgb(0, 0, 0)" stroke-opacity="1.0" stroke-linecap="round" stroke-linejoin="round"/>
    <path d="M 159.7742462158203 66.10111236572266 C 164.92678833007812 88.91105651855469 158.98757934570312 74.71641540527344 142.2770538330078 73.13958740234375" stroke-width="3.0" fill="none" stroke="rgb(0, 0, 0)" stroke-opacity="1.0" stroke-linecap="round" stroke-linejoin="round"/>
    <path d="M 127.76435852050781 124.00153350830078 C 147.83456420898438 157.20704650878906 136.47230529785156 103.42449951171875 116.62018585205078 147.7792510986328" stroke-width="3.0" fill="none" stroke="rgb(0, 0, 0)" stroke-opacity="1.0" stroke-linecap="round" stroke-linejoin="round"/>
    <path d="M 136.69606018066406 79.09363555908203 C 177.04954528808594 96.21527099609375 141.4110107421875 57.68278503417969 153.68405151367188 66.58010864257812" stroke-width="3.0" fill="none" stroke="rgb(0, 0, 0)" stroke-opacity="1.0" stroke-linecap="round" stroke-linejoin="round"/>
    <path d="M 137.38601684570312 51.413475036621094 C 121.50318145751953 47.878204345703125 155.51065063476562 66.83795928955078 142.68951416015625 55.07197952270508" stroke-width="3.0" fill="none" stroke="rgb(0, 0, 0)" stroke-opacity="1.0" stroke-linecap="round" stroke-linejoin="round"/>
  </g>
</svg>
