<?xml version="1.0" ?>
<svg xmlns="http://www.w3.org/2000/svg" version="1.1" width="224" height="224">
  <defs/>
  <g>
    <path d="M 170.87832641601562 94.01380920410156 C 126.82920837402344 87.42534637451172 52.97553634643555 107.1417007446289 142.49282836914062 73.04328918457031" stroke-width="3.0" fill="none" stroke="rgb(0, 0, 0)" stroke-opacity="1.0" stroke-linecap="round" stroke-linejoin="round"/>
    <path d="M 182.64756774902344 96.00712585449219 C 175.1083526611328 98.9009017944336 193.3102569580078 90.76385498046875 153.91595458984375 111.83380889892578" stroke-width="3.0" fill="none" stroke="rgb(0, 0, 0)" stroke-opacity="1.0" stroke-linecap="round" stroke-linejoin="round"/>
    <path d="M 43.375457763671875 39.449981689453125 C 12.177202224731445 46.4190673828125 77.5670166015625 134.16099548339844 78.21697998046875 67.28873443603516" stroke-width="3.0" fill="none" stroke="rgb(0, 0, 0)" stroke-opacity="1.0" stroke-linecap="round" stroke-linejoin="round"/>
    <path d="M 103.36521911621094 74.72021484375 C 147.0690460205078 70.66065979003906 194.50784301757812 79.20709228515625 97.34046173095703 92.17820739746094" stroke-width="3.0" fill="none" stroke="rgb(0, 0, 0)" stroke-opacity="1.0" stroke-linecap="round" stroke-linejoin="round"/>
    <path d="M 158.09742736816406 79.91888427734375 C 216.9429168701172 110.05462646484375 171.67076110839844 95.07772064208984 182.7108154296875 96.55760955810547" stroke-width="3.0" fill="none" stroke="rgb(0, 0, 0)" stroke-opacity="1.0" stroke-linecap="round" stroke-linejoin="round"/>
    <path d="M 145.80348205566406 61.192440032958984 C 109.37039184570312 69.23208618164062 53.91188430786133 111.69845581054688 85.75535583496094 62.66439437866211" stroke-width="3.0" fill="none" stroke="rgb(0, 0, 0)" stroke-opacity="1.0" stroke-linecap="round" stroke-linejoin="round"/>
    <path d="M 163.1269989013672 70.45368957519531 C 116.34858703613281 57.12277603149414 160.4116973876953 54.06332015991211 190.65916442871094 94.73829650878906" stroke-width="3.0" fill="none" stroke="rgb(0, 0, 0)" stroke-opacity="1.0" stroke-linecap="round" stroke-linejoin="round"/>
    <path d="M 78.58660888671875 88.50065612792969 C 124.30731201171875 96.3542709350586 116.80484008789062 82.2168960571289 124.79139709472656 139.118896484375" stroke-width="3.0" fill="none" stroke="rgb(0, 0, 0)" stroke-opacity="1.0" stroke-linecap="round" stroke-linejoin="round"/>
    <path d="M 131.5708465576172 93.52364349365234 C 122.24642944335938 192.85189819335938 132.205810546875 83.26409912109375 104.02031707763672 204.81201171875" stroke-width="3.0" fill="none" stroke="rgb(0, 0, 0)" stroke-opacity="1.0" stroke-linecap="round" stroke-linejoin="round"/>
    <path d="M 128.05276489257812 49.662288665771484 C 134.25624084472656 58.008026123046875 78.33219146728516 27.14227867126465 67.83335876464844 83.19619750976562" stroke-width="3.0" fill="none" stroke="rgb(0, 0, 0)" stroke-opacity="1.0" stroke-linecap="round" stroke-linejoin="round"/>
    <path d="M 114.94681549072266 51.86569595336914 C 157.68771362304688 46.221187591552734 130.2310333251953 66.54094696044922 175.26817321777344 83.07345581054688" stroke-width="3.0" fill="none" stroke="rgb(0, 0, 0)" stroke-opacity="1.0" stroke-linecap="round" stroke-linejoin="round"/>
    <path d="M 180.3485870361328 88.07684326171875 C 157.7576141357422 75.28840637207031 212.07498168945312 102.11591339111328 144.85391235351562 79.29761505126953" stroke-width="3.0" fill="none" stroke="rgb(0, 0, 0)" stroke-opacity="1.0" stroke-linecap="round" stroke-linejoin="round"/>
    <path d="M 146.51905822753906 63.4710578918457 C 143.20143127441406 74.58857727050781 153.20925903320312 61.79875564575195 145.80491638183594 67.27813720703125" stroke-width="3.0" fill="none" stroke="rgb(0, 0, 0)" stroke-opacity="1.0" stroke-linecap="round" stroke-linejoin="round"/>
    <path d="M 128.76974487304688 116.8773422241211 C 147.4811248779297 150.1683807373047 141.7779083251953 101.1373291015625 117.06367492675781 143.20457458496094" stroke-width="3.0" fill="none" stroke="rgb(0, 0, 0)" stroke-opacity="1.0" stroke-linecap="round" stroke-linejoin="round"/>
    <path d="M 145.4151153564453 66.20469665527344 C 164.7118377685547 65.97216796875 130.7416229248047 46.788299560546875 145.51649475097656 63.09516525268555" stroke-width="3.0" fill="none" stroke="rgb(0, 0, 0)" stroke-opacity="1.0" stroke-linecap="round" stroke-linejoin="round"/>
    <path d="M 145.33255004882812 58.81574630737305 C 123.80255889892578 52.392635345458984 152.0102996826172 60.60404968261719 144.3276824951172 61.00791931152344" stroke-width="3.0" fill="none" stroke="rgb(0, 0, 0)" stroke-opacity="1.0" stroke-linecap="round" stroke-linejoin="round"/>
  </g>
</svg>
