<?xml version="1.0" ?>
<svg xmlns="http://www.w3.org/2000/svg" version="1.1" width="224" height="224">
  <defs/>
  <g>
    <path d="M 182.8834686279297 91.91970825195312 C 130.1046600341797 74.79150390625 44.61873245239258 111.71671295166016 139.16619873046875 70.22115325927734" stroke-width="3.0" fill="none" stroke="rgb(0, 0, 0)" stroke-opacity="1.0" stroke-linecap="round" stroke-linejoin="round"/>
    <path d="M 187.1072540283203 98.19784545898438 C 176.52780151367188 92.61898040771484 199.1454620361328 90.54885864257812 130.2625274658203 120.0174331665039" stroke-width="3.0" fill="none" stroke="rgb(0, 0, 0)" stroke-opacity="1.0" stroke-linecap="round" stroke-linejoin="round"/>
    <path d="M 54.641815185546875 35.196224212646484 C 7.075516700744629 33.327392578125 65.30704498291016 120.68464660644531 72.3696517944336 61.61850357055664" stroke-width="3.0" fill="none" stroke="rgb(0, 0, 0)" stroke-opacity="1.0" stroke-linecap="round" stroke-linejoin="round"/>
    <path d="M 111.64791870117188 61.13767623901367 C 167.8326416015625 65.87376403808594 220.02883911132812 82.28588104248047 88.47891998291016 86.77418518066406" stroke-width="3.0" fill="none" stroke="rgb(0, 0, 0)" stroke-opacity="1.0" stroke-linecap="round" stroke-linejoin="round"/>
    <path d="M 153.8897705078125 75.49876403808594 C 218.76129150390625 104.17240142822266 178.3367156982422 98.27607727050781 189.8978271484375 96.98303985595703" stroke-width="3.0" fill="none" stroke="rgb(0, 0, 0)" stroke-opacity="1.0" stroke-linecap="round" stroke-linejoin="round"/>
    <path d="M 137.92068481445312 55.018829345703125 C 109.47539520263672 58.47175598144531 50.58146667480469 106.01982879638672 75.50723266601562 60.9106559753418" stroke-width="3.0" fill="none" stroke="rgb(0, 0, 0)" stroke-opacity="1.0" stroke-linecap="round" stroke-linejoin="round"/>
    <path d="M 156.24911499023438 82.35523986816406 C 85.50749206542969 53.740360260009766 160.73855590820312 45.58357620239258 188.40150451660156 95.35210418701172" stroke-width="3.0" fill="none" stroke="rgb(0, 0, 0)" stroke-opacity="1.0" stroke-linecap="round" stroke-linejoin="round"/>
    <path d="M 81.03337860107422 84.74472045898438 C 123.72463989257812 96.33709716796875 108.94586181640625 88.68323516845703 120.01998901367188 142.5057830810547" stroke-width="3.0" fill="none" stroke="rgb(0, 0, 0)" stroke-opacity="1.0" stroke-linecap="round" stroke-linejoin="round"/>
    <path d="M 125.59176635742188 91.24097442626953 C 120.20549774169922 199.52743530273438 129.47146606445312 88.0352783203125 104.758056640625 204.63156127929688" stroke-width="3.0" fill="none" stroke="rgb(0, 0, 0)" stroke-opacity="1.0" stroke-linecap="round" stroke-linejoin="round"/>
    <path d="M 127.59840393066406 45.58650207519531 C 135.02310180664062 53.196617126464844 73.34407043457031 26.09104347229004 75.64779663085938 82.26847839355469" stroke-width="3.0" fill="none" stroke="rgb(0, 0, 0)" stroke-opacity="1.0" stroke-linecap="round" stroke-linejoin="round"/>
    <path d="M 107.93093872070312 53.31205368041992 C 150.5041046142578 42.405540466308594 133.77976989746094 62.52736282348633 170.74163818359375 81.09956359863281" stroke-width="3.0" fill="none" stroke="rgb(0, 0, 0)" stroke-opacity="1.0" stroke-linecap="round" stroke-linejoin="round"/>
    <path d="M 160.0050048828125 83.34713745117188 C 136.72958374023438 67.76676940917969 202.8011016845703 102.24365997314453 149.39358520507812 66.21558380126953" stroke-width="3.0" fill="none" stroke="rgb(0, 0, 0)" stroke-opacity="1.0" stroke-linecap="round" stroke-linejoin="round"/>
    <path d="M 154.3246307373047 65.68803405761719 C 153.84169006347656 81.3840560913086 155.29202270507812 73.43346405029297 140.66822814941406 76.79837799072266" stroke-width="3.0" fill="none" stroke="rgb(0, 0, 0)" stroke-opacity="1.0" stroke-linecap="round" stroke-linejoin="round"/>
    <path d="M 123.1337661743164 122.7172622680664 C 148.6799774169922 157.0906982421875 132.43775939941406 109.7072525024414 114.69192504882812 147.02493286132812" stroke-width="3.0" fill="none" stroke="rgb(0, 0, 0)" stroke-opacity="1.0" stroke-linecap="round" stroke-linejoin="round"/>
    <path d="M 143.3512420654297 76.86819458007812 C 179.48593139648438 83.09783172607422 141.9876708984375 54.77919387817383 155.54466247558594 66.6920166015625" stroke-width="3.0" fill="none" stroke="rgb(0, 0, 0)" stroke-opacity="1.0" stroke-linecap="round" stroke-linejoin="round"/>
    <path d="M 137.29837036132812 49.933719635009766 C 123.62187194824219 46.899253845214844 156.45797729492188 56.72359848022461 143.59100341796875 59.312782287597656" stroke-width="3.0" fill="none" stroke="rgb(0, 0, 0)" stroke-opacity="1.0" stroke-linecap="round" stroke-linejoin="round"/>
  </g>
</svg>
