<?xml version="1.0" ?>
<svg xmlns="http://www.w3.org/2000/svg" version="1.1" width="224" height="224">
  <defs/>
  <g>
    <path d="M 153.95816040039062 73.43580627441406 C 143.86715698242188 87.95182800292969 110.39781188964844 88.31757354736328 139.54054260253906 80.88667297363281" stroke-width="3.0" fill="none" stroke="rgb(0, 0, 0)" stroke-opacity="1.0" stroke-linecap="round" stroke-linejoin="round"/>
    <path d="M 178.5325927734375 96.04991912841797 C 161.15072631835938 79.79872131347656 191.51858520507812 89.84593963623047 167.6259002685547 107.864990234375" stroke-width="3.0" fill="none" stroke="rgb(0, 0, 0)" stroke-opacity="1.0" stroke-linecap="round" stroke-linejoin="round"/>
    <path d="M 61.98740768432617 42.09402084350586 C 26.418834686279297 92.12715911865234 79.36978149414062 122.98450469970703 99.54601287841797 76.17194366455078" stroke-width="3.0" fill="none" stroke="rgb(0, 0, 0)" stroke-opacity="1.0" stroke-linecap="round" stroke-linejoin="round"/>
    <path d="M 124.05957794189453 89.78601837158203 C 110.72455596923828 80.87796020507812 159.3383331298828 89.27708435058594 90.74976348876953 95.77214813232422" stroke-width="3.0" fill="none" stroke="rgb(0, 0, 0)" stroke-opacity="1.0" stroke-linecap="round" stroke-linejoin="round"/>
    <path d="M 170.95050048828125 87.64834594726562 C 200.48968505859375 97.81844329833984 174.12115478515625 90.4701919555664 174.8705291748047 89.07656860351562" stroke-width="3.0" fill="none" stroke="rgb(0, 0, 0)" stroke-opacity="1.0" stroke-linecap="round" stroke-linejoin="round"/>
    <path d="M 146.33477783203125 64.4582748413086 C 130.04322814941406 92.94939422607422 73.46945190429688 113.62041473388672 117.16734313964844 73.102783203125" stroke-width="3.0" fill="none" stroke="rgb(0, 0, 0)" stroke-opacity="1.0" stroke-linecap="round" stroke-linejoin="round"/>
    <path d="M 144.10189819335938 53.5411262512207 C 163.18490600585938 87.57920837402344 137.0247802734375 38.97439193725586 184.70899963378906 88.8718490600586" stroke-width="3.0" fill="none" stroke="rgb(0, 0, 0)" stroke-opacity="1.0" stroke-linecap="round" stroke-linejoin="round"/>
    <path d="M 66.14815521240234 98.9758071899414 C 115.67735290527344 90.02901458740234 102.62488555908203 90.12385559082031 122.30353546142578 141.5870819091797" stroke-width="3.0" fill="none" stroke="rgb(0, 0, 0)" stroke-opacity="1.0" stroke-linecap="round" stroke-linejoin="round"/>
    <path d="M 136.01303100585938 119.7288818359375 C 120.91778564453125 177.87820434570312 134.02084350585938 120.9906234741211 106.96475219726562 205.56298828125" stroke-width="3.0" fill="none" stroke="rgb(0, 0, 0)" stroke-opacity="1.0" stroke-linecap="round" stroke-linejoin="round"/>
    <path d="M 135.64573669433594 52.741676330566406 C 141.95855712890625 57.3524284362793 102.05915832519531 36.96426010131836 81.6445541381836 88.99304962158203" stroke-width="3.0" fill="none" stroke="rgb(0, 0, 0)" stroke-opacity="1.0" stroke-linecap="round" stroke-linejoin="round"/>
    <path d="M 121.82467651367188 82.830078125 C 141.0605010986328 55.06706619262695 109.53392028808594 71.89942169189453 170.88304138183594 87.65785217285156" stroke-width="3.0" fill="none" stroke="rgb(0, 0, 0)" stroke-opacity="1.0" stroke-linecap="round" stroke-linejoin="round"/>
    <path d="M 168.83448791503906 78.62194061279297 C 148.1678924560547 68.19147491455078 151.29443359375 87.9955825805664 147.34359741210938 71.03472900390625" stroke-width="3.0" fill="none" stroke="rgb(0, 0, 0)" stroke-opacity="1.0" stroke-linecap="round" stroke-linejoin="round"/>
    <path d="M 136.52960205078125 56.7926139831543 C 123.48808288574219 66.15235137939453 138.95721435546875 53.88189697265625 146.3004150390625 56.884220123291016" stroke-width="3.0" fill="none" stroke="rgb(0, 0, 0)" stroke-opacity="1.0" stroke-linecap="round" stroke-linejoin="round"/>
    <path d="M 124.00350189208984 148.87115478515625 C 127.41670227050781 155.6790313720703 128.39089965820312 116.92045593261719 114.82533264160156 147.56463623046875" stroke-width="3.0" fill="none" stroke="rgb(0, 0, 0)" stroke-opacity="1.0" stroke-linecap="round" stroke-linejoin="round"/>
    <path d="M 137.02345275878906 63.473350524902344 C 152.44874572753906 61.886695861816406 126.10475158691406 48.02677917480469 141.29977416992188 65.1910400390625" stroke-width="3.0" fill="none" stroke="rgb(0, 0, 0)" stroke-opacity="1.0" stroke-linecap="round" stroke-linejoin="round"/>
    <path d="M 137.5126953125 54.553916931152344 C 128.2769317626953 59.211204528808594 152.5965576171875 49.45646667480469 142.27906799316406 61.23445510864258" stroke-width="3.0" fill="none" stroke="rgb(0, 0, 0)" stroke-opacity="1.0" stroke-linecap="round" stroke-linejoin="round"/>
  </g>
</svg>
