<?xml version="1.0" ?>
<svg xmlns="http://www.w3.org/2000/svg" version="1.1" width="224" height="224">
  <defs/>
  <g>
    <path d="M 179.9217529296875 91.85089111328125 C 160.50205993652344 87.10912322998047 34.400917053222656 99.9444808959961 125.42829895019531 68.52898406982422" stroke-width="3.0" fill="none" stroke="rgb(0, 0, 0)" stroke-opacity="1.0" stroke-linecap="round" stroke-linejoin="round"/>
    <path d="M 178.08433532714844 94.85452270507812 C 175.33775329589844 96.42388153076172 204.4283905029297 88.7029037475586 132.3386993408203 119.44453430175781" stroke-width="3.0" fill="none" stroke="rgb(0, 0, 0)" stroke-opacity="1.0" stroke-linecap="round" stroke-linejoin="round"/>
    <path d="M 56.71403503417969 40.428382873535156 C 6.478259086608887 30.886573791503906 59.9145622253418 132.0328369140625 80.74691772460938 65.42365264892578" stroke-width="3.0" fill="none" stroke="rgb(0, 0, 0)" stroke-opacity="1.0" stroke-linecap="round" stroke-linejoin="round"/>
    <path d="M 98.8297119140625 60.72829055786133 C 147.3656463623047 69.05709838867188 203.73602294921875 102.18116760253906 105.68791961669922 77.53108978271484" stroke-width="3.0" fill="none" stroke="rgb(0, 0, 0)" stroke-opacity="1.0" stroke-linecap="round" stroke-linejoin="round"/>
    <path d="M 125.69322204589844 73.46517944335938 C 205.16680908203125 103.00482177734375 170.55743408203125 97.18073272705078 180.72267150878906 95.4178695678711" stroke-width="3.0" fill="none" stroke="rgb(0, 0, 0)" stroke-opacity="1.0" stroke-linecap="round" stroke-linejoin="round"/>
    <path d="M 105.85137939453125 52.91093444824219 C 108.07814025878906 56.40473556518555 32.14909362792969 134.8150634765625 73.87980651855469 93.76160430908203" stroke-width="3.0" fill="none" stroke="rgb(0, 0, 0)" stroke-opacity="1.0" stroke-linecap="round" stroke-linejoin="round"/>
    <path d="M 143.880126953125 79.3074951171875 C 2.643397569656372 64.40237426757812 149.82745361328125 26.276987075805664 191.8575897216797 95.01776123046875" stroke-width="3.0" fill="none" stroke="rgb(0, 0, 0)" stroke-opacity="1.0" stroke-linecap="round" stroke-linejoin="round"/>
    <path d="M 87.44515991210938 77.8934326171875 C 110.73466491699219 110.73737335205078 109.69966888427734 68.07473754882812 120.2804183959961 152.32424926757812" stroke-width="3.0" fill="none" stroke="rgb(0, 0, 0)" stroke-opacity="1.0" stroke-linecap="round" stroke-linejoin="round"/>
    <path d="M 127.03446960449219 91.68695831298828 C 117.73342895507812 203.40390014648438 127.2247314453125 91.09359741210938 105.81617736816406 204.34068298339844" stroke-width="3.0" fill="none" stroke="rgb(0, 0, 0)" stroke-opacity="1.0" stroke-linecap="round" stroke-linejoin="round"/>
    <path d="M 153.04190063476562 61.03978729248047 C 134.82717895507812 49.30427932739258 90.669189453125 21.396564483642578 85.07320404052734 85.85472869873047" stroke-width="3.0" fill="none" stroke="rgb(0, 0, 0)" stroke-opacity="1.0" stroke-linecap="round" stroke-linejoin="round"/>
    <path d="M 89.75283813476562 57.262123107910156 C 141.03775024414062 35.20941162109375 144.78680419921875 54.45852279663086 174.89549255371094 80.26505279541016" stroke-width="3.0" fill="none" stroke="rgb(0, 0, 0)" stroke-opacity="1.0" stroke-linecap="round" stroke-linejoin="round"/>
    <path d="M 164.28919982910156 73.13697052001953 C 158.79580688476562 88.86412048339844 239.6525115966797 132.12742614746094 144.44093322753906 54.98349380493164" stroke-width="3.0" fill="none" stroke="rgb(0, 0, 0)" stroke-opacity="1.0" stroke-linecap="round" stroke-linejoin="round"/>
    <path d="M 151.15869140625 67.0659408569336 C 191.57717895507812 102.8978042602539 179.70033264160156 77.59310913085938 132.80099487304688 59.71562576293945" stroke-width="3.0" fill="none" stroke="rgb(0, 0, 0)" stroke-opacity="1.0" stroke-linecap="round" stroke-linejoin="round"/>
    <path d="M 121.82044982910156 121.36260986328125 C 145.50997924804688 153.41465759277344 138.5515899658203 109.65302276611328 117.4184341430664 146.9203643798828" stroke-width="3.0" fill="none" stroke="rgb(0, 0, 0)" stroke-opacity="1.0" stroke-linecap="round" stroke-linejoin="round"/>
    <path d="M 115.82613372802734 83.36647033691406 C 186.87071228027344 107.49566650390625 141.549072265625 56.73515701293945 134.6428985595703 59.1523551940918" stroke-width="3.0" fill="none" stroke="rgb(0, 0, 0)" stroke-opacity="1.0" stroke-linecap="round" stroke-linejoin="round"/>
    <path d="M 144.58206176757812 70.0609359741211 C 95.1679916381836 37.37276840209961 168.615478515625 63.52309799194336 127.27915954589844 47.955535888671875" stroke-width="3.0" fill="none" stroke="rgb(0, 0, 0)" stroke-opacity="1.0" stroke-linecap="round" stroke-linejoin="round"/>
  </g>
</svg>
