<?xml version="1.0" ?>
<svg xmlns="http://www.w3.org/2000/svg" version="1.1" width="224" height="224">
  <defs/>
  <g>
    <path d="M 177.80517578125 94.68324279785156 C 162.58338928222656 81.9657211303711 25.07493782043457 93.66450500488281 116.13475799560547 74.99052429199219" stroke-width="3.0" fill="none" stroke="rgb(0, 0, 0)" stroke-opacity="1.0" stroke-linecap="round" stroke-linejoin="round"/>
    <path d="M 187.86537170410156 96.94049835205078 C 185.92076110839844 103.48656463623047 208.0854034423828 91.92091369628906 131.0146942138672 120.1060791015625" stroke-width="3.0" fill="none" stroke="rgb(0, 0, 0)" stroke-opacity="1.0" stroke-linecap="round" stroke-linejoin="round"/>
    <path d="M 57.71516036987305 40.36711120605469 C 5.103102684020996 23.490398406982422 71.30207824707031 134.77127075195312 86.91545104980469 56.8067626953125" stroke-width="3.0" fill="none" stroke="rgb(0, 0, 0)" stroke-opacity="1.0" stroke-linecap="round" stroke-linejoin="round"/>
    <path d="M 94.54749298095703 62.70149230957031 C 154.67417907714844 63.419837951660156 207.28025817871094 106.02687072753906 105.93397521972656 74.77328491210938" stroke-width="3.0" fill="none" stroke="rgb(0, 0, 0)" stroke-opacity="1.0" stroke-linecap="round" stroke-linejoin="round"/>
    <path d="M 126.69713592529297 71.45769500732422 C 205.93466186523438 102.12838745117188 175.8377227783203 82.08528900146484 176.00579833984375 91.85861206054688" stroke-width="3.0" fill="none" stroke="rgb(0, 0, 0)" stroke-opacity="1.0" stroke-linecap="round" stroke-linejoin="round"/>
    <path d="M 95.67315673828125 50.82176971435547 C 113.75963592529297 66.55692291259766 46.52561950683594 141.60208129882812 78.39363098144531 101.80360412597656" stroke-width="3.0" fill="none" stroke="rgb(0, 0, 0)" stroke-opacity="1.0" stroke-linecap="round" stroke-linejoin="round"/>
    <path d="M 151.44635009765625 77.6123046875 C 3.473975658416748 54.094993591308594 153.60997009277344 22.56718635559082 188.71534729003906 95.05343627929688" stroke-width="3.0" fill="none" stroke="rgb(0, 0, 0)" stroke-opacity="1.0" stroke-linecap="round" stroke-linejoin="round"/>
    <path d="M 93.00900268554688 67.24774932861328 C 109.79024505615234 111.50865936279297 115.42552947998047 61.360267639160156 120.1427230834961 142.4408416748047" stroke-width="3.0" fill="none" stroke="rgb(0, 0, 0)" stroke-opacity="1.0" stroke-linecap="round" stroke-linejoin="round"/>
    <path d="M 125.56227111816406 89.6603775024414 C 118.50146484375 205.44602966308594 126.73095703125 94.28152465820312 105.92623901367188 206.13922119140625" stroke-width="3.0" fill="none" stroke="rgb(0, 0, 0)" stroke-opacity="1.0" stroke-linecap="round" stroke-linejoin="round"/>
    <path d="M 155.55804443359375 61.28187561035156 C 139.20712280273438 45.49192810058594 108.62001037597656 22.070402145385742 79.58169555664062 80.5873794555664" stroke-width="3.0" fill="none" stroke="rgb(0, 0, 0)" stroke-opacity="1.0" stroke-linecap="round" stroke-linejoin="round"/>
    <path d="M 91.87010192871094 68.00109100341797 C 137.6543731689453 25.43738555908203 139.62205505371094 52.72166442871094 169.99183654785156 86.94634246826172" stroke-width="3.0" fill="none" stroke="rgb(0, 0, 0)" stroke-opacity="1.0" stroke-linecap="round" stroke-linejoin="round"/>
    <path d="M 157.43812561035156 67.33399200439453 C 159.12600708007812 90.88738250732422 246.73805236816406 122.25865936279297 140.16488647460938 59.67268753051758" stroke-width="3.0" fill="none" stroke="rgb(0, 0, 0)" stroke-opacity="1.0" stroke-linecap="round" stroke-linejoin="round"/>
    <path d="M 157.12989807128906 74.7789077758789 C 194.4793243408203 99.35066223144531 167.79779052734375 87.4919204711914 118.28734588623047 55.846187591552734" stroke-width="3.0" fill="none" stroke="rgb(0, 0, 0)" stroke-opacity="1.0" stroke-linecap="round" stroke-linejoin="round"/>
    <path d="M 123.27135467529297 122.40502166748047 C 142.44659423828125 150.64381408691406 134.8353729248047 104.0828857421875 114.57510375976562 151.16250610351562" stroke-width="3.0" fill="none" stroke="rgb(0, 0, 0)" stroke-opacity="1.0" stroke-linecap="round" stroke-linejoin="round"/>
    <path d="M 101.19349670410156 81.11431884765625 C 190.53970336914062 111.95721435546875 156.70753479003906 53.87966537475586 142.31381225585938 74.8251724243164" stroke-width="3.0" fill="none" stroke="rgb(0, 0, 0)" stroke-opacity="1.0" stroke-linecap="round" stroke-linejoin="round"/>
    <path d="M 140.2884063720703 86.08028411865234 C 48.74763107299805 38.85348892211914 160.31375122070312 63.43338394165039 123.1534652709961 48.42765808105469" stroke-width="3.0" fill="none" stroke="rgb(0, 0, 0)" stroke-opacity="1.0" stroke-linecap="round" stroke-linejoin="round"/>
  </g>
</svg>
