<?xml version="1.0" ?>
<svg xmlns="http://www.w3.org/2000/svg" version="1.1" width="224" height="224">
  <defs/>
  <g>
    <path d="M 169.9871826171875 91.53257751464844 C 127.14874267578125 87.96663665771484 55.33420181274414 105.84325408935547 142.17091369628906 72.51206970214844" stroke-width="3.0" fill="none" stroke="rgb(0, 0, 0)" stroke-opacity="1.0" stroke-linecap="round" stroke-linejoin="round"/>
    <path d="M 179.34698486328125 95.1563491821289 C 178.71424865722656 104.59928894042969 192.97183227539062 91.65400695800781 155.3224639892578 111.53875732421875" stroke-width="3.0" fill="none" stroke="rgb(0, 0, 0)" stroke-opacity="1.0" stroke-linecap="round" stroke-linejoin="round"/>
    <path d="M 43.95703125 39.88526153564453 C 14.384491920471191 45.05579376220703 77.19261169433594 135.6303253173828 77.70169067382812 65.50313568115234" stroke-width="3.0" fill="none" stroke="rgb(0, 0, 0)" stroke-opacity="1.0" stroke-linecap="round" stroke-linejoin="round"/>
    <path d="M 99.95343017578125 74.14031219482422 C 146.64866638183594 72.80562591552734 193.11256408691406 77.46405792236328 98.77558898925781 92.698486328125" stroke-width="3.0" fill="none" stroke="rgb(0, 0, 0)" stroke-opacity="1.0" stroke-linecap="round" stroke-linejoin="round"/>
    <path d="M 155.09201049804688 82.11289978027344 C 217.63572692871094 107.09918212890625 171.0076904296875 94.037353515625 182.1442413330078 95.43984985351562" stroke-width="3.0" fill="none" stroke="rgb(0, 0, 0)" stroke-opacity="1.0" stroke-linecap="round" stroke-linejoin="round"/>
    <path d="M 146.62364196777344 64.2416000366211 C 110.14994049072266 66.48811340332031 57.72416305541992 105.46109771728516 85.0252456665039 59.82236099243164" stroke-width="3.0" fill="none" stroke="rgb(0, 0, 0)" stroke-opacity="1.0" stroke-linecap="round" stroke-linejoin="round"/>
    <path d="M 160.80645751953125 69.61919403076172 C 117.06221771240234 54.993743896484375 157.51356506347656 53.42695236206055 190.13803100585938 93.99720001220703" stroke-width="3.0" fill="none" stroke="rgb(0, 0, 0)" stroke-opacity="1.0" stroke-linecap="round" stroke-linejoin="round"/>
    <path d="M 78.7347412109375 86.47161102294922 C 125.0602798461914 97.17308807373047 116.85536193847656 81.23152160644531 121.5976333618164 139.11685180664062" stroke-width="3.0" fill="none" stroke="rgb(0, 0, 0)" stroke-opacity="1.0" stroke-linecap="round" stroke-linejoin="round"/>
    <path d="M 129.64695739746094 94.66012573242188 C 119.56365203857422 194.6409149169922 130.36471557617188 88.29290771484375 105.50166320800781 204.96237182617188" stroke-width="3.0" fill="none" stroke="rgb(0, 0, 0)" stroke-opacity="1.0" stroke-linecap="round" stroke-linejoin="round"/>
    <path d="M 126.51993560791016 46.27132034301758 C 138.49908447265625 52.847591400146484 75.58987426757812 25.57025909423828 66.32498931884766 81.43578338623047" stroke-width="3.0" fill="none" stroke="rgb(0, 0, 0)" stroke-opacity="1.0" stroke-linecap="round" stroke-linejoin="round"/>
    <path d="M 115.19193267822266 50.375823974609375 C 158.57626342773438 47.83283615112305 131.558837890625 65.43980407714844 172.84104919433594 85.59435272216797" stroke-width="3.0" fill="none" stroke="rgb(0, 0, 0)" stroke-opacity="1.0" stroke-linecap="round" stroke-linejoin="round"/>
    <path d="M 180.08753967285156 86.41973114013672 C 153.57354736328125 76.2834701538086 207.43032836914062 103.17340850830078 145.40444946289062 81.99340057373047" stroke-width="3.0" fill="none" stroke="rgb(0, 0, 0)" stroke-opacity="1.0" stroke-linecap="round" stroke-linejoin="round"/>
    <path d="M 144.82144165039062 66.26689147949219 C 144.04725646972656 75.40290832519531 153.81243896484375 61.959102630615234 145.43052673339844 67.36177825927734" stroke-width="3.0" fill="none" stroke="rgb(0, 0, 0)" stroke-opacity="1.0" stroke-linecap="round" stroke-linejoin="round"/>
    <path d="M 128.67135620117188 118.91815185546875 C 143.39163208007812 149.86976623535156 138.87985229492188 102.18514251708984 117.77921295166016 139.98806762695312" stroke-width="3.0" fill="none" stroke="rgb(0, 0, 0)" stroke-opacity="1.0" stroke-linecap="round" stroke-linejoin="round"/>
    <path d="M 146.4806365966797 64.72966003417969 C 161.54150390625 68.00674438476562 129.76141357421875 47.1283073425293 146.07305908203125 62.35948181152344" stroke-width="3.0" fill="none" stroke="rgb(0, 0, 0)" stroke-opacity="1.0" stroke-linecap="round" stroke-linejoin="round"/>
    <path d="M 145.2233428955078 58.9479866027832 C 120.34695434570312 53.76178741455078 151.58526611328125 60.35029220581055 142.67701721191406 61.53065872192383" stroke-width="3.0" fill="none" stroke="rgb(0, 0, 0)" stroke-opacity="1.0" stroke-linecap="round" stroke-linejoin="round"/>
  </g>
</svg>
