<?xml version="1.0" ?>
<svg xmlns="http://www.w3.org/2000/svg" version="1.1" width="224" height="224">
  <defs/>
  <g>
    <path d="M 176.65846252441406 95.29878997802734 C 164.0118408203125 83.99332427978516 47.111534118652344 103.87919616699219 135.71347045898438 86.36370849609375" stroke-width="3.0" fill="none" stroke="rgb(0, 0, 0)" stroke-opacity="1.0" stroke-linecap="round" stroke-linejoin="round"/>
    <path d="M 187.69491577148438 97.09445190429688 C 176.18675231933594 98.6551742553711 206.20033264160156 91.80419921875 133.93145751953125 119.9660873413086" stroke-width="3.0" fill="none" stroke="rgb(0, 0, 0)" stroke-opacity="1.0" stroke-linecap="round" stroke-linejoin="round"/>
    <path d="M 58.79051971435547 42.550689697265625 C 8.751321792602539 23.95414161682129 66.09780883789062 124.59387969970703 80.19454193115234 66.42617797851562" stroke-width="3.0" fill="none" stroke="rgb(0, 0, 0)" stroke-opacity="1.0" stroke-linecap="round" stroke-linejoin="round"/>
    <path d="M 95.75788879394531 69.272705078125 C 152.24159240722656 64.96671295166016 204.047119140625 100.87989807128906 96.0792465209961 81.51982116699219" stroke-width="3.0" fill="none" stroke="rgb(0, 0, 0)" stroke-opacity="1.0" stroke-linecap="round" stroke-linejoin="round"/>
    <path d="M 137.08786010742188 74.97245788574219 C 209.6200714111328 98.01327514648438 173.43124389648438 100.0505599975586 181.98072814941406 96.3892593383789" stroke-width="3.0" fill="none" stroke="rgb(0, 0, 0)" stroke-opacity="1.0" stroke-linecap="round" stroke-linejoin="round"/>
    <path d="M 101.7387924194336 52.41795349121094 C 106.54886627197266 57.29740905761719 41.40194320678711 147.32073974609375 72.95795440673828 86.39546966552734" stroke-width="3.0" fill="none" stroke="rgb(0, 0, 0)" stroke-opacity="1.0" stroke-linecap="round" stroke-linejoin="round"/>
    <path d="M 144.1631622314453 88.24687957763672 C 11.237618446350098 72.35563659667969 154.13589477539062 27.247549057006836 190.58631896972656 95.86009216308594" stroke-width="3.0" fill="none" stroke="rgb(0, 0, 0)" stroke-opacity="1.0" stroke-linecap="round" stroke-linejoin="round"/>
    <path d="M 85.29821014404297 81.7022933959961 C 120.05940246582031 110.33618927001953 118.7490234375 67.41874694824219 121.43929290771484 142.6354217529297" stroke-width="3.0" fill="none" stroke="rgb(0, 0, 0)" stroke-opacity="1.0" stroke-linecap="round" stroke-linejoin="round"/>
    <path d="M 129.81158447265625 93.49385833740234 C 114.29635620117188 206.52833557128906 129.4713592529297 94.78948974609375 103.55325317382812 206.6313934326172" stroke-width="3.0" fill="none" stroke="rgb(0, 0, 0)" stroke-opacity="1.0" stroke-linecap="round" stroke-linejoin="round"/>
    <path d="M 147.86582946777344 61.17448043823242 C 140.180908203125 46.33577346801758 89.81497955322266 20.57962989807129 82.31924438476562 85.97269439697266" stroke-width="3.0" fill="none" stroke="rgb(0, 0, 0)" stroke-opacity="1.0" stroke-linecap="round" stroke-linejoin="round"/>
    <path d="M 95.4820327758789 60.183719635009766 C 137.2156219482422 32.33708190917969 143.19236755371094 52.60841369628906 176.38230895996094 82.16234588623047" stroke-width="3.0" fill="none" stroke="rgb(0, 0, 0)" stroke-opacity="1.0" stroke-linecap="round" stroke-linejoin="round"/>
    <path d="M 155.36618041992188 80.1863021850586 C 154.12716674804688 85.33625793457031 242.046630859375 127.87055206298828 139.1916046142578 59.31547927856445" stroke-width="3.0" fill="none" stroke="rgb(0, 0, 0)" stroke-opacity="1.0" stroke-linecap="round" stroke-linejoin="round"/>
    <path d="M 141.39846801757812 86.00921630859375 C 178.58399963378906 106.74596405029297 174.49560546875 70.45962524414062 134.75282287597656 70.53120422363281" stroke-width="3.0" fill="none" stroke="rgb(0, 0, 0)" stroke-opacity="1.0" stroke-linecap="round" stroke-linejoin="round"/>
    <path d="M 125.53970336914062 119.7717514038086 C 149.9661407470703 149.7452392578125 138.52809143066406 102.39232635498047 116.1261215209961 148.0924530029297" stroke-width="3.0" fill="none" stroke="rgb(0, 0, 0)" stroke-opacity="1.0" stroke-linecap="round" stroke-linejoin="round"/>
    <path d="M 119.14140319824219 78.9218521118164 C 181.5123291015625 101.14046478271484 151.6063690185547 50.7271614074707 148.52569580078125 63.24789810180664" stroke-width="3.0" fill="none" stroke="rgb(0, 0, 0)" stroke-opacity="1.0" stroke-linecap="round" stroke-linejoin="round"/>
    <path d="M 138.74020385742188 69.07939147949219 C 92.87664031982422 46.96760177612305 170.8292236328125 69.73561096191406 128.2928466796875 50.66431427001953" stroke-width="3.0" fill="none" stroke="rgb(0, 0, 0)" stroke-opacity="1.0" stroke-linecap="round" stroke-linejoin="round"/>
  </g>
</svg>
