<?xml version="1.0" ?>
<svg xmlns="http://www.w3.org/2000/svg" version="1.1" width="224" height="224">
  <defs/>
  <g>
    <path d="M 153.7639923095703 68.59212493896484 C 145.0725555419922 90.62115478515625 116.76319885253906 92.05099487304688 143.89112854003906 86.89891815185547" stroke-width="3.0" fill="none" stroke="rgb(0, 0, 0)" stroke-opacity="1.0" stroke-linecap="round" stroke-linejoin="round"/>
    <path d="M 180.37728881835938 89.94786834716797 C 167.5511016845703 82.03502655029297 185.53427124023438 91.84902954101562 161.8741455078125 106.86465454101562" stroke-width="3.0" fill="none" stroke="rgb(0, 0, 0)" stroke-opacity="1.0" stroke-linecap="round" stroke-linejoin="round"/>
    <path d="M 66.20692443847656 43.57328414916992 C 37.805503845214844 94.22898864746094 72.82300567626953 119.51896667480469 98.38358306884766 76.15103912353516" stroke-width="3.0" fill="none" stroke="rgb(0, 0, 0)" stroke-opacity="1.0" stroke-linecap="round" stroke-linejoin="round"/>
    <path d="M 121.90190124511719 91.0737533569336 C 109.73554992675781 82.27955627441406 157.741455078125 94.93533325195312 88.46102905273438 91.71831512451172" stroke-width="3.0" fill="none" stroke="rgb(0, 0, 0)" stroke-opacity="1.0" stroke-linecap="round" stroke-linejoin="round"/>
    <path d="M 175.3542938232422 98.2438735961914 C 197.37828063964844 96.6589584350586 171.81326293945312 89.75959777832031 176.03868103027344 87.88096618652344" stroke-width="3.0" fill="none" stroke="rgb(0, 0, 0)" stroke-opacity="1.0" stroke-linecap="round" stroke-linejoin="round"/>
    <path d="M 142.96743774414062 56.755149841308594 C 130.76539611816406 95.08019256591797 80.71965026855469 118.99893188476562 118.9882583618164 67.97285461425781" stroke-width="3.0" fill="none" stroke="rgb(0, 0, 0)" stroke-opacity="1.0" stroke-linecap="round" stroke-linejoin="round"/>
    <path d="M 141.50552368164062 52.79734420776367 C 159.2835235595703 91.02718353271484 131.1588592529297 45.05071258544922 177.04525756835938 86.53208923339844" stroke-width="3.0" fill="none" stroke="rgb(0, 0, 0)" stroke-opacity="1.0" stroke-linecap="round" stroke-linejoin="round"/>
    <path d="M 70.36261749267578 96.87720489501953 C 120.2459487915039 84.48991394042969 106.99754333496094 86.58756256103516 122.80968475341797 138.2042694091797" stroke-width="3.0" fill="none" stroke="rgb(0, 0, 0)" stroke-opacity="1.0" stroke-linecap="round" stroke-linejoin="round"/>
    <path d="M 133.86561584472656 119.92987823486328 C 119.1979751586914 178.23060607910156 133.7537841796875 123.24423217773438 102.83274841308594 206.7661590576172" stroke-width="3.0" fill="none" stroke="rgb(0, 0, 0)" stroke-opacity="1.0" stroke-linecap="round" stroke-linejoin="round"/>
    <path d="M 127.35418701171875 50.80315399169922 C 138.13900756835938 63.454444885253906 104.75144958496094 42.38454818725586 86.20271301269531 90.48651123046875" stroke-width="3.0" fill="none" stroke="rgb(0, 0, 0)" stroke-opacity="1.0" stroke-linecap="round" stroke-linejoin="round"/>
    <path d="M 126.91316986083984 85.9741439819336 C 145.8559112548828 60.065670013427734 113.80033111572266 62.3987922668457 169.326416015625 81.58655548095703" stroke-width="3.0" fill="none" stroke="rgb(0, 0, 0)" stroke-opacity="1.0" stroke-linecap="round" stroke-linejoin="round"/>
    <path d="M 162.47340393066406 73.67437744140625 C 145.92977905273438 71.24105834960938 145.5446319580078 104.12723541259766 143.8505859375 67.97997283935547" stroke-width="3.0" fill="none" stroke="rgb(0, 0, 0)" stroke-opacity="1.0" stroke-linecap="round" stroke-linejoin="round"/>
    <path d="M 136.7262725830078 58.55986022949219 C 121.33012390136719 72.660400390625 136.99514770507812 55.734619140625 141.3292236328125 60.299808502197266" stroke-width="3.0" fill="none" stroke="rgb(0, 0, 0)" stroke-opacity="1.0" stroke-linecap="round" stroke-linejoin="round"/>
    <path d="M 126.4349136352539 149.30421447753906 C 128.32107543945312 151.8430938720703 130.74395751953125 108.29312896728516 114.10993194580078 147.47427368164062" stroke-width="3.0" fill="none" stroke="rgb(0, 0, 0)" stroke-opacity="1.0" stroke-linecap="round" stroke-linejoin="round"/>
    <path d="M 138.68138122558594 60.054107666015625 C 142.5646514892578 65.1468505859375 122.42646789550781 51.0908088684082 143.89308166503906 60.833580017089844" stroke-width="3.0" fill="none" stroke="rgb(0, 0, 0)" stroke-opacity="1.0" stroke-linecap="round" stroke-linejoin="round"/>
    <path d="M 133.82687377929688 48.55986022949219 C 124.04134368896484 54.033966064453125 149.75 40.23497772216797 139.02610778808594 53.60076141357422" stroke-width="3.0" fill="none" stroke="rgb(0, 0, 0)" stroke-opacity="1.0" stroke-linecap="round" stroke-linejoin="round"/>
  </g>
</svg>
