<?xml version="1.0" ?>
<svg xmlns="http://www.w3.org/2000/svg" version="1.1" width="224" height="224">
  <defs/>
  <g>
    <path d="M 152.69583129882812 75.620361328125 C 140.85171508789062 93.41034698486328 113.74117279052734 98.12370300292969 139.4686737060547 86.02326965332031" stroke-width="3.0" fill="none" stroke="rgb(0, 0, 0)" stroke-opacity="1.0" stroke-linecap="round" stroke-linejoin="round"/>
    <path d="M 175.8516845703125 101.83788299560547 C 187.916259765625 90.29867553710938 190.84237670898438 96.04305267333984 150.8581085205078 112.26887512207031" stroke-width="3.0" fill="none" stroke="rgb(0, 0, 0)" stroke-opacity="1.0" stroke-linecap="round" stroke-linejoin="round"/>
    <path d="M 61.15692138671875 41.24304962158203 C 42.220359802246094 95.77909851074219 74.14402770996094 121.09310150146484 105.68406677246094 79.64486694335938" stroke-width="3.0" fill="none" stroke="rgb(0, 0, 0)" stroke-opacity="1.0" stroke-linecap="round" stroke-linejoin="round"/>
    <path d="M 124.2405014038086 94.39439392089844 C 111.04566955566406 87.29996490478516 158.46644592285156 98.98694610595703 100.2300796508789 93.9296875" stroke-width="3.0" fill="none" stroke="rgb(0, 0, 0)" stroke-opacity="1.0" stroke-linecap="round" stroke-linejoin="round"/>
    <path d="M 175.40455627441406 101.22317504882812 C 192.25367736816406 94.5162353515625 181.6049041748047 96.46626281738281 186.99807739257812 86.24722290039062" stroke-width="3.0" fill="none" stroke="rgb(0, 0, 0)" stroke-opacity="1.0" stroke-linecap="round" stroke-linejoin="round"/>
    <path d="M 139.88148498535156 54.55718231201172 C 135.0872344970703 98.01776885986328 89.76217651367188 120.40487670898438 121.43524932861328 63.63125228881836" stroke-width="3.0" fill="none" stroke="rgb(0, 0, 0)" stroke-opacity="1.0" stroke-linecap="round" stroke-linejoin="round"/>
    <path d="M 144.9248046875 52.7579460144043 C 165.22833251953125 87.81233215332031 131.59619140625 49.29871368408203 169.9086456298828 79.99539184570312" stroke-width="3.0" fill="none" stroke="rgb(0, 0, 0)" stroke-opacity="1.0" stroke-linecap="round" stroke-linejoin="round"/>
    <path d="M 82.16304779052734 101.66069030761719 C 120.53536224365234 85.4118423461914 108.60659790039062 86.48927307128906 127.00102996826172 130.73028564453125" stroke-width="3.0" fill="none" stroke="rgb(0, 0, 0)" stroke-opacity="1.0" stroke-linecap="round" stroke-linejoin="round"/>
    <path d="M 138.94020080566406 126.83380889892578 C 115.05455017089844 172.96383666992188 132.7875518798828 127.56702423095703 102.79293823242188 203.441162109375" stroke-width="3.0" fill="none" stroke="rgb(0, 0, 0)" stroke-opacity="1.0" stroke-linecap="round" stroke-linejoin="round"/>
    <path d="M 121.91204833984375 55.600521087646484 C 142.488037109375 63.266353607177734 108.89227294921875 42.23857116699219 90.57386779785156 96.76580047607422" stroke-width="3.0" fill="none" stroke="rgb(0, 0, 0)" stroke-opacity="1.0" stroke-linecap="round" stroke-linejoin="round"/>
    <path d="M 130.56121826171875 89.103515625 C 159.21234130859375 79.79998779296875 134.40809631347656 81.04754638671875 162.2975616455078 73.82862091064453" stroke-width="3.0" fill="none" stroke="rgb(0, 0, 0)" stroke-opacity="1.0" stroke-linecap="round" stroke-linejoin="round"/>
    <path d="M 157.54774475097656 69.36631774902344 C 149.24322509765625 75.50962829589844 149.96229553222656 106.06021118164062 148.443115234375 61.35271072387695" stroke-width="3.0" fill="none" stroke="rgb(0, 0, 0)" stroke-opacity="1.0" stroke-linecap="round" stroke-linejoin="round"/>
    <path d="M 139.58065795898438 65.78466033935547 C 122.05143737792969 80.40596771240234 143.67962646484375 67.82760620117188 146.49172973632812 66.65841674804688" stroke-width="3.0" fill="none" stroke="rgb(0, 0, 0)" stroke-opacity="1.0" stroke-linecap="round" stroke-linejoin="round"/>
    <path d="M 121.87110137939453 142.0816650390625 C 129.34719848632812 148.1856231689453 136.17515563964844 102.37809753417969 115.37110137939453 144.2860565185547" stroke-width="3.0" fill="none" stroke="rgb(0, 0, 0)" stroke-opacity="1.0" stroke-linecap="round" stroke-linejoin="round"/>
    <path d="M 143.60562133789062 61.4704475402832 C 146.90040588378906 58.07041549682617 125.5703353881836 46.964332580566406 141.11610412597656 57.75360107421875" stroke-width="3.0" fill="none" stroke="rgb(0, 0, 0)" stroke-opacity="1.0" stroke-linecap="round" stroke-linejoin="round"/>
    <path d="M 125.9322509765625 50.760982513427734 C 120.60405731201172 52.29276657104492 153.73919677734375 36.23049545288086 141.65963745117188 60.28664779663086" stroke-width="3.0" fill="none" stroke="rgb(0, 0, 0)" stroke-opacity="1.0" stroke-linecap="round" stroke-linejoin="round"/>
  </g>
</svg>
