<?xml version="1.0" ?>
<svg xmlns="http://www.w3.org/2000/svg" version="1.1" width="224" height="224">
  <defs/>
  <g>
    <path d="M 141.59735107421875 74.44548034667969 C 139.08763122558594 88.41816711425781 120.46586608886719 104.4592056274414 125.59259033203125 80.92007446289062" stroke-width="3.0" fill="none" stroke="rgb(0, 0, 0)" stroke-opacity="1.0" stroke-linecap="round" stroke-linejoin="round"/>
    <path d="M 181.69244384765625 96.03812408447266 C 184.5859832763672 86.45361328125 189.12881469726562 84.46256256103516 175.36956787109375 109.35600280761719" stroke-width="3.0" fill="none" stroke="rgb(0, 0, 0)" stroke-opacity="1.0" stroke-linecap="round" stroke-linejoin="round"/>
    <path d="M 65.72701263427734 48.207054138183594 C 36.10261917114258 86.28948211669922 66.35292053222656 116.85382080078125 103.78221893310547 90.80123901367188" stroke-width="3.0" fill="none" stroke="rgb(0, 0, 0)" stroke-opacity="1.0" stroke-linecap="round" stroke-linejoin="round"/>
    <path d="M 115.6859130859375 94.99249267578125 C 110.68222045898438 95.93443298339844 146.98568725585938 85.91818237304688 114.9129638671875 101.37786865234375" stroke-width="3.0" fill="none" stroke="rgb(0, 0, 0)" stroke-opacity="1.0" stroke-linecap="round" stroke-linejoin="round"/>
    <path d="M 183.4435577392578 92.1335678100586 C 196.48377990722656 79.45539855957031 197.96327209472656 67.90669250488281 192.82647705078125 78.24971008300781" stroke-width="3.0" fill="none" stroke="rgb(0, 0, 0)" stroke-opacity="1.0" stroke-linecap="round" stroke-linejoin="round"/>
    <path d="M 130.0640106201172 66.2164306640625 C 132.0115509033203 91.71244812011719 115.64309692382812 102.2859878540039 126.7673110961914 74.50657653808594" stroke-width="3.0" fill="none" stroke="rgb(0, 0, 0)" stroke-opacity="1.0" stroke-linecap="round" stroke-linejoin="round"/>
    <path d="M 141.17124938964844 57.45771026611328 C 158.72158813476562 70.84687042236328 138.61672973632812 52.708946228027344 156.28329467773438 64.14252471923828" stroke-width="3.0" fill="none" stroke="rgb(0, 0, 0)" stroke-opacity="1.0" stroke-linecap="round" stroke-linejoin="round"/>
    <path d="M 86.75508117675781 101.61358642578125 C 125.56087493896484 91.10514831542969 107.86702728271484 107.99626159667969 126.59828186035156 128.055419921875" stroke-width="3.0" fill="none" stroke="rgb(0, 0, 0)" stroke-opacity="1.0" stroke-linecap="round" stroke-linejoin="round"/>
    <path d="M 128.6110076904297 131.41250610351562 C 111.78832244873047 157.5471954345703 124.68209838867188 144.15499877929688 104.13494110107422 202.28741455078125" stroke-width="3.0" fill="none" stroke="rgb(0, 0, 0)" stroke-opacity="1.0" stroke-linecap="round" stroke-linejoin="round"/>
    <path d="M 124.35696411132812 52.65562057495117 C 133.58473205566406 60.20778274536133 115.44345092773438 49.25947570800781 102.536376953125 83.93682098388672" stroke-width="3.0" fill="none" stroke="rgb(0, 0, 0)" stroke-opacity="1.0" stroke-linecap="round" stroke-linejoin="round"/>
    <path d="M 134.40841674804688 88.15191650390625 C 146.7630615234375 82.03545379638672 124.26544952392578 75.43814849853516 153.9945831298828 73.25614166259766" stroke-width="3.0" fill="none" stroke="rgb(0, 0, 0)" stroke-opacity="1.0" stroke-linecap="round" stroke-linejoin="round"/>
    <path d="M 142.97744750976562 63.3768196105957 C 134.50453186035156 92.21442413330078 136.28475952148438 104.43682098388672 141.4367218017578 72.79972076416016" stroke-width="3.0" fill="none" stroke="rgb(0, 0, 0)" stroke-opacity="1.0" stroke-linecap="round" stroke-linejoin="round"/>
    <path d="M 138.25050354003906 59.252376556396484 C 149.9229278564453 88.94779968261719 145.7265625 60.45627975463867 136.68698120117188 59.917152404785156" stroke-width="3.0" fill="none" stroke="rgb(0, 0, 0)" stroke-opacity="1.0" stroke-linecap="round" stroke-linejoin="round"/>
    <path d="M 126.75592803955078 123.0226821899414 C 141.78492736816406 145.0485382080078 123.70403289794922 99.7959976196289 118.63214874267578 137.5183868408203" stroke-width="3.0" fill="none" stroke="rgb(0, 0, 0)" stroke-opacity="1.0" stroke-linecap="round" stroke-linejoin="round"/>
    <path d="M 139.50961303710938 52.49219512939453 C 142.1050262451172 64.88334655761719 136.37562561035156 47.998741149902344 152.49366760253906 61.061153411865234" stroke-width="3.0" fill="none" stroke="rgb(0, 0, 0)" stroke-opacity="1.0" stroke-linecap="round" stroke-linejoin="round"/>
    <path d="M 125.87549591064453 46.528465270996094 C 125.21297454833984 56.575172424316406 130.40951538085938 31.369504928588867 132.86048889160156 69.01255798339844" stroke-width="3.0" fill="none" stroke="rgb(0, 0, 0)" stroke-opacity="1.0" stroke-linecap="round" stroke-linejoin="round"/>
  </g>
</svg>
