<?xml version="1.0" ?>
<svg xmlns="http://www.w3.org/2000/svg" version="1.1" width="224" height="224">
  <defs/>
  <g>
    <path d="M 153.7318572998047 72.41609954833984 C 150.7909393310547 96.32149505615234 118.0746841430664 93.2396240234375 144.01202392578125 88.21923828125" stroke-width="3.0" fill="none" stroke="rgb(0, 0, 0)" stroke-opacity="1.0" stroke-linecap="round" stroke-linejoin="round"/>
    <path d="M 174.57522583007812 100.16625213623047 C 182.56735229492188 83.3226547241211 195.3005828857422 99.33781433105469 153.98667907714844 111.8231430053711" stroke-width="3.0" fill="none" stroke="rgb(0, 0, 0)" stroke-opacity="1.0" stroke-linecap="round" stroke-linejoin="round"/>
    <path d="M 67.0230941772461 41.608638763427734 C 40.35205841064453 95.69999694824219 74.42718505859375 122.06149291992188 102.04984283447266 78.34803771972656" stroke-width="3.0" fill="none" stroke="rgb(0, 0, 0)" stroke-opacity="1.0" stroke-linecap="round" stroke-linejoin="round"/>
    <path d="M 123.66580200195312 94.09253692626953 C 109.51177978515625 87.1669921875 158.89654541015625 98.76251983642578 91.23912048339844 93.58741760253906" stroke-width="3.0" fill="none" stroke="rgb(0, 0, 0)" stroke-opacity="1.0" stroke-linecap="round" stroke-linejoin="round"/>
    <path d="M 175.94644165039062 102.35250854492188 C 197.15748596191406 98.23028564453125 171.56700134277344 92.22097778320312 181.714599609375 82.72669219970703" stroke-width="3.0" fill="none" stroke="rgb(0, 0, 0)" stroke-opacity="1.0" stroke-linecap="round" stroke-linejoin="round"/>
    <path d="M 141.9962615966797 55.209842681884766 C 132.8524932861328 90.81482696533203 85.80193328857422 113.35128021240234 117.5545425415039 66.87273406982422" stroke-width="3.0" fill="none" stroke="rgb(0, 0, 0)" stroke-opacity="1.0" stroke-linecap="round" stroke-linejoin="round"/>
    <path d="M 139.88278198242188 47.95414352416992 C 164.21253967285156 89.56207275390625 134.4290008544922 48.04434585571289 180.9602508544922 85.72696685791016" stroke-width="3.0" fill="none" stroke="rgb(0, 0, 0)" stroke-opacity="1.0" stroke-linecap="round" stroke-linejoin="round"/>
    <path d="M 80.14825439453125 104.3189697265625 C 115.21775817871094 82.15155792236328 109.47589874267578 85.50530242919922 125.26371765136719 136.36033630371094" stroke-width="3.0" fill="none" stroke="rgb(0, 0, 0)" stroke-opacity="1.0" stroke-linecap="round" stroke-linejoin="round"/>
    <path d="M 137.69070434570312 124.9439697265625 C 115.22642517089844 176.57603454589844 132.4608917236328 125.14635467529297 107.01164245605469 204.00729370117188" stroke-width="3.0" fill="none" stroke="rgb(0, 0, 0)" stroke-opacity="1.0" stroke-linecap="round" stroke-linejoin="round"/>
    <path d="M 124.07795715332031 56.29269790649414 C 141.5041046142578 64.70536804199219 108.48965454101562 44.08992385864258 90.27143859863281 93.02987670898438" stroke-width="3.0" fill="none" stroke="rgb(0, 0, 0)" stroke-opacity="1.0" stroke-linecap="round" stroke-linejoin="round"/>
    <path d="M 130.79783630371094 93.23927307128906 C 150.73374938964844 68.84606170654297 126.24845123291016 66.31245422363281 168.25454711914062 77.0570297241211" stroke-width="3.0" fill="none" stroke="rgb(0, 0, 0)" stroke-opacity="1.0" stroke-linecap="round" stroke-linejoin="round"/>
    <path d="M 157.15359497070312 71.48371887207031 C 147.35552978515625 73.24494934082031 144.08726501464844 100.89064025878906 147.51904296875 66.36064910888672" stroke-width="3.0" fill="none" stroke="rgb(0, 0, 0)" stroke-opacity="1.0" stroke-linecap="round" stroke-linejoin="round"/>
    <path d="M 136.65626525878906 58.393394470214844 C 120.09393310546875 74.58578491210938 136.9448699951172 56.421630859375 141.17198181152344 59.74846649169922" stroke-width="3.0" fill="none" stroke="rgb(0, 0, 0)" stroke-opacity="1.0" stroke-linecap="round" stroke-linejoin="round"/>
    <path d="M 127.53545379638672 149.31629943847656 C 129.36856079101562 150.50790405273438 135.76690673828125 107.5099868774414 116.35417938232422 147.9249725341797" stroke-width="3.0" fill="none" stroke="rgb(0, 0, 0)" stroke-opacity="1.0" stroke-linecap="round" stroke-linejoin="round"/>
    <path d="M 142.90745544433594 58.24638366699219 C 146.07130432128906 62.94826889038086 125.98518371582031 48.73812484741211 143.24945068359375 56.033424377441406" stroke-width="3.0" fill="none" stroke="rgb(0, 0, 0)" stroke-opacity="1.0" stroke-linecap="round" stroke-linejoin="round"/>
    <path d="M 129.7539520263672 51.917877197265625 C 119.77909088134766 51.968528747558594 154.54615783691406 40.41592025756836 142.1365509033203 55.510955810546875" stroke-width="3.0" fill="none" stroke="rgb(0, 0, 0)" stroke-opacity="1.0" stroke-linecap="round" stroke-linejoin="round"/>
  </g>
</svg>
