<?xml version="1.0" ?>
<svg xmlns="http://www.w3.org/2000/svg" version="1.1" width="224" height="224">
  <defs/>
  <g>
    <path d="M 152.1434783935547 73.53070831298828 C 148.75326538085938 97.50553894042969 116.87728881835938 96.02241516113281 142.93043518066406 86.234130859375" stroke-width="3.0" fill="none" stroke="rgb(0, 0, 0)" stroke-opacity="1.0" stroke-linecap="round" stroke-linejoin="round"/>
    <path d="M 175.20938110351562 99.58431243896484 C 185.44454956054688 86.12973022460938 193.5696563720703 96.8277359008789 150.9404754638672 112.32923126220703" stroke-width="3.0" fill="none" stroke="rgb(0, 0, 0)" stroke-opacity="1.0" stroke-linecap="round" stroke-linejoin="round"/>
    <path d="M 66.48328399658203 41.74755096435547 C 42.302608489990234 98.92317199707031 76.2873306274414 125.4190673828125 101.88109588623047 78.97807312011719" stroke-width="3.0" fill="none" stroke="rgb(0, 0, 0)" stroke-opacity="1.0" stroke-linecap="round" stroke-linejoin="round"/>
    <path d="M 125.1574478149414 93.74225616455078 C 111.34750366210938 87.74991607666016 159.3840789794922 99.4500961303711 92.36107635498047 93.20834350585938" stroke-width="3.0" fill="none" stroke="rgb(0, 0, 0)" stroke-opacity="1.0" stroke-linecap="round" stroke-linejoin="round"/>
    <path d="M 175.3009490966797 101.3111572265625 C 194.5440673828125 94.76097106933594 176.6761016845703 93.51614379882812 186.02139282226562 85.5102767944336" stroke-width="3.0" fill="none" stroke="rgb(0, 0, 0)" stroke-opacity="1.0" stroke-linecap="round" stroke-linejoin="round"/>
    <path d="M 140.8932647705078 54.2588005065918 C 132.1775665283203 92.3726577758789 84.46210479736328 115.14704132080078 116.99040985107422 66.2571029663086" stroke-width="3.0" fill="none" stroke="rgb(0, 0, 0)" stroke-opacity="1.0" stroke-linecap="round" stroke-linejoin="round"/>
    <path d="M 139.5979766845703 47.24880599975586 C 169.0335693359375 86.73983001708984 133.856201171875 48.83354187011719 178.78134155273438 87.04934692382812" stroke-width="3.0" fill="none" stroke="rgb(0, 0, 0)" stroke-opacity="1.0" stroke-linecap="round" stroke-linejoin="round"/>
    <path d="M 79.89924621582031 103.32817077636719 C 118.58551788330078 80.20668029785156 112.05537414550781 81.07447052001953 127.49195861816406 134.9374237060547" stroke-width="3.0" fill="none" stroke="rgb(0, 0, 0)" stroke-opacity="1.0" stroke-linecap="round" stroke-linejoin="round"/>
    <path d="M 138.80996704101562 125.80660247802734 C 116.59456634521484 177.65333557128906 132.3524169921875 126.42119598388672 106.26321411132812 206.02386474609375" stroke-width="3.0" fill="none" stroke="rgb(0, 0, 0)" stroke-opacity="1.0" stroke-linecap="round" stroke-linejoin="round"/>
    <path d="M 120.57505798339844 56.60934829711914 C 141.51669311523438 64.72441864013672 108.10448455810547 43.42972183227539 90.83096313476562 93.56107330322266" stroke-width="3.0" fill="none" stroke="rgb(0, 0, 0)" stroke-opacity="1.0" stroke-linecap="round" stroke-linejoin="round"/>
    <path d="M 133.10006713867188 94.21470642089844 C 157.2477569580078 74.5963363647461 130.8650360107422 69.80095672607422 165.10194396972656 76.558349609375" stroke-width="3.0" fill="none" stroke="rgb(0, 0, 0)" stroke-opacity="1.0" stroke-linecap="round" stroke-linejoin="round"/>
    <path d="M 156.2140655517578 71.724853515625 C 148.47811889648438 74.50250244140625 147.2938995361328 101.68324279785156 148.97706604003906 66.66651916503906" stroke-width="3.0" fill="none" stroke="rgb(0, 0, 0)" stroke-opacity="1.0" stroke-linecap="round" stroke-linejoin="round"/>
    <path d="M 139.18235778808594 62.7939567565918 C 118.70951843261719 76.36024475097656 135.7371826171875 56.33859634399414 141.48243713378906 58.64187240600586" stroke-width="3.0" fill="none" stroke="rgb(0, 0, 0)" stroke-opacity="1.0" stroke-linecap="round" stroke-linejoin="round"/>
    <path d="M 123.34748077392578 145.26930236816406 C 127.6649398803711 149.42349243164062 134.74363708496094 106.89710998535156 115.31546020507812 149.3678436279297" stroke-width="3.0" fill="none" stroke="rgb(0, 0, 0)" stroke-opacity="1.0" stroke-linecap="round" stroke-linejoin="round"/>
    <path d="M 143.23448181152344 59.720359802246094 C 148.28250122070312 61.34464645385742 127.20430755615234 47.81459426879883 142.46795654296875 55.854644775390625" stroke-width="3.0" fill="none" stroke="rgb(0, 0, 0)" stroke-opacity="1.0" stroke-linecap="round" stroke-linejoin="round"/>
    <path d="M 126.48100280761719 52.99220275878906 C 119.92120361328125 54.28508758544922 156.39971923828125 42.21813201904297 143.64547729492188 60.153160095214844" stroke-width="3.0" fill="none" stroke="rgb(0, 0, 0)" stroke-opacity="1.0" stroke-linecap="round" stroke-linejoin="round"/>
  </g>
</svg>
