<?xml version="1.0" ?>
<svg xmlns="http://www.w3.org/2000/svg" version="1.1" width="224" height="224">
  <defs/>
  <g>
    <path d="M 177.73866271972656 95.3808364868164 C 162.39801025390625 87.82178497314453 34.22494888305664 98.89694213867188 125.07621002197266 66.3056411743164" stroke-width="3.0" fill="none" stroke="rgb(0, 0, 0)" stroke-opacity="1.0" stroke-linecap="round" stroke-linejoin="round"/>
    <path d="M 179.4317169189453 92.91520690917969 C 174.04641723632812 99.17634582519531 203.666748046875 89.275390625 132.4364471435547 122.23622131347656" stroke-width="3.0" fill="none" stroke="rgb(0, 0, 0)" stroke-opacity="1.0" stroke-linecap="round" stroke-linejoin="round"/>
    <path d="M 58.16965103149414 41.33644104003906 C 6.514442443847656 26.394912719726562 63.72209548950195 142.56790161132812 83.31778717041016 64.72355651855469" stroke-width="3.0" fill="none" stroke="rgb(0, 0, 0)" stroke-opacity="1.0" stroke-linecap="round" stroke-linejoin="round"/>
    <path d="M 101.96311950683594 59.88691711425781 C 149.4604949951172 66.47321319580078 206.47401428222656 98.88526916503906 104.63645935058594 76.63581848144531" stroke-width="3.0" fill="none" stroke="rgb(0, 0, 0)" stroke-opacity="1.0" stroke-linecap="round" stroke-linejoin="round"/>
    <path d="M 121.47017669677734 72.25836944580078 C 204.33572387695312 105.73020935058594 172.94615173339844 95.93130493164062 181.576904296875 94.4126205444336" stroke-width="3.0" fill="none" stroke="rgb(0, 0, 0)" stroke-opacity="1.0" stroke-linecap="round" stroke-linejoin="round"/>
    <path d="M 105.96842193603516 51.681766510009766 C 112.97757720947266 59.820308685302734 36.47266387939453 136.87979125976562 73.95258331298828 97.84062194824219" stroke-width="3.0" fill="none" stroke="rgb(0, 0, 0)" stroke-opacity="1.0" stroke-linecap="round" stroke-linejoin="round"/>
    <path d="M 147.01089477539062 76.8183364868164 C 3.2873260974884033 62.82307815551758 150.32797241210938 28.541250228881836 188.46035766601562 97.33502960205078" stroke-width="3.0" fill="none" stroke="rgb(0, 0, 0)" stroke-opacity="1.0" stroke-linecap="round" stroke-linejoin="round"/>
    <path d="M 87.21675109863281 76.28709411621094 C 112.39684295654297 116.02949523925781 115.54483795166016 63.78619384765625 121.92769622802734 145.88218688964844" stroke-width="3.0" fill="none" stroke="rgb(0, 0, 0)" stroke-opacity="1.0" stroke-linecap="round" stroke-linejoin="round"/>
    <path d="M 129.85247802734375 94.51536560058594 C 120.63421630859375 202.74546813964844 130.4834747314453 92.65833282470703 104.0657730102539 205.5670623779297" stroke-width="3.0" fill="none" stroke="rgb(0, 0, 0)" stroke-opacity="1.0" stroke-linecap="round" stroke-linejoin="round"/>
    <path d="M 148.84202575683594 62.72822189331055 C 137.51214599609375 46.128475189208984 95.80951690673828 19.3211669921875 84.65247344970703 85.187255859375" stroke-width="3.0" fill="none" stroke="rgb(0, 0, 0)" stroke-opacity="1.0" stroke-linecap="round" stroke-linejoin="round"/>
    <path d="M 90.1353530883789 58.41044235229492 C 141.73960876464844 32.64031982421875 141.70681762695312 53.98343276977539 171.27023315429688 83.34584045410156" stroke-width="3.0" fill="none" stroke="rgb(0, 0, 0)" stroke-opacity="1.0" stroke-linecap="round" stroke-linejoin="round"/>
    <path d="M 157.54710388183594 74.91041564941406 C 156.60130310058594 92.19776153564453 245.58343505859375 128.5747528076172 144.13841247558594 52.67382049560547" stroke-width="3.0" fill="none" stroke="rgb(0, 0, 0)" stroke-opacity="1.0" stroke-linecap="round" stroke-linejoin="round"/>
    <path d="M 155.29904174804688 72.15798950195312 C 179.99496459960938 114.69144439697266 169.73085021972656 86.39874267578125 132.4176025390625 60.8446159362793" stroke-width="3.0" fill="none" stroke="rgb(0, 0, 0)" stroke-opacity="1.0" stroke-linecap="round" stroke-linejoin="round"/>
    <path d="M 124.5744400024414 121.41622161865234 C 142.29449462890625 151.18682861328125 141.34060668945312 101.74625396728516 114.79063415527344 149.30377197265625" stroke-width="3.0" fill="none" stroke="rgb(0, 0, 0)" stroke-opacity="1.0" stroke-linecap="round" stroke-linejoin="round"/>
    <path d="M 111.21944427490234 78.4410400390625 C 190.01617431640625 104.8934326171875 144.38641357421875 58.6801872253418 133.46653747558594 69.03202056884766" stroke-width="3.0" fill="none" stroke="rgb(0, 0, 0)" stroke-opacity="1.0" stroke-linecap="round" stroke-linejoin="round"/>
    <path d="M 143.6005859375 74.93160247802734 C 78.1094970703125 34.63679885864258 163.4712677001953 64.86396789550781 127.98959350585938 48.5595703125" stroke-width="3.0" fill="none" stroke="rgb(0, 0, 0)" stroke-opacity="1.0" stroke-linecap="round" stroke-linejoin="round"/>
  </g>
</svg>
