<?xml version="1.0" ?>
<svg xmlns="http://www.w3.org/2000/svg" version="1.1" width="224" height="224">
  <defs/>
  <g>
    <path d="M 170.77188110351562 90.35641479492188 C 135.94754028320312 80.13755798339844 106.12722778320312 96.95834350585938 144.42242431640625 70.67094421386719" stroke-width="3.0" fill="none" stroke="rgb(0, 0, 0)" stroke-opacity="1.0" stroke-linecap="round" stroke-linejoin="round"/>
    <path d="M 175.8008270263672 94.43409729003906 C 172.58653259277344 97.82852172851562 192.20361328125 90.3624038696289 158.00442504882812 106.70375061035156" stroke-width="3.0" fill="none" stroke="rgb(0, 0, 0)" stroke-opacity="1.0" stroke-linecap="round" stroke-linejoin="round"/>
    <path d="M 48.00542068481445 37.676368713378906 C 13.745051383972168 58.54399871826172 75.34249114990234 144.4618682861328 87.54915618896484 73.51286315917969" stroke-width="3.0" fill="none" stroke="rgb(0, 0, 0)" stroke-opacity="1.0" stroke-linecap="round" stroke-linejoin="round"/>
    <path d="M 98.69017028808594 79.18203735351562 C 150.45501708984375 67.28450775146484 193.43505859375 76.72677612304688 104.25394439697266 89.62589263916016" stroke-width="3.0" fill="none" stroke="rgb(0, 0, 0)" stroke-opacity="1.0" stroke-linecap="round" stroke-linejoin="round"/>
    <path d="M 159.2186737060547 86.92144775390625 C 214.06735229492188 107.49657440185547 167.70513916015625 94.94552612304688 180.78648376464844 102.27950286865234" stroke-width="3.0" fill="none" stroke="rgb(0, 0, 0)" stroke-opacity="1.0" stroke-linecap="round" stroke-linejoin="round"/>
    <path d="M 147.8369903564453 61.359283447265625 C 116.1656265258789 71.37274932861328 67.80171966552734 103.47076416015625 91.01042938232422 65.35015106201172" stroke-width="3.0" fill="none" stroke="rgb(0, 0, 0)" stroke-opacity="1.0" stroke-linecap="round" stroke-linejoin="round"/>
    <path d="M 152.6688690185547 66.95165252685547 C 129.08157348632812 66.99708557128906 164.9568328857422 53.201515197753906 189.9859619140625 95.90567779541016" stroke-width="3.0" fill="none" stroke="rgb(0, 0, 0)" stroke-opacity="1.0" stroke-linecap="round" stroke-linejoin="round"/>
    <path d="M 85.64708709716797 85.77603912353516 C 124.85356903076172 100.11573028564453 111.48564147949219 80.4546890258789 126.16999816894531 139.41317749023438" stroke-width="3.0" fill="none" stroke="rgb(0, 0, 0)" stroke-opacity="1.0" stroke-linecap="round" stroke-linejoin="round"/>
    <path d="M 137.729736328125 97.83641052246094 C 114.92276000976562 187.39971923828125 128.2756805419922 99.56021881103516 105.79035949707031 200.0757293701172" stroke-width="3.0" fill="none" stroke="rgb(0, 0, 0)" stroke-opacity="1.0" stroke-linecap="round" stroke-linejoin="round"/>
    <path d="M 113.243896484375 50.551021575927734 C 136.319091796875 55.48889923095703 87.48582458496094 31.25179100036621 80.36038970947266 76.56940460205078" stroke-width="3.0" fill="none" stroke="rgb(0, 0, 0)" stroke-opacity="1.0" stroke-linecap="round" stroke-linejoin="round"/>
    <path d="M 100.27836608886719 55.701904296875 C 156.38018798828125 43.39881896972656 132.07455444335938 59.032588958740234 174.2776336669922 88.46007537841797" stroke-width="3.0" fill="none" stroke="rgb(0, 0, 0)" stroke-opacity="1.0" stroke-linecap="round" stroke-linejoin="round"/>
    <path d="M 177.25698852539062 85.5860366821289 C 142.13336181640625 72.19769287109375 180.33956909179688 96.42416381835938 141.22332763671875 82.36312103271484" stroke-width="3.0" fill="none" stroke="rgb(0, 0, 0)" stroke-opacity="1.0" stroke-linecap="round" stroke-linejoin="round"/>
    <path d="M 146.35992431640625 66.04802703857422 C 142.72528076171875 71.2244644165039 150.98971557617188 58.56911087036133 147.9884033203125 62.11362838745117" stroke-width="3.0" fill="none" stroke="rgb(0, 0, 0)" stroke-opacity="1.0" stroke-linecap="round" stroke-linejoin="round"/>
    <path d="M 122.23954010009766 139.79258728027344 C 132.26123046875 145.26339721679688 133.5344696044922 108.63056182861328 118.42057037353516 141.1318817138672" stroke-width="3.0" fill="none" stroke="rgb(0, 0, 0)" stroke-opacity="1.0" stroke-linecap="round" stroke-linejoin="round"/>
    <path d="M 149.0896759033203 63.92375183105469 C 166.43316650390625 67.34331512451172 129.9776611328125 50.661773681640625 147.3766632080078 58.88776779174805" stroke-width="3.0" fill="none" stroke="rgb(0, 0, 0)" stroke-opacity="1.0" stroke-linecap="round" stroke-linejoin="round"/>
    <path d="M 140.59104919433594 57.63692855834961 C 113.95451354980469 50.18321228027344 156.39321899414062 56.519710540771484 149.23585510253906 57.487701416015625" stroke-width="3.0" fill="none" stroke="rgb(0, 0, 0)" stroke-opacity="1.0" stroke-linecap="round" stroke-linejoin="round"/>
  </g>
</svg>
