<?xml version="1.0" ?>
<svg xmlns="http://www.w3.org/2000/svg" version="1.1" width="224" height="224">
  <defs/>
  <g>
    <path d="M 173.7469024658203 95.71658325195312 C 125.3446273803711 85.02902221679688 49.34698486328125 109.54833221435547 143.64846801757812 73.12637329101562" stroke-width="3.0" fill="none" stroke="rgb(0, 0, 0)" stroke-opacity="1.0" stroke-linecap="round" stroke-linejoin="round"/>
    <path d="M 183.27000427246094 98.1902847290039 C 173.7342529296875 99.91893005371094 195.30551147460938 93.6744613647461 152.98941040039062 112.33744049072266" stroke-width="3.0" fill="none" stroke="rgb(0, 0, 0)" stroke-opacity="1.0" stroke-linecap="round" stroke-linejoin="round"/>
    <path d="M 44.88942337036133 37.69199752807617 C 15.477999687194824 43.76298904418945 76.75579071044922 135.588134765625 75.90662384033203 66.16027069091797" stroke-width="3.0" fill="none" stroke="rgb(0, 0, 0)" stroke-opacity="1.0" stroke-linecap="round" stroke-linejoin="round"/>
    <path d="M 102.0381088256836 73.89110565185547 C 151.9901885986328 71.52408599853516 200.90830993652344 82.12983703613281 95.59080505371094 90.35995483398438" stroke-width="3.0" fill="none" stroke="rgb(0, 0, 0)" stroke-opacity="1.0" stroke-linecap="round" stroke-linejoin="round"/>
    <path d="M 157.94647216796875 75.72543334960938 C 214.51864624023438 110.94544982910156 171.8434600830078 93.16138458251953 185.5338897705078 99.47808074951172" stroke-width="3.0" fill="none" stroke="rgb(0, 0, 0)" stroke-opacity="1.0" stroke-linecap="round" stroke-linejoin="round"/>
    <path d="M 145.2829132080078 60.09510040283203 C 108.33439636230469 67.38060760498047 50.655029296875 109.40619659423828 84.06520080566406 60.3216552734375" stroke-width="3.0" fill="none" stroke="rgb(0, 0, 0)" stroke-opacity="1.0" stroke-linecap="round" stroke-linejoin="round"/>
    <path d="M 163.52914428710938 76.3546371459961 C 117.8225326538086 55.95123291015625 162.4478302001953 53.34019088745117 190.25067138671875 95.23252868652344" stroke-width="3.0" fill="none" stroke="rgb(0, 0, 0)" stroke-opacity="1.0" stroke-linecap="round" stroke-linejoin="round"/>
    <path d="M 77.32777404785156 88.92892456054688 C 123.36671447753906 96.99773406982422 113.62252044677734 86.15306854248047 122.6377182006836 141.16864013671875" stroke-width="3.0" fill="none" stroke="rgb(0, 0, 0)" stroke-opacity="1.0" stroke-linecap="round" stroke-linejoin="round"/>
    <path d="M 130.99783325195312 95.203857421875 C 123.31428527832031 193.6110382080078 133.48411560058594 85.50190734863281 106.62532806396484 204.49020385742188" stroke-width="3.0" fill="none" stroke="rgb(0, 0, 0)" stroke-opacity="1.0" stroke-linecap="round" stroke-linejoin="round"/>
    <path d="M 134.40069580078125 47.887939453125 C 131.80490112304688 52.10847854614258 76.08422088623047 20.08892059326172 66.49810791015625 80.75395202636719" stroke-width="3.0" fill="none" stroke="rgb(0, 0, 0)" stroke-opacity="1.0" stroke-linecap="round" stroke-linejoin="round"/>
    <path d="M 114.98682403564453 52.154727935791016 C 157.81480407714844 42.014068603515625 131.57823181152344 62.84565353393555 175.3656005859375 78.26033782958984" stroke-width="3.0" fill="none" stroke="rgb(0, 0, 0)" stroke-opacity="1.0" stroke-linecap="round" stroke-linejoin="round"/>
    <path d="M 178.72021484375 90.56684875488281 C 159.98037719726562 75.041015625 213.32440185546875 105.44418334960938 144.48623657226562 78.5848159790039" stroke-width="3.0" fill="none" stroke="rgb(0, 0, 0)" stroke-opacity="1.0" stroke-linecap="round" stroke-linejoin="round"/>
    <path d="M 148.92742919921875 63.03081130981445 C 144.34835815429688 76.28713989257812 154.00799560546875 62.8394889831543 145.6889190673828 65.65572357177734" stroke-width="3.0" fill="none" stroke="rgb(0, 0, 0)" stroke-opacity="1.0" stroke-linecap="round" stroke-linejoin="round"/>
    <path d="M 128.97926330566406 117.17105102539062 C 148.98330688476562 150.17718505859375 139.0108184814453 100.39601135253906 117.51307678222656 146.13876342773438" stroke-width="3.0" fill="none" stroke="rgb(0, 0, 0)" stroke-opacity="1.0" stroke-linecap="round" stroke-linejoin="round"/>
    <path d="M 145.45323181152344 68.25808715820312 C 165.05679321289062 67.68280029296875 132.1659698486328 48.95881271362305 147.62977600097656 62.6685676574707" stroke-width="3.0" fill="none" stroke="rgb(0, 0, 0)" stroke-opacity="1.0" stroke-linecap="round" stroke-linejoin="round"/>
    <path d="M 146.7952423095703 56.15825653076172 C 122.89778900146484 49.88390350341797 151.81488037109375 59.68343734741211 144.76502990722656 60.73657989501953" stroke-width="3.0" fill="none" stroke="rgb(0, 0, 0)" stroke-opacity="1.0" stroke-linecap="round" stroke-linejoin="round"/>
  </g>
</svg>
