<?xml version="1.0" ?>
<svg xmlns="http://www.w3.org/2000/svg" version="1.1" width="224" height="224">
  <defs/>
  <g>
    <path d="M 126.01249694824219 85.8896713256836 C 137.24334716796875 79.95182037353516 126.30921173095703 92.02147674560547 127.32317352294922 78.01847076416016" stroke-width="3.0" fill="none" stroke="rgb(0, 0, 0)" stroke-opacity="1.0" stroke-linecap="round" stroke-linejoin="round"/>
    <path d="M 179.56748962402344 101.51459503173828 C 171.21372985839844 88.52120971679688 165.54449462890625 89.72236633300781 182.75881958007812 96.06195068359375" stroke-width="3.0" fill="none" stroke="rgb(0, 0, 0)" stroke-opacity="1.0" stroke-linecap="round" stroke-linejoin="round"/>
    <path d="M 76.6744384765625 61.328887939453125 C 70.82154083251953 90.765869140625 80.87223052978516 88.19788360595703 96.25130462646484 99.60617065429688" stroke-width="3.0" fill="none" stroke="rgb(0, 0, 0)" stroke-opacity="1.0" stroke-linecap="round" stroke-linejoin="round"/>
    <path d="M 101.35662078857422 76.28849792480469 C 110.48695373535156 92.6810531616211 119.26006317138672 80.79747772216797 116.1239013671875 93.4969711303711" stroke-width="3.0" fill="none" stroke="rgb(0, 0, 0)" stroke-opacity="1.0" stroke-linecap="round" stroke-linejoin="round"/>
    <path d="M 168.5333251953125 80.11073303222656 C 166.28787231445312 75.49124145507812 164.111328125 72.43599700927734 173.3875732421875 82.82428741455078" stroke-width="3.0" fill="none" stroke="rgb(0, 0, 0)" stroke-opacity="1.0" stroke-linecap="round" stroke-linejoin="round"/>
    <path d="M 121.75523376464844 80.5179672241211 C 122.24845886230469 96.74681091308594 119.9350814819336 91.59405517578125 121.78878021240234 87.0790023803711" stroke-width="3.0" fill="none" stroke="rgb(0, 0, 0)" stroke-opacity="1.0" stroke-linecap="round" stroke-linejoin="round"/>
    <path d="M 140.23960876464844 64.3111343383789 C 161.75790405273438 59.87956237792969 156.4847412109375 62.2744140625 151.8187713623047 70.62908935546875" stroke-width="3.0" fill="none" stroke="rgb(0, 0, 0)" stroke-opacity="1.0" stroke-linecap="round" stroke-linejoin="round"/>
    <path d="M 105.36454010009766 96.98001861572266 C 114.68180084228516 106.44988250732422 113.82807922363281 100.81566619873047 116.98210906982422 119.31546783447266" stroke-width="3.0" fill="none" stroke="rgb(0, 0, 0)" stroke-opacity="1.0" stroke-linecap="round" stroke-linejoin="round"/>
    <path d="M 114.22978973388672 144.4871063232422 C 118.91351318359375 166.1607666015625 118.7701187133789 151.2744140625 111.276123046875 192.57656860351562" stroke-width="3.0" fill="none" stroke="rgb(0, 0, 0)" stroke-opacity="1.0" stroke-linecap="round" stroke-linejoin="round"/>
    <path d="M 122.37353515625 61.07223892211914 C 127.06704711914062 76.5041732788086 124.76832580566406 73.02374267578125 120.42508697509766 84.75104522705078" stroke-width="3.0" fill="none" stroke="rgb(0, 0, 0)" stroke-opacity="1.0" stroke-linecap="round" stroke-linejoin="round"/>
    <path d="M 134.25732421875 98.40280151367188 C 140.44491577148438 96.8475112915039 134.0699920654297 99.70649719238281 139.97206115722656 92.75326538085938" stroke-width="3.0" fill="none" stroke="rgb(0, 0, 0)" stroke-opacity="1.0" stroke-linecap="round" stroke-linejoin="round"/>
    <path d="M 135.23716735839844 68.51915740966797 C 130.21510314941406 83.18904876708984 124.66046142578125 82.10968017578125 132.53038024902344 76.48267364501953" stroke-width="3.0" fill="none" stroke="rgb(0, 0, 0)" stroke-opacity="1.0" stroke-linecap="round" stroke-linejoin="round"/>
    <path d="M 132.59722900390625 79.66456604003906 C 126.91942596435547 86.86566162109375 129.33424377441406 68.72950744628906 133.11898803710938 83.87548828125" stroke-width="3.0" fill="none" stroke="rgb(0, 0, 0)" stroke-opacity="1.0" stroke-linecap="round" stroke-linejoin="round"/>
    <path d="M 122.32840728759766 126.13105010986328 C 129.8607177734375 135.33853149414062 133.10621643066406 135.34214782714844 120.63984680175781 134.90951538085938" stroke-width="3.0" fill="none" stroke="rgb(0, 0, 0)" stroke-opacity="1.0" stroke-linecap="round" stroke-linejoin="round"/>
    <path d="M 125.95832061767578 48.696067810058594 C 127.08755493164062 54.74795150756836 133.7872314453125 49.67596435546875 149.2565155029297 57.90013122558594" stroke-width="3.0" fill="none" stroke="rgb(0, 0, 0)" stroke-opacity="1.0" stroke-linecap="round" stroke-linejoin="round"/>
    <path d="M 118.93355560302734 48.0538330078125 C 126.76274108886719 58.1447868347168 125.86285400390625 53.04153823852539 131.55580139160156 57.82020568847656" stroke-width="3.0" fill="none" stroke="rgb(0, 0, 0)" stroke-opacity="1.0" stroke-linecap="round" stroke-linejoin="round"/>
  </g>
</svg>
