<?xml version="1.0" ?>
<svg xmlns="http://www.w3.org/2000/svg" version="1.1" width="224" height="224">
  <defs/>
  <g>
    <path d="M 180.21556091308594 95.41458129882812 C 140.10133361816406 74.16474914550781 47.98652267456055 102.14173889160156 135.190673828125 69.73179626464844" stroke-width="3.0" fill="none" stroke="rgb(0, 0, 0)" stroke-opacity="1.0" stroke-linecap="round" stroke-linejoin="round"/>
    <path d="M 185.43161010742188 98.9806137084961 C 181.70175170898438 92.89730072021484 200.96083068847656 90.15806579589844 133.54678344726562 119.11226654052734" stroke-width="3.0" fill="none" stroke="rgb(0, 0, 0)" stroke-opacity="1.0" stroke-linecap="round" stroke-linejoin="round"/>
    <path d="M 54.43724822998047 39.35162353515625 C 7.132875919342041 32.54450607299805 64.9717788696289 124.00601196289062 70.4827880859375 62.65898132324219" stroke-width="3.0" fill="none" stroke="rgb(0, 0, 0)" stroke-opacity="1.0" stroke-linecap="round" stroke-linejoin="round"/>
    <path d="M 109.3000259399414 62.378780364990234 C 156.52967834472656 61.62692642211914 208.93844604492188 80.12895202636719 96.72492218017578 84.82923126220703" stroke-width="3.0" fill="none" stroke="rgb(0, 0, 0)" stroke-opacity="1.0" stroke-linecap="round" stroke-linejoin="round"/>
    <path d="M 155.577880859375 77.43202209472656 C 212.05322265625 104.20881652832031 168.74322509765625 101.03706359863281 188.92868041992188 97.7798080444336" stroke-width="3.0" fill="none" stroke="rgb(0, 0, 0)" stroke-opacity="1.0" stroke-linecap="round" stroke-linejoin="round"/>
    <path d="M 141.2938690185547 52.8078727722168 C 105.95632934570312 62.983089447021484 34.1262092590332 117.00916290283203 68.94656372070312 70.54706573486328" stroke-width="3.0" fill="none" stroke="rgb(0, 0, 0)" stroke-opacity="1.0" stroke-linecap="round" stroke-linejoin="round"/>
    <path d="M 154.91993713378906 78.81989288330078 C 72.27841186523438 56.39366912841797 158.73153686523438 43.5870246887207 189.81846618652344 95.00393676757812" stroke-width="3.0" fill="none" stroke="rgb(0, 0, 0)" stroke-opacity="1.0" stroke-linecap="round" stroke-linejoin="round"/>
    <path d="M 81.29865264892578 73.9036636352539 C 131.05860900878906 91.62137603759766 115.08367156982422 81.29053497314453 123.61925506591797 146.72866821289062" stroke-width="3.0" fill="none" stroke="rgb(0, 0, 0)" stroke-opacity="1.0" stroke-linecap="round" stroke-linejoin="round"/>
    <path d="M 128.57003784179688 91.28519439697266 C 120.42143249511719 200.3924560546875 132.09913635253906 93.10826873779297 103.58482360839844 204.1488800048828" stroke-width="3.0" fill="none" stroke="rgb(0, 0, 0)" stroke-opacity="1.0" stroke-linecap="round" stroke-linejoin="round"/>
    <path d="M 131.5605010986328 47.10110855102539 C 139.40647888183594 51.655704498291016 80.8420181274414 28.51670265197754 77.1815414428711 83.0926513671875" stroke-width="3.0" fill="none" stroke="rgb(0, 0, 0)" stroke-opacity="1.0" stroke-linecap="round" stroke-linejoin="round"/>
    <path d="M 114.71783447265625 53.3426628112793 C 144.20120239257812 42.31257629394531 130.73362731933594 63.6083984375 170.28245544433594 80.8242416381836" stroke-width="3.0" fill="none" stroke="rgb(0, 0, 0)" stroke-opacity="1.0" stroke-linecap="round" stroke-linejoin="round"/>
    <path d="M 155.52447509765625 81.79082489013672 C 142.65476989746094 73.74482727050781 215.8444061279297 112.17015075683594 153.03179931640625 64.50956726074219" stroke-width="3.0" fill="none" stroke="rgb(0, 0, 0)" stroke-opacity="1.0" stroke-linecap="round" stroke-linejoin="round"/>
    <path d="M 155.0194549560547 67.39546203613281 C 159.38916015625 90.05612182617188 158.81494140625 72.98422241210938 145.55276489257812 74.13675689697266" stroke-width="3.0" fill="none" stroke="rgb(0, 0, 0)" stroke-opacity="1.0" stroke-linecap="round" stroke-linejoin="round"/>
    <path d="M 125.99278259277344 122.83740997314453 C 148.84974670410156 156.43338012695312 138.12550354003906 103.61067962646484 118.56285095214844 150.465576171875" stroke-width="3.0" fill="none" stroke="rgb(0, 0, 0)" stroke-opacity="1.0" stroke-linecap="round" stroke-linejoin="round"/>
    <path d="M 137.74801635742188 80.4218978881836 C 175.8728790283203 94.09020233154297 138.72666931152344 58.22720718383789 153.81976318359375 66.52202606201172" stroke-width="3.0" fill="none" stroke="rgb(0, 0, 0)" stroke-opacity="1.0" stroke-linecap="round" stroke-linejoin="round"/>
    <path d="M 135.9788360595703 49.803794860839844 C 125.13558959960938 45.289337158203125 157.41079711914062 64.48570251464844 143.5569610595703 59.22148895263672" stroke-width="3.0" fill="none" stroke="rgb(0, 0, 0)" stroke-opacity="1.0" stroke-linecap="round" stroke-linejoin="round"/>
  </g>
</svg>
