<?xml version="1.0" ?>
<svg xmlns="http://www.w3.org/2000/svg" version="1.1" width="224" height="224">
  <defs/>
  <g>
    <path d="M 128.25796508789062 86.02356719970703 C 136.28598022460938 81.34292602539062 121.63280487060547 96.97821807861328 123.9897689819336 74.61277770996094" stroke-width="3.0" fill="none" stroke="rgb(0, 0, 0)" stroke-opacity="1.0" stroke-linecap="round" stroke-linejoin="round"/>
    <path d="M 181.79823303222656 102.11608123779297 C 170.77206420898438 89.6325454711914 165.52841186523438 91.84133911132812 181.67286682128906 101.04136657714844" stroke-width="3.0" fill="none" stroke="rgb(0, 0, 0)" stroke-opacity="1.0" stroke-linecap="round" stroke-linejoin="round"/>
    <path d="M 72.19632720947266 55.088157653808594 C 51.6121826171875 94.45532989501953 69.53108978271484 101.04196166992188 94.1316909790039 100.94839477539062" stroke-width="3.0" fill="none" stroke="rgb(0, 0, 0)" stroke-opacity="1.0" stroke-linecap="round" stroke-linejoin="round"/>
    <path d="M 102.14781951904297 75.87042999267578 C 111.6567611694336 93.21791076660156 124.92747497558594 80.95651245117188 116.43971252441406 94.21607208251953" stroke-width="3.0" fill="none" stroke="rgb(0, 0, 0)" stroke-opacity="1.0" stroke-linecap="round" stroke-linejoin="round"/>
    <path d="M 170.1727294921875 88.50702667236328 C 167.7084197998047 76.2195816040039 166.78604125976562 71.81876373291016 173.21571350097656 82.8218994140625" stroke-width="3.0" fill="none" stroke="rgb(0, 0, 0)" stroke-opacity="1.0" stroke-linecap="round" stroke-linejoin="round"/>
    <path d="M 125.90935516357422 76.93597412109375 C 124.7938232421875 97.90556335449219 119.45221710205078 91.15074157714844 119.36383819580078 81.02559661865234" stroke-width="3.0" fill="none" stroke="rgb(0, 0, 0)" stroke-opacity="1.0" stroke-linecap="round" stroke-linejoin="round"/>
    <path d="M 141.46629333496094 61.82931137084961 C 167.168701171875 64.92539978027344 157.25421142578125 60.07783889770508 148.73716735839844 65.24535369873047" stroke-width="3.0" fill="none" stroke="rgb(0, 0, 0)" stroke-opacity="1.0" stroke-linecap="round" stroke-linejoin="round"/>
    <path d="M 100.25637817382812 99.41192626953125 C 112.58354187011719 102.94270324707031 114.7679443359375 103.34386444091797 120.34368896484375 124.13043975830078" stroke-width="3.0" fill="none" stroke="rgb(0, 0, 0)" stroke-opacity="1.0" stroke-linecap="round" stroke-linejoin="round"/>
    <path d="M 120.00426483154297 140.91140747070312 C 118.82797241210938 158.44480895996094 117.99298095703125 141.80030822753906 110.52699279785156 203.18609619140625" stroke-width="3.0" fill="none" stroke="rgb(0, 0, 0)" stroke-opacity="1.0" stroke-linecap="round" stroke-linejoin="round"/>
    <path d="M 122.67959594726562 61.20708465576172 C 130.3796844482422 75.73054504394531 126.19219207763672 71.21507263183594 117.98754119873047 83.54869842529297" stroke-width="3.0" fill="none" stroke="rgb(0, 0, 0)" stroke-opacity="1.0" stroke-linecap="round" stroke-linejoin="round"/>
    <path d="M 142.7491455078125 96.36676025390625 C 141.22837829589844 91.1637954711914 135.739013671875 101.33660125732422 143.57347106933594 88.3712387084961" stroke-width="3.0" fill="none" stroke="rgb(0, 0, 0)" stroke-opacity="1.0" stroke-linecap="round" stroke-linejoin="round"/>
    <path d="M 136.35733032226562 67.14502716064453 C 133.1718292236328 86.51494598388672 127.544921875 86.0728988647461 130.60597229003906 74.46275329589844" stroke-width="3.0" fill="none" stroke="rgb(0, 0, 0)" stroke-opacity="1.0" stroke-linecap="round" stroke-linejoin="round"/>
    <path d="M 132.18191528320312 76.56687927246094 C 125.53865051269531 88.95967864990234 130.93328857421875 63.29825973510742 134.41807556152344 83.15825653076172" stroke-width="3.0" fill="none" stroke="rgb(0, 0, 0)" stroke-opacity="1.0" stroke-linecap="round" stroke-linejoin="round"/>
    <path d="M 119.8121109008789 130.19833374023438 C 129.6699981689453 138.6240692138672 133.36563110351562 122.07535552978516 122.16895294189453 135.08677673339844" stroke-width="3.0" fill="none" stroke="rgb(0, 0, 0)" stroke-opacity="1.0" stroke-linecap="round" stroke-linejoin="round"/>
    <path d="M 125.5213851928711 49.65249252319336 C 126.19444274902344 57.266380310058594 133.99085998535156 45.140377044677734 146.848388671875 59.55342102050781" stroke-width="3.0" fill="none" stroke="rgb(0, 0, 0)" stroke-opacity="1.0" stroke-linecap="round" stroke-linejoin="round"/>
    <path d="M 118.4298095703125 51.05796813964844 C 124.68070220947266 59.89170455932617 124.97796630859375 49.834068298339844 134.8233184814453 58.70573425292969" stroke-width="3.0" fill="none" stroke="rgb(0, 0, 0)" stroke-opacity="1.0" stroke-linecap="round" stroke-linejoin="round"/>
  </g>
</svg>
