<?xml version="1.0" ?>
<svg xmlns="http://www.w3.org/2000/svg" version="1.1" width="224" height="224">
  <defs/>
  <g>
    <path d="M 155.1412811279297 72.61560821533203 C 139.51266479492188 89.1852035522461 114.26856231689453 103.32280731201172 134.25157165527344 95.49604034423828" stroke-width="3.0" fill="none" stroke="rgb(0, 0, 0)" stroke-opacity="1.0" stroke-linecap="round" stroke-linejoin="round"/>
    <path d="M 178.04701232910156 97.48455810546875 C 183.41397094726562 84.03394317626953 191.63043212890625 89.79021453857422 171.39036560058594 102.75232696533203" stroke-width="3.0" fill="none" stroke="rgb(0, 0, 0)" stroke-opacity="1.0" stroke-linecap="round" stroke-linejoin="round"/>
    <path d="M 68.21983337402344 44.95552062988281 C 41.971927642822266 90.48417663574219 71.19145202636719 122.03179168701172 101.5169677734375 85.54967498779297" stroke-width="3.0" fill="none" stroke="rgb(0, 0, 0)" stroke-opacity="1.0" stroke-linecap="round" stroke-linejoin="round"/>
    <path d="M 115.64572143554688 90.67217254638672 C 111.89813995361328 89.94324493408203 152.48780822753906 86.99956512451172 103.86640167236328 96.5417709350586" stroke-width="3.0" fill="none" stroke="rgb(0, 0, 0)" stroke-opacity="1.0" stroke-linecap="round" stroke-linejoin="round"/>
    <path d="M 182.29383850097656 91.5047378540039 C 201.3241424560547 85.01976013183594 203.07662963867188 80.32017517089844 200.6602020263672 81.86827850341797" stroke-width="3.0" fill="none" stroke="rgb(0, 0, 0)" stroke-opacity="1.0" stroke-linecap="round" stroke-linejoin="round"/>
    <path d="M 127.3407211303711 53.489830017089844 C 131.95883178710938 103.7686538696289 94.77242279052734 118.20991516113281 117.66227722167969 68.23844909667969" stroke-width="3.0" fill="none" stroke="rgb(0, 0, 0)" stroke-opacity="1.0" stroke-linecap="round" stroke-linejoin="round"/>
    <path d="M 142.8145294189453 56.58119201660156 C 161.16810607910156 71.28304290771484 140.6106719970703 51.183921813964844 157.32437133789062 66.67740631103516" stroke-width="3.0" fill="none" stroke="rgb(0, 0, 0)" stroke-opacity="1.0" stroke-linecap="round" stroke-linejoin="round"/>
    <path d="M 86.77607727050781 101.26664733886719 C 128.62913513183594 94.00099182128906 110.63054656982422 101.086669921875 122.98955535888672 132.24339294433594" stroke-width="3.0" fill="none" stroke="rgb(0, 0, 0)" stroke-opacity="1.0" stroke-linecap="round" stroke-linejoin="round"/>
    <path d="M 135.1875 132.82766723632812 C 116.3277587890625 163.32701110839844 121.27359771728516 138.4097442626953 101.959228515625 204.2539520263672" stroke-width="3.0" fill="none" stroke="rgb(0, 0, 0)" stroke-opacity="1.0" stroke-linecap="round" stroke-linejoin="round"/>
    <path d="M 118.9578628540039 54.40030288696289 C 142.19711303710938 71.85810089111328 106.17108154296875 49.85316467285156 91.64044952392578 96.24008178710938" stroke-width="3.0" fill="none" stroke="rgb(0, 0, 0)" stroke-opacity="1.0" stroke-linecap="round" stroke-linejoin="round"/>
    <path d="M 124.26048278808594 83.47486114501953 C 151.32757568359375 75.901611328125 121.79579162597656 66.11669921875 150.6400909423828 64.01473999023438" stroke-width="3.0" fill="none" stroke="rgb(0, 0, 0)" stroke-opacity="1.0" stroke-linecap="round" stroke-linejoin="round"/>
    <path d="M 150.44638061523438 74.10968017578125 C 134.67051696777344 89.46956634521484 138.2962646484375 105.09599304199219 146.7904510498047 68.10235595703125" stroke-width="3.0" fill="none" stroke="rgb(0, 0, 0)" stroke-opacity="1.0" stroke-linecap="round" stroke-linejoin="round"/>
    <path d="M 132.3979949951172 67.08251190185547 C 134.38003540039062 87.74195861816406 138.5521697998047 48.35279083251953 142.06199645996094 53.61826705932617" stroke-width="3.0" fill="none" stroke="rgb(0, 0, 0)" stroke-opacity="1.0" stroke-linecap="round" stroke-linejoin="round"/>
    <path d="M 125.0311508178711 126.05437469482422 C 138.18223571777344 143.20968627929688 125.93778991699219 106.57271575927734 117.87287902832031 134.8908233642578" stroke-width="3.0" fill="none" stroke="rgb(0, 0, 0)" stroke-opacity="1.0" stroke-linecap="round" stroke-linejoin="round"/>
    <path d="M 135.18380737304688 46.99003219604492 C 153.48533630371094 60.62944793701172 142.60430908203125 46.44967269897461 152.8192901611328 62.493682861328125" stroke-width="3.0" fill="none" stroke="rgb(0, 0, 0)" stroke-opacity="1.0" stroke-linecap="round" stroke-linejoin="round"/>
    <path d="M 124.13015747070312 51.167579650878906 C 116.65274047851562 50.703575134277344 147.39535522460938 35.40091323852539 137.19227600097656 60.220882415771484" stroke-width="3.0" fill="none" stroke="rgb(0, 0, 0)" stroke-opacity="1.0" stroke-linecap="round" stroke-linejoin="round"/>
  </g>
</svg>
