<?xml version="1.0" ?>
<svg xmlns="http://www.w3.org/2000/svg" version="1.1" width="224" height="224">
  <defs/>
  <g>
    <path d="M 133.5906524658203 74.5270767211914 C 136.44076538085938 86.37297058105469 120.61882781982422 102.3337173461914 125.05371856689453 81.34082794189453" stroke-width="3.0" fill="none" stroke="rgb(0, 0, 0)" stroke-opacity="1.0" stroke-linecap="round" stroke-linejoin="round"/>
    <path d="M 182.0120086669922 95.57640838623047 C 183.9801025390625 85.68708038330078 189.87762451171875 84.43981170654297 176.86080932617188 108.20867156982422" stroke-width="3.0" fill="none" stroke="rgb(0, 0, 0)" stroke-opacity="1.0" stroke-linecap="round" stroke-linejoin="round"/>
    <path d="M 69.8621597290039 52.172359466552734 C 37.238609313964844 85.88212585449219 66.83781433105469 115.22261810302734 99.90948486328125 92.69326782226562" stroke-width="3.0" fill="none" stroke="rgb(0, 0, 0)" stroke-opacity="1.0" stroke-linecap="round" stroke-linejoin="round"/>
    <path d="M 113.51409149169922 93.41989135742188 C 109.51305389404297 95.13152313232422 144.5425262451172 84.34259033203125 116.12602233886719 102.0173568725586" stroke-width="3.0" fill="none" stroke="rgb(0, 0, 0)" stroke-opacity="1.0" stroke-linecap="round" stroke-linejoin="round"/>
    <path d="M 183.46749877929688 91.645263671875 C 194.93875122070312 78.3842544555664 194.59828186035156 64.85541534423828 193.00296020507812 78.79052734375" stroke-width="3.0" fill="none" stroke="rgb(0, 0, 0)" stroke-opacity="1.0" stroke-linecap="round" stroke-linejoin="round"/>
    <path d="M 131.34060668945312 67.68580627441406 C 132.93699645996094 91.48766326904297 118.01639556884766 103.23221588134766 130.62640380859375 78.5810775756836" stroke-width="3.0" fill="none" stroke="rgb(0, 0, 0)" stroke-opacity="1.0" stroke-linecap="round" stroke-linejoin="round"/>
    <path d="M 140.7076873779297 58.29072189331055 C 158.44471740722656 70.24462890625 137.26889038085938 54.34280776977539 155.97958374023438 68.22709655761719" stroke-width="3.0" fill="none" stroke="rgb(0, 0, 0)" stroke-opacity="1.0" stroke-linecap="round" stroke-linejoin="round"/>
    <path d="M 89.13597869873047 101.2782211303711 C 126.28225708007812 90.08193969726562 106.90923309326172 106.80093383789062 124.20598602294922 125.96058654785156" stroke-width="3.0" fill="none" stroke="rgb(0, 0, 0)" stroke-opacity="1.0" stroke-linecap="round" stroke-linejoin="round"/>
    <path d="M 126.57640838623047 131.15269470214844 C 110.31013488769531 153.0254364013672 123.65691375732422 143.6568145751953 105.02218627929688 203.94886779785156" stroke-width="3.0" fill="none" stroke="rgb(0, 0, 0)" stroke-opacity="1.0" stroke-linecap="round" stroke-linejoin="round"/>
    <path d="M 124.7490005493164 53.01028060913086 C 132.69297790527344 61.567779541015625 114.62894439697266 52.13111114501953 107.32665252685547 84.62863159179688" stroke-width="3.0" fill="none" stroke="rgb(0, 0, 0)" stroke-opacity="1.0" stroke-linecap="round" stroke-linejoin="round"/>
    <path d="M 137.673583984375 87.15220642089844 C 147.98228454589844 79.31432342529297 124.93711853027344 75.21723175048828 154.13621520996094 71.78958129882812" stroke-width="3.0" fill="none" stroke="rgb(0, 0, 0)" stroke-opacity="1.0" stroke-linecap="round" stroke-linejoin="round"/>
    <path d="M 144.4274139404297 63.492000579833984 C 133.81973266601562 92.46134185791016 137.0433807373047 105.97100830078125 140.6214141845703 70.86669921875" stroke-width="3.0" fill="none" stroke="rgb(0, 0, 0)" stroke-opacity="1.0" stroke-linecap="round" stroke-linejoin="round"/>
    <path d="M 140.45896911621094 56.449058532714844 C 149.48110961914062 92.65874481201172 141.76284790039062 66.86661529541016 133.4355926513672 63.8194465637207" stroke-width="3.0" fill="none" stroke="rgb(0, 0, 0)" stroke-opacity="1.0" stroke-linecap="round" stroke-linejoin="round"/>
    <path d="M 125.78363037109375 124.38873291015625 C 139.4478759765625 146.4993896484375 123.31780242919922 100.22724151611328 121.7049789428711 140.32867431640625" stroke-width="3.0" fill="none" stroke="rgb(0, 0, 0)" stroke-opacity="1.0" stroke-linecap="round" stroke-linejoin="round"/>
    <path d="M 139.50550842285156 55.106075286865234 C 139.5915985107422 63.54623031616211 136.58729553222656 46.22838592529297 149.00770568847656 60.39876937866211" stroke-width="3.0" fill="none" stroke="rgb(0, 0, 0)" stroke-opacity="1.0" stroke-linecap="round" stroke-linejoin="round"/>
    <path d="M 126.78983306884766 48.14791488647461 C 128.07650756835938 56.77385330200195 129.46620178222656 31.374526977539062 138.59239196777344 68.48445892333984" stroke-width="3.0" fill="none" stroke="rgb(0, 0, 0)" stroke-opacity="1.0" stroke-linecap="round" stroke-linejoin="round"/>
  </g>
</svg>
