<?xml version="1.0" ?>
<svg xmlns="http://www.w3.org/2000/svg" version="1.1" width="224" height="224">
  <defs/>
  <g>
    <path d="M 183.5631103515625 96.0960464477539 C 178.4683837890625 78.5502700805664 34.649192810058594 93.93192291259766 118.57807922363281 73.45348358154297" stroke-width="3.0" fill="none" stroke="rgb(0, 0, 0)" stroke-opacity="1.0" stroke-linecap="round" stroke-linejoin="round"/>
    <path d="M 186.44146728515625 98.6937255859375 C 181.32504272460938 100.06636810302734 206.29107666015625 89.18096160888672 131.2220916748047 120.68991088867188" stroke-width="3.0" fill="none" stroke="rgb(0, 0, 0)" stroke-opacity="1.0" stroke-linecap="round" stroke-linejoin="round"/>
    <path d="M 58.865684509277344 41.411556243896484 C 8.705865859985352 24.55179214477539 76.14900207519531 141.81887817382812 85.93708801269531 60.0616569519043" stroke-width="3.0" fill="none" stroke="rgb(0, 0, 0)" stroke-opacity="1.0" stroke-linecap="round" stroke-linejoin="round"/>
    <path d="M 91.22379302978516 62.82817077636719 C 155.89842224121094 58.95751190185547 204.82086181640625 105.43440246582031 108.36194610595703 74.24946594238281" stroke-width="3.0" fill="none" stroke="rgb(0, 0, 0)" stroke-opacity="1.0" stroke-linecap="round" stroke-linejoin="round"/>
    <path d="M 128.58045959472656 70.05169677734375 C 204.16165161132812 100.49458312988281 168.7840576171875 77.25011444091797 170.814453125 85.08174896240234" stroke-width="3.0" fill="none" stroke="rgb(0, 0, 0)" stroke-opacity="1.0" stroke-linecap="round" stroke-linejoin="round"/>
    <path d="M 105.46837615966797 54.30569839477539 C 122.62673950195312 70.64924621582031 51.589263916015625 141.65640258789062 82.40443420410156 107.12183380126953" stroke-width="3.0" fill="none" stroke="rgb(0, 0, 0)" stroke-opacity="1.0" stroke-linecap="round" stroke-linejoin="round"/>
    <path d="M 156.2147979736328 83.1412353515625 C 3.498249053955078 57.6597900390625 152.733642578125 25.375802993774414 188.67189025878906 95.78587341308594" stroke-width="3.0" fill="none" stroke="rgb(0, 0, 0)" stroke-opacity="1.0" stroke-linecap="round" stroke-linejoin="round"/>
    <path d="M 90.75635528564453 66.32625579833984 C 115.79080200195312 111.9600601196289 110.97884368896484 61.780799865722656 120.17462158203125 144.9305419921875" stroke-width="3.0" fill="none" stroke="rgb(0, 0, 0)" stroke-opacity="1.0" stroke-linecap="round" stroke-linejoin="round"/>
    <path d="M 124.16169738769531 93.0607681274414 C 117.01280212402344 205.18104553222656 130.36135864257812 95.7193374633789 103.57218170166016 206.67860412597656" stroke-width="3.0" fill="none" stroke="rgb(0, 0, 0)" stroke-opacity="1.0" stroke-linecap="round" stroke-linejoin="round"/>
    <path d="M 153.47317504882812 62.39512252807617 C 143.2439422607422 46.576637268066406 105.46151733398438 23.01555633544922 83.08440399169922 82.92963409423828" stroke-width="3.0" fill="none" stroke="rgb(0, 0, 0)" stroke-opacity="1.0" stroke-linecap="round" stroke-linejoin="round"/>
    <path d="M 95.046875 69.67984008789062 C 132.18185424804688 20.36701774597168 135.27932739257812 53.134727478027344 163.70712280273438 89.22756958007812" stroke-width="3.0" fill="none" stroke="rgb(0, 0, 0)" stroke-opacity="1.0" stroke-linecap="round" stroke-linejoin="round"/>
    <path d="M 153.0371856689453 66.7247543334961 C 163.70175170898438 79.1255111694336 239.61924743652344 120.57557678222656 137.57638549804688 63.819149017333984" stroke-width="3.0" fill="none" stroke="rgb(0, 0, 0)" stroke-opacity="1.0" stroke-linecap="round" stroke-linejoin="round"/>
    <path d="M 158.4221649169922 71.64214324951172 C 197.30714416503906 98.95758056640625 170.3343505859375 86.0107650756836 115.17770385742188 56.64755630493164" stroke-width="3.0" fill="none" stroke="rgb(0, 0, 0)" stroke-opacity="1.0" stroke-linecap="round" stroke-linejoin="round"/>
    <path d="M 123.31442260742188 121.93296813964844 C 140.42568969726562 151.05990600585938 134.55465698242188 101.33914184570312 116.8102798461914 149.5371551513672" stroke-width="3.0" fill="none" stroke="rgb(0, 0, 0)" stroke-opacity="1.0" stroke-linecap="round" stroke-linejoin="round"/>
    <path d="M 94.37781524658203 84.82000732421875 C 183.53515625 102.49290466308594 155.51315307617188 53.14256286621094 149.63058471679688 84.07763671875" stroke-width="3.0" fill="none" stroke="rgb(0, 0, 0)" stroke-opacity="1.0" stroke-linecap="round" stroke-linejoin="round"/>
    <path d="M 143.9134521484375 81.5994644165039 C 44.433937072753906 42.20923614501953 167.8039093017578 67.74455261230469 120.41505432128906 48.205108642578125" stroke-width="3.0" fill="none" stroke="rgb(0, 0, 0)" stroke-opacity="1.0" stroke-linecap="round" stroke-linejoin="round"/>
  </g>
</svg>
