<?xml version="1.0" ?>
<svg xmlns="http://www.w3.org/2000/svg" version="1.1" width="224" height="224">
  <defs/>
  <g>
    <path d="M 185.8633575439453 96.95196533203125 C 151.4187774658203 80.69002532958984 52.800907135009766 92.41495513916016 132.09487915039062 73.30684661865234" stroke-width="3.0" fill="none" stroke="rgb(0, 0, 0)" stroke-opacity="1.0" stroke-linecap="round" stroke-linejoin="round"/>
    <path d="M 188.11488342285156 97.90267944335938 C 171.1936492919922 96.11829376220703 200.14877319335938 90.33486938476562 130.705322265625 121.01009368896484" stroke-width="3.0" fill="none" stroke="rgb(0, 0, 0)" stroke-opacity="1.0" stroke-linecap="round" stroke-linejoin="round"/>
    <path d="M 59.95441818237305 42.113277435302734 C 10.502768516540527 35.471736907958984 72.0172119140625 128.1638946533203 71.09683227539062 63.880367279052734" stroke-width="3.0" fill="none" stroke="rgb(0, 0, 0)" stroke-opacity="1.0" stroke-linecap="round" stroke-linejoin="round"/>
    <path d="M 101.88275909423828 65.44877624511719 C 149.1384735107422 63.564788818359375 199.07144165039062 87.11809539794922 99.42552185058594 82.10155487060547" stroke-width="3.0" fill="none" stroke="rgb(0, 0, 0)" stroke-opacity="1.0" stroke-linecap="round" stroke-linejoin="round"/>
    <path d="M 149.63487243652344 76.01551818847656 C 211.50222778320312 101.76333618164062 172.24583435058594 100.71844482421875 190.26425170898438 95.67324829101562" stroke-width="3.0" fill="none" stroke="rgb(0, 0, 0)" stroke-opacity="1.0" stroke-linecap="round" stroke-linejoin="round"/>
    <path d="M 131.19224548339844 48.02358627319336 C 98.50506591796875 56.44287872314453 32.16609573364258 128.2065887451172 70.05512237548828 75.55438995361328" stroke-width="3.0" fill="none" stroke="rgb(0, 0, 0)" stroke-opacity="1.0" stroke-linecap="round" stroke-linejoin="round"/>
    <path d="M 153.48983764648438 81.59194946289062 C 59.86324691772461 58.13068389892578 154.78294372558594 42.24970626831055 188.90753173828125 95.62157440185547" stroke-width="3.0" fill="none" stroke="rgb(0, 0, 0)" stroke-opacity="1.0" stroke-linecap="round" stroke-linejoin="round"/>
    <path d="M 82.18119812011719 76.21528625488281 C 127.43894958496094 95.57492065429688 116.25202178955078 84.42375946044922 120.50753784179688 144.9506378173828" stroke-width="3.0" fill="none" stroke="rgb(0, 0, 0)" stroke-opacity="1.0" stroke-linecap="round" stroke-linejoin="round"/>
    <path d="M 129.57139587402344 88.0894775390625 C 113.35494995117188 210.8385009765625 127.87451171875 99.92363739013672 105.42123413085938 207.8807373046875" stroke-width="3.0" fill="none" stroke="rgb(0, 0, 0)" stroke-opacity="1.0" stroke-linecap="round" stroke-linejoin="round"/>
    <path d="M 133.01458740234375 47.7180061340332 C 143.7050018310547 48.74726486206055 82.41300964355469 27.553686141967773 75.5294418334961 84.62966918945312" stroke-width="3.0" fill="none" stroke="rgb(0, 0, 0)" stroke-opacity="1.0" stroke-linecap="round" stroke-linejoin="round"/>
    <path d="M 103.27009582519531 53.51192855834961 C 143.4584197998047 37.16179656982422 140.10867309570312 57.903282165527344 169.5870361328125 84.86116027832031" stroke-width="3.0" fill="none" stroke="rgb(0, 0, 0)" stroke-opacity="1.0" stroke-linecap="round" stroke-linejoin="round"/>
    <path d="M 159.06936645507812 75.28927612304688 C 146.33212280273438 63.726253509521484 216.79600524902344 108.87688446044922 146.71438598632812 63.006622314453125" stroke-width="3.0" fill="none" stroke="rgb(0, 0, 0)" stroke-opacity="1.0" stroke-linecap="round" stroke-linejoin="round"/>
    <path d="M 157.9510498046875 74.2871322631836 C 160.3907470703125 98.62905883789062 152.4731903076172 80.27873992919922 146.66957092285156 58.91188049316406" stroke-width="3.0" fill="none" stroke="rgb(0, 0, 0)" stroke-opacity="1.0" stroke-linecap="round" stroke-linejoin="round"/>
    <path d="M 122.84894561767578 126.91606140136719 C 140.36117553710938 170.26669311523438 138.1756134033203 114.13004302978516 116.28759002685547 150.20619201660156" stroke-width="3.0" fill="none" stroke="rgb(0, 0, 0)" stroke-opacity="1.0" stroke-linecap="round" stroke-linejoin="round"/>
    <path d="M 141.07286071777344 66.85381317138672 C 188.7935028076172 91.3390884399414 146.13157653808594 57.47218704223633 152.94969177246094 67.01629638671875" stroke-width="3.0" fill="none" stroke="rgb(0, 0, 0)" stroke-opacity="1.0" stroke-linecap="round" stroke-linejoin="round"/>
    <path d="M 141.19882202148438 66.96630859375 C 113.81890869140625 48.240013122558594 150.96746826171875 68.12203216552734 133.53964233398438 59.26424026489258" stroke-width="3.0" fill="none" stroke="rgb(0, 0, 0)" stroke-opacity="1.0" stroke-linecap="round" stroke-linejoin="round"/>
  </g>
</svg>
