<?xml version="1.0" ?>
<svg xmlns="http://www.w3.org/2000/svg" version="1.1" width="224" height="224">
  <defs/>
  <g>
    <path d="M 154.10650634765625 74.57259368896484 C 142.30813598632812 86.88550567626953 108.02752685546875 89.94442749023438 139.41249084472656 79.59393310546875" stroke-width="3.0" fill="none" stroke="rgb(0, 0, 0)" stroke-opacity="1.0" stroke-linecap="round" stroke-linejoin="round"/>
    <path d="M 175.53128051757812 96.32369232177734 C 161.60488891601562 81.63066101074219 193.85032653808594 90.58842468261719 168.25807189941406 106.28612518310547" stroke-width="3.0" fill="none" stroke="rgb(0, 0, 0)" stroke-opacity="1.0" stroke-linecap="round" stroke-linejoin="round"/>
    <path d="M 63.21115493774414 43.714332580566406 C 24.449735641479492 91.94694519042969 80.7300796508789 124.3105697631836 97.07249450683594 76.13326263427734" stroke-width="3.0" fill="none" stroke="rgb(0, 0, 0)" stroke-opacity="1.0" stroke-linecap="round" stroke-linejoin="round"/>
    <path d="M 124.29176330566406 87.0104751586914 C 110.28498840332031 80.28240203857422 157.69410705566406 86.69725036621094 91.56514739990234 96.32403564453125" stroke-width="3.0" fill="none" stroke="rgb(0, 0, 0)" stroke-opacity="1.0" stroke-linecap="round" stroke-linejoin="round"/>
    <path d="M 170.67889404296875 88.30770874023438 C 200.33522033691406 98.91304016113281 173.68804931640625 92.99913024902344 174.8109588623047 89.30282592773438" stroke-width="3.0" fill="none" stroke="rgb(0, 0, 0)" stroke-opacity="1.0" stroke-linecap="round" stroke-linejoin="round"/>
    <path d="M 147.10528564453125 64.0599136352539 C 127.65864562988281 89.92473602294922 68.72293853759766 110.57261657714844 116.29216766357422 75.13333129882812" stroke-width="3.0" fill="none" stroke="rgb(0, 0, 0)" stroke-opacity="1.0" stroke-linecap="round" stroke-linejoin="round"/>
    <path d="M 142.41116333007812 57.80598068237305 C 162.13406372070312 86.0372085571289 131.6746826171875 42.19212341308594 183.23153686523438 90.04462432861328" stroke-width="3.0" fill="none" stroke="rgb(0, 0, 0)" stroke-opacity="1.0" stroke-linecap="round" stroke-linejoin="round"/>
    <path d="M 66.82524108886719 98.31175994873047 C 117.99735260009766 90.69779968261719 102.95115661621094 88.81763458251953 122.59602355957031 142.3823699951172" stroke-width="3.0" fill="none" stroke="rgb(0, 0, 0)" stroke-opacity="1.0" stroke-linecap="round" stroke-linejoin="round"/>
    <path d="M 137.24090576171875 119.53874969482422 C 120.09439086914062 176.71324157714844 132.75462341308594 117.74417877197266 104.79938507080078 203.81387329101562" stroke-width="3.0" fill="none" stroke="rgb(0, 0, 0)" stroke-opacity="1.0" stroke-linecap="round" stroke-linejoin="round"/>
    <path d="M 134.53102111816406 53.47793197631836 C 142.23683166503906 55.575557708740234 99.60845947265625 35.04346466064453 80.487060546875 87.09490966796875" stroke-width="3.0" fill="none" stroke="rgb(0, 0, 0)" stroke-opacity="1.0" stroke-linecap="round" stroke-linejoin="round"/>
    <path d="M 125.28840637207031 83.81890106201172 C 143.65623474121094 54.70887756347656 109.9656982421875 74.2263412475586 170.83448791503906 88.09415435791016" stroke-width="3.0" fill="none" stroke="rgb(0, 0, 0)" stroke-opacity="1.0" stroke-linecap="round" stroke-linejoin="round"/>
    <path d="M 168.9688262939453 78.75257873535156 C 149.1053009033203 68.24529266357422 153.57423400878906 85.4832992553711 148.0011749267578 71.4679946899414" stroke-width="3.0" fill="none" stroke="rgb(0, 0, 0)" stroke-opacity="1.0" stroke-linecap="round" stroke-linejoin="round"/>
    <path d="M 136.7556915283203 56.7276725769043 C 124.05401611328125 65.8965072631836 139.21580505371094 53.92356491088867 146.1950225830078 58.33253479003906" stroke-width="3.0" fill="none" stroke="rgb(0, 0, 0)" stroke-opacity="1.0" stroke-linecap="round" stroke-linejoin="round"/>
    <path d="M 122.39251708984375 147.26104736328125 C 125.9847183227539 155.6765899658203 127.40650939941406 117.71490478515625 115.33450317382812 146.76876831054688" stroke-width="3.0" fill="none" stroke="rgb(0, 0, 0)" stroke-opacity="1.0" stroke-linecap="round" stroke-linejoin="round"/>
    <path d="M 133.28213500976562 65.22004699707031 C 151.16952514648438 63.24396896362305 126.7500228881836 48.147647857666016 143.67820739746094 64.57554626464844" stroke-width="3.0" fill="none" stroke="rgb(0, 0, 0)" stroke-opacity="1.0" stroke-linecap="round" stroke-linejoin="round"/>
    <path d="M 139.25714111328125 53.36688232421875 C 127.89691162109375 59.762718200683594 152.13206481933594 51.159751892089844 141.4877166748047 63.64966583251953" stroke-width="3.0" fill="none" stroke="rgb(0, 0, 0)" stroke-opacity="1.0" stroke-linecap="round" stroke-linejoin="round"/>
  </g>
</svg>
