<?xml version="1.0" ?>
<svg xmlns="http://www.w3.org/2000/svg" version="1.1" width="224" height="224">
  <defs/>
  <g>
    <path d="M 180.49351501464844 95.7880630493164 C 137.11212158203125 76.61475372314453 44.26747131347656 106.35096740722656 134.54966735839844 69.82588195800781" stroke-width="3.0" fill="none" stroke="rgb(0, 0, 0)" stroke-opacity="1.0" stroke-linecap="round" stroke-linejoin="round"/>
    <path d="M 187.60922241210938 99.47652435302734 C 180.92288208007812 92.57595825195312 201.8554229736328 92.0455093383789 134.7698974609375 121.70101928710938" stroke-width="3.0" fill="none" stroke="rgb(0, 0, 0)" stroke-opacity="1.0" stroke-linecap="round" stroke-linejoin="round"/>
    <path d="M 54.48769760131836 39.43560791015625 C 7.680368900299072 29.433866500854492 65.17558288574219 121.65240478515625 70.80039978027344 63.07544708251953" stroke-width="3.0" fill="none" stroke="rgb(0, 0, 0)" stroke-opacity="1.0" stroke-linecap="round" stroke-linejoin="round"/>
    <path d="M 112.61088562011719 63.92901611328125 C 157.7068328857422 63.40337371826172 210.486083984375 80.53944396972656 97.11649322509766 86.64141082763672" stroke-width="3.0" fill="none" stroke="rgb(0, 0, 0)" stroke-opacity="1.0" stroke-linecap="round" stroke-linejoin="round"/>
    <path d="M 154.30874633789062 78.7883529663086 C 210.43820190429688 105.77410888671875 167.8092803955078 101.98974609375 188.86102294921875 96.76666259765625" stroke-width="3.0" fill="none" stroke="rgb(0, 0, 0)" stroke-opacity="1.0" stroke-linecap="round" stroke-linejoin="round"/>
    <path d="M 139.89004516601562 51.800331115722656 C 105.10858154296875 62.408260345458984 35.89938735961914 118.4580078125 68.73592376708984 70.64511108398438" stroke-width="3.0" fill="none" stroke="rgb(0, 0, 0)" stroke-opacity="1.0" stroke-linecap="round" stroke-linejoin="round"/>
    <path d="M 155.748046875 77.68619537353516 C 74.13975524902344 50.62865447998047 158.29571533203125 41.736812591552734 189.69667053222656 94.4339370727539" stroke-width="3.0" fill="none" stroke="rgb(0, 0, 0)" stroke-opacity="1.0" stroke-linecap="round" stroke-linejoin="round"/>
    <path d="M 82.66484832763672 76.82111358642578 C 126.13995361328125 94.50212097167969 112.57008361816406 84.28921508789062 124.1630630493164 147.58724975585938" stroke-width="3.0" fill="none" stroke="rgb(0, 0, 0)" stroke-opacity="1.0" stroke-linecap="round" stroke-linejoin="round"/>
    <path d="M 128.318359375 90.73545837402344 C 123.72014617919922 201.29173278808594 134.51394653320312 93.43399047851562 106.35377502441406 199.98780822753906" stroke-width="3.0" fill="none" stroke="rgb(0, 0, 0)" stroke-opacity="1.0" stroke-linecap="round" stroke-linejoin="round"/>
    <path d="M 131.42591857910156 47.06296920776367 C 140.111083984375 53.44084930419922 78.760986328125 30.125043869018555 75.06012725830078 83.78086853027344" stroke-width="3.0" fill="none" stroke="rgb(0, 0, 0)" stroke-opacity="1.0" stroke-linecap="round" stroke-linejoin="round"/>
    <path d="M 113.92557525634766 53.83141326904297 C 146.1451416015625 44.14775085449219 130.693115234375 64.66260528564453 169.64723205566406 80.9630126953125" stroke-width="3.0" fill="none" stroke="rgb(0, 0, 0)" stroke-opacity="1.0" stroke-linecap="round" stroke-linejoin="round"/>
    <path d="M 156.17623901367188 81.68196868896484 C 141.012939453125 74.83264923095703 212.02438354492188 113.61417388916016 152.78268432617188 64.24041748046875" stroke-width="3.0" fill="none" stroke="rgb(0, 0, 0)" stroke-opacity="1.0" stroke-linecap="round" stroke-linejoin="round"/>
    <path d="M 153.90611267089844 67.7506103515625 C 158.3704833984375 90.59459686279297 158.03533935546875 73.14958953857422 146.47621154785156 74.3179702758789" stroke-width="3.0" fill="none" stroke="rgb(0, 0, 0)" stroke-opacity="1.0" stroke-linecap="round" stroke-linejoin="round"/>
    <path d="M 126.12651062011719 121.46987915039062 C 148.97640991210938 156.1815185546875 137.9176025390625 103.83187103271484 117.27593994140625 150.61276245117188" stroke-width="3.0" fill="none" stroke="rgb(0, 0, 0)" stroke-opacity="1.0" stroke-linecap="round" stroke-linejoin="round"/>
    <path d="M 140.65017700195312 78.92213439941406 C 176.77349853515625 91.60444641113281 138.7369384765625 57.47965621948242 153.5919952392578 66.0748062133789" stroke-width="3.0" fill="none" stroke="rgb(0, 0, 0)" stroke-opacity="1.0" stroke-linecap="round" stroke-linejoin="round"/>
    <path d="M 136.3719482421875 49.98345184326172 C 126.64114379882812 44.0566291809082 157.93040466308594 63.1685676574707 143.29664611816406 62.519168853759766" stroke-width="3.0" fill="none" stroke="rgb(0, 0, 0)" stroke-opacity="1.0" stroke-linecap="round" stroke-linejoin="round"/>
  </g>
</svg>
