<?xml version="1.0" ?>
<svg xmlns="http://www.w3.org/2000/svg" version="1.1" width="224" height="224">
  <defs/>
  <g>
    <path d="M 180.96304321289062 92.43497467041016 C 164.6208953857422 81.84274291992188 53.385780334472656 102.60391235351562 130.38668823242188 85.1848373413086" stroke-width="3.0" fill="none" stroke="rgb(0, 0, 0)" stroke-opacity="1.0" stroke-linecap="round" stroke-linejoin="round"/>
    <path d="M 190.20562744140625 99.7648696899414 C 175.19000244140625 94.77806091308594 203.9898681640625 92.36407470703125 133.83863830566406 119.8308334350586" stroke-width="3.0" fill="none" stroke="rgb(0, 0, 0)" stroke-opacity="1.0" stroke-linecap="round" stroke-linejoin="round"/>
    <path d="M 57.7061653137207 41.159183502197266 C 4.8982648849487305 42.29236602783203 76.4434814453125 134.63214111328125 67.55502319335938 67.06842803955078" stroke-width="3.0" fill="none" stroke="rgb(0, 0, 0)" stroke-opacity="1.0" stroke-linecap="round" stroke-linejoin="round"/>
    <path d="M 90.37682342529297 64.89318084716797 C 144.85614013671875 67.5920181274414 195.94436645507812 95.23909759521484 96.38705444335938 81.92672729492188" stroke-width="3.0" fill="none" stroke="rgb(0, 0, 0)" stroke-opacity="1.0" stroke-linecap="round" stroke-linejoin="round"/>
    <path d="M 141.41036987304688 78.16029357910156 C 210.6417999267578 95.7798843383789 166.8400115966797 104.38511657714844 184.45651245117188 97.67323303222656" stroke-width="3.0" fill="none" stroke="rgb(0, 0, 0)" stroke-opacity="1.0" stroke-linecap="round" stroke-linejoin="round"/>
    <path d="M 107.84646606445312 44.91830825805664 C 93.54702758789062 52.18440628051758 36.19415283203125 143.65826416015625 72.58097076416016 83.44098663330078" stroke-width="3.0" fill="none" stroke="rgb(0, 0, 0)" stroke-opacity="1.0" stroke-linecap="round" stroke-linejoin="round"/>
    <path d="M 139.92132568359375 82.90992736816406 C 13.013876914978027 62.94627380371094 154.47579956054688 30.508316040039062 190.83143615722656 95.94255065917969" stroke-width="3.0" fill="none" stroke="rgb(0, 0, 0)" stroke-opacity="1.0" stroke-linecap="round" stroke-linejoin="round"/>
    <path d="M 80.6585922241211 78.31617736816406 C 119.71318054199219 105.34761047363281 109.03819274902344 83.96525573730469 123.85929870605469 144.13368225097656" stroke-width="3.0" fill="none" stroke="rgb(0, 0, 0)" stroke-opacity="1.0" stroke-linecap="round" stroke-linejoin="round"/>
    <path d="M 127.56543731689453 90.63655853271484 C 124.49473571777344 207.37484741210938 134.0104522705078 91.87277221679688 105.1720962524414 205.54348754882812" stroke-width="3.0" fill="none" stroke="rgb(0, 0, 0)" stroke-opacity="1.0" stroke-linecap="round" stroke-linejoin="round"/>
    <path d="M 130.85888671875 46.90333938598633 C 132.9297332763672 51.28297424316406 80.51739501953125 21.79779815673828 73.90666198730469 86.92465209960938" stroke-width="3.0" fill="none" stroke="rgb(0, 0, 0)" stroke-opacity="1.0" stroke-linecap="round" stroke-linejoin="round"/>
    <path d="M 96.36663055419922 59.60643005371094 C 138.10369873046875 37.98115539550781 143.330322265625 57.50933837890625 169.74124145507812 84.76945495605469" stroke-width="3.0" fill="none" stroke="rgb(0, 0, 0)" stroke-opacity="1.0" stroke-linecap="round" stroke-linejoin="round"/>
    <path d="M 151.98670959472656 87.59228515625 C 145.4247589111328 81.92466735839844 234.4384002685547 115.19502258300781 141.86892700195312 53.948585510253906" stroke-width="3.0" fill="none" stroke="rgb(0, 0, 0)" stroke-opacity="1.0" stroke-linecap="round" stroke-linejoin="round"/>
    <path d="M 153.25823974609375 73.240966796875 C 174.23049926757812 93.7431640625 164.90843200683594 77.72652435302734 140.41622924804688 67.4619369506836" stroke-width="3.0" fill="none" stroke="rgb(0, 0, 0)" stroke-opacity="1.0" stroke-linecap="round" stroke-linejoin="round"/>
    <path d="M 124.47005462646484 121.28256225585938 C 146.80880737304688 156.0248260498047 135.5665740966797 102.09434509277344 115.81423950195312 150.92105102539062" stroke-width="3.0" fill="none" stroke="rgb(0, 0, 0)" stroke-opacity="1.0" stroke-linecap="round" stroke-linejoin="round"/>
    <path d="M 128.67257690429688 76.22615814208984 C 175.99163818359375 106.08993530273438 140.23028564453125 56.12147903442383 147.71044921875 65.62435150146484" stroke-width="3.0" fill="none" stroke="rgb(0, 0, 0)" stroke-opacity="1.0" stroke-linecap="round" stroke-linejoin="round"/>
    <path d="M 146.39735412597656 71.94422912597656 C 108.13056945800781 49.09416580200195 163.5350799560547 68.95178985595703 130.7747039794922 54.774192810058594" stroke-width="3.0" fill="none" stroke="rgb(0, 0, 0)" stroke-opacity="1.0" stroke-linecap="round" stroke-linejoin="round"/>
  </g>
</svg>
