<?xml version="1.0" ?>
<svg xmlns="http://www.w3.org/2000/svg" version="1.1" width="224" height="224">
  <defs/>
  <g>
    <path d="M 177.6165313720703 92.87236785888672 C 161.63458251953125 83.10111999511719 33.18423080444336 98.49201965332031 126.0389404296875 66.51117706298828" stroke-width="3.0" fill="none" stroke="rgb(0, 0, 0)" stroke-opacity="1.0" stroke-linecap="round" stroke-linejoin="round"/>
    <path d="M 179.54393005371094 94.48778533935547 C 177.5002899169922 101.92064666748047 203.63992309570312 87.86929321289062 132.02891540527344 119.69763946533203" stroke-width="3.0" fill="none" stroke="rgb(0, 0, 0)" stroke-opacity="1.0" stroke-linecap="round" stroke-linejoin="round"/>
    <path d="M 60.002906799316406 41.39485549926758 C 5.616304874420166 25.882068634033203 61.53078842163086 144.65328979492188 84.64580535888672 62.911659240722656" stroke-width="3.0" fill="none" stroke="rgb(0, 0, 0)" stroke-opacity="1.0" stroke-linecap="round" stroke-linejoin="round"/>
    <path d="M 103.42254638671875 62.17256546020508 C 152.3253173828125 66.48902893066406 208.7307586669922 101.79498291015625 108.01080322265625 76.7823715209961" stroke-width="3.0" fill="none" stroke="rgb(0, 0, 0)" stroke-opacity="1.0" stroke-linecap="round" stroke-linejoin="round"/>
    <path d="M 119.1743392944336 72.13357543945312 C 206.4687042236328 102.51008605957031 175.29164123535156 92.06847381591797 179.74928283691406 94.13282775878906" stroke-width="3.0" fill="none" stroke="rgb(0, 0, 0)" stroke-opacity="1.0" stroke-linecap="round" stroke-linejoin="round"/>
    <path d="M 104.05948638916016 51.18556213378906 C 113.0955581665039 60.27906799316406 37.73741149902344 137.12640380859375 74.33860778808594 98.66178894042969" stroke-width="3.0" fill="none" stroke="rgb(0, 0, 0)" stroke-opacity="1.0" stroke-linecap="round" stroke-linejoin="round"/>
    <path d="M 145.51010131835938 77.94965362548828 C 8.044398307800293 62.984867095947266 151.45391845703125 30.63427734375 187.24346923828125 99.07405090332031" stroke-width="3.0" fill="none" stroke="rgb(0, 0, 0)" stroke-opacity="1.0" stroke-linecap="round" stroke-linejoin="round"/>
    <path d="M 87.16614532470703 75.53450775146484 C 114.7120590209961 113.39848327636719 118.61721801757812 60.58675003051758 121.1102066040039 143.8958282470703" stroke-width="3.0" fill="none" stroke="rgb(0, 0, 0)" stroke-opacity="1.0" stroke-linecap="round" stroke-linejoin="round"/>
    <path d="M 128.14242553710938 93.2197494506836 C 117.81134796142578 202.9452667236328 126.76275634765625 94.6453857421875 105.21627807617188 207.14193725585938" stroke-width="3.0" fill="none" stroke="rgb(0, 0, 0)" stroke-opacity="1.0" stroke-linecap="round" stroke-linejoin="round"/>
    <path d="M 145.55020141601562 66.76060485839844 C 135.53883361816406 48.743919372558594 98.10914611816406 22.35512351989746 82.66121673583984 86.30097198486328" stroke-width="3.0" fill="none" stroke="rgb(0, 0, 0)" stroke-opacity="1.0" stroke-linecap="round" stroke-linejoin="round"/>
    <path d="M 93.9985580444336 64.74555969238281 C 143.6456298828125 33.460208892822266 140.52731323242188 53.59079360961914 169.8057403564453 84.58170318603516" stroke-width="3.0" fill="none" stroke="rgb(0, 0, 0)" stroke-opacity="1.0" stroke-linecap="round" stroke-linejoin="round"/>
    <path d="M 154.0208740234375 73.21266174316406 C 159.79837036132812 88.5956039428711 244.7086181640625 128.54676818847656 143.6766815185547 53.074501037597656" stroke-width="3.0" fill="none" stroke="rgb(0, 0, 0)" stroke-opacity="1.0" stroke-linecap="round" stroke-linejoin="round"/>
    <path d="M 152.75927734375 71.14653015136719 C 182.46640014648438 113.59178161621094 168.73202514648438 87.52217102050781 130.83592224121094 59.94670104980469" stroke-width="3.0" fill="none" stroke="rgb(0, 0, 0)" stroke-opacity="1.0" stroke-linecap="round" stroke-linejoin="round"/>
    <path d="M 125.76925659179688 122.53913879394531 C 137.94793701171875 149.521484375 140.23550415039062 102.51353454589844 115.37918853759766 149.3280029296875" stroke-width="3.0" fill="none" stroke="rgb(0, 0, 0)" stroke-opacity="1.0" stroke-linecap="round" stroke-linejoin="round"/>
    <path d="M 107.8371810913086 80.5059814453125 C 183.2521209716797 108.79780578613281 141.42263793945312 59.247108459472656 139.42715454101562 67.85162353515625" stroke-width="3.0" fill="none" stroke="rgb(0, 0, 0)" stroke-opacity="1.0" stroke-linecap="round" stroke-linejoin="round"/>
    <path d="M 144.5576171875 75.75094604492188 C 64.49317169189453 36.075443267822266 159.43296813964844 68.68378448486328 126.68419647216797 47.404884338378906" stroke-width="3.0" fill="none" stroke="rgb(0, 0, 0)" stroke-opacity="1.0" stroke-linecap="round" stroke-linejoin="round"/>
  </g>
</svg>
