<?xml version="1.0" ?>
<svg xmlns="http://www.w3.org/2000/svg" version="1.1" width="224" height="224">
  <defs/>
  <g>
    <path d="M 172.82933044433594 90.03084564208984 C 137.0127716064453 78.50881958007812 100.64636993408203 88.69095611572266 146.3513946533203 84.65693664550781" stroke-width="3.0" fill="none" stroke="rgb(0, 0, 0)" stroke-opacity="1.0" stroke-linecap="round" stroke-linejoin="round"/>
    <path d="M 175.05511474609375 87.54408264160156 C 174.4495849609375 94.80352020263672 195.20803833007812 90.3609390258789 158.30929565429688 110.83454895019531" stroke-width="3.0" fill="none" stroke="rgb(0, 0, 0)" stroke-opacity="1.0" stroke-linecap="round" stroke-linejoin="round"/>
    <path d="M 45.001834869384766 35.0992431640625 C 11.249112129211426 58.257164001464844 86.08584594726562 129.56243896484375 88.2840576171875 70.78237915039062" stroke-width="3.0" fill="none" stroke="rgb(0, 0, 0)" stroke-opacity="1.0" stroke-linecap="round" stroke-linejoin="round"/>
    <path d="M 102.31370544433594 74.26020812988281 C 141.55458068847656 72.20634460449219 181.1669158935547 77.90624237060547 105.16136932373047 94.08570861816406" stroke-width="3.0" fill="none" stroke="rgb(0, 0, 0)" stroke-opacity="1.0" stroke-linecap="round" stroke-linejoin="round"/>
    <path d="M 157.56825256347656 85.3663330078125 C 213.13665771484375 104.18546295166016 170.20602416992188 99.08131408691406 185.0991973876953 98.42927551269531" stroke-width="3.0" fill="none" stroke="rgb(0, 0, 0)" stroke-opacity="1.0" stroke-linecap="round" stroke-linejoin="round"/>
    <path d="M 145.2568359375 57.0158805847168 C 121.81442260742188 75.2737045288086 66.635986328125 97.95111846923828 87.41293334960938 57.959022521972656" stroke-width="3.0" fill="none" stroke="rgb(0, 0, 0)" stroke-opacity="1.0" stroke-linecap="round" stroke-linejoin="round"/>
    <path d="M 144.52175903320312 66.02423095703125 C 133.8398895263672 64.6579818725586 154.7200927734375 45.83373260498047 189.93939208984375 94.44837188720703" stroke-width="3.0" fill="none" stroke="rgb(0, 0, 0)" stroke-opacity="1.0" stroke-linecap="round" stroke-linejoin="round"/>
    <path d="M 85.62043762207031 89.6842041015625 C 118.32910919189453 101.46210479736328 105.7203598022461 81.51475524902344 121.14402770996094 134.53428649902344" stroke-width="3.0" fill="none" stroke="rgb(0, 0, 0)" stroke-opacity="1.0" stroke-linecap="round" stroke-linejoin="round"/>
    <path d="M 140.60098266601562 111.05611419677734 C 116.19961547851562 177.88916015625 135.94723510742188 102.69593811035156 102.87133026123047 207.1063690185547" stroke-width="3.0" fill="none" stroke="rgb(0, 0, 0)" stroke-opacity="1.0" stroke-linecap="round" stroke-linejoin="round"/>
    <path d="M 133.48744201660156 49.46563720703125 C 147.15817260742188 55.5670051574707 86.99029541015625 32.01740264892578 76.59083557128906 81.41569519042969" stroke-width="3.0" fill="none" stroke="rgb(0, 0, 0)" stroke-opacity="1.0" stroke-linecap="round" stroke-linejoin="round"/>
    <path d="M 104.48860168457031 63.87247848510742 C 155.76177978515625 56.78111267089844 131.08323669433594 59.50200653076172 175.1140899658203 85.56808471679688" stroke-width="3.0" fill="none" stroke="rgb(0, 0, 0)" stroke-opacity="1.0" stroke-linecap="round" stroke-linejoin="round"/>
    <path d="M 178.86105346679688 83.69883728027344 C 148.47825622558594 62.49575424194336 175.46051025390625 83.90423583984375 147.81874084472656 77.62191772460938" stroke-width="3.0" fill="none" stroke="rgb(0, 0, 0)" stroke-opacity="1.0" stroke-linecap="round" stroke-linejoin="round"/>
    <path d="M 143.6302032470703 62.97966384887695 C 141.4207763671875 69.0224609375 149.97962951660156 56.31113815307617 147.37637329101562 61.293190002441406" stroke-width="3.0" fill="none" stroke="rgb(0, 0, 0)" stroke-opacity="1.0" stroke-linecap="round" stroke-linejoin="round"/>
    <path d="M 120.6065673828125 131.23683166503906 C 126.68081665039062 143.9040069580078 121.60567474365234 106.8306884765625 113.92218017578125 147.07180786132812" stroke-width="3.0" fill="none" stroke="rgb(0, 0, 0)" stroke-opacity="1.0" stroke-linecap="round" stroke-linejoin="round"/>
    <path d="M 145.06536865234375 61.48540496826172 C 166.0105438232422 64.86628723144531 129.10507202148438 51.01058578491211 150.04197692871094 63.39450454711914" stroke-width="3.0" fill="none" stroke="rgb(0, 0, 0)" stroke-opacity="1.0" stroke-linecap="round" stroke-linejoin="round"/>
    <path d="M 141.8570556640625 54.75844955444336 C 125.64742279052734 48.264556884765625 157.8795623779297 56.16463088989258 146.08334350585938 62.14213562011719" stroke-width="3.0" fill="none" stroke="rgb(0, 0, 0)" stroke-opacity="1.0" stroke-linecap="round" stroke-linejoin="round"/>
  </g>
</svg>
