<?xml version="1.0" ?>
<svg xmlns="http://www.w3.org/2000/svg" version="1.1" width="224" height="224">
  <defs/>
  <g>
    <path d="M 172.06021118164062 88.123291015625 C 127.7012939453125 85.20228576660156 59.478755950927734 103.38068389892578 140.4983673095703 69.77487182617188" stroke-width="3.0" fill="none" stroke="rgb(0, 0, 0)" stroke-opacity="1.0" stroke-linecap="round" stroke-linejoin="round"/>
    <path d="M 182.24693298339844 91.87993621826172 C 177.1807403564453 100.81604766845703 192.94566345214844 90.66400146484375 155.7368927001953 115.38192749023438" stroke-width="3.0" fill="none" stroke="rgb(0, 0, 0)" stroke-opacity="1.0" stroke-linecap="round" stroke-linejoin="round"/>
    <path d="M 43.67050552368164 38.918800354003906 C 13.037864685058594 45.387325286865234 77.53765106201172 137.21470642089844 77.14566802978516 66.04415130615234" stroke-width="3.0" fill="none" stroke="rgb(0, 0, 0)" stroke-opacity="1.0" stroke-linecap="round" stroke-linejoin="round"/>
    <path d="M 107.13984680175781 70.4826889038086 C 148.76231384277344 72.129638671875 195.17864990234375 77.34494018554688 95.30469512939453 85.46563720703125" stroke-width="3.0" fill="none" stroke="rgb(0, 0, 0)" stroke-opacity="1.0" stroke-linecap="round" stroke-linejoin="round"/>
    <path d="M 154.24835205078125 82.32941436767578 C 214.148681640625 112.15582275390625 170.3300323486328 95.36455535888672 182.79913330078125 95.68335723876953" stroke-width="3.0" fill="none" stroke="rgb(0, 0, 0)" stroke-opacity="1.0" stroke-linecap="round" stroke-linejoin="round"/>
    <path d="M 146.19464111328125 63.22869873046875 C 109.1834716796875 64.75041198730469 57.12528610229492 104.71550750732422 84.74362182617188 62.674964904785156" stroke-width="3.0" fill="none" stroke="rgb(0, 0, 0)" stroke-opacity="1.0" stroke-linecap="round" stroke-linejoin="round"/>
    <path d="M 158.96163940429688 67.1397933959961 C 117.48979187011719 56.003631591796875 160.24562072753906 50.9413948059082 189.70050048828125 95.20823669433594" stroke-width="3.0" fill="none" stroke="rgb(0, 0, 0)" stroke-opacity="1.0" stroke-linecap="round" stroke-linejoin="round"/>
    <path d="M 76.98651123046875 87.48177337646484 C 125.0565185546875 98.9919662475586 116.26103210449219 82.18305206298828 120.81201171875 140.20980834960938" stroke-width="3.0" fill="none" stroke="rgb(0, 0, 0)" stroke-opacity="1.0" stroke-linecap="round" stroke-linejoin="round"/>
    <path d="M 131.9839630126953 88.47064971923828 C 113.83738708496094 192.59912109375 131.1267852783203 89.74626159667969 107.96013641357422 205.7255401611328" stroke-width="3.0" fill="none" stroke="rgb(0, 0, 0)" stroke-opacity="1.0" stroke-linecap="round" stroke-linejoin="round"/>
    <path d="M 125.88399505615234 49.485740661621094 C 140.83444213867188 50.69287109375 75.12490844726562 25.33510398864746 68.15453338623047 76.2590560913086" stroke-width="3.0" fill="none" stroke="rgb(0, 0, 0)" stroke-opacity="1.0" stroke-linecap="round" stroke-linejoin="round"/>
    <path d="M 113.3159408569336 46.35449981689453 C 157.40638732910156 48.40516662597656 130.83551025390625 65.91087341308594 173.67567443847656 84.51838684082031" stroke-width="3.0" fill="none" stroke="rgb(0, 0, 0)" stroke-opacity="1.0" stroke-linecap="round" stroke-linejoin="round"/>
    <path d="M 181.43136596679688 86.11968994140625 C 152.16407775878906 74.9798812866211 204.7337188720703 101.60865783691406 144.99229431152344 86.02669525146484" stroke-width="3.0" fill="none" stroke="rgb(0, 0, 0)" stroke-opacity="1.0" stroke-linecap="round" stroke-linejoin="round"/>
    <path d="M 146.19961547851562 64.73628997802734 C 145.6831512451172 72.26564025878906 153.76541137695312 60.614463806152344 143.2948760986328 65.30448913574219" stroke-width="3.0" fill="none" stroke="rgb(0, 0, 0)" stroke-opacity="1.0" stroke-linecap="round" stroke-linejoin="round"/>
    <path d="M 127.76290130615234 120.57893371582031 C 140.35743713378906 144.8488311767578 133.2139434814453 99.89311981201172 117.79984283447266 138.24819946289062" stroke-width="3.0" fill="none" stroke="rgb(0, 0, 0)" stroke-opacity="1.0" stroke-linecap="round" stroke-linejoin="round"/>
    <path d="M 146.66815185546875 64.19612884521484 C 161.08177185058594 68.46365356445312 129.16883850097656 47.798126220703125 147.29959106445312 58.87666702270508" stroke-width="3.0" fill="none" stroke="rgb(0, 0, 0)" stroke-opacity="1.0" stroke-linecap="round" stroke-linejoin="round"/>
    <path d="M 143.54615783691406 57.49736404418945 C 114.75912475585938 53.57547378540039 150.05853271484375 60.39296340942383 141.96490478515625 61.13658142089844" stroke-width="3.0" fill="none" stroke="rgb(0, 0, 0)" stroke-opacity="1.0" stroke-linecap="round" stroke-linejoin="round"/>
  </g>
</svg>
