<?xml version="1.0" ?>
<svg xmlns="http://www.w3.org/2000/svg" version="1.1" width="224" height="224">
  <defs/>
  <g>
    <path d="M 171.2794647216797 90.5665283203125 C 135.7793731689453 81.52207946777344 107.43861389160156 96.78217315673828 145.947998046875 74.71101379394531" stroke-width="3.0" fill="none" stroke="rgb(0, 0, 0)" stroke-opacity="1.0" stroke-linecap="round" stroke-linejoin="round"/>
    <path d="M 174.79139709472656 94.57647705078125 C 172.46473693847656 96.0423812866211 191.21963500976562 88.08454895019531 157.13963317871094 105.56077575683594" stroke-width="3.0" fill="none" stroke="rgb(0, 0, 0)" stroke-opacity="1.0" stroke-linecap="round" stroke-linejoin="round"/>
    <path d="M 46.65483093261719 38.27560806274414 C 14.091339111328125 56.65790557861328 75.6708755493164 141.0469970703125 86.62189483642578 71.66960906982422" stroke-width="3.0" fill="none" stroke="rgb(0, 0, 0)" stroke-opacity="1.0" stroke-linecap="round" stroke-linejoin="round"/>
    <path d="M 97.35333251953125 78.21987915039062 C 150.51148986816406 63.92729187011719 192.62603759765625 74.2522201538086 107.90788269042969 87.36585235595703" stroke-width="3.0" fill="none" stroke="rgb(0, 0, 0)" stroke-opacity="1.0" stroke-linecap="round" stroke-linejoin="round"/>
    <path d="M 160.24375915527344 86.98834228515625 C 215.27374267578125 106.78365325927734 168.38563537597656 95.37275695800781 182.3922882080078 99.56361389160156" stroke-width="3.0" fill="none" stroke="rgb(0, 0, 0)" stroke-opacity="1.0" stroke-linecap="round" stroke-linejoin="round"/>
    <path d="M 147.3953094482422 59.37052536010742 C 114.43656158447266 67.53252410888672 68.13947296142578 99.58847045898438 90.54226684570312 62.760555267333984" stroke-width="3.0" fill="none" stroke="rgb(0, 0, 0)" stroke-opacity="1.0" stroke-linecap="round" stroke-linejoin="round"/>
    <path d="M 152.19180297851562 68.40022277832031 C 129.3030548095703 66.67862701416016 162.23956298828125 53.22243881225586 189.25233459472656 97.85338592529297" stroke-width="3.0" fill="none" stroke="rgb(0, 0, 0)" stroke-opacity="1.0" stroke-linecap="round" stroke-linejoin="round"/>
    <path d="M 84.56893920898438 85.93403625488281 C 123.23365783691406 99.46207427978516 111.82173919677734 81.4720458984375 126.52520751953125 139.1507568359375" stroke-width="3.0" fill="none" stroke="rgb(0, 0, 0)" stroke-opacity="1.0" stroke-linecap="round" stroke-linejoin="round"/>
    <path d="M 139.2191925048828 98.14806365966797 C 115.29823303222656 184.90194702148438 130.63096618652344 98.71791076660156 105.35432434082031 200.27877807617188" stroke-width="3.0" fill="none" stroke="rgb(0, 0, 0)" stroke-opacity="1.0" stroke-linecap="round" stroke-linejoin="round"/>
    <path d="M 112.91584777832031 51.56504821777344 C 134.985595703125 58.73189163208008 86.82174682617188 33.5234260559082 79.3165054321289 76.49281311035156" stroke-width="3.0" fill="none" stroke="rgb(0, 0, 0)" stroke-opacity="1.0" stroke-linecap="round" stroke-linejoin="round"/>
    <path d="M 100.04655456542969 56.003902435302734 C 156.65078735351562 44.848331451416016 132.81825256347656 58.36286544799805 173.3236083984375 87.6129379272461" stroke-width="3.0" fill="none" stroke="rgb(0, 0, 0)" stroke-opacity="1.0" stroke-linecap="round" stroke-linejoin="round"/>
    <path d="M 178.69664001464844 86.29789733886719 C 145.51470947265625 74.59629821777344 179.4835205078125 98.6350326538086 140.67977905273438 80.23609924316406" stroke-width="3.0" fill="none" stroke="rgb(0, 0, 0)" stroke-opacity="1.0" stroke-linecap="round" stroke-linejoin="round"/>
    <path d="M 146.41981506347656 66.25390625 C 142.54888916015625 71.26946258544922 150.8984375 58.358863830566406 147.466796875 62.13972091674805" stroke-width="3.0" fill="none" stroke="rgb(0, 0, 0)" stroke-opacity="1.0" stroke-linecap="round" stroke-linejoin="round"/>
    <path d="M 122.4454116821289 139.5198516845703 C 132.9229736328125 147.081298828125 133.3907928466797 109.5271224975586 116.56781005859375 140.99351501464844" stroke-width="3.0" fill="none" stroke="rgb(0, 0, 0)" stroke-opacity="1.0" stroke-linecap="round" stroke-linejoin="round"/>
    <path d="M 148.3180694580078 64.45986938476562 C 163.95106506347656 69.35472106933594 128.04837036132812 52.46810531616211 148.1141357421875 60.151859283447266" stroke-width="3.0" fill="none" stroke="rgb(0, 0, 0)" stroke-opacity="1.0" stroke-linecap="round" stroke-linejoin="round"/>
    <path d="M 140.18551635742188 55.63362503051758 C 114.08711242675781 50.35630798339844 155.90003967285156 58.23884582519531 149.3086395263672 58.63747787475586" stroke-width="3.0" fill="none" stroke="rgb(0, 0, 0)" stroke-opacity="1.0" stroke-linecap="round" stroke-linejoin="round"/>
  </g>
</svg>
