<?xml version="1.0" ?>
<svg xmlns="http://www.w3.org/2000/svg" version="1.1" width="224" height="224">
  <defs/>
  <g>
    <path d="M 171.2916717529297 85.48368072509766 C 126.83159637451172 83.03353881835938 62.37841033935547 105.8531265258789 141.023681640625 70.28144073486328" stroke-width="3.0" fill="none" stroke="rgb(0, 0, 0)" stroke-opacity="1.0" stroke-linecap="round" stroke-linejoin="round"/>
    <path d="M 181.87632751464844 92.48068237304688 C 176.63525390625 101.61624908447266 192.58157348632812 90.09854125976562 154.3822021484375 111.29907989501953" stroke-width="3.0" fill="none" stroke="rgb(0, 0, 0)" stroke-opacity="1.0" stroke-linecap="round" stroke-linejoin="round"/>
    <path d="M 43.80902099609375 39.93178939819336 C 11.47857666015625 45.510093688964844 78.03895568847656 138.3482666015625 77.27723693847656 65.78437805175781" stroke-width="3.0" fill="none" stroke="rgb(0, 0, 0)" stroke-opacity="1.0" stroke-linecap="round" stroke-linejoin="round"/>
    <path d="M 114.49903106689453 67.9408187866211 C 150.92015075683594 69.27711486816406 196.73545837402344 77.95223999023438 96.22624206542969 87.8440170288086" stroke-width="3.0" fill="none" stroke="rgb(0, 0, 0)" stroke-opacity="1.0" stroke-linecap="round" stroke-linejoin="round"/>
    <path d="M 155.12521362304688 82.72007751464844 C 214.4287872314453 107.77185821533203 168.14015197753906 95.33348083496094 183.0343475341797 95.0734634399414" stroke-width="3.0" fill="none" stroke="rgb(0, 0, 0)" stroke-opacity="1.0" stroke-linecap="round" stroke-linejoin="round"/>
    <path d="M 146.09597778320312 63.04096984863281 C 109.08741760253906 64.71864318847656 56.93873596191406 104.86891174316406 83.41349792480469 60.97456359863281" stroke-width="3.0" fill="none" stroke="rgb(0, 0, 0)" stroke-opacity="1.0" stroke-linecap="round" stroke-linejoin="round"/>
    <path d="M 157.21751403808594 68.56488800048828 C 118.34333038330078 56.11464309692383 159.48606872558594 50.528717041015625 189.58555603027344 95.0465087890625" stroke-width="3.0" fill="none" stroke="rgb(0, 0, 0)" stroke-opacity="1.0" stroke-linecap="round" stroke-linejoin="round"/>
    <path d="M 80.16314697265625 86.59941101074219 C 125.84197235107422 97.30342864990234 119.66726684570312 82.81137084960938 122.99523162841797 137.38082885742188" stroke-width="3.0" fill="none" stroke="rgb(0, 0, 0)" stroke-opacity="1.0" stroke-linecap="round" stroke-linejoin="round"/>
    <path d="M 139.51121520996094 92.59269714355469 C 115.6164321899414 191.91746520996094 133.8371124267578 91.14645385742188 104.16838836669922 205.82456970214844" stroke-width="3.0" fill="none" stroke="rgb(0, 0, 0)" stroke-opacity="1.0" stroke-linecap="round" stroke-linejoin="round"/>
    <path d="M 125.26311492919922 50.14522933959961 C 141.65721130371094 51.24054718017578 77.23809051513672 28.02557373046875 68.98806762695312 75.9313735961914" stroke-width="3.0" fill="none" stroke="rgb(0, 0, 0)" stroke-opacity="1.0" stroke-linecap="round" stroke-linejoin="round"/>
    <path d="M 113.34215545654297 46.909664154052734 C 158.2349090576172 48.24463653564453 131.03009033203125 65.86424255371094 174.7609100341797 84.25040435791016" stroke-width="3.0" fill="none" stroke="rgb(0, 0, 0)" stroke-opacity="1.0" stroke-linecap="round" stroke-linejoin="round"/>
    <path d="M 181.23377990722656 86.13517761230469 C 149.91616821289062 75.28362274169922 202.54856872558594 98.33293151855469 144.63040161132812 86.45944213867188" stroke-width="3.0" fill="none" stroke="rgb(0, 0, 0)" stroke-opacity="1.0" stroke-linecap="round" stroke-linejoin="round"/>
    <path d="M 146.4633331298828 64.76771545410156 C 145.44679260253906 72.12171173095703 153.3621368408203 60.10821533203125 143.53726196289062 64.71898651123047" stroke-width="3.0" fill="none" stroke="rgb(0, 0, 0)" stroke-opacity="1.0" stroke-linecap="round" stroke-linejoin="round"/>
    <path d="M 127.11672973632812 121.47572326660156 C 135.7053985595703 147.90586853027344 128.69688415527344 104.72468566894531 116.73604583740234 139.7705078125" stroke-width="3.0" fill="none" stroke="rgb(0, 0, 0)" stroke-opacity="1.0" stroke-linecap="round" stroke-linejoin="round"/>
    <path d="M 147.2969207763672 64.44661712646484 C 162.2354278564453 68.14863586425781 128.93031311035156 48.47257995605469 145.95359802246094 58.92840576171875" stroke-width="3.0" fill="none" stroke="rgb(0, 0, 0)" stroke-opacity="1.0" stroke-linecap="round" stroke-linejoin="round"/>
    <path d="M 141.16189575195312 58.1584587097168 C 109.87113952636719 52.64289093017578 148.90902709960938 58.72456741333008 141.95037841796875 59.29105758666992" stroke-width="3.0" fill="none" stroke="rgb(0, 0, 0)" stroke-opacity="1.0" stroke-linecap="round" stroke-linejoin="round"/>
  </g>
</svg>
