<?xml version="1.0" ?>
<svg xmlns="http://www.w3.org/2000/svg" version="1.1" width="224" height="224">
  <defs/>
  <g>
    <path d="M 186.07003784179688 93.49543762207031 C 162.80067443847656 81.893310546875 55.66838836669922 100.75514221191406 131.22720336914062 83.77938079833984" stroke-width="3.0" fill="none" stroke="rgb(0, 0, 0)" stroke-opacity="1.0" stroke-linecap="round" stroke-linejoin="round"/>
    <path d="M 189.68490600585938 96.76495361328125 C 176.38856506347656 99.40138244628906 203.98284912109375 92.04888916015625 126.74280548095703 117.96076202392578" stroke-width="3.0" fill="none" stroke="rgb(0, 0, 0)" stroke-opacity="1.0" stroke-linecap="round" stroke-linejoin="round"/>
    <path d="M 54.07571029663086 39.957542419433594 C 2.8773353099823 38.11820983886719 72.4784927368164 132.5336151123047 67.89512634277344 61.484474182128906" stroke-width="3.0" fill="none" stroke="rgb(0, 0, 0)" stroke-opacity="1.0" stroke-linecap="round" stroke-linejoin="round"/>
    <path d="M 94.15062713623047 64.8558120727539 C 148.88192749023438 68.09295654296875 199.9342041015625 93.35511016845703 95.45573425292969 83.42472839355469" stroke-width="3.0" fill="none" stroke="rgb(0, 0, 0)" stroke-opacity="1.0" stroke-linecap="round" stroke-linejoin="round"/>
    <path d="M 142.88888549804688 79.89714813232422 C 212.8098907470703 95.06695556640625 170.05357360839844 105.3312759399414 185.96237182617188 94.06917572021484" stroke-width="3.0" fill="none" stroke="rgb(0, 0, 0)" stroke-opacity="1.0" stroke-linecap="round" stroke-linejoin="round"/>
    <path d="M 115.2496109008789 46.3148193359375 C 100.32545471191406 56.21564865112305 36.01247787475586 142.95701599121094 68.66864013671875 80.09700012207031" stroke-width="3.0" fill="none" stroke="rgb(0, 0, 0)" stroke-opacity="1.0" stroke-linecap="round" stroke-linejoin="round"/>
    <path d="M 141.72866821289062 84.76180267333984 C 13.950523376464844 60.05226135253906 156.01580810546875 30.402090072631836 191.35794067382812 93.99385070800781" stroke-width="3.0" fill="none" stroke="rgb(0, 0, 0)" stroke-opacity="1.0" stroke-linecap="round" stroke-linejoin="round"/>
    <path d="M 77.65841674804688 73.33780670166016 C 120.7285385131836 102.20030975341797 108.51750183105469 85.52658081054688 123.44080352783203 145.42376708984375" stroke-width="3.0" fill="none" stroke="rgb(0, 0, 0)" stroke-opacity="1.0" stroke-linecap="round" stroke-linejoin="round"/>
    <path d="M 123.2359390258789 94.95063781738281 C 123.24024200439453 210.63427734375 133.0533447265625 95.90799713134766 104.18212127685547 201.6031951904297" stroke-width="3.0" fill="none" stroke="rgb(0, 0, 0)" stroke-opacity="1.0" stroke-linecap="round" stroke-linejoin="round"/>
    <path d="M 128.5795135498047 47.33488845825195 C 139.364990234375 50.68470001220703 80.65503692626953 25.028039932250977 77.19192504882812 84.88725280761719" stroke-width="3.0" fill="none" stroke="rgb(0, 0, 0)" stroke-opacity="1.0" stroke-linecap="round" stroke-linejoin="round"/>
    <path d="M 93.66466522216797 56.59531021118164 C 139.12429809570312 35.395626068115234 144.44676208496094 55.74789047241211 173.1009979248047 83.66573333740234" stroke-width="3.0" fill="none" stroke="rgb(0, 0, 0)" stroke-opacity="1.0" stroke-linecap="round" stroke-linejoin="round"/>
    <path d="M 154.066650390625 84.41654205322266 C 144.4072723388672 80.6569595336914 227.31117248535156 120.49671936035156 141.60008239746094 62.38152313232422" stroke-width="3.0" fill="none" stroke="rgb(0, 0, 0)" stroke-opacity="1.0" stroke-linecap="round" stroke-linejoin="round"/>
    <path d="M 153.10665893554688 72.70578002929688 C 174.09361267089844 93.21965789794922 164.99696350097656 77.68672180175781 148.06016540527344 66.72185516357422" stroke-width="3.0" fill="none" stroke="rgb(0, 0, 0)" stroke-opacity="1.0" stroke-linecap="round" stroke-linejoin="round"/>
    <path d="M 123.69257354736328 125.54932403564453 C 143.83848571777344 166.92034912109375 135.99110412597656 111.17990112304688 118.59848022460938 148.7846221923828" stroke-width="3.0" fill="none" stroke="rgb(0, 0, 0)" stroke-opacity="1.0" stroke-linecap="round" stroke-linejoin="round"/>
    <path d="M 130.60650634765625 79.42547607421875 C 177.04403686523438 103.86585998535156 139.80506896972656 55.37423324584961 151.32955932617188 65.7200698852539" stroke-width="3.0" fill="none" stroke="rgb(0, 0, 0)" stroke-opacity="1.0" stroke-linecap="round" stroke-linejoin="round"/>
    <path d="M 142.08843994140625 70.33934783935547 C 108.29630279541016 49.11639404296875 157.1793212890625 72.5750732421875 128.1808319091797 54.146793365478516" stroke-width="3.0" fill="none" stroke="rgb(0, 0, 0)" stroke-opacity="1.0" stroke-linecap="round" stroke-linejoin="round"/>
  </g>
</svg>
