<?xml version="1.0" ?>
<svg xmlns="http://www.w3.org/2000/svg" version="1.1" width="224" height="224">
  <defs/>
  <g>
    <path d="M 169.88302612304688 87.12010955810547 C 139.42770385742188 84.75980377197266 103.241943359375 87.94404602050781 147.0600128173828 87.10508728027344" stroke-width="3.0" fill="none" stroke="rgb(0, 0, 0)" stroke-opacity="1.0" stroke-linecap="round" stroke-linejoin="round"/>
    <path d="M 178.03504943847656 93.16129302978516 C 170.24964904785156 98.59980010986328 192.37698364257812 87.8194351196289 159.79190063476562 110.19637298583984" stroke-width="3.0" fill="none" stroke="rgb(0, 0, 0)" stroke-opacity="1.0" stroke-linecap="round" stroke-linejoin="round"/>
    <path d="M 45.53170394897461 41.73251724243164 C 16.888431549072266 76.61827087402344 86.64720153808594 132.3410186767578 81.22396850585938 70.11837005615234" stroke-width="3.0" fill="none" stroke="rgb(0, 0, 0)" stroke-opacity="1.0" stroke-linecap="round" stroke-linejoin="round"/>
    <path d="M 111.90374755859375 79.26190185546875 C 127.98990631103516 85.67455291748047 175.14678955078125 93.41452026367188 100.1614990234375 93.7344970703125" stroke-width="3.0" fill="none" stroke="rgb(0, 0, 0)" stroke-opacity="1.0" stroke-linecap="round" stroke-linejoin="round"/>
    <path d="M 162.69178771972656 83.7846908569336 C 208.45765686035156 104.37348175048828 171.30911254882812 99.5407943725586 187.93991088867188 95.84671020507812" stroke-width="3.0" fill="none" stroke="rgb(0, 0, 0)" stroke-opacity="1.0" stroke-linecap="round" stroke-linejoin="round"/>
    <path d="M 147.8861846923828 65.89191436767578 C 117.27342224121094 76.2761459350586 57.59025573730469 101.69477844238281 88.8935546875 59.79930877685547" stroke-width="3.0" fill="none" stroke="rgb(0, 0, 0)" stroke-opacity="1.0" stroke-linecap="round" stroke-linejoin="round"/>
    <path d="M 142.16690063476562 61.234039306640625 C 148.75588989257812 72.42692565917969 145.5646514892578 42.29134750366211 190.69244384765625 93.13095092773438" stroke-width="3.0" fill="none" stroke="rgb(0, 0, 0)" stroke-opacity="1.0" stroke-linecap="round" stroke-linejoin="round"/>
    <path d="M 79.92627716064453 87.92105865478516 C 121.7001953125 99.13922882080078 107.47183990478516 87.73648071289062 125.05307006835938 137.0255126953125" stroke-width="3.0" fill="none" stroke="rgb(0, 0, 0)" stroke-opacity="1.0" stroke-linecap="round" stroke-linejoin="round"/>
    <path d="M 137.13467407226562 115.94088745117188 C 119.0359115600586 172.4550018310547 131.0786590576172 99.45907592773438 105.85232543945312 205.38818359375" stroke-width="3.0" fill="none" stroke="rgb(0, 0, 0)" stroke-opacity="1.0" stroke-linecap="round" stroke-linejoin="round"/>
    <path d="M 138.40565490722656 54.307987213134766 C 135.979736328125 56.05529022216797 79.41015625 20.946699142456055 67.27978515625 83.81317901611328" stroke-width="3.0" fill="none" stroke="rgb(0, 0, 0)" stroke-opacity="1.0" stroke-linecap="round" stroke-linejoin="round"/>
    <path d="M 103.70491027832031 77.35506439208984 C 147.95162963867188 64.95558166503906 116.59903717041016 72.22928619384766 176.26837158203125 90.47028350830078" stroke-width="3.0" fill="none" stroke="rgb(0, 0, 0)" stroke-opacity="1.0" stroke-linecap="round" stroke-linejoin="round"/>
    <path d="M 180.50790405273438 86.14637756347656 C 146.4506378173828 68.56344604492188 173.49899291992188 77.6833724975586 150.9802703857422 74.34428405761719" stroke-width="3.0" fill="none" stroke="rgb(0, 0, 0)" stroke-opacity="1.0" stroke-linecap="round" stroke-linejoin="round"/>
    <path d="M 143.8029327392578 61.955543518066406 C 143.1634063720703 71.52298736572266 149.8208770751953 56.61173629760742 147.3740234375 61.340187072753906" stroke-width="3.0" fill="none" stroke="rgb(0, 0, 0)" stroke-opacity="1.0" stroke-linecap="round" stroke-linejoin="round"/>
    <path d="M 123.4715347290039 131.8894500732422 C 130.8791046142578 140.88229370117188 128.4099884033203 112.90001678466797 116.42762756347656 145.05499267578125" stroke-width="3.0" fill="none" stroke="rgb(0, 0, 0)" stroke-opacity="1.0" stroke-linecap="round" stroke-linejoin="round"/>
    <path d="M 143.71893310546875 61.740299224853516 C 164.51231384277344 62.30501937866211 130.70530700683594 55.180973052978516 151.2649688720703 70.67334747314453" stroke-width="3.0" fill="none" stroke="rgb(0, 0, 0)" stroke-opacity="1.0" stroke-linecap="round" stroke-linejoin="round"/>
    <path d="M 138.10842895507812 51.79011535644531 C 118.72464752197266 54.481361389160156 158.6005859375 53.31977844238281 146.62750244140625 62.86173629760742" stroke-width="3.0" fill="none" stroke="rgb(0, 0, 0)" stroke-opacity="1.0" stroke-linecap="round" stroke-linejoin="round"/>
  </g>
</svg>
