<?xml version="1.0" ?>
<svg xmlns="http://www.w3.org/2000/svg" version="1.1" width="224" height="224">
  <defs/>
  <g>
    <path d="M 128.4468231201172 85.52754211425781 C 137.4069366455078 78.7674789428711 125.55023193359375 92.47345733642578 124.84257507324219 74.45311737060547" stroke-width="3.0" fill="none" stroke="rgb(0, 0, 0)" stroke-opacity="1.0" stroke-linecap="round" stroke-linejoin="round"/>
    <path d="M 182.079345703125 102.60464477539062 C 170.5168914794922 88.6631851196289 161.5782012939453 94.09716033935547 181.61703491210938 98.65874481201172" stroke-width="3.0" fill="none" stroke="rgb(0, 0, 0)" stroke-opacity="1.0" stroke-linecap="round" stroke-linejoin="round"/>
    <path d="M 75.62571716308594 59.24324035644531 C 63.04669952392578 93.22075653076172 76.73986053466797 92.71810150146484 97.49046325683594 100.75169372558594" stroke-width="3.0" fill="none" stroke="rgb(0, 0, 0)" stroke-opacity="1.0" stroke-linecap="round" stroke-linejoin="round"/>
    <path d="M 100.42840576171875 75.58837127685547 C 110.11756134033203 92.83572387695312 120.91914367675781 79.61296081542969 117.32866668701172 94.37330627441406" stroke-width="3.0" fill="none" stroke="rgb(0, 0, 0)" stroke-opacity="1.0" stroke-linecap="round" stroke-linejoin="round"/>
    <path d="M 170.08053588867188 83.70417022705078 C 169.0234375 74.12809753417969 163.59376525878906 74.34281921386719 172.75668334960938 83.755615234375" stroke-width="3.0" fill="none" stroke="rgb(0, 0, 0)" stroke-opacity="1.0" stroke-linecap="round" stroke-linejoin="round"/>
    <path d="M 123.69355773925781 78.2976303100586 C 123.39080810546875 95.28592681884766 121.38516998291016 90.11266326904297 121.43815612792969 84.61123657226562" stroke-width="3.0" fill="none" stroke="rgb(0, 0, 0)" stroke-opacity="1.0" stroke-linecap="round" stroke-linejoin="round"/>
    <path d="M 141.03326416015625 64.29562377929688 C 166.64720153808594 60.129512786865234 159.93894958496094 64.31535339355469 148.8644561767578 70.77131652832031" stroke-width="3.0" fill="none" stroke="rgb(0, 0, 0)" stroke-opacity="1.0" stroke-linecap="round" stroke-linejoin="round"/>
    <path d="M 100.56298828125 99.85675811767578 C 112.41767120361328 106.90296936035156 113.51270294189453 102.73040008544922 118.72418975830078 122.90119171142578" stroke-width="3.0" fill="none" stroke="rgb(0, 0, 0)" stroke-opacity="1.0" stroke-linecap="round" stroke-linejoin="round"/>
    <path d="M 116.95930480957031 142.1604766845703 C 120.50325775146484 163.02528381347656 116.5422134399414 144.4966278076172 110.45586395263672 199.33897399902344" stroke-width="3.0" fill="none" stroke="rgb(0, 0, 0)" stroke-opacity="1.0" stroke-linecap="round" stroke-linejoin="round"/>
    <path d="M 122.49368286132812 60.5784797668457 C 127.85174560546875 75.99300384521484 124.25981903076172 71.28242492675781 118.78451538085938 84.50543212890625" stroke-width="3.0" fill="none" stroke="rgb(0, 0, 0)" stroke-opacity="1.0" stroke-linecap="round" stroke-linejoin="round"/>
    <path d="M 138.59506225585938 95.45331573486328 C 140.8987579345703 94.17735290527344 135.63145446777344 101.3812255859375 144.2126922607422 91.5440902709961" stroke-width="3.0" fill="none" stroke="rgb(0, 0, 0)" stroke-opacity="1.0" stroke-linecap="round" stroke-linejoin="round"/>
    <path d="M 135.464599609375 67.22724151611328 C 132.26023864746094 85.1241226196289 126.9318618774414 84.4779281616211 132.95193481445312 76.95012664794922" stroke-width="3.0" fill="none" stroke="rgb(0, 0, 0)" stroke-opacity="1.0" stroke-linecap="round" stroke-linejoin="round"/>
    <path d="M 132.5928192138672 77.63111114501953 C 126.63887786865234 91.4789810180664 131.22068786621094 69.55012512207031 134.70582580566406 82.48123168945312" stroke-width="3.0" fill="none" stroke="rgb(0, 0, 0)" stroke-opacity="1.0" stroke-linecap="round" stroke-linejoin="round"/>
    <path d="M 119.71849060058594 127.93753814697266 C 128.3715057373047 137.43150329589844 134.34527587890625 129.50836181640625 122.39946746826172 133.6705322265625" stroke-width="3.0" fill="none" stroke="rgb(0, 0, 0)" stroke-opacity="1.0" stroke-linecap="round" stroke-linejoin="round"/>
    <path d="M 125.44322204589844 48.3846549987793 C 126.7647933959961 54.47584915161133 134.46133422851562 45.74644088745117 148.2032928466797 58.69790267944336" stroke-width="3.0" fill="none" stroke="rgb(0, 0, 0)" stroke-opacity="1.0" stroke-linecap="round" stroke-linejoin="round"/>
    <path d="M 119.11325073242188 48.47153854370117 C 126.16035461425781 59.05585479736328 125.39957427978516 51.91852569580078 130.36328125 58.397300720214844" stroke-width="3.0" fill="none" stroke="rgb(0, 0, 0)" stroke-opacity="1.0" stroke-linecap="round" stroke-linejoin="round"/>
  </g>
</svg>
