<?xml version="1.0" ?>
<svg xmlns="http://www.w3.org/2000/svg" version="1.1" width="224" height="224">
  <defs/>
  <g>
    <path d="M 185.5577850341797 94.94747924804688 C 156.1750030517578 81.65274047851562 54.189456939697266 98.21281433105469 129.2354736328125 83.93104553222656" stroke-width="3.0" fill="none" stroke="rgb(0, 0, 0)" stroke-opacity="1.0" stroke-linecap="round" stroke-linejoin="round"/>
    <path d="M 188.16871643066406 97.05426025390625 C 172.17117309570312 95.0505142211914 201.6489715576172 90.79261779785156 128.13702392578125 123.32011413574219" stroke-width="3.0" fill="none" stroke="rgb(0, 0, 0)" stroke-opacity="1.0" stroke-linecap="round" stroke-linejoin="round"/>
    <path d="M 54.30772399902344 38.29222106933594 C 4.475306034088135 36.186275482177734 70.00389099121094 126.91520690917969 68.20719909667969 65.10678100585938" stroke-width="3.0" fill="none" stroke="rgb(0, 0, 0)" stroke-opacity="1.0" stroke-linecap="round" stroke-linejoin="round"/>
    <path d="M 97.48983001708984 66.33421325683594 C 152.65574645996094 67.8266830444336 205.1798095703125 90.34235382080078 97.9040756225586 79.55155944824219" stroke-width="3.0" fill="none" stroke="rgb(0, 0, 0)" stroke-opacity="1.0" stroke-linecap="round" stroke-linejoin="round"/>
    <path d="M 140.44821166992188 75.31488037109375 C 212.51048278808594 95.16485595703125 169.7506561279297 105.45671081542969 189.22113037109375 96.9632339477539" stroke-width="3.0" fill="none" stroke="rgb(0, 0, 0)" stroke-opacity="1.0" stroke-linecap="round" stroke-linejoin="round"/>
    <path d="M 121.5469741821289 45.23476791381836 C 98.67699432373047 54.14792251586914 34.0261116027832 134.75933837890625 67.53539276123047 71.82447052001953" stroke-width="3.0" fill="none" stroke="rgb(0, 0, 0)" stroke-opacity="1.0" stroke-linecap="round" stroke-linejoin="round"/>
    <path d="M 142.58529663085938 85.32835388183594 C 21.910879135131836 57.79492950439453 151.77496337890625 34.659854888916016 190.93775939941406 96.20856475830078" stroke-width="3.0" fill="none" stroke="rgb(0, 0, 0)" stroke-opacity="1.0" stroke-linecap="round" stroke-linejoin="round"/>
    <path d="M 78.99884033203125 71.27792358398438 C 123.71495056152344 102.68226623535156 113.35746002197266 86.0272216796875 122.5892105102539 144.14601135253906" stroke-width="3.0" fill="none" stroke="rgb(0, 0, 0)" stroke-opacity="1.0" stroke-linecap="round" stroke-linejoin="round"/>
    <path d="M 124.587158203125 93.5289535522461 C 121.16940307617188 209.8797607421875 131.77847290039062 94.3464584350586 102.16522979736328 205.602294921875" stroke-width="3.0" fill="none" stroke="rgb(0, 0, 0)" stroke-opacity="1.0" stroke-linecap="round" stroke-linejoin="round"/>
    <path d="M 129.05799865722656 50.417449951171875 C 139.20777893066406 49.97310256958008 83.8152084350586 25.771400451660156 75.49889373779297 79.51786041259766" stroke-width="3.0" fill="none" stroke="rgb(0, 0, 0)" stroke-opacity="1.0" stroke-linecap="round" stroke-linejoin="round"/>
    <path d="M 94.53541564941406 55.79801559448242 C 142.31045532226562 34.7508430480957 147.13385009765625 54.190982818603516 174.8617401123047 81.99960327148438" stroke-width="3.0" fill="none" stroke="rgb(0, 0, 0)" stroke-opacity="1.0" stroke-linecap="round" stroke-linejoin="round"/>
    <path d="M 155.5152587890625 81.55563354492188 C 141.20068359375 76.16366577148438 223.23123168945312 112.42036437988281 144.65977478027344 58.093902587890625" stroke-width="3.0" fill="none" stroke="rgb(0, 0, 0)" stroke-opacity="1.0" stroke-linecap="round" stroke-linejoin="round"/>
    <path d="M 162.17518615722656 71.08333587646484 C 176.1152801513672 90.77902221679688 165.39768981933594 76.02224731445312 146.1168670654297 66.76073455810547" stroke-width="3.0" fill="none" stroke="rgb(0, 0, 0)" stroke-opacity="1.0" stroke-linecap="round" stroke-linejoin="round"/>
    <path d="M 124.55534362792969 125.650146484375 C 140.87010192871094 172.2744903564453 137.15257263183594 113.65129089355469 118.35917663574219 150.42091369628906" stroke-width="3.0" fill="none" stroke="rgb(0, 0, 0)" stroke-opacity="1.0" stroke-linecap="round" stroke-linejoin="round"/>
    <path d="M 138.0839080810547 75.90201568603516 C 190.5901336669922 97.61351776123047 150.18511962890625 54.486663818359375 154.8165283203125 64.20951080322266" stroke-width="3.0" fill="none" stroke="rgb(0, 0, 0)" stroke-opacity="1.0" stroke-linecap="round" stroke-linejoin="round"/>
    <path d="M 144.16165161132812 68.40922546386719 C 105.27569580078125 52.94794845581055 151.27609252929688 66.98018646240234 132.91343688964844 55.90926742553711" stroke-width="3.0" fill="none" stroke="rgb(0, 0, 0)" stroke-opacity="1.0" stroke-linecap="round" stroke-linejoin="round"/>
  </g>
</svg>
