<?xml version="1.0" ?>
<svg xmlns="http://www.w3.org/2000/svg" version="1.1" width="224" height="224">
  <defs/>
  <g>
    <path d="M 184.0933074951172 93.7362289428711 C 150.298828125 77.11250305175781 64.60790252685547 89.34748840332031 142.3788299560547 67.2807388305664" stroke-width="3.0" fill="none" stroke="rgb(0, 0, 0)" stroke-opacity="1.0" stroke-linecap="round" stroke-linejoin="round"/>
    <path d="M 183.08238220214844 97.73966979980469 C 182.79251098632812 94.9911880493164 200.53941345214844 89.31836700439453 132.6777801513672 120.8607177734375" stroke-width="3.0" fill="none" stroke="rgb(0, 0, 0)" stroke-opacity="1.0" stroke-linecap="round" stroke-linejoin="round"/>
    <path d="M 54.7832145690918 40.54764938354492 C 2.8325655460357666 33.49592208862305 66.5418930053711 128.4329071044922 70.45722198486328 63.66552734375" stroke-width="3.0" fill="none" stroke="rgb(0, 0, 0)" stroke-opacity="1.0" stroke-linecap="round" stroke-linejoin="round"/>
    <path d="M 107.3542251586914 61.70756149291992 C 151.10775756835938 61.56773376464844 202.3504638671875 80.00410461425781 99.6604232788086 80.1554183959961" stroke-width="3.0" fill="none" stroke="rgb(0, 0, 0)" stroke-opacity="1.0" stroke-linecap="round" stroke-linejoin="round"/>
    <path d="M 152.73721313476562 78.18022155761719 C 207.3430633544922 104.8324203491211 165.184814453125 100.76739501953125 189.81378173828125 99.00341796875" stroke-width="3.0" fill="none" stroke="rgb(0, 0, 0)" stroke-opacity="1.0" stroke-linecap="round" stroke-linejoin="round"/>
    <path d="M 138.1889190673828 52.205684661865234 C 100.5712661743164 57.499813079833984 32.192848205566406 121.18340301513672 67.37720489501953 75.28509521484375" stroke-width="3.0" fill="none" stroke="rgb(0, 0, 0)" stroke-opacity="1.0" stroke-linecap="round" stroke-linejoin="round"/>
    <path d="M 156.30186462402344 71.97775268554688 C 69.10601806640625 55.74488067626953 154.3953399658203 40.38973617553711 190.57765197753906 96.04598999023438" stroke-width="3.0" fill="none" stroke="rgb(0, 0, 0)" stroke-opacity="1.0" stroke-linecap="round" stroke-linejoin="round"/>
    <path d="M 83.75682067871094 72.49738311767578 C 125.26658630371094 94.06387329101562 112.51834869384766 85.78607940673828 116.97196197509766 144.7953643798828" stroke-width="3.0" fill="none" stroke="rgb(0, 0, 0)" stroke-opacity="1.0" stroke-linecap="round" stroke-linejoin="round"/>
    <path d="M 128.11390686035156 88.8721694946289 C 110.28881072998047 202.7555389404297 127.84687042236328 96.90298461914062 102.55115509033203 204.61892700195312" stroke-width="3.0" fill="none" stroke="rgb(0, 0, 0)" stroke-opacity="1.0" stroke-linecap="round" stroke-linejoin="round"/>
    <path d="M 128.3275909423828 51.81705856323242 C 139.5547332763672 51.0105094909668 85.91110229492188 26.59210205078125 77.45252990722656 79.70045471191406" stroke-width="3.0" fill="none" stroke="rgb(0, 0, 0)" stroke-opacity="1.0" stroke-linecap="round" stroke-linejoin="round"/>
    <path d="M 108.16769409179688 54.42486572265625 C 145.76828002929688 42.33894729614258 133.7561798095703 61.64437484741211 170.2800750732422 86.00894927978516" stroke-width="3.0" fill="none" stroke="rgb(0, 0, 0)" stroke-opacity="1.0" stroke-linecap="round" stroke-linejoin="round"/>
    <path d="M 155.67221069335938 81.98567199707031 C 146.23703002929688 73.64244842529297 223.70321655273438 110.89840698242188 154.37477111816406 63.900367736816406" stroke-width="3.0" fill="none" stroke="rgb(0, 0, 0)" stroke-opacity="1.0" stroke-linecap="round" stroke-linejoin="round"/>
    <path d="M 157.66224670410156 71.21499633789062 C 169.7800750732422 92.77349090576172 158.23585510253906 80.60780334472656 143.4593963623047 71.31757354736328" stroke-width="3.0" fill="none" stroke="rgb(0, 0, 0)" stroke-opacity="1.0" stroke-linecap="round" stroke-linejoin="round"/>
    <path d="M 122.63981628417969 127.41095733642578 C 143.46592712402344 168.17738342285156 135.36546325683594 114.05226135253906 112.59947967529297 149.1491241455078" stroke-width="3.0" fill="none" stroke="rgb(0, 0, 0)" stroke-opacity="1.0" stroke-linecap="round" stroke-linejoin="round"/>
    <path d="M 139.1434783935547 77.42424774169922 C 181.61224365234375 93.40851593017578 138.82164001464844 60.48870086669922 151.2881622314453 64.91732025146484" stroke-width="3.0" fill="none" stroke="rgb(0, 0, 0)" stroke-opacity="1.0" stroke-linecap="round" stroke-linejoin="round"/>
    <path d="M 141.4527587890625 59.24222183227539 C 125.94387817382812 42.298851013183594 160.3523712158203 62.57682800292969 138.82318115234375 56.69599533081055" stroke-width="3.0" fill="none" stroke="rgb(0, 0, 0)" stroke-opacity="1.0" stroke-linecap="round" stroke-linejoin="round"/>
  </g>
</svg>
