<?xml version="1.0" ?>
<svg xmlns="http://www.w3.org/2000/svg" version="1.1" width="224" height="224">
  <defs/>
  <g>
    <path d="M 177.46505737304688 93.07970428466797 C 163.05921936035156 82.3847427368164 45.63077163696289 101.11082458496094 134.788330078125 84.24541473388672" stroke-width="3.0" fill="none" stroke="rgb(0, 0, 0)" stroke-opacity="1.0" stroke-linecap="round" stroke-linejoin="round"/>
    <path d="M 186.40869140625 96.57151794433594 C 174.7091522216797 96.33309936523438 204.72547912597656 89.7636947631836 134.9550323486328 119.33399200439453" stroke-width="3.0" fill="none" stroke="rgb(0, 0, 0)" stroke-opacity="1.0" stroke-linecap="round" stroke-linejoin="round"/>
    <path d="M 55.99777603149414 43.50312423706055 C 8.454273223876953 24.461048126220703 66.12480926513672 126.41390228271484 81.30567932128906 66.52311706542969" stroke-width="3.0" fill="none" stroke="rgb(0, 0, 0)" stroke-opacity="1.0" stroke-linecap="round" stroke-linejoin="round"/>
    <path d="M 96.54930114746094 70.09534454345703 C 156.40728759765625 64.35909271240234 208.20474243164062 99.20095825195312 96.19638061523438 82.43745422363281" stroke-width="3.0" fill="none" stroke="rgb(0, 0, 0)" stroke-opacity="1.0" stroke-linecap="round" stroke-linejoin="round"/>
    <path d="M 137.0048828125 74.43286895751953 C 208.44619750976562 98.74105834960938 171.64752197265625 100.57626342773438 181.37709045410156 96.39151763916016" stroke-width="3.0" fill="none" stroke="rgb(0, 0, 0)" stroke-opacity="1.0" stroke-linecap="round" stroke-linejoin="round"/>
    <path d="M 102.56088256835938 51.79179763793945 C 106.96728515625 57.60051727294922 40.070308685302734 146.98435974121094 72.0396957397461 88.14554595947266" stroke-width="3.0" fill="none" stroke="rgb(0, 0, 0)" stroke-opacity="1.0" stroke-linecap="round" stroke-linejoin="round"/>
    <path d="M 144.08396911621094 87.04672241210938 C 10.586328506469727 73.0733642578125 156.47752380371094 27.722139358520508 193.26611328125 94.16434478759766" stroke-width="3.0" fill="none" stroke="rgb(0, 0, 0)" stroke-opacity="1.0" stroke-linecap="round" stroke-linejoin="round"/>
    <path d="M 87.95213317871094 81.08763885498047 C 120.51270294189453 112.18190002441406 117.74783325195312 70.0879898071289 120.74639129638672 142.87783813476562" stroke-width="3.0" fill="none" stroke="rgb(0, 0, 0)" stroke-opacity="1.0" stroke-linecap="round" stroke-linejoin="round"/>
    <path d="M 132.7793731689453 93.0843505859375 C 115.85645294189453 205.26255798339844 131.46026611328125 93.73603057861328 103.6919937133789 206.49417114257812" stroke-width="3.0" fill="none" stroke="rgb(0, 0, 0)" stroke-opacity="1.0" stroke-linecap="round" stroke-linejoin="round"/>
    <path d="M 148.88108825683594 62.21403503417969 C 136.29966735839844 46.71918869018555 90.01107788085938 19.393638610839844 83.3795166015625 86.70450592041016" stroke-width="3.0" fill="none" stroke="rgb(0, 0, 0)" stroke-opacity="1.0" stroke-linecap="round" stroke-linejoin="round"/>
    <path d="M 96.2491455078125 60.35171127319336 C 137.4875030517578 31.98714828491211 140.437255859375 54.39945602416992 171.8022003173828 83.21521759033203" stroke-width="3.0" fill="none" stroke="rgb(0, 0, 0)" stroke-opacity="1.0" stroke-linecap="round" stroke-linejoin="round"/>
    <path d="M 155.79745483398438 80.82521057128906 C 155.27078247070312 87.00580596923828 245.31907653808594 128.18426513671875 137.8563232421875 61.706787109375" stroke-width="3.0" fill="none" stroke="rgb(0, 0, 0)" stroke-opacity="1.0" stroke-linecap="round" stroke-linejoin="round"/>
    <path d="M 141.70425415039062 82.45816802978516 C 181.03350830078125 99.32511901855469 176.2224578857422 68.51980590820312 133.25624084472656 70.92826843261719" stroke-width="3.0" fill="none" stroke="rgb(0, 0, 0)" stroke-opacity="1.0" stroke-linecap="round" stroke-linejoin="round"/>
    <path d="M 126.42611694335938 121.0321273803711 C 149.11294555664062 151.9147491455078 138.7965850830078 103.3582534790039 115.79232788085938 149.223876953125" stroke-width="3.0" fill="none" stroke="rgb(0, 0, 0)" stroke-opacity="1.0" stroke-linecap="round" stroke-linejoin="round"/>
    <path d="M 123.93724822998047 79.65333557128906 C 179.73500061035156 99.80560302734375 151.29119873046875 48.44502258300781 148.08897399902344 61.77534866333008" stroke-width="3.0" fill="none" stroke="rgb(0, 0, 0)" stroke-opacity="1.0" stroke-linecap="round" stroke-linejoin="round"/>
    <path d="M 140.87908935546875 67.65174102783203 C 92.12859344482422 47.47825622558594 170.99232482910156 69.54012298583984 130.40553283691406 51.69070816040039" stroke-width="3.0" fill="none" stroke="rgb(0, 0, 0)" stroke-opacity="1.0" stroke-linecap="round" stroke-linejoin="round"/>
  </g>
</svg>
