<?xml version="1.0" ?>
<svg xmlns="http://www.w3.org/2000/svg" version="1.1" width="224" height="224">
  <defs/>
  <g>
    <path d="M 179.5516357421875 95.33625793457031 C 124.37617492675781 83.64846801757812 43.90863037109375 109.16462707519531 141.26983642578125 70.15717315673828" stroke-width="3.0" fill="none" stroke="rgb(0, 0, 0)" stroke-opacity="1.0" stroke-linecap="round" stroke-linejoin="round"/>
    <path d="M 185.61402893066406 102.40072631835938 C 176.90936279296875 106.55072784423828 198.09048461914062 98.57291412353516 147.9954376220703 113.60195922851562" stroke-width="3.0" fill="none" stroke="rgb(0, 0, 0)" stroke-opacity="1.0" stroke-linecap="round" stroke-linejoin="round"/>
    <path d="M 45.735843658447266 39.70612335205078 C 12.697601318359375 45.09083938598633 69.3961410522461 134.22207641601562 72.25697326660156 65.16490936279297" stroke-width="3.0" fill="none" stroke="rgb(0, 0, 0)" stroke-opacity="1.0" stroke-linecap="round" stroke-linejoin="round"/>
    <path d="M 98.88744354248047 70.90283966064453 C 153.42637634277344 69.0426254272461 200.64407348632812 76.82106018066406 90.36878204345703 90.05792236328125" stroke-width="3.0" fill="none" stroke="rgb(0, 0, 0)" stroke-opacity="1.0" stroke-linecap="round" stroke-linejoin="round"/>
    <path d="M 151.31048583984375 77.6678695678711 C 214.68161010742188 113.02855682373047 174.01097106933594 97.90314483642578 193.11085510253906 96.95144653320312" stroke-width="3.0" fill="none" stroke="rgb(0, 0, 0)" stroke-opacity="1.0" stroke-linecap="round" stroke-linejoin="round"/>
    <path d="M 142.80667114257812 58.41815948486328 C 106.51852416992188 60.61948776245117 50.58559799194336 105.77869415283203 78.16329956054688 59.67180633544922" stroke-width="3.0" fill="none" stroke="rgb(0, 0, 0)" stroke-opacity="1.0" stroke-linecap="round" stroke-linejoin="round"/>
    <path d="M 163.25436401367188 75.83673858642578 C 114.85832214355469 57.55707931518555 161.91970825195312 57.18973159790039 190.12220764160156 95.61408233642578" stroke-width="3.0" fill="none" stroke="rgb(0, 0, 0)" stroke-opacity="1.0" stroke-linecap="round" stroke-linejoin="round"/>
    <path d="M 73.74585723876953 85.20519256591797 C 124.92350006103516 93.07269287109375 111.6953125 87.20797729492188 121.3330078125 140.17588806152344" stroke-width="3.0" fill="none" stroke="rgb(0, 0, 0)" stroke-opacity="1.0" stroke-linecap="round" stroke-linejoin="round"/>
    <path d="M 123.13106536865234 94.02754211425781 C 117.2403564453125 195.58816528320312 128.1573944091797 88.16494750976562 106.62871551513672 203.95448303222656" stroke-width="3.0" fill="none" stroke="rgb(0, 0, 0)" stroke-opacity="1.0" stroke-linecap="round" stroke-linejoin="round"/>
    <path d="M 127.96868896484375 46.98286437988281 C 131.5624237060547 48.80716323852539 74.33612060546875 18.62347412109375 62.82289123535156 79.97501373291016" stroke-width="3.0" fill="none" stroke="rgb(0, 0, 0)" stroke-opacity="1.0" stroke-linecap="round" stroke-linejoin="round"/>
    <path d="M 108.94232177734375 53.09867477416992 C 155.20376586914062 45.785675048828125 131.55580139160156 61.916080474853516 174.83151245117188 80.68601989746094" stroke-width="3.0" fill="none" stroke="rgb(0, 0, 0)" stroke-opacity="1.0" stroke-linecap="round" stroke-linejoin="round"/>
    <path d="M 179.14349365234375 90.17723846435547 C 160.3454132080078 75.9631576538086 214.89492797851562 99.46383666992188 148.68247985839844 71.33232879638672" stroke-width="3.0" fill="none" stroke="rgb(0, 0, 0)" stroke-opacity="1.0" stroke-linecap="round" stroke-linejoin="round"/>
    <path d="M 150.87132263183594 64.19692993164062 C 145.5549774169922 77.04129791259766 156.54287719726562 61.884117126464844 147.28489685058594 63.850303649902344" stroke-width="3.0" fill="none" stroke="rgb(0, 0, 0)" stroke-opacity="1.0" stroke-linecap="round" stroke-linejoin="round"/>
    <path d="M 122.13426208496094 118.90159606933594 C 149.48275756835938 149.95497131347656 137.8187713623047 100.6357192993164 114.31432342529297 146.04371643066406" stroke-width="3.0" fill="none" stroke="rgb(0, 0, 0)" stroke-opacity="1.0" stroke-linecap="round" stroke-linejoin="round"/>
    <path d="M 142.87123107910156 68.34709930419922 C 162.119140625 66.49225616455078 132.1868133544922 50.248592376708984 154.1219482421875 61.03262710571289" stroke-width="3.0" fill="none" stroke="rgb(0, 0, 0)" stroke-opacity="1.0" stroke-linecap="round" stroke-linejoin="round"/>
    <path d="M 143.24270629882812 53.84318923950195 C 119.69892120361328 51.37939453125 153.15171813964844 57.86849594116211 145.7274169921875 57.402034759521484" stroke-width="3.0" fill="none" stroke="rgb(0, 0, 0)" stroke-opacity="1.0" stroke-linecap="round" stroke-linejoin="round"/>
  </g>
</svg>
