<?xml version="1.0" ?>
<svg xmlns="http://www.w3.org/2000/svg" version="1.1" width="224" height="224">
  <defs/>
  <g>
    <path d="M 179.87210083007812 92.02925109863281 C 124.18911743164062 78.77442932128906 43.07185363769531 107.92623901367188 141.66636657714844 71.29051208496094" stroke-width="3.0" fill="none" stroke="rgb(0, 0, 0)" stroke-opacity="1.0" stroke-linecap="round" stroke-linejoin="round"/>
    <path d="M 187.9899444580078 100.55501556396484 C 175.3192138671875 101.73464965820312 197.39764404296875 95.95841979980469 146.00640869140625 113.48403930664062" stroke-width="3.0" fill="none" stroke="rgb(0, 0, 0)" stroke-opacity="1.0" stroke-linecap="round" stroke-linejoin="round"/>
    <path d="M 47.558048248291016 41.073482513427734 C 10.109002113342285 44.88022994995117 67.82682800292969 133.1195831298828 72.89875793457031 62.58856964111328" stroke-width="3.0" fill="none" stroke="rgb(0, 0, 0)" stroke-opacity="1.0" stroke-linecap="round" stroke-linejoin="round"/>
    <path d="M 97.87850189208984 68.41559600830078 C 157.21771240234375 65.452880859375 203.6362762451172 75.01410675048828 92.26683807373047 87.69894409179688" stroke-width="3.0" fill="none" stroke="rgb(0, 0, 0)" stroke-opacity="1.0" stroke-linecap="round" stroke-linejoin="round"/>
    <path d="M 149.70513916015625 76.91448211669922 C 217.2918243408203 111.02416229248047 178.4292449951172 98.8861312866211 191.3697052001953 98.32441711425781" stroke-width="3.0" fill="none" stroke="rgb(0, 0, 0)" stroke-opacity="1.0" stroke-linecap="round" stroke-linejoin="round"/>
    <path d="M 142.12945556640625 60.23719024658203 C 105.43669128417969 58.88788604736328 49.51825714111328 105.22662353515625 77.85214233398438 61.90529251098633" stroke-width="3.0" fill="none" stroke="rgb(0, 0, 0)" stroke-opacity="1.0" stroke-linecap="round" stroke-linejoin="round"/>
    <path d="M 162.9137420654297 76.77640533447266 C 115.43487548828125 58.951568603515625 163.97509765625 56.34687805175781 190.55532836914062 95.64546203613281" stroke-width="3.0" fill="none" stroke="rgb(0, 0, 0)" stroke-opacity="1.0" stroke-linecap="round" stroke-linejoin="round"/>
    <path d="M 71.13683319091797 86.56303405761719 C 122.44721221923828 93.58702850341797 110.5005111694336 89.33232879638672 121.68879699707031 139.57374572753906" stroke-width="3.0" fill="none" stroke="rgb(0, 0, 0)" stroke-opacity="1.0" stroke-linecap="round" stroke-linejoin="round"/>
    <path d="M 125.31803131103516 91.38088989257812 C 120.50157928466797 197.93360900878906 131.42755126953125 92.00862121582031 106.24789428710938 202.51495361328125" stroke-width="3.0" fill="none" stroke="rgb(0, 0, 0)" stroke-opacity="1.0" stroke-linecap="round" stroke-linejoin="round"/>
    <path d="M 127.51878356933594 46.3708381652832 C 130.72967529296875 49.11857604980469 72.5953369140625 18.318817138671875 64.45123291015625 79.8314437866211" stroke-width="3.0" fill="none" stroke="rgb(0, 0, 0)" stroke-opacity="1.0" stroke-linecap="round" stroke-linejoin="round"/>
    <path d="M 106.1929931640625 52.2737922668457 C 154.46823120117188 44.38094711303711 131.75230407714844 61.22868728637695 174.7498779296875 79.27391052246094" stroke-width="3.0" fill="none" stroke="rgb(0, 0, 0)" stroke-opacity="1.0" stroke-linecap="round" stroke-linejoin="round"/>
    <path d="M 179.89053344726562 90.14591217041016 C 161.5808868408203 76.65571594238281 214.8623504638672 99.6627197265625 149.21624755859375 69.67228698730469" stroke-width="3.0" fill="none" stroke="rgb(0, 0, 0)" stroke-opacity="1.0" stroke-linecap="round" stroke-linejoin="round"/>
    <path d="M 151.00997924804688 64.91040802001953 C 146.47288513183594 77.41588592529297 156.87637329101562 62.18639373779297 147.7138214111328 64.0562515258789" stroke-width="3.0" fill="none" stroke="rgb(0, 0, 0)" stroke-opacity="1.0" stroke-linecap="round" stroke-linejoin="round"/>
    <path d="M 123.244140625 118.51837158203125 C 148.96180725097656 151.54612731933594 136.33995056152344 102.76988983154297 116.3022689819336 145.7600860595703" stroke-width="3.0" fill="none" stroke="rgb(0, 0, 0)" stroke-opacity="1.0" stroke-linecap="round" stroke-linejoin="round"/>
    <path d="M 139.35568237304688 68.76115417480469 C 160.00123596191406 67.09819793701172 131.26571655273438 50.43690872192383 153.8887481689453 62.00648498535156" stroke-width="3.0" fill="none" stroke="rgb(0, 0, 0)" stroke-opacity="1.0" stroke-linecap="round" stroke-linejoin="round"/>
    <path d="M 142.1264190673828 54.62969207763672 C 118.74324035644531 52.401554107666016 153.2815399169922 57.675899505615234 145.9601287841797 55.875553131103516" stroke-width="3.0" fill="none" stroke="rgb(0, 0, 0)" stroke-opacity="1.0" stroke-linecap="round" stroke-linejoin="round"/>
  </g>
</svg>
