<?xml version="1.0" ?>
<svg xmlns="http://www.w3.org/2000/svg" version="1.1" width="224" height="224">
  <defs/>
  <g>
    <path d="M 176.9672088623047 95.64592742919922 C 125.27416229248047 85.40447235107422 46.64225769042969 108.96711730957031 142.93626403808594 71.20484161376953" stroke-width="3.0" fill="none" stroke="rgb(0, 0, 0)" stroke-opacity="1.0" stroke-linecap="round" stroke-linejoin="round"/>
    <path d="M 183.053955078125 99.08972930908203 C 174.30426025390625 100.71456146240234 195.88946533203125 94.02986145019531 151.39901733398438 113.54663848876953" stroke-width="3.0" fill="none" stroke="rgb(0, 0, 0)" stroke-opacity="1.0" stroke-linecap="round" stroke-linejoin="round"/>
    <path d="M 43.136619567871094 36.6041259765625 C 14.119551658630371 41.40425491333008 73.727294921875 133.7646942138672 75.13687896728516 66.69895935058594" stroke-width="3.0" fill="none" stroke="rgb(0, 0, 0)" stroke-opacity="1.0" stroke-linecap="round" stroke-linejoin="round"/>
    <path d="M 102.08639526367188 73.53211212158203 C 152.29617309570312 73.28226470947266 201.6901092529297 82.30513763427734 94.30465698242188 89.74998474121094" stroke-width="3.0" fill="none" stroke="rgb(0, 0, 0)" stroke-opacity="1.0" stroke-linecap="round" stroke-linejoin="round"/>
    <path d="M 153.81875610351562 76.76722717285156 C 211.8184051513672 115.0188980102539 170.5580596923828 96.89038848876953 186.00527954101562 100.29110717773438" stroke-width="3.0" fill="none" stroke="rgb(0, 0, 0)" stroke-opacity="1.0" stroke-linecap="round" stroke-linejoin="round"/>
    <path d="M 144.86984252929688 60.5936279296875 C 107.49569702148438 65.05087280273438 51.78028106689453 108.64491271972656 82.97303771972656 58.598670959472656" stroke-width="3.0" fill="none" stroke="rgb(0, 0, 0)" stroke-opacity="1.0" stroke-linecap="round" stroke-linejoin="round"/>
    <path d="M 164.09701538085938 75.98365020751953 C 119.07209777832031 54.14765167236328 161.03250122070312 55.35016632080078 188.92745971679688 94.49820709228516" stroke-width="3.0" fill="none" stroke="rgb(0, 0, 0)" stroke-opacity="1.0" stroke-linecap="round" stroke-linejoin="round"/>
    <path d="M 75.83546447753906 85.90991973876953 C 123.05598449707031 97.2543716430664 110.59044647216797 87.33495330810547 122.6630630493164 140.97987365722656" stroke-width="3.0" fill="none" stroke="rgb(0, 0, 0)" stroke-opacity="1.0" stroke-linecap="round" stroke-linejoin="round"/>
    <path d="M 129.59579467773438 93.27925872802734 C 121.79600524902344 193.87818908691406 130.80235290527344 85.4388427734375 106.31099700927734 204.7173309326172" stroke-width="3.0" fill="none" stroke="rgb(0, 0, 0)" stroke-opacity="1.0" stroke-linecap="round" stroke-linejoin="round"/>
    <path d="M 132.92999267578125 46.402992248535156 C 132.07223510742188 51.091243743896484 74.90589904785156 19.918907165527344 64.15135192871094 81.97816467285156" stroke-width="3.0" fill="none" stroke="rgb(0, 0, 0)" stroke-opacity="1.0" stroke-linecap="round" stroke-linejoin="round"/>
    <path d="M 115.53831481933594 53.831687927246094 C 156.10955810546875 44.38188552856445 129.81216430664062 63.82830810546875 174.94760131835938 78.88011932373047" stroke-width="3.0" fill="none" stroke="rgb(0, 0, 0)" stroke-opacity="1.0" stroke-linecap="round" stroke-linejoin="round"/>
    <path d="M 178.60174560546875 89.79790496826172 C 160.03192138671875 74.22654724121094 214.86563110351562 100.9290771484375 146.14828491210938 76.14889526367188" stroke-width="3.0" fill="none" stroke="rgb(0, 0, 0)" stroke-opacity="1.0" stroke-linecap="round" stroke-linejoin="round"/>
    <path d="M 149.83779907226562 63.541481018066406 C 144.64683532714844 76.5428695678711 155.24676513671875 62.15259552001953 146.3052520751953 64.47734832763672" stroke-width="3.0" fill="none" stroke="rgb(0, 0, 0)" stroke-opacity="1.0" stroke-linecap="round" stroke-linejoin="round"/>
    <path d="M 127.4626693725586 119.0108871459961 C 149.7906951904297 150.77728271484375 139.5603790283203 99.75214385986328 116.45633697509766 144.75363159179688" stroke-width="3.0" fill="none" stroke="rgb(0, 0, 0)" stroke-opacity="1.0" stroke-linecap="round" stroke-linejoin="round"/>
    <path d="M 143.95130920410156 68.00975036621094 C 163.750732421875 64.31592559814453 134.32325744628906 47.45207595825195 149.58724975585938 61.498985290527344" stroke-width="3.0" fill="none" stroke="rgb(0, 0, 0)" stroke-opacity="1.0" stroke-linecap="round" stroke-linejoin="round"/>
    <path d="M 147.32908630371094 55.522159576416016 C 123.85828399658203 48.25758361816406 153.4308319091797 57.727020263671875 145.27383422851562 59.55433654785156" stroke-width="3.0" fill="none" stroke="rgb(0, 0, 0)" stroke-opacity="1.0" stroke-linecap="round" stroke-linejoin="round"/>
  </g>
</svg>
