<?xml version="1.0" ?>
<svg xmlns="http://www.w3.org/2000/svg" version="1.1" width="224" height="224">
  <defs/>
  <g>
    <path d="M 182.4229278564453 96.32603454589844 C 149.67422485351562 77.30587005615234 60.339561462402344 89.41911315917969 138.22618103027344 69.91475677490234" stroke-width="3.0" fill="none" stroke="rgb(0, 0, 0)" stroke-opacity="1.0" stroke-linecap="round" stroke-linejoin="round"/>
    <path d="M 186.13368225097656 97.7199478149414 C 182.17446899414062 92.4564208984375 200.3455810546875 88.951171875 131.72201538085938 120.5723648071289" stroke-width="3.0" fill="none" stroke="rgb(0, 0, 0)" stroke-opacity="1.0" stroke-linecap="round" stroke-linejoin="round"/>
    <path d="M 53.19370651245117 42.24051284790039 C 3.2606935501098633 34.17144775390625 67.58577728271484 126.57140350341797 70.98668670654297 63.83489990234375" stroke-width="3.0" fill="none" stroke="rgb(0, 0, 0)" stroke-opacity="1.0" stroke-linecap="round" stroke-linejoin="round"/>
    <path d="M 103.93260192871094 62.57194900512695 C 150.62887573242188 58.575477600097656 199.0706329345703 75.91532897949219 97.55033874511719 79.38060760498047" stroke-width="3.0" fill="none" stroke="rgb(0, 0, 0)" stroke-opacity="1.0" stroke-linecap="round" stroke-linejoin="round"/>
    <path d="M 151.90621948242188 77.14746856689453 C 206.99783325195312 102.76530456542969 163.3241424560547 103.41825103759766 186.8755645751953 98.84355163574219" stroke-width="3.0" fill="none" stroke="rgb(0, 0, 0)" stroke-opacity="1.0" stroke-linecap="round" stroke-linejoin="round"/>
    <path d="M 136.04481506347656 52.23503112792969 C 99.66300964355469 56.53951644897461 33.570308685302734 123.62361907958984 68.21286010742188 73.9290542602539" stroke-width="3.0" fill="none" stroke="rgb(0, 0, 0)" stroke-opacity="1.0" stroke-linecap="round" stroke-linejoin="round"/>
    <path d="M 155.48500061035156 74.6012191772461 C 64.83186340332031 55.3897705078125 152.06419372558594 41.1108283996582 190.51034545898438 95.54804229736328" stroke-width="3.0" fill="none" stroke="rgb(0, 0, 0)" stroke-opacity="1.0" stroke-linecap="round" stroke-linejoin="round"/>
    <path d="M 84.20118713378906 70.91850280761719 C 123.76947784423828 94.5667953491211 112.67552185058594 87.92842102050781 115.821044921875 146.32106018066406" stroke-width="3.0" fill="none" stroke="rgb(0, 0, 0)" stroke-opacity="1.0" stroke-linecap="round" stroke-linejoin="round"/>
    <path d="M 129.1549530029297 85.28577423095703 C 108.60162353515625 203.23272705078125 124.4122085571289 94.78379821777344 109.30426025390625 203.47003173828125" stroke-width="3.0" fill="none" stroke="rgb(0, 0, 0)" stroke-opacity="1.0" stroke-linecap="round" stroke-linejoin="round"/>
    <path d="M 132.12916564941406 49.47959518432617 C 142.7926483154297 51.22966384887695 84.49039459228516 27.89183235168457 75.9157485961914 81.96887969970703" stroke-width="3.0" fill="none" stroke="rgb(0, 0, 0)" stroke-opacity="1.0" stroke-linecap="round" stroke-linejoin="round"/>
    <path d="M 107.8879165649414 54.27005386352539 C 145.55776977539062 35.13267135620117 133.4549102783203 59.58271408081055 170.7388916015625 86.28604125976562" stroke-width="3.0" fill="none" stroke="rgb(0, 0, 0)" stroke-opacity="1.0" stroke-linecap="round" stroke-linejoin="round"/>
    <path d="M 155.44691467285156 80.93231201171875 C 145.08523559570312 73.8461685180664 218.9137420654297 114.57696533203125 151.5253448486328 63.50785446166992" stroke-width="3.0" fill="none" stroke="rgb(0, 0, 0)" stroke-opacity="1.0" stroke-linecap="round" stroke-linejoin="round"/>
    <path d="M 156.66073608398438 71.65199279785156 C 170.18959045410156 93.0000228881836 158.56114196777344 80.32275390625 141.10299682617188 67.5672836303711" stroke-width="3.0" fill="none" stroke="rgb(0, 0, 0)" stroke-opacity="1.0" stroke-linecap="round" stroke-linejoin="round"/>
    <path d="M 121.47840881347656 127.22148895263672 C 143.07765197753906 169.23822021484375 136.16714477539062 114.78515625 112.56148529052734 147.5576934814453" stroke-width="3.0" fill="none" stroke="rgb(0, 0, 0)" stroke-opacity="1.0" stroke-linecap="round" stroke-linejoin="round"/>
    <path d="M 139.48260498046875 78.54927062988281 C 185.74624633789062 92.02330017089844 142.72958374023438 59.01677322387695 152.97496032714844 64.91444396972656" stroke-width="3.0" fill="none" stroke="rgb(0, 0, 0)" stroke-opacity="1.0" stroke-linecap="round" stroke-linejoin="round"/>
    <path d="M 139.08477783203125 61.784584045410156 C 119.33708190917969 43.759239196777344 153.7032012939453 65.3818359375 135.70726013183594 52.9052734375" stroke-width="3.0" fill="none" stroke="rgb(0, 0, 0)" stroke-opacity="1.0" stroke-linecap="round" stroke-linejoin="round"/>
  </g>
</svg>
