<?xml version="1.0" ?>
<svg xmlns="http://www.w3.org/2000/svg" version="1.1" width="224" height="224">
  <defs/>
  <g>
    <path d="M 182.0687713623047 92.39388275146484 C 163.2779541015625 80.55931854248047 51.90620040893555 99.85697174072266 128.96923828125 83.5411148071289" stroke-width="3.0" fill="none" stroke="rgb(0, 0, 0)" stroke-opacity="1.0" stroke-linecap="round" stroke-linejoin="round"/>
    <path d="M 189.20030212402344 98.59677124023438 C 176.16592407226562 98.93936920166016 204.1179962158203 92.39739227294922 128.8214111328125 117.6344223022461" stroke-width="3.0" fill="none" stroke="rgb(0, 0, 0)" stroke-opacity="1.0" stroke-linecap="round" stroke-linejoin="round"/>
    <path d="M 55.048648834228516 38.591556549072266 C 6.197064399719238 39.76123046875 75.5345458984375 134.4844970703125 62.57347869873047 65.85604858398438" stroke-width="3.0" fill="none" stroke="rgb(0, 0, 0)" stroke-opacity="1.0" stroke-linecap="round" stroke-linejoin="round"/>
    <path d="M 90.82959747314453 65.43433380126953 C 147.09762573242188 67.12586975097656 197.7866973876953 93.61695861816406 94.60511779785156 82.86116027832031" stroke-width="3.0" fill="none" stroke="rgb(0, 0, 0)" stroke-opacity="1.0" stroke-linecap="round" stroke-linejoin="round"/>
    <path d="M 144.46853637695312 79.05364990234375 C 212.76638793945312 96.47698974609375 169.13844299316406 103.46591186523438 184.65484619140625 95.72496032714844" stroke-width="3.0" fill="none" stroke="rgb(0, 0, 0)" stroke-opacity="1.0" stroke-linecap="round" stroke-linejoin="round"/>
    <path d="M 108.91857147216797 43.09161376953125 C 94.01594543457031 52.52207565307617 36.41105651855469 143.2274169921875 70.75399017333984 79.63658905029297" stroke-width="3.0" fill="none" stroke="rgb(0, 0, 0)" stroke-opacity="1.0" stroke-linecap="round" stroke-linejoin="round"/>
    <path d="M 141.1079864501953 83.90792083740234 C 15.074455261230469 64.24182891845703 155.8071746826172 31.84462547302246 191.72250366210938 96.56764221191406" stroke-width="3.0" fill="none" stroke="rgb(0, 0, 0)" stroke-opacity="1.0" stroke-linecap="round" stroke-linejoin="round"/>
    <path d="M 82.94622039794922 75.8115463256836 C 122.72473907470703 102.27538299560547 108.17430114746094 83.19352722167969 123.2566909790039 144.82237243652344" stroke-width="3.0" fill="none" stroke="rgb(0, 0, 0)" stroke-opacity="1.0" stroke-linecap="round" stroke-linejoin="round"/>
    <path d="M 124.87773132324219 91.39929962158203 C 123.01396179199219 207.66336059570312 132.94125366210938 91.62909698486328 104.70903015136719 206.5933837890625" stroke-width="3.0" fill="none" stroke="rgb(0, 0, 0)" stroke-opacity="1.0" stroke-linecap="round" stroke-linejoin="round"/>
    <path d="M 128.40794372558594 47.79729461669922 C 134.48385620117188 51.33994674682617 79.94209289550781 22.85942840576172 75.08834075927734 87.52139282226562" stroke-width="3.0" fill="none" stroke="rgb(0, 0, 0)" stroke-opacity="1.0" stroke-linecap="round" stroke-linejoin="round"/>
    <path d="M 96.0050048828125 59.36802673339844 C 140.0003662109375 39.30967330932617 145.83224487304688 56.14997482299805 171.606201171875 82.95355224609375" stroke-width="3.0" fill="none" stroke="rgb(0, 0, 0)" stroke-opacity="1.0" stroke-linecap="round" stroke-linejoin="round"/>
    <path d="M 153.2562255859375 85.69770050048828 C 144.5436248779297 80.53499603271484 232.2519073486328 115.24954986572266 140.3400115966797 55.76204299926758" stroke-width="3.0" fill="none" stroke="rgb(0, 0, 0)" stroke-opacity="1.0" stroke-linecap="round" stroke-linejoin="round"/>
    <path d="M 151.35865783691406 77.38116455078125 C 173.68666076660156 93.60782623291016 165.75595092773438 76.5421142578125 142.42123413085938 68.96346282958984" stroke-width="3.0" fill="none" stroke="rgb(0, 0, 0)" stroke-opacity="1.0" stroke-linecap="round" stroke-linejoin="round"/>
    <path d="M 124.10679626464844 124.16646575927734 C 146.5648193359375 161.0204315185547 137.6600799560547 105.92276000976562 119.15605163574219 154.10690307617188" stroke-width="3.0" fill="none" stroke="rgb(0, 0, 0)" stroke-opacity="1.0" stroke-linecap="round" stroke-linejoin="round"/>
    <path d="M 129.74395751953125 78.39738464355469 C 175.68020629882812 104.65319061279297 141.03636169433594 54.652732849121094 147.0877227783203 66.7781753540039" stroke-width="3.0" fill="none" stroke="rgb(0, 0, 0)" stroke-opacity="1.0" stroke-linecap="round" stroke-linejoin="round"/>
    <path d="M 143.1469268798828 74.02631378173828 C 104.93955993652344 53.12872314453125 160.87924194335938 72.26080322265625 129.38658142089844 53.89248275756836" stroke-width="3.0" fill="none" stroke="rgb(0, 0, 0)" stroke-opacity="1.0" stroke-linecap="round" stroke-linejoin="round"/>
  </g>
</svg>
