<?xml version="1.0" ?>
<svg xmlns="http://www.w3.org/2000/svg" version="1.1" width="224" height="224">
  <defs/>
  <g>
    <path d="M 131.2930450439453 83.20056915283203 C 139.72975158691406 82.06100463867188 119.54939270019531 101.13226318359375 122.8969955444336 79.25450134277344" stroke-width="3.0" fill="none" stroke="rgb(0, 0, 0)" stroke-opacity="1.0" stroke-linecap="round" stroke-linejoin="round"/>
    <path d="M 185.17587280273438 98.67200469970703 C 177.181396484375 84.8198013305664 182.56617736816406 86.51323699951172 182.1217041015625 104.10885620117188" stroke-width="3.0" fill="none" stroke="rgb(0, 0, 0)" stroke-opacity="1.0" stroke-linecap="round" stroke-linejoin="round"/>
    <path d="M 68.24052429199219 45.79869079589844 C 41.69125747680664 84.30767822265625 69.69049835205078 113.69266510009766 98.15377807617188 92.80949401855469" stroke-width="3.0" fill="none" stroke="rgb(0, 0, 0)" stroke-opacity="1.0" stroke-linecap="round" stroke-linejoin="round"/>
    <path d="M 104.41094207763672 94.69416809082031 C 106.30839538574219 96.71366119384766 132.5328369140625 84.99988555908203 111.2657699584961 94.54331970214844" stroke-width="3.0" fill="none" stroke="rgb(0, 0, 0)" stroke-opacity="1.0" stroke-linecap="round" stroke-linejoin="round"/>
    <path d="M 182.08743286132812 90.26982879638672 C 187.80560302734375 76.50624084472656 183.17295837402344 67.68838500976562 186.01947021484375 81.81317901611328" stroke-width="3.0" fill="none" stroke="rgb(0, 0, 0)" stroke-opacity="1.0" stroke-linecap="round" stroke-linejoin="round"/>
    <path d="M 127.6301498413086 69.98707580566406 C 134.977783203125 93.55545043945312 114.70545196533203 94.48384857177734 127.12151336669922 84.63038635253906" stroke-width="3.0" fill="none" stroke="rgb(0, 0, 0)" stroke-opacity="1.0" stroke-linecap="round" stroke-linejoin="round"/>
    <path d="M 142.0125274658203 58.60801315307617 C 158.8045196533203 68.61555480957031 141.79637145996094 52.646114349365234 153.64785766601562 66.0026626586914" stroke-width="3.0" fill="none" stroke="rgb(0, 0, 0)" stroke-opacity="1.0" stroke-linecap="round" stroke-linejoin="round"/>
    <path d="M 93.55838012695312 99.51654815673828 C 115.58175659179688 92.3314437866211 112.64265441894531 105.96993255615234 123.20386505126953 128.9209747314453" stroke-width="3.0" fill="none" stroke="rgb(0, 0, 0)" stroke-opacity="1.0" stroke-linecap="round" stroke-linejoin="round"/>
    <path d="M 120.98457336425781 136.82078552246094 C 111.18678283691406 146.4714813232422 123.5042495727539 139.57235717773438 106.06825256347656 207.03347778320312" stroke-width="3.0" fill="none" stroke="rgb(0, 0, 0)" stroke-opacity="1.0" stroke-linecap="round" stroke-linejoin="round"/>
    <path d="M 125.65814971923828 54.68740463256836 C 134.6586456298828 74.73747253417969 121.0564956665039 64.676025390625 115.29057312011719 82.23274230957031" stroke-width="3.0" fill="none" stroke="rgb(0, 0, 0)" stroke-opacity="1.0" stroke-linecap="round" stroke-linejoin="round"/>
    <path d="M 145.54904174804688 87.3914794921875 C 151.6533966064453 84.78009033203125 132.44308471679688 92.90522766113281 153.96832275390625 80.26936340332031" stroke-width="3.0" fill="none" stroke="rgb(0, 0, 0)" stroke-opacity="1.0" stroke-linecap="round" stroke-linejoin="round"/>
    <path d="M 145.93524169921875 67.44438934326172 C 128.22035217285156 91.51954650878906 128.86688232421875 104.46449279785156 134.510009765625 79.39697265625" stroke-width="3.0" fill="none" stroke="rgb(0, 0, 0)" stroke-opacity="1.0" stroke-linecap="round" stroke-linejoin="round"/>
    <path d="M 135.875 63.36767578125 C 133.3074188232422 96.5516586303711 137.4585723876953 61.324928283691406 133.3415069580078 68.14270782470703" stroke-width="3.0" fill="none" stroke="rgb(0, 0, 0)" stroke-opacity="1.0" stroke-linecap="round" stroke-linejoin="round"/>
    <path d="M 121.67385864257812 129.07518005371094 C 130.2769775390625 149.96240234375 123.51301574707031 105.7961654663086 118.63814544677734 137.59788513183594" stroke-width="3.0" fill="none" stroke="rgb(0, 0, 0)" stroke-opacity="1.0" stroke-linecap="round" stroke-linejoin="round"/>
    <path d="M 132.66029357910156 52.72732925415039 C 131.19088745117188 61.729827880859375 135.53561401367188 49.47993087768555 143.70338439941406 60.576385498046875" stroke-width="3.0" fill="none" stroke="rgb(0, 0, 0)" stroke-opacity="1.0" stroke-linecap="round" stroke-linejoin="round"/>
    <path d="M 119.90141296386719 53.35773468017578 C 127.48056030273438 57.37587356567383 127.82769012451172 40.908687591552734 143.75662231445312 64.82707214355469" stroke-width="3.0" fill="none" stroke="rgb(0, 0, 0)" stroke-opacity="1.0" stroke-linecap="round" stroke-linejoin="round"/>
  </g>
</svg>
