<?xml version="1.0" ?>
<svg xmlns="http://www.w3.org/2000/svg" version="1.1" width="224" height="224">
  <defs/>
  <g>
    <path d="M 181.18197631835938 92.85926055908203 C 160.04638671875 85.73001098632812 38.52214431762695 101.42208099365234 129.36474609375 71.30525207519531" stroke-width="3.0" fill="none" stroke="rgb(0, 0, 0)" stroke-opacity="1.0" stroke-linecap="round" stroke-linejoin="round"/>
    <path d="M 177.9161834716797 96.14044189453125 C 175.5938720703125 96.93758392333984 205.6134033203125 90.47898864746094 134.06358337402344 118.92304992675781" stroke-width="3.0" fill="none" stroke="rgb(0, 0, 0)" stroke-opacity="1.0" stroke-linecap="round" stroke-linejoin="round"/>
    <path d="M 57.302452087402344 41.62584686279297 C 11.563619613647461 26.211395263671875 62.120601654052734 127.82797241210938 81.79254913330078 67.0390853881836" stroke-width="3.0" fill="none" stroke="rgb(0, 0, 0)" stroke-opacity="1.0" stroke-linecap="round" stroke-linejoin="round"/>
    <path d="M 96.270751953125 62.86151123046875 C 145.04660034179688 68.9139404296875 200.98806762695312 99.25064849853516 101.56324768066406 80.2322998046875" stroke-width="3.0" fill="none" stroke="rgb(0, 0, 0)" stroke-opacity="1.0" stroke-linecap="round" stroke-linejoin="round"/>
    <path d="M 132.93421936035156 75.97191619873047 C 204.6791534423828 103.43437957763672 170.0057830810547 98.51826477050781 181.34751892089844 95.1744613647461" stroke-width="3.0" fill="none" stroke="rgb(0, 0, 0)" stroke-opacity="1.0" stroke-linecap="round" stroke-linejoin="round"/>
    <path d="M 103.2329330444336 51.9530029296875 C 107.48942565917969 57.26643371582031 35.82365036010742 140.52618408203125 70.4634017944336 91.04659271240234" stroke-width="3.0" fill="none" stroke="rgb(0, 0, 0)" stroke-opacity="1.0" stroke-linecap="round" stroke-linejoin="round"/>
    <path d="M 142.7969207763672 79.35633850097656 C 3.4140753746032715 66.4308090209961 149.97232055664062 26.85501480102539 190.3457794189453 96.58955383300781" stroke-width="3.0" fill="none" stroke="rgb(0, 0, 0)" stroke-opacity="1.0" stroke-linecap="round" stroke-linejoin="round"/>
    <path d="M 89.63248443603516 78.35643005371094 C 111.19925689697266 114.04564666748047 112.20935821533203 69.84912109375 120.53219604492188 146.51904296875" stroke-width="3.0" fill="none" stroke="rgb(0, 0, 0)" stroke-opacity="1.0" stroke-linecap="round" stroke-linejoin="round"/>
    <path d="M 123.79656982421875 90.87616729736328 C 116.11714172363281 204.91563415527344 128.98605346679688 92.84811401367188 106.1512680053711 204.89697265625" stroke-width="3.0" fill="none" stroke="rgb(0, 0, 0)" stroke-opacity="1.0" stroke-linecap="round" stroke-linejoin="round"/>
    <path d="M 151.8020477294922 59.58668518066406 C 136.2941131591797 49.322593688964844 89.91130065917969 22.191200256347656 84.07215118408203 85.92526245117188" stroke-width="3.0" fill="none" stroke="rgb(0, 0, 0)" stroke-opacity="1.0" stroke-linecap="round" stroke-linejoin="round"/>
    <path d="M 92.4678955078125 57.49706268310547 C 138.72915649414062 31.17905616760254 141.76097106933594 54.48628234863281 173.4846954345703 80.92607116699219" stroke-width="3.0" fill="none" stroke="rgb(0, 0, 0)" stroke-opacity="1.0" stroke-linecap="round" stroke-linejoin="round"/>
    <path d="M 163.19664001464844 76.14974975585938 C 155.64212036132812 89.7972640991211 242.5708465576172 130.58714294433594 142.7783966064453 56.02940368652344" stroke-width="3.0" fill="none" stroke="rgb(0, 0, 0)" stroke-opacity="1.0" stroke-linecap="round" stroke-linejoin="round"/>
    <path d="M 149.9518585205078 67.42594909667969 C 194.94070434570312 99.79031372070312 182.43081665039062 74.68135070800781 133.31398010253906 61.70497512817383" stroke-width="3.0" fill="none" stroke="rgb(0, 0, 0)" stroke-opacity="1.0" stroke-linecap="round" stroke-linejoin="round"/>
    <path d="M 121.90169525146484 122.41312408447266 C 146.79981994628906 153.11460876464844 136.78768920898438 106.85706329345703 115.90385437011719 144.2549285888672" stroke-width="3.0" fill="none" stroke="rgb(0, 0, 0)" stroke-opacity="1.0" stroke-linecap="round" stroke-linejoin="round"/>
    <path d="M 120.28955841064453 77.97185516357422 C 173.34400939941406 110.7223129272461 136.67901611328125 54.51264953613281 141.51443481445312 58.926143646240234" stroke-width="3.0" fill="none" stroke="rgb(0, 0, 0)" stroke-opacity="1.0" stroke-linecap="round" stroke-linejoin="round"/>
    <path d="M 140.81539916992188 72.41871643066406 C 97.9035873413086 47.44230270385742 170.0780029296875 71.00642395019531 126.208251953125 48.51801681518555" stroke-width="3.0" fill="none" stroke="rgb(0, 0, 0)" stroke-opacity="1.0" stroke-linecap="round" stroke-linejoin="round"/>
  </g>
</svg>
