<?xml version="1.0" ?>
<svg xmlns="http://www.w3.org/2000/svg" version="1.1" width="224" height="224">
  <defs/>
  <g>
    <path d="M 127.74610137939453 87.96484375 C 137.11630249023438 79.23464965820312 130.1633758544922 88.18311309814453 127.77704620361328 78.26375579833984" stroke-width="3.0" fill="none" stroke="rgb(0, 0, 0)" stroke-opacity="1.0" stroke-linecap="round" stroke-linejoin="round"/>
    <path d="M 175.85362243652344 96.22721099853516 C 176.23440551757812 84.42823791503906 171.91407775878906 85.54553985595703 180.53564453125 93.06807708740234" stroke-width="3.0" fill="none" stroke="rgb(0, 0, 0)" stroke-opacity="1.0" stroke-linecap="round" stroke-linejoin="round"/>
    <path d="M 75.096923828125 62.88147735595703 C 76.68913269042969 86.81865692138672 83.90101623535156 87.12594604492188 92.78884887695312 93.1896743774414" stroke-width="3.0" fill="none" stroke="rgb(0, 0, 0)" stroke-opacity="1.0" stroke-linecap="round" stroke-linejoin="round"/>
    <path d="M 104.09439849853516 77.93692779541016 C 111.01179504394531 93.44979095458984 117.40202331542969 82.96943664550781 114.00934600830078 92.20243072509766" stroke-width="3.0" fill="none" stroke="rgb(0, 0, 0)" stroke-opacity="1.0" stroke-linecap="round" stroke-linejoin="round"/>
    <path d="M 169.65383911132812 77.60261535644531 C 167.0486297607422 74.3357925415039 164.68861389160156 71.20243835449219 174.30368041992188 80.6008529663086" stroke-width="3.0" fill="none" stroke="rgb(0, 0, 0)" stroke-opacity="1.0" stroke-linecap="round" stroke-linejoin="round"/>
    <path d="M 123.04744720458984 85.28325653076172 C 124.91474914550781 97.4886703491211 119.68942260742188 91.03231048583984 121.47476196289062 88.92929077148438" stroke-width="3.0" fill="none" stroke="rgb(0, 0, 0)" stroke-opacity="1.0" stroke-linecap="round" stroke-linejoin="round"/>
    <path d="M 143.1038055419922 62.790645599365234 C 159.83099365234375 61.759456634521484 156.74143981933594 62.37038803100586 152.81517028808594 70.91050720214844" stroke-width="3.0" fill="none" stroke="rgb(0, 0, 0)" stroke-opacity="1.0" stroke-linecap="round" stroke-linejoin="round"/>
    <path d="M 110.50098419189453 96.84413146972656 C 119.82232666015625 105.12709045410156 117.09395599365234 100.97091674804688 114.32845306396484 116.50088500976562" stroke-width="3.0" fill="none" stroke="rgb(0, 0, 0)" stroke-opacity="1.0" stroke-linecap="round" stroke-linejoin="round"/>
    <path d="M 111.69758605957031 146.98214721679688 C 115.08232116699219 166.98715209960938 116.78457641601562 156.84957885742188 112.48685455322266 185.04376220703125" stroke-width="3.0" fill="none" stroke="rgb(0, 0, 0)" stroke-opacity="1.0" stroke-linecap="round" stroke-linejoin="round"/>
    <path d="M 124.54322052001953 60.43745422363281 C 126.40042114257812 79.91581726074219 123.18240356445312 72.07929992675781 116.82809448242188 85.02729034423828" stroke-width="3.0" fill="none" stroke="rgb(0, 0, 0)" stroke-opacity="1.0" stroke-linecap="round" stroke-linejoin="round"/>
    <path d="M 133.2134246826172 97.85262298583984 C 136.9135284423828 95.30101013183594 132.94056701660156 98.96863555908203 139.9254608154297 94.5685806274414" stroke-width="3.0" fill="none" stroke="rgb(0, 0, 0)" stroke-opacity="1.0" stroke-linecap="round" stroke-linejoin="round"/>
    <path d="M 133.81956481933594 73.38750457763672 C 131.40623474121094 83.37849426269531 125.40392303466797 82.17532348632812 133.5194854736328 77.48370361328125" stroke-width="3.0" fill="none" stroke="rgb(0, 0, 0)" stroke-opacity="1.0" stroke-linecap="round" stroke-linejoin="round"/>
    <path d="M 132.55467224121094 79.99723052978516 C 127.2538833618164 85.88470458984375 129.1564483642578 71.1203842163086 131.6573944091797 81.02006530761719" stroke-width="3.0" fill="none" stroke="rgb(0, 0, 0)" stroke-opacity="1.0" stroke-linecap="round" stroke-linejoin="round"/>
    <path d="M 119.56473541259766 128.31637573242188 C 127.37566375732422 135.8984375 128.9314727783203 140.46298217773438 121.95356750488281 133.52464294433594" stroke-width="3.0" fill="none" stroke="rgb(0, 0, 0)" stroke-opacity="1.0" stroke-linecap="round" stroke-linejoin="round"/>
    <path d="M 128.5133056640625 49.582706451416016 C 128.42739868164062 51.76735305786133 135.48692321777344 49.20216369628906 146.90005493164062 57.362098693847656" stroke-width="3.0" fill="none" stroke="rgb(0, 0, 0)" stroke-opacity="1.0" stroke-linecap="round" stroke-linejoin="round"/>
    <path d="M 119.0980453491211 48.20088195800781 C 125.96839904785156 57.07658386230469 125.6160888671875 53.89432144165039 132.77272033691406 59.85799789428711" stroke-width="3.0" fill="none" stroke="rgb(0, 0, 0)" stroke-opacity="1.0" stroke-linecap="round" stroke-linejoin="round"/>
  </g>
</svg>
