<?xml version="1.0" ?>
<svg xmlns="http://www.w3.org/2000/svg" version="1.1" width="224" height="224">
  <defs/>
  <g>
    <path d="M 172.18653869628906 88.6431884765625 C 137.26658630371094 75.7225112915039 103.67571258544922 90.10581970214844 146.72763061523438 84.75809478759766" stroke-width="3.0" fill="none" stroke="rgb(0, 0, 0)" stroke-opacity="1.0" stroke-linecap="round" stroke-linejoin="round"/>
    <path d="M 172.4129638671875 87.94247436523438 C 169.3340301513672 93.8165283203125 190.59176635742188 90.41914367675781 159.64926147460938 108.01527404785156" stroke-width="3.0" fill="none" stroke="rgb(0, 0, 0)" stroke-opacity="1.0" stroke-linecap="round" stroke-linejoin="round"/>
    <path d="M 48.61092758178711 42.56728744506836 C 11.703548431396484 58.88730239868164 82.44437408447266 134.6717987060547 89.38579559326172 74.69791412353516" stroke-width="3.0" fill="none" stroke="rgb(0, 0, 0)" stroke-opacity="1.0" stroke-linecap="round" stroke-linejoin="round"/>
    <path d="M 103.23561096191406 67.78617095947266 C 156.7477569580078 67.1600341796875 199.53297424316406 77.44722747802734 106.82147979736328 90.66383361816406" stroke-width="3.0" fill="none" stroke="rgb(0, 0, 0)" stroke-opacity="1.0" stroke-linecap="round" stroke-linejoin="round"/>
    <path d="M 161.47007751464844 82.01252746582031 C 212.26712036132812 104.0179672241211 169.5269012451172 96.18780517578125 184.9971923828125 94.91085815429688" stroke-width="3.0" fill="none" stroke="rgb(0, 0, 0)" stroke-opacity="1.0" stroke-linecap="round" stroke-linejoin="round"/>
    <path d="M 143.77687072753906 57.118446350097656 C 117.73308563232422 71.39273834228516 71.53096771240234 100.42164611816406 91.6778564453125 58.49021911621094" stroke-width="3.0" fill="none" stroke="rgb(0, 0, 0)" stroke-opacity="1.0" stroke-linecap="round" stroke-linejoin="round"/>
    <path d="M 150.4171600341797 65.86558532714844 C 131.97323608398438 68.05419158935547 158.2175750732422 49.5197868347168 190.34568786621094 93.65096282958984" stroke-width="3.0" fill="none" stroke="rgb(0, 0, 0)" stroke-opacity="1.0" stroke-linecap="round" stroke-linejoin="round"/>
    <path d="M 85.01997375488281 90.76832580566406 C 119.57294464111328 98.2528076171875 109.98651123046875 75.81220245361328 122.45738220214844 136.91668701171875" stroke-width="3.0" fill="none" stroke="rgb(0, 0, 0)" stroke-opacity="1.0" stroke-linecap="round" stroke-linejoin="round"/>
    <path d="M 143.83883666992188 112.2180404663086 C 113.3370361328125 175.25990295410156 132.9326629638672 98.56179809570312 103.03109741210938 205.60340881347656" stroke-width="3.0" fill="none" stroke="rgb(0, 0, 0)" stroke-opacity="1.0" stroke-linecap="round" stroke-linejoin="round"/>
    <path d="M 123.30795288085938 46.02042770385742 C 145.99786376953125 50.66505432128906 93.788818359375 30.108007431030273 83.04986572265625 82.57723999023438" stroke-width="3.0" fill="none" stroke="rgb(0, 0, 0)" stroke-opacity="1.0" stroke-linecap="round" stroke-linejoin="round"/>
    <path d="M 104.00955200195312 58.83006286621094 C 156.60903930664062 49.4996223449707 132.38180541992188 56.48374557495117 170.6021728515625 82.11866760253906" stroke-width="3.0" fill="none" stroke="rgb(0, 0, 0)" stroke-opacity="1.0" stroke-linecap="round" stroke-linejoin="round"/>
    <path d="M 180.10353088378906 81.63833618164062 C 147.01229858398438 61.86484146118164 172.68882751464844 79.84651947021484 145.85736083984375 79.27818298339844" stroke-width="3.0" fill="none" stroke="rgb(0, 0, 0)" stroke-opacity="1.0" stroke-linecap="round" stroke-linejoin="round"/>
    <path d="M 144.11526489257812 64.34688568115234 C 140.02127075195312 67.69224548339844 149.70962524414062 56.16984558105469 147.44390869140625 61.408756256103516" stroke-width="3.0" fill="none" stroke="rgb(0, 0, 0)" stroke-opacity="1.0" stroke-linecap="round" stroke-linejoin="round"/>
    <path d="M 125.00311279296875 134.9164581298828 C 131.98126220703125 150.5914306640625 127.35144805908203 112.92236328125 116.16590881347656 143.20802307128906" stroke-width="3.0" fill="none" stroke="rgb(0, 0, 0)" stroke-opacity="1.0" stroke-linecap="round" stroke-linejoin="round"/>
    <path d="M 145.60760498046875 62.96792984008789 C 163.17507934570312 66.34715270996094 126.54804229736328 53.65829086303711 153.7158660888672 64.20667266845703" stroke-width="3.0" fill="none" stroke="rgb(0, 0, 0)" stroke-opacity="1.0" stroke-linecap="round" stroke-linejoin="round"/>
    <path d="M 140.38880920410156 57.1944694519043 C 121.5501937866211 50.349632263183594 155.0768585205078 58.28312301635742 145.34622192382812 63.109745025634766" stroke-width="3.0" fill="none" stroke="rgb(0, 0, 0)" stroke-opacity="1.0" stroke-linecap="round" stroke-linejoin="round"/>
  </g>
</svg>
