<?xml version="1.0" ?>
<svg xmlns="http://www.w3.org/2000/svg" version="1.1" width="224" height="224">
  <defs/>
  <g>
    <path d="M 182.83737182617188 97.19538116455078 C 167.9737091064453 81.71538543701172 27.658924102783203 94.47102355957031 116.64002227783203 73.4732437133789" stroke-width="3.0" fill="none" stroke="rgb(0, 0, 0)" stroke-opacity="1.0" stroke-linecap="round" stroke-linejoin="round"/>
    <path d="M 187.30592346191406 98.42568969726562 C 184.4517059326172 101.94392395019531 205.59303283691406 87.61869812011719 129.10641479492188 120.53399658203125" stroke-width="3.0" fill="none" stroke="rgb(0, 0, 0)" stroke-opacity="1.0" stroke-linecap="round" stroke-linejoin="round"/>
    <path d="M 59.771915435791016 41.72633743286133 C 9.046093940734863 20.51132583618164 75.39303588867188 135.2719268798828 87.36090850830078 60.11341857910156" stroke-width="3.0" fill="none" stroke="rgb(0, 0, 0)" stroke-opacity="1.0" stroke-linecap="round" stroke-linejoin="round"/>
    <path d="M 97.75106048583984 61.280277252197266 C 160.86390686035156 57.891422271728516 210.55250549316406 104.63262176513672 107.8278579711914 75.9034194946289" stroke-width="3.0" fill="none" stroke="rgb(0, 0, 0)" stroke-opacity="1.0" stroke-linecap="round" stroke-linejoin="round"/>
    <path d="M 127.96913146972656 69.3519287109375 C 202.9862823486328 105.75476837158203 172.02520751953125 79.25709533691406 172.7395477294922 89.29978942871094" stroke-width="3.0" fill="none" stroke="rgb(0, 0, 0)" stroke-opacity="1.0" stroke-linecap="round" stroke-linejoin="round"/>
    <path d="M 96.89703369140625 54.07557678222656 C 113.02942657470703 66.53643798828125 46.1680908203125 140.6779022216797 78.4660415649414 102.35303497314453" stroke-width="3.0" fill="none" stroke="rgb(0, 0, 0)" stroke-opacity="1.0" stroke-linecap="round" stroke-linejoin="round"/>
    <path d="M 153.51644897460938 79.11341857910156 C 5.341118335723877 55.80595779418945 154.99569702148438 26.45760154724121 189.8400115966797 95.45047760009766" stroke-width="3.0" fill="none" stroke="rgb(0, 0, 0)" stroke-opacity="1.0" stroke-linecap="round" stroke-linejoin="round"/>
    <path d="M 90.39727783203125 68.55252075195312 C 107.84831237792969 113.76790618896484 114.09432220458984 62.87519073486328 120.97602081298828 144.2875518798828" stroke-width="3.0" fill="none" stroke="rgb(0, 0, 0)" stroke-opacity="1.0" stroke-linecap="round" stroke-linejoin="round"/>
    <path d="M 124.7449951171875 89.39615631103516 C 118.07661437988281 203.72474670410156 129.5405731201172 92.94145965576172 106.43006896972656 206.8659210205078" stroke-width="3.0" fill="none" stroke="rgb(0, 0, 0)" stroke-opacity="1.0" stroke-linecap="round" stroke-linejoin="round"/>
    <path d="M 152.0215301513672 63.351348876953125 C 140.15057373046875 46.87866973876953 105.00050354003906 22.706707000732422 81.35734558105469 81.34524536132812" stroke-width="3.0" fill="none" stroke="rgb(0, 0, 0)" stroke-opacity="1.0" stroke-linecap="round" stroke-linejoin="round"/>
    <path d="M 90.71927642822266 69.28480529785156 C 128.66793823242188 22.73777198791504 132.37869262695312 56.09095764160156 166.7024688720703 86.1324462890625" stroke-width="3.0" fill="none" stroke="rgb(0, 0, 0)" stroke-opacity="1.0" stroke-linecap="round" stroke-linejoin="round"/>
    <path d="M 158.04849243164062 65.16778564453125 C 160.77413940429688 85.92402648925781 241.1323699951172 122.91999053955078 139.71499633789062 60.61195755004883" stroke-width="3.0" fill="none" stroke="rgb(0, 0, 0)" stroke-opacity="1.0" stroke-linecap="round" stroke-linejoin="round"/>
    <path d="M 159.06617736816406 70.74411010742188 C 198.03073120117188 96.52391052246094 169.08169555664062 86.88993835449219 116.69242858886719 56.09648895263672" stroke-width="3.0" fill="none" stroke="rgb(0, 0, 0)" stroke-opacity="1.0" stroke-linecap="round" stroke-linejoin="round"/>
    <path d="M 124.16238403320312 123.53892517089844 C 140.94320678710938 151.47434997558594 132.48635864257812 101.61380767822266 115.71892547607422 152.44210815429688" stroke-width="3.0" fill="none" stroke="rgb(0, 0, 0)" stroke-opacity="1.0" stroke-linecap="round" stroke-linejoin="round"/>
    <path d="M 96.30697631835938 84.2446060180664 C 184.44967651367188 110.9338150024414 153.51429748535156 55.44517135620117 141.94232177734375 79.4770278930664" stroke-width="3.0" fill="none" stroke="rgb(0, 0, 0)" stroke-opacity="1.0" stroke-linecap="round" stroke-linejoin="round"/>
    <path d="M 146.0515899658203 80.86699676513672 C 49.67593765258789 40.973819732666016 162.95669555664062 64.70919799804688 122.40979766845703 46.99034118652344" stroke-width="3.0" fill="none" stroke="rgb(0, 0, 0)" stroke-opacity="1.0" stroke-linecap="round" stroke-linejoin="round"/>
  </g>
</svg>
