<?xml version="1.0" ?>
<svg xmlns="http://www.w3.org/2000/svg" version="1.1" width="224" height="224">
  <defs/>
  <g>
    <path d="M 182.03578186035156 95.87814331054688 C 133.95758056640625 75.45588684082031 47.71390151977539 110.50700378417969 139.1904296875 73.18714904785156" stroke-width="3.0" fill="none" stroke="rgb(0, 0, 0)" stroke-opacity="1.0" stroke-linecap="round" stroke-linejoin="round"/>
    <path d="M 187.32420349121094 99.45930480957031 C 179.2521514892578 92.01728057861328 201.2854461669922 92.50411987304688 131.83187866210938 119.36380004882812" stroke-width="3.0" fill="none" stroke="rgb(0, 0, 0)" stroke-opacity="1.0" stroke-linecap="round" stroke-linejoin="round"/>
    <path d="M 57.43863296508789 42.97758865356445 C 9.318202018737793 35.395442962646484 63.633235931396484 123.41229248046875 72.37550354003906 65.68921661376953" stroke-width="3.0" fill="none" stroke="rgb(0, 0, 0)" stroke-opacity="1.0" stroke-linecap="round" stroke-linejoin="round"/>
    <path d="M 115.5853042602539 63.4450569152832 C 163.37147521972656 64.9774398803711 216.4498748779297 82.58183288574219 94.07997131347656 88.98383331298828" stroke-width="3.0" fill="none" stroke="rgb(0, 0, 0)" stroke-opacity="1.0" stroke-linecap="round" stroke-linejoin="round"/>
    <path d="M 154.68807983398438 79.89186096191406 C 214.25306701660156 104.66912078857422 171.35655212402344 100.24346923828125 188.99354553222656 99.5567626953125" stroke-width="3.0" fill="none" stroke="rgb(0, 0, 0)" stroke-opacity="1.0" stroke-linecap="round" stroke-linejoin="round"/>
    <path d="M 141.11093139648438 52.95656967163086 C 106.67229461669922 61.03717803955078 42.19090270996094 114.2586898803711 71.61016845703125 64.9328384399414" stroke-width="3.0" fill="none" stroke="rgb(0, 0, 0)" stroke-opacity="1.0" stroke-linecap="round" stroke-linejoin="round"/>
    <path d="M 154.93772888183594 79.68085479736328 C 73.81499481201172 51.23964309692383 154.3168182373047 44.69402313232422 191.39723205566406 97.27088928222656" stroke-width="3.0" fill="none" stroke="rgb(0, 0, 0)" stroke-opacity="1.0" stroke-linecap="round" stroke-linejoin="round"/>
    <path d="M 81.93519592285156 80.2332763671875 C 122.43120574951172 97.76042938232422 112.92586517333984 88.28282928466797 122.28092956542969 149.679443359375" stroke-width="3.0" fill="none" stroke="rgb(0, 0, 0)" stroke-opacity="1.0" stroke-linecap="round" stroke-linejoin="round"/>
    <path d="M 123.56122589111328 91.2018051147461 C 123.50479888916016 204.16334533691406 134.7209014892578 96.33320617675781 108.91127014160156 201.01040649414062" stroke-width="3.0" fill="none" stroke="rgb(0, 0, 0)" stroke-opacity="1.0" stroke-linecap="round" stroke-linejoin="round"/>
    <path d="M 130.8901824951172 47.174156188964844 C 138.1576385498047 53.33319854736328 77.97138214111328 28.367963790893555 77.46783447265625 82.53229522705078" stroke-width="3.0" fill="none" stroke="rgb(0, 0, 0)" stroke-opacity="1.0" stroke-linecap="round" stroke-linejoin="round"/>
    <path d="M 112.70295715332031 53.03068542480469 C 148.17555236816406 41.449161529541016 129.91461181640625 65.33014678955078 168.2393798828125 80.02362060546875" stroke-width="3.0" fill="none" stroke="rgb(0, 0, 0)" stroke-opacity="1.0" stroke-linecap="round" stroke-linejoin="round"/>
    <path d="M 157.343994140625 82.524169921875 C 136.03533935546875 72.75579833984375 202.52978515625 108.5887451171875 151.84646606445312 63.569923400878906" stroke-width="3.0" fill="none" stroke="rgb(0, 0, 0)" stroke-opacity="1.0" stroke-linecap="round" stroke-linejoin="round"/>
    <path d="M 152.3850555419922 68.26258087158203 C 158.51780700683594 90.2650146484375 157.61831665039062 74.85768127441406 146.75140380859375 76.26974487304688" stroke-width="3.0" fill="none" stroke="rgb(0, 0, 0)" stroke-opacity="1.0" stroke-linecap="round" stroke-linejoin="round"/>
    <path d="M 124.53117370605469 120.72124481201172 C 148.80148315429688 154.7364959716797 134.6728057861328 100.29692077636719 114.63187408447266 143.32574462890625" stroke-width="3.0" fill="none" stroke="rgb(0, 0, 0)" stroke-opacity="1.0" stroke-linecap="round" stroke-linejoin="round"/>
    <path d="M 139.16717529296875 79.10672760009766 C 178.09530639648438 89.2281723022461 138.6563262939453 57.841190338134766 153.91685485839844 66.12580871582031" stroke-width="3.0" fill="none" stroke="rgb(0, 0, 0)" stroke-opacity="1.0" stroke-linecap="round" stroke-linejoin="round"/>
    <path d="M 136.00936889648438 48.9886360168457 C 123.0382080078125 45.49794006347656 156.50682067871094 61.5571174621582 142.92149353027344 60.413551330566406" stroke-width="3.0" fill="none" stroke="rgb(0, 0, 0)" stroke-opacity="1.0" stroke-linecap="round" stroke-linejoin="round"/>
  </g>
</svg>
