<?xml version="1.0" ?>
<svg xmlns="http://www.w3.org/2000/svg" version="1.1" width="224" height="224">
  <defs/>
  <g>
    <path d="M 172.46290588378906 88.4756088256836 C 138.7566375732422 82.15478515625 101.38518524169922 94.48250579833984 145.0944366455078 88.10198974609375" stroke-width="3.0" fill="none" stroke="rgb(0, 0, 0)" stroke-opacity="1.0" stroke-linecap="round" stroke-linejoin="round"/>
    <path d="M 176.67025756835938 90.93811798095703 C 175.6671905517578 100.64940643310547 195.9713134765625 90.23804473876953 158.17584228515625 108.17997741699219" stroke-width="3.0" fill="none" stroke="rgb(0, 0, 0)" stroke-opacity="1.0" stroke-linecap="round" stroke-linejoin="round"/>
    <path d="M 44.53774642944336 38.06163024902344 C 13.933391571044922 65.57218933105469 84.5481948852539 128.1610870361328 80.03560638427734 69.15745544433594" stroke-width="3.0" fill="none" stroke="rgb(0, 0, 0)" stroke-opacity="1.0" stroke-linecap="round" stroke-linejoin="round"/>
    <path d="M 94.50045776367188 79.35800170898438 C 123.14820861816406 87.31920623779297 169.5547637939453 91.89210510253906 104.65380859375 93.56292724609375" stroke-width="3.0" fill="none" stroke="rgb(0, 0, 0)" stroke-opacity="1.0" stroke-linecap="round" stroke-linejoin="round"/>
    <path d="M 160.09288024902344 84.6842269897461 C 214.2342987060547 102.93368530273438 172.72613525390625 99.67154693603516 186.61830139160156 96.43767547607422" stroke-width="3.0" fill="none" stroke="rgb(0, 0, 0)" stroke-opacity="1.0" stroke-linecap="round" stroke-linejoin="round"/>
    <path d="M 142.11013793945312 54.78334426879883 C 116.21536254882812 76.68263244628906 62.2952766418457 110.37004852294922 85.77867126464844 60.043582916259766" stroke-width="3.0" fill="none" stroke="rgb(0, 0, 0)" stroke-opacity="1.0" stroke-linecap="round" stroke-linejoin="round"/>
    <path d="M 142.4892120361328 63.315433502197266 C 141.5805206298828 72.41862487792969 151.4571075439453 48.673057556152344 189.7283935546875 94.54364013671875" stroke-width="3.0" fill="none" stroke="rgb(0, 0, 0)" stroke-opacity="1.0" stroke-linecap="round" stroke-linejoin="round"/>
    <path d="M 81.55384063720703 92.51409149169922 C 121.88329315185547 101.46038055419922 104.1420669555664 86.75627899169922 121.84414672851562 134.4467315673828" stroke-width="3.0" fill="none" stroke="rgb(0, 0, 0)" stroke-opacity="1.0" stroke-linecap="round" stroke-linejoin="round"/>
    <path d="M 139.42140197753906 111.68944549560547 C 116.50936126708984 177.9462890625 134.56605529785156 105.46038055419922 105.59478759765625 206.32212829589844" stroke-width="3.0" fill="none" stroke="rgb(0, 0, 0)" stroke-opacity="1.0" stroke-linecap="round" stroke-linejoin="round"/>
    <path d="M 139.0880584716797 50.806453704833984 C 143.05577087402344 54.517784118652344 78.94661712646484 25.038021087646484 72.30743408203125 83.13479614257812" stroke-width="3.0" fill="none" stroke="rgb(0, 0, 0)" stroke-opacity="1.0" stroke-linecap="round" stroke-linejoin="round"/>
    <path d="M 104.68243408203125 70.54598236083984 C 153.0352783203125 62.82307434082031 124.1260757446289 66.48200988769531 177.55247497558594 90.28059387207031" stroke-width="3.0" fill="none" stroke="rgb(0, 0, 0)" stroke-opacity="1.0" stroke-linecap="round" stroke-linejoin="round"/>
    <path d="M 177.501953125 86.13143920898438 C 144.53778076171875 72.6983642578125 173.37644958496094 84.46317291259766 148.49154663085938 76.27916717529297" stroke-width="3.0" fill="none" stroke="rgb(0, 0, 0)" stroke-opacity="1.0" stroke-linecap="round" stroke-linejoin="round"/>
    <path d="M 143.82725524902344 63.68593215942383 C 142.28463745117188 70.37673950195312 149.3374786376953 56.11160659790039 146.88868713378906 61.043209075927734" stroke-width="3.0" fill="none" stroke="rgb(0, 0, 0)" stroke-opacity="1.0" stroke-linecap="round" stroke-linejoin="round"/>
    <path d="M 123.37232971191406 131.9222412109375 C 128.75267028808594 141.5452117919922 124.8400650024414 105.56361389160156 116.05777740478516 148.4331817626953" stroke-width="3.0" fill="none" stroke="rgb(0, 0, 0)" stroke-opacity="1.0" stroke-linecap="round" stroke-linejoin="round"/>
    <path d="M 145.2239532470703 63.20863342285156 C 166.09567260742188 66.53490447998047 126.99944305419922 58.44717788696289 152.9239501953125 60.31414794921875" stroke-width="3.0" fill="none" stroke="rgb(0, 0, 0)" stroke-opacity="1.0" stroke-linecap="round" stroke-linejoin="round"/>
    <path d="M 140.09310913085938 52.239742279052734 C 125.1360855102539 51.83182144165039 159.83668518066406 56.42176818847656 147.5370635986328 62.70839309692383" stroke-width="3.0" fill="none" stroke="rgb(0, 0, 0)" stroke-opacity="1.0" stroke-linecap="round" stroke-linejoin="round"/>
  </g>
</svg>
