<?xml version="1.0" ?>
<svg xmlns="http://www.w3.org/2000/svg" version="1.1" width="224" height="224">
  <defs/>
  <g>
    <path d="M 184.58575439453125 94.58184814453125 C 158.64735412597656 81.25736999511719 56.19168472290039 99.30978393554688 129.96981811523438 83.32868957519531" stroke-width="3.0" fill="none" stroke="rgb(0, 0, 0)" stroke-opacity="1.0" stroke-linecap="round" stroke-linejoin="round"/>
    <path d="M 188.48568725585938 97.03186798095703 C 172.81170654296875 95.42686462402344 202.13916015625 91.08226776123047 129.22396850585938 122.94937896728516" stroke-width="3.0" fill="none" stroke="rgb(0, 0, 0)" stroke-opacity="1.0" stroke-linecap="round" stroke-linejoin="round"/>
    <path d="M 54.804039001464844 38.654109954833984 C 5.578567981719971 40.3995246887207 70.15926361083984 130.50088500976562 65.94420623779297 64.23619079589844" stroke-width="3.0" fill="none" stroke="rgb(0, 0, 0)" stroke-opacity="1.0" stroke-linecap="round" stroke-linejoin="round"/>
    <path d="M 96.66829681396484 66.4241714477539 C 150.05538940429688 70.44159698486328 204.01498413085938 91.34487915039062 97.659423828125 77.65483093261719" stroke-width="3.0" fill="none" stroke="rgb(0, 0, 0)" stroke-opacity="1.0" stroke-linecap="round" stroke-linejoin="round"/>
    <path d="M 141.67462158203125 75.98867797851562 C 210.2661895751953 93.97039794921875 165.95516967773438 106.53180694580078 191.07659912109375 97.06112670898438" stroke-width="3.0" fill="none" stroke="rgb(0, 0, 0)" stroke-opacity="1.0" stroke-linecap="round" stroke-linejoin="round"/>
    <path d="M 119.50643157958984 43.81562805175781 C 96.30155181884766 52.18219757080078 32.485809326171875 133.5285186767578 67.95867919921875 70.48188018798828" stroke-width="3.0" fill="none" stroke="rgb(0, 0, 0)" stroke-opacity="1.0" stroke-linecap="round" stroke-linejoin="round"/>
    <path d="M 142.524169921875 83.55033111572266 C 20.23885154724121 59.4855842590332 153.2001495361328 35.33607864379883 189.81471252441406 94.61677551269531" stroke-width="3.0" fill="none" stroke="rgb(0, 0, 0)" stroke-opacity="1.0" stroke-linecap="round" stroke-linejoin="round"/>
    <path d="M 78.06198120117188 71.99300384521484 C 123.85012817382812 102.61627197265625 112.32675170898438 85.61344146728516 121.03221130371094 144.659912109375" stroke-width="3.0" fill="none" stroke="rgb(0, 0, 0)" stroke-opacity="1.0" stroke-linecap="round" stroke-linejoin="round"/>
    <path d="M 125.2269515991211 91.93080139160156 C 121.86046600341797 207.55661010742188 131.30613708496094 90.7917251586914 103.7612533569336 204.62139892578125" stroke-width="3.0" fill="none" stroke="rgb(0, 0, 0)" stroke-opacity="1.0" stroke-linecap="round" stroke-linejoin="round"/>
    <path d="M 125.86111450195312 46.76734924316406 C 141.61770629882812 47.631675720214844 87.25995635986328 24.889144897460938 77.10661315917969 78.80443572998047" stroke-width="3.0" fill="none" stroke="rgb(0, 0, 0)" stroke-opacity="1.0" stroke-linecap="round" stroke-linejoin="round"/>
    <path d="M 92.5807113647461 57.440982818603516 C 141.73623657226562 36.429466247558594 144.1219482421875 56.70671844482422 172.6277313232422 82.87181091308594" stroke-width="3.0" fill="none" stroke="rgb(0, 0, 0)" stroke-opacity="1.0" stroke-linecap="round" stroke-linejoin="round"/>
    <path d="M 154.81787109375 83.09616088867188 C 141.7274169921875 79.73875427246094 225.0030059814453 116.07740783691406 145.36476135253906 58.03057098388672" stroke-width="3.0" fill="none" stroke="rgb(0, 0, 0)" stroke-opacity="1.0" stroke-linecap="round" stroke-linejoin="round"/>
    <path d="M 160.03343200683594 73.63660430908203 C 175.3676300048828 93.54486846923828 165.14773559570312 77.06902313232422 146.93594360351562 65.67420959472656" stroke-width="3.0" fill="none" stroke="rgb(0, 0, 0)" stroke-opacity="1.0" stroke-linecap="round" stroke-linejoin="round"/>
    <path d="M 122.70726013183594 125.89128112792969 C 142.22476196289062 172.71246337890625 137.76185607910156 113.82274627685547 117.76152801513672 151.58555603027344" stroke-width="3.0" fill="none" stroke="rgb(0, 0, 0)" stroke-opacity="1.0" stroke-linecap="round" stroke-linejoin="round"/>
    <path d="M 134.19139099121094 75.65264129638672 C 188.21463012695312 96.60774230957031 149.41775512695312 53.35481262207031 155.0923614501953 63.756534576416016" stroke-width="3.0" fill="none" stroke="rgb(0, 0, 0)" stroke-opacity="1.0" stroke-linecap="round" stroke-linejoin="round"/>
    <path d="M 145.0132598876953 70.455322265625 C 106.45002746582031 51.77793502807617 151.93836975097656 66.86339569091797 132.50502014160156 54.30116653442383" stroke-width="3.0" fill="none" stroke="rgb(0, 0, 0)" stroke-opacity="1.0" stroke-linecap="round" stroke-linejoin="round"/>
  </g>
</svg>
