<?xml version="1.0" ?>
<svg xmlns="http://www.w3.org/2000/svg" version="1.1" width="224" height="224">
  <defs/>
  <g>
    <path d="M 179.77330017089844 98.28234100341797 C 174.9794464111328 79.61701965332031 33.374385833740234 92.88459014892578 117.62948608398438 71.94745635986328" stroke-width="3.0" fill="none" stroke="rgb(0, 0, 0)" stroke-opacity="1.0" stroke-linecap="round" stroke-linejoin="round"/>
    <path d="M 185.7914276123047 100.05530548095703 C 181.8155975341797 100.87508392333984 206.05897521972656 88.97596740722656 132.27867126464844 120.24939727783203" stroke-width="3.0" fill="none" stroke="rgb(0, 0, 0)" stroke-opacity="1.0" stroke-linecap="round" stroke-linejoin="round"/>
    <path d="M 59.54290008544922 41.173404693603516 C 8.214263916015625 26.487524032592773 75.12989807128906 139.98069763183594 88.5064468383789 62.80809020996094" stroke-width="3.0" fill="none" stroke="rgb(0, 0, 0)" stroke-opacity="1.0" stroke-linecap="round" stroke-linejoin="round"/>
    <path d="M 92.9549560546875 62.89461135864258 C 158.60862731933594 57.91660690307617 207.12686157226562 105.00550842285156 106.35450744628906 75.72180938720703" stroke-width="3.0" fill="none" stroke="rgb(0, 0, 0)" stroke-opacity="1.0" stroke-linecap="round" stroke-linejoin="round"/>
    <path d="M 128.53219604492188 72.21495056152344 C 202.96536254882812 102.80303192138672 169.4421844482422 77.04576110839844 171.3212127685547 84.86730194091797" stroke-width="3.0" fill="none" stroke="rgb(0, 0, 0)" stroke-opacity="1.0" stroke-linecap="round" stroke-linejoin="round"/>
    <path d="M 103.30982971191406 54.03731918334961 C 118.59680938720703 68.68592071533203 48.035152435302734 139.84756469726562 80.66481018066406 105.12472534179688" stroke-width="3.0" fill="none" stroke="rgb(0, 0, 0)" stroke-opacity="1.0" stroke-linecap="round" stroke-linejoin="round"/>
    <path d="M 156.54244995117188 81.27849578857422 C 3.7475714683532715 54.76712417602539 153.0989990234375 25.1914005279541 189.015869140625 94.85441589355469" stroke-width="3.0" fill="none" stroke="rgb(0, 0, 0)" stroke-opacity="1.0" stroke-linecap="round" stroke-linejoin="round"/>
    <path d="M 91.74734497070312 66.99078369140625 C 113.14908599853516 112.57758331298828 111.88469696044922 61.21607208251953 121.3468017578125 144.92356872558594" stroke-width="3.0" fill="none" stroke="rgb(0, 0, 0)" stroke-opacity="1.0" stroke-linecap="round" stroke-linejoin="round"/>
    <path d="M 124.78054809570312 93.66036987304688 C 117.1419677734375 205.2008056640625 130.046142578125 95.24258422851562 104.20096588134766 207.8297119140625" stroke-width="3.0" fill="none" stroke="rgb(0, 0, 0)" stroke-opacity="1.0" stroke-linecap="round" stroke-linejoin="round"/>
    <path d="M 154.43698120117188 62.21744155883789 C 142.75250244140625 46.21601104736328 103.85910034179688 22.047264099121094 82.80892944335938 82.62555694580078" stroke-width="3.0" fill="none" stroke="rgb(0, 0, 0)" stroke-opacity="1.0" stroke-linecap="round" stroke-linejoin="round"/>
    <path d="M 94.95884704589844 71.19017791748047 C 131.66064453125 23.90100860595703 134.56259155273438 55.755619049072266 165.2964630126953 87.83598327636719" stroke-width="3.0" fill="none" stroke="rgb(0, 0, 0)" stroke-opacity="1.0" stroke-linecap="round" stroke-linejoin="round"/>
    <path d="M 154.982666015625 65.74015045166016 C 162.27102661132812 81.1268310546875 238.02304077148438 122.96871948242188 138.77230834960938 63.594970703125" stroke-width="3.0" fill="none" stroke="rgb(0, 0, 0)" stroke-opacity="1.0" stroke-linecap="round" stroke-linejoin="round"/>
    <path d="M 159.55702209472656 70.58811950683594 C 197.33108520507812 98.22895812988281 170.0819091796875 86.08472442626953 116.14727020263672 57.53023147583008" stroke-width="3.0" fill="none" stroke="rgb(0, 0, 0)" stroke-opacity="1.0" stroke-linecap="round" stroke-linejoin="round"/>
    <path d="M 123.41277313232422 121.56302642822266 C 140.43991088867188 151.16062927246094 133.1880340576172 101.96713256835938 116.74002075195312 151.030517578125" stroke-width="3.0" fill="none" stroke="rgb(0, 0, 0)" stroke-opacity="1.0" stroke-linecap="round" stroke-linejoin="round"/>
    <path d="M 96.02381134033203 84.43094635009766 C 185.81639099121094 108.0060043334961 155.97543334960938 56.142478942871094 147.69989013671875 84.17108154296875" stroke-width="3.0" fill="none" stroke="rgb(0, 0, 0)" stroke-opacity="1.0" stroke-linecap="round" stroke-linejoin="round"/>
    <path d="M 143.7095489501953 81.59872436523438 C 41.915653228759766 41.92030334472656 166.71104431152344 64.89852905273438 120.46417999267578 47.86335754394531" stroke-width="3.0" fill="none" stroke="rgb(0, 0, 0)" stroke-opacity="1.0" stroke-linecap="round" stroke-linejoin="round"/>
  </g>
</svg>
