<?xml version="1.0" ?>
<svg xmlns="http://www.w3.org/2000/svg" version="1.1" width="224" height="224">
  <defs/>
  <g>
    <path d="M 182.16110229492188 96.22283172607422 C 187.75643920898438 80.64605712890625 42.547725677490234 92.89533233642578 121.88287353515625 72.02369689941406" stroke-width="3.0" fill="none" stroke="rgb(0, 0, 0)" stroke-opacity="1.0" stroke-linecap="round" stroke-linejoin="round"/>
    <path d="M 186.11636352539062 99.15924835205078 C 169.74891662597656 95.35943603515625 204.28720092773438 87.67876434326172 129.62989807128906 123.63507843017578" stroke-width="3.0" fill="none" stroke="rgb(0, 0, 0)" stroke-opacity="1.0" stroke-linecap="round" stroke-linejoin="round"/>
    <path d="M 58.33123016357422 45.31655502319336 C 9.652688980102539 22.041297912597656 78.7846450805664 151.41888427734375 88.3900375366211 61.29710006713867" stroke-width="3.0" fill="none" stroke="rgb(0, 0, 0)" stroke-opacity="1.0" stroke-linecap="round" stroke-linejoin="round"/>
    <path d="M 93.48967742919922 62.15336227416992 C 151.3806915283203 57.24938201904297 196.76840209960938 105.68030548095703 114.57511138916016 75.181884765625" stroke-width="3.0" fill="none" stroke="rgb(0, 0, 0)" stroke-opacity="1.0" stroke-linecap="round" stroke-linejoin="round"/>
    <path d="M 128.21897888183594 70.44483947753906 C 202.13717651367188 105.7095718383789 165.60353088378906 85.23304748535156 173.11268615722656 79.55989837646484" stroke-width="3.0" fill="none" stroke="rgb(0, 0, 0)" stroke-opacity="1.0" stroke-linecap="round" stroke-linejoin="round"/>
    <path d="M 100.89227294921875 52.85797882080078 C 122.80591583251953 72.10330200195312 56.45258331298828 143.68255615234375 83.67036437988281 109.62371063232422" stroke-width="3.0" fill="none" stroke="rgb(0, 0, 0)" stroke-opacity="1.0" stroke-linecap="round" stroke-linejoin="round"/>
    <path d="M 159.2052764892578 78.53338623046875 C 2.0583512783050537 61.32582092285156 153.16229248046875 26.446128845214844 189.6935272216797 97.78612518310547" stroke-width="3.0" fill="none" stroke="rgb(0, 0, 0)" stroke-opacity="1.0" stroke-linecap="round" stroke-linejoin="round"/>
    <path d="M 96.73094177246094 64.09821319580078 C 116.7967758178711 116.7900619506836 115.57320404052734 70.3214111328125 121.3401107788086 145.42613220214844" stroke-width="3.0" fill="none" stroke="rgb(0, 0, 0)" stroke-opacity="1.0" stroke-linecap="round" stroke-linejoin="round"/>
    <path d="M 126.64724731445312 91.65647888183594 C 118.27276611328125 202.93014526367188 129.35409545898438 97.57981872558594 106.26363372802734 208.02598571777344" stroke-width="3.0" fill="none" stroke="rgb(0, 0, 0)" stroke-opacity="1.0" stroke-linecap="round" stroke-linejoin="round"/>
    <path d="M 153.75350952148438 58.16911697387695 C 139.96144104003906 49.50279998779297 102.10696411132812 24.688766479492188 84.97136688232422 79.47833251953125" stroke-width="3.0" fill="none" stroke="rgb(0, 0, 0)" stroke-opacity="1.0" stroke-linecap="round" stroke-linejoin="round"/>
    <path d="M 89.28130340576172 73.9700927734375 C 132.7336883544922 21.311946868896484 138.30606079101562 52.9385871887207 160.28079223632812 83.22411346435547" stroke-width="3.0" fill="none" stroke="rgb(0, 0, 0)" stroke-opacity="1.0" stroke-linecap="round" stroke-linejoin="round"/>
    <path d="M 143.17129516601562 74.8798828125 C 150.96327209472656 90.46959686279297 237.0081024169922 124.90423583984375 146.91693115234375 58.16546630859375" stroke-width="3.0" fill="none" stroke="rgb(0, 0, 0)" stroke-opacity="1.0" stroke-linecap="round" stroke-linejoin="round"/>
    <path d="M 156.2902069091797 70.79286193847656 C 195.921630859375 96.02560424804688 170.2026824951172 84.10745239257812 114.9952163696289 53.04904556274414" stroke-width="3.0" fill="none" stroke="rgb(0, 0, 0)" stroke-opacity="1.0" stroke-linecap="round" stroke-linejoin="round"/>
    <path d="M 122.18849182128906 121.82067108154297 C 141.8537139892578 146.13563537597656 140.33871459960938 98.97830200195312 117.38802337646484 152.39181518554688" stroke-width="3.0" fill="none" stroke="rgb(0, 0, 0)" stroke-opacity="1.0" stroke-linecap="round" stroke-linejoin="round"/>
    <path d="M 99.9908218383789 87.9242172241211 C 194.2444610595703 106.0780029296875 161.9091033935547 50.577171325683594 141.34596252441406 72.81370544433594" stroke-width="3.0" fill="none" stroke="rgb(0, 0, 0)" stroke-opacity="1.0" stroke-linecap="round" stroke-linejoin="round"/>
    <path d="M 151.45530700683594 84.08802795410156 C 52.424034118652344 46.8675651550293 179.6174774169922 70.9615478515625 122.87427520751953 48.708160400390625" stroke-width="3.0" fill="none" stroke="rgb(0, 0, 0)" stroke-opacity="1.0" stroke-linecap="round" stroke-linejoin="round"/>
  </g>
</svg>
