<?xml version="1.0" ?>
<svg xmlns="http://www.w3.org/2000/svg" version="1.1" width="224" height="224">
  <defs/>
  <g>
    <path d="M 154.3883514404297 70.63772583007812 C 145.044677734375 88.81883239746094 114.82516479492188 88.32510375976562 140.9483184814453 83.58992767333984" stroke-width="3.0" fill="none" stroke="rgb(0, 0, 0)" stroke-opacity="1.0" stroke-linecap="round" stroke-linejoin="round"/>
    <path d="M 180.50148010253906 90.31462097167969 C 159.9603271484375 81.7813949584961 183.6543426513672 91.88837432861328 168.46189880371094 109.24659729003906" stroke-width="3.0" fill="none" stroke="rgb(0, 0, 0)" stroke-opacity="1.0" stroke-linecap="round" stroke-linejoin="round"/>
    <path d="M 61.83547592163086 46.71791076660156 C 31.906818389892578 94.74393463134766 75.24200439453125 122.20958709716797 103.24091339111328 81.49517822265625" stroke-width="3.0" fill="none" stroke="rgb(0, 0, 0)" stroke-opacity="1.0" stroke-linecap="round" stroke-linejoin="round"/>
    <path d="M 122.32036590576172 89.2603530883789 C 109.93621063232422 80.20056915283203 158.4007110595703 95.05368041992188 84.70679473876953 92.56047821044922" stroke-width="3.0" fill="none" stroke="rgb(0, 0, 0)" stroke-opacity="1.0" stroke-linecap="round" stroke-linejoin="round"/>
    <path d="M 173.57464599609375 88.34941864013672 C 201.96316528320312 95.27943420410156 175.13157653808594 87.08108520507812 175.53465270996094 87.70983123779297" stroke-width="3.0" fill="none" stroke="rgb(0, 0, 0)" stroke-opacity="1.0" stroke-linecap="round" stroke-linejoin="round"/>
    <path d="M 144.2620086669922 60.839725494384766 C 130.00904846191406 91.24364471435547 76.30815124511719 112.88765716552734 116.37909698486328 66.9598617553711" stroke-width="3.0" fill="none" stroke="rgb(0, 0, 0)" stroke-opacity="1.0" stroke-linecap="round" stroke-linejoin="round"/>
    <path d="M 143.28871154785156 49.852210998535156 C 163.5185546875 91.29228210449219 132.7545623779297 46.76621627807617 184.35263061523438 88.15574645996094" stroke-width="3.0" fill="none" stroke="rgb(0, 0, 0)" stroke-opacity="1.0" stroke-linecap="round" stroke-linejoin="round"/>
    <path d="M 69.76792907714844 99.21138763427734 C 120.50057220458984 87.44087219238281 106.4981689453125 87.08611297607422 123.05343627929688 140.78872680664062" stroke-width="3.0" fill="none" stroke="rgb(0, 0, 0)" stroke-opacity="1.0" stroke-linecap="round" stroke-linejoin="round"/>
    <path d="M 134.4629364013672 117.12906646728516 C 119.08499908447266 176.54037475585938 131.95611572265625 119.38763427734375 105.57515716552734 204.72738647460938" stroke-width="3.0" fill="none" stroke="rgb(0, 0, 0)" stroke-opacity="1.0" stroke-linecap="round" stroke-linejoin="round"/>
    <path d="M 132.91868591308594 51.96535873413086 C 140.654052734375 59.929039001464844 103.04838562011719 39.15424346923828 83.04380798339844 92.04754638671875" stroke-width="3.0" fill="none" stroke="rgb(0, 0, 0)" stroke-opacity="1.0" stroke-linecap="round" stroke-linejoin="round"/>
    <path d="M 125.00163269042969 85.53034973144531 C 142.9088897705078 58.24448776245117 110.65935516357422 67.61813354492188 171.88238525390625 83.70281982421875" stroke-width="3.0" fill="none" stroke="rgb(0, 0, 0)" stroke-opacity="1.0" stroke-linecap="round" stroke-linejoin="round"/>
    <path d="M 164.29469299316406 78.30413818359375 C 145.7790069580078 70.89081573486328 144.73013305664062 97.87031555175781 142.28086853027344 70.71844482421875" stroke-width="3.0" fill="none" stroke="rgb(0, 0, 0)" stroke-opacity="1.0" stroke-linecap="round" stroke-linejoin="round"/>
    <path d="M 135.4265899658203 56.79007339477539 C 120.97988891601562 68.64210510253906 138.05313110351562 55.80437469482422 141.80715942382812 60.362998962402344" stroke-width="3.0" fill="none" stroke="rgb(0, 0, 0)" stroke-opacity="1.0" stroke-linecap="round" stroke-linejoin="round"/>
    <path d="M 125.90489959716797 149.2177734375 C 128.56451416015625 153.6976776123047 129.3057098388672 111.64814758300781 116.80548858642578 147.34449768066406" stroke-width="3.0" fill="none" stroke="rgb(0, 0, 0)" stroke-opacity="1.0" stroke-linecap="round" stroke-linejoin="round"/>
    <path d="M 138.0601043701172 60.6160774230957 C 144.09994506835938 63.205108642578125 124.8622055053711 47.660465240478516 143.75022888183594 61.95378112792969" stroke-width="3.0" fill="none" stroke="rgb(0, 0, 0)" stroke-opacity="1.0" stroke-linecap="round" stroke-linejoin="round"/>
    <path d="M 140.80909729003906 50.269439697265625 C 127.70732879638672 57.37669372558594 151.50071716308594 44.58852005004883 141.41897583007812 53.293704986572266" stroke-width="3.0" fill="none" stroke="rgb(0, 0, 0)" stroke-opacity="1.0" stroke-linecap="round" stroke-linejoin="round"/>
  </g>
</svg>
