<?xml version="1.0" ?>
<svg xmlns="http://www.w3.org/2000/svg" version="1.1" width="224" height="224">
  <defs/>
  <g>
    <path d="M 171.4379119873047 85.48322296142578 C 126.73243713378906 82.20924377441406 60.312259674072266 102.95682525634766 141.19393920898438 70.27676391601562" stroke-width="3.0" fill="none" stroke="rgb(0, 0, 0)" stroke-opacity="1.0" stroke-linecap="round" stroke-linejoin="round"/>
    <path d="M 182.0071258544922 92.36248016357422 C 176.10194396972656 99.96286010742188 192.75132751464844 90.38961029052734 154.8440399169922 112.24980163574219" stroke-width="3.0" fill="none" stroke="rgb(0, 0, 0)" stroke-opacity="1.0" stroke-linecap="round" stroke-linejoin="round"/>
    <path d="M 43.950584411621094 37.89498519897461 C 12.43285846710205 44.66120910644531 78.12759399414062 138.19369506835938 77.27838897705078 66.44280242919922" stroke-width="3.0" fill="none" stroke="rgb(0, 0, 0)" stroke-opacity="1.0" stroke-linecap="round" stroke-linejoin="round"/>
    <path d="M 111.52272033691406 69.15645599365234 C 148.95896911621094 70.99302673339844 195.18345642089844 77.55374145507812 95.35250091552734 85.37924194335938" stroke-width="3.0" fill="none" stroke="rgb(0, 0, 0)" stroke-opacity="1.0" stroke-linecap="round" stroke-linejoin="round"/>
    <path d="M 156.2154998779297 81.9598159790039 C 213.48944091796875 111.99815368652344 169.3973846435547 96.11060333251953 183.3332977294922 95.88329315185547" stroke-width="3.0" fill="none" stroke="rgb(0, 0, 0)" stroke-opacity="1.0" stroke-linecap="round" stroke-linejoin="round"/>
    <path d="M 146.04087829589844 62.41461181640625 C 109.90139770507812 65.2726058959961 58.40200424194336 105.45616912841797 83.59207153320312 60.94709777832031" stroke-width="3.0" fill="none" stroke="rgb(0, 0, 0)" stroke-opacity="1.0" stroke-linecap="round" stroke-linejoin="round"/>
    <path d="M 158.1415557861328 67.17029571533203 C 117.81670379638672 56.656654357910156 159.28929138183594 51.544349670410156 189.23312377929688 95.46271514892578" stroke-width="3.0" fill="none" stroke="rgb(0, 0, 0)" stroke-opacity="1.0" stroke-linecap="round" stroke-linejoin="round"/>
    <path d="M 77.34547424316406 89.18014526367188 C 126.53663635253906 99.47394561767578 121.45429229736328 82.48756408691406 123.1307144165039 139.15464782714844" stroke-width="3.0" fill="none" stroke="rgb(0, 0, 0)" stroke-opacity="1.0" stroke-linecap="round" stroke-linejoin="round"/>
    <path d="M 134.1433868408203 86.14783477783203 C 113.09131622314453 192.10696411132812 132.61827087402344 91.0169906616211 106.12603759765625 206.65231323242188" stroke-width="3.0" fill="none" stroke="rgb(0, 0, 0)" stroke-opacity="1.0" stroke-linecap="round" stroke-linejoin="round"/>
    <path d="M 126.22595977783203 49.42672348022461 C 141.92794799804688 50.96521759033203 75.45741271972656 26.89422035217285 68.8648910522461 77.31979370117188" stroke-width="3.0" fill="none" stroke="rgb(0, 0, 0)" stroke-opacity="1.0" stroke-linecap="round" stroke-linejoin="round"/>
    <path d="M 113.02299499511719 47.493690490722656 C 157.89743041992188 48.89306640625 131.08834838867188 65.53955841064453 175.20291137695312 82.8308334350586" stroke-width="3.0" fill="none" stroke="rgb(0, 0, 0)" stroke-opacity="1.0" stroke-linecap="round" stroke-linejoin="round"/>
    <path d="M 181.3205108642578 85.51337432861328 C 151.46168518066406 74.87954711914062 204.12831115722656 100.29713439941406 144.53468322753906 86.22684478759766" stroke-width="3.0" fill="none" stroke="rgb(0, 0, 0)" stroke-opacity="1.0" stroke-linecap="round" stroke-linejoin="round"/>
    <path d="M 146.65081787109375 64.55150604248047 C 146.03372192382812 71.93163299560547 153.63719177246094 60.283267974853516 142.541748046875 66.58720397949219" stroke-width="3.0" fill="none" stroke="rgb(0, 0, 0)" stroke-opacity="1.0" stroke-linecap="round" stroke-linejoin="round"/>
    <path d="M 125.99368286132812 120.19120788574219 C 137.7089385986328 145.38616943359375 130.4965362548828 102.65520477294922 119.7804946899414 139.2833251953125" stroke-width="3.0" fill="none" stroke="rgb(0, 0, 0)" stroke-opacity="1.0" stroke-linecap="round" stroke-linejoin="round"/>
    <path d="M 146.8299560546875 64.30604553222656 C 160.90618896484375 68.85865020751953 128.06800842285156 48.972801208496094 145.76805114746094 59.14872741699219" stroke-width="3.0" fill="none" stroke="rgb(0, 0, 0)" stroke-opacity="1.0" stroke-linecap="round" stroke-linejoin="round"/>
    <path d="M 142.34527587890625 57.04618453979492 C 111.58351135253906 52.95163345336914 148.8813018798828 60.692806243896484 141.83766174316406 60.83863067626953" stroke-width="3.0" fill="none" stroke="rgb(0, 0, 0)" stroke-opacity="1.0" stroke-linecap="round" stroke-linejoin="round"/>
  </g>
</svg>
