<?xml version="1.0" ?>
<svg xmlns="http://www.w3.org/2000/svg" version="1.1" width="224" height="224">
  <defs/>
  <g>
    <path d="M 155.72108459472656 78.33577728271484 C 142.0685577392578 95.36865997314453 113.65192413330078 98.55943298339844 136.50437927246094 90.40213012695312" stroke-width="3.0" fill="none" stroke="rgb(0, 0, 0)" stroke-opacity="1.0" stroke-linecap="round" stroke-linejoin="round"/>
    <path d="M 177.7872314453125 100.27798461914062 C 186.61936950683594 89.77626037597656 193.58567810058594 98.40959930419922 155.5022735595703 109.90364074707031" stroke-width="3.0" fill="none" stroke="rgb(0, 0, 0)" stroke-opacity="1.0" stroke-linecap="round" stroke-linejoin="round"/>
    <path d="M 65.9677734375 49.43840789794922 C 42.69905471801758 93.99543762207031 69.30320739746094 119.83419036865234 104.16309356689453 82.36161804199219" stroke-width="3.0" fill="none" stroke="rgb(0, 0, 0)" stroke-opacity="1.0" stroke-linecap="round" stroke-linejoin="round"/>
    <path d="M 118.2181167602539 95.68912506103516 C 111.87580108642578 90.10494232177734 158.05775451660156 96.67483520507812 95.57283782958984 98.06913757324219" stroke-width="3.0" fill="none" stroke="rgb(0, 0, 0)" stroke-opacity="1.0" stroke-linecap="round" stroke-linejoin="round"/>
    <path d="M 179.01144409179688 99.72000122070312 C 195.04562377929688 99.03483581542969 187.1401824951172 106.72740936279297 190.7877197265625 101.73804473876953" stroke-width="3.0" fill="none" stroke="rgb(0, 0, 0)" stroke-opacity="1.0" stroke-linecap="round" stroke-linejoin="round"/>
    <path d="M 138.2396697998047 57.42627716064453 C 134.97474670410156 104.47802734375 89.64553833007812 126.72936248779297 121.3664321899414 65.89237976074219" stroke-width="3.0" fill="none" stroke="rgb(0, 0, 0)" stroke-opacity="1.0" stroke-linecap="round" stroke-linejoin="round"/>
    <path d="M 138.7814483642578 61.205543518066406 C 169.12216186523438 81.27818298339844 140.16384887695312 53.08658218383789 160.0287628173828 66.32427215576172" stroke-width="3.0" fill="none" stroke="rgb(0, 0, 0)" stroke-opacity="1.0" stroke-linecap="round" stroke-linejoin="round"/>
    <path d="M 82.11393737792969 103.46250915527344 C 125.41434478759766 89.4041976928711 106.33643341064453 91.933837890625 120.06456756591797 131.0270538330078" stroke-width="3.0" fill="none" stroke="rgb(0, 0, 0)" stroke-opacity="1.0" stroke-linecap="round" stroke-linejoin="round"/>
    <path d="M 134.89109802246094 133.8082275390625 C 114.69770050048828 171.14634704589844 135.42724609375 131.77073669433594 104.41624450683594 203.21438598632812" stroke-width="3.0" fill="none" stroke="rgb(0, 0, 0)" stroke-opacity="1.0" stroke-linecap="round" stroke-linejoin="round"/>
    <path d="M 124.830810546875 56.59769058227539 C 142.75596618652344 56.01355743408203 108.81230163574219 44.92454147338867 91.7105712890625 97.12687683105469" stroke-width="3.0" fill="none" stroke="rgb(0, 0, 0)" stroke-opacity="1.0" stroke-linecap="round" stroke-linejoin="round"/>
    <path d="M 136.7410888671875 92.37962341308594 C 164.60353088378906 80.8470230102539 134.64268493652344 68.55940246582031 156.83694458007812 65.27233123779297" stroke-width="3.0" fill="none" stroke="rgb(0, 0, 0)" stroke-opacity="1.0" stroke-linecap="round" stroke-linejoin="round"/>
    <path d="M 157.3221893310547 66.65030670166016 C 141.86045837402344 81.15008544921875 149.8411407470703 100.72615051269531 149.7794952392578 65.67797088623047" stroke-width="3.0" fill="none" stroke="rgb(0, 0, 0)" stroke-opacity="1.0" stroke-linecap="round" stroke-linejoin="round"/>
    <path d="M 131.27613830566406 65.67236328125 C 119.05249786376953 80.76338195800781 135.68759155273438 57.20415496826172 148.05718994140625 55.97709655761719" stroke-width="3.0" fill="none" stroke="rgb(0, 0, 0)" stroke-opacity="1.0" stroke-linecap="round" stroke-linejoin="round"/>
    <path d="M 121.5392074584961 143.58116149902344 C 130.24349975585938 154.52818298339844 126.15064239501953 109.66852569580078 116.04556274414062 132.5481719970703" stroke-width="3.0" fill="none" stroke="rgb(0, 0, 0)" stroke-opacity="1.0" stroke-linecap="round" stroke-linejoin="round"/>
    <path d="M 137.95193481445312 62.25943374633789 C 142.2061004638672 60.6580810546875 133.75636291503906 45.862491607666016 145.16757202148438 63.09736633300781" stroke-width="3.0" fill="none" stroke="rgb(0, 0, 0)" stroke-opacity="1.0" stroke-linecap="round" stroke-linejoin="round"/>
    <path d="M 126.91858673095703 53.163726806640625 C 118.9789047241211 52.892738342285156 149.30186462402344 38.30238342285156 145.29071044921875 67.14802551269531" stroke-width="3.0" fill="none" stroke="rgb(0, 0, 0)" stroke-opacity="1.0" stroke-linecap="round" stroke-linejoin="round"/>
  </g>
</svg>
