<?xml version="1.0" ?>
<svg xmlns="http://www.w3.org/2000/svg" version="1.1" width="224" height="224">
  <defs/>
  <g>
    <path d="M 181.92108154296875 96.99581146240234 C 182.13296508789062 77.51927947998047 37.792659759521484 92.8817138671875 118.894775390625 72.4568099975586" stroke-width="3.0" fill="none" stroke="rgb(0, 0, 0)" stroke-opacity="1.0" stroke-linecap="round" stroke-linejoin="round"/>
    <path d="M 190.11004638671875 97.56047821044922 C 178.37579345703125 97.87531280517578 205.3394317626953 87.95213317871094 131.0769500732422 121.83405303955078" stroke-width="3.0" fill="none" stroke="rgb(0, 0, 0)" stroke-opacity="1.0" stroke-linecap="round" stroke-linejoin="round"/>
    <path d="M 59.043914794921875 42.55995559692383 C 9.582185745239258 23.663602828979492 76.90007781982422 147.6360321044922 87.51620483398438 64.8490982055664" stroke-width="3.0" fill="none" stroke="rgb(0, 0, 0)" stroke-opacity="1.0" stroke-linecap="round" stroke-linejoin="round"/>
    <path d="M 92.80829620361328 62.62472152709961 C 151.8497314453125 60.11306381225586 199.25575256347656 111.16355895996094 113.04479217529297 74.9675064086914" stroke-width="3.0" fill="none" stroke="rgb(0, 0, 0)" stroke-opacity="1.0" stroke-linecap="round" stroke-linejoin="round"/>
    <path d="M 129.91171264648438 67.35649871826172 C 205.19845581054688 99.59017944335938 167.84503173828125 79.57632446289062 170.48623657226562 82.06854248046875" stroke-width="3.0" fill="none" stroke="rgb(0, 0, 0)" stroke-opacity="1.0" stroke-linecap="round" stroke-linejoin="round"/>
    <path d="M 107.84237670898438 53.24446105957031 C 125.35762023925781 72.22697448730469 56.951358795166016 145.08921813964844 84.86361694335938 109.78219604492188" stroke-width="3.0" fill="none" stroke="rgb(0, 0, 0)" stroke-opacity="1.0" stroke-linecap="round" stroke-linejoin="round"/>
    <path d="M 158.46128845214844 78.03569030761719 C 3.2780039310455322 62.7809944152832 152.23690795898438 28.62139129638672 191.05384826660156 94.5606689453125" stroke-width="3.0" fill="none" stroke="rgb(0, 0, 0)" stroke-opacity="1.0" stroke-linecap="round" stroke-linejoin="round"/>
    <path d="M 91.90804290771484 65.79349517822266 C 116.61400604248047 113.94749450683594 111.24641418457031 66.81718444824219 120.9640121459961 144.8209991455078" stroke-width="3.0" fill="none" stroke="rgb(0, 0, 0)" stroke-opacity="1.0" stroke-linecap="round" stroke-linejoin="round"/>
    <path d="M 126.0540771484375 93.22793579101562 C 119.43509674072266 203.7232666015625 130.06439208984375 95.29291534423828 104.46184539794922 207.9947052001953" stroke-width="3.0" fill="none" stroke="rgb(0, 0, 0)" stroke-opacity="1.0" stroke-linecap="round" stroke-linejoin="round"/>
    <path d="M 154.42625427246094 60.32101821899414 C 138.2884063720703 49.12773132324219 106.61611938476562 24.280860900878906 85.03265380859375 80.47310638427734" stroke-width="3.0" fill="none" stroke="rgb(0, 0, 0)" stroke-opacity="1.0" stroke-linecap="round" stroke-linejoin="round"/>
    <path d="M 92.82259368896484 74.19131469726562 C 130.9054412841797 22.708948135375977 136.40658569335938 55.00221633911133 161.09896850585938 88.81044006347656" stroke-width="3.0" fill="none" stroke="rgb(0, 0, 0)" stroke-opacity="1.0" stroke-linecap="round" stroke-linejoin="round"/>
    <path d="M 154.85275268554688 64.35680389404297 C 163.2518768310547 79.28987884521484 237.24990844726562 122.67750549316406 141.97593688964844 62.430091857910156" stroke-width="3.0" fill="none" stroke="rgb(0, 0, 0)" stroke-opacity="1.0" stroke-linecap="round" stroke-linejoin="round"/>
    <path d="M 161.0893096923828 66.41948699951172 C 197.89820861816406 95.79896545410156 170.88629150390625 84.14332580566406 118.15803527832031 52.8457145690918" stroke-width="3.0" fill="none" stroke="rgb(0, 0, 0)" stroke-opacity="1.0" stroke-linecap="round" stroke-linejoin="round"/>
    <path d="M 122.71704864501953 121.83736419677734 C 140.06700134277344 149.18345642089844 136.6807861328125 99.14944458007812 116.79315185546875 150.6195068359375" stroke-width="3.0" fill="none" stroke="rgb(0, 0, 0)" stroke-opacity="1.0" stroke-linecap="round" stroke-linejoin="round"/>
    <path d="M 97.38299560546875 90.31914520263672 C 188.24609375 105.31893920898438 159.3774871826172 50.424644470214844 142.83811950683594 77.74124145507812" stroke-width="3.0" fill="none" stroke="rgb(0, 0, 0)" stroke-opacity="1.0" stroke-linecap="round" stroke-linejoin="round"/>
    <path d="M 150.39019775390625 81.94705963134766 C 52.526676177978516 43.76467514038086 176.30897521972656 70.28639221191406 120.2430648803711 50.00080108642578" stroke-width="3.0" fill="none" stroke="rgb(0, 0, 0)" stroke-opacity="1.0" stroke-linecap="round" stroke-linejoin="round"/>
  </g>
</svg>
