<?xml version="1.0" ?>
<svg xmlns="http://www.w3.org/2000/svg" version="1.1" width="224" height="224">
  <defs/>
  <g>
    <path d="M 152.20791625976562 71.87094116210938 C 137.48826599121094 87.29133605957031 114.37335205078125 104.77598571777344 131.09327697753906 93.18994903564453" stroke-width="3.0" fill="none" stroke="rgb(0, 0, 0)" stroke-opacity="1.0" stroke-linecap="round" stroke-linejoin="round"/>
    <path d="M 178.0857696533203 97.51937866210938 C 186.0608367919922 86.5647964477539 192.55628967285156 89.3738784790039 173.19802856445312 103.4161605834961" stroke-width="3.0" fill="none" stroke="rgb(0, 0, 0)" stroke-opacity="1.0" stroke-linecap="round" stroke-linejoin="round"/>
    <path d="M 63.93857192993164 45.518680572509766 C 40.20396423339844 89.5597915649414 70.56645965576172 121.90564727783203 101.28590393066406 85.1402359008789" stroke-width="3.0" fill="none" stroke="rgb(0, 0, 0)" stroke-opacity="1.0" stroke-linecap="round" stroke-linejoin="round"/>
    <path d="M 116.27267456054688 90.90913391113281 C 112.54351806640625 91.3917236328125 149.42942810058594 83.16289520263672 104.9203109741211 95.6356430053711" stroke-width="3.0" fill="none" stroke="rgb(0, 0, 0)" stroke-opacity="1.0" stroke-linecap="round" stroke-linejoin="round"/>
    <path d="M 182.0108184814453 92.8655014038086 C 200.81300354003906 85.55028533935547 202.27743530273438 80.77545166015625 198.6494903564453 81.25980377197266" stroke-width="3.0" fill="none" stroke="rgb(0, 0, 0)" stroke-opacity="1.0" stroke-linecap="round" stroke-linejoin="round"/>
    <path d="M 128.9221954345703 56.43028259277344 C 129.12904357910156 100.4304428100586 94.80989837646484 116.31778717041016 114.87120056152344 70.29806518554688" stroke-width="3.0" fill="none" stroke="rgb(0, 0, 0)" stroke-opacity="1.0" stroke-linecap="round" stroke-linejoin="round"/>
    <path d="M 144.09967041015625 56.89756774902344 C 159.9014892578125 71.94599151611328 139.81224060058594 51.76148223876953 154.29556274414062 65.09838104248047" stroke-width="3.0" fill="none" stroke="rgb(0, 0, 0)" stroke-opacity="1.0" stroke-linecap="round" stroke-linejoin="round"/>
    <path d="M 88.39949035644531 99.64017486572266 C 126.82923126220703 91.1113052368164 109.49822235107422 99.80915832519531 124.55795288085938 127.7581558227539" stroke-width="3.0" fill="none" stroke="rgb(0, 0, 0)" stroke-opacity="1.0" stroke-linecap="round" stroke-linejoin="round"/>
    <path d="M 129.8468475341797 131.72804260253906 C 118.37470245361328 167.05235290527344 123.3172378540039 142.7919158935547 104.33789825439453 203.24081420898438" stroke-width="3.0" fill="none" stroke="rgb(0, 0, 0)" stroke-opacity="1.0" stroke-linecap="round" stroke-linejoin="round"/>
    <path d="M 118.10829162597656 54.42243576049805 C 138.8209228515625 66.72140502929688 106.8528060913086 44.26161575317383 95.0889663696289 95.53129577636719" stroke-width="3.0" fill="none" stroke="rgb(0, 0, 0)" stroke-opacity="1.0" stroke-linecap="round" stroke-linejoin="round"/>
    <path d="M 124.18850708007812 83.6798324584961 C 149.30606079101562 73.93372344970703 119.47540283203125 61.75563049316406 149.12109375 61.47564697265625" stroke-width="3.0" fill="none" stroke="rgb(0, 0, 0)" stroke-opacity="1.0" stroke-linecap="round" stroke-linejoin="round"/>
    <path d="M 149.18821716308594 72.89958953857422 C 135.1924285888672 91.2638168334961 134.4859619140625 101.19559478759766 147.75062561035156 70.19562530517578" stroke-width="3.0" fill="none" stroke="rgb(0, 0, 0)" stroke-opacity="1.0" stroke-linecap="round" stroke-linejoin="round"/>
    <path d="M 129.3043975830078 70.23284149169922 C 137.3783416748047 87.81957244873047 141.6474609375 50.64378356933594 141.82009887695312 52.20935821533203" stroke-width="3.0" fill="none" stroke="rgb(0, 0, 0)" stroke-opacity="1.0" stroke-linecap="round" stroke-linejoin="round"/>
    <path d="M 127.13329315185547 122.9373550415039 C 142.0161895751953 138.71182250976562 128.4250946044922 100.5399398803711 120.06659698486328 134.7617645263672" stroke-width="3.0" fill="none" stroke="rgb(0, 0, 0)" stroke-opacity="1.0" stroke-linecap="round" stroke-linejoin="round"/>
    <path d="M 135.40371704101562 51.05887985229492 C 150.454833984375 65.0393295288086 143.03440856933594 46.83349609375 151.78607177734375 63.67495346069336" stroke-width="3.0" fill="none" stroke="rgb(0, 0, 0)" stroke-opacity="1.0" stroke-linecap="round" stroke-linejoin="round"/>
    <path d="M 121.81529235839844 48.7506217956543 C 114.59798431396484 49.172264099121094 144.0010528564453 33.67782974243164 133.1913604736328 59.84458541870117" stroke-width="3.0" fill="none" stroke="rgb(0, 0, 0)" stroke-opacity="1.0" stroke-linecap="round" stroke-linejoin="round"/>
  </g>
</svg>
