<?xml version="1.0" ?>
<svg xmlns="http://www.w3.org/2000/svg" version="1.1" width="224" height="224">
  <defs/>
  <g>
    <path d="M 172.54266357421875 91.08625030517578 C 135.53494262695312 78.4456787109375 105.33717346191406 90.5835189819336 145.99822998046875 81.58690643310547" stroke-width="3.0" fill="none" stroke="rgb(0, 0, 0)" stroke-opacity="1.0" stroke-linecap="round" stroke-linejoin="round"/>
    <path d="M 171.46861267089844 90.49845123291016 C 172.4389190673828 90.40552520751953 192.4667205810547 93.45346069335938 160.32273864746094 110.23106384277344" stroke-width="3.0" fill="none" stroke="rgb(0, 0, 0)" stroke-opacity="1.0" stroke-linecap="round" stroke-linejoin="round"/>
    <path d="M 46.528282165527344 43.197601318359375 C 10.900877952575684 58.053104400634766 80.30419158935547 135.85498046875 87.8742904663086 71.73303985595703" stroke-width="3.0" fill="none" stroke="rgb(0, 0, 0)" stroke-opacity="1.0" stroke-linecap="round" stroke-linejoin="round"/>
    <path d="M 95.46259307861328 80.32847595214844 C 153.99574279785156 73.9194564819336 199.5007781982422 79.66348266601562 111.25650787353516 92.08384704589844" stroke-width="3.0" fill="none" stroke="rgb(0, 0, 0)" stroke-opacity="1.0" stroke-linecap="round" stroke-linejoin="round"/>
    <path d="M 160.23785400390625 85.45228576660156 C 213.4637451171875 106.00727081298828 167.7454376220703 95.39584350585938 182.9113311767578 95.52496337890625" stroke-width="3.0" fill="none" stroke="rgb(0, 0, 0)" stroke-opacity="1.0" stroke-linecap="round" stroke-linejoin="round"/>
    <path d="M 147.27076721191406 58.64731216430664 C 112.16683197021484 66.49361419677734 67.47380828857422 100.46117401123047 91.58281707763672 61.96554183959961" stroke-width="3.0" fill="none" stroke="rgb(0, 0, 0)" stroke-opacity="1.0" stroke-linecap="round" stroke-linejoin="round"/>
    <path d="M 151.7292938232422 65.6293716430664 C 131.32794189453125 68.0341796875 162.02369689941406 51.580101013183594 189.97364807128906 95.76680755615234" stroke-width="3.0" fill="none" stroke="rgb(0, 0, 0)" stroke-opacity="1.0" stroke-linecap="round" stroke-linejoin="round"/>
    <path d="M 88.06967163085938 82.04170227050781 C 120.09896087646484 98.70946502685547 113.8387222290039 80.1769027709961 124.6627197265625 135.6721954345703" stroke-width="3.0" fill="none" stroke="rgb(0, 0, 0)" stroke-opacity="1.0" stroke-linecap="round" stroke-linejoin="round"/>
    <path d="M 141.46949768066406 105.8541030883789 C 116.51155090332031 181.473388671875 133.3785400390625 101.22505950927734 106.1036148071289 204.18862915039062" stroke-width="3.0" fill="none" stroke="rgb(0, 0, 0)" stroke-opacity="1.0" stroke-linecap="round" stroke-linejoin="round"/>
    <path d="M 115.01544952392578 49.480167388916016 C 136.94876098632812 56.91657638549805 88.2968978881836 31.08242416381836 81.78379821777344 76.21694946289062" stroke-width="3.0" fill="none" stroke="rgb(0, 0, 0)" stroke-opacity="1.0" stroke-linecap="round" stroke-linejoin="round"/>
    <path d="M 101.34000396728516 61.956546783447266 C 158.05210876464844 50.4898796081543 132.60804748535156 58.611045837402344 174.1549530029297 85.40296936035156" stroke-width="3.0" fill="none" stroke="rgb(0, 0, 0)" stroke-opacity="1.0" stroke-linecap="round" stroke-linejoin="round"/>
    <path d="M 177.5386962890625 84.1917953491211 C 144.60084533691406 71.27376556396484 174.48582458496094 89.98316955566406 141.40577697753906 80.2900390625" stroke-width="3.0" fill="none" stroke="rgb(0, 0, 0)" stroke-opacity="1.0" stroke-linecap="round" stroke-linejoin="round"/>
    <path d="M 146.12841796875 66.70673370361328 C 142.17457580566406 71.25718688964844 151.48812866210938 58.122676849365234 147.9705352783203 61.982177734375" stroke-width="3.0" fill="none" stroke="rgb(0, 0, 0)" stroke-opacity="1.0" stroke-linecap="round" stroke-linejoin="round"/>
    <path d="M 126.93914794921875 134.4118194580078 C 127.43084716796875 146.82626342773438 132.3767852783203 111.85308837890625 118.02802276611328 144.1622772216797" stroke-width="3.0" fill="none" stroke="rgb(0, 0, 0)" stroke-opacity="1.0" stroke-linecap="round" stroke-linejoin="round"/>
    <path d="M 146.37741088867188 63.12142562866211 C 164.10552978515625 66.36798858642578 127.74681854248047 51.67399215698242 149.74644470214844 62.19081115722656" stroke-width="3.0" fill="none" stroke="rgb(0, 0, 0)" stroke-opacity="1.0" stroke-linecap="round" stroke-linejoin="round"/>
    <path d="M 137.544677734375 59.28352737426758 C 116.74847412109375 49.83756637573242 153.85885620117188 59.1296272277832 146.26268005371094 62.51331329345703" stroke-width="3.0" fill="none" stroke="rgb(0, 0, 0)" stroke-opacity="1.0" stroke-linecap="round" stroke-linejoin="round"/>
  </g>
</svg>
