<?xml version="1.0" ?>
<svg xmlns="http://www.w3.org/2000/svg" version="1.1" width="224" height="224">
  <defs/>
  <g>
    <path d="M 181.3429412841797 94.61669921875 C 132.8448944091797 74.82273864746094 47.21609115600586 111.02458190917969 138.1526336669922 72.5172119140625" stroke-width="3.0" fill="none" stroke="rgb(0, 0, 0)" stroke-opacity="1.0" stroke-linecap="round" stroke-linejoin="round"/>
    <path d="M 188.1412811279297 97.63113403320312 C 178.96182250976562 92.70349884033203 200.91517639160156 92.13053894042969 131.98965454101562 120.023193359375" stroke-width="3.0" fill="none" stroke="rgb(0, 0, 0)" stroke-opacity="1.0" stroke-linecap="round" stroke-linejoin="round"/>
    <path d="M 56.66337203979492 33.18321228027344 C 8.743273735046387 34.355472564697266 65.68993377685547 123.89164733886719 72.38733673095703 66.25370788574219" stroke-width="3.0" fill="none" stroke="rgb(0, 0, 0)" stroke-opacity="1.0" stroke-linecap="round" stroke-linejoin="round"/>
    <path d="M 116.54341888427734 62.88527297973633 C 167.73280334472656 64.54117584228516 219.81329345703125 81.16951751708984 92.54759979248047 86.61402893066406" stroke-width="3.0" fill="none" stroke="rgb(0, 0, 0)" stroke-opacity="1.0" stroke-linecap="round" stroke-linejoin="round"/>
    <path d="M 152.74913024902344 81.8969497680664 C 213.5444793701172 107.94303894042969 172.77371215820312 101.39307403564453 188.7237548828125 99.08259582519531" stroke-width="3.0" fill="none" stroke="rgb(0, 0, 0)" stroke-opacity="1.0" stroke-linecap="round" stroke-linejoin="round"/>
    <path d="M 140.54014587402344 53.56620788574219 C 106.90373992919922 60.01546859741211 42.57924270629883 111.12158203125 73.4644775390625 62.39280700683594" stroke-width="3.0" fill="none" stroke="rgb(0, 0, 0)" stroke-opacity="1.0" stroke-linecap="round" stroke-linejoin="round"/>
    <path d="M 154.86660766601562 81.02177429199219 C 77.35904693603516 49.385250091552734 157.44815063476562 41.31769943237305 190.45315551757812 94.6193618774414" stroke-width="3.0" fill="none" stroke="rgb(0, 0, 0)" stroke-opacity="1.0" stroke-linecap="round" stroke-linejoin="round"/>
    <path d="M 82.14323425292969 82.20454406738281 C 119.6560287475586 99.36195373535156 108.72801971435547 90.5724105834961 119.01715850830078 151.03738403320312" stroke-width="3.0" fill="none" stroke="rgb(0, 0, 0)" stroke-opacity="1.0" stroke-linecap="round" stroke-linejoin="round"/>
    <path d="M 122.05953979492188 90.82064819335938 C 122.49317169189453 202.78175354003906 132.69155883789062 93.61526489257812 109.37122344970703 202.23716735839844" stroke-width="3.0" fill="none" stroke="rgb(0, 0, 0)" stroke-opacity="1.0" stroke-linecap="round" stroke-linejoin="round"/>
    <path d="M 130.5206298828125 46.53891372680664 C 137.69610595703125 51.404293060302734 76.46208190917969 26.955780029296875 76.65333557128906 80.90350341796875" stroke-width="3.0" fill="none" stroke="rgb(0, 0, 0)" stroke-opacity="1.0" stroke-linecap="round" stroke-linejoin="round"/>
    <path d="M 113.42230224609375 54.171478271484375 C 146.6388702392578 43.8780403137207 127.89354705810547 67.20906829833984 168.47640991210938 78.69881439208984" stroke-width="3.0" fill="none" stroke="rgb(0, 0, 0)" stroke-opacity="1.0" stroke-linecap="round" stroke-linejoin="round"/>
    <path d="M 157.1139678955078 83.84950256347656 C 134.95030212402344 73.36491394042969 200.0245819091797 109.05534362792969 149.9033203125 65.43230438232422" stroke-width="3.0" fill="none" stroke="rgb(0, 0, 0)" stroke-opacity="1.0" stroke-linecap="round" stroke-linejoin="round"/>
    <path d="M 153.70204162597656 67.66110229492188 C 159.4580535888672 88.74763488769531 157.55445861816406 75.35296630859375 145.61424255371094 77.0850830078125" stroke-width="3.0" fill="none" stroke="rgb(0, 0, 0)" stroke-opacity="1.0" stroke-linecap="round" stroke-linejoin="round"/>
    <path d="M 122.51899719238281 121.75907135009766 C 148.81842041015625 156.34518432617188 132.9491424560547 103.47850036621094 114.59538269042969 143.2307891845703" stroke-width="3.0" fill="none" stroke="rgb(0, 0, 0)" stroke-opacity="1.0" stroke-linecap="round" stroke-linejoin="round"/>
    <path d="M 141.52513122558594 79.00068664550781 C 180.37893676757812 87.44786071777344 140.54486083984375 56.96082305908203 155.26187133789062 66.01183319091797" stroke-width="3.0" fill="none" stroke="rgb(0, 0, 0)" stroke-opacity="1.0" stroke-linecap="round" stroke-linejoin="round"/>
    <path d="M 136.51573181152344 48.01361083984375 C 126.09745025634766 43.196739196777344 155.89039611816406 58.728885650634766 142.6368865966797 61.00163650512695" stroke-width="3.0" fill="none" stroke="rgb(0, 0, 0)" stroke-opacity="1.0" stroke-linecap="round" stroke-linejoin="round"/>
  </g>
</svg>
