<?xml version="1.0" ?>
<svg xmlns="http://www.w3.org/2000/svg" version="1.1" width="224" height="224">
  <defs/>
  <g>
    <path d="M 180.83944702148438 91.68405151367188 C 129.25714111328125 74.17969512939453 45.180965423583984 111.10955047607422 139.81814575195312 71.98603057861328" stroke-width="3.0" fill="none" stroke="rgb(0, 0, 0)" stroke-opacity="1.0" stroke-linecap="round" stroke-linejoin="round"/>
    <path d="M 187.44590759277344 97.82263946533203 C 174.8889617919922 91.5947265625 198.72378540039062 90.73188781738281 133.2539825439453 120.17286682128906" stroke-width="3.0" fill="none" stroke="rgb(0, 0, 0)" stroke-opacity="1.0" stroke-linecap="round" stroke-linejoin="round"/>
    <path d="M 54.15449142456055 40.584938049316406 C 9.510087013244629 35.56290817260742 67.10653686523438 120.7104721069336 73.32013702392578 59.59505844116211" stroke-width="3.0" fill="none" stroke="rgb(0, 0, 0)" stroke-opacity="1.0" stroke-linecap="round" stroke-linejoin="round"/>
    <path d="M 109.67781066894531 60.47769546508789 C 169.75538635253906 63.37177658081055 220.07545471191406 80.82685089111328 89.48889923095703 89.29280090332031" stroke-width="3.0" fill="none" stroke="rgb(0, 0, 0)" stroke-opacity="1.0" stroke-linecap="round" stroke-linejoin="round"/>
    <path d="M 148.13304138183594 70.89801788330078 C 217.5193634033203 104.07195281982422 176.4305877685547 98.62323760986328 191.1979522705078 97.41281127929688" stroke-width="3.0" fill="none" stroke="rgb(0, 0, 0)" stroke-opacity="1.0" stroke-linecap="round" stroke-linejoin="round"/>
    <path d="M 138.68760681152344 54.3394775390625 C 108.6328353881836 57.487274169921875 51.28319549560547 105.56124877929688 76.27215576171875 59.20347595214844" stroke-width="3.0" fill="none" stroke="rgb(0, 0, 0)" stroke-opacity="1.0" stroke-linecap="round" stroke-linejoin="round"/>
    <path d="M 158.6178741455078 81.22781372070312 C 92.76520538330078 55.11621856689453 163.22996520996094 47.392940521240234 189.25469970703125 95.02286529541016" stroke-width="3.0" fill="none" stroke="rgb(0, 0, 0)" stroke-opacity="1.0" stroke-linecap="round" stroke-linejoin="round"/>
    <path d="M 80.9026107788086 85.07437133789062 C 122.9865951538086 94.25629425048828 108.77379608154297 88.88237762451172 120.01790618896484 142.11277770996094" stroke-width="3.0" fill="none" stroke="rgb(0, 0, 0)" stroke-opacity="1.0" stroke-linecap="round" stroke-linejoin="round"/>
    <path d="M 125.36955261230469 91.05305480957031 C 119.01234436035156 200.93582153320312 131.3118896484375 91.3469467163086 106.08027648925781 204.6145782470703" stroke-width="3.0" fill="none" stroke="rgb(0, 0, 0)" stroke-opacity="1.0" stroke-linecap="round" stroke-linejoin="round"/>
    <path d="M 126.1685562133789 46.43649673461914 C 134.72946166992188 53.889949798583984 73.83949279785156 26.30796241760254 73.5873794555664 82.5639877319336" stroke-width="3.0" fill="none" stroke="rgb(0, 0, 0)" stroke-opacity="1.0" stroke-linecap="round" stroke-linejoin="round"/>
    <path d="M 105.33345031738281 52.88893127441406 C 153.9542999267578 38.76557159423828 136.67771911621094 58.59712219238281 171.2748565673828 80.72879791259766" stroke-width="3.0" fill="none" stroke="rgb(0, 0, 0)" stroke-opacity="1.0" stroke-linecap="round" stroke-linejoin="round"/>
    <path d="M 160.8294677734375 82.98401641845703 C 137.00914001464844 68.46184539794922 203.3634796142578 101.66261291503906 150.17025756835938 65.36058807373047" stroke-width="3.0" fill="none" stroke="rgb(0, 0, 0)" stroke-opacity="1.0" stroke-linecap="round" stroke-linejoin="round"/>
    <path d="M 152.82730102539062 65.80403900146484 C 151.92796325683594 80.05643463134766 156.77777099609375 65.8135757446289 144.32284545898438 67.37201690673828" stroke-width="3.0" fill="none" stroke="rgb(0, 0, 0)" stroke-opacity="1.0" stroke-linecap="round" stroke-linejoin="round"/>
    <path d="M 122.7135238647461 123.66671752929688 C 149.5986328125 156.42172241210938 134.02325439453125 108.45663452148438 115.66424560546875 145.29373168945312" stroke-width="3.0" fill="none" stroke="rgb(0, 0, 0)" stroke-opacity="1.0" stroke-linecap="round" stroke-linejoin="round"/>
    <path d="M 142.26873779296875 75.0752182006836 C 175.5537109375 79.58348083496094 142.54949951171875 51.816715240478516 156.78961181640625 65.29193115234375" stroke-width="3.0" fill="none" stroke="rgb(0, 0, 0)" stroke-opacity="1.0" stroke-linecap="round" stroke-linejoin="round"/>
    <path d="M 136.34210205078125 49.636878967285156 C 122.71617126464844 48.26668167114258 155.2337646484375 58.45851135253906 145.29185485839844 56.4716796875" stroke-width="3.0" fill="none" stroke="rgb(0, 0, 0)" stroke-opacity="1.0" stroke-linecap="round" stroke-linejoin="round"/>
  </g>
</svg>
