<?xml version="1.0" ?>
<svg xmlns="http://www.w3.org/2000/svg" version="1.1" width="224" height="224">
  <defs/>
  <g>
    <path d="M 150.59695434570312 72.38150787353516 C 136.03472900390625 85.67161560058594 113.89784240722656 104.36031341552734 129.9114990234375 91.94660949707031" stroke-width="3.0" fill="none" stroke="rgb(0, 0, 0)" stroke-opacity="1.0" stroke-linecap="round" stroke-linejoin="round"/>
    <path d="M 181.63719177246094 99.22602081298828 C 186.4369659423828 87.41851043701172 190.6568145751953 86.5027847290039 173.5305938720703 104.70707702636719" stroke-width="3.0" fill="none" stroke="rgb(0, 0, 0)" stroke-opacity="1.0" stroke-linecap="round" stroke-linejoin="round"/>
    <path d="M 63.367942810058594 46.43028259277344 C 39.817447662353516 89.06825256347656 69.879150390625 120.75373077392578 103.79473114013672 85.729248046875" stroke-width="3.0" fill="none" stroke="rgb(0, 0, 0)" stroke-opacity="1.0" stroke-linecap="round" stroke-linejoin="round"/>
    <path d="M 116.69001007080078 90.8365707397461 C 112.11639404296875 91.83055877685547 148.49594116210938 82.51114654541016 106.07508087158203 94.26252746582031" stroke-width="3.0" fill="none" stroke="rgb(0, 0, 0)" stroke-opacity="1.0" stroke-linecap="round" stroke-linejoin="round"/>
    <path d="M 181.59324645996094 93.63496398925781 C 199.86085510253906 86.43721008300781 200.5680389404297 81.62244415283203 197.06353759765625 81.75997924804688" stroke-width="3.0" fill="none" stroke="rgb(0, 0, 0)" stroke-opacity="1.0" stroke-linecap="round" stroke-linejoin="round"/>
    <path d="M 129.96409606933594 61.6661262512207 C 126.05142974853516 94.93697357177734 95.87525939941406 111.92322540283203 113.00840759277344 69.06195831298828" stroke-width="3.0" fill="none" stroke="rgb(0, 0, 0)" stroke-opacity="1.0" stroke-linecap="round" stroke-linejoin="round"/>
    <path d="M 144.22140502929688 56.74048614501953 C 159.74404907226562 72.036376953125 139.33944702148438 52.08959197998047 152.3223114013672 65.60885620117188" stroke-width="3.0" fill="none" stroke="rgb(0, 0, 0)" stroke-opacity="1.0" stroke-linecap="round" stroke-linejoin="round"/>
    <path d="M 90.85395812988281 100.697509765625 C 129.36643981933594 91.10041046142578 112.94290924072266 99.75931549072266 129.0823974609375 124.8384017944336" stroke-width="3.0" fill="none" stroke="rgb(0, 0, 0)" stroke-opacity="1.0" stroke-linecap="round" stroke-linejoin="round"/>
    <path d="M 128.18321228027344 130.8260498046875 C 116.42835235595703 165.41490173339844 123.3576889038086 142.48081970214844 105.83588409423828 202.39028930664062" stroke-width="3.0" fill="none" stroke="rgb(0, 0, 0)" stroke-opacity="1.0" stroke-linecap="round" stroke-linejoin="round"/>
    <path d="M 119.71238708496094 50.08903121948242 C 137.26231384277344 64.85562896728516 107.59821319580078 42.15591812133789 95.86117553710938 91.19219970703125" stroke-width="3.0" fill="none" stroke="rgb(0, 0, 0)" stroke-opacity="1.0" stroke-linecap="round" stroke-linejoin="round"/>
    <path d="M 128.99502563476562 89.25172424316406 C 147.68508911132812 74.25465393066406 119.71422576904297 65.64530181884766 150.01751708984375 62.743797302246094" stroke-width="3.0" fill="none" stroke="rgb(0, 0, 0)" stroke-opacity="1.0" stroke-linecap="round" stroke-linejoin="round"/>
    <path d="M 144.97158813476562 67.80340576171875 C 134.53961181640625 91.90966796875 132.32301330566406 100.32823181152344 146.0959014892578 72.44580841064453" stroke-width="3.0" fill="none" stroke="rgb(0, 0, 0)" stroke-opacity="1.0" stroke-linecap="round" stroke-linejoin="round"/>
    <path d="M 129.40443420410156 74.38127136230469 C 144.18077087402344 94.96012115478516 146.81024169921875 57.74129867553711 140.9829559326172 52.21034622192383" stroke-width="3.0" fill="none" stroke="rgb(0, 0, 0)" stroke-opacity="1.0" stroke-linecap="round" stroke-linejoin="round"/>
    <path d="M 123.35895538330078 124.3255615234375 C 141.91847229003906 144.5371551513672 124.772216796875 100.44686889648438 122.79877471923828 136.0443572998047" stroke-width="3.0" fill="none" stroke="rgb(0, 0, 0)" stroke-opacity="1.0" stroke-linecap="round" stroke-linejoin="round"/>
    <path d="M 138.01844787597656 50.4261360168457 C 151.40599060058594 63.91501998901367 143.72140502929688 45.491607666015625 152.18978881835938 63.38345718383789" stroke-width="3.0" fill="none" stroke="rgb(0, 0, 0)" stroke-opacity="1.0" stroke-linecap="round" stroke-linejoin="round"/>
    <path d="M 118.68936157226562 45.268409729003906 C 116.10260772705078 51.43689727783203 139.7786102294922 31.177640914916992 128.22250366210938 58.10651397705078" stroke-width="3.0" fill="none" stroke="rgb(0, 0, 0)" stroke-opacity="1.0" stroke-linecap="round" stroke-linejoin="round"/>
  </g>
</svg>
