<?xml version="1.0" ?>
<svg xmlns="http://www.w3.org/2000/svg" version="1.1" width="224" height="224">
  <defs/>
  <g>
    <path d="M 177.710693359375 92.83329010009766 C 165.63101196289062 82.31958770751953 50.652652740478516 104.38025665283203 134.015380859375 86.01265716552734" stroke-width="3.0" fill="none" stroke="rgb(0, 0, 0)" stroke-opacity="1.0" stroke-linecap="round" stroke-linejoin="round"/>
    <path d="M 188.41871643066406 98.65166473388672 C 175.242919921875 96.74198150634766 206.17312622070312 94.27078247070312 135.90444946289062 119.51265716552734" stroke-width="3.0" fill="none" stroke="rgb(0, 0, 0)" stroke-opacity="1.0" stroke-linecap="round" stroke-linejoin="round"/>
    <path d="M 55.35493850708008 43.82671356201172 C 2.709836006164551 39.59782028198242 64.36602783203125 129.4824981689453 76.90150451660156 67.45677185058594" stroke-width="3.0" fill="none" stroke="rgb(0, 0, 0)" stroke-opacity="1.0" stroke-linecap="round" stroke-linejoin="round"/>
    <path d="M 91.45826721191406 68.38531494140625 C 150.29502868652344 64.50413513183594 198.8104248046875 97.85343933105469 91.24685668945312 84.38240051269531" stroke-width="3.0" fill="none" stroke="rgb(0, 0, 0)" stroke-opacity="1.0" stroke-linecap="round" stroke-linejoin="round"/>
    <path d="M 140.54623413085938 73.20532989501953 C 213.04998779296875 93.55257415771484 170.91151428222656 101.78264617919922 184.6317138671875 92.54573059082031" stroke-width="3.0" fill="none" stroke="rgb(0, 0, 0)" stroke-opacity="1.0" stroke-linecap="round" stroke-linejoin="round"/>
    <path d="M 107.23104858398438 49.659053802490234 C 97.97178649902344 53.585357666015625 39.485374450683594 145.31301879882812 76.61383819580078 89.82899475097656" stroke-width="3.0" fill="none" stroke="rgb(0, 0, 0)" stroke-opacity="1.0" stroke-linecap="round" stroke-linejoin="round"/>
    <path d="M 143.51605224609375 86.49644470214844 C 13.566313743591309 68.62720489501953 153.34197998046875 30.398944854736328 190.29209899902344 95.88124084472656" stroke-width="3.0" fill="none" stroke="rgb(0, 0, 0)" stroke-opacity="1.0" stroke-linecap="round" stroke-linejoin="round"/>
    <path d="M 84.04969787597656 84.67374420166016 C 118.31309509277344 110.65135192871094 113.1729507446289 72.73078155517578 120.28466796875 146.31674194335938" stroke-width="3.0" fill="none" stroke="rgb(0, 0, 0)" stroke-opacity="1.0" stroke-linecap="round" stroke-linejoin="round"/>
    <path d="M 131.31979370117188 92.9834213256836 C 114.83529663085938 201.72952270507812 126.34919738769531 90.4783706665039 104.63041687011719 205.7357177734375" stroke-width="3.0" fill="none" stroke="rgb(0, 0, 0)" stroke-opacity="1.0" stroke-linecap="round" stroke-linejoin="round"/>
    <path d="M 147.6700897216797 56.520057678222656 C 133.755859375 50.6292724609375 79.57085418701172 22.715227127075195 81.13350677490234 84.09991455078125" stroke-width="3.0" fill="none" stroke="rgb(0, 0, 0)" stroke-opacity="1.0" stroke-linecap="round" stroke-linejoin="round"/>
    <path d="M 92.6804428100586 59.000247955322266 C 131.77426147460938 32.14333724975586 141.1719970703125 56.07673645019531 170.51210021972656 85.59032440185547" stroke-width="3.0" fill="none" stroke="rgb(0, 0, 0)" stroke-opacity="1.0" stroke-linecap="round" stroke-linejoin="round"/>
    <path d="M 151.55374145507812 83.64607238769531 C 148.98797607421875 83.71009063720703 240.0552520751953 118.10301971435547 143.05996704101562 53.42715835571289" stroke-width="3.0" fill="none" stroke="rgb(0, 0, 0)" stroke-opacity="1.0" stroke-linecap="round" stroke-linejoin="round"/>
    <path d="M 147.28860473632812 79.57533264160156 C 167.222900390625 103.03203582763672 165.54299926757812 75.12944030761719 136.30908203125 70.47161102294922" stroke-width="3.0" fill="none" stroke="rgb(0, 0, 0)" stroke-opacity="1.0" stroke-linecap="round" stroke-linejoin="round"/>
    <path d="M 125.24402618408203 117.72529602050781 C 150.9086151123047 151.59393310546875 139.2617645263672 100.6551284790039 112.66220092773438 148.13580322265625" stroke-width="3.0" fill="none" stroke="rgb(0, 0, 0)" stroke-opacity="1.0" stroke-linecap="round" stroke-linejoin="round"/>
    <path d="M 122.45539093017578 67.51490783691406 C 179.89979553222656 107.51952362060547 151.22581481933594 52.257877349853516 154.34957885742188 64.27159881591797" stroke-width="3.0" fill="none" stroke="rgb(0, 0, 0)" stroke-opacity="1.0" stroke-linecap="round" stroke-linejoin="round"/>
    <path d="M 139.89755249023438 69.80528259277344 C 93.29249572753906 49.07770538330078 162.1984405517578 73.14588165283203 129.3325958251953 52.17164993286133" stroke-width="3.0" fill="none" stroke="rgb(0, 0, 0)" stroke-opacity="1.0" stroke-linecap="round" stroke-linejoin="round"/>
  </g>
</svg>
