<?xml version="1.0" ?>
<svg xmlns="http://www.w3.org/2000/svg" version="1.1" width="224" height="224">
  <defs/>
  <g>
    <path d="M 181.80709838867188 94.86322784423828 C 164.60635375976562 82.25895690917969 24.166547775268555 94.3260498046875 115.2608642578125 73.62097930908203" stroke-width="3.0" fill="none" stroke="rgb(0, 0, 0)" stroke-opacity="1.0" stroke-linecap="round" stroke-linejoin="round"/>
    <path d="M 185.80577087402344 97.39791107177734 C 185.33555603027344 103.34191131591797 206.98228454589844 89.97174072265625 130.4447021484375 120.52812194824219" stroke-width="3.0" fill="none" stroke="rgb(0, 0, 0)" stroke-opacity="1.0" stroke-linecap="round" stroke-linejoin="round"/>
    <path d="M 59.431514739990234 42.29944610595703 C 7.900629043579102 23.16966438293457 73.7685775756836 136.53564453125 85.65007019042969 58.15685272216797" stroke-width="3.0" fill="none" stroke="rgb(0, 0, 0)" stroke-opacity="1.0" stroke-linecap="round" stroke-linejoin="round"/>
    <path d="M 96.4864730834961 60.68360137939453 C 158.34890747070312 59.450889587402344 208.55087280273438 104.75514221191406 106.6400375366211 75.20362854003906" stroke-width="3.0" fill="none" stroke="rgb(0, 0, 0)" stroke-opacity="1.0" stroke-linecap="round" stroke-linejoin="round"/>
    <path d="M 128.6134033203125 68.31661224365234 C 204.67593383789062 104.39157104492188 173.89340209960938 82.33162689208984 174.29678344726562 91.5280532836914" stroke-width="3.0" fill="none" stroke="rgb(0, 0, 0)" stroke-opacity="1.0" stroke-linecap="round" stroke-linejoin="round"/>
    <path d="M 96.44642639160156 51.47538375854492 C 113.28925323486328 66.3194580078125 46.485313415527344 141.35865783691406 78.12107849121094 101.86397552490234" stroke-width="3.0" fill="none" stroke="rgb(0, 0, 0)" stroke-opacity="1.0" stroke-linecap="round" stroke-linejoin="round"/>
    <path d="M 151.0920867919922 80.25082397460938 C 3.4409990310668945 56.502586364746094 151.89698791503906 25.963048934936523 188.18531799316406 96.59557342529297" stroke-width="3.0" fill="none" stroke="rgb(0, 0, 0)" stroke-opacity="1.0" stroke-linecap="round" stroke-linejoin="round"/>
    <path d="M 92.94694519042969 67.7757339477539 C 110.29752349853516 112.30711364746094 114.35965728759766 61.21086883544922 119.32933807373047 144.11578369140625" stroke-width="3.0" fill="none" stroke="rgb(0, 0, 0)" stroke-opacity="1.0" stroke-linecap="round" stroke-linejoin="round"/>
    <path d="M 125.19237518310547 89.59443664550781 C 117.94771575927734 204.6382293701172 127.88074493408203 93.22554016113281 105.26634216308594 205.72889709472656" stroke-width="3.0" fill="none" stroke="rgb(0, 0, 0)" stroke-opacity="1.0" stroke-linecap="round" stroke-linejoin="round"/>
    <path d="M 154.20794677734375 61.93657302856445 C 140.516845703125 45.610008239746094 108.62605285644531 22.581829071044922 80.24456024169922 80.64673614501953" stroke-width="3.0" fill="none" stroke="rgb(0, 0, 0)" stroke-opacity="1.0" stroke-linecap="round" stroke-linejoin="round"/>
    <path d="M 90.66961669921875 69.23133087158203 C 134.0302734375 24.993244171142578 137.51210021972656 54.12682342529297 169.3468780517578 85.84098052978516" stroke-width="3.0" fill="none" stroke="rgb(0, 0, 0)" stroke-opacity="1.0" stroke-linecap="round" stroke-linejoin="round"/>
    <path d="M 157.31854248046875 65.71206665039062 C 160.64723205566406 87.54688262939453 244.71405029296875 121.37671661376953 139.48651123046875 60.832942962646484" stroke-width="3.0" fill="none" stroke="rgb(0, 0, 0)" stroke-opacity="1.0" stroke-linecap="round" stroke-linejoin="round"/>
    <path d="M 158.2744140625 72.29271697998047 C 197.0681915283203 97.15594482421875 168.6200408935547 87.0719223022461 117.43384552001953 55.91477584838867" stroke-width="3.0" fill="none" stroke="rgb(0, 0, 0)" stroke-opacity="1.0" stroke-linecap="round" stroke-linejoin="round"/>
    <path d="M 123.93003845214844 123.98080444335938 C 142.0894012451172 152.10362243652344 133.78646850585938 102.53868103027344 114.49304962158203 150.5333251953125" stroke-width="3.0" fill="none" stroke="rgb(0, 0, 0)" stroke-opacity="1.0" stroke-linecap="round" stroke-linejoin="round"/>
    <path d="M 98.86058807373047 83.34992980957031 C 188.63546752929688 112.40399932861328 155.38377380371094 57.31166076660156 141.67803955078125 78.36674499511719" stroke-width="3.0" fill="none" stroke="rgb(0, 0, 0)" stroke-opacity="1.0" stroke-linecap="round" stroke-linejoin="round"/>
    <path d="M 144.70062255859375 82.58708953857422 C 50.830055236816406 41.107215881347656 162.11029052734375 65.00588989257812 122.18537139892578 48.849239349365234" stroke-width="3.0" fill="none" stroke="rgb(0, 0, 0)" stroke-opacity="1.0" stroke-linecap="round" stroke-linejoin="round"/>
  </g>
</svg>
