<?xml version="1.0" ?>
<svg xmlns="http://www.w3.org/2000/svg" version="1.1" width="224" height="224">
  <defs/>
  <g>
    <path d="M 180.6754913330078 90.8757553100586 C 166.72254943847656 84.17526245117188 54.50917434692383 105.59428405761719 131.96751403808594 86.8687973022461" stroke-width="3.0" fill="none" stroke="rgb(0, 0, 0)" stroke-opacity="1.0" stroke-linecap="round" stroke-linejoin="round"/>
    <path d="M 191.05117797851562 100.50236511230469 C 174.3872833251953 95.4305191040039 204.59457397460938 92.61045837402344 132.9024200439453 117.55558013916016" stroke-width="3.0" fill="none" stroke="rgb(0, 0, 0)" stroke-opacity="1.0" stroke-linecap="round" stroke-linejoin="round"/>
    <path d="M 56.95477294921875 45.19847106933594 C 1.9035735130310059 39.66851043701172 72.69774627685547 127.53645324707031 76.52643585205078 65.5763168334961" stroke-width="3.0" fill="none" stroke="rgb(0, 0, 0)" stroke-opacity="1.0" stroke-linecap="round" stroke-linejoin="round"/>
    <path d="M 90.83309173583984 65.33271026611328 C 145.62335205078125 67.64179229736328 197.77500915527344 98.83879089355469 96.68366241455078 79.2855224609375" stroke-width="3.0" fill="none" stroke="rgb(0, 0, 0)" stroke-opacity="1.0" stroke-linecap="round" stroke-linejoin="round"/>
    <path d="M 142.1748809814453 75.23208618164062 C 210.6264190673828 95.0081558227539 167.1054229736328 103.71109008789062 184.27520751953125 96.37947845458984" stroke-width="3.0" fill="none" stroke="rgb(0, 0, 0)" stroke-opacity="1.0" stroke-linecap="round" stroke-linejoin="round"/>
    <path d="M 107.46736907958984 47.208805084228516 C 95.16487884521484 52.70199966430664 38.91326904296875 145.06900024414062 74.44206237792969 86.27403259277344" stroke-width="3.0" fill="none" stroke="rgb(0, 0, 0)" stroke-opacity="1.0" stroke-linecap="round" stroke-linejoin="round"/>
    <path d="M 141.8051300048828 81.97332763671875 C 16.036283493041992 66.00154876708984 152.8423614501953 34.66603469848633 192.08407592773438 96.52590942382812" stroke-width="3.0" fill="none" stroke="rgb(0, 0, 0)" stroke-opacity="1.0" stroke-linecap="round" stroke-linejoin="round"/>
    <path d="M 81.90592956542969 80.76394653320312 C 118.87732696533203 107.45392608642578 110.18223571777344 81.53948974609375 121.85356903076172 143.3711395263672" stroke-width="3.0" fill="none" stroke="rgb(0, 0, 0)" stroke-opacity="1.0" stroke-linecap="round" stroke-linejoin="round"/>
    <path d="M 129.636962890625 92.95845031738281 C 121.4556655883789 204.46546936035156 130.5442657470703 89.43684387207031 105.44110870361328 204.5604248046875" stroke-width="3.0" fill="none" stroke="rgb(0, 0, 0)" stroke-opacity="1.0" stroke-linecap="round" stroke-linejoin="round"/>
    <path d="M 144.52630615234375 52.17423629760742 C 136.96319580078125 53.9865837097168 87.9100112915039 26.85430335998535 77.3558349609375 89.82506561279297" stroke-width="3.0" fill="none" stroke="rgb(0, 0, 0)" stroke-opacity="1.0" stroke-linecap="round" stroke-linejoin="round"/>
    <path d="M 93.5735855102539 57.6764030456543 C 134.76014709472656 33.113616943359375 141.6388702392578 56.45831298828125 170.21397399902344 85.39179229736328" stroke-width="3.0" fill="none" stroke="rgb(0, 0, 0)" stroke-opacity="1.0" stroke-linecap="round" stroke-linejoin="round"/>
    <path d="M 152.4436492919922 85.85636901855469 C 149.1680145263672 81.02910614013672 239.302490234375 115.6404800415039 142.40599060058594 53.64683151245117" stroke-width="3.0" fill="none" stroke="rgb(0, 0, 0)" stroke-opacity="1.0" stroke-linecap="round" stroke-linejoin="round"/>
    <path d="M 152.51104736328125 75.40876007080078 C 171.8537139892578 97.70279693603516 164.48190307617188 78.31660461425781 139.94911193847656 64.26677703857422" stroke-width="3.0" fill="none" stroke="rgb(0, 0, 0)" stroke-opacity="1.0" stroke-linecap="round" stroke-linejoin="round"/>
    <path d="M 124.00145721435547 119.70965576171875 C 148.89505004882812 155.20359802246094 137.81320190429688 102.3355941772461 117.04205322265625 149.69992065429688" stroke-width="3.0" fill="none" stroke="rgb(0, 0, 0)" stroke-opacity="1.0" stroke-linecap="round" stroke-linejoin="round"/>
    <path d="M 122.70550537109375 72.04952239990234 C 179.97348022460938 103.52105712890625 150.00399780273438 50.87568664550781 153.33644104003906 63.45615005493164" stroke-width="3.0" fill="none" stroke="rgb(0, 0, 0)" stroke-opacity="1.0" stroke-linecap="round" stroke-linejoin="round"/>
    <path d="M 142.17245483398438 73.54199981689453 C 107.61406707763672 45.67664337158203 163.6949462890625 66.1780776977539 131.14178466796875 53.97918701171875" stroke-width="3.0" fill="none" stroke="rgb(0, 0, 0)" stroke-opacity="1.0" stroke-linecap="round" stroke-linejoin="round"/>
  </g>
</svg>
