<?xml version="1.0" ?>
<svg xmlns="http://www.w3.org/2000/svg" version="1.1" width="224" height="224">
  <defs/>
  <g>
    <path d="M 178.0109100341797 93.11564636230469 C 162.33279418945312 88.1365966796875 36.394683837890625 100.27722930908203 126.83078002929688 68.81150817871094" stroke-width="3.0" fill="none" stroke="rgb(0, 0, 0)" stroke-opacity="1.0" stroke-linecap="round" stroke-linejoin="round"/>
    <path d="M 179.1654510498047 94.36624908447266 C 176.469970703125 99.46931457519531 205.6050262451172 90.49899291992188 133.77520751953125 120.60831451416016" stroke-width="3.0" fill="none" stroke="rgb(0, 0, 0)" stroke-opacity="1.0" stroke-linecap="round" stroke-linejoin="round"/>
    <path d="M 58.16130447387695 42.53504180908203 C 8.407105445861816 30.867385864257812 61.67497634887695 138.25192260742188 80.73699188232422 62.704307556152344" stroke-width="3.0" fill="none" stroke="rgb(0, 0, 0)" stroke-opacity="1.0" stroke-linecap="round" stroke-linejoin="round"/>
    <path d="M 101.2979507446289 59.46253204345703 C 144.18777465820312 70.04793548583984 203.4027557373047 100.02818298339844 105.09947967529297 74.89126586914062" stroke-width="3.0" fill="none" stroke="rgb(0, 0, 0)" stroke-opacity="1.0" stroke-linecap="round" stroke-linejoin="round"/>
    <path d="M 125.38992309570312 69.4609146118164 C 204.2440185546875 104.78730010986328 171.0863494873047 96.82174682617188 180.642333984375 95.06529235839844" stroke-width="3.0" fill="none" stroke="rgb(0, 0, 0)" stroke-opacity="1.0" stroke-linecap="round" stroke-linejoin="round"/>
    <path d="M 107.2754898071289 51.77062225341797 C 112.51042938232422 59.324832916259766 35.31943893432617 136.53070068359375 73.4390640258789 95.62078857421875" stroke-width="3.0" fill="none" stroke="rgb(0, 0, 0)" stroke-opacity="1.0" stroke-linecap="round" stroke-linejoin="round"/>
    <path d="M 144.17990112304688 78.7994384765625 C 0.5399346351623535 62.689754486083984 149.97833251953125 24.874570846557617 188.17063903808594 96.42711639404297" stroke-width="3.0" fill="none" stroke="rgb(0, 0, 0)" stroke-opacity="1.0" stroke-linecap="round" stroke-linejoin="round"/>
    <path d="M 87.93803405761719 77.5512466430664 C 111.99758911132812 112.49078369140625 113.41999053955078 64.9817886352539 122.63812255859375 147.782470703125" stroke-width="3.0" fill="none" stroke="rgb(0, 0, 0)" stroke-opacity="1.0" stroke-linecap="round" stroke-linejoin="round"/>
    <path d="M 127.44963836669922 91.73741149902344 C 118.24060821533203 203.63128662109375 131.3976593017578 93.14039611816406 104.08068084716797 205.88687133789062" stroke-width="3.0" fill="none" stroke="rgb(0, 0, 0)" stroke-opacity="1.0" stroke-linecap="round" stroke-linejoin="round"/>
    <path d="M 152.1295928955078 61.37476348876953 C 136.9413604736328 46.80694580078125 92.56578826904297 19.42101287841797 84.05477142333984 83.532958984375" stroke-width="3.0" fill="none" stroke="rgb(0, 0, 0)" stroke-opacity="1.0" stroke-linecap="round" stroke-linejoin="round"/>
    <path d="M 87.71110534667969 55.35261535644531 C 142.12522888183594 33.60557174682617 143.25048828125 54.06435775756836 170.3306121826172 83.84442901611328" stroke-width="3.0" fill="none" stroke="rgb(0, 0, 0)" stroke-opacity="1.0" stroke-linecap="round" stroke-linejoin="round"/>
    <path d="M 160.43605041503906 73.52081298828125 C 158.15065002441406 89.88125610351562 242.93003845214844 130.14736938476562 142.47415161132812 56.81496047973633" stroke-width="3.0" fill="none" stroke="rgb(0, 0, 0)" stroke-opacity="1.0" stroke-linecap="round" stroke-linejoin="round"/>
    <path d="M 151.8371124267578 69.13998413085938 C 186.72705078125 106.17863464355469 176.26565551757812 80.42745971679688 130.9989013671875 60.58872604370117" stroke-width="3.0" fill="none" stroke="rgb(0, 0, 0)" stroke-opacity="1.0" stroke-linecap="round" stroke-linejoin="round"/>
    <path d="M 125.16497802734375 119.65531158447266 C 147.03004455566406 152.8387908935547 142.50323486328125 106.27668762207031 114.96363830566406 146.8683624267578" stroke-width="3.0" fill="none" stroke="rgb(0, 0, 0)" stroke-opacity="1.0" stroke-linecap="round" stroke-linejoin="round"/>
    <path d="M 115.10015106201172 76.98307800292969 C 192.3963623046875 102.61537170410156 142.83326721191406 59.22498321533203 131.52490234375 65.00128173828125" stroke-width="3.0" fill="none" stroke="rgb(0, 0, 0)" stroke-opacity="1.0" stroke-linecap="round" stroke-linejoin="round"/>
    <path d="M 147.2438201904297 71.9230728149414 C 93.02129364013672 35.088375091552734 166.70111083984375 63.073299407958984 129.94622802734375 43.032386779785156" stroke-width="3.0" fill="none" stroke="rgb(0, 0, 0)" stroke-opacity="1.0" stroke-linecap="round" stroke-linejoin="round"/>
  </g>
</svg>
