<?xml version="1.0" ?>
<svg xmlns="http://www.w3.org/2000/svg" version="1.1" width="224" height="224">
  <defs/>
  <g>
    <path d="M 171.4346923828125 90.90379333496094 C 137.3050994873047 80.50341033935547 100.19100189208984 91.91853332519531 146.14614868164062 87.97498321533203" stroke-width="3.0" fill="none" stroke="rgb(0, 0, 0)" stroke-opacity="1.0" stroke-linecap="round" stroke-linejoin="round"/>
    <path d="M 175.96054077148438 88.62203216552734 C 173.66172790527344 96.94681549072266 194.84422302246094 90.81829071044922 158.59117126464844 108.56608581542969" stroke-width="3.0" fill="none" stroke="rgb(0, 0, 0)" stroke-opacity="1.0" stroke-linecap="round" stroke-linejoin="round"/>
    <path d="M 45.49527359008789 36.85930252075195 C 13.710467338562012 60.60873794555664 85.52322387695312 129.4498748779297 86.64634704589844 70.08771514892578" stroke-width="3.0" fill="none" stroke="rgb(0, 0, 0)" stroke-opacity="1.0" stroke-linecap="round" stroke-linejoin="round"/>
    <path d="M 94.33002471923828 73.44464874267578 C 135.2228546142578 74.35130310058594 176.5750732421875 82.19593048095703 103.55204010009766 94.06351470947266" stroke-width="3.0" fill="none" stroke="rgb(0, 0, 0)" stroke-opacity="1.0" stroke-linecap="round" stroke-linejoin="round"/>
    <path d="M 159.2526397705078 85.30935668945312 C 213.7703399658203 103.59943389892578 170.59454345703125 99.42510986328125 185.0302734375 97.35124206542969" stroke-width="3.0" fill="none" stroke="rgb(0, 0, 0)" stroke-opacity="1.0" stroke-linecap="round" stroke-linejoin="round"/>
    <path d="M 145.4920196533203 57.697998046875 C 120.26958465576172 73.60709381103516 65.4583740234375 98.1823501586914 88.08287048339844 58.02408981323242" stroke-width="3.0" fill="none" stroke="rgb(0, 0, 0)" stroke-opacity="1.0" stroke-linecap="round" stroke-linejoin="round"/>
    <path d="M 144.0502166748047 66.62081146240234 C 136.26316833496094 67.1286392211914 153.92031860351562 47.06965255737305 190.8872528076172 95.19170379638672" stroke-width="3.0" fill="none" stroke="rgb(0, 0, 0)" stroke-opacity="1.0" stroke-linecap="round" stroke-linejoin="round"/>
    <path d="M 87.7582015991211 90.87259674072266 C 118.98957824707031 102.97383880615234 106.07652282714844 83.67518615722656 121.44937896728516 134.8799285888672" stroke-width="3.0" fill="none" stroke="rgb(0, 0, 0)" stroke-opacity="1.0" stroke-linecap="round" stroke-linejoin="round"/>
    <path d="M 141.1879119873047 110.22575378417969 C 116.90460205078125 177.9216766357422 134.20361328125 101.87150573730469 103.50533294677734 206.12538146972656" stroke-width="3.0" fill="none" stroke="rgb(0, 0, 0)" stroke-opacity="1.0" stroke-linecap="round" stroke-linejoin="round"/>
    <path d="M 136.76634216308594 49.555233001708984 C 146.3702392578125 55.60795211791992 84.89122009277344 30.433486938476562 75.5952377319336 80.65328216552734" stroke-width="3.0" fill="none" stroke="rgb(0, 0, 0)" stroke-opacity="1.0" stroke-linecap="round" stroke-linejoin="round"/>
    <path d="M 105.20594787597656 70.56733703613281 C 155.89649963378906 60.076900482177734 130.40618896484375 60.6692008972168 177.31224060058594 87.83822631835938" stroke-width="3.0" fill="none" stroke="rgb(0, 0, 0)" stroke-opacity="1.0" stroke-linecap="round" stroke-linejoin="round"/>
    <path d="M 178.71861267089844 83.76080322265625 C 147.4823455810547 66.55535125732422 175.17185974121094 86.18399047851562 150.1256103515625 73.9404525756836" stroke-width="3.0" fill="none" stroke="rgb(0, 0, 0)" stroke-opacity="1.0" stroke-linecap="round" stroke-linejoin="round"/>
    <path d="M 143.08889770507812 61.82337188720703 C 141.47642517089844 69.28903198242188 149.77378845214844 56.21656036376953 147.20431518554688 61.1960563659668" stroke-width="3.0" fill="none" stroke="rgb(0, 0, 0)" stroke-opacity="1.0" stroke-linecap="round" stroke-linejoin="round"/>
    <path d="M 120.96324920654297 131.13038635253906 C 128.43942260742188 141.7071533203125 123.20812225341797 105.07781219482422 113.62494659423828 145.18637084960938" stroke-width="3.0" fill="none" stroke="rgb(0, 0, 0)" stroke-opacity="1.0" stroke-linecap="round" stroke-linejoin="round"/>
    <path d="M 145.47915649414062 62.320316314697266 C 167.3060302734375 64.24234771728516 129.25697326660156 51.6125373840332 151.69493103027344 61.37995529174805" stroke-width="3.0" fill="none" stroke="rgb(0, 0, 0)" stroke-opacity="1.0" stroke-linecap="round" stroke-linejoin="round"/>
    <path d="M 141.39227294921875 54.28531265258789 C 125.74830627441406 48.2586555480957 157.6352996826172 56.68620681762695 146.28404235839844 62.79428482055664" stroke-width="3.0" fill="none" stroke="rgb(0, 0, 0)" stroke-opacity="1.0" stroke-linecap="round" stroke-linejoin="round"/>
  </g>
</svg>
