<?xml version="1.0" ?>
<svg xmlns="http://www.w3.org/2000/svg" version="1.1" width="224" height="224">
  <defs/>
  <g>
    <path d="M 165.18582153320312 89.41732788085938 C 139.00210571289062 90.17888641357422 101.60076904296875 86.033935546875 145.36480712890625 79.82301330566406" stroke-width="3.0" fill="none" stroke="rgb(0, 0, 0)" stroke-opacity="1.0" stroke-linecap="round" stroke-linejoin="round"/>
    <path d="M 179.3647918701172 95.76791381835938 C 166.716796875 98.4427490234375 188.65908813476562 86.72248077392578 161.771240234375 111.42398071289062" stroke-width="3.0" fill="none" stroke="rgb(0, 0, 0)" stroke-opacity="1.0" stroke-linecap="round" stroke-linejoin="round"/>
    <path d="M 45.30094909667969 44.02587127685547 C 15.82016372680664 78.86132049560547 82.76210021972656 127.60244750976562 80.63232421875 64.00914001464844" stroke-width="3.0" fill="none" stroke="rgb(0, 0, 0)" stroke-opacity="1.0" stroke-linecap="round" stroke-linejoin="round"/>
    <path d="M 110.54283142089844 79.12946319580078 C 133.73391723632812 84.66668701171875 179.3684844970703 96.12187194824219 104.68402099609375 90.71944427490234" stroke-width="3.0" fill="none" stroke="rgb(0, 0, 0)" stroke-opacity="1.0" stroke-linecap="round" stroke-linejoin="round"/>
    <path d="M 166.234375 89.28990173339844 C 206.7847442626953 104.91570281982422 171.39205932617188 99.00625610351562 184.52395629882812 95.8809814453125" stroke-width="3.0" fill="none" stroke="rgb(0, 0, 0)" stroke-opacity="1.0" stroke-linecap="round" stroke-linejoin="round"/>
    <path d="M 150.2056427001953 69.30438232421875 C 117.66200256347656 75.89417266845703 52.47071075439453 95.12113952636719 91.60460662841797 56.68937301635742" stroke-width="3.0" fill="none" stroke="rgb(0, 0, 0)" stroke-opacity="1.0" stroke-linecap="round" stroke-linejoin="round"/>
    <path d="M 141.36154174804688 60.06557846069336 C 150.36753845214844 74.12273406982422 143.53575134277344 38.395973205566406 189.43482971191406 96.08353424072266" stroke-width="3.0" fill="none" stroke="rgb(0, 0, 0)" stroke-opacity="1.0" stroke-linecap="round" stroke-linejoin="round"/>
    <path d="M 82.77674102783203 84.72669219970703 C 126.83318328857422 98.17829132080078 110.21920013427734 85.1505126953125 121.51567840576172 135.0349578857422" stroke-width="3.0" fill="none" stroke="rgb(0, 0, 0)" stroke-opacity="1.0" stroke-linecap="round" stroke-linejoin="round"/>
    <path d="M 134.36459350585938 114.87374877929688 C 118.6771469116211 170.5828857421875 133.64918518066406 98.95574951171875 106.09484100341797 206.65931701660156" stroke-width="3.0" fill="none" stroke="rgb(0, 0, 0)" stroke-opacity="1.0" stroke-linecap="round" stroke-linejoin="round"/>
    <path d="M 136.58534240722656 50.939971923828125 C 139.4137420654297 54.10622787475586 83.66185760498047 23.021753311157227 67.65116119384766 80.56126403808594" stroke-width="3.0" fill="none" stroke="rgb(0, 0, 0)" stroke-opacity="1.0" stroke-linecap="round" stroke-linejoin="round"/>
    <path d="M 106.78443908691406 82.19910430908203 C 145.54795837402344 60.39072799682617 113.06704711914062 76.67243957519531 177.0579376220703 90.0118179321289" stroke-width="3.0" fill="none" stroke="rgb(0, 0, 0)" stroke-opacity="1.0" stroke-linecap="round" stroke-linejoin="round"/>
    <path d="M 180.1081085205078 85.51579284667969 C 142.9192657470703 74.72222900390625 171.54991149902344 78.57784271240234 149.33090209960938 74.05931854248047" stroke-width="3.0" fill="none" stroke="rgb(0, 0, 0)" stroke-opacity="1.0" stroke-linecap="round" stroke-linejoin="round"/>
    <path d="M 143.9276123046875 58.509403228759766 C 143.57888793945312 72.8812255859375 151.1067657470703 57.58509063720703 147.99087524414062 61.633094787597656" stroke-width="3.0" fill="none" stroke="rgb(0, 0, 0)" stroke-opacity="1.0" stroke-linecap="round" stroke-linejoin="round"/>
    <path d="M 127.75308990478516 135.50762939453125 C 128.92745971679688 145.5824737548828 123.00796508789062 114.52536010742188 117.01899719238281 141.66842651367188" stroke-width="3.0" fill="none" stroke="rgb(0, 0, 0)" stroke-opacity="1.0" stroke-linecap="round" stroke-linejoin="round"/>
    <path d="M 143.859619140625 60.464874267578125 C 167.0316619873047 62.00279998779297 132.42205810546875 52.619834899902344 150.2007293701172 68.81048583984375" stroke-width="3.0" fill="none" stroke="rgb(0, 0, 0)" stroke-opacity="1.0" stroke-linecap="round" stroke-linejoin="round"/>
    <path d="M 141.88650512695312 52.42374801635742 C 121.85457611083984 52.51632308959961 156.88259887695312 52.254173278808594 145.4667205810547 64.16090393066406" stroke-width="3.0" fill="none" stroke="rgb(0, 0, 0)" stroke-opacity="1.0" stroke-linecap="round" stroke-linejoin="round"/>
  </g>
</svg>
