<?xml version="1.0" ?>
<svg xmlns="http://www.w3.org/2000/svg" version="1.1" width="224" height="224">
  <defs/>
  <g>
    <path d="M 170.19387817382812 93.17374420166016 C 126.8643798828125 88.61608123779297 54.051334381103516 107.0650863647461 141.47512817382812 72.63553619384766" stroke-width="3.0" fill="none" stroke="rgb(0, 0, 0)" stroke-opacity="1.0" stroke-linecap="round" stroke-linejoin="round"/>
    <path d="M 181.84226989746094 95.67739868164062 C 177.6185302734375 102.77177429199219 193.9819793701172 92.63810729980469 153.99017333984375 111.29823303222656" stroke-width="3.0" fill="none" stroke="rgb(0, 0, 0)" stroke-opacity="1.0" stroke-linecap="round" stroke-linejoin="round"/>
    <path d="M 44.584896087646484 39.66726303100586 C 14.008976936340332 45.96074295043945 76.56536865234375 134.62643432617188 77.724365234375 66.71566009521484" stroke-width="3.0" fill="none" stroke="rgb(0, 0, 0)" stroke-opacity="1.0" stroke-linecap="round" stroke-linejoin="round"/>
    <path d="M 100.95849609375 74.65495300292969 C 145.4501953125 71.98690032958984 191.6722412109375 77.30599212646484 97.74024963378906 94.15272521972656" stroke-width="3.0" fill="none" stroke="rgb(0, 0, 0)" stroke-opacity="1.0" stroke-linecap="round" stroke-linejoin="round"/>
    <path d="M 158.26905822753906 82.69324493408203 C 216.7407989501953 109.54591369628906 171.1085968017578 94.71815490722656 182.0028839111328 95.71215057373047" stroke-width="3.0" fill="none" stroke="rgb(0, 0, 0)" stroke-opacity="1.0" stroke-linecap="round" stroke-linejoin="round"/>
    <path d="M 146.23313903808594 62.227821350097656 C 110.38758087158203 68.95706176757812 57.085723876953125 110.1932601928711 85.61908721923828 62.1939811706543" stroke-width="3.0" fill="none" stroke="rgb(0, 0, 0)" stroke-opacity="1.0" stroke-linecap="round" stroke-linejoin="round"/>
    <path d="M 163.09942626953125 68.441162109375 C 118.01176452636719 54.3669319152832 159.30267333984375 53.16175079345703 190.6604461669922 93.84973907470703" stroke-width="3.0" fill="none" stroke="rgb(0, 0, 0)" stroke-opacity="1.0" stroke-linecap="round" stroke-linejoin="round"/>
    <path d="M 78.70930480957031 88.48472595214844 C 126.10807037353516 96.55538940429688 117.70426940917969 80.33624267578125 123.12157440185547 137.49087524414062" stroke-width="3.0" fill="none" stroke="rgb(0, 0, 0)" stroke-opacity="1.0" stroke-linecap="round" stroke-linejoin="round"/>
    <path d="M 130.25762939453125 94.19764709472656 C 121.95278930664062 194.3945770263672 133.13331604003906 87.16260528564453 105.7524642944336 205.25035095214844" stroke-width="3.0" fill="none" stroke="rgb(0, 0, 0)" stroke-opacity="1.0" stroke-linecap="round" stroke-linejoin="round"/>
    <path d="M 127.91223907470703 47.514488220214844 C 135.73306274414062 54.79995346069336 75.48411560058594 24.76641273498535 66.44871520996094 81.3375244140625" stroke-width="3.0" fill="none" stroke="rgb(0, 0, 0)" stroke-opacity="1.0" stroke-linecap="round" stroke-linejoin="round"/>
    <path d="M 115.16700744628906 52.85064697265625 C 158.19850158691406 47.246009826660156 130.72027587890625 66.2532730102539 173.01773071289062 85.30145263671875" stroke-width="3.0" fill="none" stroke="rgb(0, 0, 0)" stroke-opacity="1.0" stroke-linecap="round" stroke-linejoin="round"/>
    <path d="M 180.91543579101562 86.26126098632812 C 156.4636688232422 75.8311767578125 210.03857421875 104.12317657470703 145.0952606201172 82.36961364746094" stroke-width="3.0" fill="none" stroke="rgb(0, 0, 0)" stroke-opacity="1.0" stroke-linecap="round" stroke-linejoin="round"/>
    <path d="M 144.91529846191406 65.62191009521484 C 143.1334228515625 75.48184204101562 153.57518005371094 62.229896545410156 146.74874877929688 68.26780700683594" stroke-width="3.0" fill="none" stroke="rgb(0, 0, 0)" stroke-opacity="1.0" stroke-linecap="round" stroke-linejoin="round"/>
    <path d="M 128.5886993408203 117.50050354003906 C 146.01382446289062 149.75167846679688 141.11705017089844 101.33644104003906 117.19535064697266 141.50914001464844" stroke-width="3.0" fill="none" stroke="rgb(0, 0, 0)" stroke-opacity="1.0" stroke-linecap="round" stroke-linejoin="round"/>
    <path d="M 146.38819885253906 64.70708465576172 C 162.79022216796875 67.45166015625 129.96728515625 47.2965087890625 145.77694702148438 62.80512619018555" stroke-width="3.0" fill="none" stroke="rgb(0, 0, 0)" stroke-opacity="1.0" stroke-linecap="round" stroke-linejoin="round"/>
    <path d="M 145.33209228515625 59.034488677978516 C 122.07384490966797 53.47258377075195 151.79991149902344 60.690494537353516 143.59385681152344 61.23176193237305" stroke-width="3.0" fill="none" stroke="rgb(0, 0, 0)" stroke-opacity="1.0" stroke-linecap="round" stroke-linejoin="round"/>
  </g>
</svg>
