<?xml version="1.0" ?>
<svg xmlns="http://www.w3.org/2000/svg" version="1.1" width="224" height="224">
  <defs/>
  <g>
    <path d="M 154.10882568359375 68.55020904541016 C 145.84341430664062 91.46510314941406 117.20561981201172 91.75588989257812 144.21214294433594 86.85140228271484" stroke-width="3.0" fill="none" stroke="rgb(0, 0, 0)" stroke-opacity="1.0" stroke-linecap="round" stroke-linejoin="round"/>
    <path d="M 177.07958984375 92.06787872314453 C 174.7749481201172 80.8213119506836 192.6750030517578 95.87493896484375 160.722900390625 108.10018920898438" stroke-width="3.0" fill="none" stroke="rgb(0, 0, 0)" stroke-opacity="1.0" stroke-linecap="round" stroke-linejoin="round"/>
    <path d="M 66.42544555664062 41.52849197387695 C 38.92887878417969 96.24223327636719 69.9056167602539 119.20941162109375 94.82003784179688 72.54118347167969" stroke-width="3.0" fill="none" stroke="rgb(0, 0, 0)" stroke-opacity="1.0" stroke-linecap="round" stroke-linejoin="round"/>
    <path d="M 121.42810821533203 91.99053955078125 C 107.18860626220703 88.23163604736328 158.7028350830078 97.98149871826172 88.94425201416016 93.89513397216797" stroke-width="3.0" fill="none" stroke="rgb(0, 0, 0)" stroke-opacity="1.0" stroke-linecap="round" stroke-linejoin="round"/>
    <path d="M 173.7393341064453 99.52454376220703 C 194.1703338623047 96.06201171875 170.96786499023438 88.13267517089844 178.23619079589844 87.86732482910156" stroke-width="3.0" fill="none" stroke="rgb(0, 0, 0)" stroke-opacity="1.0" stroke-linecap="round" stroke-linejoin="round"/>
    <path d="M 141.35206604003906 55.70014953613281 C 132.54969787597656 93.77930450439453 86.11851501464844 117.94310760498047 120.8443603515625 70.45570373535156" stroke-width="3.0" fill="none" stroke="rgb(0, 0, 0)" stroke-opacity="1.0" stroke-linecap="round" stroke-linejoin="round"/>
    <path d="M 141.83326721191406 52.295753479003906 C 161.0969696044922 90.18148803710938 136.34225463867188 41.55659484863281 176.63919067382812 86.310546875" stroke-width="3.0" fill="none" stroke="rgb(0, 0, 0)" stroke-opacity="1.0" stroke-linecap="round" stroke-linejoin="round"/>
    <path d="M 76.68059539794922 101.11701965332031 C 119.15386962890625 84.99072265625 107.5642318725586 87.3723373413086 123.85798645019531 139.36961364746094" stroke-width="3.0" fill="none" stroke="rgb(0, 0, 0)" stroke-opacity="1.0" stroke-linecap="round" stroke-linejoin="round"/>
    <path d="M 134.93795776367188 122.16808319091797 C 117.15409088134766 177.42300415039062 135.17950439453125 125.6494140625 104.8631820678711 206.65562438964844" stroke-width="3.0" fill="none" stroke="rgb(0, 0, 0)" stroke-opacity="1.0" stroke-linecap="round" stroke-linejoin="round"/>
    <path d="M 124.1075210571289 53.75467300415039 C 140.26177978515625 66.37286376953125 108.56434631347656 47.167110443115234 88.0457763671875 92.07536315917969" stroke-width="3.0" fill="none" stroke="rgb(0, 0, 0)" stroke-opacity="1.0" stroke-linecap="round" stroke-linejoin="round"/>
    <path d="M 129.00035095214844 88.23827362060547 C 144.2237548828125 61.38923263549805 115.19978332519531 64.28276062011719 169.53866577148438 79.25931549072266" stroke-width="3.0" fill="none" stroke="rgb(0, 0, 0)" stroke-opacity="1.0" stroke-linecap="round" stroke-linejoin="round"/>
    <path d="M 159.7221221923828 71.72406768798828 C 146.08631896972656 69.7566146850586 148.76852416992188 103.67980194091797 147.72052001953125 68.0517578125" stroke-width="3.0" fill="none" stroke="rgb(0, 0, 0)" stroke-opacity="1.0" stroke-linecap="round" stroke-linejoin="round"/>
    <path d="M 136.24179077148438 58.24555587768555 C 120.68817901611328 72.40097045898438 136.94309997558594 55.877071380615234 141.1356201171875 60.26728057861328" stroke-width="3.0" fill="none" stroke="rgb(0, 0, 0)" stroke-opacity="1.0" stroke-linecap="round" stroke-linejoin="round"/>
    <path d="M 126.45000457763672 149.0079803466797 C 129.36257934570312 151.57205200195312 133.36953735351562 108.11082458496094 116.27497863769531 148.0347442626953" stroke-width="3.0" fill="none" stroke="rgb(0, 0, 0)" stroke-opacity="1.0" stroke-linecap="round" stroke-linejoin="round"/>
    <path d="M 139.58084106445312 58.75564956665039 C 142.56080627441406 64.81390380859375 121.87059020996094 51.595821380615234 141.8584442138672 60.80939865112305" stroke-width="3.0" fill="none" stroke="rgb(0, 0, 0)" stroke-opacity="1.0" stroke-linecap="round" stroke-linejoin="round"/>
    <path d="M 131.201904296875 47.79535675048828 C 120.9158706665039 52.561100006103516 149.5032958984375 40.41012954711914 138.43905639648438 53.849403381347656" stroke-width="3.0" fill="none" stroke="rgb(0, 0, 0)" stroke-opacity="1.0" stroke-linecap="round" stroke-linejoin="round"/>
  </g>
</svg>
