<?xml version="1.0" ?>
<svg xmlns="http://www.w3.org/2000/svg" version="1.1" width="224" height="224">
  <defs/>
  <g>
    <path d="M 157.80848693847656 72.50287628173828 C 143.179443359375 92.45425415039062 119.28230285644531 103.30007934570312 138.3391571044922 91.9856948852539" stroke-width="3.0" fill="none" stroke="rgb(0, 0, 0)" stroke-opacity="1.0" stroke-linecap="round" stroke-linejoin="round"/>
    <path d="M 177.182373046875 97.55580139160156 C 183.26840209960938 83.30554962158203 191.1814727783203 94.57470703125 162.7941131591797 105.70135498046875" stroke-width="3.0" fill="none" stroke="rgb(0, 0, 0)" stroke-opacity="1.0" stroke-linecap="round" stroke-linejoin="round"/>
    <path d="M 69.96399688720703 43.34858322143555 C 40.44731903076172 88.21795654296875 74.75410461425781 121.79794311523438 100.64140319824219 87.60660552978516" stroke-width="3.0" fill="none" stroke="rgb(0, 0, 0)" stroke-opacity="1.0" stroke-linecap="round" stroke-linejoin="round"/>
    <path d="M 115.86666107177734 91.86644744873047 C 113.1652603149414 92.64391326904297 152.9916534423828 88.20061492919922 97.58424377441406 98.12699890136719" stroke-width="3.0" fill="none" stroke="rgb(0, 0, 0)" stroke-opacity="1.0" stroke-linecap="round" stroke-linejoin="round"/>
    <path d="M 182.47921752929688 91.10443115234375 C 201.72801208496094 83.7679443359375 201.9446258544922 90.32144927978516 200.0752410888672 87.51107788085938" stroke-width="3.0" fill="none" stroke="rgb(0, 0, 0)" stroke-opacity="1.0" stroke-linecap="round" stroke-linejoin="round"/>
    <path d="M 133.57858276367188 49.646705627441406 C 132.4501190185547 102.69326782226562 88.46177673339844 119.86712646484375 116.85972595214844 70.81074523925781" stroke-width="3.0" fill="none" stroke="rgb(0, 0, 0)" stroke-opacity="1.0" stroke-linecap="round" stroke-linejoin="round"/>
    <path d="M 141.1962432861328 56.858829498291016 C 160.35853576660156 73.07644653320312 139.6981658935547 52.2796745300293 158.84918212890625 64.44706726074219" stroke-width="3.0" fill="none" stroke="rgb(0, 0, 0)" stroke-opacity="1.0" stroke-linecap="round" stroke-linejoin="round"/>
    <path d="M 79.9872055053711 102.16150665283203 C 125.56926727294922 90.95005798339844 108.61995697021484 100.93511199951172 122.60243225097656 127.56985473632812" stroke-width="3.0" fill="none" stroke="rgb(0, 0, 0)" stroke-opacity="1.0" stroke-linecap="round" stroke-linejoin="round"/>
    <path d="M 133.13047790527344 131.95277404785156 C 110.24406433105469 160.0952911376953 127.8025894165039 128.0265655517578 105.39060974121094 204.1784210205078" stroke-width="3.0" fill="none" stroke="rgb(0, 0, 0)" stroke-opacity="1.0" stroke-linecap="round" stroke-linejoin="round"/>
    <path d="M 119.77710723876953 54.8021354675293 C 146.23158264160156 68.19176483154297 110.39785766601562 54.58352279663086 90.56449890136719 97.94898223876953" stroke-width="3.0" fill="none" stroke="rgb(0, 0, 0)" stroke-opacity="1.0" stroke-linecap="round" stroke-linejoin="round"/>
    <path d="M 127.4647445678711 87.12855529785156 C 149.6874237060547 78.42517852783203 119.12825012207031 67.6417236328125 151.52296447753906 64.4725341796875" stroke-width="3.0" fill="none" stroke="rgb(0, 0, 0)" stroke-opacity="1.0" stroke-linecap="round" stroke-linejoin="round"/>
    <path d="M 153.3535919189453 66.14209747314453 C 135.85215759277344 90.264404296875 140.6225128173828 108.02928161621094 146.6645050048828 62.50090789794922" stroke-width="3.0" fill="none" stroke="rgb(0, 0, 0)" stroke-opacity="1.0" stroke-linecap="round" stroke-linejoin="round"/>
    <path d="M 128.34136962890625 67.80989074707031 C 126.39701080322266 86.30257415771484 133.77662658691406 51.144775390625 147.64013671875 55.849605560302734" stroke-width="3.0" fill="none" stroke="rgb(0, 0, 0)" stroke-opacity="1.0" stroke-linecap="round" stroke-linejoin="round"/>
    <path d="M 113.850830078125 130.72927856445312 C 126.74385070800781 143.48275756835938 126.33468627929688 114.74971771240234 115.73121643066406 138.46429443359375" stroke-width="3.0" fill="none" stroke="rgb(0, 0, 0)" stroke-opacity="1.0" stroke-linecap="round" stroke-linejoin="round"/>
    <path d="M 135.58187866210938 48.406246185302734 C 150.9959259033203 59.079811096191406 143.78033447265625 46.37473678588867 152.61732482910156 62.97078323364258" stroke-width="3.0" fill="none" stroke="rgb(0, 0, 0)" stroke-opacity="1.0" stroke-linecap="round" stroke-linejoin="round"/>
    <path d="M 126.82301330566406 54.04434585571289 C 121.9902114868164 53.028358459472656 152.5763702392578 33.70197296142578 142.59242248535156 61.794822692871094" stroke-width="3.0" fill="none" stroke="rgb(0, 0, 0)" stroke-opacity="1.0" stroke-linecap="round" stroke-linejoin="round"/>
  </g>
</svg>
