<?xml version="1.0" ?>
<svg xmlns="http://www.w3.org/2000/svg" version="1.1" width="224" height="224">
  <defs/>
  <g>
    <path d="M 129.21839904785156 74.01704406738281 C 141.93772888183594 84.0000991821289 123.15745544433594 98.37535858154297 123.58390808105469 78.74445343017578" stroke-width="3.0" fill="none" stroke="rgb(0, 0, 0)" stroke-opacity="1.0" stroke-linecap="round" stroke-linejoin="round"/>
    <path d="M 182.16983032226562 95.0251693725586 C 183.39076232910156 85.37973022460938 192.18569946289062 85.29859161376953 177.6384735107422 105.55599212646484" stroke-width="3.0" fill="none" stroke="rgb(0, 0, 0)" stroke-opacity="1.0" stroke-linecap="round" stroke-linejoin="round"/>
    <path d="M 73.07200622558594 53.754695892333984 C 40.09123992919922 88.46101379394531 67.64459991455078 115.35081481933594 98.4246597290039 95.61064147949219" stroke-width="3.0" fill="none" stroke="rgb(0, 0, 0)" stroke-opacity="1.0" stroke-linecap="round" stroke-linejoin="round"/>
    <path d="M 110.89728546142578 92.18960571289062 C 108.31835174560547 93.34759521484375 143.75587463378906 82.99234008789062 116.22122955322266 100.654296875" stroke-width="3.0" fill="none" stroke="rgb(0, 0, 0)" stroke-opacity="1.0" stroke-linecap="round" stroke-linejoin="round"/>
    <path d="M 182.5260009765625 89.95964050292969 C 195.1123504638672 78.36782836914062 195.26296997070312 65.25419616699219 191.7985076904297 77.95210266113281" stroke-width="3.0" fill="none" stroke="rgb(0, 0, 0)" stroke-opacity="1.0" stroke-linecap="round" stroke-linejoin="round"/>
    <path d="M 129.76104736328125 68.9045181274414 C 134.37527465820312 92.38106536865234 116.89720916748047 102.30911254882812 129.0498046875 79.326416015625" stroke-width="3.0" fill="none" stroke="rgb(0, 0, 0)" stroke-opacity="1.0" stroke-linecap="round" stroke-linejoin="round"/>
    <path d="M 139.90098571777344 59.975494384765625 C 157.5190887451172 69.79566192626953 137.58267211914062 53.66834259033203 156.14324951171875 67.70130920410156" stroke-width="3.0" fill="none" stroke="rgb(0, 0, 0)" stroke-opacity="1.0" stroke-linecap="round" stroke-linejoin="round"/>
    <path d="M 92.78681945800781 101.00044250488281 C 124.43385314941406 88.89694213867188 108.85557556152344 105.55447387695312 123.4700698852539 126.83609771728516" stroke-width="3.0" fill="none" stroke="rgb(0, 0, 0)" stroke-opacity="1.0" stroke-linecap="round" stroke-linejoin="round"/>
    <path d="M 126.89419555664062 131.8994903564453 C 112.40703582763672 154.4818115234375 123.51541137695312 143.5562286376953 104.72818756103516 204.75442504882812" stroke-width="3.0" fill="none" stroke="rgb(0, 0, 0)" stroke-opacity="1.0" stroke-linecap="round" stroke-linejoin="round"/>
    <path d="M 123.51553344726562 53.74067687988281 C 133.08401489257812 61.97124099731445 114.99673461914062 55.972633361816406 109.76944732666016 84.38664245605469" stroke-width="3.0" fill="none" stroke="rgb(0, 0, 0)" stroke-opacity="1.0" stroke-linecap="round" stroke-linejoin="round"/>
    <path d="M 142.75611877441406 86.18214416503906 C 154.52076721191406 80.28114318847656 130.42884826660156 81.75720977783203 155.41107177734375 73.43263244628906" stroke-width="3.0" fill="none" stroke="rgb(0, 0, 0)" stroke-opacity="1.0" stroke-linecap="round" stroke-linejoin="round"/>
    <path d="M 143.4766082763672 64.55789184570312 C 129.53529357910156 91.3974609375 136.0652618408203 107.34394073486328 141.7655029296875 72.7383041381836" stroke-width="3.0" fill="none" stroke="rgb(0, 0, 0)" stroke-opacity="1.0" stroke-linecap="round" stroke-linejoin="round"/>
    <path d="M 141.5331268310547 54.16839599609375 C 148.4561309814453 97.58349609375 140.2275390625 68.39191436767578 132.34422302246094 66.03559112548828" stroke-width="3.0" fill="none" stroke="rgb(0, 0, 0)" stroke-opacity="1.0" stroke-linecap="round" stroke-linejoin="round"/>
    <path d="M 125.03030395507812 125.92179107666016 C 137.64468383789062 146.36392211914062 121.52799224853516 98.59777069091797 122.03679656982422 138.70077514648438" stroke-width="3.0" fill="none" stroke="rgb(0, 0, 0)" stroke-opacity="1.0" stroke-linecap="round" stroke-linejoin="round"/>
    <path d="M 138.4137725830078 52.98666763305664 C 135.42237854003906 62.773277282714844 137.46971130371094 46.14256286621094 146.90699768066406 59.903934478759766" stroke-width="3.0" fill="none" stroke="rgb(0, 0, 0)" stroke-opacity="1.0" stroke-linecap="round" stroke-linejoin="round"/>
    <path d="M 125.00151824951172 49.38056945800781 C 128.6211395263672 59.51400375366211 128.60235595703125 34.65375900268555 138.5631866455078 68.26250457763672" stroke-width="3.0" fill="none" stroke="rgb(0, 0, 0)" stroke-opacity="1.0" stroke-linecap="round" stroke-linejoin="round"/>
  </g>
</svg>
