<?xml version="1.0" ?>
<svg xmlns="http://www.w3.org/2000/svg" version="1.1" width="224" height="224">
  <defs/>
  <g>
    <path d="M 172.45382690429688 92.50363159179688 C 127.56863403320312 85.01303100585938 68.17752838134766 105.15897369384766 142.7967529296875 70.83990478515625" stroke-width="3.0" fill="none" stroke="rgb(0, 0, 0)" stroke-opacity="1.0" stroke-linecap="round" stroke-linejoin="round"/>
    <path d="M 177.01036071777344 92.38774871826172 C 173.77340698242188 99.33988952636719 191.12893676757812 88.46328735351562 155.07049560546875 110.55132293701172" stroke-width="3.0" fill="none" stroke="rgb(0, 0, 0)" stroke-opacity="1.0" stroke-linecap="round" stroke-linejoin="round"/>
    <path d="M 49.60899353027344 37.0256462097168 C 15.499245643615723 46.1148681640625 80.16560363769531 138.26467895507812 78.19356536865234 68.18495178222656" stroke-width="3.0" fill="none" stroke="rgb(0, 0, 0)" stroke-opacity="1.0" stroke-linecap="round" stroke-linejoin="round"/>
    <path d="M 117.93804168701172 67.1767807006836 C 148.66136169433594 69.59830474853516 195.37403869628906 79.38043975830078 97.37820434570312 91.2640151977539" stroke-width="3.0" fill="none" stroke="rgb(0, 0, 0)" stroke-opacity="1.0" stroke-linecap="round" stroke-linejoin="round"/>
    <path d="M 157.8170928955078 83.43341827392578 C 217.3880615234375 103.8191909790039 167.84170532226562 95.84498596191406 179.59317016601562 92.58226776123047" stroke-width="3.0" fill="none" stroke="rgb(0, 0, 0)" stroke-opacity="1.0" stroke-linecap="round" stroke-linejoin="round"/>
    <path d="M 146.64768981933594 62.371517181396484 C 110.91104888916016 66.94091033935547 59.21371078491211 106.34208679199219 87.13894653320312 63.328372955322266" stroke-width="3.0" fill="none" stroke="rgb(0, 0, 0)" stroke-opacity="1.0" stroke-linecap="round" stroke-linejoin="round"/>
    <path d="M 157.36863708496094 67.47477722167969 C 115.9823226928711 62.73331832885742 160.74343872070312 52.544776916503906 190.13543701171875 92.9142074584961" stroke-width="3.0" fill="none" stroke="rgb(0, 0, 0)" stroke-opacity="1.0" stroke-linecap="round" stroke-linejoin="round"/>
    <path d="M 81.52110290527344 89.57305145263672 C 125.37415313720703 99.70298767089844 115.9415054321289 84.1954116821289 121.6146011352539 136.11117553710938" stroke-width="3.0" fill="none" stroke="rgb(0, 0, 0)" stroke-opacity="1.0" stroke-linecap="round" stroke-linejoin="round"/>
    <path d="M 138.75230407714844 92.8874740600586 C 117.0663833618164 188.14683532714844 133.3673858642578 87.46666717529297 107.33565521240234 207.79942321777344" stroke-width="3.0" fill="none" stroke="rgb(0, 0, 0)" stroke-opacity="1.0" stroke-linecap="round" stroke-linejoin="round"/>
    <path d="M 123.07965087890625 51.89591598510742 C 139.8249053955078 49.788692474365234 80.33137512207031 27.99747657775879 72.21260833740234 76.0715103149414" stroke-width="3.0" fill="none" stroke="rgb(0, 0, 0)" stroke-opacity="1.0" stroke-linecap="round" stroke-linejoin="round"/>
    <path d="M 110.42023468017578 48.186702728271484 C 159.97116088867188 46.27406692504883 132.9126739501953 64.04487609863281 177.13497924804688 84.53388977050781" stroke-width="3.0" fill="none" stroke="rgb(0, 0, 0)" stroke-opacity="1.0" stroke-linecap="round" stroke-linejoin="round"/>
    <path d="M 181.56085205078125 86.04486083984375 C 149.91920471191406 72.73900604248047 201.2047576904297 94.5066146850586 148.32958984375 87.77547454833984" stroke-width="3.0" fill="none" stroke="rgb(0, 0, 0)" stroke-opacity="1.0" stroke-linecap="round" stroke-linejoin="round"/>
    <path d="M 145.89723205566406 64.9675521850586 C 143.75729370117188 71.48971557617188 152.45896911621094 59.44369888305664 145.50091552734375 64.94680786132812" stroke-width="3.0" fill="none" stroke="rgb(0, 0, 0)" stroke-opacity="1.0" stroke-linecap="round" stroke-linejoin="round"/>
    <path d="M 126.56659698486328 125.80985260009766 C 133.7849884033203 151.8397674560547 124.92930603027344 107.1940689086914 112.58293914794922 145.59046936035156" stroke-width="3.0" fill="none" stroke="rgb(0, 0, 0)" stroke-opacity="1.0" stroke-linecap="round" stroke-linejoin="round"/>
    <path d="M 146.89637756347656 64.61947631835938 C 162.16285705566406 67.29248046875 130.75331115722656 47.42409133911133 146.7217254638672 58.37864685058594" stroke-width="3.0" fill="none" stroke="rgb(0, 0, 0)" stroke-opacity="1.0" stroke-linecap="round" stroke-linejoin="round"/>
    <path d="M 140.05511474609375 56.25980758666992 C 110.88463592529297 48.29654312133789 149.78407287597656 53.29610824584961 143.01312255859375 52.78347396850586" stroke-width="3.0" fill="none" stroke="rgb(0, 0, 0)" stroke-opacity="1.0" stroke-linecap="round" stroke-linejoin="round"/>
  </g>
</svg>
