<?xml version="1.0" ?>
<svg xmlns="http://www.w3.org/2000/svg" version="1.1" width="224" height="224">
  <defs/>
  <g>
    <path d="M 166.46096801757812 87.02214050292969 C 139.0715789794922 88.73297119140625 102.21699523925781 86.12774658203125 147.82485961914062 81.02537536621094" stroke-width="3.0" fill="none" stroke="rgb(0, 0, 0)" stroke-opacity="1.0" stroke-linecap="round" stroke-linejoin="round"/>
    <path d="M 179.22116088867188 95.44703674316406 C 167.41815185546875 98.14705657958984 189.09552001953125 86.31352996826172 159.23849487304688 111.4807357788086" stroke-width="3.0" fill="none" stroke="rgb(0, 0, 0)" stroke-opacity="1.0" stroke-linecap="round" stroke-linejoin="round"/>
    <path d="M 45.72785186767578 43.43500900268555 C 17.286806106567383 75.44109344482422 83.82063293457031 127.00677490234375 80.4891586303711 66.55204010009766" stroke-width="3.0" fill="none" stroke="rgb(0, 0, 0)" stroke-opacity="1.0" stroke-linecap="round" stroke-linejoin="round"/>
    <path d="M 108.76174926757812 82.59310913085938 C 131.3311767578125 86.52308654785156 178.91636657714844 93.91712951660156 104.97309112548828 88.77308654785156" stroke-width="3.0" fill="none" stroke="rgb(0, 0, 0)" stroke-opacity="1.0" stroke-linecap="round" stroke-linejoin="round"/>
    <path d="M 164.73004150390625 88.11861419677734 C 206.6998748779297 105.45502471923828 170.75686645507812 99.84383392333984 184.5432586669922 95.13632202148438" stroke-width="3.0" fill="none" stroke="rgb(0, 0, 0)" stroke-opacity="1.0" stroke-linecap="round" stroke-linejoin="round"/>
    <path d="M 149.48081970214844 68.84629821777344 C 117.28305053710938 74.6347885131836 52.859256744384766 95.30668640136719 91.01335906982422 57.20661544799805" stroke-width="3.0" fill="none" stroke="rgb(0, 0, 0)" stroke-opacity="1.0" stroke-linecap="round" stroke-linejoin="round"/>
    <path d="M 140.29177856445312 59.53184509277344 C 151.92454528808594 76.2923355102539 143.38214111328125 41.34294891357422 189.99537658691406 96.52938079833984" stroke-width="3.0" fill="none" stroke="rgb(0, 0, 0)" stroke-opacity="1.0" stroke-linecap="round" stroke-linejoin="round"/>
    <path d="M 82.41149139404297 83.73133850097656 C 125.05139923095703 98.87623596191406 110.19566345214844 86.57299041748047 123.28800964355469 137.58343505859375" stroke-width="3.0" fill="none" stroke="rgb(0, 0, 0)" stroke-opacity="1.0" stroke-linecap="round" stroke-linejoin="round"/>
    <path d="M 135.242431640625 116.1137466430664 C 120.78954315185547 173.4499969482422 135.49114990234375 101.43054962158203 104.29051971435547 204.95504760742188" stroke-width="3.0" fill="none" stroke="rgb(0, 0, 0)" stroke-opacity="1.0" stroke-linecap="round" stroke-linejoin="round"/>
    <path d="M 137.22296142578125 52.35274124145508 C 137.41619873046875 54.94444274902344 82.51004791259766 21.8544864654541 68.11978149414062 82.7469253540039" stroke-width="3.0" fill="none" stroke="rgb(0, 0, 0)" stroke-opacity="1.0" stroke-linecap="round" stroke-linejoin="round"/>
    <path d="M 106.80095672607422 81.84577178955078 C 146.06813049316406 59.9146614074707 114.31953430175781 75.55880737304688 176.67654418945312 89.4863052368164" stroke-width="3.0" fill="none" stroke="rgb(0, 0, 0)" stroke-opacity="1.0" stroke-linecap="round" stroke-linejoin="round"/>
    <path d="M 180.8899383544922 85.2450942993164 C 145.19082641601562 70.21048736572266 172.86412048339844 75.57009887695312 149.07252502441406 72.54705810546875" stroke-width="3.0" fill="none" stroke="rgb(0, 0, 0)" stroke-opacity="1.0" stroke-linecap="round" stroke-linejoin="round"/>
    <path d="M 144.41127014160156 59.31644821166992 C 143.3381805419922 72.48953247070312 150.77194213867188 57.28981399536133 147.9188690185547 61.590179443359375" stroke-width="3.0" fill="none" stroke="rgb(0, 0, 0)" stroke-opacity="1.0" stroke-linecap="round" stroke-linejoin="round"/>
    <path d="M 126.36373138427734 135.5942840576172 C 129.59422302246094 144.92071533203125 124.45137023925781 114.262451171875 117.31737518310547 144.00318908691406" stroke-width="3.0" fill="none" stroke="rgb(0, 0, 0)" stroke-opacity="1.0" stroke-linecap="round" stroke-linejoin="round"/>
    <path d="M 144.1322021484375 60.35847091674805 C 166.21563720703125 62.39805603027344 132.37939453125 52.38051986694336 150.30191040039062 68.50667572021484" stroke-width="3.0" fill="none" stroke="rgb(0, 0, 0)" stroke-opacity="1.0" stroke-linecap="round" stroke-linejoin="round"/>
    <path d="M 142.0495147705078 54.08238220214844 C 120.55196380615234 53.6522216796875 156.80499267578125 53.230072021484375 145.65184020996094 64.2220687866211" stroke-width="3.0" fill="none" stroke="rgb(0, 0, 0)" stroke-opacity="1.0" stroke-linecap="round" stroke-linejoin="round"/>
  </g>
</svg>
