<?xml version="1.0" ?>
<svg xmlns="http://www.w3.org/2000/svg" version="1.1" width="224" height="224">
  <defs/>
  <g>
    <path d="M 179.0404052734375 93.41207885742188 C 124.58428955078125 79.47462463378906 41.28498458862305 109.77027130126953 139.5823974609375 72.8882827758789" stroke-width="3.0" fill="none" stroke="rgb(0, 0, 0)" stroke-opacity="1.0" stroke-linecap="round" stroke-linejoin="round"/>
    <path d="M 189.48690795898438 98.27316284179688 C 174.4420928955078 94.0567855834961 198.287353515625 95.00369262695312 141.9373779296875 115.4491958618164" stroke-width="3.0" fill="none" stroke="rgb(0, 0, 0)" stroke-opacity="1.0" stroke-linecap="round" stroke-linejoin="round"/>
    <path d="M 49.045318603515625 42.21434020996094 C 4.332056999206543 40.35099411010742 64.97853088378906 125.91534423828125 72.32593536376953 59.05773162841797" stroke-width="3.0" fill="none" stroke="rgb(0, 0, 0)" stroke-opacity="1.0" stroke-linecap="round" stroke-linejoin="round"/>
    <path d="M 101.14910125732422 65.53577423095703 C 163.05477905273438 61.8778076171875 209.6443634033203 75.69805145263672 92.34556579589844 87.15565490722656" stroke-width="3.0" fill="none" stroke="rgb(0, 0, 0)" stroke-opacity="1.0" stroke-linecap="round" stroke-linejoin="round"/>
    <path d="M 140.78729248046875 77.10993194580078 C 218.908447265625 106.05747985839844 180.230224609375 96.26990509033203 188.3816680908203 100.39256286621094" stroke-width="3.0" fill="none" stroke="rgb(0, 0, 0)" stroke-opacity="1.0" stroke-linecap="round" stroke-linejoin="round"/>
    <path d="M 140.5013885498047 57.89169692993164 C 104.67437744140625 57.29253005981445 49.288963317871094 107.7226791381836 77.92530822753906 61.20174026489258" stroke-width="3.0" fill="none" stroke="rgb(0, 0, 0)" stroke-opacity="1.0" stroke-linecap="round" stroke-linejoin="round"/>
    <path d="M 162.07025146484375 78.24607849121094 C 113.08325958251953 54.81861877441406 163.14639282226562 53.07316970825195 190.76834106445312 96.74209594726562" stroke-width="3.0" fill="none" stroke="rgb(0, 0, 0)" stroke-opacity="1.0" stroke-linecap="round" stroke-linejoin="round"/>
    <path d="M 75.43138885498047 84.84638977050781 C 123.38314819335938 93.16544342041016 108.81629943847656 88.58418273925781 123.06573486328125 139.4649658203125" stroke-width="3.0" fill="none" stroke="rgb(0, 0, 0)" stroke-opacity="1.0" stroke-linecap="round" stroke-linejoin="round"/>
    <path d="M 130.6771697998047 90.13261413574219 C 118.2500228881836 197.95455932617188 132.57638549804688 93.3985366821289 106.02989196777344 201.87484741210938" stroke-width="3.0" fill="none" stroke="rgb(0, 0, 0)" stroke-opacity="1.0" stroke-linecap="round" stroke-linejoin="round"/>
    <path d="M 129.32289123535156 47.19767761230469 C 132.0927276611328 52.45664978027344 74.3186264038086 22.86261749267578 69.83071899414062 86.30838012695312" stroke-width="3.0" fill="none" stroke="rgb(0, 0, 0)" stroke-opacity="1.0" stroke-linecap="round" stroke-linejoin="round"/>
    <path d="M 101.83071899414062 52.54827117919922 C 154.71102905273438 40.51088333129883 135.0341339111328 57.104225158691406 174.00051879882812 78.10105895996094" stroke-width="3.0" fill="none" stroke="rgb(0, 0, 0)" stroke-opacity="1.0" stroke-linecap="round" stroke-linejoin="round"/>
    <path d="M 176.9841766357422 91.66809844970703 C 162.87208557128906 75.37238311767578 214.34982299804688 97.69969177246094 148.7923583984375 69.65120697021484" stroke-width="3.0" fill="none" stroke="rgb(0, 0, 0)" stroke-opacity="1.0" stroke-linecap="round" stroke-linejoin="round"/>
    <path d="M 151.1110382080078 65.23926544189453 C 147.37208557128906 77.5831527709961 157.1679229736328 62.35274124145508 150.30357360839844 63.19210433959961" stroke-width="3.0" fill="none" stroke="rgb(0, 0, 0)" stroke-opacity="1.0" stroke-linecap="round" stroke-linejoin="round"/>
    <path d="M 127.64606475830078 120.69925689697266 C 149.6793212890625 155.14610290527344 136.66700744628906 105.07537841796875 118.59687805175781 143.91275024414062" stroke-width="3.0" fill="none" stroke="rgb(0, 0, 0)" stroke-opacity="1.0" stroke-linecap="round" stroke-linejoin="round"/>
    <path d="M 137.3827362060547 69.54706573486328 C 164.80081176757812 67.9450454711914 135.63536071777344 48.188758850097656 150.4921417236328 67.2364501953125" stroke-width="3.0" fill="none" stroke="rgb(0, 0, 0)" stroke-opacity="1.0" stroke-linecap="round" stroke-linejoin="round"/>
    <path d="M 140.82286071777344 51.86346435546875 C 120.59740447998047 52.21931457519531 153.13343811035156 60.461700439453125 145.68661499023438 55.69414138793945" stroke-width="3.0" fill="none" stroke="rgb(0, 0, 0)" stroke-opacity="1.0" stroke-linecap="round" stroke-linejoin="round"/>
  </g>
</svg>
