<?xml version="1.0" ?>
<svg xmlns="http://www.w3.org/2000/svg" version="1.1" width="224" height="224">
  <defs/>
  <g>
    <path d="M 182.24632263183594 97.74296569824219 C 173.63006591796875 79.88021087646484 32.9181022644043 93.38883972167969 118.26421356201172 73.2855224609375" stroke-width="3.0" fill="none" stroke="rgb(0, 0, 0)" stroke-opacity="1.0" stroke-linecap="round" stroke-linejoin="round"/>
    <path d="M 186.2685089111328 98.5794906616211 C 182.88816833496094 101.70903015136719 206.68441772460938 89.9493637084961 131.7734832763672 119.30045318603516" stroke-width="3.0" fill="none" stroke="rgb(0, 0, 0)" stroke-opacity="1.0" stroke-linecap="round" stroke-linejoin="round"/>
    <path d="M 60.31007385253906 40.58864212036133 C 9.054797172546387 24.728580474853516 74.48228454589844 137.63455200195312 87.43595886230469 58.73240661621094" stroke-width="3.0" fill="none" stroke="rgb(0, 0, 0)" stroke-opacity="1.0" stroke-linecap="round" stroke-linejoin="round"/>
    <path d="M 96.78128051757812 62.88066101074219 C 159.2272186279297 57.50589370727539 208.40272521972656 105.90310668945312 107.57669067382812 75.69905853271484" stroke-width="3.0" fill="none" stroke="rgb(0, 0, 0)" stroke-opacity="1.0" stroke-linecap="round" stroke-linejoin="round"/>
    <path d="M 128.21324157714844 71.89566802978516 C 203.63082885742188 104.15983581542969 172.81137084960938 76.33074951171875 172.60568237304688 84.62757873535156" stroke-width="3.0" fill="none" stroke="rgb(0, 0, 0)" stroke-opacity="1.0" stroke-linecap="round" stroke-linejoin="round"/>
    <path d="M 99.86668395996094 54.54826736450195 C 115.880615234375 67.9336166381836 47.30290222167969 140.55462646484375 78.37726593017578 101.966552734375" stroke-width="3.0" fill="none" stroke="rgb(0, 0, 0)" stroke-opacity="1.0" stroke-linecap="round" stroke-linejoin="round"/>
    <path d="M 156.0334014892578 80.21674346923828 C 5.16100549697876 56.502620697021484 154.22093200683594 27.533681869506836 189.7220001220703 95.70597076416016" stroke-width="3.0" fill="none" stroke="rgb(0, 0, 0)" stroke-opacity="1.0" stroke-linecap="round" stroke-linejoin="round"/>
    <path d="M 91.51496124267578 67.9070816040039 C 110.02620697021484 113.7520523071289 112.73218536376953 61.89533615112305 121.25899505615234 145.12965393066406" stroke-width="3.0" fill="none" stroke="rgb(0, 0, 0)" stroke-opacity="1.0" stroke-linecap="round" stroke-linejoin="round"/>
    <path d="M 124.49694061279297 93.690185546875 C 117.19588470458984 204.455078125 131.7174072265625 95.22077941894531 105.8991470336914 207.21490478515625" stroke-width="3.0" fill="none" stroke="rgb(0, 0, 0)" stroke-opacity="1.0" stroke-linecap="round" stroke-linejoin="round"/>
    <path d="M 154.65463256835938 62.994651794433594 C 140.1906280517578 47.2501335144043 101.4061279296875 21.766071319580078 82.82085418701172 82.64927673339844" stroke-width="3.0" fill="none" stroke="rgb(0, 0, 0)" stroke-opacity="1.0" stroke-linecap="round" stroke-linejoin="round"/>
    <path d="M 93.11519622802734 70.13327026367188 C 129.6023712158203 20.940671920776367 134.7005615234375 53.91283416748047 167.20101928710938 86.12198638916016" stroke-width="3.0" fill="none" stroke="rgb(0, 0, 0)" stroke-opacity="1.0" stroke-linecap="round" stroke-linejoin="round"/>
    <path d="M 155.34226989746094 65.92562103271484 C 160.29075622558594 83.84435272216797 237.90782165527344 123.98194885253906 140.70187377929688 61.209716796875" stroke-width="3.0" fill="none" stroke="rgb(0, 0, 0)" stroke-opacity="1.0" stroke-linecap="round" stroke-linejoin="round"/>
    <path d="M 159.3134765625 70.27993774414062 C 195.2001953125 99.33111572265625 169.56813049316406 86.1971664428711 116.64856719970703 56.551883697509766" stroke-width="3.0" fill="none" stroke="rgb(0, 0, 0)" stroke-opacity="1.0" stroke-linecap="round" stroke-linejoin="round"/>
    <path d="M 123.61045837402344 122.14954376220703 C 141.82061767578125 149.84701538085938 134.0760498046875 100.55119323730469 116.83824157714844 151.9493865966797" stroke-width="3.0" fill="none" stroke="rgb(0, 0, 0)" stroke-opacity="1.0" stroke-linecap="round" stroke-linejoin="round"/>
    <path d="M 96.69941711425781 83.5306167602539 C 187.05259704589844 108.514892578125 155.87210083007812 54.79231643676758 144.07806396484375 81.65216827392578" stroke-width="3.0" fill="none" stroke="rgb(0, 0, 0)" stroke-opacity="1.0" stroke-linecap="round" stroke-linejoin="round"/>
    <path d="M 143.05453491210938 84.03080749511719 C 41.50975799560547 43.29730987548828 163.3019256591797 66.58766174316406 119.96119689941406 47.818824768066406" stroke-width="3.0" fill="none" stroke="rgb(0, 0, 0)" stroke-opacity="1.0" stroke-linecap="round" stroke-linejoin="round"/>
  </g>
</svg>
