<?xml version="1.0" ?>
<svg xmlns="http://www.w3.org/2000/svg" version="1.1" width="224" height="224">
  <defs/>
  <g>
    <path d="M 130.26412963867188 76.70340728759766 C 140.71316528320312 79.06098175048828 120.42597961425781 94.89784240722656 121.13920593261719 77.62895202636719" stroke-width="3.0" fill="none" stroke="rgb(0, 0, 0)" stroke-opacity="1.0" stroke-linecap="round" stroke-linejoin="round"/>
    <path d="M 183.9211883544922 96.56615447998047 C 180.40977478027344 84.49628448486328 189.6076202392578 83.15190124511719 178.8419189453125 103.38555908203125" stroke-width="3.0" fill="none" stroke="rgb(0, 0, 0)" stroke-opacity="1.0" stroke-linecap="round" stroke-linejoin="round"/>
    <path d="M 72.55199432373047 50.1624755859375 C 39.59929275512695 88.16436004638672 66.44805145263672 114.05369567871094 97.68108367919922 94.65772247314453" stroke-width="3.0" fill="none" stroke="rgb(0, 0, 0)" stroke-opacity="1.0" stroke-linecap="round" stroke-linejoin="round"/>
    <path d="M 107.06019592285156 91.77339935302734 C 106.38888549804688 91.99071502685547 140.098388671875 81.61437225341797 112.6143569946289 96.73722076416016" stroke-width="3.0" fill="none" stroke="rgb(0, 0, 0)" stroke-opacity="1.0" stroke-linecap="round" stroke-linejoin="round"/>
    <path d="M 185.0876922607422 91.48639678955078 C 193.37820434570312 75.68217468261719 196.4840087890625 66.88359832763672 191.79335021972656 78.10710144042969" stroke-width="3.0" fill="none" stroke="rgb(0, 0, 0)" stroke-opacity="1.0" stroke-linecap="round" stroke-linejoin="round"/>
    <path d="M 127.77056121826172 68.90562438964844 C 134.1638946533203 93.860107421875 115.03343200683594 101.00656127929688 128.6429443359375 79.84443664550781" stroke-width="3.0" fill="none" stroke="rgb(0, 0, 0)" stroke-opacity="1.0" stroke-linecap="round" stroke-linejoin="round"/>
    <path d="M 140.36300659179688 60.53667068481445 C 161.0609893798828 67.9731674194336 139.04345703125 53.0487174987793 154.26031494140625 67.78411102294922" stroke-width="3.0" fill="none" stroke="rgb(0, 0, 0)" stroke-opacity="1.0" stroke-linecap="round" stroke-linejoin="round"/>
    <path d="M 91.77128601074219 99.80692291259766 C 121.44168090820312 90.8410415649414 112.44535827636719 106.63700103759766 124.96796417236328 126.55590057373047" stroke-width="3.0" fill="none" stroke="rgb(0, 0, 0)" stroke-opacity="1.0" stroke-linecap="round" stroke-linejoin="round"/>
    <path d="M 125.42107391357422 132.41920471191406 C 113.7001953125 154.149169921875 124.05591583251953 142.82591247558594 103.20800018310547 204.2606658935547" stroke-width="3.0" fill="none" stroke="rgb(0, 0, 0)" stroke-opacity="1.0" stroke-linecap="round" stroke-linejoin="round"/>
    <path d="M 123.9964828491211 55.29312515258789 C 134.8033905029297 65.27625274658203 114.99004364013672 60.082435607910156 112.03540802001953 83.05894470214844" stroke-width="3.0" fill="none" stroke="rgb(0, 0, 0)" stroke-opacity="1.0" stroke-linecap="round" stroke-linejoin="round"/>
    <path d="M 143.3538818359375 83.14424896240234 C 151.6885223388672 81.40473937988281 128.72735595703125 84.3575668334961 155.9170379638672 73.6251220703125" stroke-width="3.0" fill="none" stroke="rgb(0, 0, 0)" stroke-opacity="1.0" stroke-linecap="round" stroke-linejoin="round"/>
    <path d="M 144.54513549804688 67.24016571044922 C 129.193359375 92.309814453125 136.7767791748047 110.01140594482422 142.01458740234375 75.65863037109375" stroke-width="3.0" fill="none" stroke="rgb(0, 0, 0)" stroke-opacity="1.0" stroke-linecap="round" stroke-linejoin="round"/>
    <path d="M 139.5206298828125 56.576900482177734 C 143.3614501953125 102.34640502929688 138.62655639648438 67.00886535644531 133.2909698486328 66.74878692626953" stroke-width="3.0" fill="none" stroke="rgb(0, 0, 0)" stroke-opacity="1.0" stroke-linecap="round" stroke-linejoin="round"/>
    <path d="M 124.03837585449219 126.72726440429688 C 138.41062927246094 145.1431121826172 124.50886535644531 98.98411560058594 120.63267517089844 137.3511962890625" stroke-width="3.0" fill="none" stroke="rgb(0, 0, 0)" stroke-opacity="1.0" stroke-linecap="round" stroke-linejoin="round"/>
    <path d="M 138.02708435058594 51.78499984741211 C 133.9385986328125 62.220794677734375 141.45431518554688 45.425865173339844 146.19334411621094 58.4576416015625" stroke-width="3.0" fill="none" stroke="rgb(0, 0, 0)" stroke-opacity="1.0" stroke-linecap="round" stroke-linejoin="round"/>
    <path d="M 124.21883392333984 48.106231689453125 C 128.59268188476562 59.617618560791016 126.78331756591797 37.15385437011719 138.10226440429688 69.64839935302734" stroke-width="3.0" fill="none" stroke="rgb(0, 0, 0)" stroke-opacity="1.0" stroke-linecap="round" stroke-linejoin="round"/>
  </g>
</svg>
