<?xml version="1.0" ?>
<svg xmlns="http://www.w3.org/2000/svg" version="1.1" width="224" height="224">
  <defs/>
  <g>
    <path d="M 157.53443908691406 81.92868041992188 C 139.1495819091797 83.10798645019531 104.9638900756836 95.59305572509766 143.63885498046875 79.46671295166016" stroke-width="3.0" fill="none" stroke="rgb(0, 0, 0)" stroke-opacity="1.0" stroke-linecap="round" stroke-linejoin="round"/>
    <path d="M 181.2744598388672 89.95219421386719 C 163.21591186523438 87.32000732421875 183.98899841308594 86.03047943115234 164.26666259765625 108.25281524658203" stroke-width="3.0" fill="none" stroke="rgb(0, 0, 0)" stroke-opacity="1.0" stroke-linecap="round" stroke-linejoin="round"/>
    <path d="M 62.78547286987305 41.718894958496094 C 19.128116607666016 83.48454284667969 90.71434020996094 125.37996673583984 84.75334167480469 71.83236694335938" stroke-width="3.0" fill="none" stroke="rgb(0, 0, 0)" stroke-opacity="1.0" stroke-linecap="round" stroke-linejoin="round"/>
    <path d="M 124.35885620117188 85.41981506347656 C 113.81718444824219 83.13309478759766 161.1668243408203 88.36397552490234 88.90061950683594 94.08427429199219" stroke-width="3.0" fill="none" stroke="rgb(0, 0, 0)" stroke-opacity="1.0" stroke-linecap="round" stroke-linejoin="round"/>
    <path d="M 172.40542602539062 84.08641052246094 C 206.32684326171875 97.17459869384766 173.1217498779297 101.7039794921875 173.64801025390625 93.22875213623047" stroke-width="3.0" fill="none" stroke="rgb(0, 0, 0)" stroke-opacity="1.0" stroke-linecap="round" stroke-linejoin="round"/>
    <path d="M 151.23886108398438 63.29199981689453 C 124.12457275390625 90.59587097167969 59.1425895690918 106.24391174316406 108.52275085449219 72.76091003417969" stroke-width="3.0" fill="none" stroke="rgb(0, 0, 0)" stroke-opacity="1.0" stroke-linecap="round" stroke-linejoin="round"/>
    <path d="M 140.0386505126953 61.18212890625 C 163.92030334472656 81.74192810058594 132.45449829101562 39.18144607543945 191.14637756347656 92.78933715820312" stroke-width="3.0" fill="none" stroke="rgb(0, 0, 0)" stroke-opacity="1.0" stroke-linecap="round" stroke-linejoin="round"/>
    <path d="M 66.88080596923828 97.60017395019531 C 122.27368927001953 93.05607604980469 106.47566986083984 86.23380279541016 121.57366943359375 137.43597412109375" stroke-width="3.0" fill="none" stroke="rgb(0, 0, 0)" stroke-opacity="1.0" stroke-linecap="round" stroke-linejoin="round"/>
    <path d="M 135.0257110595703 121.13439178466797 C 116.78987121582031 173.0078887939453 129.90914916992188 109.4687728881836 104.14402770996094 203.64007568359375" stroke-width="3.0" fill="none" stroke="rgb(0, 0, 0)" stroke-opacity="1.0" stroke-linecap="round" stroke-linejoin="round"/>
    <path d="M 137.13247680664062 52.69795608520508 C 145.28829956054688 52.24726104736328 92.99887084960938 32.10591506958008 73.16171264648438 84.41777038574219" stroke-width="3.0" fill="none" stroke="rgb(0, 0, 0)" stroke-opacity="1.0" stroke-linecap="round" stroke-linejoin="round"/>
    <path d="M 124.55669403076172 82.32781982421875 C 150.26089477539062 58.01331329345703 111.64164733886719 75.54670715332031 169.2890625 84.07038116455078" stroke-width="3.0" fill="none" stroke="rgb(0, 0, 0)" stroke-opacity="1.0" stroke-linecap="round" stroke-linejoin="round"/>
    <path d="M 170.06080627441406 77.31321716308594 C 152.56996154785156 68.36759185791016 162.38868713378906 80.77018737792969 150.76194763183594 75.71479034423828" stroke-width="3.0" fill="none" stroke="rgb(0, 0, 0)" stroke-opacity="1.0" stroke-linecap="round" stroke-linejoin="round"/>
    <path d="M 139.01058959960938 57.13196563720703 C 125.87870025634766 62.06094741821289 139.79844665527344 53.658145904541016 144.3597869873047 58.5313835144043" stroke-width="3.0" fill="none" stroke="rgb(0, 0, 0)" stroke-opacity="1.0" stroke-linecap="round" stroke-linejoin="round"/>
    <path d="M 122.18402862548828 142.47897338867188 C 131.3867645263672 152.32769775390625 129.19253540039062 111.27623748779297 115.40253448486328 141.97412109375" stroke-width="3.0" fill="none" stroke="rgb(0, 0, 0)" stroke-opacity="1.0" stroke-linecap="round" stroke-linejoin="round"/>
    <path d="M 144.67221069335938 62.39978790283203 C 160.06993103027344 67.52468872070312 128.96417236328125 51.388790130615234 145.5997772216797 67.5715560913086" stroke-width="3.0" fill="none" stroke="rgb(0, 0, 0)" stroke-opacity="1.0" stroke-linecap="round" stroke-linejoin="round"/>
    <path d="M 136.2778778076172 53.73728561401367 C 126.4449234008789 55.181148529052734 151.37606811523438 48.375545501708984 142.46693420410156 65.98515319824219" stroke-width="3.0" fill="none" stroke="rgb(0, 0, 0)" stroke-opacity="1.0" stroke-linecap="round" stroke-linejoin="round"/>
  </g>
</svg>
