<?xml version="1.0" ?>
<svg xmlns="http://www.w3.org/2000/svg" version="1.1" width="224" height="224">
  <defs/>
  <g>
    <path d="M 186.47222900390625 96.11900329589844 C 152.19894409179688 78.924072265625 57.41244888305664 91.55121612548828 133.8252410888672 73.68280792236328" stroke-width="3.0" fill="none" stroke="rgb(0, 0, 0)" stroke-opacity="1.0" stroke-linecap="round" stroke-linejoin="round"/>
    <path d="M 187.95361328125 97.69589233398438 C 171.20040893554688 98.01810455322266 197.36349487304688 88.40662384033203 132.87594604492188 122.98605346679688" stroke-width="3.0" fill="none" stroke="rgb(0, 0, 0)" stroke-opacity="1.0" stroke-linecap="round" stroke-linejoin="round"/>
    <path d="M 58.88100051879883 40.7879753112793 C 9.175715446472168 36.828739166259766 68.5290756225586 130.82521057128906 70.93578338623047 65.08097076416016" stroke-width="3.0" fill="none" stroke="rgb(0, 0, 0)" stroke-opacity="1.0" stroke-linecap="round" stroke-linejoin="round"/>
    <path d="M 100.73542022705078 64.74311828613281 C 151.830322265625 65.07579803466797 202.93362426757812 84.0458755493164 98.25570678710938 80.86444854736328" stroke-width="3.0" fill="none" stroke="rgb(0, 0, 0)" stroke-opacity="1.0" stroke-linecap="round" stroke-linejoin="round"/>
    <path d="M 149.11190795898438 80.289794921875 C 207.99603271484375 104.85969543457031 168.02565002441406 101.54664611816406 187.58901977539062 93.27249908447266" stroke-width="3.0" fill="none" stroke="rgb(0, 0, 0)" stroke-opacity="1.0" stroke-linecap="round" stroke-linejoin="round"/>
    <path d="M 137.2303924560547 52.11185836791992 C 101.54609680175781 59.24800109863281 31.25687599182129 126.0965347290039 69.30582427978516 74.7480697631836" stroke-width="3.0" fill="none" stroke="rgb(0, 0, 0)" stroke-opacity="1.0" stroke-linecap="round" stroke-linejoin="round"/>
    <path d="M 155.1351318359375 76.92142486572266 C 62.93610382080078 53.705223083496094 154.11239624023438 41.08045196533203 188.46168518066406 95.89530944824219" stroke-width="3.0" fill="none" stroke="rgb(0, 0, 0)" stroke-opacity="1.0" stroke-linecap="round" stroke-linejoin="round"/>
    <path d="M 82.40190124511719 72.9334945678711 C 121.91107940673828 95.18408203125 111.93602752685547 87.15886688232422 117.6556396484375 146.41136169433594" stroke-width="3.0" fill="none" stroke="rgb(0, 0, 0)" stroke-opacity="1.0" stroke-linecap="round" stroke-linejoin="round"/>
    <path d="M 130.42245483398438 87.69784545898438 C 109.66634368896484 209.0167236328125 123.7401123046875 99.6174545288086 106.65406036376953 204.74493408203125" stroke-width="3.0" fill="none" stroke="rgb(0, 0, 0)" stroke-opacity="1.0" stroke-linecap="round" stroke-linejoin="round"/>
    <path d="M 132.1821746826172 50.123077392578125 C 139.1517791748047 50.82566833496094 79.19921112060547 25.69034767150879 75.73767852783203 81.3375473022461" stroke-width="3.0" fill="none" stroke="rgb(0, 0, 0)" stroke-opacity="1.0" stroke-linecap="round" stroke-linejoin="round"/>
    <path d="M 101.68360137939453 51.63942337036133 C 146.36131286621094 38.90144348144531 138.79222106933594 58.71725845336914 170.81295776367188 85.56806182861328" stroke-width="3.0" fill="none" stroke="rgb(0, 0, 0)" stroke-opacity="1.0" stroke-linecap="round" stroke-linejoin="round"/>
    <path d="M 155.90577697753906 77.85586547851562 C 145.85731506347656 67.72396850585938 220.48123168945312 106.26229095458984 148.2266387939453 65.21942138671875" stroke-width="3.0" fill="none" stroke="rgb(0, 0, 0)" stroke-opacity="1.0" stroke-linecap="round" stroke-linejoin="round"/>
    <path d="M 155.10110473632812 75.2908935546875 C 167.84353637695312 93.93215942382812 160.8249053955078 76.28411102294922 145.62124633789062 60.3838005065918" stroke-width="3.0" fill="none" stroke="rgb(0, 0, 0)" stroke-opacity="1.0" stroke-linecap="round" stroke-linejoin="round"/>
    <path d="M 121.81494903564453 127.79035186767578 C 140.4507293701172 173.11590576171875 138.81927490234375 118.60591888427734 114.89450073242188 148.65765380859375" stroke-width="3.0" fill="none" stroke="rgb(0, 0, 0)" stroke-opacity="1.0" stroke-linecap="round" stroke-linejoin="round"/>
    <path d="M 142.99908447265625 66.2681884765625 C 188.28594970703125 90.4594955444336 143.4431915283203 59.53754806518555 153.4825439453125 65.34810638427734" stroke-width="3.0" fill="none" stroke="rgb(0, 0, 0)" stroke-opacity="1.0" stroke-linecap="round" stroke-linejoin="round"/>
    <path d="M 140.9899444580078 64.38556671142578 C 114.272216796875 45.63241958618164 150.3197021484375 67.79164123535156 132.50469970703125 57.40459442138672" stroke-width="3.0" fill="none" stroke="rgb(0, 0, 0)" stroke-opacity="1.0" stroke-linecap="round" stroke-linejoin="round"/>
  </g>
</svg>
