<?xml version="1.0" ?>
<svg xmlns="http://www.w3.org/2000/svg" version="1.1" width="224" height="224">
  <defs/>
  <g>
    <path d="M 155.27345275878906 76.47000122070312 C 141.08775329589844 92.2561264038086 113.75004577636719 96.2262191772461 136.62710571289062 89.80094909667969" stroke-width="3.0" fill="none" stroke="rgb(0, 0, 0)" stroke-opacity="1.0" stroke-linecap="round" stroke-linejoin="round"/>
    <path d="M 177.97750854492188 98.71394348144531 C 186.47811889648438 89.32611083984375 192.8896484375 97.47590637207031 156.5373992919922 107.74110412597656" stroke-width="3.0" fill="none" stroke="rgb(0, 0, 0)" stroke-opacity="1.0" stroke-linecap="round" stroke-linejoin="round"/>
    <path d="M 66.86151123046875 48.76883316040039 C 43.350616455078125 93.7646713256836 70.52325439453125 121.25849151611328 104.38703155517578 84.8451156616211" stroke-width="3.0" fill="none" stroke="rgb(0, 0, 0)" stroke-opacity="1.0" stroke-linecap="round" stroke-linejoin="round"/>
    <path d="M 118.90415954589844 95.81291198730469 C 110.03561401367188 92.74300384521484 156.20912170410156 100.04279327392578 96.72208404541016 100.65027618408203" stroke-width="3.0" fill="none" stroke="rgb(0, 0, 0)" stroke-opacity="1.0" stroke-linecap="round" stroke-linejoin="round"/>
    <path d="M 179.4706268310547 99.98710632324219 C 197.0387420654297 98.33505249023438 190.4607391357422 104.25506591796875 192.22250366210938 101.81639099121094" stroke-width="3.0" fill="none" stroke="rgb(0, 0, 0)" stroke-opacity="1.0" stroke-linecap="round" stroke-linejoin="round"/>
    <path d="M 137.11752319335938 55.2104377746582 C 133.1287841796875 103.4411849975586 87.55674743652344 125.39554595947266 121.41546630859375 66.72187805175781" stroke-width="3.0" fill="none" stroke="rgb(0, 0, 0)" stroke-opacity="1.0" stroke-linecap="round" stroke-linejoin="round"/>
    <path d="M 139.67222595214844 59.6508674621582 C 169.24501037597656 78.40815734863281 140.60543823242188 53.578369140625 160.30615234375 66.6233901977539" stroke-width="3.0" fill="none" stroke="rgb(0, 0, 0)" stroke-opacity="1.0" stroke-linecap="round" stroke-linejoin="round"/>
    <path d="M 81.3751220703125 102.97514343261719 C 124.37015533447266 90.04822540283203 108.50757598876953 93.10311126708984 123.5546875 131.26290893554688" stroke-width="3.0" fill="none" stroke="rgb(0, 0, 0)" stroke-opacity="1.0" stroke-linecap="round" stroke-linejoin="round"/>
    <path d="M 134.51412963867188 133.7821044921875 C 113.96099853515625 169.994873046875 134.59524536132812 130.67498779296875 103.16764831542969 203.6958465576172" stroke-width="3.0" fill="none" stroke="rgb(0, 0, 0)" stroke-opacity="1.0" stroke-linecap="round" stroke-linejoin="round"/>
    <path d="M 123.87225341796875 56.61074447631836 C 142.22940063476562 53.72429656982422 106.51141357421875 43.22031784057617 90.08780670166016 96.95574951171875" stroke-width="3.0" fill="none" stroke="rgb(0, 0, 0)" stroke-opacity="1.0" stroke-linecap="round" stroke-linejoin="round"/>
    <path d="M 137.58241271972656 92.9258804321289 C 165.02589416503906 78.28034210205078 133.103271484375 65.96891784667969 154.9486541748047 64.93643188476562" stroke-width="3.0" fill="none" stroke="rgb(0, 0, 0)" stroke-opacity="1.0" stroke-linecap="round" stroke-linejoin="round"/>
    <path d="M 155.92922973632812 66.9950180053711 C 141.5826873779297 83.50324249267578 148.74789428710938 100.94905090332031 151.0682830810547 60.904266357421875" stroke-width="3.0" fill="none" stroke="rgb(0, 0, 0)" stroke-opacity="1.0" stroke-linecap="round" stroke-linejoin="round"/>
    <path d="M 130.89138793945312 63.922542572021484 C 118.40100860595703 80.05534362792969 134.15574645996094 55.63471603393555 146.1872100830078 56.907203674316406" stroke-width="3.0" fill="none" stroke="rgb(0, 0, 0)" stroke-opacity="1.0" stroke-linecap="round" stroke-linejoin="round"/>
    <path d="M 120.1971664428711 139.29779052734375 C 130.33631896972656 151.1741485595703 127.66429901123047 108.18434143066406 114.66040802001953 131.43360900878906" stroke-width="3.0" fill="none" stroke="rgb(0, 0, 0)" stroke-opacity="1.0" stroke-linecap="round" stroke-linejoin="round"/>
    <path d="M 135.18052673339844 60.46709442138672 C 141.71701049804688 61.005470275878906 134.38565063476562 46.745384216308594 145.10430908203125 64.2172622680664" stroke-width="3.0" fill="none" stroke="rgb(0, 0, 0)" stroke-opacity="1.0" stroke-linecap="round" stroke-linejoin="round"/>
    <path d="M 127.08447265625 55.756778717041016 C 121.1806869506836 55.20796585083008 153.5343017578125 39.07971954345703 147.25146484375 65.88788604736328" stroke-width="3.0" fill="none" stroke="rgb(0, 0, 0)" stroke-opacity="1.0" stroke-linecap="round" stroke-linejoin="round"/>
  </g>
</svg>
