<?xml version="1.0" ?>
<svg xmlns="http://www.w3.org/2000/svg" version="1.1" width="224" height="224">
  <defs/>
  <g>
    <path d="M 179.26539611816406 94.04685974121094 C 162.27232360839844 86.42015838623047 47.11233139038086 104.31371307373047 135.19937133789062 83.4316177368164" stroke-width="3.0" fill="none" stroke="rgb(0, 0, 0)" stroke-opacity="1.0" stroke-linecap="round" stroke-linejoin="round"/>
    <path d="M 179.74356079101562 97.2125015258789 C 174.30245971679688 95.98392486572266 204.27699279785156 88.98920440673828 134.41769409179688 120.88768768310547" stroke-width="3.0" fill="none" stroke="rgb(0, 0, 0)" stroke-opacity="1.0" stroke-linecap="round" stroke-linejoin="round"/>
    <path d="M 57.472206115722656 41.66218185424805 C 12.412177085876465 21.43359375 68.13450622558594 124.80056762695312 81.35420227050781 66.83489227294922" stroke-width="3.0" fill="none" stroke="rgb(0, 0, 0)" stroke-opacity="1.0" stroke-linecap="round" stroke-linejoin="round"/>
    <path d="M 96.26885223388672 65.62635040283203 C 149.62123107910156 65.7974853515625 202.997802734375 95.45101165771484 98.89927673339844 82.80593872070312" stroke-width="3.0" fill="none" stroke="rgb(0, 0, 0)" stroke-opacity="1.0" stroke-linecap="round" stroke-linejoin="round"/>
    <path d="M 134.94140625 73.04391479492188 C 204.04788208007812 102.4005126953125 167.77978515625 100.78882598876953 180.89035034179688 94.86121368408203" stroke-width="3.0" fill="none" stroke="rgb(0, 0, 0)" stroke-opacity="1.0" stroke-linecap="round" stroke-linejoin="round"/>
    <path d="M 103.35588073730469 51.63882827758789 C 105.01842498779297 56.63180923461914 38.03424835205078 145.1963653564453 71.30142974853516 92.02933502197266" stroke-width="3.0" fill="none" stroke="rgb(0, 0, 0)" stroke-opacity="1.0" stroke-linecap="round" stroke-linejoin="round"/>
    <path d="M 144.05593872070312 81.8746566772461 C 7.408615589141846 71.15038299560547 154.2875518798828 27.95858383178711 191.3017120361328 95.30503845214844" stroke-width="3.0" fill="none" stroke="rgb(0, 0, 0)" stroke-opacity="1.0" stroke-linecap="round" stroke-linejoin="round"/>
    <path d="M 90.5210189819336 81.43666076660156 C 116.42855072021484 112.56420135498047 115.472412109375 70.30703735351562 120.12486267089844 145.59970092773438" stroke-width="3.0" fill="none" stroke="rgb(0, 0, 0)" stroke-opacity="1.0" stroke-linecap="round" stroke-linejoin="round"/>
    <path d="M 128.9736328125 95.11263275146484 C 113.02659606933594 203.6333465576172 128.71742248535156 92.55028533935547 107.89301300048828 206.89332580566406" stroke-width="3.0" fill="none" stroke="rgb(0, 0, 0)" stroke-opacity="1.0" stroke-linecap="round" stroke-linejoin="round"/>
    <path d="M 151.61172485351562 59.88172912597656 C 138.136474609375 48.835872650146484 92.25458526611328 22.66579246520996 84.018798828125 84.64165496826172" stroke-width="3.0" fill="none" stroke="rgb(0, 0, 0)" stroke-opacity="1.0" stroke-linecap="round" stroke-linejoin="round"/>
    <path d="M 94.5055923461914 59.45041275024414 C 138.2681427001953 33.255218505859375 140.29122924804688 55.488304138183594 171.66957092285156 81.50782012939453" stroke-width="3.0" fill="none" stroke="rgb(0, 0, 0)" stroke-opacity="1.0" stroke-linecap="round" stroke-linejoin="round"/>
    <path d="M 157.5485076904297 77.90117645263672 C 156.71885681152344 84.5235595703125 245.41238403320312 126.4704360961914 138.4227294921875 60.36368179321289" stroke-width="3.0" fill="none" stroke="rgb(0, 0, 0)" stroke-opacity="1.0" stroke-linecap="round" stroke-linejoin="round"/>
    <path d="M 141.47555541992188 79.40232849121094 C 184.51722717285156 100.45205688476562 176.66925048828125 73.66205596923828 131.82669067382812 73.48282623291016" stroke-width="3.0" fill="none" stroke="rgb(0, 0, 0)" stroke-opacity="1.0" stroke-linecap="round" stroke-linejoin="round"/>
    <path d="M 126.45411682128906 120.65013122558594 C 150.33815002441406 150.7864532470703 138.94955444335938 104.49177551269531 115.89996337890625 146.40003967285156" stroke-width="3.0" fill="none" stroke="rgb(0, 0, 0)" stroke-opacity="1.0" stroke-linecap="round" stroke-linejoin="round"/>
    <path d="M 125.61581420898438 75.31114959716797 C 179.59994506835938 100.50535583496094 150.1905517578125 47.13825988769531 148.30516052246094 58.933876037597656" stroke-width="3.0" fill="none" stroke="rgb(0, 0, 0)" stroke-opacity="1.0" stroke-linecap="round" stroke-linejoin="round"/>
    <path d="M 141.82150268554688 69.89093780517578 C 95.54247283935547 46.253719329833984 172.37620544433594 66.29361724853516 129.60952758789062 51.041046142578125" stroke-width="3.0" fill="none" stroke="rgb(0, 0, 0)" stroke-opacity="1.0" stroke-linecap="round" stroke-linejoin="round"/>
  </g>
</svg>
