<?xml version="1.0" ?>
<svg xmlns="http://www.w3.org/2000/svg" version="1.1" width="224" height="224">
  <defs/>
  <g>
    <path d="M 176.70855712890625 92.76625061035156 C 164.98324584960938 82.5482406616211 47.16635513305664 104.72063446044922 133.84390258789062 86.92219543457031" stroke-width="3.0" fill="none" stroke="rgb(0, 0, 0)" stroke-opacity="1.0" stroke-linecap="round" stroke-linejoin="round"/>
    <path d="M 187.4001922607422 100.68289947509766 C 173.57803344726562 94.75515747070312 203.59072875976562 89.07292175292969 134.7522430419922 119.7624740600586" stroke-width="3.0" fill="none" stroke="rgb(0, 0, 0)" stroke-opacity="1.0" stroke-linecap="round" stroke-linejoin="round"/>
    <path d="M 55.168087005615234 42.598899841308594 C 6.824514865875244 29.125205993652344 65.2382583618164 123.86309814453125 80.535400390625 64.87760925292969" stroke-width="3.0" fill="none" stroke="rgb(0, 0, 0)" stroke-opacity="1.0" stroke-linecap="round" stroke-linejoin="round"/>
    <path d="M 94.51600646972656 65.829833984375 C 153.1918487548828 59.851741790771484 201.44239807128906 95.84564208984375 94.07254791259766 81.40557098388672" stroke-width="3.0" fill="none" stroke="rgb(0, 0, 0)" stroke-opacity="1.0" stroke-linecap="round" stroke-linejoin="round"/>
    <path d="M 138.69996643066406 72.4300537109375 C 205.78379821777344 100.77374267578125 167.95425415039062 105.05516052246094 181.90875244140625 97.02289581298828" stroke-width="3.0" fill="none" stroke="rgb(0, 0, 0)" stroke-opacity="1.0" stroke-linecap="round" stroke-linejoin="round"/>
    <path d="M 103.25689697265625 51.06080627441406 C 99.9324951171875 53.96483612060547 39.485130310058594 145.05169677734375 74.2293701171875 87.45597076416016" stroke-width="3.0" fill="none" stroke="rgb(0, 0, 0)" stroke-opacity="1.0" stroke-linecap="round" stroke-linejoin="round"/>
    <path d="M 144.86624145507812 82.58851623535156 C 11.306367874145508 67.65746307373047 151.05722045898438 27.562875747680664 190.87216186523438 97.97106170654297" stroke-width="3.0" fill="none" stroke="rgb(0, 0, 0)" stroke-opacity="1.0" stroke-linecap="round" stroke-linejoin="round"/>
    <path d="M 86.68782806396484 81.85398864746094 C 116.01958465576172 112.4087905883789 115.26258087158203 71.27847290039062 119.2458724975586 144.28114318847656" stroke-width="3.0" fill="none" stroke="rgb(0, 0, 0)" stroke-opacity="1.0" stroke-linecap="round" stroke-linejoin="round"/>
    <path d="M 128.89389038085938 93.09021759033203 C 112.9344253540039 206.96722412109375 128.86058044433594 97.32177734375 104.64237976074219 205.38687133789062" stroke-width="3.0" fill="none" stroke="rgb(0, 0, 0)" stroke-opacity="1.0" stroke-linecap="round" stroke-linejoin="round"/>
    <path d="M 147.17567443847656 56.877750396728516 C 138.2025146484375 44.770633697509766 85.3792953491211 18.24712371826172 83.66313934326172 85.1259536743164" stroke-width="3.0" fill="none" stroke="rgb(0, 0, 0)" stroke-opacity="1.0" stroke-linecap="round" stroke-linejoin="round"/>
    <path d="M 95.95548248291016 59.43385696411133 C 133.44223022460938 29.293127059936523 142.81265258789062 51.63317108154297 177.8585968017578 81.88475799560547" stroke-width="3.0" fill="none" stroke="rgb(0, 0, 0)" stroke-opacity="1.0" stroke-linecap="round" stroke-linejoin="round"/>
    <path d="M 154.88722229003906 80.07032775878906 C 152.4893341064453 83.19048309326172 240.73062133789062 123.54550170898438 140.03448486328125 58.270362854003906" stroke-width="3.0" fill="none" stroke="rgb(0, 0, 0)" stroke-opacity="1.0" stroke-linecap="round" stroke-linejoin="round"/>
    <path d="M 145.04498291015625 80.0644302368164 C 175.8882598876953 105.30690002441406 173.14730834960938 70.17073822021484 136.67108154296875 67.45882415771484" stroke-width="3.0" fill="none" stroke="rgb(0, 0, 0)" stroke-opacity="1.0" stroke-linecap="round" stroke-linejoin="round"/>
    <path d="M 124.99796295166016 120.12629699707031 C 151.99159240722656 147.188232421875 139.74871826171875 100.34373474121094 113.51215362548828 150.0301055908203" stroke-width="3.0" fill="none" stroke="rgb(0, 0, 0)" stroke-opacity="1.0" stroke-linecap="round" stroke-linejoin="round"/>
    <path d="M 120.03475952148438 72.2660903930664 C 185.75584411621094 101.15998077392578 156.20640563964844 52.45219802856445 152.70956420898438 66.5561294555664" stroke-width="3.0" fill="none" stroke="rgb(0, 0, 0)" stroke-opacity="1.0" stroke-linecap="round" stroke-linejoin="round"/>
    <path d="M 139.5186309814453 69.03180694580078 C 95.63059997558594 44.417564392089844 170.54830932617188 66.1490707397461 130.8686981201172 51.529571533203125" stroke-width="3.0" fill="none" stroke="rgb(0, 0, 0)" stroke-opacity="1.0" stroke-linecap="round" stroke-linejoin="round"/>
  </g>
</svg>
