<?xml version="1.0" ?>
<svg xmlns="http://www.w3.org/2000/svg" version="1.1" width="224" height="224">
  <defs/>
  <g>
    <path d="M 178.75831604003906 96.40363311767578 C 124.34388732910156 84.33145141601562 43.62458801269531 107.7898941040039 141.04429626464844 69.02915954589844" stroke-width="3.0" fill="none" stroke="rgb(0, 0, 0)" stroke-opacity="1.0" stroke-linecap="round" stroke-linejoin="round"/>
    <path d="M 183.28338623046875 101.1950912475586 C 176.09091186523438 103.84407043457031 196.64968872070312 94.72408294677734 148.8338623046875 112.43738555908203" stroke-width="3.0" fill="none" stroke="rgb(0, 0, 0)" stroke-opacity="1.0" stroke-linecap="round" stroke-linejoin="round"/>
    <path d="M 44.7125244140625 37.15684127807617 C 14.347797393798828 42.06358337402344 71.87329864501953 133.3987579345703 72.29646301269531 66.63761901855469" stroke-width="3.0" fill="none" stroke="rgb(0, 0, 0)" stroke-opacity="1.0" stroke-linecap="round" stroke-linejoin="round"/>
    <path d="M 99.76543426513672 71.12898254394531 C 151.49087524414062 72.48661041259766 200.2193603515625 80.18629455566406 92.53002166748047 89.82878875732422" stroke-width="3.0" fill="none" stroke="rgb(0, 0, 0)" stroke-opacity="1.0" stroke-linecap="round" stroke-linejoin="round"/>
    <path d="M 152.185302734375 76.99359130859375 C 211.6423797607422 115.59345245361328 170.049560546875 97.85581970214844 190.94253540039062 95.94681549072266" stroke-width="3.0" fill="none" stroke="rgb(0, 0, 0)" stroke-opacity="1.0" stroke-linecap="round" stroke-linejoin="round"/>
    <path d="M 144.13623046875 59.45370864868164 C 107.90692901611328 62.93445587158203 52.90287780761719 106.55708312988281 80.41748809814453 57.277164459228516" stroke-width="3.0" fill="none" stroke="rgb(0, 0, 0)" stroke-opacity="1.0" stroke-linecap="round" stroke-linejoin="round"/>
    <path d="M 164.36753845214844 74.18930053710938 C 117.4468994140625 54.03744125366211 161.25958251953125 56.291419982910156 190.20849609375 94.5451431274414" stroke-width="3.0" fill="none" stroke="rgb(0, 0, 0)" stroke-opacity="1.0" stroke-linecap="round" stroke-linejoin="round"/>
    <path d="M 74.06436157226562 85.50707244873047 C 123.74991607666016 95.06143188476562 109.7640380859375 87.22357177734375 121.01912689208984 141.4739227294922" stroke-width="3.0" fill="none" stroke="rgb(0, 0, 0)" stroke-opacity="1.0" stroke-linecap="round" stroke-linejoin="round"/>
    <path d="M 126.71170043945312 92.39276123046875 C 119.89823913574219 194.7095184326172 130.1823272705078 87.01832580566406 106.76063537597656 205.5605010986328" stroke-width="3.0" fill="none" stroke="rgb(0, 0, 0)" stroke-opacity="1.0" stroke-linecap="round" stroke-linejoin="round"/>
    <path d="M 129.4730224609375 47.4980583190918 C 132.7767791748047 47.67036819458008 75.38984680175781 18.08395004272461 62.691490173339844 80.32074737548828" stroke-width="3.0" fill="none" stroke="rgb(0, 0, 0)" stroke-opacity="1.0" stroke-linecap="round" stroke-linejoin="round"/>
    <path d="M 115.14761352539062 54.24100112915039 C 156.4365997314453 44.734535217285156 131.4907989501953 61.57406997680664 175.5995330810547 79.63660430908203" stroke-width="3.0" fill="none" stroke="rgb(0, 0, 0)" stroke-opacity="1.0" stroke-linecap="round" stroke-linejoin="round"/>
    <path d="M 178.30174255371094 88.64151000976562 C 159.9117889404297 74.8068618774414 214.88748168945312 99.55287170410156 147.61341857910156 74.00167846679688" stroke-width="3.0" fill="none" stroke="rgb(0, 0, 0)" stroke-opacity="1.0" stroke-linecap="round" stroke-linejoin="round"/>
    <path d="M 150.21847534179688 63.80667495727539 C 144.76063537597656 76.74669647216797 155.95535278320312 61.88988494873047 146.63845825195312 63.895240783691406" stroke-width="3.0" fill="none" stroke="rgb(0, 0, 0)" stroke-opacity="1.0" stroke-linecap="round" stroke-linejoin="round"/>
    <path d="M 127.2018814086914 117.70256042480469 C 150.10877990722656 149.23460388183594 139.3011474609375 99.11375427246094 116.0272445678711 145.39102172851562" stroke-width="3.0" fill="none" stroke="rgb(0, 0, 0)" stroke-opacity="1.0" stroke-linecap="round" stroke-linejoin="round"/>
    <path d="M 145.53807067871094 70.26947021484375 C 162.434814453125 66.07798767089844 132.4944305419922 49.773643493652344 150.84954833984375 60.958492279052734" stroke-width="3.0" fill="none" stroke="rgb(0, 0, 0)" stroke-opacity="1.0" stroke-linecap="round" stroke-linejoin="round"/>
    <path d="M 145.2142791748047 55.670040130615234 C 121.03289794921875 50.311073303222656 152.9072723388672 58.328060150146484 145.40200805664062 59.26658248901367" stroke-width="3.0" fill="none" stroke="rgb(0, 0, 0)" stroke-opacity="1.0" stroke-linecap="round" stroke-linejoin="round"/>
  </g>
</svg>
