<?xml version="1.0" ?>
<svg xmlns="http://www.w3.org/2000/svg" version="1.1" width="224" height="224">
  <defs/>
  <g>
    <path d="M 167.38021850585938 87.68814086914062 C 139.0018310546875 89.2608642578125 102.26014709472656 86.56803894042969 149.0865936279297 83.92516326904297" stroke-width="3.0" fill="none" stroke="rgb(0, 0, 0)" stroke-opacity="1.0" stroke-linecap="round" stroke-linejoin="round"/>
    <path d="M 179.2215576171875 95.76920318603516 C 167.71920776367188 97.74442291259766 189.8660430908203 86.49678039550781 158.86923217773438 112.10364532470703" stroke-width="3.0" fill="none" stroke="rgb(0, 0, 0)" stroke-opacity="1.0" stroke-linecap="round" stroke-linejoin="round"/>
    <path d="M 44.98862075805664 42.75532531738281 C 17.31222152709961 73.67257690429688 84.41092681884766 127.91722869873047 78.5263900756836 69.159423828125" stroke-width="3.0" fill="none" stroke="rgb(0, 0, 0)" stroke-opacity="1.0" stroke-linecap="round" stroke-linejoin="round"/>
    <path d="M 108.81961822509766 81.68592834472656 C 130.86126708984375 85.87464904785156 178.8391571044922 91.90536499023438 103.36434173583984 88.3241195678711" stroke-width="3.0" fill="none" stroke="rgb(0, 0, 0)" stroke-opacity="1.0" stroke-linecap="round" stroke-linejoin="round"/>
    <path d="M 163.93682861328125 87.45406341552734 C 207.5196990966797 104.30667877197266 170.98074340820312 98.7470703125 184.53660583496094 95.24236297607422" stroke-width="3.0" fill="none" stroke="rgb(0, 0, 0)" stroke-opacity="1.0" stroke-linecap="round" stroke-linejoin="round"/>
    <path d="M 149.14224243164062 68.65824127197266 C 117.66069793701172 76.07061767578125 55.04338836669922 98.01370239257812 91.11457061767578 58.56240463256836" stroke-width="3.0" fill="none" stroke="rgb(0, 0, 0)" stroke-opacity="1.0" stroke-linecap="round" stroke-linejoin="round"/>
    <path d="M 139.88792419433594 60.61971664428711 C 152.3737030029297 76.3843002319336 143.57260131835938 42.720462799072266 188.85287475585938 95.77127075195312" stroke-width="3.0" fill="none" stroke="rgb(0, 0, 0)" stroke-opacity="1.0" stroke-linecap="round" stroke-linejoin="round"/>
    <path d="M 84.4044418334961 82.53935241699219 C 122.68997955322266 98.2799301147461 108.93104553222656 88.01680755615234 123.74222564697266 139.31678771972656" stroke-width="3.0" fill="none" stroke="rgb(0, 0, 0)" stroke-opacity="1.0" stroke-linecap="round" stroke-linejoin="round"/>
    <path d="M 134.76133728027344 116.7803955078125 C 119.83259582519531 173.04360961914062 133.68309020996094 101.12805938720703 104.7027359008789 206.6914825439453" stroke-width="3.0" fill="none" stroke="rgb(0, 0, 0)" stroke-opacity="1.0" stroke-linecap="round" stroke-linejoin="round"/>
    <path d="M 137.7658233642578 53.531639099121094 C 136.1609649658203 56.464820861816406 81.49073791503906 22.064193725585938 66.63694763183594 82.9202651977539" stroke-width="3.0" fill="none" stroke="rgb(0, 0, 0)" stroke-opacity="1.0" stroke-linecap="round" stroke-linejoin="round"/>
    <path d="M 106.53271484375 84.35364532470703 C 146.81829833984375 61.07698440551758 115.7021713256836 73.80626678466797 176.370849609375 89.54993438720703" stroke-width="3.0" fill="none" stroke="rgb(0, 0, 0)" stroke-opacity="1.0" stroke-linecap="round" stroke-linejoin="round"/>
    <path d="M 180.54861450195312 86.59090423583984 C 146.2960205078125 68.8272705078125 173.6869659423828 76.15745544433594 149.624267578125 74.0284194946289" stroke-width="3.0" fill="none" stroke="rgb(0, 0, 0)" stroke-opacity="1.0" stroke-linecap="round" stroke-linejoin="round"/>
    <path d="M 144.3560791015625 60.42892074584961 C 143.19232177734375 72.37220001220703 150.5896453857422 57.16768264770508 147.8582763671875 61.5614013671875" stroke-width="3.0" fill="none" stroke="rgb(0, 0, 0)" stroke-opacity="1.0" stroke-linecap="round" stroke-linejoin="round"/>
    <path d="M 126.60516357421875 135.84613037109375 C 130.89419555664062 145.00209045410156 125.79991912841797 115.20965576171875 117.63849639892578 146.10726928710938" stroke-width="3.0" fill="none" stroke="rgb(0, 0, 0)" stroke-opacity="1.0" stroke-linecap="round" stroke-linejoin="round"/>
    <path d="M 141.8337860107422 59.31498336791992 C 164.04010009765625 63.665042877197266 131.2548370361328 52.829105377197266 151.75082397460938 69.75078582763672" stroke-width="3.0" fill="none" stroke="rgb(0, 0, 0)" stroke-opacity="1.0" stroke-linecap="round" stroke-linejoin="round"/>
    <path d="M 141.25535583496094 53.374515533447266 C 119.87458801269531 54.0104866027832 156.99122619628906 53.585968017578125 145.8739013671875 64.13182067871094" stroke-width="3.0" fill="none" stroke="rgb(0, 0, 0)" stroke-opacity="1.0" stroke-linecap="round" stroke-linejoin="round"/>
  </g>
</svg>
