<?xml version="1.0" ?>
<svg xmlns="http://www.w3.org/2000/svg" version="1.1" width="224" height="224">
  <defs/>
  <g>
    <path d="M 156.6012725830078 79.01618194580078 C 141.36322021484375 94.40544128417969 113.2830810546875 99.09400177001953 138.3460693359375 92.28337860107422" stroke-width="3.0" fill="none" stroke="rgb(0, 0, 0)" stroke-opacity="1.0" stroke-linecap="round" stroke-linejoin="round"/>
    <path d="M 176.57302856445312 102.31926727294922 C 185.8035888671875 92.7970199584961 193.37237548828125 98.65658569335938 151.59564208984375 109.89398956298828" stroke-width="3.0" fill="none" stroke="rgb(0, 0, 0)" stroke-opacity="1.0" stroke-linecap="round" stroke-linejoin="round"/>
    <path d="M 66.12653350830078 49.717952728271484 C 45.32383346557617 92.18032836914062 78.11097717285156 122.84285736083984 107.39083862304688 80.681396484375" stroke-width="3.0" fill="none" stroke="rgb(0, 0, 0)" stroke-opacity="1.0" stroke-linecap="round" stroke-linejoin="round"/>
    <path d="M 124.25263214111328 93.94380187988281 C 112.734375 85.85853576660156 160.3873748779297 99.33726501464844 97.89323425292969 96.31509399414062" stroke-width="3.0" fill="none" stroke="rgb(0, 0, 0)" stroke-opacity="1.0" stroke-linecap="round" stroke-linejoin="round"/>
    <path d="M 179.26307678222656 101.49991607666016 C 194.26947021484375 96.2384262084961 183.15023803710938 102.55757141113281 188.0064239501953 99.83541870117188" stroke-width="3.0" fill="none" stroke="rgb(0, 0, 0)" stroke-opacity="1.0" stroke-linecap="round" stroke-linejoin="round"/>
    <path d="M 139.01605224609375 57.52242660522461 C 134.02442932128906 99.95878601074219 87.92329406738281 123.01505279541016 121.18790435791016 68.64037322998047" stroke-width="3.0" fill="none" stroke="rgb(0, 0, 0)" stroke-opacity="1.0" stroke-linecap="round" stroke-linejoin="round"/>
    <path d="M 139.49598693847656 61.846527099609375 C 167.98460388183594 84.6799545288086 137.21502685546875 51.391990661621094 162.88299560546875 70.18421936035156" stroke-width="3.0" fill="none" stroke="rgb(0, 0, 0)" stroke-opacity="1.0" stroke-linecap="round" stroke-linejoin="round"/>
    <path d="M 81.0645523071289 103.09569549560547 C 128.31480407714844 89.31625366210938 105.76785278320312 90.1470718383789 123.74427795410156 134.56649780273438" stroke-width="3.0" fill="none" stroke="rgb(0, 0, 0)" stroke-opacity="1.0" stroke-linecap="round" stroke-linejoin="round"/>
    <path d="M 133.2327880859375 131.9790496826172 C 117.02523040771484 174.66128540039062 132.91854858398438 128.23841857910156 103.04203033447266 207.14761352539062" stroke-width="3.0" fill="none" stroke="rgb(0, 0, 0)" stroke-opacity="1.0" stroke-linecap="round" stroke-linejoin="round"/>
    <path d="M 124.39179992675781 53.70969009399414 C 141.82534790039062 55.77349853515625 110.59700775146484 45.87681198120117 89.835693359375 96.7506103515625" stroke-width="3.0" fill="none" stroke="rgb(0, 0, 0)" stroke-opacity="1.0" stroke-linecap="round" stroke-linejoin="round"/>
    <path d="M 133.00379943847656 89.3995132446289 C 163.12030029296875 86.44515991210938 133.88037109375 72.32127380371094 158.0001983642578 66.09016418457031" stroke-width="3.0" fill="none" stroke="rgb(0, 0, 0)" stroke-opacity="1.0" stroke-linecap="round" stroke-linejoin="round"/>
    <path d="M 159.3063507080078 68.7984619140625 C 140.1395263671875 73.0914306640625 149.02281188964844 98.5490951538086 148.3065185546875 67.73670196533203" stroke-width="3.0" fill="none" stroke="rgb(0, 0, 0)" stroke-opacity="1.0" stroke-linecap="round" stroke-linejoin="round"/>
    <path d="M 135.33473205566406 67.56148529052734 C 121.72843170166016 85.47578430175781 140.6180877685547 67.3190689086914 148.36041259765625 69.16400146484375" stroke-width="3.0" fill="none" stroke="rgb(0, 0, 0)" stroke-opacity="1.0" stroke-linecap="round" stroke-linejoin="round"/>
    <path d="M 120.82355499267578 142.70223999023438 C 131.41278076171875 154.4529571533203 123.57502746582031 111.42159271240234 115.7507095336914 137.13247680664062" stroke-width="3.0" fill="none" stroke="rgb(0, 0, 0)" stroke-opacity="1.0" stroke-linecap="round" stroke-linejoin="round"/>
    <path d="M 139.93260192871094 62.829139709472656 C 140.3865509033203 60.79816436767578 129.24366760253906 46.666770935058594 142.96762084960938 63.91200637817383" stroke-width="3.0" fill="none" stroke="rgb(0, 0, 0)" stroke-opacity="1.0" stroke-linecap="round" stroke-linejoin="round"/>
    <path d="M 127.87262725830078 52.436744689941406 C 120.48677062988281 56.14982986450195 148.3539276123047 40.42876434326172 143.34271240234375 63.892642974853516" stroke-width="3.0" fill="none" stroke="rgb(0, 0, 0)" stroke-opacity="1.0" stroke-linecap="round" stroke-linejoin="round"/>
  </g>
</svg>
