<?xml version="1.0" ?>
<svg xmlns="http://www.w3.org/2000/svg" version="1.1" width="224" height="224">
  <defs/>
  <g>
    <path d="M 162.5144500732422 86.63845825195312 C 138.30418395996094 85.32257080078125 100.58522033691406 89.44758605957031 148.64402770996094 80.30186462402344" stroke-width="3.0" fill="none" stroke="rgb(0, 0, 0)" stroke-opacity="1.0" stroke-linecap="round" stroke-linejoin="round"/>
    <path d="M 181.06459045410156 93.17948150634766 C 168.20899963378906 96.35037231445312 193.70730590820312 90.40641021728516 164.99569702148438 108.20682525634766" stroke-width="3.0" fill="none" stroke="rgb(0, 0, 0)" stroke-opacity="1.0" stroke-linecap="round" stroke-linejoin="round"/>
    <path d="M 46.75885009765625 38.8016471862793 C 6.5673089027404785 76.2666244506836 83.0658950805664 121.98709106445312 78.28894805908203 69.10999298095703" stroke-width="3.0" fill="none" stroke="rgb(0, 0, 0)" stroke-opacity="1.0" stroke-linecap="round" stroke-linejoin="round"/>
    <path d="M 112.7199478149414 77.33509826660156 C 132.02171325683594 76.75627899169922 175.69920349121094 89.49578857421875 93.03484344482422 89.10857391357422" stroke-width="3.0" fill="none" stroke="rgb(0, 0, 0)" stroke-opacity="1.0" stroke-linecap="round" stroke-linejoin="round"/>
    <path d="M 172.15594482421875 88.99002838134766 C 206.84161376953125 103.15660095214844 173.02122497558594 95.58594512939453 184.22314453125 97.60261535644531" stroke-width="3.0" fill="none" stroke="rgb(0, 0, 0)" stroke-opacity="1.0" stroke-linecap="round" stroke-linejoin="round"/>
    <path d="M 151.1853790283203 64.38316345214844 C 113.51866912841797 73.8241195678711 44.590484619140625 97.5613784790039 96.11927032470703 53.757713317871094" stroke-width="3.0" fill="none" stroke="rgb(0, 0, 0)" stroke-opacity="1.0" stroke-linecap="round" stroke-linejoin="round"/>
    <path d="M 139.94932556152344 61.091983795166016 C 146.32704162597656 78.14466094970703 139.4022216796875 39.22749710083008 190.83029174804688 94.79444885253906" stroke-width="3.0" fill="none" stroke="rgb(0, 0, 0)" stroke-opacity="1.0" stroke-linecap="round" stroke-linejoin="round"/>
    <path d="M 81.07106018066406 84.28292083740234 C 125.30719757080078 96.30177307128906 107.13983154296875 89.49708557128906 125.59466552734375 136.66580200195312" stroke-width="3.0" fill="none" stroke="rgb(0, 0, 0)" stroke-opacity="1.0" stroke-linecap="round" stroke-linejoin="round"/>
    <path d="M 137.96286010742188 123.77519226074219 C 116.51839447021484 167.103271484375 132.576904296875 106.95486450195312 105.59810638427734 204.47177124023438" stroke-width="3.0" fill="none" stroke="rgb(0, 0, 0)" stroke-opacity="1.0" stroke-linecap="round" stroke-linejoin="round"/>
    <path d="M 134.9662628173828 51.108795166015625 C 141.56863403320312 51.750335693359375 80.08981323242188 23.23780632019043 64.4920654296875 81.34569549560547" stroke-width="3.0" fill="none" stroke="rgb(0, 0, 0)" stroke-opacity="1.0" stroke-linecap="round" stroke-linejoin="round"/>
    <path d="M 110.76806640625 76.55757141113281 C 146.2615509033203 52.983062744140625 112.57681274414062 75.59603118896484 174.9149932861328 91.19104766845703" stroke-width="3.0" fill="none" stroke="rgb(0, 0, 0)" stroke-opacity="1.0" stroke-linecap="round" stroke-linejoin="round"/>
    <path d="M 175.06361389160156 85.43316650390625 C 145.6904296875 74.74053955078125 167.79383850097656 90.9263687133789 150.13796997070312 73.56060028076172" stroke-width="3.0" fill="none" stroke="rgb(0, 0, 0)" stroke-opacity="1.0" stroke-linecap="round" stroke-linejoin="round"/>
    <path d="M 143.8673553466797 60.10353469848633 C 143.71817016601562 73.57491302490234 151.19142150878906 57.79973220825195 147.27267456054688 60.90704345703125" stroke-width="3.0" fill="none" stroke="rgb(0, 0, 0)" stroke-opacity="1.0" stroke-linecap="round" stroke-linejoin="round"/>
    <path d="M 127.3040771484375 134.39154052734375 C 132.00474548339844 143.76043701171875 128.7647705078125 112.2936782836914 118.41083526611328 146.56582641601562" stroke-width="3.0" fill="none" stroke="rgb(0, 0, 0)" stroke-opacity="1.0" stroke-linecap="round" stroke-linejoin="round"/>
    <path d="M 142.51028442382812 63.02583694458008 C 165.27842712402344 64.33114624023438 135.21743774414062 52.18928146362305 152.1390380859375 67.92504119873047" stroke-width="3.0" fill="none" stroke="rgb(0, 0, 0)" stroke-opacity="1.0" stroke-linecap="round" stroke-linejoin="round"/>
    <path d="M 138.2542266845703 50.04729461669922 C 124.17462921142578 55.6815071105957 157.65267944335938 51.848793029785156 146.18246459960938 63.998497009277344" stroke-width="3.0" fill="none" stroke="rgb(0, 0, 0)" stroke-opacity="1.0" stroke-linecap="round" stroke-linejoin="round"/>
  </g>
</svg>
