<?xml version="1.0" ?>
<svg xmlns="http://www.w3.org/2000/svg" version="1.1" width="224" height="224">
  <defs/>
  <g>
    <path d="M 178.8944091796875 92.88246154785156 C 128.5171661376953 77.94288635253906 43.92897033691406 114.61841583251953 139.69223022460938 73.70881652832031" stroke-width="3.0" fill="none" stroke="rgb(0, 0, 0)" stroke-opacity="1.0" stroke-linecap="round" stroke-linejoin="round"/>
    <path d="M 187.88209533691406 97.27320098876953 C 173.6602020263672 91.50212860107422 199.23646545410156 93.08491516113281 138.0410614013672 119.27713012695312" stroke-width="3.0" fill="none" stroke="rgb(0, 0, 0)" stroke-opacity="1.0" stroke-linecap="round" stroke-linejoin="round"/>
    <path d="M 54.0269889831543 40.90648651123047 C 10.976530075073242 35.16179656982422 68.87257385253906 119.73345184326172 73.59147644042969 57.828216552734375" stroke-width="3.0" fill="none" stroke="rgb(0, 0, 0)" stroke-opacity="1.0" stroke-linecap="round" stroke-linejoin="round"/>
    <path d="M 106.21621704101562 60.2311897277832 C 171.32089233398438 63.1319580078125 220.38626098632812 78.72199249267578 87.52095031738281 87.91381072998047" stroke-width="3.0" fill="none" stroke="rgb(0, 0, 0)" stroke-opacity="1.0" stroke-linecap="round" stroke-linejoin="round"/>
    <path d="M 147.60646057128906 66.77830505371094 C 217.16015625 103.22052001953125 175.4157257080078 97.48560333251953 189.5177001953125 96.49729919433594" stroke-width="3.0" fill="none" stroke="rgb(0, 0, 0)" stroke-opacity="1.0" stroke-linecap="round" stroke-linejoin="round"/>
    <path d="M 138.44424438476562 53.55241012573242 C 108.03987884521484 58.124141693115234 52.31747055053711 108.30281829833984 76.93982696533203 58.56517028808594" stroke-width="3.0" fill="none" stroke="rgb(0, 0, 0)" stroke-opacity="1.0" stroke-linecap="round" stroke-linejoin="round"/>
    <path d="M 158.84805297851562 80.69737243652344 C 96.8992919921875 50.62541198730469 163.58535766601562 45.20627975463867 189.5790252685547 94.59540557861328" stroke-width="3.0" fill="none" stroke="rgb(0, 0, 0)" stroke-opacity="1.0" stroke-linecap="round" stroke-linejoin="round"/>
    <path d="M 77.98616027832031 84.03179931640625 C 125.93281555175781 93.33719635009766 113.84567260742188 87.09761047363281 121.81490325927734 141.87472534179688" stroke-width="3.0" fill="none" stroke="rgb(0, 0, 0)" stroke-opacity="1.0" stroke-linecap="round" stroke-linejoin="round"/>
    <path d="M 124.40911102294922 90.41329956054688 C 118.354736328125 202.44847106933594 132.40968322753906 94.16558074951172 107.53465270996094 204.8018798828125" stroke-width="3.0" fill="none" stroke="rgb(0, 0, 0)" stroke-opacity="1.0" stroke-linecap="round" stroke-linejoin="round"/>
    <path d="M 126.87242889404297 45.85507583618164 C 135.16380310058594 54.44501876831055 76.02288055419922 26.851581573486328 73.62862396240234 83.35364532470703" stroke-width="3.0" fill="none" stroke="rgb(0, 0, 0)" stroke-opacity="1.0" stroke-linecap="round" stroke-linejoin="round"/>
    <path d="M 105.12152099609375 53.94190979003906 C 156.6979217529297 37.89229965209961 137.51942443847656 56.70993423461914 170.2626953125 81.47227478027344" stroke-width="3.0" fill="none" stroke="rgb(0, 0, 0)" stroke-opacity="1.0" stroke-linecap="round" stroke-linejoin="round"/>
    <path d="M 161.58560180664062 83.52066040039062 C 139.023193359375 66.80650329589844 205.60736083984375 98.56078338623047 150.4039306640625 65.30616760253906" stroke-width="3.0" fill="none" stroke="rgb(0, 0, 0)" stroke-opacity="1.0" stroke-linecap="round" stroke-linejoin="round"/>
    <path d="M 152.17678833007812 65.92471313476562 C 150.59046936035156 80.24483489990234 157.39483642578125 64.4466323852539 147.882080078125 63.55302429199219" stroke-width="3.0" fill="none" stroke="rgb(0, 0, 0)" stroke-opacity="1.0" stroke-linecap="round" stroke-linejoin="round"/>
    <path d="M 124.3852767944336 122.4366226196289 C 150.71316528320312 156.1140899658203 136.9352264404297 108.99275207519531 118.37532043457031 146.1015625" stroke-width="3.0" fill="none" stroke="rgb(0, 0, 0)" stroke-opacity="1.0" stroke-linecap="round" stroke-linejoin="round"/>
    <path d="M 141.32557678222656 72.3857421875 C 172.78561401367188 75.15139770507812 142.67420959472656 49.252113342285156 156.3772430419922 65.1008529663086" stroke-width="3.0" fill="none" stroke="rgb(0, 0, 0)" stroke-opacity="1.0" stroke-linecap="round" stroke-linejoin="round"/>
    <path d="M 137.78416442871094 47.549652099609375 C 123.62615203857422 48.639976501464844 154.66033935546875 59.782169342041016 145.32537841796875 56.6596565246582" stroke-width="3.0" fill="none" stroke="rgb(0, 0, 0)" stroke-opacity="1.0" stroke-linecap="round" stroke-linejoin="round"/>
  </g>
</svg>
