<?xml version="1.0" ?>
<svg xmlns="http://www.w3.org/2000/svg" version="1.1" width="224" height="224">
  <defs/>
  <g>
    <path d="M 180.0142364501953 93.2686996459961 C 159.9876251220703 85.11127471923828 39.59382629394531 100.80355072021484 131.72068786621094 75.61233520507812" stroke-width="3.0" fill="none" stroke="rgb(0, 0, 0)" stroke-opacity="1.0" stroke-linecap="round" stroke-linejoin="round"/>
    <path d="M 178.17120361328125 96.34990692138672 C 176.4830322265625 97.61164093017578 206.15200805664062 90.77886199951172 134.25453186035156 120.63317108154297" stroke-width="3.0" fill="none" stroke="rgb(0, 0, 0)" stroke-opacity="1.0" stroke-linecap="round" stroke-linejoin="round"/>
    <path d="M 58.69329071044922 39.91141891479492 C 14.531499862670898 23.768646240234375 65.70909118652344 127.97669982910156 80.64501953125 69.13460540771484" stroke-width="3.0" fill="none" stroke="rgb(0, 0, 0)" stroke-opacity="1.0" stroke-linecap="round" stroke-linejoin="round"/>
    <path d="M 95.71253967285156 63.1724967956543 C 144.5727996826172 70.17244720458984 201.2874755859375 99.15269470214844 100.63726043701172 80.47111511230469" stroke-width="3.0" fill="none" stroke="rgb(0, 0, 0)" stroke-opacity="1.0" stroke-linecap="round" stroke-linejoin="round"/>
    <path d="M 133.42066955566406 75.58515930175781 C 204.50814819335938 103.1763687133789 169.5416717529297 99.21969604492188 181.2026824951172 95.25121307373047" stroke-width="3.0" fill="none" stroke="rgb(0, 0, 0)" stroke-opacity="1.0" stroke-linecap="round" stroke-linejoin="round"/>
    <path d="M 102.5256576538086 51.56315612792969 C 105.34843444824219 56.316593170166016 35.382965087890625 141.59188842773438 71.03636932373047 92.08458709716797" stroke-width="3.0" fill="none" stroke="rgb(0, 0, 0)" stroke-opacity="1.0" stroke-linecap="round" stroke-linejoin="round"/>
    <path d="M 143.28480529785156 80.25697326660156 C 5.235682487487793 69.85891723632812 150.42372131347656 29.648988723754883 190.89891052246094 97.95008850097656" stroke-width="3.0" fill="none" stroke="rgb(0, 0, 0)" stroke-opacity="1.0" stroke-linecap="round" stroke-linejoin="round"/>
    <path d="M 91.33999633789062 79.22579193115234 C 113.14855194091797 114.3426742553711 114.07290649414062 69.5713119506836 119.57450866699219 146.40646362304688" stroke-width="3.0" fill="none" stroke="rgb(0, 0, 0)" stroke-opacity="1.0" stroke-linecap="round" stroke-linejoin="round"/>
    <path d="M 126.55931854248047 91.49859619140625 C 115.18757629394531 204.5074462890625 126.32112884521484 90.8980484008789 103.3746566772461 201.2417755126953" stroke-width="3.0" fill="none" stroke="rgb(0, 0, 0)" stroke-opacity="1.0" stroke-linecap="round" stroke-linejoin="round"/>
    <path d="M 152.42807006835938 58.545536041259766 C 137.01902770996094 50.617008209228516 92.54630279541016 24.207876205444336 83.1006851196289 86.36865997314453" stroke-width="3.0" fill="none" stroke="rgb(0, 0, 0)" stroke-opacity="1.0" stroke-linecap="round" stroke-linejoin="round"/>
    <path d="M 95.2373275756836 59.59026336669922 C 138.91424560546875 30.729999542236328 140.44635009765625 54.41469955444336 173.29983520507812 81.01569366455078" stroke-width="3.0" fill="none" stroke="rgb(0, 0, 0)" stroke-opacity="1.0" stroke-linecap="round" stroke-linejoin="round"/>
    <path d="M 161.1787872314453 76.39065551757812 C 154.3163299560547 89.28326416015625 242.4935302734375 129.97552490234375 141.5102996826172 56.75968933105469" stroke-width="3.0" fill="none" stroke="rgb(0, 0, 0)" stroke-opacity="1.0" stroke-linecap="round" stroke-linejoin="round"/>
    <path d="M 145.68984985351562 72.82234191894531 C 191.2801055908203 104.12564086914062 179.56524658203125 78.8311996459961 130.97377014160156 67.3763427734375" stroke-width="3.0" fill="none" stroke="rgb(0, 0, 0)" stroke-opacity="1.0" stroke-linecap="round" stroke-linejoin="round"/>
    <path d="M 123.52904510498047 122.02165985107422 C 149.08322143554688 153.39389038085938 138.54513549804688 106.22224426269531 114.77104949951172 143.7657470703125" stroke-width="3.0" fill="none" stroke="rgb(0, 0, 0)" stroke-opacity="1.0" stroke-linecap="round" stroke-linejoin="round"/>
    <path d="M 121.93141174316406 75.1434555053711 C 173.52871704101562 108.6188735961914 140.201171875 52.44971466064453 146.3299102783203 58.28575897216797" stroke-width="3.0" fill="none" stroke="rgb(0, 0, 0)" stroke-opacity="1.0" stroke-linecap="round" stroke-linejoin="round"/>
    <path d="M 141.77735900878906 71.66091918945312 C 97.58124542236328 50.237342834472656 171.4903106689453 71.66675567626953 125.53606414794922 53.0381965637207" stroke-width="3.0" fill="none" stroke="rgb(0, 0, 0)" stroke-opacity="1.0" stroke-linecap="round" stroke-linejoin="round"/>
  </g>
</svg>
