<?xml version="1.0" ?>
<svg xmlns="http://www.w3.org/2000/svg" version="1.1" width="224" height="224">
  <defs/>
  <g>
    <path d="M 179.44068908691406 90.5651626586914 C 166.1726837158203 82.67493438720703 51.66254425048828 105.13311767578125 133.76296997070312 87.2361831665039" stroke-width="3.0" fill="none" stroke="rgb(0, 0, 0)" stroke-opacity="1.0" stroke-linecap="round" stroke-linejoin="round"/>
    <path d="M 190.84304809570312 100.07997131347656 C 176.78334045410156 96.8768081665039 206.57139587402344 94.21101379394531 133.6199493408203 114.55801391601562" stroke-width="3.0" fill="none" stroke="rgb(0, 0, 0)" stroke-opacity="1.0" stroke-linecap="round" stroke-linejoin="round"/>
    <path d="M 55.82062911987305 40.022274017333984 C 3.8333210945129395 35.600685119628906 69.97905731201172 126.47219848632812 78.90589141845703 66.46452331542969" stroke-width="3.0" fill="none" stroke="rgb(0, 0, 0)" stroke-opacity="1.0" stroke-linecap="round" stroke-linejoin="round"/>
    <path d="M 91.50762939453125 67.1227035522461 C 148.00389099121094 64.49200439453125 197.0304412841797 99.3658676147461 91.7717514038086 83.7033920288086" stroke-width="3.0" fill="none" stroke="rgb(0, 0, 0)" stroke-opacity="1.0" stroke-linecap="round" stroke-linejoin="round"/>
    <path d="M 140.23690795898438 76.86121368408203 C 211.40280151367188 96.28189849853516 170.1298828125 103.90463256835938 184.89236450195312 93.17263793945312" stroke-width="3.0" fill="none" stroke="rgb(0, 0, 0)" stroke-opacity="1.0" stroke-linecap="round" stroke-linejoin="round"/>
    <path d="M 107.2734146118164 48.80874252319336 C 96.47265625 53.00921630859375 39.20194625854492 145.164794921875 74.96124267578125 87.1893539428711" stroke-width="3.0" fill="none" stroke="rgb(0, 0, 0)" stroke-opacity="1.0" stroke-linecap="round" stroke-linejoin="round"/>
    <path d="M 144.64797973632812 84.5198745727539 C 17.056068420410156 67.83122253417969 152.14788818359375 35.072288513183594 192.82786560058594 97.56182861328125" stroke-width="3.0" fill="none" stroke="rgb(0, 0, 0)" stroke-opacity="1.0" stroke-linecap="round" stroke-linejoin="round"/>
    <path d="M 82.98214721679688 83.3668441772461 C 119.27352142333984 109.93631744384766 111.9319839477539 74.93619537353516 119.77003479003906 146.25094604492188" stroke-width="3.0" fill="none" stroke="rgb(0, 0, 0)" stroke-opacity="1.0" stroke-linecap="round" stroke-linejoin="round"/>
    <path d="M 130.78005981445312 93.00981903076172 C 116.11016082763672 201.785888671875 127.7054214477539 89.2935562133789 104.76335144042969 205.56588745117188" stroke-width="3.0" fill="none" stroke="rgb(0, 0, 0)" stroke-opacity="1.0" stroke-linecap="round" stroke-linejoin="round"/>
    <path d="M 149.33419799804688 52.776695251464844 C 133.6098175048828 51.872581481933594 82.10008239746094 23.645511627197266 79.1398696899414 87.01992797851562" stroke-width="3.0" fill="none" stroke="rgb(0, 0, 0)" stroke-opacity="1.0" stroke-linecap="round" stroke-linejoin="round"/>
    <path d="M 92.87715148925781 58.2267951965332 C 133.26881408691406 30.533275604248047 141.9720001220703 54.719200134277344 169.54283142089844 86.13929748535156" stroke-width="3.0" fill="none" stroke="rgb(0, 0, 0)" stroke-opacity="1.0" stroke-linecap="round" stroke-linejoin="round"/>
    <path d="M 152.01734924316406 83.4266128540039 C 146.98609924316406 85.15237426757812 236.48764038085938 119.83946228027344 141.8065185546875 54.14101791381836" stroke-width="3.0" fill="none" stroke="rgb(0, 0, 0)" stroke-opacity="1.0" stroke-linecap="round" stroke-linejoin="round"/>
    <path d="M 149.64512634277344 75.42491149902344 C 171.37661743164062 97.62976837158203 167.30715942382812 74.77812194824219 137.01841735839844 69.89444732666016" stroke-width="3.0" fill="none" stroke="rgb(0, 0, 0)" stroke-opacity="1.0" stroke-linecap="round" stroke-linejoin="round"/>
    <path d="M 123.1792221069336 119.069091796875 C 151.06715393066406 153.86468505859375 140.98501586914062 101.06550598144531 114.61166381835938 149.06317138671875" stroke-width="3.0" fill="none" stroke="rgb(0, 0, 0)" stroke-opacity="1.0" stroke-linecap="round" stroke-linejoin="round"/>
    <path d="M 119.07501983642578 71.01314544677734 C 175.7437744140625 107.09820556640625 145.61680603027344 52.7617301940918 152.84898376464844 64.83892822265625" stroke-width="3.0" fill="none" stroke="rgb(0, 0, 0)" stroke-opacity="1.0" stroke-linecap="round" stroke-linejoin="round"/>
    <path d="M 139.94906616210938 71.36937713623047 C 96.63204956054688 48.946510314941406 160.71615600585938 71.67123413085938 129.9648895263672 50.08401870727539" stroke-width="3.0" fill="none" stroke="rgb(0, 0, 0)" stroke-opacity="1.0" stroke-linecap="round" stroke-linejoin="round"/>
  </g>
</svg>
