<?xml version="1.0" ?>
<svg xmlns="http://www.w3.org/2000/svg" version="1.1" width="224" height="224">
  <defs/>
  <g>
    <path d="M 182.65524291992188 97.88581085205078 C 153.7433624267578 81.93627166748047 54.20036697387695 98.20313262939453 127.61024475097656 81.39816284179688" stroke-width="3.0" fill="none" stroke="rgb(0, 0, 0)" stroke-opacity="1.0" stroke-linecap="round" stroke-linejoin="round"/>
    <path d="M 188.35589599609375 96.95770263671875 C 174.39036560058594 97.15998077392578 202.27053833007812 90.8879165649414 128.4549102783203 122.66417694091797" stroke-width="3.0" fill="none" stroke="rgb(0, 0, 0)" stroke-opacity="1.0" stroke-linecap="round" stroke-linejoin="round"/>
    <path d="M 56.67349624633789 41.91983413696289 C 6.029808521270752 36.83247756958008 70.23441314697266 124.24470520019531 71.47554016113281 63.70077896118164" stroke-width="3.0" fill="none" stroke="rgb(0, 0, 0)" stroke-opacity="1.0" stroke-linecap="round" stroke-linejoin="round"/>
    <path d="M 97.85344696044922 67.79769134521484 C 153.4459686279297 66.27964782714844 205.08738708496094 89.85979461669922 98.27490997314453 79.60088348388672" stroke-width="3.0" fill="none" stroke="rgb(0, 0, 0)" stroke-opacity="1.0" stroke-linecap="round" stroke-linejoin="round"/>
    <path d="M 143.79364013671875 73.13335418701172 C 211.98394775390625 99.08454132080078 171.14320373535156 102.27178192138672 191.12380981445312 99.0797119140625" stroke-width="3.0" fill="none" stroke="rgb(0, 0, 0)" stroke-opacity="1.0" stroke-linecap="round" stroke-linejoin="round"/>
    <path d="M 124.34627532958984 48.20685958862305 C 96.01537322998047 53.43210983276367 33.656654357910156 132.501953125 69.3878173828125 75.41936492919922" stroke-width="3.0" fill="none" stroke="rgb(0, 0, 0)" stroke-opacity="1.0" stroke-linecap="round" stroke-linejoin="round"/>
    <path d="M 143.86572265625 82.56317901611328 C 24.75372314453125 59.221378326416016 147.21737670898438 40.78269958496094 191.94049072265625 94.54940795898438" stroke-width="3.0" fill="none" stroke="rgb(0, 0, 0)" stroke-opacity="1.0" stroke-linecap="round" stroke-linejoin="round"/>
    <path d="M 81.48709869384766 75.0905990600586 C 124.92498016357422 100.616943359375 113.28888702392578 85.43971252441406 121.712158203125 144.36708068847656" stroke-width="3.0" fill="none" stroke="rgb(0, 0, 0)" stroke-opacity="1.0" stroke-linecap="round" stroke-linejoin="round"/>
    <path d="M 126.51403045654297 93.39942169189453 C 118.5072021484375 209.8636474609375 131.5146484375 94.99163818359375 104.77877044677734 201.31256103515625" stroke-width="3.0" fill="none" stroke="rgb(0, 0, 0)" stroke-opacity="1.0" stroke-linecap="round" stroke-linejoin="round"/>
    <path d="M 130.73912048339844 50.01156997680664 C 139.64822387695312 49.85181427001953 80.92365264892578 25.813190460205078 75.8972396850586 79.33781433105469" stroke-width="3.0" fill="none" stroke="rgb(0, 0, 0)" stroke-opacity="1.0" stroke-linecap="round" stroke-linejoin="round"/>
    <path d="M 100.80770111083984 55.0670051574707 C 138.7587127685547 35.39384841918945 145.00540161132812 56.389034271240234 175.539306640625 80.68960571289062" stroke-width="3.0" fill="none" stroke="rgb(0, 0, 0)" stroke-opacity="1.0" stroke-linecap="round" stroke-linejoin="round"/>
    <path d="M 157.21803283691406 78.68693542480469 C 140.24298095703125 72.19638061523438 217.20672607421875 110.8604736328125 145.75875854492188 61.490028381347656" stroke-width="3.0" fill="none" stroke="rgb(0, 0, 0)" stroke-opacity="1.0" stroke-linecap="round" stroke-linejoin="round"/>
    <path d="M 161.2987823486328 70.80211639404297 C 167.152099609375 94.0860366821289 162.34556579589844 77.12257385253906 147.57936096191406 65.3426742553711" stroke-width="3.0" fill="none" stroke="rgb(0, 0, 0)" stroke-opacity="1.0" stroke-linecap="round" stroke-linejoin="round"/>
    <path d="M 124.38726806640625 127.50405883789062 C 138.56207275390625 172.85818481445312 137.54359436035156 113.22745513916016 117.89167022705078 150.85491943359375" stroke-width="3.0" fill="none" stroke="rgb(0, 0, 0)" stroke-opacity="1.0" stroke-linecap="round" stroke-linejoin="round"/>
    <path d="M 137.86537170410156 68.69525909423828 C 185.45550537109375 92.24381256103516 144.4281463623047 56.03529739379883 152.79994201660156 66.25135040283203" stroke-width="3.0" fill="none" stroke="rgb(0, 0, 0)" stroke-opacity="1.0" stroke-linecap="round" stroke-linejoin="round"/>
    <path d="M 140.78843688964844 68.9952163696289 C 110.16222381591797 49.071739196777344 151.97540283203125 65.22733306884766 133.0482177734375 58.82542037963867" stroke-width="3.0" fill="none" stroke="rgb(0, 0, 0)" stroke-opacity="1.0" stroke-linecap="round" stroke-linejoin="round"/>
  </g>
</svg>
