<?xml version="1.0" ?>
<svg xmlns="http://www.w3.org/2000/svg" version="1.1" width="224" height="224">
  <defs/>
  <g>
    <path d="M 175.8455352783203 94.33187866210938 C 164.60614013671875 83.4300537109375 47.15274429321289 104.98819732666016 134.9180908203125 86.17843627929688" stroke-width="3.0" fill="none" stroke="rgb(0, 0, 0)" stroke-opacity="1.0" stroke-linecap="round" stroke-linejoin="round"/>
    <path d="M 190.56942749023438 98.1224365234375 C 174.94436645507812 96.49687957763672 204.4854278564453 89.59442138671875 132.83497619628906 121.0079116821289" stroke-width="3.0" fill="none" stroke="rgb(0, 0, 0)" stroke-opacity="1.0" stroke-linecap="round" stroke-linejoin="round"/>
    <path d="M 57.690128326416016 38.711029052734375 C 9.80344295501709 23.073972702026367 67.31775665283203 122.35014343261719 80.79698944091797 65.16537475585938" stroke-width="3.0" fill="none" stroke="rgb(0, 0, 0)" stroke-opacity="1.0" stroke-linecap="round" stroke-linejoin="round"/>
    <path d="M 94.54850769042969 66.12714385986328 C 151.4959259033203 63.199832916259766 202.10206604003906 100.22542572021484 93.896484375 81.65298461914062" stroke-width="3.0" fill="none" stroke="rgb(0, 0, 0)" stroke-opacity="1.0" stroke-linecap="round" stroke-linejoin="round"/>
    <path d="M 137.80470275878906 72.86862182617188 C 206.7105712890625 100.59544372558594 170.68775939941406 103.25960540771484 182.32247924804688 96.8531265258789" stroke-width="3.0" fill="none" stroke="rgb(0, 0, 0)" stroke-opacity="1.0" stroke-linecap="round" stroke-linejoin="round"/>
    <path d="M 102.14806365966797 51.697776794433594 C 104.97116088867188 56.37314224243164 41.45516586303711 146.4929656982422 73.2045669555664 86.35226440429688" stroke-width="3.0" fill="none" stroke="rgb(0, 0, 0)" stroke-opacity="1.0" stroke-linecap="round" stroke-linejoin="round"/>
    <path d="M 143.17820739746094 85.45094299316406 C 8.237370491027832 70.9970703125 151.37100219726562 27.4730167388916 190.52456665039062 96.78742218017578" stroke-width="3.0" fill="none" stroke="rgb(0, 0, 0)" stroke-opacity="1.0" stroke-linecap="round" stroke-linejoin="round"/>
    <path d="M 85.46924591064453 81.73580169677734 C 118.1112289428711 109.60112762451172 117.0223388671875 67.04270935058594 120.81761169433594 142.69384765625" stroke-width="3.0" fill="none" stroke="rgb(0, 0, 0)" stroke-opacity="1.0" stroke-linecap="round" stroke-linejoin="round"/>
    <path d="M 128.9154510498047 93.06488800048828 C 113.7292251586914 206.1739959716797 128.55992126464844 95.1016616821289 103.64459228515625 206.08644104003906" stroke-width="3.0" fill="none" stroke="rgb(0, 0, 0)" stroke-opacity="1.0" stroke-linecap="round" stroke-linejoin="round"/>
    <path d="M 145.49497985839844 59.911651611328125 C 139.80853271484375 45.04608154296875 87.7588882446289 19.05773162841797 81.33129119873047 84.96089172363281" stroke-width="3.0" fill="none" stroke="rgb(0, 0, 0)" stroke-opacity="1.0" stroke-linecap="round" stroke-linejoin="round"/>
    <path d="M 96.0822525024414 59.9326057434082 C 135.8166961669922 30.720932006835938 144.14894104003906 51.16525650024414 179.4816131591797 80.79839324951172" stroke-width="3.0" fill="none" stroke="rgb(0, 0, 0)" stroke-opacity="1.0" stroke-linecap="round" stroke-linejoin="round"/>
    <path d="M 154.81045532226562 80.37014770507812 C 151.91644287109375 85.58068084716797 239.6173553466797 127.24312591552734 139.5845489501953 58.53630065917969" stroke-width="3.0" fill="none" stroke="rgb(0, 0, 0)" stroke-opacity="1.0" stroke-linecap="round" stroke-linejoin="round"/>
    <path d="M 142.97238159179688 83.05387115478516 C 177.79481506347656 104.8894271850586 175.21029663085938 68.75614929199219 137.03955078125 68.49821472167969" stroke-width="3.0" fill="none" stroke="rgb(0, 0, 0)" stroke-opacity="1.0" stroke-linecap="round" stroke-linejoin="round"/>
    <path d="M 125.22193145751953 120.6234130859375 C 151.75628662109375 147.43556213378906 140.45530700683594 99.41893005371094 115.61056518554688 149.89932250976562" stroke-width="3.0" fill="none" stroke="rgb(0, 0, 0)" stroke-opacity="1.0" stroke-linecap="round" stroke-linejoin="round"/>
    <path d="M 121.34331512451172 74.99517059326172 C 184.8422393798828 100.59032440185547 153.94700622558594 52.56727600097656 150.14620971679688 65.43058776855469" stroke-width="3.0" fill="none" stroke="rgb(0, 0, 0)" stroke-opacity="1.0" stroke-linecap="round" stroke-linejoin="round"/>
    <path d="M 140.39437866210938 67.5015869140625 C 94.94109344482422 44.246726989746094 170.92637634277344 67.01034545898438 128.31187438964844 51.44359588623047" stroke-width="3.0" fill="none" stroke="rgb(0, 0, 0)" stroke-opacity="1.0" stroke-linecap="round" stroke-linejoin="round"/>
  </g>
</svg>
