<?xml version="1.0" ?>
<svg xmlns="http://www.w3.org/2000/svg" version="1.1" width="224" height="224">
  <defs/>
  <g>
    <path d="M 158.47109985351562 82.58513641357422 C 138.62521362304688 81.60235595703125 104.80450439453125 95.48609161376953 144.09646606445312 78.8067855834961" stroke-width="3.0" fill="none" stroke="rgb(0, 0, 0)" stroke-opacity="1.0" stroke-linecap="round" stroke-linejoin="round"/>
    <path d="M 181.73338317871094 91.99787139892578 C 165.78941345214844 92.20806884765625 186.62579345703125 85.7506103515625 164.39869689941406 107.25311279296875" stroke-width="3.0" fill="none" stroke="rgb(0, 0, 0)" stroke-opacity="1.0" stroke-linecap="round" stroke-linejoin="round"/>
    <path d="M 61.066375732421875 36.77296829223633 C 16.84126853942871 81.49165344238281 88.87399291992188 124.44586944580078 83.6333236694336 69.59503173828125" stroke-width="3.0" fill="none" stroke="rgb(0, 0, 0)" stroke-opacity="1.0" stroke-linecap="round" stroke-linejoin="round"/>
    <path d="M 125.09605407714844 81.86942291259766 C 117.33849334716797 81.99687194824219 164.2406768798828 87.25334930419922 88.84458923339844 90.58325958251953" stroke-width="3.0" fill="none" stroke="rgb(0, 0, 0)" stroke-opacity="1.0" stroke-linecap="round" stroke-linejoin="round"/>
    <path d="M 170.27621459960938 87.77803039550781 C 212.77418518066406 104.86224365234375 179.53720092773438 101.05699157714844 175.83627319335938 93.33291625976562" stroke-width="3.0" fill="none" stroke="rgb(0, 0, 0)" stroke-opacity="1.0" stroke-linecap="round" stroke-linejoin="round"/>
    <path d="M 151.89561462402344 61.83663558959961 C 122.41633605957031 90.40187072753906 56.18916702270508 106.9720230102539 106.79219055175781 70.9530258178711" stroke-width="3.0" fill="none" stroke="rgb(0, 0, 0)" stroke-opacity="1.0" stroke-linecap="round" stroke-linejoin="round"/>
    <path d="M 138.73924255371094 61.48195266723633 C 164.0100555419922 81.62138366699219 133.04736328125 37.5657958984375 188.9382781982422 96.38558959960938" stroke-width="3.0" fill="none" stroke="rgb(0, 0, 0)" stroke-opacity="1.0" stroke-linecap="round" stroke-linejoin="round"/>
    <path d="M 68.9686050415039 96.03509521484375 C 122.93252563476562 93.55729675292969 107.53205871582031 84.75433349609375 123.69854736328125 135.56126403808594" stroke-width="3.0" fill="none" stroke="rgb(0, 0, 0)" stroke-opacity="1.0" stroke-linecap="round" stroke-linejoin="round"/>
    <path d="M 137.19573974609375 122.7322006225586 C 118.68899536132812 175.09136962890625 132.1488494873047 111.67599487304688 105.45024108886719 203.3556671142578" stroke-width="3.0" fill="none" stroke="rgb(0, 0, 0)" stroke-opacity="1.0" stroke-linecap="round" stroke-linejoin="round"/>
    <path d="M 137.4926300048828 52.35818099975586 C 145.42550659179688 52.564334869384766 91.28040313720703 31.812429428100586 70.6516342163086 82.6384506225586" stroke-width="3.0" fill="none" stroke="rgb(0, 0, 0)" stroke-opacity="1.0" stroke-linecap="round" stroke-linejoin="round"/>
    <path d="M 122.4593276977539 81.5160140991211 C 151.62362670898438 59.64452362060547 111.67818450927734 76.40115356445312 171.1685333251953 84.57463073730469" stroke-width="3.0" fill="none" stroke="rgb(0, 0, 0)" stroke-opacity="1.0" stroke-linecap="round" stroke-linejoin="round"/>
    <path d="M 169.5504913330078 79.69823455810547 C 150.37759399414062 66.7612533569336 162.67196655273438 79.06348419189453 149.98150634765625 75.43900299072266" stroke-width="3.0" fill="none" stroke="rgb(0, 0, 0)" stroke-opacity="1.0" stroke-linecap="round" stroke-linejoin="round"/>
    <path d="M 139.524658203125 57.56291961669922 C 127.25416564941406 64.00440979003906 141.38059997558594 53.289306640625 145.02383422851562 56.88301467895508" stroke-width="3.0" fill="none" stroke="rgb(0, 0, 0)" stroke-opacity="1.0" stroke-linecap="round" stroke-linejoin="round"/>
    <path d="M 121.02655792236328 144.034423828125 C 128.89259338378906 153.26348876953125 127.34493255615234 114.49740600585938 116.4378662109375 141.99468994140625" stroke-width="3.0" fill="none" stroke="rgb(0, 0, 0)" stroke-opacity="1.0" stroke-linecap="round" stroke-linejoin="round"/>
    <path d="M 146.34429931640625 62.16349792480469 C 164.3408203125 65.35601043701172 130.33250427246094 52.28115463256836 144.72894287109375 68.02896118164062" stroke-width="3.0" fill="none" stroke="rgb(0, 0, 0)" stroke-opacity="1.0" stroke-linecap="round" stroke-linejoin="round"/>
    <path d="M 137.07330322265625 55.27577209472656 C 126.98548889160156 55.072349548339844 151.56019592285156 48.10343551635742 143.56993103027344 65.86907196044922" stroke-width="3.0" fill="none" stroke="rgb(0, 0, 0)" stroke-opacity="1.0" stroke-linecap="round" stroke-linejoin="round"/>
  </g>
</svg>
