<?xml version="1.0" ?>
<svg xmlns="http://www.w3.org/2000/svg" version="1.1" width="224" height="224">
  <defs/>
  <g>
    <path d="M 172.2888641357422 88.24288940429688 C 139.21311950683594 82.77151489257812 102.74413299560547 88.73491668701172 145.23013305664062 88.73601531982422" stroke-width="3.0" fill="none" stroke="rgb(0, 0, 0)" stroke-opacity="1.0" stroke-linecap="round" stroke-linejoin="round"/>
    <path d="M 176.88287353515625 91.4968490600586 C 171.74160766601562 100.28739929199219 192.67066955566406 88.04972076416016 160.04222106933594 110.65130615234375" stroke-width="3.0" fill="none" stroke="rgb(0, 0, 0)" stroke-opacity="1.0" stroke-linecap="round" stroke-linejoin="round"/>
    <path d="M 46.0878791809082 41.90729522705078 C 14.680370330810547 74.20911407470703 83.47268676757812 131.8005828857422 77.19136047363281 67.9232177734375" stroke-width="3.0" fill="none" stroke="rgb(0, 0, 0)" stroke-opacity="1.0" stroke-linecap="round" stroke-linejoin="round"/>
    <path d="M 106.13334655761719 82.17523956298828 C 123.82022857666016 84.89559173583984 168.5113983154297 90.046875 98.41731262207031 95.3401870727539" stroke-width="3.0" fill="none" stroke="rgb(0, 0, 0)" stroke-opacity="1.0" stroke-linecap="round" stroke-linejoin="round"/>
    <path d="M 160.6128692626953 83.56993865966797 C 209.97796630859375 102.68547058105469 171.38754272460938 97.55033874511719 191.46340942382812 96.38711547851562" stroke-width="3.0" fill="none" stroke="rgb(0, 0, 0)" stroke-opacity="1.0" stroke-linecap="round" stroke-linejoin="round"/>
    <path d="M 146.1737823486328 59.65834045410156 C 116.02906799316406 74.20946502685547 60.05223846435547 104.16338348388672 86.18560028076172 60.83579635620117" stroke-width="3.0" fill="none" stroke="rgb(0, 0, 0)" stroke-opacity="1.0" stroke-linecap="round" stroke-linejoin="round"/>
    <path d="M 139.25144958496094 63.1783447265625 C 145.55230712890625 71.93350982666016 144.541259765625 44.15129089355469 191.60020446777344 94.4252700805664" stroke-width="3.0" fill="none" stroke="rgb(0, 0, 0)" stroke-opacity="1.0" stroke-linecap="round" stroke-linejoin="round"/>
    <path d="M 80.99064636230469 90.69902801513672 C 123.50898742675781 98.49813079833984 110.20905303955078 86.64720916748047 123.98888397216797 137.62472534179688" stroke-width="3.0" fill="none" stroke="rgb(0, 0, 0)" stroke-opacity="1.0" stroke-linecap="round" stroke-linejoin="round"/>
    <path d="M 139.61715698242188 114.78411865234375 C 122.06678771972656 174.8730926513672 127.74978637695312 97.32315063476562 105.22563171386719 202.3521728515625" stroke-width="3.0" fill="none" stroke="rgb(0, 0, 0)" stroke-opacity="1.0" stroke-linecap="round" stroke-linejoin="round"/>
    <path d="M 139.410400390625 51.32274627685547 C 140.51231384277344 54.060726165771484 80.55288696289062 23.87405776977539 66.7343978881836 82.17850494384766" stroke-width="3.0" fill="none" stroke="rgb(0, 0, 0)" stroke-opacity="1.0" stroke-linecap="round" stroke-linejoin="round"/>
    <path d="M 102.86180877685547 75.4249496459961 C 149.6743927001953 66.68656158447266 120.13531494140625 70.22535705566406 176.27645874023438 91.6080551147461" stroke-width="3.0" fill="none" stroke="rgb(0, 0, 0)" stroke-opacity="1.0" stroke-linecap="round" stroke-linejoin="round"/>
    <path d="M 179.8074188232422 85.4349365234375 C 147.15151977539062 67.39806365966797 173.9632568359375 75.29721069335938 149.61549377441406 75.06405639648438" stroke-width="3.0" fill="none" stroke="rgb(0, 0, 0)" stroke-opacity="1.0" stroke-linecap="round" stroke-linejoin="round"/>
    <path d="M 144.08982849121094 62.600006103515625 C 143.14413452148438 71.2999038696289 149.69775390625 56.47416687011719 147.0713653564453 61.1667366027832" stroke-width="3.0" fill="none" stroke="rgb(0, 0, 0)" stroke-opacity="1.0" stroke-linecap="round" stroke-linejoin="round"/>
    <path d="M 123.70902252197266 131.84445190429688 C 131.90234375 140.35089111328125 125.59899139404297 109.92607116699219 116.86630249023438 146.02252197265625" stroke-width="3.0" fill="none" stroke="rgb(0, 0, 0)" stroke-opacity="1.0" stroke-linecap="round" stroke-linejoin="round"/>
    <path d="M 144.95172119140625 63.70302963256836 C 166.38427734375 61.9831428527832 129.93984985351562 56.036094665527344 147.6479949951172 68.16583251953125" stroke-width="3.0" fill="none" stroke="rgb(0, 0, 0)" stroke-opacity="1.0" stroke-linecap="round" stroke-linejoin="round"/>
    <path d="M 137.16845703125 54.53004455566406 C 117.6663589477539 57.06083297729492 160.4273681640625 56.50251007080078 148.16856384277344 63.2032470703125" stroke-width="3.0" fill="none" stroke="rgb(0, 0, 0)" stroke-opacity="1.0" stroke-linecap="round" stroke-linejoin="round"/>
  </g>
</svg>
