<?xml version="1.0" ?>
<svg xmlns="http://www.w3.org/2000/svg" version="1.1" width="224" height="224">
  <defs/>
  <g>
    <path d="M 152.1906280517578 76.95263671875 C 140.62503051757812 93.72276306152344 114.79338073730469 100.69548797607422 138.0759735107422 92.19275665283203" stroke-width="3.0" fill="none" stroke="rgb(0, 0, 0)" stroke-opacity="1.0" stroke-linecap="round" stroke-linejoin="round"/>
    <path d="M 175.67295837402344 102.25455474853516 C 183.9063720703125 85.79821014404297 192.99217224121094 98.78656768798828 149.20091247558594 110.52725982666016" stroke-width="3.0" fill="none" stroke="rgb(0, 0, 0)" stroke-opacity="1.0" stroke-linecap="round" stroke-linejoin="round"/>
    <path d="M 60.6761589050293 45.3074836730957 C 39.09654235839844 93.51502990722656 72.61944580078125 119.33051300048828 106.70692443847656 79.7698745727539" stroke-width="3.0" fill="none" stroke="rgb(0, 0, 0)" stroke-opacity="1.0" stroke-linecap="round" stroke-linejoin="round"/>
    <path d="M 119.6842269897461 97.31444549560547 C 109.04336547851562 88.23307800292969 156.06280517578125 99.74060821533203 99.15291595458984 96.17132568359375" stroke-width="3.0" fill="none" stroke="rgb(0, 0, 0)" stroke-opacity="1.0" stroke-linecap="round" stroke-linejoin="round"/>
    <path d="M 177.5100555419922 101.8738784790039 C 192.81094360351562 95.86749267578125 179.9163055419922 99.58289337158203 188.61376953125 96.73453521728516" stroke-width="3.0" fill="none" stroke="rgb(0, 0, 0)" stroke-opacity="1.0" stroke-linecap="round" stroke-linejoin="round"/>
    <path d="M 139.65818786621094 56.9792366027832 C 134.43397521972656 98.72225189208984 89.4592056274414 122.69014739990234 124.64701843261719 70.82635498046875" stroke-width="3.0" fill="none" stroke="rgb(0, 0, 0)" stroke-opacity="1.0" stroke-linecap="round" stroke-linejoin="round"/>
    <path d="M 142.3920440673828 60.11545944213867 C 169.71780395507812 85.08518981933594 132.74989318847656 49.836299896240234 165.87503051757812 71.9583969116211" stroke-width="3.0" fill="none" stroke="rgb(0, 0, 0)" stroke-opacity="1.0" stroke-linecap="round" stroke-linejoin="round"/>
    <path d="M 82.6438217163086 100.71060180664062 C 125.945556640625 83.6329345703125 110.0942153930664 84.81175994873047 124.68291473388672 135.15675354003906" stroke-width="3.0" fill="none" stroke="rgb(0, 0, 0)" stroke-opacity="1.0" stroke-linecap="round" stroke-linejoin="round"/>
    <path d="M 135.78306579589844 132.4661102294922 C 117.91051483154297 175.90318298339844 134.38226318359375 129.4259796142578 106.02244567871094 205.5021514892578" stroke-width="3.0" fill="none" stroke="rgb(0, 0, 0)" stroke-opacity="1.0" stroke-linecap="round" stroke-linejoin="round"/>
    <path d="M 123.80656433105469 51.016265869140625 C 143.0041961669922 64.07438659667969 109.70813751220703 46.54117202758789 89.78255462646484 97.86026000976562" stroke-width="3.0" fill="none" stroke="rgb(0, 0, 0)" stroke-opacity="1.0" stroke-linecap="round" stroke-linejoin="round"/>
    <path d="M 130.24937438964844 83.36419677734375 C 159.625244140625 79.09088134765625 131.205810546875 74.56756591796875 160.67787170410156 68.9946060180664" stroke-width="3.0" fill="none" stroke="rgb(0, 0, 0)" stroke-opacity="1.0" stroke-linecap="round" stroke-linejoin="round"/>
    <path d="M 160.14915466308594 67.49824523925781 C 147.9002227783203 74.37540435791016 154.10499572753906 104.21844482421875 148.36940002441406 65.42335510253906" stroke-width="3.0" fill="none" stroke="rgb(0, 0, 0)" stroke-opacity="1.0" stroke-linecap="round" stroke-linejoin="round"/>
    <path d="M 138.4090576171875 67.02962493896484 C 123.22002410888672 84.02686309814453 142.5640106201172 68.22920989990234 148.6563262939453 69.42330169677734" stroke-width="3.0" fill="none" stroke="rgb(0, 0, 0)" stroke-opacity="1.0" stroke-linecap="round" stroke-linejoin="round"/>
    <path d="M 124.43609619140625 146.40896606445312 C 129.89874267578125 152.5828094482422 130.9769287109375 105.42011260986328 117.94091796875 142.25096130371094" stroke-width="3.0" fill="none" stroke="rgb(0, 0, 0)" stroke-opacity="1.0" stroke-linecap="round" stroke-linejoin="round"/>
    <path d="M 142.5931854248047 60.16159439086914 C 147.0125732421875 58.62445831298828 129.55953979492188 46.5368537902832 141.31539916992188 65.49103546142578" stroke-width="3.0" fill="none" stroke="rgb(0, 0, 0)" stroke-opacity="1.0" stroke-linecap="round" stroke-linejoin="round"/>
    <path d="M 127.51799774169922 51.98358154296875 C 121.37458801269531 54.694881439208984 149.91993713378906 37.40231704711914 142.2407989501953 62.93804168701172" stroke-width="3.0" fill="none" stroke="rgb(0, 0, 0)" stroke-opacity="1.0" stroke-linecap="round" stroke-linejoin="round"/>
  </g>
</svg>
