<?xml version="1.0" ?>
<svg xmlns="http://www.w3.org/2000/svg" version="1.1" width="224" height="224">
  <defs/>
  <g>
    <path d="M 130.67355346679688 85.78116607666016 C 139.41819763183594 84.79588317871094 117.1609115600586 102.52780151367188 124.40311431884766 79.80599975585938" stroke-width="3.0" fill="none" stroke="rgb(0, 0, 0)" stroke-opacity="1.0" stroke-linecap="round" stroke-linejoin="round"/>
    <path d="M 182.04000854492188 102.98246765136719 C 173.96612548828125 87.02214813232422 169.86810302734375 90.71497344970703 177.1559600830078 103.3244857788086" stroke-width="3.0" fill="none" stroke="rgb(0, 0, 0)" stroke-opacity="1.0" stroke-linecap="round" stroke-linejoin="round"/>
    <path d="M 68.10456085205078 44.591407775878906 C 41.132667541503906 84.83954620361328 69.70264434814453 114.2606201171875 93.5643310546875 96.7945327758789" stroke-width="3.0" fill="none" stroke="rgb(0, 0, 0)" stroke-opacity="1.0" stroke-linecap="round" stroke-linejoin="round"/>
    <path d="M 102.12529754638672 83.13361358642578 C 110.89144134521484 96.61784362792969 131.48838806152344 84.79007720947266 114.01713562011719 92.94088745117188" stroke-width="3.0" fill="none" stroke="rgb(0, 0, 0)" stroke-opacity="1.0" stroke-linecap="round" stroke-linejoin="round"/>
    <path d="M 172.5851287841797 91.13587188720703 C 175.2586669921875 76.69214630126953 167.7864990234375 72.7020034790039 175.8719482421875 83.32488250732422" stroke-width="3.0" fill="none" stroke="rgb(0, 0, 0)" stroke-opacity="1.0" stroke-linecap="round" stroke-linejoin="round"/>
    <path d="M 124.82768249511719 77.08216857910156 C 130.9375 105.36204528808594 118.21049499511719 96.80306243896484 122.83964538574219 82.1538314819336" stroke-width="3.0" fill="none" stroke="rgb(0, 0, 0)" stroke-opacity="1.0" stroke-linecap="round" stroke-linejoin="round"/>
    <path d="M 144.2027587890625 57.76761245727539 C 159.06375122070312 66.81243896484375 149.1548309326172 51.22492980957031 149.39259338378906 65.20821380615234" stroke-width="3.0" fill="none" stroke="rgb(0, 0, 0)" stroke-opacity="1.0" stroke-linecap="round" stroke-linejoin="round"/>
    <path d="M 97.56390380859375 94.11373138427734 C 119.1312484741211 94.98917388916016 117.94033813476562 99.25684356689453 120.74480438232422 131.29237365722656" stroke-width="3.0" fill="none" stroke="rgb(0, 0, 0)" stroke-opacity="1.0" stroke-linecap="round" stroke-linejoin="round"/>
    <path d="M 122.70501708984375 137.91934204101562 C 117.91549682617188 154.8363037109375 118.58583068847656 137.79920959472656 109.08204650878906 204.51022338867188" stroke-width="3.0" fill="none" stroke="rgb(0, 0, 0)" stroke-opacity="1.0" stroke-linecap="round" stroke-linejoin="round"/>
    <path d="M 119.3006362915039 58.8568229675293 C 129.16226196289062 74.55280303955078 125.7809829711914 72.54027557373047 119.19822692871094 85.83235168457031" stroke-width="3.0" fill="none" stroke="rgb(0, 0, 0)" stroke-opacity="1.0" stroke-linecap="round" stroke-linejoin="round"/>
    <path d="M 143.20643615722656 93.43852233886719 C 148.6242218017578 89.28665924072266 136.313232421875 99.55782318115234 151.51832580566406 86.6678237915039" stroke-width="3.0" fill="none" stroke="rgb(0, 0, 0)" stroke-opacity="1.0" stroke-linecap="round" stroke-linejoin="round"/>
    <path d="M 143.6287078857422 67.80957794189453 C 132.66140747070312 91.2276382446289 129.58311462402344 96.19633483886719 130.1474609375 77.64456176757812" stroke-width="3.0" fill="none" stroke="rgb(0, 0, 0)" stroke-opacity="1.0" stroke-linecap="round" stroke-linejoin="round"/>
    <path d="M 135.59429931640625 72.72789001464844 C 132.66941833496094 88.81127166748047 134.3793487548828 59.53725814819336 130.14283752441406 77.54244995117188" stroke-width="3.0" fill="none" stroke="rgb(0, 0, 0)" stroke-opacity="1.0" stroke-linecap="round" stroke-linejoin="round"/>
    <path d="M 119.9157943725586 131.1323699951172 C 130.3657684326172 145.37464904785156 131.3678436279297 113.22616577148438 120.170166015625 138.05955505371094" stroke-width="3.0" fill="none" stroke="rgb(0, 0, 0)" stroke-opacity="1.0" stroke-linecap="round" stroke-linejoin="round"/>
    <path d="M 128.04739379882812 49.77933120727539 C 129.1667022705078 58.364906311035156 133.98312377929688 45.374996185302734 147.7611083984375 54.307369232177734" stroke-width="3.0" fill="none" stroke="rgb(0, 0, 0)" stroke-opacity="1.0" stroke-linecap="round" stroke-linejoin="round"/>
    <path d="M 119.61421966552734 49.32432556152344 C 127.04559326171875 60.46625900268555 122.76410675048828 50.75615310668945 132.5558319091797 64.4606704711914" stroke-width="3.0" fill="none" stroke="rgb(0, 0, 0)" stroke-opacity="1.0" stroke-linecap="round" stroke-linejoin="round"/>
  </g>
</svg>
