<?xml version="1.0" ?>
<svg xmlns="http://www.w3.org/2000/svg" version="1.1" width="224" height="224">
  <defs/>
  <g>
    <path d="M 182.64141845703125 94.8718032836914 C 185.67626953125 75.81731414794922 39.239097595214844 90.85977935791016 118.86000061035156 74.10509490966797" stroke-width="3.0" fill="none" stroke="rgb(0, 0, 0)" stroke-opacity="1.0" stroke-linecap="round" stroke-linejoin="round"/>
    <path d="M 189.09759521484375 97.85655975341797 C 174.45484924316406 97.86835479736328 204.80421447753906 87.98550415039062 129.471435546875 121.50059509277344" stroke-width="3.0" fill="none" stroke="rgb(0, 0, 0)" stroke-opacity="1.0" stroke-linecap="round" stroke-linejoin="round"/>
    <path d="M 59.687843322753906 44.67646789550781 C 9.707045555114746 22.753726959228516 77.9469985961914 148.18765258789062 88.64556884765625 62.89335632324219" stroke-width="3.0" fill="none" stroke="rgb(0, 0, 0)" stroke-opacity="1.0" stroke-linecap="round" stroke-linejoin="round"/>
    <path d="M 93.61941528320312 62.88719177246094 C 152.0236053466797 59.91016387939453 199.97657775878906 110.46112823486328 113.65872192382812 74.3738784790039" stroke-width="3.0" fill="none" stroke="rgb(0, 0, 0)" stroke-opacity="1.0" stroke-linecap="round" stroke-linejoin="round"/>
    <path d="M 128.7052459716797 68.51371002197266 C 204.15696716308594 101.32342529296875 167.15740966796875 80.81061553955078 170.19102478027344 81.77661895751953" stroke-width="3.0" fill="none" stroke="rgb(0, 0, 0)" stroke-opacity="1.0" stroke-linecap="round" stroke-linejoin="round"/>
    <path d="M 104.00187683105469 53.52586364746094 C 123.78421783447266 71.70075225830078 55.78002166748047 143.90370178222656 84.07998657226562 109.41743469238281" stroke-width="3.0" fill="none" stroke="rgb(0, 0, 0)" stroke-opacity="1.0" stroke-linecap="round" stroke-linejoin="round"/>
    <path d="M 159.01954650878906 77.0812759399414 C 3.6411519050598145 60.82112503051758 152.80564880371094 26.98493766784668 190.68565368652344 95.40511322021484" stroke-width="3.0" fill="none" stroke="rgb(0, 0, 0)" stroke-opacity="1.0" stroke-linecap="round" stroke-linejoin="round"/>
    <path d="M 96.51856994628906 64.12409210205078 C 117.79737091064453 115.18840026855469 112.50263214111328 69.39362335205078 120.3301010131836 145.29051208496094" stroke-width="3.0" fill="none" stroke="rgb(0, 0, 0)" stroke-opacity="1.0" stroke-linecap="round" stroke-linejoin="round"/>
    <path d="M 124.44561004638672 94.6615219116211 C 118.15870666503906 203.80218505859375 130.37599182128906 97.16136932373047 103.6588134765625 206.41567993164062" stroke-width="3.0" fill="none" stroke="rgb(0, 0, 0)" stroke-opacity="1.0" stroke-linecap="round" stroke-linejoin="round"/>
    <path d="M 150.6920166015625 60.82044219970703 C 133.83255004882812 51.169132232666016 104.2140884399414 24.17181968688965 85.33275604248047 80.11705780029297" stroke-width="3.0" fill="none" stroke="rgb(0, 0, 0)" stroke-opacity="1.0" stroke-linecap="round" stroke-linejoin="round"/>
    <path d="M 91.32804870605469 75.27375030517578 C 132.31297302246094 23.24457359313965 137.4503936767578 54.79472351074219 160.62960815429688 85.12012481689453" stroke-width="3.0" fill="none" stroke="rgb(0, 0, 0)" stroke-opacity="1.0" stroke-linecap="round" stroke-linejoin="round"/>
    <path d="M 149.48106384277344 69.82832336425781 C 155.03073120117188 85.8458251953125 237.42822265625 121.83394622802734 146.42881774902344 58.491336822509766" stroke-width="3.0" fill="none" stroke="rgb(0, 0, 0)" stroke-opacity="1.0" stroke-linecap="round" stroke-linejoin="round"/>
    <path d="M 164.21212768554688 65.13738250732422 C 201.91111755371094 94.03995513916016 169.98057556152344 86.78804779052734 116.27362823486328 53.715850830078125" stroke-width="3.0" fill="none" stroke="rgb(0, 0, 0)" stroke-opacity="1.0" stroke-linecap="round" stroke-linejoin="round"/>
    <path d="M 123.68133544921875 121.52288818359375 C 138.28195190429688 149.01612854003906 137.160400390625 99.14228057861328 115.56011199951172 152.19601440429688" stroke-width="3.0" fill="none" stroke="rgb(0, 0, 0)" stroke-opacity="1.0" stroke-linecap="round" stroke-linejoin="round"/>
    <path d="M 96.30413818359375 88.07659912109375 C 189.3568572998047 99.97286987304688 160.8674774169922 48.82674026489258 141.88955688476562 76.69584655761719" stroke-width="3.0" fill="none" stroke="rgb(0, 0, 0)" stroke-opacity="1.0" stroke-linecap="round" stroke-linejoin="round"/>
    <path d="M 150.3048553466797 84.70952606201172 C 55.84738540649414 46.2428092956543 178.0417022705078 71.75419616699219 120.22686004638672 50.08091354370117" stroke-width="3.0" fill="none" stroke="rgb(0, 0, 0)" stroke-opacity="1.0" stroke-linecap="round" stroke-linejoin="round"/>
  </g>
</svg>
