<?xml version="1.0" ?>
<svg xmlns="http://www.w3.org/2000/svg" version="1.1" width="224" height="224">
  <defs/>
  <g>
    <path d="M 178.22879028320312 93.09196472167969 C 166.26678466796875 83.48628997802734 50.100860595703125 105.39724731445312 133.2345428466797 84.17691802978516" stroke-width="3.0" fill="none" stroke="rgb(0, 0, 0)" stroke-opacity="1.0" stroke-linecap="round" stroke-linejoin="round"/>
    <path d="M 189.24826049804688 97.42542266845703 C 174.74305725097656 94.45796203613281 203.70138549804688 89.95521545410156 133.71771240234375 119.56092834472656" stroke-width="3.0" fill="none" stroke="rgb(0, 0, 0)" stroke-opacity="1.0" stroke-linecap="round" stroke-linejoin="round"/>
    <path d="M 54.1967658996582 43.85381317138672 C 3.2089059352874756 37.852935791015625 63.46607971191406 129.42259216308594 81.33491516113281 68.86616516113281" stroke-width="3.0" fill="none" stroke="rgb(0, 0, 0)" stroke-opacity="1.0" stroke-linecap="round" stroke-linejoin="round"/>
    <path d="M 91.94963073730469 68.78346252441406 C 150.8894500732422 63.14836502075195 199.16001892089844 96.44634246826172 95.07056427001953 82.81928253173828" stroke-width="3.0" fill="none" stroke="rgb(0, 0, 0)" stroke-opacity="1.0" stroke-linecap="round" stroke-linejoin="round"/>
    <path d="M 140.546142578125 71.57892608642578 C 208.83578491210938 96.93437194824219 166.8766326904297 104.34478759765625 182.9552764892578 92.66897583007812" stroke-width="3.0" fill="none" stroke="rgb(0, 0, 0)" stroke-opacity="1.0" stroke-linecap="round" stroke-linejoin="round"/>
    <path d="M 105.76264953613281 50.293453216552734 C 96.68038177490234 52.779502868652344 38.67629623413086 144.71463012695312 75.97315216064453 89.52706146240234" stroke-width="3.0" fill="none" stroke="rgb(0, 0, 0)" stroke-opacity="1.0" stroke-linecap="round" stroke-linejoin="round"/>
    <path d="M 144.25103759765625 82.44591522216797 C 11.434617042541504 67.34883117675781 154.08457946777344 27.690895080566406 192.53663635253906 95.77926635742188" stroke-width="3.0" fill="none" stroke="rgb(0, 0, 0)" stroke-opacity="1.0" stroke-linecap="round" stroke-linejoin="round"/>
    <path d="M 83.35360717773438 84.26258850097656 C 120.80918884277344 108.5645523071289 117.03954315185547 68.17991638183594 120.06182861328125 145.5273895263672" stroke-width="3.0" fill="none" stroke="rgb(0, 0, 0)" stroke-opacity="1.0" stroke-linecap="round" stroke-linejoin="round"/>
    <path d="M 130.0415496826172 92.63319396972656 C 112.06909942626953 202.60585021972656 124.4971694946289 92.44871520996094 106.00692749023438 206.49966430664062" stroke-width="3.0" fill="none" stroke="rgb(0, 0, 0)" stroke-opacity="1.0" stroke-linecap="round" stroke-linejoin="round"/>
    <path d="M 147.95477294921875 58.87515640258789 C 133.0941162109375 49.267276763916016 78.28455352783203 20.853851318359375 82.57522583007812 85.583740234375" stroke-width="3.0" fill="none" stroke="rgb(0, 0, 0)" stroke-opacity="1.0" stroke-linecap="round" stroke-linejoin="round"/>
    <path d="M 93.2530746459961 59.068458557128906 C 131.36123657226562 31.491077423095703 141.1155548095703 55.39083480834961 171.43202209472656 85.2531967163086" stroke-width="3.0" fill="none" stroke="rgb(0, 0, 0)" stroke-opacity="1.0" stroke-linecap="round" stroke-linejoin="round"/>
    <path d="M 152.14877319335938 82.14820861816406 C 150.1484832763672 81.97036743164062 240.09698486328125 118.45079803466797 141.8059844970703 55.26521301269531" stroke-width="3.0" fill="none" stroke="rgb(0, 0, 0)" stroke-opacity="1.0" stroke-linecap="round" stroke-linejoin="round"/>
    <path d="M 145.210693359375 84.2853012084961 C 170.5216522216797 106.48902130126953 170.64010620117188 71.62984466552734 137.44903564453125 68.51522827148438" stroke-width="3.0" fill="none" stroke="rgb(0, 0, 0)" stroke-opacity="1.0" stroke-linecap="round" stroke-linejoin="round"/>
    <path d="M 124.20349884033203 120.7862777709961 C 151.30770874023438 151.92308044433594 140.01254272460938 101.16960144042969 113.60921478271484 149.09718322753906" stroke-width="3.0" fill="none" stroke="rgb(0, 0, 0)" stroke-opacity="1.0" stroke-linecap="round" stroke-linejoin="round"/>
    <path d="M 122.7227783203125 70.15785217285156 C 182.622802734375 105.24070739746094 154.99099731445312 50.55526351928711 154.58692932128906 63.91928482055664" stroke-width="3.0" fill="none" stroke="rgb(0, 0, 0)" stroke-opacity="1.0" stroke-linecap="round" stroke-linejoin="round"/>
    <path d="M 141.65626525878906 66.64238739013672 C 93.49654388427734 48.07592010498047 164.79164123535156 72.25553131103516 130.9004669189453 53.2860221862793" stroke-width="3.0" fill="none" stroke="rgb(0, 0, 0)" stroke-opacity="1.0" stroke-linecap="round" stroke-linejoin="round"/>
  </g>
</svg>
