<?xml version="1.0" ?>
<svg xmlns="http://www.w3.org/2000/svg" version="1.1" width="224" height="224">
  <defs/>
  <g>
    <path d="M 159.78387451171875 86.65475463867188 C 138.1381072998047 80.81224060058594 104.49003601074219 93.9590072631836 146.72023010253906 81.67295837402344" stroke-width="3.0" fill="none" stroke="rgb(0, 0, 0)" stroke-opacity="1.0" stroke-linecap="round" stroke-linejoin="round"/>
    <path d="M 181.75216674804688 95.83380889892578 C 166.95668029785156 94.98694610595703 192.43833923339844 90.01017761230469 163.6042938232422 107.33989715576172" stroke-width="3.0" fill="none" stroke="rgb(0, 0, 0)" stroke-opacity="1.0" stroke-linecap="round" stroke-linejoin="round"/>
    <path d="M 47.246238708496094 37.208770751953125 C 5.166216850280762 75.69949340820312 89.39838409423828 125.99329376220703 77.66493225097656 70.059814453125" stroke-width="3.0" fill="none" stroke="rgb(0, 0, 0)" stroke-opacity="1.0" stroke-linecap="round" stroke-linejoin="round"/>
    <path d="M 122.31979370117188 79.94506072998047 C 123.58927154541016 79.33263397216797 170.1685028076172 90.03870391845703 88.62628936767578 93.17476654052734" stroke-width="3.0" fill="none" stroke="rgb(0, 0, 0)" stroke-opacity="1.0" stroke-linecap="round" stroke-linejoin="round"/>
    <path d="M 171.04908752441406 88.27145385742188 C 213.00521850585938 114.9859619140625 181.5933380126953 104.4282455444336 182.61048889160156 95.31558227539062" stroke-width="3.0" fill="none" stroke="rgb(0, 0, 0)" stroke-opacity="1.0" stroke-linecap="round" stroke-linejoin="round"/>
    <path d="M 152.55177307128906 63.11855697631836 C 116.13746643066406 78.14991760253906 45.67427062988281 94.31002044677734 99.99317169189453 57.71279525756836" stroke-width="3.0" fill="none" stroke="rgb(0, 0, 0)" stroke-opacity="1.0" stroke-linecap="round" stroke-linejoin="round"/>
    <path d="M 142.17901611328125 63.89706039428711 C 156.8822021484375 81.4549789428711 136.43617248535156 41.934532165527344 190.43995666503906 95.75009155273438" stroke-width="3.0" fill="none" stroke="rgb(0, 0, 0)" stroke-opacity="1.0" stroke-linecap="round" stroke-linejoin="round"/>
    <path d="M 78.8019790649414 92.3876724243164 C 121.88176727294922 91.65988159179688 107.7420654296875 83.12149810791016 124.56653594970703 139.26144409179688" stroke-width="3.0" fill="none" stroke="rgb(0, 0, 0)" stroke-opacity="1.0" stroke-linecap="round" stroke-linejoin="round"/>
    <path d="M 136.57801818847656 126.36538696289062 C 117.50839233398438 171.76278686523438 133.5016632080078 112.64408874511719 103.38372802734375 203.48275756835938" stroke-width="3.0" fill="none" stroke="rgb(0, 0, 0)" stroke-opacity="1.0" stroke-linecap="round" stroke-linejoin="round"/>
    <path d="M 137.07266235351562 49.22402572631836 C 145.23480224609375 53.684879302978516 82.50566101074219 29.812232971191406 67.07649993896484 82.08596801757812" stroke-width="3.0" fill="none" stroke="rgb(0, 0, 0)" stroke-opacity="1.0" stroke-linecap="round" stroke-linejoin="round"/>
    <path d="M 119.89154815673828 79.46199798583984 C 151.43304443359375 54.515384674072266 112.7890853881836 74.55146789550781 175.87440490722656 91.0588607788086" stroke-width="3.0" fill="none" stroke="rgb(0, 0, 0)" stroke-opacity="1.0" stroke-linecap="round" stroke-linejoin="round"/>
    <path d="M 172.99441528320312 82.76580810546875 C 147.3242950439453 73.4787826538086 169.22596740722656 83.12308502197266 150.5753631591797 79.16848754882812" stroke-width="3.0" fill="none" stroke="rgb(0, 0, 0)" stroke-opacity="1.0" stroke-linecap="round" stroke-linejoin="round"/>
    <path d="M 142.56158447265625 61.50807189941406 C 138.40476989746094 76.87435913085938 150.75721740722656 58.60090637207031 147.31338500976562 58.162288665771484" stroke-width="3.0" fill="none" stroke="rgb(0, 0, 0)" stroke-opacity="1.0" stroke-linecap="round" stroke-linejoin="round"/>
    <path d="M 124.29088592529297 139.46585083007812 C 128.89419555664062 147.8354034423828 130.21725463867188 118.68858337402344 119.26264190673828 148.14761352539062" stroke-width="3.0" fill="none" stroke="rgb(0, 0, 0)" stroke-opacity="1.0" stroke-linecap="round" stroke-linejoin="round"/>
    <path d="M 144.31202697753906 61.818363189697266 C 162.7307891845703 67.14265441894531 133.49420166015625 53.694942474365234 149.2071075439453 64.98371124267578" stroke-width="3.0" fill="none" stroke="rgb(0, 0, 0)" stroke-opacity="1.0" stroke-linecap="round" stroke-linejoin="round"/>
    <path d="M 142.2761688232422 51.068660736083984 C 127.35511779785156 54.972923278808594 154.7654571533203 52.11602020263672 145.52755737304688 66.17118835449219" stroke-width="3.0" fill="none" stroke="rgb(0, 0, 0)" stroke-opacity="1.0" stroke-linecap="round" stroke-linejoin="round"/>
  </g>
</svg>
