<?xml version="1.0" ?>
<svg xmlns="http://www.w3.org/2000/svg" version="1.1" width="224" height="224">
  <defs/>
  <g>
    <path d="M 152.2052459716797 76.34030151367188 C 145.7860107421875 97.59285736083984 117.101318359375 99.52722930908203 142.87261962890625 88.57843780517578" stroke-width="3.0" fill="none" stroke="rgb(0, 0, 0)" stroke-opacity="1.0" stroke-linecap="round" stroke-linejoin="round"/>
    <path d="M 175.64520263671875 99.40636444091797 C 188.28297424316406 90.69405364990234 192.70635986328125 95.70780181884766 151.4288787841797 112.169677734375" stroke-width="3.0" fill="none" stroke="rgb(0, 0, 0)" stroke-opacity="1.0" stroke-linecap="round" stroke-linejoin="round"/>
    <path d="M 68.75603485107422 44.32638931274414 C 42.282772064208984 101.36009216308594 75.1063461303711 126.447509765625 100.08287811279297 77.83374786376953" stroke-width="3.0" fill="none" stroke="rgb(0, 0, 0)" stroke-opacity="1.0" stroke-linecap="round" stroke-linejoin="round"/>
    <path d="M 126.36726379394531 93.5927734375 C 112.69105529785156 88.02642059326172 159.03414916992188 100.34742736816406 94.69581604003906 94.15714263916016" stroke-width="3.0" fill="none" stroke="rgb(0, 0, 0)" stroke-opacity="1.0" stroke-linecap="round" stroke-linejoin="round"/>
    <path d="M 176.5409393310547 101.7381591796875 C 192.38006591796875 93.31382751464844 181.02235412597656 96.52519226074219 185.8800048828125 88.09085845947266" stroke-width="3.0" fill="none" stroke="rgb(0, 0, 0)" stroke-opacity="1.0" stroke-linecap="round" stroke-linejoin="round"/>
    <path d="M 140.73451232910156 54.82159423828125 C 131.87196350097656 92.50526428222656 83.26176452636719 114.9553451538086 117.47481536865234 65.03797912597656" stroke-width="3.0" fill="none" stroke="rgb(0, 0, 0)" stroke-opacity="1.0" stroke-linecap="round" stroke-linejoin="round"/>
    <path d="M 140.25587463378906 48.581302642822266 C 169.70225524902344 85.08197021484375 134.21803283691406 46.91078567504883 177.4309539794922 84.24825286865234" stroke-width="3.0" fill="none" stroke="rgb(0, 0, 0)" stroke-opacity="1.0" stroke-linecap="round" stroke-linejoin="round"/>
    <path d="M 81.2540283203125 103.53443145751953 C 121.13523864746094 83.53192901611328 110.03467559814453 84.15015411376953 122.60846710205078 136.2959442138672" stroke-width="3.0" fill="none" stroke="rgb(0, 0, 0)" stroke-opacity="1.0" stroke-linecap="round" stroke-linejoin="round"/>
    <path d="M 139.78265380859375 125.49978637695312 C 114.2974624633789 173.3834686279297 132.7962188720703 127.02086639404297 105.44381713867188 205.7353515625" stroke-width="3.0" fill="none" stroke="rgb(0, 0, 0)" stroke-opacity="1.0" stroke-linecap="round" stroke-linejoin="round"/>
    <path d="M 120.22137451171875 53.77444076538086 C 140.4759063720703 64.96542358398438 107.13541412353516 41.50807571411133 90.19710540771484 94.36163330078125" stroke-width="3.0" fill="none" stroke="rgb(0, 0, 0)" stroke-opacity="1.0" stroke-linecap="round" stroke-linejoin="round"/>
    <path d="M 131.8824920654297 94.30139923095703 C 156.1561279296875 73.95431518554688 130.6721649169922 71.7231216430664 161.4146270751953 71.76673889160156" stroke-width="3.0" fill="none" stroke="rgb(0, 0, 0)" stroke-opacity="1.0" stroke-linecap="round" stroke-linejoin="round"/>
    <path d="M 157.3566131591797 74.22956848144531 C 149.3072967529297 75.59242248535156 148.8903350830078 103.8211898803711 148.05517578125 66.2379379272461" stroke-width="3.0" fill="none" stroke="rgb(0, 0, 0)" stroke-opacity="1.0" stroke-linecap="round" stroke-linejoin="round"/>
    <path d="M 139.04562377929688 61.68252182006836 C 121.26253509521484 79.29357147216797 139.748291015625 61.38344192504883 142.66220092773438 59.92612838745117" stroke-width="3.0" fill="none" stroke="rgb(0, 0, 0)" stroke-opacity="1.0" stroke-linecap="round" stroke-linejoin="round"/>
    <path d="M 125.07290649414062 143.38621520996094 C 125.2551040649414 146.77554321289062 135.3039093017578 104.69815826416016 113.14563751220703 147.04115295410156" stroke-width="3.0" fill="none" stroke="rgb(0, 0, 0)" stroke-opacity="1.0" stroke-linecap="round" stroke-linejoin="round"/>
    <path d="M 143.80255126953125 61.667213439941406 C 148.3875274658203 60.31600570678711 125.09127807617188 49.80912399291992 141.2630615234375 57.05036544799805" stroke-width="3.0" fill="none" stroke="rgb(0, 0, 0)" stroke-opacity="1.0" stroke-linecap="round" stroke-linejoin="round"/>
    <path d="M 125.79303741455078 52.1976432800293 C 120.8067855834961 53.978851318359375 156.4187774658203 40.033443450927734 143.2322998046875 60.012123107910156" stroke-width="3.0" fill="none" stroke="rgb(0, 0, 0)" stroke-opacity="1.0" stroke-linecap="round" stroke-linejoin="round"/>
  </g>
</svg>
