<?xml version="1.0" ?>
<svg xmlns="http://www.w3.org/2000/svg" version="1.1" width="224" height="224">
  <defs/>
  <g>
    <path d="M 130.99998474121094 81.99995422363281 C 132.85968017578125 84.88838195800781 133.9669647216797 82.18685913085938 132.0942840576172 81.12413787841797" stroke-width="3.0" fill="none" stroke="rgb(0, 0, 0)" stroke-opacity="1.0" stroke-linecap="round" stroke-linejoin="round"/>
    <path d="M 171.99989318847656 88.00023651123047 C 175.17832946777344 87.79689025878906 174.91575622558594 86.73136138916016 179.4872589111328 86.78350067138672" stroke-width="3.0" fill="none" stroke="rgb(0, 0, 0)" stroke-opacity="1.0" stroke-linecap="round" stroke-linejoin="round"/>
    <path d="M 91.00003814697266 83.00011444091797 C 88.55701446533203 85.86519622802734 91.88189697265625 83.07086944580078 94.47154998779297 90.477783203125" stroke-width="3.0" fill="none" stroke="rgb(0, 0, 0)" stroke-opacity="1.0" stroke-linecap="round" stroke-linejoin="round"/>
    <path d="M 111.00003814697266 81.99994659423828 C 116.47412109375 84.50460052490234 114.3480453491211 87.07843017578125 116.8150863647461 89.13912200927734" stroke-width="3.0" fill="none" stroke="rgb(0, 0, 0)" stroke-opacity="1.0" stroke-linecap="round" stroke-linejoin="round"/>
    <path d="M 167.9999542236328 73.0000991821289 C 167.6876678466797 70.52742004394531 164.95089721679688 71.76962280273438 171.576416015625 76.99571228027344" stroke-width="3.0" fill="none" stroke="rgb(0, 0, 0)" stroke-opacity="1.0" stroke-linecap="round" stroke-linejoin="round"/>
    <path d="M 123.0000228881836 86.99996185302734 C 122.74256896972656 91.09124755859375 122.05995178222656 94.5076904296875 122.60541534423828 87.06510162353516" stroke-width="3.0" fill="none" stroke="rgb(0, 0, 0)" stroke-opacity="1.0" stroke-linecap="round" stroke-linejoin="round"/>
    <path d="M 146.0002899169922 74.0001449584961 C 148.46376037597656 74.86663818359375 153.93267822265625 74.75115966796875 146.51339721679688 74.67826843261719" stroke-width="3.0" fill="none" stroke="rgb(0, 0, 0)" stroke-opacity="1.0" stroke-linecap="round" stroke-linejoin="round"/>
    <path d="M 114.00006866455078 109.00006866455078 C 120.11517333984375 108.126708984375 118.15907287597656 112.28070068359375 114.69935607910156 113.03714752197266" stroke-width="3.0" fill="none" stroke="rgb(0, 0, 0)" stroke-opacity="1.0" stroke-linecap="round" stroke-linejoin="round"/>
    <path d="M 115.00003814697266 163.00001525878906 C 112.0725326538086 168.2365264892578 117.46756744384766 167.65379333496094 112.76907348632812 167.6383056640625" stroke-width="3.0" fill="none" stroke="rgb(0, 0, 0)" stroke-opacity="1.0" stroke-linecap="round" stroke-linejoin="round"/>
    <path d="M 128.9998779296875 71.00004577636719 C 129.08885192871094 77.84747314453125 122.71163177490234 76.42245483398438 125.02421569824219 76.95374298095703" stroke-width="3.0" fill="none" stroke="rgb(0, 0, 0)" stroke-opacity="1.0" stroke-linecap="round" stroke-linejoin="round"/>
    <path d="M 129.00006103515625 94.9979476928711 C 134.5214385986328 93.4512939453125 139.7159881591797 96.60663604736328 140.6981964111328 95.99070739746094" stroke-width="3.0" fill="none" stroke="rgb(0, 0, 0)" stroke-opacity="1.0" stroke-linecap="round" stroke-linejoin="round"/>
    <path d="M 126.99992370605469 79.00001525878906 C 126.07852172851562 77.71128845214844 126.92578887939453 77.36243438720703 123.44839477539062 73.85387420654297" stroke-width="3.0" fill="none" stroke="rgb(0, 0, 0)" stroke-opacity="1.0" stroke-linecap="round" stroke-linejoin="round"/>
    <path d="M 129.00006103515625 82.99992370605469 C 132.26075744628906 82.76228332519531 130.00155639648438 80.15972900390625 132.8854217529297 82.38059997558594" stroke-width="3.0" fill="none" stroke="rgb(0, 0, 0)" stroke-opacity="1.0" stroke-linecap="round" stroke-linejoin="round"/>
    <path d="M 116.9999771118164 131.0000457763672 C 119.74195861816406 136.83546447753906 124.2015380859375 141.57388305664062 126.65596771240234 138.35662841796875" stroke-width="3.0" fill="none" stroke="rgb(0, 0, 0)" stroke-opacity="1.0" stroke-linecap="round" stroke-linejoin="round"/>
    <path d="M 135.0000457763672 47.00000762939453 C 137.29925537109375 44.48713302612305 140.78961181640625 48.40287780761719 145.21392822265625 51.40702819824219" stroke-width="3.0" fill="none" stroke="rgb(0, 0, 0)" stroke-opacity="1.0" stroke-linecap="round" stroke-linejoin="round"/>
    <path d="M 123.99946594238281 49.00009536743164 C 127.0374984741211 51.89249801635742 126.48374938964844 53.6872673034668 134.04168701171875 58.35684585571289" stroke-width="3.0" fill="none" stroke="rgb(0, 0, 0)" stroke-opacity="1.0" stroke-linecap="round" stroke-linejoin="round"/>
  </g>
</svg>
