<?xml version="1.0" ?>
<svg xmlns="http://www.w3.org/2000/svg" version="1.1" width="224" height="224">
  <defs/>
  <g>
    <path d="M 177.5640106201172 93.58482360839844 C 162.47999572753906 85.8241195678711 46.96033477783203 105.3874740600586 135.70944213867188 85.60516357421875" stroke-width="3.0" fill="none" stroke="rgb(0, 0, 0)" stroke-opacity="1.0" stroke-linecap="round" stroke-linejoin="round"/>
    <path d="M 182.80276489257812 98.28762817382812 C 173.77378845214844 95.42581939697266 203.76492309570312 88.68159484863281 135.15089416503906 120.48716735839844" stroke-width="3.0" fill="none" stroke="rgb(0, 0, 0)" stroke-opacity="1.0" stroke-linecap="round" stroke-linejoin="round"/>
    <path d="M 58.31924819946289 40.836669921875 C 12.933974266052246 22.905723571777344 69.70366668701172 125.5150146484375 83.28663635253906 67.52291870117188" stroke-width="3.0" fill="none" stroke="rgb(0, 0, 0)" stroke-opacity="1.0" stroke-linecap="round" stroke-linejoin="round"/>
    <path d="M 96.79325866699219 66.657958984375 C 152.961181640625 64.51399230957031 205.58837890625 94.5479736328125 98.90119171142578 82.1178207397461" stroke-width="3.0" fill="none" stroke="rgb(0, 0, 0)" stroke-opacity="1.0" stroke-linecap="round" stroke-linejoin="round"/>
    <path d="M 134.44847106933594 72.04243469238281 C 205.75753784179688 99.9815673828125 168.27548217773438 100.09884643554688 180.82960510253906 95.93560791015625" stroke-width="3.0" fill="none" stroke="rgb(0, 0, 0)" stroke-opacity="1.0" stroke-linecap="round" stroke-linejoin="round"/>
    <path d="M 104.26731872558594 52.499000549316406 C 106.4554672241211 57.43505096435547 38.13198471069336 145.73495483398438 72.38397216796875 92.10101318359375" stroke-width="3.0" fill="none" stroke="rgb(0, 0, 0)" stroke-opacity="1.0" stroke-linecap="round" stroke-linejoin="round"/>
    <path d="M 144.05789184570312 83.72599792480469 C 8.232325553894043 72.3227767944336 154.55125427246094 28.746639251708984 189.5482940673828 96.9507064819336" stroke-width="3.0" fill="none" stroke="rgb(0, 0, 0)" stroke-opacity="1.0" stroke-linecap="round" stroke-linejoin="round"/>
    <path d="M 89.4048080444336 81.13733673095703 C 118.50402069091797 110.972412109375 116.29586791992188 69.40611267089844 121.6322021484375 145.7081298828125" stroke-width="3.0" fill="none" stroke="rgb(0, 0, 0)" stroke-opacity="1.0" stroke-linecap="round" stroke-linejoin="round"/>
    <path d="M 130.44036865234375 93.05960845947266 C 112.37229919433594 202.63768005371094 129.32391357421875 92.45909881591797 105.10185241699219 205.32861328125" stroke-width="3.0" fill="none" stroke="rgb(0, 0, 0)" stroke-opacity="1.0" stroke-linecap="round" stroke-linejoin="round"/>
    <path d="M 152.06272888183594 60.83260726928711 C 137.96986389160156 48.23969650268555 91.24279022216797 21.839038848876953 83.56631469726562 84.57417297363281" stroke-width="3.0" fill="none" stroke="rgb(0, 0, 0)" stroke-opacity="1.0" stroke-linecap="round" stroke-linejoin="round"/>
    <path d="M 94.21198272705078 58.49584197998047 C 138.3120880126953 32.115440368652344 140.49392700195312 54.75920104980469 168.715087890625 83.32074737548828" stroke-width="3.0" fill="none" stroke="rgb(0, 0, 0)" stroke-opacity="1.0" stroke-linecap="round" stroke-linejoin="round"/>
    <path d="M 156.84291076660156 78.97349548339844 C 159.30250549316406 82.8404541015625 250.03622436523438 123.09855651855469 140.98043823242188 57.87709426879883" stroke-width="3.0" fill="none" stroke="rgb(0, 0, 0)" stroke-opacity="1.0" stroke-linecap="round" stroke-linejoin="round"/>
    <path d="M 142.28564453125 80.20132446289062 C 183.13693237304688 99.02915954589844 176.5572967529297 70.48684692382812 133.45550537109375 73.89422607421875" stroke-width="3.0" fill="none" stroke="rgb(0, 0, 0)" stroke-opacity="1.0" stroke-linecap="round" stroke-linejoin="round"/>
    <path d="M 125.94310760498047 122.579345703125 C 148.62875366210938 150.93557739257812 138.8510284423828 102.0029067993164 116.59750366210938 145.49461364746094" stroke-width="3.0" fill="none" stroke="rgb(0, 0, 0)" stroke-opacity="1.0" stroke-linecap="round" stroke-linejoin="round"/>
    <path d="M 123.54150390625 76.86546325683594 C 178.6262664794922 97.72306060791016 150.70286560058594 46.40991973876953 147.59576416015625 60.257686614990234" stroke-width="3.0" fill="none" stroke="rgb(0, 0, 0)" stroke-opacity="1.0" stroke-linecap="round" stroke-linejoin="round"/>
    <path d="M 141.4529266357422 67.9992904663086 C 91.92668151855469 49.60834503173828 171.84690856933594 69.37091064453125 130.5642852783203 53.644569396972656" stroke-width="3.0" fill="none" stroke="rgb(0, 0, 0)" stroke-opacity="1.0" stroke-linecap="round" stroke-linejoin="round"/>
  </g>
</svg>
