<?xml version="1.0" ?>
<svg xmlns="http://www.w3.org/2000/svg" version="1.1" width="224" height="224">
  <defs/>
  <g>
    <path d="M 157.96461486816406 73.4605941772461 C 143.5713348388672 92.50470733642578 118.62907409667969 101.26425170898438 138.0744171142578 91.61238098144531" stroke-width="3.0" fill="none" stroke="rgb(0, 0, 0)" stroke-opacity="1.0" stroke-linecap="round" stroke-linejoin="round"/>
    <path d="M 179.0600128173828 98.50658416748047 C 185.51963806152344 86.2606201171875 191.9056396484375 95.15020751953125 162.10548400878906 107.82080841064453" stroke-width="3.0" fill="none" stroke="rgb(0, 0, 0)" stroke-opacity="1.0" stroke-linecap="round" stroke-linejoin="round"/>
    <path d="M 67.41590881347656 45.00327682495117 C 38.58436965942383 90.6366195678711 70.0400619506836 120.81842041015625 101.22327423095703 85.45951080322266" stroke-width="3.0" fill="none" stroke="rgb(0, 0, 0)" stroke-opacity="1.0" stroke-linecap="round" stroke-linejoin="round"/>
    <path d="M 116.0338363647461 95.21459197998047 C 113.98939514160156 94.53451538085938 155.63348388671875 93.65104675292969 98.3896484375 100.67925262451172" stroke-width="3.0" fill="none" stroke="rgb(0, 0, 0)" stroke-opacity="1.0" stroke-linecap="round" stroke-linejoin="round"/>
    <path d="M 183.04493713378906 97.38819122314453 C 201.75978088378906 88.41197204589844 199.99893188476562 94.92498779296875 199.95001220703125 91.01860046386719" stroke-width="3.0" fill="none" stroke="rgb(0, 0, 0)" stroke-opacity="1.0" stroke-linecap="round" stroke-linejoin="round"/>
    <path d="M 134.18490600585938 49.61324691772461 C 132.79083251953125 103.2293701171875 89.27249145507812 121.16734313964844 117.31814575195312 72.48006439208984" stroke-width="3.0" fill="none" stroke="rgb(0, 0, 0)" stroke-opacity="1.0" stroke-linecap="round" stroke-linejoin="round"/>
    <path d="M 140.7668914794922 56.7559814453125 C 161.08804321289062 73.25839233398438 141.82948303222656 50.223777770996094 158.0145721435547 65.5663070678711" stroke-width="3.0" fill="none" stroke="rgb(0, 0, 0)" stroke-opacity="1.0" stroke-linecap="round" stroke-linejoin="round"/>
    <path d="M 81.33086395263672 102.49336242675781 C 125.65225982666016 90.70416259765625 109.86709594726562 98.710693359375 125.24517059326172 129.19171142578125" stroke-width="3.0" fill="none" stroke="rgb(0, 0, 0)" stroke-opacity="1.0" stroke-linecap="round" stroke-linejoin="round"/>
    <path d="M 132.1859130859375 129.72894287109375 C 113.91482543945312 164.26690673828125 132.21104431152344 130.92335510253906 104.96729278564453 203.85061645507812" stroke-width="3.0" fill="none" stroke="rgb(0, 0, 0)" stroke-opacity="1.0" stroke-linecap="round" stroke-linejoin="round"/>
    <path d="M 120.22564697265625 53.52238082885742 C 147.25289916992188 64.17692565917969 109.90553283691406 52.774559020996094 89.47364044189453 97.32997131347656" stroke-width="3.0" fill="none" stroke="rgb(0, 0, 0)" stroke-opacity="1.0" stroke-linecap="round" stroke-linejoin="round"/>
    <path d="M 130.42816162109375 92.24617767333984 C 149.65667724609375 75.937255859375 121.78023529052734 68.65203094482422 152.30465698242188 65.38099670410156" stroke-width="3.0" fill="none" stroke="rgb(0, 0, 0)" stroke-opacity="1.0" stroke-linecap="round" stroke-linejoin="round"/>
    <path d="M 152.30572509765625 65.59854125976562 C 133.95834350585938 89.17645263671875 144.0487060546875 109.411865234375 150.0599365234375 64.41339874267578" stroke-width="3.0" fill="none" stroke="rgb(0, 0, 0)" stroke-opacity="1.0" stroke-linecap="round" stroke-linejoin="round"/>
    <path d="M 131.4081573486328 67.3935317993164 C 126.25607299804688 85.67498779296875 133.7085418701172 50.807769775390625 148.92068481445312 54.045013427734375" stroke-width="3.0" fill="none" stroke="rgb(0, 0, 0)" stroke-opacity="1.0" stroke-linecap="round" stroke-linejoin="round"/>
    <path d="M 116.94105529785156 134.217529296875 C 125.3924789428711 144.7733154296875 125.97686767578125 116.52930450439453 113.8603744506836 136.52890014648438" stroke-width="3.0" fill="none" stroke="rgb(0, 0, 0)" stroke-opacity="1.0" stroke-linecap="round" stroke-linejoin="round"/>
    <path d="M 134.20079040527344 49.29850387573242 C 149.17477416992188 58.35016632080078 140.91029357910156 46.66893768310547 150.01593017578125 64.56932067871094" stroke-width="3.0" fill="none" stroke="rgb(0, 0, 0)" stroke-opacity="1.0" stroke-linecap="round" stroke-linejoin="round"/>
    <path d="M 126.43121337890625 54.11223220825195 C 122.94547271728516 56.62699890136719 154.2935791015625 38.3868522644043 144.19769287109375 62.922969818115234" stroke-width="3.0" fill="none" stroke="rgb(0, 0, 0)" stroke-opacity="1.0" stroke-linecap="round" stroke-linejoin="round"/>
  </g>
</svg>
