<?xml version="1.0" ?>
<svg xmlns="http://www.w3.org/2000/svg" version="1.1" width="224" height="224">
  <defs/>
  <g>
    <path d="M 162.49110412597656 86.65571594238281 C 138.522216796875 84.76985168457031 102.41989135742188 91.48899841308594 148.13502502441406 80.09013366699219" stroke-width="3.0" fill="none" stroke="rgb(0, 0, 0)" stroke-opacity="1.0" stroke-linecap="round" stroke-linejoin="round"/>
    <path d="M 181.12112426757812 94.1680908203125 C 167.25709533691406 95.14167022705078 191.9473419189453 88.75650024414062 163.55447387695312 107.90362548828125" stroke-width="3.0" fill="none" stroke="rgb(0, 0, 0)" stroke-opacity="1.0" stroke-linecap="round" stroke-linejoin="round"/>
    <path d="M 47.46815872192383 40.88970947265625 C 4.846351146697998 75.04367065429688 83.70387268066406 121.2013168334961 77.69649505615234 69.06285095214844" stroke-width="3.0" fill="none" stroke="rgb(0, 0, 0)" stroke-opacity="1.0" stroke-linecap="round" stroke-linejoin="round"/>
    <path d="M 116.09305572509766 76.79071807861328 C 128.44300842285156 77.71111297607422 172.8314971923828 88.24221801757812 90.40422821044922 90.21876525878906" stroke-width="3.0" fill="none" stroke="rgb(0, 0, 0)" stroke-opacity="1.0" stroke-linecap="round" stroke-linejoin="round"/>
    <path d="M 171.4744110107422 90.77145385742188 C 208.81468200683594 104.6366958618164 174.44900512695312 97.79002380371094 184.32070922851562 97.00225830078125" stroke-width="3.0" fill="none" stroke="rgb(0, 0, 0)" stroke-opacity="1.0" stroke-linecap="round" stroke-linejoin="round"/>
    <path d="M 151.4805145263672 61.90100860595703 C 113.53044891357422 72.11270141601562 44.27034378051758 94.64927673339844 97.1473617553711 55.49486541748047" stroke-width="3.0" fill="none" stroke="rgb(0, 0, 0)" stroke-opacity="1.0" stroke-linecap="round" stroke-linejoin="round"/>
    <path d="M 140.70042419433594 61.20901870727539 C 147.10739135742188 80.2367935180664 137.08201599121094 42.37303924560547 191.1718292236328 96.90740203857422" stroke-width="3.0" fill="none" stroke="rgb(0, 0, 0)" stroke-opacity="1.0" stroke-linecap="round" stroke-linejoin="round"/>
    <path d="M 80.2211685180664 85.85193634033203 C 122.76533508300781 96.3111343383789 107.30427551269531 89.95702362060547 125.83866119384766 135.45465087890625" stroke-width="3.0" fill="none" stroke="rgb(0, 0, 0)" stroke-opacity="1.0" stroke-linecap="round" stroke-linejoin="round"/>
    <path d="M 139.27581787109375 125.521484375 C 119.59795379638672 173.10299682617188 133.42906188964844 110.5380859375 105.15791320800781 204.48121643066406" stroke-width="3.0" fill="none" stroke="rgb(0, 0, 0)" stroke-opacity="1.0" stroke-linecap="round" stroke-linejoin="round"/>
    <path d="M 133.58177185058594 52.366641998291016 C 141.60462951660156 51.10572052001953 79.76520538330078 23.13739013671875 64.47228240966797 81.59469604492188" stroke-width="3.0" fill="none" stroke="rgb(0, 0, 0)" stroke-opacity="1.0" stroke-linecap="round" stroke-linejoin="round"/>
    <path d="M 112.31185150146484 77.38803100585938 C 147.242919921875 52.1744384765625 112.603759765625 74.30829620361328 174.9980010986328 90.62814331054688" stroke-width="3.0" fill="none" stroke="rgb(0, 0, 0)" stroke-opacity="1.0" stroke-linecap="round" stroke-linejoin="round"/>
    <path d="M 173.8733673095703 85.47496032714844 C 146.19284057617188 74.95419311523438 169.17852783203125 89.22024536132812 149.8583526611328 75.76336669921875" stroke-width="3.0" fill="none" stroke="rgb(0, 0, 0)" stroke-opacity="1.0" stroke-linecap="round" stroke-linejoin="round"/>
    <path d="M 144.65447998046875 60.55146026611328 C 143.57562255859375 74.66813659667969 151.31431579589844 58.195255279541016 147.30917358398438 60.86465835571289" stroke-width="3.0" fill="none" stroke="rgb(0, 0, 0)" stroke-opacity="1.0" stroke-linecap="round" stroke-linejoin="round"/>
    <path d="M 126.94305419921875 136.3918914794922 C 131.32762145996094 143.78094482421875 126.98762512207031 110.80280303955078 116.87919616699219 145.4121856689453" stroke-width="3.0" fill="none" stroke="rgb(0, 0, 0)" stroke-opacity="1.0" stroke-linecap="round" stroke-linejoin="round"/>
    <path d="M 143.95790100097656 62.93803405761719 C 166.1951141357422 63.97247314453125 135.80242919921875 52.057701110839844 151.3209991455078 67.50511932373047" stroke-width="3.0" fill="none" stroke="rgb(0, 0, 0)" stroke-opacity="1.0" stroke-linecap="round" stroke-linejoin="round"/>
    <path d="M 138.9708709716797 49.90586471557617 C 125.77682495117188 54.69704055786133 156.8504180908203 51.64927673339844 145.8120574951172 64.6009750366211" stroke-width="3.0" fill="none" stroke="rgb(0, 0, 0)" stroke-opacity="1.0" stroke-linecap="round" stroke-linejoin="round"/>
  </g>
</svg>
