<?xml version="1.0" ?>
<svg xmlns="http://www.w3.org/2000/svg" version="1.1" width="224" height="224">
  <defs/>
  <g>
    <path d="M 182.62957763671875 97.46137237548828 C 179.43942260742188 77.02689361572266 35.964359283447266 92.67280578613281 118.77825164794922 72.35796356201172" stroke-width="3.0" fill="none" stroke="rgb(0, 0, 0)" stroke-opacity="1.0" stroke-linecap="round" stroke-linejoin="round"/>
    <path d="M 188.21072387695312 97.7088394165039 C 180.78477478027344 99.53511047363281 205.65277099609375 88.28035736083984 131.61788940429688 121.64673614501953" stroke-width="3.0" fill="none" stroke="rgb(0, 0, 0)" stroke-opacity="1.0" stroke-linecap="round" stroke-linejoin="round"/>
    <path d="M 58.21378707885742 38.971195220947266 C 8.495414733886719 22.79599952697754 76.25882720947266 144.5601806640625 86.97371673583984 61.655635833740234" stroke-width="3.0" fill="none" stroke="rgb(0, 0, 0)" stroke-opacity="1.0" stroke-linecap="round" stroke-linejoin="round"/>
    <path d="M 91.50367736816406 61.97092056274414 C 153.3341827392578 59.84279251098633 200.98379516601562 109.90867614746094 110.76970672607422 75.65694427490234" stroke-width="3.0" fill="none" stroke="rgb(0, 0, 0)" stroke-opacity="1.0" stroke-linecap="round" stroke-linejoin="round"/>
    <path d="M 130.3363037109375 66.80337524414062 C 205.81040954589844 98.39685821533203 168.60166931152344 78.10953521728516 170.9115447998047 83.54841613769531" stroke-width="3.0" fill="none" stroke="rgb(0, 0, 0)" stroke-opacity="1.0" stroke-linecap="round" stroke-linejoin="round"/>
    <path d="M 107.40714263916016 53.542762756347656 C 123.82563018798828 71.29769134521484 54.407108306884766 143.4735107421875 85.21056365966797 110.2116470336914" stroke-width="3.0" fill="none" stroke="rgb(0, 0, 0)" stroke-opacity="1.0" stroke-linecap="round" stroke-linejoin="round"/>
    <path d="M 158.20762634277344 78.07785034179688 C 3.10654354095459 58.67791748046875 151.79115295410156 26.03543472290039 190.35440063476562 94.61041259765625" stroke-width="3.0" fill="none" stroke="rgb(0, 0, 0)" stroke-opacity="1.0" stroke-linecap="round" stroke-linejoin="round"/>
    <path d="M 91.4658203125 65.96725463867188 C 117.61962127685547 112.84423828125 112.54459381103516 63.30708312988281 121.09262084960938 144.06161499023438" stroke-width="3.0" fill="none" stroke="rgb(0, 0, 0)" stroke-opacity="1.0" stroke-linecap="round" stroke-linejoin="round"/>
    <path d="M 124.26213836669922 91.61227416992188 C 118.88236999511719 204.29495239257812 130.25656127929688 94.94841003417969 104.08984375 206.88694763183594" stroke-width="3.0" fill="none" stroke="rgb(0, 0, 0)" stroke-opacity="1.0" stroke-linecap="round" stroke-linejoin="round"/>
    <path d="M 154.8121795654297 61.5984001159668 C 140.9257354736328 47.547969818115234 105.517333984375 23.286767959594727 82.8989028930664 80.0509262084961" stroke-width="3.0" fill="none" stroke="rgb(0, 0, 0)" stroke-opacity="1.0" stroke-linecap="round" stroke-linejoin="round"/>
    <path d="M 96.76822662353516 72.22281646728516 C 131.40675354003906 20.717947006225586 135.7564697265625 53.41086196899414 162.957275390625 88.3757553100586" stroke-width="3.0" fill="none" stroke="rgb(0, 0, 0)" stroke-opacity="1.0" stroke-linecap="round" stroke-linejoin="round"/>
    <path d="M 153.81777954101562 65.25511932373047 C 164.13201904296875 78.4673843383789 238.6105499267578 121.35973358154297 139.53065490722656 62.559844970703125" stroke-width="3.0" fill="none" stroke="rgb(0, 0, 0)" stroke-opacity="1.0" stroke-linecap="round" stroke-linejoin="round"/>
    <path d="M 158.59951782226562 70.19055938720703 C 197.23500061035156 96.52803039550781 170.47402954101562 84.69710540771484 116.23490905761719 55.781028747558594" stroke-width="3.0" fill="none" stroke="rgb(0, 0, 0)" stroke-opacity="1.0" stroke-linecap="round" stroke-linejoin="round"/>
    <path d="M 123.07259368896484 120.76353454589844 C 140.50999450683594 148.90696716308594 135.6501007080078 100.2013168334961 116.55301666259766 150.01449584960938" stroke-width="3.0" fill="none" stroke="rgb(0, 0, 0)" stroke-opacity="1.0" stroke-linecap="round" stroke-linejoin="round"/>
    <path d="M 96.12142181396484 87.6751937866211 C 185.03538513183594 103.98524475097656 156.78224182128906 51.928951263427734 146.2872772216797 81.3154296875" stroke-width="3.0" fill="none" stroke="rgb(0, 0, 0)" stroke-opacity="1.0" stroke-linecap="round" stroke-linejoin="round"/>
    <path d="M 147.65151977539062 81.11701202392578 C 48.750938415527344 44.57554244995117 172.1122589111328 71.8422622680664 122.1148681640625 48.086517333984375" stroke-width="3.0" fill="none" stroke="rgb(0, 0, 0)" stroke-opacity="1.0" stroke-linecap="round" stroke-linejoin="round"/>
  </g>
</svg>
