<?xml version="1.0" ?>
<svg xmlns="http://www.w3.org/2000/svg" version="1.1" width="224" height="224">
  <defs/>
  <g>
    <path d="M 182.8275604248047 98.59539794921875 C 149.96104431152344 77.48626708984375 58.654178619384766 89.1997299194336 136.93931579589844 71.39180755615234" stroke-width="3.0" fill="none" stroke="rgb(0, 0, 0)" stroke-opacity="1.0" stroke-linecap="round" stroke-linejoin="round"/>
    <path d="M 189.018310546875 97.21287536621094 C 181.40480041503906 93.86618041992188 199.81199645996094 88.83299255371094 131.28709411621094 120.7206039428711" stroke-width="3.0" fill="none" stroke="rgb(0, 0, 0)" stroke-opacity="1.0" stroke-linecap="round" stroke-linejoin="round"/>
    <path d="M 54.35295867919922 42.0473747253418 C 3.9449243545532227 36.36362075805664 66.28307342529297 128.43402099609375 71.36945343017578 64.74261474609375" stroke-width="3.0" fill="none" stroke="rgb(0, 0, 0)" stroke-opacity="1.0" stroke-linecap="round" stroke-linejoin="round"/>
    <path d="M 103.7807388305664 62.454322814941406 C 151.1966552734375 60.49694061279297 200.35487365722656 77.84867095947266 97.04119873046875 81.63409423828125" stroke-width="3.0" fill="none" stroke="rgb(0, 0, 0)" stroke-opacity="1.0" stroke-linecap="round" stroke-linejoin="round"/>
    <path d="M 153.58132934570312 75.23812103271484 C 208.245361328125 100.67853546142578 163.58877563476562 103.0162582397461 187.16075134277344 97.56127166748047" stroke-width="3.0" fill="none" stroke="rgb(0, 0, 0)" stroke-opacity="1.0" stroke-linecap="round" stroke-linejoin="round"/>
    <path d="M 135.62974548339844 51.65239715576172 C 100.28890228271484 56.809574127197266 33.05997085571289 123.52364349365234 68.97119140625 73.10797119140625" stroke-width="3.0" fill="none" stroke="rgb(0, 0, 0)" stroke-opacity="1.0" stroke-linecap="round" stroke-linejoin="round"/>
    <path d="M 152.70741271972656 80.08280944824219 C 61.17041015625 55.58351516723633 151.7967071533203 40.351417541503906 190.17369079589844 94.18620300292969" stroke-width="3.0" fill="none" stroke="rgb(0, 0, 0)" stroke-opacity="1.0" stroke-linecap="round" stroke-linejoin="round"/>
    <path d="M 83.62454223632812 69.96808624267578 C 124.41664123535156 94.36090087890625 114.13988494873047 87.91313934326172 116.92037963867188 145.24224853515625" stroke-width="3.0" fill="none" stroke="rgb(0, 0, 0)" stroke-opacity="1.0" stroke-linecap="round" stroke-linejoin="round"/>
    <path d="M 129.2301788330078 84.37214660644531 C 109.30130767822266 204.57398986816406 122.69854736328125 94.8001480102539 107.6254653930664 202.4959259033203" stroke-width="3.0" fill="none" stroke="rgb(0, 0, 0)" stroke-opacity="1.0" stroke-linecap="round" stroke-linejoin="round"/>
    <path d="M 131.7980499267578 49.88905715942383 C 142.0870819091797 51.33462142944336 82.42476654052734 27.428972244262695 75.68663787841797 82.06379699707031" stroke-width="3.0" fill="none" stroke="rgb(0, 0, 0)" stroke-opacity="1.0" stroke-linecap="round" stroke-linejoin="round"/>
    <path d="M 107.40165710449219 55.2735595703125 C 148.49981689453125 36.46286392211914 138.9713897705078 57.25725555419922 174.6481170654297 84.31394958496094" stroke-width="3.0" fill="none" stroke="rgb(0, 0, 0)" stroke-opacity="1.0" stroke-linecap="round" stroke-linejoin="round"/>
    <path d="M 154.99208068847656 81.43836975097656 C 142.77938842773438 76.2184066772461 215.71583557128906 116.38949584960938 148.52650451660156 66.20685577392578" stroke-width="3.0" fill="none" stroke="rgb(0, 0, 0)" stroke-opacity="1.0" stroke-linecap="round" stroke-linejoin="round"/>
    <path d="M 155.86221313476562 72.38863372802734 C 170.7442626953125 92.06157684326172 160.5860137939453 78.1404800415039 138.566162109375 67.02588653564453" stroke-width="3.0" fill="none" stroke="rgb(0, 0, 0)" stroke-opacity="1.0" stroke-linecap="round" stroke-linejoin="round"/>
    <path d="M 122.96989440917969 127.633056640625 C 143.5132293701172 170.4364013671875 138.35548400878906 116.15412139892578 112.80581665039062 148.5622100830078" stroke-width="3.0" fill="none" stroke="rgb(0, 0, 0)" stroke-opacity="1.0" stroke-linecap="round" stroke-linejoin="round"/>
    <path d="M 142.83901977539062 74.83881378173828 C 188.17568969726562 91.58126068115234 143.8188018798828 59.27460479736328 153.12501525878906 65.4355697631836" stroke-width="3.0" fill="none" stroke="rgb(0, 0, 0)" stroke-opacity="1.0" stroke-linecap="round" stroke-linejoin="round"/>
    <path d="M 137.89376831054688 62.611595153808594 C 115.1233139038086 45.718868255615234 150.3356475830078 68.32769775390625 132.2105255126953 56.68778991699219" stroke-width="3.0" fill="none" stroke="rgb(0, 0, 0)" stroke-opacity="1.0" stroke-linecap="round" stroke-linejoin="round"/>
  </g>
</svg>
