<?xml version="1.0" ?>
<svg xmlns="http://www.w3.org/2000/svg" version="1.1" width="224" height="224">
  <defs/>
  <g>
    <path d="M 131.97520446777344 84.87763977050781 C 140.7470703125 84.68992614746094 120.33421325683594 103.88631439208984 126.5162582397461 80.16254425048828" stroke-width="3.0" fill="none" stroke="rgb(0, 0, 0)" stroke-opacity="1.0" stroke-linecap="round" stroke-linejoin="round"/>
    <path d="M 183.37210083007812 100.9507827758789 C 175.5589141845703 85.62228393554688 174.99505615234375 88.66947174072266 179.46617126464844 103.7614517211914" stroke-width="3.0" fill="none" stroke="rgb(0, 0, 0)" stroke-opacity="1.0" stroke-linecap="round" stroke-linejoin="round"/>
    <path d="M 66.81063079833984 41.17962646484375 C 40.70479202270508 84.0237045288086 69.85043334960938 115.64532470703125 94.92662811279297 94.39630126953125" stroke-width="3.0" fill="none" stroke="rgb(0, 0, 0)" stroke-opacity="1.0" stroke-linecap="round" stroke-linejoin="round"/>
    <path d="M 103.31074523925781 90.82271575927734 C 109.49464416503906 97.03681182861328 133.67311096191406 86.27368927001953 112.76688385009766 90.26243591308594" stroke-width="3.0" fill="none" stroke="rgb(0, 0, 0)" stroke-opacity="1.0" stroke-linecap="round" stroke-linejoin="round"/>
    <path d="M 176.64808654785156 90.09368133544922 C 180.2599334716797 76.44769287109375 173.77825927734375 70.55894470214844 179.8688201904297 83.46088409423828" stroke-width="3.0" fill="none" stroke="rgb(0, 0, 0)" stroke-opacity="1.0" stroke-linecap="round" stroke-linejoin="round"/>
    <path d="M 126.60765838623047 76.19467163085938 C 134.99127197265625 97.92830657958984 116.53941345214844 92.33497619628906 123.93415832519531 82.7203369140625" stroke-width="3.0" fill="none" stroke="rgb(0, 0, 0)" stroke-opacity="1.0" stroke-linecap="round" stroke-linejoin="round"/>
    <path d="M 142.66551208496094 58.69377899169922 C 158.4161376953125 68.65630340576172 146.82615661621094 51.36779022216797 152.1094512939453 66.37603759765625" stroke-width="3.0" fill="none" stroke="rgb(0, 0, 0)" stroke-opacity="1.0" stroke-linecap="round" stroke-linejoin="round"/>
    <path d="M 96.10213470458984 96.83672332763672 C 116.88861083984375 94.47356414794922 114.41065979003906 103.70718383789062 120.47504425048828 132.09336853027344" stroke-width="3.0" fill="none" stroke="rgb(0, 0, 0)" stroke-opacity="1.0" stroke-linecap="round" stroke-linejoin="round"/>
    <path d="M 122.43728637695312 139.79629516601562 C 117.30735778808594 154.2257080078125 121.06977844238281 138.9081573486328 104.59214782714844 204.97865295410156" stroke-width="3.0" fill="none" stroke="rgb(0, 0, 0)" stroke-opacity="1.0" stroke-linecap="round" stroke-linejoin="round"/>
    <path d="M 123.01486206054688 54.64802551269531 C 129.48680114746094 74.54653930664062 122.2494125366211 68.00836181640625 116.73922729492188 83.64996337890625" stroke-width="3.0" fill="none" stroke="rgb(0, 0, 0)" stroke-opacity="1.0" stroke-linecap="round" stroke-linejoin="round"/>
    <path d="M 145.12979125976562 90.28018951416016 C 154.0779571533203 89.21666717529297 135.28428649902344 95.85433197021484 151.350341796875 81.6874771118164" stroke-width="3.0" fill="none" stroke="rgb(0, 0, 0)" stroke-opacity="1.0" stroke-linecap="round" stroke-linejoin="round"/>
    <path d="M 145.24270629882812 68.80036926269531 C 128.61038208007812 90.38882446289062 130.86026000976562 102.14584350585938 132.9273223876953 80.44076538085938" stroke-width="3.0" fill="none" stroke="rgb(0, 0, 0)" stroke-opacity="1.0" stroke-linecap="round" stroke-linejoin="round"/>
    <path d="M 138.37681579589844 67.7444076538086 C 135.9108428955078 93.45082092285156 138.93389892578125 61.23370361328125 133.81228637695312 72.72510528564453" stroke-width="3.0" fill="none" stroke="rgb(0, 0, 0)" stroke-opacity="1.0" stroke-linecap="round" stroke-linejoin="round"/>
    <path d="M 121.08390045166016 130.46487426757812 C 130.49069213867188 149.92337036132812 127.12226867675781 110.57855224609375 116.44639587402344 136.96682739257812" stroke-width="3.0" fill="none" stroke="rgb(0, 0, 0)" stroke-opacity="1.0" stroke-linecap="round" stroke-linejoin="round"/>
    <path d="M 130.50254821777344 52.600608825683594 C 130.49673461914062 60.40422058105469 133.18429565429688 49.80916976928711 145.10629272460938 59.01406478881836" stroke-width="3.0" fill="none" stroke="rgb(0, 0, 0)" stroke-opacity="1.0" stroke-linecap="round" stroke-linejoin="round"/>
    <path d="M 117.49266052246094 52.801780700683594 C 126.74967956542969 58.68659973144531 125.77176666259766 46.54576873779297 138.49024963378906 65.13166809082031" stroke-width="3.0" fill="none" stroke="rgb(0, 0, 0)" stroke-opacity="1.0" stroke-linecap="round" stroke-linejoin="round"/>
  </g>
</svg>
