<?xml version="1.0" ?>
<svg xmlns="http://www.w3.org/2000/svg" version="1.1" width="224" height="224">
  <defs/>
  <g>
    <path d="M 153.18055725097656 69.65623474121094 C 147.83277893066406 92.80867004394531 117.3321762084961 90.32953643798828 143.95028686523438 88.18983459472656" stroke-width="3.0" fill="none" stroke="rgb(0, 0, 0)" stroke-opacity="1.0" stroke-linecap="round" stroke-linejoin="round"/>
    <path d="M 174.02011108398438 98.27897644042969 C 178.12159729003906 79.93916320800781 195.1184539794922 98.46160125732422 158.60577392578125 108.76056671142578" stroke-width="3.0" fill="none" stroke="rgb(0, 0, 0)" stroke-opacity="1.0" stroke-linecap="round" stroke-linejoin="round"/>
    <path d="M 67.71002197265625 41.64887237548828 C 38.33769989013672 95.75587463378906 71.00888061523438 120.14755249023438 97.84911346435547 74.7508544921875" stroke-width="3.0" fill="none" stroke="rgb(0, 0, 0)" stroke-opacity="1.0" stroke-linecap="round" stroke-linejoin="round"/>
    <path d="M 121.57642364501953 92.48128509521484 C 109.14945983886719 85.36029052734375 159.62777709960938 95.38105010986328 91.55746459960938 94.8250961303711" stroke-width="3.0" fill="none" stroke="rgb(0, 0, 0)" stroke-opacity="1.0" stroke-linecap="round" stroke-linejoin="round"/>
    <path d="M 175.33290100097656 100.84732055664062 C 196.9586639404297 99.5545883178711 170.35491943359375 90.90733337402344 181.1589813232422 84.9778060913086" stroke-width="3.0" fill="none" stroke="rgb(0, 0, 0)" stroke-opacity="1.0" stroke-linecap="round" stroke-linejoin="round"/>
    <path d="M 141.14767456054688 55.48777389526367 C 134.51708984375 93.77590942382812 89.52172088623047 117.60746002197266 121.91130828857422 71.93278503417969" stroke-width="3.0" fill="none" stroke="rgb(0, 0, 0)" stroke-opacity="1.0" stroke-linecap="round" stroke-linejoin="round"/>
    <path d="M 143.68753051757812 48.46635437011719 C 162.14593505859375 90.87387084960938 134.60049438476562 46.03415298461914 177.27366638183594 87.01319122314453" stroke-width="3.0" fill="none" stroke="rgb(0, 0, 0)" stroke-opacity="1.0" stroke-linecap="round" stroke-linejoin="round"/>
    <path d="M 79.90487670898438 103.2836685180664 C 116.64301300048828 82.21168518066406 109.0217514038086 85.22945404052734 125.5050277709961 139.45687866210938" stroke-width="3.0" fill="none" stroke="rgb(0, 0, 0)" stroke-opacity="1.0" stroke-linecap="round" stroke-linejoin="round"/>
    <path d="M 137.514892578125 123.49088287353516 C 116.64029693603516 177.60360717773438 133.6112518310547 124.94169616699219 106.33935546875 205.62078857421875" stroke-width="3.0" fill="none" stroke="rgb(0, 0, 0)" stroke-opacity="1.0" stroke-linecap="round" stroke-linejoin="round"/>
    <path d="M 126.83769226074219 52.29499053955078 C 142.52442932128906 66.36605834960938 108.76732635498047 46.054161071777344 87.79803466796875 90.99601745605469" stroke-width="3.0" fill="none" stroke="rgb(0, 0, 0)" stroke-opacity="1.0" stroke-linecap="round" stroke-linejoin="round"/>
    <path d="M 130.7417449951172 91.796875 C 144.9947967529297 64.17984771728516 119.18450164794922 65.88421630859375 168.45184326171875 78.16431427001953" stroke-width="3.0" fill="none" stroke="rgb(0, 0, 0)" stroke-opacity="1.0" stroke-linecap="round" stroke-linejoin="round"/>
    <path d="M 157.02113342285156 71.49654388427734 C 146.0919189453125 70.52130126953125 146.07481384277344 102.4593276977539 148.14501953125 67.66948699951172" stroke-width="3.0" fill="none" stroke="rgb(0, 0, 0)" stroke-opacity="1.0" stroke-linecap="round" stroke-linejoin="round"/>
    <path d="M 136.0437469482422 58.00765609741211 C 120.3326416015625 73.25679016113281 136.9513702392578 56.08734893798828 140.8791961669922 59.93834686279297" stroke-width="3.0" fill="none" stroke="rgb(0, 0, 0)" stroke-opacity="1.0" stroke-linecap="round" stroke-linejoin="round"/>
    <path d="M 127.06141662597656 149.3309326171875 C 127.36074829101562 149.88690185546875 132.374755859375 105.46430206298828 115.97759246826172 147.06309509277344" stroke-width="3.0" fill="none" stroke="rgb(0, 0, 0)" stroke-opacity="1.0" stroke-linecap="round" stroke-linejoin="round"/>
    <path d="M 141.75381469726562 58.46250915527344 C 142.3065185546875 65.58638000488281 122.23072052001953 51.616905212402344 142.14651489257812 58.69157028198242" stroke-width="3.0" fill="none" stroke="rgb(0, 0, 0)" stroke-opacity="1.0" stroke-linecap="round" stroke-linejoin="round"/>
    <path d="M 131.59461975097656 49.87441635131836 C 121.5860366821289 53.266563415527344 152.2235565185547 40.761695861816406 139.8611297607422 52.19150924682617" stroke-width="3.0" fill="none" stroke="rgb(0, 0, 0)" stroke-opacity="1.0" stroke-linecap="round" stroke-linejoin="round"/>
  </g>
</svg>
