<?xml version="1.0" ?>
<svg xmlns="http://www.w3.org/2000/svg" version="1.1" width="224" height="224">
  <defs/>
  <g>
    <path d="M 155.01075744628906 71.28713989257812 C 140.0631103515625 89.63090515136719 115.36417388916016 102.31072998046875 135.75924682617188 92.06603240966797" stroke-width="3.0" fill="none" stroke="rgb(0, 0, 0)" stroke-opacity="1.0" stroke-linecap="round" stroke-linejoin="round"/>
    <path d="M 175.91270446777344 96.1028823852539 C 180.33482360839844 80.91209411621094 191.09063720703125 91.0667953491211 168.66461181640625 103.31244659423828" stroke-width="3.0" fill="none" stroke="rgb(0, 0, 0)" stroke-opacity="1.0" stroke-linecap="round" stroke-linejoin="round"/>
    <path d="M 69.60211944580078 43.32532501220703 C 38.693885803222656 90.9490737915039 69.81226348876953 122.8184585571289 100.34710693359375 85.95693969726562" stroke-width="3.0" fill="none" stroke="rgb(0, 0, 0)" stroke-opacity="1.0" stroke-linecap="round" stroke-linejoin="round"/>
    <path d="M 114.67670440673828 90.71605682373047 C 112.2245864868164 89.98731231689453 153.6768341064453 87.88787841796875 101.59410095214844 97.3962631225586" stroke-width="3.0" fill="none" stroke="rgb(0, 0, 0)" stroke-opacity="1.0" stroke-linecap="round" stroke-linejoin="round"/>
    <path d="M 183.77142333984375 91.4484634399414 C 201.93971252441406 85.40512084960938 203.3697052001953 83.04818725585938 201.0304412841797 83.85404968261719" stroke-width="3.0" fill="none" stroke="rgb(0, 0, 0)" stroke-opacity="1.0" stroke-linecap="round" stroke-linejoin="round"/>
    <path d="M 128.77223205566406 53.593109130859375 C 130.5287322998047 101.15143585205078 90.66944122314453 117.5286636352539 117.54570007324219 68.3499526977539" stroke-width="3.0" fill="none" stroke="rgb(0, 0, 0)" stroke-opacity="1.0" stroke-linecap="round" stroke-linejoin="round"/>
    <path d="M 142.1767578125 56.758914947509766 C 160.91024780273438 71.93278503417969 139.0890350341797 52.857261657714844 159.610107421875 65.36278533935547" stroke-width="3.0" fill="none" stroke="rgb(0, 0, 0)" stroke-opacity="1.0" stroke-linecap="round" stroke-linejoin="round"/>
    <path d="M 82.79949951171875 104.3900375366211 C 128.4242401123047 93.45773315429688 107.84324645996094 101.34477996826172 120.37447357177734 132.4654083251953" stroke-width="3.0" fill="none" stroke="rgb(0, 0, 0)" stroke-opacity="1.0" stroke-linecap="round" stroke-linejoin="round"/>
    <path d="M 135.83319091796875 130.97633361816406 C 110.1229248046875 154.0371551513672 120.80970764160156 132.65234375 105.5539321899414 206.4351043701172" stroke-width="3.0" fill="none" stroke="rgb(0, 0, 0)" stroke-opacity="1.0" stroke-linecap="round" stroke-linejoin="round"/>
    <path d="M 119.18394470214844 58.582542419433594 C 144.1271209716797 71.57958984375 107.93817138671875 52.38677978515625 91.41363525390625 95.8560791015625" stroke-width="3.0" fill="none" stroke="rgb(0, 0, 0)" stroke-opacity="1.0" stroke-linecap="round" stroke-linejoin="round"/>
    <path d="M 126.9034423828125 87.08919525146484 C 151.06329345703125 76.59769439697266 122.6949234008789 66.77845764160156 151.69692993164062 64.50816345214844" stroke-width="3.0" fill="none" stroke="rgb(0, 0, 0)" stroke-opacity="1.0" stroke-linecap="round" stroke-linejoin="round"/>
    <path d="M 151.4659881591797 69.70130157470703 C 135.4599609375 89.3887939453125 140.18959045410156 106.99267578125 147.58505249023438 63.44679641723633" stroke-width="3.0" fill="none" stroke="rgb(0, 0, 0)" stroke-opacity="1.0" stroke-linecap="round" stroke-linejoin="round"/>
    <path d="M 131.30752563476562 67.52656555175781 C 129.28919982910156 85.94497680664062 134.49526977539062 45.74971389770508 143.7254180908203 56.76873779296875" stroke-width="3.0" fill="none" stroke="rgb(0, 0, 0)" stroke-opacity="1.0" stroke-linecap="round" stroke-linejoin="round"/>
    <path d="M 122.23782348632812 127.62044525146484 C 135.3561248779297 144.3152313232422 124.0584716796875 108.47997283935547 116.14888763427734 136.34519958496094" stroke-width="3.0" fill="none" stroke="rgb(0, 0, 0)" stroke-opacity="1.0" stroke-linecap="round" stroke-linejoin="round"/>
    <path d="M 134.78062438964844 47.12946701049805 C 156.23385620117188 55.974491119384766 143.28176879882812 45.05470275878906 150.7932891845703 63.26011657714844" stroke-width="3.0" fill="none" stroke="rgb(0, 0, 0)" stroke-opacity="1.0" stroke-linecap="round" stroke-linejoin="round"/>
    <path d="M 126.2305908203125 53.6948127746582 C 118.22859191894531 49.636898040771484 149.4342498779297 33.002254486083984 139.37255859375 60.913822174072266" stroke-width="3.0" fill="none" stroke="rgb(0, 0, 0)" stroke-opacity="1.0" stroke-linecap="round" stroke-linejoin="round"/>
  </g>
</svg>
