<?xml version="1.0" ?>
<svg xmlns="http://www.w3.org/2000/svg" version="1.1" width="224" height="224">
  <defs/>
  <g>
    <path d="M 161.44447326660156 87.42957305908203 C 138.03941345214844 84.09949493408203 99.52372741699219 87.75636291503906 148.6203155517578 79.68494415283203" stroke-width="3.0" fill="none" stroke="rgb(0, 0, 0)" stroke-opacity="1.0" stroke-linecap="round" stroke-linejoin="round"/>
    <path d="M 180.27780151367188 92.44085693359375 C 164.96377563476562 97.58183288574219 190.38546752929688 90.69110870361328 164.41134643554688 109.12236785888672" stroke-width="3.0" fill="none" stroke="rgb(0, 0, 0)" stroke-opacity="1.0" stroke-linecap="round" stroke-linejoin="round"/>
    <path d="M 47.426570892333984 39.668453216552734 C 8.018728256225586 77.14775848388672 84.1722640991211 123.55073547363281 77.79759979248047 67.02737426757812" stroke-width="3.0" fill="none" stroke="rgb(0, 0, 0)" stroke-opacity="1.0" stroke-linecap="round" stroke-linejoin="round"/>
    <path d="M 111.71824645996094 78.95530700683594 C 133.1372528076172 80.18824005126953 178.06777954101562 91.92975616455078 96.98531341552734 88.17111206054688" stroke-width="3.0" fill="none" stroke="rgb(0, 0, 0)" stroke-opacity="1.0" stroke-linecap="round" stroke-linejoin="round"/>
    <path d="M 171.62887573242188 90.72657012939453 C 204.40866088867188 105.37781524658203 171.37417602539062 98.009033203125 183.85887145996094 99.22327423095703" stroke-width="3.0" fill="none" stroke="rgb(0, 0, 0)" stroke-opacity="1.0" stroke-linecap="round" stroke-linejoin="round"/>
    <path d="M 151.07342529296875 65.17170715332031 C 114.07400512695312 74.19216918945312 45.60506057739258 97.4649429321289 95.6098403930664 54.00224304199219" stroke-width="3.0" fill="none" stroke="rgb(0, 0, 0)" stroke-opacity="1.0" stroke-linecap="round" stroke-linejoin="round"/>
    <path d="M 140.26425170898438 60.99434280395508 C 147.2802734375 76.20382690429688 139.3987579345703 38.148292541503906 188.1967010498047 93.98065948486328" stroke-width="3.0" fill="none" stroke="rgb(0, 0, 0)" stroke-opacity="1.0" stroke-linecap="round" stroke-linejoin="round"/>
    <path d="M 81.51286315917969 83.39347839355469 C 126.94969940185547 95.84388732910156 107.00647735595703 87.9298324584961 124.85364532470703 136.3675079345703" stroke-width="3.0" fill="none" stroke="rgb(0, 0, 0)" stroke-opacity="1.0" stroke-linecap="round" stroke-linejoin="round"/>
    <path d="M 137.1524658203125 122.42521667480469 C 117.97805786132812 167.44412231445312 134.18377685546875 106.3882064819336 106.22444152832031 204.71249389648438" stroke-width="3.0" fill="none" stroke="rgb(0, 0, 0)" stroke-opacity="1.0" stroke-linecap="round" stroke-linejoin="round"/>
    <path d="M 136.12550354003906 50.5776481628418 C 140.72499084472656 53.56093215942383 80.7074966430664 23.86300277709961 66.08958435058594 82.77186584472656" stroke-width="3.0" fill="none" stroke="rgb(0, 0, 0)" stroke-opacity="1.0" stroke-linecap="round" stroke-linejoin="round"/>
    <path d="M 110.97128295898438 79.23436737060547 C 147.38758850097656 58.76103591918945 114.43539428710938 75.53524780273438 176.19992065429688 91.17794799804688" stroke-width="3.0" fill="none" stroke="rgb(0, 0, 0)" stroke-opacity="1.0" stroke-linecap="round" stroke-linejoin="round"/>
    <path d="M 177.35995483398438 85.85932159423828 C 145.60394287109375 73.97274017333984 166.84075927734375 91.40823364257812 149.01246643066406 73.63450622558594" stroke-width="3.0" fill="none" stroke="rgb(0, 0, 0)" stroke-opacity="1.0" stroke-linecap="round" stroke-linejoin="round"/>
    <path d="M 144.1724090576172 62.09270477294922 C 143.50355529785156 72.51761627197266 151.03848266601562 57.42461013793945 147.2462921142578 60.897857666015625" stroke-width="3.0" fill="none" stroke="rgb(0, 0, 0)" stroke-opacity="1.0" stroke-linecap="round" stroke-linejoin="round"/>
    <path d="M 128.24813842773438 134.9604949951172 C 129.8373565673828 143.43138122558594 127.30020141601562 111.79052734375 118.58615112304688 145.1448974609375" stroke-width="3.0" fill="none" stroke="rgb(0, 0, 0)" stroke-opacity="1.0" stroke-linecap="round" stroke-linejoin="round"/>
    <path d="M 140.81736755371094 62.116817474365234 C 164.42593383789062 65.25031280517578 133.65138244628906 53.1666145324707 152.18170166015625 69.23579406738281" stroke-width="3.0" fill="none" stroke="rgb(0, 0, 0)" stroke-opacity="1.0" stroke-linecap="round" stroke-linejoin="round"/>
    <path d="M 136.93203735351562 50.256954193115234 C 122.80665588378906 56.24388885498047 156.58737182617188 53.51272201538086 145.66378784179688 64.54598236083984" stroke-width="3.0" fill="none" stroke="rgb(0, 0, 0)" stroke-opacity="1.0" stroke-linecap="round" stroke-linejoin="round"/>
  </g>
</svg>
