<?xml version="1.0" ?>
<svg xmlns="http://www.w3.org/2000/svg" version="1.1" width="224" height="224">
  <defs/>
  <g>
    <path d="M 130.51971435546875 80.3448257446289 C 139.41824340820312 78.83907318115234 119.70893096923828 96.07710266113281 120.00432586669922 76.32943725585938" stroke-width="3.0" fill="none" stroke="rgb(0, 0, 0)" stroke-opacity="1.0" stroke-linecap="round" stroke-linejoin="round"/>
    <path d="M 183.38682556152344 96.99037170410156 C 178.26014709472656 84.4728012084961 188.37872314453125 85.37212371826172 184.08119201660156 104.24336242675781" stroke-width="3.0" fill="none" stroke="rgb(0, 0, 0)" stroke-opacity="1.0" stroke-linecap="round" stroke-linejoin="round"/>
    <path d="M 70.53081512451172 48.999305725097656 C 40.3223876953125 87.92440032958984 67.04988098144531 114.68295288085938 99.19013214111328 95.57412719726562" stroke-width="3.0" fill="none" stroke="rgb(0, 0, 0)" stroke-opacity="1.0" stroke-linecap="round" stroke-linejoin="round"/>
    <path d="M 104.8143539428711 92.39991760253906 C 103.47908782958984 91.45397186279297 133.46018981933594 81.1330795288086 110.95639038085938 94.84386444091797" stroke-width="3.0" fill="none" stroke="rgb(0, 0, 0)" stroke-opacity="1.0" stroke-linecap="round" stroke-linejoin="round"/>
    <path d="M 183.52268981933594 90.49415588378906 C 192.15509033203125 75.91525268554688 192.1981201171875 66.67292785644531 189.8253173828125 78.92412567138672" stroke-width="3.0" fill="none" stroke="rgb(0, 0, 0)" stroke-opacity="1.0" stroke-linecap="round" stroke-linejoin="round"/>
    <path d="M 127.74818420410156 67.91729736328125 C 134.7500457763672 95.62031555175781 113.3004150390625 99.53389739990234 127.14960479736328 81.68024444580078" stroke-width="3.0" fill="none" stroke="rgb(0, 0, 0)" stroke-opacity="1.0" stroke-linecap="round" stroke-linejoin="round"/>
    <path d="M 141.86326599121094 58.231807708740234 C 161.11935424804688 67.32755279541016 139.54660034179688 52.849971771240234 153.08737182617188 66.07025146484375" stroke-width="3.0" fill="none" stroke="rgb(0, 0, 0)" stroke-opacity="1.0" stroke-linecap="round" stroke-linejoin="round"/>
    <path d="M 92.30704498291016 99.42045593261719 C 118.73880004882812 89.54730987548828 112.18528747558594 106.15706634521484 124.25625610351562 126.4638900756836" stroke-width="3.0" fill="none" stroke="rgb(0, 0, 0)" stroke-opacity="1.0" stroke-linecap="round" stroke-linejoin="round"/>
    <path d="M 125.52134704589844 137.00335693359375 C 111.72679901123047 148.0291290283203 124.76824188232422 140.8896484375 104.48176574707031 205.9686279296875" stroke-width="3.0" fill="none" stroke="rgb(0, 0, 0)" stroke-opacity="1.0" stroke-linecap="round" stroke-linejoin="round"/>
    <path d="M 125.6913070678711 54.39654541015625 C 136.4088134765625 70.04653930664062 119.49375915527344 64.6270751953125 112.97563934326172 84.73332214355469" stroke-width="3.0" fill="none" stroke="rgb(0, 0, 0)" stroke-opacity="1.0" stroke-linecap="round" stroke-linejoin="round"/>
    <path d="M 144.19805908203125 84.62106323242188 C 151.06539916992188 81.72919464111328 130.6324462890625 89.26415252685547 156.0821075439453 79.65337371826172" stroke-width="3.0" fill="none" stroke="rgb(0, 0, 0)" stroke-opacity="1.0" stroke-linecap="round" stroke-linejoin="round"/>
    <path d="M 146.333740234375 67.89894104003906 C 129.51104736328125 92.89794921875 130.7091064453125 107.12118530273438 135.3899688720703 76.4726791381836" stroke-width="3.0" fill="none" stroke="rgb(0, 0, 0)" stroke-opacity="1.0" stroke-linecap="round" stroke-linejoin="round"/>
    <path d="M 139.11610412597656 58.35439682006836 C 138.03521728515625 99.77564239501953 139.1077423095703 62.67713928222656 133.79005432128906 67.45755004882812" stroke-width="3.0" fill="none" stroke="rgb(0, 0, 0)" stroke-opacity="1.0" stroke-linecap="round" stroke-linejoin="round"/>
    <path d="M 123.32123565673828 127.34446716308594 C 135.4012908935547 147.8101348876953 124.53588104248047 103.3922348022461 120.61453247070312 138.8314208984375" stroke-width="3.0" fill="none" stroke="rgb(0, 0, 0)" stroke-opacity="1.0" stroke-linecap="round" stroke-linejoin="round"/>
    <path d="M 134.93789672851562 52.84996795654297 C 132.56414794921875 62.25012969970703 139.58456420898438 47.29253387451172 144.91098022460938 59.50152587890625" stroke-width="3.0" fill="none" stroke="rgb(0, 0, 0)" stroke-opacity="1.0" stroke-linecap="round" stroke-linejoin="round"/>
    <path d="M 121.70697021484375 50.26256561279297 C 128.367919921875 57.60213088989258 126.2270736694336 38.09132766723633 138.355224609375 68.14794921875" stroke-width="3.0" fill="none" stroke="rgb(0, 0, 0)" stroke-opacity="1.0" stroke-linecap="round" stroke-linejoin="round"/>
  </g>
</svg>
