<?xml version="1.0" ?>
<svg xmlns="http://www.w3.org/2000/svg" version="1.1" width="224" height="224">
  <defs/>
  <g>
    <path d="M 183.07691955566406 93.63302612304688 C 147.98939514160156 74.87583923339844 61.53923034667969 95.55210876464844 141.57179260253906 71.3921127319336" stroke-width="3.0" fill="none" stroke="rgb(0, 0, 0)" stroke-opacity="1.0" stroke-linecap="round" stroke-linejoin="round"/>
    <path d="M 182.33982849121094 98.21195220947266 C 183.1814727783203 95.26274108886719 202.39793395996094 92.49246215820312 133.0788116455078 119.69970703125" stroke-width="3.0" fill="none" stroke="rgb(0, 0, 0)" stroke-opacity="1.0" stroke-linecap="round" stroke-linejoin="round"/>
    <path d="M 55.09639358520508 41.77783966064453 C 6.21225643157959 31.86333465576172 67.67850494384766 125.19239807128906 71.01876068115234 64.16749572753906" stroke-width="3.0" fill="none" stroke="rgb(0, 0, 0)" stroke-opacity="1.0" stroke-linecap="round" stroke-linejoin="round"/>
    <path d="M 109.37754821777344 62.87244415283203 C 149.91302490234375 64.46324157714844 202.76502990722656 79.446044921875 97.41168212890625 80.8635482788086" stroke-width="3.0" fill="none" stroke="rgb(0, 0, 0)" stroke-opacity="1.0" stroke-linecap="round" stroke-linejoin="round"/>
    <path d="M 154.49090576171875 77.2458267211914 C 210.3625946044922 103.10602569580078 166.18911743164062 99.93468475341797 189.73452758789062 100.0812759399414" stroke-width="3.0" fill="none" stroke="rgb(0, 0, 0)" stroke-opacity="1.0" stroke-linecap="round" stroke-linejoin="round"/>
    <path d="M 142.1750946044922 56.3420295715332 C 102.87348937988281 60.24254608154297 32.958656311035156 118.8009033203125 67.61741638183594 75.31404113769531" stroke-width="3.0" fill="none" stroke="rgb(0, 0, 0)" stroke-opacity="1.0" stroke-linecap="round" stroke-linejoin="round"/>
    <path d="M 154.24456787109375 76.08145141601562 C 70.09201049804688 57.51761245727539 158.82101440429688 38.20241928100586 191.43673706054688 98.54596710205078" stroke-width="3.0" fill="none" stroke="rgb(0, 0, 0)" stroke-opacity="1.0" stroke-linecap="round" stroke-linejoin="round"/>
    <path d="M 85.690185546875 71.09909057617188 C 128.57301330566406 91.54328918457031 115.30436706542969 83.13284301757812 122.61894226074219 143.62826538085938" stroke-width="3.0" fill="none" stroke="rgb(0, 0, 0)" stroke-opacity="1.0" stroke-linecap="round" stroke-linejoin="round"/>
    <path d="M 131.05288696289062 88.76243591308594 C 115.85045623779297 202.52728271484375 131.85292053222656 97.17545318603516 105.63162231445312 205.6892547607422" stroke-width="3.0" fill="none" stroke="rgb(0, 0, 0)" stroke-opacity="1.0" stroke-linecap="round" stroke-linejoin="round"/>
    <path d="M 127.31063079833984 51.26373291015625 C 139.48556518554688 52.6578369140625 86.61629486083984 29.478836059570312 76.83439636230469 84.00003051757812" stroke-width="3.0" fill="none" stroke="rgb(0, 0, 0)" stroke-opacity="1.0" stroke-linecap="round" stroke-linejoin="round"/>
    <path d="M 110.59712982177734 53.972293853759766 C 144.69142150878906 39.939571380615234 132.1617431640625 62.43260955810547 170.28775024414062 83.71102905273438" stroke-width="3.0" fill="none" stroke="rgb(0, 0, 0)" stroke-opacity="1.0" stroke-linecap="round" stroke-linejoin="round"/>
    <path d="M 155.53160095214844 82.2319564819336 C 144.53489685058594 71.6347427368164 217.54307556152344 110.64209747314453 151.90292358398438 65.16878509521484" stroke-width="3.0" fill="none" stroke="rgb(0, 0, 0)" stroke-opacity="1.0" stroke-linecap="round" stroke-linejoin="round"/>
    <path d="M 160.5322723388672 69.73295593261719 C 168.55731201171875 90.22955322265625 158.16018676757812 79.46728515625 141.5003662109375 75.1094970703125" stroke-width="3.0" fill="none" stroke="rgb(0, 0, 0)" stroke-opacity="1.0" stroke-linecap="round" stroke-linejoin="round"/>
    <path d="M 126.01206970214844 127.15245056152344 C 146.29598999023438 164.24392700195312 138.0086669921875 109.56729888916016 115.83634185791016 150.29151916503906" stroke-width="3.0" fill="none" stroke="rgb(0, 0, 0)" stroke-opacity="1.0" stroke-linecap="round" stroke-linejoin="round"/>
    <path d="M 138.57984924316406 78.82681274414062 C 179.92755126953125 94.26066589355469 138.7318878173828 60.176300048828125 151.0164794921875 67.03926086425781" stroke-width="3.0" fill="none" stroke="rgb(0, 0, 0)" stroke-opacity="1.0" stroke-linecap="round" stroke-linejoin="round"/>
    <path d="M 137.41305541992188 56.861995697021484 C 121.94444274902344 46.78335952758789 157.7799835205078 66.05708312988281 140.74331665039062 56.35940933227539" stroke-width="3.0" fill="none" stroke="rgb(0, 0, 0)" stroke-opacity="1.0" stroke-linecap="round" stroke-linejoin="round"/>
  </g>
</svg>
