<?xml version="1.0" ?>
<svg xmlns="http://www.w3.org/2000/svg" version="1.1" width="224" height="224">
  <defs/>
  <g>
    <path d="M 152.8536376953125 77.9063949584961 C 140.17764282226562 93.0269546508789 114.43649291992188 100.04757690429688 139.65914916992188 92.08843994140625" stroke-width="3.0" fill="none" stroke="rgb(0, 0, 0)" stroke-opacity="1.0" stroke-linecap="round" stroke-linejoin="round"/>
    <path d="M 174.85101318359375 100.87507629394531 C 184.3704376220703 85.13324737548828 192.05758666992188 99.6216049194336 150.40248107910156 111.7254867553711" stroke-width="3.0" fill="none" stroke="rgb(0, 0, 0)" stroke-opacity="1.0" stroke-linecap="round" stroke-linejoin="round"/>
    <path d="M 60.768157958984375 41.57263946533203 C 38.99285125732422 93.69611358642578 72.8675537109375 119.45304870605469 105.4358901977539 78.8023681640625" stroke-width="3.0" fill="none" stroke="rgb(0, 0, 0)" stroke-opacity="1.0" stroke-linecap="round" stroke-linejoin="round"/>
    <path d="M 118.37626647949219 97.261474609375 C 107.95095825195312 87.06576538085938 155.40151977539062 98.29666137695312 99.16497039794922 94.1439208984375" stroke-width="3.0" fill="none" stroke="rgb(0, 0, 0)" stroke-opacity="1.0" stroke-linecap="round" stroke-linejoin="round"/>
    <path d="M 176.85353088378906 100.50093841552734 C 192.53097534179688 96.02862548828125 179.09190368652344 97.13190460205078 187.30813598632812 92.00428009033203" stroke-width="3.0" fill="none" stroke="rgb(0, 0, 0)" stroke-opacity="1.0" stroke-linecap="round" stroke-linejoin="round"/>
    <path d="M 139.96998596191406 58.11513137817383 C 137.2377166748047 101.7526626586914 90.84769439697266 123.65888977050781 124.83345794677734 68.2694320678711" stroke-width="3.0" fill="none" stroke="rgb(0, 0, 0)" stroke-opacity="1.0" stroke-linecap="round" stroke-linejoin="round"/>
    <path d="M 145.8473358154297 57.25002670288086 C 170.5637969970703 84.4748306274414 132.62161254882812 47.29996871948242 168.7530517578125 72.89639282226562" stroke-width="3.0" fill="none" stroke="rgb(0, 0, 0)" stroke-opacity="1.0" stroke-linecap="round" stroke-linejoin="round"/>
    <path d="M 81.12565612792969 101.72987365722656 C 123.2951431274414 86.148193359375 109.72123718261719 87.16893768310547 126.53466033935547 133.5872039794922" stroke-width="3.0" fill="none" stroke="rgb(0, 0, 0)" stroke-opacity="1.0" stroke-linecap="round" stroke-linejoin="round"/>
    <path d="M 138.15499877929688 132.1688232421875 C 118.16869354248047 175.87734985351562 134.562255859375 129.5501708984375 103.1070556640625 205.611572265625" stroke-width="3.0" fill="none" stroke="rgb(0, 0, 0)" stroke-opacity="1.0" stroke-linecap="round" stroke-linejoin="round"/>
    <path d="M 123.51217651367188 51.21388244628906 C 142.57388305664062 64.95484161376953 108.71835327148438 45.232051849365234 89.60370635986328 96.80966186523438" stroke-width="3.0" fill="none" stroke="rgb(0, 0, 0)" stroke-opacity="1.0" stroke-linecap="round" stroke-linejoin="round"/>
    <path d="M 132.00791931152344 86.64808654785156 C 161.06744384765625 81.66521453857422 131.99853515625 77.55693817138672 161.94493103027344 70.8618392944336" stroke-width="3.0" fill="none" stroke="rgb(0, 0, 0)" stroke-opacity="1.0" stroke-linecap="round" stroke-linejoin="round"/>
    <path d="M 158.17710876464844 67.52102661132812 C 146.94253540039062 73.11373138427734 152.13784790039062 105.24615478515625 146.84266662597656 65.41496276855469" stroke-width="3.0" fill="none" stroke="rgb(0, 0, 0)" stroke-opacity="1.0" stroke-linecap="round" stroke-linejoin="round"/>
    <path d="M 139.19407653808594 66.38929748535156 C 121.59795379638672 83.30585479736328 143.19590759277344 68.76322937011719 148.21531677246094 67.98944854736328" stroke-width="3.0" fill="none" stroke="rgb(0, 0, 0)" stroke-opacity="1.0" stroke-linecap="round" stroke-linejoin="round"/>
    <path d="M 124.16093444824219 146.60353088378906 C 129.58709716796875 149.63616943359375 134.06077575683594 102.41856384277344 117.86997985839844 143.78611755371094" stroke-width="3.0" fill="none" stroke="rgb(0, 0, 0)" stroke-opacity="1.0" stroke-linecap="round" stroke-linejoin="round"/>
    <path d="M 143.99197387695312 59.34912872314453 C 148.50613403320312 58.09355545043945 131.26905822753906 45.97127914428711 142.27210998535156 65.2161865234375" stroke-width="3.0" fill="none" stroke="rgb(0, 0, 0)" stroke-opacity="1.0" stroke-linecap="round" stroke-linejoin="round"/>
    <path d="M 127.19625091552734 52.4305419921875 C 122.15410614013672 56.187557220458984 149.58511352539062 38.445491790771484 140.46405029296875 63.246612548828125" stroke-width="3.0" fill="none" stroke="rgb(0, 0, 0)" stroke-opacity="1.0" stroke-linecap="round" stroke-linejoin="round"/>
  </g>
</svg>
