<?xml version="1.0" ?>
<svg xmlns="http://www.w3.org/2000/svg" version="1.1" width="224" height="224">
  <defs/>
  <g>
    <path d="M 171.69927978515625 91.32720184326172 C 135.18551635742188 82.22745513916016 106.35200500488281 93.58175659179688 145.00946044921875 77.79653930664062" stroke-width="3.0" fill="none" stroke="rgb(0, 0, 0)" stroke-opacity="1.0" stroke-linecap="round" stroke-linejoin="round"/>
    <path d="M 172.23146057128906 93.9745101928711 C 173.1392059326172 95.10872650146484 192.6099090576172 90.31891632080078 157.58746337890625 106.79370880126953" stroke-width="3.0" fill="none" stroke="rgb(0, 0, 0)" stroke-opacity="1.0" stroke-linecap="round" stroke-linejoin="round"/>
    <path d="M 45.82450866699219 39.7922248840332 C 14.02047348022461 56.5163688659668 77.64937591552734 139.82440185546875 85.27238464355469 71.87989807128906" stroke-width="3.0" fill="none" stroke="rgb(0, 0, 0)" stroke-opacity="1.0" stroke-linecap="round" stroke-linejoin="round"/>
    <path d="M 96.8147964477539 78.73383331298828 C 150.3794403076172 66.45161437988281 194.711181640625 77.33073425292969 112.9692611694336 90.02278137207031" stroke-width="3.0" fill="none" stroke="rgb(0, 0, 0)" stroke-opacity="1.0" stroke-linecap="round" stroke-linejoin="round"/>
    <path d="M 163.0577392578125 86.11895751953125 C 215.04141235351562 108.64901733398438 167.86270141601562 99.85668182373047 182.00035095214844 98.44656372070312" stroke-width="3.0" fill="none" stroke="rgb(0, 0, 0)" stroke-opacity="1.0" stroke-linecap="round" stroke-linejoin="round"/>
    <path d="M 147.20599365234375 58.06270217895508 C 113.85700225830078 67.12699127197266 68.41165924072266 99.53446197509766 89.42881774902344 61.04110336303711" stroke-width="3.0" fill="none" stroke="rgb(0, 0, 0)" stroke-opacity="1.0" stroke-linecap="round" stroke-linejoin="round"/>
    <path d="M 152.0791015625 65.63560485839844 C 129.20071411132812 66.6650619506836 161.46449279785156 53.52513122558594 190.8911895751953 96.2208023071289" stroke-width="3.0" fill="none" stroke="rgb(0, 0, 0)" stroke-opacity="1.0" stroke-linecap="round" stroke-linejoin="round"/>
    <path d="M 85.94815826416016 83.04338073730469 C 124.772705078125 97.33474731445312 112.9403076171875 80.00011444091797 125.03849029541016 139.0860137939453" stroke-width="3.0" fill="none" stroke="rgb(0, 0, 0)" stroke-opacity="1.0" stroke-linecap="round" stroke-linejoin="round"/>
    <path d="M 138.75021362304688 99.62190246582031 C 115.28800201416016 182.11546325683594 130.14242553710938 95.43778991699219 102.23184967041016 201.77578735351562" stroke-width="3.0" fill="none" stroke="rgb(0, 0, 0)" stroke-opacity="1.0" stroke-linecap="round" stroke-linejoin="round"/>
    <path d="M 112.88983154296875 52.42198181152344 C 133.22987365722656 60.2625617980957 84.84797668457031 32.919471740722656 78.01631164550781 74.00511932373047" stroke-width="3.0" fill="none" stroke="rgb(0, 0, 0)" stroke-opacity="1.0" stroke-linecap="round" stroke-linejoin="round"/>
    <path d="M 100.94367218017578 56.59192657470703 C 157.59779357910156 44.94020080566406 134.03919982910156 57.0185546875 172.230224609375 87.95587158203125" stroke-width="3.0" fill="none" stroke="rgb(0, 0, 0)" stroke-opacity="1.0" stroke-linecap="round" stroke-linejoin="round"/>
    <path d="M 178.7770538330078 85.58562469482422 C 145.61764526367188 75.02376556396484 176.0380096435547 98.79364013671875 140.90316772460938 80.13043212890625" stroke-width="3.0" fill="none" stroke="rgb(0, 0, 0)" stroke-opacity="1.0" stroke-linecap="round" stroke-linejoin="round"/>
    <path d="M 146.53990173339844 66.5730972290039 C 143.37478637695312 71.99479675292969 152.026611328125 58.52617645263672 148.2705841064453 62.08143615722656" stroke-width="3.0" fill="none" stroke="rgb(0, 0, 0)" stroke-opacity="1.0" stroke-linecap="round" stroke-linejoin="round"/>
    <path d="M 124.54692840576172 138.4898223876953 C 132.42572021484375 146.1846466064453 133.76390075683594 108.1602554321289 117.1959457397461 142.47422790527344" stroke-width="3.0" fill="none" stroke="rgb(0, 0, 0)" stroke-opacity="1.0" stroke-linecap="round" stroke-linejoin="round"/>
    <path d="M 148.0482177734375 64.03096008300781 C 164.08078002929688 68.55260467529297 127.50727844238281 52.94401168823242 147.51637268066406 62.373207092285156" stroke-width="3.0" fill="none" stroke="rgb(0, 0, 0)" stroke-opacity="1.0" stroke-linecap="round" stroke-linejoin="round"/>
    <path d="M 139.16624450683594 55.506309509277344 C 115.62995910644531 48.380035400390625 155.2230224609375 57.79390335083008 148.33981323242188 60.30564498901367" stroke-width="3.0" fill="none" stroke="rgb(0, 0, 0)" stroke-opacity="1.0" stroke-linecap="round" stroke-linejoin="round"/>
  </g>
</svg>
