<?xml version="1.0" ?>
<svg xmlns="http://www.w3.org/2000/svg" version="1.1" width="224" height="224">
  <defs/>
  <g>
    <path d="M 172.81321716308594 95.73152923583984 C 125.6901626586914 84.42284393310547 51.434181213378906 108.79619598388672 143.84115600585938 72.74340057373047" stroke-width="3.0" fill="none" stroke="rgb(0, 0, 0)" stroke-opacity="1.0" stroke-linecap="round" stroke-linejoin="round"/>
    <path d="M 183.30648803710938 98.21478271484375 C 173.31744384765625 98.4769287109375 193.3531951904297 90.64623260498047 153.44766235351562 112.51940155029297" stroke-width="3.0" fill="none" stroke="rgb(0, 0, 0)" stroke-opacity="1.0" stroke-linecap="round" stroke-linejoin="round"/>
    <path d="M 43.42738342285156 38.70856857299805 C 11.59555435180664 47.94184112548828 76.14403533935547 138.9626922607422 76.26409149169922 67.91880798339844" stroke-width="3.0" fill="none" stroke="rgb(0, 0, 0)" stroke-opacity="1.0" stroke-linecap="round" stroke-linejoin="round"/>
    <path d="M 100.78852844238281 73.88973999023438 C 152.04498291015625 70.81092834472656 200.27569580078125 80.56346130371094 96.0204849243164 90.96802520751953" stroke-width="3.0" fill="none" stroke="rgb(0, 0, 0)" stroke-opacity="1.0" stroke-linecap="round" stroke-linejoin="round"/>
    <path d="M 157.83016967773438 77.30636596679688 C 213.8065643310547 111.7742919921875 170.91136169433594 94.28215026855469 185.22752380371094 98.4870834350586" stroke-width="3.0" fill="none" stroke="rgb(0, 0, 0)" stroke-opacity="1.0" stroke-linecap="round" stroke-linejoin="round"/>
    <path d="M 145.65138244628906 60.653289794921875 C 109.68278503417969 69.058837890625 52.8975944519043 110.76126861572266 85.55144500732422 60.33599853515625" stroke-width="3.0" fill="none" stroke="rgb(0, 0, 0)" stroke-opacity="1.0" stroke-linecap="round" stroke-linejoin="round"/>
    <path d="M 164.28536987304688 74.79491424560547 C 114.66458892822266 58.45886993408203 159.81463623046875 55.31999588012695 191.43429565429688 95.37142181396484" stroke-width="3.0" fill="none" stroke="rgb(0, 0, 0)" stroke-opacity="1.0" stroke-linecap="round" stroke-linejoin="round"/>
    <path d="M 78.03325653076172 88.62022399902344 C 122.2899398803711 96.43478393554688 114.14541625976562 85.65702056884766 122.27559661865234 140.49888610839844" stroke-width="3.0" fill="none" stroke="rgb(0, 0, 0)" stroke-opacity="1.0" stroke-linecap="round" stroke-linejoin="round"/>
    <path d="M 129.8910369873047 95.94536590576172 C 124.07855224609375 194.1742401123047 134.3340606689453 85.4452896118164 104.63024139404297 205.54779052734375" stroke-width="3.0" fill="none" stroke="rgb(0, 0, 0)" stroke-opacity="1.0" stroke-linecap="round" stroke-linejoin="round"/>
    <path d="M 134.8876495361328 47.02976608276367 C 132.6794891357422 53.137760162353516 77.50615692138672 20.905290603637695 66.08427429199219 80.86031341552734" stroke-width="3.0" fill="none" stroke="rgb(0, 0, 0)" stroke-opacity="1.0" stroke-linecap="round" stroke-linejoin="round"/>
    <path d="M 114.80389404296875 52.268978118896484 C 157.027099609375 43.326576232910156 130.50234985351562 64.8553237915039 173.7433319091797 79.7790298461914" stroke-width="3.0" fill="none" stroke="rgb(0, 0, 0)" stroke-opacity="1.0" stroke-linecap="round" stroke-linejoin="round"/>
    <path d="M 179.01792907714844 90.1095962524414 C 160.1076202392578 74.22645568847656 213.0183563232422 105.2744140625 145.07994079589844 78.39901733398438" stroke-width="3.0" fill="none" stroke="rgb(0, 0, 0)" stroke-opacity="1.0" stroke-linecap="round" stroke-linejoin="round"/>
    <path d="M 148.77098083496094 62.889617919921875 C 144.41270446777344 75.47431945800781 154.01820373535156 62.56169509887695 145.88778686523438 66.23157501220703" stroke-width="3.0" fill="none" stroke="rgb(0, 0, 0)" stroke-opacity="1.0" stroke-linecap="round" stroke-linejoin="round"/>
    <path d="M 128.33348083496094 117.90141296386719 C 148.50787353515625 149.37838745117188 139.92047119140625 99.43927764892578 117.612548828125 145.74569702148438" stroke-width="3.0" fill="none" stroke="rgb(0, 0, 0)" stroke-opacity="1.0" stroke-linecap="round" stroke-linejoin="round"/>
    <path d="M 144.3050079345703 68.39984893798828 C 163.7593231201172 66.76947784423828 130.92967224121094 48.29281234741211 146.40370178222656 63.103599548339844" stroke-width="3.0" fill="none" stroke="rgb(0, 0, 0)" stroke-opacity="1.0" stroke-linecap="round" stroke-linejoin="round"/>
    <path d="M 147.5940399169922 54.86476516723633 C 123.80540466308594 50.787906646728516 151.45018005371094 60.67782974243164 144.5934600830078 61.20769119262695" stroke-width="3.0" fill="none" stroke="rgb(0, 0, 0)" stroke-opacity="1.0" stroke-linecap="round" stroke-linejoin="round"/>
  </g>
</svg>
