<?xml version="1.0" ?>
<svg xmlns="http://www.w3.org/2000/svg" version="1.1" width="224" height="224">
  <defs/>
  <g>
    <path d="M 176.33460998535156 96.16241455078125 C 161.0042266845703 83.21519470214844 29.44986915588379 92.86983489990234 117.47659301757812 72.78380584716797" stroke-width="3.0" fill="none" stroke="rgb(0, 0, 0)" stroke-opacity="1.0" stroke-linecap="round" stroke-linejoin="round"/>
    <path d="M 177.18321228027344 96.88114929199219 C 177.09429931640625 105.85072326660156 205.12142944335938 88.64697265625 128.04779052734375 120.87821197509766" stroke-width="3.0" fill="none" stroke="rgb(0, 0, 0)" stroke-opacity="1.0" stroke-linecap="round" stroke-linejoin="round"/>
    <path d="M 56.868751525878906 40.83549499511719 C 2.2766857147216797 18.422176361083984 66.78087615966797 135.09573364257812 85.17048645019531 61.0302848815918" stroke-width="3.0" fill="none" stroke="rgb(0, 0, 0)" stroke-opacity="1.0" stroke-linecap="round" stroke-linejoin="round"/>
    <path d="M 96.9084701538086 60.71383285522461 C 154.3417205810547 64.52838897705078 206.13427734375 107.75643920898438 111.29513549804688 73.52505493164062" stroke-width="3.0" fill="none" stroke="rgb(0, 0, 0)" stroke-opacity="1.0" stroke-linecap="round" stroke-linejoin="round"/>
    <path d="M 123.37281799316406 72.33224487304688 C 207.5424346923828 99.21935272216797 174.96145629882812 89.29137420654297 179.0005340576172 92.0695571899414" stroke-width="3.0" fill="none" stroke="rgb(0, 0, 0)" stroke-opacity="1.0" stroke-linecap="round" stroke-linejoin="round"/>
    <path d="M 99.84197235107422 50.55047607421875 C 115.2955093383789 63.728885650634766 40.62655258178711 137.90127563476562 76.87702178955078 101.149169921875" stroke-width="3.0" fill="none" stroke="rgb(0, 0, 0)" stroke-opacity="1.0" stroke-linecap="round" stroke-linejoin="round"/>
    <path d="M 151.31854248046875 78.57807159423828 C 6.469757556915283 57.028682708740234 152.3802490234375 25.217884063720703 181.66029357910156 98.4372329711914" stroke-width="3.0" fill="none" stroke="rgb(0, 0, 0)" stroke-opacity="1.0" stroke-linecap="round" stroke-linejoin="round"/>
    <path d="M 92.42277526855469 69.27137756347656 C 110.4380874633789 109.80811309814453 112.53357696533203 63.71615982055664 118.29208374023438 144.48419189453125" stroke-width="3.0" fill="none" stroke="rgb(0, 0, 0)" stroke-opacity="1.0" stroke-linecap="round" stroke-linejoin="round"/>
    <path d="M 123.11016845703125 89.19884490966797 C 113.47241973876953 201.81167602539062 124.68761444091797 92.87026977539062 105.46612548828125 206.4344940185547" stroke-width="3.0" fill="none" stroke="rgb(0, 0, 0)" stroke-opacity="1.0" stroke-linecap="round" stroke-linejoin="round"/>
    <path d="M 154.48040771484375 64.3449935913086 C 136.6826629638672 49.26488494873047 100.07353973388672 23.46734619140625 79.35550689697266 83.18844604492188" stroke-width="3.0" fill="none" stroke="rgb(0, 0, 0)" stroke-opacity="1.0" stroke-linecap="round" stroke-linejoin="round"/>
    <path d="M 92.72052764892578 63.594417572021484 C 133.86289978027344 26.646528244018555 137.85122680664062 54.096961975097656 174.60142517089844 84.37133026123047" stroke-width="3.0" fill="none" stroke="rgb(0, 0, 0)" stroke-opacity="1.0" stroke-linecap="round" stroke-linejoin="round"/>
    <path d="M 158.6029052734375 70.11241149902344 C 162.5219268798828 90.78035736083984 252.98675537109375 123.02967071533203 139.5322265625 59.52640914916992" stroke-width="3.0" fill="none" stroke="rgb(0, 0, 0)" stroke-opacity="1.0" stroke-linecap="round" stroke-linejoin="round"/>
    <path d="M 159.31930541992188 71.53398895263672 C 193.74874877929688 101.4449234008789 167.0867919921875 88.67286682128906 121.6468276977539 59.67306137084961" stroke-width="3.0" fill="none" stroke="rgb(0, 0, 0)" stroke-opacity="1.0" stroke-linecap="round" stroke-linejoin="round"/>
    <path d="M 121.1998519897461 123.18986511230469 C 138.558349609375 150.06704711914062 134.36402893066406 104.83590698242188 113.70357513427734 149.07009887695312" stroke-width="3.0" fill="none" stroke="rgb(0, 0, 0)" stroke-opacity="1.0" stroke-linecap="round" stroke-linejoin="round"/>
    <path d="M 104.59072875976562 81.82183074951172 C 187.71279907226562 111.5595474243164 145.9387664794922 58.600833892822266 141.22726440429688 69.93048095703125" stroke-width="3.0" fill="none" stroke="rgb(0, 0, 0)" stroke-opacity="1.0" stroke-linecap="round" stroke-linejoin="round"/>
    <path d="M 140.7800750732422 83.71562957763672 C 49.19943618774414 33.21366882324219 158.87234497070312 61.434078216552734 126.41824340820312 46.98631286621094" stroke-width="3.0" fill="none" stroke="rgb(0, 0, 0)" stroke-opacity="1.0" stroke-linecap="round" stroke-linejoin="round"/>
  </g>
</svg>
