<?xml version="1.0" ?>
<svg xmlns="http://www.w3.org/2000/svg" version="1.1" width="224" height="224">
  <defs/>
  <g>
    <path d="M 173.48585510253906 90.20455169677734 C 128.12130737304688 84.04389190673828 72.08023834228516 106.09444427490234 144.91989135742188 73.00218963623047" stroke-width="3.0" fill="none" stroke="rgb(0, 0, 0)" stroke-opacity="1.0" stroke-linecap="round" stroke-linejoin="round"/>
    <path d="M 176.1106719970703 92.56143951416016 C 172.46331787109375 99.00057983398438 191.79083251953125 89.76543426513672 156.7305450439453 109.66239929199219" stroke-width="3.0" fill="none" stroke="rgb(0, 0, 0)" stroke-opacity="1.0" stroke-linecap="round" stroke-linejoin="round"/>
    <path d="M 53.284420013427734 36.70261001586914 C 18.19607925415039 48.199974060058594 83.62812805175781 139.1656036376953 81.10609436035156 69.97907257080078" stroke-width="3.0" fill="none" stroke="rgb(0, 0, 0)" stroke-opacity="1.0" stroke-linecap="round" stroke-linejoin="round"/>
    <path d="M 117.81965637207031 70.27889251708984 C 148.16143798828125 71.48804473876953 196.0638885498047 81.27845764160156 99.93043518066406 93.00450134277344" stroke-width="3.0" fill="none" stroke="rgb(0, 0, 0)" stroke-opacity="1.0" stroke-linecap="round" stroke-linejoin="round"/>
    <path d="M 156.6287078857422 85.1960220336914 C 216.79397583007812 103.892578125 166.59423828125 95.21361541748047 177.04791259765625 89.10150909423828" stroke-width="3.0" fill="none" stroke="rgb(0, 0, 0)" stroke-opacity="1.0" stroke-linecap="round" stroke-linejoin="round"/>
    <path d="M 147.32138061523438 61.2896614074707 C 112.1939926147461 68.37004852294922 61.06926727294922 107.0185546875 89.34920501708984 63.062862396240234" stroke-width="3.0" fill="none" stroke="rgb(0, 0, 0)" stroke-opacity="1.0" stroke-linecap="round" stroke-linejoin="round"/>
    <path d="M 156.49163818359375 68.897705078125 C 116.51435089111328 65.86866760253906 161.1096954345703 53.321533203125 190.14932250976562 94.18407440185547" stroke-width="3.0" fill="none" stroke="rgb(0, 0, 0)" stroke-opacity="1.0" stroke-linecap="round" stroke-linejoin="round"/>
    <path d="M 83.14908599853516 89.38650512695312 C 124.46014404296875 100.92701721191406 115.19183349609375 84.30123138427734 121.67517852783203 136.32640075683594" stroke-width="3.0" fill="none" stroke="rgb(0, 0, 0)" stroke-opacity="1.0" stroke-linecap="round" stroke-linejoin="round"/>
    <path d="M 139.26617431640625 94.49667358398438 C 118.68189239501953 189.25184631347656 130.90621948242188 85.87133026123047 107.5809326171875 206.6502685546875" stroke-width="3.0" fill="none" stroke="rgb(0, 0, 0)" stroke-opacity="1.0" stroke-linecap="round" stroke-linejoin="round"/>
    <path d="M 123.0142593383789 49.80128860473633 C 140.192138671875 51.623470306396484 79.4981460571289 29.995359420776367 71.89736938476562 77.44596862792969" stroke-width="3.0" fill="none" stroke="rgb(0, 0, 0)" stroke-opacity="1.0" stroke-linecap="round" stroke-linejoin="round"/>
    <path d="M 109.30464172363281 47.34647750854492 C 159.38729858398438 48.40011215209961 132.7704315185547 64.29644775390625 175.73910522460938 83.98335266113281" stroke-width="3.0" fill="none" stroke="rgb(0, 0, 0)" stroke-opacity="1.0" stroke-linecap="round" stroke-linejoin="round"/>
    <path d="M 181.83473205566406 86.4169692993164 C 151.52423095703125 70.28155517578125 201.54254150390625 95.17613220214844 148.2373504638672 88.0444564819336" stroke-width="3.0" fill="none" stroke="rgb(0, 0, 0)" stroke-opacity="1.0" stroke-linecap="round" stroke-linejoin="round"/>
    <path d="M 145.94679260253906 65.00896453857422 C 143.81472778320312 71.50263214111328 152.4010009765625 59.337615966796875 145.41615295410156 64.8089828491211" stroke-width="3.0" fill="none" stroke="rgb(0, 0, 0)" stroke-opacity="1.0" stroke-linecap="round" stroke-linejoin="round"/>
    <path d="M 124.80030822753906 129.0873565673828 C 136.22225952148438 147.5952911376953 126.90591430664062 102.3165283203125 114.22331237792969 145.43116760253906" stroke-width="3.0" fill="none" stroke="rgb(0, 0, 0)" stroke-opacity="1.0" stroke-linecap="round" stroke-linejoin="round"/>
    <path d="M 147.4304962158203 63.927947998046875 C 164.0345001220703 66.36687469482422 131.08895874023438 48.44689178466797 146.40562438964844 59.206756591796875" stroke-width="3.0" fill="none" stroke="rgb(0, 0, 0)" stroke-opacity="1.0" stroke-linecap="round" stroke-linejoin="round"/>
    <path d="M 141.19886779785156 52.77085876464844 C 112.3663330078125 46.266929626464844 150.1481170654297 53.87895584106445 144.39813232421875 51.64646530151367" stroke-width="3.0" fill="none" stroke="rgb(0, 0, 0)" stroke-opacity="1.0" stroke-linecap="round" stroke-linejoin="round"/>
  </g>
</svg>
