<?xml version="1.0" ?>
<svg xmlns="http://www.w3.org/2000/svg" version="1.1" width="224" height="224">
  <defs/>
  <g>
    <path d="M 180.87889099121094 92.84945678710938 C 131.67735290527344 73.34130096435547 46.345924377441406 111.09391021728516 139.30288696289062 72.02890014648438" stroke-width="3.0" fill="none" stroke="rgb(0, 0, 0)" stroke-opacity="1.0" stroke-linecap="round" stroke-linejoin="round"/>
    <path d="M 187.40785217285156 97.85635375976562 C 176.9031524658203 90.74703216552734 199.6379852294922 90.84532928466797 130.40255737304688 121.51089477539062" stroke-width="3.0" fill="none" stroke="rgb(0, 0, 0)" stroke-opacity="1.0" stroke-linecap="round" stroke-linejoin="round"/>
    <path d="M 55.63227081298828 33.307334899902344 C 7.365609169006348 34.011810302734375 64.67481231689453 122.32353210449219 72.26607513427734 63.39087677001953" stroke-width="3.0" fill="none" stroke="rgb(0, 0, 0)" stroke-opacity="1.0" stroke-linecap="round" stroke-linejoin="round"/>
    <path d="M 115.27958679199219 60.68186569213867 C 168.46572875976562 64.99992370605469 220.4751434326172 81.4859848022461 89.07360076904297 87.07697296142578" stroke-width="3.0" fill="none" stroke="rgb(0, 0, 0)" stroke-opacity="1.0" stroke-linecap="round" stroke-linejoin="round"/>
    <path d="M 153.70999145507812 79.67427062988281 C 216.2933349609375 106.38858032226562 175.97509765625 99.93960571289062 188.81472778320312 98.12298583984375" stroke-width="3.0" fill="none" stroke="rgb(0, 0, 0)" stroke-opacity="1.0" stroke-linecap="round" stroke-linejoin="round"/>
    <path d="M 137.79469299316406 52.82595443725586 C 107.53373718261719 58.23897171020508 46.312984466552734 108.18609619140625 74.16661834716797 62.67326736450195" stroke-width="3.0" fill="none" stroke="rgb(0, 0, 0)" stroke-opacity="1.0" stroke-linecap="round" stroke-linejoin="round"/>
    <path d="M 155.49673461914062 82.56158447265625 C 82.19453430175781 52.07719421386719 160.76441955566406 42.48548889160156 189.46585083007812 94.03335571289062" stroke-width="3.0" fill="none" stroke="rgb(0, 0, 0)" stroke-opacity="1.0" stroke-linecap="round" stroke-linejoin="round"/>
    <path d="M 82.76679992675781 82.8202896118164 C 121.64556121826172 98.99100494384766 109.06851196289062 89.89674377441406 119.15113830566406 146.8914794921875" stroke-width="3.0" fill="none" stroke="rgb(0, 0, 0)" stroke-opacity="1.0" stroke-linecap="round" stroke-linejoin="round"/>
    <path d="M 122.6166000366211 91.58531951904297 C 120.55738830566406 201.0770721435547 131.3843231201172 90.92862701416016 107.98688507080078 204.65013122558594" stroke-width="3.0" fill="none" stroke="rgb(0, 0, 0)" stroke-opacity="1.0" stroke-linecap="round" stroke-linejoin="round"/>
    <path d="M 128.46585083007812 47.79285430908203 C 136.16500854492188 53.317848205566406 75.52812194824219 27.53933334350586 77.35169219970703 81.42864227294922" stroke-width="3.0" fill="none" stroke="rgb(0, 0, 0)" stroke-opacity="1.0" stroke-linecap="round" stroke-linejoin="round"/>
    <path d="M 110.59318542480469 52.87457275390625 C 146.5489044189453 44.70299530029297 128.81272888183594 66.78868103027344 170.24244689941406 80.02848815917969" stroke-width="3.0" fill="none" stroke="rgb(0, 0, 0)" stroke-opacity="1.0" stroke-linecap="round" stroke-linejoin="round"/>
    <path d="M 157.7274627685547 84.68245697021484 C 136.2539520263672 69.46469116210938 203.16200256347656 103.4887924194336 150.36978149414062 65.41169738769531" stroke-width="3.0" fill="none" stroke="rgb(0, 0, 0)" stroke-opacity="1.0" stroke-linecap="round" stroke-linejoin="round"/>
    <path d="M 155.73973083496094 66.3832778930664 C 158.79600524902344 85.27355194091797 156.5762939453125 74.81838989257812 142.78623962402344 77.26286315917969" stroke-width="3.0" fill="none" stroke="rgb(0, 0, 0)" stroke-opacity="1.0" stroke-linecap="round" stroke-linejoin="round"/>
    <path d="M 122.11605834960938 121.87671661376953 C 149.40345764160156 156.4730987548828 133.40060424804688 107.56494140625 114.98396301269531 146.95571899414062" stroke-width="3.0" fill="none" stroke="rgb(0, 0, 0)" stroke-opacity="1.0" stroke-linecap="round" stroke-linejoin="round"/>
    <path d="M 143.28860473632812 77.75041198730469 C 181.3015594482422 86.33047485351562 141.3296661376953 56.71431350708008 155.5678253173828 66.60643768310547" stroke-width="3.0" fill="none" stroke="rgb(0, 0, 0)" stroke-opacity="1.0" stroke-linecap="round" stroke-linejoin="round"/>
    <path d="M 136.16249084472656 48.984283447265625 C 124.43597412109375 44.83129119873047 154.6685028076172 57.25605010986328 142.0192108154297 61.13050079345703" stroke-width="3.0" fill="none" stroke="rgb(0, 0, 0)" stroke-opacity="1.0" stroke-linecap="round" stroke-linejoin="round"/>
  </g>
</svg>
