<?xml version="1.0" ?>
<svg xmlns="http://www.w3.org/2000/svg" version="1.1" width="224" height="224">
  <defs/>
  <g>
    <path d="M 177.67825317382812 94.53890991210938 C 161.49856567382812 83.04629516601562 34.69914245605469 97.98329162597656 127.32596588134766 68.73167419433594" stroke-width="3.0" fill="none" stroke="rgb(0, 0, 0)" stroke-opacity="1.0" stroke-linecap="round" stroke-linejoin="round"/>
    <path d="M 180.00924682617188 95.09016418457031 C 179.04623413085938 105.60235595703125 205.83053588867188 91.36100769042969 131.19224548339844 120.37583923339844" stroke-width="3.0" fill="none" stroke="rgb(0, 0, 0)" stroke-opacity="1.0" stroke-linecap="round" stroke-linejoin="round"/>
    <path d="M 60.76325225830078 41.223236083984375 C 4.36000394821167 21.05632209777832 62.05033874511719 141.9903564453125 86.86530303955078 63.11307144165039" stroke-width="3.0" fill="none" stroke="rgb(0, 0, 0)" stroke-opacity="1.0" stroke-linecap="round" stroke-linejoin="round"/>
    <path d="M 105.2213363647461 59.07904815673828 C 154.0283660888672 64.25704956054688 207.44903564453125 103.91511535644531 108.07003784179688 75.34344482421875" stroke-width="3.0" fill="none" stroke="rgb(0, 0, 0)" stroke-opacity="1.0" stroke-linecap="round" stroke-linejoin="round"/>
    <path d="M 120.70894622802734 71.20369720458984 C 207.77444458007812 99.70266723632812 176.07022094726562 89.57510375976562 179.40072631835938 93.94800567626953" stroke-width="3.0" fill="none" stroke="rgb(0, 0, 0)" stroke-opacity="1.0" stroke-linecap="round" stroke-linejoin="round"/>
    <path d="M 102.60297393798828 51.41300582885742 C 113.62016296386719 60.984920501708984 39.4290885925293 138.31878662109375 75.01407623291016 99.563232421875" stroke-width="3.0" fill="none" stroke="rgb(0, 0, 0)" stroke-opacity="1.0" stroke-linecap="round" stroke-linejoin="round"/>
    <path d="M 147.7563018798828 76.97298431396484 C 7.030547142028809 62.341495513916016 152.712646484375 29.33579444885254 191.4532012939453 96.76925659179688" stroke-width="3.0" fill="none" stroke="rgb(0, 0, 0)" stroke-opacity="1.0" stroke-linecap="round" stroke-linejoin="round"/>
    <path d="M 87.28983306884766 75.11432647705078 C 113.60005950927734 112.11540222167969 119.06298828125 60.04286575317383 121.20999908447266 144.3741455078125" stroke-width="3.0" fill="none" stroke="rgb(0, 0, 0)" stroke-opacity="1.0" stroke-linecap="round" stroke-linejoin="round"/>
    <path d="M 127.85059356689453 92.93865966796875 C 116.16455841064453 202.03330993652344 127.4173812866211 94.84911346435547 107.78382873535156 207.21104431152344" stroke-width="3.0" fill="none" stroke="rgb(0, 0, 0)" stroke-opacity="1.0" stroke-linecap="round" stroke-linejoin="round"/>
    <path d="M 148.30091857910156 65.91514587402344 C 136.22406005859375 49.69953536987305 95.7662582397461 23.084426879882812 81.462158203125 86.40542602539062" stroke-width="3.0" fill="none" stroke="rgb(0, 0, 0)" stroke-opacity="1.0" stroke-linecap="round" stroke-linejoin="round"/>
    <path d="M 91.59285736083984 63.88236999511719 C 139.91998291015625 33.26420974731445 137.68890380859375 56.167259216308594 173.9340057373047 84.08705139160156" stroke-width="3.0" fill="none" stroke="rgb(0, 0, 0)" stroke-opacity="1.0" stroke-linecap="round" stroke-linejoin="round"/>
    <path d="M 153.6818389892578 72.98650360107422 C 159.6219940185547 90.01634979248047 247.43589782714844 126.93465423583984 144.6269073486328 53.43677520751953" stroke-width="3.0" fill="none" stroke="rgb(0, 0, 0)" stroke-opacity="1.0" stroke-linecap="round" stroke-linejoin="round"/>
    <path d="M 157.16439819335938 69.02149200439453 C 186.37208557128906 110.38031768798828 167.80496215820312 88.53960418701172 125.90079498291016 62.01145553588867" stroke-width="3.0" fill="none" stroke="rgb(0, 0, 0)" stroke-opacity="1.0" stroke-linecap="round" stroke-linejoin="round"/>
    <path d="M 124.72899627685547 122.69285583496094 C 136.33041381835938 147.83091735839844 139.41603088378906 101.70243072509766 116.853759765625 150.02439880371094" stroke-width="3.0" fill="none" stroke="rgb(0, 0, 0)" stroke-opacity="1.0" stroke-linecap="round" stroke-linejoin="round"/>
    <path d="M 105.69207763671875 80.22578430175781 C 180.5670623779297 112.25001525878906 138.57933044433594 61.270660400390625 140.3470458984375 68.04386138916016" stroke-width="3.0" fill="none" stroke="rgb(0, 0, 0)" stroke-opacity="1.0" stroke-linecap="round" stroke-linejoin="round"/>
    <path d="M 142.38966369628906 80.48069763183594 C 63.76971435546875 35.09477996826172 161.7974395751953 65.205322265625 127.14387512207031 46.08037185668945" stroke-width="3.0" fill="none" stroke="rgb(0, 0, 0)" stroke-opacity="1.0" stroke-linecap="round" stroke-linejoin="round"/>
  </g>
</svg>
