<?xml version="1.0" ?>
<svg xmlns="http://www.w3.org/2000/svg" version="1.1" width="224" height="224">
  <defs/>
  <g>
    <path d="M 152.81471252441406 77.34468078613281 C 141.5105438232422 94.46485900878906 114.2403793334961 99.14774322509766 138.72671508789062 85.89722442626953" stroke-width="3.0" fill="none" stroke="rgb(0, 0, 0)" stroke-opacity="1.0" stroke-linecap="round" stroke-linejoin="round"/>
    <path d="M 176.67291259765625 101.83629608154297 C 185.8876190185547 87.33038330078125 190.62335205078125 97.55770111083984 150.7724151611328 114.6745376586914" stroke-width="3.0" fill="none" stroke="rgb(0, 0, 0)" stroke-opacity="1.0" stroke-linecap="round" stroke-linejoin="round"/>
    <path d="M 61.69797134399414 41.79582977294922 C 40.30846405029297 94.71105194091797 73.57865142822266 120.65611267089844 103.29171752929688 78.38619995117188" stroke-width="3.0" fill="none" stroke="rgb(0, 0, 0)" stroke-opacity="1.0" stroke-linecap="round" stroke-linejoin="round"/>
    <path d="M 120.8366928100586 95.75379180908203 C 108.8670883178711 86.75747680664062 156.82443237304688 99.63340759277344 100.12381744384766 95.23213195800781" stroke-width="3.0" fill="none" stroke="rgb(0, 0, 0)" stroke-opacity="1.0" stroke-linecap="round" stroke-linejoin="round"/>
    <path d="M 176.8433380126953 102.08432006835938 C 192.47210693359375 95.92552947998047 179.5912322998047 96.83271789550781 186.3754119873047 88.18975830078125" stroke-width="3.0" fill="none" stroke="rgb(0, 0, 0)" stroke-opacity="1.0" stroke-linecap="round" stroke-linejoin="round"/>
    <path d="M 140.04202270507812 56.84516525268555 C 137.14073181152344 100.3721923828125 90.78285217285156 121.58915710449219 124.18685150146484 65.33890533447266" stroke-width="3.0" fill="none" stroke="rgb(0, 0, 0)" stroke-opacity="1.0" stroke-linecap="round" stroke-linejoin="round"/>
    <path d="M 145.4224853515625 55.27069091796875 C 168.5406036376953 86.05957794189453 133.9722442626953 46.1033935546875 171.80941772460938 73.79324340820312" stroke-width="3.0" fill="none" stroke="rgb(0, 0, 0)" stroke-opacity="1.0" stroke-linecap="round" stroke-linejoin="round"/>
    <path d="M 81.44926452636719 101.57699584960938 C 121.0127944946289 85.95950317382812 109.2845458984375 87.03060913085938 127.86534118652344 131.0602264404297" stroke-width="3.0" fill="none" stroke="rgb(0, 0, 0)" stroke-opacity="1.0" stroke-linecap="round" stroke-linejoin="round"/>
    <path d="M 138.74539184570312 129.45635986328125 C 115.59333038330078 172.68063354492188 134.8729705810547 129.9400177001953 101.7182388305664 202.84523010253906" stroke-width="3.0" fill="none" stroke="rgb(0, 0, 0)" stroke-opacity="1.0" stroke-linecap="round" stroke-linejoin="round"/>
    <path d="M 123.95381164550781 52.10960006713867 C 142.336181640625 65.02324676513672 108.62933349609375 43.975521087646484 89.52778625488281 96.25053405761719" stroke-width="3.0" fill="none" stroke="rgb(0, 0, 0)" stroke-opacity="1.0" stroke-linecap="round" stroke-linejoin="round"/>
    <path d="M 131.46713256835938 88.01993560791016 C 159.35403442382812 81.55313110351562 132.25494384765625 79.2563247680664 162.42724609375 73.32833099365234" stroke-width="3.0" fill="none" stroke="rgb(0, 0, 0)" stroke-opacity="1.0" stroke-linecap="round" stroke-linejoin="round"/>
    <path d="M 158.41183471679688 68.02066040039062 C 148.71942138671875 74.64514923095703 152.1809539794922 106.42520141601562 147.7882080078125 62.968929290771484" stroke-width="3.0" fill="none" stroke="rgb(0, 0, 0)" stroke-opacity="1.0" stroke-linecap="round" stroke-linejoin="round"/>
    <path d="M 138.87258911132812 66.32014465332031 C 121.5400161743164 83.48939514160156 144.19163513183594 70.65848541259766 146.6104736328125 68.04620361328125" stroke-width="3.0" fill="none" stroke="rgb(0, 0, 0)" stroke-opacity="1.0" stroke-linecap="round" stroke-linejoin="round"/>
    <path d="M 122.7189712524414 145.6943817138672 C 128.2769317626953 147.6234588623047 133.3262176513672 100.26583099365234 116.86517333984375 145.20535278320312" stroke-width="3.0" fill="none" stroke="rgb(0, 0, 0)" stroke-opacity="1.0" stroke-linecap="round" stroke-linejoin="round"/>
    <path d="M 144.2558135986328 60.00445556640625 C 146.43963623046875 57.541622161865234 126.67160034179688 45.711639404296875 140.67233276367188 61.221920013427734" stroke-width="3.0" fill="none" stroke="rgb(0, 0, 0)" stroke-opacity="1.0" stroke-linecap="round" stroke-linejoin="round"/>
    <path d="M 127.18913269042969 52.22243118286133 C 122.57640838623047 55.3386116027832 152.71649169921875 37.6416015625 140.86807250976562 61.62708282470703" stroke-width="3.0" fill="none" stroke="rgb(0, 0, 0)" stroke-opacity="1.0" stroke-linecap="round" stroke-linejoin="round"/>
  </g>
</svg>
