<?xml version="1.0" ?>
<svg xmlns="http://www.w3.org/2000/svg" version="1.1" width="224" height="224">
  <defs/>
  <g>
    <path d="M 185.56666564941406 95.84126281738281 C 151.92486572265625 80.6006088256836 51.00973129272461 94.04972076416016 128.8284912109375 77.9310531616211" stroke-width="3.0" fill="none" stroke="rgb(0, 0, 0)" stroke-opacity="1.0" stroke-linecap="round" stroke-linejoin="round"/>
    <path d="M 188.210693359375 98.15250396728516 C 172.7566680908203 95.92628479003906 201.91091918945312 91.948974609375 130.81394958496094 122.26351928710938" stroke-width="3.0" fill="none" stroke="rgb(0, 0, 0)" stroke-opacity="1.0" stroke-linecap="round" stroke-linejoin="round"/>
    <path d="M 59.82136154174805 41.996280670166016 C 9.324418067932129 38.629878997802734 70.00501251220703 128.78916931152344 70.66466522216797 65.4205322265625" stroke-width="3.0" fill="none" stroke="rgb(0, 0, 0)" stroke-opacity="1.0" stroke-linecap="round" stroke-linejoin="round"/>
    <path d="M 101.36062622070312 65.93968200683594 C 153.9709930419922 63.57899856567383 204.5273895263672 85.28242492675781 99.7880630493164 79.92720031738281" stroke-width="3.0" fill="none" stroke="rgb(0, 0, 0)" stroke-opacity="1.0" stroke-linecap="round" stroke-linejoin="round"/>
    <path d="M 146.76541137695312 75.15973663330078 C 211.8313751220703 100.86084747314453 171.9623260498047 100.38885498046875 190.09716796875 97.22747802734375" stroke-width="3.0" fill="none" stroke="rgb(0, 0, 0)" stroke-opacity="1.0" stroke-linecap="round" stroke-linejoin="round"/>
    <path d="M 130.44674682617188 51.7082405090332 C 98.96307373046875 56.5799560546875 32.58106231689453 129.1779022216797 69.06761932373047 74.0629653930664" stroke-width="3.0" fill="none" stroke="rgb(0, 0, 0)" stroke-opacity="1.0" stroke-linecap="round" stroke-linejoin="round"/>
    <path d="M 149.26683044433594 79.6676025390625 C 45.46080017089844 55.43429183959961 149.70777893066406 41.349037170410156 190.5113525390625 93.76817321777344" stroke-width="3.0" fill="none" stroke="rgb(0, 0, 0)" stroke-opacity="1.0" stroke-linecap="round" stroke-linejoin="round"/>
    <path d="M 78.18473052978516 74.16837310791016 C 125.72187042236328 97.83365631103516 114.41708374023438 85.47012329101562 120.46504211425781 144.69357299804688" stroke-width="3.0" fill="none" stroke="rgb(0, 0, 0)" stroke-opacity="1.0" stroke-linecap="round" stroke-linejoin="round"/>
    <path d="M 129.85215759277344 88.20030212402344 C 113.14632415771484 209.73106384277344 129.46847534179688 98.25654602050781 107.6823501586914 206.07411193847656" stroke-width="3.0" fill="none" stroke="rgb(0, 0, 0)" stroke-opacity="1.0" stroke-linecap="round" stroke-linejoin="round"/>
    <path d="M 133.8828125 46.7369270324707 C 147.5614776611328 47.935325622558594 85.33634185791016 29.226806640625 75.37848663330078 82.90247344970703" stroke-width="3.0" fill="none" stroke="rgb(0, 0, 0)" stroke-opacity="1.0" stroke-linecap="round" stroke-linejoin="round"/>
    <path d="M 102.4531021118164 53.45247268676758 C 139.47581481933594 37.04099655151367 139.70254516601562 59.211727142333984 169.7267608642578 84.7728500366211" stroke-width="3.0" fill="none" stroke="rgb(0, 0, 0)" stroke-opacity="1.0" stroke-linecap="round" stroke-linejoin="round"/>
    <path d="M 159.2006378173828 75.71053314208984 C 144.2257843017578 66.33038330078125 214.885986328125 111.4339828491211 145.41265869140625 63.021942138671875" stroke-width="3.0" fill="none" stroke="rgb(0, 0, 0)" stroke-opacity="1.0" stroke-linecap="round" stroke-linejoin="round"/>
    <path d="M 159.13719177246094 72.19954681396484 C 164.60304260253906 95.38777923583984 160.44432067871094 77.07627868652344 150.32037353515625 60.35208511352539" stroke-width="3.0" fill="none" stroke="rgb(0, 0, 0)" stroke-opacity="1.0" stroke-linecap="round" stroke-linejoin="round"/>
    <path d="M 124.5575180053711 126.04340362548828 C 138.85507202148438 171.0816192626953 136.7873992919922 114.10413360595703 116.94185638427734 151.29867553710938" stroke-width="3.0" fill="none" stroke="rgb(0, 0, 0)" stroke-opacity="1.0" stroke-linecap="round" stroke-linejoin="round"/>
    <path d="M 141.16705322265625 66.94962310791016 C 188.39663696289062 91.36236572265625 147.09829711914062 55.8548583984375 153.27708435058594 66.6120834350586" stroke-width="3.0" fill="none" stroke="rgb(0, 0, 0)" stroke-opacity="1.0" stroke-linecap="round" stroke-linejoin="round"/>
    <path d="M 142.8258514404297 66.103271484375 C 113.81980895996094 47.493141174316406 152.01429748535156 66.49114227294922 133.1816864013672 61.042205810546875" stroke-width="3.0" fill="none" stroke="rgb(0, 0, 0)" stroke-opacity="1.0" stroke-linecap="round" stroke-linejoin="round"/>
  </g>
</svg>
