<?xml version="1.0" ?>
<svg xmlns="http://www.w3.org/2000/svg" version="1.1" width="224" height="224">
  <defs/>
  <g>
    <path d="M 171.84701538085938 96.17560577392578 C 161.4781951904297 82.89588165283203 26.638294219970703 93.51304626464844 116.86984252929688 73.26629638671875" stroke-width="3.0" fill="none" stroke="rgb(0, 0, 0)" stroke-opacity="1.0" stroke-linecap="round" stroke-linejoin="round"/>
    <path d="M 185.55860900878906 97.04690551757812 C 182.62037658691406 102.9734115600586 206.5257568359375 89.61787414550781 128.20237731933594 119.31687927246094" stroke-width="3.0" fill="none" stroke="rgb(0, 0, 0)" stroke-opacity="1.0" stroke-linecap="round" stroke-linejoin="round"/>
    <path d="M 59.255767822265625 39.271297454833984 C 5.671907901763916 22.05692481994629 71.0719223022461 132.27987670898438 85.87155151367188 58.08432388305664" stroke-width="3.0" fill="none" stroke="rgb(0, 0, 0)" stroke-opacity="1.0" stroke-linecap="round" stroke-linejoin="round"/>
    <path d="M 94.91898345947266 61.6790657043457 C 155.48118591308594 63.99246597290039 207.8311309814453 107.84242248535156 106.61863708496094 75.91057586669922" stroke-width="3.0" fill="none" stroke="rgb(0, 0, 0)" stroke-opacity="1.0" stroke-linecap="round" stroke-linejoin="round"/>
    <path d="M 123.50955963134766 74.0509033203125 C 206.9237518310547 100.16263580322266 175.5929412841797 85.46588134765625 177.85523986816406 91.40924072265625" stroke-width="3.0" fill="none" stroke="rgb(0, 0, 0)" stroke-opacity="1.0" stroke-linecap="round" stroke-linejoin="round"/>
    <path d="M 98.2362289428711 50.234439849853516 C 114.12274932861328 65.47994995117188 44.148868560791016 140.0428009033203 78.09841918945312 101.67913055419922" stroke-width="3.0" fill="none" stroke="rgb(0, 0, 0)" stroke-opacity="1.0" stroke-linecap="round" stroke-linejoin="round"/>
    <path d="M 151.8673553466797 77.5303955078125 C 5.672780513763428 54.04243087768555 157.54588317871094 20.315969467163086 190.38082885742188 92.74200439453125" stroke-width="3.0" fill="none" stroke="rgb(0, 0, 0)" stroke-opacity="1.0" stroke-linecap="round" stroke-linejoin="round"/>
    <path d="M 95.17496490478516 66.6876220703125 C 109.22613525390625 110.13935089111328 113.47614288330078 61.83533477783203 119.05024719238281 142.6643524169922" stroke-width="3.0" fill="none" stroke="rgb(0, 0, 0)" stroke-opacity="1.0" stroke-linecap="round" stroke-linejoin="round"/>
    <path d="M 125.41043853759766 89.39636993408203 C 115.77984619140625 203.7977752685547 124.81240844726562 93.59547424316406 106.58758544921875 207.8155975341797" stroke-width="3.0" fill="none" stroke="rgb(0, 0, 0)" stroke-opacity="1.0" stroke-linecap="round" stroke-linejoin="round"/>
    <path d="M 156.35882568359375 60.638614654541016 C 136.79879760742188 44.54609680175781 105.13862609863281 19.066631317138672 78.6043472290039 80.73731994628906" stroke-width="3.0" fill="none" stroke="rgb(0, 0, 0)" stroke-opacity="1.0" stroke-linecap="round" stroke-linejoin="round"/>
    <path d="M 92.13685607910156 63.593509674072266 C 134.10208129882812 24.718019485473633 136.56654357910156 54.17524337768555 169.47398376464844 87.20777130126953" stroke-width="3.0" fill="none" stroke="rgb(0, 0, 0)" stroke-opacity="1.0" stroke-linecap="round" stroke-linejoin="round"/>
    <path d="M 157.01193237304688 68.649169921875 C 159.48411560058594 91.96510314941406 248.38453674316406 123.23583984375 139.61566162109375 58.331520080566406" stroke-width="3.0" fill="none" stroke="rgb(0, 0, 0)" stroke-opacity="1.0" stroke-linecap="round" stroke-linejoin="round"/>
    <path d="M 157.67100524902344 73.44450378417969 C 193.1480712890625 100.04568481445312 166.7266082763672 88.30967712402344 118.59137725830078 56.755332946777344" stroke-width="3.0" fill="none" stroke="rgb(0, 0, 0)" stroke-opacity="1.0" stroke-linecap="round" stroke-linejoin="round"/>
    <path d="M 122.70291900634766 122.01383209228516 C 142.1555633544922 148.88648986816406 135.6414031982422 103.47313690185547 113.7935791015625 150.46511840820312" stroke-width="3.0" fill="none" stroke="rgb(0, 0, 0)" stroke-opacity="1.0" stroke-linecap="round" stroke-linejoin="round"/>
    <path d="M 102.84677124023438 81.0104751586914 C 190.40713500976562 112.59758758544922 155.189453125 55.0440788269043 141.9933624267578 74.14862060546875" stroke-width="3.0" fill="none" stroke="rgb(0, 0, 0)" stroke-opacity="1.0" stroke-linecap="round" stroke-linejoin="round"/>
    <path d="M 139.6031951904297 85.79231262207031 C 45.90127182006836 40.24945831298828 158.58872985839844 68.42687225341797 123.56641387939453 51.37516403198242" stroke-width="3.0" fill="none" stroke="rgb(0, 0, 0)" stroke-opacity="1.0" stroke-linecap="round" stroke-linejoin="round"/>
  </g>
</svg>
