<?xml version="1.0" ?>
<svg xmlns="http://www.w3.org/2000/svg" version="1.1" width="224" height="224">
  <defs/>
  <g>
    <path d="M 155.95494079589844 73.93766021728516 C 142.1773223876953 86.71052551269531 107.33168029785156 90.94453430175781 141.1718292236328 79.9420166015625" stroke-width="3.0" fill="none" stroke="rgb(0, 0, 0)" stroke-opacity="1.0" stroke-linecap="round" stroke-linejoin="round"/>
    <path d="M 175.79367065429688 94.25016784667969 C 162.70645141601562 81.9926986694336 193.00621032714844 91.37873840332031 167.5943145751953 108.9041976928711" stroke-width="3.0" fill="none" stroke="rgb(0, 0, 0)" stroke-opacity="1.0" stroke-linecap="round" stroke-linejoin="round"/>
    <path d="M 63.467872619628906 44.21296310424805 C 23.172048568725586 89.59774780273438 84.72251892089844 125.3119125366211 94.38034057617188 77.18128204345703" stroke-width="3.0" fill="none" stroke="rgb(0, 0, 0)" stroke-opacity="1.0" stroke-linecap="round" stroke-linejoin="round"/>
    <path d="M 124.46150207519531 85.16800689697266 C 110.44573211669922 79.86015319824219 155.62020874023438 84.96980285644531 92.1902084350586 95.63488006591797" stroke-width="3.0" fill="none" stroke="rgb(0, 0, 0)" stroke-opacity="1.0" stroke-linecap="round" stroke-linejoin="round"/>
    <path d="M 170.74440002441406 88.27339172363281 C 200.98361206054688 98.1824722290039 172.47657775878906 97.02075958251953 174.3389892578125 90.72445678710938" stroke-width="3.0" fill="none" stroke="rgb(0, 0, 0)" stroke-opacity="1.0" stroke-linecap="round" stroke-linejoin="round"/>
    <path d="M 148.85311889648438 63.65036392211914 C 126.4920654296875 87.3021240234375 66.34532165527344 106.43687438964844 114.55391693115234 73.47588348388672" stroke-width="3.0" fill="none" stroke="rgb(0, 0, 0)" stroke-opacity="1.0" stroke-linecap="round" stroke-linejoin="round"/>
    <path d="M 141.70364379882812 59.32807540893555 C 163.41075134277344 84.36565399169922 127.7105484008789 45.89349365234375 185.39804077148438 89.28826904296875" stroke-width="3.0" fill="none" stroke="rgb(0, 0, 0)" stroke-opacity="1.0" stroke-linecap="round" stroke-linejoin="round"/>
    <path d="M 66.8746566772461 98.78697204589844 C 120.26043701171875 92.9602279663086 103.5107192993164 89.23413848876953 122.60590362548828 140.53860473632812" stroke-width="3.0" fill="none" stroke="rgb(0, 0, 0)" stroke-opacity="1.0" stroke-linecap="round" stroke-linejoin="round"/>
    <path d="M 135.27215576171875 119.22225952148438 C 117.19718170166016 175.2065887451172 131.33364868164062 115.3250503540039 104.8391342163086 203.49319458007812" stroke-width="3.0" fill="none" stroke="rgb(0, 0, 0)" stroke-opacity="1.0" stroke-linecap="round" stroke-linejoin="round"/>
    <path d="M 134.71478271484375 54.847408294677734 C 143.4416046142578 55.53589630126953 97.6771011352539 35.20016098022461 78.25110626220703 85.64127349853516" stroke-width="3.0" fill="none" stroke="rgb(0, 0, 0)" stroke-opacity="1.0" stroke-linecap="round" stroke-linejoin="round"/>
    <path d="M 125.15687561035156 82.66549682617188 C 147.1077423095703 54.593994140625 111.45084381103516 75.48915100097656 170.96292114257812 88.44998168945312" stroke-width="3.0" fill="none" stroke="rgb(0, 0, 0)" stroke-opacity="1.0" stroke-linecap="round" stroke-linejoin="round"/>
    <path d="M 169.04115295410156 79.7806396484375 C 150.05276489257812 70.69139099121094 157.39425659179688 81.6030044555664 148.15699768066406 74.72720336914062" stroke-width="3.0" fill="none" stroke="rgb(0, 0, 0)" stroke-opacity="1.0" stroke-linecap="round" stroke-linejoin="round"/>
    <path d="M 136.4755401611328 55.938236236572266 C 124.24336242675781 65.06491088867188 138.9600067138672 53.746585845947266 145.94442749023438 57.833099365234375" stroke-width="3.0" fill="none" stroke="rgb(0, 0, 0)" stroke-opacity="1.0" stroke-linecap="round" stroke-linejoin="round"/>
    <path d="M 122.71922302246094 146.2843780517578 C 127.80713653564453 154.244140625 128.77430725097656 116.49305725097656 114.60610961914062 146.3782501220703" stroke-width="3.0" fill="none" stroke="rgb(0, 0, 0)" stroke-opacity="1.0" stroke-linecap="round" stroke-linejoin="round"/>
    <path d="M 134.59519958496094 65.0943374633789 C 150.1233367919922 60.9975700378418 128.97076416015625 46.785343170166016 148.08656311035156 62.90153503417969" stroke-width="3.0" fill="none" stroke="rgb(0, 0, 0)" stroke-opacity="1.0" stroke-linecap="round" stroke-linejoin="round"/>
    <path d="M 137.1790008544922 54.386112213134766 C 127.66554260253906 58.39566421508789 152.37049865722656 49.99721145629883 141.05270385742188 62.61252212524414" stroke-width="3.0" fill="none" stroke="rgb(0, 0, 0)" stroke-opacity="1.0" stroke-linecap="round" stroke-linejoin="round"/>
  </g>
</svg>
