<?xml version="1.0" ?>
<svg xmlns="http://www.w3.org/2000/svg" version="1.1" width="224" height="224">
  <defs/>
  <g>
    <path d="M 183.84454345703125 97.97985076904297 C 154.4185791015625 84.03545379638672 52.814571380615234 99.99669647216797 127.58390045166016 82.703857421875" stroke-width="3.0" fill="none" stroke="rgb(0, 0, 0)" stroke-opacity="1.0" stroke-linecap="round" stroke-linejoin="round"/>
    <path d="M 187.8590545654297 97.89765167236328 C 173.4089813232422 96.5386734008789 201.91680908203125 90.74919128417969 129.4887237548828 123.51956939697266" stroke-width="3.0" fill="none" stroke="rgb(0, 0, 0)" stroke-opacity="1.0" stroke-linecap="round" stroke-linejoin="round"/>
    <path d="M 55.26679992675781 39.61997604370117 C 5.421328544616699 34.686920166015625 70.40834045410156 123.4883804321289 70.34281158447266 64.68999481201172" stroke-width="3.0" fill="none" stroke="rgb(0, 0, 0)" stroke-opacity="1.0" stroke-linecap="round" stroke-linejoin="round"/>
    <path d="M 97.3980484008789 67.74707794189453 C 152.8511962890625 67.2896957397461 204.83477783203125 89.98928833007812 97.767333984375 79.51798248291016" stroke-width="3.0" fill="none" stroke="rgb(0, 0, 0)" stroke-opacity="1.0" stroke-linecap="round" stroke-linejoin="round"/>
    <path d="M 141.7825469970703 74.93585205078125 C 213.951171875 96.37699890136719 172.2355499267578 102.66398620605469 191.05604553222656 98.07860565185547" stroke-width="3.0" fill="none" stroke="rgb(0, 0, 0)" stroke-opacity="1.0" stroke-linecap="round" stroke-linejoin="round"/>
    <path d="M 123.05567169189453 46.258460998535156 C 96.18731689453125 52.917999267578125 34.70072555541992 133.7547149658203 69.20658111572266 73.90853881835938" stroke-width="3.0" fill="none" stroke="rgb(0, 0, 0)" stroke-opacity="1.0" stroke-linecap="round" stroke-linejoin="round"/>
    <path d="M 143.14488220214844 84.28184509277344 C 22.590560913085938 58.3975944519043 150.5370330810547 36.20547866821289 191.8170166015625 94.30774688720703" stroke-width="3.0" fill="none" stroke="rgb(0, 0, 0)" stroke-opacity="1.0" stroke-linecap="round" stroke-linejoin="round"/>
    <path d="M 79.54114532470703 72.69549560546875 C 124.42454528808594 101.58451843261719 112.9486083984375 85.85770416259766 122.4244613647461 144.13258361816406" stroke-width="3.0" fill="none" stroke="rgb(0, 0, 0)" stroke-opacity="1.0" stroke-linecap="round" stroke-linejoin="round"/>
    <path d="M 124.4611587524414 91.66123962402344 C 120.20203399658203 210.63182067871094 133.4691619873047 96.5115737915039 104.54661560058594 205.24658203125" stroke-width="3.0" fill="none" stroke="rgb(0, 0, 0)" stroke-opacity="1.0" stroke-linecap="round" stroke-linejoin="round"/>
    <path d="M 131.18670654296875 50.24315643310547 C 138.3649444580078 50.43679428100586 80.8782958984375 25.54714012145996 75.18280792236328 79.90084838867188" stroke-width="3.0" fill="none" stroke="rgb(0, 0, 0)" stroke-opacity="1.0" stroke-linecap="round" stroke-linejoin="round"/>
    <path d="M 97.38727569580078 54.99631881713867 C 139.37400817871094 36.46772003173828 145.16656494140625 57.00384521484375 174.26669311523438 81.66393280029297" stroke-width="3.0" fill="none" stroke="rgb(0, 0, 0)" stroke-opacity="1.0" stroke-linecap="round" stroke-linejoin="round"/>
    <path d="M 155.8422393798828 80.77723693847656 C 139.29800415039062 74.75953674316406 220.13307189941406 109.79552459716797 145.9685516357422 58.981441497802734" stroke-width="3.0" fill="none" stroke="rgb(0, 0, 0)" stroke-opacity="1.0" stroke-linecap="round" stroke-linejoin="round"/>
    <path d="M 162.28353881835938 70.60338592529297 C 170.2787322998047 93.13433837890625 162.09364318847656 78.10871887207031 147.27444458007812 66.30471801757812" stroke-width="3.0" fill="none" stroke="rgb(0, 0, 0)" stroke-opacity="1.0" stroke-linecap="round" stroke-linejoin="round"/>
    <path d="M 124.47758483886719 126.90874481201172 C 139.24375915527344 172.5041046142578 137.72491455078125 113.0718994140625 119.48855590820312 150.9674835205078" stroke-width="3.0" fill="none" stroke="rgb(0, 0, 0)" stroke-opacity="1.0" stroke-linecap="round" stroke-linejoin="round"/>
    <path d="M 139.63027954101562 72.11467742919922 C 190.16696166992188 94.15061950683594 148.80699157714844 54.98921585083008 153.89341735839844 65.31674194335938" stroke-width="3.0" fill="none" stroke="rgb(0, 0, 0)" stroke-opacity="1.0" stroke-linecap="round" stroke-linejoin="round"/>
    <path d="M 140.8751983642578 69.20796203613281 C 106.31900024414062 52.70856475830078 151.33502197265625 65.7757339477539 133.62350463867188 54.72960662841797" stroke-width="3.0" fill="none" stroke="rgb(0, 0, 0)" stroke-opacity="1.0" stroke-linecap="round" stroke-linejoin="round"/>
  </g>
</svg>
