<?xml version="1.0" ?>
<svg xmlns="http://www.w3.org/2000/svg" version="1.1" width="224" height="224">
  <defs/>
  <g>
    <path d="M 179.3177490234375 92.31243896484375 C 124.45783233642578 78.47371673583984 42.75455856323242 109.7942886352539 142.6329803466797 74.39232635498047" stroke-width="3.0" fill="none" stroke="rgb(0, 0, 0)" stroke-opacity="1.0" stroke-linecap="round" stroke-linejoin="round"/>
    <path d="M 188.6712646484375 101.06759643554688 C 174.3360595703125 96.77562713623047 197.79852294921875 95.24431610107422 144.75601196289062 112.9434585571289" stroke-width="3.0" fill="none" stroke="rgb(0, 0, 0)" stroke-opacity="1.0" stroke-linecap="round" stroke-linejoin="round"/>
    <path d="M 48.25905990600586 40.279579162597656 C 7.462797164916992 40.99113845825195 66.63825225830078 128.22080993652344 72.7579116821289 60.87208557128906" stroke-width="3.0" fill="none" stroke="rgb(0, 0, 0)" stroke-opacity="1.0" stroke-linecap="round" stroke-linejoin="round"/>
    <path d="M 99.392333984375 66.52510070800781 C 159.43421936035156 63.27235794067383 206.17623901367188 75.9124755859375 93.02763366699219 87.59078216552734" stroke-width="3.0" fill="none" stroke="rgb(0, 0, 0)" stroke-opacity="1.0" stroke-linecap="round" stroke-linejoin="round"/>
    <path d="M 143.23870849609375 78.03462219238281 C 217.08453369140625 110.45934295654297 179.46180725097656 98.80397033691406 189.3234100341797 100.16486358642578" stroke-width="3.0" fill="none" stroke="rgb(0, 0, 0)" stroke-opacity="1.0" stroke-linecap="round" stroke-linejoin="round"/>
    <path d="M 140.9447021484375 58.97969436645508 C 104.85635375976562 56.62187194824219 50.241031646728516 104.7883529663086 77.71153259277344 62.08494567871094" stroke-width="3.0" fill="none" stroke="rgb(0, 0, 0)" stroke-opacity="1.0" stroke-linecap="round" stroke-linejoin="round"/>
    <path d="M 163.51937866210938 76.22367858886719 C 117.01820373535156 56.01530838012695 164.81607055664062 53.961334228515625 193.21536254882812 95.74647521972656" stroke-width="3.0" fill="none" stroke="rgb(0, 0, 0)" stroke-opacity="1.0" stroke-linecap="round" stroke-linejoin="round"/>
    <path d="M 73.63998413085938 85.446533203125 C 122.81969451904297 92.60343170166016 109.13378143310547 88.89481353759766 122.64263153076172 140.61387634277344" stroke-width="3.0" fill="none" stroke="rgb(0, 0, 0)" stroke-opacity="1.0" stroke-linecap="round" stroke-linejoin="round"/>
    <path d="M 127.80186462402344 89.03645324707031 C 121.64398193359375 199.35206604003906 134.8988494873047 95.12071990966797 106.68980407714844 202.97903442382812" stroke-width="3.0" fill="none" stroke="rgb(0, 0, 0)" stroke-opacity="1.0" stroke-linecap="round" stroke-linejoin="round"/>
    <path d="M 129.13734436035156 44.9738655090332 C 129.83091735839844 51.05266571044922 71.5857925415039 19.665639877319336 67.81206512451172 82.87747955322266" stroke-width="3.0" fill="none" stroke="rgb(0, 0, 0)" stroke-opacity="1.0" stroke-linecap="round" stroke-linejoin="round"/>
    <path d="M 103.66478729248047 52.870365142822266 C 154.19998168945312 42.9079704284668 132.3483428955078 59.868133544921875 175.528564453125 77.46831512451172" stroke-width="3.0" fill="none" stroke="rgb(0, 0, 0)" stroke-opacity="1.0" stroke-linecap="round" stroke-linejoin="round"/>
    <path d="M 176.8351287841797 91.96886444091797 C 162.36697387695312 77.43828582763672 215.14175415039062 98.68588256835938 149.47438049316406 68.82678985595703" stroke-width="3.0" fill="none" stroke="rgb(0, 0, 0)" stroke-opacity="1.0" stroke-linecap="round" stroke-linejoin="round"/>
    <path d="M 151.08363342285156 65.18841552734375 C 147.052978515625 77.59734344482422 157.0609130859375 62.311859130859375 147.8134765625 64.36947631835938" stroke-width="3.0" fill="none" stroke="rgb(0, 0, 0)" stroke-opacity="1.0" stroke-linecap="round" stroke-linejoin="round"/>
    <path d="M 128.28282165527344 122.16561126708984 C 149.04556274414062 154.24920654296875 136.38674926757812 102.37017822265625 118.7305908203125 142.3972930908203" stroke-width="3.0" fill="none" stroke="rgb(0, 0, 0)" stroke-opacity="1.0" stroke-linecap="round" stroke-linejoin="round"/>
    <path d="M 138.19459533691406 70.57551574707031 C 163.49620056152344 67.9133529663086 134.56854248046875 48.55701446533203 151.60447692871094 65.49726104736328" stroke-width="3.0" fill="none" stroke="rgb(0, 0, 0)" stroke-opacity="1.0" stroke-linecap="round" stroke-linejoin="round"/>
    <path d="M 142.84384155273438 51.6236457824707 C 118.74111938476562 52.76152801513672 153.0557861328125 58.70219802856445 145.71153259277344 54.47105026245117" stroke-width="3.0" fill="none" stroke="rgb(0, 0, 0)" stroke-opacity="1.0" stroke-linecap="round" stroke-linejoin="round"/>
  </g>
</svg>
