<?xml version="1.0" ?>
<svg xmlns="http://www.w3.org/2000/svg" version="1.1" width="224" height="224">
  <defs/>
  <g>
    <path d="M 169.45785522460938 88.0284423828125 C 128.69894409179688 86.50849914550781 81.91334533691406 109.42666625976562 143.1648406982422 76.44979858398438" stroke-width="3.0" fill="none" stroke="rgb(0, 0, 0)" stroke-opacity="1.0" stroke-linecap="round" stroke-linejoin="round"/>
    <path d="M 179.83807373046875 91.50062561035156 C 170.4435272216797 97.83086395263672 192.21755981445312 91.5251235961914 163.7449188232422 109.69908142089844" stroke-width="3.0" fill="none" stroke="rgb(0, 0, 0)" stroke-opacity="1.0" stroke-linecap="round" stroke-linejoin="round"/>
    <path d="M 48.74847412109375 39.682823181152344 C 8.706514358520508 53.146541595458984 77.96907806396484 142.9297637939453 81.98860931396484 71.43760681152344" stroke-width="3.0" fill="none" stroke="rgb(0, 0, 0)" stroke-opacity="1.0" stroke-linecap="round" stroke-linejoin="round"/>
    <path d="M 101.77811431884766 75.68687438964844 C 151.2829132080078 70.27445983886719 196.89073181152344 78.86450958251953 103.23615264892578 93.46721649169922" stroke-width="3.0" fill="none" stroke="rgb(0, 0, 0)" stroke-opacity="1.0" stroke-linecap="round" stroke-linejoin="round"/>
    <path d="M 158.36961364746094 82.42985534667969 C 213.2395477294922 109.18582916259766 166.73883056640625 97.3016128540039 179.27976989746094 93.21421813964844" stroke-width="3.0" fill="none" stroke="rgb(0, 0, 0)" stroke-opacity="1.0" stroke-linecap="round" stroke-linejoin="round"/>
    <path d="M 148.8644561767578 61.613059997558594 C 116.06183624267578 72.01402282714844 65.0183334350586 105.39694213867188 90.34812927246094 65.04444885253906" stroke-width="3.0" fill="none" stroke="rgb(0, 0, 0)" stroke-opacity="1.0" stroke-linecap="round" stroke-linejoin="round"/>
    <path d="M 152.53599548339844 69.36022186279297 C 125.42560577392578 62.808448791503906 161.5057373046875 52.320858001708984 190.3136444091797 95.24407196044922" stroke-width="3.0" fill="none" stroke="rgb(0, 0, 0)" stroke-opacity="1.0" stroke-linecap="round" stroke-linejoin="round"/>
    <path d="M 87.34501647949219 86.51051330566406 C 123.89543151855469 102.21417999267578 111.6776123046875 84.10518646240234 122.87925720214844 138.07957458496094" stroke-width="3.0" fill="none" stroke="rgb(0, 0, 0)" stroke-opacity="1.0" stroke-linecap="round" stroke-linejoin="round"/>
    <path d="M 136.3033447265625 94.5783920288086 C 118.6235122680664 190.5892791748047 130.9874267578125 95.29981994628906 106.11836242675781 204.44236755371094" stroke-width="3.0" fill="none" stroke="rgb(0, 0, 0)" stroke-opacity="1.0" stroke-linecap="round" stroke-linejoin="round"/>
    <path d="M 118.78851318359375 48.84980392456055 C 138.2101287841797 52.74699783325195 81.24987030029297 28.243453979492188 74.77306365966797 77.21894836425781" stroke-width="3.0" fill="none" stroke="rgb(0, 0, 0)" stroke-opacity="1.0" stroke-linecap="round" stroke-linejoin="round"/>
    <path d="M 108.77290344238281 46.45381164550781 C 155.15933227539062 46.1108512878418 128.92799377441406 65.73225402832031 175.642822265625 85.76908111572266" stroke-width="3.0" fill="none" stroke="rgb(0, 0, 0)" stroke-opacity="1.0" stroke-linecap="round" stroke-linejoin="round"/>
    <path d="M 181.15658569335938 84.21853637695312 C 144.31361389160156 65.0879898071289 184.66458129882812 88.49994659423828 144.3699188232422 82.9256362915039" stroke-width="3.0" fill="none" stroke="rgb(0, 0, 0)" stroke-opacity="1.0" stroke-linecap="round" stroke-linejoin="round"/>
    <path d="M 146.52365112304688 65.68672180175781 C 144.49761962890625 71.90946197509766 152.79139709472656 59.669830322265625 144.75076293945312 63.12232971191406" stroke-width="3.0" fill="none" stroke="rgb(0, 0, 0)" stroke-opacity="1.0" stroke-linecap="round" stroke-linejoin="round"/>
    <path d="M 122.3454818725586 131.6356964111328 C 134.84861755371094 145.81739807128906 129.34371948242188 106.38663482666016 115.23921203613281 148.2399139404297" stroke-width="3.0" fill="none" stroke="rgb(0, 0, 0)" stroke-opacity="1.0" stroke-linecap="round" stroke-linejoin="round"/>
    <path d="M 149.41232299804688 62.72616958618164 C 166.6630096435547 67.07262420654297 130.37863159179688 50.68080520629883 145.94723510742188 59.88917541503906" stroke-width="3.0" fill="none" stroke="rgb(0, 0, 0)" stroke-opacity="1.0" stroke-linecap="round" stroke-linejoin="round"/>
    <path d="M 139.8641815185547 54.21268081665039 C 113.40851593017578 47.13236999511719 153.9457550048828 54.78622817993164 147.90567016601562 55.801883697509766" stroke-width="3.0" fill="none" stroke="rgb(0, 0, 0)" stroke-opacity="1.0" stroke-linecap="round" stroke-linejoin="round"/>
  </g>
</svg>
