<?xml version="1.0" ?>
<svg xmlns="http://www.w3.org/2000/svg" version="1.1" width="224" height="224">
  <defs/>
  <g>
    <path d="M 171.87046813964844 89.45448303222656 C 137.93807983398438 81.0589599609375 100.68994903564453 93.11360168457031 146.0248260498047 86.86491394042969" stroke-width="3.0" fill="none" stroke="rgb(0, 0, 0)" stroke-opacity="1.0" stroke-linecap="round" stroke-linejoin="round"/>
    <path d="M 177.38430786132812 89.3914566040039 C 174.65771484375 94.50712585449219 194.79779052734375 89.89179229736328 159.5626220703125 107.78002166748047" stroke-width="3.0" fill="none" stroke="rgb(0, 0, 0)" stroke-opacity="1.0" stroke-linecap="round" stroke-linejoin="round"/>
    <path d="M 45.72943878173828 37.028194427490234 C 15.469615936279297 60.686832427978516 85.87744140625 128.63563537597656 84.1229476928711 69.29828643798828" stroke-width="3.0" fill="none" stroke="rgb(0, 0, 0)" stroke-opacity="1.0" stroke-linecap="round" stroke-linejoin="round"/>
    <path d="M 90.4791488647461 75.7783432006836 C 129.22634887695312 80.0211181640625 172.05015563964844 85.54557800292969 103.71636199951172 94.80899810791016" stroke-width="3.0" fill="none" stroke="rgb(0, 0, 0)" stroke-opacity="1.0" stroke-linecap="round" stroke-linejoin="round"/>
    <path d="M 160.8599090576172 85.6774673461914 C 214.76710510253906 103.3803939819336 172.1090850830078 99.46002197265625 185.63189697265625 96.95309448242188" stroke-width="3.0" fill="none" stroke="rgb(0, 0, 0)" stroke-opacity="1.0" stroke-linecap="round" stroke-linejoin="round"/>
    <path d="M 144.74757385253906 57.24897766113281 C 119.23678588867188 74.22433471679688 65.88392639160156 101.72157287597656 90.20381164550781 59.09483337402344" stroke-width="3.0" fill="none" stroke="rgb(0, 0, 0)" stroke-opacity="1.0" stroke-linecap="round" stroke-linejoin="round"/>
    <path d="M 144.32833862304688 65.9352035522461 C 138.45755004882812 67.52713012695312 154.78993225097656 45.87888717651367 190.62876892089844 95.1321792602539" stroke-width="3.0" fill="none" stroke="rgb(0, 0, 0)" stroke-opacity="1.0" stroke-linecap="round" stroke-linejoin="round"/>
    <path d="M 82.87461853027344 90.98834228515625 C 120.78041076660156 102.30567932128906 105.7042007446289 83.86808776855469 121.87228393554688 135.96009826660156" stroke-width="3.0" fill="none" stroke="rgb(0, 0, 0)" stroke-opacity="1.0" stroke-linecap="round" stroke-linejoin="round"/>
    <path d="M 139.83685302734375 109.85968017578125 C 114.88118743896484 176.2579345703125 133.47332763671875 102.12857055664062 104.59300994873047 204.9888153076172" stroke-width="3.0" fill="none" stroke="rgb(0, 0, 0)" stroke-opacity="1.0" stroke-linecap="round" stroke-linejoin="round"/>
    <path d="M 137.73138427734375 49.0212516784668 C 144.56973266601562 52.44572067260742 82.2278823852539 25.254791259765625 76.57281494140625 80.96244812011719" stroke-width="3.0" fill="none" stroke="rgb(0, 0, 0)" stroke-opacity="1.0" stroke-linecap="round" stroke-linejoin="round"/>
    <path d="M 105.49730682373047 71.11830139160156 C 154.58221435546875 59.631866455078125 127.91664123535156 61.9914436340332 178.02955627441406 89.19556427001953" stroke-width="3.0" fill="none" stroke="rgb(0, 0, 0)" stroke-opacity="1.0" stroke-linecap="round" stroke-linejoin="round"/>
    <path d="M 178.5056915283203 85.4718246459961 C 145.8242645263672 71.01985931396484 173.59182739257812 88.33834075927734 148.67613220214844 75.62706756591797" stroke-width="3.0" fill="none" stroke="rgb(0, 0, 0)" stroke-opacity="1.0" stroke-linecap="round" stroke-linejoin="round"/>
    <path d="M 143.90196228027344 63.13399887084961 C 141.73500061035156 69.64968872070312 149.27102661132812 55.94108963012695 146.90235900878906 61.02465057373047" stroke-width="3.0" fill="none" stroke="rgb(0, 0, 0)" stroke-opacity="1.0" stroke-linecap="round" stroke-linejoin="round"/>
    <path d="M 123.14851379394531 132.1528778076172 C 128.86773681640625 141.94488525390625 124.00704193115234 105.35830688476562 114.40277862548828 145.03598022460938" stroke-width="3.0" fill="none" stroke="rgb(0, 0, 0)" stroke-opacity="1.0" stroke-linecap="round" stroke-linejoin="round"/>
    <path d="M 145.3185272216797 62.98336410522461 C 166.89700317382812 65.10263061523438 128.2198944091797 54.189231872558594 153.48670959472656 60.08186340332031" stroke-width="3.0" fill="none" stroke="rgb(0, 0, 0)" stroke-opacity="1.0" stroke-linecap="round" stroke-linejoin="round"/>
    <path d="M 141.577392578125 53.10268783569336 C 125.38616943359375 49.31353759765625 158.36900329589844 56.553489685058594 146.79539489746094 62.5334358215332" stroke-width="3.0" fill="none" stroke="rgb(0, 0, 0)" stroke-opacity="1.0" stroke-linecap="round" stroke-linejoin="round"/>
  </g>
</svg>
