<?xml version="1.0" ?>
<svg xmlns="http://www.w3.org/2000/svg" version="1.1" width="224" height="224">
  <defs/>
  <g>
    <path d="M 172.99119567871094 91.43360137939453 C 128.05038452148438 85.52011108398438 75.62279510498047 107.7383804321289 146.0258331298828 76.68169403076172" stroke-width="3.0" fill="none" stroke="rgb(0, 0, 0)" stroke-opacity="1.0" stroke-linecap="round" stroke-linejoin="round"/>
    <path d="M 177.15589904785156 91.2458724975586 C 171.35862731933594 96.71961212158203 190.77450561523438 89.42193603515625 161.0967254638672 109.6928482055664" stroke-width="3.0" fill="none" stroke="rgb(0, 0, 0)" stroke-opacity="1.0" stroke-linecap="round" stroke-linejoin="round"/>
    <path d="M 51.469173431396484 38.919654846191406 C 12.094635009765625 52.1427001953125 80.78876495361328 141.99391174316406 81.96743774414062 70.5121078491211" stroke-width="3.0" fill="none" stroke="rgb(0, 0, 0)" stroke-opacity="1.0" stroke-linecap="round" stroke-linejoin="round"/>
    <path d="M 106.49066925048828 73.49613189697266 C 152.54457092285156 69.66305541992188 198.50135803222656 78.93627166748047 102.98343658447266 93.57942962646484" stroke-width="3.0" fill="none" stroke="rgb(0, 0, 0)" stroke-opacity="1.0" stroke-linecap="round" stroke-linejoin="round"/>
    <path d="M 160.0450897216797 83.8110122680664 C 218.29505920410156 106.57331085205078 166.2259521484375 101.90668487548828 178.41612243652344 94.01087188720703" stroke-width="3.0" fill="none" stroke="rgb(0, 0, 0)" stroke-opacity="1.0" stroke-linecap="round" stroke-linejoin="round"/>
    <path d="M 148.3160400390625 60.77861785888672 C 112.89456176757812 71.49430084228516 61.11067199707031 110.62346649169922 90.8846664428711 64.64262390136719" stroke-width="3.0" fill="none" stroke="rgb(0, 0, 0)" stroke-opacity="1.0" stroke-linecap="round" stroke-linejoin="round"/>
    <path d="M 154.8036346435547 69.22269439697266 C 121.65127563476562 61.03003692626953 162.14492797851562 50.14120864868164 191.1077423095703 95.32584381103516" stroke-width="3.0" fill="none" stroke="rgb(0, 0, 0)" stroke-opacity="1.0" stroke-linecap="round" stroke-linejoin="round"/>
    <path d="M 82.75324249267578 88.78802490234375 C 124.68463897705078 101.00135803222656 115.97015380859375 82.96669006347656 122.21343994140625 138.6885986328125" stroke-width="3.0" fill="none" stroke="rgb(0, 0, 0)" stroke-opacity="1.0" stroke-linecap="round" stroke-linejoin="round"/>
    <path d="M 136.76564025878906 94.62843322753906 C 118.26469421386719 189.1961669921875 130.0222625732422 86.89884948730469 105.30786895751953 205.12136840820312" stroke-width="3.0" fill="none" stroke="rgb(0, 0, 0)" stroke-opacity="1.0" stroke-linecap="round" stroke-linejoin="round"/>
    <path d="M 122.74874114990234 51.17042541503906 C 140.49281311035156 52.79484939575195 80.48932647705078 30.822114944458008 77.29913330078125 78.2116470336914" stroke-width="3.0" fill="none" stroke="rgb(0, 0, 0)" stroke-opacity="1.0" stroke-linecap="round" stroke-linejoin="round"/>
    <path d="M 108.73644256591797 47.69417953491211 C 159.1243438720703 50.07463455200195 133.7705078125 63.4586296081543 175.3542938232422 84.35929870605469" stroke-width="3.0" fill="none" stroke="rgb(0, 0, 0)" stroke-opacity="1.0" stroke-linecap="round" stroke-linejoin="round"/>
    <path d="M 179.51512145996094 87.4228286743164 C 146.90740966796875 66.46533966064453 191.01510620117188 91.45708465576172 145.23880004882812 86.44009399414062" stroke-width="3.0" fill="none" stroke="rgb(0, 0, 0)" stroke-opacity="1.0" stroke-linecap="round" stroke-linejoin="round"/>
    <path d="M 146.3329315185547 65.48199462890625 C 144.19517517089844 71.69021606445312 152.64244079589844 59.410362243652344 144.77426147460938 63.48072052001953" stroke-width="3.0" fill="none" stroke="rgb(0, 0, 0)" stroke-opacity="1.0" stroke-linecap="round" stroke-linejoin="round"/>
    <path d="M 122.557373046875 133.06141662597656 C 137.46377563476562 147.52671813964844 128.04942321777344 104.13551330566406 115.85100555419922 146.60157775878906" stroke-width="3.0" fill="none" stroke="rgb(0, 0, 0)" stroke-opacity="1.0" stroke-linecap="round" stroke-linejoin="round"/>
    <path d="M 147.56436157226562 63.87137985229492 C 163.91966247558594 67.06961059570312 131.13650512695312 49.24284744262695 146.60243225097656 59.37043380737305" stroke-width="3.0" fill="none" stroke="rgb(0, 0, 0)" stroke-opacity="1.0" stroke-linecap="round" stroke-linejoin="round"/>
    <path d="M 140.84869384765625 51.65861892700195 C 113.81270599365234 44.10053253173828 151.0800323486328 53.59589385986328 146.47616577148438 52.189964294433594" stroke-width="3.0" fill="none" stroke="rgb(0, 0, 0)" stroke-opacity="1.0" stroke-linecap="round" stroke-linejoin="round"/>
  </g>
</svg>
