<?xml version="1.0" ?>
<svg xmlns="http://www.w3.org/2000/svg" version="1.1" width="224" height="224">
  <defs/>
  <g>
    <path d="M 177.2238311767578 95.29410552978516 C 161.63739013671875 80.79150390625 32.95416259765625 94.22217559814453 122.03648376464844 71.15744018554688" stroke-width="3.0" fill="none" stroke="rgb(0, 0, 0)" stroke-opacity="1.0" stroke-linecap="round" stroke-linejoin="round"/>
    <path d="M 177.15866088867188 95.71379852294922 C 178.16827392578125 105.09919738769531 205.8233184814453 90.52893829345703 131.38595581054688 118.86637115478516" stroke-width="3.0" fill="none" stroke="rgb(0, 0, 0)" stroke-opacity="1.0" stroke-linecap="round" stroke-linejoin="round"/>
    <path d="M 60.38406753540039 42.41109848022461 C 3.776717185974121 15.752431869506836 65.24967956542969 137.93614196777344 85.98580169677734 60.87656021118164" stroke-width="3.0" fill="none" stroke="rgb(0, 0, 0)" stroke-opacity="1.0" stroke-linecap="round" stroke-linejoin="round"/>
    <path d="M 106.30014038085938 60.35005569458008 C 155.26036071777344 63.22468948364258 207.02813720703125 104.36537170410156 108.69429779052734 74.06532287597656" stroke-width="3.0" fill="none" stroke="rgb(0, 0, 0)" stroke-opacity="1.0" stroke-linecap="round" stroke-linejoin="round"/>
    <path d="M 121.11091613769531 71.17301940917969 C 208.05113220214844 98.6983642578125 176.16748046875 87.96733093261719 179.47093200683594 93.88109588623047" stroke-width="3.0" fill="none" stroke="rgb(0, 0, 0)" stroke-opacity="1.0" stroke-linecap="round" stroke-linejoin="round"/>
    <path d="M 101.7909164428711 50.405372619628906 C 114.1346435546875 61.650211334228516 39.50840377807617 138.14593505859375 75.26739501953125 99.97504425048828" stroke-width="3.0" fill="none" stroke="rgb(0, 0, 0)" stroke-opacity="1.0" stroke-linecap="round" stroke-linejoin="round"/>
    <path d="M 148.2454071044922 77.9635238647461 C 4.5367655754089355 61.916683197021484 151.6328582763672 28.287158966064453 189.0232696533203 97.42739868164062" stroke-width="3.0" fill="none" stroke="rgb(0, 0, 0)" stroke-opacity="1.0" stroke-linecap="round" stroke-linejoin="round"/>
    <path d="M 90.8580322265625 73.41893005371094 C 112.23616790771484 111.0070571899414 114.42911529541016 61.405738830566406 118.97932434082031 145.89544677734375" stroke-width="3.0" fill="none" stroke="rgb(0, 0, 0)" stroke-opacity="1.0" stroke-linecap="round" stroke-linejoin="round"/>
    <path d="M 125.65704345703125 91.08035278320312 C 115.01227569580078 202.3062744140625 127.07850646972656 94.7989501953125 106.0121078491211 206.23486328125" stroke-width="3.0" fill="none" stroke="rgb(0, 0, 0)" stroke-opacity="1.0" stroke-linecap="round" stroke-linejoin="round"/>
    <path d="M 150.67813110351562 65.56815338134766 C 137.5200958251953 49.63667678833008 95.68753814697266 23.531038284301758 79.90180969238281 82.70187377929688" stroke-width="3.0" fill="none" stroke="rgb(0, 0, 0)" stroke-opacity="1.0" stroke-linecap="round" stroke-linejoin="round"/>
    <path d="M 92.3871841430664 63.509090423583984 C 139.1719512939453 28.51301383972168 137.4568634033203 54.03084182739258 173.93338012695312 84.39256286621094" stroke-width="3.0" fill="none" stroke="rgb(0, 0, 0)" stroke-opacity="1.0" stroke-linecap="round" stroke-linejoin="round"/>
    <path d="M 154.02671813964844 73.56462860107422 C 160.89598083496094 91.54232788085938 252.20252990722656 125.5634765625 141.62326049804688 57.79837417602539" stroke-width="3.0" fill="none" stroke="rgb(0, 0, 0)" stroke-opacity="1.0" stroke-linecap="round" stroke-linejoin="round"/>
    <path d="M 160.74801635742188 66.76960754394531 C 190.7415313720703 104.50810241699219 169.60745239257812 85.53778076171875 123.69532012939453 59.39472961425781" stroke-width="3.0" fill="none" stroke="rgb(0, 0, 0)" stroke-opacity="1.0" stroke-linecap="round" stroke-linejoin="round"/>
    <path d="M 124.8670654296875 123.34384155273438 C 138.1632080078125 149.59852600097656 138.07931518554688 101.12031555175781 114.13907623291016 147.3905487060547" stroke-width="3.0" fill="none" stroke="rgb(0, 0, 0)" stroke-opacity="1.0" stroke-linecap="round" stroke-linejoin="round"/>
    <path d="M 105.93352508544922 78.87512969970703 C 179.44219970703125 116.05103302001953 137.0247802734375 63.59267044067383 140.0116729736328 69.30663299560547" stroke-width="3.0" fill="none" stroke="rgb(0, 0, 0)" stroke-opacity="1.0" stroke-linecap="round" stroke-linejoin="round"/>
    <path d="M 142.9681396484375 83.47827911376953 C 65.25228881835938 34.807212829589844 164.3587646484375 63.2061767578125 126.8907699584961 47.37285614013672" stroke-width="3.0" fill="none" stroke="rgb(0, 0, 0)" stroke-opacity="1.0" stroke-linecap="round" stroke-linejoin="round"/>
  </g>
</svg>
