<?xml version="1.0" ?>
<svg xmlns="http://www.w3.org/2000/svg" version="1.1" width="224" height="224">
  <defs/>
  <g>
    <path d="M 150.45068359375 72.19796752929688 C 135.70616149902344 84.7591323852539 115.42137908935547 104.41790008544922 128.676025390625 89.96334075927734" stroke-width="3.0" fill="none" stroke="rgb(0, 0, 0)" stroke-opacity="1.0" stroke-linecap="round" stroke-linejoin="round"/>
    <path d="M 180.32113647460938 97.15264129638672 C 184.7959442138672 86.388427734375 189.66867065429688 85.22925567626953 175.9813995361328 106.08805847167969" stroke-width="3.0" fill="none" stroke="rgb(0, 0, 0)" stroke-opacity="1.0" stroke-linecap="round" stroke-linejoin="round"/>
    <path d="M 64.48119354248047 45.349735260009766 C 39.85839080810547 89.00001525878906 70.09056091308594 121.5133056640625 103.9101333618164 87.58072662353516" stroke-width="3.0" fill="none" stroke="rgb(0, 0, 0)" stroke-opacity="1.0" stroke-linecap="round" stroke-linejoin="round"/>
    <path d="M 117.6430435180664 93.40779113769531 C 110.72559356689453 92.48043060302734 147.13330078125 83.05378723144531 109.80261993408203 96.71710968017578" stroke-width="3.0" fill="none" stroke="rgb(0, 0, 0)" stroke-opacity="1.0" stroke-linecap="round" stroke-linejoin="round"/>
    <path d="M 181.77902221679688 92.89144897460938 C 197.88772583007812 82.15362548828125 199.8546600341797 77.06257629394531 195.59754943847656 80.56840515136719" stroke-width="3.0" fill="none" stroke="rgb(0, 0, 0)" stroke-opacity="1.0" stroke-linecap="round" stroke-linejoin="round"/>
    <path d="M 129.37722778320312 63.99910354614258 C 127.44590759277344 91.38850402832031 103.89100646972656 107.17097473144531 119.54395294189453 69.66227722167969" stroke-width="3.0" fill="none" stroke="rgb(0, 0, 0)" stroke-opacity="1.0" stroke-linecap="round" stroke-linejoin="round"/>
    <path d="M 142.8354034423828 57.18040466308594 C 159.5050811767578 72.0580825805664 139.12008666992188 52.03950119018555 154.10791015625 63.81233596801758" stroke-width="3.0" fill="none" stroke="rgb(0, 0, 0)" stroke-opacity="1.0" stroke-linecap="round" stroke-linejoin="round"/>
    <path d="M 89.68543243408203 99.4932632446289 C 127.31204986572266 91.26620483398438 108.17973327636719 105.914794921875 126.3913345336914 126.54412078857422" stroke-width="3.0" fill="none" stroke="rgb(0, 0, 0)" stroke-opacity="1.0" stroke-linecap="round" stroke-linejoin="round"/>
    <path d="M 128.6885986328125 130.9352264404297 C 117.51143646240234 166.30758666992188 124.97917175292969 144.34573364257812 103.70178985595703 202.10899353027344" stroke-width="3.0" fill="none" stroke="rgb(0, 0, 0)" stroke-opacity="1.0" stroke-linecap="round" stroke-linejoin="round"/>
    <path d="M 118.97775268554688 50.34135818481445 C 135.5797576904297 65.36071014404297 114.21878814697266 48.22536087036133 99.85336303710938 90.45023345947266" stroke-width="3.0" fill="none" stroke="rgb(0, 0, 0)" stroke-opacity="1.0" stroke-linecap="round" stroke-linejoin="round"/>
    <path d="M 133.00877380371094 92.52490997314453 C 145.30535888671875 79.75628662109375 121.09107208251953 75.857666015625 151.92453002929688 65.71244812011719" stroke-width="3.0" fill="none" stroke="rgb(0, 0, 0)" stroke-opacity="1.0" stroke-linecap="round" stroke-linejoin="round"/>
    <path d="M 142.85330200195312 64.36767578125 C 134.14259338378906 91.82243347167969 131.4512939453125 99.56575775146484 143.36375427246094 73.83827209472656" stroke-width="3.0" fill="none" stroke="rgb(0, 0, 0)" stroke-opacity="1.0" stroke-linecap="round" stroke-linejoin="round"/>
    <path d="M 129.12904357910156 73.65448760986328 C 148.18960571289062 91.07935333251953 148.71067810058594 59.619224548339844 139.87619018554688 53.438636779785156" stroke-width="3.0" fill="none" stroke="rgb(0, 0, 0)" stroke-opacity="1.0" stroke-linecap="round" stroke-linejoin="round"/>
    <path d="M 123.6164321899414 122.61052703857422 C 141.4046173095703 146.29063415527344 120.75762176513672 99.51095581054688 123.15220642089844 137.8006134033203" stroke-width="3.0" fill="none" stroke="rgb(0, 0, 0)" stroke-opacity="1.0" stroke-linecap="round" stroke-linejoin="round"/>
    <path d="M 138.21820068359375 50.98100280761719 C 149.05848693847656 64.1836929321289 142.41293334960938 44.487510681152344 151.0889892578125 62.436763763427734" stroke-width="3.0" fill="none" stroke="rgb(0, 0, 0)" stroke-opacity="1.0" stroke-linecap="round" stroke-linejoin="round"/>
    <path d="M 120.26996612548828 46.38956069946289 C 118.13209533691406 54.31172180175781 134.68576049804688 30.991168975830078 127.44940948486328 63.06387710571289" stroke-width="3.0" fill="none" stroke="rgb(0, 0, 0)" stroke-opacity="1.0" stroke-linecap="round" stroke-linejoin="round"/>
  </g>
</svg>
