<?xml version="1.0" ?>
<svg xmlns="http://www.w3.org/2000/svg" version="1.1" width="224" height="224">
  <defs/>
  <g>
    <path d="M 168.76707458496094 91.8850326538086 C 132.9422607421875 87.47669982910156 95.10696411132812 106.55152893066406 143.28805541992188 73.28551483154297" stroke-width="3.0" fill="none" stroke="rgb(0, 0, 0)" stroke-opacity="1.0" stroke-linecap="round" stroke-linejoin="round"/>
    <path d="M 177.261962890625 92.45186614990234 C 170.84336853027344 96.52460479736328 190.12452697753906 88.0035171508789 161.2001495361328 109.04754638671875" stroke-width="3.0" fill="none" stroke="rgb(0, 0, 0)" stroke-opacity="1.0" stroke-linecap="round" stroke-linejoin="round"/>
    <path d="M 46.235877990722656 38.29084014892578 C 9.233768463134766 53.861846923828125 75.27532196044922 142.35806274414062 83.9674072265625 72.1576156616211" stroke-width="3.0" fill="none" stroke="rgb(0, 0, 0)" stroke-opacity="1.0" stroke-linecap="round" stroke-linejoin="round"/>
    <path d="M 99.28306579589844 75.86241149902344 C 148.56240844726562 69.7528076171875 192.5320281982422 77.13285064697266 103.28926086425781 92.47112274169922" stroke-width="3.0" fill="none" stroke="rgb(0, 0, 0)" stroke-opacity="1.0" stroke-linecap="round" stroke-linejoin="round"/>
    <path d="M 158.3417205810547 85.83061981201172 C 211.1759033203125 110.1116714477539 167.31033325195312 94.37598419189453 178.0474395751953 99.64717864990234" stroke-width="3.0" fill="none" stroke="rgb(0, 0, 0)" stroke-opacity="1.0" stroke-linecap="round" stroke-linejoin="round"/>
    <path d="M 147.59584045410156 61.196502685546875 C 116.98558807373047 72.67159271240234 66.84040832519531 104.78341674804688 90.3936538696289 62.41887664794922" stroke-width="3.0" fill="none" stroke="rgb(0, 0, 0)" stroke-opacity="1.0" stroke-linecap="round" stroke-linejoin="round"/>
    <path d="M 151.62205505371094 68.61486053466797 C 127.8231430053711 65.78267669677734 162.2753448486328 53.66606140136719 189.6522979736328 95.63333892822266" stroke-width="3.0" fill="none" stroke="rgb(0, 0, 0)" stroke-opacity="1.0" stroke-linecap="round" stroke-linejoin="round"/>
    <path d="M 85.50939178466797 87.11890411376953 C 128.6480712890625 100.67487335205078 112.44971466064453 79.95682525634766 124.44873046875 139.6479034423828" stroke-width="3.0" fill="none" stroke="rgb(0, 0, 0)" stroke-opacity="1.0" stroke-linecap="round" stroke-linejoin="round"/>
    <path d="M 138.4923858642578 94.65206146240234 C 118.78368377685547 190.8236083984375 132.8006134033203 100.10797119140625 109.98959350585938 204.33583068847656" stroke-width="3.0" fill="none" stroke="rgb(0, 0, 0)" stroke-opacity="1.0" stroke-linecap="round" stroke-linejoin="round"/>
    <path d="M 118.4604721069336 50.0125732421875 C 137.2189178466797 55.2290153503418 83.59429931640625 30.099838256835938 78.62739562988281 76.74838256835938" stroke-width="3.0" fill="none" stroke="rgb(0, 0, 0)" stroke-opacity="1.0" stroke-linecap="round" stroke-linejoin="round"/>
    <path d="M 105.55077362060547 49.5111083984375 C 154.4886474609375 42.07439422607422 127.37980651855469 64.14820098876953 173.8177032470703 89.55792999267578" stroke-width="3.0" fill="none" stroke="rgb(0, 0, 0)" stroke-opacity="1.0" stroke-linecap="round" stroke-linejoin="round"/>
    <path d="M 178.77479553222656 85.5422592163086 C 141.93923950195312 72.46453094482422 183.80030822753906 90.74678039550781 144.6374969482422 82.02538299560547" stroke-width="3.0" fill="none" stroke="rgb(0, 0, 0)" stroke-opacity="1.0" stroke-linecap="round" stroke-linejoin="round"/>
    <path d="M 146.68801879882812 65.92807006835938 C 145.7207794189453 72.83808135986328 153.7875518798828 60.152793884277344 146.8133544921875 63.02295684814453" stroke-width="3.0" fill="none" stroke="rgb(0, 0, 0)" stroke-opacity="1.0" stroke-linecap="round" stroke-linejoin="round"/>
    <path d="M 125.58562469482422 134.23838806152344 C 133.8808135986328 144.4641876220703 131.92755126953125 106.60020446777344 116.0422592163086 142.98318481445312" stroke-width="3.0" fill="none" stroke="rgb(0, 0, 0)" stroke-opacity="1.0" stroke-linecap="round" stroke-linejoin="round"/>
    <path d="M 148.84571838378906 64.4933090209961 C 165.31646728515625 69.32977294921875 128.79217529296875 52.54027557373047 145.57681274414062 60.1749153137207" stroke-width="3.0" fill="none" stroke="rgb(0, 0, 0)" stroke-opacity="1.0" stroke-linecap="round" stroke-linejoin="round"/>
    <path d="M 142.0919952392578 53.28938293457031 C 113.2624282836914 49.6338005065918 155.5673065185547 55.56326675415039 146.76319885253906 56.76044464111328" stroke-width="3.0" fill="none" stroke="rgb(0, 0, 0)" stroke-opacity="1.0" stroke-linecap="round" stroke-linejoin="round"/>
  </g>
</svg>
