<?xml version="1.0" ?>
<svg xmlns="http://www.w3.org/2000/svg" version="1.1" width="224" height="224">
  <defs/>
  <g>
    <path d="M 170.22007751464844 90.82911682128906 C 128.03042602539062 86.33931732177734 78.38147735595703 108.20157623291016 143.6088104248047 76.82319641113281" stroke-width="3.0" fill="none" stroke="rgb(0, 0, 0)" stroke-opacity="1.0" stroke-linecap="round" stroke-linejoin="round"/>
    <path d="M 180.25526428222656 90.9047622680664 C 170.20921325683594 98.03038787841797 191.3949737548828 90.73941040039062 163.6818084716797 107.35588836669922" stroke-width="3.0" fill="none" stroke="rgb(0, 0, 0)" stroke-opacity="1.0" stroke-linecap="round" stroke-linejoin="round"/>
    <path d="M 50.9533805847168 40.65798568725586 C 10.309416770935059 54.47822570800781 79.38249206542969 143.8089141845703 83.64797973632812 72.84276580810547" stroke-width="3.0" fill="none" stroke="rgb(0, 0, 0)" stroke-opacity="1.0" stroke-linecap="round" stroke-linejoin="round"/>
    <path d="M 102.78828430175781 76.71549224853516 C 149.49868774414062 68.35202026367188 194.6505126953125 77.58155822753906 102.03933715820312 93.61550903320312" stroke-width="3.0" fill="none" stroke="rgb(0, 0, 0)" stroke-opacity="1.0" stroke-linecap="round" stroke-linejoin="round"/>
    <path d="M 159.1829071044922 82.74674987792969 C 215.81454467773438 107.99067687988281 167.05038452148438 98.33860778808594 178.9384307861328 92.93728637695312" stroke-width="3.0" fill="none" stroke="rgb(0, 0, 0)" stroke-opacity="1.0" stroke-linecap="round" stroke-linejoin="round"/>
    <path d="M 148.87649536132812 61.3651008605957 C 115.19507598876953 72.05842590332031 62.89055633544922 106.62860107421875 90.93267822265625 64.73828125" stroke-width="3.0" fill="none" stroke="rgb(0, 0, 0)" stroke-opacity="1.0" stroke-linecap="round" stroke-linejoin="round"/>
    <path d="M 153.67564392089844 69.5833969116211 C 123.63645935058594 64.25921630859375 162.7805938720703 51.88905334472656 189.90834045410156 95.00347900390625" stroke-width="3.0" fill="none" stroke="rgb(0, 0, 0)" stroke-opacity="1.0" stroke-linecap="round" stroke-linejoin="round"/>
    <path d="M 85.72480010986328 88.62120819091797 C 123.8256607055664 100.70154571533203 114.04630279541016 83.1953353881836 123.03646850585938 138.55101013183594" stroke-width="3.0" fill="none" stroke="rgb(0, 0, 0)" stroke-opacity="1.0" stroke-linecap="round" stroke-linejoin="round"/>
    <path d="M 135.45816040039062 93.4305191040039 C 117.91865539550781 189.85093688964844 131.58657836914062 92.95003509521484 104.4573974609375 205.4323272705078" stroke-width="3.0" fill="none" stroke="rgb(0, 0, 0)" stroke-opacity="1.0" stroke-linecap="round" stroke-linejoin="round"/>
    <path d="M 119.55619049072266 49.0551643371582 C 138.675048828125 51.51403045654297 80.72162628173828 27.50193214416504 74.39179229736328 77.6713638305664" stroke-width="3.0" fill="none" stroke="rgb(0, 0, 0)" stroke-opacity="1.0" stroke-linecap="round" stroke-linejoin="round"/>
    <path d="M 109.18630981445312 46.430885314941406 C 156.29322814941406 47.238094329833984 129.73056030273438 65.57703399658203 175.77175903320312 85.0153579711914" stroke-width="3.0" fill="none" stroke="rgb(0, 0, 0)" stroke-opacity="1.0" stroke-linecap="round" stroke-linejoin="round"/>
    <path d="M 181.29678344726562 83.51901245117188 C 145.23495483398438 62.98580551147461 185.2343292236328 87.94855499267578 143.49562072753906 83.21847534179688" stroke-width="3.0" fill="none" stroke="rgb(0, 0, 0)" stroke-opacity="1.0" stroke-linecap="round" stroke-linejoin="round"/>
    <path d="M 146.4270477294922 65.59680938720703 C 144.31973266601562 71.72013854980469 152.7001495361328 59.5063591003418 144.57479858398438 63.01725387573242" stroke-width="3.0" fill="none" stroke="rgb(0, 0, 0)" stroke-opacity="1.0" stroke-linecap="round" stroke-linejoin="round"/>
    <path d="M 122.84777069091797 131.70909118652344 C 135.785400390625 144.96807861328125 126.12152099609375 102.61774444580078 112.5204849243164 145.01986694335938" stroke-width="3.0" fill="none" stroke="rgb(0, 0, 0)" stroke-opacity="1.0" stroke-linecap="round" stroke-linejoin="round"/>
    <path d="M 148.90101623535156 62.769264221191406 C 166.09243774414062 66.6378173828125 130.88397216796875 50.09742736816406 146.37049865722656 59.49079895019531" stroke-width="3.0" fill="none" stroke="rgb(0, 0, 0)" stroke-opacity="1.0" stroke-linecap="round" stroke-linejoin="round"/>
    <path d="M 140.1978302001953 52.60397720336914 C 114.745849609375 44.023597717285156 153.36695861816406 53.02033615112305 148.0770263671875 55.470760345458984" stroke-width="3.0" fill="none" stroke="rgb(0, 0, 0)" stroke-opacity="1.0" stroke-linecap="round" stroke-linejoin="round"/>
  </g>
</svg>
