<?xml version="1.0" ?>
<svg xmlns="http://www.w3.org/2000/svg" version="1.1" width="224" height="224">
  <defs/>
  <g>
    <path d="M 186.73797607421875 94.74917602539062 C 161.320068359375 82.06145477294922 54.972415924072266 99.35443878173828 131.3481903076172 83.1456298828125" stroke-width="3.0" fill="none" stroke="rgb(0, 0, 0)" stroke-opacity="1.0" stroke-linecap="round" stroke-linejoin="round"/>
    <path d="M 190.82044982910156 98.06901550292969 C 176.49200439453125 98.67743682861328 204.7514190673828 93.70988464355469 126.58331298828125 119.71456146240234" stroke-width="3.0" fill="none" stroke="rgb(0, 0, 0)" stroke-opacity="1.0" stroke-linecap="round" stroke-linejoin="round"/>
    <path d="M 55.466590881347656 41.91870880126953 C 2.3699843883514404 41.0637092590332 74.39012908935547 133.9564971923828 69.64466094970703 64.78768920898438" stroke-width="3.0" fill="none" stroke="rgb(0, 0, 0)" stroke-opacity="1.0" stroke-linecap="round" stroke-linejoin="round"/>
    <path d="M 93.19605255126953 65.78678131103516 C 149.816650390625 69.46121978759766 201.5325164794922 94.38373565673828 95.35318756103516 83.71512603759766" stroke-width="3.0" fill="none" stroke="rgb(0, 0, 0)" stroke-opacity="1.0" stroke-linecap="round" stroke-linejoin="round"/>
    <path d="M 142.85809326171875 80.33296966552734 C 212.3138885498047 93.33355712890625 169.27774047851562 106.13432312011719 187.22613525390625 94.1133041381836" stroke-width="3.0" fill="none" stroke="rgb(0, 0, 0)" stroke-opacity="1.0" stroke-linecap="round" stroke-linejoin="round"/>
    <path d="M 114.05225372314453 43.53569030761719 C 99.48262786865234 55.811519622802734 33.661293029785156 141.814208984375 66.46784973144531 77.99229431152344" stroke-width="3.0" fill="none" stroke="rgb(0, 0, 0)" stroke-opacity="1.0" stroke-linecap="round" stroke-linejoin="round"/>
    <path d="M 140.8497314453125 89.37010955810547 C 15.821678161621094 62.507568359375 154.82159423828125 34.293888092041016 189.5985870361328 94.1426010131836" stroke-width="3.0" fill="none" stroke="rgb(0, 0, 0)" stroke-opacity="1.0" stroke-linecap="round" stroke-linejoin="round"/>
    <path d="M 79.82078552246094 71.87010192871094 C 120.02100372314453 102.41922760009766 108.99066162109375 86.43895721435547 123.13372039794922 144.92523193359375" stroke-width="3.0" fill="none" stroke="rgb(0, 0, 0)" stroke-opacity="1.0" stroke-linecap="round" stroke-linejoin="round"/>
    <path d="M 124.5072021484375 92.78950500488281 C 121.88063049316406 209.07162475585938 131.37115478515625 92.93722534179688 104.86563873291016 199.62799072265625" stroke-width="3.0" fill="none" stroke="rgb(0, 0, 0)" stroke-opacity="1.0" stroke-linecap="round" stroke-linejoin="round"/>
    <path d="M 128.49859619140625 46.841514587402344 C 139.77723693847656 51.02695083618164 80.70718383789062 25.716171264648438 76.3458480834961 82.14363098144531" stroke-width="3.0" fill="none" stroke="rgb(0, 0, 0)" stroke-opacity="1.0" stroke-linecap="round" stroke-linejoin="round"/>
    <path d="M 94.75519561767578 57.9454345703125 C 138.63653564453125 36.2689094543457 141.99868774414062 57.61661911010742 172.32403564453125 83.44706726074219" stroke-width="3.0" fill="none" stroke="rgb(0, 0, 0)" stroke-opacity="1.0" stroke-linecap="round" stroke-linejoin="round"/>
    <path d="M 154.1737060546875 84.34369659423828 C 143.98780822753906 81.42073822021484 227.7431182861328 120.10610961914062 143.3750457763672 61.014163970947266" stroke-width="3.0" fill="none" stroke="rgb(0, 0, 0)" stroke-opacity="1.0" stroke-linecap="round" stroke-linejoin="round"/>
    <path d="M 154.3231658935547 71.94164276123047 C 173.99517822265625 93.81866455078125 165.45651245117188 77.12884521484375 146.8757781982422 67.42890930175781" stroke-width="3.0" fill="none" stroke="rgb(0, 0, 0)" stroke-opacity="1.0" stroke-linecap="round" stroke-linejoin="round"/>
    <path d="M 124.535888671875 125.34404754638672 C 142.8501434326172 168.42196655273438 135.42091369628906 112.74579620361328 118.33739471435547 147.98562622070312" stroke-width="3.0" fill="none" stroke="rgb(0, 0, 0)" stroke-opacity="1.0" stroke-linecap="round" stroke-linejoin="round"/>
    <path d="M 132.16708374023438 77.38894653320312 C 180.9294891357422 100.99666595458984 142.88877868652344 54.43686294555664 154.86294555664062 62.91352081298828" stroke-width="3.0" fill="none" stroke="rgb(0, 0, 0)" stroke-opacity="1.0" stroke-linecap="round" stroke-linejoin="round"/>
    <path d="M 141.0474395751953 70.94122314453125 C 112.610107421875 48.14584732055664 157.41249084472656 72.47933959960938 130.1473846435547 54.93870544433594" stroke-width="3.0" fill="none" stroke="rgb(0, 0, 0)" stroke-opacity="1.0" stroke-linecap="round" stroke-linejoin="round"/>
  </g>
</svg>
