<?xml version="1.0" ?>
<svg xmlns="http://www.w3.org/2000/svg" version="1.1" width="224" height="224">
  <defs/>
  <g>
    <path d="M 178.81300354003906 91.16989135742188 C 161.15541076660156 86.59884643554688 35.38423156738281 99.92513275146484 127.3535385131836 70.71678924560547" stroke-width="3.0" fill="none" stroke="rgb(0, 0, 0)" stroke-opacity="1.0" stroke-linecap="round" stroke-linejoin="round"/>
    <path d="M 178.40118408203125 94.91999816894531 C 176.44149780273438 98.3443603515625 205.2220001220703 89.5190658569336 129.17776489257812 120.03126525878906" stroke-width="3.0" fill="none" stroke="rgb(0, 0, 0)" stroke-opacity="1.0" stroke-linecap="round" stroke-linejoin="round"/>
    <path d="M 56.28392028808594 41.8277587890625 C 7.014016151428223 31.501995086669922 61.48872375488281 135.9171905517578 82.82511901855469 65.46027374267578" stroke-width="3.0" fill="none" stroke="rgb(0, 0, 0)" stroke-opacity="1.0" stroke-linecap="round" stroke-linejoin="round"/>
    <path d="M 99.85428619384766 59.60747146606445 C 145.37515258789062 69.76966094970703 202.76219177246094 102.42153930664062 105.32357788085938 76.49179077148438" stroke-width="3.0" fill="none" stroke="rgb(0, 0, 0)" stroke-opacity="1.0" stroke-linecap="round" stroke-linejoin="round"/>
    <path d="M 126.13348388671875 69.7696304321289 C 205.7303924560547 102.22431945800781 171.36000061035156 95.91311645507812 180.59768676757812 95.1819839477539" stroke-width="3.0" fill="none" stroke="rgb(0, 0, 0)" stroke-opacity="1.0" stroke-linecap="round" stroke-linejoin="round"/>
    <path d="M 106.27794647216797 52.732032775878906 C 109.87040710449219 57.53995895385742 33.804378509521484 135.65823364257812 73.3903579711914 94.52703094482422" stroke-width="3.0" fill="none" stroke="rgb(0, 0, 0)" stroke-opacity="1.0" stroke-linecap="round" stroke-linejoin="round"/>
    <path d="M 143.94451904296875 78.57994079589844 C 2.5212905406951904 63.403846740722656 151.30018615722656 23.8337345123291 190.24026489257812 94.85110473632812" stroke-width="3.0" fill="none" stroke="rgb(0, 0, 0)" stroke-opacity="1.0" stroke-linecap="round" stroke-linejoin="round"/>
    <path d="M 87.93555450439453 78.03599548339844 C 111.4183349609375 110.66291809082031 111.18669891357422 65.63557434082031 121.60157775878906 151.8939666748047" stroke-width="3.0" fill="none" stroke="rgb(0, 0, 0)" stroke-opacity="1.0" stroke-linecap="round" stroke-linejoin="round"/>
    <path d="M 128.1214141845703 91.83853149414062 C 116.95446014404297 202.6209259033203 128.4735565185547 91.22297668457031 105.73440551757812 204.60565185546875" stroke-width="3.0" fill="none" stroke="rgb(0, 0, 0)" stroke-opacity="1.0" stroke-linecap="round" stroke-linejoin="round"/>
    <path d="M 152.2616729736328 61.83637237548828 C 134.2027130126953 48.85386657714844 90.4626235961914 20.48928451538086 84.11430358886719 84.63670349121094" stroke-width="3.0" fill="none" stroke="rgb(0, 0, 0)" stroke-opacity="1.0" stroke-linecap="round" stroke-linejoin="round"/>
    <path d="M 88.59048461914062 56.5815544128418 C 142.16375732421875 34.19478988647461 144.15936279296875 53.94209289550781 170.79234313964844 83.32849884033203" stroke-width="3.0" fill="none" stroke="rgb(0, 0, 0)" stroke-opacity="1.0" stroke-linecap="round" stroke-linejoin="round"/>
    <path d="M 163.22572326660156 73.29830932617188 C 157.78619384765625 89.29043579101562 240.266357421875 130.85862731933594 143.3293914794922 56.17052459716797" stroke-width="3.0" fill="none" stroke="rgb(0, 0, 0)" stroke-opacity="1.0" stroke-linecap="round" stroke-linejoin="round"/>
    <path d="M 150.70321655273438 69.26197814941406 C 190.7382049560547 102.89112854003906 180.47525024414062 76.63345336914062 132.9198760986328 59.3034553527832" stroke-width="3.0" fill="none" stroke="rgb(0, 0, 0)" stroke-opacity="1.0" stroke-linecap="round" stroke-linejoin="round"/>
    <path d="M 122.91627502441406 122.29281616210938 C 146.4291534423828 153.59950256347656 141.39877319335938 108.5575942993164 117.14905548095703 148.36761474609375" stroke-width="3.0" fill="none" stroke="rgb(0, 0, 0)" stroke-opacity="1.0" stroke-linecap="round" stroke-linejoin="round"/>
    <path d="M 115.00749206542969 80.39995574951172 C 191.3446502685547 104.58760070800781 141.90228271484375 59.9933967590332 132.64263916015625 61.51375198364258" stroke-width="3.0" fill="none" stroke="rgb(0, 0, 0)" stroke-opacity="1.0" stroke-linecap="round" stroke-linejoin="round"/>
    <path d="M 146.04710388183594 71.66658020019531 C 91.62877655029297 38.088050842285156 167.1984405517578 64.69156646728516 128.57394409179688 46.53229522705078" stroke-width="3.0" fill="none" stroke="rgb(0, 0, 0)" stroke-opacity="1.0" stroke-linecap="round" stroke-linejoin="round"/>
  </g>
</svg>
