<?xml version="1.0" ?>
<svg xmlns="http://www.w3.org/2000/svg" version="1.1" width="224" height="224">
  <defs/>
  <g>
    <path d="M 156.22116088867188 78.31239318847656 C 140.08738708496094 84.25859832763672 104.2821273803711 92.4625015258789 141.65264892578125 78.42814636230469" stroke-width="3.0" fill="none" stroke="rgb(0, 0, 0)" stroke-opacity="1.0" stroke-linecap="round" stroke-linejoin="round"/>
    <path d="M 183.15750122070312 88.56816101074219 C 164.6751708984375 82.7255630493164 187.31402587890625 88.42098999023438 162.79541015625 108.79441833496094" stroke-width="3.0" fill="none" stroke="rgb(0, 0, 0)" stroke-opacity="1.0" stroke-linecap="round" stroke-linejoin="round"/>
    <path d="M 60.66864013671875 43.195350646972656 C 21.60548210144043 84.99932098388672 91.94581604003906 127.79850006103516 85.81334686279297 76.16101837158203" stroke-width="3.0" fill="none" stroke="rgb(0, 0, 0)" stroke-opacity="1.0" stroke-linecap="round" stroke-linejoin="round"/>
    <path d="M 124.60700225830078 85.37133026123047 C 111.18096923828125 81.7930679321289 156.83648681640625 86.5079116821289 92.32661437988281 96.87117767333984" stroke-width="3.0" fill="none" stroke="rgb(0, 0, 0)" stroke-opacity="1.0" stroke-linecap="round" stroke-linejoin="round"/>
    <path d="M 171.1320037841797 89.16626739501953 C 204.11412048339844 93.44022369384766 171.56736755371094 96.85494232177734 172.72682189941406 93.76314544677734" stroke-width="3.0" fill="none" stroke="rgb(0, 0, 0)" stroke-opacity="1.0" stroke-linecap="round" stroke-linejoin="round"/>
    <path d="M 149.66476440429688 63.727760314941406 C 126.05818176269531 91.26385498046875 61.40348815917969 104.836669921875 110.40625762939453 74.0985336303711" stroke-width="3.0" fill="none" stroke="rgb(0, 0, 0)" stroke-opacity="1.0" stroke-linecap="round" stroke-linejoin="round"/>
    <path d="M 140.33045959472656 60.69746780395508 C 163.4690399169922 84.58271026611328 131.0789337158203 44.07765197753906 189.206298828125 91.14350128173828" stroke-width="3.0" fill="none" stroke="rgb(0, 0, 0)" stroke-opacity="1.0" stroke-linecap="round" stroke-linejoin="round"/>
    <path d="M 67.71481323242188 97.93004608154297 C 122.40675354003906 91.26924896240234 104.36544799804688 85.59693908691406 123.43113708496094 138.00477600097656" stroke-width="3.0" fill="none" stroke="rgb(0, 0, 0)" stroke-opacity="1.0" stroke-linecap="round" stroke-linejoin="round"/>
    <path d="M 132.90171813964844 120.66077423095703 C 116.92840576171875 174.1872100830078 130.0426788330078 111.9861831665039 103.90499877929688 203.8517608642578" stroke-width="3.0" fill="none" stroke="rgb(0, 0, 0)" stroke-opacity="1.0" stroke-linecap="round" stroke-linejoin="round"/>
    <path d="M 137.1850128173828 52.64097213745117 C 145.93643188476562 52.6912841796875 95.55793762207031 33.753719329833984 75.43548583984375 87.0813217163086" stroke-width="3.0" fill="none" stroke="rgb(0, 0, 0)" stroke-opacity="1.0" stroke-linecap="round" stroke-linejoin="round"/>
    <path d="M 126.81944274902344 83.78433990478516 C 148.42539978027344 57.395687103271484 110.86848449707031 74.16754913330078 171.84213256835938 85.983154296875" stroke-width="3.0" fill="none" stroke="rgb(0, 0, 0)" stroke-opacity="1.0" stroke-linecap="round" stroke-linejoin="round"/>
    <path d="M 170.50892639160156 77.30713653564453 C 152.05914306640625 70.67082214355469 160.158447265625 77.10467529296875 149.71871948242188 75.97552490234375" stroke-width="3.0" fill="none" stroke="rgb(0, 0, 0)" stroke-opacity="1.0" stroke-linecap="round" stroke-linejoin="round"/>
    <path d="M 137.75209045410156 55.502159118652344 C 124.70550537109375 61.460601806640625 139.26840209960938 53.73674774169922 144.87181091308594 57.177635192871094" stroke-width="3.0" fill="none" stroke="rgb(0, 0, 0)" stroke-opacity="1.0" stroke-linecap="round" stroke-linejoin="round"/>
    <path d="M 120.92182922363281 145.06663513183594 C 130.16488647460938 150.78062438964844 130.3942413330078 110.704833984375 113.94676971435547 142.2775115966797" stroke-width="3.0" fill="none" stroke="rgb(0, 0, 0)" stroke-opacity="1.0" stroke-linecap="round" stroke-linejoin="round"/>
    <path d="M 141.80059814453125 62.26300048828125 C 159.1219482421875 64.2863998413086 132.3549041748047 47.37799072265625 147.388916015625 65.96097564697266" stroke-width="3.0" fill="none" stroke="rgb(0, 0, 0)" stroke-opacity="1.0" stroke-linecap="round" stroke-linejoin="round"/>
    <path d="M 135.89077758789062 53.551517486572266 C 126.5125961303711 56.31922149658203 152.0646209716797 49.1278076171875 141.59095764160156 65.85365295410156" stroke-width="3.0" fill="none" stroke="rgb(0, 0, 0)" stroke-opacity="1.0" stroke-linecap="round" stroke-linejoin="round"/>
  </g>
</svg>
