<?xml version="1.0" ?>
<svg xmlns="http://www.w3.org/2000/svg" version="1.1" width="224" height="224">
  <defs/>
  <g>
    <path d="M 172.83486938476562 87.41832733154297 C 137.67567443847656 76.51905822753906 103.21737670898438 90.40754699707031 146.25045776367188 84.148193359375" stroke-width="3.0" fill="none" stroke="rgb(0, 0, 0)" stroke-opacity="1.0" stroke-linecap="round" stroke-linejoin="round"/>
    <path d="M 172.7057342529297 90.10968780517578 C 169.57911682128906 95.07381439208984 191.77671813964844 89.23615264892578 159.46568298339844 106.4887466430664" stroke-width="3.0" fill="none" stroke="rgb(0, 0, 0)" stroke-opacity="1.0" stroke-linecap="round" stroke-linejoin="round"/>
    <path d="M 47.14572525024414 42.383480072021484 C 8.109306335449219 58.16119384765625 82.34390258789062 131.5209503173828 89.99098205566406 71.86387634277344" stroke-width="3.0" fill="none" stroke="rgb(0, 0, 0)" stroke-opacity="1.0" stroke-linecap="round" stroke-linejoin="round"/>
    <path d="M 102.09486389160156 66.54488372802734 C 152.17782592773438 67.05335235595703 192.77244567871094 75.85938262939453 107.2196044921875 93.60800170898438" stroke-width="3.0" fill="none" stroke="rgb(0, 0, 0)" stroke-opacity="1.0" stroke-linecap="round" stroke-linejoin="round"/>
    <path d="M 158.87744140625 82.85594940185547 C 213.4300079345703 102.82978820800781 170.90809631347656 96.45977020263672 185.6462860107422 95.67884826660156" stroke-width="3.0" fill="none" stroke="rgb(0, 0, 0)" stroke-opacity="1.0" stroke-linecap="round" stroke-linejoin="round"/>
    <path d="M 143.52943420410156 53.69529724121094 C 120.1478271484375 73.6733627319336 72.17399597167969 100.15496826171875 90.82698059082031 59.040245056152344" stroke-width="3.0" fill="none" stroke="rgb(0, 0, 0)" stroke-opacity="1.0" stroke-linecap="round" stroke-linejoin="round"/>
    <path d="M 149.2047119140625 65.97935485839844 C 132.00051879882812 67.6266860961914 157.76316833496094 48.47401809692383 190.64627075195312 94.42952728271484" stroke-width="3.0" fill="none" stroke="rgb(0, 0, 0)" stroke-opacity="1.0" stroke-linecap="round" stroke-linejoin="round"/>
    <path d="M 84.12096405029297 90.63121032714844 C 117.25895690917969 100.451904296875 107.13432312011719 79.94248962402344 122.63138580322266 137.10414123535156" stroke-width="3.0" fill="none" stroke="rgb(0, 0, 0)" stroke-opacity="1.0" stroke-linecap="round" stroke-linejoin="round"/>
    <path d="M 142.5191650390625 112.11380767822266 C 112.57305145263672 173.39303588867188 134.77813720703125 97.93840789794922 104.64635467529297 205.9151153564453" stroke-width="3.0" fill="none" stroke="rgb(0, 0, 0)" stroke-opacity="1.0" stroke-linecap="round" stroke-linejoin="round"/>
    <path d="M 128.0784912109375 43.29860305786133 C 146.63258361816406 49.47359085083008 92.23760986328125 29.126718521118164 81.61346435546875 85.90528869628906" stroke-width="3.0" fill="none" stroke="rgb(0, 0, 0)" stroke-opacity="1.0" stroke-linecap="round" stroke-linejoin="round"/>
    <path d="M 103.31084442138672 57.568565368652344 C 155.07553100585938 52.05085754394531 131.1560516357422 57.5547981262207 171.6204071044922 82.98054504394531" stroke-width="3.0" fill="none" stroke="rgb(0, 0, 0)" stroke-opacity="1.0" stroke-linecap="round" stroke-linejoin="round"/>
    <path d="M 178.62869262695312 83.12480163574219 C 145.9164581298828 63.9793701171875 172.97445678710938 83.0865249633789 145.73426818847656 79.1141586303711" stroke-width="3.0" fill="none" stroke="rgb(0, 0, 0)" stroke-opacity="1.0" stroke-linecap="round" stroke-linejoin="round"/>
    <path d="M 144.36219787597656 64.53250885009766 C 140.79331970214844 68.2609634399414 149.64036560058594 55.97395324707031 147.3839111328125 61.27791213989258" stroke-width="3.0" fill="none" stroke="rgb(0, 0, 0)" stroke-opacity="1.0" stroke-linecap="round" stroke-linejoin="round"/>
    <path d="M 124.93655395507812 134.24758911132812 C 132.57577514648438 147.5474395751953 127.05353546142578 109.53338623046875 113.66986846923828 141.83673095703125" stroke-width="3.0" fill="none" stroke="rgb(0, 0, 0)" stroke-opacity="1.0" stroke-linecap="round" stroke-linejoin="round"/>
    <path d="M 145.49029541015625 62.14164733886719 C 164.5430450439453 65.1271743774414 128.35064697265625 51.56416702270508 154.2081756591797 62.02460861206055" stroke-width="3.0" fill="none" stroke="rgb(0, 0, 0)" stroke-opacity="1.0" stroke-linecap="round" stroke-linejoin="round"/>
    <path d="M 141.9088592529297 54.943809509277344 C 123.92281341552734 48.85731887817383 156.4973602294922 56.885868072509766 145.35415649414062 62.23747253417969" stroke-width="3.0" fill="none" stroke="rgb(0, 0, 0)" stroke-opacity="1.0" stroke-linecap="round" stroke-linejoin="round"/>
  </g>
</svg>
