<?xml version="1.0" ?>
<svg xmlns="http://www.w3.org/2000/svg" version="1.1" width="224" height="224">
  <defs/>
  <g>
    <path d="M 168.8123779296875 89.57234954833984 C 129.1431427001953 85.77560424804688 84.63124084472656 107.04412078857422 143.77687072753906 75.8504867553711" stroke-width="3.0" fill="none" stroke="rgb(0, 0, 0)" stroke-opacity="1.0" stroke-linecap="round" stroke-linejoin="round"/>
    <path d="M 179.4334716796875 91.25813293457031 C 170.08029174804688 96.32301330566406 190.18283081054688 88.7938232421875 161.20217895507812 109.33734130859375" stroke-width="3.0" fill="none" stroke="rgb(0, 0, 0)" stroke-opacity="1.0" stroke-linecap="round" stroke-linejoin="round"/>
    <path d="M 45.97225570678711 35.894775390625 C 8.597589492797852 49.965301513671875 78.06209564208984 140.0994110107422 83.75418853759766 71.10205078125" stroke-width="3.0" fill="none" stroke="rgb(0, 0, 0)" stroke-opacity="1.0" stroke-linecap="round" stroke-linejoin="round"/>
    <path d="M 99.4732437133789 75.78861999511719 C 149.4977264404297 70.93584442138672 194.40296936035156 78.60311126708984 104.62149810791016 93.78550720214844" stroke-width="3.0" fill="none" stroke="rgb(0, 0, 0)" stroke-opacity="1.0" stroke-linecap="round" stroke-linejoin="round"/>
    <path d="M 158.81597900390625 83.53363800048828 C 212.2666778564453 110.98825073242188 167.48199462890625 98.07675170898438 179.69683837890625 95.93280792236328" stroke-width="3.0" fill="none" stroke="rgb(0, 0, 0)" stroke-opacity="1.0" stroke-linecap="round" stroke-linejoin="round"/>
    <path d="M 148.365478515625 61.58036804199219 C 116.81835174560547 72.81317901611328 65.8855972290039 105.25518035888672 89.57965087890625 63.96306610107422" stroke-width="3.0" fill="none" stroke="rgb(0, 0, 0)" stroke-opacity="1.0" stroke-linecap="round" stroke-linejoin="round"/>
    <path d="M 151.94973754882812 68.47311401367188 C 127.0925064086914 63.41779327392578 160.5782012939453 53.77056884765625 189.48904418945312 96.22135925292969" stroke-width="3.0" fill="none" stroke="rgb(0, 0, 0)" stroke-opacity="1.0" stroke-linecap="round" stroke-linejoin="round"/>
    <path d="M 83.64553833007812 87.24038696289062 C 127.33847045898438 102.1019515991211 112.92058563232422 81.86910247802734 123.78341674804688 139.14178466796875" stroke-width="3.0" fill="none" stroke="rgb(0, 0, 0)" stroke-opacity="1.0" stroke-linecap="round" stroke-linejoin="round"/>
    <path d="M 136.700439453125 94.37991333007812 C 118.8187026977539 190.75839233398438 131.1190948486328 97.38921356201172 109.3267822265625 204.56520080566406" stroke-width="3.0" fill="none" stroke="rgb(0, 0, 0)" stroke-opacity="1.0" stroke-linecap="round" stroke-linejoin="round"/>
    <path d="M 119.30608367919922 47.958003997802734 C 138.01119995117188 54.53976058959961 82.50460815429688 30.042139053344727 76.71126556396484 76.68043518066406" stroke-width="3.0" fill="none" stroke="rgb(0, 0, 0)" stroke-opacity="1.0" stroke-linecap="round" stroke-linejoin="round"/>
    <path d="M 107.62639617919922 47.559452056884766 C 155.32046508789062 45.304813385009766 129.23080444335938 64.66033172607422 175.0490264892578 86.09342193603516" stroke-width="3.0" fill="none" stroke="rgb(0, 0, 0)" stroke-opacity="1.0" stroke-linecap="round" stroke-linejoin="round"/>
    <path d="M 178.69166564941406 86.69608306884766 C 142.46511840820312 68.4758529663086 183.6294403076172 88.71987915039062 145.25540161132812 81.24758911132812" stroke-width="3.0" fill="none" stroke="rgb(0, 0, 0)" stroke-opacity="1.0" stroke-linecap="round" stroke-linejoin="round"/>
    <path d="M 146.67361450195312 65.85066986083984 C 145.36585998535156 72.58677673339844 153.4671630859375 59.99871063232422 145.37924194335938 63.12258529663086" stroke-width="3.0" fill="none" stroke="rgb(0, 0, 0)" stroke-opacity="1.0" stroke-linecap="round" stroke-linejoin="round"/>
    <path d="M 125.12380981445312 130.86854553222656 C 134.93572998046875 145.4384307861328 131.57122802734375 108.11219024658203 115.46147918701172 147.36012268066406" stroke-width="3.0" fill="none" stroke="rgb(0, 0, 0)" stroke-opacity="1.0" stroke-linecap="round" stroke-linejoin="round"/>
    <path d="M 148.91250610351562 64.00841522216797 C 165.02423095703125 69.56340026855469 128.66622924804688 52.7436637878418 144.8898162841797 61.3680419921875" stroke-width="3.0" fill="none" stroke="rgb(0, 0, 0)" stroke-opacity="1.0" stroke-linecap="round" stroke-linejoin="round"/>
    <path d="M 140.9615020751953 53.95636749267578 C 113.26382446289062 48.596458435058594 155.30650329589844 54.82771682739258 147.16908264160156 57.15882110595703" stroke-width="3.0" fill="none" stroke="rgb(0, 0, 0)" stroke-opacity="1.0" stroke-linecap="round" stroke-linejoin="round"/>
  </g>
</svg>
