<?xml version="1.0" ?>
<svg xmlns="http://www.w3.org/2000/svg" version="1.1" width="224" height="224">
  <defs/>
  <g>
    <path d="M 181.16082763671875 90.277099609375 C 167.23007202148438 84.81343078613281 53.38369369506836 105.93070220947266 133.18765258789062 86.65076446533203" stroke-width="3.0" fill="none" stroke="rgb(0, 0, 0)" stroke-opacity="1.0" stroke-linecap="round" stroke-linejoin="round"/>
    <path d="M 191.12274169921875 98.00590515136719 C 175.97926330566406 96.96342468261719 205.9876708984375 93.87752532958984 133.71983337402344 115.0195541381836" stroke-width="3.0" fill="none" stroke="rgb(0, 0, 0)" stroke-opacity="1.0" stroke-linecap="round" stroke-linejoin="round"/>
    <path d="M 56.81367111206055 40.35733413696289 C 3.6256797313690186 36.56264114379883 72.505615234375 125.85769653320312 79.17362213134766 66.12100982666016" stroke-width="3.0" fill="none" stroke="rgb(0, 0, 0)" stroke-opacity="1.0" stroke-linecap="round" stroke-linejoin="round"/>
    <path d="M 90.75654602050781 67.73519897460938 C 145.5788116455078 67.47200775146484 197.12628173828125 100.46517944335938 94.65391540527344 81.41175079345703" stroke-width="3.0" fill="none" stroke="rgb(0, 0, 0)" stroke-opacity="1.0" stroke-linecap="round" stroke-linejoin="round"/>
    <path d="M 140.89111328125 77.4345474243164 C 210.33595275878906 97.13304901123047 168.37132263183594 104.3208999633789 184.0617218017578 95.7432861328125" stroke-width="3.0" fill="none" stroke="rgb(0, 0, 0)" stroke-opacity="1.0" stroke-linecap="round" stroke-linejoin="round"/>
    <path d="M 106.67418670654297 48.32941436767578 C 93.78955841064453 51.83769607543945 39.03636169433594 144.9793243408203 74.1113510131836 86.05021667480469" stroke-width="3.0" fill="none" stroke="rgb(0, 0, 0)" stroke-opacity="1.0" stroke-linecap="round" stroke-linejoin="round"/>
    <path d="M 142.7565155029297 85.06950378417969 C 17.56717872619629 64.74783325195312 152.96237182617188 32.55533981323242 192.27737426757812 96.90306091308594" stroke-width="3.0" fill="none" stroke="rgb(0, 0, 0)" stroke-opacity="1.0" stroke-linecap="round" stroke-linejoin="round"/>
    <path d="M 82.8785400390625 82.00965118408203 C 119.3565444946289 108.35137939453125 110.75887298583984 78.05774688720703 121.23722076416016 145.2039794921875" stroke-width="3.0" fill="none" stroke="rgb(0, 0, 0)" stroke-opacity="1.0" stroke-linecap="round" stroke-linejoin="round"/>
    <path d="M 129.50790405273438 92.9668197631836 C 118.67232513427734 204.08660888671875 130.28663635253906 91.5387954711914 106.80279541015625 207.2675323486328" stroke-width="3.0" fill="none" stroke="rgb(0, 0, 0)" stroke-opacity="1.0" stroke-linecap="round" stroke-linejoin="round"/>
    <path d="M 148.2123565673828 53.42384338378906 C 137.63099670410156 52.708553314208984 87.68728637695312 26.57878875732422 78.77667999267578 89.90315246582031" stroke-width="3.0" fill="none" stroke="rgb(0, 0, 0)" stroke-opacity="1.0" stroke-linecap="round" stroke-linejoin="round"/>
    <path d="M 92.47879028320312 56.95085525512695 C 133.35850524902344 30.422109603881836 142.22474670410156 54.776580810546875 171.03204345703125 84.99349975585938" stroke-width="3.0" fill="none" stroke="rgb(0, 0, 0)" stroke-opacity="1.0" stroke-linecap="round" stroke-linejoin="round"/>
    <path d="M 152.31094360351562 83.9107894897461 C 147.74093627929688 83.08518981933594 237.6109619140625 117.31712341308594 142.41668701171875 53.391448974609375" stroke-width="3.0" fill="none" stroke="rgb(0, 0, 0)" stroke-opacity="1.0" stroke-linecap="round" stroke-linejoin="round"/>
    <path d="M 151.34156799316406 75.43379211425781 C 170.9375762939453 98.73467254638672 164.64573669433594 78.05290985107422 137.5608367919922 67.52588653564453" stroke-width="3.0" fill="none" stroke="rgb(0, 0, 0)" stroke-opacity="1.0" stroke-linecap="round" stroke-linejoin="round"/>
    <path d="M 125.01045989990234 117.65619659423828 C 151.30093383789062 153.27589416503906 140.37741088867188 101.55006408691406 116.31995391845703 148.608154296875" stroke-width="3.0" fill="none" stroke="rgb(0, 0, 0)" stroke-opacity="1.0" stroke-linecap="round" stroke-linejoin="round"/>
    <path d="M 120.19023132324219 69.2967529296875 C 177.56472778320312 102.208740234375 147.88418579101562 50.315425872802734 153.0859832763672 64.31851196289062" stroke-width="3.0" fill="none" stroke="rgb(0, 0, 0)" stroke-opacity="1.0" stroke-linecap="round" stroke-linejoin="round"/>
    <path d="M 139.7738800048828 74.37699890136719 C 103.95611572265625 49.38945388793945 162.69281005859375 68.80590057373047 130.77206420898438 51.62957763671875" stroke-width="3.0" fill="none" stroke="rgb(0, 0, 0)" stroke-opacity="1.0" stroke-linecap="round" stroke-linejoin="round"/>
  </g>
</svg>
