<?xml version="1.0" ?>
<svg xmlns="http://www.w3.org/2000/svg" version="1.1" width="224" height="224">
  <defs/>
  <g>
    <path d="M 129.22341918945312 85.4924087524414 C 137.4527587890625 86.65815734863281 118.21455383300781 102.91067504882812 124.34154510498047 78.83252716064453" stroke-width="3.0" fill="none" stroke="rgb(0, 0, 0)" stroke-opacity="1.0" stroke-linecap="round" stroke-linejoin="round"/>
    <path d="M 183.46994018554688 104.2750244140625 C 173.3526611328125 88.77871704101562 168.3220977783203 92.26106262207031 179.36070251464844 101.69010162353516" stroke-width="3.0" fill="none" stroke="rgb(0, 0, 0)" stroke-opacity="1.0" stroke-linecap="round" stroke-linejoin="round"/>
    <path d="M 67.8039321899414 50.867427825927734 C 42.44895935058594 92.32353973388672 65.64456176757812 112.23137664794922 92.4767074584961 97.28462219238281" stroke-width="3.0" fill="none" stroke="rgb(0, 0, 0)" stroke-opacity="1.0" stroke-linecap="round" stroke-linejoin="round"/>
    <path d="M 103.7198486328125 77.22645568847656 C 112.69746398925781 93.84813690185547 129.07774353027344 81.44287109375 115.93246459960938 93.54379272460938" stroke-width="3.0" fill="none" stroke="rgb(0, 0, 0)" stroke-opacity="1.0" stroke-linecap="round" stroke-linejoin="round"/>
    <path d="M 169.93345642089844 91.3041000366211 C 172.62789916992188 74.97915649414062 165.9840087890625 72.7090072631836 172.77769470214844 82.52252197265625" stroke-width="3.0" fill="none" stroke="rgb(0, 0, 0)" stroke-opacity="1.0" stroke-linecap="round" stroke-linejoin="round"/>
    <path d="M 125.01004028320312 76.21807861328125 C 128.08883666992188 104.15707397460938 119.94294738769531 94.31108093261719 120.2923355102539 80.53843688964844" stroke-width="3.0" fill="none" stroke="rgb(0, 0, 0)" stroke-opacity="1.0" stroke-linecap="round" stroke-linejoin="round"/>
    <path d="M 142.838623046875 58.180389404296875 C 163.7326202392578 65.94824981689453 152.24609375 53.4621696472168 148.89605712890625 65.35885620117188" stroke-width="3.0" fill="none" stroke="rgb(0, 0, 0)" stroke-opacity="1.0" stroke-linecap="round" stroke-linejoin="round"/>
    <path d="M 97.87092590332031 97.95368957519531 C 115.64778137207031 99.88764190673828 117.16925811767578 101.32588958740234 117.77894592285156 128.60694885253906" stroke-width="3.0" fill="none" stroke="rgb(0, 0, 0)" stroke-opacity="1.0" stroke-linecap="round" stroke-linejoin="round"/>
    <path d="M 122.4507827758789 138.18930053710938 C 118.63572692871094 155.60055541992188 118.47161865234375 139.3449249267578 110.55384826660156 204.72634887695312" stroke-width="3.0" fill="none" stroke="rgb(0, 0, 0)" stroke-opacity="1.0" stroke-linecap="round" stroke-linejoin="round"/>
    <path d="M 119.23979949951172 60.82012176513672 C 128.23060607910156 75.55747985839844 125.39408111572266 73.43762969970703 116.3896713256836 84.39068603515625" stroke-width="3.0" fill="none" stroke="rgb(0, 0, 0)" stroke-opacity="1.0" stroke-linecap="round" stroke-linejoin="round"/>
    <path d="M 143.75982666015625 95.31322479248047 C 143.19569396972656 88.34314727783203 137.67791748046875 101.76402282714844 147.82786560058594 88.13848876953125" stroke-width="3.0" fill="none" stroke="rgb(0, 0, 0)" stroke-opacity="1.0" stroke-linecap="round" stroke-linejoin="round"/>
    <path d="M 138.95152282714844 66.59785461425781 C 132.24166870117188 89.08283996582031 128.75559997558594 92.38351440429688 130.3600311279297 75.01372528076172" stroke-width="3.0" fill="none" stroke="rgb(0, 0, 0)" stroke-opacity="1.0" stroke-linecap="round" stroke-linejoin="round"/>
    <path d="M 133.080810546875 76.51739501953125 C 129.66807556152344 88.44049072265625 133.65789794921875 60.114097595214844 129.03968811035156 80.02020263671875" stroke-width="3.0" fill="none" stroke="rgb(0, 0, 0)" stroke-opacity="1.0" stroke-linecap="round" stroke-linejoin="round"/>
    <path d="M 120.14112091064453 131.5563201904297 C 129.960205078125 140.2972869873047 130.87403869628906 114.98619079589844 121.2903823852539 136.29623413085938" stroke-width="3.0" fill="none" stroke="rgb(0, 0, 0)" stroke-opacity="1.0" stroke-linecap="round" stroke-linejoin="round"/>
    <path d="M 125.03661346435547 49.820213317871094 C 125.33087158203125 56.48799133300781 132.77066040039062 45.07387161254883 149.17474365234375 55.09798812866211" stroke-width="3.0" fill="none" stroke="rgb(0, 0, 0)" stroke-opacity="1.0" stroke-linecap="round" stroke-linejoin="round"/>
    <path d="M 121.3077621459961 50.73393249511719 C 126.3945541381836 62.61375045776367 125.05279541015625 50.94472122192383 134.7403106689453 59.78738021850586" stroke-width="3.0" fill="none" stroke="rgb(0, 0, 0)" stroke-opacity="1.0" stroke-linecap="round" stroke-linejoin="round"/>
  </g>
</svg>
