<?xml version="1.0" ?>
<svg xmlns="http://www.w3.org/2000/svg" version="1.1" width="224" height="224">
  <defs/>
  <g>
    <path d="M 130.71585083007812 90.17791748046875 C 134.9264373779297 82.18414306640625 130.36375427246094 85.7055892944336 125.08870697021484 79.99114227294922" stroke-width="3.0" fill="none" stroke="rgb(0, 0, 0)" stroke-opacity="1.0" stroke-linecap="round" stroke-linejoin="round"/>
    <path d="M 173.91014099121094 93.81205749511719 C 175.30551147460938 84.5231704711914 173.7174072265625 84.57416534423828 177.07818603515625 88.01991271972656" stroke-width="3.0" fill="none" stroke="rgb(0, 0, 0)" stroke-opacity="1.0" stroke-linecap="round" stroke-linejoin="round"/>
    <path d="M 79.9234848022461 66.71465301513672 C 83.5948486328125 80.45223236083984 89.38685607910156 82.57384490966797 93.50773620605469 91.32034301757812" stroke-width="3.0" fill="none" stroke="rgb(0, 0, 0)" stroke-opacity="1.0" stroke-linecap="round" stroke-linejoin="round"/>
    <path d="M 105.04505920410156 76.42570495605469 C 113.30879211425781 90.80143737792969 116.98562622070312 84.48521423339844 115.79698181152344 90.74187469482422" stroke-width="3.0" fill="none" stroke="rgb(0, 0, 0)" stroke-opacity="1.0" stroke-linecap="round" stroke-linejoin="round"/>
    <path d="M 171.92384338378906 74.68558502197266 C 167.71664428710938 74.48384857177734 167.16551208496094 68.29423522949219 174.10403442382812 81.41165161132812" stroke-width="3.0" fill="none" stroke="rgb(0, 0, 0)" stroke-opacity="1.0" stroke-linecap="round" stroke-linejoin="round"/>
    <path d="M 122.8730697631836 88.45243072509766 C 121.16334533691406 95.12461853027344 118.00273895263672 92.79066467285156 122.23173522949219 87.99957275390625" stroke-width="3.0" fill="none" stroke="rgb(0, 0, 0)" stroke-opacity="1.0" stroke-linecap="round" stroke-linejoin="round"/>
    <path d="M 146.31884765625 60.68976593017578 C 157.4552001953125 66.31107330322266 159.48789978027344 64.70165252685547 148.1584014892578 69.81549835205078" stroke-width="3.0" fill="none" stroke="rgb(0, 0, 0)" stroke-opacity="1.0" stroke-linecap="round" stroke-linejoin="round"/>
    <path d="M 112.67619323730469 100.4720458984375 C 118.923828125 108.51832580566406 118.77132415771484 105.2175521850586 116.82341003417969 116.16766357421875" stroke-width="3.0" fill="none" stroke="rgb(0, 0, 0)" stroke-opacity="1.0" stroke-linecap="round" stroke-linejoin="round"/>
    <path d="M 111.78384399414062 150.21823120117188 C 114.10419464111328 166.12962341308594 115.00516510009766 160.0029754638672 112.53128051757812 177.43942260742188" stroke-width="3.0" fill="none" stroke="rgb(0, 0, 0)" stroke-opacity="1.0" stroke-linecap="round" stroke-linejoin="round"/>
    <path d="M 127.84919738769531 62.9725227355957 C 127.46794128417969 79.5712661743164 119.91043090820312 70.81097412109375 119.0872802734375 84.1640853881836" stroke-width="3.0" fill="none" stroke="rgb(0, 0, 0)" stroke-opacity="1.0" stroke-linecap="round" stroke-linejoin="round"/>
    <path d="M 135.77166748046875 97.19686126708984 C 136.0572052001953 94.27733612060547 133.36221313476562 98.19204711914062 139.34222412109375 93.3124771118164" stroke-width="3.0" fill="none" stroke="rgb(0, 0, 0)" stroke-opacity="1.0" stroke-linecap="round" stroke-linejoin="round"/>
    <path d="M 131.573974609375 74.24468994140625 C 129.35879516601562 81.6107177734375 125.68408203125 81.89314270019531 130.76834106445312 79.01177215576172" stroke-width="3.0" fill="none" stroke="rgb(0, 0, 0)" stroke-opacity="1.0" stroke-linecap="round" stroke-linejoin="round"/>
    <path d="M 131.91876220703125 82.18952941894531 C 128.44822692871094 85.94847106933594 128.6786346435547 74.1158218383789 131.3424072265625 81.1156234741211" stroke-width="3.0" fill="none" stroke="rgb(0, 0, 0)" stroke-opacity="1.0" stroke-linecap="round" stroke-linejoin="round"/>
    <path d="M 118.7017822265625 132.42938232421875 C 126.85324096679688 132.64454650878906 126.29625701904297 141.81402587890625 121.65580749511719 132.4658203125" stroke-width="3.0" fill="none" stroke="rgb(0, 0, 0)" stroke-opacity="1.0" stroke-linecap="round" stroke-linejoin="round"/>
    <path d="M 133.29261779785156 46.66423034667969 C 132.3577423095703 47.62656021118164 140.46987915039062 46.25659942626953 142.21575927734375 56.42089080810547" stroke-width="3.0" fill="none" stroke="rgb(0, 0, 0)" stroke-opacity="1.0" stroke-linecap="round" stroke-linejoin="round"/>
    <path d="M 121.12054443359375 46.90703582763672 C 124.4925765991211 55.99361038208008 125.73915100097656 53.32063674926758 134.73977661132812 60.45246124267578" stroke-width="3.0" fill="none" stroke="rgb(0, 0, 0)" stroke-opacity="1.0" stroke-linecap="round" stroke-linejoin="round"/>
  </g>
</svg>
