<?xml version="1.0" ?>
<svg xmlns="http://www.w3.org/2000/svg" version="1.1" width="224" height="224">
  <defs/>
  <g>
    <path d="M 184.1721954345703 95.65657043457031 C 159.1577911376953 79.07649230957031 55.80818557739258 96.96495819091797 131.31655883789062 83.28935241699219" stroke-width="3.0" fill="none" stroke="rgb(0, 0, 0)" stroke-opacity="1.0" stroke-linecap="round" stroke-linejoin="round"/>
    <path d="M 188.7005615234375 96.89274597167969 C 174.12307739257812 96.41937255859375 203.14320373535156 92.11598205566406 129.38034057617188 122.16767883300781" stroke-width="3.0" fill="none" stroke="rgb(0, 0, 0)" stroke-opacity="1.0" stroke-linecap="round" stroke-linejoin="round"/>
    <path d="M 56.28736877441406 39.47357940673828 C 4.384260177612305 42.8326530456543 70.06398010253906 133.80270385742188 65.89471435546875 65.08351135253906" stroke-width="3.0" fill="none" stroke="rgb(0, 0, 0)" stroke-opacity="1.0" stroke-linecap="round" stroke-linejoin="round"/>
    <path d="M 94.86141204833984 65.96160888671875 C 147.96214294433594 73.08842468261719 202.64295959472656 94.04420471191406 94.00860595703125 80.02426147460938" stroke-width="3.0" fill="none" stroke="rgb(0, 0, 0)" stroke-opacity="1.0" stroke-linecap="round" stroke-linejoin="round"/>
    <path d="M 142.92462158203125 77.2115478515625 C 207.52162170410156 94.92723846435547 164.2053985595703 108.8884048461914 189.32334899902344 95.30864715576172" stroke-width="3.0" fill="none" stroke="rgb(0, 0, 0)" stroke-opacity="1.0" stroke-linecap="round" stroke-linejoin="round"/>
    <path d="M 118.84625244140625 44.16816329956055 C 100.05841064453125 55.117923736572266 36.161861419677734 138.5272979736328 68.52641296386719 73.59407043457031" stroke-width="3.0" fill="none" stroke="rgb(0, 0, 0)" stroke-opacity="1.0" stroke-linecap="round" stroke-linejoin="round"/>
    <path d="M 143.520751953125 84.00886535644531 C 20.402429580688477 60.39720916748047 154.79937744140625 36.1013069152832 191.36683654785156 93.34241485595703" stroke-width="3.0" fill="none" stroke="rgb(0, 0, 0)" stroke-opacity="1.0" stroke-linecap="round" stroke-linejoin="round"/>
    <path d="M 80.73568725585938 72.15846252441406 C 123.70498657226562 101.98141479492188 113.57011413574219 84.99365234375 121.718017578125 145.07058715820312" stroke-width="3.0" fill="none" stroke="rgb(0, 0, 0)" stroke-opacity="1.0" stroke-linecap="round" stroke-linejoin="round"/>
    <path d="M 124.34442901611328 93.1755142211914 C 118.53170776367188 206.6616668701172 130.9640350341797 90.11614990234375 109.72334289550781 206.84701538085938" stroke-width="3.0" fill="none" stroke="rgb(0, 0, 0)" stroke-opacity="1.0" stroke-linecap="round" stroke-linejoin="round"/>
    <path d="M 124.18168640136719 47.43954086303711 C 138.19932556152344 47.89217758178711 84.85767364501953 22.63677406311035 77.216796875 78.08283233642578" stroke-width="3.0" fill="none" stroke="rgb(0, 0, 0)" stroke-opacity="1.0" stroke-linecap="round" stroke-linejoin="round"/>
    <path d="M 92.90182495117188 56.88331604003906 C 141.06295776367188 32.99759292602539 142.79287719726562 55.612457275390625 173.10948181152344 82.77249908447266" stroke-width="3.0" fill="none" stroke="rgb(0, 0, 0)" stroke-opacity="1.0" stroke-linecap="round" stroke-linejoin="round"/>
    <path d="M 154.2528076171875 84.06503295898438 C 142.84814453125 80.3687515258789 227.32293701171875 116.84807586669922 146.09544372558594 59.37495040893555" stroke-width="3.0" fill="none" stroke="rgb(0, 0, 0)" stroke-opacity="1.0" stroke-linecap="round" stroke-linejoin="round"/>
    <path d="M 156.1703643798828 75.1158447265625 C 172.3602294921875 97.08783721923828 165.7154083251953 76.47254180908203 147.49404907226562 65.58821105957031" stroke-width="3.0" fill="none" stroke="rgb(0, 0, 0)" stroke-opacity="1.0" stroke-linecap="round" stroke-linejoin="round"/>
    <path d="M 123.57207489013672 126.6059799194336 C 141.43238830566406 172.43092346191406 136.9737548828125 114.20874786376953 118.627685546875 150.88551330566406" stroke-width="3.0" fill="none" stroke="rgb(0, 0, 0)" stroke-opacity="1.0" stroke-linecap="round" stroke-linejoin="round"/>
    <path d="M 129.121337890625 79.71158599853516 C 185.93603515625 95.96098327636719 147.9112548828125 52.877986907958984 154.96531677246094 63.5613899230957" stroke-width="3.0" fill="none" stroke="rgb(0, 0, 0)" stroke-opacity="1.0" stroke-linecap="round" stroke-linejoin="round"/>
    <path d="M 144.80638122558594 70.59866333007812 C 110.56463623046875 48.912498474121094 154.1573944091797 67.6489486694336 132.62997436523438 51.219825744628906" stroke-width="3.0" fill="none" stroke="rgb(0, 0, 0)" stroke-opacity="1.0" stroke-linecap="round" stroke-linejoin="round"/>
  </g>
</svg>
