<?xml version="1.0" ?>
<svg xmlns="http://www.w3.org/2000/svg" version="1.1" width="224" height="224">
  <defs/>
  <g>
    <path d="M 171.53082275390625 85.57572174072266 C 139.54327392578125 84.6386489868164 103.21987915039062 90.04130554199219 146.79129028320312 88.99168395996094" stroke-width="3.0" fill="none" stroke="rgb(0, 0, 0)" stroke-opacity="1.0" stroke-linecap="round" stroke-linejoin="round"/>
    <path d="M 177.30953979492188 92.28475952148438 C 170.97666931152344 98.95352935791016 192.1502227783203 87.1064224243164 159.73983764648438 109.8286361694336" stroke-width="3.0" fill="none" stroke="rgb(0, 0, 0)" stroke-opacity="1.0" stroke-linecap="round" stroke-linejoin="round"/>
    <path d="M 46.61193084716797 42.40164566040039 C 16.00821304321289 74.99713134765625 84.0354995727539 130.5862579345703 79.94730377197266 67.964111328125" stroke-width="3.0" fill="none" stroke="rgb(0, 0, 0)" stroke-opacity="1.0" stroke-linecap="round" stroke-linejoin="round"/>
    <path d="M 110.76799774169922 79.5204086303711 C 125.69491577148438 84.6842041015625 171.22337341308594 92.02232360839844 98.86631774902344 94.94617462158203" stroke-width="3.0" fill="none" stroke="rgb(0, 0, 0)" stroke-opacity="1.0" stroke-linecap="round" stroke-linejoin="round"/>
    <path d="M 161.98104858398438 83.78775024414062 C 209.31324768066406 102.87015533447266 170.99725341796875 98.31283569335938 188.46168518066406 97.98228454589844" stroke-width="3.0" fill="none" stroke="rgb(0, 0, 0)" stroke-opacity="1.0" stroke-linecap="round" stroke-linejoin="round"/>
    <path d="M 147.7257537841797 64.30647277832031 C 116.74260711669922 76.2866439819336 58.441650390625 104.14031219482422 87.47533416748047 60.5950927734375" stroke-width="3.0" fill="none" stroke="rgb(0, 0, 0)" stroke-opacity="1.0" stroke-linecap="round" stroke-linejoin="round"/>
    <path d="M 140.4239959716797 61.66774368286133 C 146.06900024414062 74.06824493408203 143.4576416015625 45.61259078979492 190.9138641357422 94.31905364990234" stroke-width="3.0" fill="none" stroke="rgb(0, 0, 0)" stroke-opacity="1.0" stroke-linecap="round" stroke-linejoin="round"/>
    <path d="M 80.47409057617188 91.20523071289062 C 122.3834228515625 99.37450408935547 109.24673461914062 86.94424438476562 124.0792465209961 136.05581665039062" stroke-width="3.0" fill="none" stroke="rgb(0, 0, 0)" stroke-opacity="1.0" stroke-linecap="round" stroke-linejoin="round"/>
    <path d="M 136.85638427734375 113.67134094238281 C 119.89041900634766 171.977294921875 129.9207763671875 97.9785385131836 106.77542114257812 205.9209442138672" stroke-width="3.0" fill="none" stroke="rgb(0, 0, 0)" stroke-opacity="1.0" stroke-linecap="round" stroke-linejoin="round"/>
    <path d="M 140.04666137695312 52.48440170288086 C 137.60679626464844 57.42745590209961 79.8253173828125 24.036100387573242 67.16814422607422 84.0750732421875" stroke-width="3.0" fill="none" stroke="rgb(0, 0, 0)" stroke-opacity="1.0" stroke-linecap="round" stroke-linejoin="round"/>
    <path d="M 102.64984893798828 74.77741241455078 C 149.11129760742188 65.03648376464844 119.25746154785156 69.91375732421875 176.72352600097656 90.76904296875" stroke-width="3.0" fill="none" stroke="rgb(0, 0, 0)" stroke-opacity="1.0" stroke-linecap="round" stroke-linejoin="round"/>
    <path d="M 180.48550415039062 85.1509017944336 C 147.135986328125 67.45477294921875 173.79159545898438 77.4533920288086 150.39515686035156 74.68009948730469" stroke-width="3.0" fill="none" stroke="rgb(0, 0, 0)" stroke-opacity="1.0" stroke-linecap="round" stroke-linejoin="round"/>
    <path d="M 143.53843688964844 62.099266052246094 C 143.20835876464844 71.32188415527344 149.8387908935547 56.56725311279297 147.32626342773438 61.31471633911133" stroke-width="3.0" fill="none" stroke="rgb(0, 0, 0)" stroke-opacity="1.0" stroke-linecap="round" stroke-linejoin="round"/>
    <path d="M 123.60220336914062 132.07785034179688 C 131.69537353515625 141.41329956054688 127.56070709228516 112.21318054199219 116.33522033691406 145.74195861816406" stroke-width="3.0" fill="none" stroke="rgb(0, 0, 0)" stroke-opacity="1.0" stroke-linecap="round" stroke-linejoin="round"/>
    <path d="M 144.13023376464844 62.666080474853516 C 165.21685791015625 62.88196563720703 130.8145751953125 56.535316467285156 150.14041137695312 68.56066131591797" stroke-width="3.0" fill="none" stroke="rgb(0, 0, 0)" stroke-opacity="1.0" stroke-linecap="round" stroke-linejoin="round"/>
    <path d="M 137.01882934570312 54.23237991333008 C 118.35100555419922 54.47572708129883 160.0865478515625 52.40763854980469 147.4146728515625 61.775535583496094" stroke-width="3.0" fill="none" stroke="rgb(0, 0, 0)" stroke-opacity="1.0" stroke-linecap="round" stroke-linejoin="round"/>
  </g>
</svg>
