<?xml version="1.0" ?>
<svg xmlns="http://www.w3.org/2000/svg" version="1.1" width="224" height="224">
  <defs/>
  <g>
    <path d="M 186.0406494140625 95.93948364257812 C 160.17813110351562 81.91806030273438 55.71994400024414 99.73353576660156 132.2962646484375 85.14625549316406" stroke-width="3.0" fill="none" stroke="rgb(0, 0, 0)" stroke-opacity="1.0" stroke-linecap="round" stroke-linejoin="round"/>
    <path d="M 188.74618530273438 98.75076293945312 C 176.0754852294922 98.5350341796875 203.8764190673828 92.19488525390625 127.07901000976562 119.60958099365234" stroke-width="3.0" fill="none" stroke="rgb(0, 0, 0)" stroke-opacity="1.0" stroke-linecap="round" stroke-linejoin="round"/>
    <path d="M 56.01926040649414 39.7911262512207 C 2.776336908340454 40.1068000793457 73.10801696777344 133.94227600097656 67.51607513427734 65.20194244384766" stroke-width="3.0" fill="none" stroke="rgb(0, 0, 0)" stroke-opacity="1.0" stroke-linecap="round" stroke-linejoin="round"/>
    <path d="M 94.44596099853516 65.74649047851562 C 148.1617889404297 72.42845916748047 201.6816864013672 95.32770538330078 92.86555480957031 83.13724517822266" stroke-width="3.0" fill="none" stroke="rgb(0, 0, 0)" stroke-opacity="1.0" stroke-linecap="round" stroke-linejoin="round"/>
    <path d="M 143.5181121826172 77.7829360961914 C 208.5424346923828 93.77151489257812 164.9407196044922 108.37603759765625 188.46751403808594 94.5962905883789" stroke-width="3.0" fill="none" stroke="rgb(0, 0, 0)" stroke-opacity="1.0" stroke-linecap="round" stroke-linejoin="round"/>
    <path d="M 115.03701782226562 43.416175842285156 C 96.24736022949219 53.41831970214844 32.6639518737793 138.67230224609375 67.83390045166016 76.79181671142578" stroke-width="3.0" fill="none" stroke="rgb(0, 0, 0)" stroke-opacity="1.0" stroke-linecap="round" stroke-linejoin="round"/>
    <path d="M 141.76852416992188 88.27626037597656 C 17.723167419433594 62.95103454589844 154.04293823242188 37.570247650146484 190.3289794921875 94.12206268310547" stroke-width="3.0" fill="none" stroke="rgb(0, 0, 0)" stroke-opacity="1.0" stroke-linecap="round" stroke-linejoin="round"/>
    <path d="M 81.37519073486328 73.5448226928711 C 123.72124481201172 100.98499298095703 112.43911743164062 84.0711898803711 122.14800262451172 145.0868682861328" stroke-width="3.0" fill="none" stroke="rgb(0, 0, 0)" stroke-opacity="1.0" stroke-linecap="round" stroke-linejoin="round"/>
    <path d="M 123.63426971435547 92.54363250732422 C 119.07215881347656 207.4176483154297 132.18531799316406 91.53267669677734 109.16287994384766 203.46673583984375" stroke-width="3.0" fill="none" stroke="rgb(0, 0, 0)" stroke-opacity="1.0" stroke-linecap="round" stroke-linejoin="round"/>
    <path d="M 125.8775863647461 48.60222244262695 C 138.63388061523438 50.020225524902344 82.73651885986328 24.406267166137695 77.34789276123047 80.86272430419922" stroke-width="3.0" fill="none" stroke="rgb(0, 0, 0)" stroke-opacity="1.0" stroke-linecap="round" stroke-linejoin="round"/>
    <path d="M 96.00642395019531 58.064083099365234 C 139.4241485595703 33.24821853637695 141.34735107421875 56.57227325439453 172.43980407714844 83.1759262084961" stroke-width="3.0" fill="none" stroke="rgb(0, 0, 0)" stroke-opacity="1.0" stroke-linecap="round" stroke-linejoin="round"/>
    <path d="M 154.3816375732422 83.96049499511719 C 143.5583038330078 80.96712493896484 228.4132537841797 117.82987213134766 146.76405334472656 58.950035095214844" stroke-width="3.0" fill="none" stroke="rgb(0, 0, 0)" stroke-opacity="1.0" stroke-linecap="round" stroke-linejoin="round"/>
    <path d="M 153.69375610351562 74.83983612060547 C 172.5852813720703 96.60858917236328 166.70416259765625 75.8744888305664 146.4310302734375 67.0724868774414" stroke-width="3.0" fill="none" stroke="rgb(0, 0, 0)" stroke-opacity="1.0" stroke-linecap="round" stroke-linejoin="round"/>
    <path d="M 122.22398376464844 127.31499481201172 C 141.24172973632812 171.61978149414062 136.9438018798828 114.41633605957031 118.82968139648438 150.27297973632812" stroke-width="3.0" fill="none" stroke="rgb(0, 0, 0)" stroke-opacity="1.0" stroke-linecap="round" stroke-linejoin="round"/>
    <path d="M 130.30001831054688 79.15953826904297 C 183.77197265625 98.46219635009766 146.1577911376953 53.38312911987305 154.56048583984375 63.608333587646484" stroke-width="3.0" fill="none" stroke="rgb(0, 0, 0)" stroke-opacity="1.0" stroke-linecap="round" stroke-linejoin="round"/>
    <path d="M 143.5064239501953 70.78717803955078 C 113.56659698486328 48.58181381225586 156.38308715820312 71.87068939208984 133.80548095703125 50.172393798828125" stroke-width="3.0" fill="none" stroke="rgb(0, 0, 0)" stroke-opacity="1.0" stroke-linecap="round" stroke-linejoin="round"/>
  </g>
</svg>
