<?xml version="1.0" ?>
<svg xmlns="http://www.w3.org/2000/svg" version="1.1" width="224" height="224">
  <defs/>
  <g>
    <path d="M 153.87168884277344 78.31798553466797 C 140.8782958984375 93.74262237548828 113.65289306640625 99.24883270263672 139.3837890625 93.33303833007812" stroke-width="3.0" fill="none" stroke="rgb(0, 0, 0)" stroke-opacity="1.0" stroke-linecap="round" stroke-linejoin="round"/>
    <path d="M 176.1637420654297 101.87764739990234 C 184.51548767089844 90.11476135253906 194.1835174560547 101.80484771728516 150.0266876220703 112.16769409179688" stroke-width="3.0" fill="none" stroke="rgb(0, 0, 0)" stroke-opacity="1.0" stroke-linecap="round" stroke-linejoin="round"/>
    <path d="M 63.09269332885742 48.15951156616211 C 40.44175338745117 92.87944030761719 74.55079650878906 121.07479095458984 106.71646118164062 79.80713653564453" stroke-width="3.0" fill="none" stroke="rgb(0, 0, 0)" stroke-opacity="1.0" stroke-linecap="round" stroke-linejoin="round"/>
    <path d="M 122.06658935546875 94.98558044433594 C 111.46524047851562 85.49625396728516 158.19065856933594 98.8253173828125 98.69831085205078 96.25407409667969" stroke-width="3.0" fill="none" stroke="rgb(0, 0, 0)" stroke-opacity="1.0" stroke-linecap="round" stroke-linejoin="round"/>
    <path d="M 178.0435028076172 101.91536712646484 C 193.44520568847656 96.5398941040039 181.17591857910156 101.32740783691406 188.99423217773438 97.10126495361328" stroke-width="3.0" fill="none" stroke="rgb(0, 0, 0)" stroke-opacity="1.0" stroke-linecap="round" stroke-linejoin="round"/>
    <path d="M 139.03468322753906 57.29282760620117 C 134.66964721679688 97.98946380615234 88.64881134033203 120.5033187866211 120.21351623535156 66.05853271484375" stroke-width="3.0" fill="none" stroke="rgb(0, 0, 0)" stroke-opacity="1.0" stroke-linecap="round" stroke-linejoin="round"/>
    <path d="M 141.0408935546875 60.87550354003906 C 169.66748046875 84.8392333984375 135.17120361328125 51.986351013183594 166.29139709472656 70.40906524658203" stroke-width="3.0" fill="none" stroke="rgb(0, 0, 0)" stroke-opacity="1.0" stroke-linecap="round" stroke-linejoin="round"/>
    <path d="M 84.31220245361328 102.54669189453125 C 127.63890838623047 85.80439758300781 106.94572448730469 87.09951782226562 121.9396743774414 135.17282104492188" stroke-width="3.0" fill="none" stroke="rgb(0, 0, 0)" stroke-opacity="1.0" stroke-linecap="round" stroke-linejoin="round"/>
    <path d="M 135.1957550048828 132.96978759765625 C 117.19324493408203 174.81906127929688 131.8284912109375 126.7327651977539 104.40515899658203 205.56936645507812" stroke-width="3.0" fill="none" stroke="rgb(0, 0, 0)" stroke-opacity="1.0" stroke-linecap="round" stroke-linejoin="round"/>
    <path d="M 123.40372467041016 49.132869720458984 C 143.08154296875 60.12577819824219 112.44593048095703 48.568275451660156 91.37037658691406 99.43770599365234" stroke-width="3.0" fill="none" stroke="rgb(0, 0, 0)" stroke-opacity="1.0" stroke-linecap="round" stroke-linejoin="round"/>
    <path d="M 130.2191619873047 85.20358276367188 C 159.8653106689453 79.42037200927734 131.63583374023438 71.22325134277344 159.44854736328125 67.56890869140625" stroke-width="3.0" fill="none" stroke="rgb(0, 0, 0)" stroke-opacity="1.0" stroke-linecap="round" stroke-linejoin="round"/>
    <path d="M 160.6661834716797 69.51819610595703 C 144.5133819580078 74.52816772460938 152.98068237304688 101.60932159423828 149.8660430908203 66.88528442382812" stroke-width="3.0" fill="none" stroke="rgb(0, 0, 0)" stroke-opacity="1.0" stroke-linecap="round" stroke-linejoin="round"/>
    <path d="M 137.0489959716797 67.89360809326172 C 123.09477996826172 83.33245849609375 140.60678100585938 65.24254608154297 147.75799560546875 69.92809295654297" stroke-width="3.0" fill="none" stroke="rgb(0, 0, 0)" stroke-opacity="1.0" stroke-linecap="round" stroke-linejoin="round"/>
    <path d="M 120.50984954833984 145.20437622070312 C 131.24609375 154.4077911376953 126.83979797363281 110.98773193359375 116.93533325195312 141.31301879882812" stroke-width="3.0" fill="none" stroke="rgb(0, 0, 0)" stroke-opacity="1.0" stroke-linecap="round" stroke-linejoin="round"/>
    <path d="M 141.1017608642578 61.25514221191406 C 142.7279052734375 60.13661575317383 129.1776885986328 46.70003890991211 143.16690063476562 63.85478591918945" stroke-width="3.0" fill="none" stroke="rgb(0, 0, 0)" stroke-opacity="1.0" stroke-linecap="round" stroke-linejoin="round"/>
    <path d="M 127.63713836669922 52.41355895996094 C 120.58000946044922 56.38479995727539 148.3333282470703 40.49336624145508 142.35903930664062 63.221763610839844" stroke-width="3.0" fill="none" stroke="rgb(0, 0, 0)" stroke-opacity="1.0" stroke-linecap="round" stroke-linejoin="round"/>
  </g>
</svg>
