<?xml version="1.0" ?>
<svg xmlns="http://www.w3.org/2000/svg" version="1.1" width="224" height="224">
  <defs/>
  <g>
    <path d="M 161.24365234375 85.65058135986328 C 138.46388244628906 82.12364959716797 104.27951049804688 94.14289855957031 148.0383758544922 83.00875091552734" stroke-width="3.0" fill="none" stroke="rgb(0, 0, 0)" stroke-opacity="1.0" stroke-linecap="round" stroke-linejoin="round"/>
    <path d="M 181.46116638183594 95.94510650634766 C 166.8488311767578 94.5898666381836 192.6139373779297 90.40513610839844 163.4943389892578 108.18638610839844" stroke-width="3.0" fill="none" stroke="rgb(0, 0, 0)" stroke-opacity="1.0" stroke-linecap="round" stroke-linejoin="round"/>
    <path d="M 46.99464416503906 39.05446243286133 C 4.058948993682861 75.1329116821289 87.66649627685547 123.78763580322266 78.2683334350586 69.95447540283203" stroke-width="3.0" fill="none" stroke="rgb(0, 0, 0)" stroke-opacity="1.0" stroke-linecap="round" stroke-linejoin="round"/>
    <path d="M 121.92485809326172 77.72871398925781 C 124.94822692871094 78.57251739501953 170.79196166992188 89.8309326171875 88.6811752319336 92.72754669189453" stroke-width="3.0" fill="none" stroke="rgb(0, 0, 0)" stroke-opacity="1.0" stroke-linecap="round" stroke-linejoin="round"/>
    <path d="M 172.3003692626953 88.77373504638672 C 212.87625122070312 111.78359985351562 177.88087463378906 105.84493255615234 183.7938232421875 95.15463256835938" stroke-width="3.0" fill="none" stroke="rgb(0, 0, 0)" stroke-opacity="1.0" stroke-linecap="round" stroke-linejoin="round"/>
    <path d="M 151.817626953125 64.13914489746094 C 114.77922058105469 78.29522705078125 42.234535217285156 94.51932525634766 97.83214569091797 55.60682678222656" stroke-width="3.0" fill="none" stroke="rgb(0, 0, 0)" stroke-opacity="1.0" stroke-linecap="round" stroke-linejoin="round"/>
    <path d="M 141.99241638183594 63.22214889526367 C 153.4354248046875 79.89862823486328 136.00962829589844 41.66532897949219 189.90869140625 95.88811492919922" stroke-width="3.0" fill="none" stroke="rgb(0, 0, 0)" stroke-opacity="1.0" stroke-linecap="round" stroke-linejoin="round"/>
    <path d="M 79.75990295410156 91.21804809570312 C 121.00035095214844 94.1146469116211 109.123046875 85.9924087524414 123.87696075439453 139.8275909423828" stroke-width="3.0" fill="none" stroke="rgb(0, 0, 0)" stroke-opacity="1.0" stroke-linecap="round" stroke-linejoin="round"/>
    <path d="M 134.63580322265625 125.07860565185547 C 118.5779037475586 171.89378356933594 131.775390625 110.66065216064453 103.0975112915039 203.32057189941406" stroke-width="3.0" fill="none" stroke="rgb(0, 0, 0)" stroke-opacity="1.0" stroke-linecap="round" stroke-linejoin="round"/>
    <path d="M 135.5996856689453 50.13123321533203 C 145.11607360839844 53.76654052734375 81.7566146850586 29.457223892211914 68.21905517578125 83.87677001953125" stroke-width="3.0" fill="none" stroke="rgb(0, 0, 0)" stroke-opacity="1.0" stroke-linecap="round" stroke-linejoin="round"/>
    <path d="M 119.110107421875 77.77082824707031 C 151.82225036621094 50.728641510009766 115.37014770507812 71.5848617553711 176.32760620117188 90.01795959472656" stroke-width="3.0" fill="none" stroke="rgb(0, 0, 0)" stroke-opacity="1.0" stroke-linecap="round" stroke-linejoin="round"/>
    <path d="M 173.22564697265625 84.28445434570312 C 147.0140838623047 73.57444763183594 169.8095703125 84.7900390625 150.5017852783203 76.44896697998047" stroke-width="3.0" fill="none" stroke="rgb(0, 0, 0)" stroke-opacity="1.0" stroke-linecap="round" stroke-linejoin="round"/>
    <path d="M 142.43067932128906 61.30821228027344 C 140.7638702392578 77.9595718383789 151.60585021972656 59.310672760009766 147.54104614257812 60.05782699584961" stroke-width="3.0" fill="none" stroke="rgb(0, 0, 0)" stroke-opacity="1.0" stroke-linecap="round" stroke-linejoin="round"/>
    <path d="M 125.3800277709961 137.7083282470703 C 129.41268920898438 146.57791137695312 127.92078399658203 115.4509048461914 119.06581115722656 148.42230224609375" stroke-width="3.0" fill="none" stroke="rgb(0, 0, 0)" stroke-opacity="1.0" stroke-linecap="round" stroke-linejoin="round"/>
    <path d="M 143.99021911621094 62.64976119995117 C 163.86265563964844 66.42628479003906 134.60287475585938 53.49802017211914 149.89610290527344 65.21617889404297" stroke-width="3.0" fill="none" stroke="rgb(0, 0, 0)" stroke-opacity="1.0" stroke-linecap="round" stroke-linejoin="round"/>
    <path d="M 141.06507873535156 50.8253288269043 C 127.80724334716797 55.0327033996582 156.2032470703125 51.99726104736328 146.02577209472656 65.63650512695312" stroke-width="3.0" fill="none" stroke="rgb(0, 0, 0)" stroke-opacity="1.0" stroke-linecap="round" stroke-linejoin="round"/>
  </g>
</svg>
