<?xml version="1.0" ?>
<svg xmlns="http://www.w3.org/2000/svg" version="1.1" width="224" height="224">
  <defs/>
  <g>
    <path d="M 157.66744995117188 77.8422622680664 C 142.24288940429688 92.9926528930664 116.13318634033203 97.86111450195312 137.02105712890625 90.12675476074219" stroke-width="3.0" fill="none" stroke="rgb(0, 0, 0)" stroke-opacity="1.0" stroke-linecap="round" stroke-linejoin="round"/>
    <path d="M 178.2273712158203 98.58842468261719 C 186.81739807128906 89.80248260498047 192.78001403808594 97.96786499023438 158.34445190429688 106.87799835205078" stroke-width="3.0" fill="none" stroke="rgb(0, 0, 0)" stroke-opacity="1.0" stroke-linecap="round" stroke-linejoin="round"/>
    <path d="M 65.1919174194336 49.16877365112305 C 44.997859954833984 93.50555419921875 70.34619140625 120.97503662109375 101.05802917480469 84.80451202392578" stroke-width="3.0" fill="none" stroke="rgb(0, 0, 0)" stroke-opacity="1.0" stroke-linecap="round" stroke-linejoin="round"/>
    <path d="M 119.96881103515625 94.77570343017578 C 111.36849212646484 89.98110961914062 155.32794189453125 98.72682189941406 98.30731964111328 102.32976531982422" stroke-width="3.0" fill="none" stroke="rgb(0, 0, 0)" stroke-opacity="1.0" stroke-linecap="round" stroke-linejoin="round"/>
    <path d="M 179.89039611816406 99.71977996826172 C 198.7137908935547 97.21349334716797 193.33619689941406 101.313232421875 195.23660278320312 99.0959243774414" stroke-width="3.0" fill="none" stroke="rgb(0, 0, 0)" stroke-opacity="1.0" stroke-linecap="round" stroke-linejoin="round"/>
    <path d="M 134.6346435546875 52.808109283447266 C 131.27561950683594 101.73486328125 87.19435119628906 123.52580261230469 122.00566864013672 72.1178970336914" stroke-width="3.0" fill="none" stroke="rgb(0, 0, 0)" stroke-opacity="1.0" stroke-linecap="round" stroke-linejoin="round"/>
    <path d="M 139.06675720214844 59.39832305908203 C 167.54315185546875 75.70158386230469 141.9825897216797 51.28935241699219 159.03689575195312 66.33097839355469" stroke-width="3.0" fill="none" stroke="rgb(0, 0, 0)" stroke-opacity="1.0" stroke-linecap="round" stroke-linejoin="round"/>
    <path d="M 80.08428955078125 104.10475158691406 C 120.93814849853516 91.93110656738281 108.44851684570312 96.6048583984375 124.41980743408203 133.87030029296875" stroke-width="3.0" fill="none" stroke="rgb(0, 0, 0)" stroke-opacity="1.0" stroke-linecap="round" stroke-linejoin="round"/>
    <path d="M 132.427978515625 130.37222290039062 C 114.96418762207031 169.77142333984375 136.2933349609375 131.89141845703125 102.7867202758789 204.66998291015625" stroke-width="3.0" fill="none" stroke="rgb(0, 0, 0)" stroke-opacity="1.0" stroke-linecap="round" stroke-linejoin="round"/>
    <path d="M 122.92979431152344 56.72587203979492 C 143.77821350097656 55.672019958496094 107.39603424072266 45.37553405761719 89.79541778564453 99.03596496582031" stroke-width="3.0" fill="none" stroke="rgb(0, 0, 0)" stroke-opacity="1.0" stroke-linecap="round" stroke-linejoin="round"/>
    <path d="M 135.41859436035156 91.62190246582031 C 161.81544494628906 75.96072387695312 131.85525512695312 65.0069808959961 155.2725830078125 65.41473388671875" stroke-width="3.0" fill="none" stroke="rgb(0, 0, 0)" stroke-opacity="1.0" stroke-linecap="round" stroke-linejoin="round"/>
    <path d="M 155.28846740722656 67.5191879272461 C 139.59747314453125 83.4932632446289 146.82919311523438 101.21949768066406 151.1783905029297 62.10194778442383" stroke-width="3.0" fill="none" stroke="rgb(0, 0, 0)" stroke-opacity="1.0" stroke-linecap="round" stroke-linejoin="round"/>
    <path d="M 130.60516357421875 63.31983184814453 C 118.42656707763672 80.1609878540039 133.49343872070312 54.89789581298828 144.38333129882812 57.55455780029297" stroke-width="3.0" fill="none" stroke="rgb(0, 0, 0)" stroke-opacity="1.0" stroke-linecap="round" stroke-linejoin="round"/>
    <path d="M 121.86695098876953 135.16929626464844 C 130.82675170898438 146.5235137939453 130.26959228515625 109.66871643066406 115.27008819580078 133.34046936035156" stroke-width="3.0" fill="none" stroke="rgb(0, 0, 0)" stroke-opacity="1.0" stroke-linecap="round" stroke-linejoin="round"/>
    <path d="M 133.46755981445312 59.03559875488281 C 144.4609832763672 61.751686096191406 136.20730590820312 47.68323516845703 146.5045928955078 63.666934967041016" stroke-width="3.0" fill="none" stroke="rgb(0, 0, 0)" stroke-opacity="1.0" stroke-linecap="round" stroke-linejoin="round"/>
    <path d="M 126.59552001953125 56.780601501464844 C 119.88856506347656 55.3387336730957 153.2920379638672 40.71965026855469 146.2069091796875 65.71245574951172" stroke-width="3.0" fill="none" stroke="rgb(0, 0, 0)" stroke-opacity="1.0" stroke-linecap="round" stroke-linejoin="round"/>
  </g>
</svg>
