<?xml version="1.0" ?>
<svg xmlns="http://www.w3.org/2000/svg" version="1.1" width="224" height="224">
  <defs/>
  <g>
    <path d="M 155.40968322753906 71.72062683105469 C 145.40200805664062 89.52935028076172 114.42559814453125 89.2191390991211 140.28871154785156 81.96392059326172" stroke-width="3.0" fill="none" stroke="rgb(0, 0, 0)" stroke-opacity="1.0" stroke-linecap="round" stroke-linejoin="round"/>
    <path d="M 179.88571166992188 93.56391906738281 C 160.99900817871094 78.30011749267578 186.99009704589844 90.14141082763672 168.90501403808594 109.16984558105469" stroke-width="3.0" fill="none" stroke="rgb(0, 0, 0)" stroke-opacity="1.0" stroke-linecap="round" stroke-linejoin="round"/>
    <path d="M 61.566654205322266 44.3156852722168 C 29.670557022094727 93.6421890258789 78.00581359863281 122.89856719970703 101.18856811523438 78.66202545166016" stroke-width="3.0" fill="none" stroke="rgb(0, 0, 0)" stroke-opacity="1.0" stroke-linecap="round" stroke-linejoin="round"/>
    <path d="M 123.17422485351562 90.04883575439453 C 109.2066650390625 82.30402374267578 158.57696533203125 93.11172485351562 87.95708465576172 94.2389144897461" stroke-width="3.0" fill="none" stroke="rgb(0, 0, 0)" stroke-opacity="1.0" stroke-linecap="round" stroke-linejoin="round"/>
    <path d="M 173.34059143066406 85.35565948486328 C 201.64891052246094 95.34413146972656 174.78074645996094 88.07721710205078 175.054931640625 88.67315673828125" stroke-width="3.0" fill="none" stroke="rgb(0, 0, 0)" stroke-opacity="1.0" stroke-linecap="round" stroke-linejoin="round"/>
    <path d="M 144.99375915527344 63.062400817871094 C 129.97349548339844 92.83458709716797 74.92369842529297 114.36939239501953 115.625732421875 69.41776275634766" stroke-width="3.0" fill="none" stroke="rgb(0, 0, 0)" stroke-opacity="1.0" stroke-linecap="round" stroke-linejoin="round"/>
    <path d="M 142.78594970703125 51.17634201049805 C 161.28802490234375 89.5188980102539 131.65562438964844 44.47001266479492 185.3956298828125 89.37171173095703" stroke-width="3.0" fill="none" stroke="rgb(0, 0, 0)" stroke-opacity="1.0" stroke-linecap="round" stroke-linejoin="round"/>
    <path d="M 68.16558837890625 99.31523895263672 C 118.42687225341797 88.35134887695312 104.8494644165039 88.35798645019531 121.48259735107422 141.5419158935547" stroke-width="3.0" fill="none" stroke="rgb(0, 0, 0)" stroke-opacity="1.0" stroke-linecap="round" stroke-linejoin="round"/>
    <path d="M 135.543212890625 118.99109649658203 C 121.1473617553711 178.11111450195312 133.9674835205078 121.26250457763672 107.24976348876953 205.58204650878906" stroke-width="3.0" fill="none" stroke="rgb(0, 0, 0)" stroke-opacity="1.0" stroke-linecap="round" stroke-linejoin="round"/>
    <path d="M 135.493896484375 53.10127639770508 C 141.02944946289062 58.26972961425781 103.87474822998047 37.77839279174805 81.63827514648438 89.7754135131836" stroke-width="3.0" fill="none" stroke="rgb(0, 0, 0)" stroke-opacity="1.0" stroke-linecap="round" stroke-linejoin="round"/>
    <path d="M 120.71342468261719 83.19125366210938 C 141.1686553955078 55.956764221191406 110.53772735595703 69.29998779296875 171.1728057861328 87.16780853271484" stroke-width="3.0" fill="none" stroke="rgb(0, 0, 0)" stroke-opacity="1.0" stroke-linecap="round" stroke-linejoin="round"/>
    <path d="M 166.6157684326172 78.60377502441406 C 146.80560302734375 67.4494857788086 148.36093139648438 90.19107818603516 145.93878173828125 70.52359771728516" stroke-width="3.0" fill="none" stroke="rgb(0, 0, 0)" stroke-opacity="1.0" stroke-linecap="round" stroke-linejoin="round"/>
    <path d="M 135.36636352539062 55.64279556274414 C 121.77786254882812 65.63188934326172 138.08726501464844 53.84977340698242 142.47164916992188 59.08156967163086" stroke-width="3.0" fill="none" stroke="rgb(0, 0, 0)" stroke-opacity="1.0" stroke-linecap="round" stroke-linejoin="round"/>
    <path d="M 125.3306884765625 149.09693908691406 C 128.34518432617188 154.356201171875 128.79811096191406 113.71739196777344 114.54215240478516 147.00534057617188" stroke-width="3.0" fill="none" stroke="rgb(0, 0, 0)" stroke-opacity="1.0" stroke-linecap="round" stroke-linejoin="round"/>
    <path d="M 137.10020446777344 63.423282623291016 C 144.5902557373047 63.01361846923828 125.28121948242188 47.11669158935547 143.5220489501953 62.05857849121094" stroke-width="3.0" fill="none" stroke="rgb(0, 0, 0)" stroke-opacity="1.0" stroke-linecap="round" stroke-linejoin="round"/>
    <path d="M 139.58224487304688 51.01203918457031 C 128.22019958496094 58.462764739990234 152.1446075439453 47.09102249145508 141.8769989013672 57.55194091796875" stroke-width="3.0" fill="none" stroke="rgb(0, 0, 0)" stroke-opacity="1.0" stroke-linecap="round" stroke-linejoin="round"/>
  </g>
</svg>
