<?xml version="1.0" ?>
<svg xmlns="http://www.w3.org/2000/svg" version="1.1" width="224" height="224">
  <defs/>
  <g>
    <path d="M 172.86158752441406 95.86176300048828 C 126.13896179199219 85.1601791381836 52.251651763916016 106.97508239746094 143.3729248046875 72.65892791748047" stroke-width="3.0" fill="none" stroke="rgb(0, 0, 0)" stroke-opacity="1.0" stroke-linecap="round" stroke-linejoin="round"/>
    <path d="M 183.3686981201172 97.15251922607422 C 173.8490447998047 97.4197998046875 192.7593994140625 89.76631164550781 155.14111328125 113.64820861816406" stroke-width="3.0" fill="none" stroke="rgb(0, 0, 0)" stroke-opacity="1.0" stroke-linecap="round" stroke-linejoin="round"/>
    <path d="M 42.29121398925781 39.97566604614258 C 10.160630226135254 48.08561325073242 77.09986114501953 137.50552368164062 78.83883666992188 68.69581604003906" stroke-width="3.0" fill="none" stroke="rgb(0, 0, 0)" stroke-opacity="1.0" stroke-linecap="round" stroke-linejoin="round"/>
    <path d="M 103.08572387695312 73.9329605102539 C 150.9414520263672 70.11272430419922 199.07058715820312 80.29104614257812 97.76370239257812 91.76768493652344" stroke-width="3.0" fill="none" stroke="rgb(0, 0, 0)" stroke-opacity="1.0" stroke-linecap="round" stroke-linejoin="round"/>
    <path d="M 158.1605682373047 77.8054428100586 C 214.73561096191406 111.40469360351562 171.15122985839844 94.50882720947266 184.62191772460938 97.11001586914062" stroke-width="3.0" fill="none" stroke="rgb(0, 0, 0)" stroke-opacity="1.0" stroke-linecap="round" stroke-linejoin="round"/>
    <path d="M 145.66806030273438 60.82908248901367 C 109.46826934814453 68.80253601074219 53.84259796142578 111.10317993164062 85.73178100585938 61.99198913574219" stroke-width="3.0" fill="none" stroke="rgb(0, 0, 0)" stroke-opacity="1.0" stroke-linecap="round" stroke-linejoin="round"/>
    <path d="M 163.68670654296875 72.35322570800781 C 115.32240295410156 58.109615325927734 161.03369140625 54.13949203491211 191.32655334472656 95.20089721679688" stroke-width="3.0" fill="none" stroke="rgb(0, 0, 0)" stroke-opacity="1.0" stroke-linecap="round" stroke-linejoin="round"/>
    <path d="M 78.9067611694336 89.3121109008789 C 123.78592681884766 96.01819610595703 116.29605865478516 83.67730712890625 124.44708251953125 140.1864013671875" stroke-width="3.0" fill="none" stroke="rgb(0, 0, 0)" stroke-opacity="1.0" stroke-linecap="round" stroke-linejoin="round"/>
    <path d="M 129.93858337402344 93.04611206054688 C 122.12742614746094 193.3014678955078 132.43919372558594 83.6776123046875 106.25674438476562 207.6055450439453" stroke-width="3.0" fill="none" stroke="rgb(0, 0, 0)" stroke-opacity="1.0" stroke-linecap="round" stroke-linejoin="round"/>
    <path d="M 130.1572723388672 48.57844161987305 C 132.6691436767578 56.86248779296875 78.09339141845703 24.572099685668945 66.4008560180664 81.66256713867188" stroke-width="3.0" fill="none" stroke="rgb(0, 0, 0)" stroke-opacity="1.0" stroke-linecap="round" stroke-linejoin="round"/>
    <path d="M 113.77872467041016 52.74599075317383 C 157.0453643798828 46.42259979248047 129.5274658203125 66.93759155273438 174.40518188476562 82.45755004882812" stroke-width="3.0" fill="none" stroke="rgb(0, 0, 0)" stroke-opacity="1.0" stroke-linecap="round" stroke-linejoin="round"/>
    <path d="M 179.25990295410156 89.52798461914062 C 159.04501342773438 74.75703430175781 212.83590698242188 103.79413604736328 144.91006469726562 79.06303405761719" stroke-width="3.0" fill="none" stroke="rgb(0, 0, 0)" stroke-opacity="1.0" stroke-linecap="round" stroke-linejoin="round"/>
    <path d="M 148.15182495117188 63.0150260925293 C 143.95895385742188 75.08177185058594 153.7423858642578 62.28097152709961 145.8227081298828 66.52894592285156" stroke-width="3.0" fill="none" stroke="rgb(0, 0, 0)" stroke-opacity="1.0" stroke-linecap="round" stroke-linejoin="round"/>
    <path d="M 129.83274841308594 116.77393341064453 C 148.59173583984375 149.4324493408203 141.3533477783203 100.77632141113281 116.37799835205078 143.18911743164062" stroke-width="3.0" fill="none" stroke="rgb(0, 0, 0)" stroke-opacity="1.0" stroke-linecap="round" stroke-linejoin="round"/>
    <path d="M 144.9832000732422 67.55297088623047 C 163.9296112060547 66.56474304199219 130.1787109375 47.88918685913086 145.62913513183594 63.28635025024414" stroke-width="3.0" fill="none" stroke="rgb(0, 0, 0)" stroke-opacity="1.0" stroke-linecap="round" stroke-linejoin="round"/>
    <path d="M 145.9755096435547 57.51490020751953 C 125.35066986083984 50.578636169433594 152.31015014648438 60.13433837890625 144.65316772460938 60.94661331176758" stroke-width="3.0" fill="none" stroke="rgb(0, 0, 0)" stroke-opacity="1.0" stroke-linecap="round" stroke-linejoin="round"/>
  </g>
</svg>
