<?xml version="1.0" ?>
<svg xmlns="http://www.w3.org/2000/svg" version="1.1" width="224" height="224">
  <defs/>
  <g>
    <path d="M 182.3689727783203 97.49821472167969 C 171.45838928222656 79.5766830444336 31.474445343017578 93.67547607421875 117.96336364746094 73.10677337646484" stroke-width="3.0" fill="none" stroke="rgb(0, 0, 0)" stroke-opacity="1.0" stroke-linecap="round" stroke-linejoin="round"/>
    <path d="M 187.05857849121094 98.05941009521484 C 183.95188903808594 103.08538818359375 206.7664794921875 90.1678695678711 130.0132293701172 119.57524871826172" stroke-width="3.0" fill="none" stroke="rgb(0, 0, 0)" stroke-opacity="1.0" stroke-linecap="round" stroke-linejoin="round"/>
    <path d="M 59.888526916503906 41.749732971191406 C 9.049836158752441 22.158857345581055 75.52781677246094 136.02340698242188 87.61994171142578 59.62696075439453" stroke-width="3.0" fill="none" stroke="rgb(0, 0, 0)" stroke-opacity="1.0" stroke-linecap="round" stroke-linejoin="round"/>
    <path d="M 98.2567138671875 63.17817687988281 C 160.76876831054688 57.64350128173828 209.82908630371094 106.44093322753906 108.34077453613281 76.39017486572266" stroke-width="3.0" fill="none" stroke="rgb(0, 0, 0)" stroke-opacity="1.0" stroke-linecap="round" stroke-linejoin="round"/>
    <path d="M 128.1754913330078 70.80306243896484 C 203.496337890625 104.11664581298828 172.63381958007812 76.43386840820312 172.64608764648438 86.35859680175781" stroke-width="3.0" fill="none" stroke="rgb(0, 0, 0)" stroke-opacity="1.0" stroke-linecap="round" stroke-linejoin="round"/>
    <path d="M 96.05889892578125 54.75639343261719 C 112.268310546875 66.49075317382812 45.58140563964844 139.94337463378906 78.43389129638672 102.33077239990234" stroke-width="3.0" fill="none" stroke="rgb(0, 0, 0)" stroke-opacity="1.0" stroke-linecap="round" stroke-linejoin="round"/>
    <path d="M 155.3456573486328 78.0436782836914 C 5.505349636077881 53.219993591308594 154.60560607910156 25.900962829589844 190.96755981445312 95.93213653564453" stroke-width="3.0" fill="none" stroke="rgb(0, 0, 0)" stroke-opacity="1.0" stroke-linecap="round" stroke-linejoin="round"/>
    <path d="M 91.97288513183594 67.54249572753906 C 109.48013305664062 113.36257934570312 114.26827239990234 62.502044677734375 121.35018157958984 145.17990112304688" stroke-width="3.0" fill="none" stroke="rgb(0, 0, 0)" stroke-opacity="1.0" stroke-linecap="round" stroke-linejoin="round"/>
    <path d="M 124.5765380859375 89.87743377685547 C 118.56535339355469 203.8267822265625 131.67446899414062 94.10704803466797 105.42020416259766 205.76754760742188" stroke-width="3.0" fill="none" stroke="rgb(0, 0, 0)" stroke-opacity="1.0" stroke-linecap="round" stroke-linejoin="round"/>
    <path d="M 153.05459594726562 62.966156005859375 C 140.3280487060547 46.08800506591797 102.49918365478516 20.94038200378418 82.26207733154297 81.44342803955078" stroke-width="3.0" fill="none" stroke="rgb(0, 0, 0)" stroke-opacity="1.0" stroke-linecap="round" stroke-linejoin="round"/>
    <path d="M 93.66558837890625 71.02513885498047 C 130.23623657226562 22.05267906188965 133.21240234375 55.11732482910156 166.59007263183594 85.91325378417969" stroke-width="3.0" fill="none" stroke="rgb(0, 0, 0)" stroke-opacity="1.0" stroke-linecap="round" stroke-linejoin="round"/>
    <path d="M 157.23899841308594 65.08528900146484 C 160.814453125 84.67932891845703 238.67324829101562 124.19902801513672 141.33489990234375 60.504730224609375" stroke-width="3.0" fill="none" stroke="rgb(0, 0, 0)" stroke-opacity="1.0" stroke-linecap="round" stroke-linejoin="round"/>
    <path d="M 160.24249267578125 69.33114624023438 C 196.15023803710938 99.02554321289062 168.94273376464844 87.3698959350586 116.8277359008789 55.09986114501953" stroke-width="3.0" fill="none" stroke="rgb(0, 0, 0)" stroke-opacity="1.0" stroke-linecap="round" stroke-linejoin="round"/>
    <path d="M 124.14493560791016 122.61273956298828 C 140.4845733642578 150.98370361328125 131.8158416748047 101.349365234375 115.62785339355469 151.8185577392578" stroke-width="3.0" fill="none" stroke="rgb(0, 0, 0)" stroke-opacity="1.0" stroke-linecap="round" stroke-linejoin="round"/>
    <path d="M 96.41771697998047 84.72924041748047 C 186.16082763671875 108.7612533569336 155.53646850585938 53.59756088256836 142.71681213378906 80.54985046386719" stroke-width="3.0" fill="none" stroke="rgb(0, 0, 0)" stroke-opacity="1.0" stroke-linecap="round" stroke-linejoin="round"/>
    <path d="M 145.3743438720703 81.07550811767578 C 45.514915466308594 41.37065887451172 162.85134887695312 65.26123046875 121.49227905273438 48.767642974853516" stroke-width="3.0" fill="none" stroke="rgb(0, 0, 0)" stroke-opacity="1.0" stroke-linecap="round" stroke-linejoin="round"/>
  </g>
</svg>
